<?xml version="1.0" encoding="utf-8"?>
<!-- Generator: Adobe Illustrator 23.0.5, SVG Export Plug-In . SVG Version: 6.00 Build 0)  -->
<svg version="1.1" id="Layer_1" xmlns:svgjs="http://svgjs.com/svgjs"
	 xmlns="http://www.w3.org/2000/svg" xmlns:xlink="http://www.w3.org/1999/xlink" x="0px" y="0px" viewBox="0 0 512 512"
	 style="enable-background:new 0 0 512 512;" xml:space="preserve">
<style type="text/css">
	.st0{fill:#FFFFFF;}
	.st1{fill:#F26622;}
</style>
<g>
	<g>
		<g>
			<path class="st0" d="M480.5,40.1H31.5C14.2,40.1,0,54.2,0,71.6v304.6c0,17.4,14.2,31.5,31.5,31.5h151.8l-6.1,49.1h-25.4
				c-4.1,0-7.5,3.4-7.5,7.5s3.4,7.5,7.5,7.5h208.4c4.1,0,7.5-3.4,7.5-7.5s-3.4-7.5-7.5-7.5h-25.4l-6.1-49.1h151.8
				c17.4,0,31.5-14.2,31.5-31.5V71.6C512,54.2,497.8,40.1,480.5,40.1z M192.4,456.9l6.1-49.1h27.6l2.7,10.8
				c3.1,12.5,14.3,21.2,27.2,21.2s24.1-8.7,27.2-21.2l2.7-10.8h27.6l6.1,49.1H192.4z M241.6,407.8h28.9l-1.8,7.2
				c-1.5,5.8-6.7,9.9-12.6,9.9s-11.2-4.1-12.6-9.9L241.6,407.8z M497,376.2L497,376.2c0,9.1-7.4,16.5-16.5,16.5H31.5
				c-9.1,0-16.5-7.4-16.5-16.5V71.6c0-9.1,7.4-16.5,16.5-16.5h448.9c9.1,0,16.5,7.4,16.5,16.5L497,376.2L497,376.2z"/>
		</g>
	</g>
	<g>
		<g>
			<path class="st1" d="M424.3,72.1H39.6c-4.1,0-7.5,3.4-7.5,7.5v288.6c0,4.1,3.4,7.5,7.5,7.5h16c4.1,0,7.5-3.4,7.5-7.5
				c0-4.1-3.4-7.5-7.5-7.5h-8.5V87.1h377.3c4.1,0,7.5-3.4,7.5-7.5C431.8,75.5,428.5,72.1,424.3,72.1z"/>
		</g>
	</g>
	<g>
		<g>
			<path class="st0" d="M472.4,72.1h-16c-4.1,0-7.5,3.4-7.5,7.5c0,4.1,3.4,7.5,7.5,7.5h8.5v273.6H87.7c-4.1,0-7.5,3.4-7.5,7.5
				c0,4.1,3.4,7.5,7.5,7.5h384.8c4.1,0,7.5-3.4,7.5-7.5V79.6C479.9,75.5,476.6,72.1,472.4,72.1z"/>
		</g>
	</g>
	<g>
		<g>
			<path class="st1" d="M358.1,155.2c-1.3-1.7-3.4-2.8-5.6-2.9l-176.4-8c-0.1,0-0.3,0-0.4,0c-1-3.4-3.3-6.4-6.2-8.4l-21.6-14.4
				c-3.4-2.3-8.1-1.4-10.4,2.1s-1.4,8.1,2.1,10.4l21.6,14.4c0.1,0.1,0.2,0.2,0.2,0.3l27.5,96.3c0.9,3,2.3,5.7,4.1,8L183,273.1
				c-2.4,4.8-2.2,10.5,0.7,15.1c1,1.7,2.3,3.1,3.8,4.2c-2,3.4-3.1,7.4-3.1,11.7c0,13,10.6,23.5,23.5,23.5c13,0,23.5-10.6,23.5-23.5
				c0-3-0.6-5.9-1.6-8.5h68.4c-1,2.6-1.6,5.5-1.6,8.5c0,13,10.6,23.5,23.5,23.5s23.5-10.6,23.5-23.5c0-3.8-0.9-7.3-2.5-10.5
				c1.5-1.4,2.5-3.3,2.5-5.6c0-4.1-3.4-7.5-7.5-7.5H196.8c-0.1,0-0.3,0-0.4-0.2c-0.2-0.2-0.1-0.4,0-0.5l9.3-18.5
				c1.9,0.5,3.9,0.7,5.9,0.7c0.9,0,1.9-0.1,2.8-0.2l105.4-12.4c13.6-1.6,24.6-11.7,27.3-25.1l12.6-63
				C360,159.1,359.4,156.9,358.1,155.2z M320.1,295.6c4.7,0,8.5,3.8,8.5,8.5c0,4.7-3.8,8.5-8.5,8.5s-8.5-3.8-8.5-8.5
				S315.4,295.6,320.1,295.6z M207.9,295.6c4.7,0,8.5,3.8,8.5,8.5c0,4.7-3.8,8.5-8.5,8.5s-8.5-3.8-8.5-8.5S203.2,295.6,207.9,295.6z
				 M189.5,192.4l-9.4-32.9l30,1.4l5.2,31.5H189.5z M212.6,247c-4.2,0.5-8-2.1-9.2-6.1l-9.6-33.4h24l6.3,38.2L212.6,247z
				 M256.5,241.8l-17.5,2.1l-6-36.5h23.5V241.8z M256.5,192.4h-26l-5.1-30.8l31.1,1.4V192.4z M294.5,237.3l-23,2.7v-32.6h25.7
				L294.5,237.3z M298.6,192.4h-27v-28.7L301,165L298.6,192.4z M332.2,221.4c-1.4,7-7.2,12.3-14.3,13.2l-8.2,1l2.5-28.1H335
				L332.2,221.4z M338,192.4h-24.4l2.4-26.7l27.1,1.2L338,192.4z"/>
		</g>
	</g>
</g>
</svg>
