<?xml version="1.0" encoding="utf-8"?>
<!-- Generator: Adobe Illustrator 23.0.5, SVG Export Plug-In . SVG Version: 6.00 Build 0)  -->
<svg version="1.1" id="Layer_1" xmlns:svgjs="http://svgjs.com/svgjs"
	 xmlns="http://www.w3.org/2000/svg" xmlns:xlink="http://www.w3.org/1999/xlink" x="0px" y="0px" viewBox="0 0 512 512"
	 style="enable-background:new 0 0 512 512;" xml:space="preserve">
<style type="text/css">
	.st0{fill:#FFFFFF;}
	.st1{fill:#F26622;}
</style>
<g>
	<g>
		<path class="st0" d="M453.6,381.6c-16,0-29.4,11.2-32.8,26.1H258.4v-8.6c0-8.2-5.9-15.4-13.9-17c-10.5-2.1-20.7-5.6-30.4-10.2
			c-31.3-15-54.9-41.3-66.4-74.1c-11.5-32.8-9.6-68.1,5.4-99.4c17.8-37,51.1-63,91.4-71.2c8.1-1.7,14-8.8,14-17V100h162.3
			c3.4,14.9,16.8,26.1,32.8,26.1c18.6,0,33.7-15.1,33.7-33.7s-15.1-33.7-33.7-33.7c-16,0-29.4,11.2-32.8,26.1H258.4V44h71.9
			c3.4,14.9,16.8,26.1,32.8,26.1c18.6,0,33.7-15.1,33.7-33.7S381.7,2.9,363.2,2.9c-16,0-29.4,11.2-32.8,26.1h-71.9V17.4
			c0-5-2.2-9.8-5.9-13.1c-3.8-3.3-8.8-4.8-13.7-4.1c-21.5,2.9-42.5,8.5-62.6,16.6c-5.9,2.4-10.6,7.2-12.9,13.2
			c-2.3,6-2,12.8,0.8,18.6l13.6,28c1.9,3.8,0.5,8.5-3.2,10.7c-16.7,9.7-31.8,21.8-44.9,35.9c-2.8,3.1-7.7,3.4-11,0.8l-24.3-19.3
			c-5-4-11.6-5.7-17.9-4.8c-6.4,1-12.1,4.6-15.8,9.9c-15.3,22.3-26.9,46.7-34.7,72.6c-1.9,6.2-1.1,13,2.2,18.5
			c3.2,5.6,8.7,9.6,15,11l30.3,6.8c4.2,0.9,6.9,4.9,6.3,9.1c-2.8,19.1-2.7,38.4,0.2,57.5c0.6,4.2-2.1,8.2-6.3,9.2l-30.3,7
			c-6.3,1.5-11.7,5.5-14.9,11c-3.2,5.6-4,12.4-2.1,18.5c7.9,25.9,19.7,50.3,35.1,72.4c3.7,5.3,9.5,8.9,15.9,9.8
			c6.4,0.9,12.9-0.8,17.9-4.9l24.4-19.5c3.3-2.7,8.2-2.3,11.1,0.7c2.8,3,6.5,6.3,10.9,10c3.2,2.6,8,2.2,10.6-1c2.6-3.2,2.2-8-1-10.6
			c-3.9-3.2-7.1-6.1-9.5-8.6c-8.2-8.8-22.1-9.7-31.5-2.2l-24.4,19.5c-1.8,1.4-4,2.1-6.3,1.7c-2.3-0.3-4.3-1.6-5.7-3.5
			C59.2,373.9,48,351,40.6,326.6c-0.7-2.2-0.4-4.6,0.7-6.6c1.2-2,3-3.4,5.3-3.9l30.3-7c11.8-2.7,19.6-14.2,17.8-26.1
			c-2.7-17.6-2.8-35.4-0.2-53c1.7-11.9-6.1-23.3-17.9-25.9l-30.3-6.8c-2.2-0.5-4.1-1.9-5.3-3.9c-1.2-2-1.5-4.4-0.8-6.6
			c7.3-24.4,18.3-47.4,32.7-68.4c1.3-1.9,3.3-3.2,5.6-3.5c2.3-0.3,4.5,0.3,6.3,1.7l24.3,19.3c9.5,7.5,23.3,6.5,31.4-2.3
			c12.1-13,26-24.2,41.4-33.1c10.4-6.1,14.4-19.4,9.2-30.3l-13.6-28c-1-2.1-1.1-4.4-0.3-6.6c0.8-2.1,2.4-3.8,4.5-4.6
			c18.9-7.6,38.7-12.9,58.9-15.6c0.8-0.1,1.4,0.2,1.8,0.5c0.3,0.3,0.8,0.8,0.8,1.7v92.8c0,1.1-0.8,2-1.9,2.2
			c-45,9.2-82.1,38.1-101.9,79.4c-16.8,34.9-18.9,74.3-6.1,110.9c12.9,36.6,39.2,65.9,74.1,82.7c10.8,5.2,22.2,9,33.9,11.4
			c1.1,0.2,1.9,1.1,1.9,2.2v95.5c0,0.9-0.5,1.5-0.8,1.7c-0.3,0.3-0.9,0.6-1.7,0.5c-19.7-2.6-39.1-7.7-57.7-15.2
			c-2.1-0.8-3.7-2.5-4.6-4.6c-0.8-2.2-0.8-4.5,0.2-6.6c0,0,0-0.1,0-0.1l15.3-33.1c4-8.6,0.9-18.9-7.1-24c-5.1-3.2-10-6.5-14.6-9.6
			c-3.4-2.3-8.1-1.5-10.5,2c-2.3,3.4-1.5,8.1,2,10.5c4.8,3.3,9.8,6.6,15,9.9c1.7,1.1,2.3,3.2,1.5,5l-15.3,33
			c-2.8,5.8-3,12.5-0.7,18.5c2.3,6,7.1,10.7,13,13.1c19.7,7.9,40.4,13.3,61.3,16.1c0.8,0.1,1.5,0.2,2.3,0.2c4.2,0,8.2-1.5,11.4-4.3
			c3.8-3.3,5.9-8.1,5.9-13.1v-16h71.9c3.4,14.9,16.8,26.1,32.8,26.1c18.6,0,33.7-15.1,33.7-33.7c0-18.6-15.1-33.7-33.7-33.7
			c-16,0-29.4,11.2-32.8,26.1h-71.9v-40.9h162.3c3.4,14.9,16.8,26.1,32.8,26.1c18.6,0,33.7-15.1,33.7-33.7S472.1,381.6,453.6,381.6
			L453.6,381.6z M453.6,73.8c10.3,0,18.6,8.3,18.6,18.6s-8.3,18.6-18.6,18.6S435,102.7,435,92.4S443.3,73.8,453.6,73.8z M363.2,17.9
			c10.3,0,18.6,8.3,18.6,18.6s-8.3,18.6-18.6,18.6s-18.6-8.3-18.6-18.6S352.9,17.9,363.2,17.9z M363.2,452.6
			c10.3,0,18.6,8.3,18.6,18.6c0,10.3-8.3,18.6-18.6,18.6s-18.6-8.3-18.6-18.6C344.6,460.9,352.9,452.6,363.2,452.6z M453.6,433.8
			c-10.3,0-18.6-8.3-18.6-18.6s8.3-18.6,18.6-18.6s18.6,8.3,18.6,18.6S463.8,433.8,453.6,433.8z"/>
		<path class="st1" d="M264.6,230.1c4.2,0,7.5-3.4,7.5-7.5c0-4.2-3.4-7.5-7.5-7.5h-27.3c-4.2,0-7.5,3.4-7.5,7.5v64.7
			c0,4.2,3.4,7.5,7.5,7.5h27.3c4.2,0,7.5-3.4,7.5-7.5c0-4.2-3.4-7.5-7.5-7.5h-19.7v-17.3h17.7c4.2,0,7.5-3.4,7.5-7.5
			c0-4.2-3.4-7.5-7.5-7.5h-17.7v-17.3L264.6,230.1L264.6,230.1z"/>
		<path class="st1" d="M348.6,239.3c0-13.5-11.4-24.5-25.5-24.5h-17.4c0,0,0,0,0,0c0,0,0,0,0,0c-4.2,0-7.5,3.4-7.5,7.5v65.3
			c0,4.2,3.4,7.5,7.5,7.5s7.5-3.4,7.5-7.5v-20.2l22.1,25.2c1.5,1.7,3.6,2.6,5.7,2.6c1.8,0,3.5-0.6,5-1.9c3.1-2.7,3.4-7.5,0.7-10.6
			L329.4,263C340.4,260.3,348.6,250.7,348.6,239.3L348.6,239.3z M323.1,248.7c-2.3,0-6.2,0-9.8,0c0-3.5,0-7.3,0-9.5
			c0-1.9,0-5.8,0-9.4h9.8c5.6,0,10.4,4.3,10.4,9.4C333.5,244.4,328.8,248.7,323.1,248.7z"/>
		<path class="st1" d="M376.7,287.7c0,4.2,3.4,7.5,7.5,7.5s7.5-3.4,7.5-7.5v-20.9c3.8,0,8.2,0,10.7,0c14.5,0,26.3-11.7,26.3-26
			c0-14.3-11.8-26-26.3-26h-18.2c-2,0-3.9,0.8-5.3,2.2c-1.4,1.4-2.2,3.3-2.2,5.3V287.7z M402.4,229.8c6.1,0,11.3,5,11.3,10.9
			s-5.2,10.9-11.3,10.9c-2.4,0-6.8,0-10.6,0c0-3.9-0.1-17.7-0.1-21.9L402.4,229.8L402.4,229.8z"/>
		<path class="st1" d="M313.6,174.2H258c-45.1,0-81.8,36.7-81.8,81.8s36.7,81.8,81.8,81.8h136.6c45.1,0,81.8-36.7,81.8-81.8
			c0-45.1-36.7-81.8-81.8-81.8h-50.8c-4.2,0-7.5,3.4-7.5,7.5c0,4.2,3.4,7.5,7.5,7.5h50.8c36.8,0,66.7,29.9,66.7,66.7
			s-29.9,66.7-66.7,66.7H258c-36.8,0-66.7-29.9-66.7-66.7s29.9-66.7,66.7-66.7h55.6c4.2,0,7.5-3.4,7.5-7.5
			C321.2,177.6,317.8,174.2,313.6,174.2L313.6,174.2z"/>
	</g>
</g>
</svg>
