<?xml version="1.0" encoding="utf-8"?>
<!-- Generator: Adobe Illustrator 23.0.5, SVG Export Plug-In . SVG Version: 6.00 Build 0)  -->
<svg version="1.1" id="Layer_1" xmlns:svgjs="http://svgjs.com/svgjs"
	 xmlns="http://www.w3.org/2000/svg" xmlns:xlink="http://www.w3.org/1999/xlink" x="0px" y="0px" viewBox="0 0 512 512"
	 style="enable-background:new 0 0 512 512;" xml:space="preserve">
<style type="text/css">
	.st0{fill:#F26622;}
	.st1{fill:#FFFFFF;}
</style>
<g>
	<g>
		<path class="st0" d="M264,72c8.8,0,16,7.2,16,16h16c0-17.6-14.4-32-32-32s-32,14.4-32,32v16c0,17.6,14.4,32,32,32s32-14.4,32-32
			h-16c0,8.8-7.2,16-16,16s-16-7.2-16-16V88C248,79.2,255.2,72,264,72z"/>
		<path class="st0" d="M352,56h-40v80h16v-32h24c4.4,0,8,3.6,8,8v24h16v-24c0-6.2-2.4-11.7-6.2-16c3.8-4.3,6.2-9.8,6.2-16
			C376,66.8,365.2,56,352,56z M328,88V72h24c4.4,0,8,3.6,8,8s-3.6,8-8,8H328z"/>
		<path class="st0" d="M434.2,104h-4.5l-16-48H392v80h16V89.3l10.2,30.7h27.5L456,89.3V136h16V56h-21.8L434.2,104z"/>
		<path class="st0" d="M40,168h16v16H40V168z"/>
		<path class="st1" d="M72,168h16v16H72V168z"/>
		<path class="st1" d="M104,168h16v16h-16V168z"/>
		<path class="st0" d="M416,248H288c-13.2,0-24,10.8-24,24v16c0,13.2,10.8,24,24,24v16c-13.2,0-24,10.8-24,24v16
			c0,13.2,10.8,24,24,24v16c-13.2,0-24,10.8-24,24v16c0,13.2,10.8,24,24,24h128c13.2,0,24-10.8,24-24v-16c0-13.2-10.8-24-24-24v-16
			c13.2,0,24-10.8,24-24v-16c0-13.2-10.8-24-24-24v-16c13.2,0,24-10.8,24-24v-16C440,258.8,429.2,248,416,248z M424,432v16
			c0,4.4-3.6,8-8,8H288c-4.4,0-8-3.6-8-8v-16c0-4.4,3.6-8,8-8h128C420.4,424,424,427.6,424,432z M400,408h-96v-16h96V408z M424,352
			v16c0,4.4-3.6,8-8,8H288c-4.4,0-8-3.6-8-8v-16c0-4.4,3.6-8,8-8h128C420.4,344,424,347.6,424,352z M400,328h-96v-16h96V328z
			 M424,288c0,4.4-3.6,8-8,8H288c-4.4,0-8-3.6-8-8v-16c0-4.4,3.6-8,8-8h128c4.4,0,8,3.6,8,8V288z"/>
		<path class="st1" d="M464,8H240c-22.1,0-40,17.9-40,40v88H32c-13.2,0-24,10.8-24,24v320c0,13.2,10.8,24,24,24h416
			c13.2,0,24-10.8,24-24V183.2c18.2-3.7,32-19.9,32-39.2V48C504,25.9,486.1,8,464,8L464,8z M32,152h168.8c3.7,18.2,19.9,32,39.2,32
			h28.3l13.3,16H24v-40C24,155.6,27.6,152,32,152z M448,488H32c-4.4,0-8-3.6-8-8V216h270.9l6,7.2c4.6,5.6,11.5,8.8,18.7,8.8
			c10.5,0,19.4-6.7,22.8-16H456v264C456,484.4,452.4,488,448,488L448,488z M344,200v-16h112v16H344z M488,144c0,13.2-10.8,24-24,24
			H328v39.7c0,4.6-3.7,8.3-8.3,8.3c-2.5,0-4.8-1.1-6.4-3l-37.5-45H240c-13.2,0-24-10.8-24-24V48c0-13.2,10.8-24,24-24h224
			c13.2,0,24,10.8,24,24V144z"/>
		<path class="st1" d="M144,408c48.5,0,88-39.5,88-88s-39.5-88-88-88s-88,39.5-88,88S95.5,408,144,408z M144,392
			c-17,0-32.6-5.9-44.9-15.8l48.2-48.2h68.2C211.5,363.9,181,392,144,392z M200.2,275.1c8.3,10.4,13.8,23,15.3,36.9h-52.2
			L200.2,275.1z M188.9,263.8L144,308.7l-44.9-44.9C111.4,253.9,127,248,144,248S176.6,253.9,188.9,263.8z M87.8,275.1l44.9,44.9
			l-44.9,44.9C77.9,352.6,72,337,72,320S77.9,287.4,87.8,275.1z"/>
		<path class="st0" d="M40,424h16v16H40V424z"/>
		<path class="st1" d="M72,424h176v16H72V424z"/>
		<path class="st0" d="M40,456h48v16H40V456z"/>
		<path class="st0" d="M104,456h144v16H104V456z"/>
	</g>
</g>
</svg>
