<?xml version="1.0" encoding="utf-8"?>
<!-- Generator: Adobe Illustrator 23.0.5, SVG Export Plug-In . SVG Version: 6.00 Build 0)  -->
<svg version="1.1" id="Layer_1" xmlns="http://www.w3.org/2000/svg" xmlns:xlink="http://www.w3.org/1999/xlink" x="0px" y="0px"
	 viewBox="0 0 250 200.1" style="enable-background:new 0 0 250 200.1;" xml:space="preserve">
<style type="text/css">
	.st0{fill:#A6BBE1;}
	.st1{opacity:0.38;fill:#5F6C80;}
	.st2{fill:#8EA2C3;}
	.st3{fill:url(#SVGID_1_);}
	.st4{fill:url(#SVGID_2_);}
	.st5{fill:url(#SVGID_3_);}
	.st6{fill:url(#SVGID_4_);}
	.st7{fill:url(#SVGID_5_);}
	.st8{fill:url(#SVGID_6_);}
	.st9{fill:url(#SVGID_7_);}
	.st10{fill:url(#SVGID_8_);}
	.st11{fill:url(#SVGID_9_);}
	.st12{fill:url(#SVGID_10_);}
	.st13{fill:url(#SVGID_11_);}
	.st14{fill:url(#SVGID_12_);}
	.st15{fill:url(#SVGID_13_);}
	.st16{fill:url(#SVGID_14_);}
	.st17{fill:url(#SVGID_15_);}
	.st18{fill:url(#SVGID_16_);}
	.st19{fill:url(#SVGID_17_);}
	.st20{fill:url(#SVGID_18_);}
	.st21{fill:url(#SVGID_19_);}
	.st22{fill:url(#SVGID_20_);}
	.st23{fill:url(#SVGID_21_);}
	.st24{fill:url(#SVGID_22_);}
	.st25{fill:url(#SVGID_23_);}
	.st26{fill:url(#SVGID_24_);}
	.st27{fill:url(#SVGID_25_);}
	.st28{fill:url(#SVGID_26_);}
	.st29{fill:#A06935;}
	.st30{fill:url(#SVGID_27_);}
	.st31{fill:url(#SVGID_28_);}
	.st32{fill:url(#SVGID_29_);}
	.st33{fill:url(#SVGID_30_);}
	.st34{fill:url(#SVGID_31_);}
	.st35{fill:url(#SVGID_32_);}
	.st36{fill:url(#SVGID_33_);}
	.st37{fill:url(#SVGID_34_);}
	.st38{fill:url(#SVGID_35_);}
	.st39{fill:url(#SVGID_36_);}
	.st40{fill:#FBCBBD;}
	.st41{fill:url(#SVGID_37_);}
	.st42{fill:url(#SVGID_38_);}
	.st43{fill:url(#SVGID_39_);}
	.st44{fill:url(#SVGID_40_);}
	.st45{fill:url(#SVGID_41_);}
	.st46{fill:url(#SVGID_42_);}
	.st47{fill:url(#SVGID_43_);}
	.st48{fill:url(#SVGID_44_);}
	.st49{fill:url(#SVGID_45_);}
	.st50{fill:#F9AA92;}
	.st51{fill:url(#SVGID_46_);}
	.st52{fill:url(#SVGID_47_);}
	.st53{fill:url(#SVGID_48_);}
	.st54{fill:url(#SVGID_49_);}
	.st55{fill:url(#SVGID_50_);}
	.st56{fill:url(#SVGID_51_);}
	.st57{fill:url(#SVGID_52_);}
	.st58{fill:url(#SVGID_53_);}
	.st59{fill:url(#SVGID_54_);}
	.st60{fill:url(#SVGID_55_);}
	.st61{fill:url(#SVGID_56_);}
	.st62{fill:url(#SVGID_57_);}
	.st63{fill:url(#SVGID_58_);}
	.st64{fill:url(#SVGID_59_);}
	.st65{fill:url(#SVGID_60_);}
</style>
<g>
	<g>
		<g>
			<g>
				<g>
					<path class="st0" d="M129.9,195.6c-5.1-18.7-23.2-37.4-38.8-59.9c-4.6-6.2-8.7-12.6-12.9-18.8c-3.4,3-6.7,6-9.5,9.3
						c2.2-5.4,2.5-11.1,4.5-16.5c-5.3-7.2-11-13.7-17.9-18.7c-0.5,3.6-1.5,7.2-3,10.9c-1.7-4.9-1.5-10-3.3-14.8
						c-6-3.1-12.9-5.1-21.2-5.6c0.4,14.8,3.2,27.6,7.6,38.9c6.7,2.5,14.1,4.3,20.2,8c-6.2-2.3-12.4-3.1-18.6-4.1
						c6.1,14,14.7,25.5,24.3,35.3c15.4,15.2,33.4,26.2,55.6,35.9H129.9z"/>
					<path class="st1" d="M108.4,180.5c5.5,5.1,10.9,10.1,16.1,15.1h1c-6-5.9-12.5-11.7-19-17.8c-13.6-12.5-27.1-26.5-38.9-42.4
						c-5.9-7.9-11.5-16.3-17-24.6c-5.5-8.3-10.8-16.7-17-24.3c-0.2-0.2-0.7,0.2-0.5,0.5c6.7,8.8,12.8,18.1,19,27.5
						c10.8,16.7,22.7,32.7,36,46.3C94.7,167.7,101.6,174.2,108.4,180.5z"/>
				</g>
				<g>
					<path class="st2" d="M75.6,181.6c16.5,4.9,31,9.3,47.5,14h6.7c-8.7-16.8-20.3-36.2-36.9-49.5c-1.5-1.1-3.1-2.1-4.8-3
						c0.4,4.4,0.4,9,0.4,13.5c-4.7-5.3-7-12-11-17.9c-6.4-1.8-13.7-2.5-22.1-1.6c-0.3,0-0.5,0.1-0.8,0.1c3.1,4.2,6.5,8.2,9.8,12.4
						c-4.9-3.3-9-8.3-13.8-11.8c-14.7,2.5-31.8,9.9-46.2,24.2c10.3,2.7,19.5,5.1,28,7.4c10.3-2.5,21.4-1.3,31.7-2.8
						c-5.2,2.4-10.4,4.9-15.5,7.3c6.9,2,13.4,3.8,19.4,5.6c5.1-2.3,10.1-4,15.9-4.7C81.7,177.7,78.7,179.8,75.6,181.6z"/>
					<path class="st1" d="M112.2,183c5.3,4.1,10.5,8.4,15.8,12.6h0.7c-6-5.1-12.1-9.9-18.2-14.7c-11-8.4-22.4-16.6-37.6-21.8
						c-7.6-2.6-16.3-4.4-26.1-4.9c-9.8-0.4-20.9,0.4-32.9,3.6c-0.3,0.1-0.4,0.7-0.1,0.6c13.4-3.3,25.6-4.1,36.3-3.3
						c19,1.6,33,8,45,15.6C101.1,174.6,106.7,178.8,112.2,183z"/>
				</g>
			</g>
			<g>
				<g>
					<path class="st0" d="M246.2,137.2c-14.6,0.3-27.3,2.1-38.5,4.9c-2.4,4.2-4.2,8.9-7.9,12.7c2.3-3.9,3-7.8,4.1-11.7
						c-13.8,3.9-25.2,9.3-34.8,15.4c-15.8,10.2-26.9,22.3-36.9,37.2h21.1c12.3-5,25.1-12.1,39.4-18.5c6.1-2.9,12.5-5.5,18.5-8.1
						c-2.9-2.1-5.9-4.2-9.2-6c5.3,1.3,11,1.6,16.3,2.8c7.1-3.3,13.6-6.9,18.5-11.3c-3.6-0.3-7.1-0.9-10.8-1.8
						c4.8-1.1,9.8-1,14.6-2.1C243.8,146.7,245.7,142.4,246.2,137.2z"/>
					<path class="st1" d="M240.9,140.6c-8.7,4.2-17.9,8.1-27.1,12c-16.5,6.9-32.2,14.4-45.7,22.8c-6.8,4.2-13.2,8.5-19.4,12.8
						c-3.7,2.6-7.3,5.1-11,7.5h1c4.2-2.8,8.3-5.8,12.6-8.7c12.4-8.6,26.1-17.1,41.8-24.5c7.8-3.8,16.1-7.3,24.3-10.8
						c8.2-3.5,16.5-6.9,24-10.8C241.6,140.8,241.1,140.5,240.9,140.6z"/>
				</g>
				<g>
					<path class="st2" d="M234.9,59.6c-27-2.8-51,3.8-68.5,13.5c-2.1,7.7-2.2,16.3-4.6,23.9c0-7.2,0.2-14.2-0.1-21.1
						c-0.3,0.2-0.6,0.4-0.9,0.6c-9.4,6.1-16.5,13-21.7,20.2c0.7,9.5,3.9,18.4,3.5,27.9c-3.8-4.8-7.6-9.5-10.9-14.5
						c-1,2.4-1.8,4.8-2.4,7.2c-5.8,26.3-2.5,54.3,2.1,78.3h7.1c13.8-19.3,25.3-36.3,38.8-55.7c-4.8,0.7-9.6,0.9-14.4-0.2
						c6.5-4.1,13.2-6.5,20.5-8.4c4.9-7,10-14.3,15.6-22.1c-7.4,1.7-14.9,3.5-22.3,5.3c12-7,22.6-17.5,35.5-23.6
						C218.8,81.4,226.4,71,234.9,59.6z"/>
					<path class="st1" d="M221.7,63.3c-15.3,6.7-27.5,15.1-37.4,23.8c-9.9,8.7-17.4,17.8-23.2,27c-11.5,18.2-16.5,36.3-21,54.4
						c-2.2,9-4.2,18-6,27.2h0.7c1.7-7.9,3.4-15.8,5.3-23.6c2.2-9,4.6-18.1,7.7-27.1c6.2-17.9,15.5-36.4,33.9-54
						c10.4-9.9,23.9-19.2,40.6-27C222.7,63.7,222.1,63.2,221.7,63.3z"/>
				</g>
			</g>
		</g>
		<g>
			<g>
				<g>
					<linearGradient id="SVGID_1_" gradientUnits="userSpaceOnUse" x1="130.843" y1="181.4286" x2="130.843" y2="56.1453">
						<stop  offset="0" style="stop-color:#000000"/>
						<stop  offset="1" style="stop-color:#8EA2C3"/>
					</linearGradient>
					<polygon class="st3" points="186.7,46.5 75,46.5 55.2,72.9 206.5,72.9 					"/>
					<linearGradient id="SVGID_2_" gradientUnits="userSpaceOnUse" x1="130.843" y1="181.4286" x2="130.843" y2="56.1457">
						<stop  offset="0" style="stop-color:#2E343E"/>
						<stop  offset="1" style="stop-color:#8EA2C3"/>
					</linearGradient>
					<polygon class="st4" points="206.5,72.9 55.2,72.9 130.8,171.5 					"/>
				</g>
				<g>
					<linearGradient id="SVGID_3_" gradientUnits="userSpaceOnUse" x1="130.843" y1="181.4286" x2="130.843" y2="56.1457">
						<stop  offset="0" style="stop-color:#5C697F"/>
						<stop  offset="1" style="stop-color:#8EA2C3"/>
					</linearGradient>
					<polygon class="st5" points="165.7,72.9 96,72.9 130.8,171.5 					"/>
				</g>
			</g>
		</g>
		<g>
			<linearGradient id="SVGID_4_" gradientUnits="userSpaceOnUse" x1="49.3391" y1="55.9489" x2="103.1143" y2="55.9489">
				<stop  offset="0" style="stop-color:#FBCE0A"/>
				<stop  offset="0.7319" style="stop-color:#FBBB26"/>
				<stop  offset="1" style="stop-color:#FBB331"/>
			</linearGradient>
			<path class="st6" d="M103.1,41.7H91.5c-1.7,0.5-3.4,2.3-3.2,3.7c0.4,3.5-1.3,7.8-6.5,10.2c-4.2,1.9-8.1,0.7-8.2-2.6
				c-0.1-2.7,2.3-5.2,5-7.6c1.5-1.4,1.7-3.2,0.5-3.6h-8.4L49.5,70l-0.2,0.2h44L103.1,41.7z"/>
			<linearGradient id="SVGID_5_" gradientUnits="userSpaceOnUse" x1="158.5028" y1="55.9489" x2="212.0857" y2="55.9489">
				<stop  offset="0" style="stop-color:#FBCE0A"/>
				<stop  offset="0.7319" style="stop-color:#FBBB26"/>
				<stop  offset="1" style="stop-color:#FBB331"/>
			</linearGradient>
			<path class="st7" d="M212.1,70.2l-5.6-7.8l-2.5-3.3c-1.5-1.6-4-2.4-4.9-1.5c-1.9,2.2-5.8,2.7-11.1-1.4c-4.3-3.3-6.3-7.7-4.3-9.6
				c1.7-1.5,5-0.3,8.4,1.1c1.8,0.7,2.9,0.2,2.8-0.9l-3.9-5.2h-32.4l9.8,28.4H212.1z"/>
			<linearGradient id="SVGID_6_" gradientUnits="userSpaceOnUse" x1="48.2748" y1="55.9489" x2="102.05" y2="55.9489">
				<stop  offset="0" style="stop-color:#FFEDAE"/>
				<stop  offset="1" style="stop-color:#FFEDAE;stop-opacity:0"/>
			</linearGradient>
			<path class="st8" d="M90.5,41.7c-1.7,0.5-3.4,2.3-3.2,3.7c0.4,3.5-1.3,7.8-6.5,10.2c-4.2,1.9-8.1,0.7-8.2-2.6
				c-0.1-2.7,2.3-5.2,5-7.6c1.5-1.4,1.7-3.2,0.5-3.6h-8.4L48.4,70l-0.2,0.2h4.5c14.5-7.5,29.7-13.1,45.4-17.1l3.9-11.4H90.5z"/>
			<linearGradient id="SVGID_7_" gradientUnits="userSpaceOnUse" x1="157.4385" y1="43.7753" x2="192.9434" y2="43.7753">
				<stop  offset="0" style="stop-color:#FFEDAE"/>
				<stop  offset="1" style="stop-color:#FFEDAE;stop-opacity:0"/>
			</linearGradient>
			<path class="st9" d="M157.4,41.7l1.2,3.3c11.4-0.3,22.9,0,34.3,0.7l-3.1-4.1H157.4z"/>
			<linearGradient id="SVGID_8_" gradientUnits="userSpaceOnUse" x1="108.3576" y1="161.8082" x2="130.8082" y2="161.8082">
				<stop  offset="0" style="stop-color:#E35626"/>
				<stop  offset="1" style="stop-color:#F47C20"/>
			</linearGradient>
			<polygon class="st10" points="108.4,147.2 130.8,176.5 120.5,147.2 			"/>
			<linearGradient id="SVGID_9_" gradientUnits="userSpaceOnUse" x1="142.1096" y1="163.934" x2="148.483" y2="146.2847">
				<stop  offset="0" style="stop-color:#843B70"/>
				<stop  offset="1" style="stop-color:#B9529E"/>
			</linearGradient>
			<polygon class="st11" points="130.8,176.5 157,142.3 142.9,142.3 			"/>
			<linearGradient id="SVGID_10_" gradientUnits="userSpaceOnUse" x1="168.3256" y1="70.1807" x2="212.2773" y2="70.1807">
				<stop  offset="0" style="stop-color:#E3C420"/>
				<stop  offset="1" style="stop-color:#F2E90B"/>
			</linearGradient>
			<polygon class="st12" points="212.1,70.2 168.3,70.2 168.3,70.2 212.3,70.2 212.3,70.2 			"/>
			<linearGradient id="SVGID_11_" gradientUnits="userSpaceOnUse" x1="162.9678" y1="77.7517" x2="168.3231" y2="77.7517">
				<stop  offset="0" style="stop-color:#E3C420"/>
				<stop  offset="1" style="stop-color:#F2E90B"/>
			</linearGradient>
			<path class="st13" d="M163,85.3C163,85.3,163,85.3,163,85.3l5.4-15.2l0,0L163,85.3z"/>
			<linearGradient id="SVGID_12_" gradientUnits="userSpaceOnUse" x1="49.3391" y1="89.5263" x2="106.9607" y2="89.5263">
				<stop  offset="0" style="stop-color:#E35626"/>
				<stop  offset="1" style="stop-color:#F47C20"/>
			</linearGradient>
			<polygon class="st14" points="107,108.9 93.3,70.2 93.3,70.2 93.3,70.2 49.3,70.2 49.4,70.2 49.5,70.4 75.1,103.7 105.1,103.7 
							"/>
			<linearGradient id="SVGID_13_" gradientUnits="userSpaceOnUse" x1="153.4529" y1="105.1387" x2="158.515" y2="105.1387">
				<stop  offset="0" style="stop-color:#E3C420"/>
				<stop  offset="1" style="stop-color:#F2E90B"/>
			</linearGradient>
			<path class="st15" d="M153.5,112.3l4.9-13.2c0.1-0.4,0.2-0.7,0.2-1.1c0,0,0,0,0,0c0,0,0,0,0,0L153.5,112.3L153.5,112.3z"/>
			<linearGradient id="SVGID_14_" gradientUnits="userSpaceOnUse" x1="168.3231" y1="70.165" x2="168.3233" y2="70.165">
				<stop  offset="0" style="stop-color:#E3C420"/>
				<stop  offset="1" style="stop-color:#F2E90B"/>
			</linearGradient>
			<polygon class="st16" points="168.3,70.2 168.3,70.2 168.3,70.2 			"/>
			<linearGradient id="SVGID_15_" gradientUnits="userSpaceOnUse" x1="106.9053" y1="128.9244" x2="154.7111" y2="128.9244">
				<stop  offset="0" style="stop-color:#E35626"/>
				<stop  offset="1" style="stop-color:#F47C20"/>
			</linearGradient>
			<path class="st17" d="M153,113.6L153,113.6l0.5-1.3l1.3-3.6h-47.8l0.1,0.2l3.4,9.6c0.7,1.9,3.2,3.1,4.5,2.2
				c2-1.4,3.9-2.6,7.2-1.1c4,1.8,6.8,6.3,6,9.6c-0.9,4-5.4,3.5-9.7,1.4c-2-1-3.8,0.2-3.1,2.1l5.2,14.6h-0.1l0.7,2h19.3L153,113.6z"
				/>
			<linearGradient id="SVGID_16_" gradientUnits="userSpaceOnUse" x1="131.992" y1="141.076" x2="128.2995" y2="166.1596">
				<stop  offset="0" style="stop-color:#FBCE0A"/>
				<stop  offset="0.7319" style="stop-color:#FBBB26"/>
				<stop  offset="1" style="stop-color:#FBB331"/>
			</linearGradient>
			<polygon class="st18" points="140.5,149.1 121.2,149.1 130.8,176.5 			"/>
			<linearGradient id="SVGID_17_" gradientUnits="userSpaceOnUse" x1="93.293" y1="89.4479" x2="168.3233" y2="89.4479">
				<stop  offset="0" style="stop-color:#FBCE0A"/>
				<stop  offset="0.7319" style="stop-color:#FBBB26"/>
				<stop  offset="1" style="stop-color:#FBB331"/>
			</linearGradient>
			<path class="st19" d="M158.5,98c-0.1-1.3-1.6-1.9-3.2-1.1c-4.3,2.2-8.8,2.7-9.7-1.4c-0.7-3.3,2.2-7.7,6.2-9.6
				c3.3-1.5,5.2-0.3,7.2,1.1c1.3,0.9,3.2,0.1,4-1.8c0,0,0,0,0,0l5.4-15.2l0,0h-28.8c-1.2,0.7-1.7,2.2-0.9,3.5
				c2.2,3.5,2.7,7.8-1.4,10.2c-3.3,1.9-7.7,0.7-9.5-2.6c-1.5-2.7-0.3-5.1,1.1-7.6c0.7-1.3,0.2-2.8-1-3.5H93.3l0,0l13.6,38.6h47.8
				L158.5,98z"/>
			<linearGradient id="SVGID_18_" gradientUnits="userSpaceOnUse" x1="145.5248" y1="91.889" x2="212.2507" y2="91.889">
				<stop  offset="0" style="stop-color:#843B70"/>
				<stop  offset="1" style="stop-color:#B9529E"/>
			</linearGradient>
			<path class="st20" d="M168.3,70.2L168.3,70.2L163,85.3c0,0,0,0,0,0.1c0,0,0,0,0,0c-0.7,1.9-2.7,2.7-4,1.8
				c-1.9-1.4-3.9-2.6-7.2-1.1c-4,1.8-6.9,6.3-6.2,9.6c0.9,4,5.4,3.5,9.7,1.4c1.7-0.8,3.1-0.2,3.2,1.1c0,0,0,0,0,0c0,0,0,0,0,0
				c0,0.3,0,0.7-0.2,1.1l-4.9,13.2l0,0l-0.5,1.3h0h15.5c1.6-0.5,2.9-2.2,2.7-3.6c-0.5-2.4-0.8-4.9,1.7-7.6c3-3.3,8-4.6,10.5-2.6
				c3.2,2.4,1.1,6.7-2.4,10.2c-0.8,0.8-1.1,1.7-1,2.4l32.3-42.1L168.3,70.2L168.3,70.2z"/>
			<linearGradient id="SVGID_19_" gradientUnits="userSpaceOnUse" x1="193.06" y1="47.2145" x2="194.852" y2="81.2627">
				<stop  offset="0" style="stop-color:#E35626"/>
				<stop  offset="1" style="stop-color:#F47C20"/>
			</linearGradient>
			<path class="st21" d="M192.1,47.8c-3.5-1.4-6.8-2.6-8.4-1.1c-2,1.8,0,6.3,4.3,9.6c5.3,4,9.2,3.5,11.1,1.4
				c0.8-0.9,3.3-0.1,4.9,1.5l-9.1-12.1C195,48,193.8,48.5,192.1,47.8z"/>
			<linearGradient id="SVGID_20_" gradientUnits="userSpaceOnUse" x1="206.4505" y1="66.2802" x2="212.2773" y2="66.2802">
				<stop  offset="0" style="stop-color:#E3C420"/>
				<stop  offset="1" style="stop-color:#F2E90B"/>
			</linearGradient>
			<polygon class="st22" points="212.3,70.2 206.5,62.4 212.1,70.2 			"/>
			<linearGradient id="SVGID_21_" gradientUnits="userSpaceOnUse" x1="209.3639" y1="63.2827" x2="209.3639" y2="69.0099">
				<stop  offset="0" style="stop-color:#E3C420"/>
				<stop  offset="1" style="stop-color:#F2E90B"/>
			</linearGradient>
			<polygon class="st23" points="212.3,70.2 206.5,62.4 212.1,70.2 			"/>
			<linearGradient id="SVGID_22_" gradientUnits="userSpaceOnUse" x1="73.5958" y1="49.1242" x2="91.537" y2="49.1242">
				<stop  offset="0" style="stop-color:#843B70"/>
				<stop  offset="1" style="stop-color:#B9529E"/>
			</linearGradient>
			<path class="st24" d="M78.6,45.4c-2.6,2.4-5.1,4.9-5,7.6c0.1,3.3,4,4.6,8.2,2.6c5.2-2.4,6.9-6.7,6.5-10.2
				c-0.2-1.4,1.5-3.2,3.2-3.7H79C80.2,42.2,80.1,43.9,78.6,45.4z"/>
			<linearGradient id="SVGID_23_" gradientUnits="userSpaceOnUse" x1="92.5396" y1="111.7977" x2="107.7377" y2="151.0184">
				<stop  offset="0" style="stop-color:#FBCE0A"/>
				<stop  offset="0.7319" style="stop-color:#FBBB26"/>
				<stop  offset="1" style="stop-color:#FBB331"/>
			</linearGradient>
			<path class="st25" d="M119.3,150.2l-7.1-13.7c-1-1.9,0.6-3.3,2.8-2.5c4.5,1.6,9,1.4,9.4-2.7c0.3-3.3-3.1-7.4-7.3-8.6
				c-3.4-1-5.2,0.5-7,2.1c-1.2,1.1-3.9,0.3-4.8-1.5l-4.7-9.1l-2.5-4.8l-29.8,4.1l38.9,38.5l12-1.7L119.3,150.2z"/>
			<linearGradient id="SVGID_24_" gradientUnits="userSpaceOnUse" x1="175.1093" y1="118.5753" x2="164.0784" y2="142.8431">
				<stop  offset="0" style="stop-color:#E35626"/>
				<stop  offset="1" style="stop-color:#F47C20"/>
			</linearGradient>
			<path class="st26" d="M196,112.8c-1.9-2.6-6.9-2.9-10.8-0.7c-3.2,1.8-3.6,4.2-3.9,6.7c-0.2,1.4-2,2.6-3.6,2.6l-14.8-4.7
				L144.5,141l13.4,4.3l31-21.5c0.1-0.7,0.7-1.5,1.7-2C195,119.5,198.3,116,196,112.8z"/>
			<linearGradient id="SVGID_25_" gradientUnits="userSpaceOnUse" x1="131.3481" y1="140.9812" x2="127.6556" y2="166.0648">
				<stop  offset="0" style="stop-color:#FBCE0A"/>
				<stop  offset="0.7319" style="stop-color:#FBBB26"/>
				<stop  offset="1" style="stop-color:#FBB331"/>
			</linearGradient>
			<path class="st27" d="M134,149.4c-0.3-0.5-0.3-1.1,0-1.6c0.9-1.6,1.7-3.2,0.7-5c-1.2-2.2-4.1-3-6.2-1.7c-2.6,1.5-2.3,4.4-0.9,6.6
				c0.3,0.5,0.3,1.2,0,1.7H134z"/>
		</g>
		<linearGradient id="SVGID_26_" gradientUnits="userSpaceOnUse" x1="21.0374" y1="194.8004" x2="240.5791" y2="194.8004">
			<stop  offset="9.793810e-02" style="stop-color:#3F415C"/>
			<stop  offset="1" style="stop-color:#202230"/>
		</linearGradient>
		<path class="st28" d="M239,196.9H22.6c-0.9,0-1.6-0.7-1.6-1.6v-1c0-0.9,0.7-1.6,1.6-1.6H239c0.9,0,1.6,0.7,1.6,1.6v1
			C240.6,196.2,239.9,196.9,239,196.9z"/>
		<g>
			<g>
				<g>
					<path class="st29" d="M63.3,123.2L63.3,123.2c-0.4,1.7-3.2,0.6-3.2,0.6l0.4-5.3l2.8,1.4L63.3,123.2z"/>
					
						<linearGradient id="SVGID_27_" gradientUnits="userSpaceOnUse" x1="181.9443" y1="122.979" x2="187.2415" y2="122.979" gradientTransform="matrix(-1 0 0 1 246.3391 0)">
						<stop  offset="0" style="stop-color:#F5F5FA"/>
						<stop  offset="1" style="stop-color:#DCDCE5"/>
					</linearGradient>
					<path class="st30" d="M64.4,122.2l0,1.2c-0.7,1.4-5.3,0.5-5.3,0.5l0.4-2.2C61.1,121.7,62.7,121.9,64.4,122.2z"/>
					<path class="st29" d="M65,118.3l-1-3.1c-0.1-0.5-0.6-0.7-1.1-0.6c-1.5,0.5-2.5,1.9-2.5,3.4c-0.2,0,0,1.2,0.2,1.1
						c0,0,1.8,2.2,3,1.8l0,0C64.7,120.6,65.3,119.4,65,118.3z"/>
				</g>
			</g>
			<g>
				<g>
					<polygon class="st29" points="52.4,188.3 52.4,189.7 55.2,189.7 55.5,188.3 					"/>
					
						<linearGradient id="SVGID_28_" gradientUnits="userSpaceOnUse" x1="-247.1367" y1="216.6016" x2="-239.3316" y2="216.6016" gradientTransform="matrix(-1 -5.200000e-03 -5.200000e-03 1 -186.6084 -26.7237)">
						<stop  offset="9.793810e-02" style="stop-color:#3F415C"/>
						<stop  offset="1" style="stop-color:#202230"/>
					</linearGradient>
					<path class="st31" d="M52.4,189.7l-0.8,2.6c-0.1,0.2,0.1,0.3,0.2,0.3l7.5,0l0,0c-0.1-1-0.8-1.9-1.7-2.2l-2.5-0.8L52.4,189.7z"
						/>
				</g>
				
					<linearGradient id="SVGID_29_" gradientUnits="userSpaceOnUse" x1="527.5347" y1="171.5293" x2="516.7582" y2="169.6477" gradientTransform="matrix(1 0 0 1 -453.43 0)">
					<stop  offset="9.793810e-02" style="stop-color:#3F415C"/>
					<stop  offset="1" style="stop-color:#202230"/>
				</linearGradient>
				<path class="st32" d="M62.8,147.9L61,166.1c-0.2,2.5-0.7,5.1-1.3,7.6L56,189.3l-4.4,0l0.9-7.1c1.1-8.5,1.6-17.1,1.5-25.5
					l-0.1-9.1L62.8,147.9z"/>
			</g>
			<g>
				<g>
					<g>
						<g>
							<polygon class="st29" points="72,120.4 73.1,118.2 75.8,120.8 74,122 							"/>
						</g>
						<polygon class="st29" points="72,120.4 71.6,121.6 73.7,123.1 74,122 						"/>
						
							<linearGradient id="SVGID_30_" gradientUnits="userSpaceOnUse" x1="-624.6335" y1="-123.0784" x2="-624.6335" y2="-87.7677" gradientTransform="matrix(-0.4 -0.9165 0.9165 -0.4 -84.0001 -488.4801)">
							<stop  offset="9.793810e-02" style="stop-color:#3F415C"/>
							<stop  offset="1" style="stop-color:#202230"/>
						</linearGradient>
						<path class="st33" d="M54.7,126.3l-0.3,2l13.2,4.7l1.7,0.6c1.2,0.1,2.2-0.7,2.5-1.8l1.5-6.9l0.4-1.8l0-0.2l-2.2-1.4l-0.8,1.5
							l-2.4,4.9l0,0l0,0l-9.2-4.2c-0.9-0.4-1.9-0.4-2.8,0C55.5,124.3,54.8,125.2,54.7,126.3z"/>
					</g>
				</g>
			</g>
			<g>
				<polygon class="st29" points="65.2,188.4 65.5,189.7 68.3,189.8 68.3,188.4 				"/>
				
					<linearGradient id="SVGID_31_" gradientUnits="userSpaceOnUse" x1="-260.7692" y1="216.6022" x2="-252.9149" y2="216.6022" gradientTransform="matrix(-1 -5.200000e-03 -5.200000e-03 1 -186.6084 -26.7237)">
					<stop  offset="9.793810e-02" style="stop-color:#3F415C"/>
					<stop  offset="1" style="stop-color:#202230"/>
				</linearGradient>
				<path class="st34" d="M65.5,189.7l-0.3,2.6c0,0.2,0.1,0.3,0.3,0.3l7.5,0l0,0c-0.3-1-1.1-1.9-2.1-2.2l-2.6-0.8L65.5,189.7z"/>
			</g>
			
				<linearGradient id="SVGID_32_" gradientUnits="userSpaceOnUse" x1="533.7729" y1="162.3053" x2="500.7337" y2="175.0342" gradientTransform="matrix(1 0 0 1 -453.43 0)">
				<stop  offset="9.793810e-02" style="stop-color:#3F415C"/>
				<stop  offset="1" style="stop-color:#202230"/>
			</linearGradient>
			<path class="st35" d="M68.5,147.9l1.4,18.2c0.2,2.5,0.2,5.1,0.1,7.6l-1,15.7l-4.4,0l-0.3-7.1c-0.4-8.5-1.4-17.1-3-25.6l-1.7-9.1
				L68.5,147.9z"/>
			
				<linearGradient id="SVGID_33_" gradientUnits="userSpaceOnUse" x1="542.0787" y1="147.9069" x2="542.0787" y2="175.1742" gradientTransform="matrix(1 5.200000e-03 -5.200000e-03 1 -479.8556 -29.0075)">
				<stop  offset="9.793810e-02" style="stop-color:#3F415C"/>
				<stop  offset="1" style="stop-color:#202230"/>
			</linearGradient>
			<path class="st36" d="M53.5,128.3l-0.1,20c0,0.5,2.9,0.4,2.9,0.4l4.4,0.1l7.3,0.1c0.6,0,1.1-0.5,1.2-1.1l0.1-18.6
				c0-3.5-0.4-5-4.2-6.3c-0.6-0.2-1.9-0.4-2.8-0.5c-0.7-0.1-1.3-0.1-2,0.1c0,0,0,0,0,0c-0.6,0.1-1.5,0.3-2.6,0.6
				C55.2,123.7,53.5,125.9,53.5,128.3z"/>
			
				<linearGradient id="SVGID_34_" gradientUnits="userSpaceOnUse" x1="512.5276" y1="116.3711" x2="517.7991" y2="116.3711" gradientTransform="matrix(1 0 0 1 -453.43 0)">
				<stop  offset="9.793810e-02" style="stop-color:#3F415C"/>
				<stop  offset="1" style="stop-color:#202230"/>
			</linearGradient>
			<path class="st37" d="M59.3,116.7c0.5,1.2,1,2.5,1.2,2.9c0.4,0,1.1,0,1.5,0c0.1-0.6,0.3-1,0.4-1.6c-0.3,0.1-0.6,0-0.7-0.3
				c-0.2-0.2-0.2-0.5,0-0.8c0.1-0.3,0.5-0.1,0.7-0.2c0.5-0.2-0.3-1.6,1.7-1.7c0,0,0,0,0,0c1.3-1.6-1-2.4-2.2-2
				c-0.2,0.1-1,0.6-1.2,0.6C59.4,114.3,58.8,115.6,59.3,116.7z"/>
			<g>
				<g>
					<g>
						<g>
							
								<linearGradient id="SVGID_35_" gradientUnits="userSpaceOnUse" x1="392.0675" y1="272.0513" x2="392.0675" y2="298.9708" gradientTransform="matrix(-0.907 0.421 0.421 0.907 312.4297 -292.8881)">
								<stop  offset="9.793810e-02" style="stop-color:#3F415C"/>
								<stop  offset="1" style="stop-color:#202230"/>
							</linearGradient>
							<path class="st38" d="M63.3,126.7c0.3-1.1,1-1.9,2-2.3c0.9-0.3,1.9-0.3,2.8,0.2l8.7,5.1l0,0l0,0l11-3.3l1,2.4
								c0,0-10.5,6.8-11.6,6.6l-1.7-0.8l-12.7-6L63.3,126.7z"/>
						</g>
					</g>
				</g>
				<g>
					<polygon class="st29" points="87.8,126.4 90.1,124.9 92,126.2 90.7,128.1 88.9,128.8 					"/>
					<path class="st29" d="M92.6,124.3c-1.2-0.2-2.5,0.3-3.4,1.2c-0.3,0.3,0.2,0.7,0.4,0.4c0.7-0.8,1.7-1.2,2.8-1
						c0.2,0,0.3,0,0.4-0.2C92.8,124.5,92.8,124.3,92.6,124.3z"/>
					<path class="st29" d="M93.1,124.8c-1.2-0.2-2.5,0.3-3.4,1.2c-0.3,0.3,0.2,0.7,0.4,0.4c0.7-0.8,1.7-1.2,2.8-1
						c0.2,0,0.3,0,0.4-0.2C93.4,125,93.3,124.8,93.1,124.8z"/>
					<path class="st29" d="M93.2,125.6c-1.2-0.2-2.5,0.3-3.4,1.2c-0.3,0.3,0.2,0.7,0.4,0.4c0.7-0.8,1.7-1.2,2.8-1
						c0.2,0,0.3,0,0.4-0.2C93.4,125.8,93.3,125.6,93.2,125.6z"/>
					<path class="st29" d="M92.7,126.2c-1.2-0.2-2.5,0.3-3.4,1.2c-0.3,0.3,0.2,0.7,0.4,0.4c0.7-0.8,1.7-1.2,2.8-1
						c0.2,0,0.3,0,0.4-0.2C93,126.5,92.9,126.3,92.7,126.2z"/>
				</g>
			</g>
		</g>
		<g>
			<g>
				<linearGradient id="SVGID_36_" gradientUnits="userSpaceOnUse" x1="169.6681" y1="132.1075" x2="189.0849" y2="132.1075">
					<stop  offset="9.793810e-02" style="stop-color:#3F415C"/>
					<stop  offset="1" style="stop-color:#202230"/>
				</linearGradient>
				<path class="st39" d="M188.9,127.8c-0.1-1.1-0.7-2-1.6-2.5c-0.8-0.5-1.8-0.6-2.8-0.2l-9.2,8.8l0,0l0,0l-0.8-0.1l-4.8,3.5
					c1.9,1.1,3.8,2.2,4.4,2.2l1.8-0.5l13.2-9L188.9,127.8z"/>
			</g>
			<g>
				<g>
					<g>
						<polygon class="st40" points="187.9,187.9 187.5,189.8 184.7,189.8 184.7,187.9 						"/>
						<linearGradient id="SVGID_37_" gradientUnits="userSpaceOnUse" x1="179.9592" y1="191.2978" x2="187.8226" y2="191.2978">
							<stop  offset="9.793810e-02" style="stop-color:#3F415C"/>
							<stop  offset="1" style="stop-color:#202230"/>
						</linearGradient>
						<path class="st41" d="M187.5,189.8l0.3,2.6c0,0.2-0.1,0.3-0.3,0.3H180l0,0c0.3-1,1.1-1.9,2.1-2.2l2.6-0.8H187.5z"/>
					</g>
					<linearGradient id="SVGID_38_" gradientUnits="userSpaceOnUse" x1="186.581" y1="186.21" x2="187.7661" y2="167.4638">
						<stop  offset="9.793810e-02" style="stop-color:#3F415C"/>
						<stop  offset="1" style="stop-color:#202230"/>
					</linearGradient>
					<path class="st42" d="M184.8,147.4l-1.5,18.2c-0.2,2.5-0.2,5.1-0.1,7.6l1,16.7h3.3c0,0,2.7-25.1,4.4-33.7l1.8-9.1L184.8,147.4z
						"/>
					<g>
						<polygon class="st40" points="200.7,187.9 200.7,189.8 197.9,189.8 197.5,187.9 						"/>
						<linearGradient id="SVGID_39_" gradientUnits="userSpaceOnUse" x1="193.6073" y1="191.2978" x2="201.4214" y2="191.2978">
							<stop  offset="9.793810e-02" style="stop-color:#3F415C"/>
							<stop  offset="1" style="stop-color:#202230"/>
						</linearGradient>
						<path class="st43" d="M200.7,189.8l0.7,2.6c0.1,0.2-0.1,0.3-0.2,0.3h-7.6l0,0c0.1-1,0.8-1.9,1.8-2.2l2.5-0.8H200.7z"/>
					</g>
					<linearGradient id="SVGID_40_" gradientUnits="userSpaceOnUse" x1="190.4452" y1="168.483" x2="201.1522" y2="168.483">
						<stop  offset="9.793810e-02" style="stop-color:#3F415C"/>
						<stop  offset="1" style="stop-color:#202230"/>
					</linearGradient>
					<path class="st44" d="M190.4,147.4l1.7,18.2c0.2,2.5,0.6,5.1,1.2,7.6l4.5,16.7h3.3l-0.6-8.1c-1.1-8.5-1.5-17.1-1.3-25.6
						l0.2-9.1L190.4,147.4z"/>
				</g>
			</g>
			<linearGradient id="SVGID_41_" gradientUnits="userSpaceOnUse" x1="191.7805" y1="124.352" x2="191.9655" y2="141.8653">
				<stop  offset="0" style="stop-color:#F5F5FA"/>
				<stop  offset="1" style="stop-color:#DCDCE5"/>
			</linearGradient>
			<path class="st45" d="M199.8,127.9v20c0,0.5-2.9,0.4-2.9,0.4l-4.4,0.1l-7.3,0.1c-0.6,0-1.1-0.5-1.1-1.1v-18.6
				c0-3.5,0.5-5,4.2-6.3c0.9-0.3,3.8-0.6,3.8-0.6s0.3,0.1,1,0.2c0.6,0.1,1.5,0.3,2.6,0.6C198.1,123.2,199.8,125.4,199.8,127.9z"/>
			<g>
				<linearGradient id="SVGID_42_" gradientUnits="userSpaceOnUse" x1="196.2459" y1="119.0577" x2="195.5927" y2="162.4956">
					<stop  offset="9.793810e-02" style="stop-color:#3F415C"/>
					<stop  offset="1" style="stop-color:#202230"/>
				</linearGradient>
				<path class="st46" d="M199.8,127.9V152c0,0.5-2.9,0.4-2.9,0.4l-4.2,0.1c-0.1-1.2-0.1-2.6-0.2-4.1c-0.3-6.3-0.6-14.7-0.3-20.9
					c0-1.5,0.3-3.7,1-5.4c0.6,0.1,1.5,0.3,2.6,0.6C198.1,123.2,199.8,125.4,199.8,127.9z"/>
				<linearGradient id="SVGID_43_" gradientUnits="userSpaceOnUse" x1="186.6014" y1="118.9127" x2="185.9482" y2="162.3505">
					<stop  offset="9.793810e-02" style="stop-color:#3F415C"/>
					<stop  offset="1" style="stop-color:#202230"/>
				</linearGradient>
				<path class="st47" d="M188.6,123.6c0-0.4,0.2-0.9,0.4-1.3c-0.3,0.1-0.6,0.1-0.7,0.2c-3.8,1.3-4.2,2.8-4.2,6.3l-0.2,22.7
					c0,0.6,0.5,1.1,1.1,1.1l2.5,0C187.2,144.3,187.5,131.9,188.6,123.6z"/>
			</g>
			<g>
				<g>
					<linearGradient id="SVGID_44_" gradientUnits="userSpaceOnUse" x1="190.0482" y1="123.7672" x2="189.932" y2="150.1619">
						<stop  offset="9.793810e-02" style="stop-color:#3F415C"/>
						<stop  offset="1" style="stop-color:#202230"/>
					</linearGradient>
					<path class="st48" d="M189.1,146.2c0,0-0.3-15.2,0.4-21.8l0-0.3l1.2,0.1l0,0.3c-0.7,6.5,0.1,21.3,0.1,21.3l-0.7,1.2
						L189.1,146.2z"/>
				</g>
			</g>
			<g>
				
					<linearGradient id="SVGID_45_" gradientUnits="userSpaceOnUse" x1="138.4025" y1="132.7866" x2="144.0981" y2="132.7866" gradientTransform="matrix(0.9406 -0.3395 0.3395 0.9406 12.2119 38.616)">
					<stop  offset="9.793810e-02" style="stop-color:#3F415C"/>
					<stop  offset="1" style="stop-color:#202230"/>
				</linearGradient>
				<path class="st49" d="M187.5,116.2c-0.4-0.5-0.5-1.1-0.4-1.7c0.1-0.6,0.5-1.1,1-1.4c0.6-0.3,1.4-0.4,2.1-0.3
					c0.6,0.1,1.2,0.2,1.6,0.5c0.5,0.3,0.9,0.8,1,1.4c0.1,0.6-0.2,2.6-0.7,3c-0.2,0.5-2.1,1.5-2.8,0.6
					C188.7,117.6,188,116.9,187.5,116.2z"/>
				<g>
					<g>
						<path class="st50" d="M189.7,120.4l2.1-0.8l0.1-2c-0.1-1.3-0.5-1.5-1.3-1.7c-1-0.3-1.9-0.9-2.5-1.7l0,0
							c-0.5,0-0.9,0.4-0.8,0.9l0.2,3.2C187.5,119.6,188.5,120.5,189.7,120.4z"/>
						<path class="st50" d="M189.2,122.6L189.2,122.6c1,1.4,2.9,0,2.9,0l-0.4-5.4h-2.5V122.6z"/>
					</g>
					<path class="st50" d="M191.7,117.5c0.2-0.1,0.5,0,0.6,0.1c0.1,0.2,0.2,0.4,0.1,0.6c-0.1,0.2-0.3,0.3-0.5,0.4
						c-0.2,0-0.5-0.1-0.6-0.3L191.7,117.5z"/>
				</g>
			</g>
			<g>
				<g>
					<g>
						<g>
							<polygon class="st50" points="175,123.4 172.5,122.5 170.9,124.2 172.7,125.8 174.7,126 							"/>
							<path class="st50" d="M169.9,122.6c1.1-0.5,2.5-0.4,3.5,0.3c0.3,0.2,0,0.7-0.3,0.5c-0.9-0.6-2-0.7-2.9-0.3
								C169.8,123.3,169.5,122.8,169.9,122.6z"/>
							<path class="st50" d="M169.5,123.2c1.1-0.5,2.5-0.4,3.5,0.3c0.3,0.2,0,0.7-0.3,0.5c-0.9-0.6-2-0.7-2.9-0.3
								C169.4,123.9,169.1,123.4,169.5,123.2z"/>
							<path class="st50" d="M169.6,124c1.1-0.5,2.5-0.4,3.5,0.3c0.3,0.2,0,0.7-0.3,0.5c-0.9-0.6-2-0.7-2.9-0.3
								C169.6,124.7,169.3,124.2,169.6,124z"/>
							<path class="st50" d="M170.3,124.5c1.1-0.5,2.5-0.4,3.5,0.3c0.3,0.2,0,0.7-0.3,0.5c-0.9-0.6-2-0.7-2.9-0.3
								C170.2,125.2,169.9,124.7,170.3,124.5z"/>
						</g>
						<polygon class="st50" points="175,123.4 176.2,124.1 175.6,126.7 174.6,126 						"/>
					</g>
					
						<linearGradient id="SVGID_46_" gradientUnits="userSpaceOnUse" x1="325.4678" y1="-405.1035" x2="335.9382" y2="-405.1035" gradientTransform="matrix(-0.1026 0.9947 -0.9947 -0.1026 -181.9181 -242.6068)">
						<stop  offset="9.793810e-02" style="stop-color:#3F415C"/>
						<stop  offset="1" style="stop-color:#202230"/>
					</linearGradient>
					<path class="st51" d="M195.5,123.9c1-0.5,2.2-0.2,2.9,0.6c1.1,1.4,1.9,3.1,0,4.2l-11.1,4.3c-2.2,1-10.5-5.1-12.5-5.9l1.5-3.7
						l11.5,4.5L195.5,123.9z"/>
				</g>
			</g>
		</g>
		<g>
			<linearGradient id="SVGID_47_" gradientUnits="userSpaceOnUse" x1="111.6378" y1="24.7355" x2="116.1698" y2="3.5863">
				<stop  offset="0.1366" style="stop-color:#BE3A26"/>
				<stop  offset="1" style="stop-color:#CE6B5C"/>
			</linearGradient>
			<path class="st52" d="M120.1,9.5c-0.4,0.4-1,0.7-1.4,1.3c-0.5,0.8-0.2,1.9,0.1,2.8c0.3,0.9,0.6,2,0.2,2.8
				c-0.7,1.4-2.8,1.5-3.5,2.8c-0.5,1,0,2.1-0.2,3.1c-0.3,1.4-1.8,2.3-3.3,2.2c-1.4-0.1-2.7-1-3.6-2.1c-0.5-0.6-1-1.3-1.2-2.1
				c-0.2-0.8-0.1-1.7,0.4-2.3c0.5-0.6,1.3-1,1.7-1.7c0.4-0.7,0.2-1.7,0.1-2.5c-0.1-0.8,0-1.9,0.7-2.3c0.5-0.3,1.1-0.3,1.6-0.7
				c0.6-0.5,0.5-1.5,0.6-2.3c0.2-1.5,1.4-2.8,2.9-3.3c1.4-0.5,2.9-0.3,4.3,0c0.4,0.1,0.7,0.2,1,0.6c0.3,0.5,0.4,1.1,0.4,1.7
				C120.9,8.2,120.6,8.9,120.1,9.5z"/>
			
				<linearGradient id="SVGID_48_" gradientUnits="userSpaceOnUse" x1="-94.202" y1="70.2972" x2="-99.2547" y2="45.1537" gradientTransform="matrix(1 0 0 1 217.8739 0)">
				<stop  offset="9.793810e-02" style="stop-color:#3F415C"/>
				<stop  offset="1" style="stop-color:#202230"/>
			</linearGradient>
			<path class="st53" d="M117.6,70.2h3.5l1.8-13.1c0.2-2.3-0.2-21.1-0.2-21.1l-8.7-0.3l1.2,8.4C116.1,49.7,117.1,62.9,117.6,70.2z"
				/>
			<g>
				
					<linearGradient id="SVGID_49_" gradientUnits="userSpaceOnUse" x1="-133.1435" y1="44.247" x2="-137.1234" y2="88.275" gradientTransform="matrix(-0.9989 3.000000e-04 -3.000000e-04 1.052 -20.7795 -12.6766)">
					<stop  offset="9.793810e-02" style="stop-color:#3F415C"/>
					<stop  offset="1" style="stop-color:#202230"/>
				</linearGradient>
				<path class="st54" d="M109,70.2h3.5l3.6-13.1c0.5-2.3,2.6-21.1,2.6-21.1l-8.7-0.3l0.1,8.4C110.2,49.7,109.5,62.9,109,70.2z"/>
			</g>
			
				<linearGradient id="SVGID_50_" gradientUnits="userSpaceOnUse" x1="-101.9437" y1="15.5132" x2="-101.0493" y2="54.5331" gradientTransform="matrix(1 0 0 1 217.8739 0)">
				<stop  offset="9.793810e-02" style="stop-color:#3F415C"/>
				<stop  offset="1" style="stop-color:#202230"/>
			</linearGradient>
			<path class="st55" d="M110.7,17.3c0-1.7,1.8-2.3,3.7-2.4c0.8-0.1,4-0.5,5.3,1.2c1.3,1.8,2.9,4.1,2.3,6c-0.3,1-0.5,3.5-0.8,4.5
				c-0.3,1.2,2.1,9.5,2.1,9.5c-0.5,3.4-14.7,2.4-13.9,0.5c-0.2,0.3,1.5-5,2.9-9.6C113.4,23.7,110.7,18.1,110.7,17.3z"/>
			
				<linearGradient id="SVGID_51_" gradientUnits="userSpaceOnUse" x1="-104.8023" y1="13.4294" x2="-104.0388" y2="48.8032" gradientTransform="matrix(1 0 0 1 217.8739 0)">
				<stop  offset="9.793810e-02" style="stop-color:#3F415C"/>
				<stop  offset="1" style="stop-color:#202230"/>
			</linearGradient>
			<path class="st56" d="M114.3,14.9c-1.9,0.1-3.7,0.8-3.6,2.4c0,0.8,2.7,6.5,1.7,9.7c-1.5,4.6-3.2,9.8-2.9,9.6
				c-0.5,1.1,4.1,1.9,8.1,1.8C117.8,30.3,117.5,22.5,114.3,14.9z"/>
			
				<linearGradient id="SVGID_52_" gradientUnits="userSpaceOnUse" x1="-100.6118" y1="15.2854" x2="-99.9549" y2="43.9409" gradientTransform="matrix(1 0 0 1 217.8739 0)">
				<stop  offset="0" style="stop-color:#F5F5FA"/>
				<stop  offset="1" style="stop-color:#DCDCE5"/>
			</linearGradient>
			<path class="st57" d="M120.5,31.8c-0.3-5.6-1-11.1-2.1-16.7c-1.5-0.6-3.5-0.3-4.1-0.3c0,0-0.1,0-0.1,0c2.3,5.6,3.1,11.3,3.3,17.2
				C118.6,32.1,119.6,32,120.5,31.8z"/>
			
				<linearGradient id="SVGID_53_" gradientUnits="userSpaceOnUse" x1="-97.2015" y1="13.2653" x2="-96.438" y2="48.639" gradientTransform="matrix(1 0 0 1 217.8739 0)">
				<stop  offset="9.793810e-02" style="stop-color:#3F415C"/>
				<stop  offset="1" style="stop-color:#202230"/>
			</linearGradient>
			<path class="st58" d="M123.4,36.1c0,0-2.4-8.3-2.1-9.5c0.3-1,0.5-3.5,0.8-4.5c0.6-2-1-4.3-2.3-6c-0.3-0.4-0.8-0.7-1.3-0.9
				c1.5,7.6,2.2,15.2,2.3,22.8C122.2,37.6,123.3,37,123.4,36.1z"/>
			<g>
				<path class="st40" d="M117.7,15.8c0,0.3-0.2,0.6-0.5,0.8c-0.5,0.2-1.4-0.2-1.7-0.4c-0.2-0.2-0.4-0.5-0.3-0.8l0.4-5.5l1.9,0.1
					L117.7,15.8z"/>
				<path class="st40" d="M115.1,11.8c-0.2-0.1-0.3-0.3-0.2-0.5c0-0.2,0.2-0.4,0.4-0.4c0.1,0,0.2,0,0.3,0l0-1.6
					c0-0.9,0.8-1.7,1.7-1.6l1.4,0.1c0.5,0,0.9,0.5,0.9,1l-0.1,3c0,0.9-0.8,1.6-1.7,1.6l-1.2-0.1c-0.7,0-1.2-0.6-1.1-1.2l0,0
					C115.4,11.9,115.2,11.9,115.1,11.8z"/>
			</g>
			<linearGradient id="SVGID_54_" gradientUnits="userSpaceOnUse" x1="112.8992" y1="25.0058" x2="117.4312" y2="3.8566">
				<stop  offset="0.1366" style="stop-color:#BE3A26"/>
				<stop  offset="1" style="stop-color:#CE6B5C"/>
			</linearGradient>
			<path class="st59" d="M115.4,10.6c-0.5,0.1-1,0.1-1.3-0.4c-0.2-0.4,0-1,0.2-1.5c0.5-0.8,1.2-1.5,2-1.8c0.6-0.2,1.9-0.7,2.3,0
				C119.7,8.5,116.2,10.4,115.4,10.6z"/>
			
				<linearGradient id="SVGID_55_" gradientUnits="userSpaceOnUse" x1="15.2123" y1="85.5723" x2="90.2492" y2="85.5723" gradientTransform="matrix(0.9834 -0.1813 0.1813 0.9834 62.8044 -20.0177)">
				<stop  offset="0" style="stop-color:#843B70"/>
				<stop  offset="1" style="stop-color:#B9529E"/>
			</linearGradient>
			<path class="st60" d="M94.5,68.2L94.5,68.2L94.5,68.2l33.9-6.3c1.3,0.4,2.1,1.8,1.6,3.2c-0.9,2.7-1.7,5.3,0.3,7.7
				c2.4,2.9,7,3.3,9.9,0.9c3.5-3.1,2.3-7.2-0.5-10.2c-1-1.1-0.8-2.8,0.3-3.6l28.3-5.2l0,0l0,0l-14.8-26.2l0,0L99,38.4l0,0L94.5,68.2
				L94.5,68.2z"/>
			<linearGradient id="SVGID_56_" gradientUnits="userSpaceOnUse" x1="97.1974" y1="39.4869" x2="164.9787" y2="39.4869">
				<stop  offset="0" style="stop-color:#843B70;stop-opacity:0"/>
				<stop  offset="1" style="stop-color:#DC77AC"/>
			</linearGradient>
			<path class="st61" d="M145.4,47.2c6.4,0.4,13,0.8,19.6,1.4l-11.5-20.3l0,0L99,38.4l0,0l-1.8,12.1C113,46.9,129.4,46.3,145.4,47.2
				z"/>
			<g>
				<g>
					<g>
						<g>
							<g>
								<path class="st40" d="M104.3,35.4l1,1.6l-1.3,1.5l-0.9-0.9c-0.3-0.3-0.5-0.6-0.6-1l0.2-1L104.3,35.4z"/>
								<path class="st40" d="M105.4,39.3c0.3-1,0.1-2.1-0.5-2.9c-0.2-0.3-0.6,0.1-0.4,0.3c0.5,0.7,0.7,1.6,0.5,2.4
									c0,0.1,0,0.3,0.1,0.3C105.2,39.5,105.4,39.5,105.4,39.3z"/>
								<path class="st40" d="M105,39.6c0.3-1,0.1-2.1-0.5-2.9c-0.2-0.3-0.6,0.1-0.4,0.3c0.5,0.7,0.7,1.6,0.5,2.4
									c0,0.1,0,0.3,0.1,0.3C104.8,39.8,104.9,39.7,105,39.6z"/>
								<path class="st40" d="M104.5,39.4c0.3-1,0.1-2.1-0.5-2.9c-0.2-0.3-0.6,0.1-0.4,0.3c0.5,0.7,0.7,1.6,0.5,2.4
									c0,0.1,0,0.3,0.1,0.3C104.3,39.6,104.4,39.6,104.5,39.4z"/>
								<path class="st40" d="M104,39.1c0.3-1,0.1-2.1-0.5-2.9c-0.2-0.3-0.6,0.1-0.4,0.3c0.5,0.7,0.7,1.6,0.5,2.4
									c0,0.1,0,0.3,0.1,0.3C103.8,39.3,104,39.2,104,39.1z"/>
							</g>
						</g>
					</g>
				</g>
				
					<linearGradient id="SVGID_57_" gradientUnits="userSpaceOnUse" x1="-115.6571" y1="35.0493" x2="-113.1163" y2="35.0493" gradientTransform="matrix(1 0 0 1 217.8739 0)">
					<stop  offset="0" style="stop-color:#F5F5FA"/>
					<stop  offset="1" style="stop-color:#DCDCE5"/>
				</linearGradient>
				<path class="st62" d="M102.2,35.8c0.7-0.1,1.7-0.3,2.4-0.4c0-0.3,0.1-0.7,0.1-1.1l-2.5,0.3C102.2,35,102.2,35.5,102.2,35.8z"/>
				
					<linearGradient id="SVGID_58_" gradientUnits="userSpaceOnUse" x1="-109.5233" y1="13.5558" x2="-108.8527" y2="44.6261" gradientTransform="matrix(1 0 0 1 217.8739 0)">
					<stop  offset="9.793810e-02" style="stop-color:#3F415C"/>
					<stop  offset="1" style="stop-color:#202230"/>
				</linearGradient>
				<path class="st63" d="M115,19.9l-3.7-4.1c-0.5,0.7-7.1,5.6-8.9,8c-0.2,1.1-0.1,7.2-0.2,10.7l2.5-0.3c0.3-2.9,0.8-7.7,0.8-8.4
					L115,19.9z"/>
			</g>
			<g>
				
					<linearGradient id="SVGID_59_" gradientUnits="userSpaceOnUse" x1="-524.7396" y1="13.4418" x2="-524.2062" y2="38.1573" gradientTransform="matrix(-1 0 0 1 -399.4908 0)">
					<stop  offset="9.793810e-02" style="stop-color:#3F415C"/>
					<stop  offset="1" style="stop-color:#202230"/>
				</linearGradient>
				<path class="st64" d="M120.9,19.8l-2.4-4.7c0.5,0.7,11.1,1.8,12.9,4.3c0.2,1.1,0.1,7.2,0.2,10.7l-2.5-0.3
					c-0.3-2.9-0.8-7.7-0.8-8.4L120.9,19.8z"/>
				<g>
					<g>
						<g>
							<g>
								<path class="st40" d="M129.5,31l-1,1.6l1.3,1.5l0.9-0.9c0.3-0.3,0.5-0.6,0.6-1l-0.2-1L129.5,31z"/>
								<path class="st40" d="M128.4,35c-0.3-1-0.1-2.1,0.5-2.9c0.2-0.3,0.6,0.1,0.4,0.3c-0.5,0.7-0.7,1.6-0.5,2.4
									c0,0.1,0,0.3-0.1,0.3C128.6,35.1,128.5,35.1,128.4,35z"/>
								<path class="st40" d="M128.9,35.2c-0.3-1-0.1-2.1,0.5-2.9c0.2-0.3,0.6,0.1,0.4,0.3c-0.5,0.7-0.7,1.6-0.5,2.4
									c0,0.1,0,0.3-0.1,0.3C129.1,35.4,128.9,35.4,128.9,35.2z"/>
								<path class="st40" d="M129.4,35.1c-0.3-1-0.1-2.1,0.5-2.9c0.2-0.3,0.6,0.1,0.4,0.3c-0.5,0.7-0.7,1.6-0.5,2.4
									c0,0.1,0,0.3-0.1,0.3C129.6,35.2,129.4,35.2,129.4,35.1z"/>
								<path class="st40" d="M129.9,34.7c-0.3-1-0.1-2.1,0.5-2.9c0.2-0.3,0.6,0.1,0.4,0.3c-0.5,0.7-0.7,1.6-0.5,2.4
									c0,0.1,0,0.3-0.1,0.3C130.1,34.9,129.9,34.9,129.9,34.7z"/>
							</g>
						</g>
					</g>
				</g>
				
					<linearGradient id="SVGID_60_" gradientUnits="userSpaceOnUse" x1="-531.139" y1="30.6731" x2="-528.5983" y2="30.6731" gradientTransform="matrix(-1 0 0 1 -399.4908 0)">
					<stop  offset="0" style="stop-color:#F5F5FA"/>
					<stop  offset="1" style="stop-color:#DCDCE5"/>
				</linearGradient>
				<path class="st65" d="M131.6,31.4c-0.7-0.1-1.7-0.3-2.4-0.4c0-0.3-0.1-0.7-0.1-1.1l2.5,0.3C131.6,30.7,131.6,31.1,131.6,31.4z"
					/>
			</g>
		</g>
	</g>
</g>
</svg>
