<?xml version="1.0" encoding="utf-8"?>
<!-- Generator: Adobe Illustrator 23.0.5, SVG Export Plug-In . SVG Version: 6.00 Build 0)  -->
<svg version="1.1" id="Layer_1" xmlns:svgjs="http://svgjs.com/svgjs"
	 xmlns="http://www.w3.org/2000/svg" xmlns:xlink="http://www.w3.org/1999/xlink" x="0px" y="0px" viewBox="0 0 512 512"
	 style="enable-background:new 0 0 512 512;" xml:space="preserve">
<style type="text/css">
	.st0{fill:#F9F9F9;}
	.st1{fill:#F26622;}
</style>
<g>
	<g>
		<path class="st0" d="M311.6,264h48.9c4,35.9,34.5,64,71.5,64c39.7,0,72-32.3,72-72s-32.3-72-72-72c-37,0-67.5,28.1-71.5,64h-48.9
			c-1.7-18.3-8.9-34.9-20-48.3l52.1-52.1c7.6,2.8,15.8,4.3,24.4,4.3c39.7,0,72-32.3,72-72S407.7,8,368,8s-72,32.3-72,72
			c0,25.1,13,47.3,32.5,60.2l-48.3,48.3C265,175.7,245.4,168,224,168c-11.8,0-23.1,2.4-33.4,6.6c-10.8-22.5-30-39.7-52.8-48.4
			C155.9,114.9,168,94.9,168,72c0-35.3-28.7-64-64-64S40,36.7,40,72c0,22.9,12.1,42.9,30.2,54.3C33.9,140,8,175,8,216v80
			c0,17.6,14.4,32,32,32h8v144c0,17.6,14.4,32,32,32c9.6,0,18.1-4.3,24-11.1c5.9,6.7,14.4,11.1,24,11.1c17.6,0,32-14.4,32-32V316.2
			c16.1,17.1,38.8,27.8,64,27.8c21.4,0,41-7.7,56.3-20.4l48.3,48.3C309,384.7,296,406.9,296,432c0,39.7,32.3,72,72,72s72-32.3,72-72
			s-32.3-72-72-72c-8.6,0-16.7,1.6-24.4,4.3l-52.1-52.1C302.7,298.9,309.9,282.3,311.6,264L311.6,264z M333.4,124
			c7.1-12.3,20.1-20,34.6-20s27.5,7.7,34.6,20c-9.5,7.5-21.5,12-34.6,12S343,131.5,333.4,124z M352,72c0-8.8,7.2-16,16-16
			s16,7.2,16,16s-7.2,16-16,16S352,80.8,352,72z M368,24c30.9,0,56,25.1,56,56c0,11.9-3.8,23-10.2,32.1
			c-5.7-8.2-13.2-14.7-22.1-18.8c5.1-5.7,8.3-13.1,8.3-21.3c0-17.6-14.4-32-32-32s-32,14.4-32,32c0,8.2,3.2,15.6,8.3,21.3
			c-8.9,4.1-16.4,10.6-22.1,18.8C315.8,103,312,91.9,312,80C312,49.1,337.1,24,368,24z M333.4,476c7.1-12.3,20.1-20,34.6-20
			s27.5,7.7,34.6,20c-9.5,7.5-21.5,12-34.6,12S343,483.5,333.4,476z M352,424c0-8.8,7.2-16,16-16s16,7.2,16,16s-7.2,16-16,16
			S352,432.8,352,424z M424,432c0,11.9-3.8,23-10.2,32.1c-5.7-8.2-13.2-14.7-22.1-18.8c5.1-5.7,8.3-13.1,8.3-21.3
			c0-17.6-14.4-32-32-32s-32,14.4-32,32c0,8.2,3.2,15.6,8.3,21.3c-8.9,4.1-16.4,10.6-22.1,18.8C315.8,455,312,443.9,312,432
			c0-30.9,25.1-56,56-56S424,401.1,424,432z M397.4,300c7.1-12.3,20.1-20,34.6-20s27.5,7.7,34.6,20c-9.5,7.5-21.5,12-34.6,12
			S407,307.5,397.4,300z M416,248c0-8.8,7.2-16,16-16s16,7.2,16,16c0,8.8-7.2,16-16,16S416,256.8,416,248L416,248z M432,200
			c30.9,0,56,25.1,56,56c0,11.9-3.8,23-10.2,32.1c-5.7-8.2-13.2-14.7-22.1-18.8c5.1-5.7,8.3-13.1,8.3-21.3c0-17.6-14.4-32-32-32
			s-32,14.4-32,32c0,8.2,3.2,15.6,8.3,21.3c-8.9,4.1-16.4,10.6-22.1,18.8C379.8,279,376,267.9,376,256C376,225.1,401.1,200,432,200
			L432,200z M76.7,140.9c3.1-1.1,6.2-2.1,9.4-2.8l-2.2,30.5C80.8,159.5,78.4,150.3,76.7,140.9z M102.3,136.1c0.6,0,1.1-0.1,1.7-0.1
			c0.6,0,1.1,0.1,1.7,0.1l4.5,63.3c-2,3.5-4,6.9-6.2,10.2c-2.2-3.3-4.2-6.8-6.2-10.3L102.3,136.1z M124.1,168.9l-2.2-30.9
			c3.3,0.8,6.5,1.8,9.6,2.9C129.8,150.5,127.3,159.8,124.1,168.9L124.1,168.9z M56,72c0-26.5,21.5-48,48-48s48,21.5,48,48
			s-21.5,48-48,48S56,98.5,56,72z M144,472c0,8.8-7.2,16-16,16s-16-7.2-16-16V328v-6.1c0-4.3,1.7-8.3,4.7-11.3l9-9l-11.3-11.3l-9,9
			c-6,6-9.4,14.1-9.4,22.6v6.1v144c0,8.8-7.2,16-16,16s-16-7.2-16-16V176H48v136h-8c-8.8,0-16-7.2-16-16v-80
			c0-28.6,15.1-53.7,37.7-67.8c5.2,25.3,15.3,49.8,29.6,71.3l12.6,18.9l12.9-19.4c14.2-21.3,24.3-45.6,29.5-70.7
			c12.8,8.1,23.4,19.7,30,33.7c-6,3.9-11.5,8.5-16.4,13.7V176h-16v43.6c-5.1,11.1-8,23.4-8,36.4s2.9,25.3,8,36.4L144,472L144,472z
			 M224,328c-39.7,0-72-32.3-72-72s32.3-72,72-72s72,32.3,72,72S263.7,328,224,328L224,328z"/>
		<path class="st1" d="M232,232c4.4,0,8,3.6,8,8h16c0-13.2-10.8-24-24-24v-16h-16v16h-24v24c0,13.2,10.8,24,24,24h16
			c4.4,0,8,3.6,8,8v8h-24c-4.4,0-8-3.6-8-8h-16c0,13.2,10.8,24,24,24v16h16v-16h24v-24c0-13.2-10.8-24-24-24h-16c-4.4,0-8-3.6-8-8
			v-8H232z"/>
	</g>
</g>
</svg>
