<?xml version="1.0" encoding="utf-8"?>
<!-- Generator: Adobe Illustrator 23.0.5, SVG Export Plug-In . SVG Version: 6.00 Build 0)  -->
<svg version="1.1" id="Layer_1" xmlns:svgjs="http://svgjs.com/svgjs"
	 xmlns="http://www.w3.org/2000/svg" xmlns:xlink="http://www.w3.org/1999/xlink" x="0px" y="0px" viewBox="0 0 512 512"
	 style="enable-background:new 0 0 512 512;" xml:space="preserve">
<style type="text/css">
	.st0{fill:#F26622;}
	.st1{fill:#FCFBFA;}
	.st2{fill:#FFFFFF;}
</style>
<g>
	<g id="Layer_5">
		<path class="st0" d="M79.4,368.3c-4.4,0-8,3.6-8,8s3.6,8,8,8s8-3.6,8-8S83.9,368.3,79.4,368.3z"/>
		<path class="st0" d="M207.8,384.4c4.4,0,8-3.6,8-8s-3.6-8-8-8s-8,3.6-8,8S203.4,384.4,207.8,384.4z"/>
		<path class="st1" d="M344.9,167c0-52.4-42.5-95-95-95s-95,42.5-95,95s42.5,95,95,95C302.3,261.9,344.8,219.4,344.9,167z M171,167
			c0-43.6,35.4-79,79-79s79,35.4,79,79s-35.4,79-79,79C206.3,245.9,171,210.5,171,167z"/>
		<path class="st0" d="M254.7,224.2v8.4c0,4.4,3.6,8,8,8c4.4,0,8-3.6,8-8v-9.9c15.3-4.3,25.8-18.3,25.5-34.2
			c-0.1-11-5.4-21.4-14.3-27.9c11.5-11.7,11.4-30.5-0.4-42.1c-3.1-3-6.8-5.3-10.8-6.8v-10.3c0-4.4-3.6-8-8-8s-8,3.6-8,8v8.4h-10.5
			v-8.4c0-4.4-3.6-8-8-8s-8,3.6-8,8v8.4h-11.4c-4.4,0-8,3.6-8,8s3.6,8,8,8h2.9v82.4h-2.9c-4.4,0-8,3.6-8,8s3.6,8,8,8h11.4v8.4
			c0,4.4,3.6,8,8,8s8-3.6,8-8v-8.4H254.7z M280.2,188.6c0.1,10.7-8.4,19.4-19.1,19.6c-0.1,0-0.1,0-0.2,0h-25.1v-38.7h25.1
			C271.5,169.5,280.1,178,280.2,188.6z M260.6,153.5h-24.8v-27.7h24.8c7.7-0.2,14,5.9,14.2,13.5c0.2,7.7-5.9,14-13.5,14.2
			C261,153.5,260.8,153.5,260.6,153.5z"/>
		<path class="st0" d="M188.3,157c-4.4,0-8,3.6-8,8s3.6,8,8,8s8-3.6,8-8S192.7,157,188.3,157z"/>
		<path class="st0" d="M316.7,173.1c4.4,0,8-3.6,8-8s-3.6-8-8-8s-8,3.6-8,8S312.3,173.1,316.7,173.1z"/>
		<path class="st2" d="M448,267.1v-28.6c12.5-4.4,19-18.1,14.6-30.6c-4.4-12.5-18.1-19-30.6-14.6s-19,18.1-14.6,30.6
			c2.4,6.8,7.8,12.2,14.6,14.6v17.5c-10-6-20.8-10.5-32-13.6v-43.9l20.9-16.1c2-1.5,3.1-3.9,3.1-6.3v-17.7
			c12.5-4.4,19-18.1,14.6-30.6s-18.1-19-30.6-14.6c-12.5,4.4-19,18.1-14.6,30.6c2.4,6.8,7.8,12.2,14.6,14.6v13.7l-20.9,16.1
			c-2,1.5-3.1,3.9-3.1,6.3v44.5c-6-0.9-12.1-1.4-18.2-1.4c-3.7,0-7.4,0.3-11,0.6c33.7-49.1,28.5-115.1-12.6-158.3h44l6.8,12
			c1.4,2.5,4.1,4,7,4h17.5c4.4,12.5,18.1,19,30.6,14.6c12.5-4.4,19-18.1,14.6-30.6c-4.4-12.5-18.1-19-30.6-14.6
			c-6.8,2.4-12.2,7.8-14.6,14.6h-12.8l-6.8-12c-1.4-2.5-4.1-4-7-4h-67C289.8,39.2,245.5,33.2,206,48h-55.5
			c-4.4-12.5-18.1-19-30.6-14.6s-19,18.1-14.6,30.6c4.4,12.5,18.1,19,30.6,14.6c6.8-2.4,12.2-7.8,14.6-14.6h25.4
			c-14.7,10.6-27.1,24.3-36.1,40h-21.4l-6.8-12c-1.4-2.5-4.1-4-6.9-4H79.5c-0.3,0-0.6,0.1-0.9,0.2c-4.3-12.5-18-19.2-30.5-14.9
			s-19.2,18-14.9,30.5s18,19.2,30.5,14.9c7-2.4,12.5-7.9,14.9-14.9c0.3,0.1,0.6,0.1,0.9,0.2H100l6.8,12c1.4,2.5,4.1,4,6.9,4h18.3
			c-16.3,40.5-10.5,86.5,15.4,121.6c-1.3,0-2.5-0.1-3.8-0.1c-10.7,0-21.3,1.4-31.6,4.1V216c0-2.1-0.8-4.2-2.3-5.7L96,196.7v-22.2
			c12.5-4.4,19-18.1,14.6-30.6c-4.4-12.5-18.1-19-30.6-14.6s-19,18.1-14.6,30.6c2.4,6.8,7.8,12.2,14.6,14.6V200
			c0,2.1,0.8,4.2,2.3,5.7L96,219.3v31.4c-14.8,6-28.4,14.7-40,25.8v-30c12.5-4.4,19-18.1,14.6-30.6c-4.4-12.5-18.1-19-30.6-14.6
			s-19,18.1-14.6,30.6c2.4,6.8,7.8,12.2,14.6,14.6v48.3c-41,57.3-27.8,136.9,29.4,177.9s136.9,27.8,177.9-29.4
			c2.2-3.1,4.3-6.3,6.2-9.5c36.3,62,116,82.9,178,46.6s82.9-116,46.6-178C470.3,288.9,460.1,277,448,267.1z M440,208
			c4.4,0,8,3.6,8,8s-3.6,8-8,8s-8-3.6-8-8S435.6,208,440,208z M416,128c4.4,0,8,3.6,8,8s-3.6,8-8,8s-8-3.6-8-8S411.6,128,416,128z
			 M440,80c4.4,0,8,3.6,8,8s-3.6,8-8,8s-8-3.6-8-8S435.6,80,440,80z M128,64c-4.4,0-8-3.6-8-8s3.6-8,8-8c4.4,0,8,3.6,8,8
			S132.4,64,128,64z M56,104c-4.4,0-8-3.6-8-8s3.6-8,8-8s8,3.6,8,8S60.4,104,56,104z M88,144c4.4,0,8,3.6,8,8s-3.6,8-8,8s-8-3.6-8-8
			S83.6,144,88,144z M139,167c-0.1-61.3,49.5-111,110.8-111.2s111,49.5,111.2,110.8c0.1,28.3-10.7,55.5-30,76.1
			c-32.9,9.2-60.9,31-78,60.6c-18.1-30.1-47.9-51.4-82.2-58.9C150.3,223.8,138.9,195.9,139,167L139,167z M48,216c4.4,0,8,3.6,8,8
			s-3.6,8-8,8s-8-3.6-8-8S43.6,216,48,216z M143.6,480.6C82,480.7,32,430.7,32,369.1s49.9-111.6,111.6-111.6
			c43.1,0,82.4,24.8,100.8,63.8c-3.4,8.9-5.9,18.2-7.3,27.7c-11.2-51.6-62-84.3-113.6-73.1c-51.6,11.2-84.3,62-73.1,113.6
			s62,84.3,113.6,73.1c37-8,65.7-37.1,73.3-74.1c1.5,9.4,4,18.7,7.5,27.6C226.5,455.4,187,480.6,143.6,480.6z M223.3,369
			c0,44-35.7,79.6-79.6,79.6S64,413,64,369s35.7-79.6,79.6-79.6h0C187.6,289.4,223.2,325.1,223.3,369z M365.8,482.2
			c-63.1,0-114.2-51.1-114.2-114.2s51.1-114.2,114.2-114.2S480,304.9,480,368l0,0C479.9,431.1,428.8,482.1,365.8,482.2z"/>
		<path class="st2" d="M365.8,269.8c-54.3,0-98.2,44-98.2,98.2s44,98.2,98.2,98.2s98.2-44,98.2-98.2l0,0
			C463.9,313.8,420,269.8,365.8,269.8z M365.8,450.2c-45.4,0-82.2-36.8-82.2-82.2c0-45.4,36.8-82.2,82.2-82.2
			c45.4,0,82.2,36.8,82.2,82.2l0,0C447.9,413.4,411.2,450.2,365.8,450.2z"/>
		<path class="st0" d="M304.2,366c-4.4,0-8,3.6-8,8s3.6,8,8,8s8-3.6,8-8S308.6,366,304.2,366z"/>
		<path class="st0" d="M432.6,366c-4.4,0-8,3.6-8,8s3.6,8,8,8s8-3.6,8-8S437,366,432.6,366z"/>
		<path class="st0" d="M372.3,294.5c-2.8-3.6-8-4.2-11.6-1.4c-0.5,0.4-1,0.9-1.4,1.4l-40.1,56.2c-1.7,2.4-2,5.6-0.6,8.2l40.1,80.3
			c2,4,6.8,5.6,10.7,3.6c1.5-0.8,2.8-2,3.6-3.6l40.1-80.3c1.3-2.7,1.1-5.8-0.6-8.2L372.3,294.5z M365.8,312.9l27.7,38.8l-27.7,11.1
			l-27.7-11.1L365.8,312.9z M365.8,417.7l-23.6-47.1l20.6,8.2c1.9,0.8,4,0.8,5.9,0l20.6-8.2L365.8,417.7z"/>
		<path class="st0" d="M176,312h-64c-13.3,0-24,10.7-24,24s10.7,24,24,24h8v8.3h-16.5c-4.4,0-8,3.6-8,8s3.6,8,8,8H120V416
			c0,13.3,10.7,24,24,24s24-10.7,24-24v-31.7h15.8c4.4,0,8-3.6,8-8s-3.6-8-8-8H168V360h8c13.3,0,24-10.7,24-24S189.3,312,176,312z
			 M152,416c0,4.4-3.6,8-8,8s-8-3.6-8-8v-31.7h16V416z M176,344h-16c-4.4,0-8,3.6-8,8v16.3h-16V352c0-4.4-3.6-8-8-8h-16
			c-4.4,0-8-3.6-8-8s3.6-8,8-8h64c4.4,0,8,3.6,8,8S180.4,344,176,344z"/>
	</g>
</g>
</svg>
