<?xml version="1.0" encoding="utf-8"?>
<!-- Generator: Adobe Illustrator 20.0.0, SVG Export Plug-In . SVG Version: 6.00 Build 0)  -->
<svg version="1.1" id="Layer_1" xmlns="http://www.w3.org/2000/svg" xmlns:xlink="http://www.w3.org/1999/xlink" x="0px" y="0px"
	 viewBox="0 0 20 10" style="enable-background:new 0 0 20 10;" xml:space="preserve">
<style type="text/css">
	.st0{fill:#292929;}
</style>
<g>
	<path class="st0" d="M17.6,5.6c-0.2,0-0.4,0-0.5,0c-2.5,0-5,0-7.5,0C9.1,5.6,8.9,5.4,8.9,5c0-0.3,0.2-0.5,0.5-0.5
		c0.1,0,0.3,0,0.4,0c2.5,0,4.9,0,7.4,0c0.1,0,0.2,0,0.5,0c-0.1-0.2-0.2-0.2-0.3-0.3c-1-1-2-2-3-3C14.2,1,14.2,1,14.1,0.9
		c-0.2-0.2-0.2-0.5,0-0.7c0.2-0.2,0.5-0.2,0.7,0c0.1,0.1,0.1,0.1,0.2,0.2c1.4,1.4,2.7,2.7,4.1,4.1c0.5,0.5,0.5,0.7,0,1.2
		c-1.4,1.4-2.7,2.7-4.1,4.1c-0.1,0.1-0.2,0.2-0.3,0.2c-0.2,0.1-0.5,0.1-0.7-0.1c-0.2-0.2-0.2-0.4-0.1-0.7c0.1-0.1,0.2-0.2,0.2-0.3
		c1-1,2-2,3-3C17.3,5.8,17.4,5.8,17.6,5.6z"/>
	<path class="st0" d="M5.9,5.6c-0.4,0-0.8,0-1.3,0C4.2,5.6,4,5.4,4,5c0-0.4,0.2-0.6,0.6-0.6c0.8,0,1.7,0,2.5,0
		c0.4,0,0.6,0.2,0.6,0.6c0,0.4-0.2,0.6-0.6,0.6C6.8,5.6,6.3,5.6,5.9,5.6C5.9,5.6,5.9,5.6,5.9,5.6z"/>
	<path class="st0" d="M1.7,4.4c0.2,0,0.4,0,0.6,0c0.3,0,0.6,0.3,0.6,0.6c0,0.3-0.2,0.6-0.6,0.6c-0.4,0-0.8,0-1.3,0
		C0.7,5.6,0.5,5.3,0.5,5c0-0.3,0.2-0.6,0.6-0.6C1.3,4.4,1.5,4.4,1.7,4.4z"/>
</g>
</svg>
