<?xml version="1.0" encoding="utf-8"?>
<!-- Generator: Adobe Illustrator 23.0.5, SVG Export Plug-In . SVG Version: 6.00 Build 0)  -->
<svg version="1.1" id="Layer_1" xmlns="http://www.w3.org/2000/svg" xmlns:xlink="http://www.w3.org/1999/xlink" x="0px" y="0px"
	 viewBox="0 0 2301 2000" style="enable-background:new 0 0 2301 2000;" xml:space="preserve">
<style type="text/css">
	.st0{opacity:0.6;fill:#D1E3F1;}
	.st1{opacity:0.3;fill:#FFFFFF;}
	.st2{fill:#D1E3F1;}
	.st3{fill:#1C47C1;}
	.st4{fill:#0172D0;}
	.st5{fill:#0036AC;}
	.st6{fill:#FFAC00;}
	.st7{fill:#0C375A;}
	.st8{fill:#000B17;}
	.st9{fill:#FFFFFF;}
	.st10{fill:#FA8A00;}
	.st11{fill:#005986;}
	.st12{fill:#FFCE4F;}
	.st13{opacity:0.5;fill:#FFFFFF;}
	.st14{opacity:0.5;fill:#FFCE4F;}
	.st15{opacity:0.2;fill:#FFFFFF;}
	.st16{fill:#FDA893;}
	.st17{fill:#FD896B;}
	.st18{fill:#0056C5;}
	.st19{fill:#001030;}
	.st20{fill:#EDEDED;}
	.st21{fill:#D65C48;}
</style>
<g>
	<g>
		<g>
			<g>
				<g>
					<path class="st0" d="M2127.5,1156.9C2127.5,1156.9,2127.5,1157,2127.5,1156.9c-15,78.8-44.4,151.7-85.2,216.3
						c-112.6,178.5-311.9,293.6-533.3,293.6h-425.2c-172.6,0-337.4-70.8-456.1-195.3c-5.1-5.4-10.1-10.8-15.1-16.4
						c-66.1-74.5-113.8-163-139.3-258.4c-8.5-31.8-14.5-64.3-17.9-97.3c-0.1-0.8-0.2-1.6-0.2-2.4c-6.1-59.9-7.8-117.6-4.7-172.1
						c6.8-121.2,37.4-226.5,96.5-305c68.8-91.4,176.3-146.4,330.1-148.1c6.4-0.1,12.8-0.1,19.3,0c423.8,6.4,409.7,199.6,756.7,284.4
						c79.3,19.4,177.5,33.1,304.1,37.6c2.8,0.1,5.7,0.2,8.4,0.4C2143.5,805.7,2162.6,972.3,2127.5,1156.9z"/>
					<path class="st1" d="M1965.7,794.3C1845.7,857,1658,924.1,1432.1,899.7c-342.9-37.1-774.6-109-981.6,25.3
						c6.8-121.2,37.4-226.5,96.5-305c72.4-16.8,164.6-17.5,280.9,12.5c252.1,65.1,579.4,136.2,825.3,123.8
						c79.3,19.4,177.5,33.1,304.1,37.6C1960.2,794,1963,794.1,1965.7,794.3z"/>
					<path class="st1" d="M2127.5,1157c-15,78.7-44.4,151.6-85.2,216.2c-86.8,26.1-202.3,35.7-351.9,3.1
						c-365.5-79.9-766.4-78.4-1062.6,95.2c-5.1-5.4-10.1-10.8-15.1-16.4c-66.1-74.5-113.8-163-139.3-258.4
						c103.5-49,362.8-144.3,696.9-68C1522.7,1209.1,1926.7,1273,2127.5,1157z"/>
				</g>
			</g>
			<path class="st0" d="M22.5,220.8c0,8.5,3.5,16.2,9.1,21.8c5.5,5.6,13.3,9.1,21.7,9.1h659.3c16.9,0,30.8-13.9,30.8-30.8
				c0-8.5-3.5-16.2-9.1-21.8c-5.5-5.6-13.3-9.1-21.7-9.1h-31.2c-12.3-28.6-40.7-48.6-73.8-48.6c-22.3,0-42.4,9.1-57,23.7
				c-19.4-32.9-55.2-55.1-96.3-55.1c-11.3,0-22.1,1.7-32.4,4.8C400.6,74.4,358.2,47,309.3,47c-58.7,0-108.1,39.6-123,93.6
				c-10.8-5.4-23-8.5-36-8.5c-36.6,0-67.5,24.4-77.2,57.9H53.3C36.4,189.9,22.5,203.8,22.5,220.8z"/>
			<path class="st0" d="M1338.7,361.4c0,5.3-2.2,10.2-5.7,13.7c-3.5,3.5-8.4,5.7-13.7,5.7H902.9c-10.7,0-19.5-8.8-19.5-19.5
				c0-5.3,2.2-10.2,5.7-13.7c3.5-3.6,8.4-5.7,13.7-5.7h19.7c7.8-18.1,25.7-30.7,46.6-30.7c14.1,0,26.8,5.7,36,15
				c12.3-20.8,34.9-34.8,60.8-34.8c7.1,0,14,1.1,20.4,3c13.5-25.5,40.3-42.8,71.2-42.8c37.1,0,68.3,25,77.7,59.1
				c6.8-3.4,14.5-5.4,22.7-5.4c23.1,0,42.6,15.4,48.8,36.6h12.5C1330,341.9,1338.7,350.7,1338.7,361.4z"/>
			<path class="st2" d="M1750.9,579.9l5.3-27l-25.3-5c0-6.7-1.2-13.3-3.3-19.8l20.9-14l-15.4-22.9l-20,13.4
				c-5.9-6-12.9-10.7-20.5-13.8l5-25.3l-27-5.3l-5.1,26.1c-5.5,0.3-11.1,1.4-16.4,3.2l-14-20.9l-22.9,15.4l13.4,20
				c-6,5.9-10.7,12.9-13.8,20.5l-22.1-4.3l-5.3,27l22.9,4.5c0.4,7.1,2,14.1,4.9,20.8l-20,13.4l15.4,22.9l20.9-14
				c6,5.2,12.8,9.1,20.1,11.7l-5,25.5l27,5.3l5.4-27.6c5.9-0.7,11.8-2.2,17.5-4.6l13.4,20l22.9-15.4l-14-20.9c3.7-4.3,6.8-9,9.2-14
				L1750.9,579.9z M1683.1,569c-11.6,7.8-27.3,4.7-35-6.9c-7.8-11.6-4.7-27.3,6.9-35c11.6-7.8,27.3-4.7,35,6.9
				C1697.7,545.6,1694.6,561.3,1683.1,569z"/>
			<path class="st2" d="M423.8,722.1l5.3-27l-25.3-5c0-6.7-1.2-13.3-3.3-19.8l20.9-14l-15.4-22.9l-20,13.4
				c-5.9-6-12.9-10.7-20.5-13.8l5-25.3l-27-5.3l-5.1,26.1c-5.5,0.3-11.1,1.4-16.4,3.2l-14-20.9L285,626.3l13.4,20
				c-6,5.9-10.7,12.9-13.8,20.5l-22.1-4.3l-5.3,27l22.9,4.5c0.4,7.1,2,14.1,4.9,20.8l-20,13.4l15.4,22.9l20.9-14
				c6,5.2,12.8,9.1,20.1,11.7l-5,25.5l27,5.3l5.4-27.6c5.9-0.7,11.8-2.2,17.5-4.6l13.4,20l22.9-15.4l-14-20.9c3.7-4.3,6.8-9,9.2-14
				L423.8,722.1z M356,711.3c-11.6,7.8-27.3,4.7-35-6.9c-7.8-11.6-4.7-27.3,6.9-35c11.6-7.8,27.3-4.7,35,6.9
				C370.6,687.9,367.5,703.6,356,711.3z"/>
			<path class="st2" d="M1551.1,475.9l2.9-14.8l-13.8-2.7c0-3.6-0.6-7.3-1.8-10.8l11.4-7.7l-8.4-12.5l-10.9,7.3
				c-3.2-3.3-7.1-5.8-11.2-7.5l2.7-13.8l-14.8-2.9l-2.8,14.3c-3,0.2-6,0.7-9,1.7l-7.7-11.4l-12.5,8.4l7.3,10.9
				c-3.3,3.2-5.8,7.1-7.5,11.2l-12.1-2.4l-2.9,14.8l12.5,2.5c0.2,3.9,1.1,7.7,2.7,11.4l-10.9,7.3l8.4,12.5l11.4-7.7
				c3.3,2.9,7,5,11,6.4l-2.7,13.9l14.8,2.9l3-15.1c3.2-0.4,6.5-1.2,9.6-2.5l7.3,10.9l12.5-8.4l-7.7-11.4c2-2.3,3.7-4.9,5-7.7
				L1551.1,475.9z M1514,470c-6.3,4.2-14.9,2.6-19.1-3.8c-4.2-6.3-2.6-14.9,3.8-19.1c6.3-4.2,14.9-2.6,19.1,3.8
				C1522,457.2,1520.3,465.8,1514,470z"/>
			<path class="st2" d="M2201.6,678.5l2.9-14.8l-13.8-2.7c0-3.6-0.6-7.3-1.8-10.8l11.4-7.7l-8.4-12.5l-10.9,7.3
				c-3.2-3.3-7.1-5.8-11.2-7.5l2.7-13.8l-14.8-2.9l-2.8,14.3c-3,0.2-6,0.7-9,1.7l-7.7-11.4l-12.5,8.4l7.3,10.9
				c-3.3,3.2-5.8,7.1-7.5,11.2l-12.1-2.4l-2.9,14.8l12.5,2.5c0.2,3.9,1.1,7.7,2.7,11.4l-10.9,7.3l8.4,12.5l11.4-7.7
				c3.3,2.9,7,5,11,6.4l-2.7,13.9l14.8,2.9l3-15.1c3.2-0.4,6.5-1.2,9.6-2.5l7.3,10.9l12.5-8.4l-7.7-11.4c2-2.3,3.7-4.9,5-7.7
				L2201.6,678.5z M2164.5,672.6c-6.3,4.2-14.9,2.6-19.1-3.8c-4.2-6.3-2.6-14.9,3.8-19.1c6.3-4.2,14.9-2.6,19.1,3.8
				C2172.5,659.8,2170.8,668.4,2164.5,672.6z"/>
			<path class="st0" d="M1630.5,364.9c0,7.9,3.2,15.1,8.4,20.2c5.2,5.2,12.3,8.4,20.2,8.4h613.2c15.8,0,28.7-12.9,28.7-28.7
				c0-7.9-3.2-15.1-8.4-20.2c-5.2-5.2-12.3-8.4-20.2-8.4h-29c-11.4-26.6-37.9-45.2-68.7-45.2c-20.7,0-39.4,8.4-53,22
				c-18.1-30.6-51.4-51.2-89.5-51.2c-10.5,0-20.6,1.6-30.1,4.5c-20-37.5-59.4-63.1-104.8-63.1c-54.6,0-100.5,36.9-114.4,87
				c-10.1-5-21.4-7.9-33.4-7.9c-34,0-62.8,22.7-71.8,53.9h-18.5C1643.4,336.2,1630.5,349.1,1630.5,364.9z"/>
		</g>
		<ellipse class="st0" cx="1186.9" cy="1799" rx="1009" ry="73.6"/>
		<g>
			<g>
				<g>
					<path class="st3" d="M2052.4,1570.5c53.9-64.1,106.5-134.3,135.8-184.9c38.3-66.1,54.7-119.6,48.8-159c-0.4-2.6-2.8-4.4-5.5-4
						c-2.6,0.4-4.4,2.8-4,5.5c10.4,69-53.9,186.7-186,340.6L2052.4,1570.5z"/>
				</g>
				<path class="st4" d="M2217.4,1323.9c0,0,32.3,23.6,71.7-34.9C2289.1,1289,2229.3,1266.9,2217.4,1323.9z"/>
				<path class="st4" d="M2198.7,1355.1c0,0,25.4-31-30.8-73.5C2167.9,1281.6,2142.5,1340.1,2198.7,1355.1z"/>
				<path class="st4" d="M2232.4,1257.3c0,0,34.3-20.7-4.6-79.6C2227.8,1177.8,2184.4,1224.4,2232.4,1257.3z"/>
				<path class="st4" d="M2163,1419.1c0,0,22.5,33.2,79.2-8.6C2242.3,1410.5,2193.5,1369.5,2163,1419.1z"/>
				<path class="st4" d="M2139.2,1448c0,0,30.4-26.1-17.7-77.7C2121.5,1370.3,2086.4,1423.4,2139.2,1448z"/>
				<path class="st4" d="M2110.4,1490.8c0,0,21.8,33.6,79.4-7.1C2189.8,1483.7,2141.8,1441.8,2110.4,1490.8z"/>
			</g>
			<g>
				<g>
					<path class="st3" d="M1262.9,482.3c-60.4,9.8-66.1,68.1-113.1,60.8c-47-7.3-86.7,17.7-83.3,59.6c3.4,41.9,8.2,72.5-41.1,85.1
						c-49.4,12.5-80.5,68.8-46.4,97.1c8.5,7,17.7,14.6,26.7,22.1c2.5,2,4.9,4.1,7.3,6.1c0.6,0.5,1.1,0.9,1.7,1.4
						c36.3,29.9,89.6,28.5,123.2-4.5c13.6-13.3,22.4-30.2,19.1-51.1c-10.4-65.4,50.1-34.5,81.7-68.6c36.5-39.3,6.3-80.9,36.4-107.1
						C1317,546.6,1323.3,472.5,1262.9,482.3z"/>
					<g>
						<path class="st5" d="M1228.1,554.3L1005.6,807c2.5,2,4.9,4.1,7.3,6.1l222.3-252.5c1.7-2,1.5-5-0.4-6.7
							C1232.8,552.1,1229.8,552.3,1228.1,554.3z"/>
					</g>
				</g>
				<g>
					<path class="st4" d="M1042.9,403.5c-47.3,38.8-22.9,92.1-67.3,109.4c-44.4,17.3-66.1,58.9-42.1,93.4
						c24,34.5,43.6,58.6,7.2,94.2c-36.4,35.6-35,99.9,8.6,107.3c10.9,1.8,22.6,3.8,34.2,5.7c3.2,0.5,6.3,1,9.4,1.6
						c0.7,0.1,1.4,0.2,2.1,0.4c46.4,7.7,91.8-20.4,104.3-65.7c5.1-18.4,4.2-37.4-9.1-53.8c-41.9-51.3,25.9-55,36.2-100.4
						c11.8-52.3-35.2-73.1-22.3-110.9C1121.9,432,1090.2,364.7,1042.9,403.5z"/>
					<g>
						<path class="st3" d="M1048.9,483.2l-65.5,330.3c3.2,0.5,6.3,1,9.4,1.6l65.4-330c0.5-2.6-1.2-5.1-3.7-5.6
							C1051.9,479,1049.4,480.7,1048.9,483.2z"/>
					</g>
				</g>
			</g>
			<g>
				<g>
					<path class="st3" d="M485.2,1315.1c53.8,29.2,39.8,86.1,86.7,94.8c46.8,8.6,76,45.4,58.9,83.8c-17.1,38.4-31.8,65.7,10.7,93.9
						c42.4,28.2,53.2,91.6,11.7,107c-10.3,3.8-21.5,8-32.5,12c-3,1.1-6,2.2-8.9,3.3c-0.7,0.3-1.4,0.5-2,0.8
						c-44.1,16.3-94-2.8-114.8-44.9c-8.4-17.1-11.2-36-1.1-54.6c31.5-58.3-35.8-49.1-54.4-91.8c-21.4-49.1,20.8-78.4,1-113.1
						C412.9,1357.9,431.4,1285.8,485.2,1315.1z"/>
					<g>
						<path class="st5" d="M494.3,1394.5l126.4,312.1c-3,1.1-6,2.2-8.9,3.3l-126.3-311.8c-1-2.4,0.2-5.2,2.6-6.2
							C490.5,1390.9,493.3,1392,494.3,1394.5z"/>
					</g>
				</g>
				<g>
					<path class="st4" d="M333.6,1438.1c60.6,8.1,68,66.2,114.8,57.5c46.8-8.7,87.2,15.2,85,57.2c-2.2,42-6.2,72.8,43.5,83.9
						c49.7,11.1,82.4,66.5,49.2,95.7c-8.3,7.3-17.2,15.1-26,22.8c-2.4,2.1-4.8,4.2-7.2,6.3c-0.5,0.5-1.1,1-1.6,1.4
						c-35.4,31-88.8,31-123.3-0.9c-14-12.9-23.3-29.6-20.6-50.6c8.5-65.7-51-33.1-83.7-66.3c-37.6-38.2-8.6-80.7-39.5-106
						C281.4,1504,273,1430.1,333.6,1438.1z"/>
					<g>
						<path class="st3" d="M370.5,1509.1l229.6,246.3c-2.4,2.1-4.8,4.2-7.2,6.3l-229.4-246c-1.8-1.9-1.7-4.9,0.2-6.7
							C365.7,1507,368.7,1507.1,370.5,1509.1z"/>
					</g>
				</g>
			</g>
			<g>
				<g>
					<path class="st3" d="M579.1,800.7c-37.5-74.9-72.3-155.4-89-211.4c-21.9-73.2-25.4-129-10.4-166c1-2.5,3.8-3.6,6.2-2.6
						c2.5,1,3.6,3.8,2.6,6.2c-26.2,64.7,8.9,194.1,101.5,374.5L579.1,800.7z"/>
				</g>
				<path class="st4" d="M476,522.4c0,0-37,15.4-61.6-50.6C414.4,471.8,477.7,464.2,476,522.4z"/>
				<path class="st4" d="M486.9,557.1c0,0-17.5-36,47.1-64.3C534,492.8,545.1,555.6,486.9,557.1z"/>
				<path class="st4" d="M476.9,454.2c0,0-28.5-28.2,23-76.3C499.9,377.9,531.3,433.3,476.9,454.2z"/>
				<path class="st4" d="M506.7,627.6c0,0-29.6,27-75-26.8C431.7,600.8,488.7,572.3,506.7,627.6z"/>
				<path class="st4" d="M523.2,661.3c0,0-23.4-32.5,35.3-71.5C558.5,589.8,580.2,649.7,523.2,661.3z"/>
				<path class="st4" d="M541.2,709.6c0,0-29,27.6-75.5-25.4C465.6,684.2,522.1,654.6,541.2,709.6z"/>
			</g>
		</g>
		<g>
			<g>
				<g>
					<path class="st4" d="M1920.7,750c-14,0-25.4-11.4-25.4-25.4c0-14,11.4-25.4,25.4-25.4c14,0,25.4,11.4,25.4,25.4
						C1946.1,738.6,1934.7,750,1920.7,750z M1920.7,707.1c-9.6,0-17.5,7.8-17.5,17.5c0,9.6,7.8,17.5,17.5,17.5
						c9.6,0,17.5-7.8,17.5-17.5C1938.1,714.9,1930.3,707.1,1920.7,707.1z"/>
				</g>
				<g>
					<path class="st6" d="M2012.3,839.2c-14,0-25.4-11.4-25.4-25.4c0-14,11.4-25.4,25.4-25.4s25.4,11.4,25.4,25.4
						C2037.7,827.8,2026.3,839.2,2012.3,839.2z M2012.3,796.3c-9.6,0-17.5,7.8-17.5,17.5c0,9.6,7.8,17.5,17.5,17.5
						c9.6,0,17.5-7.8,17.5-17.5C2029.7,804.2,2021.9,796.3,2012.3,796.3z"/>
				</g>
				<g>
					<g>
						<g>
							<path class="st4" d="M2043.7,921.9c-2.2,0-4-1.8-4-4v-17.6c0-2.2,1.8-4,4-4c2.2,0,4,1.8,4,4v17.6
								C2047.7,920.1,2045.9,921.9,2043.7,921.9z"/>
						</g>
						<g>
							<path class="st4" d="M2043.7,952.7c-2.2,0-4-1.8-4-4v-17.6c0-2.2,1.8-4,4-4c2.2,0,4,1.8,4,4v17.6
								C2047.7,950.9,2045.9,952.7,2043.7,952.7z"/>
						</g>
					</g>
					<g>
						<g>
							<path class="st4" d="M2068.4,928.5h-15.8c-2.2,0-4-1.8-4-4c0-2.2,1.8-4,4-4h15.8c2.2,0,4,1.8,4,4
								C2072.4,926.7,2070.6,928.5,2068.4,928.5z"/>
						</g>
						<g>
							<path class="st4" d="M2034.8,928.5H2019c-2.2,0-4-1.8-4-4c0-2.2,1.8-4,4-4h15.8c2.2,0,4,1.8,4,4
								C2038.8,926.7,2037,928.5,2034.8,928.5z"/>
						</g>
					</g>
				</g>
				<g>
					<g>
						<g>
							<g>
								<g>
									<path class="st6" d="M1903.2,823.3c-2.2,0-4-1.8-4-4v-17.6c0-2.2,1.8-4,4-4c2.2,0,4,1.8,4,4v17.6
										C1907.2,821.5,1905.4,823.3,1903.2,823.3z"/>
								</g>
							</g>
							<g>
								<g>
									<path class="st6" d="M1903.2,854.1c-2.2,0-4-1.8-4-4v-17.6c0-2.2,1.8-4,4-4c2.2,0,4,1.8,4,4v17.6
										C1907.2,852.3,1905.4,854.1,1903.2,854.1z"/>
								</g>
							</g>
						</g>
						<g>
							<g>
								<g>
									<path class="st6" d="M1927.9,829.9h-15.8c-2.2,0-4-1.8-4-4c0-2.2,1.8-4,4-4h15.8c2.2,0,4,1.8,4,4
										C1931.9,828.1,1930.1,829.9,1927.9,829.9z"/>
								</g>
							</g>
							<g>
								<g>
									<path class="st6" d="M1894.3,829.9h-15.8c-2.2,0-4-1.8-4-4c0-2.2,1.8-4,4-4h15.8c2.2,0,4,1.8,4,4
										C1898.3,828.1,1896.5,829.9,1894.3,829.9z"/>
								</g>
							</g>
						</g>
					</g>
				</g>
			</g>
			<g>
				<g>
					<g>
						<g>
							<g>
								<g>
									<path class="st4" d="M693.2,430.6c-14,0-25.4-11.4-25.4-25.4s11.4-25.4,25.4-25.4s25.4,11.4,25.4,25.4
										S707.3,430.6,693.2,430.6z M693.2,422.6c9.6,0,17.5-7.8,17.5-17.5s-7.8-17.5-17.5-17.5c-9.6,0-17.5,7.8-17.5,17.5
										S683.6,422.6,693.2,422.6z"/>
								</g>
							</g>
						</g>
					</g>
					<g>
						<g>
							<g>
								<g>
									<path class="st6" d="M753.8,535c-14,0-25.4-11.4-25.4-25.4s11.4-25.4,25.4-25.4c14,0,25.4,11.4,25.4,25.4
										S767.9,535,753.8,535z M753.8,527.1c9.6,0,17.5-7.8,17.5-17.5c0-9.6-7.8-17.5-17.5-17.5c-9.6,0-17.5,7.8-17.5,17.5
										C736.4,519.2,744.2,527.1,753.8,527.1z"/>
								</g>
							</g>
						</g>
					</g>
					<g>
						<g>
							<g>
								<path class="st4" d="M860.3,553c0-2.2-1.8-4-4-4h-17.6c-2.2,0-4,1.8-4,4c0,2.2,1.8,4,4,4h17.6
									C858.6,557,860.3,555.3,860.3,553z"/>
							</g>
							<g>
								<path class="st4" d="M891.1,553c0-2.2-1.8-4-4-4h-17.6c-2.2,0-4,1.8-4,4c0,2.2,1.8,4,4,4h17.6
									C889.4,557,891.1,555.3,891.1,553z"/>
							</g>
						</g>
						<g>
							<g>
								<path class="st4" d="M866.9,577.7v-15.8c0-2.2-1.8-4-4-4c-2.2,0-4,1.8-4,4v15.8c0,2.2,1.8,4,4,4
									C865.2,581.7,866.9,579.9,866.9,577.7z"/>
							</g>
							<g>
								<path class="st4" d="M866.9,544.2v-15.8c0-2.2-1.8-4-4-4c-2.2,0-4,1.8-4,4v15.8c0,2.2,1.8,4,4,4
									C865.2,548.1,866.9,546.4,866.9,544.2z"/>
							</g>
						</g>
					</g>
					<g>
						<g>
							<g>
								<g>
									<g>
										<path class="st6" d="M621.3,484.2c0-2.2-1.8-4-4-4h-17.6c-2.2,0-4,1.8-4,4c0,2.2,1.8,4,4,4h17.6
											C619.5,488.1,621.3,486.4,621.3,484.2z"/>
									</g>
								</g>
								<g>
									<g>
										<g>
											<path class="st6" d="M652.1,484.2c0-2.2-1.8-4-4-4h-17.6c-2.2,0-4,1.8-4,4c0,2.2,1.8,4,4,4h17.6
												C650.3,488.1,652.1,486.4,652.1,484.2z"/>
										</g>
									</g>
								</g>
							</g>
							<g>
								<g>
									<g>
										<path class="st6" d="M627.9,508.9v-15.8c0-2.2-1.8-4-4-4c-2.2,0-4,1.8-4,4v15.8c0,2.2,1.8,4,4,4
											C626.1,512.8,627.9,511.1,627.9,508.9z"/>
									</g>
								</g>
								<g>
									<g>
										<path class="st6" d="M627.9,475.3v-15.8c0-2.2-1.8-4-4-4c-2.2,0-4,1.8-4,4v15.8c0,2.2,1.8,4,4,4
											C626.1,479.3,627.9,477.5,627.9,475.3z"/>
									</g>
								</g>
							</g>
						</g>
					</g>
				</g>
			</g>
		</g>
		<g>
			<g>
				<path class="st7" d="M1145.1,694.1v1040c0,32.6-26.4,59-59,59H568.2c-16.4,0-31.2-6.7-41.9-17.4c-10.6-10.7-17.1-25.4-17.1-41.6
					v-1040c0-32.6,26.4-59,59-59h517.9c9.6,0,18.7,2.3,26.8,6.4C1132,651.2,1145.1,671.1,1145.1,694.1z"/>
				<path class="st8" d="M1145.1,694.1v1040c0,32.6-26.4,59-59,59H568.2c-16.4,0-31.2-6.7-41.9-17.4l586.6-1134.2
					C1132,651.2,1145.1,671.1,1145.1,694.1z"/>
			</g>
			<g>
				<path class="st8" d="M509.2,959.5h-19.9c-0.9,0-1.7-0.8-1.7-1.7v-134c0-0.9,0.8-1.7,1.7-1.7h19.9V959.5z"/>
				<path class="st8" d="M1145.1,923.6h16.3c0.8,0,1.4-0.6,1.4-1.4V813.1c0-0.8-0.6-1.4-1.4-1.4h-16.3V923.6z"/>
				<path class="st8" d="M509.2,1115.6h-19.9c-0.9,0-1.7-0.8-1.7-1.7v-134c0-0.9,0.8-1.7,1.7-1.7h19.9V1115.6z"/>
			</g>
			<g>
				<path class="st9" d="M538.6,1754.4V673.7c0-5.1,4.1-9.2,9.2-9.2h558.6c5.1,0,9.2,4.1,9.2,9.2v1080.7c0,5.1-4.1,9.2-9.2,9.2
					H547.9C542.8,1763.7,538.6,1759.5,538.6,1754.4z"/>
				<g>
					<path class="st0" d="M1027,807.5H627.4c-0.9,0-1.6-0.7-1.6-1.6v-37.4c0-0.9,0.7-1.6,1.6-1.6H1027c0.9,0,1.6,0.7,1.6,1.6v37.4
						C1028.6,806.8,1027.9,807.5,1027,807.5z"/>
					<path class="st0" d="M766,903.2H577.1c-0.6,0-1.2-0.5-1.2-1.2v-27.2c0-0.6,0.5-1.2,1.2-1.2H766c0.6,0,1.2,0.5,1.2,1.2v27.2
						C767.1,902.7,766.6,903.2,766,903.2z"/>
					<path class="st0" d="M766,959.8H577.1c-0.6,0-1.2-0.5-1.2-1.2v-27.2c0-0.6,0.5-1.2,1.2-1.2H766c0.6,0,1.2,0.5,1.2,1.2v27.2
						C767.1,959.3,766.6,959.8,766,959.8z"/>
					<path class="st0" d="M766,1011.7H577.1c-0.6,0-1.2-0.5-1.2-1.2v-27.2c0-0.6,0.5-1.2,1.2-1.2H766c0.6,0,1.2,0.5,1.2,1.2v27.2
						C767.1,1011.1,766.6,1011.7,766,1011.7z"/>
				</g>
				<g>
					<rect x="767.1" y="1220.5" class="st6" width="113.3" height="485.7"/>
					<path class="st10" d="M767.1,1578.1c40.2-12.4,77.8-34.6,113.3-58.5v186.6H767.1V1578.1z"/>
				</g>
				<g>
					<rect x="581.9" y="1355.5" class="st6" width="113.3" height="350.7"/>
					<path class="st10" d="M674.2,1586.3c7.1,1,14.1,1.7,21,1.9v117.9H581.9v-116.8C601.9,1582.8,631.3,1580.1,674.2,1586.3z"/>
				</g>
				<g>
					<rect x="952.4" y="1075.4" class="st6" width="113.3" height="630.8"/>
					<path class="st10" d="M1065.7,1421.1v285.1H952.4v-236.7C992.7,1442.2,1030.2,1421,1065.7,1421.1z"/>
				</g>
				<polygon class="st4" points="1061.5,888.5 958.4,910.6 986.1,937.8 828.1,1098.8 772.7,1044.4 563.2,1258 590.8,1285.1 
					773.2,1099.1 828.7,1153.5 1013.7,964.9 1041.4,992 				"/>
			</g>
			<g>
				<path class="st7" d="M1003.3,716.5H651c-1.3,0-2.4-1.1-2.4-2.4V659c0-1.3,1.1-2.4,2.4-2.4h352.3c1.3,0,2.4,1.1,2.4,2.4v55.1
					C1005.7,715.5,1004.6,716.5,1003.3,716.5z"/>
				<path class="st8" d="M918.7,690H706c-0.3,0-0.6-0.3-0.6-0.6v-13.6c0-0.3,0.3-0.6,0.6-0.6h212.8c0.3,0,0.6,0.3,0.6,0.6v13.6
					C919.3,689.8,919.1,690,918.7,690z"/>
				<path class="st11" d="M971.4,682.2c0,4.9-4,8.8-8.8,8.8s-8.8-4-8.8-8.8c0-4.9,4-8.8,8.8-8.8S971.4,677.3,971.4,682.2z"/>
			</g>
		</g>
		<g>
			<g>
				<g>
					<g>
						<g>
							<path class="st4" d="M2141.9,1220.7c-4.2-0.3-8.5-0.3-12.8,0c-8.6,0.7-17.2,2.9-25.2,6.6c-8.1,3.7-15.5,9.1-21.7,15.5
								c-1.7,1.8-3.3,3.6-4.9,5.6c-1.7-0.7-3.4-1.3-5.2-2c-4.3-1.5-8.7-2.8-13.2-3.8c-2.2-0.6-4.6-0.9-6.9-1.3
								c-2.3-0.3-4.7-0.6-7.1-0.7c-1.3-0.1-2.5-0.1-3.8-0.1c-8.3-0.1-16.9,1.3-25.1,4.3c-4.7,1.8-9.1,4.1-13.3,7
								c-2.1,1.4-4.1,3-6,4.8c-1,0.9-1.9,1.8-2.8,2.7c-0.5,0.5-0.9,1-1.4,1.5c-0.2,0.3-0.5,0.5-0.7,0.8l-0.4,0.5l-0.5,0.7l17.8,12.8
								l0.1-0.1l0.3-0.3c0.2-0.2,0.5-0.5,0.7-0.8c0.5-0.5,1.1-1,1.6-1.5c1.2-1,2.4-2,3.8-2.9c2.7-1.8,5.6-3.2,8.6-4.4
								c6.1-2.3,12.8-3.1,19.8-2.7c1.4,0,2.7,0.2,4.1,0.4c0.4,0,0.7,0.1,1.1,0.1c1.8,0.3,3.5,0.5,5.3,1c3.5,0.7,7,1.8,10.6,2.9
								c0.3,0.1,0.6,0.2,1,0.4c-3.2,7.3-5.4,14.9-6.8,22.8c-1.5,8.9-1.8,18-0.5,27.2c0.7,4.6,1.8,9.3,3.6,13.9
								c0.9,2.3,2,4.6,3.4,6.8c1.3,2.2,2.9,4.4,4.8,6.5c1.9,2,4.2,4,6.8,5.5c0.7,0.4,1.3,0.8,2,1.1c0.7,0.3,1.4,0.7,2.1,0.9
								c1.2,0.4,2.5,0.9,3.8,1.3c5.1,1.5,10.9,2.1,16.7,1c5.8-1.1,11.2-3.8,15.6-7.5c4.4-3.7,7.6-8.4,9.8-13.2
								c4.5-9.8,5.1-20.5,3.3-30.4c-0.9-5-2.6-9.7-4.7-14.2l-1.7-3.3c-0.6-1.1-1.3-2.1-1.9-3.2l-1-1.6l-1.1-1.5l-2.1-3
								c-5.7-7.1-12.5-13-19.7-17.7c-0.5-0.3-1-0.7-1.6-1c-0.5-0.3-1-0.6-1.5-0.9l-1.5-0.9l-3-1.7c-0.1-0.1-0.3-0.2-0.4-0.2
								c5.2-6.9,11.5-12.8,18.9-17.6c6.4-4.1,13.6-7.3,21.3-9.7c3.8-1.1,7.8-2.1,11.8-2.8c2-0.4,4-0.8,6.1-1c2-0.3,4.1-0.5,6.2-0.8
								C2150.3,1221.7,2146.1,1221.1,2141.9,1220.7z M2080.3,1274.2l2.4,1.3l1.2,0.6c0.4,0.2,0.8,0.5,1.1,0.7
								c1.3,0.8,2.6,1.6,3.9,2.5c4.6,3.2,8.7,6.8,12.1,10.9l1.5,2l0.8,1l0.7,1.1c0.4,0.7,0.9,1.4,1.3,2.1l1.2,2.2
								c1.4,2.9,2.6,6,3.3,9.1c1.3,6.2,1,12.7-1.3,18.1c-1.1,2.6-2.7,5-4.5,6.7c-1.8,1.7-4,2.9-6.3,3.4c-2.3,0.6-5,0.5-7.8-0.2
								c-0.7-0.2-1.4-0.4-2.1-0.6c-0.5-0.2-1-0.4-1.5-0.7c-1-0.5-1.9-1.2-2.9-2.1c-0.9-0.9-1.8-2-2.7-3.3c-0.8-1.3-1.6-2.7-2.2-4.2
								c-1.3-3-2.3-6.4-3-9.9c-1.4-7-1.5-14.6-0.6-22c0.8-6.5,2.3-13,4.6-19.2C2079.8,1274,2080,1274.1,2080.3,1274.2z"/>
							<path class="st3" d="M2047.8,1263.5c-1.4-0.2-2.8-0.3-4.1-0.4c-6.9-0.4-13.7,0.4-19.8,2.7c-3,1.2-5.9,2.6-8.6,4.4
								c-1.3,0.9-2.6,1.9-3.8,2.9c-0.6,0.5-1.1,1-1.6,1.5c-0.2,0.3-0.5,0.5-0.7,0.8l-0.3,0.3l-0.1,0.1c0,0,0,0,0-0.1l-17.8-12.8
								l0.5-0.7l0.4-0.5c0.3-0.3,0.5-0.6,0.7-0.8c0.5-0.6,0.9-1,1.4-1.5c0.9-1,1.8-1.9,2.8-2.7c1.9-1.7,3.9-3.3,6-4.8
								c4.2-2.9,8.6-5.2,13.3-7c8.1-3.1,16.7-4.4,25.1-4.3C2043.5,1247.1,2046.1,1255.3,2047.8,1263.5z"/>
							<path class="st3" d="M2098.1,1259.2c-5.9,6.2-8.2,14.5-9.2,20.2c-1.3-0.9-2.6-1.7-3.9-2.5c-0.4-0.2-0.8-0.5-1.1-0.7l-1.2-0.6
								l-2.4-1.3c-0.3-0.1-0.5-0.3-0.8-0.4c3.6-10.9,10.6-19.3,10.6-19.3c0.1,0.1,0.3,0.1,0.4,0.2l3,1.7l1.5,0.9
								c0.5,0.3,1,0.6,1.5,0.9C2097.1,1258.5,2097.6,1258.9,2098.1,1259.2z"/>
						</g>
						<g>
							<g>
								<path class="st3" d="M1334.9,1643.7l-17.7,96.6l-11.6,63.4c-58.2,23.2-112.8-15-112.8-15v-193.3L1334.9,1643.7z"/>
								<path class="st5" d="M1192.9,1595.4l142.1,48.3l-17.7,96.6c-48.5-15.8-91.9-41.3-124.4-64.1V1595.4z"/>
							</g>
							<g>
								<path class="st3" d="M1822.2,1595.4v193.3c0,0-54.6,38.2-112.9,15l-11.4-62.5l-17.8-97.5L1822.2,1595.4z"/>
								<path class="st5" d="M1822.2,1595.4v89.7c-34.7,26.4-77.7,44.3-124.3,56.1l-17.8-97.5L1822.2,1595.4z"/>
							</g>
						</g>
						<path class="st4" d="M2026,1287.6c0,33.2-4.3,65.5-12.5,96.6c0,0,0,0,0,0.1c-50.5,191.8-248,334.8-483.9,334.8
							c-228.6,0-421-134.2-478.8-316.9c-5.8-18.2-10.2-36.9-13.2-56.1c-3-19.1-4.5-38.6-4.5-58.4c0-238.3,222.3-431.5,496.4-431.5
							c77.2,0,150.2,15.3,215.3,42.6c0,0,0,0,0,0C1911.3,968.5,2026,1116.4,2026,1287.6z"/>
						<path class="st3" d="M2013.5,1384.3c-50.5,191.8-248,334.8-483.9,334.8c-228.6,0-421-134.2-478.8-316.9l0-46.6
							c0,0,155.2,293.6,487.5,308C1868.1,1677.8,2011.4,1389,2013.5,1384.3z"/>
						<g>
							<path class="st4" d="M1050.8,1176.2v226h-98.2c-22.1-76-22.5-151.3,0-226H1050.8z"/>
							<path class="st3" d="M952.6,1402.1c-22.1-76-22.5-151.3,0-226C952.6,1176.2,988,1287.6,952.6,1402.1z"/>
							<path class="st5" d="M955.9,1289.6c0,20.8-1.7,37.6-3.8,37.6c-2.1,0-3.8-16.8-3.8-37.6c0-20.8,1.7-37.6,3.8-37.6
								C954.2,1252,955.9,1268.9,955.9,1289.6z"/>
						</g>
						<g>
							<g>
								<path class="st3" d="M1555.1,1426.5l0,47l-59.7,0.1l0-44.9c-42.4-2.5-83.4-13.9-108.9-29.5l32.1-72.9
									c28,16.5,65.2,27,97.9,27c28.4,0,38.5-6,38.5-16.1c0-37.3-163.9-7.1-164-117.6c0-47.9,34.6-88.1,104.1-97.9l0-46.2l59.7-0.1
									l0,45.3c31.3,2.9,61.8,11,86,24.5l-30,72.4c-29.2-14.8-56.8-22-82.6-21.9c-29.2,0-38.5,8.5-38.5,18.7
									c0,35.6,163.9,5.8,164,115C1653.7,1375.2,1620.7,1415,1555.1,1426.5z"/>
							</g>
						</g>
						<g>
							<g>
								<path class="st4" d="M1309.6,904.2c0,0-25.7,40.6-77.1,60.9c-13,5.1-27.6,8.9-43.9,10.5L1144,814.9c0,0,0,0,0,0
									C1145.5,815.5,1261.8,855.7,1309.6,904.2z"/>
								<path class="st3" d="M1232.5,965.1c-13,5.1-27.6,8.9-43.9,10.5L1144,814.9c0,0,0,0,0,0
									C1145.1,816,1219.6,893.4,1232.5,965.1z"/>
							</g>
						</g>
						<g>
							<g>
								<path class="st5" d="M1698.7,899.5l-2.2,11.2l-3.7,19.6c-161.4-46.7-325.4-6.2-327-5.8l-3.3-19.6l-1.9-11.4
									C1367.4,891.8,1531.5,851.2,1698.7,899.5z"/>
							</g>
							<g>
								<g>
									<path class="st3" d="M1696.5,910.8l-3.7,19.6c-7.5-2.2-15.1-4.2-22.6-6c-12.8-3.1-25.6-5.7-38.3-7.8
										c-18.3-3.1-36.3-5.2-53.9-6.6c-1-0.1-1.9-0.1-2.8-0.2c-7.9-0.6-15.6-1-23.3-1.3c-0.3,0-0.6,0-0.8,0
										c-8.8-0.4-17.5-0.5-25.9-0.6h-3.2c-0.5,0-1,0-1.6,0c-20.6,0.1-39.9,1-57.5,2.4c-0.6,0-1.3,0.1-1.9,0.2
										c-5.7,0.4-11.2,1-16.5,1.5c-0.4,0.1-0.8,0.1-1.2,0.1c-6.3,0.7-12.4,1.4-18.1,2.1c-15.9,2-29.1,4.2-39,6.1
										c-12.8,2.4-20.2,4.2-20.5,4.3l-2.9-17.4c2.5-0.6,7.2-1.7,13.7-3.1h0c0.8-0.2,1.6-0.3,2.4-0.5c8.6-1.8,20-4,33.8-6.1
										c14.3-2.2,31-4.4,49.7-6c0.4,0,0.7-0.1,1.1-0.1h0c1.8-0.1,3.6-0.3,5.4-0.4c3.5-0.3,7.2-0.6,10.9-0.8c0.6,0,1.2-0.1,1.8-0.1
										c0.5,0,0.9-0.1,1.4-0.1c17.2-1,35.8-1.6,55.2-1.3c1.5,0,3.1,0,4.7,0.1c7.2,0.2,14.5,0.4,22,0.8c4.5,0.2,9,0.5,13.6,0.9
										c4.5,0.3,8.9,0.7,13.5,1.2c1,0.1,2,0.2,2.9,0.3c16.5,1.6,33.4,4,50.5,7.1c11.8,2.2,23.8,4.8,35.8,7.8
										C1686.4,908,1691.4,909.3,1696.5,910.8z"/>
								</g>
							</g>
						</g>
					</g>
					<g>
						<path class="st12" d="M1681.3,906.7c-0.1,0.2-0.3,0.5-0.4,0.7c-3.2,5.9-6.8,11.5-10.7,16.9c-12.8-3.1-25.6-5.7-38.3-7.8
							c-18.3-3.1-36.3-5.2-53.9-6.6c-1-0.1-1.9-0.1-2.8-0.2c-7.9-0.6-15.6-1-23.3-1.3c-0.3,0-0.6,0-0.8,0
							c-8.8-0.4-17.5-0.5-25.9-0.6h-3.2c-0.5,0-1,0-1.6,0c-20.6,0.1-39.9,1-57.5,2.4c-0.6,0-1.3,0.1-1.9,0.2
							c-5.7,0.4-11.2,1-16.5,1.5c-0.4,0.1-0.8,0.1-1.2,0.1c-6.3,0.7-12.4,1.4-18.1,2.1c-15.9,2-29.1,4.2-39,6.1
							c-3.2-4.8-6.2-9.8-9-14.9v0c-0.2-0.4-0.4-0.8-0.6-1.2c0,0,0-0.1-0.1-0.1h0c0,0,0,0,0-0.1c-0.6-1.1-1.2-2.3-1.7-3.4
							c-0.2-0.4-0.4-0.7-0.5-1.1c-0.6-1.3-1.2-2.5-1.8-3.8c-9.2-20-14.6-42.2-15.4-65.6c-0.1-2.1-0.1-4.3-0.1-6.4
							c0-92.5,73.4-169.1,166.6-172.4c22.9-0.8,45,2.9,65.3,10.3c1.2,0.4,2.4,0.9,3.6,1.4c0.2,0.1,0.4,0.2,0.6,0.3
							c1.2,0.4,2.3,0.9,3.4,1.4c0.7,0.3,1.3,0.6,2,0.8c0.1,0,0.1,0.1,0.2,0.1c0.6,0.2,1.2,0.5,1.7,0.8c16.6,7.4,31.8,17.4,45.1,29.4
							c2.9,2.6,5.8,5.4,8.5,8.2c9.8,10.1,18.3,21.4,25.4,33.7c7.3,12.7,13.1,26.4,17,40.8c2.9,10.6,4.8,21.6,5.6,32.9
							c0.2,2.1,0.3,4.3,0.4,6.4C1703.5,849.9,1695.7,880.4,1681.3,906.7z"/>
						<path class="st13" d="M1696.4,778.4l-29.3,31.8l-1.2,1.3l-73.9,80l-16.9,18.3c-7.9-0.6-15.6-1-23.3-1.3c-0.3,0-0.6,0-0.8,0
							c-8.8-0.4-17.5-0.5-25.9-0.6h-3.2c-0.5,0-1,0-1.6,0l1.5-1.6l0.8-0.9l15.7-16.8l53.3-57l2-2.1l56.8-60.8l3.9-4.2l25.1-26.8
							C1686.7,750.2,1692.4,763.9,1696.4,778.4z"/>
						<path class="st13" d="M1600.3,666.2l-223.1,239.1c-1.7-3.2-3.3-6.4-4.8-9.7l216.3-234.1
							C1592.7,662.9,1596.5,664.5,1600.3,666.2z"/>
						<path class="st13" d="M1653.9,703.9l-23.7,25.5l-5.9,6.3l-42.9,46.4l-6.6,7.2l-1.3,1.5l-4.7,5.1l-9.1,9.8l-5.6,6.1l-26.2,28.3
							l-5.9,6.4l-10.1,10.9l-5.7,6.1l-24,26l-0.4,0.4l-4.6,4.9l-14.2,15.4c-0.6,0-1.3,0.1-1.9,0.2c-5.7,0.4-11.2,1-16.5,1.5
							l19.2-20.6h0l6.3-6.7l2.9-3.1l20.4-22l5-5.4l9.7-10.4l5.7-6.1l26.3-28.2l6-6.4l10.2-11.1l5.3-5.7l23.3-25.1l1.2-1.3l29.5-31.7
							l6.4-6.9l23.6-25.5C1648.3,698.3,1651.2,701,1653.9,703.9z"/>
						<path class="st10" d="M1667.7,825.3c-0.3,27-8.4,52.3-22.2,73.6c-4.1,6.3-8.6,12.2-13.6,17.7c-18.3-3.1-36.3-5.2-53.9-6.6
							c-1-0.1-1.9-0.1-2.8-0.2c-7.9-0.6-15.6-1-23.3-1.3c-0.3,0-0.6,0-0.8,0c-8.8-0.4-17.5-0.5-25.9-0.6h-3.2c-0.5,0-1,0-1.6,0
							c-20.6,0.1-39.9,1-57.5,2.4c-0.6,0-1.3,0.1-1.9,0.2c-5.7,0.4-11.2,1-16.5,1.5c-0.4,0.1-0.8,0.1-1.2,0.1
							c-6.3,0.7-12.4,1.4-18.1,2.1c-0.8-1-1.7-1.9-2.4-2.9c-0.6-0.7-1.1-1.3-1.6-2c0,0-0.1-0.1-0.1-0.1c-0.6-0.8-1.2-1.5-1.8-2.3
							c-0.1-0.1-0.2-0.3-0.3-0.4c-0.6-0.7-1.1-1.5-1.6-2.2c-1.1-1.6-2.2-3.1-3.3-4.8c-0.4-0.7-0.9-1.4-1.3-2
							c-0.2-0.3-0.3-0.5-0.5-0.8c-0.4-0.6-0.8-1.2-1.1-1.9c-2.6-4.4-5-8.9-7.2-13.6c-0.4-0.9-0.8-1.8-1.2-2.6
							c-0.1-0.1-0.1-0.3-0.2-0.4c-0.3-0.7-0.6-1.5-0.9-2.2c-0.2-0.5-0.4-0.9-0.6-1.4c-0.3-0.8-0.7-1.7-1-2.6c-0.4-1-0.7-2-1.1-2.9
							c-0.2-0.5-0.4-1.1-0.6-1.6c-0.1-0.2-0.1-0.4-0.2-0.6c-0.1-0.2-0.1-0.4-0.2-0.6c-0.4-1.2-0.8-2.4-1.1-3.6
							c0-0.1-0.1-0.2-0.1-0.3c-0.4-1.2-0.7-2.4-1-3.7c-0.2-0.8-0.4-1.5-0.6-2.3c-0.4-1.6-0.8-3.2-1.1-4.8c-0.1-0.6-0.2-1.2-0.3-1.8
							c-0.2-0.8-0.3-1.5-0.4-2.3c-0.1-0.4-0.1-0.9-0.2-1.3c-0.1-0.7-0.2-1.3-0.3-2c-0.1-0.5-0.2-1.1-0.2-1.7
							c-0.2-1.1-0.3-2.2-0.4-3.4c-0.2-1.3-0.3-2.7-0.4-4c-0.2-2.1-0.3-4.2-0.4-6.3c-2.7-76.1,57-140.2,133-142.9
							c13.1-0.5,25.8,0.9,37.9,3.9c4.2,1,8.3,2.2,12.3,3.6h0c17.4,6.1,33.3,15.5,46.8,27.7c3,2.7,5.8,5.4,8.5,8.3
							c9.7,10.3,17.8,22.1,24,35c6.7,14.1,11.2,29.5,12.8,45.8c0.3,2.9,0.5,5.8,0.6,8.8C1667.7,821.1,1667.7,823.2,1667.7,825.3z"/>
						<path class="st6" d="M1667.7,825.3c-0.3,27-8.4,52.3-22.2,73.6c-4.1,6.3-8.6,12.2-13.6,17.7c-18.3-3.1-36.3-5.2-53.9-6.6
							c-1-0.1-1.9-0.1-2.8-0.2c-7.9-0.6-15.6-1-23.3-1.3c-0.3,0-0.6,0-0.8,0c-8.8-0.4-17.5-0.5-25.9-0.6h-3.2c-0.5,0-1,0-1.6,0
							c-20.6,0.1-39.9,1-57.5,2.4c-0.6,0-1.3,0.1-1.9,0.2c-5.7,0.4-11.2,1-16.5,1.5c-0.4,0.1-0.8,0.1-1.2,0.1
							c-6.3,0.7-12.4,1.4-18.1,2.1c-0.8-1-1.7-1.9-2.4-2.9c-0.6-0.7-1.1-1.3-1.6-2c0,0-0.1-0.1-0.1-0.1c-0.6-0.8-1.2-1.5-1.8-2.3
							c-0.1-0.1-0.2-0.3-0.3-0.4c-0.6-0.7-1.1-1.5-1.6-2.2c-1.1-1.6-2.2-3.1-3.3-4.8c-0.4-0.7-0.9-1.4-1.3-2
							c-0.2-0.3-0.3-0.5-0.5-0.8c-0.4-0.6-0.8-1.2-1.1-1.9c-2.6-4.4-5-8.9-7.2-13.6c-0.4-0.9-0.8-1.8-1.2-2.6
							c-0.1-0.1-0.1-0.3-0.2-0.4c-0.3-0.7-0.6-1.5-0.9-2.2c-0.2-0.5-0.4-0.9-0.6-1.4c-0.3-0.8-0.7-1.7-1-2.6c-0.4-1-0.7-2-1.1-2.9
							c-0.2-0.6-0.4-1.1-0.5-1.7c-0.1-0.2-0.1-0.4-0.2-0.6c-0.1-0.2-0.1-0.4-0.2-0.6c-0.4-1.2-0.8-2.4-1.1-3.6
							c0-0.1-0.1-0.2-0.1-0.3c-0.4-1.2-0.7-2.4-1-3.7c-0.2-0.8-0.4-1.5-0.6-2.3c-0.4-1.6-0.8-3.2-1.1-4.8c-0.1-0.6-0.2-1.2-0.3-1.8
							c-0.2-0.8-0.3-1.5-0.4-2.3c-0.1-0.4-0.1-0.9-0.2-1.3c-0.1-0.7-0.2-1.3-0.3-2c-0.1-0.5-0.2-1.1-0.2-1.7
							c-0.2-1.1-0.3-2.2-0.4-3.4c-0.2-1.3-0.3-2.7-0.4-4c0.7-73.3,59.2-134,133.1-136.6c9.4-0.3,18.5,0.3,27.5,1.7
							c0.1,0,0.2,0,0.3,0.1c1,0.2,2.1,0.4,3.1,0.6c1.1,0.2,2.3,0.4,3.4,0.7c2.2,0.4,4.3,1,6.5,1.5h0c0.1,0,0.1,0,0.2,0.1
							c18,4.9,34.5,13.3,48.9,24.5c0.1,0.1,0.3,0.2,0.4,0.3c2.9,2.3,5.8,4.8,8.6,7.3c0.2,0.1,0.3,0.3,0.5,0.4
							c10.2,9.5,19,20.6,25.9,32.9c0.6,1,1.1,2,1.6,2.9c6.6,12.3,11.3,25.7,14,39.9c0.2,1.2,0.4,2.3,0.6,3.5
							C1667.1,818.4,1667.5,821.8,1667.7,825.3z"/>
						<path class="st14" d="M1666.5,815l-71.5,76.8l-17,18.2c-1-0.1-1.9-0.1-2.8-0.2c-7.9-0.6-15.6-1-23.3-1.3c-0.3,0-0.6,0-0.8,0
							c-8.8-0.4-17.5-0.5-25.9-0.6l17.9-19.2l50.4-54.2l1.5-1.6l57-61.3c6.6,12.3,11.3,25.7,14,39.9
							C1666.1,812.6,1666.3,813.8,1666.5,815z"/>
						<path class="st14" d="M1566,703.2l-163.2,175.3c-1.7-4-3.3-8.1-4.6-12.3l154.4-165.9C1557.2,701,1561.6,702,1566,703.2z"/>
						<path class="st14" d="M1623.9,735.3l-41.7,44.8l-6.6,7.1l-2.9,3.2l-4.8,5.1l-9.2,9.9l-5.7,6.1l-26.3,28.3l-6,6.4l-10.2,10.9
							l-5.6,6.1l-24.1,25.9l-0.9,1l-4,4.3l-14.9,16c-5.7,0.4-11.2,1-16.5,1.5c-0.4,0.1-0.8,0.1-1.2,0.1l19.2-20.7l6.7-7.2l4.3-4.6
							l18.9-20.4l5-5.4l9.7-10.4l5.7-6.1l26.3-28.2l6-6.4l10.3-11.1l5.4-5.8l23.4-25.2l2.2-2.4l28.5-30.6c0.1,0.1,0.3,0.2,0.4,0.3
							C1618.3,730.3,1621.2,732.8,1623.9,735.3z"/>
						<g>
							<g>
								<g>
									<g>
										<g>
											<path class="st10" d="M1598.1,852.5c-0.1-3.3-0.5-6.4-1.2-9.2v0c-0.8-3.3-2-6.2-3.4-8.8c-0.5-1-1.2-2-1.8-2.9
												c-8.2-11.8-23.2-16.8-37.6-19.8c-0.4-0.1-0.7-0.1-1.1-0.2c-4.5-0.9-9-1.6-13.1-2.3c-0.3,0-0.5-0.1-0.8-0.1
												c-12.8-2.1-22.7-3.9-22.9-10c-0.1-1.3,0.2-2.5,0.9-3.6c1.9-3.3,7-5.7,17.6-6.1c6.7-0.2,13.6,0.5,20.8,2.2
												c0.2,0.1,0.4,0.1,0.7,0.2c3.9,1,7.8,2.2,11.8,3.8c0.3,0.1,0.6,0.2,0.9,0.3c2.2,0.8,4.3,1.8,6.5,2.8l6.2-16.5l0.8-2
												l6.5-17.3c-1.1-0.6-2.2-1.1-3.3-1.6c-0.2-0.1-0.4-0.2-0.6-0.3c-0.2-0.1-0.4-0.2-0.5-0.3c-11.2-4.8-24.4-7.6-37.9-8.3
												l-0.3-7.5l-0.5-14.6l-0.8,0l-4,0.1h-0.3l-15.8,0.6l-0.5,0l-7.6,0.3l0.3,7.6v0l0,0.6v0l0.5,14.3c-7,1.2-13.3,3.1-18.8,5.5
												l0,0h0c-0.4,0.1-0.8,0.3-1.2,0.5c-14.7,6.7-23.8,17.2-27.4,29.4c-0.1,0.4-0.3,0.9-0.4,1.4v0c-1,4.1-1.5,8.3-1.3,12.7
												c0,0.5,0,1,0.1,1.5c0.1,0.9,0.1,1.8,0.2,2.7v0c0,0.1,0,0.3,0.1,0.4c2.9,22.3,20.5,30.9,38.7,35.4
												c0.3,0.1,0.5,0.1,0.8,0.2c4.3,1,8.6,1.9,12.8,2.6c0.4,0.1,0.8,0.1,1.2,0.2c11.7,2,21.9,3.5,26.1,7.3c1.3,1.2,2,2.5,2,4.2
												c0.2,4.9-4.7,8-18.5,8.5c-8.2,0.3-17-0.8-25.5-2.9c-0.4-0.1-0.8-0.2-1.2-0.3c-4-1-7.9-2.3-11.7-3.8
												c-0.2-0.1-0.5-0.2-0.7-0.3c-3.2-1.3-6.2-2.7-9.1-4.3l-9.9,24.6l-0.8,1.9l-1.5,3.8l-2.2,5.6l-0.1,0.2
												c2.1,1.2,4.4,2.3,6.9,3.4c0.4,0.2,0.8,0.3,1.2,0.5c12.2,4.9,28.2,8.2,44.6,8.6c0.3,0,0.6,0,0.8,0l0.1,1.8l0.1,2.5h2.4
												c8.5,0,17.1,0.2,25.9,0.6c0.3,0,0.6,0,0.8,0l-0.3-6.9c10.9-2.3,19.9-6.2,26.9-11.1
												C1592.1,880.8,1598.6,867.1,1598.1,852.5z"/>
										</g>
									</g>
								</g>
							</g>
							<g>
								<path class="st12" d="M1596.9,843.3L1596.9,843.3c-0.3-3.8-0.9-7.3-2-10.4c-0.4-1.2-0.8-2.4-1.3-3.5
									c-6.1-13.7-19.7-20-33.9-23.7c-0.3-0.1-0.7-0.2-1-0.3c-4.3-1.1-8.6-1.9-12.8-2.6c-0.3,0-0.5-0.1-0.7-0.1
									c-12.6-2.1-23.7-3.4-28-7.2c-1.2-1.1-1.9-2.4-2-3.9c-0.2-5,4.2-9.3,18.5-9.8c8.6-0.3,17.7,1,27.3,4.1
									c0.2,0.1,0.4,0.1,0.6,0.2c3.7,1.2,7.4,2.6,11.3,4.4c0.3,0.1,0.5,0.3,0.8,0.4c0.2,0.1,0.4,0.2,0.7,0.3l0.7-1.8l0.8-2.1
									l9.7-26l0.6-1.5l0.5-1.4l1.1-3c-11.8-6.1-26.5-9.5-41.5-10.4c-0.3,0-0.6,0-0.8-0.1l-0.5-14.5l-0.1-4V726l-0.1-3.3l-12.6,0.4
									l-0.5,0l-16.1,0.6l0.6,16.1l0,0.6l0.2,5.8c-2.4,0.4-4.7,0.9-7,1.5h0c-0.3,0.1-0.5,0.1-0.8,0.2h0
									c-26.9,7.1-40.5,24.3-41.3,44.3v0c0,0.3,0,0.7,0,1c0,0.8,0,1.6,0,2.4c0.1,3.3,0.5,6.3,1.2,9.1c0.2,0.8,0.4,1.5,0.6,2.3v0
									c0,0.1,0.1,0.2,0.1,0.3v0c6.1,19.5,25.7,26.1,43.9,29.8c0.3,0.1,0.5,0.1,0.8,0.1c4.5,0.9,8.9,1.6,13,2.3
									c0.4,0.1,0.8,0.1,1.2,0.2c11.9,2.1,20.9,4.2,21.1,10.2c0.1,1.3-0.2,2.4-0.9,3.4c-1.9,2.9-7.3,4.7-17.6,5.1
									c-6,0.2-12.4-0.3-18.7-1.4c-0.4-0.1-0.9-0.1-1.3-0.2c-4.2-0.8-8.3-1.8-12.3-3.1c-0.2-0.1-0.5-0.2-0.7-0.3
									c-5.4-1.8-10.6-4-15.2-6.5l-14.4,36.1c0.4,0.3,0.9,0.5,1.4,0.8c0.2,0.1,0.4,0.3,0.7,0.4c0.4,0.2,0.9,0.5,1.4,0.7
									c2.9,1.4,6.1,2.7,9.5,3.9c0.4,0.1,0.8,0.3,1.3,0.4c0.3,0.1,0.7,0.2,1,0.3c11.2,3.6,24.7,5.8,38.4,6.1l0.3,7.6l0.1,2.7
									l0.1,1.6h3.2c8.5,0,17.1,0.2,25.9,0.6l-0.5-14.5c5.3-1.1,10.1-2.6,14.5-4.4c22-9,32.7-26,32-44.6
									C1596.9,844.3,1596.9,843.8,1596.9,843.3z"/>
							</g>
						</g>
					</g>
				</g>
			</g>
			<g>
				<g>
					<g>
						<g>
							<path class="st6" d="M2157.6,1770c0,0.2,0,0.3,0,0.5c0,5.9-3.1,11.5-8.9,16.8c-1.4,1.3-3,2.6-4.7,3.8
								c-4.8,3.5-10.8,6.7-17.8,9.8c-1.5,0.7-3.1,1.3-4.7,1.9c-5.4,2.1-11.4,4.1-17.8,6c-1.5,0.4-3.1,0.9-4.7,1.3
								c-5.6,1.5-11.6,2.9-17.8,4.2c-1.5,0.3-3.1,0.6-4.7,0.9c-5.7,1.1-11.7,2.1-17.8,2.9c-1.6,0.2-3.1,0.4-4.7,0.6
								c-5.8,0.8-11.7,1.4-17.8,2c-1.6,0.1-3.1,0.3-4.7,0.4c-5.8,0.5-11.8,0.9-17.8,1.1c-1.6,0.1-3.1,0.1-4.7,0.2
								c-5.8,0.2-11.8,0.4-17.8,0.4c-1,0-2.1,0-3.1,0c-0.5,0-1,0-1.6,0c-6,0-12-0.1-17.8-0.3c-1.6-0.1-3.1-0.1-4.7-0.2
								c-4.5-0.2-8.8-0.4-13.2-0.7c-1.5-0.1-3.1-0.2-4.6-0.3c-1.6-0.1-3.1-0.3-4.7-0.4c-6.1-0.5-12-1.2-17.8-1.9
								c-1.6-0.2-3.1-0.4-4.7-0.6c-3.7-0.5-7.3-1.1-10.8-1.6c-2.4-0.4-4.7-0.8-7-1.2c-1.6-0.3-3.1-0.6-4.7-0.9
								c-6.2-1.2-12.2-2.6-17.8-4.1c-1.1-0.3-2.2-0.6-3.3-0.9c-0.5-0.1-0.9-0.3-1.4-0.4c-2.5-0.7-5-1.5-7.4-2.2
								c-3.6-1.2-7.1-2.4-10.4-3.6c-1.6-0.6-3.2-1.2-4.7-1.9c-6-2.5-11.3-5.2-15.8-8c-0.7-0.4-1.4-0.9-2-1.3
								c-0.8-0.6-1.6-1.1-2.3-1.7c-0.8-0.6-1.6-1.2-2.3-1.9c-6.8-5.7-10.5-11.8-10.5-18.2c0-0.4,0-0.9,0.1-1.3l0-36.2l10.4,0l4.7,0
								l17.8,0l4.7,0l13.9,0l3.9,0l4.7,0l17.8,0l4.7,0l17.8,0l4.7,0l17.8,0l4.7,0l17.8,0l4.7,0l17.8,0l4.7,0l17.8,0l4.7,0l17.8,0
								l4.7,0l17.8,0l4.7,0l17.8,0l4.7,0l17.8,0l4.7,0h1.2l16.6,0l4.7,0l17.8,0l4.7,0l8.9,0L2157.6,1770L2157.6,1770z"/>
							<g>
								<g>
									<g>
										<path class="st10" d="M1833.7,1732.9v59.3c-0.8-0.6-1.6-1.1-2.3-1.7c-0.8-0.6-1.6-1.2-2.3-1.9v-55.7L1833.7,1732.9z"/>
									</g>
									<g>
										<path class="st10" d="M1856.2,1732.9v70.5c-1.6-0.6-3.2-1.2-4.7-1.9v-68.6L1856.2,1732.9z"/>
									</g>
									<g>
										<path class="st10" d="M1878.7,1732.8v77.6c-1.1-0.3-2.2-0.6-3.3-0.9c-0.5-0.1-0.9-0.3-1.4-0.4v-76.4L1878.7,1732.8z"/>
									</g>
									<g>
										<path class="st10" d="M1901.2,1732.8v82.6c-1.6-0.3-3.1-0.6-4.7-0.9v-81.7L1901.2,1732.8z"/>
									</g>
									<g>
										<path class="st10" d="M1923.7,1732.8v86.2c-1.6-0.2-3.1-0.4-4.7-0.6v-85.5L1923.7,1732.8z"/>
									</g>
									<g>
										<path class="st10" d="M1946.2,1732.7v88.5c-1.6-0.1-3.1-0.3-4.7-0.4v-88.1L1946.2,1732.7z"/>
									</g>
									<g>
										<path class="st10" d="M1968.7,1732.7v89.8c-1.6-0.1-3.1-0.1-4.7-0.2v-89.6L1968.7,1732.7z"/>
									</g>
									<g>
										<path class="st10" d="M1991.2,1732.7v90.2c-1,0-2.1,0-3.1,0c-0.5,0-1,0-1.6,0v-90.1L1991.2,1732.7z"/>
									</g>
									<g>
										<path class="st10" d="M2013.7,1732.6v89.6c-1.6,0.1-3.1,0.1-4.7,0.2v-89.8L2013.7,1732.6z"/>
									</g>
									<g>
										<path class="st10" d="M2036.2,1732.6v88.1c-1.6,0.1-3.1,0.3-4.7,0.4v-88.5L2036.2,1732.6z"/>
									</g>
									<g>
										<path class="st10" d="M2058.7,1732.6v85.5c-1.6,0.2-3.1,0.4-4.7,0.6v-86.2L2058.7,1732.6z"/>
									</g>
									<g>
										<path class="st10" d="M2081.2,1732.5v81.7c-1.5,0.3-3.1,0.6-4.7,0.9v-82.6L2081.2,1732.5z"/>
									</g>
									<g>
										<path class="st10" d="M2103.7,1732.5v76.3c-1.5,0.4-3.1,0.9-4.7,1.3v-77.6L2103.7,1732.5z"/>
									</g>
									<g>
										<path class="st10" d="M2126.2,1732.5v68.4c-1.5,0.7-3.1,1.3-4.7,1.9v-70.3L2126.2,1732.5z"/>
									</g>
									<g>
										<path class="st10" d="M2148.7,1732.4v54.8c-1.4,1.3-3,2.6-4.7,3.8v-58.6L2148.7,1732.4z"/>
									</g>
								</g>
							</g>
						</g>
						<g>
							<g>
								<path class="st12" d="M2157.6,1732.9c0,26.6-75.9,48.1-169.5,48.1c-12.8,0-25.3-0.4-37.2-1.2c-15.1-1-29.4-2.5-42.6-4.5
									c-11.8-1.8-22.8-4-32.8-6.5c-3-0.8-6-1.6-8.8-2.4c-12.5-3.6-22.9-7.8-30.9-12.4c-1.6-0.9-3-1.8-4.4-2.7
									c-8.3-5.7-12.8-11.9-12.8-18.4c0-0.6,0-1.2,0.1-1.8c3.3-25.8,77.9-46.3,169.4-46.3c22.5,0,44,1.2,63.7,3.5
									c3.8,0.4,7.5,0.9,11.2,1.4c16,2.2,30.5,5.2,43.1,8.6c2.8,0.8,5.5,1.6,8.1,2.4c9.2,2.9,17.2,6.1,23.7,9.6
									c6.7,3.6,11.9,7.5,15.2,11.5c2.4,3,3.9,6.1,4.3,9.2C2157.5,1731.7,2157.6,1732.3,2157.6,1732.9z"/>
								<path class="st1" d="M2153.1,1721.9l-202.3,58c-15.1-1-29.4-2.5-42.6-4.5l229.7-65
									C2144.6,1713.9,2149.8,1717.8,2153.1,1721.9z"/>
								<path class="st1" d="M2062.9,1689.7l-227.1,64.3c-1.6-0.9-3-1.8-4.4-2.7l220.3-63
									C2055.5,1688.7,2059.3,1689.2,2062.9,1689.7z"/>
								<path class="st1" d="M2114.1,1700.7l-238.7,68.1c-3-0.8-6-1.6-8.8-2.4l239.4-68.1
									C2108.9,1699.1,2111.5,1699.9,2114.1,1700.7z"/>
								<path class="st10" d="M2123.6,1732.9c0,0.6-0.1,1.2-0.1,1.8c-3.3,20.4-62.7,36.7-135.3,36.7c-72.6,0-132.1-16.3-135.3-36.7
									c-0.1-0.6-0.1-1.2-0.1-1.8c0-21.2,60.8-38.5,135.5-38.5C2062.8,1694.4,2123.6,1711.7,2123.6,1732.9z"/>
								<path class="st6" d="M2123.4,1734.6c-3.3,20.4-62.7,36.7-135.3,36.7c-1.6,0-3.2,0-4.8,0c-16.2-0.2-31.7-1.1-46-2.8
									c-14.3-1.6-27.4-4-38.7-6.8c-2.9-0.7-5.7-1.5-8.4-2.3c-12.1-3.6-21.9-7.9-28.3-12.6c-1.6-1.1-2.9-2.3-4.1-3.5
									c-2.8-2.8-4.5-5.7-5-8.7c3.3-20.4,62.7-36.7,135.3-36.7c9.2,0,18.2,0.3,26.9,0.8c4.4,0.3,8.8,0.6,13.1,0.9
									c17.4,1.5,33.4,4,47.1,7.3c2.9,0.7,5.8,1.4,8.5,2.2c10.6,3,19.5,6.5,26.2,10.4c6.5,3.8,10.9,7.9,12.7,12.2
									C2123,1732.7,2123.3,1733.7,2123.4,1734.6z"/>
								<path class="st15" d="M2122.6,1731.7l-139.3,39.6c-16.2-0.2-31.7-1.1-46-2.8l172.6-49
									C2116.3,1723.3,2120.7,1727.4,2122.6,1731.7z"/>
								<path class="st15" d="M2028,1699.6l-166.2,47.2c-1.6-1.1-2.9-2.3-4.1-3.5l157.2-44.7
									C2019.4,1698.9,2023.7,1699.3,2028,1699.6z"/>
								<path class="st15" d="M2083.6,1709.1l-185.1,52.6c-2.9-0.7-5.7-1.5-8.4-2.3l184.9-52.5
									C2078,1707.6,2080.9,1708.4,2083.6,1709.1z"/>
								<g>
									<g>
										<g>
											<g>
												<g>
													<path class="st10" d="M2006.9,1754.7v6.4h-28.6v-6.1c-20.3-0.3-39.9-1.9-52.1-4l15.4-9.9c13.4,2.2,31.2,3.7,46.8,3.7
														c13.6,0,18.5-0.8,18.5-2.2c0-5.1-78.5-1-78.5-16c0-6.5,16.6-12,49.9-13.3v-6.3h28.6v6.2c15,0.4,29.6,1.5,41.2,3.3
														l-14.4,9.8c-14-2-27.2-3-39.5-3c-14,0-18.5,1.2-18.5,2.5c0,4.8,78.5,0.8,78.5,15.7
														C2054.2,1747.7,2038.4,1753.1,2006.9,1754.7z"/>
												</g>
											</g>
										</g>
									</g>
									<g>
										<path class="st12" d="M2006.1,1752.6v6.4h-28.6v-6.1c-20.3-0.3-39.9-1.9-52.1-4l15.4-9.9c13.4,2.2,31.2,3.7,46.8,3.7
											c13.6,0,18.5-0.8,18.5-2.2c0-5.1-78.5-1-78.5-16c0-6.5,16.6-12,49.9-13.3v-6.3h28.6v6.2c15,0.4,29.6,1.5,41.2,3.3
											l-14.4,9.8c-14-2-27.2-3-39.5-3c-14,0-18.5,1.2-18.5,2.5c0,4.8,78.5,0.8,78.5,15.7
											C2053.3,1745.6,2037.5,1751,2006.1,1752.6z"/>
									</g>
								</g>
							</g>
						</g>
					</g>
					<g>
						<g>
							<path class="st6" d="M2168.3,1710.6c0,0.2,0,0.3,0,0.5c0,5.9-3.1,11.5-8.9,16.8c-1.4,1.3-3,2.6-4.7,3.8
								c-4.8,3.5-10.8,6.7-17.8,9.8c-1.5,0.7-3.1,1.3-4.7,1.9c-5.4,2.1-11.4,4.1-17.8,6c-1.5,0.4-3.1,0.9-4.7,1.3
								c-5.6,1.5-11.6,2.9-17.8,4.2c-1.5,0.3-3.1,0.6-4.7,0.9c-5.7,1.1-11.7,2.1-17.8,2.9c-1.6,0.2-3.1,0.4-4.7,0.6
								c-5.8,0.8-11.7,1.4-17.8,2c-1.6,0.1-3.1,0.3-4.7,0.4c-5.8,0.5-11.8,0.9-17.8,1.1c-1.6,0.1-3.1,0.1-4.7,0.2
								c-5.8,0.2-11.8,0.4-17.8,0.4c-1,0-2.1,0-3.1,0c-0.5,0-1,0-1.6,0c-6,0-12-0.1-17.8-0.3c-1.6-0.1-3.1-0.1-4.7-0.2
								c-4.5-0.2-8.8-0.4-13.2-0.7c-1.5-0.1-3.1-0.2-4.6-0.3c-1.6-0.1-3.1-0.3-4.7-0.4c-6.1-0.5-12-1.2-17.8-1.9
								c-1.6-0.2-3.1-0.4-4.7-0.6c-3.7-0.5-7.3-1.1-10.8-1.6c-2.4-0.4-4.7-0.8-7-1.2c-1.6-0.3-3.2-0.6-4.7-0.9
								c-6.2-1.2-12.2-2.6-17.8-4.1c-1.1-0.3-2.2-0.6-3.3-0.9c-0.5-0.1-0.9-0.3-1.4-0.4c-2.5-0.7-5-1.5-7.4-2.2
								c-3.6-1.2-7.1-2.4-10.4-3.6c-1.6-0.6-3.2-1.2-4.7-1.9c-6-2.5-11.3-5.2-15.8-8c-0.7-0.4-1.4-0.9-2-1.3
								c-0.8-0.6-1.6-1.1-2.3-1.7c-0.8-0.6-1.6-1.2-2.3-1.9c-6.8-5.7-10.5-11.8-10.5-18.2c0-0.4,0-0.9,0.1-1.3l0-36.2l10.4,0l4.7,0
								l17.8,0l4.7,0l13.9,0l3.9,0l4.7,0l17.8,0l4.7,0l17.8,0l4.7,0l17.8,0l4.7,0l17.8,0l4.7,0l17.8,0l4.7,0l17.8,0l4.7,0l17.8,0
								l4.7,0l17.8,0l4.7,0l17.8,0l4.7,0l17.8,0l4.7,0h1.2l16.6,0l4.7,0l17.8,0l4.7,0l8.8,0L2168.3,1710.6L2168.3,1710.6z"/>
							<g>
								<g>
									<g>
										<path class="st10" d="M1844.4,1673.5v59.3c-0.8-0.6-1.6-1.1-2.3-1.7c-0.8-0.6-1.6-1.2-2.3-1.9v-55.7L1844.4,1673.5z"/>
									</g>
									<g>
										<path class="st10" d="M1866.9,1673.5v70.5c-1.6-0.6-3.2-1.2-4.7-1.9v-68.6L1866.9,1673.5z"/>
									</g>
									<g>
										<path class="st10" d="M1889.4,1673.4v77.6c-1.1-0.3-2.2-0.6-3.3-0.9c-0.5-0.1-0.9-0.3-1.4-0.4v-76.4L1889.4,1673.4z"/>
									</g>
									<g>
										<path class="st10" d="M1911.9,1673.4v82.6c-1.6-0.3-3.2-0.6-4.7-0.9v-81.7L1911.9,1673.4z"/>
									</g>
									<g>
										<path class="st10" d="M1934.4,1673.4v86.2c-1.6-0.2-3.1-0.4-4.7-0.6v-85.5L1934.4,1673.4z"/>
									</g>
									<g>
										<path class="st10" d="M1956.9,1673.3v88.5c-1.6-0.1-3.1-0.3-4.7-0.4v-88.1L1956.9,1673.3z"/>
									</g>
									<g>
										<path class="st10" d="M1979.4,1673.3v89.8c-1.6-0.1-3.1-0.1-4.7-0.2v-89.6L1979.4,1673.3z"/>
									</g>
									<g>
										<path class="st10" d="M2001.9,1673.3v90.2c-1,0-2.1,0-3.1,0c-0.5,0-1,0-1.6,0v-90.1L2001.9,1673.3z"/>
									</g>
									<g>
										<path class="st10" d="M2024.4,1673.2v89.6c-1.6,0.1-3.1,0.1-4.7,0.2v-89.8L2024.4,1673.2z"/>
									</g>
									<g>
										<path class="st10" d="M2046.9,1673.2v88.1c-1.6,0.1-3.1,0.3-4.7,0.4v-88.5L2046.9,1673.2z"/>
									</g>
									<g>
										<path class="st10" d="M2069.4,1673.2v85.5c-1.6,0.2-3.1,0.4-4.7,0.6v-86.1L2069.4,1673.2z"/>
									</g>
									<g>
										<path class="st10" d="M2091.9,1673.1v81.7c-1.5,0.3-3.1,0.6-4.7,0.9v-82.6L2091.9,1673.1z"/>
									</g>
									<g>
										<path class="st10" d="M2114.4,1673.1v76.3c-1.5,0.4-3.1,0.9-4.7,1.3v-77.6L2114.4,1673.1z"/>
									</g>
									<g>
										<path class="st10" d="M2136.9,1673.1v68.4c-1.5,0.7-3.1,1.3-4.7,1.9v-70.3L2136.9,1673.1z"/>
									</g>
									<g>
										<path class="st10" d="M2159.4,1673v54.8c-1.4,1.3-3,2.6-4.7,3.8V1673L2159.4,1673z"/>
									</g>
								</g>
							</g>
						</g>
						<g>
							<g>
								<path class="st12" d="M2168.2,1673.5c0,26.6-75.9,48.1-169.5,48.1c-12.8,0-25.2-0.4-37.2-1.2c-15.1-1-29.4-2.5-42.6-4.5
									c-11.8-1.8-22.8-4-32.8-6.5c-3-0.8-6-1.6-8.8-2.4c-12.5-3.6-22.9-7.8-30.9-12.4c-1.6-0.9-3-1.8-4.4-2.7
									c-8.3-5.7-12.8-11.9-12.8-18.4c0-0.6,0-1.2,0.1-1.8c3.3-25.8,77.9-46.3,169.4-46.3c22.5,0,44,1.2,63.7,3.5
									c3.8,0.4,7.5,0.9,11.2,1.4c16,2.2,30.5,5.2,43.1,8.6c2.8,0.8,5.5,1.6,8.1,2.4c9.2,2.9,17.2,6.1,23.7,9.6
									c6.7,3.6,11.9,7.5,15.2,11.5c2.4,3,3.9,6.1,4.3,9.2C2168.2,1672.3,2168.2,1672.9,2168.2,1673.5z"/>
								<path class="st1" d="M2163.8,1662.5l-202.3,58c-15.1-1-29.4-2.5-42.6-4.5l229.7-65
									C2155.3,1654.5,2160.4,1658.4,2163.8,1662.5z"/>
								<path class="st1" d="M2073.6,1630.3l-227.1,64.3c-1.6-0.9-3-1.8-4.4-2.7l220.3-63
									C2066.2,1629.3,2069.9,1629.8,2073.6,1630.3z"/>
								<path class="st1" d="M2124.8,1641.3l-238.7,68.2c-3-0.8-6-1.6-8.8-2.4l239.4-68.1
									C2119.5,1639.7,2122.2,1640.5,2124.8,1641.3z"/>
								<path class="st10" d="M2134.2,1673.5c0,0.6-0.1,1.2-0.1,1.8c-3.3,20.4-62.7,36.7-135.3,36.7c-72.6,0-132.1-16.3-135.3-36.7
									c-0.1-0.6-0.1-1.2-0.1-1.8c0-21.2,60.8-38.5,135.5-38.5S2134.2,1652.3,2134.2,1673.5z"/>
								<path class="st6" d="M2134.1,1675.3c-3.3,20.4-62.7,36.7-135.3,36.7c-1.6,0-3.2,0-4.8,0c-16.2-0.2-31.7-1.1-46-2.8
									c-14.3-1.6-27.4-4-38.7-6.8c-2.9-0.7-5.7-1.5-8.4-2.3c-12.1-3.6-21.9-7.9-28.3-12.6c-1.6-1.1-2.9-2.3-4.1-3.5
									c-2.8-2.8-4.5-5.7-5-8.7c3.3-20.4,62.7-36.7,135.3-36.7c9.2,0,18.2,0.3,26.9,0.8c4.4,0.3,8.8,0.6,13.1,0.9
									c17.4,1.5,33.4,4,47.1,7.3c2.9,0.7,5.8,1.4,8.5,2.2c10.6,3,19.5,6.5,26.2,10.4c6.5,3.8,10.9,7.9,12.7,12.2
									C2133.6,1673.3,2133.9,1674.3,2134.1,1675.3z"/>
								<path class="st15" d="M2133.2,1672.4l-139.3,39.6c-16.2-0.2-31.7-1.1-46-2.8l172.6-49
									C2127,1663.9,2131.4,1668,2133.2,1672.4z"/>
								<path class="st15" d="M2038.7,1640.2l-166.2,47.2c-1.6-1.1-2.9-2.3-4.1-3.5l157.2-44.7
									C2030,1639.6,2034.4,1639.9,2038.7,1640.2z"/>
								<path class="st15" d="M2094.3,1649.8l-185.1,52.6c-2.9-0.7-5.7-1.5-8.4-2.3l184.9-52.5
									C2088.7,1648.2,2091.5,1649,2094.3,1649.8z"/>
								<g>
									<g>
										<g>
											<g>
												<g>
													<path class="st10" d="M2017.6,1695.3v6.4H1989v-6.1c-20.3-0.3-39.9-1.9-52.1-4l15.4-9.9c13.4,2.2,31.2,3.7,46.8,3.7
														c13.6,0,18.5-0.8,18.5-2.2c0-5.1-78.5-1-78.5-16c0-6.5,16.6-12,49.9-13.3v-6.3h28.6v6.2c15,0.4,29.6,1.5,41.2,3.3
														l-14.4,9.8c-14-2-27.2-3-39.5-3c-14,0-18.5,1.2-18.5,2.5c0,4.8,78.5,0.8,78.5,15.7
														C2064.8,1688.3,2049,1693.8,2017.6,1695.3z"/>
												</g>
											</g>
										</g>
									</g>
									<g>
										<path class="st12" d="M2016.7,1693.2v6.4h-28.6v-6.1c-20.3-0.3-39.9-1.9-52.1-4l15.4-9.9c13.4,2.2,31.2,3.7,46.8,3.7
											c13.6,0,18.5-0.8,18.5-2.2c0-5.1-78.5-1-78.5-16c0-6.5,16.6-12,49.9-13.3v-6.3h28.6v6.2c15,0.4,29.6,1.5,41.2,3.3
											l-14.4,9.8c-14-2-27.2-3-39.5-3c-14,0-18.5,1.2-18.5,2.5c0,4.8,78.5,0.8,78.5,15.7
											C2064,1686.2,2048.2,1691.6,2016.7,1693.2z"/>
									</g>
								</g>
							</g>
						</g>
					</g>
					<g>
						<g>
							<path class="st6" d="M2166.7,1651.2c0,0.2,0,0.3,0,0.5c0,5.9-3.1,11.5-8.9,16.8c-1.4,1.3-3,2.6-4.7,3.8
								c-4.8,3.5-10.8,6.7-17.8,9.8c-1.5,0.7-3.1,1.3-4.7,1.9c-5.4,2.1-11.4,4.1-17.8,6c-1.5,0.4-3.1,0.9-4.7,1.3
								c-5.6,1.5-11.6,2.9-17.8,4.2c-1.5,0.3-3.1,0.6-4.7,0.9c-5.7,1.1-11.7,2.1-17.8,2.9c-1.6,0.2-3.1,0.4-4.7,0.6
								c-5.8,0.8-11.7,1.4-17.8,2c-1.6,0.1-3.1,0.3-4.7,0.4c-5.8,0.5-11.8,0.9-17.8,1.1c-1.6,0.1-3.1,0.1-4.7,0.2
								c-5.8,0.2-11.8,0.4-17.8,0.4c-1,0-2.1,0-3.1,0c-0.5,0-1,0-1.6,0c-6,0-12-0.1-17.8-0.3c-1.6-0.1-3.1-0.1-4.7-0.2
								c-4.5-0.2-8.8-0.4-13.2-0.7c-1.5-0.1-3.1-0.2-4.6-0.3c-1.6-0.1-3.1-0.3-4.7-0.4c-6.1-0.5-12-1.2-17.8-1.9
								c-1.6-0.2-3.1-0.4-4.7-0.6c-3.7-0.5-7.3-1.1-10.8-1.6c-2.4-0.4-4.7-0.8-7-1.2c-1.6-0.3-3.2-0.6-4.7-0.9
								c-6.2-1.2-12.2-2.6-17.8-4.1c-1.1-0.3-2.2-0.6-3.3-0.9c-0.5-0.1-0.9-0.3-1.4-0.4c-2.5-0.7-5-1.5-7.4-2.2
								c-3.6-1.2-7.1-2.4-10.4-3.6c-1.6-0.6-3.2-1.2-4.7-1.9c-6-2.5-11.3-5.2-15.8-8c-0.7-0.4-1.4-0.9-2-1.3
								c-0.8-0.6-1.6-1.1-2.3-1.7c-0.8-0.6-1.6-1.2-2.3-1.9c-6.8-5.7-10.5-11.8-10.5-18.2c0-0.4,0-0.9,0.1-1.3l0-36.2l10.4,0l4.7,0
								l17.8,0l4.7,0l13.9,0l3.9,0l4.7,0l17.8,0l4.7,0l17.8,0l4.7,0l17.8,0l4.7,0l17.8,0l4.7,0l17.8,0l4.7,0l17.8,0l4.7,0l17.8,0
								l4.7,0l17.8,0l4.7,0l17.8,0l4.7,0l17.8,0l4.7,0h1.2l16.6,0l4.7,0l17.8,0l4.7,0l8.8,0L2166.7,1651.2L2166.7,1651.2z"/>
							<g>
								<g>
									<g>
										<path class="st10" d="M1842.8,1614.1v59.3c-0.8-0.6-1.6-1.1-2.3-1.7c-0.8-0.6-1.6-1.2-2.3-1.9v-55.7L1842.8,1614.1z"/>
									</g>
									<g>
										<path class="st10" d="M1865.3,1614.1v70.5c-1.6-0.6-3.2-1.2-4.7-1.9v-68.6L1865.3,1614.1z"/>
									</g>
									<g>
										<path class="st10" d="M1887.8,1614.1v77.6c-1.1-0.3-2.2-0.6-3.3-0.9c-0.5-0.1-0.9-0.3-1.4-0.4v-76.4L1887.8,1614.1z"/>
									</g>
									<g>
										<path class="st10" d="M1910.3,1614v82.6c-1.6-0.3-3.2-0.6-4.7-0.9V1614L1910.3,1614z"/>
									</g>
									<g>
										<path class="st10" d="M1932.8,1614v86.2c-1.6-0.2-3.1-0.4-4.7-0.6V1614L1932.8,1614z"/>
									</g>
									<g>
										<path class="st10" d="M1955.3,1614v88.5c-1.6-0.1-3.1-0.3-4.7-0.4V1614L1955.3,1614z"/>
									</g>
									<g>
										<path class="st10" d="M1977.8,1613.9v89.8c-1.6-0.1-3.1-0.1-4.7-0.2v-89.6L1977.8,1613.9z"/>
									</g>
									<g>
										<path class="st10" d="M2000.3,1613.9v90.2c-1,0-2.1,0-3.1,0c-0.5,0-1,0-1.6,0v-90.1L2000.3,1613.9z"/>
									</g>
									<g>
										<path class="st10" d="M2022.8,1613.9v89.6c-1.6,0.1-3.1,0.1-4.7,0.2v-89.8L2022.8,1613.9z"/>
									</g>
									<g>
										<path class="st10" d="M2045.3,1613.8v88.1c-1.6,0.1-3.1,0.3-4.7,0.4v-88.5L2045.3,1613.8z"/>
									</g>
									<g>
										<path class="st10" d="M2067.8,1613.8v85.5c-1.6,0.2-3.1,0.4-4.7,0.6v-86.1L2067.8,1613.8z"/>
									</g>
									<g>
										<path class="st10" d="M2090.3,1613.8v81.7c-1.5,0.3-3.1,0.6-4.7,0.9v-82.6L2090.3,1613.8z"/>
									</g>
									<g>
										<path class="st10" d="M2112.8,1613.7v76.3c-1.5,0.4-3.1,0.9-4.7,1.3v-77.6L2112.8,1613.7z"/>
									</g>
									<g>
										<path class="st10" d="M2135.3,1613.7v68.4c-1.5,0.7-3.1,1.3-4.7,1.9v-70.3L2135.3,1613.7z"/>
									</g>
									<g>
										<path class="st10" d="M2157.8,1613.7v54.8c-1.4,1.3-3,2.6-4.7,3.8v-58.6L2157.8,1613.7z"/>
									</g>
								</g>
							</g>
						</g>
						<g>
							<g>
								<path class="st12" d="M2166.7,1614.1c0,26.6-75.9,48.1-169.5,48.1c-12.8,0-25.2-0.4-37.2-1.2c-15.1-1-29.4-2.5-42.6-4.5
									c-11.8-1.8-22.8-4-32.8-6.5c-3-0.8-6-1.6-8.8-2.4c-12.5-3.6-22.9-7.8-30.9-12.4c-1.6-0.9-3-1.8-4.4-2.7
									c-8.3-5.7-12.8-11.9-12.8-18.4c0-0.6,0-1.2,0.1-1.8c3.3-25.8,77.9-46.3,169.4-46.3c22.5,0,44,1.2,63.7,3.5
									c3.8,0.4,7.5,0.9,11.2,1.4c16,2.2,30.5,5.2,43.1,8.6c2.8,0.8,5.5,1.6,8.1,2.4c9.2,2.9,17.2,6.1,23.7,9.6
									c6.7,3.6,11.9,7.5,15.2,11.5c2.4,3,3.9,6.1,4.3,9.2C2166.6,1612.9,2166.7,1613.5,2166.7,1614.1z"/>
								<path class="st1" d="M2162.2,1603.1l-202.3,58c-15.1-1-29.4-2.5-42.6-4.5l229.7-65C2153.7,1595.2,2158.9,1599,2162.2,1603.1
									z"/>
								<path class="st1" d="M2072,1570.9l-227.1,64.3c-1.6-0.9-3-1.8-4.4-2.7l220.3-63C2064.6,1569.9,2068.4,1570.4,2072,1570.9z"
									/>
								<path class="st1" d="M2123.2,1581.9l-238.7,68.2c-3-0.8-6-1.6-8.8-2.4l239.4-68.1
									C2117.9,1580.3,2120.6,1581.1,2123.2,1581.9z"/>
								<path class="st10" d="M2132.7,1614.1c0,0.6-0.1,1.2-0.1,1.8c-3.3,20.4-62.7,36.7-135.3,36.7c-72.6,0-132.1-16.3-135.3-36.7
									c-0.1-0.6-0.1-1.2-0.1-1.8c0-21.2,60.8-38.5,135.5-38.5C2071.9,1575.6,2132.7,1592.9,2132.7,1614.1z"/>
								<path class="st6" d="M2132.5,1615.9c-3.3,20.4-62.7,36.7-135.3,36.7c-1.6,0-3.2,0-4.8,0c-16.2-0.2-31.7-1.1-46-2.8
									c-14.3-1.6-27.4-4-38.7-6.8c-2.9-0.7-5.7-1.5-8.4-2.3c-12.1-3.6-21.9-7.9-28.3-12.6c-1.6-1.1-2.9-2.3-4.1-3.5
									c-2.8-2.8-4.5-5.7-5-8.7c3.3-20.4,62.7-36.7,135.3-36.7c9.2,0,18.2,0.3,26.9,0.8c4.4,0.3,8.8,0.6,13.1,0.9
									c17.4,1.5,33.4,4,47.1,7.3c2.9,0.7,5.8,1.4,8.5,2.2c10.6,3,19.5,6.5,26.2,10.4c6.5,3.8,10.9,7.9,12.7,12.2
									C2132.1,1613.9,2132.4,1614.9,2132.5,1615.9z"/>
								<path class="st15" d="M2131.7,1613l-139.3,39.6c-16.2-0.2-31.7-1.1-46-2.8l172.6-49
									C2125.4,1604.5,2129.8,1608.7,2131.7,1613z"/>
								<path class="st15" d="M2037.1,1580.9l-166.2,47.2c-1.6-1.1-2.9-2.3-4.1-3.5l157.2-44.7
									C2028.5,1580.2,2032.8,1580.5,2037.1,1580.9z"/>
								<path class="st15" d="M2092.7,1590.4l-185.1,52.6c-2.9-0.7-5.7-1.5-8.4-2.3l184.9-52.5
									C2087.1,1588.9,2090,1589.6,2092.7,1590.4z"/>
								<g>
									<g>
										<g>
											<g>
												<g>
													<path class="st10" d="M2016,1635.9v6.4h-28.6v-6.1c-20.3-0.3-39.9-1.9-52.1-4l15.4-9.9c13.4,2.2,31.2,3.7,46.8,3.7
														c13.6,0,18.5-0.8,18.5-2.2c0-5.1-78.5-1-78.5-16c0-6.5,16.6-12,49.9-13.3v-6.3h28.6v6.2c15,0.4,29.6,1.5,41.2,3.3
														l-14.4,9.8c-14-2-27.2-3-39.5-3c-14,0-18.5,1.2-18.5,2.5c0,4.8,78.5,0.8,78.5,15.7
														C2063.3,1629,2047.5,1634.4,2016,1635.9z"/>
												</g>
											</g>
										</g>
									</g>
									<g>
										<path class="st12" d="M2015.2,1633.8v6.4h-28.6v-6.1c-20.3-0.3-39.9-1.9-52.1-4l15.4-9.9c13.4,2.2,31.2,3.7,46.8,3.7
											c13.6,0,18.5-0.8,18.5-2.2c0-5.1-78.5-1-78.5-16c0-6.5,16.6-12,49.9-13.3v-6.3h28.6v6.2c15,0.4,29.6,1.5,41.2,3.3
											l-14.4,9.8c-14-2-27.2-3-39.5-3c-14,0-18.5,1.2-18.5,2.5c0,4.8,78.5,0.8,78.5,15.7
											C2062.4,1626.8,2046.6,1632.3,2015.2,1633.8z"/>
									</g>
								</g>
							</g>
						</g>
					</g>
					<g>
						<g>
							<path class="st6" d="M2158.3,1598.1c0,0.2,0,0.3,0,0.5c0,5.9-3.1,11.5-8.9,16.8c-1.4,1.3-3,2.6-4.7,3.8
								c-4.8,3.5-10.8,6.7-17.8,9.8c-1.5,0.7-3.1,1.3-4.7,1.9c-5.4,2.1-11.4,4.1-17.8,6c-1.5,0.4-3.1,0.9-4.7,1.3
								c-5.6,1.5-11.6,2.9-17.8,4.2c-1.5,0.3-3.1,0.6-4.7,0.9c-5.7,1.1-11.7,2.1-17.8,2.9c-1.6,0.2-3.1,0.4-4.7,0.6
								c-5.8,0.8-11.7,1.4-17.8,2c-1.6,0.1-3.1,0.3-4.7,0.4c-5.8,0.5-11.8,0.9-17.8,1.1c-1.6,0.1-3.1,0.1-4.7,0.2
								c-5.8,0.2-11.8,0.4-17.8,0.4c-1,0-2.1,0-3.1,0c-0.5,0-1,0-1.6,0c-6,0-12-0.1-17.8-0.3c-1.6-0.1-3.1-0.1-4.7-0.2
								c-4.5-0.2-8.8-0.4-13.2-0.7c-1.5-0.1-3.1-0.2-4.6-0.3c-1.6-0.1-3.1-0.3-4.7-0.4c-6.1-0.5-12-1.2-17.8-1.9
								c-1.6-0.2-3.1-0.4-4.7-0.6c-3.7-0.5-7.3-1.1-10.8-1.6c-2.4-0.4-4.7-0.8-7-1.2c-1.6-0.3-3.1-0.6-4.7-0.9
								c-6.2-1.2-12.2-2.6-17.8-4.1c-1.1-0.3-2.2-0.6-3.3-0.9c-0.5-0.1-0.9-0.3-1.4-0.4c-2.5-0.7-5-1.5-7.4-2.2
								c-3.6-1.2-7.1-2.4-10.4-3.6c-1.6-0.6-3.2-1.2-4.7-1.9c-6-2.5-11.3-5.2-15.8-8c-0.7-0.4-1.4-0.9-2-1.3
								c-0.8-0.6-1.6-1.1-2.3-1.7c-0.8-0.6-1.6-1.2-2.3-1.9c-6.8-5.7-10.5-11.8-10.5-18.2c0-0.4,0-0.9,0.1-1.3l0-36.2l10.4,0l4.7,0
								l17.8,0l4.7,0l13.9,0l3.9,0l4.7,0l17.8,0l4.7,0l17.8,0l4.7,0l17.8,0l4.7,0l17.8,0l4.7,0l17.8,0l4.7,0l17.8,0l4.7,0l17.8,0
								l4.7,0l17.8,0l4.7,0l17.8,0l4.7,0l17.8,0l4.7,0h1.2l16.6,0l4.7,0l17.8,0l4.7,0l8.8,0L2158.3,1598.1L2158.3,1598.1z"/>
							<g>
								<g>
									<g>
										<path class="st10" d="M1834.4,1561v59.3c-0.8-0.6-1.6-1.1-2.3-1.7c-0.8-0.6-1.6-1.2-2.3-1.9V1561L1834.4,1561z"/>
									</g>
									<g>
										<path class="st10" d="M1856.9,1561v70.5c-1.6-0.6-3.2-1.2-4.7-1.9V1561L1856.9,1561z"/>
									</g>
									<g>
										<path class="st10" d="M1879.4,1561v77.6c-1.1-0.3-2.2-0.6-3.3-0.9c-0.5-0.1-0.9-0.3-1.4-0.4V1561L1879.4,1561z"/>
									</g>
									<g>
										<path class="st10" d="M1901.9,1560.9v82.6c-1.6-0.3-3.1-0.6-4.7-0.9v-81.7L1901.9,1560.9z"/>
									</g>
									<g>
										<path class="st10" d="M1924.4,1560.9v86.2c-1.6-0.2-3.1-0.4-4.7-0.6v-85.5L1924.4,1560.9z"/>
									</g>
									<g>
										<path class="st10" d="M1946.9,1560.9v88.5c-1.6-0.1-3.1-0.3-4.7-0.4v-88.1L1946.9,1560.9z"/>
									</g>
									<g>
										<path class="st10" d="M1969.4,1560.8v89.8c-1.6-0.1-3.1-0.1-4.7-0.2v-89.6L1969.4,1560.8z"/>
									</g>
									<g>
										<path class="st10" d="M1991.9,1560.8v90.2c-1,0-2.1,0-3.1,0c-0.5,0-1,0-1.6,0v-90.1L1991.9,1560.8z"/>
									</g>
									<g>
										<path class="st10" d="M2014.4,1560.8v89.6c-1.6,0.1-3.1,0.1-4.7,0.2v-89.8L2014.4,1560.8z"/>
									</g>
									<g>
										<path class="st10" d="M2036.9,1560.7v88.1c-1.6,0.1-3.1,0.3-4.7,0.4v-88.5L2036.9,1560.7z"/>
									</g>
									<g>
										<path class="st10" d="M2059.4,1560.7v85.5c-1.6,0.2-3.1,0.4-4.7,0.6v-86.2L2059.4,1560.7z"/>
									</g>
									<g>
										<path class="st10" d="M2081.9,1560.7v81.7c-1.5,0.3-3.1,0.6-4.7,0.9v-82.6L2081.9,1560.7z"/>
									</g>
									<g>
										<path class="st10" d="M2104.4,1560.6v76.3c-1.5,0.4-3.1,0.9-4.7,1.3v-77.6L2104.4,1560.6z"/>
									</g>
									<g>
										<path class="st10" d="M2126.9,1560.6v68.4c-1.5,0.7-3.1,1.3-4.7,1.9v-70.3L2126.9,1560.6z"/>
									</g>
									<g>
										<path class="st10" d="M2149.4,1560.6v54.8c-1.4,1.3-3,2.6-4.7,3.8v-58.6L2149.4,1560.6z"/>
									</g>
								</g>
							</g>
						</g>
						<g>
							<g>
								<path class="st12" d="M2158.2,1561c0,26.6-75.9,48.1-169.5,48.1c-12.8,0-25.2-0.4-37.2-1.2c-15.1-1-29.4-2.5-42.6-4.5
									c-11.8-1.8-22.8-4-32.8-6.5c-3-0.8-6-1.6-8.8-2.4c-12.5-3.6-22.9-7.8-30.9-12.4c-1.6-0.9-3-1.8-4.4-2.7
									c-8.3-5.7-12.8-11.9-12.8-18.4c0-0.6,0-1.2,0.1-1.8c3.3-25.8,77.9-46.3,169.4-46.3c22.5,0,44,1.2,63.7,3.5
									c3.8,0.4,7.5,0.9,11.2,1.4c16,2.2,30.5,5.2,43.1,8.6c2.8,0.8,5.5,1.6,8.1,2.4c9.2,2.9,17.2,6.2,23.7,9.6
									c6.7,3.6,11.9,7.5,15.2,11.5c2.4,3,3.9,6.1,4.3,9.2C2158.2,1559.8,2158.2,1560.4,2158.2,1561z"/>
								<path class="st1" d="M2153.8,1550l-202.3,58c-15.1-1-29.4-2.5-42.6-4.5l229.7-65C2145.3,1542.1,2150.4,1545.9,2153.8,1550z"
									/>
								<path class="st1" d="M2063.6,1517.8l-227.1,64.3c-1.6-0.9-3-1.8-4.4-2.7l220.3-63
									C2056.2,1516.8,2059.9,1517.3,2063.6,1517.8z"/>
								<path class="st1" d="M2114.8,1528.8l-238.7,68.1c-3-0.8-6-1.6-8.8-2.4l239.4-68.1C2109.5,1527.2,2112.2,1528,2114.8,1528.8z
									"/>
								<path class="st10" d="M2124.2,1561c0,0.6-0.1,1.2-0.1,1.8c-3.3,20.4-62.7,36.7-135.3,36.7s-132.1-16.3-135.3-36.7
									c-0.1-0.6-0.1-1.2-0.1-1.8c0-21.2,60.8-38.5,135.5-38.5C2063.4,1522.5,2124.2,1539.8,2124.2,1561z"/>
								<path class="st6" d="M2124.1,1562.8c-3.3,20.4-62.7,36.7-135.3,36.7c-1.6,0-3.2,0-4.8,0c-16.2-0.2-31.7-1.1-46-2.8
									c-14.3-1.6-27.4-4-38.7-6.8c-2.9-0.7-5.7-1.5-8.4-2.3c-12.1-3.6-21.9-7.9-28.3-12.6c-1.6-1.1-2.9-2.3-4.1-3.5
									c-2.8-2.8-4.5-5.7-5-8.7c3.3-20.4,62.7-36.7,135.3-36.7c9.2,0,18.2,0.3,26.9,0.8c4.4,0.3,8.8,0.6,13.1,0.9
									c17.4,1.5,33.4,4,47.1,7.3c2.9,0.7,5.8,1.4,8.5,2.2c10.6,3,19.5,6.5,26.2,10.4c6.5,3.8,10.9,7.9,12.7,12.2
									C2123.6,1560.8,2123.9,1561.8,2124.1,1562.8z"/>
								<path class="st15" d="M2123.2,1559.9l-139.3,39.6c-16.2-0.2-31.7-1.1-46-2.8l172.6-49
									C2117,1551.4,2121.4,1555.5,2123.2,1559.9z"/>
								<path class="st15" d="M2028.7,1527.8l-166.2,47.2c-1.6-1.1-2.9-2.3-4.1-3.5l157.2-44.7
									C2020,1527.1,2024.4,1527.4,2028.7,1527.8z"/>
								<path class="st15" d="M2084.3,1537.3l-185.1,52.6c-2.9-0.7-5.7-1.5-8.4-2.3l184.9-52.5
									C2078.7,1535.8,2081.5,1536.5,2084.3,1537.3z"/>
								<g>
									<g>
										<g>
											<g>
												<g>
													<path class="st10" d="M2007.6,1582.8v6.4H1979v-6.1c-20.3-0.3-39.9-1.9-52.1-4l15.4-9.9c13.4,2.2,31.2,3.7,46.8,3.7
														c13.6,0,18.5-0.8,18.5-2.2c0-5.1-78.5-1-78.5-16c0-6.5,16.6-12,49.9-13.3v-6.3h28.6v6.2c15,0.4,29.6,1.5,41.2,3.3
														l-14.4,9.8c-14-2-27.2-3-39.5-3c-14,0-18.5,1.2-18.5,2.5c0,4.8,78.5,0.8,78.5,15.7
														C2054.8,1575.9,2039,1581.3,2007.6,1582.8z"/>
												</g>
											</g>
										</g>
									</g>
									<g>
										<path class="st12" d="M2006.8,1580.7v6.4h-28.6v-6.1c-20.3-0.3-39.9-1.9-52.1-4l15.4-9.9c13.4,2.2,31.2,3.7,46.8,3.7
											c13.6,0,18.5-0.8,18.5-2.2c0-5.1-78.5-1-78.5-16c0-6.5,16.6-12,49.9-13.3v-6.3h28.6v6.2c15,0.4,29.6,1.5,41.2,3.3
											l-14.4,9.8c-14-2-27.2-3-39.5-3c-14,0-18.5,1.2-18.5,2.5c0,4.8,78.5,0.8,78.5,15.7
											C2054,1573.7,2038.2,1579.1,2006.8,1580.7z"/>
									</g>
								</g>
							</g>
						</g>
					</g>
				</g>
			</g>
		</g>
		<g>
			<g>
				<g>
					<path class="st16" d="M700.5,950.6l7.4,22.7c-23.4,13.7-82.3,45.9-108.6,55.6c-7.8,2.9-18.7,6.4-31.1,10.3
						c-4.7,1.5-9.7,3-14.8,4.5c-4.4,1.3-8.9,2.6-13.4,4c-0.2,0.1-0.4,0.1-0.6,0.2c-6,0.7-13.6,1.5-22.2,2.4l0.1-36.1l14.2-3.9
						l8.4-2.3l11.8-3.3l25.8-7.1C596.7,985.5,680.8,960.9,700.5,950.6z"/>
					<g>
						<path class="st16" d="M733.7,936.8c0.6-0.2,8.4-3.1,10.6,0.1c2.4,3.3-0.4,6.7-0.4,6.7s5.7,3.2,5.8,6.5
							c0.1,3.3-2.6,5.6-2.6,5.6s3.6,1.8,3.5,4.9c-0.1,3.1-4.4,7.7-10.8,9.4c-5.6,1.5-8.5,0.3-9,0c-0.1,0-0.1-0.1-0.1-0.1
							s-1,0.4-2.9,1c-3.1,1-8.3,2.7-14.5,4c-9.8,2.2-22-11.3-22.9-20c0,0,3.6-11.7,7.7-18.4c4.1-6.7,7.1-8.3,12.1-7.6
							c5,0.7,9.9,2.3,11,2.1c1.1-0.2,26.6-13.4,32.4-11.7C759.7,920.9,734.8,936.1,733.7,936.8z"/>
						<g>
							<g>
								<path class="st17" d="M706.1,948.5c-0.2,0-0.4-0.1-0.7-0.2c-0.7-0.4-0.9-1.2-0.6-1.9l3.1-5.7c0.2-0.3,0.5-0.6,0.9-0.7
									c0.4-0.1,0.8,0,1.1,0.2c0.1,0,6.4,4.1,12.2,2.7c1.8-0.4,3-1.2,3.5-2.1c0.5-1.1,0.1-2.2,0.1-2.2c-0.3-0.7,0-1.5,0.7-1.8
									c0.7-0.3,1.5,0,1.8,0.7c0.1,0.2,1,2.3-0.1,4.5c-0.9,1.7-2.6,3-5.3,3.6c-5.3,1.3-10.7-1-13.1-2.3l-2.4,4.5
									C707,948.3,706.6,948.5,706.1,948.5z"/>
							</g>
							<g>
								<path class="st17" d="M731,970c-0.1,0-0.1-0.1-0.1-0.1s-1,0.4-2.9,1c-2.4-2.9-2.6-6.3-2.8-9.2c-0.1-2.5-0.3-4.7-1.6-6.3
									c-1.4-1.6-1.9-3.4-2-5.2c-0.1-1.7,0.2-3.3,0.6-4.5c0.1-0.5,0.3-0.9,0.5-1.3c0.4-1,0.8-1.6,0.8-1.7c0.4-0.7,1.3-0.9,1.9-0.5
									c0.7,0.4,0.9,1.2,0.5,1.9c0,0-0.1,0.1-0.2,0.3c-0.4,0.8-1.4,2.9-1.4,5.2c0,1.4,0.4,2.8,1.4,4.1c1.9,2.3,2.1,5.1,2.2,7.9
									C728.2,964.7,728.4,967.7,731,970z"/>
							</g>
							<g>
								<path class="st17" d="M711.7,959.7c-0.5,0-1-0.3-1.3-0.8c-0.3-0.7,0-1.5,0.7-1.8l0,0c0.1,0,8.3-4,9.2-11.9
									c0.1-0.8,0.8-1.3,1.5-1.2c0.8,0.1,1.3,0.8,1.2,1.5c-1,9.4-10.3,13.9-10.7,14.1C712.1,959.6,711.9,959.7,711.7,959.7z"/>
							</g>
						</g>
					</g>
					<path class="st4" d="M683.1,957.6C631,975.3,591.6,987,551,996.9c-72.8,17.8-111.6,7.3-111.6,7.3l27.4,50.3l4.9,8.9
						c8,2.2,17.4,2.4,26.9,1.4c27.3-2.6,55.6-14.1,55.6-14.1c74.7-29.2,123.5-52.6,143.7-66.5L683.1,957.6z"/>
					<polygon class="st18" points="681.7,954 669.2,959.8 686.4,992.8 699.3,985.4 					"/>
					<path class="st18" d="M498.5,1064.9c-9.5,0.9-18.9,0.7-26.9-1.4l-4.9-8.9c1-4.5,3.6-8.2,8.7-10.1
						C475.4,1044.4,481.8,1057.5,498.5,1064.9z"/>
				</g>
				<g>
					<path class="st16" d="M285.4,1692.8l-21.4,28.6c0,0,3.9,12.8,19.7,22.6l25.5-32.9L285.4,1692.8z"/>
					<g>
						<path class="st6" d="M280.2,1735.1c0,0,10-2.2,13.4,1.3c3.4,3.5,12,50.4,20,60.7c8,10.3-0.1,15.7-5,17.8
							c-4.9,2.1-75.7-68.6-75.7-68.6s17.5-24.2,25.9-28.9C267.3,1712.8,271.3,1730.2,280.2,1735.1z"/>
					</g>
				</g>
				<g>
					<path class="st16" d="M416.4,1741.9l3.2,35.5c0,0,11.4,6.9,29.8,3.6l-3-41.5L416.4,1741.9z"/>
					<g>
						<path class="st6" d="M442.9,1776c0,0,6.2-8.6,11.3-8.4c5.1,0.3,44.5,30.8,57.9,33.1c13.4,2.4,11,12.3,8.6,17.3
							c-2.4,5.1-106.2,2.2-106.2,2.2s-3.8-33.5-0.6-43C417.3,1767.7,432.5,1778.4,442.9,1776z"/>
					</g>
				</g>
				<g>
					<path class="st19" d="M396.5,1356.3l-21.6,178.5c0,0-19.4,26.3-37.8,59.9c-15.5,28.2-56.7,101.4-56.7,101.4l25,19L442,1573.5
						l36.4-218.9L396.5,1356.3z"/>
					<path class="st7" d="M311.5,1714.6c-2.2,5.6-6.4,9.5-11.3,12.7l-29-24.5c2.4-5.1,5.8-9.6,9.9-13.4L311.5,1714.6z"/>
				</g>
				<g>
					<path class="st7" d="M286.1,1363.7c0,0,38.5,94.6,88.5,168.4c0,0,7.5,71.8,20.2,110c5.6,16.7,16.4,96,16.4,96l37.9-1.7
						l-9.8-220.5l-40.1-159.7L286.1,1363.7z"/>
					<path class="st11" d="M452.8,1735.2c2.4,6.6,1.7,13.1,0,19.7l-43.9,1.2c-1.9-6.3-2.4-12.7-1.8-19.2L452.8,1735.2z"/>
				</g>
				<g>
					<g>
						<g>
							<g>
								<g>
									<path class="st4" d="M484.1,1351.4c0,7.8,0,13.9-0.1,18.1c-18.4,4.9-36.8,8.5-55.1,10.7c-0.5,0.1-1,0.1-1.5,0.2
										c-0.8,0.1-1.6,0.2-2.4,0.3c-0.2,0-0.4,0-0.6,0.1c-3.2,0.4-6.4,0.7-9.6,0.9c-15.8,1.3-31.6,1.6-47.4,0.9
										c-1.4-0.1-2.8-0.1-4.2-0.2c-1.2-0.1-2.5-0.1-3.7-0.2c-0.6,0-1.1-0.1-1.7-0.1c-1.1-0.1-2.1-0.2-3.2-0.2
										c-23.2-1.9-46.4-5.9-69.6-12.2c-0.1-9.1-0.2-27.8-0.3-51.8c0-1.3,0-2.7,0-4c0-26.5,0.1-59,0.4-92.5c0-2.7,0.1-5.3,0.1-8
										c0-3.1,0.1-6.2,0.1-9.3c0-0.5,0-1,0-1.6c0-0.7,0-1.4,0-2.2c0-1.5,0-2.9,0.1-4.4c0-2.1,0.1-4.2,0.1-6.3c0-1.6,0-3.2,0.1-4.8
										c0-3.2,0.1-6.4,0.1-9.5c1.1-66.5,3.4-127.5,7.6-143.1c0.4-1.4,0.8-2.5,1.2-3.1c0.5-0.7,1-1.4,1.7-2.1
										c0.8-0.9,1.7-1.8,2.8-2.8c7.1-6.6,19.5-14.2,32-21.4c1.5-0.8,2.9-1.7,4.4-2.5c0.2-0.1,34-11.5,34.2-11.7l35.4,2.5
										c4.2,2.5,37.7,13.9,41.8,16.4c1.2,0.8,2.4,1.5,3.6,2.3c9.6,6.2,17.8,12.4,21.4,17.6c5.1,7.6,8.3,75.4,10.1,149.2
										c0,1.7,0.1,3.4,0.1,5.1c0.2,7.8,0.4,15.7,0.5,23.5c0.2,7.7,0.3,15.5,0.4,23.2c0.2,12.6,0.4,24.9,0.5,36.8c0,1.4,0,2.7,0,4
										c0.1,11.6,0.3,22.7,0.3,33.1c0,1.4,0,2.7,0,4c0.1,15.6,0.2,29.4,0.2,40.5v0C484.1,1348.5,484.1,1350,484.1,1351.4z"/>
								</g>
							</g>
						</g>
					</g>
					<path class="st3" d="M419.1,1094.2l40.5-2.4c0,0,1.5,49.2-20,47.6C418,1137.9,419.1,1094.2,419.1,1094.2z"/>
					<g>
						<path class="st18" d="M320.2,1118.7c0-1.8-2.2-2.5-3.3-1.1c-14.2,18.7-22.8,39.1-27.9,55.3c-1.3,4.1-2.4,8.2-3.4,12
							c0,1.6,0,3.2-0.1,4.8c0,2.1-0.1,4.2-0.1,6.3c0,1.4,0,2.9-0.1,4.4c0,0.7,0,1.5,0,2.2c0,0.5,0,1,0,1.6
							c1.3-8.1,3.5-18.6,7.2-30.2c5-15.8,13.4-35.7,27.2-54C320.1,1119.5,320.2,1119.1,320.2,1118.7L320.2,1118.7z"/>
					</g>
					<g>
						<path class="st18" d="M327.4,1311.6C327.4,1311.6,327.4,1311.6,327.4,1311.6c38.2-0.2,70.8-17.5,91.4-32.1
							c22.3-15.7,35.8-31.7,35.9-31.8c0.7-0.8,0.6-1.9-0.2-2.6c-0.8-0.7-1.9-0.6-2.6,0.2c-0.1,0.2-13.4,15.8-35.3,31.3
							c-20.2,14.2-52,31.2-89.2,31.4c-1,0-1.8,0.8-1.8,1.8C325.6,1310.8,326.4,1311.6,327.4,1311.6z"/>
					</g>
					<g>
						<path class="st18" d="M367.2,1324.6c33.1,0,66.2-18.9,67.7-19.8c0.9-0.5,1.2-1.6,0.7-2.5c-0.5-0.9-1.6-1.2-2.5-0.7
							c-0.4,0.2-39.3,22.4-73.7,18.9c-1-0.1-1.9,0.6-2,1.6c-0.1,1,0.6,1.9,1.6,2C361.7,1324.4,364.4,1324.6,367.2,1324.6z"/>
					</g>
					<g>
						<polygon class="st9" points="421.1,1264.5 403.6,1318.2 379.4,1270.1 385.2,1060.2 385.4,1052.3 394.8,1051 396.1,1061.6 
													"/>
						<polygon class="st20" points="396.1,1061.6 391.6,1067.3 385.2,1060.2 385.4,1052.3 394.8,1051 						"/>
						<polygon class="st9" points="373.3,1041.1 390.1,1059.3 403.8,1036.9 391.8,1016.5 						"/>
					</g>
					<path class="st3" d="M364.4,986.6l-5.3,3.8c-1.5,1-2.9,2.1-4.2,3.3c-4.1,3.6-5.5,6.1-4.4,12.4c0.2,1,0.4,1.8,0.6,2.5l0,0
						l10.1,48.7l30.6-40.8C391.8,1016.5,369.6,1008.6,364.4,986.6z"/>
					<path class="st3" d="M404.8,988.6c0,0,14,13.3,9.9,29.2l-6.4,26.9l-16.5-28.2C391.8,1016.5,403.6,1009.3,404.8,988.6z"/>
				</g>
				<g>
					<g>
						<path class="st16" d="M221.6,1408.6c-0.9,9.4,10.6,4.3,7.4-14.8c-3.2-19.1,6-36.4,9.9-35.9c4,0.6-3.3,20.9,0.2,28.2
							c3.5,7.3,8.1-6.9,12.6-15.5c4.7-9,4.4-28.5,2.3-42.5c-2.1-14,23.2-98.7,23.3-123.3l3.1-10.4l11.3-38.1l17.7-59.7
							c0,0-10.6-45.2-28.4-41.3c0,0-9.4,31.5-19.5,67c-1.7,6-3.4,12.2-5.1,18.3c-7.2,25.7-14,51.2-17.1,66.2
							c-8.3,39.8-8.9,122.6-8.9,122.6s-14.6,30.4-15,43.9C214.9,1387.7,222.5,1399.2,221.6,1408.6z"/>
						<path class="st4" d="M296.5,1028.5c-0.3,0.7-1.2-1.4-1.8-0.1c-2.1,4.8-11.2,16.6-15.8,28c-0.6,1.5-1.2,3-1.8,4.5
							c-6.5,16.8-42.5,127.2-49.8,221.4l35,6.6c11.1-61.6,18.1-80.3,24.9-110.7c3.5-11.8,7.2-23.2,10.6-33.7c0,0,0,0,0-0.1
							c1.4-4.2,2.7-8.2,4-12.1c0-0.1,0-0.1,0.1-0.2c0.4-1.4,0.9-2.7,1.3-4v0c5.1-15.5,9.1-27.8,10.2-35
							C316.6,1073.8,308.2,1035.9,296.5,1028.5z"/>
						<polygon class="st18" points="225.2,1275.6 222.8,1289.9 264.3,1296.4 267.2,1282.2 						"/>
						<g>
							<path class="st19" d="M228,1298c0,0,22.9-1.7,32.7,5.2l-2,13.4c0,0-26.8-3-33.1-2.7C225.6,1314,225,1300.7,228,1298z"/>
							<path class="st7" d="M239.6,1307c0,6.2-4.1,11.1-9.3,11.1c-5.1,0-9.3-5-9.3-11.1c0-6.2,4.1-11.1,9.3-11.1
								C235.5,1295.9,239.6,1300.9,239.6,1307z"/>
							<path class="st11" d="M235.5,1306.6c0,4.5-3,8.1-6.8,8.1c-3.7,0-6.8-3.6-6.8-8.1s3-8.1,6.8-8.1
								C232.5,1298.5,235.5,1302.1,235.5,1306.6z"/>
						</g>
					</g>
				</g>
				<g>
					<path class="st7" d="M333,898.1c0,30.7,18.9,51.9,49.6,51.9c30.7,0,52.1-22.7,52.1-53.4s-18.2-54-48.9-54
						C349,842.6,333,867.4,333,898.1z"/>
					<path class="st7" d="M333,898.1c0,0,3.6-23.2,0-35.2c-3.6-12,0.2-13.3,8.1-15.5c7.9-2.2,4.9-12,12.6-13.9
						c9.3-2.3,12.6,3.5,19.6-5.2c7.1-8.7,13.6-9.2,20.4-6.2c8.5,3.7,10.9,0.4,21.8-1.2c11.1-1.6,19.2,5.7,21,13.3
						c1.9,7.6-5.7,14.2-2.5,19.6c3.1,5.4,3.5,23.1-4.9,29.4C420.8,889.7,333,898.1,333,898.1z"/>
					<g>
						<path class="st17" d="M339.9,911.3c0,0-8.5-11.4-14.9-2c-6.3,9.4,2.6,37.2,18.2,30.4L339.9,911.3z"/>
						<g>
							<path class="st21" d="M339.8,931.2c-0.6,0-1.1-0.4-1.3-1c-2.4-8.6-11.3-12-11.4-12.1c-0.7-0.3-1-1-0.8-1.7
								c0.3-0.7,1-1,1.7-0.8c0.4,0.2,10.2,4,13,13.8c0.2,0.7-0.2,1.4-0.9,1.6C340,931.2,339.9,931.2,339.8,931.2z"/>
						</g>
						<g>
							<path class="st21" d="M330.8,926.9c-0.2,0-0.5-0.1-0.7-0.2c-0.6-0.4-0.8-1.2-0.4-1.8c0.1-0.1,1.6-2.5,4.9-4
								c0.7-0.3,1.4,0,1.7,0.7c0.3,0.7,0,1.4-0.7,1.7c-2.5,1.1-3.8,3-3.8,3C331.7,926.6,331.2,926.9,330.8,926.9z"/>
						</g>
					</g>
					<g>
						<path class="st17" d="M427.8,911.3c0,0,8.5-11.4,14.9-2c6.3,9.4-2.6,37.2-18.2,30.4L427.8,911.3z"/>
						<g>
							<g>
								<g>
									<path class="st21" d="M427.9,931.2c0.6,0,1.1-0.4,1.3-1c2.4-8.6,11.3-12,11.4-12.1c0.7-0.3,1-1,0.8-1.7
										c-0.3-0.7-1-1-1.7-0.8c-0.4,0.2-10.2,4-13,13.8c-0.2,0.7,0.2,1.4,0.9,1.6C427.6,931.2,427.8,931.2,427.9,931.2z"/>
								</g>
							</g>
						</g>
						<g>
							<g>
								<path class="st21" d="M436.9,926.9c0.2,0,0.5-0.1,0.7-0.2c0.6-0.4,0.8-1.2,0.4-1.8c-0.1-0.1-1.6-2.5-4.9-4
									c-0.7-0.3-1.4,0-1.7,0.7c-0.3,0.7,0,1.4,0.7,1.7c2.5,1.1,3.8,3,3.8,3C436,926.6,436.4,926.9,436.9,926.9z"/>
							</g>
						</g>
					</g>
					<path class="st16" d="M404.8,963.3v27.6c0,0,3.7,25.9-17.3,25.7c-11.2-0.1-23.1-22.8-23.1-22.8v-28.6L404.8,963.3z"/>
					<path class="st17" d="M404.8,963.3v12.3c-7.5,8.3-20.7,10.4-40.4,7.5v-17.8L404.8,963.3z"/>
					<path class="st16" d="M433.9,892.4c-0.5,10.7-1.5,24.2-3.6,34.9c-0.5,2.7-1.1,5.2-1.7,7.5c-5.8,20.4-20.3,55.3-61.1,40.7
						c-18-6.4-26.3-26.4-30-46.8c-2.5-13.8-2.9-27.8-2.7-37.8c0.2-10.2,5.8-19.5,14.6-24.5c24-13.6,49.4-8.5,66.1-2.1
						C427.1,868.6,434.5,880,433.9,892.4z"/>
					<path class="st7" d="M368.8,913c0,2.9-1.5,5.3-3.4,5.3c-1.9,0-3.4-2.4-3.4-5.3c0-2.9,1.5-5.3,3.4-5.3
						C367.3,907.6,368.8,910,368.8,913z"/>
					<path class="st7" d="M408.2,913c0,2.9-1.5,5.3-3.4,5.3c-1.9,0-3.4-2.4-3.4-5.3c0-2.9,1.5-5.3,3.4-5.3
						C406.7,907.6,408.2,910,408.2,913z"/>
					<path class="st7" d="M414,896.5c0,0-10.7-4.2-19-0.7l0.8,4.6c0,0,12.1-1,18.2,1.4C414.7,900.1,414.7,898.3,414,896.5z"/>
					<path class="st7" d="M351.7,896.5c0,0,10.7-4.2,19-0.7l-0.8,4.6c0,0-12.1-1-18.2,1.4C351,900.1,351,898.3,351.7,896.5z"/>
					<g>
						<path class="st17" d="M385.2,936.1c-2.2,0.3-4.5-0.3-4.8-0.4c-0.7-0.2-1.1-0.9-0.9-1.6c0.2-0.7,0.9-1.1,1.6-0.9
							c1.2,0.3,4.1,0.7,5.3-0.1c0.2-0.2,0.5-0.5,0.5-1.3c-0.1-4.6-3.2-19.7-3.2-19.8c-0.1-0.7,0.3-1.4,1-1.6c0.7-0.1,1.4,0.3,1.6,1
							c0.1,0.6,3.2,15.5,3.3,20.3c0,1.8-0.8,2.9-1.5,3.4C387.1,935.7,386.2,936,385.2,936.1z"/>
					</g>
					<path class="st9" d="M367.2,944c1.1,5.4,4.6,15.3,16.6,15.3c12,0,15.4-9.1,16.6-15.3H367.2z"/>
					<g>
						<path class="st17" d="M382.9,967.4c3.4,0,6.3-1.7,6.4-1.8c0.6-0.4,0.8-1.2,0.4-1.8s-1.2-0.8-1.8-0.4c0,0-2.4,1.4-5,1.4
							c-2.4,0-4.8-1.4-4.8-1.4c-0.6-0.4-1.4-0.2-1.8,0.4c-0.4,0.6-0.2,1.4,0.4,1.8C376.8,965.7,379.7,967.4,382.9,967.4z"/>
					</g>
					<path class="st7" d="M432.6,911.6h-5.9c0.7-6-1.5-13.2-3.3-18c-4.1-10.9,4.6-15.7-2.4-21.2c-7-5.5-24.4-3.1-36.5-3.5
						c-12.2-0.4-31.8-0.2-36.5,0.9c-4.8,1.1-2.2,9-0.4,15.1c1.8,6.1-5.8,12.9-7.1,19.2c-0.4,1.8-0.3,4.5,0,7.4h-5
						c-0.6-7.7-0.7-14.9-0.6-20.7c0.2-10.2,5.8-19.5,14.6-24.5c24-13.6,49.4-8.5,66.1-2.1c11.6,4.4,19,15.8,18.4,28.2
						C433.7,898.3,433.2,905,432.6,911.6z"/>
				</g>
			</g>
		</g>
	</g>
</g>
</svg>
