<svg xmlns="http://www.w3.org/2000/svg" version="1.1" xmlns:xlink="http://www.w3.org/1999/xlink" xmlns:svgjs="http://svgjs.com/svgjs" width="512" height="512" x="0" y="0" viewBox="0 0 512 512" style="enable-background:new 0 0 512 512" xml:space="preserve" class="hovered-paths"><g><path xmlns="http://www.w3.org/2000/svg" d="m256 22c-135.308594 0-245 109.6875-245 245 0 79.039062 37.441406 149.328125 95.542969 194.125l300.871093-1.503906c56.988282-44.859375 93.585938-114.464844 93.585938-192.621094 0-135.308594-109.691406-245-245-245zm0 0" fill="#fff084" data-original="#fff084" class=""></path><path xmlns="http://www.w3.org/2000/svg" d="m361.191406 11.820312h-208.472656c-19.609375 0-35.652344 16.042969-35.652344 35.652344v421.332032c39.484375 27.234374 87.339844 43.195312 138.933594 43.195312 52.425781 0 100.996094-16.476562 140.84375-44.519531v-420.007813c0-19.609375-16.046875-35.652344-35.652344-35.652344zm0 0" fill="#6cbdff" data-original="#6cbdff"></path><path xmlns="http://www.w3.org/2000/svg" d="m165.84375 47.472656c0-14.195312 6.269531-26.945312 16.175781-35.652344h-29.300781c-19.609375 0-35.652344 16.042969-35.652344 35.652344v421.332032c15.117188 10.429687 31.464844 19.195312 48.773438 26.054687v-447.386719zm0 0" fill="#50a8ff" data-original="#50a8ff" class=""></path><path xmlns="http://www.w3.org/2000/svg" d="m117.066406 138.867188v293.8125c36.257813 34.34375 85.21875 55.414062 139.105469 55.414062 54.667969 0 104.261719-21.691406 140.671875-56.925781v-290.789063c-36.410156-35.234375-86.003906-56.925781-140.671875-56.925781-53.886719 0-102.847656 21.070313-139.105469 55.414063zm0 0" fill="#50a8ff" data-original="#50a8ff" class=""></path><path xmlns="http://www.w3.org/2000/svg" d="m165.84375 104.703125c-17.941406 8.96875-34.363281 20.511719-48.777344 34.164063v293.8125c14.414063 13.652343 30.839844 25.199218 48.777344 34.164062zm0 0" fill="#308dfc" data-original="#308dfc" class=""></path><path xmlns="http://www.w3.org/2000/svg" d="m256.167969 132.210938c-61.539063 0-114.609375 36.207031-139.101563 88.480468v130.121094c24.488282 52.269531 77.5625 88.476562 139.101563 88.476562 62.890625 0 116.9375-37.8125 140.675781-91.941406v-123.195312c-23.738281-54.128906-77.785156-91.941406-140.675781-91.941406zm0 0" fill="#308dfc" data-original="#308dfc" class=""></path><path xmlns="http://www.w3.org/2000/svg" d="m165.84375 409.886719v-248.273438c-20.84375 15.195313-37.726562 35.492188-48.777344 59.074219v130.121094c11.050782 23.585937 27.933594 43.882812 48.777344 59.078125zm0 0" fill="#1374fa" data-original="#1374fa"></path><path xmlns="http://www.w3.org/2000/svg" d="m373.234375 285.773438c0 64.65625-52.410156 117.066406-117.066406 117.066406-64.652344 0-117.066407-52.410156-117.066407-117.066406 0-64.652344 52.414063-117.066407 117.066407-117.066407 64.65625 0 117.066406 52.414063 117.066406 117.066407zm0 0" fill="#1374fa" data-original="#1374fa"></path><path xmlns="http://www.w3.org/2000/svg" d="m165.84375 360.246094v-148.945313c-16.707031 20.238281-26.738281 46.183594-26.738281 74.472657-.003907 28.289062 10.03125 54.234374 26.738281 74.472656zm0 0" fill="#0b60db" data-original="#0b60db"></path><path xmlns="http://www.w3.org/2000/svg" d="m361.1875 0h-208.46875c-26.21875 0-47.472656 21.253906-47.472656 47.472656v412.660156c7.539062 5.894532 15.429687 11.359376 23.640625 16.351563v-429.011719c0-13.160156 10.671875-23.832031 23.832031-23.832031h38.601562c1.144532 0 2.070313.925781 2.070313 2.070313 0 9.5625 7.828125 17.390624 17.390625 17.390624h91.011719c9.5625 0 17.390625-7.828124 17.390625-17.390624 0-1.144532.925781-2.070313 2.070312-2.070313h39.933594c13.164062 0 23.832031 10.667969 23.832031 23.832031v427.820313c8.21875-5.097657 16.109375-10.671875 23.640625-16.679688v-411.140625c0-26.21875-21.253906-47.472656-47.472656-47.472656zm0 0" fill="#463fa0" data-original="#463fa0" class="hovered-path"></path><path xmlns="http://www.w3.org/2000/svg" d="m164.644531 11.820312c0-5.242187 3.101563-9.75 7.558594-11.820312h-19.484375c-26.21875 0-47.472656 21.253906-47.472656 47.472656v412.660156c7.539062 5.894532 15.429687 11.359376 23.640625 16.351563v-429.011719c0-13.160156 10.671875-23.832031 23.832031-23.832031h19.484375c-4.457031-2.070313-7.558594-6.578125-7.558594-11.820313zm0 0" fill="#3c2b8e" data-original="#3c2b8e" class=""></path><path xmlns="http://www.w3.org/2000/svg" d="m275.359375 213.632812c-3.890625-2.972656-4.632813-8.535156-1.660156-12.425781l28.582031-37.390625c1.679688-2.195312 4.28125-3.480468 7.042969-3.480468h25.476562c4.894531 0 8.863281 3.96875 8.863281 8.863281 0 4.898437-3.96875 8.867187-8.863281 8.867187h-21.09375l-25.921875 33.910156c-2.980468 3.894532-8.546875 4.625-12.425781 1.65625zm0 0" fill="#ffb874" data-original="#ffb874"></path><path xmlns="http://www.w3.org/2000/svg" d="m298.101562 183.441406c-2.914062-2.226562-4.25-5.738281-3.839843-9.132812l-20.5625 26.898437c-2.972657 3.890625-2.230469 9.453125 1.65625 12.425781 3.882812 2.96875 9.449219 2.238282 12.425781-1.660156l21.183594-27.707031c-3.363282 1.839844-7.628906 1.648437-10.863282-.824219zm0 0" fill="#ff9165" data-original="#ff9165"></path><path xmlns="http://www.w3.org/2000/svg" d="m202.675781 411.726562h-25.472656c-4.898437 0-8.867187-3.964843-8.867187-8.863281 0-4.898437 3.96875-8.867187 8.867187-8.867187h21.089844l25.921875-33.90625c2.976562-3.890625 8.539062-4.636719 12.425781-1.660156 3.890625 2.972656 4.632813 8.535156 1.660156 12.425781l-28.582031 37.390625c-1.675781 2.195312-4.28125 3.480468-7.042969 3.480468zm0 0" fill="#ffb874" data-original="#ffb874"></path><path xmlns="http://www.w3.org/2000/svg" d="m236.644531 358.429688c-3.890625-2.976563-9.453125-2.230469-12.425781 1.660156l-19.777344 25.867187c3.261719-1.769531 7.398438-1.589843 10.535156.8125 3.140626 2.402344 4.402344 6.34375 3.546876 9.960938l19.78125-25.875c2.96875-3.890625 2.226562-9.453125-1.660157-12.425781zm0 0" fill="#ff9165" data-original="#ff9165"></path><path xmlns="http://www.w3.org/2000/svg" d="m352.777344 196.042969c-14.800782 0-26.84375-12.042969-26.84375-26.84375s12.042968-26.84375 26.84375-26.84375c14.800781 0 26.84375 12.042969 26.84375 26.84375s-12.042969 26.84375-26.84375 26.84375zm0-35.957031c-5.023438 0-9.113282 4.089843-9.113282 9.113281 0 5.027343 4.089844 9.113281 9.113282 9.113281 5.027344 0 9.113281-4.089844 9.113281-9.113281 0-5.027344-4.085937-9.113281-9.113281-9.113281zm0 0" fill="#ffd47c" data-original="#ffd47c" class=""></path><path xmlns="http://www.w3.org/2000/svg" d="m429.332031 336.230469h-128.363281c-4.894531 0-8.863281 3.96875-8.863281 8.867187 0 4.894532 3.96875 8.863282 8.863281 8.863282h123.746094l42.871094 61.269531c2.808593 4.011719 8.335937 4.988281 12.347656 2.183593 4.011718-2.808593 4.988281-8.335937 2.179687-12.347656l-45.515625-65.050781c-1.660156-2.371094-4.371094-3.785156-7.265625-3.785156zm0 0" fill="#ffb874" data-original="#ffb874"></path><path xmlns="http://www.w3.org/2000/svg" d="m467.175781 276.96875h-140.734375c-4.894531 0-8.863281 3.96875-8.863281 8.863281 0 4.898438 3.96875 8.867188 8.863281 8.867188h140.734375c4.898438 0 8.867188-3.96875 8.867188-8.867188 0-4.894531-3.96875-8.863281-8.867188-8.863281zm0 0" fill="#ffb874" data-original="#ffb874"></path><path xmlns="http://www.w3.org/2000/svg" d="m436.152344 201.359375-11.4375 16.34375h-123.746094c-4.894531 0-8.863281 3.96875-8.863281 8.863281 0 4.898438 3.96875 8.867188 8.863281 8.867188h128.363281c2.894531 0 5.605469-1.414063 7.261719-3.785156l14.085938-20.125c2.804687-4.011719 1.828124-9.539063-2.183594-12.347657-4.011719-2.804687-9.535156-1.828125-12.34375 2.183594zm0 0" fill="#ffb874" data-original="#ffb874"></path><path xmlns="http://www.w3.org/2000/svg" d="m348.148438 345.097656c0-4.898437 3.96875-8.867187 8.867187-8.867187h-56.046875c-4.894531 0-8.863281 3.96875-8.863281 8.867187 0 4.894532 3.96875 8.863282 8.863281 8.863282h56.046875c-4.898437 0-8.867187-3.96875-8.867187-8.863282zm0 0" fill="#ff9165" data-original="#ff9165"></path><path xmlns="http://www.w3.org/2000/svg" d="m373.625 285.832031c0-4.894531 3.96875-8.863281 8.863281-8.863281h-56.046875c-4.894531 0-8.863281 3.964844-8.863281 8.863281 0 4.898438 3.96875 8.863281 8.863281 8.863281h56.046875c-4.894531.003907-8.863281-3.964843-8.863281-8.863281zm0 0" fill="#ff9165" data-original="#ff9165"></path><path xmlns="http://www.w3.org/2000/svg" d="m348.148438 226.566406c0-4.894531 3.96875-8.863281 8.867187-8.863281h-56.046875c-4.894531 0-8.863281 3.96875-8.863281 8.863281 0 4.898438 3.96875 8.867188 8.863281 8.867188h56.046875c-4.898437 0-8.867187-3.96875-8.867187-8.867188zm0 0" fill="#ff9165" data-original="#ff9165"></path><path xmlns="http://www.w3.org/2000/svg" d="m512 424.878906c0 14.800782-12.042969 26.84375-26.84375 26.84375s-26.84375-12.042968-26.84375-26.84375c0-14.800781 12.042969-26.84375 26.84375-26.84375s26.84375 12.042969 26.84375 26.84375zm-17.730469 0c0-5.027344-4.089843-9.113281-9.113281-9.113281s-9.113281 4.085937-9.113281 9.113281c0 5.023438 4.089843 9.113282 9.113281 9.113282 5.027344 0 9.113281-4.089844 9.113281-9.113282zm0 0" fill="#ffd47c" data-original="#ffd47c" class=""></path><path xmlns="http://www.w3.org/2000/svg" d="m480.515625 191.675781c0 14.800781-12.042969 26.84375-26.84375 26.84375-14.804687 0-26.847656-12.042969-26.847656-26.84375s12.042969-26.84375 26.847656-26.84375c14.800781 0 26.84375 12.042969 26.84375 26.84375zm-17.730469 0c0-5.023437-4.089844-9.113281-9.113281-9.113281-5.027344 0-9.117187 4.089844-9.117187 9.113281 0 5.027344 4.089843 9.113281 9.117187 9.113281 5.023437 0 9.113281-4.085937 9.113281-9.113281zm0 0" fill="#ffd47c" data-original="#ffd47c" class=""></path><path xmlns="http://www.w3.org/2000/svg" d="m512 285.832031c0 14.800781-12.042969 26.84375-26.84375 26.84375s-26.84375-12.042969-26.84375-26.84375 12.042969-26.84375 26.84375-26.84375 26.84375 12.042969 26.84375 26.84375zm-17.730469 0c0-5.023437-4.089843-9.113281-9.113281-9.113281s-9.113281 4.089844-9.113281 9.113281c0 5.027344 4.089843 9.113281 9.113281 9.113281 5.027344 0 9.113281-4.085937 9.113281-9.113281zm0 0" fill="#ffd47c" data-original="#ffd47c" class=""></path><path xmlns="http://www.w3.org/2000/svg" d="m159.222656 429.707031c-14.800781 0-26.84375-12.042969-26.84375-26.84375s12.042969-26.84375 26.84375-26.84375c14.800782 0 26.84375 12.042969 26.84375 26.84375s-12.042968 26.84375-26.84375 26.84375zm0-35.957031c-5.023437 0-9.113281 4.085938-9.113281 9.113281 0 5.027344 4.089844 9.113281 9.113281 9.113281 5.027344 0 9.113282-4.089843 9.113282-9.113281 0-5.027343-4.089844-9.113281-9.113282-9.113281zm0 0" fill="#ffd47c" data-original="#ffd47c" class=""></path><path xmlns="http://www.w3.org/2000/svg" d="m211.03125 235.351562h-128.363281c-2.894531 0-5.605469-1.414062-7.261719-3.785156l-45.519531-65.050781c-2.808594-4.011719-1.832031-9.539063 2.179687-12.347656 4.011719-2.804688 9.539063-1.828125 12.347656 2.183593l42.871094 61.269532h123.746094c4.898438 0 8.867188 3.96875 8.867188 8.863281-.003907 4.898437-3.972657 8.867187-8.867188 8.867187zm0 0" fill="#ffb874" data-original="#ffb874"></path><path xmlns="http://www.w3.org/2000/svg" d="m185.558594 294.613281h-140.734375c-4.898438 0-8.867188-3.964843-8.867188-8.863281 0-4.894531 3.96875-8.863281 8.867188-8.863281h140.734375c4.894531 0 8.863281 3.96875 8.863281 8.863281 0 4.898438-3.96875 8.863281-8.863281 8.863281zm0 0" fill="#ffb874" data-original="#ffb874"></path><path xmlns="http://www.w3.org/2000/svg" d="m63.503906 372.40625c-4.011718-2.808594-4.988281-8.335938-2.183594-12.347656l14.082032-20.125c1.660156-2.371094 4.371094-3.785156 7.265625-3.785156h128.363281c4.894531 0 8.863281 3.96875 8.863281 8.867187 0 4.894531-3.96875 8.863281-8.863281 8.863281h-123.746094l-11.4375 16.347656c-2.808594 4.011719-8.332031 4.988282-12.34375 2.179688zm0 0" fill="#ffb874" data-original="#ffb874"></path><path xmlns="http://www.w3.org/2000/svg" d="m211.03125 217.621094h-45.667969c4.898438 0 8.867188 3.96875 8.867188 8.863281 0 4.898437-3.96875 8.867187-8.867188 8.867187h45.667969c4.894531 0 8.863281-3.96875 8.863281-8.867187 0-4.894531-3.96875-8.863281-8.863281-8.863281zm0 0" fill="#ff9165" data-original="#ff9165"></path><path xmlns="http://www.w3.org/2000/svg" d="m185.558594 276.886719h-45.667969c4.894531 0 8.863281 3.96875 8.863281 8.863281 0 4.898438-3.96875 8.863281-8.863281 8.863281h45.667969c4.894531 0 8.863281-3.964843 8.863281-8.863281 0-4.894531-3.96875-8.863281-8.863281-8.863281zm0 0" fill="#ff9165" data-original="#ff9165"></path><path xmlns="http://www.w3.org/2000/svg" d="m211.03125 336.148438h-45.667969c4.898438 0 8.867188 3.96875 8.867188 8.867187 0 4.894531-3.96875 8.863281-8.867188 8.863281h45.667969c4.894531 0 8.863281-3.96875 8.863281-8.863281 0-4.898437-3.96875-8.867187-8.863281-8.867187zm0 0" fill="#ff9165" data-original="#ff9165"></path><path xmlns="http://www.w3.org/2000/svg" d="m26.84375 173.550781c-14.800781 0-26.84375-12.042969-26.84375-26.847656 0-14.800781 12.042969-26.84375 26.84375-26.84375s26.84375 12.042969 26.84375 26.84375c0 14.804687-12.042969 26.847656-26.84375 26.847656zm0-35.960937c-5.023438 0-9.113281 4.089844-9.113281 9.113281 0 5.027344 4.089843 9.113281 9.113281 9.113281 5.027344 0 9.113281-4.085937 9.113281-9.113281 0-5.023437-4.089843-9.113281-9.113281-9.113281zm0 0" fill="#ffd47c" data-original="#ffd47c" class=""></path><path xmlns="http://www.w3.org/2000/svg" d="m58.328125 406.75c-14.800781 0-26.84375-12.042969-26.84375-26.84375s12.042969-26.84375 26.84375-26.84375c14.804687 0 26.84375 12.042969 26.84375 26.84375s-12.039063 26.84375-26.84375 26.84375zm0-35.960938c-5.023437 0-9.113281 4.089844-9.113281 9.117188 0 5.023438 4.089844 9.113281 9.113281 9.113281 5.027344 0 9.113281-4.089843 9.113281-9.113281 0-5.027344-4.085937-9.117188-9.113281-9.117188zm0 0" fill="#ffd47c" data-original="#ffd47c" class=""></path><path xmlns="http://www.w3.org/2000/svg" d="m26.84375 312.59375c-14.800781 0-26.84375-12.042969-26.84375-26.84375s12.042969-26.84375 26.84375-26.84375 26.84375 12.042969 26.84375 26.84375-12.042969 26.84375-26.84375 26.84375zm0-35.957031c-5.023438 0-9.113281 4.089843-9.113281 9.113281 0 5.027344 4.089843 9.113281 9.113281 9.113281 5.027344 0 9.113281-4.089843 9.113281-9.113281 0-5.027344-4.089843-9.113281-9.113281-9.113281zm0 0" fill="#ffd47c" data-original="#ffd47c" class=""></path><path xmlns="http://www.w3.org/2000/svg" d="m334.628906 287.476562c0 42.351563-34.332031 76.679688-76.679687 76.679688-42.347657 0-76.679688-34.328125-76.679688-76.679688 0-42.347656 34.332031-76.679687 76.679688-76.679687 42.347656 0 76.679687 34.332031 76.679687 76.679687zm0 0" fill="#ffd47c" data-original="#ffd47c" class=""></path><path xmlns="http://www.w3.org/2000/svg" d="m292.238281 344.828125c-18.089843-3.117187-16.9375-19.039063-16.9375-19.039063l-.910156-7.160156h-35.589844v-72.910156h-7.984375c-12.804687-6.757812-8.277344-19.566406-8.277344-19.566406v-.28125c-2.546874.027344-5.0625-.738282-7.183593-2.15625-20.550781 13.753906-34.085938 37.175781-34.085938 63.761718 0 42.351563 34.328125 76.679688 76.679688 76.679688 11.777343 0 22.929687-2.660156 32.902343-7.40625-1.617187-3.96875-1.015624-8.507812 1.394532-11.921875zm0 0" fill="#ffb874" data-original="#ffb874"></path><path xmlns="http://www.w3.org/2000/svg" d="m302.5625 364.746094c-43.558594 25.148437-99.453125 10.171875-124.601562-33.386719-25.148438-43.554687-10.171876-99.449219 33.386718-124.597656 43.558594-25.148438 99.453125-10.171875 124.601563 33.386719 25.148437 43.554687 10.167969 99.453124-33.386719 124.597656zm-80.019531-138.597656c-32.867188 18.976562-44.167969 61.152343-25.191407 94.019531 18.972657 32.863281 61.152344 44.167969 94.015626 25.191406 32.867187-18.976563 44.167968-61.152344 25.191406-94.019531-18.972656-32.863282-61.152344-44.164063-94.015625-25.191406zm0 0" fill="#fff084" data-original="#fff084" class=""></path><path xmlns="http://www.w3.org/2000/svg" d="m302.589844 364.730469c-.191406-.164063-.421875-.289063-.699219-.296875-4.199219-.144532-8.230469-2.410156-10.429687-6.367188-2.359376-4.246094-1.902344-9.441406.777343-13.238281-.292969.175781-.574219.359375-.871093.53125-32.867188 18.976563-75.042969 7.675781-94.019532-25.191406-18.976562-32.867188-7.671875-75.042969 25.191406-94.015625.1875-.109375.375-.203125.5625-.304688-4.492187.25-9.003906-1.929687-11.425781-5.96875-2.328125-3.882812-2.273437-8.507812-.296875-12.214844.164063-.3125.167969-.65625.054688-.949218-.03125.015625-.058594.03125-.089844.046875-43.554688 25.148437-58.53125 81.042969-33.386719 124.601562 25.148438 43.554688 81.042969 58.535157 124.601563 33.386719.011718-.007812.019531-.011719.03125-.019531zm0 0" fill="#ffd47c" data-original="#ffd47c" class=""></path><g xmlns="http://www.w3.org/2000/svg" fill="#ff9165"><path d="m248.550781 247.207031v-7.625c0-4.898437-3.972656-8.867187-8.867187-8.867187-4.898438 0-8.867188 3.96875-8.867188 8.867187v7.625zm0 0" fill="#ff9165" data-original="#ff9165"></path><path d="m230.816406 324.304688v7.621093c0 4.898438 3.96875 8.867188 8.867188 8.867188 4.898437 0 8.867187-3.96875 8.867187-8.867188v-7.621093zm0 0" fill="#ff9165" data-original="#ff9165"></path><path d="m266.433594 263.453125c-4.898438 0-8.867188-3.972656-8.867188-8.867187v-15.003907c0-4.898437 3.96875-8.867187 8.867188-8.867187 4.894531 0 8.867187 3.96875 8.867187 8.867187v15.003907c0 4.898437-3.972656 8.867187-8.867187 8.867187zm0 0" fill="#ff9165" data-original="#ff9165"></path><path d="m266.433594 340.792969c-4.898438 0-8.867188-3.972657-8.867188-8.867188v-15.003906c0-4.898437 3.96875-8.867187 8.867188-8.867187 4.894531 0 8.867187 3.96875 8.867187 8.867187v15.003906c0 4.898438-3.972656 8.867188-8.867187 8.867188zm0 0" fill="#ff9165" data-original="#ff9165"></path></g><path xmlns="http://www.w3.org/2000/svg" d="m292.589844 282.601562c2.160156-3.644531 3.40625-7.894531 3.40625-12.429687 0-13.484375-10.96875-24.453125-24.449219-24.453125h-43.027344c-4.898437 0-8.867187 3.972656-8.867187 8.867188 0 4.898437 3.96875 8.867187 8.867187 8.867187h43.027344c3.703125 0 6.714844 3.015625 6.714844 6.71875s-3.011719 6.71875-6.714844 6.71875h-31.632813c-4.894531 0-8.863281 3.96875-8.863281 8.867187 0 4.894532 3.96875 8.863282 8.863281 8.863282h36.984376c3.707031 0 6.71875 3.015625 6.71875 6.71875 0 3.707031-3.011719 6.71875-6.71875 6.71875h-48.378907c-4.898437 0-8.867187 3.96875-8.867187 8.867187 0 4.898438 3.96875 8.867188 8.867187 8.867188h48.378907c13.484374 0 24.453124-10.96875 24.453124-24.449219 0-7.519531-3.410156-14.253906-8.761718-18.742188zm0 0" fill="#ffa46d" data-original="#ffa46d"></path><path xmlns="http://www.w3.org/2000/svg" d="m258.503906 276.886719h-18.589844c-4.894531 0-8.863281 3.972656-8.863281 8.867187 0 4.898438 3.96875 8.867188 8.863281 8.867188h18.589844c-4.898437 0-8.867187-3.96875-8.867187-8.867188 0-4.898437 3.96875-8.867187 8.867187-8.867187zm0 0" fill="#ff9165" data-original="#ff9165"></path><path xmlns="http://www.w3.org/2000/svg" d="m228.519531 263.453125h29.429688c-4.898438 0-8.867188-3.972656-8.867188-8.867187 0-4.898438 3.96875-8.867188 8.867188-8.867188h-29.429688c-4.898437 0-8.867187 3.96875-8.867187 8.867188 0 4.898437 3.96875 8.867187 8.867187 8.867187zm0 0" fill="#ff9165" data-original="#ff9165"></path><path xmlns="http://www.w3.org/2000/svg" d="m249.082031 316.921875c0-4.894531 3.96875-8.867187 8.867188-8.867187h-29.429688c-4.898437 0-8.867187 3.972656-8.867187 8.867187 0 4.898437 3.96875 8.867187 8.867187 8.867187h29.429688c-4.898438 0-8.867188-3.96875-8.867188-8.867187zm0 0" fill="#ff9165" data-original="#ff9165"></path><path xmlns="http://www.w3.org/2000/svg" d="m230.816406 261.964844h17.734375v47.578125h-17.734375zm0 0" fill="#ff9165" data-original="#ff9165"></path></g></svg>