<svg xmlns="http://www.w3.org/2000/svg" version="1.1" xmlns:xlink="http://www.w3.org/1999/xlink" xmlns:svgjs="http://svgjs.com/svgjs" width="512" height="512" x="0" y="0" viewBox="0 0 512 512" style="enable-background:new 0 0 512 512" xml:space="preserve" class=""><g><path xmlns="http://www.w3.org/2000/svg" d="m445.546875 410.738281c29.300781-40.375 46.59375-90.035156 46.59375-143.738281 0-135.308594-109.691406-245-245-245s-245 109.691406-245 245c0 49.375 14.621094 95.328125 39.746094 133.796875zm0 0" fill="#3c2b8e" data-original="#3c2b8e"></path><path xmlns="http://www.w3.org/2000/svg" d="m73.136719 439.457031c44.394531 44.792969 105.957031 72.542969 174.003906 72.542969s129.609375-27.75 174.007813-72.542969zm0 0" fill="#6cbdff" data-original="#6cbdff"></path><path xmlns="http://www.w3.org/2000/svg" d="m293.605469 439.457031h-220.46875c44.394531 44.792969 105.957031 72.542969 174.003906 72.542969 11.378906 0 22.570313-.792969 33.539063-2.296875-35.257813-11.710937-29.902344-70.246094 12.925781-70.246094zm0 0" fill="#50a8ff" data-original="#50a8ff"></path><path xmlns="http://www.w3.org/2000/svg" d="m439.273438 437.871094v-286.835938c-30.832032 34.246094-81.152344 70.171875-156.640626 70.171875v216.667969h156.640626zm0 0" fill="#fff084" data-original="#fff084"></path><path xmlns="http://www.w3.org/2000/svg" d="m360.953125 389.089844c-43.257813 0-78.320313-35.066406-78.320313-78.320313v127.101563h156.640626v-127.101563c0 43.253907-35.066407 78.320313-78.320313 78.320313zm0 0" fill="#ffd47c" data-original="#ffd47c"></path><path xmlns="http://www.w3.org/2000/svg" d="m282.632812 221.207031s-22.90625 89.390625-156.640624 89.390625v127.277344h156.640624zm0 0" fill="#89d362" data-original="#89d362"></path><path xmlns="http://www.w3.org/2000/svg" d="m204.308594 389.089844c-43.253906 0-78.316406-35.066406-78.316406-78.320313v127.101563h156.640624v-127.101563c0 43.253907-35.066406 78.320313-78.324218 78.320313zm0 0" fill="#76c647" data-original="#76c647"></path><path xmlns="http://www.w3.org/2000/svg" d="m44.800781 405.164062c7.984375 11.671876 16.953125 22.609376 26.785157 32.707032h54.40625v-127.273438c-.003907.003906-19.976563 63.097656-81.191407 94.566406zm0 0" fill="#50a8ff" data-original="#50a8ff"></path><path xmlns="http://www.w3.org/2000/svg" d="m462.824219 437.871094c0-4.253906-3.449219-7.703125-7.707031-7.703125h-390.71875c4.785156 5.351562 9.796874 10.496093 15.027343 15.410156h375.691407c4.257812 0 7.707031-3.449219 7.707031-7.707031zm0 0" fill="#5b5bc4" data-original="#5b5bc4"></path><path xmlns="http://www.w3.org/2000/svg" d="m168.898438 437.871094c0-4.253906 3.449218-7.703125 7.707031-7.703125h-112.207031c4.785156 5.351562 9.796874 10.496093 15.027343 15.410156h97.179688c-4.257813 0-7.707031-3.449219-7.707031-7.707031zm0 0" fill="#5250b5" data-original="#5250b5"></path><path xmlns="http://www.w3.org/2000/svg" d="m125.992188 458.925781c-4.257813 0-7.707032-3.449219-7.707032-7.707031v-443.511719c0-4.257812 3.449219-7.707031 7.707032-7.707031 4.253906 0 7.703124 3.449219 7.703124 7.707031v443.511719c0 4.257812-3.449218 7.707031-7.703124 7.707031zm0 0" fill="#5250b5" data-original="#5250b5"></path><path xmlns="http://www.w3.org/2000/svg" d="m439.273438 458.925781c-4.257813 0-7.707032-3.449219-7.707032-7.707031v-443.511719c0-4.257812 3.449219-7.707031 7.707032-7.707031 4.253906 0 7.703124 3.449219 7.703124 7.707031v443.511719c0 4.257812-3.449218 7.707031-7.703124 7.707031zm0 0" fill="#5250b5" data-original="#5250b5"></path><path xmlns="http://www.w3.org/2000/svg" d="m128.324219 303.257812c-4.054688-1.289062-8.382813.953126-9.679688 5.003907-.085937.269531-8.871093 27.253906-31.753906 53.75-13.605469 15.761719-29.089844 28.015625-46.332031 36.753906 2.761718 4.320313 5.667968 8.542969 8.6875 12.675781 21.777344-11.386718 38.085937-26.265625 49.722656-39.832031 24.746094-28.863281 33.988281-57.484375 34.367188-58.6875 1.285156-4.054687-.960938-8.375-5.011719-9.664063zm0 0" fill="#1374fa" data-original="#1374fa"></path><path xmlns="http://www.w3.org/2000/svg" d="m125.992188 318.300781c-4.257813 0-7.707032-3.449219-7.707032-7.707031 0-4.253906 3.449219-7.703125 7.707032-7.703125 52.179687 0 94.503906-14.460937 122.394531-41.820313 21.019531-20.617187 26.730469-41.59375 26.785156-41.800781 1.082031-4.105469 5.285156-6.570312 9.394531-5.507812 4.109375 1.070312 6.582032 5.246093 5.527344 9.355469-.253906.996093-6.523438 24.671874-30.195312 48.242187-38.960938 38.796875-94.324219 46.941406-133.90625 46.941406zm0 0" fill="#76c647" data-original="#76c647"></path><path xmlns="http://www.w3.org/2000/svg" d="m502.699219 101.054688-9.578125-27.132813c-1.414063-4.011719-5.820313-6.121094-9.832032-4.703125l-27.132812 9.578125c-4.015625 1.417969-6.121094 5.816406-4.703125 9.832031 1.417969 4.011719 5.816406 6.113282 9.832031 4.699219l9.621094-3.394531c-3.832031 8.386718-17.011719 34.769531-41.855469 60.804687-17.425781 18.265625-37.125 32.800781-58.542969 43.203125-26.71875 12.980469-56.285156 19.558594-87.878906 19.558594-4.253906 0-7.703125 3.449219-7.703125 7.707031 0 4.257813 3.449219 7.707031 7.703125 7.707031 77.242188 0 128.550782-36.96875 157.992188-67.976562 26.007812-27.394531 39.738281-54.554688 44.175781-64.292969l3.367187 9.539063c1.417969 4.019531 5.824219 6.117187 9.832032 4.703125 4.015625-1.417969 6.121094-5.816407 4.703125-9.832031zm0 0" fill="#ffd47c" data-original="#ffd47c"></path><path xmlns="http://www.w3.org/2000/svg" d="m86.667969 297.832031h-17.523438c-2.335937 0-4.230469-1.894531-4.230469-4.234375v-23.160156c0-.65625-.789062-.984375-1.253906-.527344l-10.226562 10.019532c-2.59375 2.542968-6.753906 2.496093-9.304688 0l-10.222656-10.019532c-.46875-.457031-1.257812-.128906-1.257812.527344v23.164062c0 2.335938-1.894532 4.230469-4.230469 4.230469h-17.53125c-.617188 0-.957031.710938-.574219 1.199219 3.75 4.816406 8.472656 9.003906 14.082031 12.242188 21.351563 12.328124 48.148438 6.675781 62.859375-12.257813.375-.480469.019532-1.183594-.585937-1.183594zm0 0" fill="#5b5bc4" data-original="#5b5bc4"></path><path xmlns="http://www.w3.org/2000/svg" d="m72.539062 226.445312c-22.855468-12.761718-52.082031-4.976562-65.5625 17.460938-7.570312 12.605469-8.773437 27.203125-4.605468 40.121094.097656.308594.386718.515625.707031.515625h15.539063c.40625 0 .738281-.332031.738281-.738281v-36.683594c0-3.75 4.515625-5.648438 7.195312-3.023438l21.710938 21.277344c.285156.28125.746093.28125 1.03125 0l21.710937-21.277344c2.679688-2.625 7.195313-.726562 7.195313 3.023438v36.683594c0 .40625.332031.738281.738281.738281h15.550781c.320313 0 .609375-.207031.710938-.515625 7.007812-21.640625-1.925781-46.003906-22.660157-57.582032zm0 0" fill="#ff9165" data-original="#ff9165"></path><path xmlns="http://www.w3.org/2000/svg" d="m174.671875 209.054688c-1.652344-.789063-3.265625 1.144531-2.195313 2.628906l30.808594 42.582031v-31.574219zm0 0" fill="#9ce67a" data-original="#9ce67a"></path><path xmlns="http://www.w3.org/2000/svg" d="m231.894531 209.054688-28.609375 13.636718v31.574219l30.804688-42.582031c1.074218-1.480469-.542969-3.417969-2.195313-2.628906zm0 0" fill="#ddfad2" data-original="#ddfad2"></path><path xmlns="http://www.w3.org/2000/svg" d="m203.285156 174.066406v-37.585937l-35.59375 50.527343c-.878906 1.253907-1.011718 2.777344-.527344 4.085938zm0 0" fill="#9ce67a" data-original="#9ce67a"></path><path xmlns="http://www.w3.org/2000/svg" d="m238.875 187.007812-35.589844-50.527343v37.585937l36.117188 17.027344c.484375-1.308594.351562-2.832031-.527344-4.085938zm0 0" fill="#ddfad2" data-original="#ddfad2"></path><path xmlns="http://www.w3.org/2000/svg" d="m237.164062 193.542969c-10.558593 5.03125-24.097656 11.484375-33.878906 16.148437v-36.605468l36.34375 17.136718c-.214844 1.386719-1.078125 2.660156-2.464844 3.320313zm0 0" fill="#89d362" data-original="#89d362"></path><path xmlns="http://www.w3.org/2000/svg" d="m169.402344 193.542969c-1.386719-.660157-2.25-1.933594-2.464844-3.320313l36.347656-17.136718v36.605468c-5.386718-2.5625-24.527344-11.691406-33.882812-16.148437zm0 0" fill="#76c647" data-original="#76c647"></path><path xmlns="http://www.w3.org/2000/svg" d="m125.992188 294.363281c-9.75 0-17.683594 7.933594-17.683594 17.683594s7.933594 17.683594 17.683594 17.683594 17.679687-7.933594 17.679687-17.683594-7.929687-17.683594-17.679687-17.683594zm0 0" fill="#76c647" data-original="#76c647"></path><path xmlns="http://www.w3.org/2000/svg" d="m132.046875 317.617188c-6.410156 0-11.628906-5.214844-11.628906-11.628907 0-5.476562 3.820312-10.074219 8.929687-11.296875-1.085937-.210937-2.207031-.328125-3.355468-.328125-9.75 0-17.683594 7.933594-17.683594 17.683594s7.933594 17.679687 17.683594 17.679687 17.683593-7.929687 17.683593-17.679687c0-1.148437-.121093-2.269531-.332031-3.359375-1.222656 5.113281-5.816406 8.929688-11.296875 8.929688zm0 0" fill="#67b734" data-original="#67b734"></path><path xmlns="http://www.w3.org/2000/svg" d="m36.21875 244.242188c0-10.863282 6.804688-20.128907 16.382812-23.785157-17.867187-1.34375-35.867187 7.210938-45.625 23.449219-7.570312 12.605469-8.773437 27.203125-4.605468 40.121094.097656.308594.386718.511718.707031.511718h15.539063c.40625 0 .738281-.328124.738281-.734374v-36.683594c0-3.75 4.515625-5.648438 7.195312-3.023438l13.015625 12.753906c-2.128906-3.71875-3.347656-8.019531-3.347656-12.609374zm0 0" fill="#f97e5d" data-original="#f97e5d"></path><path xmlns="http://www.w3.org/2000/svg" d="m44.800781 296.539062c0-5.972656 2.492188-11.359374 6.480469-15.203124-2.390625.960937-5.230469.476562-7.152344-1.40625l-10.222656-10.019532c-.46875-.457031-1.257812-.128906-1.257812.527344v23.160156c0 2.339844-1.894532 4.234375-4.230469 4.234375h-17.53125c-.617188 0-.957031.710938-.574219 1.199219 3.75 4.816406 8.472656 9.003906 14.082031 12.242188 11.019531 6.363281 23.484375 7.921874 34.992188 5.355468-8.460938-2.757812-14.585938-10.703125-14.585938-20.089844zm0 0" fill="#5250b5" data-original="#5250b5"></path><g xmlns="http://www.w3.org/2000/svg" fill="#ffb874"><path d="m349.601562 84.035156v-7.046875c0-4.523437-3.667968-8.191406-8.195312-8.191406-4.523438 0-8.191406 3.667969-8.191406 8.191406v7.046875zm0 0" fill="#ffb874" data-original="#ffb874"></path><path d="m333.214844 155.277344v7.042968c0 4.527344 3.667968 8.195313 8.191406 8.195313 4.527344 0 8.195312-3.667969 8.195312-8.195313v-7.042968zm0 0" fill="#ffb874" data-original="#ffb874"></path><path d="m366.125 99.046875c-4.523438 0-8.191406-3.667969-8.191406-8.195313v-13.863281c0-4.523437 3.667968-8.191406 8.191406-8.191406 4.527344 0 8.195312 3.667969 8.195312 8.191406v13.863281c0 4.527344-3.667968 8.195313-8.195312 8.195313zm0 0" fill="#ffb874" data-original="#ffb874"></path><path d="m366.125 170.515625c-4.523438 0-8.191406-3.667969-8.191406-8.195313v-13.863281c0-4.523437 3.667968-8.191406 8.191406-8.191406 4.527344 0 8.195312 3.667969 8.195312 8.191406v13.863281c0 4.527344-3.667968 8.195313-8.195312 8.195313zm0 0" fill="#ffb874" data-original="#ffb874"></path></g><path xmlns="http://www.w3.org/2000/svg" d="m390.296875 116.742188c1.996094-3.367188 3.148437-7.296876 3.148437-11.488282 0-12.457031-10.136718-22.59375-22.59375-22.59375h-39.761718c-4.523438 0-8.195313 3.667969-8.195313 8.191406 0 4.527344 3.671875 8.195313 8.195313 8.195313h39.761718c3.421876 0 6.207032 2.785156 6.207032 6.207031s-2.785156 6.207032-6.207032 6.207032h-29.230468c-4.523438 0-8.191406 3.667968-8.191406 8.195312s3.667968 8.195312 8.191406 8.195312h34.175781c3.425781 0 6.210937 2.785157 6.210937 6.207032s-2.785156 6.207031-6.210937 6.207031h-44.707031c-4.523438 0-8.195313 3.667969-8.195313 8.195313 0 4.523437 3.671875 8.191406 8.195313 8.191406h44.707031c12.460937 0 22.597656-10.136719 22.597656-22.59375 0-6.945313-3.152343-13.167969-8.097656-17.316406zm0 0" fill="#ffd47c" data-original="#ffd47c"></path><path xmlns="http://www.w3.org/2000/svg" d="m358.796875 111.460938h-17.175781c-4.523438 0-8.191406 3.667968-8.191406 8.195312s3.667968 8.195312 8.191406 8.195312h17.175781c-4.523437 0-8.195313-3.667968-8.195313-8.195312s3.671876-8.195312 8.195313-8.195312zm0 0" fill="#ffb874" data-original="#ffb874"></path><path xmlns="http://www.w3.org/2000/svg" d="m331.089844 99.046875h27.195312c-4.523437 0-8.191406-3.667969-8.191406-8.195313 0-4.523437 3.667969-8.191406 8.191406-8.191406h-27.195312c-4.523438 0-8.195313 3.667969-8.195313 8.191406 0 4.527344 3.671875 8.195313 8.195313 8.195313zm0 0" fill="#ffb874" data-original="#ffb874"></path><path xmlns="http://www.w3.org/2000/svg" d="m350.09375 148.457031c0-4.523437 3.667969-8.191406 8.191406-8.191406h-27.195312c-4.523438 0-8.195313 3.667969-8.195313 8.191406 0 4.527344 3.671875 8.195313 8.195313 8.195313h27.195312c-4.523437 0-8.191406-3.667969-8.191406-8.195313zm0 0" fill="#ffb874" data-original="#ffb874"></path><path xmlns="http://www.w3.org/2000/svg" d="m333.214844 97.671875h16.386718v43.96875h-16.386718zm0 0" fill="#ffb874" data-original="#ffb874"></path><path xmlns="http://www.w3.org/2000/svg" d="m282.632812 458.925781c-4.257812 0-7.707031-3.449219-7.707031-7.707031v-443.511719c0-4.257812 3.449219-7.707031 7.707031-7.707031 4.253907 0 7.703126 3.449219 7.703126 7.707031v443.511719c0 4.257812-3.449219 7.707031-7.703126 7.707031zm0 0" fill="#5250b5" data-original="#5250b5"></path><path xmlns="http://www.w3.org/2000/svg" d="m282.632812 207.160156c-9.75 0-17.683593 7.933594-17.683593 17.683594s7.933593 17.683594 17.683593 17.683594 17.679688-7.933594 17.679688-17.683594-7.929688-17.683594-17.679688-17.683594zm0 0" fill="#ffb874" data-original="#ffb874"></path><path xmlns="http://www.w3.org/2000/svg" d="m288.6875 230.414062c-6.414062 0-11.628906-5.214843-11.628906-11.625 0-5.480468 3.816406-10.078124 8.929687-11.300781-1.089843-.207031-2.210937-.328125-3.359375-.328125-9.75 0-17.679687 7.933594-17.679687 17.683594s7.929687 17.683594 17.679687 17.683594 17.683594-7.933594 17.683594-17.683594c0-1.148438-.117188-2.269531-.328125-3.359375-1.222656 5.113281-5.816406 8.929687-11.296875 8.929687zm0 0" fill="#ff9165" data-original="#ff9165"></path></g></svg>