<?xml version="1.0" encoding="utf-8"?>
<!-- Generator: Adobe Illustrator 23.0.5, SVG Export Plug-In . SVG Version: 6.00 Build 0)  -->
<svg version="1.1" id="Layer_1" xmlns:svgjs="http://svgjs.com/svgjs"
	 xmlns="http://www.w3.org/2000/svg" xmlns:xlink="http://www.w3.org/1999/xlink" x="0px" y="0px" viewBox="0 0 512 512"
	 style="enable-background:new 0 0 512 512;" xml:space="preserve">
<style type="text/css">
	.st0{fill:#FEE158;}
	.st1{fill:#FFB528;}
	.st2{fill:#FE8C01;}
	.st3{fill:#FFFFFF;}
	.st4{fill:#FDFEFF;}
	.st5{fill:#FAFCFF;}
</style>
<g>
	<g>
		<path class="st0" d="M512,256c0,5.4-0.2,10.7-0.5,16c-3.5,57.6-26.1,111.6-64.7,154.6c-3.2,3.5-6.4,7-9.8,10.4
			c-3.7,3.7-7.5,7.3-11.5,10.8c-43.1,38.2-97,60.5-154.6,63.8c-5,0.3-10,0.4-15,0.4s-10-0.1-15-0.4c-57.5-3.3-111.5-25.5-154.6-63.8
			c-3.9-3.5-7.7-7-11.4-10.8c-3.4-3.4-6.7-6.9-9.8-10.4C26.6,383.6,4,329.6,0.5,272C0.2,266.7,0,261.4,0,256c0-4.7,0.1-9.4,0.4-14
			c3.1-57.9,25.4-112.2,63.8-155.6c3.4-3.9,7.1-7.7,10.8-11.4c3.4-3.4,6.8-6.7,10.4-9.8C128.6,26.4,183,3.8,241,0.4
			c5-0.3,10-0.4,15-0.4c5,0,10,0.1,15,0.4c58,3.3,112.4,25.9,155.6,64.7c3.5,3.2,7,6.4,10.4,9.8c3.7,3.7,7.3,7.5,10.8,11.4
			c38.4,43.4,60.7,97.7,63.8,155.6C511.9,246.6,512,251.3,512,256z"/>
		<path class="st1" d="M512,256c0,5.4-0.2,10.7-0.5,16c-3.5,57.6-26.1,111.6-64.7,154.6c-3.2,3.5-6.4,7-9.8,10.4
			c-3.7,3.7-7.5,7.3-11.5,10.8c-43.1,38.2-97,60.5-154.6,63.8c-5,0.3-10,0.4-15,0.4V0c5,0,10,0.1,15,0.4
			c58,3.3,112.4,25.9,155.6,64.7c3.5,3.2,7,6.4,10.4,9.8c3.7,3.7,7.3,7.5,10.8,11.4c38.4,43.3,60.7,97.7,63.8,155.6
			C511.9,246.6,512,251.3,512,256z"/>
		<path class="st1" d="M512,256c0,5.4-0.2,10.7-0.5,16h-54.8c-3.5,44.1-21.3,84.3-48.6,115.8l38.8,38.8c-3.2,3.5-6.4,7-9.8,10.4
			c-3.7,3.7-7.5,7.3-11.5,10.8L386.8,409C355.1,436,315,453.5,271,456.8v54.8c-5,0.3-10,0.4-15,0.4s-10-0.1-15-0.4v-54.8
			c-44-3.3-84.1-20.7-115.8-47.8l-38.8,38.8c-3.9-3.5-7.7-7-11.4-10.8c-3.4-3.4-6.7-6.9-9.8-10.4l38.8-38.8
			C76.5,356.3,58.8,316.1,55.3,272H0.5C0.2,266.7,0,261.4,0,256c0-4.7,0.1-9.4,0.4-14h54.8c3.1-44.4,20.6-84.9,47.9-116.8L64.2,86.4
			c3.4-3.9,7.1-7.7,10.8-11.4c3.4-3.4,6.8-6.7,10.4-9.8l38.8,38.8C156,76.3,196.5,58.5,241,55.2V0.4c5-0.3,10-0.4,15-0.4
			c5,0,10,0.1,15,0.4v54.8c44.5,3.3,85,21.1,116.8,48.7l38.8-38.8c3.5,3.2,7,6.4,10.4,9.8c3.7,3.7,7.3,7.5,10.8,11.4L409,125.2
			c27.3,31.9,44.8,72.4,47.9,116.8h54.8C511.9,246.6,512,251.3,512,256z"/>
		<path class="st2" d="M512,256c0,5.4-0.2,10.7-0.5,16h-54.8c-3.5,44.1-21.3,84.3-48.6,115.8l38.8,38.8c-3.2,3.5-6.4,7-9.8,10.4
			c-3.7,3.7-7.5,7.3-11.5,10.8L386.8,409C355.1,436,315,453.5,271,456.8v54.8c-5,0.3-10,0.4-15,0.4V0c5,0,10,0.1,15,0.4v54.8
			c44.5,3.3,85,21.1,116.8,48.7l38.8-38.8c3.5,3.2,7,6.4,10.4,9.8c3.7,3.7,7.3,7.5,10.8,11.4L409,125.2
			c27.3,31.9,44.8,72.4,47.9,116.8h54.8C511.9,246.6,512,251.3,512,256z"/>
		<path class="st3" d="M333.7,319.9c-35.1,0-63.6-28.5-63.6-63.6s28.5-63.6,63.6-63.6s63.6,28.5,63.6,63.6S368.8,319.9,333.7,319.9z
			 M333.7,222.6c-18.5,0-33.6,15.1-33.6,33.6s15.1,33.6,33.6,33.6s33.6-15.1,33.6-33.6S352.2,222.6,333.7,222.6z"/>
		<path class="st4" d="M256,292.2l11.3,16.5c-3.6,2.5-7.4,4.5-11.3,6.2c-7.8,3.3-16.1,5-24.7,5c-35.1,0-63.6-28.5-63.6-63.6
			c0-35.1,28.6-63.6,63.6-63.6c8.6,0,16.9,1.7,24.7,5c4,1.7,7.7,3.7,11.3,6.2L256,220.2l-5.7,8.3c-5.6-3.9-12.2-5.9-19-5.9
			c-18.6,0-33.6,15.1-33.6,33.6c0,18.5,15.1,33.6,33.6,33.6c6.8,0,13.4-2,19-5.9L256,292.2z"/>
		<path class="st3" d="M123,197.8h30v116.4h-30L123,197.8z"/>
		<g>
			<path class="st5" d="M256,292.2l11.3,16.5c-3.6,2.5-7.4,4.5-11.3,6.2V292.2z"/>
			<path class="st3" d="M267.3,203.8L256,220.3v-22.7C260,199.2,263.7,201.3,267.3,203.8z"/>
		</g>
	</g>
</g>
</svg>
