<svg xmlns="http://www.w3.org/2000/svg" version="1.1" xmlns:xlink="http://www.w3.org/1999/xlink" xmlns:svgjs="http://svgjs.com/svgjs" width="512" height="512" x="0" y="0" viewBox="0 0 60 60" style="enable-background:new 0 0 512 512" xml:space="preserve" class=""><g><circle xmlns="http://www.w3.org/2000/svg" cx="30" cy="30" fill="#f29c1f" r="29" data-original="#f29c1f"></circle><circle xmlns="http://www.w3.org/2000/svg" cx="30" cy="30" fill="#f0c419" r="25" data-original="#f0c419"></circle><path xmlns="http://www.w3.org/2000/svg" d="m42.9 29.96a.962.962 0 0 1 -.39.46l-11.97 7.43a1.023 1.023 0 0 1 -.54.15v-13z" fill="#285680" data-original="#285680"></path><path xmlns="http://www.w3.org/2000/svg" d="m30 25v13a1.023 1.023 0 0 1 -.54-.15l-11.97-7.43a.962.962 0 0 1 -.39-.46z" fill="#2980ba" data-original="#2980ba"></path><path xmlns="http://www.w3.org/2000/svg" d="m30 9v16l-12.9 4.96a.991.991 0 0 1 .05-.97l11.97-19.5a1.015 1.015 0 0 1 .88-.49z" fill="#67b9cc" data-original="#67b9cc"></path><path xmlns="http://www.w3.org/2000/svg" d="m42.9 29.96-12.9-4.96v-16a1.015 1.015 0 0 1 .88.49l11.97 19.5a.991.991 0 0 1 .05.97z" fill="#3b97d3" data-original="#3b97d3"></path><path xmlns="http://www.w3.org/2000/svg" d="m40.25 38.09-9.12 12.34a1.4 1.4 0 0 1 -1.13.57v-9.01a5.057 5.057 0 0 0 2.65-.75l6.68-4.14a.689.689 0 0 1 .92.99z" fill="#2980ba" data-original="#2980ba"></path><path xmlns="http://www.w3.org/2000/svg" d="m30 41.99v9.01a1.4 1.4 0 0 1 -1.13-.57l-9.12-12.34a.689.689 0 0 1 .92-.99l6.68 4.14a5.057 5.057 0 0 0 2.65.75z" fill="#3b97d3" data-original="#3b97d3"></path></g></svg>