<svg xmlns="http://www.w3.org/2000/svg" version="1.1" xmlns:xlink="http://www.w3.org/1999/xlink" xmlns:svgjs="http://svgjs.com/svgjs" width="512" height="512" x="0" y="0" viewBox="0 0 256 256" style="enable-background:new 0 0 512 512" xml:space="preserve" class=""><g><g xmlns="http://www.w3.org/2000/svg"><g><g><ellipse cx="128" cy="128" fill="#382b73" rx="119.4" ry="119.4" transform="matrix(.707 -.707 .707 .707 -53.019 128)" data-original="#382b73"></ellipse></g></g><g><g><path d="m105.095 117.184c1.381 0 2.5-1.119 2.5-2.5s-1.119-2.5-2.5-2.5c-27.865 0-50.535 22.67-50.535 50.535 0 9.685 2.731 19.046 7.911 27.157l-6.736 18.88c-.325.91-.096 1.925.587 2.608s1.698.913 2.608.587l18.837-6.721c8.152 5.253 17.573 8.024 27.328 8.024 27.865 0 50.535-22.67 50.535-50.535 0-4.796-.671-9.542-1.996-14.107-.384-1.326-1.768-2.088-3.098-1.704-1.326.385-2.089 1.771-1.704 3.098 1.193 4.112 1.798 8.39 1.798 12.714 0 25.108-20.427 45.535-45.535 45.535-9.177 0-18.023-2.72-25.584-7.866-.661-.448-1.494-.556-2.247-.288l-15.047 5.369 5.382-15.084c.267-.749.163-1.58-.282-2.238-5.074-7.522-7.756-16.315-7.756-25.427-.001-25.111 20.426-45.537 45.534-45.537z" fill="#291b4a" data-original="#291b4a"></path></g><g><path d="m157.99 42.881c-27.865 0-50.535 22.67-50.535 50.535s22.67 50.535 50.535 50.535c9.754 0 19.175-2.771 27.328-8.024l18.837 6.721c.91.326 1.926.096 2.608-.587.683-.683.912-1.698.587-2.608l-6.736-18.879c5.18-8.111 7.911-17.472 7.911-27.157 0-27.866-22.67-50.536-50.535-50.536zm37.497 78.201 5.382 15.084-15.047-5.369c-.753-.269-1.587-.162-2.247.288-7.561 5.146-16.408 7.866-25.584 7.866-25.108 0-45.535-20.427-45.535-45.535s20.427-45.535 45.535-45.535 45.535 20.427 45.535 45.535c0 9.112-2.682 17.905-7.756 25.428-.446.658-.55 1.489-.283 2.238z" fill="#291b4a" data-original="#291b4a"></path></g><g><path d="m180.535 79.579c1.381 0 2.5-1.119 2.5-2.5s-1.119-2.5-2.5-2.5h-27.926c-1.381 0-2.5 1.119-2.5 2.5s1.119 2.5 2.5 2.5z" fill="#291b4a" data-original="#291b4a"></path></g><g><path d="m180.535 96.16c1.381 0 2.5-1.119 2.5-2.5s-1.119-2.5-2.5-2.5h-45.089c-1.381 0-2.5 1.119-2.5 2.5s1.119 2.5 2.5 2.5z" fill="#291b4a" data-original="#291b4a"></path></g><g><path d="m180.535 112.741c1.381 0 2.5-1.119 2.5-2.5s-1.119-2.5-2.5-2.5h-45.089c-1.381 0-2.5 1.119-2.5 2.5s1.119 2.5 2.5 2.5z" fill="#291b4a" data-original="#291b4a"></path></g><g><path d="m198.56 93.416c0-22.37-18.199-40.569-40.569-40.569s-40.57 18.199-40.57 40.569 18.2 40.57 40.57 40.57 40.569-18.2 40.569-40.57zm-76.14 0c0-19.613 15.957-35.569 35.57-35.569s35.569 15.957 35.569 35.569c0 19.613-15.957 35.57-35.569 35.57-19.613 0-35.57-15.957-35.57-35.57z" fill="#291b4a" data-original="#291b4a"></path></g><g><path d="m105.095 127.149c1.381 0 2.5-1.119 2.5-2.5s-1.119-2.5-2.5-2.5c-22.37 0-40.569 18.2-40.569 40.57s18.199 40.569 40.569 40.569 40.57-18.199 40.57-40.569c0-4.861-.852-9.616-2.531-14.134-.481-1.294-1.919-1.955-3.214-1.472-1.294.481-1.953 1.92-1.472 3.214 1.471 3.958 2.217 8.127 2.217 12.392 0 19.613-15.957 35.569-35.57 35.569s-35.569-15.957-35.569-35.569c-.001-19.614 15.956-35.57 35.569-35.57z" fill="#291b4a" data-original="#291b4a"></path></g><g><path d="m105.095 164.986c-1.381 0-2.5 1.119-2.5 2.5v9.277c0 1.381 1.119 2.5 2.5 2.5s2.5-1.119 2.5-2.5v-6.973c7.608-1.203 13.443-7.807 13.443-15.748 0-8.791-7.152-15.943-15.943-15.943s-15.943 7.152-15.943 15.943c0 1.381 1.119 2.5 2.5 2.5s2.5-1.119 2.5-2.5c0-6.034 4.909-10.943 10.943-10.943s10.943 4.909 10.943 10.943c0 6.035-4.909 10.944-10.943 10.944z" fill="#291b4a" data-original="#291b4a"></path></g><g><path d="m107.595 186.75v-1.336c0-1.381-1.119-2.5-2.5-2.5s-2.5 1.119-2.5 2.5v1.336c0 1.381 1.119 2.5 2.5 2.5s2.5-1.12 2.5-2.5z" fill="#291b4a" data-original="#291b4a"></path></g></g><g><g><g><g><g><g><path d="m105.095 113.184c1.381 0 2.5-1.119 2.5-2.5s-1.119-2.5-2.5-2.5c-27.865 0-50.535 22.67-50.535 50.535 0 9.685 2.731 19.046 7.911 27.157l-6.736 18.88c-.325.91-.096 1.925.587 2.608s1.698.913 2.608.587l18.837-6.721c8.152 5.253 17.573 8.024 27.328 8.024 27.865 0 50.535-22.67 50.535-50.535 0-4.796-.671-9.542-1.996-14.107-.384-1.326-1.768-2.087-3.098-1.704-1.326.385-2.089 1.771-1.704 3.098 1.193 4.112 1.798 8.39 1.798 12.714 0 25.108-20.427 45.535-45.535 45.535-9.177 0-18.023-2.72-25.584-7.866-.661-.448-1.494-.556-2.247-.288l-15.047 5.369 5.382-15.084c.267-.749.163-1.58-.282-2.238-5.074-7.522-7.756-16.315-7.756-25.427-.001-25.111 20.426-45.537 45.534-45.537z" fill="#65c1d6" data-original="#65c1d6"></path></g></g></g></g><g><g><g><g><g><g><path d="m157.99 38.881c-27.865 0-50.535 22.67-50.535 50.535s22.67 50.535 50.535 50.535c9.754 0 19.175-2.771 27.328-8.024l18.837 6.721c.91.326 1.926.096 2.608-.587.683-.683.912-1.698.587-2.608l-6.736-18.879c5.18-8.111 7.911-17.472 7.911-27.157 0-27.866-22.67-50.536-50.535-50.536zm37.497 78.201 5.382 15.084-15.047-5.369c-.753-.269-1.587-.162-2.247.288-7.561 5.146-16.408 7.866-25.584 7.866-25.108 0-45.535-20.427-45.535-45.535s20.427-45.535 45.535-45.535 45.535 20.427 45.535 45.535c0 9.112-2.682 17.905-7.756 25.428-.446.658-.55 1.489-.283 2.238z" fill="#65c1d6" data-original="#65c1d6"></path></g></g></g></g><g><g><path d="m180.535 75.579c1.381 0 2.5-1.119 2.5-2.5s-1.119-2.5-2.5-2.5h-27.926c-1.381 0-2.5 1.119-2.5 2.5s1.119 2.5 2.5 2.5z" fill="#f9b087" data-original="#f9b087"></path></g><g><path d="m180.535 92.16c1.381 0 2.5-1.119 2.5-2.5s-1.119-2.5-2.5-2.5h-45.089c-1.381 0-2.5 1.119-2.5 2.5s1.119 2.5 2.5 2.5z" fill="#f9b087" data-original="#f9b087"></path></g><g><path d="m180.535 108.741c1.381 0 2.5-1.119 2.5-2.5s-1.119-2.5-2.5-2.5h-45.089c-1.381 0-2.5 1.119-2.5 2.5s1.119 2.5 2.5 2.5z" fill="#f9b087" data-original="#f9b087"></path></g></g></g></g><g><path d="m198.56 89.416c0-22.37-18.199-40.569-40.569-40.569s-40.57 18.199-40.57 40.569 18.2 40.57 40.57 40.57 40.569-18.2 40.569-40.57zm-76.14 0c0-19.613 15.957-35.569 35.57-35.569s35.569 15.957 35.569 35.569c0 19.613-15.957 35.57-35.569 35.57-19.613 0-35.57-15.957-35.57-35.57z" fill="#d3d3d3" data-original="#d3d3d3"></path></g><g><path d="m105.095 123.149c1.381 0 2.5-1.119 2.5-2.5s-1.119-2.5-2.5-2.5c-22.37 0-40.569 18.2-40.569 40.57s18.199 40.569 40.569 40.569 40.57-18.199 40.57-40.569c0-4.861-.852-9.616-2.531-14.134-.481-1.294-1.919-1.956-3.214-1.472-1.294.481-1.953 1.92-1.472 3.214 1.471 3.958 2.217 8.127 2.217 12.392 0 19.613-15.957 35.569-35.57 35.569s-35.569-15.957-35.569-35.569c-.001-19.614 15.956-35.57 35.569-35.57z" fill="#d3d3d3" data-original="#d3d3d3"></path></g><g><g><path d="m105.095 160.986c-1.381 0-2.5 1.119-2.5 2.5v9.277c0 1.381 1.119 2.5 2.5 2.5s2.5-1.119 2.5-2.5v-6.973c7.608-1.203 13.443-7.807 13.443-15.748 0-8.791-7.152-15.943-15.943-15.943s-15.943 7.152-15.943 15.943c0 1.381 1.119 2.5 2.5 2.5s2.5-1.119 2.5-2.5c0-6.034 4.909-10.943 10.943-10.943s10.943 4.909 10.943 10.943c0 6.035-4.909 10.944-10.943 10.944z" fill="#f9b087" data-original="#f9b087"></path></g><g><path d="m107.595 182.75v-1.336c0-1.381-1.119-2.5-2.5-2.5s-2.5 1.119-2.5 2.5v1.336c0 1.381 1.119 2.5 2.5 2.5s2.5-1.12 2.5-2.5z" fill="#f9b087" data-original="#f9b087"></path></g></g></g><g><g><path d="m105.095 113.184c1.381 0 2.5-1.119 2.5-2.5s-1.119-2.5-2.5-2.5c-27.865 0-50.535 22.67-50.535 50.535 0 9.685 2.731 19.046 7.911 27.157l-6.736 18.88c-.325.91-.096 1.925.587 2.608.477.477 1.116.733 1.768.733.282 0 .565-.048.84-.146l18.837-6.721c8.152 5.253 17.573 8.024 27.328 8.024 27.865 0 50.535-22.67 50.535-50.535 0-4.796-.671-9.542-1.996-14.107-.317-1.093-1.314-1.803-2.4-1.803-.231 0-.465.032-.698.099-1.326.385-2.089 1.771-1.704 3.098 1.193 4.112 1.798 8.39 1.798 12.714 0 25.108-20.427 45.535-45.535 45.535-9.177 0-18.023-2.72-25.584-7.866-.421-.285-.912-.433-1.407-.433-.282 0-.566.048-.84.145l-15.047 5.369 5.382-15.084c.267-.749.163-1.58-.282-2.238-5.074-7.522-7.756-16.315-7.756-25.427-.001-25.111 20.426-45.537 45.534-45.537zm-47.035 45.535c0 9.412 2.771 18.495 8.013 26.266.177.262.219.597.112.895l-5.382 15.084c-.195.546-.058 1.155.352 1.565.286.286.67.439 1.061.439.169 0 .339-.029.504-.087l15.046-5.368c.109-.039.222-.058.337-.058.202 0 .397.06.563.173 7.81 5.316 16.949 8.126 26.428 8.126 25.935 0 47.035-21.1 47.035-47.035 0-4.466-.625-8.884-1.857-13.132-.154-.53.152-1.085.679-1.238.093-.027.188-.04.282-.04.442 0 .836.296.959.721 1.285 4.429 1.937 9.035 1.937 13.689 0 27.038-21.997 49.035-49.035 49.035-9.443 0-18.612-2.692-26.516-7.785-.245-.158-.528-.239-.813-.239-.17 0-.34.029-.504.087l-18.838 6.721c-.108.039-.22.058-.334.058-.267 0-.518-.104-.708-.294-.272-.271-.364-.681-.234-1.043l6.736-18.88c.156-.437.101-.921-.149-1.311-5.021-7.862-7.675-16.974-7.675-26.349 0-27.038 21.997-49.035 49.035-49.035.551 0 1 .449 1 1s-.449 1-1 1c-25.934 0-47.034 21.099-47.034 47.035z" fill="#149cb2" data-original="#149cb2"></path></g><g fill="#149cb2"><path d="m157.99 38.881c-27.865 0-50.535 22.67-50.535 50.535s22.67 50.535 50.535 50.535c9.754 0 19.175-2.771 27.328-8.024l18.837 6.721c.274.098.558.146.84.146.652 0 1.292-.256 1.768-.733.683-.683.912-1.698.587-2.608l-6.736-18.879c5.18-8.111 7.911-17.472 7.911-27.157 0-27.866-22.67-50.536-50.535-50.536zm41.211 78.196 6.736 18.88c.129.362.037.771-.236 1.044-.188.189-.439.293-.706.293-.114 0-.227-.02-.336-.059l-18.837-6.721c-.164-.058-.334-.087-.504-.087-.285 0-.567.081-.813.239-7.903 5.093-17.072 7.785-26.516 7.785-27.038 0-49.035-21.997-49.035-49.035s21.997-49.035 49.035-49.035 49.035 21.997 49.035 49.035c0 9.376-2.654 18.487-7.675 26.35-.249.391-.304.875-.148 1.311z" fill="#149cb2" data-original="#149cb2"></path><path d="m205.025 89.416c0-25.935-21.1-47.035-47.035-47.035s-47.035 21.1-47.035 47.035 21.1 47.035 47.035 47.035c9.479 0 18.617-2.81 26.428-8.126.166-.113.361-.173.562-.173.115 0 .228.02.337.059l15.047 5.369c.165.059.335.087.504.087.391 0 .775-.153 1.061-.439.41-.41.547-1.019.352-1.565l-5.382-15.084c-.106-.298-.064-.633.113-.895 5.242-7.773 8.013-16.856 8.013-26.268zm-9.538 27.666 5.382 15.084-15.047-5.369c-.274-.098-.558-.146-.841-.146-.496 0-.986.147-1.406.433-7.561 5.146-16.408 7.866-25.584 7.866-25.108 0-45.535-20.427-45.535-45.535s20.427-45.535 45.535-45.535 45.535 20.427 45.535 45.535c0 9.112-2.682 17.905-7.756 25.428-.446.659-.55 1.49-.283 2.239z" fill="#149cb2" data-original="#149cb2"></path></g></g><g><g><path d="m180.535 75.579c1.381 0 2.5-1.119 2.5-2.5s-1.119-2.5-2.5-2.5h-27.926c-1.381 0-2.5 1.119-2.5 2.5s1.119 2.5 2.5 2.5zm-28.927-2.5c0-.551.449-1 1-1h27.926c.551 0 1 .449 1 1s-.449 1-1 1h-27.926c-.551 0-1-.449-1-1z" fill="#ff8639" data-original="#ff8639"></path></g><g><path d="m180.535 92.16c1.381 0 2.5-1.119 2.5-2.5s-1.119-2.5-2.5-2.5h-45.089c-1.381 0-2.5 1.119-2.5 2.5s1.119 2.5 2.5 2.5zm-46.09-2.5c0-.551.449-1 1-1h45.089c.551 0 1 .449 1 1s-.449 1-1 1h-45.089c-.551 0-1-.448-1-1z" fill="#ff8639" data-original="#ff8639"></path></g><g><path d="m180.535 108.741c1.381 0 2.5-1.119 2.5-2.5s-1.119-2.5-2.5-2.5h-45.089c-1.381 0-2.5 1.119-2.5 2.5s1.119 2.5 2.5 2.5zm-46.09-2.5c0-.551.449-1 1-1h45.089c.551 0 1 .449 1 1s-.449 1-1 1h-45.089c-.551 0-1-.448-1-1z" fill="#ff8639" data-original="#ff8639"></path></g><g><path d="m105.095 160.986c-1.381 0-2.5 1.119-2.5 2.5v9.277c0 1.381 1.119 2.5 2.5 2.5s2.5-1.119 2.5-2.5v-6.973c7.608-1.203 13.443-7.807 13.443-15.748 0-8.791-7.152-15.943-15.943-15.943s-15.943 7.152-15.943 15.943c0 1.381 1.119 2.5 2.5 2.5s2.5-1.119 2.5-2.5c0-6.034 4.909-10.943 10.943-10.943s10.943 4.909 10.943 10.943c0 6.035-4.909 10.944-10.943 10.944zm12.443-10.944c0-6.861-5.582-12.443-12.443-12.443s-12.443 5.582-12.443 12.443c0 .551-.449 1-1 1s-1-.449-1-1c0-7.964 6.479-14.443 14.443-14.443s14.443 6.479 14.443 14.443c0 7.035-5.235 13.168-12.178 14.266-.729.115-1.266.744-1.266 1.482v6.973c0 .551-.449 1-1 1s-1-.449-1-1v-9.277c0-.551.449-1 1-1 6.862 0 12.444-5.582 12.444-12.444z" fill="#ff8639" data-original="#ff8639"></path></g><g><path d="m107.595 182.75v-1.336c0-1.381-1.119-2.5-2.5-2.5s-2.5 1.119-2.5 2.5v1.336c0 1.381 1.119 2.5 2.5 2.5s2.5-1.12 2.5-2.5zm-3.5 0v-1.336c0-.551.449-1 1-1s1 .449 1 1v1.336c0 .551-.449 1-1 1s-1-.449-1-1z" fill="#ff8639" data-original="#ff8639"></path></g></g><g><g fill="#ebe7f2"><path d="m195.06 89.416c0-20.44-16.629-37.069-37.069-37.069s-37.07 16.629-37.07 37.069 16.629 37.07 37.07 37.07c20.439 0 37.069-16.63 37.069-37.07zm-72.64 0c0-19.613 15.957-35.569 35.57-35.569s35.569 15.957 35.569 35.569c0 19.613-15.957 35.57-35.569 35.57-19.613 0-35.57-15.957-35.57-35.57z" fill="#ebe7f2" data-original="#ebe7f2"></path><path d="m198.56 89.416c0-22.37-18.199-40.569-40.569-40.569s-40.57 18.199-40.57 40.569 18.2 40.57 40.57 40.57 40.569-18.2 40.569-40.57zm-79.64 0c0-21.543 17.527-39.069 39.07-39.069s39.069 17.526 39.069 39.069-17.526 39.07-39.069 39.07-39.07-17.527-39.07-39.07z" fill="#ebe7f2" data-original="#ebe7f2"></path></g></g><g><g><path d="m105.095 123.149c1.381 0 2.5-1.119 2.5-2.5s-1.119-2.5-2.5-2.5c-22.37 0-40.569 18.2-40.569 40.57s18.199 40.569 40.569 40.569 40.57-18.199 40.57-40.569c0-4.861-.852-9.616-2.531-14.134-.374-1.007-1.327-1.631-2.342-1.631-.29 0-.585.051-.873.159-1.294.481-1.953 1.92-1.472 3.214 1.471 3.958 2.217 8.127 2.217 12.392 0 19.613-15.957 35.569-35.57 35.569s-35.569-15.957-35.569-35.569c0-19.614 15.957-35.57 35.57-35.57zm-37.07 35.57c0 20.44 16.629 37.069 37.069 37.069s37.07-16.629 37.07-37.069c0-4.443-.778-8.788-2.311-12.914-.192-.517.072-1.094.591-1.287.113-.042.23-.064.348-.064.414 0 .79.262.936.653 1.617 4.35 2.437 8.93 2.437 13.611 0 21.543-17.527 39.069-39.07 39.069s-39.069-17.526-39.069-39.069 17.526-39.07 39.069-39.07c.551 0 1 .449 1 1s-.449 1-1 1c-20.44.001-37.07 16.63-37.07 37.071z" fill="#ebe7f2" data-original="#ebe7f2"></path></g></g></g></g></g></svg>