<svg xmlns="http://www.w3.org/2000/svg" version="1.1" xmlns:xlink="http://www.w3.org/1999/xlink" xmlns:svgjs="http://svgjs.com/svgjs" width="512" height="512" x="0" y="0" viewBox="0 0 256 256" style="enable-background:new 0 0 512 512" xml:space="preserve" class=""><g><g xmlns="http://www.w3.org/2000/svg"><g><path d="m199.054 97.64c-.902-2.404-3.584-3.622-5.988-2.719-2.405.903-3.621 3.584-2.719 5.988 10.498 27.959 4.531 57.677-15.961 79.497-16.928 18.025-40.731 26.59-64.542 23.872l.994-4.278c.713-3.066-2.127-5.772-5.155-4.912l-16.736 4.752c-3.127.888-4.053 4.871-1.638 7.047l12.924 11.647c2.338 2.107 6.081.932 6.793-2.135l.7-3.012c4.175.531 8.353.765 12.504.683 22.743-.45 44.674-9.982 60.935-27.297 22.631-24.096 29.486-58.25 17.889-89.133z" fill="#6bdddd" data-original="#6bdddd"></path></g><g><path d="m168.041 59.642-8.896-14.951c-1.61-2.705-5.532-2.69-7.121.028l-1.842 3.151c-10.585-4.192-22.004-6.271-33.465-6.045-28.291.559-53.635 14.326-69.535 37.77-15.916 23.469-19.342 52.117-9.399 78.598 5.625 14.981 15.326 28.094 28.054 37.92 2.038 1.572 4.957 1.189 6.522-.839 1.57-2.033 1.194-4.953-.839-6.523-11.359-8.768-20.014-20.466-25.031-33.827-8.867-23.618-5.81-49.172 8.39-70.109 14.182-20.913 36.788-33.193 62.021-33.692 9.75-.193 19.462 1.486 28.526 4.882l-1.899 3.249c-1.589 2.718.323 6.143 3.47 6.218l17.392.416c3.25.077 5.314-3.453 3.652-6.246z" fill="#6bdddd" data-original="#6bdddd"></path></g><g><path d="m102.979 221.603c-1.487 0-2.934-.546-4.084-1.583l-12.924-11.647c-1.683-1.517-2.381-3.739-1.868-5.946.513-2.206 2.12-3.893 4.299-4.511l16.736-4.752c2.11-.6 4.317-.054 5.906 1.459 1.588 1.513 2.24 3.692 1.744 5.83l-.479 2.06c22.754 1.921 44.736-6.563 60.621-23.476 19.959-21.252 25.771-50.196 15.547-77.425-1.289-3.433.455-7.274 3.888-8.563 1.663-.624 3.471-.563 5.087.17 1.618.735 2.853 2.055 3.477 3.718 11.867 31.602 4.854 66.549-18.303 91.205-16.473 17.54-38.617 27.458-62.354 27.928-3.608.071-7.3-.093-11-.488l-.295 1.271c-.497 2.137-2.043 3.806-4.136 4.463-.617.192-1.243.287-1.862.287zm3.855-24.678c-.187 0-.389.026-.604.087l-16.736 4.752c-1.093.31-1.41 1.201-1.496 1.569-.085.368-.194 1.308.65 2.068l12.924 11.647c.816.736 1.718.56 2.067.451.35-.11 1.189-.481 1.438-1.553l.7-3.012c.232-1 1.184-1.657 2.201-1.531 4.106.521 8.214.747 12.212.667 22.651-.448 43.788-9.918 59.517-26.667 22.105-23.537 28.801-56.896 17.475-87.061-.249-.663-.741-1.188-1.386-1.481-.644-.292-1.365-.317-2.027-.068-1.368.513-2.063 2.044-1.55 3.413 10.772 28.688 4.65 59.181-16.375 81.569-17.277 18.396-41.413 27.318-66.228 24.49-.566-.065-1.079-.369-1.407-.834-.329-.466-.443-1.05-.314-1.606l.995-4.277c.249-1.071-.341-1.775-.606-2.028-.211-.202-.718-.595-1.45-.595z" fill="#3762cc" data-original="#3762cc"></path></g><g><path d="m64.617 197.696c-13.024-10.054-22.95-23.471-28.705-38.801-10.174-27.097-6.669-56.41 9.616-80.423 16.269-23.988 42.203-38.075 71.151-38.647 11.027-.218 22.277 1.704 32.635 5.568l.984-1.683c1.107-1.894 3.077-3.029 5.271-3.038h.025c2.184 0 4.152 1.119 5.271 2.997l8.896 14.952c1.158 1.946 1.167 4.276.024 6.231-1.144 1.956-3.181 3.076-5.442 3.037l-17.393-.416c-2.192-.052-4.14-1.228-5.209-3.143-1.068-1.916-1.046-4.19.061-6.084l.683-1.167c-8.242-2.797-16.823-4.12-25.542-3.955-24.576.486-46.592 12.446-60.405 32.814-13.83 20.393-16.809 45.281-8.172 68.283 4.886 13.014 13.317 24.407 24.381 32.947 2.902 2.241 3.44 6.426 1.2 9.328-2.279 2.948-6.464 3.412-9.33 1.2zm53.755-153.888c-.539 0-1.077.005-1.615.016-27.633.546-52.388 13.993-67.919 36.893-15.546 22.924-18.893 50.907-9.181 76.772 5.493 14.633 14.969 27.441 27.404 37.041 1.193.921 2.846.65 3.717-.479.893-1.157.678-2.825-.479-3.718-11.652-8.995-20.533-20.996-25.681-34.707-9.098-24.234-5.961-50.453 8.607-71.935 14.551-21.457 37.746-34.057 63.637-34.568 10.021-.209 19.868 1.487 29.266 5.008.553.207.985.647 1.184 1.203.197.556.14 1.17-.158 1.68l-1.899 3.25c-.555.949-.199 1.796-.021 2.116.179.32.713 1.067 1.812 1.093l17.393.416c1.124.036 1.703-.729 1.894-1.056s.572-1.192-.009-2.168l-8.896-14.951c-.559-.938-1.463-1.042-1.834-1.042-.003 0-.006 0-.008 0-.367.001-1.279.107-1.834 1.057l-1.842 3.15c-.499.853-1.545 1.214-2.463.85-9.807-3.884-20.517-5.921-31.075-5.921z" fill="#3762cc" data-original="#3762cc"></path></g><g><g><circle cx="118.472" cy="127.917" fill="#eaa97d" r="42.873" data-original="#eaa97d"></circle></g><g><circle cx="118.472" cy="127.917" fill="#ffea92" r="34.111" data-original="#ffea92"></circle></g><g><path d="m122.113 122.641h-.187v-11.298h.187c3.115 0 5.649 2.534 5.649 5.649 0 1.908 1.547 3.455 3.455 3.455s3.455-1.547 3.455-3.455c0-6.925-5.634-12.558-12.558-12.558h-.187v-.187c0-1.908-1.547-3.455-3.455-3.455s-3.455 1.547-3.455 3.455v.187h-.187c-6.925 0-12.558 5.634-12.558 12.558s5.634 12.559 12.558 12.559h.187v14.94h-.187c-3.115 0-5.649-2.534-5.649-5.649 0-1.908-1.547-3.455-3.455-3.455s-3.455 1.547-3.455 3.455c0 6.925 5.634 12.558 12.558 12.558h.187v.187c0 1.908 1.547 3.455 3.455 3.455s3.455-1.547 3.455-3.455v-.187h.187c6.925 0 12.558-5.634 12.558-12.558v-3.642c.001-6.925-5.633-12.559-12.558-12.559zm-7.283 0c-3.115 0-5.649-2.534-5.649-5.649s2.534-5.649 5.649-5.649h.187v11.298zm12.932 16.201c0 3.115-2.534 5.649-5.649 5.649h-.187v-14.94h.187c3.115 0 5.649 2.534 5.649 5.649z" fill="#eaa97d" data-original="#eaa97d"></path></g><g><path d="m118.472 172.79c-24.743 0-44.874-20.13-44.874-44.873s20.13-44.874 44.874-44.874 44.873 20.13 44.873 44.874-20.13 44.873-44.873 44.873zm0-85.747c-22.538 0-40.874 18.336-40.874 40.874s18.336 40.873 40.874 40.873c22.537 0 40.873-18.335 40.873-40.873s-18.336-40.874-40.873-40.874z" fill="#3762cc" data-original="#3762cc"></path></g><g><path d="m118.472 164.028c-19.912 0-36.111-16.199-36.111-36.111s16.199-36.111 36.111-36.111 36.111 16.2 36.111 36.111-16.199 36.111-36.111 36.111zm0-68.222c-17.706 0-32.111 14.405-32.111 32.111s14.405 32.111 32.111 32.111 32.111-14.405 32.111-32.111-14.405-32.111-32.111-32.111z" fill="#3762cc" data-original="#3762cc"></path></g></g><g><g><g><path d="m87.145 253h-71.17v-14.636c0-17.333 14.051-31.384 31.384-31.384h8.403c17.333 0 31.384 14.051 31.384 31.384v14.636z" fill="#4671c6" data-original="#4671c6"></path></g><g><circle cx="51.56" cy="176.551" fill="#f9cfcf" r="30.429" data-original="#f9cfcf"></circle></g><g><path d="m51.56 208.98c-17.881 0-32.429-14.548-32.429-32.429s14.548-32.429 32.429-32.429 32.429 14.548 32.429 32.429-14.548 32.429-32.429 32.429zm0-60.858c-15.676 0-28.429 12.753-28.429 28.429s12.753 28.429 28.429 28.429 28.429-12.753 28.429-28.429-12.754-28.429-28.429-28.429z" fill="#3762cc" data-original="#3762cc"></path></g><g><path d="m87.145 255h-71.17c-1.104 0-2-.896-2-2v-14.636c0-18.408 14.976-33.384 33.383-33.384h8.403c18.408 0 33.384 14.976 33.384 33.384v14.636c0 1.104-.895 2-2 2zm-69.17-4h67.17v-12.636c0-16.202-13.182-29.384-29.384-29.384h-8.403c-16.202 0-29.383 13.182-29.383 29.384z" fill="#3762cc" data-original="#3762cc"></path></g><g><path d="m21.141 176.98h4.885c9.916 0 17.955-8.039 17.955-17.955v-11.951c-13.257 3.398-23.042 15.507-22.84 29.906z" fill="#4671c6" data-original="#4671c6"></path></g><g><path d="m51.56 146.122c-2.616 0-5.155.331-7.578.952v11.951c0 9.916 8.039 17.955 17.955 17.955h20.04c.002-.143.011-.285.011-.429.001-16.805-13.623-30.429-30.428-30.429z" fill="#4671c6" data-original="#4671c6"></path></g><g><path d="m81.978 178.98h-20.041c-7.885 0-14.717-4.596-17.956-11.251-3.239 6.655-10.07 11.251-17.955 11.251h-4.885c-1.065 0-2.011-.728-2.011-2.429 0-14.821 10.015-27.739 24.354-31.415 2.626-.673 5.343-1.015 8.074-1.015 18.381 0 32.889 15.376 32.418 32.885-.013 1.095-.904 1.974-1.998 1.974zm-37.996-21.955c1.104 0 2 .896 2 2 0 8.798 7.158 15.955 15.956 15.955h18.008c-.818-14.948-13.237-26.858-28.386-26.858-2.396 0-4.778.299-7.081.89-12.06 3.091-20.63 13.642-21.305 25.968h2.853c8.798 0 15.955-7.157 15.955-15.955 0-1.105.895-2 2-2z" fill="#3762cc" data-original="#3762cc"></path></g></g><g><g><path d="m240.026 109.878h-71.17v-14.636c0-17.333 14.051-31.384 31.384-31.384h8.403c17.333 0 31.384 14.051 31.384 31.384v14.636z" fill="#e0ebfc" data-original="#e0ebfc"></path></g><g><circle cx="204.44" cy="33.429" fill="#f9cfcf" r="30.429" data-original="#f9cfcf"></circle></g><g><path d="m204.44 65.858c-17.881 0-32.429-14.548-32.429-32.429s14.549-32.429 32.429-32.429 32.429 14.548 32.429 32.429-14.548 32.429-32.429 32.429zm0-60.858c-15.676 0-28.429 12.753-28.429 28.429s12.753 28.429 28.429 28.429 28.429-12.753 28.429-28.429-12.753-28.429-28.429-28.429z" fill="#3762cc" data-original="#3762cc"></path></g><g><path d="m240.025 111.878h-71.17c-1.104 0-2-.896-2-2v-14.636c0-18.408 14.976-33.383 33.384-33.383h8.402c18.408 0 33.384 14.976 33.384 33.383v14.636c0 1.104-.895 2-2 2zm-69.17-4h67.17v-12.636c0-16.202-13.182-29.383-29.384-29.383h-8.402c-16.202 0-29.384 13.181-29.384 29.383z" fill="#3762cc" data-original="#3762cc"></path></g><g><path d="m174.011 33.429c0 .144.009.285.011.429h4.885c9.916 0 17.955-8.039 17.955-17.955v-11.951c-13.138 3.367-22.851 15.288-22.851 29.477z" fill="#4671c6" data-original="#4671c6"></path></g><g><path d="m204.44 3c-2.616 0-5.155.331-7.578.952v11.951c0 9.916 8.039 17.955 17.955 17.955h20.04c.002-.143.011-.285.011-.429.001-16.805-13.622-30.429-30.428-30.429z" fill="#4671c6" data-original="#4671c6"></path></g><g><path d="m234.858 35.857h-20.04c-7.886 0-14.717-4.597-17.956-11.251-3.238 6.655-10.07 11.251-17.955 11.251h-4.885c-1.094 0-1.985-.879-2-1.973l-.004-.145c-.004-.104-.007-.207-.007-.311 0-14.821 10.015-27.739 24.354-31.415 2.628-.672 5.345-1.013 8.075-1.013 17.881 0 32.429 14.548 32.429 32.429 0 .104-.003.207-.007.311l-.004.145c-.014 1.094-.906 1.972-2 1.972zm-37.996-21.955c1.104 0 2 .896 2 2 0 8.798 7.158 15.955 15.956 15.955h18.008c-.818-14.948-13.237-26.857-28.386-26.857-2.396 0-4.778.299-7.082.889-12.058 3.091-20.629 13.641-21.303 25.968h2.853c8.798 0 15.955-7.157 15.955-15.955-.001-1.104.895-2 1.999-2z" fill="#3762cc" data-original="#3762cc"></path></g><g><path d="m240.025 111.878h-71.17c-1.104 0-2-.896-2-2v-14.636c0-18.408 14.976-33.383 33.384-33.383h8.402c18.408 0 33.384 14.976 33.384 33.383v14.636c0 1.104-.895 2-2 2zm-69.17-4h67.17v-12.636c0-16.202-13.182-29.383-29.384-29.383h-8.402c-16.202 0-29.384 13.181-29.384 29.383z" fill="#3762cc" data-original="#3762cc"></path></g><g><path d="m197.098 74.172c-.651 0-1.309-.211-1.866-.646l-7.63-5.943c-.567-.442-.854-1.154-.75-1.866.104-.711.582-1.313 1.252-1.574 3.882-1.516 7.965-2.285 12.136-2.285 4.107 0 5.314-.313 6.002 1.147.33.7.227 1.528-.266 2.125l-6.54 7.932c-.603.731-1.466 1.11-2.338 1.11zm-4.055-7.421 3.904 3.042 3.244-3.935c-2.426.004-4.819.304-7.148.893z" fill="#3762cc" data-original="#3762cc"></path></g><g><path d="m211.781 74.172c-.873 0-1.735-.379-2.337-1.11l-6.539-7.931c-.492-.598-.596-1.425-.266-2.125.684-1.451 1.775-1.147 6.002-1.147 4.171 0 8.254.769 12.136 2.285.67.261 1.147.863 1.252 1.574.104.712-.183 1.424-.75 1.866l-7.629 5.942c-.559.434-1.216.646-1.869.646zm-3.092-8.314 3.244 3.935 3.904-3.042c-2.328-.589-4.721-.889-7.148-.893z" fill="#3762cc" data-original="#3762cc"></path></g><g><path d="m204.448 63.876v-.018l-.007.009-.007-.009v.018l-5.434 6.571 1.803 6.039h7.275l1.803-6.039z" fill="#4671c6" data-original="#4671c6"></path></g><g><path d="m208.093 76.486c-2.638 0-4.652 0-7.29 0l-4.171 33.392h15.631z" fill="#4671c6" data-original="#4671c6"></path></g><g><path d="m208.078 78.486h-7.275c-.884 0-1.663-.581-1.916-1.428l-1.803-6.039c-.191-.64-.051-1.332.375-1.847 8.138-9.844 5.911-9.741 13.963 0 .426.515.566 1.207.375 1.847l-1.803 6.039c-.253.847-1.032 1.428-1.916 1.428zm-5.785-4h4.295l1.071-3.587-3.219-3.893-3.219 3.893z" fill="#3762cc" data-original="#3762cc"></path></g><g><path d="m212.264 111.877h-15.632c-.573 0-1.12-.246-1.499-.676-.38-.43-.557-1.002-.485-1.572l4.171-33.392c.125-1.001.976-1.752 1.984-1.752h7.29c1.009 0 1.859.751 1.984 1.752l4.171 33.392c.071.569-.105 1.142-.485 1.572-.379.43-.926.676-1.499.676zm-13.367-4h11.101l-3.671-29.392h-3.759z" fill="#3762cc" data-original="#3762cc"></path></g></g></g></g></g></svg>