<svg xmlns="http://www.w3.org/2000/svg" version="1.1" xmlns:xlink="http://www.w3.org/1999/xlink" xmlns:svgjs="http://svgjs.com/svgjs" width="512" height="512" x="0" y="0" viewBox="0 0 64 64" style="enable-background:new 0 0 512 512" xml:space="preserve" class=""><g><circle xmlns="http://www.w3.org/2000/svg" cx="32" cy="32" fill="#ffeb3b" r="29" data-original="#ffeb3b" class=""></circle><circle xmlns="http://www.w3.org/2000/svg" cx="32" cy="32" fill="#fdd835" r="25" data-original="#fdd835" class=""></circle><path xmlns="http://www.w3.org/2000/svg" d="m32 2a30 30 0 1 0 30 30 30.034 30.034 0 0 0 -30-30zm0 54a24 24 0 1 1 24-24 24.028 24.028 0 0 1 -24 24zm22.992-36.12 1.734-1a27.819 27.819 0 0 1 2.044 4.913l-1.932.517a25.789 25.789 0 0 0 -1.846-4.43zm-1-1.73a26.1 26.1 0 0 0 -2.922-3.8l1.414-1.414a28.157 28.157 0 0 1 3.241 4.216zm-4.336-5.216a26.1 26.1 0 0 0 -3.8-2.922l1-1.733a28.157 28.157 0 0 1 4.216 3.241zm-5.536-3.926a25.789 25.789 0 0 0 -4.429-1.846l.517-1.932a27.819 27.819 0 0 1 4.913 2.044zm-6.362-2.358a25.975 25.975 0 0 0 -4.758-.625v-2a27.936 27.936 0 0 1 5.275.693zm-6.758-.625a25.975 25.975 0 0 0 -4.758.625l-.517-1.932a27.936 27.936 0 0 1 5.275-.693zm-6.691 1.137a25.789 25.789 0 0 0 -4.429 1.846l-1-1.734a27.819 27.819 0 0 1 4.912-2.044zm-6.159 2.85a26.1 26.1 0 0 0 -3.8 2.922l-1.416-1.414a28.157 28.157 0 0 1 4.216-3.241zm-5.216 4.336a26.1 26.1 0 0 0 -2.922 3.8l-1.733-1a28.157 28.157 0 0 1 3.241-4.216zm-3.926 5.532a25.789 25.789 0 0 0 -1.846 4.429l-1.932-.517a27.819 27.819 0 0 1 2.044-4.913zm-2.358 6.362a25.975 25.975 0 0 0 -.625 4.758h-2a27.936 27.936 0 0 1 .693-5.275zm-.625 6.758a25.975 25.975 0 0 0 .625 4.758l-1.932.517a27.936 27.936 0 0 1 -.693-5.275zm1.137 6.691a25.789 25.789 0 0 0 1.846 4.429l-1.734 1a27.819 27.819 0 0 1 -2.044-4.912zm2.85 6.159a26.1 26.1 0 0 0 2.922 3.8l-1.414 1.416a28.157 28.157 0 0 1 -3.241-4.216zm4.336 5.216a26.1 26.1 0 0 0 3.8 2.922l-1 1.733a28.157 28.157 0 0 1 -4.216-3.241zm5.532 3.926a25.789 25.789 0 0 0 4.429 1.846l-.517 1.932a27.819 27.819 0 0 1 -4.913-2.044zm6.362 2.358a25.975 25.975 0 0 0 4.758.625v2a27.936 27.936 0 0 1 -5.275-.693zm6.758.625a25.975 25.975 0 0 0 4.758-.625l.517 1.932a27.936 27.936 0 0 1 -5.275.693zm6.691-1.137a25.789 25.789 0 0 0 4.429-1.846l1 1.734a27.819 27.819 0 0 1 -4.913 2.044zm6.159-2.85a26.1 26.1 0 0 0 3.8-2.922l1.414 1.414a28.157 28.157 0 0 1 -4.216 3.241zm5.216-4.336a26.1 26.1 0 0 0 2.922-3.8l1.733 1a28.157 28.157 0 0 1 -3.241 4.216zm3.926-5.532a25.789 25.789 0 0 0 1.846-4.429l1.932.517a27.819 27.819 0 0 1 -2.044 4.913zm2.358-6.362a25.975 25.975 0 0 0 .625-4.758h2a27.936 27.936 0 0 1 -.693 5.275zm.625-6.758a25.975 25.975 0 0 0 -.625-4.758l1.932-.517a27.936 27.936 0 0 1 .693 5.275z" fill="#fbc02e" data-original="#fbc02e"></path><g xmlns="http://www.w3.org/2000/svg" fill="#fff59d"><path d="m14.858 29h6v6h-6z" transform="matrix(.707 .707 -.707 .707 27.858 -3.255)" fill="#fff59d" data-original="#fff59d"></path><path d="m29 29h6v6h-6z" transform="matrix(.707 .707 -.707 .707 32 -13.255)" fill="#fff59d" data-original="#fff59d"></path><path d="m43.142 29h6v6h-6z" transform="matrix(.707 .707 -.707 .707 36.142 -23.255)" fill="#fff59d" data-original="#fff59d"></path><path d="m32 13.615 11.314 11.314-4.243 4.243-7.071-7.071-7.071 7.071-4.243-4.243z" fill="#fff59d" data-original="#fff59d"></path><path d="m32 50.385-11.314-11.314 4.243-4.243 7.071 7.071 7.071-7.071 4.243 4.243z" fill="#fff59d" data-original="#fff59d"></path></g></g></svg>