<svg xmlns="http://www.w3.org/2000/svg" version="1.1" xmlns:xlink="http://www.w3.org/1999/xlink" xmlns:svgjs="http://svgjs.com/svgjs" width="512" height="512" x="0" y="0" viewBox="0 0 64 64" style="enable-background:new 0 0 512 512" xml:space="preserve" class=""><g><path xmlns="http://www.w3.org/2000/svg" d="m7 18h41a4 4 0 0 1 4 4v4a0 0 0 0 1 0 0h-45a4 4 0 0 1 -4-4 4 4 0 0 1 4-4z" fill="#c8ebff" data-original="#c8ebff"></path><path xmlns="http://www.w3.org/2000/svg" d="m52 26v-4.018a2.021 2.021 0 0 0 -1.982-1.982h-40.812a4.156 4.156 0 0 0 -4.163 3.419 3.932 3.932 0 0 0 .317 2.221 3.961 3.961 0 0 0 1.64.36z" fill="#b4e7ff" data-original="#b4e7ff"></path><circle xmlns="http://www.w3.org/2000/svg" cx="33" cy="16" fill="#fff6c2" r="14" data-original="#fff6c2" class=""></circle><path xmlns="http://www.w3.org/2000/svg" d="m35 4a14 14 0 0 0 -10.847 22.847 14 14 0 0 0 19.694-19.694 13.941 13.941 0 0 0 -8.847-3.153z" fill="#fff08f" data-original="#fff08f" class=""></path><path xmlns="http://www.w3.org/2000/svg" d="m30.992 2.16a13.982 13.982 0 0 0 0 27.68 15.964 15.964 0 0 0 0-27.68z" fill="#fff08f" data-original="#fff08f" class=""></path><path xmlns="http://www.w3.org/2000/svg" d="m33.624 4.07a13.992 13.992 0 0 0 -9.5 22.734 13.967 13.967 0 0 0 6.871 3.036 15.947 15.947 0 0 0 2.629-25.77z" fill="#ffdd32" data-original="#ffdd32"></path><circle xmlns="http://www.w3.org/2000/svg" cx="33" cy="16" fill="#ffc62c" r="10" data-original="#ffc62c" class=""></circle><path xmlns="http://www.w3.org/2000/svg" d="m35 8a9.986 9.986 0 0 0 -7.992 15.992 9.986 9.986 0 0 0 13.984-13.984 9.941 9.941 0 0 0 -5.992-2.008z" fill="#ffdd32" data-original="#ffdd32"></path><path xmlns="http://www.w3.org/2000/svg" d="m23 16a9.983 9.983 0 0 0 12.767 9.6 15.881 15.881 0 0 0 0-19.208 9.983 9.983 0 0 0 -12.767 9.608z" fill="#ffbb44" data-original="#ffbb44"></path><path xmlns="http://www.w3.org/2000/svg" d="m25 18a9.941 9.941 0 0 0 2.008 5.992 9.921 9.921 0 0 0 8.759 1.608 15.894 15.894 0 0 0 1.191-17.4 9.962 9.962 0 0 0 -11.958 9.8z" fill="#ffc62c" data-original="#ffc62c" class=""></path><circle xmlns="http://www.w3.org/2000/svg" cx="23" cy="16" fill="#fff6c2" r="14" data-original="#fff6c2" class=""></circle><path xmlns="http://www.w3.org/2000/svg" d="m37 16a13.977 13.977 0 0 0 -6.8-11.992 13.988 13.988 0 0 0 -12.4 24.984 13.983 13.983 0 0 0 19.2-12.992z" fill="#fff08f" data-original="#fff08f" class=""></path><circle xmlns="http://www.w3.org/2000/svg" cx="23" cy="16" fill="#ffc62c" r="10" data-original="#ffc62c" class=""></circle><path xmlns="http://www.w3.org/2000/svg" d="m25 8a9.986 9.986 0 0 0 -7.992 15.992 9.986 9.986 0 0 0 13.984-13.984 9.941 9.941 0 0 0 -5.992-2.008z" fill="#ffdd32" data-original="#ffdd32"></path><path xmlns="http://www.w3.org/2000/svg" d="m26.1 15.471a2.939 2.939 0 0 0 -.6-3.691v-1.78a1 1 0 0 0 -2 0v1h-1v-1a1 1 0 0 0 -2 0v1a1 1 0 0 0 0 2v6a1 1 0 0 0 0 2v1a1 1 0 0 0 2 0v-1h1v1a1 1 0 0 0 2 0v-1.184a2.983 2.983 0 0 0 .6-5.345zm-3.6-2.471h1a1 1 0 0 1 0 2h-1zm2 6h-2v-2h2a1 1 0 0 1 0 2z" fill="#fff08f" data-original="#fff08f" class=""></path><path xmlns="http://www.w3.org/2000/svg" d="m7 26h45a4 4 0 0 1 4 4v28a4 4 0 0 1 -4 4h-45a4 4 0 0 1 -4-4v-36a4 4 0 0 0 4 4z" fill="#8487b2" data-original="#8487b2"></path><path xmlns="http://www.w3.org/2000/svg" d="m56 38h3a2 2 0 0 1 2 2 2 2 0 0 1 -2 2h-3a0 0 0 0 1 0 0v-4a0 0 0 0 1 0 0z" fill="#ffbb44" data-original="#ffbb44"></path><path xmlns="http://www.w3.org/2000/svg" d="m56 58v-28a4 4 0 0 0 -4-4h-45a3.955 3.955 0 0 1 -2-.555v32.555a4 4 0 0 0 4 4h43a4 4 0 0 0 4-4z" fill="#6971a0" data-original="#6971a0"></path><g xmlns="http://www.w3.org/2000/svg" fill="#4e5a82"><path d="m8.5 59h-1.5a1 1 0 0 1 -1-1v-1.5a1 1 0 0 1 2 0v.5h.5a1 1 0 0 1 0 2z" fill="#4e5a82" data-original="#4e5a82"></path><path d="m7 53.5a1 1 0 0 1 -1-1v-3a1 1 0 0 1 2 0v3a1 1 0 0 1 -1 1zm0-7a1 1 0 0 1 -1-1v-3a1 1 0 0 1 2 0v3a1 1 0 0 1 -1 1zm0-7a1 1 0 0 1 -1-1v-3a1 1 0 0 1 2 0v3a1 1 0 0 1 -1 1z" fill="#4e5a82" data-original="#4e5a82"></path><path d="m7 32.5a1 1 0 0 1 -1-1v-1.5a1 1 0 0 1 1-1h1.5a1 1 0 0 1 0 2h-.5v.5a1 1 0 0 1 -1 1z" fill="#4e5a82" data-original="#4e5a82"></path><path d="m46.192 31h-3.231a1 1 0 0 1 0-2h3.231a1 1 0 1 1 0 2zm-7.538 0h-3.231a1 1 0 0 1 0-2h3.231a1 1 0 0 1 0 2zm-7.539 0h-3.23a1 1 0 0 1 0-2h3.23a1 1 0 0 1 0 2zm-7.538 0h-3.231a1 1 0 0 1 0-2h3.231a1 1 0 0 1 0 2zm-7.538 0h-3.231a1 1 0 0 1 0-2h3.231a1 1 0 0 1 0 2z" fill="#4e5a82" data-original="#4e5a82"></path><path d="m52 32.5a1 1 0 0 1 -1-1v-.5h-.5a1 1 0 0 1 0-2h1.5a1 1 0 0 1 1 1v1.5a1 1 0 0 1 -1 1z" fill="#4e5a82" data-original="#4e5a82"></path><path d="m52 53.5a1 1 0 0 1 -1-1v-3a1 1 0 0 1 2 0v3a1 1 0 0 1 -1 1zm0-7a1 1 0 0 1 -1-1v-3a1 1 0 0 1 2 0v3a1 1 0 0 1 -1 1zm0-7a1 1 0 0 1 -1-1v-3a1 1 0 0 1 2 0v3a1 1 0 0 1 -1 1z" fill="#4e5a82" data-original="#4e5a82"></path><path d="m52 59h-1.5a1 1 0 0 1 0-2h.5v-.5a1 1 0 0 1 2 0v1.5a1 1 0 0 1 -1 1z" fill="#4e5a82" data-original="#4e5a82"></path><path d="m46.192 59h-3.231a1 1 0 0 1 0-2h3.231a1 1 0 1 1 0 2zm-7.538 0h-3.231a1 1 0 0 1 0-2h3.231a1 1 0 0 1 0 2zm-7.539 0h-3.23a1 1 0 0 1 0-2h3.23a1 1 0 1 1 0 2zm-7.538 0h-3.231a1 1 0 0 1 0-2h3.231a1 1 0 0 1 0 2zm-7.538 0h-3.231a1 1 0 1 1 0-2h3.231a1 1 0 0 1 0 2z" fill="#4e5a82" data-original="#4e5a82"></path></g><path xmlns="http://www.w3.org/2000/svg" d="m51 42h8a2 2 0 0 0 2-2v8a2 2 0 0 1 -2 2h-8a4 4 0 0 1 -4-4 4 4 0 0 1 4-4z" fill="#ffdd32" data-original="#ffdd32"></path><circle xmlns="http://www.w3.org/2000/svg" cx="51" cy="46" fill="#e7f9ff" r="1" data-original="#e7f9ff"></circle></g></svg>