<?xml version="1.0" encoding="utf-8"?>
<!-- Generator: Adobe Illustrator 23.0.5, SVG Export Plug-In . SVG Version: 6.00 Build 0)  -->
<svg version="1.1" id="Layer_1" xmlns="http://www.w3.org/2000/svg" xmlns:xlink="http://www.w3.org/1999/xlink" x="0px" y="0px"
	 viewBox="0 0 302 282" style="enable-background:new 0 0 302 282;" xml:space="preserve">
<style type="text/css">
	.st0{fill:#F9CA47;}
	.st1{fill:url(#SVGID_1_);}
	.st2{fill:url(#SVGID_2_);}
	.st3{fill:url(#SVGID_3_);}
	.st4{fill:none;stroke:#343947;stroke-width:0.7095;stroke-miterlimit:10;}
	.st5{fill:url(#SVGID_4_);}
	.st6{fill:none;stroke:#343947;stroke-width:0.5194;stroke-miterlimit:10;}
	.st7{fill:none;stroke:#343947;stroke-width:0.5207;stroke-miterlimit:10;}
	.st8{fill:none;stroke:#3358CC;stroke-width:0.9737;stroke-linecap:round;stroke-linejoin:round;stroke-miterlimit:10;}
	.st9{fill:url(#SVGID_5_);}
	.st10{opacity:0.9;fill:#3358CC;}
	.st11{opacity:0.75;fill:#3358CC;}
	.st12{opacity:0.6;fill:#3358CC;}
	.st13{opacity:0.45;fill:#3358CC;}
	.st14{opacity:0.3;fill:#3358CC;}
	.st15{opacity:0.1;fill:#3358CC;}
	.st16{fill:#3358CC;}
	.st17{opacity:0.3;}
	.st18{fill:#6582DB;}
	.st19{opacity:0.7;}
	.st20{opacity:0.2;}
	.st21{fill:url(#SVGID_6_);}
	.st22{fill:url(#SVGID_7_);}
	.st23{fill:#83B9F7;}
	.st24{opacity:0.2;fill:url(#SVGID_8_);}
	.st25{fill:url(#SVGID_9_);}
	.st26{opacity:0.2;fill:url(#SVGID_10_);}
	.st27{fill:url(#SVGID_11_);}
	.st28{opacity:0.2;fill:url(#SVGID_12_);}
	.st29{fill:url(#SVGID_13_);}
	.st30{opacity:0.2;fill:url(#SVGID_14_);}
	.st31{fill:url(#SVGID_15_);}
	.st32{opacity:0.2;fill:url(#SVGID_16_);}
	.st33{fill:url(#SVGID_17_);}
	.st34{opacity:0.2;fill:url(#SVGID_18_);}
	.st35{fill:url(#SVGID_19_);}
	.st36{opacity:0.2;fill:url(#SVGID_20_);}
	.st37{fill:url(#SVGID_21_);}
	.st38{opacity:0.2;fill:url(#SVGID_22_);}
	.st39{fill:url(#SVGID_23_);}
	.st40{opacity:0.2;fill:url(#SVGID_24_);}
	.st41{fill:url(#SVGID_25_);}
	.st42{opacity:0.2;fill:url(#SVGID_26_);}
	.st43{fill:none;stroke:#FFFFFF;stroke-width:0.5194;stroke-miterlimit:10;}
	.st44{fill:url(#SVGID_27_);}
	.st45{fill:#FFFFFF;}
	.st46{fill:#804E00;}
	.st47{fill:#343947;}
	.st48{fill:none;stroke:#636363;stroke-width:0.2597;stroke-miterlimit:10;}
	.st49{fill:#FF9C87;}
	.st50{opacity:0.3;fill:url(#SVGID_28_);}
	.st51{opacity:0.3;fill:url(#SVGID_29_);}
	.st52{opacity:0.3;fill:url(#SVGID_30_);}
	.st53{fill:none;stroke:#FFA600;stroke-width:0.4996;stroke-miterlimit:10;}
	.st54{opacity:0.3;fill:url(#SVGID_31_);}
	.st55{fill:none;stroke:#27439C;stroke-width:0.5194;stroke-miterlimit:10;}
	.st56{fill:url(#SVGID_32_);}
	.st57{fill:url(#SVGID_33_);}
	.st58{fill:#FFE4A1;}
	.st59{fill:none;stroke:#FFA600;stroke-width:0.3898;stroke-miterlimit:10;}
	.st60{opacity:0.3;fill:url(#SVGID_34_);}
	.st61{opacity:0.3;fill:url(#SVGID_35_);}
	.st62{fill:#636363;}
	.st63{fill:#0030C2;}
	.st64{fill:#5EC778;}
	.st65{fill:#BABABA;}
	.st66{fill:#D1D1D1;}
	.st67{fill:url(#SVGID_36_);}
	.st68{fill:url(#SVGID_37_);}
	.st69{fill:none;stroke:#BABABA;stroke-width:0.5194;stroke-linecap:round;stroke-linejoin:round;stroke-miterlimit:10;}
	.st70{fill:none;stroke:#FFFFFF;stroke-width:0.2597;stroke-miterlimit:10;}
	.st71{fill:none;stroke:#276F85;stroke-width:0.5194;stroke-miterlimit:10;}
	.st72{opacity:0.3;fill:url(#SVGID_38_);}
	.st73{opacity:0.2;fill:url(#SVGID_39_);}
	.st74{fill:#FFA600;}
	.st75{opacity:0.2;fill:url(#SVGID_40_);}
	.st76{fill:none;stroke:#343947;stroke-width:0.4842;stroke-miterlimit:10;}
	.st77{fill:#277085;}
	.st78{opacity:0.4;fill:url(#SVGID_41_);}
	.st79{fill:#FF005D;}
	.st80{opacity:0.4;fill:url(#SVGID_42_);}
	.st81{opacity:0.4;fill:url(#SVGID_43_);}
	.st82{fill:none;stroke:#73002A;stroke-width:0.5194;stroke-miterlimit:10;}
	.st83{opacity:0.4;fill:url(#SVGID_44_);}
</style>
<g>
	<g>
		<path class="st0" d="M34.9,78.2V202c0,7.3,4.3,13.8,10.9,16.8l105,46.6c4.7,2.1,10.2,2.1,14.9,0l105-46.6
			c6.6-2.9,10.9-9.5,10.9-16.8V78.2c0-7.3-4.3-13.8-10.9-16.8l-105-46.6c-4.7-2.1-10.2-2.1-14.9,0l-105,46.6
			C39.2,64.3,34.9,70.9,34.9,78.2z"/>
		<linearGradient id="SVGID_1_" gradientUnits="userSpaceOnUse" x1="129.0557" y1="44.7745" x2="212.3307" y2="44.7745">
			<stop  offset="0.3341" style="stop-color:#FFE4A1"/>
			<stop  offset="1" style="stop-color:#FFCA44"/>
		</linearGradient>
		<path class="st1" d="M129.1,55.5c0,0,72.4,0,79.3,0c6.8,0,4.3-3.4-2.9-5.8c-7.2-2.4-5.7-12.7-14.7-15.1c-7.3-2-9.5,3.2-17.1,2.5
			s-11.4-1.2-14.6,1.1c-3.5,2.5-2,9-9,9.5c-7,0.5-12.2,2.6-15.3,5.2C131.8,55.5,129.1,55.5,129.1,55.5z"/>
		<linearGradient id="SVGID_2_" gradientUnits="userSpaceOnUse" x1="147.2457" y1="159.5326" x2="147.2457" y2="242.9688">
			<stop  offset="0" style="stop-color:#FF8CB6"/>
			<stop  offset="0.1543" style="stop-color:#FF91AD"/>
			<stop  offset="0.4091" style="stop-color:#FF9F94"/>
			<stop  offset="0.7309" style="stop-color:#FFB56B"/>
			<stop  offset="1" style="stop-color:#FFCA44"/>
		</linearGradient>
		<path class="st2" d="M45.5,234.7c0,0,13-8.3,19.6-18.8c6.6-10.5,9.5-14.5,19-15.8c9.4-1.3,19.7-6.7,26.2-15.1
			c6.6-8.4,20.1-23.3,35.8-22.2c15.6,1,30.5,16.5,39.4,23.8c8.8,7.2,17.5,5.3,22.3,12.8c4.8,7.4,6.4,16.2,13.8,19.4
			c7.4,3.2,24.5,7.6,27.5,15.9H45.5z"/>
		<g>
			<linearGradient id="SVGID_3_" gradientUnits="userSpaceOnUse" x1="13.2051" y1="170.3248" x2="67.2777" y2="170.3248">
				<stop  offset="0" style="stop-color:#5A9E70"/>
				<stop  offset="1" style="stop-color:#FFCA44"/>
			</linearGradient>
			<path class="st3" d="M64.2,183.5c-5.3-4.3-7.7,6.6-11.1,6.6c-3.4,0-3.8-3.5-1.1-5.5c2.7-2,10.7-3.9,14-10.3
				c3.2-6.4,0.2-15.3-3.8-14.4c-4.1,0.9-7.3,12.1-11.2,12.8s-3.7-3.2-1.1-6c2.7-2.8,10.8-7.4,12.1-14.5c1.2-7.1-6.9-12.9-10.1-10.1
				c-3.2,2.8-0.7,14.7-5.5,12.6c-4.8-2.1,0.2-9.1,2.7-15.5c2.5-6.4,0.4-15.8-8.7-15.8s-11.2,9.4-8.7,15.8c2.5,6.4,7.4,13.4,2.7,15.5
				c-4.8,2.1-2.3-9.8-5.5-12.6c-3.2-2.8-11.4,3-10.1,10.1c1.2,7.1,9.4,11.7,12.1,14.5c2.7,2.8,2.8,6.7-1.1,6
				c-3.9-0.7-7.1-11.9-11.2-12.8c-4.1-0.9-7.1,8-3.8,14.4c3.2,6.4,11.3,8.3,14,10.3c2.7,2,2.3,5.5-1.1,5.5c-3.4,0-5.8-10.8-11.1-6.6
				c-5.3,4.3-2.3,14.5,11,20.4c8.7,3.8,12.9,13.7,12.9,13.7s4.2-9.8,12.9-13.7C66.5,198,69.5,187.7,64.2,183.5z"/>
			<line class="st4" x1="40.2" y1="127.9" x2="40.2" y2="234.7"/>
			<path class="st4" d="M17.9,166.5c0,0,0,10.8,22.3,18.2"/>
			<path class="st4" d="M17.9,188.5c0,0,2.2,7.6,22.3,15.7"/>
			<path class="st4" d="M23.9,147.1c0.5,5.9,3.7,13.4,16.3,18.1"/>
			<path class="st4" d="M62.6,166.5c0,0,0,10.8-22.3,18.2"/>
			<path class="st4" d="M62.6,188.5c0,0-2.2,7.6-22.3,15.7"/>
			<path class="st4" d="M56.6,147.1c-0.5,5.9-3.7,13.4-16.3,18.1"/>
		</g>
		<g>
			<linearGradient id="SVGID_4_" gradientUnits="userSpaceOnUse" x1="282.8054" y1="195.5683" x2="220.1801" y2="195.5683">
				<stop  offset="0" style="stop-color:#5A9E70"/>
				<stop  offset="1" style="stop-color:#FFCA44"/>
			</linearGradient>
			<path class="st5" d="M271.6,205.2c-3.9-3.1-5.6,4.8-8.1,4.8c-2.5,0-2.8-2.6-0.8-4c1.9-1.4,7.8-2.9,10.2-7.5
				c2.4-4.7,0.2-11.2-2.8-10.5c-3,0.6-5.3,8.8-8.2,9.3c-2.9,0.5-2.7-2.3-0.8-4.4c1.9-2.1,7.9-5.5,8.8-10.6c0.9-5.2-5.1-9.5-7.4-7.4
				c-2.3,2.1-0.5,10.8-4,9.2c-3.5-1.6,0.1-6.7,1.9-11.4c1.8-4.7,0.3-11.6-6.4-11.6c-6.6,0-8.2,6.9-6.4,11.6
				c1.8,4.7,5.5,9.8,1.9,11.4c-3.5,1.6-1.7-7.1-4-9.2c-2.3-2.1-8.3,2.2-7.4,7.4c0.9,5.2,6.9,8.6,8.8,10.6c1.9,2.1,2.1,4.9-0.8,4.4
				c-2.9-0.5-5.2-8.7-8.2-9.3c-3-0.6-5.2,5.8-2.8,10.5c2.4,4.7,8.3,6.1,10.2,7.5c1.9,1.4,1.7,4-0.8,4c-2.5,0-4.2-7.9-8.1-4.8
				c-3.9,3.1-1.7,10.6,8.1,14.9c6.4,2.8,9.5,10,9.5,10s3.1-7.2,9.5-10C273.3,215.8,275.5,208.3,271.6,205.2z"/>
			<line class="st6" x1="254.1" y1="164.5" x2="254.1" y2="234.7"/>
			<path class="st6" d="M237.8,192.8c0,0,0,7.9,16.4,13.3"/>
			<path class="st6" d="M237.8,208.9c0,0,1.6,5.5,16.4,11.5"/>
			<path class="st6" d="M242.2,178.6c0.3,4.3,2.7,9.8,11.9,13.2"/>
			<path class="st7" d="M270.5,192.8c0,0,0,7.9-16.4,13.3"/>
			<path class="st6" d="M270.5,208.9c0,0-1.6,5.5-16.4,11.5"/>
			<path class="st6" d="M266.1,178.6c-0.3,4.3-2.7,9.8-11.9,13.2"/>
		</g>
		<line class="st8" x1="111.4" y1="186.6" x2="111.4" y2="176.9"/>
		<path class="st8" d="M127.5,223.3h32.8c1.8,0,3.2-1.4,3.2-3.2v-8.2"/>
		<g>
			<linearGradient id="SVGID_5_" gradientUnits="userSpaceOnUse" x1="238.0167" y1="133.9274" x2="238.0167" y2="32.1825">
				<stop  offset="0" style="stop-color:#FF8CB6"/>
				<stop  offset="0.1543" style="stop-color:#FF91AD"/>
				<stop  offset="0.4091" style="stop-color:#FF9F94"/>
				<stop  offset="0.7309" style="stop-color:#FFB56B"/>
				<stop  offset="1" style="stop-color:#FFCA44"/>
			</linearGradient>
			<path class="st9" d="M189.7,58.4V92c0,2.8,1.7,5.4,4.3,6.6l41.2,18.3c1.9,0.8,4,0.8,5.8,0l41.2-18.3c2.6-1.2,4.3-3.7,4.3-6.6
				V58.4c0-2.8-1.7-5.4-4.3-6.6l-41.2-18.3c-1.9-0.8-4-0.8-5.8,0l-41.2,18.3C191.3,53,189.7,55.6,189.7,58.4z"/>
			<g>
				<g>
					<g>
						<polygon class="st10" points="258.6,60.3 248.6,55.5 248.6,59.8 258.6,64.7 268.5,59.8 268.5,55.5 						"/>
						<polygon class="st11" points="258.6,64.7 248.6,59.8 248.6,64.2 258.6,69 268.5,64.2 268.5,59.8 						"/>
						<polygon class="st12" points="258.6,69.1 248.6,64.2 248.6,68.6 258.6,73.4 268.5,68.6 268.5,64.2 						"/>
						<polygon class="st13" points="258.6,73.5 248.6,68.6 248.6,72.9 258.6,77.8 268.5,72.9 268.5,68.6 						"/>
						<polygon class="st14" points="258.6,77.9 248.6,73 248.6,77.3 258.6,82.2 268.5,77.3 268.5,73 						"/>
						<polygon class="st15" points="258.6,82.2 248.6,77.4 248.6,81.7 258.6,86.6 268.5,81.7 268.5,77.4 						"/>
						<polygon class="st16" points="258.6,50.6 248.6,55.5 258.6,60.3 268.5,55.5 						"/>
					</g>
					<g>
						<polygon class="st10" points="217.5,60.3 207.5,55.5 207.5,59.8 217.5,64.7 227.4,59.8 227.4,55.5 						"/>
						<polygon class="st11" points="217.5,64.7 207.5,59.8 207.5,64.2 217.5,69 227.4,64.2 227.4,59.8 						"/>
						<polygon class="st12" points="217.5,69.1 207.5,64.2 207.5,68.6 217.5,73.4 227.4,68.6 227.4,64.2 						"/>
						<polygon class="st13" points="217.5,73.5 207.5,68.6 207.5,72.9 217.5,77.8 227.4,72.9 227.4,68.6 						"/>
						<polygon class="st14" points="217.5,77.9 207.5,73 207.5,77.3 217.5,82.2 227.4,77.3 227.4,73 						"/>
						<polygon class="st15" points="217.5,82.2 207.5,77.4 207.5,81.7 217.5,86.6 227.4,81.7 227.4,77.4 						"/>
						<polygon class="st16" points="217.5,50.6 207.5,55.5 217.5,60.3 227.4,55.5 						"/>
					</g>
				</g>
				<g class="st17">
					<path class="st18" d="M223.1,87.6V93c0,4,6.7,7.2,14.9,7.2c8.2,0,14.9-3.2,14.9-7.2v-5.4H223.1z"/>
					<path class="st16" d="M238,89.4c-6.3,0-11.6-1.9-13.8-4.5c-0.7,0.8-1.1,1.7-1.1,2.6c0,4,6.7,7.2,14.9,7.2
						c8.2,0,14.9-3.2,14.9-7.2c0-0.9-0.4-1.8-1.1-2.6C249.7,87.6,244.3,89.4,238,89.4z"/>
				</g>
				<path class="st18" d="M223.1,66.2v5.4c0,4,6.7,7.2,14.9,7.2c8.2,0,14.9-3.2,14.9-7.2v-5.4H223.1z"/>
				<g class="st19">
					<path class="st18" d="M223.1,76.9v5.4c0,4,6.7,7.2,14.9,7.2c8.2,0,14.9-3.2,14.9-7.2v-5.4H223.1z"/>
					<path class="st16" d="M238,78.7c-6.3,0-11.6-1.9-13.8-4.5c-0.7,0.8-1.1,1.7-1.1,2.6c0,4,6.7,7.2,14.9,7.2
						c8.2,0,14.9-3.2,14.9-7.2c0-0.9-0.4-1.8-1.1-2.6C249.7,76.9,244.3,78.7,238,78.7z"/>
				</g>
				<ellipse class="st16" cx="238" cy="66.2" rx="14.9" ry="7.2"/>
			</g>
		</g>
		<g>
			<rect x="85.5" y="92.9" class="st20" width="119.7" height="87.4"/>
			<linearGradient id="SVGID_6_" gradientUnits="userSpaceOnUse" x1="143.8495" y1="63.872" x2="143.8495" y2="117.0986">
				<stop  offset="0" style="stop-color:#6B9CFF"/>
				<stop  offset="1" style="stop-color:#FFFFFF"/>
			</linearGradient>
			<rect x="84" y="91.2" class="st21" width="119.7" height="87.4"/>
			<rect x="84" y="91.2" class="st18" width="119.7" height="10.4"/>
			<g>
				<line class="st8" x1="139.5" y1="149.7" x2="116.5" y2="161"/>
				<line class="st8" x1="139.1" y1="133.1" x2="117.4" y2="122.5"/>
				<line class="st8" x1="146.6" y1="149.9" x2="168.7" y2="160.7"/>
				<line class="st8" x1="146.6" y1="133.1" x2="168.9" y2="122.2"/>
				<g>
					<g>
						<linearGradient id="SVGID_7_" gradientUnits="userSpaceOnUse" x1="154.9931" y1="147.2723" x2="138.5693" y2="147.2723">
							<stop  offset="0" style="stop-color:#6B9CFF"/>
							<stop  offset="1" style="stop-color:#5683DF"/>
						</linearGradient>
						<polygon class="st22" points="142.8,146.9 131.3,141.3 131.3,147.6 142.8,153.3 154.4,147.6 154.4,141.3 						"/>
						<polygon class="st23" points="142.8,135.6 131.3,141.3 142.8,146.9 154.4,141.3 						"/>
						<linearGradient id="SVGID_8_" gradientUnits="userSpaceOnUse" x1="137.0628" y1="136.2421" x2="137.0628" y2="154.5103">
							<stop  offset="0" style="stop-color:#FFFFFF"/>
							<stop  offset="1" style="stop-color:#000000"/>
						</linearGradient>
						<polygon class="st24" points="131.3,141.3 131.3,147.6 142.8,153.3 142.8,146.9 						"/>
					</g>
					<g>
						<linearGradient id="SVGID_9_" gradientUnits="userSpaceOnUse" x1="154.9931" y1="138.1617" x2="138.5693" y2="138.1617">
							<stop  offset="0" style="stop-color:#6B9CFF"/>
							<stop  offset="1" style="stop-color:#5683DF"/>
						</linearGradient>
						<polygon class="st25" points="142.8,137.8 131.3,132.2 131.3,138.5 142.8,144.1 154.4,138.5 154.4,132.2 						"/>
						<polygon class="st23" points="142.8,126.5 131.3,132.2 142.8,137.8 154.4,132.2 						"/>
						<linearGradient id="SVGID_10_" gradientUnits="userSpaceOnUse" x1="137.0628" y1="127.1315" x2="137.0628" y2="145.3999">
							<stop  offset="0" style="stop-color:#FFFFFF"/>
							<stop  offset="1" style="stop-color:#000000"/>
						</linearGradient>
						<polygon class="st26" points="131.3,132.2 131.3,138.5 142.8,144.1 142.8,137.8 						"/>
					</g>
				</g>
				<g>
					<g>
						<linearGradient id="SVGID_11_" gradientUnits="userSpaceOnUse" x1="190.2488" y1="165.5014" x2="173.825" y2="165.5014">
							<stop  offset="0" style="stop-color:#6B9CFF"/>
							<stop  offset="1" style="stop-color:#5683DF"/>
						</linearGradient>
						<polygon class="st27" points="178.1,165.2 166.5,159.5 166.5,165.8 178.1,171.5 189.7,165.8 189.7,159.5 						"/>
						<polygon class="st23" points="178.1,153.9 166.5,159.5 178.1,165.2 189.7,159.5 						"/>
						<linearGradient id="SVGID_12_" gradientUnits="userSpaceOnUse" x1="172.3185" y1="154.4712" x2="172.3185" y2="172.7394">
							<stop  offset="0" style="stop-color:#FFFFFF"/>
							<stop  offset="1" style="stop-color:#000000"/>
						</linearGradient>
						<polygon class="st28" points="166.5,159.5 166.5,165.8 178.1,171.5 178.1,165.2 						"/>
					</g>
					<g>
						<linearGradient id="SVGID_13_" gradientUnits="userSpaceOnUse" x1="190.2488" y1="156.3909" x2="173.825" y2="156.3909">
							<stop  offset="0" style="stop-color:#6B9CFF"/>
							<stop  offset="1" style="stop-color:#5683DF"/>
						</linearGradient>
						<polygon class="st29" points="178.1,156.1 166.5,150.4 166.5,156.7 178.1,162.4 189.7,156.7 189.7,150.4 						"/>
						<polygon class="st23" points="178.1,144.7 166.5,150.4 178.1,156.1 189.7,150.4 						"/>
						<linearGradient id="SVGID_14_" gradientUnits="userSpaceOnUse" x1="172.3185" y1="145.3606" x2="172.3185" y2="163.629">
							<stop  offset="0" style="stop-color:#FFFFFF"/>
							<stop  offset="1" style="stop-color:#000000"/>
						</linearGradient>
						<polygon class="st30" points="166.5,150.4 166.5,156.7 178.1,162.4 178.1,156.1 						"/>
					</g>
				</g>
				<g>
					<g>
						<linearGradient id="SVGID_15_" gradientUnits="userSpaceOnUse" x1="190.2488" y1="128.6991" x2="173.825" y2="128.6991">
							<stop  offset="0" style="stop-color:#6B9CFF"/>
							<stop  offset="1" style="stop-color:#5683DF"/>
						</linearGradient>
						<polygon class="st31" points="178.1,128.4 166.5,122.7 166.5,129 178.1,134.7 189.7,129 189.7,122.7 						"/>
						<polygon class="st23" points="178.1,117.1 166.5,122.7 178.1,128.4 189.7,122.7 						"/>
						<linearGradient id="SVGID_16_" gradientUnits="userSpaceOnUse" x1="172.3185" y1="117.6688" x2="172.3185" y2="135.9371">
							<stop  offset="0" style="stop-color:#FFFFFF"/>
							<stop  offset="1" style="stop-color:#000000"/>
						</linearGradient>
						<polygon class="st32" points="166.5,122.7 166.5,129 178.1,134.7 178.1,128.4 						"/>
					</g>
					<g>
						<linearGradient id="SVGID_17_" gradientUnits="userSpaceOnUse" x1="190.2488" y1="119.5885" x2="173.825" y2="119.5885">
							<stop  offset="0" style="stop-color:#6B9CFF"/>
							<stop  offset="1" style="stop-color:#5683DF"/>
						</linearGradient>
						<polygon class="st33" points="178.1,119.3 166.5,113.6 166.5,119.9 178.1,125.6 189.7,119.9 189.7,113.6 						"/>
						<polygon class="st23" points="178.1,107.9 166.5,113.6 178.1,119.3 189.7,113.6 						"/>
						<linearGradient id="SVGID_18_" gradientUnits="userSpaceOnUse" x1="172.3185" y1="108.5583" x2="172.3185" y2="126.8265">
							<stop  offset="0" style="stop-color:#FFFFFF"/>
							<stop  offset="1" style="stop-color:#000000"/>
						</linearGradient>
						<polygon class="st34" points="166.5,113.6 166.5,119.9 178.1,125.6 178.1,119.3 						"/>
					</g>
				</g>
				<g>
					<g>
						<linearGradient id="SVGID_19_" gradientUnits="userSpaceOnUse" x1="119.7374" y1="165.5014" x2="103.3136" y2="165.5014">
							<stop  offset="0" style="stop-color:#6B9CFF"/>
							<stop  offset="1" style="stop-color:#5683DF"/>
						</linearGradient>
						<polygon class="st35" points="107.6,165.2 96,159.5 96,165.8 107.6,171.5 119.2,165.8 119.2,159.5 						"/>
						<polygon class="st23" points="107.6,153.9 96,159.5 107.6,165.2 119.2,159.5 						"/>
						<linearGradient id="SVGID_20_" gradientUnits="userSpaceOnUse" x1="101.807" y1="154.4712" x2="101.807" y2="172.7394">
							<stop  offset="0" style="stop-color:#FFFFFF"/>
							<stop  offset="1" style="stop-color:#000000"/>
						</linearGradient>
						<polygon class="st36" points="96,159.5 96,165.8 107.6,171.5 107.6,165.2 						"/>
					</g>
					<g>
						<linearGradient id="SVGID_21_" gradientUnits="userSpaceOnUse" x1="119.7374" y1="156.3909" x2="103.3136" y2="156.3909">
							<stop  offset="0" style="stop-color:#6B9CFF"/>
							<stop  offset="1" style="stop-color:#5683DF"/>
						</linearGradient>
						<polygon class="st37" points="107.6,156.1 96,150.4 96,156.7 107.6,162.4 119.2,156.7 119.2,150.4 						"/>
						<polygon class="st23" points="107.6,144.7 96,150.4 107.6,156.1 119.2,150.4 						"/>
						<linearGradient id="SVGID_22_" gradientUnits="userSpaceOnUse" x1="101.807" y1="145.3606" x2="101.807" y2="163.629">
							<stop  offset="0" style="stop-color:#FFFFFF"/>
							<stop  offset="1" style="stop-color:#000000"/>
						</linearGradient>
						<polygon class="st38" points="96,150.4 96,156.7 107.6,162.4 107.6,156.1 						"/>
					</g>
				</g>
				<g>
					<g>
						<linearGradient id="SVGID_23_" gradientUnits="userSpaceOnUse" x1="119.7374" y1="128.6991" x2="103.3136" y2="128.6991">
							<stop  offset="0" style="stop-color:#6B9CFF"/>
							<stop  offset="1" style="stop-color:#5683DF"/>
						</linearGradient>
						<polygon class="st39" points="107.6,128.4 96,122.7 96,129 107.6,134.7 119.2,129 119.2,122.7 						"/>
						<polygon class="st23" points="107.6,117.1 96,122.7 107.6,128.4 119.2,122.7 						"/>
						<linearGradient id="SVGID_24_" gradientUnits="userSpaceOnUse" x1="101.807" y1="117.6688" x2="101.807" y2="135.9371">
							<stop  offset="0" style="stop-color:#FFFFFF"/>
							<stop  offset="1" style="stop-color:#000000"/>
						</linearGradient>
						<polygon class="st40" points="96,122.7 96,129 107.6,134.7 107.6,128.4 						"/>
					</g>
					<g>
						<linearGradient id="SVGID_25_" gradientUnits="userSpaceOnUse" x1="119.7374" y1="119.5885" x2="103.3136" y2="119.5885">
							<stop  offset="0" style="stop-color:#6B9CFF"/>
							<stop  offset="1" style="stop-color:#5683DF"/>
						</linearGradient>
						<polygon class="st41" points="107.6,119.3 96,113.6 96,119.9 107.6,125.6 119.2,119.9 119.2,113.6 						"/>
						<polygon class="st23" points="107.6,107.9 96,113.6 107.6,119.3 119.2,113.6 						"/>
						<linearGradient id="SVGID_26_" gradientUnits="userSpaceOnUse" x1="101.807" y1="108.5583" x2="101.807" y2="126.8265">
							<stop  offset="0" style="stop-color:#FFFFFF"/>
							<stop  offset="1" style="stop-color:#000000"/>
						</linearGradient>
						<polygon class="st42" points="96,113.6 96,119.9 107.6,125.6 107.6,119.3 						"/>
					</g>
				</g>
			</g>
			<g>
				<path class="st43" d="M178.3,96.4c0,0.9-0.7,1.6-1.6,1.6c-0.9,0-1.6-0.7-1.6-1.6s0.7-1.6,1.6-1.6
					C177.6,94.8,178.3,95.5,178.3,96.4z"/>
				<circle class="st43" cx="186" cy="96.4" r="1.6"/>
				<circle class="st43" cx="195.4" cy="96.4" r="1.6"/>
			</g>
		</g>
		<linearGradient id="SVGID_27_" gradientUnits="userSpaceOnUse" x1="160.4809" y1="71.8797" x2="86.7221" y2="71.8797">
			<stop  offset="0" style="stop-color:#FFE4A1"/>
			<stop  offset="1" style="stop-color:#FFCA44"/>
		</linearGradient>
		<path class="st44" d="M164,82c0,0-71.9,0-78.3,0c-6.5,0-4.1-3.2,2.7-5.5c6.8-2.3,5.4-12,13.9-14.3c6.9-1.9,9,3.1,16.1,2.4
			c7.1-0.7,10.8-1.1,13.8,1c3.3,2.4,1.9,8.5,8.5,9c6.6,0.5,11.6,2.5,14.4,4.9C158,82,164,82,164,82z"/>
		<path class="st45" d="M59.4,91.2c-3.5,1.2-4.5,2.2-5.7,5.7c-1.2-3.5-2.2-4.5-5.7-5.7c3.5-1.2,4.5-2.2,5.7-5.7
			C54.9,89,55.9,90,59.4,91.2z"/>
		<path class="st45" d="M178,74.2c-3.5,1.2-4.5,2.2-5.7,5.7c-1.2-3.5-2.2-4.5-5.7-5.7c3.5-1.2,4.5-2.2,5.7-5.7
			C173.5,72.1,174.5,73,178,74.2z"/>
		<circle class="st45" cx="273.9" cy="159.5" r="5.7"/>
		<path class="st45" d="M67.7,80.9c-1.8,0.6-2.3,1.1-2.9,2.9c-0.6-1.8-1.1-2.3-2.9-2.9c1.8-0.6,2.3-1.1,2.9-2.9
			C65.5,79.8,66,80.3,67.7,80.9z"/>
		<path class="st45" d="M169.4,62c-1.8,0.6-2.3,1.1-2.9,2.9c-0.6-1.8-1.1-2.3-2.9-2.9c1.8-0.6,2.3-1.1,2.9-2.9
			C167.1,60.9,167.6,61.4,169.4,62z"/>
		<path class="st45" d="M273.3,119.9c-1.8,0.6-2.3,1.1-2.9,2.9c-0.6-1.8-1.1-2.3-2.9-2.9c1.8-0.6,2.3-1.1,2.9-2.9
			C271.1,118.9,271.6,119.4,273.3,119.9z"/>
		<g>
			<path class="st46" d="M203.1,227.2c0,0,0.9,4.4,0.5,7.6l-3.2-0.2l-0.1-1.3l-1.5,1.2c0,0-6.1-0.1-9.4-3c0,0,8.7-0.4,10.5-3.9
				L203.1,227.2z"/>
			<path class="st46" d="M239.4,226.9c0,0,1.7,4.1,2,7.3l-3.1,0.4l-0.4-1.3l-1.2,1.4c0,0-6,1.1-9.8-1.1c0,0,8.4-2.1,9.6-5.9
				L239.4,226.9z"/>
			<path class="st47" d="M215.4,158.9c0,0-8.8,19.1-16.5,69.2h4.7c0,0,7.8-14.5,7.5-29l11.7-28.3c0,0,0.4,18.4,1.9,27.9
				c1.6,9.5,11.1,29.3,11.1,29.3h4.5c0,0-2.2-23-8.2-30.3c0,0,4.3-26,1.8-39H215.4z"/>
			<path class="st48" d="M230.9,164.8l-1.4,34.9c0,0,4.7,6.5,9.5,28.5"/>
			<path class="st49" d="M208.5,142l-1.7,6.1c0,0-9.3,14.9-10.1,17.6c-0.8,2.7-0.8,5-0.3,6.1l2.3,0.8l1-0.8c0,0-0.6-1.4,0-3.5
				c0,0,1.1,0.6,1.2,1.9c0,0,0.6,0.2,0.7-0.4c0.1-0.6-0.2-3.7-1.2-4.9c0,0,8.7-10.2,10.8-13.5c2.5-4,3.2-7.7,3.2-7.7L208.5,142z"/>
			<linearGradient id="SVGID_28_" gradientUnits="userSpaceOnUse" x1="205.6747" y1="156.5965" x2="212.4922" y2="141.0136">
				<stop  offset="0" style="stop-color:#FFFFFF"/>
				<stop  offset="0.1227" style="stop-color:#DADADA"/>
				<stop  offset="0.4483" style="stop-color:#7E7E7E"/>
				<stop  offset="0.7128" style="stop-color:#3A3A3A"/>
				<stop  offset="0.9029" style="stop-color:#101010"/>
				<stop  offset="1" style="stop-color:#000000"/>
			</linearGradient>
			<path class="st50" d="M208.5,142l-0.8,2.8l2.6,7.9c0.4-0.5,0.7-0.9,0.9-1.3c2.5-4,3.2-7.7,3.2-7.7L208.5,142z"/>
			<path class="st16" d="M214.2,127.6c-1.6,1-7,14.6-7,14.6s2.3,2.9,7.4,3.4c0,0,0.8-3.5,1.3-7C216.9,132.3,214.2,127.6,214.2,127.6
				z"/>
			<linearGradient id="SVGID_29_" gradientUnits="userSpaceOnUse" x1="211.4444" y1="141.664" x2="217.3312" y2="130.9725">
				<stop  offset="0" style="stop-color:#FFFFFF"/>
				<stop  offset="0.1227" style="stop-color:#DADADA"/>
				<stop  offset="0.4483" style="stop-color:#7E7E7E"/>
				<stop  offset="0.7128" style="stop-color:#3A3A3A"/>
				<stop  offset="0.9029" style="stop-color:#101010"/>
				<stop  offset="1" style="stop-color:#000000"/>
			</linearGradient>
			<path class="st51" d="M214.3,145.5c0.1,0,0.2,0,0.2,0c0.4-0.6,1-4.4,1.6-8.5c0.3-5.5-1.9-9.4-1.9-9.4c-0.7,0.5-2.3,3.6-3.7,6.9
				C211.8,138.4,213.8,144.1,214.3,145.5z"/>
			<path class="st47" d="M211.2,106.9c1.5-1.7,3.9,0,7.7,0c3.8,0,5.6-0.2,6.8,1.5c1.1,1.7,0.2,3.6,1.1,4.7c1,1.1,2.3,1,2.3,2.6
				c0,1.6-1.6,2-1.7,3.3c-0.2,1.3,0.9,2.6-3.7,3.5c-4.5,0.9-6.9,3-9.1,1.7c-2.2-1.3-2-3-2.5-4.6c-0.5-1.6-2.2-2-2.3-3.8
				c0-1.8,1.3-3.1,1.4-4.4C211.3,109.9,210.1,108.1,211.2,106.9z"/>
			<path class="st16" d="M225.3,123.9c0,0,3.4,0.7,7.6,2.2c0,0,1.5,8.3,1.8,15.4c0.3,7,1.2,19,1.2,19s-6.3,0.7-9.2,1.6
				s-9.2,2.3-13-0.3c0,0,0.8-7.3,0.7-13.6c-0.1-6.2-0.8-16.6-0.1-20.5C214.2,127.6,217.4,124.9,225.3,123.9z"/>
			<linearGradient id="SVGID_30_" gradientUnits="userSpaceOnUse" x1="210.0544" y1="157.3257" x2="226.8659" y2="157.3257">
				<stop  offset="0" style="stop-color:#FFFFFF"/>
				<stop  offset="0.1227" style="stop-color:#DADADA"/>
				<stop  offset="0.4483" style="stop-color:#7E7E7E"/>
				<stop  offset="0.7128" style="stop-color:#3A3A3A"/>
				<stop  offset="0.9029" style="stop-color:#101010"/>
				<stop  offset="1" style="stop-color:#000000"/>
			</linearGradient>
			<path class="st52" d="M219.1,157.3c0,8.4,6.8,15.3,15.3,15.3c0.1,0,0.3,0,0.4,0c0.1-4.3,0-8.5-0.4-12c1-0.1,1.6-0.2,1.6-0.2
				s-0.8-11.2-1.1-18.3c-0.1,0-0.3,0-0.4,0C225.9,142.1,219.1,148.9,219.1,157.3z"/>
			<g>
				
					<ellipse transform="matrix(0.2283 -0.9736 0.9736 0.2283 30.0597 350.0547)" class="st45" cx="235.8" cy="156.1" rx="15.3" ry="15.3"/>
				<path class="st18" d="M241.2,156.1c0.8-0.8,1.3-1.9,1.3-3.1c0-2.3-1.9-4.2-4.2-4.2h-0.3v-1.4h-2.4v1.4h-1.3v-1.4h-2.4v1.4H230
					v2.4h1.8v9.8H230v2.4h1.8v1.4h2.4v-1.4h1.3v1.4h2.4v-1.4h0.3c2.3,0,4.2-1.9,4.2-4.2C242.5,157.9,242,156.8,241.2,156.1z
					 M238.2,151.2c1,0,1.9,0.8,1.9,1.9c0,1-0.8,1.9-1.9,1.9h-4v-3.7H238.2z M238.2,161h-4v-3.7h4c1,0,1.9,0.8,1.9,1.9
					C240.1,160.1,239.3,161,238.2,161z"/>
				<circle class="st53" cx="235.8" cy="156.1" r="12.4"/>
			</g>
			<linearGradient id="SVGID_31_" gradientUnits="userSpaceOnUse" x1="238.313" y1="134.9899" x2="238.313" y2="154.6707">
				<stop  offset="0" style="stop-color:#FFFFFF"/>
				<stop  offset="0.1227" style="stop-color:#DADADA"/>
				<stop  offset="0.4483" style="stop-color:#7E7E7E"/>
				<stop  offset="0.7128" style="stop-color:#3A3A3A"/>
				<stop  offset="0.9029" style="stop-color:#101010"/>
				<stop  offset="1" style="stop-color:#000000"/>
			</linearGradient>
			<path class="st54" d="M231.6,141.4l5.1,7.5v15.6l-1.9,6.7c0.3,0,0.7,0.1,1.1,0.1c1.5,0,3-0.2,4.3-0.6l-0.5-4.8l5.4-19.8l-2.9-3.8
				c-1.9-0.9-4.1-1.4-6.3-1.4C234.4,140.8,232.9,141,231.6,141.4z"/>
			<path class="st49" d="M237.9,142.3l3,4.5l-3,18c0,0-2.3,5.5-2,6.6c0.3,1,1.8-2,1.8-2l-0.2,3.4c0,0.6,0.6,1.1,1.2,0.8l2.4-1
				c0.5-0.2,0.9-0.7,0.9-1.3c0.1-1.3,0.2-3.8-0.7-5.9c0,0,5.7-13.8,5.8-18c0.1-4-5.7-10-5.7-10L237.9,142.3z"/>
			<path class="st16" d="M232.9,126.1c2.8,0.2,10.3,12.2,10.3,12.2s-1.2,4-5.8,5.6c0,0-3.4-4.9-5.7-8
				C229.1,132.3,230.1,125.8,232.9,126.1z"/>
			<path class="st49" d="M225.3,123.9c0,0-1.9-3.4-2.6-4.9c1.2-0.5,1.4-3,0-3.5c-1.4-0.5-1.5,1.6-1.5,1.6s-0.3-0.7-0.6-1.7
				c-3.2-1.2-5.9-4.4-5.9-4.4s-0.7,2.3-0.4,4.5c-0.6,0.6-1.1,1.2-1.1,1.2l1.3,0.2c0,0,0,2.4,0,3.6c0,1.1,2.3,0.4,2.9,0.9
				c0.6,0.5,1.8,4.4,1.8,4.4S220.7,127.2,225.3,123.9z"/>
			<line class="st55" x1="230.6" y1="133.8" x2="234.1" y2="139.2"/>
			<line class="st55" x1="214.4" y1="144.5" x2="214" y2="134.1"/>
			<g class="st17">
				<linearGradient id="SVGID_32_" gradientUnits="userSpaceOnUse" x1="215.5272" y1="126.9968" x2="220.9011" y2="114.7135">
					<stop  offset="0" style="stop-color:#FFFFFF"/>
					<stop  offset="0.1227" style="stop-color:#DADADA"/>
					<stop  offset="0.4483" style="stop-color:#7E7E7E"/>
					<stop  offset="0.7128" style="stop-color:#3A3A3A"/>
					<stop  offset="0.9029" style="stop-color:#101010"/>
					<stop  offset="1" style="stop-color:#000000"/>
				</linearGradient>
				<path class="st56" d="M220.8,116.2L220.8,116.2c0,0-2.8,4.6-5.5,4.9c0.7,0.1,1.8,0,2.1,0.3c0.3,0.3,0.7,1.3,1.1,2.3
					c0.4,0,0.7,0,1-0.1c1.6-0.8,1.6-6.6,1.6-6.6S221,116.7,220.8,116.2z"/>
				<linearGradient id="SVGID_33_" gradientUnits="userSpaceOnUse" x1="220.8234" y1="117.4917" x2="221.5486" y2="115.8341">
					<stop  offset="0" style="stop-color:#FFFFFF"/>
					<stop  offset="0.1227" style="stop-color:#DADADA"/>
					<stop  offset="0.4483" style="stop-color:#7E7E7E"/>
					<stop  offset="0.7128" style="stop-color:#3A3A3A"/>
					<stop  offset="0.9029" style="stop-color:#101010"/>
					<stop  offset="1" style="stop-color:#000000"/>
				</linearGradient>
				<path class="st57" d="M221.1,117l0.3-1C221.2,116.4,221.1,117,221.1,117z"/>
			</g>
		</g>
		<g>
			<circle class="st58" cx="260.1" cy="139.2" r="11.9"/>
			<path class="st0" d="M264.3,139.2c0.6-0.6,1-1.4,1-2.4c0-1.8-1.5-3.3-3.3-3.3h-0.2v-1.1h-1.9v1.1h-1.1v-1.1h-1.9v1.1h-1.4v1.9
				h1.4v7.7h-1.4v1.9h1.4v1.1h1.9v-1.1h1.1v1.1h1.9v-1.1h0.2c1.8,0,3.3-1.5,3.3-3.3C265.3,140.7,264.9,139.8,264.3,139.2z
				 M262,135.4c0.8,0,1.4,0.6,1.4,1.4c0,0.8-0.6,1.4-1.4,1.4h-3.2v-2.9H262z M262,143.1h-3.2v-2.9h3.2c0.8,0,1.4,0.6,1.4,1.4
				C263.4,142.4,262.8,143.1,262,143.1z"/>
			
				<ellipse transform="matrix(0.9229 -0.3849 0.3849 0.9229 -33.559 110.8494)" class="st59" cx="260.1" cy="139.2" rx="9.6" ry="9.6"/>
		</g>
		<g>
			<linearGradient id="SVGID_34_" gradientUnits="userSpaceOnUse" x1="250.4387" y1="93.4791" x2="250.4387" y2="122.5715">
				<stop  offset="0" style="stop-color:#FFFFFF"/>
				<stop  offset="0.1227" style="stop-color:#DADADA"/>
				<stop  offset="0.4483" style="stop-color:#7E7E7E"/>
				<stop  offset="0.7128" style="stop-color:#3A3A3A"/>
				<stop  offset="0.9029" style="stop-color:#101010"/>
				<stop  offset="1" style="stop-color:#000000"/>
			</linearGradient>
			<path class="st60" d="M261.1,99.3h-21.4c-1.8,0-3.2,1.5-3.2,3.2v13.9c0,1.8,1.5,3.2,3.2,3.2h3.8c-0.1,2.5-1.7,4.6-4,5.5
				c0.7,0.3,1.5,0.5,2.4,0.5c3.4,0,6.1-2.6,6.3-6h12.9c1.8,0,3.2-1.5,3.2-3.2v-13.9C264.4,100.7,262.9,99.3,261.1,99.3z"/>
			<path class="st45" d="M260,98.1h-21.4c-1.8,0-3.2,1.5-3.2,3.2v13.9c0,1.8,1.5,3.2,3.2,3.2h3.8c-0.1,2.5-1.7,4.6-4,5.5
				c0.7,0.3,1.5,0.5,2.4,0.5c3.4,0,6.1-2.6,6.3-6H260c1.8,0,3.2-1.5,3.2-3.2v-13.9C263.2,99.6,261.8,98.1,260,98.1z"/>
			<linearGradient id="SVGID_35_" gradientUnits="userSpaceOnUse" x1="250.1082" y1="98.7276" x2="250.1082" y2="113.7373">
				<stop  offset="0" style="stop-color:#FFFFFF"/>
				<stop  offset="0.1227" style="stop-color:#DADADA"/>
				<stop  offset="0.4483" style="stop-color:#7E7E7E"/>
				<stop  offset="0.7128" style="stop-color:#3A3A3A"/>
				<stop  offset="0.9029" style="stop-color:#101010"/>
				<stop  offset="1" style="stop-color:#000000"/>
			</linearGradient>
			<path class="st61" d="M253.9,106.9v-2.3c0-2.1-1.7-3.8-3.8-3.8s-3.8,1.7-3.8,3.8v2.3h-0.8v8.7h9.2v-8.7H253.9z M247.3,104.6
				c0-1.5,1.2-2.8,2.8-2.8c1.5,0,2.8,1.2,2.8,2.8v2.3h-5.5V104.6z"/>
			<g>
				<g>
					<path class="st62" d="M253.1,108.3h-7.6v-4.4c0-2.1,1.7-3.8,3.8-3.8c2.1,0,3.8,1.7,3.8,3.8V108.3z M246.6,107.2h5.5v-3.4
						c0-1.5-1.2-2.8-2.8-2.8c-1.5,0-2.8,1.2-2.8,2.8V107.2z"/>
				</g>
				<rect x="244.7" y="106.1" class="st0" width="9.2" height="8.7"/>
				<path class="st63" d="M250.4,109.3c0-0.6-0.5-1.1-1.1-1.1s-1.1,0.5-1.1,1.1c0,0.3,0.1,0.6,0.3,0.8l-0.3,2.3h2.3l-0.3-2.3
					C250.3,109.9,250.4,109.7,250.4,109.3z"/>
				<g>
					<line class="st48" x1="244.4" y1="113.9" x2="254.3" y2="113.9"/>
					<line class="st48" x1="244.4" y1="107.1" x2="254.3" y2="107.1"/>
				</g>
			</g>
		</g>
		<g>
			<path class="st45" d="M127.5,199H95.3c-0.7,0-1.2-0.5-1.2-1.2v-8.1c0-0.7,0.5-1.2,1.2-1.2h32.1c0.7,0,1.2,0.5,1.2,1.2v8.1
				C128.7,198.5,128.1,199,127.5,199z"/>
			<path class="st64" d="M125.7,191.7H115c-0.3,0-0.5-0.2-0.5-0.5l0,0c0-0.3,0.2-0.5,0.5-0.5h10.7c0.3,0,0.5,0.2,0.5,0.5l0,0
				C126.2,191.5,125.9,191.7,125.7,191.7z"/>
			<g>
				<g>
					<circle class="st65" cx="97.2" cy="191.3" r="0.5"/>
					<path class="st65" d="M100.8,191.3c0,0.3-0.2,0.5-0.5,0.5c-0.3,0-0.5-0.2-0.5-0.5s0.2-0.5,0.5-0.5
						C100.6,190.8,100.8,191,100.8,191.3z"/>
					<path class="st65" d="M104,191.3c0,0.3-0.2,0.5-0.5,0.5c-0.3,0-0.5-0.2-0.5-0.5s0.2-0.5,0.5-0.5C103.8,190.8,104,191,104,191.3
						z"/>
					<path class="st65" d="M107.2,191.3c0,0.3-0.2,0.5-0.5,0.5c-0.3,0-0.5-0.2-0.5-0.5s0.2-0.5,0.5-0.5
						C106.9,190.8,107.2,191,107.2,191.3z"/>
				</g>
				<g>
					<circle class="st65" cx="97.2" cy="193.7" r="0.5"/>
					<path class="st65" d="M100.8,193.7c0,0.3-0.2,0.5-0.5,0.5c-0.3,0-0.5-0.2-0.5-0.5s0.2-0.5,0.5-0.5
						C100.6,193.2,100.8,193.4,100.8,193.7z"/>
					<path class="st65" d="M104,193.7c0,0.3-0.2,0.5-0.5,0.5c-0.3,0-0.5-0.2-0.5-0.5s0.2-0.5,0.5-0.5
						C103.8,193.2,104,193.4,104,193.7z"/>
					<path class="st65" d="M107.2,193.7c0,0.3-0.2,0.5-0.5,0.5c-0.3,0-0.5-0.2-0.5-0.5s0.2-0.5,0.5-0.5
						C106.9,193.2,107.2,193.4,107.2,193.7z"/>
				</g>
				<g>
					<path class="st65" d="M97.7,196.2c0,0.3-0.2,0.5-0.5,0.5c-0.3,0-0.5-0.2-0.5-0.5c0-0.3,0.2-0.5,0.5-0.5
						C97.4,195.6,97.7,195.9,97.7,196.2z"/>
					<path class="st65" d="M100.8,196.2c0,0.3-0.2,0.5-0.5,0.5c-0.3,0-0.5-0.2-0.5-0.5c0-0.3,0.2-0.5,0.5-0.5
						C100.6,195.6,100.8,195.9,100.8,196.2z"/>
					<path class="st65" d="M104,196.2c0,0.3-0.2,0.5-0.5,0.5c-0.3,0-0.5-0.2-0.5-0.5c0-0.3,0.2-0.5,0.5-0.5
						C103.8,195.6,104,195.9,104,196.2z"/>
					<path class="st65" d="M107.2,196.2c0,0.3-0.2,0.5-0.5,0.5c-0.3,0-0.5-0.2-0.5-0.5c0-0.3,0.2-0.5,0.5-0.5
						C106.9,195.6,107.2,195.9,107.2,196.2z"/>
				</g>
			</g>
			<path class="st66" d="M94.1,197.8L94.1,197.8c0,0.7,0.5,1.2,1.2,1.2h32.1c0.7,0,1.2-0.5,1.2-1.2v0H94.1z"/>
		</g>
		<g>
			<path class="st45" d="M127.5,213.8H95.3c-0.7,0-1.2-0.5-1.2-1.2v-8.1c0-0.7,0.5-1.2,1.2-1.2h32.1c0.7,0,1.2,0.5,1.2,1.2v8.1
				C128.7,213.3,128.1,213.8,127.5,213.8z"/>
			<path class="st64" d="M125.7,206.5H115c-0.3,0-0.5-0.2-0.5-0.5l0,0c0-0.3,0.2-0.5,0.5-0.5h10.7c0.3,0,0.5,0.2,0.5,0.5l0,0
				C126.2,206.3,125.9,206.5,125.7,206.5z"/>
			<g>
				<g>
					<circle class="st65" cx="97.2" cy="206.1" r="0.5"/>
					<path class="st65" d="M100.8,206.1c0,0.3-0.2,0.5-0.5,0.5c-0.3,0-0.5-0.2-0.5-0.5c0-0.3,0.2-0.5,0.5-0.5
						C100.6,205.6,100.8,205.8,100.8,206.1z"/>
					<path class="st65" d="M104,206.1c0,0.3-0.2,0.5-0.5,0.5c-0.3,0-0.5-0.2-0.5-0.5c0-0.3,0.2-0.5,0.5-0.5
						C103.8,205.6,104,205.8,104,206.1z"/>
					<path class="st65" d="M107.2,206.1c0,0.3-0.2,0.5-0.5,0.5c-0.3,0-0.5-0.2-0.5-0.5c0-0.3,0.2-0.5,0.5-0.5
						C106.9,205.6,107.2,205.8,107.2,206.1z"/>
				</g>
				<g>
					<circle class="st65" cx="97.2" cy="208.5" r="0.5"/>
					<path class="st65" d="M100.8,208.5c0,0.3-0.2,0.5-0.5,0.5c-0.3,0-0.5-0.2-0.5-0.5s0.2-0.5,0.5-0.5
						C100.6,208,100.8,208.2,100.8,208.5z"/>
					<path class="st65" d="M104,208.5c0,0.3-0.2,0.5-0.5,0.5c-0.3,0-0.5-0.2-0.5-0.5s0.2-0.5,0.5-0.5C103.8,208,104,208.2,104,208.5
						z"/>
					<path class="st65" d="M107.2,208.5c0,0.3-0.2,0.5-0.5,0.5c-0.3,0-0.5-0.2-0.5-0.5s0.2-0.5,0.5-0.5
						C106.9,208,107.2,208.2,107.2,208.5z"/>
				</g>
				<g>
					<circle class="st65" cx="97.2" cy="211" r="0.5"/>
					<path class="st65" d="M100.8,211c0,0.3-0.2,0.5-0.5,0.5c-0.3,0-0.5-0.2-0.5-0.5c0-0.3,0.2-0.5,0.5-0.5
						C100.6,210.4,100.8,210.7,100.8,211z"/>
					<path class="st65" d="M104,211c0,0.3-0.2,0.5-0.5,0.5c-0.3,0-0.5-0.2-0.5-0.5c0-0.3,0.2-0.5,0.5-0.5
						C103.8,210.4,104,210.7,104,211z"/>
					<path class="st65" d="M107.2,211c0,0.3-0.2,0.5-0.5,0.5c-0.3,0-0.5-0.2-0.5-0.5c0-0.3,0.2-0.5,0.5-0.5
						C106.9,210.4,107.2,210.7,107.2,211z"/>
				</g>
			</g>
			<path class="st66" d="M94.1,212.6L94.1,212.6c0,0.7,0.5,1.2,1.2,1.2h32.1c0.7,0,1.2-0.5,1.2-1.2v0H94.1z"/>
		</g>
		<g>
			<path class="st45" d="M127.5,228.6H95.3c-0.7,0-1.2-0.5-1.2-1.2v-8.1c0-0.7,0.5-1.2,1.2-1.2h32.1c0.7,0,1.2,0.5,1.2,1.2v8.1
				C128.7,228.1,128.1,228.6,127.5,228.6z"/>
			<path class="st64" d="M125.7,221.3H115c-0.3,0-0.5-0.2-0.5-0.5l0,0c0-0.3,0.2-0.5,0.5-0.5h10.7c0.3,0,0.5,0.2,0.5,0.5l0,0
				C126.2,221.1,125.9,221.3,125.7,221.3z"/>
			<g>
				<g>
					<circle class="st65" cx="97.2" cy="220.9" r="0.5"/>
					<path class="st65" d="M100.8,220.9c0,0.3-0.2,0.5-0.5,0.5c-0.3,0-0.5-0.2-0.5-0.5c0-0.3,0.2-0.5,0.5-0.5
						C100.6,220.4,100.8,220.6,100.8,220.9z"/>
					<path class="st65" d="M104,220.9c0,0.3-0.2,0.5-0.5,0.5c-0.3,0-0.5-0.2-0.5-0.5c0-0.3,0.2-0.5,0.5-0.5
						C103.8,220.4,104,220.6,104,220.9z"/>
					<path class="st65" d="M107.2,220.9c0,0.3-0.2,0.5-0.5,0.5c-0.3,0-0.5-0.2-0.5-0.5c0-0.3,0.2-0.5,0.5-0.5
						C106.9,220.4,107.2,220.6,107.2,220.9z"/>
				</g>
				<g>
					<circle class="st65" cx="97.2" cy="223.3" r="0.5"/>
					<path class="st65" d="M100.8,223.3c0,0.3-0.2,0.5-0.5,0.5c-0.3,0-0.5-0.2-0.5-0.5c0-0.3,0.2-0.5,0.5-0.5
						C100.6,222.8,100.8,223,100.8,223.3z"/>
					<path class="st65" d="M104,223.3c0,0.3-0.2,0.5-0.5,0.5c-0.3,0-0.5-0.2-0.5-0.5c0-0.3,0.2-0.5,0.5-0.5
						C103.8,222.8,104,223,104,223.3z"/>
					<path class="st65" d="M107.2,223.3c0,0.3-0.2,0.5-0.5,0.5c-0.3,0-0.5-0.2-0.5-0.5c0-0.3,0.2-0.5,0.5-0.5
						C106.9,222.8,107.2,223,107.2,223.3z"/>
				</g>
				<g>
					<circle class="st65" cx="97.2" cy="225.8" r="0.5"/>
					<path class="st65" d="M100.8,225.8c0,0.3-0.2,0.5-0.5,0.5c-0.3,0-0.5-0.2-0.5-0.5s0.2-0.5,0.5-0.5
						C100.6,225.2,100.8,225.5,100.8,225.8z"/>
					<path class="st65" d="M104,225.8c0,0.3-0.2,0.5-0.5,0.5c-0.3,0-0.5-0.2-0.5-0.5s0.2-0.5,0.5-0.5
						C103.8,225.2,104,225.5,104,225.8z"/>
					<path class="st65" d="M107.2,225.8c0,0.3-0.2,0.5-0.5,0.5c-0.3,0-0.5-0.2-0.5-0.5s0.2-0.5,0.5-0.5
						C106.9,225.2,107.2,225.5,107.2,225.8z"/>
				</g>
			</g>
			<path class="st66" d="M94.1,227.4L94.1,227.4c0,0.7,0.5,1.2,1.2,1.2h32.1c0.7,0,1.2-0.5,1.2-1.2v0H94.1z"/>
		</g>
		<line class="st8" x1="111.4" y1="200.2" x2="111.4" y2="202.1"/>
		<line class="st8" x1="111.4" y1="215" x2="111.4" y2="216.9"/>
		<g>
			<rect x="137.2" y="173.5" class="st20" width="55.1" height="40.5"/>
			<linearGradient id="SVGID_36_" gradientUnits="userSpaceOnUse" x1="163.6043" y1="173.2975" x2="163.6043" y2="189.1404">
				<stop  offset="0" style="stop-color:#6B9CFF"/>
				<stop  offset="7.699907e-03" style="stop-color:#6D9EFF"/>
				<stop  offset="0.1731" style="stop-color:#99BBFF"/>
				<stop  offset="0.3401" style="stop-color:#BED4FF"/>
				<stop  offset="0.5066" style="stop-color:#DBE7FF"/>
				<stop  offset="0.6723" style="stop-color:#EFF4FF"/>
				<stop  offset="0.8371" style="stop-color:#FBFCFF"/>
				<stop  offset="1" style="stop-color:#FFFFFF"/>
			</linearGradient>
			<rect x="136.1" y="172.4" class="st67" width="55.1" height="40.5"/>
			<rect x="136.1" y="172.4" class="st18" width="55.1" height="5.9"/>
			<linearGradient id="SVGID_37_" gradientUnits="userSpaceOnUse" x1="163.9939" y1="178.232" x2="163.9939" y2="202.1383">
				<stop  offset="0" style="stop-color:#FF8CB6"/>
				<stop  offset="0.1543" style="stop-color:#FF91AD"/>
				<stop  offset="0.4091" style="stop-color:#FF9F94"/>
				<stop  offset="0.7309" style="stop-color:#FFB56B"/>
				<stop  offset="1" style="stop-color:#FFCA44"/>
			</linearGradient>
			<path class="st68" d="M142.6,201.9c0,0,1.6-2.3,2.9-6.4c1.3-4.2,2.6-6.1,6.1-4.8c3.5,1.3,5.4,0.7,8.1-3.4c2.8-4.1,5-7.3,8.2-6.8
				c3.2,0.5,4.2,8,7.5,8.9c3.3,1,3.1-1.6,5.8,0.3s2,10.8,4,12H142.6z"/>
			<g>
				<line class="st69" x1="142.6" y1="205.2" x2="165.2" y2="205.2"/>
				<line class="st69" x1="142.6" y1="207.8" x2="158.2" y2="207.8"/>
				<line class="st69" x1="142.6" y1="210.3" x2="157.9" y2="210.3"/>
			</g>
			<g>
				<path class="st70" d="M178.2,175.4c0,0.4-0.3,0.8-0.8,0.8s-0.8-0.3-0.8-0.8s0.3-0.8,0.8-0.8S178.2,174.9,178.2,175.4z"/>
				<path class="st70" d="M183.2,175.4c0,0.4-0.3,0.8-0.8,0.8c-0.4,0-0.8-0.3-0.8-0.8s0.3-0.8,0.8-0.8
					C182.9,174.6,183.2,174.9,183.2,175.4z"/>
				<circle class="st70" cx="187.5" cy="175.4" r="0.8"/>
			</g>
			<line class="st71" x1="140.2" y1="201.9" x2="188.1" y2="201.9"/>
		</g>
		<g>
			<linearGradient id="SVGID_38_" gradientUnits="userSpaceOnUse" x1="95.2302" y1="63.9516" x2="95.2302" y2="104.2697">
				<stop  offset="0" style="stop-color:#FFFFFF"/>
				<stop  offset="0.1227" style="stop-color:#DADADA"/>
				<stop  offset="0.4483" style="stop-color:#7E7E7E"/>
				<stop  offset="0.7128" style="stop-color:#3A3A3A"/>
				<stop  offset="0.9029" style="stop-color:#101010"/>
				<stop  offset="1" style="stop-color:#000000"/>
			</linearGradient>
			<path class="st72" d="M110.9,71.9H79.6c-2.6,0-4.8,2.1-4.8,4.8V97c0,2.6,2.1,4.8,4.8,4.8h5.5c-0.2,3.7-4.9,5.4-8.2,6.7
				c1.4,1.6,4.6,2.1,5.8,2.1c5,0,9-3.9,9.3-8.8h18.9c2.6,0,4.8-2.1,4.8-4.8V76.6C115.7,74,113.5,71.9,110.9,71.9z"/>
			<path class="st45" d="M108.6,70.5H77.2c-2.6,0-4.8,2.1-4.8,4.8v20.3c0,2.6,2.1,4.8,4.8,4.8h5.5c-0.2,3.7-2.6,6.8-5.8,8.1
				c1.1,0.4,2.2,0.7,3.5,0.7c5,0,9-3.9,9.3-8.8h18.9c2.6,0,4.8-2.1,4.8-4.8V75.3C113.3,72.6,111.2,70.5,108.6,70.5z"/>
			<g>
				<linearGradient id="SVGID_39_" gradientUnits="userSpaceOnUse" x1="94.0743" y1="69.1113" x2="94.0743" y2="93.0531">
					<stop  offset="0" style="stop-color:#FFFFFF"/>
					<stop  offset="1" style="stop-color:#000000"/>
				</linearGradient>
				<path class="st73" d="M94.1,74.5c-3,6-9.2,6.2-9.2,6.2c0,14.6,9.2,15.4,9.2,15.4s9.2-0.8,9.2-15.4
					C103.3,80.7,97.1,80.5,94.1,74.5z"/>
				<path class="st74" d="M92.8,73.6c-3,6-9.2,6.2-9.2,6.2c0,14.6,9.2,15.4,9.2,15.4s9.2-0.8,9.2-15.4
					C102.1,79.8,95.9,79.7,92.8,73.6z"/>
				<linearGradient id="SVGID_40_" gradientUnits="userSpaceOnUse" x1="83.6206" y1="84.4314" x2="92.8368" y2="84.4314">
					<stop  offset="0" style="stop-color:#FFFFFF"/>
					<stop  offset="1" style="stop-color:#000000"/>
				</linearGradient>
				<path class="st75" d="M92.8,73.6v21.6c0,0-9.2-0.8-9.2-15.4C83.6,79.8,89.8,79.7,92.8,73.6z"/>
			</g>
		</g>
		<g>
			<line class="st76" x1="0" y1="234.7" x2="302" y2="234.7"/>
			<path class="st77" d="M73,157.1c0,0,3.8,23.6,4.8,34.8c1,11.2,2.2,32.9,2.2,32.9s2.3,3.9,9.9,0.6c0,0-1.9,4.8-5.8,6.4
				c-3.9,1.6-7.3,4.2-8.1,2.9c-0.8-1.3-0.3-4.9-0.8-8.6c-0.5-3.6-7.7-27.3-5.2-32.7l-5.8-19.9c0,0-1.8,19.6-2.7,26.9
				c-0.9,7.3-3.4,25.3-1.7,28.3c1.7,3,9.2,5,9.3,6.3c0.1,1.3-15.1,1.4-15.2,0c-0.1-1.4,0.6-7,0.6-7s-4-31.2,0.1-38.2
				c0,0-1.4-16.5-2-20.6c-0.5-3.6-2.2-9,1.3-12.4L73,157.1z"/>
			<linearGradient id="SVGID_41_" gradientUnits="userSpaceOnUse" x1="63.0598" y1="170.1809" x2="63.0598" y2="157.2807">
				<stop  offset="0" style="stop-color:#FFFFFF"/>
				<stop  offset="1" style="stop-color:#000000"/>
			</linearGradient>
			<path class="st78" d="M73,157.1l-19.1-0.3c-0.9,0.9-1.5,1.9-1.8,3c3.2,2.2,12.2,7.4,21.9,4.2C73.4,159.9,73,157.1,73,157.1z"/>
			<path class="st49" d="M97.9,141.8c0,0,3.7-2.9,3.9-2.8c0.2,0.1-1.3,1.7-1,1.9c0.3,0.2,2.6-0.1,3.7-0.8c1.1-0.6,0.9,1.1,0.5,2.2
				c-0.5,1.1-3.3,3-6.9,1.6l-1.6-0.1l-0.1-2L97.9,141.8z"/>
			<path class="st79" d="M62.2,119.8h4.3c0,0-0.9,1.6,0.3,2.3c1.2,0.8,4.7,1.3,5.8,2.2c1.1,0.9,10.9,14.7,10.9,14.7l14.2,2.6v2.8
				c0,0-16.6,3.3-23.5-7.3l-1.6,10.7l2.3,11.3c0,0-12.3,6.6-23.4-2.1l5.3-10.5c0,0-0.3-10.2-1.2-15.4c-0.9-5.2-1.2-7.3,0.8-7.7
				C58.6,123,62.2,119.8,62.2,119.8z"/>
			<linearGradient id="SVGID_42_" gradientUnits="userSpaceOnUse" x1="87.099" y1="144.5226" x2="78.7231" y2="137.7699">
				<stop  offset="0" style="stop-color:#FFFFFF"/>
				<stop  offset="1" style="stop-color:#000000"/>
			</linearGradient>
			<path class="st80" d="M81.7,141.9c1.6-2.3-10.2-15.1-10.2-15.1s0.6,4.8,0,8c-0.2,1.2,0.9,2.8,2.4,4.2l0.3-1.9
				c1.4,2,3.5,3.5,5.6,5C80.8,142.3,81.4,142.5,81.7,141.9z"/>
			<linearGradient id="SVGID_43_" gradientUnits="userSpaceOnUse" x1="66.6666" y1="113.6285" x2="66.6666" y2="137.6953">
				<stop  offset="0" style="stop-color:#FFFFFF"/>
				<stop  offset="1" style="stop-color:#000000"/>
			</linearGradient>
			<polygon class="st81" points="72.2,150.9 57.7,150.9 61.1,131.1 75.6,131.1 			"/>
			<path class="st45" d="M62.2,119.8c-0.2,2.1-1.6,3.3-3.5,3.5c-1.9,0.1-6.2,0-6.4-1.7c-0.1-1.8,2.1-1.6,2.2-5.4s-0.1-10,6.1-11
				c6.3-1,9.3,1.1,9.6,4.8c0.4,4.7,2,5.9,1.7,7.3c-0.7,3.3-5.5,0.9-5.9,2.5H62.2z"/>
			<path class="st49" d="M66.6,107.8c0,0,0.8,0.7,1.6,2.6c0.5,1.1,1.7,1.2,1.7,1.2s-0.3,0.8-1.2,1.3c0,0,0.7,3.1,0.2,4
				c-0.5,0.9-2.5,0.6-2.7,1.2c-0.2,0.6-0.2,1.7-0.2,1.7h-3.8c0,0,0.1-2.8-0.2-4.4C62,115.4,64.9,113.1,66.6,107.8z"/>
			<polygon class="st45" points="73.8,149.5 59.4,149.5 62.7,129.7 77.2,129.7 			"/>
			<path class="st49" d="M59.7,228.7c-0.6-1.1-0.7-4-0.5-7.7c-2,0.3-4,0.2-5.5,0c0.4,4.2,0.8,7.1,0.8,7.1s-0.8,5.6-0.6,7
				c0.1,1.4,15.3,1.3,15.2,0C68.9,233.7,61.4,231.7,59.7,228.7z"/>
			<path class="st49" d="M89.8,225.4c-7.5,3.2-9.9-0.6-9.9-0.6s-0.1-2.4-0.3-6c-2.2,0.8-4.5,1.1-5.9,1.2c0.7,2.9,1.3,5.2,1.4,6.1
				c0.5,3.6,0,7.3,0.8,8.6c0.8,1.3,4.2-1.3,8.1-2.9C87.9,230.2,89.8,225.4,89.8,225.4z"/>
			<path class="st47" d="M78.7,228.5l-3.3,0.7c0.1,2.4,0,4.5,0.5,5.5c0.8,1.3,4.2-1.3,8.1-2.9c3.9-1.6,5.8-6.4,5.8-6.4
				c-7.5,3.2-9.9-0.6-9.9-0.6C77.4,225.8,78.7,228.5,78.7,228.5z"/>
			<path class="st47" d="M69.1,235c-0.1-1.3-7.7-3.3-9.3-6.3c0,0,0-0.1,0-0.1c-2.1,0.7-2.4,3-2.4,3l-3.1-1.1c0,0,0,0,0,0
				c-0.2,1.7-0.4,3.8-0.3,4.6C54,236.4,69.2,236.3,69.1,235z"/>
			<path class="st49" d="M67.4,141.5l1.6-0.5c0,0,3.4-2.3,4.2-2.1c0.8,0.2-1.7,1.3-1.6,1.6c0.1,0.3,3.4,0.1,4.1-0.3
				c0.7-0.4-0.2,1.7-0.9,2.4s-3.1,1.7-5.9,1l-2.2,0.5L67.4,141.5z"/>
			<path class="st79" d="M57.8,123.6c2.6,0.9,3.1,5.1,1.5,7.9c-1.5,2.8-6.4,11.4-6.4,11.4l14.9-1.8l0.4,3.2c0,0-16.9,8.2-20.5,4
				c-3.6-4.2,2.8-15,3.8-17.7C52.5,128,53.9,122.2,57.8,123.6z"/>
			<line class="st82" x1="55.6" y1="138.2" x2="59.4" y2="131.7"/>
			<linearGradient id="SVGID_44_" gradientUnits="userSpaceOnUse" x1="73.6275" y1="206.3745" x2="60.1225" y2="168.9759">
				<stop  offset="0" style="stop-color:#FFFFFF"/>
				<stop  offset="1" style="stop-color:#000000"/>
			</linearGradient>
			<path class="st83" d="M74.3,222.2l5.4-2.1c-0.2-3.2-0.5-7.8-0.8-12.6l-14-39.3l-0.8,5.2l5.8,19.9C68,197.8,72.3,214.3,74.3,222.2
				z"/>
		</g>
	</g>
</g>
</svg>
