<svg xmlns="http://www.w3.org/2000/svg" version="1.1" xmlns:xlink="http://www.w3.org/1999/xlink" xmlns:svgjs="http://svgjs.com/svgjs" width="512" height="512" x="0" y="0" viewBox="0 0 64 64" style="enable-background:new 0 0 512 512" xml:space="preserve" class=""><g><g xmlns="http://www.w3.org/2000/svg" id="filled_copy" data-name="filled copy"><path d="m54.983 32.418a23.132 23.132 0 0 1 -9.183 17.811l-6.445-6.523v17.454h17.245l-6.551-6.63a29.161 29.161 0 0 0 10.951-22.69 31.764 31.764 0 0 0 -.625-5.715z" fill="#66b7c4" data-original="#66b7c4"></path><path d="m60.959 30.66a35.251 35.251 0 0 0 -.584-4.535l-5.392 6.293c-.016.609-.065 1.214-.129 1.815 2-1.25 4.046-2.422 6.105-3.573z" fill="#2b7f93" data-original="#2b7f93"></path><path d="m60.833 34.741c.086-.842.146-1.688.157-2.542-2.163 1.215-4.306 2.462-6.392 3.806-.067.36-.167.71-.251 1.065 2.126-.879 4.288-1.67 6.486-2.329z" fill="#41959e" data-original="#41959e"></path><path d="m60.278 38.113c.142-.633.27-1.27.369-1.914a70.373 70.373 0 0 0 -6.753 2.53c-.086.272-.193.536-.289.8a44.212 44.212 0 0 1 6.673-1.416z" fill="#41959e" data-original="#41959e"></path><path d="m55.951 31.538 2.089-2.09c5.77-5.77 5.2-15.69-1.262-22.157s-16.388-7.032-22.158-1.262l-2.089 2.089z" fill="#ddb96f" data-original="#ddb96f"></path><path d="m37.549 11.322q2.651-3.122 5.396-6.171c.919-1.027 1.863-2.038 2.81-3.047a14.014 14.014 0 0 0 -11.135 3.925l-2.089 2.089 4.2 4.2c.274-.332.542-.671.818-.996z" fill="#cc9966" data-original="#cc9966"></path><path d="m61.632 17.19c-2.152 2.555-4.238 5.164-6.342 7.759q-1.327 1.635-2.671 3.257l3.332 3.332 2.089-2.09a14.206 14.206 0 0 0 3.77-12.478c-.061.072-.117.148-.178.22z" fill="#cc9966" data-original="#cc9966"></path><path d="m52.484 20.942c2.086-2.577 4.219-5.118 6.306-7.694.416-.513.822-1.033 1.231-1.551a18.221 18.221 0 0 0 -9.065-8.32c-1.585 1.679-3.128 3.4-4.668 5.117q-2.808 3.137-5.539 6.34c-.229.27-.452.549-.676.826l9.2 9.2c1.083-1.295 2.148-2.605 3.211-3.918z" fill="#fffdf0" data-original="#fffdf0"></path><path d="m9.009 32.193c0-.118-.009-.234-.009-.353a22.842 22.842 0 0 1 6.712-16.24l6.591 6.67v-17.449h-17.247l6.438 6.515a28.8 28.8 0 0 0 -8.494 20.504 32.15 32.15 0 0 0 .625 5.91z" fill="#66b7c4" data-original="#66b7c4"></path><path d="m9.053 30.757c-.322.1-.644.2-.966.322-1.717.644-3.363 1.456-5.041 2.193a34.2 34.2 0 0 0 .579 4.478l5.384-5.557c0-.118-.009-.234-.009-.353 0-.364.036-.721.053-1.083z" fill="#2b7f93" data-original="#2b7f93"></path><path d="m3.234 28.2a29.556 29.556 0 0 0 -.234 3.622c1.569-.7 3.117-1.448 4.726-2.052.473-.178.947-.327 1.422-.461.065-.6.159-1.187.269-1.772a35.42 35.42 0 0 0 -6.183.663z" fill="#41959e" data-original="#41959e"></path><path d="m3.84 24.953c-.146.6-.284 1.206-.392 1.819a39.675 39.675 0 0 1 6.282-.6c.09-.359.2-.712.306-1.065a55.922 55.922 0 0 0 -6.196-.154z" fill="#41959e" data-original="#41959e"></path><path d="m29.927 57.493 2.09-2.09c5.77-5.77 5.2-15.69-1.263-22.157s-16.387-7.033-22.154-1.263l-2.09 2.09z" fill="#ddb96f" data-original="#ddb96f"></path><path d="m18.356 28.016a13.829 13.829 0 0 0 -9.756 3.967l-2.09 2.09 3.735 3.734c2.744-3.226 5.397-6.537 8.111-9.791z" fill="#cc9966" data-original="#cc9966"></path><path d="m21.93 48.606c1.214-1.62 2.337-3.315 3.6-4.9 2.287-2.851 4.6-5.682 6.872-8.545a18.541 18.541 0 0 0 -1.652-1.92 18.056 18.056 0 0 0 -6.966-4.358c-3.466 4.027-6.756 8.215-10.2 12.263l7.958 7.957c.129-.162.258-.328.388-.497z" fill="#fffdf0" data-original="#fffdf0"></path><path d="m29.068 46.821-.111.131-.014.02c-.109.148-.218.294-.326.442-.32.437-.634.877-.95 1.316-.773 1.073-1.553 2.141-2.36 3.19-.132.171-.27.356-.409.543l5.029 5.03 2.09-2.09c4.083-4.083 4.978-10.243 2.869-15.788-1.911 2.425-3.829 4.846-5.818 7.206z" fill="#cc9966" data-original="#cc9966"></path><ellipse cx="17.521" cy="46.479" fill="#fff8c2" rx="14.406" ry="16.56" transform="matrix(.707 -.707 .707 .707 -27.734 26.002)" data-original="#fff8c2"></ellipse><ellipse cx="17.129" cy="46.871" fill="#ddb96f" rx="11.635" ry="13.8" transform="matrix(.707 -.707 .707 .707 -28.126 25.84)" data-original="#ddb96f"></ellipse><ellipse cx="43.544" cy="20.525" fill="#fff8c2" rx="14.406" ry="16.56" transform="matrix(.707 -.707 .707 .707 -1.759 36.802)" data-original="#fff8c2"></ellipse><ellipse cx="43.152" cy="20.916" fill="#ddb96f" rx="11.635" ry="13.8" transform="matrix(.707 -.707 .707 .707 -2.151 36.64)" data-original="#ddb96f"></ellipse><path d="m18.878 50.344-2.8-3.719.841-4.961-1.977-1.976-.751 4.43-3.236-4.298-3.17 3.17 5.443 6.804-.585 3.451 1.978 1.978.516-3.044 3.057 3.821 9.531-9.531-2.486-2.487z" fill="#c48b58" data-original="#c48b58"></path><path d="m41.725 14.079-.412.411-1.89-1.89-1.478 1.478 1.891 1.89-1.262 1.262-1.89-1.89-.354.354-1.43 1.435 1.823 1.822-1.753 1.749 1.619 1.619 1.748-1.748 5.893 5.891-1.748 1.748 1.618 1.618 1.748-1.748 1.538 1.538.354-.354 1.434-1.435-1.606-1.605 1.264-1.265 1.607 1.606 1.472-1.473-1.607-1.606.415-.414a3.455 3.455 0 0 0 .06-5.3 3.653 3.653 0 0 0 -2.692-1.062 3.657 3.657 0 0 0 -1.064-2.693 3.454 3.454 0 0 0 -5.298.062zm3.782 1.456a1.432 1.432 0 0 1 -.026 2.3l-3.11 3.11-2.271-2.273 3.109-3.111a1.452 1.452 0 0 1 2.298-.026zm3.756 3.755c.777.777.879 1.394-.026 2.3l-3.109 3.11-2.274-2.273 3.11-3.11a1.432 1.432 0 0 1 2.299-.027z" fill="#c48b58" data-original="#c48b58"></path><path d="m41.155 14.2-.412.411-1.89-1.89-1.478 1.479 1.891 1.89-1.266 1.265-1.891-1.89-.354.354-1.434 1.435 1.823 1.821-1.744 1.748 1.619 1.619 1.748-1.748 5.893 5.892-1.748 1.748 1.619 1.619 1.748-1.748 1.538 1.537.354-.354 1.434-1.434-1.605-1.606 1.264-1.265 1.607 1.606 1.472-1.472-1.607-1.606.415-.414a3.456 3.456 0 0 0 .06-5.3 3.649 3.649 0 0 0 -2.692-1.062 3.659 3.659 0 0 0 -1.064-2.694 3.455 3.455 0 0 0 -5.3.059zm3.782 1.455a1.433 1.433 0 0 1 -.026 2.3l-3.11 3.11-2.273-2.265 3.109-3.11a1.453 1.453 0 0 1 2.3-.031zm3.756 3.756c.777.776.879 1.394-.026 2.3l-3.11 3.11-2.273-2.273 3.109-3.11a1.433 1.433 0 0 1 2.3-.023z" fill="#fff8c2" data-original="#fff8c2"></path><path d="m18.308 50.468-2.8-3.719.841-4.96-1.977-1.976-.751 4.43-3.236-4.299-3.17 3.17 5.443 6.804-.585 3.452 1.978 1.977.516-3.044 3.057 3.822 9.531-9.532-2.486-2.486z" fill="#fff8c2" data-original="#fff8c2"></path><g fill="#c48b58"><path d="m21.454 58.427c-8.974 0-15.62-7.335-16.008-16.008a13.447 13.447 0 0 1 .205-2.958c-2.476 4.632-1.296 11.091 3.249 15.639 4.805 4.8 11.746 5.854 16.408 2.8a14.974 14.974 0 0 1 -3.854.527z" fill="#c48b58" data-original="#c48b58"></path><path d="m46.937 32.1c-8.975 0-15.62-7.335-16.009-16.009-.013-.3.007-.59.013-.885-1.427 4.423-.028 9.928 3.984 13.94 5.248 5.247 13.042 6.016 17.633 1.843a15.356 15.356 0 0 1 -5.621 1.111z" fill="#c48b58" data-original="#c48b58"></path></g></g></g></svg>