<svg xmlns="http://www.w3.org/2000/svg" version="1.1" xmlns:xlink="http://www.w3.org/1999/xlink" xmlns:svgjs="http://svgjs.com/svgjs" width="512" height="512" x="0" y="0" viewBox="0 0 511.99604 511" style="enable-background:new 0 0 512 512" xml:space="preserve" class=""><g>
<g xmlns="http://www.w3.org/2000/svg" id="surface1">
<path d="M 511.996094 256.496094 C 511.996094 397.878906 397.382812 512.492188 256 512.492188 C 114.617188 512.492188 0.00390625 397.878906 0.00390625 256.496094 C 0.00390625 115.113281 114.617188 0.5 256 0.5 C 397.382812 0.5 511.996094 115.113281 511.996094 256.496094 Z M 511.996094 256.496094 " style=" stroke:none;fill-rule:nonzero;fill-opacity:1;" fill="#474979" data-original="#474979"></path>
<path d="M 263.832031 443.921875 L 263.832031 402.796875 C 263.832031 398.46875 260.328125 394.960938 256 394.960938 C 251.671875 394.960938 248.164062 398.46875 248.164062 402.796875 L 248.164062 443.921875 L 111.863281 468.074219 C 118.335938 472.492188 125.023438 476.613281 131.902344 480.433594 L 256 458.445312 L 380.097656 480.433594 C 386.976562 476.613281 393.664062 472.492188 400.136719 468.074219 Z M 263.832031 443.921875 " style=" stroke:none;fill-rule:nonzero;fill-opacity:1;" fill="#7c81b9" data-original="#7c81b9"></path>
<path d="M 306.332031 451.453125 L 263.832031 443.921875 L 263.832031 402.796875 C 263.832031 398.46875 260.328125 394.960938 256 394.960938 C 251.671875 394.960938 248.164062 398.46875 248.164062 402.796875 L 248.164062 443.921875 L 111.863281 468.074219 C 118.335938 472.492188 125.023438 476.613281 131.902344 480.433594 L 256 458.445312 L 303.332031 466.832031 C 299.980469 461.824219 301.207031 454.9375 306.332031 451.453125 Z M 306.332031 451.453125 " style=" stroke:none;fill-rule:nonzero;fill-opacity:1;" fill="#64679c" data-original="#64679c" class=""></path>
<path d="M 351.664062 352.15625 C 348.601562 355.21875 348.601562 360.175781 351.664062 363.234375 L 431.382812 442.957031 C 435.1875 439.375 438.882812 435.683594 442.460938 431.878906 L 362.742188 352.15625 C 359.683594 349.097656 354.722656 349.097656 351.664062 352.15625 Z M 351.664062 352.15625 " style=" stroke:none;fill-rule:nonzero;fill-opacity:1;" fill="#7c81b9" data-original="#7c81b9"></path>
<path d="M 388.972656 378.386719 L 362.742188 352.15625 C 359.683594 349.097656 354.722656 349.097656 351.664062 352.15625 C 348.601562 355.21875 348.601562 360.175781 351.664062 363.234375 L 377.890625 389.464844 C 377.914062 383.355469 382.863281 378.410156 388.972656 378.386719 Z M 388.972656 378.386719 " style=" stroke:none;fill-rule:nonzero;fill-opacity:1;" fill="#64679c" data-original="#64679c" class=""></path>
<path d="M 160.335938 352.15625 C 157.277344 349.101562 152.316406 349.097656 149.257812 352.15625 L 69.539062 431.878906 C 73.117188 435.683594 76.8125 439.375 80.617188 442.957031 L 160.335938 363.238281 C 163.394531 360.175781 163.394531 355.21875 160.335938 352.15625 Z M 160.335938 352.15625 " style=" stroke:none;fill-rule:nonzero;fill-opacity:1;" fill="#64679c" data-original="#64679c" class=""></path>
<path d="M 457.949219 256.496094 L 499.484375 22.089844 C 500.4375 16.699219 495.707031 12.0625 490.40625 13.011719 L 256 54.546875 L 21.59375 13.007812 C 21.539062 13 21.484375 13 21.433594 12.988281 C 16.167969 12.179688 11.675781 16.6875 12.496094 21.941406 C 12.503906 21.992188 12.503906 22.039062 12.515625 22.089844 L 54.050781 256.492188 L 32.0625 380.59375 C 35.878906 387.472656 40.003906 394.160156 44.421875 400.628906 L 68.574219 264.328125 L 110.265625 264.328125 C 114.589844 264.328125 118.097656 260.820312 118.097656 256.492188 C 118.097656 252.167969 114.589844 248.660156 110.265625 248.660156 L 68.574219 248.660156 L 32.28125 43.855469 L 149.257812 160.832031 C 152.316406 163.890625 157.277344 163.890625 160.335938 160.832031 C 163.394531 157.769531 163.394531 152.8125 160.335938 149.753906 L 43.359375 32.777344 L 248.167969 69.070312 L 248.167969 110.171875 C 248.167969 114.5 251.671875 118.007812 256 118.007812 C 260.328125 118.007812 263.835938 114.5 263.835938 110.171875 L 263.835938 69.066406 L 468.640625 32.777344 L 351.664062 149.753906 C 346.714844 154.703125 350.285156 163.125 357.203125 163.125 C 363.398438 163.125 357.722656 164.59375 479.71875 43.855469 L 443.425781 248.660156 L 401.324219 248.660156 C 396.996094 248.660156 393.488281 252.167969 393.488281 256.496094 C 393.488281 260.820312 396.996094 264.328125 401.324219 264.328125 L 443.425781 264.328125 L 467.578125 400.628906 C 471.996094 394.160156 476.121094 387.472656 479.941406 380.59375 Z M 457.949219 256.496094 " style=" stroke:none;fill-rule:nonzero;fill-opacity:1;" fill="#7c81b9" data-original="#7c81b9"></path>
<path d="M 303.164062 46.1875 L 256 54.546875 L 21.59375 13.007812 C 21.539062 13 21.484375 13 21.433594 12.988281 C 16.175781 12.183594 11.671875 16.671875 12.496094 21.941406 C 12.503906 21.992188 12.503906 22.039062 12.515625 22.089844 L 54.050781 256.492188 L 32.0625 380.59375 C 35.878906 387.472656 40.003906 394.160156 44.421875 400.628906 L 68.574219 264.328125 L 110.265625 264.328125 C 114.589844 264.328125 118.097656 260.820312 118.097656 256.496094 C 118.097656 252.167969 114.59375 248.660156 110.265625 248.660156 L 68.574219 248.660156 L 32.28125 43.855469 L 149.257812 160.832031 C 152.316406 163.890625 157.277344 163.890625 160.335938 160.832031 C 163.394531 157.769531 163.394531 152.8125 160.335938 149.753906 L 43.359375 32.777344 L 248.167969 69.066406 L 248.167969 110.171875 C 248.167969 114.5 251.671875 118.003906 256 118.003906 C 260.328125 118.003906 263.835938 114.5 263.835938 110.171875 L 263.835938 69.066406 L 306.648438 61.480469 C 301.484375 58.210938 299.890625 51.40625 303.164062 46.1875 Z M 303.164062 46.1875 " style=" stroke:none;fill-rule:nonzero;fill-opacity:1;" fill="#64679c" data-original="#64679c" class=""></path>
<path d="M 333.609375 390.914062 C 259.488281 433.707031 164.371094 408.222656 121.582031 334.101562 C 78.785156 259.984375 104.273438 164.867188 178.394531 122.074219 C 252.511719 79.28125 347.628906 104.769531 390.417969 178.886719 C 433.214844 253.007812 407.726562 348.121094 333.609375 390.914062 Z M 333.609375 390.914062 " style=" stroke:none;fill-rule:nonzero;fill-opacity:1;" fill="#ffcd38" data-original="#ffcd38"></path>
<path d="M 171.75 305.136719 C 133.910156 239.589844 149.472656 157.628906 204.839844 109.949219 C 195.820312 113.101562 186.964844 117.125 178.394531 122.074219 C 104.273438 164.867188 78.785156 259.984375 121.582031 334.101562 C 164.375 408.222656 259.488281 433.707031 333.609375 390.914062 C 342.179688 385.964844 350.09375 380.308594 357.332031 374.074219 C 288.355469 398.183594 209.59375 370.683594 171.75 305.136719 Z M 171.75 305.136719 " style=" stroke:none;fill-rule:nonzero;fill-opacity:1;" fill="#ffac00" data-original="#ffac00"></path>
<path d="M 191.953125 145.566406 C 130.789062 180.878906 109.753906 259.371094 145.070312 320.539062 C 180.382812 381.707031 258.878906 402.738281 320.042969 367.425781 C 381.210938 332.109375 402.242188 253.617188 366.929688 192.449219 C 331.613281 131.285156 253.121094 110.25 191.953125 145.566406 Z M 191.953125 145.566406 " style=" stroke:none;fill-rule:nonzero;fill-opacity:1;" fill="#ffac00" data-original="#ffac00"></path>
<path d="M 162.53125 168.90625 C 124.988281 209.011719 116.214844 270.558594 145.070312 320.539062 C 173.925781 370.523438 231.613281 393.695312 285.121094 381.234375 C 239.246094 374.90625 196.644531 348.253906 171.75 305.136719 C 146.855469 262.015625 145.078125 211.796875 162.53125 168.90625 Z M 162.53125 168.90625 " style=" stroke:none;fill-rule:nonzero;fill-opacity:1;" fill="#ff9900" data-original="#ff9900"></path>
<path d="M 306.796875 233.335938 C 306.796875 217.21875 294.308594 203.976562 278.507812 202.742188 L 278.507812 189.117188 C 278.507812 184.957031 275.132812 181.582031 270.972656 181.582031 C 266.808594 181.582031 263.4375 184.957031 263.4375 189.117188 L 263.4375 202.640625 L 247.042969 202.640625 L 247.042969 189.117188 C 247.042969 184.957031 243.667969 181.582031 239.507812 181.582031 C 235.347656 181.582031 231.972656 184.957031 231.972656 189.117188 L 231.972656 202.640625 L 212.738281 202.640625 C 208.578125 202.640625 205.203125 206.011719 205.203125 210.175781 C 205.203125 214.335938 208.578125 217.710938 212.738281 217.710938 L 218.960938 217.710938 L 218.960938 248.960938 L 212.738281 248.960938 C 208.578125 248.960938 205.203125 252.335938 205.203125 256.496094 C 205.203125 260.65625 208.578125 264.03125 212.738281 264.03125 L 218.960938 264.03125 L 218.960938 295.28125 L 212.738281 295.28125 C 208.578125 295.28125 205.203125 298.65625 205.203125 302.816406 C 205.203125 306.976562 208.578125 310.351562 212.738281 310.351562 L 231.972656 310.351562 L 231.972656 323.875 C 231.972656 328.035156 235.347656 331.410156 239.507812 331.410156 C 243.667969 331.410156 247.042969 328.035156 247.042969 323.875 L 247.042969 310.347656 L 263.4375 310.347656 L 263.4375 323.871094 C 263.4375 328.03125 266.808594 331.40625 270.972656 331.40625 C 275.132812 331.40625 278.507812 328.035156 278.507812 323.871094 L 278.507812 310.246094 C 294.3125 309.011719 306.796875 295.769531 306.796875 279.652344 C 306.796875 270.417969 302.6875 262.125 296.210938 256.492188 C 302.6875 250.863281 306.796875 242.570312 306.796875 233.335938 Z M 291.726562 279.65625 C 291.726562 288.269531 284.714844 295.277344 276.101562 295.277344 L 234.027344 295.277344 L 234.027344 264.03125 L 276.101562 264.03125 C 284.714844 264.03125 291.726562 271.039062 291.726562 279.65625 Z M 234.027344 248.960938 L 234.027344 217.710938 L 276.101562 217.710938 C 284.714844 217.710938 291.726562 224.71875 291.726562 233.335938 C 291.726562 241.949219 284.714844 248.960938 276.101562 248.960938 Z M 234.027344 248.960938 " style=" stroke:none;fill-rule:nonzero;fill-opacity:1;" fill="#ff8500" data-original="#ff8500"></path>
<path d="M 345.746094 248.960938 L 335.03125 248.960938 C 330.871094 248.960938 327.496094 252.332031 327.496094 256.496094 C 327.496094 260.65625 330.871094 264.03125 335.03125 264.03125 L 345.746094 264.03125 C 349.90625 264.03125 353.28125 260.65625 353.28125 256.496094 C 353.28125 252.332031 349.90625 248.960938 345.746094 248.960938 Z M 345.746094 248.960938 " style=" stroke:none;fill-rule:nonzero;fill-opacity:1;" fill="#ffcd38" data-original="#ffcd38"></path>
<path d="M 176.96875 248.960938 L 166.253906 248.960938 C 162.09375 248.960938 158.71875 252.332031 158.71875 256.496094 C 158.71875 260.65625 162.09375 264.03125 166.253906 264.03125 L 176.96875 264.03125 C 181.128906 264.03125 184.503906 260.65625 184.503906 256.496094 C 184.503906 252.332031 181.128906 248.960938 176.96875 248.960938 Z M 176.96875 248.960938 " style=" stroke:none;fill-rule:nonzero;fill-opacity:1;" fill="#ffcd38" data-original="#ffcd38"></path>
<path d="M 273.507812 51.058594 C 267.921875 41.382812 255.554688 38.070312 245.882812 43.65625 C 236.207031 49.238281 232.894531 61.609375 238.480469 71.28125 C 244.0625 80.953125 256.433594 84.265625 266.105469 78.683594 C 275.777344 73.097656 279.089844 60.730469 273.507812 51.058594 Z M 273.507812 51.058594 " style=" stroke:none;fill-rule:nonzero;fill-opacity:1;" fill="#afc728" data-original="#afc728"></path>
<path d="M 273.507812 443.15625 C 267.921875 433.480469 255.554688 430.167969 245.882812 435.753906 C 236.210938 441.335938 232.894531 453.707031 238.480469 463.378906 C 244.066406 473.050781 256.433594 476.363281 266.105469 470.78125 C 275.777344 465.195312 279.09375 452.828125 273.507812 443.15625 Z M 273.507812 443.15625 " style=" stroke:none;fill-rule:nonzero;fill-opacity:1;" fill="#afc728" data-original="#afc728"></path>
<path d="M 77.457031 247.105469 C 71.875 237.433594 59.503906 234.121094 49.832031 239.703125 C 40.160156 245.289062 36.84375 257.65625 42.429688 267.328125 C 48.015625 277.003906 60.382812 280.316406 70.054688 274.730469 C 79.726562 269.148438 83.042969 256.777344 77.457031 247.105469 Z M 77.457031 247.105469 " style=" stroke:none;fill-rule:nonzero;fill-opacity:1;" fill="#ffcd38" data-original="#ffcd38"></path>
<path d="M 469.558594 247.105469 C 463.972656 237.433594 451.605469 234.117188 441.929688 239.703125 C 432.257812 245.289062 428.945312 257.65625 434.53125 267.328125 C 440.113281 277 452.484375 280.316406 462.15625 274.730469 C 471.828125 269.144531 475.140625 256.777344 469.558594 247.105469 Z M 469.558594 247.105469 " style=" stroke:none;fill-rule:nonzero;fill-opacity:1;" fill="#fe505f" data-original="#fe505f"></path>
<path d="M 509.273438 10.609375 C 503.6875 0.9375 491.320312 -2.375 481.648438 3.207031 C 471.976562 8.792969 468.660156 21.160156 474.246094 30.832031 C 479.832031 40.507812 492.199219 43.820312 501.871094 38.234375 C 511.542969 32.652344 514.859375 20.28125 509.273438 10.609375 Z M 509.273438 10.609375 " style=" stroke:none;fill-rule:nonzero;fill-opacity:1;" fill="#ffcd38" data-original="#ffcd38"></path>
<path d="M 37.742188 10.609375 C 32.15625 0.9375 19.789062 -2.378906 10.117188 3.207031 C 0.441406 8.792969 -2.871094 21.160156 2.714844 30.832031 C 8.296875 40.503906 20.667969 43.820312 30.339844 38.234375 C 40.011719 32.652344 43.324219 20.28125 37.742188 10.609375 Z M 37.742188 10.609375 " style=" stroke:none;fill-rule:nonzero;fill-opacity:1;" fill="#5891ed" data-original="#5891ed"></path>
<path d="M 256 61.171875 C 252.257812 54.691406 252.527344 47.011719 256.007812 40.960938 C 252.566406 40.957031 249.082031 41.8125 245.886719 43.65625 C 236.214844 49.242188 232.902344 61.609375 238.484375 71.285156 C 246.316406 84.847656 265.816406 84.628906 273.503906 71.265625 C 266.527344 71.257812 259.742188 67.648438 256 61.171875 Z M 256 61.171875 " style=" stroke:none;fill-rule:nonzero;fill-opacity:1;" fill="#91af12" data-original="#91af12"></path>
<path d="M 256 453.277344 C 252.257812 446.800781 252.527344 439.121094 256.007812 433.070312 C 252.566406 433.066406 249.082031 433.921875 245.886719 435.765625 C 236.214844 441.347656 232.902344 453.71875 238.484375 463.390625 C 244.070312 473.0625 256.4375 476.378906 266.113281 470.792969 C 269.304688 468.949219 271.789062 466.359375 273.503906 463.375 C 266.527344 463.363281 259.742188 459.757812 256 453.277344 Z M 256 453.277344 " style=" stroke:none;fill-rule:nonzero;fill-opacity:1;" fill="#91af12" data-original="#91af12"></path>
<path d="M 59.945312 257.226562 C 56.203125 250.746094 56.472656 243.066406 59.953125 237.015625 C 56.511719 237.011719 53.027344 237.867188 49.832031 239.710938 C 40.160156 245.296875 36.847656 257.664062 42.429688 267.335938 C 48.015625 277.011719 60.382812 280.324219 70.058594 274.738281 C 73.25 272.894531 75.734375 270.304688 77.449219 267.320312 C 70.472656 267.3125 63.6875 263.703125 59.945312 257.226562 Z M 59.945312 257.226562 " style=" stroke:none;fill-rule:nonzero;fill-opacity:1;" fill="#ffac00" data-original="#ffac00"></path>
<path d="M 452.054688 257.226562 C 448.3125 250.746094 448.582031 243.066406 452.0625 237.015625 C 448.621094 237.011719 445.136719 237.867188 441.941406 239.710938 C 432.269531 245.296875 428.957031 257.664062 434.539062 267.335938 C 440.125 277.011719 452.492188 280.324219 462.164062 274.738281 C 465.359375 272.894531 467.84375 270.304688 469.558594 267.320312 C 462.582031 267.3125 455.792969 263.703125 452.054688 257.226562 Z M 452.054688 257.226562 " style=" stroke:none;fill-rule:nonzero;fill-opacity:1;" fill="#de3648" data-original="#de3648"></path>
<path d="M 491.773438 20.722656 C 488.03125 14.242188 488.300781 6.5625 491.78125 0.515625 C 488.339844 0.507812 484.855469 1.363281 481.660156 3.207031 C 471.988281 8.792969 468.671875 21.160156 474.257812 30.835938 C 479.84375 40.507812 492.210938 43.820312 501.882812 38.238281 C 505.078125 36.394531 507.5625 33.800781 509.277344 30.820312 C 502.300781 30.808594 495.511719 27.199219 491.773438 20.722656 Z M 491.773438 20.722656 " style=" stroke:none;fill-rule:nonzero;fill-opacity:1;" fill="#ffac00" data-original="#ffac00"></path>
<path d="M 20.238281 0.515625 C 16.796875 0.507812 13.308594 1.363281 10.117188 3.207031 C 0.441406 8.792969 -2.871094 21.160156 2.714844 30.832031 C 8.296875 40.507812 20.667969 43.820312 30.339844 38.234375 C 33.535156 36.390625 36.019531 33.800781 37.734375 30.816406 C 22.179688 30.796875 12.464844 14.023438 20.238281 0.515625 Z M 20.238281 0.515625 " style=" stroke:none;fill-rule:nonzero;fill-opacity:1;" fill="#4874cc" data-original="#4874cc"></path>
<path d="M 253.625 303.492188 C 253.625 299.714844 256.027344 296.503906 259.386719 295.28125 L 234.027344 295.28125 L 234.027344 264.03125 L 257.945312 264.03125 C 255.363281 262.507812 253.625 259.707031 253.625 256.496094 C 253.625 253.28125 255.363281 250.480469 257.945312 248.960938 L 234.027344 248.960938 L 234.027344 217.710938 L 258.675781 217.710938 C 255.695312 216.3125 253.625 213.296875 253.625 209.789062 C 253.625 206.832031 255.097656 204.222656 257.34375 202.640625 L 247.042969 202.640625 L 247.042969 189.117188 C 247.042969 184.957031 243.667969 181.582031 239.507812 181.582031 C 235.347656 181.582031 231.972656 184.957031 231.972656 189.117188 L 231.972656 202.640625 L 212.738281 202.640625 C 208.578125 202.640625 205.203125 206.015625 205.203125 210.175781 C 205.203125 214.335938 208.578125 217.710938 212.738281 217.710938 L 218.960938 217.710938 L 218.960938 248.960938 L 212.738281 248.960938 C 208.578125 248.960938 205.203125 252.335938 205.203125 256.496094 C 205.203125 260.65625 208.578125 264.03125 212.738281 264.03125 L 218.960938 264.03125 L 218.960938 295.28125 L 212.738281 295.28125 C 208.578125 295.28125 205.203125 298.65625 205.203125 302.816406 C 205.203125 306.976562 208.578125 310.351562 212.738281 310.351562 L 231.972656 310.351562 L 231.972656 323.875 C 231.972656 328.035156 235.347656 331.410156 239.507812 331.410156 C 243.671875 331.410156 247.042969 328.035156 247.042969 323.875 L 247.042969 310.347656 L 256.949219 310.347656 C 254.925781 308.746094 253.625 306.273438 253.625 303.492188 Z M 253.625 303.492188 " style=" stroke:none;fill-rule:nonzero;fill-opacity:1;" fill="#ff6700" data-original="#ff6700"></path>
</g>
</g></svg>