<svg xmlns="http://www.w3.org/2000/svg" version="1.1" xmlns:xlink="http://www.w3.org/1999/xlink" xmlns:svgjs="http://svgjs.com/svgjs" width="512" height="512" x="0" y="0" viewBox="0 0 64 64" style="enable-background:new 0 0 512 512" xml:space="preserve" class=""><g><g xmlns="http://www.w3.org/2000/svg"><path d="m58 44.56c-.552 0-1-.448-1-1v-5.56c0-.265.105-.52.293-.707l1.59-1.59c.391-.391 1.023-.391 1.414 0s.391 1.023 0 1.414l-1.297 1.297v5.146c0 .552-.448 1-1 1z" fill="#ff8939" data-original="#ff8939"></path></g><path xmlns="http://www.w3.org/2000/svg" d="m50 12v30.3c-4.59 1.12-8 5.26-8 10.2 0 1.23.21 2.41.6 3.5h-28.6v-44h7v1h22v-1z" fill="#f8f4e8" data-original="#f8f4e8"></path><path xmlns="http://www.w3.org/2000/svg" d="m46.519 12c.045 14.43-.074 28.287-12.519 40-1.162.581-1.983 2.177-2.274 4h10.874c-.39-1.09-.6-2.27-.6-3.5 0-4.94 3.41-9.08 8-10.2v-30.3z" fill="#d6d4ce" data-original="#d6d4ce"></path><circle xmlns="http://www.w3.org/2000/svg" cx="61" cy="35" fill="#ffb000" r="2" data-original="#ffb000"></circle><path xmlns="http://www.w3.org/2000/svg" d="m54 10v32.11c-.49-.07-.99-.11-1.5-.11-.86 0-1.7.1-2.5.3v-30.3h-7v-4h9c1.1 0 2 .9 2 2z" fill="#620774" data-original="#620774"></path><path xmlns="http://www.w3.org/2000/svg" d="m46.35 61h-34.35c-1.1 0-2-.9-2-2v-49c0-1.1.9-2 2-2h9v4h-7v44h28.6c.71 2.03 2.04 3.77 3.75 5z" fill="#9d2888" data-original="#9d2888"></path><path xmlns="http://www.w3.org/2000/svg" d="m43 12v1h-22v-1-4c0-1.1.9-2 2-2h3c1.1 0 2-.9 2-2v-2c0-.55.45-1 1-1h6c.55 0 1 .45 1 1v2c0 1.1.9 2 2 2h3c1.1 0 2 .9 2 2z" fill="#72565d" data-original="#72565d"></path><path xmlns="http://www.w3.org/2000/svg" d="m43 8v5h-4v-3c0-1.1-.9-2-2-2h-3c-1.1 0-2-.9-2-2v-2c0-.55-.45-1-1-1h-3v-1c0-.55.45-1 1-1h6c.55 0 1 .45 1 1v2c0 1.1.9 2 2 2h3c1.1 0 2 .9 2 2z" fill="#564146" data-original="#564146"></path><path xmlns="http://www.w3.org/2000/svg" d="m24 43v2.34c0 1.06-.42 2.08-1.17 2.83l-1.83 1.83-1.83-1.83c-.75-.75-1.17-1.77-1.17-2.83v-2.34z" fill="#80a53f" data-original="#80a53f"></path><g xmlns="http://www.w3.org/2000/svg"><path d="m35 10h-6c-.552 0-1-.448-1-1s.448-1 1-1h6c.552 0 1 .448 1 1s-.448 1-1 1z" fill="#aa9a9e" data-original="#aa9a9e"></path></g><g xmlns="http://www.w3.org/2000/svg"><path d="m46 19h-28c-.552 0-1-.448-1-1s.448-1 1-1h28c.552 0 1 .448 1 1s-.448 1-1 1z" fill="#72565d" data-original="#72565d"></path></g><g xmlns="http://www.w3.org/2000/svg"><path d="m46 23h-1c-.552 0-1-.448-1-1s.448-1 1-1h1c.552 0 1 .448 1 1s-.448 1-1 1z" fill="#72565d" data-original="#72565d"></path></g><g xmlns="http://www.w3.org/2000/svg"><path d="m41 23h-15c-.552 0-1-.448-1-1s.448-1 1-1h15c.552 0 1 .448 1 1s-.448 1-1 1z" fill="#72565d" data-original="#72565d"></path></g><g xmlns="http://www.w3.org/2000/svg"><path d="m22 23h-4c-.552 0-1-.448-1-1s.448-1 1-1h4c.552 0 1 .448 1 1s-.448 1-1 1z" fill="#72565d" data-original="#72565d"></path></g><g xmlns="http://www.w3.org/2000/svg"><path d="m46 27h-28c-.552 0-1-.448-1-1s.448-1 1-1h28c.552 0 1 .448 1 1s-.448 1-1 1z" fill="#72565d" data-original="#72565d"></path></g><g xmlns="http://www.w3.org/2000/svg"><path d="m46 31h-21c-.552 0-1-.448-1-1s.448-1 1-1h21c.552 0 1 .448 1 1s-.448 1-1 1z" fill="#72565d" data-original="#72565d"></path></g><g xmlns="http://www.w3.org/2000/svg"><path d="m21 31h-3c-.552 0-1-.448-1-1s.448-1 1-1h3c.552 0 1 .448 1 1s-.448 1-1 1z" fill="#72565d" data-original="#72565d"></path></g><g xmlns="http://www.w3.org/2000/svg"><path d="m46 35h-3c-.552 0-1-.448-1-1s.448-1 1-1h3c.552 0 1 .448 1 1s-.448 1-1 1z" fill="#72565d" data-original="#72565d"></path></g><g xmlns="http://www.w3.org/2000/svg"><path d="m39 35h-21c-.552 0-1-.448-1-1s.448-1 1-1h21c.552 0 1 .448 1 1s-.448 1-1 1z" fill="#72565d" data-original="#72565d"></path></g><g xmlns="http://www.w3.org/2000/svg"><path d="m46 39h-28c-.552 0-1-.448-1-1s.448-1 1-1h28c.552 0 1 .448 1 1s-.448 1-1 1z" fill="#72565d" data-original="#72565d"></path></g><g xmlns="http://www.w3.org/2000/svg"><path d="m44.26 47h-4.26c-.265 0-.52-.105-.707-.293l-1.59-1.59c-.391-.391-.391-1.023 0-1.414s1.023-.391 1.414 0l1.297 1.297h3.846c.552 0 1 .448 1 1s-.448 1-1 1z" fill="#ff8939" data-original="#ff8939"></path></g><g xmlns="http://www.w3.org/2000/svg"><path d="m42.11 52h-6.11c-.552 0-1-.448-1-1s.448-1 1-1h6.11c.552 0 1 .448 1 1s-.448 1-1 1z" fill="#ff8939" data-original="#ff8939"></path></g><circle xmlns="http://www.w3.org/2000/svg" cx="37" cy="43" fill="#ffb000" r="2" data-original="#ffb000"></circle><circle xmlns="http://www.w3.org/2000/svg" cx="34" cy="51" fill="#ffb000" r="2" data-original="#ffb000"></circle><path xmlns="http://www.w3.org/2000/svg" d="m54 42.11c5.09.72 9 5.1 9 10.39 0 5.8-4.7 10.5-10.5 10.5-2.3 0-4.42-.74-6.15-2-1.71-1.23-3.04-2.97-3.75-5-.39-1.09-.6-2.27-.6-3.5 0-4.94 3.41-9.08 8-10.2.8-.2 1.64-.3 2.5-.3.51 0 1.01.04 1.5.11zm5.64 10.39c0-3.94-3.2-7.14-7.14-7.14s-7.14 3.2-7.14 7.14 3.2 7.14 7.14 7.14 7.14-3.2 7.14-7.14z" fill="#ff8939" data-original="#ff8939"></path><path xmlns="http://www.w3.org/2000/svg" d="m52.5 45.36c3.94 0 7.14 3.2 7.14 7.14s-3.2 7.14-7.14 7.14-7.14-3.2-7.14-7.14 3.2-7.14 7.14-7.14zm3.36 8.4v-3.36l-3.36-1.68-3.36 1.68v3.36l3.36 1.68z" fill="#ffb000" data-original="#ffb000"></path><path xmlns="http://www.w3.org/2000/svg" d="m55.86 50.4v3.36l-3.36 1.68v-3.36z" fill="#ff8939" data-original="#ff8939"></path><path xmlns="http://www.w3.org/2000/svg" d="m55.86 50.4-3.36 1.68-3.36-1.68 3.36-1.68z" fill="#ffd066" data-original="#ffd066"></path><path xmlns="http://www.w3.org/2000/svg" d="m52.5 52.08v3.36l-3.36-1.68v-3.36z" fill="#efaf30" data-original="#efaf30"></path></g></svg>