<svg xmlns="http://www.w3.org/2000/svg" version="1.1" xmlns:xlink="http://www.w3.org/1999/xlink" xmlns:svgjs="http://svgjs.com/svgjs" width="512" height="512" x="0" y="0" viewBox="0 0 512 512" style="enable-background:new 0 0 512 512" xml:space="preserve" class="hovered-paths"><g><g xmlns="http://www.w3.org/2000/svg"><circle cx="256" cy="256" fill="#ff4f75" r="256" data-original="#ff4f75" class=""></circle><path d="m426.686 142.943-340.372 227.114s108.38 108.388 140.245 140.248c9.662 1.106 19.482 1.695 29.441 1.695 141.385 0 256-114.615 256-256 0-9.96-.589-19.782-1.696-29.446-39.943-39.943-83.618-83.611-83.618-83.611z" fill="#f71e78" data-original="#f71e78"></path><g><path d="m231.869 401.551 24.131 60.368c8.852 0 17.704-2.29 25.633-6.87l9.886-5.707z" fill="#45c5ff" data-original="#45c5ff"></path><path d="m415.566 134.277-12.817-7.399-44.253 69.95 82.703-3.355v-14.799c0-18.319-9.775-35.237-25.633-44.397z" fill="#45c5ff" data-original="#45c5ff"></path><path d="m96.434 134.277 12.817-7.399 44.253 69.95-82.703-3.355v-14.799c0-18.319 9.775-35.237 25.633-44.397z" fill="#85d9ff" data-original="#85d9ff" class=""></path><path d="m220.481 449.342 9.886 5.707c7.929 4.58 16.781 6.87 25.633 6.87v-36.237z" fill="#85d9ff" data-original="#85d9ff" class=""></path><path d="m243.934 199.817v109.912l73.708-56.351z" fill="#45c5ff" data-original="#45c5ff"></path><path d="m256 223.948v61.65l-61.642-32.22z" fill="#85d9ff" data-original="#85d9ff" class=""></path><path d="m281.445 241.312c-7.878 4.511-16.661 6.767-25.445 6.767l-60.328-98.999 60.328-98.999c8.852 0 17.704 2.29 25.633 6.87l121.116 69.927c17.08 9.86 17.089 34.528 0 44.396v70.038z" fill="#bfebff" data-original="#bfebff" class=""></path><path d="m230.555 241.312c-.03-.017-121.304 0-121.304 0v-70.038c-17.089-9.869-17.08-34.536 0-44.396l121.116-69.927c7.929-4.58 16.781-6.87 25.633-6.87v197.998c-8.784 0-17.567-2.255-25.445-6.767z" fill="#e5f7ff" data-original="#e5f7ff" class="hovered-path"></path><path d="m441.199 193.472v139.854c0 18.319-9.775 35.237-25.633 44.397l-124.047 71.619c-16.499 6.98-35.519-5.041-35.519-23.66l-36.197-67.029 36.197-73.055c0-18.234 9.698-35.1 25.445-44.285.06-.034 121.304-70.038 121.304-70.038 17.089-9.87 38.45 2.468 38.45 22.197z" fill="#85d9ff" data-original="#85d9ff" class=""></path><path d="m256 285.598v140.085c0 18.618-19.02 30.64-35.519 23.659l-124.047-71.619c-15.858-9.16-25.633-26.077-25.633-44.397v-139.854c0-19.729 21.361-32.067 38.45-22.198 0 0 121.244 70.004 121.304 70.038 15.747 9.185 25.445 26.052 25.445 44.286z" fill="#bfebff" data-original="#bfebff" class=""></path></g></g></g></svg>