<svg xmlns="http://www.w3.org/2000/svg" version="1.1" xmlns:xlink="http://www.w3.org/1999/xlink" xmlns:svgjs="http://svgjs.com/svgjs" width="512" height="512" x="0" y="0" viewBox="0 0 512 512" style="enable-background:new 0 0 512 512" xml:space="preserve" class=""><g>
<path xmlns="http://www.w3.org/2000/svg" style="" d="M214.624,0c-56.772,0-102.792,46.02-102.792,102.792v40.677c6.87-6.368,16.643-9.829,26.184-8.555  v-5.122c0-4.072,3.477-7.288,7.508-6.983c39.742,2.855,80.188-9.774,110.769-29.751c2.855-1.866,6.635-1.402,8.955,1.092  c26.145,28.103,25.987,27.016,25.987,30.684v10.058c10.458-1.567,19.734,1.664,26.179,7.656v-39.757  C317.415,46.021,271.396,0,214.624,0z" fill="#576574" data-original="#576574" class=""></path>
<path xmlns="http://www.w3.org/2000/svg" style="" d="M132.437,102.792c0-53.294,40.555-97.112,92.489-102.28C221.537,0.175,218.101,0,214.624,0  c-56.772,0-102.792,46.02-102.792,102.792v40.677c5.532-5.127,12.946-8.365,20.605-8.768V102.792z" fill="#3e4b5a" data-original="#3e4b5a"></path>
<g xmlns="http://www.w3.org/2000/svg">
	<path style="" d="M289.874,130.808v56.309c0,0.61-0.032,1.213-0.047,1.821c19.927,3.017,35.533-11.381,35.533-29.063   C325.361,142.158,309.741,127.83,289.874,130.808z" fill="#f2bb88" data-original="#f2bb88"></path>
	<path style="" d="M139.378,187.117V130.83c-17.348-2.317-35.487,10.997-35.487,29.046   c0,17.659,15.572,32.083,35.532,29.062C139.408,188.33,139.378,187.725,139.378,187.117z" fill="#f2bb88" data-original="#f2bb88"></path>
</g>
<g xmlns="http://www.w3.org/2000/svg">
	<path style="" d="M310.479,134.392c-5.778-3.269-12.866-4.744-20.605-3.584v56.309c0,0.61-0.032,1.213-0.047,1.821   c7.764,1.176,14.867-0.301,20.651-3.578v-50.968H310.479z" fill="#e3a76f" data-original="#e3a76f"></path>
	<path style="" d="M139.378,185.364c-9.068-5.135-14.882-14.704-14.882-25.489c0-10.577,6.233-19.522,14.882-24.654   v-4.392c-17.348-2.317-35.487,10.997-35.487,29.046c0,17.659,15.572,32.083,35.532,29.062c-0.015-0.607-0.044-1.213-0.044-1.821   L139.378,185.364L139.378,185.364z" fill="#e3a76f" data-original="#e3a76f"></path>
</g>
<path xmlns="http://www.w3.org/2000/svg" style="" d="M215.719,261.271c-16.607,0-31.201-4.559-43.137-12.186v40.342l42.952,53.018l42.952-53.018v-41.479  C246.318,256.341,231.586,261.271,215.719,261.271z" fill="#f2bb88" data-original="#f2bb88"></path>
<path xmlns="http://www.w3.org/2000/svg" style="" d="M193.187,258.251c-7.52-2.097-14.422-5.215-20.605-9.166v40.342l20.605,25.433V258.251z" fill="#e3a76f" data-original="#e3a76f"></path>
<path xmlns="http://www.w3.org/2000/svg" style="" d="M372.114,330.709l-113.628-44.005l-42.951,53.018l-42.953-53.018L59.073,330.709  c0,0-42.026,17.278-42.026,65.187v106.328c0,5.399,4.377,9.776,9.776,9.776h377.626c5.352,0,9.691-4.339,9.691-9.691V395.896  C414.141,347.986,372.114,330.709,372.114,330.709z" fill="#e4eaf8" data-original="#e4eaf8"></path>
<path xmlns="http://www.w3.org/2000/svg" style="" d="M37.651,502.224v-116.63c0-31.192,17.812-49.396,30.244-58.305l-8.823,3.42  c0,0-42.027,17.277-42.027,65.187v106.328c0,5.399,4.377,9.776,9.776,9.776h20.605C42.028,512,37.651,507.623,37.651,502.224z" fill="#d8dce5" data-original="#d8dce5"></path>
<path xmlns="http://www.w3.org/2000/svg" style="" d="M265.249,91.427c-2.32-2.494-6.101-2.957-8.956-1.092c-30.581,19.977-71.027,32.606-110.769,29.751  c-4.031-0.305-7.508,2.911-7.508,6.983v61.409c0,39.468,30.925,75.516,77.703,75.516c41.64,0,75.517-33.877,75.517-75.516v-66.367  C291.236,118.443,291.394,119.53,265.249,91.427z" fill="#f2d1a5" data-original="#f2d1a5" class=""></path>
<path xmlns="http://www.w3.org/2000/svg" style="" d="M158.621,188.479v-68.011c-4.365,0.049-8.735-0.067-13.097-0.381  c-4.031-0.306-7.508,2.911-7.508,6.983v61.409c0,39.468,30.925,75.516,77.703,75.516c3.119,0,6.188-0.213,9.21-0.582  C187.619,258.853,158.621,226.998,158.621,188.479z" fill="#f2bb88" data-original="#f2bb88"></path>
<g xmlns="http://www.w3.org/2000/svg">
	<path style="" d="M267.396,366.964l32.119-64.371l-41.028-15.89l-42.952,53.018l41.877,29.741   C260.8,371.87,265.539,370.684,267.396,366.964z" fill="#d8dce5" data-original="#d8dce5"></path>
	<path style="" d="M163.732,366.964l-32.119-64.371l41.028-15.89l42.952,53.018l-41.877,29.741   C170.327,371.87,165.589,370.684,163.732,366.964z" fill="#d8dce5" data-original="#d8dce5"></path>
</g>
<path xmlns="http://www.w3.org/2000/svg" style="" d="M215.59,339.758v-0.037l-0.026,0.018l-0.026-0.018v0.037L185.08,361.39l14.397,21.668  c11.615,0,20.56,0,32.174,0l14.397-21.668L215.59,339.758z" fill="#ee5253" data-original="#ee5253"></path>
<path xmlns="http://www.w3.org/2000/svg" style="" d="M177.653,512h75.822l-21.824-128.942c-11.615,0-20.56,0-32.174,0L177.653,512z" fill="#ff6b6b" data-original="#ff6b6b"></path>
<path xmlns="http://www.w3.org/2000/svg" style="" d="M225.866,347.056l-10.277-7.298v-0.037l-0.026,0.018l-0.026-0.018v0.037l-30.458,21.632  l14.397,21.668c5.429,0,8.812,0,20.605,0l-11.209-16.87c-1.777-2.674-1.109-6.275,1.509-8.134L225.866,347.056z" fill="#d83941" data-original="#d83941"></path>
<path xmlns="http://www.w3.org/2000/svg" style="" d="M199.477,383.058L177.653,512h20.605l21.824-128.942  C208.286,383.058,204.917,383.058,199.477,383.058z" fill="#ee5253" data-original="#ee5253"></path>
<g xmlns="http://www.w3.org/2000/svg">
	<path style="" d="M96.361,512v-99.637c0-4.267-3.459-7.727-7.727-7.727c-4.268,0-7.727,3.459-7.727,7.727V512H96.361z   " fill="#d8dce5" data-original="#d8dce5"></path>
	<path style="" d="M350.401,512v-68.735c0-4.267-3.459-7.727-7.727-7.727c-4.267,0-7.727,3.459-7.727,7.727V512   H350.401z" fill="#d8dce5" data-original="#d8dce5"></path>
</g>
<path xmlns="http://www.w3.org/2000/svg" style="" d="M395.226,470.445c-54.991,0-99.729-44.739-99.729-99.729s44.739-99.729,99.729-99.729  s99.729,44.739,99.729,99.729S450.217,470.445,395.226,470.445z" fill="#15ba8b" data-original="#15ba8b"></path>
<path xmlns="http://www.w3.org/2000/svg" style="" d="M316.102,370.715c0-51.512,39.259-94.027,89.427-99.199c-59.14-6.099-110.032,40.489-110.032,99.199  c0,54.991,44.738,99.729,99.729,99.729c3.478,0,6.915-0.181,10.302-0.53C355.361,464.742,316.102,422.228,316.102,370.715z" fill="#11aa7b" data-original="#11aa7b"></path>
<path xmlns="http://www.w3.org/2000/svg" style="" d="M395.226,298.166c-40.004,0-72.55,32.546-72.55,72.55s32.546,72.55,72.55,72.55  s72.55-32.546,72.55-72.55S435.23,298.166,395.226,298.166z" fill="#3fefbc" data-original="#3fefbc"></path>
<path xmlns="http://www.w3.org/2000/svg" style="" d="M343.282,370.715c0-36.506,27.107-66.786,62.247-71.805c-44-6.287-82.852,28.014-82.852,71.805  c0,40.004,32.546,72.55,72.55,72.55c3.498,0,6.935-0.263,10.302-0.744C370.389,437.501,343.282,407.221,343.282,370.715z" fill="#1dd1a1" data-original="#1dd1a1"></path>
<path xmlns="http://www.w3.org/2000/svg" style="" d="M385.07,393.674l-18.119-17.759c-3.047-2.987-3.097-7.879-0.11-10.927  c2.988-3.047,7.879-3.096,10.927-0.11l12.726,12.473l30.378-29.609c3.055-2.979,7.947-2.916,10.927,0.14  c2.979,3.056,2.916,7.948-0.14,10.926l-35.786,34.881C392.867,396.618,388.072,396.615,385.07,393.674z" fill="#e4eaf8" data-original="#e4eaf8"></path>
<g xmlns="http://www.w3.org/2000/svg">
</g>
<g xmlns="http://www.w3.org/2000/svg">
</g>
<g xmlns="http://www.w3.org/2000/svg">
</g>
<g xmlns="http://www.w3.org/2000/svg">
</g>
<g xmlns="http://www.w3.org/2000/svg">
</g>
<g xmlns="http://www.w3.org/2000/svg">
</g>
<g xmlns="http://www.w3.org/2000/svg">
</g>
<g xmlns="http://www.w3.org/2000/svg">
</g>
<g xmlns="http://www.w3.org/2000/svg">
</g>
<g xmlns="http://www.w3.org/2000/svg">
</g>
<g xmlns="http://www.w3.org/2000/svg">
</g>
<g xmlns="http://www.w3.org/2000/svg">
</g>
<g xmlns="http://www.w3.org/2000/svg">
</g>
<g xmlns="http://www.w3.org/2000/svg">
</g>
<g xmlns="http://www.w3.org/2000/svg">
</g>
</g></svg>