<svg xmlns="http://www.w3.org/2000/svg" version="1.1" xmlns:xlink="http://www.w3.org/1999/xlink" xmlns:svgjs="http://svgjs.com/svgjs" width="512" height="512" x="0" y="0" viewBox="0 0 24 24" style="enable-background:new 0 0 512 512" xml:space="preserve" class=""><g><linearGradient xmlns="http://www.w3.org/2000/svg" id="linear-gradient" gradientUnits="userSpaceOnUse" x1="12" x2="12" y1="2.833" y2="21.374"><stop offset="0" stop-color="#faee5e"></stop><stop offset="1" stop-color="#edc12d"></stop></linearGradient><linearGradient xmlns="http://www.w3.org/2000/svg" id="linear-gradient-2" gradientUnits="userSpaceOnUse" x1="12" x2="12" y1="4.926" y2="18.952"><stop offset="0" stop-color="#efc938"></stop><stop offset="1" stop-color="#f1b62e"></stop></linearGradient><circle xmlns="http://www.w3.org/2000/svg" cx="12" cy="12" fill="#f1d33d" r="10" data-original="#f1d33d" class=""></circle><path xmlns="http://www.w3.org/2000/svg" d="m12 22a10 10 0 0 0 10-10h-20a10 10 0 0 0 10 10z" fill="#e7a324" data-original="#e7a324"></path><circle xmlns="http://www.w3.org/2000/svg" cx="12" cy="12.129" fill="url(#linear-gradient)" r="9.218" data-original="url(#linear-gradient)" class=""></circle><path xmlns="http://www.w3.org/2000/svg" d="m12 21.344a9.216 9.216 0 0 1 -9.214-9.144v.077a9.3 9.3 0 0 0 9.214 9.37 9.3 9.3 0 0 0 9.218-9.369c0-.026 0-.051 0-.077a9.216 9.216 0 0 1 -9.218 9.143z" fill="#d38e26" data-original="#d38e26"></path><circle xmlns="http://www.w3.org/2000/svg" cx="12" cy="12" fill="#f9ee60" r="7.6" data-original="#f9ee60"></circle><path xmlns="http://www.w3.org/2000/svg" d="m12 4.4a7.6 7.6 0 0 0 -7.6 7.6h15.2a7.6 7.6 0 0 0 -7.6-7.6z" fill="#e3a22c" data-original="#e3a22c" class=""></path><circle xmlns="http://www.w3.org/2000/svg" cx="12" cy="12" fill="url(#linear-gradient-2)" r="7" data-original="url(#linear-gradient-2)" class=""></circle><path xmlns="http://www.w3.org/2000/svg" d="m11.763 17.577c.163.035.28-.08.376-.193l.155-.181.233-.272.3-.348.352-.411.393-.46.424-.5.444-.518.45-.527.447-.523.431-.5.4-.472.364-.427.315-.367.252-.295.178-.209.105-.122a.336.336 0 0 0 -.021-.458l-1.761-1.725a.345.345 0 0 0 -.172-.09l-7.328-1.393a.385.385 0 0 0 -.322.116.338.338 0 0 0 -.051.339l.023.057.067.165.106.261.14.347.171.422.2.486.218.539.235.581.248.612.256.633.26.642.26.641.254.629.245.605.232.572.213.526.191.471.163.405.133.327.1.238.057.139a.392.392 0 0 0 .264.238zm4.642-6.777-2.679.395 1.623-1.426zm-3.763.456-3.366-2.765 5.349 1.018zm-.353.573-.622 4.16-2.831-6.995zm.653.156 3.359-.5-3.981 4.657z" fill="#ffffff" data-original="#ffffff" class=""></path></g></svg>