<svg xmlns="http://www.w3.org/2000/svg" version="1.1" xmlns:xlink="http://www.w3.org/1999/xlink" xmlns:svgjs="http://svgjs.com/svgjs" width="512" height="512" x="0" y="0" viewBox="0 0 50 50" style="enable-background:new 0 0 512 512" xml:space="preserve" class=""><g><g xmlns="http://www.w3.org/2000/svg" id="XMLID_5835_"><g id="XMLID_10486_"><g id="XMLID_10470_"><g id="XMLID_10467_"><g id="XMLID_10463_"><path d="m44.191 22.577h-9.745v-1h9.745c1.228 0 2.227-.999 2.227-2.226v-7.427h1v7.427c0 1.778-1.448 3.226-3.227 3.226z" fill="#515151" data-original="#515151" class=""></path></g><g id="XMLID_10465_"><path d="m29.417 15.609h-1v-9.744c0-1.779 1.447-3.226 3.227-3.226h7.428v1h-7.428c-1.228 0-2.227.999-2.227 2.226z" fill="#515151" data-original="#515151" class=""></path></g><g id="XMLID_10466_"><path d="m35.996 1.088h1v26.902h-1z" fill="#515151" transform="matrix(.707 .707 -.707 .707 20.973 -21.55)" data-original="#515151" class=""></path></g><g id="XMLID_10464_"><circle cx="46.007" cy="5.027" fill="#3ab7fc" r="2.083" data-original="#3ab7fc"></circle></g><g id="XMLID_10468_"><circle cx="46.917" cy="11.907" fill="#88c057" r="2.083" data-original="#88c057"></circle></g><g id="XMLID_10469_"><circle cx="39.071" cy="3.138" fill="#ed7161" r="2.083" data-original="#ed7161" class=""></circle></g></g><g id="XMLID_10492_"><path d="m38.133 47.362h-7.427c-1.779 0-3.227-1.447-3.227-3.226v-9.745h1v9.745c0 1.228.999 2.226 2.227 2.226h7.427z" fill="#515151" data-original="#515151" class=""></path></g><g id="XMLID_10491_"><path d="m47.418 39.015h-1v-7.427c0-1.227-.999-2.226-2.227-2.226h-9.745v-1h9.745c1.779 0 3.227 1.447 3.227 3.226z" fill="#515151" data-original="#515151" class=""></path></g><g id="XMLID_10490_"><path d="m22.066 35.941h26.902v1h-26.902z" fill="#515151" transform="matrix(.707 .707 -.707 .707 36.17 -14.441)" data-original="#515151" class=""></path></g><g id="XMLID_10489_"><circle cx="45.028" cy="45.952" fill="#3ab7fc" r="2.083" data-original="#3ab7fc"></circle></g><g id="XMLID_10488_"><circle cx="38.149" cy="46.862" fill="#88c057" r="2.083" data-original="#88c057"></circle></g><g id="XMLID_10487_"><circle cx="46.917" cy="39.015" fill="#ed7161" r="2.083" data-original="#ed7161" class=""></circle></g></g><g id="XMLID_10478_"><g id="XMLID_10471_"><g id="XMLID_10477_"><path d="m3.583 38.077h-1v-7.427c0-1.779 1.447-3.226 3.227-3.226h9.744v1h-9.745c-1.228 0-2.227.999-2.227 2.226v7.427z" fill="#515151" data-original="#515151" class=""></path></g><g id="XMLID_10476_"><path d="m10.929 47.362v-1h7.427c1.228 0 2.227-.999 2.227-2.226v-9.745h1v9.745c0 1.779-1.447 3.226-3.227 3.226z" fill="#515151" data-original="#515151" class=""></path></g><g id="XMLID_10475_"><path d="m13.004 22.011h1v26.902h-1z" fill="#515151" transform="matrix(.707 .707 -.707 .707 29.028 .837)" data-original="#515151" class=""></path></g><g id="XMLID_10474_"><circle cx="3.993" cy="44.973" fill="#3ab7fc" r="2.083" data-original="#3ab7fc"></circle></g><g id="XMLID_10473_"><circle cx="3.083" cy="38.093" fill="#88c057" r="2.083" data-original="#88c057"></circle></g><g id="XMLID_10472_"><circle cx="10.929" cy="46.862" fill="#ed7161" r="2.083" data-original="#ed7161" class=""></circle></g></g><g id="XMLID_10479_"><g id="XMLID_10485_"><path d="m22.521 15.61h-1v-9.745c0-1.227-.999-2.226-2.227-2.226h-7.427v-1h7.427c1.779 0 3.227 1.447 3.227 3.226z" fill="#515151" data-original="#515151" class=""></path></g><g id="XMLID_10484_"><path d="m15.553 21.639h-9.744c-1.779 0-3.227-1.447-3.227-3.226v-7.427h1v7.427c0 1.227.999 2.226 2.227 2.226h9.744z" fill="#515151" data-original="#515151" class=""></path></g><g id="XMLID_10483_"><path d="m1.032 13.06h26.902v1h-26.902z" fill="#515151" transform="matrix(.707 .707 -.707 .707 13.83 -6.269)" data-original="#515151" class=""></path></g><g id="XMLID_10482_"><circle cx="4.972" cy="4.048" fill="#3ab7fc" r="2.083" data-original="#3ab7fc"></circle></g><g id="XMLID_10481_"><circle cx="11.851" cy="3.138" fill="#88c057" r="2.083" data-original="#88c057"></circle></g><g id="XMLID_10480_"><circle cx="3.083" cy="10.985" fill="#ed7161" r="2.083" data-original="#ed7161" class=""></circle></g></g></g></g><g id="XMLID_10462_"><g id="XMLID_10461_"><circle cx="25" cy="25" fill="#ffcc66" r="14.94" data-original="#ffcc66"></circle></g><g id="XMLID_7526_"><path d="m25 35.94c-6.032 0-10.94-4.908-10.94-10.94s4.908-10.94 10.94-10.94 10.94 4.908 10.94 10.94c0 6.033-4.908 10.94-10.94 10.94z" fill="#e0ae55" data-original="#e0ae55"></path></g><g id="XMLID_10434_"><path d="m25 31.94c-3.827 0-6.94-3.113-6.94-6.94s3.113-6.94 6.94-6.94 6.94 3.113 6.94 6.94-3.113 6.94-6.94 6.94z" fill="#ffcc66" data-original="#ffcc66"></path></g><g id="XMLID_10435_"><path d="m25 27.94c-1.621 0-2.94-1.319-2.94-2.94s1.319-2.94 2.94-2.94 2.94 1.319 2.94 2.94-1.319 2.94-2.94 2.94z" fill="#e0ae55" data-original="#e0ae55"></path></g></g></g></g></svg>