<svg xmlns="http://www.w3.org/2000/svg" version="1.1" xmlns:xlink="http://www.w3.org/1999/xlink" xmlns:svgjs="http://svgjs.com/svgjs" width="512" height="512" x="0" y="0" viewBox="0 0 512 512" style="enable-background:new 0 0 512 512" xml:space="preserve" class=""><g><g xmlns="http://www.w3.org/2000/svg"><path d="m367.331 398.544c-24.84-62.102-73.345-77.21-95.265-77.21-5.682 0-10.876 3.21-13.416 8.292l-66.917 133.834-66.917-133.834c-2.54-5.082-7.734-8.292-13.416-8.292-21.919 0-70.425 15.109-95.265 77.21-10.706 26.767-16.135 59.892-16.135 98.456 0 8.284 6.716 15 15 15h353.467c8.284 0 15-6.716 15-15 0-38.564-5.429-71.689-16.136-98.456z" fill="#2ebeef" data-original="#2ebeef"></path><path d="m368.467 512c8.284 0 15-6.716 15-15 0-38.564-5.429-71.689-16.136-98.456-24.84-62.102-73.345-77.21-95.265-77.21-5.682 0-10.876 3.21-13.416 8.292l-66.917 133.834v48.54z" fill="#4793ff" data-original="#4793ff"></path><path d="m191.733 512c-5.682 0-10.876-3.21-13.416-8.292l-80.333-160.666c-1.945-3.889-2.106-8.431-.442-12.448s4.989-7.115 9.115-8.49l48.199-16.067c5.388-1.796 11.332-.395 15.35 3.624l21.527 21.526 21.526-21.526c4.019-4.02 9.967-5.422 15.357-3.621l48.2 16.096c4.123 1.377 7.446 4.475 9.109 8.492 1.662 4.017 1.5 8.557-.444 12.445l-80.333 160.638c-2.54 5.079-7.734 8.289-13.415 8.289z" fill="#f6fbff" data-original="#f6fbff"></path><path d="m191.733 331.187 21.526-21.526c4.019-4.02 9.967-5.422 15.357-3.621l48.2 16.096c4.123 1.377 7.446 4.475 9.109 8.492 1.662 4.017 1.5 8.557-.444 12.445l-80.333 160.638c-2.541 5.081-7.735 8.291-13.416 8.291 0 0 0 0-.001 0z" fill="#dfeffa" data-original="#dfeffa"></path><path d="m223.866 253.239c8.284 0 15 6.716 15 15v52.028c0 3.978-1.58 7.793-4.394 10.606l-32.133 32.133c-2.812 2.813-6.628 4.394-10.606 4.394s-7.794-1.58-10.606-4.394l-32.134-32.133c-2.813-2.813-4.394-6.628-4.394-10.606v-52.028c0-8.284 6.716-15 15-15z" fill="#963f1a" data-original="#963f1a"></path><path d="m191.733 253.239v114.161h.001c3.979 0 7.794-1.581 10.606-4.394l32.133-32.133c2.813-2.813 4.394-6.628 4.394-10.606v-52.028c0-8.284-6.716-15-15-15z" fill="#592104" data-original="#592104"></path><path d="m295.2 155.533-51.832-38.874c-9.783 11.584-26.844 25.807-51.635 25.807-24.792 0-41.852-14.223-51.636-25.807l-51.831 38.874c-4.546 3.409-10.627 3.957-15.708 1.417-5.082-2.541-8.292-7.735-8.292-13.417 0-41.037 10.893-76.065 31.499-101.297 22.566-27.631 55.751-42.236 95.968-42.236s73.402 14.605 95.968 42.236c20.606 25.232 31.499 60.261 31.499 101.297 0 5.682-3.21 10.875-8.292 13.417-.173.086-8.046 4.331-15.708-1.417z" fill="#33414e" data-original="#33414e" class=""></path><path d="m191.733 0c40.218 0 73.402 14.605 95.968 42.236 20.606 25.232 31.499 60.261 31.499 101.297 0 5.682-3.21 10.875-8.292 13.417-.173.087-8.046 4.332-15.708-1.417l-51.832-38.874c-9.783 11.584-26.844 25.807-51.635 25.807z" fill="#1e272f" data-original="#1e272f"></path><path d="m313.2 131.533-64.267-48.2c-3.559-2.669-8.099-3.66-12.426-2.639-4.329 1.022-7.961 3.873-9.95 7.851-.123.239-12.588 23.921-34.824 23.921-22.237 0-34.7-23.682-34.784-23.841-1.988-3.979-5.641-6.869-9.97-7.891-4.33-1.021-8.888-.071-12.446 2.599l-64.267 48.2c-3.777 2.833-6 7.279-6 12 0 41.037 10.893 76.065 31.499 101.298 22.565 27.631 55.75 42.236 95.968 42.236s73.402-14.605 95.968-42.236c20.606-25.232 31.499-60.261 31.499-101.298 0-4.721-2.222-9.167-6-12z" fill="#cf5b2f" data-original="#cf5b2f"></path><path d="m191.733 287.067c40.218 0 73.402-14.605 95.968-42.236 20.606-25.232 31.499-60.261 31.499-101.298 0-4.721-2.223-9.167-6-12l-64.267-48.2c-3.559-2.669-8.099-3.66-12.426-2.639-4.329 1.022-7.961 3.873-9.95 7.851-.123.239-12.588 23.921-34.824 23.921z" fill="#963f1a" data-original="#963f1a"></path><path d="m191.733 222.8c-12.595 0-24.431-4.901-33.329-13.8-5.857-5.858-5.856-15.355.001-21.213s15.354-5.858 21.214.001c3.231 3.232 7.534 5.012 12.114 5.012s8.883-1.78 12.114-5.012c5.859-5.858 15.354-5.858 21.214-.001 5.857 5.857 5.858 15.355.001 21.213-8.898 8.899-20.734 13.8-33.329 13.8z" fill="#963f1a" data-original="#963f1a"></path><path d="m191.733 192.8c4.58 0 8.883-1.78 12.114-5.012 5.859-5.858 15.354-5.858 21.214-.001 5.857 5.857 5.858 15.355.001 21.213-8.898 8.899-20.734 13.8-33.329 13.8z" fill="#1e272f" data-original="#1e272f"></path><g><path d="m504.5 303.123-104.433-60.298c-4.642-2.68-10.359-2.68-15.001 0l-104.433 60.298c-4.641 2.68-7.5 7.631-7.5 12.99v120.588c0 5.359 2.859 10.311 7.5 12.99l104.433 60.298c4.642 2.68 10.359 2.68 15.001 0l104.433-60.297c4.641-2.68 7.5-7.631 7.5-12.99v-120.589c0-5.359-2.859-10.31-7.5-12.99z" fill="#ffd321" data-original="#ffd321"></path><path d="m400.067 509.99 104.433-60.298c4.641-2.68 7.5-7.631 7.5-12.99v-120.589c0-5.359-2.859-10.311-7.5-12.99l-104.433-60.298c-2.321-1.34-4.911-2.01-7.5-2.01v271.185c2.59 0 5.18-.67 7.5-2.01z" fill="#ffb454" data-original="#ffb454"></path><path d="m442.539 368.083-37.492-56.233c-2.782-4.173-7.465-6.679-12.48-6.679s-9.698 2.506-12.48 6.679l-37.492 56.233c-3.359 5.039-3.359 11.603 0 16.642l37.492 56.242c2.782 4.173 7.465 6.679 12.48 6.679s9.698-2.506 12.48-6.679l37.492-56.242c3.359-5.039 3.359-11.604 0-16.642z" fill="#fff16b" data-original="#fff16b"></path><path d="m392.567 447.645c5.015 0 9.698-2.506 12.48-6.679l37.492-56.242c3.359-5.039 3.359-11.603 0-16.642l-37.492-56.233c-2.782-4.173-7.465-6.679-12.48-6.679z" fill="#ffd321" data-original="#ffd321"></path></g></g></g></svg>