<svg xmlns="http://www.w3.org/2000/svg" version="1.1" xmlns:xlink="http://www.w3.org/1999/xlink" xmlns:svgjs="http://svgjs.com/svgjs" width="512" height="512" x="0" y="0" viewBox="0 0 256 256" style="enable-background:new 0 0 512 512" xml:space="preserve" class=""><g><g xmlns="http://www.w3.org/2000/svg"><g><g><g><g><g><g><g><path d="m142.095 147.588h-28.19l2.381-64.272h23.428z" fill="#3193f3" data-original="#3193f3"></path></g></g></g></g><g><g><g><g><path d="m125.682 83.316-2.38 64.272h-9.397l2.381-64.272z" fill="#35b1fc" data-original="#35b1fc"></path></g></g></g></g><g><g><g><g><path d="m194.277 107.684h-132.554c-5.199 0-9.396-4.197-9.396-9.396v-80.685c0-5.199 4.197-9.396 9.396-9.396h132.553c5.199 0 9.396 4.197 9.396 9.396v80.747c.001 5.137-4.196 9.334-9.395 9.334z" fill="#5fcdff" data-original="#5fcdff"></path></g></g></g></g><g><g><g><g><path d="m71.12 107.684h-9.396c-5.199 0-9.396-4.197-9.396-9.396v-80.685c0-5.199 4.197-9.396 9.396-9.396h9.396c-5.199 0-9.396 4.197-9.396 9.396v80.685c-.001 5.199 4.197 9.396 9.396 9.396z" fill="#73d7f9" data-original="#73d7f9"></path></g></g></g></g><g><g><g><g><path d="m203.673 17.603v80.747c0 5.137-4.197 9.334-9.396 9.334h-9.396c5.199 0 9.396-4.197 9.396-9.334v-80.747c0-5.199-4.197-9.396-9.396-9.396h9.396c5.199-.001 9.396 4.196 9.396 9.396z" fill="#30b6ff" data-original="#30b6ff"></path></g></g></g></g></g></g><g><g><g><g><g><circle cx="128" cy="57.945" fill="#f9d335" r="33.987" data-original="#f9d335"></circle></g></g></g></g><g><g><g><g><path d="m133.455 91.495c-1.776.284-3.602.437-5.458.437-18.767 0-33.982-15.216-33.982-33.99 0-18.767 15.216-33.982 33.982-33.982 1.856 0 3.682.153 5.458.437-16.176 2.612-28.525 16.635-28.525 33.546 0 16.91 12.349 30.94 28.525 33.552z" fill="#f9e27d" data-original="#f9e27d"></path></g></g></g></g><g><g><g><g><path d="m161.987 57.942c0 18.774-15.216 33.99-33.99 33.99-1.856 0-3.682-.153-5.458-.437 16.183-2.612 28.532-16.635 28.532-33.553 0-16.911-12.349-30.933-28.532-33.546 1.775-.284 3.602-.437 5.458-.437 18.775.001 33.99 15.217 33.99 33.983z" fill="#f2c300" data-original="#f2c300"></path></g></g></g></g></g></g><g><g><g><g><g><g><circle cx="82.02" cy="206.785" fill="#f9d335" r="40.966" data-original="#f9d335"></circle></g></g></g></g><g><g><g><g><path d="m88.595 247.224c-2.14.342-4.342.526-6.578.526-22.62 0-40.96-18.34-40.96-40.968 0-22.62 18.34-40.96 40.96-40.96 2.237 0 4.438.184 6.578.526-19.498 3.149-34.382 20.05-34.382 40.434 0 20.383 14.884 37.293 34.382 40.442z" fill="#f9e27d" data-original="#f9e27d"></path></g></g></g></g><g><g><g><g><path d="m122.985 206.782c0 22.629-18.34 40.968-40.968 40.968-2.237 0-4.438-.184-6.578-.526 19.506-3.149 34.39-20.05 34.39-40.442 0-20.383-14.884-37.285-34.39-40.434 2.14-.342 4.342-.526 6.578-.526 22.628 0 40.968 18.34 40.968 40.96z" fill="#f2c300" data-original="#f2c300"></path></g></g></g></g></g><g><g><g><g><g><circle cx="173.98" cy="206.785" fill="#f9d335" r="40.966" data-original="#f9d335"></circle></g></g></g></g><g><g><g><g><path d="m180.556 247.224c-2.14.342-4.342.526-6.578.526-22.62 0-40.96-18.34-40.96-40.968 0-22.62 18.34-40.96 40.96-40.96 2.237 0 4.438.184 6.578.526-19.498 3.149-34.382 20.05-34.382 40.434 0 20.383 14.884 37.293 34.382 40.442z" fill="#f9e27d" data-original="#f9e27d"></path></g></g></g></g><g><g><g><g><path d="m214.946 206.782c0 22.629-18.34 40.968-40.968 40.968-2.237 0-4.438-.184-6.578-.526 19.506-3.149 34.39-20.05 34.39-40.442 0-20.383-14.884-37.285-34.39-40.434 2.14-.342 4.342-.526 6.578-.526 22.628 0 40.968 18.34 40.968 40.96z" fill="#f2c300" data-original="#f2c300"></path></g></g></g></g></g></g><g><g><g><g><g><circle cx="32.686" cy="186.198" fill="#ffbb98" r="22.759" data-original="#ffbb98"></circle></g></g></g></g><g><g><g><g><path d="m59.123 247.748h-52.874v-12.355c0-14.601 11.836-26.437 26.437-26.437 14.601 0 26.437 11.836 26.437 26.437z" fill="#5fcdff" data-original="#5fcdff"></path></g></g></g></g><g><g><g><g><path d="m40.707 207.509c-2.489.94-5.192 1.453-8.023 1.453-12.563 0-22.754-10.191-22.754-22.764s10.191-22.754 22.754-22.754c2.831 0 5.534.513 8.023 1.453-8.621 3.226-14.753 11.548-14.753 21.301s6.132 18.074 14.753 21.311z" fill="#ffcaa6" data-original="#ffcaa6"></path></g></g></g></g><g><g><g><g><path d="m40.696 210.201c-10.683 3.386-18.427 13.385-18.427 25.189v12.361h-16.024v-12.361c0-14.603 11.836-26.429 26.439-26.429 2.788 0 5.48.438 8.012 1.24z" fill="#73d7f9" data-original="#73d7f9"></path></g></g></g></g></g><g><g><g><g><g><circle cx="223.318" cy="186.198" fill="#ffbb98" r="22.759" data-original="#ffbb98"></circle></g></g></g></g><g><g><g><g><path d="m249.755 247.748h-52.874v-12.355c0-14.601 11.836-26.437 26.437-26.437 14.601 0 26.437 11.836 26.437 26.437z" fill="#44c7b6" data-original="#44c7b6"></path></g></g></g></g><g><g><g><g><path d="m231.339 207.509c-2.489.94-5.192 1.453-8.023 1.453-12.563 0-22.754-10.191-22.754-22.764s10.191-22.754 22.754-22.754c2.831 0 5.534.513 8.023 1.453-8.621 3.226-14.753 11.548-14.753 21.301s6.132 18.074 14.753 21.311z" fill="#ffcaa6" data-original="#ffcaa6"></path></g></g></g></g><g><g><g><g><path d="m231.328 210.201c-10.683 3.386-18.427 13.385-18.427 25.189v12.361h-16.024v-12.361c0-14.603 11.836-26.429 26.439-26.429 2.788 0 5.48.438 8.012 1.24z" fill="#4bdbc3" data-original="#4bdbc3"></path></g></g></g></g></g><g fill="#5f266d"><path d="m187.45 67.746c2.21 0 4-1.79 4-4v-5.8c0-2.21-1.79-4-4-4s-4 1.79-4 4v5.8c0 2.211 1.79 4 4 4z" fill="#5f266d" data-original="#5f266d"></path><path d="m187.45 97.746c2.21 0 4-1.79 4-4v-15c0-2.21-1.79-4-4-4s-4 1.79-4 4v15c0 2.211 1.79 4 4 4z" fill="#5f266d" data-original="#5f266d"></path><path d="m131.37 65.887h-8.72c-.14-2.08-1.88-3.72-3.99-3.72-2.21 0-4 1.79-4 4 0 4.26 3.46 7.72 7.72 7.72h1.62v2.359c0 2.209 1.791 4 4 4s4-1.791 4-4v-2.379c5.21-.33 9.34-4.66 9.34-9.95 0-5.5-4.47-9.97-9.97-9.97h-6.74c-1.09 0-1.97-.89-1.97-1.97 0-1.09.88-1.97 1.97-1.97h8.72c.14 2.08 1.88 3.72 3.99 3.72 2.21 0 4-1.79 4-4 0-4.26-3.46-7.72-7.72-7.72h-1.62v-2.362c0-2.209-1.791-4-4-4s-4 1.791-4 4v2.382c-5.21.33-9.34 4.66-9.34 9.95 0 5.5 4.47 9.97 9.97 9.97h6.74c1.09 0 1.97.88 1.97 1.97 0 1.089-.88 1.97-1.97 1.97z" fill="#5f266d" data-original="#5f266d"></path><path d="m128 95.937c20.95 0 37.99-17.05 37.99-37.99 0-20.95-17.04-37.99-37.99-37.99s-37.99 17.04-37.99 37.99c0 20.94 17.04 37.99 37.99 37.99zm0-67.98c16.54 0 29.99 13.45 29.99 29.99 0 16.53-13.45 29.99-29.99 29.99s-29.99-13.46-29.99-29.99c0-16.54 13.45-29.99 29.99-29.99z" fill="#5f266d" data-original="#5f266d"></path><path d="m77.956 196.389h10.836c.27 0 .488.219.488.489 0 2.209 1.791 4 4 4s4-1.791 4-4c0-4.681-3.808-8.489-8.488-8.489h-2.772v-3.662c0-2.209-1.791-4-4-4s-4 1.791-4 4v3.662h-.063c-6.174 0-11.197 5.023-11.197 11.198s5.023 11.198 11.197 11.198h8.127c1.763 0 3.197 1.435 3.197 3.198s-1.435 3.198-3.197 3.198h-10.837c-.27 0-.488-.219-.488-.489 0-2.209-1.791-4-4-4s-4 1.791-4 4c0 4.681 3.808 8.489 8.488 8.489h2.772v3.662c0 2.209 1.791 4 4 4s4-1.791 4-4v-3.662h.063c6.174 0 11.197-5.023 11.197-11.198s-5.023-11.198-11.197-11.198h-8.127c-1.763 0-3.197-1.435-3.197-3.198.001-1.763 1.435-3.198 3.198-3.198z" fill="#5f266d" data-original="#5f266d"></path><path d="m82.02 161.816c-10.25 0-19.71 3.45-27.28 9.25-4.83-7.02-12.91-11.63-22.05-11.63-14.76 0-26.76 12.01-26.76 26.76 0 9.4 4.87 17.69 12.23 22.45-9.47 5.17-15.91 15.22-15.91 26.75v12.35c0 2.21 1.79 4 4 4h52.87c2.21 0 4-1.79 4-4v-.17c29.618 13.804 63.87-7.974 63.87-40.79 0-24.799-20.18-44.97-44.97-44.97zm-68.09 24.381c0-10.34 8.41-18.76 18.76-18.76 6.82 0 12.8 3.66 16.07 9.12 7.481 12.379-1.483 28.4-16.07 28.4-10.35 0-18.76-8.421-18.76-18.76zm41.19 57.549h-44.87v-8.35c0-18.999 22.118-29.187 36.53-17.44 9.606 7.754 8.34 17.345 8.34 25.79zm26.9 0c-6.9 0-13.37-1.9-18.9-5.21v-3.14c0-11.53-6.44-21.58-15.91-26.74 10.193-6.606 14.48-18.977 11.09-30.2 6.43-5.39 14.7-8.64 23.72-8.64 20.38 0 36.97 16.59 36.97 36.97 0 20.381-16.59 36.96-36.97 36.96z" fill="#5f266d" data-original="#5f266d"></path><path d="m169.917 196.389h10.836c.27 0 .488.219.488.489 0 2.209 1.791 4 4 4s4-1.791 4-4c0-4.681-3.808-8.489-8.488-8.489h-2.772v-3.662c0-2.209-1.791-4-4-4s-4 1.791-4 4v3.662h-.063c-6.174 0-11.197 5.023-11.197 11.198s5.023 11.198 11.197 11.198h8.127c1.763 0 3.197 1.435 3.197 3.198s-1.435 3.198-3.197 3.198h-10.836c-.27 0-.488-.219-.488-.489 0-2.209-1.791-4-4-4s-4 1.791-4 4c0 4.681 3.808 8.489 8.488 8.489h2.772v3.662c0 2.209 1.791 4 4 4s4-1.791 4-4v-3.662h.063c6.174 0 11.197-5.023 11.197-11.198s-5.023-11.198-11.197-11.198h-8.127c-1.763 0-3.197-1.435-3.197-3.198s1.434-3.198 3.197-3.198z" fill="#5f266d" data-original="#5f266d"></path><path d="m237.84 208.657c7.36-4.77 12.24-13.05 12.24-22.46 0-26.102-33.922-36.782-48.82-15.13-29.446-22.561-72.25-1.45-72.25 35.72 0 32.812 34.247 54.596 63.87 40.79v.17c0 2.21 1.79 4 4 4h52.87c2.21 0 4-1.79 4-4v-12.35c0-11.53-6.44-21.581-15.91-26.74zm-14.52-41.221c10.34 0 18.76 8.42 18.76 18.76 0 16.491-19.959 25.009-31.82 13.45-12.14-11.76-3.634-32.21 13.06-32.21zm-86.31 39.35c0-31.334 36.745-48.402 60.69-28.33-.74 2.45-1.14 5.05-1.14 7.74 0 9.41 4.88 17.7 12.24 22.46-9.47 5.16-15.92 15.21-15.92 26.74v3.14c-24.473 14.649-55.87-3.098-55.87-31.75zm108.74 36.96h-44.87c0-7.777-1.487-17.858 8.34-25.79 14.695-11.923 36.53-1.29 36.53 17.44z" fill="#5f266d" data-original="#5f266d"></path><path d="m3.616 128.258c-1.614 1.509-1.699 4.04-.19 5.654 1.507 1.614 4.039 1.699 5.653.191l3.892-3.638v21.533c0 2.209 1.791 4 4 4s4-1.791 4-4v-21.533c4.092 3.825 4.636 4.715 6.622 4.715 3.605 0 5.385-4.443 2.732-6.922l-9.354-8.744v-18.368c4.092 3.825 4.636 4.715 6.622 4.715 3.605 0 5.385-4.443 2.732-6.922l-9.354-8.744v-12.25c0-8.822 7.178-16 16-16h11.359v36.341c0 7.39 6.01 13.4 13.39 13.4h49.513l-1.182 31.901h-10.992c-2.209 0-4 1.791-4 4s1.791 4 4 4h57.945c2.209 0 4-1.791 4-4s-1.791-4-4-4h-11.055l-1.182-31.901h49.513c7.38 0 13.39-5.98 13.39-13.34v-36.4h11.359c8.822 0 16 7.178 16 16v14.702l-3.892-3.638c-1.614-1.508-4.146-1.423-5.653.191-1.509 1.614-1.424 4.145.19 5.654l9.354 8.744v18.368l-3.892-3.638c-1.614-1.508-4.146-1.423-5.653.191-1.509 1.614-1.424 4.145.19 5.654l9.354 8.744v19.081c0 2.209 1.791 4 4 4s4-1.791 4-4v-19.081l9.354-8.744c1.614-1.509 1.699-4.04.19-5.654-1.507-1.614-4.039-1.699-5.653-.191l-3.892 3.638v-18.368l9.354-8.744c1.614-1.509 1.699-4.04.19-5.654-1.507-1.614-4.039-1.699-5.653-.191l-3.892 3.638v-14.702c0-13.234-10.767-24-24-24h-11.355v-36.339c0-7.39-6.01-13.4-13.39-13.4h-132.56c-7.38 0-13.39 6.01-13.39 13.4v36.339h-11.359c-13.233 0-24 10.766-24 24v12.25l-9.354 8.744c-1.614 1.509-1.699 4.04-.19 5.654 1.507 1.614 4.039 1.699 5.653.191l3.892-3.638v18.368zm134.327 15.33h-19.887l1.181-31.901h17.524zm-81.613-125.981c0-2.98 2.42-5.4 5.39-5.4h132.56c2.97 0 5.39 2.42 5.39 5.4v80.74c0 2.94-2.42 5.34-5.39 5.34h-132.56c-2.97 0-5.39-2.42-5.39-5.4z" fill="#5f266d" data-original="#5f266d"></path></g></g></g></svg>