<svg xmlns="http://www.w3.org/2000/svg" version="1.1" xmlns:xlink="http://www.w3.org/1999/xlink" xmlns:svgjs="http://svgjs.com/svgjs" width="512" height="512" x="0" y="0" viewBox="0 0 64 64" style="enable-background:new 0 0 512 512" xml:space="preserve" class=""><g><g xmlns="http://www.w3.org/2000/svg"><g><g><path d="m48 59v2c0 .55-.45 1-1 1h-9v-4h6 3c.55 0 1 .45 1 1z" fill="#b27946" data-original="#b27946"></path></g><g><path d="m38 54h6v4h-6z" fill="#cf9e76" data-original="#cf9e76"></path></g><g><path d="m62 51v2c0 .55-.45 1-1 1h-17-6v-4h22 1c.55 0 1 .45 1 1z" fill="#aab2bd" data-original="#aab2bd"></path></g><g><path d="m29 12h32c.55 0 1 .45 1 1v2c0 .55-.45 1-1 1h-1-30-2v-4l.01-.05c.28.03.58.05.87.05.04 0 .08 0 .12-.01z" fill="#aab2bd" data-original="#aab2bd"></path></g><g><path d="m60 16v34h-22v-1.27c0-7.9-4.77-14.98-12-17.99-.31-.13-.62-.25-.93-.36-.38-.14-.7-.38-.93-.69-.18-.23-.3-.5-.36-.8l-.7-3.5c.97-.41 1.85-1 2.58-1.73.99-1 1.72-2.25 2.09-3.66h2.25c.55 0 1.05-.22 1.41-.59.37-.36.59-.86.59-1.41 0-1.1-.9-2-2-2z" fill="#e6e9ed" data-original="#e6e9ed"></path></g><g><path d="m45.12 26.88c.54.54.88 1.29.88 2.12s-.34 1.58-.88 2.12-1.29.88-2.12.88c-1.66 0-3-1.34-3-3 0-.35.06-.69.18-1 .4-1.17 1.51-2 2.82-2 .83 0 1.58.34 2.12.88z" fill="#ffeaa7" data-original="#ffeaa7"></path></g><g><path d="m45.12 31.12 2.83 2.83c-1.27 1.27-3.01 2.05-4.95 2.05-3.87 0-7-3.13-7-7 0-.34.02-.68.08-1h4.09.01c-.12.31-.18.65-.18 1 0 1.66 1.34 3 3 3 .83 0 1.58-.34 2.12-.88z" fill="#fcd770" data-original="#fcd770" class=""></path></g><g><path d="m47.95 24.05-2.83 2.83c-.54-.54-1.29-.88-2.12-.88-1.31 0-2.42.83-2.82 2h-.01-4.09c.48-3.4 3.39-6 6.92-6 1.94 0 3.68.78 4.95 2.05z" fill="#b4dd7f" data-original="#b4dd7f"></path></g><g><path d="m47.95 24.05c1.27 1.27 2.05 3.01 2.05 4.95s-.78 3.68-2.05 4.95l-2.83-2.83c.54-.54.88-1.29.88-2.12s-.34-1.58-.88-2.12z" fill="#ef7385" data-original="#ef7385"></path></g><g><path d="m56 41v4c0 .55-.45 1-1 1h-4c-.55 0-1-.45-1-1v-4c0-.55.45-1 1-1h4c.55 0 1 .45 1 1z" fill="#ef7385" data-original="#ef7385"></path></g><g><path d="m21 38 1.82 5.47c-.8 1.27-1.74 2.45-2.82 3.53-1.08-1.08-2.02-2.26-2.82-3.53l1.82-5.47z" fill="#ef7385" data-original="#ef7385"></path></g><g><path d="m22.75 35.37v.01l-1.75 2.62h-2l-1.75-2.62v-.01l2.75-1.37z" fill="#ed5565" data-original="#ed5565"></path></g><g><path d="m22.75 35.38 2.79 1.4c-.25 1.23-.62 2.42-1.1 3.58-.45 1.08-.99 2.12-1.62 3.11l-1.82-5.47z" fill="#b4dd7f" data-original="#b4dd7f"></path></g><g><path d="m17.25 35.38 1.75 2.62-1.82 5.47c-1.3-2.05-2.23-4.31-2.72-6.69z" fill="#b4dd7f" data-original="#b4dd7f"></path></g><g><path d="m20 34-2.75 1.37v.01l-2.79 1.4h-.01c-.3-1.39-.45-2.82-.45-4.27v-1.77c.31-.13.62-.25.93-.36.38-.14.7-.38.93-.69l4.14 3.31 4.14-3.31c.23.31.55.55.93.69.31.11.62.23.93.36v1.77c0 1.45-.15 2.88-.45 4.27h-.01l-2.79-1.4v-.01z" fill="#a0d468" data-original="#a0d468"></path></g><g><path d="m30 62h-20-8v-13.27c0-4.11 1.3-8.01 3.56-11.22 2.08-2.95 4.98-5.33 8.44-6.77v1.77c0 1.45.15 2.88.45 4.27h.01c.49 2.38 1.42 4.64 2.72 6.69.8 1.27 1.74 2.45 2.82 3.53 1.08-1.08 2.02-2.26 2.82-3.53.63-.99 1.17-2.03 1.62-3.11.48-1.16.85-2.35 1.1-3.58h.01c.3-1.39.45-2.82.45-4.27v-1.77c7.23 3.01 12 10.09 12 17.99v1.27 4 4 4z" fill="#75b1f2" data-original="#75b1f2"></path></g><g><path d="m12 13.13v2.87h-2l-1.64-4.11c-.24-.59-.36-1.22-.36-1.85v-.04c0-2.76 2.24-5 5-5 1.3-.98 2.74-1.72 4.26-2.23s3.12-.77 4.74-.77h7.12c2.7 0 4.88 2.18 4.88 4.88 0 1.36-.54 2.66-1.5 3.62-.93.93-2.18 1.47-3.5 1.49-.04.01-.08.01-.12.01-.29 0-.59-.02-.87-.05-1.55-.16-3.03-.76-4.26-1.75l-1.5-1.2h-5.25l-4.03 2.42c-.6.36-.97 1.01-.97 1.71z" fill="#fcd770" data-original="#fcd770" class=""></path></g><g><path d="m30 16c1.1 0 2 .9 2 2 0 .55-.22 1.05-.59 1.41-.36.37-.86.59-1.41.59h-2.25c.16-.64.25-1.31.25-2v-2z" fill="#f5e0cd" data-original="#f5e0cd"></path></g><g><path d="m24.14 29.69-4.14 3.31-4.14-3.31c.18-.23.3-.5.36-.8l.7-3.5c.95.39 1.99.61 3.08.61s2.13-.22 3.08-.61l.7 3.5c.06.3.18.57.36.8z" fill="#f5e0cd" data-original="#f5e0cd"></path></g><g><path d="m28.01 11.95-.01.05v4 2c0 .69-.09 1.36-.25 2-.37 1.41-1.1 2.66-2.09 3.66-.73.73-1.61 1.32-2.58 1.73-.95.39-1.99.61-3.08.61s-2.13-.22-3.08-.61c-2.29-.96-4.04-2.95-4.67-5.39-.16-.64-.25-1.31-.25-2v-2-2.87c0-.7.37-1.35.97-1.71l4.03-2.42h5.25l1.5 1.2c1.23.99 2.71 1.59 4.26 1.75z" fill="#f5e0cd" data-original="#f5e0cd"></path></g><g><path d="m12 16v2c0 .69.09 1.36.25 2h-2.25c-.55 0-1.05-.22-1.41-.59-.37-.36-.59-.86-.59-1.41 0-1.1.9-2 2-2z" fill="#f5e0cd" data-original="#f5e0cd"></path></g></g><g><circle cx="16" cy="16" r="1" fill="#000000" data-original="#000000" class=""></circle><circle cx="24" cy="16" r="1" fill="#000000" data-original="#000000" class=""></circle><path d="m23.789 20.658.105-.211-1.789-.895-.105.212c-.381.762-1.147 1.236-2 1.236s-1.619-.474-2-1.236l-.105-.211-1.789.895.105.21c.722 1.445 2.174 2.342 3.789 2.342s3.067-.897 3.789-2.342z" fill="#000000" data-original="#000000" class=""></path><path d="m63 15v-2c0-1.103-.897-2-2-2h-27.605c1.033-1.131 1.605-2.581 1.605-4.121 0-3.242-2.638-5.879-5.879-5.879h-7.121c-3.332 0-6.636 1.066-9.341 3.01-3.15.177-5.659 2.797-5.659 6.027 0 .767.145 1.517.429 2.229l1.227 3.067c-.978.495-1.656 1.498-1.656 2.667 0 1.654 1.346 3 3 3h1.525c.757 2.133 2.29 3.899 4.265 4.949l-.549 2.745c-.068.342-.315.628-.644.745-8.133 2.905-13.597 10.659-13.597 19.295v14.266h37 1 8c1.103 0 2-.897 2-2v-2c0-1.103-.897-2-2-2h-2v-2h16c1.103 0 2-.897 2-2v-2c0-1.103-.897-2-2-2v-32c1.103 0 2-.897 2-2zm-2 0h-31-1v-2h32zm-30 3c0 .551-.448 1-1 1h-1.059c.037-.329.059-.662.059-1v-1h1c.552 0 1 .449 1 1zm-21 1c-.552 0-1-.449-1-1s.448-1 1-1h1v1c0 .338.022.671.059 1zm3-1v-4.868c0-.349.186-.678.485-.857l3.452-2.071 3.463 2.596 1.199-1.6-4.537-3.404-4.606 2.764c-.898.539-1.456 1.524-1.456 2.572v1.868h-.323l-1.391-3.478c-.19-.474-.286-.974-.286-1.522 0-2.206 1.794-4 4-4h.333l.267-.2c2.408-1.805 5.391-2.8 8.4-2.8h7.121c2.139 0 3.879 1.74 3.879 3.879 0 1.084-.44 2.146-1.207 2.914-.778.778-1.813 1.207-2.914 1.207-1.63 0-3.229-.561-4.502-1.579l-2.752-2.202-1.25 1.562 2.752 2.202c1.132.905 2.466 1.519 3.873 1.814v5.203c0 3.86-3.141 7-7 7s-7-3.14-7-7zm8.29 17.763-.825 1.237h-.93l-.825-1.237 1.29-.645zm-4.382.901.989 1.484-.953 2.86c-.573-1.18-1.012-2.419-1.334-3.695zm2.812 2.336h.559l1.437 4.313c-.52.777-1.082 1.531-1.717 2.235-.635-.705-1.197-1.458-1.717-2.235zm3.336 2.008-.953-2.86.989-1.484 1.298.649c-.322 1.276-.761 2.515-1.334 3.695zm1.944-8.493c0 .933-.085 1.852-.213 2.76l-3.711-1.855 3.025-2.42c.196.129.404.243.63.323.092.033.179.074.27.108v1.084zm-5-5.515c.802 0 1.577-.116 2.318-.314l.48 2.399c.022.109.072.206.106.311l-2.904 2.323-2.903-2.323c.033-.104.084-.202.106-.31l.48-2.4c.74.198 1.515.314 2.317.314zm-4.729 4.322c.225-.08.433-.194.629-.323l3.025 2.42-3.711 1.855c-.129-.907-.214-1.826-.214-2.759v-1.084c.091-.034.178-.076.271-.109zm21.729 29.678h-6v-17.586c0-.645.251-1.251.707-1.707l-1.414-1.415c-.834.834-1.293 1.942-1.293 3.122v17.586h-18v-17.586c0-1.18-.459-2.288-1.293-3.122l-1.414 1.415c.456.456.707 1.062.707 1.707v17.586h-6v-12.266c0-6.957 3.935-13.269 10-16.411v.192c0 5.739 2.234 11.134 6.293 15.192l.707.707.707-.707c4.059-4.058 6.293-9.454 6.293-15.192v-.192c6.064 3.141 10 9.454 10 16.411zm10 0h-8v-2h8zm-4-4h-4v-2h4zm18-4h-22v-2h22zm-2-4h-20v-.266c0-8.636-5.464-16.39-13.597-19.294-.329-.118-.576-.403-.645-.746l-.549-2.744c1.975-1.05 3.508-2.817 4.265-4.949h1.526c1.654 0 3-1.346 3-3 0-.352-.072-.686-.184-1h26.184z" fill="#000000" data-original="#000000" class=""></path><path d="m33 27v2h2c0 4.411 3.589 8 8 8 1.846 0 3.542-.634 4.898-1.688l1.102 1.102c.372.373.888.586 1.414.586h2.586v-2h-2.586l-1.102-1.102c1.054-1.356 1.688-3.052 1.688-4.898h2v-2h-2.263c-.277-1.069-.766-2.05-1.425-2.898l1.102-1.102h2.586v-2h-2.586c-.526 0-1.042.213-1.414.586l-1.102 1.102c-1.356-1.054-3.052-1.688-4.898-1.688-3.719 0-6.845 2.555-7.737 6zm10 8c-3.309 0-6-2.691-6-6h2c0 2.206 1.794 4 4 4 .74 0 1.424-.215 2.019-.567l1.452 1.452c-.981.699-2.177 1.115-3.471 1.115zm2-6c0 1.103-.897 2-2 2s-2-.897-2-2 .897-2 2-2 2 .897 2 2zm4 0c0 1.294-.416 2.49-1.115 3.471l-1.452-1.452c.352-.595.567-1.279.567-2.019s-.215-1.424-.567-2.019l1.452-1.452c.699.981 1.115 2.177 1.115 3.471zm-6-6c1.294 0 2.49.416 3.471 1.115l-1.452 1.452c-.595-.352-1.279-.567-2.019-.567-1.474 0-2.75.81-3.444 2h-2.206c.826-2.327 3.043-4 5.65-4z" fill="#000000" data-original="#000000" class=""></path><path d="m55 21h2v2h-2z" fill="#000000" data-original="#000000" class=""></path><path d="m55 35h2v2h-2z" fill="#000000" data-original="#000000" class=""></path><path d="m55 27h2v2h-2z" fill="#000000" data-original="#000000" class=""></path><path d="m29 27h2v2h-2z" fill="#000000" data-original="#000000" class=""></path><path d="m49 41v4c0 1.103.897 2 2 2h4c1.103 0 2-.897 2-2v-4c0-1.103-.897-2-2-2h-4c-1.103 0-2 .897-2 2zm6.001 4h-4.001v-4h4z" fill="#000000" data-original="#000000" class=""></path><path d="m40 41h7v2h-7z" fill="#000000" data-original="#000000" class=""></path><path d="m42 45h5v2h-5z" fill="#000000" data-original="#000000" class=""></path></g></g></g></svg>