<svg xmlns="http://www.w3.org/2000/svg" version="1.1" xmlns:xlink="http://www.w3.org/1999/xlink" xmlns:svgjs="http://svgjs.com/svgjs" width="512" height="512" x="0" y="0" viewBox="0 0 512 512" style="enable-background:new 0 0 512 512" xml:space="preserve" class=""><g><g xmlns="http://www.w3.org/2000/svg"><path d="m458.062 405.561c27.077-39.411 42.936-87.13 42.936-138.56 0-135.309-109.69-244.999-244.999-244.999s-244.998 109.69-244.998 244.999c0 51.452 15.873 99.191 42.972 138.612z" fill="#ff4155" data-original="#ff4155" class=""></path><path d="m254.676 18.533c-56.863 0-103.124 46.261-103.124 103.124.132 1.98-.366 3.051.627 3.767 1.323.953 2.112 2.49 2.112 4.111v5.844c0 5.303 6.277 7.973 7.111 5.382 2.107-6.544 7.936-7.097 10.38-7.056.072.001.143.005.218.001 2.012.008 3.958.612 5.631 1.748.818.56 1.976.183 2.286-.792.919-2.916 1.232-5.868 1.028-8.633-1.065-14.505-.275-39.996 16.982-47.762 15.404-6.939 30.915-2.13 41.11-.177 5.761 1.677 15.251 5.712 28.558 1.286 12.515-4.163 30.526-7.735 45.254-1.11 17.224 7.752 18.037 33.178 16.988 47.646-.192 2.668.08 5.353.807 7.979.256.927 1.303 1.374 2.144.939 5.331-2.743 13.054-.609 15.162 5.93.231.719.955 1.15 1.698 1.023 3.136-.555 5.413-3.248 5.413-6.405v-5.844c0-1.62.789-3.157 2.112-4.111.996-.718.496-1.806.627-3.767 0-56.862-46.261-103.123-103.124-103.123z" fill="#41416b" data-original="#41416b"></path><path d="m251.812 21.918c1.107-.77 1.437-2.179.951-3.361-55.983 1.024-101.211 46.876-101.211 103.099.132 1.98-.366 3.051.627 3.767 1.323.953 2.112 2.49 2.112 4.111v5.844c0 5.303 6.277 7.973 7.111 5.382 2.107-6.544 7.936-7.097 10.38-7.056.072.001.143.005.218.001 2.012.008 3.958.612 5.631 1.748.818.561 1.976.183 2.286-.792.919-2.916 1.232-5.868 1.028-8.633-1.065-14.505-.275-39.996 16.982-47.762 15.243-6.866 30.587-2.231 40.785-.241l.679-1.404c.001 0-19.499-32.508 12.421-54.703z" fill="#35355e" data-original="#35355e"></path><path d="m53.28 404.613c44.083 64.813 118.427 107.387 202.72 107.387 84.316 0 158.677-42.596 202.756-107.439-6.038-19.272-17.174-38.132-37.443-48.566l.006-.014c-1.365-.65-3.184-1.607-6.345-2.846-65.028-28.907-72.521-27.611-79.113-29.811.199.196.377.413.509.675-.233 1.95 1.017 1.63-3.563 13.404-9.493 23.556-26.754 44.243-46.757 60.061-2.021 1.596-4.817 1.702-6.959.272-3.45-2.304-9.522 19.457-9.193 25.632.116 3.705.029-.703.059 49.642 0 1.984-1.643 3.598-3.663 3.598-.169 0-21.17 0-20.532 0-2.019 0-3.663-1.614-3.663-3.598.031-50.344-.057-45.942.059-49.642.003-.044.001-.089-.002-.132-.845-10.886-6.073-27.582-9.191-25.5-2.142 1.431-4.938 1.324-6.959-.272-20.003-15.819-37.264-36.505-46.757-60.061-4.581-11.774-3.33-11.454-3.563-13.404.132-.262.31-.479.508-.675-6.592 2.2-14.084.904-79.112 29.811-3.161 1.239-4.981 2.195-6.346 2.846l.007.014c-20.289 10.443-31.427 29.328-37.463 48.618z" fill="#ffdd40" data-original="#ffdd40"></path><path d="m175.685 323.999c.132-.262.309-.479.508-.675-6.592 2.2-14.084.904-79.112 29.811-3.161 1.239-4.981 2.195-6.346 2.846l.007.014c-20.286 10.443-31.424 29.328-37.46 48.618 16.346 24.033 36.851 45.008 60.485 61.888l7.898-26.062c3.371-11.124 11.272-20.313 21.764-25.313l58.423-27.841v-13.091c-9.407-11.11-17.244-23.493-22.603-36.792-4.583-11.773-3.332-11.453-3.564-13.403z" fill="#ffc839" data-original="#ffc839" class=""></path><path d="m195.84 306.724 1.09 6.003.034.142c.316 1.38.675 2.769 1.068 4.129l.061.206c.131.453.271.914.412 1.366l.086.275c.151.474.307.955.476 1.459l.057.165c3.591 10.547 11.436 25.919 28.403 39.256 4.398 3.458 9.204 6.636 14.285 9.446 2.282 1.262 3.945 3.181 4.809 5.55.057.157.144.302.255.428 2.605 2.932 5.094 6.155 7.398 9.579.497.736 1.718.736 2.212 0 2.294-3.413 4.79-6.641 7.415-9.593.112-.125.198-.27.255-.427.868-2.364 2.528-4.279 4.802-5.537 36.487-20.181 44.333-49.928 46.003-62.664-4.466-10.225-5.892-22.865-6.226-32.568-5.389 6.277-11.044 11.526-16.448 15.723-10.528 8.176-23.52 12.616-36.901 12.616s-26.373-4.441-36.901-12.616c-5.404-4.197-11.06-9.446-16.449-15.723-.334 9.703-1.761 22.344-6.227 32.569z" fill="#fca870" data-original="#fca870" class=""></path><path d="m218.488 289.661c-5.404-4.197-11.06-9.446-16.449-15.723-.334 9.703-1.761 22.344-6.227 32.569l.027.217 1.09 6.003.034.142c.316 1.38.675 2.769 1.068 4.129l.061.206c.131.453.27.914.412 1.366l.086.275c.151.474.307.955.476 1.458l.057.165c3.591 10.547 11.436 25.919 28.403 39.256 1.383 1.088 2.82 2.136 4.28 3.166 14.878-25.054 19.652-48.323 21.184-60.662-12.528-.498-24.604-4.881-34.502-12.567z" fill="#f9955f" data-original="#f9955f" class=""></path><path d="m338.329 146.674c-1.054-2.751-2.31-5.278-3.734-7.512-2.435-3.819-3.589-8.486-3.252-13.142 1.077-14.861.186-41.002-17.874-49.129-15.168-6.823-33.578-3.194-46.35 1.054-7.565 2.518-15.897 2.517-23.462 0-12.773-4.248-31.182-7.881-46.35-1.054-7.767 3.495-20.415 14.541-17.866 49.248.336 4.572-.822 9.198-3.26 13.025-1.383 2.169-2.609 4.617-3.643 7.273-3.029 7.782-4.009 16.418-2.835 24.976l4.236 30.806c0 51.019 30.868 80.495 44.139 90.801 10.592 8.227 23.843 12.758 37.31 12.758 13.466 0 26.717-4.53 37.309-12.758 13.271-10.305 44.139-39.783 44.132-90.709l4.242-30.891c1.164-8.473.216-17.03-2.742-24.746z" fill="#f9bd91" data-original="#f9bd91"></path><g><path d="m253.718 293.019c-9.441-10.305-31.399-39.782-31.399-90.801l-3.013-30.806c-.836-8.558-.139-17.194 2.016-24.976.736-2.657 1.608-5.105 2.592-7.274 1.735-3.827 2.558-8.452 2.319-13.025-1.813-34.707 7.184-45.753 12.709-49.248.149-.094.3-.179.45-.27-12.395-3.579-28.532-5.83-42.084.27-7.766 3.495-20.414 14.541-17.865 49.248.336 4.572-.822 9.198-3.26 13.025-1.383 2.169-2.609 4.617-3.643 7.274-3.029 7.782-4.009 16.418-2.835 24.976l4.236 30.806c0 51.019 30.868 80.495 44.139 90.801 10.592 8.227 23.843 12.758 37.31 12.758 4.913 0 9.795-.61 14.532-1.775-5.868-2.029-11.418-5.757-16.204-10.983z" fill="#fca870" data-original="#fca870" class=""></path></g><g><path d="m256.325 385.401c-7.272-11.239-14.441-17.141-14.441-17.141l-18.525 29.753c13.345 8.59 15.729 29.575 16.154 36.336 1.107-21.729 9.336-38.242 16.812-48.948z" fill="#ff9100" data-original="#ff9100"></path></g><path d="m271.171 477.693v-41.197s.232-28.176 16.247-38.483l-18.525-29.753s-29.519 24.255-29.519 68.237v41.197h31.797z" fill="#ffb332" data-original="#ffb332" class=""></path><path d="m242.46 368.004c-36.945-20.433-44.066-50.854-45.432-62.505-.242-2.064-2.631-3.084-4.306-1.855l-25.008 18.335c-1.335.979-1.975 2.668-1.572 4.272 9.95 39.604 41.936 68.521 56.036 79.669 3.589 2.838 8.823 2.015 11.377-1.781 3.612-5.368 8.721-12.96 12.938-19.226 3.936-5.851 2.138-13.496-4.033-16.909z" fill="#ffc839" data-original="#ffc839" class=""></path><g fill="#ffb332"><path d="m228.353 358.678c-24.744-19.45-30.156-43.199-31.326-53.179-.242-2.063-2.631-3.083-4.306-1.854l-25.008 18.335c-1.335.979-1.975 2.668-1.572 4.273 6.367 25.344 21.755 46.3 35.708 61.034 11.077-36.364 23.432-30.732 26.504-28.609z" fill="#ffb332" data-original="#ffb332" class=""></path><path d="" fill="#ffb332" data-original="#ffb332" class=""></path></g><path d="m343.063 321.979-25.008-18.335c-1.675-1.229-4.064-.209-4.306 1.855-1.366 11.651-8.487 42.072-45.432 62.505-6.171 3.413-7.97 11.058-4.032 16.909 4.216 6.266 9.325 13.858 12.938 19.226 2.554 3.796 7.789 4.618 11.377 1.781 14.1-11.148 46.086-40.065 56.035-79.669.403-1.605-.237-3.294-1.572-4.272z" fill="#ffc839" data-original="#ffc839" class=""></path><path d="m263.027 424.485c0 3.45-2.796 6.247-6.247 6.247-3.45 0-6.247-2.797-6.247-6.247s2.797-6.247 6.247-6.247c3.451 0 6.247 2.797 6.247 6.247z" fill="#ffc839" data-original="#ffc839" class=""></path><path d="m261.635 455.47c0 3.45-2.797 6.247-6.247 6.247s-6.247-2.797-6.247-6.247 2.797-6.247 6.247-6.247 6.247 2.797 6.247 6.247z" fill="#ffc839" data-original="#ffc839" class=""></path><path d="m239.373 476.301v11.672c0 2.922 2.4 5.29 5.36 5.29h21.078c2.96 0 5.36-2.368 5.36-5.29v-11.672z" fill="#ff9100" data-original="#ff9100"></path><path d="m254.677 0c-66.013 0-119.528 53.514-119.528 119.527v14.209h17.912v-12.08c0-56.12 45.495-101.615 101.615-101.615 56.121 0 101.616 45.495 101.616 101.615v12.08h17.912v-14.209c0-66.013-53.514-119.527-119.527-119.527z" fill="#e3e7fc" data-original="#e3e7fc"></path><path d="m135.149 119.527v14.209h17.912v-12.08c0-55.544 44.567-100.673 99.893-101.593.117-.781-.084-1.612-.637-2.271-2.699-3.219-5.774-9.659 2.359-17.792-66.013 0-119.527 53.514-119.527 119.527z" fill="#c8cefc" data-original="#c8cefc"></path><path d="m369.529 122.957h-9.399c-3.632 0-6.577 2.945-6.577 6.577v5.844c0 2.975-2.571 5.25-5.534 4.983l-.057-.005c.367 1.103.568 2.274.568 3.487v78.355c0 1.213-.2 2.384-.568 3.487 6.39-.568 12.392-2.398 17.728-5.225 6.419-3.4 10.415-10.09 10.415-17.354v-44.892-5.048-23.632c.001-3.633-2.944-6.577-6.576-6.577z" fill="#c8cefc" data-original="#c8cefc"></path><g><path d="m365.69 171.71c-5.177 2.743-10.984 4.536-17.16 5.16v45.328c0 1.213-.2 2.384-.567 3.487 6.39-.568 12.392-2.397 17.728-5.225 6.419-3.4 10.415-10.09 10.415-17.355v-44.892-3.858c0 7.265-3.997 13.955-10.416 17.355z" fill="#b8c0f4" data-original="#b8c0f4"></path></g><path d="m338.301 233.843h-.909c-6.405 0-11.646-5.24-11.646-11.645v-78.355c0-6.405 5.241-11.646 11.646-11.646h.909c6.405 0 11.646 5.241 11.646 11.646v78.355c-.001 6.405-5.241 11.645-11.646 11.645z" fill="#e3e7fc" data-original="#e3e7fc"></path><path d="m139.824 122.957h9.399c3.632 0 6.577 2.945 6.577 6.577v5.844c0 2.975 2.571 5.25 5.534 4.983l.057-.005c-.367 1.103-.567 2.274-.567 3.487v78.355c0 1.213.2 2.384.567 3.487-6.39-.568-12.392-2.398-17.728-5.225-6.419-3.4-10.415-10.09-10.415-17.354v-44.892-5.048-23.632c0-3.633 2.944-6.577 6.576-6.577z" fill="#b8c0f4" data-original="#b8c0f4"></path><g><path d="m160.823 175.87c-6.176-.624-11.984-2.417-17.16-5.16-6.419-3.4-10.415-10.09-10.415-17.355v4.858 44.892c0 7.264 3.997 13.954 10.415 17.355 5.336 2.827 11.338 4.656 17.728 5.225-.367-1.103-.567-2.273-.567-3.487v-46.328z" fill="#a4b0ea" data-original="#a4b0ea" class=""></path></g><path d="m171.052 233.843h.91c6.405 0 11.646-5.24 11.646-11.645v-78.355c0-6.405-5.24-11.646-11.646-11.646h-.91c-6.405 0-11.645 5.241-11.645 11.646v78.355c0 6.405 5.24 11.645 11.645 11.645z" fill="#e3e7fc" data-original="#e3e7fc"></path><path d="m338.301 184.387h-.91c-6.405 0-11.645-5.241-11.645-11.645v49.457c0 6.405 5.24 11.646 11.645 11.646h.91c6.405 0 11.645-5.24 11.645-11.646v-49.457c.001 6.404-5.24 11.645-11.645 11.645z" fill="#c8cefc" data-original="#c8cefc"></path><path d="m171.962 184.387h-.91c-6.405 0-11.645-5.241-11.645-11.645v49.457c0 6.405 5.24 11.646 11.645 11.646h.91c6.405 0 11.646-5.24 11.646-11.646v-49.457c-.001 6.404-5.241 11.645-11.646 11.645z" fill="#c8cefc" data-original="#c8cefc"></path><g><path d="m298.275 307.995c-1.224-3.981 1.012-8.2 4.993-9.424 15.051-4.625 28.561-10.414 37.243-14.457 3.211-1.494 5.68-4.291 6.773-7.673l11.888-36.795c2.325-7.194-1.952-12.062-2.846-14.579-1.842-3.734-.307-8.256 3.428-10.1 3.736-1.842 8.256-.306 10.1 3.428.688 2.147 8.166 11.97 3.671 25.888l-11.888 36.795c-2.378 7.361-7.759 13.452-14.76 16.711-9.113 4.241-23.307 10.322-39.178 15.199-3.999 1.231-8.206-1.029-9.424-4.993z" fill="#e3e7fc" data-original="#e3e7fc"></path></g><g><path d="m262.951 326.881c-7.497 0-13.575-6.077-13.575-13.575 0-7.497 6.077-13.575 13.575-13.575 8.571 0 18.759-1.537 30.28-4.566 7.255-1.91 14.674 2.424 16.581 9.675s-2.424 14.674-9.675 16.581c-13.775 3.622-26.286 5.46-37.186 5.46z" fill="#ff4155" data-original="#ff4155" class=""></path></g><path d="m276.646 308.966c0-4.399 1.865-8.355 4.834-11.149-6.795 1.266-13.003 1.914-18.529 1.914-7.497 0-13.575 6.078-13.575 13.575 0 7.498 6.077 13.575 13.575 13.575 7.888 0 16.631-.977 26.074-2.881-7.054-1.374-12.379-7.579-12.379-15.034z" fill="#e80054" data-original="#e80054"></path><path d="m422.566 18.524h-68.931c-36.736 0-66.794 30.057-66.794 66.794 0 36.737 30.057 66.794 66.794 66.794h46.972c2.231 0 4.04 1.809 4.04 4.04v23.425c0 2.647 2.874 4.305 5.161 2.972 12.898-7.52 19.284-17.984 22.442-26.788.983-2.741 3.231-4.852 6.061-5.542 29.204-7.125 51.05-33.584 51.05-64.902-.001-36.735-30.058-66.793-66.795-66.793z" fill="#49dafc" data-original="#49dafc"></path><path d="m286.842 85.318c0 36.737 30.057 66.794 66.793 66.794h21.37c-26.763-26.231-1.909-58.508-1.909-58.508l-4.97-16.462c-25.552-29.988 0-58.585 0-58.585l-.049-.033h-14.441c-36.737 0-66.794 30.058-66.794 66.794z" fill="#26c6f7" data-original="#26c6f7"></path><g fill="#fff"><path d="m341.179 86.124c0 4.961-4.021 8.982-8.982 8.982s-8.983-4.021-8.983-8.982 4.022-8.982 8.983-8.982 8.982 4.021 8.982 8.982z" fill="#ffffff" data-original="#ffffff"></path><path d="m377.107 86.124c0 4.961-4.021 8.982-8.982 8.982s-8.982-4.021-8.982-8.982 4.021-8.982 8.982-8.982 8.982 4.021 8.982 8.982z" fill="#ffffff" data-original="#ffffff"></path><path d="m413.036 86.124c0 4.961-4.021 8.982-8.982 8.982s-8.982-4.021-8.982-8.982 4.021-8.982 8.982-8.982 8.982 4.021 8.982 8.982z" fill="#ffffff" data-original="#ffffff"></path><path d="m448.965 86.124c0 4.961-4.021 8.982-8.982 8.982s-8.982-4.021-8.982-8.982 4.021-8.982 8.982-8.982 8.982 4.021 8.982 8.982z" fill="#ffffff" data-original="#ffffff"></path></g></g></g></svg>