<svg xmlns="http://www.w3.org/2000/svg" version="1.1" xmlns:xlink="http://www.w3.org/1999/xlink" xmlns:svgjs="http://svgjs.com/svgjs" width="512" height="512" x="0" y="0" viewBox="0 0 512 512" style="enable-background:new 0 0 512 512" xml:space="preserve" class=""><g>
                                <g xmlns="http://www.w3.org/2000/svg">
                                                            <g>
                                                            <g>
                                                            <g>
                                                            <g>
                                                            <g>
                                                            <circle style="" cx="256" cy="256" r="256" fill="#19cffc" data-original="#19cffc" class=""></circle>
					                                </g>
				                                </g>
			                                </g>
		                                </g>
	                                </g>
                                                            <path style="" d="M512,256c0-11.73-0.806-23.27-2.333-34.581L396.261,108.013l-53.819,24.168L256,45.74   L139.833,223.167L115.739,375l136.958,136.958c1.101,0.014,2.198,0.042,3.303,0.042C397.385,512,512,397.385,512,256z" fill="#1ea1e3" data-original="#1ea1e3"></path>
                                                            <g>
                                                            <polygon style="" points="327.271,140.738 256,84.068 184.729,140.738 166.059,117.256 256,45.74 345.941,117.256       " fill="#ffffff" data-original="#ffffff" class=""></polygon>
	                                </g>
                                                            <g>
                                                            <polygon style="" points="256,45.74 256,84.068 327.271,140.738 345.941,117.256   " fill="#dce1eb" data-original="#dce1eb"></polygon>
	                                </g>
                                                            <g>
                                                            <polygon style="" points="396.261,375 256,454.884 115.739,375 115.739,108.013 396.261,108.013   " fill="#ffffff" data-original="#ffffff" class=""></polygon>
	                                </g>
                                                            <g>
                                                            <polygon style="" points="256,108.013 256,454.884 396.261,375 396.261,108.013   " fill="#dce1eb" data-original="#dce1eb"></polygon>
	                                </g>
                                                            <g>
                                                            <polygon style="" points="360.102,350.883 256,410.173 151.898,350.883 151.898,108.013 360.102,108.013   " fill="#ff7045" data-original="#ff7045" class=""></polygon>
	                                </g>
                                                            <g>
                                                            <polygon style="" points="256,108.013 256,410.173 360.102,350.883 360.102,108.013   " fill="#de4726" data-original="#de4726"></polygon>
	                                </g>
                                                            <g>
                                                            <polygon style="" points="256,190.92 278.151,235.802 327.681,243 291.841,277.936 300.302,327.266 256,303.975     211.698,327.266 220.159,277.936 184.319,243 233.849,235.802   " fill="#ffffff" data-original="#ffffff" class=""></polygon>
	                                </g>
                                                            <g>
                                                            <polygon style="" points="327.681,243 278.151,235.802 256,190.92 256,303.975 300.302,327.266 291.841,277.936       " fill="#dce1eb" data-original="#dce1eb"></polygon>
	                                </g>
                                </g>
                            </g></svg>