<svg xmlns="http://www.w3.org/2000/svg" version="1.1" xmlns:xlink="http://www.w3.org/1999/xlink" xmlns:svgjs="http://svgjs.com/svgjs" width="512" height="512" x="0" y="0" viewBox="0 0 512 512" style="enable-background:new 0 0 512 512" xml:space="preserve" class=""><g><g xmlns="http://www.w3.org/2000/svg"><path d="m89.853 442-4.26 1c44.092 42.707 104.174 69 170.407 69s126.315-26.293 170.407-69l-4.26-1z" fill="#ffbd86" data-original="#ffbd86" class=""></path><g><g><path d="m256 22c-135.31 0-245 109.69-245 245 0 49.891 14.927 96.289 40.538 135l4.089 1h400.746l4.089-1c25.611-38.711 40.538-85.109 40.538-135 0-135.31-109.69-245-245-245z" fill="#814ba2" data-original="#814ba2" class=""></path></g></g><path d="m132 300h-19c-15.95 0-29 13.05-29 29v74h48z" fill="#ffffff" data-original="#ffffff"></path><path d="m132 300.026v-.026h-19c-15.95 0-29 13.05-29 29v74h20v-74c0-15.615 12.509-28.442 28-28.974z" fill="#f5f8f9" data-original="#f5f8f9"></path><path d="m71.888 214.425c-1.657 0-3-1.344-3-3.001l.017-63.324c.001-3.478 1.213-6.828 3.396-9.495l-1.825.425c-1.263 1.28-3.019 2.015-4.818 2.015-7.714 0-13.889-5.966-14.059-13.583-.102-4.59 2.425-8.888 6.596-11.218l9.464-5.288-.188-1.118h-16.875c-2.563 0-4.787-1.463-5.893-3.596l-.973.288c-1.275 1.683-3.288 2.777-5.557 2.777-3.846 0-6.975-3.129-6.975-6.975h-2c0 3.846-3.129 6.975-6.975 6.975s-6.975-3.129-6.975-6.975h-1v21.915c0 3.533 1.406 6.92 3.908 9.414l3.794 3.781c2.824 2.815 4.411 6.637 4.411 10.624v93.697c0 8.388 6.8 15.188 15.188 15.188h43.451v-42.525h-13.112z" fill="#fed2a4" data-original="#fed2a4"></path><g><path d="m43.113 241.762v-93.697c0-3.987-1.587-7.81-4.411-10.624l-3.794-3.781c-2.502-2.494-3.908-5.881-3.908-9.414v-21.915h-1.801c0 3.846-3.129 6.975-6.975 6.975s-6.975-3.129-6.975-6.975h-1v21.915c0 3.533 1.406 6.92 3.908 9.414l3.794 3.781c2.824 2.815 4.411 6.637 4.411 10.624v93.697c0 8.388 6.8 15.188 15.188 15.188h16.75c-8.387 0-15.187-6.8-15.187-15.188z" fill="#ffbd86" data-original="#ffbd86" class=""></path></g><path d="m290.625 209.363h-53.288v10.125c0 11.731-9.544 21.275-21.275 21.275s-21.275-9.544-21.275-21.275v-10.125h-107.749c-1.678 0-3.038 1.36-3.038 3.038v64.8c0 1.678 1.36 3.038 3.038 3.038h38.962c2.761 0 5 2.239 5 5v117.761h190v-163.262c0-16.776-13.599-30.375-30.375-30.375z" fill="#97d729" data-original="#97d729" class=""></path><g><path d="m151 403v-138.762c0-2.761-2.239-5-5-5h-38.962c-1.678 0-3.038-1.36-3.038-3.038v-46.837h-16.962c-1.678 0-3.038 1.36-3.038 3.038v64.8c0 1.678 1.36 3.038 3.038 3.038h38.962c2.761 0 5 2.239 5 5v117.761z" fill="#8bc727" data-original="#8bc727"></path></g><path d="m244.363 376.298h-64.677c-3.14 0-5.685 2.546-5.685 5.686v21.016h70.363v-26.702z" fill="#9faced" data-original="#9faced"></path><g><path d="m450.315 262.589h-201.267c-3.14 0-5.685 2.546-5.685 5.686v134.725h212.637v-134.726c0-3.14-2.545-5.685-5.685-5.685z" fill="#8d9cdb" data-original="#8d9cdb"></path></g><path d="m264.363 283.274c0-3.14 2.545-5.686 5.685-5.686h185.952v-9.314c0-3.14-2.545-5.686-5.685-5.686h-201.267c-3.14 0-5.685 2.546-5.685 5.686v134.726h21z" fill="#7a8ccb" data-original="#7a8ccb"></path><g><circle cx="349.681" cy="339.343" fill="#b6c4ff" r="31.27" data-original="#b6c4ff"></circle></g><path d="m335 339.343c0-14.394 9.728-26.508 22.967-30.147-2.639-.726-5.415-1.123-8.285-1.123-17.27 0-31.27 14-31.27 31.27s14 31.27 31.27 31.27c2.87 0 5.646-.397 8.285-1.123-13.238-3.639-22.967-15.753-22.967-30.147z" fill="#9faced" data-original="#9faced"></path><g><g><path d="m153.22 111.138h4.594v-10.113c0-17.367 14.129-31.496 31.496-31.496h53.506c17.367 0 31.496 14.129 31.496 31.496v10.113h4.594c4.029 0 7.808 1.083 11.07 2.966v-38.809c-.001-31.643-25.653-57.295-57.296-57.295h-33.234c-31.643 0-57.295 25.652-57.295 57.295v38.809c3.261-1.883 7.04-2.966 11.069-2.966z" fill="#fe9901" data-original="#fe9901"></path></g><g><path d="m230.47 18h-31.025c-31.643 0-57.295 25.652-57.295 57.295v38.809c3.262-1.883 7.041-2.966 11.07-2.966h4.594v-10.113c0-11.487 6.184-21.553 15.395-27.055.706-31.029 26.062-55.97 57.261-55.97z" fill="#fb8801" data-original="#fb8801"></path></g><g><g><path d="m157.814 110.137h-4.594c-12.824 0-23.22 10.396-23.22 23.22v5.197c0 12.824 10.396 23.22 23.22 23.22h4.594z" fill="#f6a96c" data-original="#f6a96c" class=""></path></g><g><path d="m278.905 110.137h-4.594v51.638h4.594c12.824 0 23.22-10.396 23.22-23.22v-5.197c0-12.824-10.396-23.221-23.22-23.221z" fill="#ffbd86" data-original="#ffbd86" class=""></path></g></g><g><path d="m236.028 201.275h-39.932c-.776 0-1.545-.03-2.309-.076v18.289c0 12.302 9.973 22.275 22.275 22.275 12.302 0 22.275-9.973 22.275-22.275v-18.289c-.764.046-1.533.076-2.309.076z" fill="#ffbd86" data-original="#ffbd86" class=""></path></g><g><path d="m214.45 219.488v-18.213h-18.353c-.776 0-1.545-.03-2.309-.076v18.289c0 12.302 9.973 22.275 22.275 22.275 3.73 0 7.243-.921 10.331-2.542-7.099-3.725-11.944-11.161-11.944-19.733z" fill="#f6a96c" data-original="#f6a96c" class=""></path></g><g><path d="m236.028 202.275h-39.932c-21.695 0-39.282-17.587-39.282-39.282v-61.968c0-17.947 14.549-32.496 32.496-32.496h53.506c17.947 0 32.496 14.549 32.496 32.496v61.968c-.001 21.695-17.589 39.282-39.284 39.282z" fill="#fed2a4" data-original="#fed2a4"></path></g><path d="m177.503 162.993v-61.968c0-17.947 14.549-32.495 32.496-32.495h-20.689c-17.947 0-32.496 14.549-32.496 32.495v61.968c0 21.695 17.587 39.282 39.282 39.282h20.689c-21.694 0-39.282-17.587-39.282-39.282z" fill="#ffbd86" data-original="#ffbd86" class=""></path><g><path d="m193.678 167.85v7.434c0 8.197 6.645 14.841 14.841 14.841h15.086c8.196 0 14.841-6.645 14.841-14.841v-7.434c0-2.796-2.267-5.063-5.063-5.063h-34.643c-2.795.001-5.062 2.267-5.062 5.063z" fill="#fd8087" data-original="#fd8087"></path></g><path d="m214.232 175.284v-7.434c0-2.796 2.267-5.063 5.063-5.063h-20.553c-2.796 0-5.063 2.267-5.063 5.063v7.434c0 8.197 6.645 14.841 14.841 14.841h15.086c.935 0 1.846-.097 2.734-.262-6.89-1.285-12.108-7.318-12.108-14.579z" fill="#fe646f" data-original="#fe646f"></path><g><g><path d="m183.157 137.888c-4.142 0-7.5-3.358-7.5-7.5v-15.188c0-4.142 3.358-7.5 7.5-7.5s7.5 3.358 7.5 7.5v15.188c0 4.142-3.358 7.5-7.5 7.5z" fill="#d88a55" data-original="#d88a55"></path></g><g><path d="m248.969 137.888c-4.142 0-7.5-3.358-7.5-7.5v-15.188c0-4.142 3.358-7.5 7.5-7.5s7.5 3.358 7.5 7.5v15.188c0 4.142-3.358 7.5-7.5 7.5z" fill="#d88a55" data-original="#d88a55"></path></g></g><g><path d="m216.059 156.112c-1.706 0-3.42-.579-4.827-1.763l-9.619-8.1c-2.698-2.272-3.448-6.118-1.802-9.237l9.619-18.225c1.933-3.664 6.472-5.066 10.133-3.132 3.664 1.933 5.066 6.47 3.132 10.133l-6.798 12.88 4.996 4.207c3.168 2.668 3.574 7.399.906 10.568-1.483 1.762-3.605 2.669-5.74 2.669z" fill="#d88a55" data-original="#d88a55"></path></g></g><g><path d="m85.593 443c-12.772-12.371-24.206-26.114-34.055-41h408.925c-9.849 14.886-21.283 28.629-34.055 41z" fill="#f6a96c" data-original="#f6a96c" class=""></path></g><path d="m124.093 420.005c-5.708-5.728-11.127-11.742-16.253-18.005h-56.302c9.849 14.886 21.283 28.629 34.055 41h340.815c6.522-6.317 12.69-12.997 18.482-20h-313.659c-2.684 0-5.243-1.093-7.138-2.995z" fill="#ea9b58" data-original="#ea9b58"></path><g><g><path d="m78.048 48.25v56.739c0 2.936-2.38 5.317-5.317 5.317h-5.317c-2.936 0-5.317-2.38-5.317-5.317v-56.739c0-4.404 3.57-7.975 7.975-7.975 4.406 0 7.976 3.57 7.976 7.975z" fill="#fed2a4" data-original="#fed2a4"></path></g><g><g><path d="m78.048 48.25v56.739c0 2.936-2.38 5.317-5.317 5.317h-5.317c-2.936 0-5.317-2.38-5.317-5.317v-56.739c0-4.404 3.57-7.975 7.975-7.975 4.406 0 7.976 3.57 7.976 7.975z" fill="#ffe5c2" data-original="#ffe5c2" class=""></path></g></g><path d="m71 104.989v-56.739c0-2.756 1.398-5.185 3.524-6.618-1.271-.857-2.802-1.357-4.451-1.357-4.404 0-7.975 3.571-7.975 7.975v56.739c0 2.936 2.38 5.317 5.317 5.317h5.317c.632 0 1.23-.129 1.793-.332-2.051-.738-3.525-2.681-3.525-4.985z" fill="#fed2a4" data-original="#fed2a4"></path><g><g><g><path d="m54.124 60.862c-4.404 0-7.975 3.571-7.975 7.975v4.709c0-4.404-3.57-7.975-7.975-7.975s-7.975 3.571-7.975 7.975v5.18c0-4.404-3.57-7.975-7.975-7.975s-7.975 3.57-7.975 7.975v23.605c0 4.404 3.57 7.975 7.975 7.975s7.975-3.57 7.975-7.975c0 4.404 3.57 7.975 7.975 7.975s7.975-3.57 7.975-7.975c0 4.404 3.57 7.975 7.975 7.975s7.975-3.57 7.975-7.975v-33.494c-.001-4.405-3.571-7.975-7.975-7.975z" fill="#ffbd86" data-original="#ffbd86" class=""></path><g fill="#f6a96c"><path d="m22.05 102.331v-23.606c0-2.986 1.644-5.586 4.074-6.952-1.154-.649-2.483-1.023-3.9-1.023-4.404 0-7.975 3.57-7.975 7.975v23.605c0 4.404 3.57 7.975 7.975 7.975 1.418 0 2.747-.374 3.9-1.023-2.429-1.365-4.074-3.965-4.074-6.951z" fill="#f6a96c" data-original="#f6a96c" class=""></path><path d="m54 102.331v-33.494c0-2.976 1.633-5.566 4.049-6.937-1.16-.658-2.497-1.038-3.926-1.038-4.404 0-7.975 3.571-7.975 7.975v33.494c0 4.404 3.57 7.975 7.975 7.975 1.428 0 2.766-.38 3.926-1.038-2.416-1.371-4.049-3.961-4.049-6.937z" fill="#f6a96c" data-original="#f6a96c" class=""></path><path d="m38 102.331v-28.785c0-2.987 1.644-5.586 4.074-6.952-1.154-.649-2.483-1.023-3.9-1.023-4.404 0-7.975 3.571-7.975 7.975v28.785c0 4.404 3.57 7.975 7.975 7.975 1.418 0 2.747-.374 3.9-1.023-2.43-1.366-4.074-3.966-4.074-6.952z" fill="#f6a96c" data-original="#f6a96c" class=""></path></g></g></g><g><path d="m45.617 94.888h27.433c4.404 0 7.975 3.57 7.975 7.975v21.448c0 3.495-1.376 6.849-3.831 9.336l-6.006 6.086c-1.46 1.479-3.451 2.312-5.53 2.312-8.205 0-14.877-6.405-15.058-14.561-.112-5.025 2.72-9.661 7.107-12.113l8.113-4.533h-15.224c-4.218 0-7.637-3.419-7.637-7.637v-.337-5.317c0-1.469 1.19-2.659 2.658-2.659z" fill="#ffe5c2" data-original="#ffe5c2" class=""></path></g></g></g><g><path d="m383.026 169.002v8.113c0 3.25 2.635 5.885 5.885 5.885h6.874c3.25 0 5.885-2.635 5.885-5.885v-8.113z" fill="#9faced" data-original="#9faced"></path><path d="m391.369 177.115v-8.113h-8.343v8.113c0 3.25 2.635 5.885 5.885 5.885h6.874c.249 0 .493-.021.735-.051-2.903-.362-5.151-2.833-5.151-5.834z" fill="#8d9cdb" data-original="#8d9cdb"></path><path d="m378.224 152.523v13.998c0 1.95 1.581 3.531 3.531 3.531h21.187c1.95 0 3.531-1.581 3.531-3.531v-13.998z" fill="#b6c4ff" data-original="#b6c4ff"></path><path d="m389.267 166.521v-13.998h-11.044v13.998c0 1.95 1.581 3.531 3.531 3.531h11.044c-1.95.001-3.531-1.58-3.531-3.531z" fill="#9faced" data-original="#9faced"></path><g><g><path d="m437.076 90.603c0-25.161-20.776-45.47-46.108-44.707-23.149.697-42.188 19.378-43.294 42.512-.759 15.868 6.757 30.026 18.604 38.538 3.124 2.245 4.885 5.934 4.885 9.78v10.963c0 3.25 2.635 5.885 5.885 5.885h30.603c3.25 0 5.885-2.635 5.885-5.885v-11.206c0-3.772 1.803-7.324 4.867-9.524 11.306-8.117 18.673-21.376 18.673-36.356z" fill="#fed402" data-original="#fed402"></path></g></g><g><path d="m388.082 142.907c-3.25 0-5.885-2.635-5.885-5.885v-10.963c0-3.847-1.761-7.536-4.885-9.78-11.846-8.512-19.362-22.67-18.603-38.538.429-8.979 3.569-17.28 8.593-24.126-11.279 7.682-18.939 20.372-19.628 34.793-.759 15.868 6.757 30.026 18.603 38.538 3.124 2.245 4.885 5.934 4.885 9.78v10.963c0 3.25 2.635 5.885 5.885 5.885h30.603c3.25 0 5.885-2.635 5.885-5.885v-4.782z" fill="#fac600" data-original="#fac600"></path></g><g><g><g><path d="m327.059 101.225h-18.281c-4.875 0-8.828-3.952-8.828-8.828 0-4.875 3.952-8.828 8.828-8.828h18.281c4.875 0 8.828 3.952 8.828 8.828s-3.952 8.828-8.828 8.828z" fill="#fed402" data-original="#fed402"></path></g></g><g><g><path d="m346.182 55.059c-2.259 0-4.518-.862-6.242-2.586l-12.927-12.927c-3.448-3.447-3.448-9.037 0-12.484 3.447-3.447 9.037-3.447 12.484 0l12.927 12.927c3.448 3.447 3.448 9.037 0 12.484-1.723 1.724-3.983 2.586-6.242 2.586z" fill="#fed402" data-original="#fed402"></path></g></g><g><g><path d="m392.348 35.936c-4.875 0-8.828-3.952-8.828-8.828v-18.28c0-4.875 3.952-8.828 8.828-8.828s8.828 3.952 8.828 8.828v18.281c0 4.875-3.952 8.827-8.828 8.827z" fill="#fed402" data-original="#fed402"></path></g></g><g><g><path d="m438.514 55.059c-2.259 0-4.518-.862-6.242-2.586-3.448-3.447-3.448-9.037 0-12.484l12.927-12.927c3.447-3.447 9.037-3.447 12.484 0 3.448 3.447 3.448 9.037 0 12.484l-12.927 12.927c-1.723 1.724-3.983 2.586-6.242 2.586z" fill="#fed402" data-original="#fed402"></path></g></g><g><g><path d="m475.918 101.225h-18.281c-4.875 0-8.828-3.952-8.828-8.828 0-4.875 3.952-8.828 8.828-8.828h18.281c4.875 0 8.828 3.952 8.828 8.828s-3.953 8.828-8.828 8.828z" fill="#fed402" data-original="#fed402"></path></g></g><g><g><path d="m451.441 160.318c-2.259 0-4.518-.862-6.242-2.586l-12.927-12.926c-3.448-3.447-3.448-9.036 0-12.484 3.447-3.447 9.037-3.448 12.484 0l12.927 12.926c3.448 3.447 3.448 9.036 0 12.484-1.724 1.724-3.983 2.586-6.242 2.586z" fill="#fed402" data-original="#fed402"></path></g></g><g><g><path d="m333.255 160.318c-2.259 0-4.518-.862-6.242-2.586-3.448-3.448-3.448-9.037 0-12.484l12.927-12.926c3.448-3.447 9.038-3.448 12.484 0 3.448 3.448 3.448 9.037 0 12.484l-12.927 12.926c-1.723 1.724-3.983 2.586-6.242 2.586z" fill="#fed402" data-original="#fed402"></path></g></g></g><circle cx="392.348" cy="90.602" fill="#fee97d" r="24.992" data-original="#fee97d"></circle></g></g></g></svg>