<svg xmlns="http://www.w3.org/2000/svg" version="1.1" xmlns:xlink="http://www.w3.org/1999/xlink" xmlns:svgjs="http://svgjs.com/svgjs" width="512" height="512" x="0" y="0" viewBox="0 0 512 512" style="enable-background:new 0 0 512 512" xml:space="preserve" class=""><g><g xmlns="http://www.w3.org/2000/svg"><path d="m5.704 309.992c-3.737-17.406-3.737-90.577 0-107.984 11.441-53.295 39.473-100.43 78.425-135.737 12.583-11.406 74.969-48.097 93.477-54.045 24.706-7.939 51.049-12.226 78.394-12.226 27.347 0 53.692 4.288 78.4 12.228 17.616 5.661 80.214 42.025 93.474 54.045 38.95 35.307 66.981 82.442 78.422 135.735 3.737 17.406 3.737 90.577 0 107.983-12.956 60.352-47.188 112.806-94.46 149.128-2.134 1.64-4.74 2.547-7.432 2.547h-296.94c-2.606 0-5.128-.88-7.195-2.467-47.327-36.324-81.599-88.811-94.565-149.207z" fill="#bc157d" data-original="#bc157d"></path><path d="m506.296 309.991-250.163-53.915 171.739 189.652c-5.297 4.802-10.797 9.385-16.484 13.735-35.201 26.924-86.444 10.939-100.019-31.247l-55.369-172.063-55.322 171.919c-13.598 42.257-64.942 58.289-100.185 31.299-5.644-4.323-11.104-8.875-16.364-13.643l171.739-189.652-250.164 53.915c-3.737-17.406-5.704-35.469-5.704-53.991s1.967-36.585 5.704-53.991l250.163 53.915-171.738-189.653c26.652-24.158 58.416-42.778 93.476-54.044l78.395 243.62 78.395-243.62c35.061 11.266 66.824 29.886 93.476 54.044l-171.738 189.652 250.163-53.915c3.737 17.407 5.704 35.47 5.704 53.992s-1.967 36.585-5.704 53.991z" fill="#d12898" data-original="#d12898" class=""></path><path d="m332.912 340.201-38.565-.398c-1.489-.015-2.924.562-3.988 1.604l-27.551 26.989c-2.216 2.171-5.772 2.134-7.942-.082l-26.989-27.551c-1.042-1.064-2.465-1.67-3.954-1.686l-38.565-.398c-3.102-.032-5.59-2.572-5.558-5.674l.398-38.565c.015-1.489-.562-2.924-1.604-3.988l-26.989-27.551c-2.171-2.216-2.134-5.772.082-7.942l27.551-26.989c1.064-1.042 1.67-2.465 1.686-3.954l.398-38.565c.032-3.102 2.572-5.59 5.674-5.558l38.565.398c1.489.015 2.924-.562 3.988-1.604l27.551-26.989c2.216-2.171 5.772-2.134 7.942.082l26.989 27.551c1.042 1.064 2.465 1.67 3.954 1.686l38.565.398c3.102.032 5.59 2.572 5.558 5.674l-.398 38.565c-.015 1.489.562 2.924 1.604 3.988l26.989 27.551c2.171 2.216 2.134 5.772-.082 7.942l-27.551 26.989c-1.064 1.042-1.67 2.465-1.686 3.954l-.398 38.565c-.032 3.101-2.573 5.59-5.674 5.558z" fill="#ff72c3" data-original="#ff72c3"></path><path d="m264.997 350h-20v-100h20z" fill="#ff9f22" data-original="#ff9f22"></path><path d="m412 435v23.994c-43.189 33.24-97.286 53.006-156 53.006s-112.811-19.766-156-53.006v-23.994c0-8.284 6.716-15 15-15h35v-55c0-8.284 6.716-15 15-15h182c8.284 0 15 6.716 15 15v55h35c8.284 0 15 6.716 15 15z" fill="#ffb52d" data-original="#ffb52d"></path><path d="m130 478.896c-10.483-5.938-20.505-12.595-30-19.902v-23.994c0-8.284 6.716-15 15-15h35v-55c0-8.284 6.716-15 15-15h30c-8.284 0-15 6.716-15 15v60c0 8.284-6.716 15-15 15h-20c-8.284 0-15 6.716-15 15z" fill="#ff9f22" data-original="#ff9f22"></path><path d="m119.648 472.704h272.705c-39.479 24.892-86.234 39.296-136.353 39.296s-96.874-14.404-136.352-39.296z" fill="#ff9100" data-original="#ff9100"></path><path d="m250.147 41.067 6.353 11.616c.188.344.471.627.816.816l11.616 6.353c1.423.778 1.423 2.823 0 3.601l-11.616 6.353c-.344.188-.627.471-.816.816l-6.353 11.616c-.778 1.423-2.823 1.423-3.601 0l-6.353-11.616c-.188-.344-.471-.627-.816-.816l-11.616-6.353c-1.423-.778-1.423-2.823 0-3.601l11.616-6.353c.344-.188.627-.471.816-.816l6.353-11.616c.778-1.423 2.823-1.423 3.601 0z" fill="#fff68e" data-original="#fff68e"></path><path d="m80.77 197.568 6.353 11.616c.188.344.471.627.816.816l11.616 6.353c1.423.778 1.423 2.823 0 3.601l-11.616 6.353c-.344.188-.627.471-.816.816l-6.353 11.617c-.778 1.423-2.823 1.423-3.601 0l-6.353-11.616c-.188-.344-.471-.627-.816-.816l-11.616-6.353c-1.423-.778-1.423-2.823 0-3.601l11.616-6.354c.344-.188.627-.471.816-.816l6.353-11.616c.779-1.424 2.823-1.424 3.601 0zm358.46 90-6.353 11.616c-.188.344-.471.627-.816.816l-11.616 6.353c-1.423.778-1.423 2.823 0 3.601l11.616 6.353c.344.188.627.471.816.816l6.353 11.616c.778 1.423 2.823 1.423 3.601 0l6.353-11.616c.188-.344.471-.627.816-.816l11.616-6.353c1.423-.778 1.423-2.823 0-3.601l-11.616-6.353c-.344-.188-.627-.471-.816-.816l-6.353-11.616c-.778-1.424-2.823-1.424-3.601 0z" fill="#ffb52d" data-original="#ffb52d"></path><path d="m327 340h-142c-8.284 0-15-6.716-15-15 0-8.284 6.716-15 15-15h142c8.284 0 15 6.716 15 15 0 8.284-6.716 15-15 15z" fill="#fff04a" data-original="#fff04a"></path><path d="m297 450h-82c-8.284 0-15-6.716-15-15v-30c0-8.284 6.716-15 15-15h82c8.284 0 15 6.716 15 15v30c0 8.284-6.716 15-15 15zm70-90h-222c-8.284 0-15-6.716-15-15 0-8.284 6.716-15 15-15h222c8.284 0 15 6.716 15 15 0 8.284-6.716 15-15 15z" fill="#ffcd71" data-original="#ffcd71"></path><path d="m297 450h-40.99c-8.284 0-15-6.716-15-15v-30c0-8.284 6.716-15 15-15h40.99c8.284 0 15 6.716 15 15v30c0 8.284-6.716 15-15 15zm8.508-90h-58.007c-8.284 0-15-6.716-15-15 0-8.284 6.716-15 15-15h58.007c8.284 0 15 6.716 15 15 0 8.284-6.715 15-15 15z" fill="#fff68e" data-original="#fff68e"></path><path d="m285.833 412.5h-56.333c-4.142 0-7.5-3.358-7.5-7.5 0-4.142 3.358-7.5 7.5-7.5h56.333c4.142 0 7.5 3.358 7.5 7.5 0 4.142-3.358 7.5-7.5 7.5zm-3.001 22.5c0-4.142-3.358-7.5-7.5-7.5h-35.33c-4.142 0-7.5 3.358-7.5 7.5 0 4.142 3.358 7.5 7.5 7.5h35.33c4.142 0 7.5-3.358 7.5-7.5z" fill="#ffc14f" data-original="#ffc14f"></path><path d="m426.197 38.253-150 240c-4.403 7.046-12.02 11.443-20.323 11.734-.293.011-.587.016-.879.016-7.979 0-15.502-3.813-20.217-10.296l-80-110c-8.121-11.166-5.652-26.802 5.515-34.923 11.164-8.12 26.802-5.652 34.923 5.515l58.213 80.043 130.368-208.589c7.318-11.71 22.745-15.267 34.45-7.95 11.708 7.318 15.267 22.742 7.95 34.45z" fill="#ffc14f" data-original="#ffc14f"></path><path d="m289.604 162.462 73.878-118.205c6.645-10.632 20.138-14.698 31.551-9.507 13.755 6.257 18.858 23.192 10.849 36.007l-73.878 118.205c-6.645 10.632-20.138 14.698-31.551 9.507-13.755-6.257-18.858-23.193-10.849-36.007z" fill="#fff04a" data-original="#fff04a"></path><path d="m351.841 187.187-6.698-20.093c-.352-1.056-1.181-1.885-2.237-2.237l-20.093-6.698c-3.225-1.075-3.225-5.637 0-6.712l20.093-6.698c1.056-.352 1.885-1.181 2.237-2.237l6.698-20.093c1.075-3.225 5.637-3.225 6.712 0l6.698 20.093c.352 1.056 1.181 1.885 2.237 2.237l20.093 6.698c3.225 1.075 3.225 5.637 0 6.712l-20.093 6.698c-1.056.352-1.885 1.181-2.237 2.237l-6.698 20.093c-1.075 3.226-5.637 3.226-6.712 0z" fill="#fff5f5" data-original="#fff5f5"></path></g></g></svg>