<svg xmlns="http://www.w3.org/2000/svg" version="1.1" xmlns:xlink="http://www.w3.org/1999/xlink" xmlns:svgjs="http://svgjs.com/svgjs" width="512" height="512" x="0" y="0" viewBox="0 0 501 501" style="enable-background:new 0 0 512 512" xml:space="preserve" class=""><g><g xmlns="http://www.w3.org/2000/svg"><path d="m.243 261.509c-.161-3.649-.243-7.32-.243-11.009 0-135.31 109.69-245 245-245s245 109.69 245 245c0 3.689-.082 7.36-.243 11.009z" fill="#e43950" data-original="#e43950"></path><path d="m299 489.528c-3.334.75-6.693 1.433-10.077 2.045-10.104 1.829-19.423-5.849-19.423-16.117 0-64.869-52.587-117.456-117.457-117.456h-121.35c-3.644 0-6.963-2.116-8.483-5.428-14.26-31.074-22.21-65.644-22.21-102.072 0-2.006.024-4.006.072-6h489.855c.048 1.994.072 3.994.072 6 0 43.097-11.128 83.595-30.667 118.778l-19.204 6.92c-30.478 10.982-50.796 39.899-50.796 72.295-6.54 4.776-13.326 9.235-20.335 13.356h-42.317c-15.287-.001-27.68 12.392-27.68 27.679z" fill="#ab2538" data-original="#ab2538"></path><path d="m249 74.5v400c0 5.523-4.477 10-10 10h-66.808c-61.783-19.203-113.086-62.2-143.192-118.275v-231.45c14.39-26.803-2.906-50.618 20-70.275h190c5.523 0 10 4.477 10 10z" fill="#bbe0fb" data-original="#bbe0fb" class=""></path><path d="m63 125.131h-24c-5.523 0-10-4.477-10-10v-40.631c0-5.523 4.477-10 10-10h24z" fill="#b1c9eb" data-original="#b1c9eb" class=""></path><path d="m149 463.5c0 4.393-2.833 8.125-6.772 9.467-4.313-1.996-8.558-4.113-12.731-6.348-.322-.982-.497-2.03-.497-3.119 0-5.523 4.477-10 10-10s10 4.477 10 10zm35-375c0-4.142-3.358-7.5-7.5-7.5-4.142 0-7.5 3.358-7.5 7.5 0 4.142 3.358 7.5 7.5 7.5 4.142 0 7.5-3.358 7.5-7.5zm-75 0c0-4.142-3.358-7.5-7.5-7.5-4.142 0-7.5 3.358-7.5 7.5 0 4.142 3.358 7.5 7.5 7.5 4.142 0 7.5-3.358 7.5-7.5zm48 0c0-4.142-3.358-7.5-7.5-7.5h-21c-4.142 0-7.5 3.358-7.5 7.5 0 4.142 3.358 7.5 7.5 7.5h21c4.142 0 7.5-3.358 7.5-7.5z" fill="#00808a" data-original="#00808a"></path><path d="m45.324 108.5h203.676v332h-158.689c-25.017-20.392-45.93-45.627-61.311-74.275v-231.45c4.896-9.12 10.353-17.893 16.324-26.275z" fill="#63bcfa" data-original="#63bcfa" class=""></path><path d="m63 108.5v306.018c-13.176-14.611-24.617-30.817-34-48.293v-257.725zm26 176c0-4.142 3.358-7.5 7.5-7.5h85c4.142 0 7.5 3.358 7.5 7.5s-3.358 7.5-7.5 7.5h-85c-4.142 0-7.5-3.358-7.5-7.5zm92.5 18.75h-85c-4.142 0-7.5 3.358-7.5 7.5s3.358 7.5 7.5 7.5h85c4.142 0 7.5-3.358 7.5-7.5s-3.358-7.5-7.5-7.5zm0 26.25h-85c-4.142 0-7.5 3.358-7.5 7.5s3.358 7.5 7.5 7.5h85c4.142 0 7.5-3.358 7.5-7.5s-3.358-7.5-7.5-7.5z" fill="#05a2f9" data-original="#05a2f9" class=""></path><path d="m204.784 191.608c0 34.734-28.158 62.892-62.892 62.892s-62.892-28.158-62.892-62.892 28.158-62.892 62.892-62.892 62.892 28.157 62.892 62.892z" fill="#fff5f5" data-original="#fff5f5"></path><path d="m109 384.5c0-5.523 4.477-10 10-10h40c5.523 0 10 4.477 10 10 0 5.523-4.477 10-10 10h-40c-5.523 0-10-4.477-10-10z" fill="#037e73" data-original="#037e73"></path><path d="m459.333 314.5v54.778c-17.341 31.225-41.307 58.263-70 79.215v-423.993c0-5.523 4.477-10 10-10h50c5.523 0 10 4.477 10 10z" fill="#ce9047" data-original="#ce9047"></path><path d="m459.333 314.5v54.778c-13.358 24.053-30.647 45.621-51 63.837v-408.615c0-5.523 4.477-10 10-10h31c5.523 0 10 4.477 10 10z" fill="#f5c02c" data-original="#f5c02c"></path><path d="m501 184.5c0 4.142-3.358 7.5-7.5 7.5h-81.7c-6.156 0-12.113 2.564-16.343 7.036l-76.863 81.236c-7.05 7.453-16.979 11.728-27.239 11.728h-115.639c-6.373 0-12.471 2.718-16.732 7.457l-48.353 53.781c-7.1 7.898-17.265 12.429-27.886 12.429h-54.044c-2.616-4.903-5.07-9.905-7.356-15h61.4c6.373 0 12.471-2.718 16.731-7.457l48.354-53.782c7.101-7.898 17.265-12.428 27.886-12.428h115.638c6.156 0 12.113-2.564 16.343-7.036l76.863-81.236c7.051-7.454 16.98-11.728 27.24-11.728h81.7c4.142 0 7.5 3.358 7.5 7.5z" fill="#e3f0fb" data-original="#e3f0fb"></path><path d="m90.698 191.608c0-28.274 22.92-51.194 51.194-51.194s51.194 22.92 51.194 51.194c0 15.995-7.335 30.276-18.825 39.664-8.821-7.207-20.09-11.53-32.369-11.53s-23.548 4.323-32.369 11.53c-11.49-9.389-18.825-23.67-18.825-39.664z" fill="#006e66" data-original="#006e66"></path><path d="m174.927 230.718c-8.916 7.538-20.444 12.083-33.034 12.083s-24.119-4.545-33.034-12.083c1.857-14.165 13.974-25.101 28.646-25.101h8.778c14.67 0 26.787 10.936 28.644 25.101z" fill="#ade4ad" data-original="#ade4ad"></path><path d="m130.486 241.526c-8.11-1.846-15.488-5.617-21.628-10.807 1.857-14.165 13.974-25.101 28.646-25.101h5.248c-7.784 7.642-12.629 18.392-12.629 30.3 0 1.901.123 3.773.363 5.608z" fill="#97d4b8" data-original="#97d4b8"></path><path d="m161.895 177.033v-3.637c0-11.047-8.956-20.003-20.003-20.003s-20.003 8.956-20.003 20.003v3.637c-2.511 0-4.546 2.035-4.546 4.546v1.818c0 2.511 2.035 4.546 4.546 4.546.449 0 .882-.065 1.292-.187 2.861 7.549 10.159 12.916 18.711 12.916s15.85-5.367 18.711-12.916c.41.121.843.187 1.292.187 2.511 0 4.546-2.035 4.546-4.546v-1.818c0-2.511-2.035-4.546-4.546-4.546z" fill="#bbe0fb" data-original="#bbe0fb" class=""></path><path d="m166.441 181.579v1.818c0 2.511-2.035 4.546-4.546 4.546-.449 0-.882-.065-1.292-.187-2.861 7.549-10.159 12.916-18.711 12.916-.012 0-.025 0-.037 0-4.384-6.461-7.01-14.685-7.01-23.64s2.626-17.179 7.01-23.64h.037c11.047 0 20.003 8.956 20.003 20.003v3.637c2.511.001 4.546 2.036 4.546 4.547z" fill="#fff5f5" data-original="#fff5f5"></path><path d="m153.693 168.803c0-1.903-1.953-3.218-3.692-2.446-2.479 1.101-5.223 1.713-8.11 1.713-2.907 0-5.668-.62-8.16-1.735-1.739-.778-3.697.539-3.697 2.444v.025c0 4.517-3.639 8.184-8.146 8.229l-.223-5.246c0-11.047 9.179-20.003 20.226-20.003s20.241 8.718 20.241 19.765l-.238 5.485c-4.531-.017-8.201-3.695-8.201-8.231z" fill="#22b27f" data-original="#22b27f"></path><path d="m162.133 171.548-.238 5.485c-4.532-.015-8.202-3.694-8.202-8.229 0-1.903-1.953-3.218-3.692-2.446-2.479 1.101-5.223 1.713-8.11 1.713-1.991 0-3.914-.291-5.728-.833 1.437-5.729 3.889-11.309 6.546-15.438 10.68.416 19.424 8.974 19.424 19.748z" fill="#08e092" data-original="#08e092"></path><path d="m369 144.5v317.348c-21.458 12.616-45.006 22.058-70 27.681v-345.029c0-5.523 4.477-10 10-10h50c5.523 0 10 4.477 10 10z" fill="#0377ee" data-original="#0377ee"></path><path d="m369 144.5v317.348c-15.935 9.369-33.023 16.988-51 22.592v-339.94c0-5.523 4.477-10 10-10h31c5.523 0 10 4.477 10 10z" fill="#0494fb" data-original="#0494fb"></path><path d="m279 274.5v187.051c0 18.634-15.02 33.923-33.654 33.949-.115 0-.231 0-.346 0-12.23 0-24.251-.896-36-2.626v-218.374c0-5.523 4.477-10 10-10h50c5.523 0 10 4.477 10 10z" fill="#fd2aa7" data-original="#fd2aa7"></path><path d="m279 274.5v191.533c0 15.948-12.705 29.068-28.649 29.41-1.779.038-3.563.057-5.351.057-5.714 0-11.383-.196-17-.581v-220.419c0-5.523 4.477-10 10-10h31c5.523 0 10 4.477 10 10z" fill="#fd73c4" data-original="#fd73c4"></path><path d="m323.409 403.914-40.31 39.292c-1.178 1.149-1.716 2.804-1.438 4.426l7.528 43.893c-13.069 2.381-26.5 3.724-40.205 3.943l-19.241-10.116c-1.457-.766-3.197-.766-4.653 0l-14.69 7.723c-14.896-2.106-29.362-5.551-43.271-10.21l6.043-35.233c.278-1.622-.26-3.277-1.438-4.426l-40.31-39.292c-4.748-4.628-2.128-12.692 4.434-13.646l55.707-8.095c1.629-.237 3.036-1.26 3.765-2.735l24.913-50.479c2.935-5.946 11.413-5.946 14.348 0l24.913 50.479c.728 1.476 2.136 2.499 3.765 2.735l55.707 8.095c6.561.954 9.181 9.018 4.433 13.646z" fill="#f1ca50" data-original="#f1ca50"></path><path d="m323.409 403.914-40.31 39.292c-1.178 1.149-1.716 2.803-1.438 4.426l3.734 21.772c-4.555.71-9.224 1.08-13.979 1.08-48.649 0-88.282-38.6-89.945-86.844l10.094-1.467c1.629-.237 3.036-1.259 3.765-2.735l24.913-50.479c2.935-5.946 11.413-5.946 14.348 0l24.913 50.479c.728 1.476 2.136 2.499 3.765 2.735l55.707 8.095c6.561.954 9.181 9.018 4.433 13.646z" fill="#fded32" data-original="#fded32"></path></g></g></svg>