<svg xmlns="http://www.w3.org/2000/svg" version="1.1" xmlns:xlink="http://www.w3.org/1999/xlink" xmlns:svgjs="http://svgjs.com/svgjs" width="512" height="512" x="0" y="0" viewBox="0 0 512 512" style="enable-background:new 0 0 512 512" xml:space="preserve" class=""><g><g xmlns="http://www.w3.org/2000/svg" id="XMLID_1_"><g id="XMLID_4556_"><g fill="#db3328"><path id="XMLID_1854_" d="m355 367h126v140h-126z" fill="#db3328" data-original="#db3328" class=""></path><path id="XMLID_1853_" d="m180 179h126v328h-126z" fill="#db3328" data-original="#db3328" class=""></path><path id="XMLID_1852_" d="m5 75h126v432h-126z" fill="#db3328" data-original="#db3328" class=""></path></g><g id="XMLID_3705_"><path id="XMLID_3721_" d="m397 215h34c42 0 76 34 76 76s-34 76-76 76h-34c-42 0-76-34-76-76s34-76 76-76z" fill="#eda900" data-original="#eda900"></path><g fill="#f8d707"><path id="XMLID_3720_" d="m336.5 245h63.5v-10h-54.4c-3.3 3.1-6.3 6.4-9.1 10z" fill="#f8d707" data-original="#f8d707"></path><path id="XMLID_3719_" d="m458.1 220c-8.4-3.2-17.6-5-27.1-5h-34c-9.6 0-18.7 1.8-27.1 5z" fill="#f8d707" data-original="#f8d707"></path><path id="XMLID_3718_" d="m369.9 362c8.4 3.2 17.6 5 27.1 5h34c9.6 0 18.7-1.8 27.1-5z" fill="#f8d707" data-original="#f8d707"></path><path id="XMLID_3717_" d="m323.7 271h44.3v-10h-40.8c-1.4 3.2-2.6 6.6-3.5 10z" fill="#f8d707" data-original="#f8d707"></path><path id="XMLID_3716_" d="m321 291c0 1.7.1 3.3.2 5h38.8v-10h-38.8c-.1 1.7-.2 3.3-.2 5z" fill="#f8d707" data-original="#f8d707"></path><path id="XMLID_3715_" d="m327.2 321h40.8v-10h-44.3c.9 3.4 2.1 6.8 3.5 10z" fill="#f8d707" data-original="#f8d707"></path><path id="XMLID_3714_" d="m345.6 347h54.4v-10h-63.5c2.8 3.6 5.8 6.9 9.1 10z" fill="#f8d707" data-original="#f8d707"></path></g><path id="XMLID_3713_" d="m431 215h-12c-42 0-76 34-76 76 0 42 34 76 76 76h12c42 0 76-34 76-76 0-42-34-76-76-76z" fill="#fffa5a" data-original="#fffa5a"></path><circle id="XMLID_3712_" cx="431" cy="291" fill="#f8d707" r="76" data-original="#f8d707"></circle><circle id="XMLID_3711_" cx="431" cy="291" fill="#eda900" r="50" data-original="#eda900"></circle><path id="XMLID_3710_" d="m431 241c-2 0-4 .1-6 .4 24.8 3 44 24 44 49.6s-19.2 46.7-44 49.6c2 .2 4 .4 6 .4 27.6 0 50-22.4 50-50s-22.4-50-50-50z" fill="#fffa5a" data-original="#fffa5a"></path><g id="XMLID_3708_"><path id="XMLID_3709_" d="m441 316h-30v-10h30c2.8 0 5-2.2 5-5s-2.2-5-5-5h-20c-8.3 0-15-6.7-15-15s6.7-15 15-15h30v10h-30c-2.8 0-5 2.2-5 5s2.2 5 5 5h20c8.3 0 15 6.7 15 15s-6.7 15-15 15z" fill="#fffa5a" data-original="#fffa5a"></path></g><g id="XMLID_3706_"><path id="XMLID_3707_" d="m426 256h10v70h-10z" fill="#fffa5a" data-original="#fffa5a"></path></g></g><path id="XMLID_1842_" d="m41 75h90v432h-90z" fill="#e67368" data-original="#e67368" class=""></path><path id="XMLID_3767_" d="m216 179h90v328h-90z" fill="#e67368" data-original="#e67368" class=""></path><path id="XMLID_3768_" d="m391 367h90v140h-90z" fill="#e67368" data-original="#e67368" class=""></path><g id="XMLID_1835_"><g id="XMLID_3612_"><path id="XMLID_1837_" d="m421.9 171.4c-47.7-98.1-149-161.4-258.1-161.4h-163.8v-10h163.8c55.8 0 110.4 15.7 157.7 45.3 47.2 29.6 85.1 71.6 109.4 121.7z" fill="#db3328" data-original="#db3328" class=""></path></g><g id="XMLID_3610_"><g id="XMLID_3611_"><path id="XMLID_4856_" d="m374.4 158.9 3.4-9.5 46.4 16.6 13.1-47.6 9.7 2.7-16 57.9z" fill="#db3328" data-original="#db3328" class=""></path></g></g></g></g></g></g></svg>