<svg xmlns="http://www.w3.org/2000/svg" version="1.1" xmlns:xlink="http://www.w3.org/1999/xlink" xmlns:svgjs="http://svgjs.com/svgjs" width="512" height="512" x="0" y="0" viewBox="0 0 512 512" style="enable-background:new 0 0 512 512" xml:space="preserve" class=""><g>
<path xmlns="http://www.w3.org/2000/svg" style="" d="M437.02,74.98C388.667,26.629,324.38,0,256,0C187.619,0,123.332,26.629,74.98,74.98  C26.629,123.332,0,187.619,0,256s26.629,132.668,74.98,181.02C123.332,485.371,187.619,512,256,512  c68.38,0,132.667-26.629,181.02-74.98C485.371,388.668,512,324.381,512,256C512,187.62,485.371,123.332,437.02,74.98z" fill="#fd3018" data-original="#fd3018" class=""></path>
<path xmlns="http://www.w3.org/2000/svg" style="" d="M437.02,74.981C388.666,26.629,324.379,0,256,0h-0.001v512H256c68.38,0,132.667-26.628,181.02-74.979  C485.371,388.668,512,324.381,512,256C512,187.62,485.371,123.333,437.02,74.981z" fill="#e61e14" data-original="#e61e14"></path>
<path xmlns="http://www.w3.org/2000/svg" style="" d="M359.277,137.723H152.721c-8.284,0-15,6.716-15,15V359.28c0,8.284,6.716,15,15,15h206.557  c8.284,0,15-6.716,15-15V152.723C374.277,144.439,367.561,137.723,359.277,137.723z" fill="#f2f2f2" data-original="#f2f2f2" class=""></path>
<path xmlns="http://www.w3.org/2000/svg" style="" d="M359.277,137.723H256V374.28h103.277c8.284,0,15-6.716,15-15V152.723  C374.277,144.439,367.561,137.723,359.277,137.723z" fill="#d9d9d9" data-original="#d9d9d9"></path>
<g xmlns="http://www.w3.org/2000/svg">
</g>
<g xmlns="http://www.w3.org/2000/svg">
</g>
<g xmlns="http://www.w3.org/2000/svg">
</g>
<g xmlns="http://www.w3.org/2000/svg">
</g>
<g xmlns="http://www.w3.org/2000/svg">
</g>
<g xmlns="http://www.w3.org/2000/svg">
</g>
<g xmlns="http://www.w3.org/2000/svg">
</g>
<g xmlns="http://www.w3.org/2000/svg">
</g>
<g xmlns="http://www.w3.org/2000/svg">
</g>
<g xmlns="http://www.w3.org/2000/svg">
</g>
<g xmlns="http://www.w3.org/2000/svg">
</g>
<g xmlns="http://www.w3.org/2000/svg">
</g>
<g xmlns="http://www.w3.org/2000/svg">
</g>
<g xmlns="http://www.w3.org/2000/svg">
</g>
<g xmlns="http://www.w3.org/2000/svg">
</g>
</g></svg>