<svg xmlns="http://www.w3.org/2000/svg" version="1.1" xmlns:xlink="http://www.w3.org/1999/xlink" xmlns:svgjs="http://svgjs.com/svgjs" width="512" height="512" x="0" y="0" viewBox="0 0 24 24" style="enable-background:new 0 0 512 512" xml:space="preserve" class=""><g transform="matrix(1.2,0,0,1.2,-2.399999999999995,-2.399999999999995)"><linearGradient xmlns="http://www.w3.org/2000/svg" id="linear-gradient" gradientUnits="userSpaceOnUse" x1="12" x2="12" y1="2.833" y2="21.374"><stop offset="0" stop-color="#faee5e"></stop><stop offset="1" stop-color="#edc12d"></stop></linearGradient><linearGradient xmlns="http://www.w3.org/2000/svg" id="linear-gradient-2" gradientUnits="userSpaceOnUse" x1="12" x2="12" y1="4.926" y2="18.952"><stop offset="0" stop-color="#efc938"></stop><stop offset="1" stop-color="#f1b62e"></stop></linearGradient><circle xmlns="http://www.w3.org/2000/svg" cx="12" cy="12" fill="#f1d33d" r="10" data-original="#f1d33d"></circle><path xmlns="http://www.w3.org/2000/svg" d="m12 22a10 10 0 0 0 10-10h-20a10 10 0 0 0 10 10z" fill="#e7a324" data-original="#e7a324"></path><circle xmlns="http://www.w3.org/2000/svg" cx="12" cy="12.129" fill="url(#linear-gradient)" r="9.218" data-original="url(#linear-gradient)" class=""></circle><path xmlns="http://www.w3.org/2000/svg" d="m12 21.344a9.216 9.216 0 0 1 -9.214-9.144v.077a9.3 9.3 0 0 0 9.214 9.37 9.3 9.3 0 0 0 9.218-9.369c0-.026 0-.051 0-.077a9.216 9.216 0 0 1 -9.218 9.143z" fill="#d38e26" data-original="#d38e26"></path><circle xmlns="http://www.w3.org/2000/svg" cx="12" cy="12" fill="#f9ee60" r="7.6" data-original="#f9ee60"></circle><path xmlns="http://www.w3.org/2000/svg" d="m12 4.4a7.6 7.6 0 0 0 -7.6 7.6h15.2a7.6 7.6 0 0 0 -7.6-7.6z" fill="#e3a22c" data-original="#e3a22c"></path><circle xmlns="http://www.w3.org/2000/svg" cx="12" cy="12" fill="url(#linear-gradient-2)" r="7" data-original="url(#linear-gradient-2)" class=""></circle><path xmlns="http://www.w3.org/2000/svg" d="m7.162 10.087h7.945a.372.372 0 0 0 .259-.1l1.577-1.497a.182.182 0 0 0 -.125-.314h-7.977a.374.374 0 0 0 -.266.11l-1.527 1.526a.161.161 0 0 0 .114.275zm9.656 3.77h-7.977a.373.373 0 0 0 -.266.113l-1.527 1.572a.166.166 0 0 0 .114.283h7.945a.371.371 0 0 0 .259-.106l1.577-1.539a.188.188 0 0 0 -.125-.323zm-1.393-2.767a.373.373 0 0 0 -.266-.113h-7.977a.186.186 0 0 0 -.125.32l1.577 1.525a.37.37 0 0 0 .259.105h7.945a.165.165 0 0 0 .114-.281z" fill="#ffffff" data-original="#ffffff" class=""></path></g></svg>