<svg xmlns="http://www.w3.org/2000/svg" version="1.1" xmlns:xlink="http://www.w3.org/1999/xlink" xmlns:svgjs="http://svgjs.com/svgjs" width="512" height="512" x="0" y="0" viewBox="0 0 44 58" style="enable-background:new 0 0 512 512" xml:space="preserve" class=""><g><g xmlns="http://www.w3.org/2000/svg" id="Page-1" fill="none" fill-rule="evenodd"><g id="020---Flame" fill-rule="nonzero"><path id="Shape" d="m42.55 43.635c-1.5821184 5.8126962-5.7985657 10.5470372-11.39 12.789-9.38 3.631-21.04.628-26.98-6.9-5.63-7.143-5.3-16.48-.64-24.042 2.73-4.439 6.93-7.521 10.84-10.9 4.57-3.931 5.83-8.649 4.89-12.4-.37-1.466-.79-1.736-.46-2.105.37-.419 2.36 1.137 2.68 1.387 5.12 3.84 6.87 9.756 5.27 14.7-1.02 3.132.09 5.506 2.27 7.721 2.26-2.843.6-6.634 6.17-9.507-.4951856 1.4107677-.6893553 2.9096213-.57 4.4.42 3.1 2.94 4.878 4.67 7.262 3.7329821 5.0524813 4.9317373 11.5423574 3.25 17.595z" fill="#f0c419" data-original="#f0c419" class=""></path><path id="Shape" d="m22.718 53.96c-6.132 0-12.032-2.65-15.4-6.917-4.282-5.433-4.426-12.892-.375-19.465 1.92-3.123 4.855-5.59 7.96-8.2.7-.588 1.4-1.177 2.091-1.775 2.6169589-2.1754101 4.6051828-5.0105021 5.759-8.212.7039902 1.7689481.7746492 3.7269083.2 5.542-1.376 4.228-.292 8.186 3.226 11.758l3.171 3.221 2.811-3.538c.3672386-.46249.6909485-.9579302.967-1.48.517.672 1.054 1.278 1.552 1.84.512.579 1 1.124 1.382 1.655 3.0117797 4.063969 3.9847876 9.2882617 2.638 14.164-1.2434973 4.5986651-4.5669997 8.3506485-8.982 10.14-2.234734.8521938-4.6083373 1.281816-7 1.267z" fill="#f3d55b" data-original="#f3d55b"></path><path id="Shape" d="m12.11 8.89c-.81 1.36-2.18 2.29-3.27 3.41s-2.12 2.3-1.95 4.16c-.78205712-.6135286-1.45195544-1.3578601-1.98-2.2-.93506561-1.6735615-.61824014-3.7679013.77-5.09 1.368794-1.1544831 2.4679157-2.59494694 3.22-4.22.51253969-1.62743628.42021201-3.3852133-.26-4.95 2.3355282.49905118 4.079061 2.45294061 4.31 4.83.1612252 1.40833279-.1331744 2.83126393-.84 4.06z" fill="#f29c1f" data-original="#f29c1f" class=""></path><path id="Shape" d="m23 39.052v-7.989c2.8.328 5 1.995 5 3.937 0 .5522847.4477153 1 1 1s1-.4477153 1-1c0-3.054-3.06-5.577-7-5.948v-1.052c0-.5522847-.4477153-1-1-1s-1 .4477153-1 1v1.052c-3.94.371-7 2.894-7 5.948s3.06 5.577 7 5.948v7.989c-2.8-.328-5-1.995-5-3.937 0-.5522847-.4477153-1-1-1s-1 .4477153-1 1c0 3.054 3.06 5.577 7 5.948v1.052c0 .5522847.4477153 1 1 1s1-.4477153 1-1v-1.052c3.94-.371 7-2.894 7-5.948s-3.06-5.577-7-5.948zm-7-4.052c0-1.942 2.2-3.609 5-3.937v7.874c-2.795-.328-5-1.995-5-3.937zm7 13.937v-7.874c2.8.328 5 1.995 5 3.937s-2.2 3.609-5 3.937z" fill="#b19046" data-original="#b19046"></path><g fill="#fff"><path id="Shape" d="m5.212 30.913c.50287787.2259733 1.09378048.002316 1.321-.5.36984698-.82133.79101257-1.6185721 1.261-2.387.19037563-.3050837.20228153-.6888933.03118134-1.0051901s-.49885516-.5163675-.85838395-.5239813c-.3595288-.0076138-.69546001.1784018-.87979739.4871714-.51437708.8411782-.97528862 1.7139042-1.38 2.613-.22199992.502905.00356205 1.0907061.505 1.316z" fill="#ffffff" data-original="#ffffff"></path><path id="Shape" d="m5.32 34.2c.07948537-.3542738-.03929974-.7237971-.31033122-.9653955-.27103148-.2415985-.6517219-.3173095-.99457018-.1977983s-.59398235.4154656-.6560986.7731938c-1.04661377 4.8583533.12039949 9.9305557 3.185 13.843.34158812.4340958.97040418.5090881 1.40449998.1675s.50908812-.9704042.16750002-1.4045c-2.69891101-3.4551897-3.72329918-7.9308427-2.796-12.216z" fill="#ffffff" data-original="#ffffff"></path></g></g></g></g></svg>