<svg xmlns="http://www.w3.org/2000/svg" version="1.1" xmlns:xlink="http://www.w3.org/1999/xlink" xmlns:svgjs="http://svgjs.com/svgjs" width="512" height="512" x="0" y="0" viewBox="0 0 512 512" style="enable-background:new 0 0 512 512" xml:space="preserve" class=""><g><g xmlns="http://www.w3.org/2000/svg"><g><g><path d="m144 288h-32c-53.019 0-96-42.981-96-96 0-53.019 42.981-96 96-96h32c53.019 0 96 42.981 96 96 0 53.019-42.981 96-96 96z" fill="#f06423" data-original="#f06423" class=""></path></g><g><circle cx="112" cy="192" fill="#faa019" r="96" data-original="#faa019" class=""></circle></g><g><circle cx="112" cy="192" fill="#f06423" r="80" data-original="#f06423" class=""></circle></g><path d="m144 176c4.418 0 8-3.582 8-8v-4.223c0-15.316-12.46-27.777-27.777-27.777h-4.223v-8c0-4.418-3.582-8-8-8s-8 3.582-8 8v8h-4.223c-15.317 0-27.777 12.461-27.777 27.777 0 10.589 5.884 20.109 15.355 24.844l42.135 21.068c4.015 2.008 6.51 6.044 6.51 10.533 0 6.494-5.283 11.777-11.777 11.777h-24.446c-6.494.001-11.777-5.282-11.777-11.776v-4.223c0-4.418-3.582-8-8-8s-8 3.582-8 8v4.223c0 15.316 12.46 27.777 27.777 27.777h4.223v8c0 4.418 3.582 8 8 8s8-3.582 8-8v-8h4.223c15.317 0 27.777-12.461 27.777-27.777 0-10.589-5.884-20.109-15.355-24.844l-42.135-21.068c-4.015-2.008-6.51-6.044-6.51-10.533 0-6.495 5.283-11.778 11.777-11.778h24.446c6.494 0 11.777 5.283 11.777 11.777v4.223c0 4.418 3.582 8 8 8z" fill="#faa019" data-original="#faa019" class=""></path></g><g><path d="m344.971 215.029-48-48c-4.501-4.501-10.606-7.029-16.971-7.029h-32c-6.365 0-12.47 2.528-16.971 7.029l-48 48c-6.864 6.864-8.917 17.187-5.202 26.155s12.466 14.816 22.173 14.816h24v216c0 13.255 10.745 24 24 24h32c13.255 0 24-10.745 24-24v-216h24c9.707 0 18.458-5.848 22.173-14.815 3.715-8.969 1.661-19.291-5.202-26.156z" fill="#23aae6" data-original="#23aae6"></path><path d="m312.971 215.029-48-48c-9.373-9.373-24.568-9.373-33.941 0l-48 48c-9.373 9.373-9.373 24.568 0 33.941s24.568 9.373 33.941 0l7.029-7.029v230.059c0 13.255 10.745 24 24 24s24-10.745 24-24v-230.059l7.029 7.029c4.687 4.687 10.829 7.03 16.971 7.03s12.284-2.343 16.971-7.029c9.372-9.373 9.372-24.569 0-33.942z" fill="#5ad7ff" data-original="#5ad7ff"></path></g><g><path d="m208.971 359.029-48-48c-4.501-4.501-10.606-7.029-16.971-7.029h-32c-6.365 0-12.47 2.528-16.971 7.029l-48 48c-6.864 6.864-8.917 17.187-5.202 26.155s12.466 14.816 22.173 14.816h24v72c0 13.255 10.745 24 24 24h32c13.255 0 24-10.745 24-24v-72h24c9.707 0 18.458-5.848 22.173-14.815 3.715-8.969 1.661-19.291-5.202-26.156z" fill="#e1322d" data-original="#e1322d"></path><path d="m176.971 359.029-48-48c-9.373-9.373-24.568-9.373-33.941 0l-48 48c-9.373 9.373-9.373 24.568 0 33.941s24.568 9.373 33.941 0l7.029-7.029v86.059c0 13.255 10.745 24 24 24s24-10.745 24-24v-86.059l7.029 7.029c4.687 4.687 10.829 7.03 16.971 7.03s12.284-2.343 16.971-7.029c9.372-9.373 9.372-24.569 0-33.942z" fill="#f04b37" data-original="#f04b37"></path></g><g><path d="m480.971 71.029-48-48c-4.501-4.501-10.606-7.029-16.971-7.029h-32c-6.365 0-12.47 2.528-16.971 7.029l-48 48c-6.864 6.864-8.917 17.187-5.202 26.155s12.466 14.816 22.173 14.816h24v360c0 13.255 10.745 24 24 24h32c13.255 0 24-10.745 24-24v-360h24c9.707 0 18.458-5.848 22.173-14.815 3.715-8.969 1.661-19.291-5.202-26.156z" fill="#f06423" data-original="#f06423" class=""></path><path d="m448.971 71.029-48-48c-9.373-9.373-24.568-9.373-33.941 0l-48 48c-9.373 9.373-9.373 24.568 0 33.941s24.568 9.373 33.941 0l7.029-7.029v374.059c0 13.255 10.745 24 24 24s24-10.745 24-24v-374.059l7.029 7.029c4.687 4.687 10.829 7.03 16.971 7.03s12.284-2.343 16.971-7.029c9.372-9.373 9.372-24.569 0-33.942z" fill="#faa019" data-original="#faa019" class=""></path></g></g></g></svg>