<svg xmlns="http://www.w3.org/2000/svg" version="1.1" xmlns:xlink="http://www.w3.org/1999/xlink" xmlns:svgjs="http://svgjs.com/svgjs" width="512" height="512" x="0" y="0" viewBox="0 0 64 64" style="enable-background:new 0 0 512 512" xml:space="preserve" class=""><g><g xmlns="http://www.w3.org/2000/svg" id="Layer_7" data-name="Layer 7"><path d="m55 27h-43a5 5 0 0 1 -5-5v35a5 5 0 0 0 5 5h41a2 2 0 0 0 2-2z" fill="#674025" data-original="#674025"></path><path d="m55 56h-48v1a5 5 0 0 0 5 5h41a2 2 0 0 0 2-2z" fill="#976947" data-original="#976947"></path><path d="m52 56h-45v1a4.979 4.979 0 0 0 .422 2h43.578a1 1 0 0 0 1-1z" fill="#a87b5d" data-original="#a87b5d"></path><path d="m55 22v11h-48v-11z" fill="#976947" data-original="#976947"></path><path d="m52 29v-7h-45v8h44a1 1 0 0 0 1-1z" fill="#a87b5d" data-original="#a87b5d"></path><path d="m47 38h8a2 2 0 0 1 2 2v8a2 2 0 0 1 -2 2h-8a4 4 0 0 1 -4-4v-4a4 4 0 0 1 4-4z" fill="#976947" data-original="#976947"></path><path d="m52 38h-5a4 4 0 0 0 -4 4v4h7a2 2 0 0 0 2-2z" fill="#a87b5d" data-original="#a87b5d"></path><path d="m53 17a2 2 0 0 1 2 2v8h-43a5 5 0 0 1 -5-5 5 5 0 0 1 5-5z" fill="#442518" data-original="#442518"></path><path d="m7 22a4.988 4.988 0 0 0 .1 1h47.9v-2h-47.9a4.988 4.988 0 0 0 -.1 1z" fill="#674025" data-original="#674025"></path><path d="m20.82 27a15 15 0 1 1 22.361 0" fill="#f4a93c" data-original="#f4a93c"></path><path d="m30.5 2.076a15 15 0 0 0 -9.68 24.924h19.36a15 15 0 0 0 -9.68-24.924z" fill="#f6b940" data-original="#f6b940"></path><circle cx="48" cy="44" fill="#442518" r="2" data-original="#442518"></circle><path d="m32 22 7 5-3-7 7-5h-8l-3-8-3 8h-8l7 5-3 7z" fill="#fce797" data-original="#fce797"></path></g></g></svg>