<svg xmlns="http://www.w3.org/2000/svg" version="1.1" xmlns:xlink="http://www.w3.org/1999/xlink" xmlns:svgjs="http://svgjs.com/svgjs" width="512" height="512" x="0" y="0" viewBox="0 0 512 512" style="enable-background:new 0 0 512 512" xml:space="preserve" class=""><g><g xmlns="http://www.w3.org/2000/svg"><circle cx="256" cy="256" fill="#ff712f" r="256" data-original="#ff712f"></circle><g><path d="m511.897 263.116-140.742-140.742-237.528 260.667 128.877 128.877c136.013-3.392 245.682-112.868 249.393-248.802z" fill="#ff4949" data-original="#ff4949"></path></g><g><path d="m256 79.6c-97.423 0-176.4 78.977-176.4 176.4l176.4 10.001 176.4-10.001c0-97.423-78.977-176.4-176.4-176.4z" fill="#ffffff" data-original="#ffffff"></path><path d="m256 432.4c97.423 0 176.4-78.977 176.4-176.4h-352.8c0 97.423 78.977 176.4 176.4 176.4z" fill="#e3eaee" data-original="#e3eaee"></path></g><g><path d="m171.52 171.52v84.48l30.269 10.001 30.27-10.001v-84.48z" fill="#5a5a5a" data-original="#5a5a5a"></path><path d="m171.52 256h60.539v84.48h-60.539z" fill="#32393f" data-original="#32393f"></path><path d="m340.48 171.52h-60.539v84.48l30.27 10.001 30.269-10.001z" fill="#5a5a5a" data-original="#5a5a5a"></path><path d="m279.941 256h60.539v84.48h-60.539z" fill="#32393f" data-original="#32393f"></path></g></g></g></svg>