<svg xmlns="http://www.w3.org/2000/svg" version="1.1" xmlns:xlink="http://www.w3.org/1999/xlink" xmlns:svgjs="http://svgjs.com/svgjs" width="512" height="512" x="0" y="0" viewBox="0 0 512 512" style="enable-background:new 0 0 512 512" xml:space="preserve" class=""><g>
<g xmlns="http://www.w3.org/2000/svg" id="surface1">
<path d="M 512 256 C 512 324.378906 485.371094 388.671875 437.019531 437.019531 C 388.671875 485.371094 324.378906 512 256 512 C 187.621094 512 123.328125 485.371094 74.980469 437.019531 C 26.628906 388.671875 0 324.378906 0 256 C 0 187.621094 26.628906 123.328125 74.980469 74.980469 C 123.328125 26.628906 187.621094 0 256 0 C 324.378906 0 388.671875 26.628906 437.019531 74.980469 C 485.371094 123.328125 512 187.621094 512 256 Z M 512 256 " style=" stroke:none;fill-rule:nonzero;fill-opacity:1;" fill="#ffaa20" data-original="#ffaa20" class=""></path>
<path d="M 512 256 C 512 324.378906 485.371094 388.671875 437.019531 437.019531 C 388.671875 485.371094 324.378906 512 256 512 L 256 0 C 324.378906 0 388.671875 26.628906 437.019531 74.980469 C 485.371094 123.328125 512 187.621094 512 256 Z M 512 256 " style=" stroke:none;fill-rule:nonzero;fill-opacity:1;" fill="#ff8900" data-original="#ff8900"></path>
<path d="M 458 256 C 458 367.378906 367.378906 458 256 458 C 144.621094 458 54 367.378906 54 256 C 54 144.621094 144.621094 54 256 54 C 367.378906 54 458 144.621094 458 256 Z M 458 256 " style=" stroke:none;fill-rule:nonzero;fill-opacity:1;" fill="#ffec97" data-original="#ffec97" class=""></path>
<path d="M 458 256 C 458 367.378906 367.378906 458 256 458 L 256 54 C 367.378906 54 458 144.621094 458 256 Z M 458 256 " style=" stroke:none;fill-rule:nonzero;fill-opacity:1;" fill="#ffdb2d" data-original="#ffdb2d"></path>
<path d="M 353.078125 268.828125 L 256 304.789062 L 158.921875 268.828125 L 256 102.109375 Z M 353.078125 268.828125 " style=" stroke:none;fill-rule:nonzero;fill-opacity:1;" fill="#ff4b00" data-original="#ff4b00" class=""></path>
<path d="M 347.878906 302.75 L 256 410.261719 L 164.121094 302.75 L 256 336.78125 Z M 347.878906 302.75 " style=" stroke:none;fill-rule:nonzero;fill-opacity:1;" fill="#ff4b00" data-original="#ff4b00" class=""></path>
<path d="M 256 336.78125 L 347.878906 302.75 L 256 410.261719 Z M 256 336.78125 " style=" stroke:none;fill-rule:nonzero;fill-opacity:1;" fill="#c62100" data-original="#c62100"></path>
<path d="M 353.078125 268.828125 L 256 304.789062 L 256 102.109375 Z M 353.078125 268.828125 " style=" stroke:none;fill-rule:nonzero;fill-opacity:1;" fill="#c62100" data-original="#c62100"></path>
</g>
</g></svg>