<svg xmlns="http://www.w3.org/2000/svg" version="1.1" xmlns:xlink="http://www.w3.org/1999/xlink" xmlns:svgjs="http://svgjs.com/svgjs" width="512" height="512" x="0" y="0" viewBox="0 0 512 512" style="enable-background:new 0 0 512 512" xml:space="preserve" class="hovered-paths"><g><g xmlns="http://www.w3.org/2000/svg"><circle cx="256" cy="256" fill="#ffd930" r="256" data-original="#ffd930" class="hovered-path"></circle><path d="m512 256c0 141.38-114.62 256-256 256v-512c141.38 0 256 114.62 256 256z" fill="#fea535" data-original="#fea535"></path><circle cx="256" cy="256" fill="#fea535" r="192" data-original="#fea535"></circle><path d="m448 256c0 106.04-85.96 192-192 192v-384c106.04 0 192 85.96 192 192z" fill="#fe7e52" data-original="#fe7e52"></path><path d="m347.16 193.48-51.16 21.95-30.87-49.07h-18.26l-30.87 49.07-51.16-21.95-15.53 13.23 34.73 138.93h143.92l34.73-138.93z" fill="#ffd930" data-original="#ffd930" class="hovered-path"></path><path d="m362.69 206.71-34.73 138.93h-71.96v-179.28h9.13l30.87 49.07 51.16-21.95z" fill="#fea535" data-original="#fea535"></path></g></g></svg>