<svg xmlns="http://www.w3.org/2000/svg" version="1.1" xmlns:xlink="http://www.w3.org/1999/xlink" xmlns:svgjs="http://svgjs.com/svgjs" width="512" height="512" x="0" y="0" viewBox="0 0 512 512" style="enable-background:new 0 0 512 512" xml:space="preserve" class=""><g><circle xmlns="http://www.w3.org/2000/svg" cx="256" cy="256" fill="#ffec29" r="241" data-original="#ffec29"></circle><path xmlns="http://www.w3.org/2000/svg" d="m497 256c0 133.1-107.9 241-241 241v-482c133.1 0 241 107.9 241 241z" fill="#ffcb00" data-original="#ffcb00"></path><circle xmlns="http://www.w3.org/2000/svg" cx="256" cy="256" fill="#ffec29" r="158.31" data-original="#ffec29"></circle><g xmlns="http://www.w3.org/2000/svg" fill="#ffcb00"><path d="m414.31 256c0 87.43-70.88 158.31-158.31 158.31v-316.62c87.43 0 158.31 70.88 158.31 158.31z" fill="#ffcb00" data-original="#ffcb00"></path><path d="m437.02 74.98c-48.35-48.35-112.64-74.98-181.02-74.98s-132.67 26.63-181.02 74.98-74.98 112.64-74.98 181.02 26.63 132.67 74.98 181.02 112.64 74.98 181.02 74.98 132.67-26.63 181.02-74.98 74.98-112.64 74.98-181.02-26.63-132.67-74.98-181.02zm44.49 166.02h-52.84c-3.15-36.54-17.68-69.87-40.03-96.43l37.43-37.43c32.89 37.47 52.21 84.11 55.44 133.86zm-210.51-210.51c49.75 3.23 96.39 22.55 133.86 55.44l-37.43 37.43c-26.56-22.35-59.89-36.88-96.43-40.03zm-30 0v52.84c-36.54 3.15-69.87 17.68-96.43 40.03l-37.43-37.43c37.47-32.89 84.11-52.21 133.86-55.44zm-155.07 76.65 37.43 37.43c-22.35 26.56-36.88 59.89-40.03 96.43h-52.84c3.23-49.75 22.55-96.39 55.44-133.86zm-55.44 163.86h52.84c3.15 36.54 17.68 69.87 40.03 96.43l-37.43 37.43c-32.89-37.47-52.21-84.11-55.44-133.86zm210.51 210.51c-49.75-3.23-96.39-22.55-133.86-55.44l37.43-37.43c26.56 22.35 59.89 36.88 96.43 40.03zm-128.31-225.51c0-79.02 64.29-143.31 143.31-143.31s143.31 64.29 143.31 143.31-64.29 143.31-143.31 143.31-143.31-64.29-143.31-143.31zm158.31 225.51v-52.84c36.54-3.15 69.87-17.68 96.43-40.03l37.43 37.43c-37.47 32.89-84.11 52.21-133.86 55.44zm155.07-76.65-37.43-37.43c22.35-26.56 36.88-59.89 40.03-96.43h52.84c-3.23 49.75-22.55 96.39-55.44 133.86z" fill="#ffcb00" data-original="#ffcb00"></path><path d="m300.14 285.14c0 19.07-12.16 35.35-29.14 41.51v20.09c0 8.28-6.72 15-15 15s-15-6.72-15-15v-17.47h-14.14c-8.28 0-15-6.72-15-15s6.72-15 15-15h29.14c7.79 0 14.14-6.34 14.14-14.13 0-7.8-6.35-14.14-14.14-14.14-24.34 0-44.14-19.8-44.14-44.14 0-19.07 12.16-35.35 29.14-41.51v-20.09c0-8.28 6.72-15 15-15s15 6.72 15 15v17.47h14.14c8.28 0 15 6.72 15 15s-6.72 15-15 15h-29.14c-7.79 0-14.14 6.34-14.14 14.13 0 7.8 6.35 14.14 14.14 14.14 24.34 0 44.14 19.8 44.14 44.14z" fill="#ffcb00" data-original="#ffcb00"></path></g><path xmlns="http://www.w3.org/2000/svg" d="m300.14 285.14c0 19.07-12.16 35.35-29.14 41.51v20.09c0 8.28-6.72 15-15 15v-62.47c7.79 0 14.14-6.34 14.14-14.13 0-7.8-6.35-14.14-14.14-14.14v-30c24.34 0 44.14 19.8 44.14 44.14z" fill="#b2b2b2" data-original="#b2b2b2"></path><path xmlns="http://www.w3.org/2000/svg" d="m285.14 212.73h-29.14v-62.47c8.28 0 15 6.72 15 15v17.47h14.14c8.28 0 15 6.72 15 15s-6.72 15-15 15z" fill="#b2b2b2" data-original="#b2b2b2"></path><path xmlns="http://www.w3.org/2000/svg" d="m437.02 74.98c-48.35-48.35-112.64-74.98-181.02-74.98v112.69c79.02 0 143.31 64.29 143.31 143.31s-64.29 143.31-143.31 143.31v112.69c68.38 0 132.67-26.63 181.02-74.98s74.98-112.64 74.98-181.02-26.63-132.67-74.98-181.02zm-166.02 8.35v-52.84c49.75 3.23 96.39 22.55 133.86 55.44l-37.43 37.43c-26.56-22.35-59.89-36.88-96.43-40.03zm117.64 61.24 37.43-37.43c32.89 37.47 52.21 84.11 55.44 133.86h-52.84c-3.15-36.54-17.68-69.87-40.03-96.43zm-117.64 336.94v-52.84c36.54-3.15 69.87-17.68 96.43-40.03l37.43 37.43c-37.47 32.89-84.11 52.21-133.86 55.44zm155.07-76.65-37.43-37.43c22.35-26.56 36.88-59.89 40.03-96.43h52.84c-3.23 49.75-22.55 96.39-55.44 133.86z" fill="#ff8e00" data-original="#ff8e00"></path><path xmlns="http://www.w3.org/2000/svg" d="m300.14 285.14c0 19.07-12.16 35.35-29.14 41.51v20.09c0 8.28-6.72 15-15 15v-62.47c7.79 0 14.14-6.34 14.14-14.13 0-7.8-6.35-14.14-14.14-14.14v-30c24.34 0 44.14 19.8 44.14 44.14z" fill="#ff8e00" data-original="#ff8e00"></path><path xmlns="http://www.w3.org/2000/svg" d="m285.14 212.73h-29.14v-62.47c8.28 0 15 6.72 15 15v17.47h14.14c8.28 0 15 6.72 15 15s-6.72 15-15 15z" fill="#ff8e00" data-original="#ff8e00"></path></g></svg>