<svg xmlns="http://www.w3.org/2000/svg" version="1.1" xmlns:xlink="http://www.w3.org/1999/xlink" xmlns:svgjs="http://svgjs.com/svgjs" width="512" height="512" x="0" y="0" viewBox="0 0 512 512" style="enable-background:new 0 0 512 512" xml:space="preserve" class=""><g><g xmlns="http://www.w3.org/2000/svg"><g><g><g><g><g><g><g><g><circle cx="256" cy="256" fill="#00c8c8" r="256" data-original="#00c8c8"></circle></g></g></g></g></g></g></g></g><path d="m512 256c0-9.328-.499-18.539-1.472-27.607l-113.46-113.461-7.3 14.11-57.402-57.402-260.727 260.725 54.541 54.541-11.249 10.161 113.461 113.461c9.07.973 18.281 1.472 27.608 1.472 141.385 0 256-114.615 256-256z" fill="#00a0aa" data-original="#00a0aa"></path><g><g><g><path d="m56.5 256 17.53-36.207-2.39-40.159 30.1-26.696 13.192-38.007 38.007-13.192 26.695-30.1 40.16 2.391 36.206-17.53 36.207 17.53 40.159-2.39 26.696 30.1 38.007 13.192 13.192 38.007 30.1 26.695-2.391 40.16 17.53 36.206-17.53 36.207 2.391 40.159-30.101 26.696-13.192 38.007-38.007 13.192-26.695 30.1-40.16-2.391-36.206 17.53-36.207-17.53-40.159 2.39-26.696-30.1-38.007-13.192-13.192-38.007-30.1-26.695 2.391-40.16z" fill="#ffce00" data-original="#ffce00"></path></g></g></g><g><g><g><path d="m455.501 256-17.531-36.207 2.391-40.159-30.1-26.695-13.192-38.007-38.007-13.193-26.696-30.099-40.159 2.389-36.193-17.523v398.987l36.193-17.523 40.159 2.391 26.695-30.1 38.007-13.192 13.192-38.007 30.1-26.696-2.39-40.16z" fill="#fdba12" data-original="#fdba12"></path></g></g></g><g><g><g><g><g><g><g><g><circle cx="256" cy="256" fill="#ffb600" r="160.394" data-original="#ffb600"></circle></g></g></g></g></g></g></g></g><g><g><g><g><g><g><g><g><path d="m416.394 256c0-88.579-71.803-160.387-160.38-160.395v320.788c88.577-.006 160.38-71.815 160.38-160.393z" fill="#ff9500" data-original="#ff9500"></path></g></g></g></g></g></g></g></g><g><g><path d="m122.998 283.548v-52.537h29.773c10.397 0 15.359 6.774 15.359 13.391 0 6.537-4.017 10.948-8.98 12.051 5.592.866 10.003 6.223 10.003 12.839 0 7.641-5.12 14.257-15.438 14.257h-30.717zm31.349-36.783c0-2.521-1.89-4.333-4.647-4.333h-13.154v8.743h13.154c2.757 0 4.647-1.812 4.647-4.41zm1.024 20.636c0-2.599-1.89-4.726-5.198-4.726h-13.626v9.452h13.626c3.228 0 5.198-1.89 5.198-4.726z" fill="#636978" data-original="#636978"></path></g><g><path d="m205.859 283.548-8.822-17.643h-6.932v17.643h-13.547v-52.537h26.308c11.657 0 18.274 7.72 18.274 17.486 0 9.137-5.593 14.02-10.476 15.753l10.712 19.298zm1.497-35.13c0-3.544-2.993-5.592-6.538-5.592h-10.712v11.264h10.712c3.544 0 6.538-1.97 6.538-5.672z" fill="#636978" data-original="#636978"></path></g><g><path d="m264.303 283.548-2.6-7.561h-20.715l-2.599 7.561h-15.359l19.77-52.537h17.013l19.85 52.537zm-12.997-39.146-6.695 19.77h13.39z" fill="#636978" data-original="#636978"></path></g><g><path d="m259.813 231.011h-3.799v27.294l1.987 5.867h-1.987v11.815h5.689l2.6 7.561h15.359z" fill="#414952" data-original="#414952"></path></g><g><path d="m319.28 283.548-22.212-30.403v30.403h-13.548v-52.537h13.942l21.267 28.907v-28.907h13.626v52.537z" fill="#414952" data-original="#414952"></path></g><g><path d="m341.806 283.548v-52.537h22.055c16.541 0 28.434 9.925 28.434 26.229 0 16.305-11.893 26.308-28.355 26.308zm36.627-26.308c0-8.113-4.884-14.414-14.493-14.414h-8.586v28.907h8.507c9.215.001 14.572-6.695 14.572-14.493z" fill="#414952" data-original="#414952"></path></g></g><g><g><path d="m256 112.341 13.367 27.084 29.89 4.343-21.629 21.083 5.106 29.768-26.734-14.055-26.734 14.055 5.106-29.768-21.629-21.083 29.89-4.343z" fill="#ff6c52" data-original="#ff6c52"></path></g></g><g><g><path d="m277.628 164.851 21.629-21.082-29.89-4.344-13.353-27.056v68.202l26.72 14.048z" fill="#ff432e" data-original="#ff432e"></path></g></g><g><g><path d="m256 315.634 13.367 27.085 29.89 4.343-21.629 21.082 5.106 29.769-26.734-14.055-26.734 14.055 5.106-29.769-21.629-21.082 29.89-4.343z" fill="#ff6c52" data-original="#ff6c52"></path></g></g><g><g><path d="m277.628 368.145 21.629-21.083-29.89-4.343-13.353-27.056v68.202l26.72 14.048z" fill="#ff432e" data-original="#ff432e"></path></g></g></g></g></svg>