<svg xmlns="http://www.w3.org/2000/svg" version="1.1" xmlns:xlink="http://www.w3.org/1999/xlink" xmlns:svgjs="http://svgjs.com/svgjs" width="512" height="512" x="0" y="0" viewBox="0 0 512 512" style="enable-background:new 0 0 512 512" xml:space="preserve" class="hovered-paths"><g>
<g xmlns="http://www.w3.org/2000/svg">
	<path style="" d="M139.382,372.618C109.505,342.741,91,301.491,91,256s18.505-86.741,48.382-116.618L133.187,76   l-57.416-0.229C29.597,121.945,0,185.695,0,256s29.597,134.055,75.771,180.229l73.354,1.646L139.382,372.618z" fill="#ffeb95" data-original="#ffeb95" class=""></path>
	<path style="" d="M436.227,75.771l-87.415-1.646l23.804,65.257C402.494,169.259,421,210.509,421,256   s-18.505,86.741-48.382,116.618l-2.243,74.632l65.854-11.021C482.403,390.055,512,326.305,512,256S482.401,121.945,436.227,75.771z   " fill="#ffe56a" data-original="#ffe56a"></path>
	<path style="" d="M436.3,436.3C390.099,482.5,326.201,512,256,512s-134.099-29.5-180.3-75.7l63.6-63.6   c30,29.7,71.1,48.3,116.7,48.3s86.7-18.6,116.7-48.3L436.3,436.3z" fill="#ffe56a" data-original="#ffe56a"></path>
	<path style="" d="M372.7,372.7l63.6,63.6C390.099,482.5,326.201,512,256,512v-91C301.601,421,342.7,402.4,372.7,372.7   z" fill="#ffc73a" data-original="#ffc73a" class="hovered-path"></path>
	<path style="" d="M436.3,75.7l-63.6,63.6c-30-29.7-71.1-48.3-116.7-48.3s-86.7,18.6-116.7,48.3L75.7,75.7   C121.901,29.5,185.799,0,256,0S390.099,29.5,436.3,75.7z" fill="#ffe56a" data-original="#ffe56a"></path>
	<path style="" d="M372.7,139.3c-30-29.7-71.1-48.3-116.7-48.3V0c70.201,0,134.099,29.5,180.3,75.7L372.7,139.3z" fill="#ffc73a" data-original="#ffc73a" class="hovered-path"></path>
	<g>
		<g>
			<g>
				<g>
					<g>
						<path style="" d="M256,61C148.599,61,61,148.599,61,256c0,107.399,87.599,195,195,195s195-87.601,195-195        C451,148.599,363.401,61,256,61z" fill="#ffc73a" data-original="#ffc73a" class="hovered-path"></path>
					</g>
				</g>
			</g>
		</g>
	</g>
	<path style="" d="M451,256c0,107.399-87.599,195-195,195V61C363.401,61,451,148.599,451,256z" fill="#ff9400" data-original="#ff9400"></path>
	<g>
		<g>
			<g>
				
					<rect x="121.002" y="241.002" transform="matrix(0.7071 0.7071 -0.7071 0.7071 220.8528 -21.1859)" style="" width="29.997" height="29.997" fill="#ffe56a" data-original="#ffe56a"></rect>
			</g>
		</g>
	</g>
	<g>
		
			<rect x="361.002" y="241.002" transform="matrix(0.7071 0.7071 -0.7071 0.7071 291.1472 -190.8915)" style="" width="29.997" height="29.997" fill="#ffc73a" data-original="#ffc73a" class="hovered-path"></rect>
	</g>
	<path style="" d="M269.588,278.412L256.027,256L256,256.053v-8.286l-27.878-3.591l-15.831,11.805l0.128,0.205   c-12.186,0.245-24.056,4.49-32.959,12.838c-0.156,0.145-0.309,0.289-0.465,0.438c-16.165,15.308-20.843,39.992-8.617,58.597   c16.241,24.712,49.73,27.437,71.554,5.68c8.674-8.677,13.566-20.292,14.068-32.483v-2.88c0.042,0.064,0.317,0.482,0.317,0.482   L269.588,278.412z" fill="#ffe56a" data-original="#ffe56a"></path>
	<path style="" d="M256.317,298.858c0.337,13.771,5.858,26.924,15.63,36.698c8.76,8.774,20.288,13.154,31.802,13.154   c11.528,0,23.057-4.38,31.831-13.154c17.549-17.549,17.549-46.099-1.816-65.479C324.69,261.056,312.431,256,299.643,256   l-19.285-14.176l-13.837,8.062l-0.046-0.769L256,247.768v53.489c0.031-0.738,0.212-1.452,0.209-2.195L256.317,298.858z" fill="#ffc73a" data-original="#ffc73a" class="hovered-path"></path>
	<path style="" d="M256,212.428c-0.026-12.872-5.136-25.21-14.246-34.319l-1.664-1.664   c-19.62-19.655-53.135-17.296-69.479,7.112c-12.296,18.362-7.819,43.605,8.199,58.828c0.613,0.584,1.223,1.152,1.826,1.703   c8.588,7.861,20.012,11.891,31.655,11.895L256,256l18.06-19.118L256,212.428z" fill="#ffe56a" data-original="#ffe56a"></path>
	<path style="" d="M256.009,255.974l0.018,0.026l43.718-0.018c11.644-0.004,23.068-4.034,31.657-11.895   c0.601-0.551,1.21-1.119,1.824-1.703c16.02-15.223,20.497-40.466,8.201-58.828c-16.346-24.408-49.86-26.766-69.481-7.112   l-1.664,1.664c-9.131,9.131-14.255,21.506-14.255,34.413l-0.018,0.011v-0.011c0-0.031-0.009-0.062-0.009-0.093V256h0.009V255.974z" fill="#ffc73a" data-original="#ffc73a" class="hovered-path"></path>
</g>















</g></svg>