<svg xmlns="http://www.w3.org/2000/svg" version="1.1" xmlns:xlink="http://www.w3.org/1999/xlink" xmlns:svgjs="http://svgjs.com/svgjs" width="512" height="512" x="0" y="0" viewBox="0 0 512 512" style="enable-background:new 0 0 512 512" xml:space="preserve" class=""><g><g xmlns="http://www.w3.org/2000/svg"><g><g><ellipse cx="102.226" cy="409.774" fill="#f5de8e" rx="94.226" ry="94.226" transform="matrix(.707 -.707 .707 .707 -259.813 192.305)" data-original="#f5de8e" class=""></ellipse></g><g><ellipse cx="409.774" cy="102.226" fill="#f5de8e" rx="94.226" ry="94.226" transform="matrix(.707 -.707 .707 .707 47.736 319.695)" data-original="#f5de8e" class=""></ellipse></g><g><ellipse cx="409.774" cy="409.774" fill="#f5de8e" rx="94.226" ry="94.226" transform="matrix(.707 -.707 .707 .707 -169.734 409.774)" data-original="#f5de8e" class=""></ellipse></g><path d="m102.226 486c-49.003 0-89.264-37.409-93.796-85.226-.281 2.963-.43 5.964-.43 9 0 52.04 42.187 94.226 94.226 94.226 52.04 0 94.226-42.186 94.226-94.226 0-3.036-.15-6.037-.43-9-4.532 47.817-44.793 85.226-93.796 85.226z" fill="#edd17a" data-original="#edd17a" class=""></path><path d="m409.774 486c-49.003 0-89.264-37.409-93.796-85.226-.281 2.963-.43 5.964-.43 9 0 52.039 42.187 94.226 94.226 94.226 52.04 0 94.226-42.186 94.226-94.226 0-3.036-.149-6.037-.43-9-4.532 47.817-44.793 85.226-93.796 85.226z" fill="#edd17a" data-original="#edd17a" class=""></path><g><ellipse cx="102.226" cy="102.226" fill="#f5de8e" rx="94.226" ry="94.226" transform="matrix(.707 -.707 .707 .707 -42.343 102.226)" data-original="#f5de8e" class=""></ellipse></g><path d="m409.774 178.452c-49.003 0-89.264-37.409-93.796-85.226-.281 2.963-.43 5.964-.43 9 0 52.04 42.187 94.226 94.226 94.226s94.226-42.186 94.226-94.226c0-3.036-.149-6.037-.43-9-4.532 47.817-44.793 85.226-93.796 85.226z" fill="#edd17a" data-original="#edd17a" class=""></path><path d="m102.226 178.452c-49.003 0-89.264-37.409-93.796-85.226-.281 2.963-.43 5.964-.43 9 0 52.04 42.187 94.226 94.226 94.226 52.04 0 94.226-42.186 94.226-94.226 0-3.036-.15-6.037-.43-9-4.532 47.817-44.793 85.226-93.796 85.226z" fill="#edd17a" data-original="#edd17a" class=""></path><g><g fill="#d75950"><path d="m196.043 93.47c19.011-7.507 39.728-11.633 61.408-11.633 20.621 0 40.366 3.741 58.606 10.565 1.5-14.475 6.279-27.975 13.578-39.749-22.501-8.27-46.814-12.788-72.184-12.788-26.257 0-51.378 4.851-74.534 13.681 7.166 11.853 11.789 25.412 13.126 39.924z" fill="#d75950" data-original="#d75950" class=""></path><path d="m410.984 315.564c14.832.187 28.838 3.797 41.263 10.082 9.322-23.707 14.444-49.525 14.444-76.541 0-22.686-3.625-44.521-10.302-64.977-12 6.845-25.651 11.124-40.208 12.102 5.534 16.62 8.538 34.396 8.538 52.875 0 23.618-4.905 46.087-13.735 66.459z" fill="#d75950" data-original="#d75950" class=""></path><path d="m102.226 315.548c.566 0 1.13.012 1.694.022-8.832-20.374-13.738-42.845-13.738-66.464 0-18.424 2.987-36.149 8.49-52.727-14.632-.543-28.41-4.42-40.599-10.898-6.398 20.065-9.862 41.439-9.862 63.625 0 26.565 4.962 51.968 13.991 75.349 12.149-5.71 25.712-8.907 40.024-8.907z" fill="#d75950" data-original="#d75950" class=""></path><path d="m315.548 409.774c0-1.275.033-2.542.083-3.804-18.121 6.724-37.72 10.404-58.18 10.404-21.573 0-42.192-4.087-61.127-11.524.084 1.631.127 3.272.127 4.924 0 13.159-2.701 25.686-7.573 37.062 21.484 7.45 44.553 11.509 68.572 11.509 23.081 0 45.284-3.747 66.047-10.649-5.107-11.604-7.949-24.43-7.949-37.922z" fill="#d75950" data-original="#d75950" class=""></path></g><path d="m48.42 258.381c1.015 23.206 5.81 45.429 13.782 66.073 1.734-.815 3.499-1.572 5.289-2.283-9.564-19.733-16.118-41.195-19.071-63.79z" fill="#ca4844" data-original="#ca4844" class=""></path><path d="m465.259 224.584c.064 2.125.106 4.255.106 6.396 0 32.688-7.496 63.624-20.855 91.19 2.638 1.047 5.221 2.203 7.736 3.476 9.322-23.707 14.444-49.525 14.444-76.541.001-8.296-.489-16.478-1.431-24.521z" fill="#ca4844" data-original="#ca4844" class=""></path><path d="m256 440.345c-21.571 0-42.379-3.266-61.959-9.324-1.261 5.468-2.996 10.755-5.162 15.814 21.484 7.45 44.553 11.509 68.572 11.509 23.081 0 45.284-3.747 66.047-10.649-2.341-5.319-4.2-10.897-5.533-16.676-19.583 6.06-40.392 9.326-61.965 9.326z" fill="#ca4844" data-original="#ca4844" class=""></path></g><g><ellipse cx="256" cy="256" fill="#aadefd" rx="89.301" ry="89.301" transform="matrix(.707 -.707 .707 .707 -106.039 256)" data-original="#aadefd" class=""></ellipse></g></g><g><path d="m121.886 368.206c4.151 0 7.515-3.364 7.515-7.515s-3.364-7.515-7.515-7.515c-16.973 0-29.204 3.275-38.494 10.305-7.403 5.602-12.545 13.509-15.403 23.607h-7.889c-4.151 0-7.515 3.364-7.515 7.515s3.364 7.515 7.515 7.515h5.43c-.131 2.033-.213 4.112-.213 6.267s.082 4.235.213 6.268h-5.43c-4.151 0-7.515 3.364-7.515 7.515s3.364 7.515 7.515 7.515h7.889c2.858 10.097 8.001 18.003 15.403 23.606 9.29 7.031 21.521 10.306 38.494 10.306 4.151 0 7.515-3.364 7.515-7.515s-3.364-7.515-7.515-7.515c-20.631 0-32.711-5.702-38.117-18.883h26.535c4.151 0 7.515-3.364 7.515-7.515s-3.364-7.515-7.515-7.515h-29.733c-.145-1.995-.225-4.076-.225-6.268s.08-4.272.225-6.267h29.734c4.151 0 7.515-3.364 7.515-7.515s-3.364-7.515-7.515-7.515h-26.535c5.405-13.179 17.486-18.881 38.116-18.881z" fill="#000000" data-original="#000000" class=""></path><path d="m376.28 107.749h14.073l.106.91c1.097 9.818.522 13.479-7.324 24.016l-7.885 9.913c-3.932 4.627-.255 12.337 5.815 12.193l61.645.545h.067c4.119 0 7.477-3.321 7.514-7.448.036-4.15-3.298-7.544-7.448-7.581l-46.362-.41c8.344-11.616 10.349-18.996 8.989-32.137h14.104c4.151 0 7.515-3.364 7.515-7.515s-3.364-7.515-7.515-7.515h-17.748c-3.007-4.49-8.243-13.929-8.209-21.703 0-.01-.001-.02-.001-.03s.001-.02.001-.03c-.019-5.043 2.18-8.741 6.72-11.304 6.871-3.877 17.55-3.938 23.804-.136 4.889 2.973 8.588 7.151 9.654 10.905 1.133 3.992 5.288 6.312 9.281 5.177 3.992-1.133 6.31-5.288 5.177-9.281-2.12-7.474-8.064-14.634-16.303-19.643-10.936-6.651-27.34-6.694-39.002-.11-9.263 5.231-14.356 13.867-14.357 24.328 0 .02-.003.039-.003.059 0 .009.001.018.001.027 0 .011-.001.021-.001.033 0 .031.004.06.005.091.003 7.87 2.885 15.655 5.871 21.616h-8.183c-4.151 0-7.515 3.364-7.515 7.515-.001 4.151 3.363 7.515 7.514 7.515z" fill="#000000" data-original="#000000" class=""></path><path d="m461.931 322.361c8.414-23.46 12.687-48.073 12.687-73.269 0-21.025-3.013-41.779-8.943-61.785 27.869-18.21 46.325-49.679 46.325-85.382 0-56.202-45.723-101.925-101.925-101.925-34.371 0-64.821 17.104-83.292 43.244-22.283-7.506-45.574-11.317-69.329-11.317-24.588 0-48.666 4.085-71.671 12.133-18.411-26.599-49.132-44.06-83.858-44.06-56.202 0-101.925 45.723-101.925 101.925 0 36.74 19.542 69 48.776 86.938-5.627 19.524-8.486 39.754-8.486 60.229 0 24.671 4.112 48.815 12.205 71.874-31.283 17.422-52.495 50.833-52.495 89.109 0 56.202 45.723 101.925 101.925 101.925 39.528 0 73.872-22.618 90.772-55.591 20.91 6.529 42.66 9.847 64.757 9.847 21.204 0 42.112-3.059 62.254-9.079 17.037 32.554 51.148 54.823 90.367 54.823 56.202 0 101.925-45.723 101.925-101.925 0-37.278-20.121-69.941-50.069-87.714zm-51.856-307.332c47.914 0 86.895 38.981 86.895 86.895 0 47.915-38.981 86.896-86.895 86.896-47.915 0-86.896-38.981-86.896-86.896 0-47.913 38.981-86.895 86.896-86.895zm16.219 187.526c9.081-1.458 17.766-4.117 25.884-7.814 4.916 17.64 7.41 35.882 7.41 54.351 0 22.863-3.778 45.204-11.216 66.532-8.283-3.371-17.103-5.681-26.296-6.764 6.956-19.114 10.488-39.169 10.488-59.768 0-15.817-2.112-31.429-6.27-46.537zm-168.84-155.598c21.012 0 41.631 3.193 61.418 9.501-4.002 7.994-6.983 16.583-8.772 25.597-16.983-5.354-34.649-8.074-52.646-8.074-19.001 0-37.586 3.014-55.386 8.951-1.707-9.022-4.605-17.627-8.527-25.644 20.56-6.855 42.018-10.331 63.913-10.331zm-242.425 54.968c0-47.914 38.981-86.895 86.895-86.895 47.915 0 86.896 38.981 86.896 86.895 0 47.915-38.981 86.896-86.896 86.896-47.913 0-86.895-38.982-86.895-86.896zm77.698 206.644c-9.251.831-18.15 2.902-26.528 6.048-7.215-21.043-10.88-43.046-10.88-65.526 0-18.069 2.388-35.928 7.095-53.213 8.206 3.464 16.958 5.88 26.086 7.086-4.084 14.983-6.157 30.456-6.157 46.127 0 20.496 3.498 40.451 10.384 59.478zm9.198 188.402c-47.914 0-86.895-38.981-86.895-86.895 0-47.915 38.981-86.896 86.895-86.896 47.915 0 86.896 38.981 86.896 86.896 0 47.913-38.982 86.895-86.896 86.895zm155.529-45.744c-20.085 0-39.857-2.938-58.892-8.731 2.848-8.467 4.61-17.428 5.125-26.717 17.311 5.587 35.346 8.423 53.766 8.423 17.386 0 34.464-2.537 50.915-7.534.594 9.26 2.427 18.187 5.341 26.617-18.221 5.272-37.107 7.942-56.255 7.942zm51.12-50.405c-16.431 5.538-33.603 8.351-51.12 8.351-18.616 0-36.797-3.162-54.121-9.389-4.952-49.159-44.982-88.116-94.607-91.402-7.532-18.854-11.354-38.775-11.354-59.29 0-15.414 2.19-30.613 6.503-45.266 55.304-1.045 99.974-46.352 99.974-101.901 0-1.234-.03-2.46-.074-3.683 17.186-6.121 35.215-9.231 53.677-9.231 17.405 0 34.468 2.779 50.807 8.249-.07 1.547-.111 3.101-.111 4.665 0 56.202 45.724 101.926 101.926 101.926.321 0 .64-.009.961-.012 4.31 14.647 6.498 29.842 6.498 45.254 0 20.459-3.802 40.327-11.295 59.137-51.337 1.909-93.086 41.967-97.664 92.592zm101.501 96.149c-47.915 0-86.896-38.981-86.896-86.895 0-47.915 38.981-86.896 86.896-86.896 47.914 0 86.895 38.981 86.895 86.896.001 47.913-38.981 86.895-86.895 86.895z" fill="#000000" data-original="#000000" class=""></path><path d="m445.171 355.519c-3.462-2.293-8.124-1.342-10.414 2.118l-24.522 37.052-24.763-37.306c-2.296-3.459-6.961-4.4-10.417-2.106-3.458 2.296-4.4 6.96-2.106 10.417l26.186 39.448h-19.861c-4.151 0-7.515 3.364-7.515 7.515s3.364 7.515 7.515 7.515h23.423l-.025 10.55h-23.399c-4.151 0-7.515 3.364-7.515 7.515s3.364 7.515 7.515 7.515h23.365l-.03 12.927c-.01 4.151 3.347 7.522 7.497 7.532h.018c4.142 0 7.505-3.353 7.515-7.497l.03-12.962h23.292c4.151 0 7.515-3.364 7.515-7.515s-3.364-7.515-7.515-7.515h-23.258l.024-10.55h23.233c4.151 0 7.515-3.364 7.515-7.515s-3.364-7.515-7.515-7.515h-19.62l25.95-39.209c2.291-3.461 1.343-8.124-2.118-10.414z" fill="#000000" data-original="#000000" class=""></path><path d="m108.892 157.389v-5.999c13.171-3.199 21.619-14.386 23.474-25.416 2.401-14.284-5.061-26.7-19.01-31.63-1.469-.519-2.966-1.059-4.464-1.617v-26.048c3.176 1.087 5.033 2.655 5.178 2.782 1.353 1.311 3.195 2.121 5.229 2.121 4.153 0 7.521-3.367 7.521-7.521 0-2.288-1.023-4.336-2.635-5.715-.349-.323-6.007-5.417-15.292-7.162v-4.723c0-4.151-3.364-7.515-7.515-7.515s-7.515 3.364-7.515 7.515v5.25c-.583.147-1.172.309-1.768.488-9.245 2.785-16.151 10.681-18.021 20.608-1.714 9.097 1.231 17.892 7.685 22.954 3.127 2.452 6.953 4.7 12.104 7.045v34.181c-3.865-.479-6.691-1.699-11.175-4.632-3.471-2.271-8.13-1.299-10.402 2.175-2.272 3.473-1.298 8.13 2.175 10.402 7.584 4.961 12.9 6.643 19.402 7.158v5.297c0 4.151 3.364 7.515 7.515 7.515 4.15.001 7.514-3.363 7.514-7.513zm0-48.668c9.684 3.74 9.08 12.213 8.652 14.76-.773 4.598-3.709 9.447-8.652 11.988zm-15.029-22.847c-1.03-.632-1.986-1.276-2.829-1.938-1.991-1.563-2.852-4.838-2.191-8.344.515-2.73 2.093-5.913 5.02-7.808z" fill="#000000" data-original="#000000" class=""></path><path d="m256 159.01c-53.48 0-96.99 43.51-96.99 96.99s43.51 96.99 96.99 96.99 96.99-43.51 96.99-96.99-43.51-96.99-96.99-96.99zm72.924 59.651h-28.067c-2.136-10.671-5.19-20.521-9.092-29.054-1.591-3.48-3.299-6.679-5.107-9.596 18.287 7.404 33.304 21.219 42.266 38.65zm-39.525 37.339c0 7.854-.472 15.312-1.319 22.31h-64.16c-.847-6.998-1.32-14.456-1.32-22.31s.472-15.312 1.32-22.31h64.159c.848 6.998 1.32 14.456 1.32 22.31zm-33.399-81.961c11.287 0 23.492 17.191 29.543 44.621h-59.085c6.05-27.43 18.255-44.621 29.542-44.621zm-30.657 5.971c-1.808 2.918-3.516 6.116-5.107 9.596-3.902 8.533-6.956 18.382-9.092 29.054h-28.067c8.961-17.43 23.978-31.245 42.266-38.65zm-51.304 75.99c0-7.734 1.1-15.212 3.112-22.31h31.656c-.812 7.228-1.236 14.703-1.236 22.31s.423 15.082 1.236 22.31h-31.656c-2.012-7.098-3.112-14.576-3.112-22.31zm9.037 37.34h28.067c2.136 10.671 5.19 20.521 9.092 29.054 1.591 3.48 3.299 6.679 5.107 9.596-18.287-7.405-33.304-21.22-42.266-38.65zm72.924 44.621c-11.287 0-23.492-17.191-29.543-44.621h59.085c-6.05 27.43-18.255 44.621-29.542 44.621zm30.652-5.969c1.809-2.919 3.52-6.116 5.112-9.599 3.902-8.533 6.956-18.382 9.092-29.054h28.067c-8.962 17.433-23.981 31.249-42.271 38.653zm16.541-53.682c.812-7.228 1.235-14.704 1.235-22.31 0-7.607-.423-15.082-1.235-22.31h31.656c2.012 7.099 3.112 14.576 3.112 22.31s-1.1 15.212-3.112 22.31z" fill="#000000" data-original="#000000" class=""></path></g></g></g></svg>