<svg xmlns="http://www.w3.org/2000/svg" version="1.1" xmlns:xlink="http://www.w3.org/1999/xlink" xmlns:svgjs="http://svgjs.com/svgjs" width="512" height="512" x="0" y="0" viewBox="0 0 464 464" style="enable-background:new 0 0 512 512" xml:space="preserve" class=""><g><circle xmlns="http://www.w3.org/2000/svg" cx="232" cy="232" fill="#b5d5f5" r="232" data-original="#b5d5f5"></circle><path xmlns="http://www.w3.org/2000/svg" d="m39.62 306.899c3.169 15.54-19.119 21.903-24.724 7.067-9.627-25.485-14.896-53.11-14.896-81.966 0-128.836 104.942-232.95 233.758-231.993 15.969.119 17.501 23.342 1.702 25.673-127.893 18.874-221.756 154.14-195.84 281.219z" fill="#cbe3fa" data-original="#cbe3fa"></path><g xmlns="http://www.w3.org/2000/svg" fill="#9ec7f0"><path d="m229.006 432.98c-4.418-.067-7.944-3.704-7.877-8.121.067-4.418 3.722-7.971 8.121-7.877 3.523.055 7.057.007 10.543-.137 4.402-.182 8.141 3.249 8.323 7.664s-3.249 8.141-7.664 8.323c-3.769.156-7.607.207-11.446.148z" fill="#9ec7f0" data-original="#9ec7f0"></path><path d="m152.139 416.512c-3.478-1.506-6.963-3.136-10.359-4.844-3.947-1.985-5.538-6.795-3.552-10.742 1.985-3.948 6.794-5.538 10.742-3.552 3.124 1.571 6.33 3.07 9.528 4.456 4.054 1.756 5.918 6.466 4.162 10.521-1.748 4.033-6.447 5.925-10.521 4.161z" fill="#9ec7f0" data-original="#9ec7f0"></path><path d="m306.222 410.391c-1.868-4.004-.136-8.764 3.868-10.632 3.169-1.479 6.342-3.07 9.431-4.732 3.89-2.092 8.742-.636 10.835 3.255 2.094 3.891.636 8.742-3.255 10.835-3.355 1.805-6.803 3.535-10.247 5.142-3.995 1.863-8.759.146-10.632-3.868z" fill="#9ec7f0" data-original="#9ec7f0"></path><path d="m85.867 366.072c-2.246 0-4.478-.94-6.06-2.773-2.487-2.882-4.92-5.869-7.233-8.877-2.693-3.503-2.037-8.525 1.466-11.218 3.502-2.693 8.525-2.036 11.218 1.466 2.13 2.771 4.372 5.521 6.662 8.176 4.485 5.197.727 13.226-6.053 13.226z" fill="#9ec7f0" data-original="#9ec7f0"></path><path d="m381.541 362.022c-6.671 0-10.477-7.816-6.19-13.063 2.214-2.71 4.378-5.518 6.432-8.344 2.598-3.575 7.6-4.366 11.175-1.77 3.574 2.597 4.367 7.6 1.77 11.175-2.231 3.07-4.582 6.119-6.987 9.063-1.581 1.936-3.881 2.939-6.2 2.939z" fill="#9ec7f0" data-original="#9ec7f0"></path><path d="m45.49 289.854c-3.535 0-6.769-2.361-7.724-5.939-.979-3.669-1.866-7.419-2.634-11.147-.893-4.327 1.892-8.559 6.219-9.451 4.328-.895 8.558 1.892 9.451 6.219.708 3.429 1.522 6.878 2.423 10.253 1.352 5.068-2.467 10.065-7.735 10.065z" fill="#9ec7f0" data-original="#9ec7f0"></path><path d="m419.795 284.733c-5.161 0-8.983-4.818-7.791-9.847.806-3.401 1.525-6.873 2.137-10.319.772-4.35 4.924-7.251 9.275-6.479 4.35.772 7.25 4.925 6.479 9.275-.665 3.745-1.446 7.517-2.322 11.212-.873 3.68-4.156 6.158-7.778 6.158z" fill="#9ec7f0" data-original="#9ec7f0"></path><path d="m42.428 203.66c-5.037 0-8.804-4.58-7.868-9.499.713-3.74 1.542-7.503 2.463-11.184 1.074-4.286 5.417-6.888 9.704-5.816 4.286 1.074 6.89 5.418 5.816 9.704-.848 3.386-1.611 6.848-2.266 10.29-.729 3.835-4.084 6.505-7.849 6.505z" fill="#9ec7f0" data-original="#9ec7f0"></path><path d="m420.522 198.486c-3.676 0-6.986-2.549-7.806-6.287-.749-3.413-1.608-6.852-2.553-10.223-1.192-4.254 1.29-8.67 5.544-9.862 4.251-1.192 8.67 1.29 9.862 5.544 1.027 3.664 1.96 7.402 2.774 11.112 1.099 5-2.715 9.716-7.821 9.716z" fill="#9ec7f0" data-original="#9ec7f0"></path><path d="m77.17 124.737c-6.49 0-10.371-7.47-6.406-12.784 2.272-3.045 4.661-6.065 7.1-8.976 2.838-3.386 7.883-3.831 11.271-.992 3.386 2.838 3.83 7.884.992 11.271-2.246 2.679-4.445 5.46-6.537 8.264-1.571 2.105-3.981 3.217-6.42 3.217z" fill="#9ec7f0" data-original="#9ec7f0"></path><path d="m383.605 120.548c-2.366 0-4.708-1.044-6.287-3.046-2.167-2.747-4.442-5.469-6.763-8.091-2.928-3.309-2.62-8.364.688-11.293s8.364-2.621 11.293.688c2.52 2.847 4.991 5.804 7.344 8.787 4.165 5.28.321 12.955-6.275 12.955z" fill="#9ec7f0" data-original="#9ec7f0"></path><path d="m142.833 68.796c-2.885 0-5.671-1.565-7.099-4.3-2.044-3.917-.526-8.75 3.391-10.794 3.377-1.763 6.847-3.449 10.313-5.013 4.027-1.818 8.765-.025 10.582 4.002s.025 8.765-4.002 10.582c-9.929 4.481-10.107 5.523-13.185 5.523z" fill="#9ec7f0" data-original="#9ec7f0"></path><path d="m316.455 66.409c-2.96 0-3.038-.945-13.082-5.146-4.076-1.705-5.999-6.391-4.294-10.467s6.392-5.999 10.467-4.294c3.497 1.462 7.002 3.048 10.419 4.713 3.972 1.935 5.623 6.724 3.687 10.696-1.385 2.844-4.234 4.498-7.197 4.498z" fill="#9ec7f0" data-original="#9ec7f0"></path><path d="m226.289 47.076c-4.313 0-7.869-3.433-7.992-7.771-.126-4.417 3.352-8.099 7.768-8.225 3.796-.109 7.649-.111 11.444-.007 4.417.121 7.899 3.799 7.778 8.216s-3.785 7.901-8.216 7.778c-6.021-.164-10.255.009-10.782.009z" fill="#9ec7f0" data-original="#9ec7f0"></path></g><circle xmlns="http://www.w3.org/2000/svg" cx="232" cy="232" fill="#cbe3fa" r="153" data-original="#cbe3fa"></circle><path xmlns="http://www.w3.org/2000/svg" d="m93.265 296.596c-9.567-20.512-14.719-43.498-14.234-67.735 1.697-84.69 70.941-151.061 155.223-149.844 12.645.183 14.1 18.417 1.645 20.606-84.58 14.87-143.531 106.457-123.172 190.011 2.977 12.221-14.145 18.361-19.462 6.962z" fill="#eef7ff" data-original="#eef7ff"></path><path xmlns="http://www.w3.org/2000/svg" d="m295.12 156.64-150.31-6.64 73.88 200.37 130.31-140.51z" fill="#ff8c95" data-original="#ff8c95"></path><path xmlns="http://www.w3.org/2000/svg" d="m355.459 214.572c2.298-3.151 2.007-7.525-.772-10.333-.145-.147-53.701-53.068-54.186-53.507-1.447-1.318-3.274-2.009-5.028-2.084-160.148-6.828-151.117-6.995-153.409-6.156-4.238 1.548-6.255 6.217-4.76 10.276 79.013 214.485 73.88 201.297 75.574 203.089 3.124 3.314 8.41 3.367 11.597.031.098-.102 130.483-140.632 130.984-141.316zm-192.667-38.927 66.908 56.469-14.045 86.899zm169.516 28.972-74.843 12.889 38.409-48.877zm-95.159 12.846-69.237-58.435 111.294 4.917zm8.157 18.371 81.75-14.078-96.249 103.784z" fill="#ff6d7a" data-original="#ff6d7a"></path></g></svg>