<svg xmlns="http://www.w3.org/2000/svg" version="1.1" xmlns:xlink="http://www.w3.org/1999/xlink" xmlns:svgjs="http://svgjs.com/svgjs" width="512" height="512" x="0" y="0" viewBox="0 0 64 64" style="enable-background:new 0 0 512 512" xml:space="preserve" class=""><g><circle xmlns="http://www.w3.org/2000/svg" cx="26" cy="26" fill="#225980" r="24" data-original="#225980"></circle><circle xmlns="http://www.w3.org/2000/svg" cx="26" cy="26" fill="#419bd7" r="20.939" data-original="#419bd7"></circle><circle xmlns="http://www.w3.org/2000/svg" cx="26" cy="26" fill="#26669e" r="20" data-original="#26669e"></circle><path xmlns="http://www.w3.org/2000/svg" d="m12.061 37.939a25.893 25.893 0 0 0 1.452 8.56 24 24 0 0 0 32.919-33.09 25.938 25.938 0 0 0 -34.371 24.53z" fill="#18435e" data-original="#18435e"></path><g xmlns="http://www.w3.org/2000/svg" fill="#7fcdf2"><path d="m12 25h7v2h-7z" fill="#7fcdf2" data-original="#7fcdf2"></path><path d="m22 23h-5a1 1 0 0 1 -1-1v-4h2v3h4z" fill="#7fcdf2" data-original="#7fcdf2"></path><path d="m25 13h2v7h-2z" fill="#7fcdf2" data-original="#7fcdf2"></path></g><circle xmlns="http://www.w3.org/2000/svg" cx="12" cy="25.939" fill="#f9d161" r="2" data-original="#f9d161"></circle><circle xmlns="http://www.w3.org/2000/svg" cx="26" cy="11.939" fill="#f9d161" r="2" data-original="#f9d161"></circle><circle xmlns="http://www.w3.org/2000/svg" cx="17" cy="16.939" fill="#f9d161" r="2" data-original="#f9d161"></circle><path xmlns="http://www.w3.org/2000/svg" d="m19 25h-3.478q-.562.975-1.042 2h4.52z" fill="#4aaee3" data-original="#4aaee3"></path><path xmlns="http://www.w3.org/2000/svg" d="m22 23v-2h-3.635q-.816.944-1.539 1.965a.925.925 0 0 0 .174.035z" fill="#4aaee3" data-original="#4aaee3"></path><path xmlns="http://www.w3.org/2000/svg" d="m27 20v-5.553q-1.026.482-2 1.049v4.504z" fill="#4aaee3" data-original="#4aaee3"></path><circle xmlns="http://www.w3.org/2000/svg" cx="38" cy="38" fill="#f5b94c" r="24" data-original="#f5b94c"></circle><circle xmlns="http://www.w3.org/2000/svg" cx="38" cy="38" fill="#bc9834" r="20.939" data-original="#bc9834"></circle><circle xmlns="http://www.w3.org/2000/svg" cx="38" cy="38" fill="#fbe47f" r="20" data-original="#fbe47f"></circle><path xmlns="http://www.w3.org/2000/svg" d="m52 47-14-24-14 24z" fill="#63308b" data-original="#63308b"></path><path xmlns="http://www.w3.org/2000/svg" d="m38 32-6 10h12z" fill="#ffffff" data-original="#ffffff"></path><path xmlns="http://www.w3.org/2000/svg" d="m38 32v-9l-14 24 8-5z" fill="#f24d1d" data-original="#f24d1d"></path><path xmlns="http://www.w3.org/2000/svg" d="m44 42 8 5-14-24v9z" fill="#982261" data-original="#982261"></path></g></svg>