<svg xmlns="http://www.w3.org/2000/svg" version="1.1" xmlns:xlink="http://www.w3.org/1999/xlink" xmlns:svgjs="http://svgjs.com/svgjs" width="512" height="512" x="0" y="0" viewBox="0 0 512 512" style="enable-background:new 0 0 512 512" xml:space="preserve" class=""><g><g xmlns="http://www.w3.org/2000/svg"><path d="m275.38 406.998h141.239v30.003h-141.239z" fill="#384949" transform="matrix(.894 -.447 .447 .894 -152.196 199.288)" data-original="#384949"></path><path d="m421 165h30v182h-30z" fill="#384949" data-original="#384949"></path><path d="m330.998 19.38h30.003v141.239h-30.003z" fill="#384949" transform="matrix(.447 -.894 .894 .447 110.766 359.223)" data-original="#384949"></path><path d="m150.998 351.38h30.003v141.239h-30.003z" fill="#4a696f" transform="matrix(.447 -.894 .894 .447 -285.686 381.751)" data-original="#4a696f"></path><path d="m95.38 74.998h141.239v30.003h-141.239z" fill="#4a696f" transform="matrix(.894 -.447 .447 .894 -22.724 83.739)" data-original="#4a696f"></path><path d="m61 165h30v182h-30z" fill="#4a696f" data-original="#4a696f"></path><g fill="#83ede6"><path d="m256 0c-24.901 0-45 20.099-45 45 0 24.899 20.099 45 45 45s45-20.101 45-45c0-24.901-20.099-45-45-45z" fill="#83ede6" data-original="#83ede6"></path><path d="m256 422c-24.901 0-45 20.099-45 45 0 24.899 20.099 45 45 45s45-20.101 45-45c0-24.901-20.099-45-45-45z" fill="#83ede6" data-original="#83ede6"></path><path d="m76 422c-24.814 0-45-20.186-45-45s20.186-45 45-45 45 20.186 45 45-20.186 45-45 45z" fill="#83ede6" data-original="#83ede6"></path><path d="m76 180c-24.814 0-45-20.186-45-45s20.186-45 45-45 45 20.186 45 45-20.186 45-45 45z" fill="#83ede6" data-original="#83ede6"></path></g><path d="m436 180c-24.814 0-45-20.186-45-45s20.186-45 45-45 45 20.186 45 45-20.186 45-45 45z" fill="#64e1dc" data-original="#64e1dc"></path><path d="m436 422c-24.814 0-45-20.186-45-45s20.186-45 45-45 45 20.186 45 45-20.186 45-45 45z" fill="#64e1dc" data-original="#64e1dc"></path><path d="m331 210v31h-30v-31c0-24.901-20.099-45-45-45s-45 20.099-45 45v31h-30v-31c0-41.4 33.6-75 75-75s75 33.6 75 75z" fill="#4a696f" data-original="#4a696f"></path><path d="m331 210v31h-30v-31c0-24.901-20.099-45-45-45v-30c41.4 0 75 33.6 75 75z" fill="#384949" data-original="#384949"></path><path d="m151 226v121h210v-121z" fill="#ffb64c" data-original="#ffb64c"></path><path d="m256 226h105v121h-105z" fill="#ff9100" data-original="#ff9100"></path><path d="m241 256h30v30h-30z" fill="#4a696f" data-original="#4a696f"></path><path d="m256 256h15v30h-15z" fill="#384949" data-original="#384949"></path><path d="m301 467c0 24.899-20.099 45-45 45v-90c24.901 0 45 20.099 45 45z" fill="#64e1dc" data-original="#64e1dc"></path><path d="m256 90v-90c24.901 0 45 20.099 45 45 0 24.899-20.099 45-45 45z" fill="#64e1dc" data-original="#64e1dc"></path></g></g></svg>