<svg xmlns="http://www.w3.org/2000/svg" version="1.1" xmlns:xlink="http://www.w3.org/1999/xlink" xmlns:svgjs="http://svgjs.com/svgjs" width="512" height="512" x="0" y="0" viewBox="0 0 48 59" style="enable-background:new 0 0 512 512" xml:space="preserve" class=""><g><g xmlns="http://www.w3.org/2000/svg" id="Page-1" fill="none" fill-rule="evenodd"><g id="035---Reward-Points" fill-rule="nonzero"><g fill="#f0c419"><path id="Shape" d="m24 8c-.5522847 0-1-.44771525-1-1v-6c0-.55228475.4477153-1 1-1s1 .44771525 1 1v6c0 .55228475-.4477153 1-1 1z" fill="#f0c419" data-original="#f0c419"></path><path id="Shape" d="m31 9c-.5522847 0-1-.44771525-1-1v-7c0-.55228475.4477153-1 1-1s1 .44771525 1 1v7c0 .55228475-.4477153 1-1 1z" fill="#f0c419" data-original="#f0c419"></path><path id="Shape" d="m38 12c-.5522847 0-1-.4477153-1-1v-4c0-.55228475.4477153-1 1-1s1 .44771525 1 1v4c0 .5522847-.4477153 1-1 1z" fill="#f0c419" data-original="#f0c419"></path><path id="Shape" d="m38 4c-.5522847 0-1-.44771525-1-1v-2c0-.55228475.4477153-1 1-1s1 .44771525 1 1v2c0 .55228475-.4477153 1-1 1z" fill="#f0c419" data-original="#f0c419"></path><path id="Shape" d="m45 29c-.5522847 0-1-.4477153-1-1v-22c0-.55228475.4477153-1 1-1s1 .44771525 1 1v22c0 .5522847-.4477153 1-1 1z" fill="#f0c419" data-original="#f0c419"></path><path id="Shape" d="m17 9c-.5522847 0-1-.44771525-1-1v-7c0-.55228475.4477153-1 1-1s1 .44771525 1 1v7c0 .55228475-.4477153 1-1 1z" fill="#f0c419" data-original="#f0c419"></path><path id="Shape" d="m10 12c-.55228475 0-1-.4477153-1-1v-4c0-.55228475.44771525-1 1-1 .5522847 0 1 .44771525 1 1v4c0 .5522847-.4477153 1-1 1z" fill="#f0c419" data-original="#f0c419"></path><path id="Shape" d="m10 4c-.55228475 0-1-.44771525-1-1v-2c0-.55228475.44771525-1 1-1 .5522847 0 1 .44771525 1 1v2c0 .55228475-.4477153 1-1 1z" fill="#f0c419" data-original="#f0c419"></path><path id="Shape" d="m3 29c-.55228475 0-1-.4477153-1-1v-22c0-.55228475.44771525-1 1-1s1 .44771525 1 1v22c0 .5522847-.44771525 1-1 1z" fill="#f0c419" data-original="#f0c419"></path></g><circle id="Oval" cx="24" cy="35" fill="#f29c1f" r="24" data-original="#f29c1f"></circle><circle id="Oval" cx="24" cy="35" fill="#f0c419" r="20" data-original="#f0c419"></circle><path id="Shape" d="m24 56c-11.5927251-.012676-20.98732402-9.4072749-21-21-.00986305-3.283222.75846276-6.5220477 2.242-9.451.15406603-.3304426.47576353-.5508479.83954325-.5751982.36377973-.0243503.71198223.151214.90871413.4581752s.210811.6966657.03674262 1.017023c-1.34172051 2.6501706-2.03636367 5.5805572-2.027 8.551 0 7.1966691 4.06604515 13.7756684 10.5029417 16.9941166 6.4368965 3.2184483 14.139723 2.5238849 19.8970583-1.7941166.2858125-.2143594.6642735-.2599565.9928203-.1196153.3285469.1403412.5572657.4452995.6000001.8.0427344.3547006-.1070079.705256-.3928204.9196153-3.6290225 2.7376911-8.0541674 4.2127394-12.6 4.2z" fill="#e57e25" data-original="#e57e25"></path><path id="Shape" d="m41.836 45.056c-.3474619-.0005246-.6697454-.1813742-.8512347-.4776708s-.1961661-.6655631-.0387653-.9753292c1.3588778-2.6635905 2.0630177-5.6128191 2.054-8.603 0-7.1966691-4.0660451-13.7756684-10.5029417-16.9941166-6.4368965-3.2184483-14.139723-2.5238849-19.8970583 1.7941166-.4418278.3313708-1.0686292.2418278-1.4-.2s-.2418278-1.0686292.2-1.4c7.8123377-5.8547027 18.6286281-5.5550318 26.1048153.7232473 7.4761872 6.2782792 9.6411945 16.879915 5.2251847 25.5867527-.1712086.3360111-.5168865.5471298-.894.546z" fill="#e57e25" data-original="#e57e25"></path><path id="Shape" d="m25.833 21.194 2.754 5.806c.2868694.6231662.864875 1.0628553 1.542 1.173l6.11.922c.793169.1577019 1.4353775.7387601 1.6713956 1.5122473.2360181.7734871.0276108 1.6140981-.5423956 2.1877527l-4.383 4.442c-.4956219.5108541-.7184208 1.2271528-.6 1.929l1.04 6.3c.1676628.7813155-.1280084 1.5895077-.760284 2.0781716s-1.4889026.571043-2.202716.2118284l-5.52-3.017c-.5872017-.3229096-1.2987983-.3229096-1.886 0l-5.52 3.017c-.7138134.3592146-1.5704404.2768355-2.202716-.2118284s-.9279468-1.2968561-.760284-2.0781716l1.04-6.3c.1184208-.7018472-.1043781-1.4181459-.6-1.929l-4.383-4.442c-.5700064-.5736546-.77841372-1.4142656-.5423956-2.1877527.2360181-.7734872.8782266-1.3545454 1.6713956-1.5122473l6.11-.922c.6778722-.1095275 1.2567469-.5493073 1.544-1.173l2.754-5.8c.3169197-.7293389 1.0358181-1.2016331 1.8310361-1.2029346s1.5156585.4686369 1.8349639 1.1969346z" fill="#f29c1f" data-original="#f29c1f"></path></g></g></g></svg>