<?xml version="1.0" encoding="utf-8"?>
<!-- Generator: Adobe Illustrator 23.0.5, SVG Export Plug-In . SVG Version: 6.00 Build 0)  -->
<svg version="1.1" id="Layer_1" xmlns:svgjs="http://svgjs.com/svgjs"
	 xmlns="http://www.w3.org/2000/svg" xmlns:xlink="http://www.w3.org/1999/xlink" x="0px" y="0px" viewBox="0 0 512 512"
	 style="enable-background:new 0 0 512 512;" xml:space="preserve">
<style type="text/css">
	.st0{fill:#F4EEFF;}
	.st1{fill:#F9795A;}
	.st2{fill:#4219A5;}
</style>
<circle class="st0" cx="256.9" cy="257.9" r="249.1"/>
<polygon class="st1" points="253,178.7 188.6,226.4 188.6,290.2 243.9,322.1 317.4,290.2 308.3,210.6 "/>
<g>
	<g>
		<path class="st2" d="M262.1,258.3v63.8l55.3-31.9v-63.8L262.1,258.3z"/>
		<path class="st2" d="M253,242.5l55.3-31.9L253,178.7l-55.3,31.9L253,242.5z"/>
		<path class="st2" d="M243.9,258.3l-55.3-31.9v63.8l55.3,31.9V258.3z"/>
		<path class="st2" d="M380.5,290.3c7.1-24.2,7.1-50.2,0-74.5c11.8-9.7,15.2-26.9,7.3-40.5c-7.9-13.7-24.4-19.3-38.7-14
			c-17.5-18.3-40-31.3-64.6-37.3c-2.5-15.1-15.7-26.6-31.5-26.6s-28.9,11.5-31.4,26.5c-24.5,6-47,19-64.5,37.3
			c-6.2-2.3-12.9-2.7-19.4-0.9c-8.2,2.2-15.1,7.5-19.4,14.9c-7.9,13.7-4.5,30.8,7.3,40.5c-7.1,24.2-7.1,50.2,0,74.5
			c-11.8,9.7-15.2,26.9-7.3,40.5c4.3,7.4,11.1,12.7,19.4,14.9c2.7,0.7,5.5,1.1,8.3,1.1c3.8,0,7.5-0.7,11-2
			c17.4,18.2,39.9,31.2,64.6,37.3c2.5,15.1,15.7,26.6,31.5,26.6s28.9-11.5,31.4-26.5c24.5-6,47-19,64.5-37.3c3.6,1.3,7.4,2,11.1,2
			c11,0,21.8-5.7,27.7-15.9C395.6,317.1,392.2,300,380.5,290.3L380.5,290.3z M282.2,363.8c-5-11.2-16.2-19-29.2-19
			c-13,0-24.2,7.8-29.2,19c-19.8-5.2-37.9-15.6-52.2-30.1c2.3-3.1,4-6.7,5.1-10.6c2.2-8.2,1.1-16.8-3.2-24.2
			c-6.5-11.3-18.9-17.1-31-15.8c-5.4-19.7-5.4-40.6,0-60.2c1.1,0.1,2.3,0.2,3.4,0.2c11,0,21.8-5.7,27.7-15.9
			c4.3-7.4,5.4-16,3.2-24.2c-1-3.9-2.8-7.4-5-10.6c14.4-14.5,32.5-25,52.1-30.1c5,11.2,16.2,19,29.2,19c13,0,24.2-7.8,29.2-19
			c19.8,5.2,37.9,15.7,52.2,30.1c-7.2,9.9-8.4,23.5-1.9,34.8c5.9,10.2,16.6,15.9,27.7,15.9c1.1,0,2.2-0.1,3.4-0.2
			c5.4,19.7,5.4,40.6,0,60.2c-12.2-1.3-24.6,4.5-31.1,15.8s-5.3,24.9,1.9,34.8C319.9,348.2,301.9,358.6,282.2,363.8L282.2,363.8z"/>
	</g>
</g>
</svg>
