<?xml version="1.0" encoding="utf-8"?>
<!-- Generator: Adobe Illustrator 23.0.5, SVG Export Plug-In . SVG Version: 6.00 Build 0)  -->
<svg version="1.1" id="Layer_1" xmlns:svgjs="http://svgjs.com/svgjs"
	 xmlns="http://www.w3.org/2000/svg" xmlns:xlink="http://www.w3.org/1999/xlink" x="0px" y="0px" viewBox="0 0 512 512"
	 style="enable-background:new 0 0 512 512;" xml:space="preserve">
<style type="text/css">
	.st0{fill:#F4EEFF;}
	.st1{fill:#F9795A;}
	.st2{fill:#4219A5;}
</style>
<circle class="st0" cx="256.9" cy="257.9" r="249.1"/>
<rect x="174.4" y="140" class="st1" width="146.6" height="61.2"/>
<path class="st1" d="M205.7,393.2h-59.3c-8,0-14.6-6.5-14.6-14.6V268.3c0-8,6.5-14.6,14.6-14.6h59.3c8,0,14.6,6.5,14.6,14.6v110.4
	C220.3,386.7,213.7,393.2,205.7,393.2z"/>
<path class="st1" d="M326.3,389.1h-10.7c-19.1,0-34.7-15.5-34.7-34.7v-57.7c0-19.1,15.5-34.7,34.7-34.7h10.7
	c19.1,0,34.7,15.5,34.7,34.7v57.7C361,373.6,345.5,389.1,326.3,389.1z"/>
<g>
	<path class="st2" d="M170.5,277l-20.3,33.4l20.3,14.2V277z"/>
	<path class="st2" d="M154.7,327l21.2,45.7l21.4-45.7l-15.1,10.5c-1.8,1.3-4,2-6.2,2c-2.3,0-4.5-0.7-6.3-2.1L154.7,327z"/>
	<path class="st2" d="M176,406c45.9,0,83-37.2,83-83s-37.2-83-83-83s-83,37.2-83,83C93.1,368.8,130.2,405.9,176,406z M138.9,307.6
		l27.6-45.7c3.2-5.3,10.1-7,15.4-3.8c1.6,0.9,2.9,2.2,3.8,3.8l27.6,45.6c1.9,3.2,2.1,7.1,0.6,10.4l-27.5,59.4
		c-1.8,4-5.8,6.5-10.2,6.5s-8.4-2.5-10.2-6.5L138.3,318C136.8,314.7,137,310.8,138.9,307.6L138.9,307.6z"/>
	<path class="st2" d="M319.6,239.9c-16.2,19-39.2,30.8-64.1,32.8c19.8,31,19.5,70.7-0.6,101.4c28.3,36,80.5,42.2,116.5,13.9
		c36-28.3,42.2-80.5,13.9-116.5C369.4,251.5,345.2,239.8,319.6,239.9L319.6,239.9z M342.1,378.3h-49.8c-3.1,0-5.5-2.5-5.5-5.5
		c0-0.7,0.1-1.4,0.4-2l16.4-42.3h-11.3c-3.1,0-5.5-2.5-5.5-5.5s2.5-5.5,5.5-5.5h15.6l18-46.3c1.1-2.9,4.2-4.3,7.1-3.3
		c2.9,1.1,4.3,4.2,3.3,7.1c0,0.1,0,0.1-0.1,0.2l-16.4,42.3H331c3.1,0,5.5,2.5,5.5,5.5s-2.5,5.5-5.5,5.5h-15.6l-15.1,38.8H342
		c3.1,0,5.5,2.5,5.5,5.5C347.6,375.8,345.2,378.3,342.1,378.3z"/>
	<path class="st2" d="M256.4,173.8c-4.3,4.6-11.5,5-16.1,0.7c-0.2-0.2-0.5-0.5-0.7-0.7l-19.3-22.5v38.8c0,6.1-5,11.1-11.1,11.1H168
		c2.8,10.1,7.6,19.6,14,28c25.5,1.6,49.2,13.5,65.7,32.9h0.3c37.3-0.1,70-25,79.9-60.9h-41.2c-6.1,0-11.1-5-11.1-11.1v-38.8
		L256.4,173.8z"/>
	<path class="st2" d="M331,179c0-45.9-37.2-83-83-83s-83,37.2-83,83c0,3.7,0.3,7.4,0.8,11.1h43.5v-38.8c0-6.1,4.9-11.1,11.1-11.1
		c3.3,0,6.3,1.4,8.5,3.9l19.2,22.5l19.3-22.5c4-4.6,11-5.2,15.6-1.2c2.5,2.1,3.9,5.2,3.9,8.4v38.8h43.5
		C330.7,186.4,331,182.7,331,179L331,179z"/>
	<path class="st2" d="M181.6,276.7v48l20.3-14.4L181.6,276.7z"/>
</g>
</svg>
