<?xml version="1.0" encoding="utf-8"?>
<!-- Generator: Adobe Illustrator 23.0.5, SVG Export Plug-In . SVG Version: 6.00 Build 0)  -->
<svg version="1.1" id="Layer_1" xmlns:svgjs="http://svgjs.com/svgjs"
	 xmlns="http://www.w3.org/2000/svg" xmlns:xlink="http://www.w3.org/1999/xlink" x="0px" y="0px" viewBox="0 0 512 512"
	 style="enable-background:new 0 0 512 512;" xml:space="preserve">
<style type="text/css">
	.st0{fill:#F4EEFF;}
	.st1{fill:#F9795A;}
	.st2{fill:#4219A5;}
</style>
<circle class="st0" cx="256.9" cy="257.9" r="249.1"/>
<polygon class="st1" points="370,268.1 411.1,334.2 370,420.7 328.2,333.8 "/>
<rect x="183" y="280" class="st1" width="126" height="71.6"/>
<rect x="170.4" y="133" class="st1" width="162.6" height="144.5"/>
<g>
	<path class="st2" d="M270.2,308.9c-3.1,0-5.5,2.5-5.5,5.5v5.5c0,3.1,2.5,5.5,5.5,5.5s5.5-2.5,5.5-5.5v-5.5
		C275.7,311.4,273.2,308.9,270.2,308.9z"/>
	<path class="st2" d="M375.5,351.6l31.5-22l-31.5-52.1V351.6z"/>
	<path class="st2" d="M122.6,103.8c-0.7-0.1-1.4-0.1-2.2-0.1c-12.3,0-22.2,9.9-22.2,22.2v16.6h44.4V127
		C142.8,115.3,134.2,105.3,122.6,103.8z"/>
	<path class="st2" d="M321.3,338.5c-1.8-3.9-1.6-8.5,0.7-12.2l20.3-33.7V125.9c0-12.3-9.9-22.2-22.2-22.2H144.8
		c5.7,6.4,8.9,14.7,8.9,23.4V370c0,3.1,2.5,5.5,5.5,5.5h177.5c0.5,0,1.1-0.2,1.6-0.3L321.3,338.5L321.3,338.5z M214.7,148.1h66.6
		c3.1,0,5.5,2.5,5.5,5.5c0,3.1-2.5,5.5-5.5,5.5h-66.6c-3.1,0-5.5-2.5-5.5-5.5C209.1,150.5,211.6,148.1,214.7,148.1L214.7,148.1z
		 M175.9,186.9h144.2c3.1,0,5.5,2.5,5.5,5.5s-2.5,5.5-5.5,5.5H175.9c-3.1,0-5.5-2.5-5.5-5.5S172.8,186.9,175.9,186.9L175.9,186.9z
		 M175.9,214.6h144.2c3.1,0,5.5,2.5,5.5,5.5s-2.5,5.5-5.5,5.5H175.9c-3.1,0-5.5-2.5-5.5-5.5S172.8,214.6,175.9,214.6L175.9,214.6z
		 M297.9,336.7H198c-3.1,0-5.5-2.5-5.5-5.5s2.5-5.5,5.5-5.5h12.1c-0.7-1.8-1-3.7-1-5.5v-11.1c0-9.2,7.5-16.6,16.6-16.6
		s16.6,7.5,16.6,16.6V320c0,1.9-0.4,3.8-1,5.5h13.1c-0.7-1.8-1-3.7-1-5.5v-5.5c0-9.2,7.5-16.6,16.6-16.6s16.6,7.5,16.6,16.6v5.5
		c0,1.9-0.4,3.8-1,5.5h12.1c3.1,0,5.5,2.5,5.5,5.5S300.9,336.7,297.9,336.7z M175.9,253.5c-3.1,0-5.5-2.5-5.5-5.5s2.5-5.5,5.5-5.5
		h144.2c3.1,0,5.5,2.5,5.5,5.5s-2.5,5.5-5.5,5.5H175.9z"/>
	<path class="st2" d="M225.8,303.4c-3.1,0-5.5,2.5-5.5,5.5V320c0,3.1,2.5,5.5,5.5,5.5s5.5-2.5,5.5-5.5v-11.1
		C231.3,305.9,228.8,303.4,225.8,303.4z"/>
	<path class="st2" d="M370,366.2c-2.6,0-5.2-0.8-7.3-2.4l-25.8-18.1l31.3,67.4c0.3,0.7,1,1.2,1.8,1.2s1.5-0.4,1.8-1.1l31.3-67.4
		l-25.8,18.1C375.1,365.4,372.6,366.2,370,366.2L370,366.2z"/>
	<path class="st2" d="M364.4,351.5v-74.2L333,329.5L364.4,351.5z"/>
</g>
</svg>
