<?xml version="1.0" encoding="utf-8"?>
<!-- Generator: Adobe Illustrator 23.0.5, SVG Export Plug-In . SVG Version: 6.00 Build 0)  -->
<svg version="1.1" id="Layer_1" xmlns:svgjs="http://svgjs.com/svgjs"
	 xmlns="http://www.w3.org/2000/svg" xmlns:xlink="http://www.w3.org/1999/xlink" x="0px" y="0px" viewBox="0 0 512 512"
	 style="enable-background:new 0 0 512 512;" xml:space="preserve">
<style type="text/css">
	.st0{fill:#F4EEFF;}
	.st1{fill:#F9795A;}
	.st2{fill:#4219A5;}
</style>
<circle class="st0" cx="256.9" cy="257.9" r="249.1"/>
<rect x="235.1" y="351" class="st1" width="29.6" height="25.3"/>
<rect x="170" y="146.3" class="st1" width="163.3" height="163.3"/>
<g>
	<g>
		<path class="st2" d="M264.7,308.2v1.4c-9.8-0.2-19.7-0.2-29.6,0v-1.4C235.1,288.7,264.7,288.2,264.7,308.2z"/>
		<path class="st2" d="M398,351.7c0,8.6-31.7,16.2-40.1,18v-40.3C369.1,332,398,340.1,398,351.7z"/>
		<path class="st2" d="M398,178.3v156.6c-10.5-8-27.3-12.7-40.1-15.6V191.9C370.1,189.3,387.5,185.1,398,178.3z"/>
		<path class="st2" d="M142,191.9v127.4c-12.8,2.9-29.7,7.7-40.1,15.6V178.3C112.3,185.1,129.7,189.4,142,191.9L142,191.9z"/>
		<path class="st2" d="M142,329.4v40.3c-8.4-1.8-40.1-9.4-40.1-18C101.8,340.1,130.6,332.1,142,329.4z"/>
		<g>
			<path class="st2" d="M184.2,199.3c14.9-1.8,31.3-3,48.1-3.5v-33.3c-16.9,0.5-33.3,1.7-48.1,3.5L184.2,199.3L184.2,199.3z"/>
			<path class="st2" d="M101.8,163.8c0,9.3,36.4,17.3,46,19.2c2.3,0.4,4,2.5,4,4.8v129.4c16-3,34.3-5.1,53.7-6.4v-2.6
				c0-58.8,88.8-59.1,88.8,0v2.6c19.4,1.3,37.8,3.4,53.7,6.4V187.8c0-2.4,1.7-4.4,4-4.8c9.9-1.9,46-9.9,46-19.2
				C398,122.2,101.8,120.4,101.8,163.8z M267.1,206.4c1.7-6.2,5.3-11.6,10.2-15.5c-12.5-15.5-1.5-38.9,18.6-38.9
				c20.2,0,31.1,23.5,18.6,38.9c7,5.6,11.2,14.1,11.2,23.3c0,2.7-2.2,4.9-4.9,4.9s-4.9-2.2-4.9-4.9c0-7.7-4.5-14.8-11.5-18
				c-3.5-1.6-3.9-6.4-0.6-8.6c11.5-7.7,6.1-25.7-7.8-25.7c-13.8,0-19.3,18-7.8,25.7c3.2,2.1,2.8,6.9-0.6,8.6
				c-5.3,2.5-9.3,7.2-10.8,12.9c-0.7,2.6-3.4,4.2-6,3.5C268,211.7,266.4,209,267.1,206.4z M187.5,288.6c-9.6,0-17.5-7.8-17.5-17.5
				s7.8-17.5,17.5-17.5s17.5,7.8,17.5,17.5S197.1,288.6,187.5,288.6z M220.5,237c-27.4,1.4-39.3,3.7-41.3,3.7
				c-2.4,0-4.6-1.8-4.9-4.3c-0.4-2.7,1.5-5.2,4.2-5.6c12.8-1.7,26.8-3,41.5-3.7c2.7-0.1,5,2,5.2,4.7
				C225.4,234.6,223.3,236.9,220.5,237z M242.2,200.7c0,2.7-2.1,4.9-4.8,4.9c-20.3,0.4-40.1,1.9-57.4,4.2c-2.9,0.4-5.6-1.9-5.6-4.9
				v-43.2c0-2.5,1.8-4.6,4.3-4.9c17.7-2.4,37.9-3.9,58.6-4.3c2.8,0,5,2.2,5,4.9L242.2,200.7z M247.4,236.3c-2.8,0-4.9-2.2-5-4.9
				c0-2.7,2.2-4.9,4.9-5c26.1-0.1,51.7,1.4,73.9,4.4c2.7,0.4,4.6,2.9,4.2,5.6c-0.3,2.5-2.5,4.3-4.9,4.3
				C318.7,240.7,291.8,236.1,247.4,236.3L247.4,236.3z M330.2,268.5c-0.4,2.7-2.9,4.5-5.7,4.1c-10.3-1.6-21.4-3-33-4
				c-2.7-0.2-4.7-2.6-4.5-5.3c0.2-2.7,2.6-4.7,5.3-4.5c11.8,1,23.1,2.4,33.7,4.1C328.8,263.3,330.7,265.8,330.2,268.5L330.2,268.5z"
				/>
			<path class="st2" d="M187.5,263.5c-4.2,0-7.6,3.4-7.6,7.6s3.4,7.6,7.6,7.6c4.2,0,7.6-3.4,7.6-7.6S191.7,263.5,187.5,263.5z"/>
		</g>
		<path class="st2" d="M284.4,327.3v-19c0-45.8-69.1-45.9-69.1,0v19c-6.6,1.5-11.5,7.4-11.5,14.4v40.8c0,8.2,6.6,14.8,14.8,14.8H281
			c8.2,0,14.8-6.6,14.8-14.8v-40.8C295.9,334.7,291,328.8,284.4,327.3z M255.8,360.8h-0.9v10.6c0,2.7-2.2,4.9-4.9,4.9
			s-4.9-2.2-4.9-4.9v-10.6H244c-2.7,0-4.9-2.2-4.9-4.9c0-2.7,2.2-4.9,4.9-4.9h11.7c2.7,0,4.9,2.2,4.9,4.9
			C260.7,358.6,258.5,360.8,255.8,360.8L255.8,360.8z M274.6,326.9h-49.3v-18.6c0-32.7,49.3-33.1,49.3,0V326.9z"/>
	</g>
</g>
</svg>
