<?xml version="1.0" encoding="utf-8"?>
<!-- Generator: Adobe Illustrator 23.0.5, SVG Export Plug-In . SVG Version: 6.00 Build 0)  -->
<svg version="1.1" id="Layer_1" xmlns:svgjs="http://svgjs.com/svgjs"
	 xmlns="http://www.w3.org/2000/svg" xmlns:xlink="http://www.w3.org/1999/xlink" x="0px" y="0px" viewBox="0 0 512 512"
	 style="enable-background:new 0 0 512 512;" xml:space="preserve">
<style type="text/css">
	.st0{fill:#F4EEFF;}
	.st1{fill:#F9795A;}
	.st2{fill-rule:evenodd;clip-rule:evenodd;fill:#4219A5;}
</style>
<circle class="st0" cx="256.9" cy="257.9" r="249.1"/>
<circle class="st1" cx="260" cy="260" r="62"/>
<g>
	<path class="st2" d="M415,260c0,14.3-11.6,25.9-25.9,25.9c-12.4,0-23.1-8.8-25.5-21.1h-19c-1.1,19.1-8.6,37.3-21.4,51.6l13.5,13.5
		c11.8-8,27.9-5,36,6.9s5,27.9-6.9,36c-10.3,7-24.1,5.7-32.9-3.1c-8.8-8.8-10.1-22.6-3.1-32.9l-13.5-13.5
		c-14.3,12.8-32.5,20.3-51.6,21.4v19c14.1,2.7,23.3,16.2,20.6,30.3c-2.7,14.1-16.2,23.3-30.3,20.6c-14.1-2.7-23.3-16.2-20.6-30.3
		c2-10.4,10.2-18.6,20.6-20.6v-19c-19.1-1.1-37.3-8.6-51.5-21.4L190,336.8c8,11.8,5,28-6.9,36c-10.3,7-24.1,5.7-32.9-3.1
		c-10.1-10.1-10.1-26.5,0-36.6c8.8-8.8,22.6-10.1,32.9-3.1l13.5-13.5c-12.8-14.3-20.3-32.4-21.4-51.6h-19
		c-2.7,14.1-16.2,23.3-30.3,20.6s-23.3-16.2-20.6-30.3c2.7-14.1,16.2-23.3,30.3-20.6c10.4,2,18.6,10.2,20.6,20.6h19
		c1.1-19.1,8.6-37.3,21.4-51.5l-13.5-13.5c-11.8,8-27.9,5-36-6.9c-8-11.8-5-27.9,6.9-36c11.8-8,27.9-5,36,6.9c6,8.8,6,20.3,0,29.1
		l13.5,13.5c14.3-12.8,32.4-20.3,51.5-21.4v-19c-14.1-2.7-23.3-16.2-20.6-30.3s16.2-23.3,30.3-20.6c14.1,2.7,23.3,16.2,20.6,30.3
		c-2,10.5-10.2,18.6-20.6,20.6v19c19.1,1.1,37.3,8.6,51.6,21.4l13.5-13.5c-8-11.8-5-27.9,6.8-36c11.8-8,27.9-5,36,6.8
		c8,11.8,5,27.9-6.8,36c-8.8,6-20.3,6-29.1,0l-13.5,13.5c12.8,14.3,20.3,32.4,21.4,51.5h19c2.7-14.1,16.2-23.3,30.3-20.6
		C406.2,236.9,415,247.5,415,260L415,260z M310.6,242.2c-27.9-27.9-73.2-27.9-101.2,0c-1.9,1.9-1.9,5,0,6.9s5,1.9,6.9,0
		c24.1-24.2,63.3-24.2,87.5,0l0,0c0.9,0.9,2.1,1.4,3.4,1.4s2.5-0.5,3.4-1.4C312.5,247.1,312.5,244.1,310.6,242.2L310.6,242.2z
		 M260,240.6c-13.9,0-27.1,5.5-36.9,15.3c-1.9,1.9-1.9,5,0,6.9s5,1.9,6.9,0l0,0c16.6-16.6,43.5-16.6,60.1,0c1.9,1.9,5,1.9,6.8,0
		c1.9-1.9,1.9-5,0-6.8C287.1,246.1,273.8,240.6,260,240.6z M260,260c-8.7,0-17.1,3.4-23.2,9.6c-1.9,1.9-1.9,5,0,6.9s5,1.9,6.9,0
		c9-9,23.7-9,32.7,0c1.9,1.9,5,1.9,6.9,0s1.9-5,0-6.9C277.1,263.4,268.7,260,260,260L260,260z M273.4,292.8c0-7.4-6-13.4-13.4-13.4
		s-13.4,6-13.4,13.4s6,13.4,13.4,13.4C267.4,306.2,273.4,300.2,273.4,292.8L273.4,292.8z M263.7,292.8c0-2.1-1.7-3.7-3.7-3.7
		c-2.1,0-3.7,1.7-3.7,3.7s1.7,3.7,3.7,3.7l0,0C262.1,296.5,263.7,294.9,263.7,292.8L263.7,292.8z"/>
</g>
</svg>
