<svg xmlns="http://www.w3.org/2000/svg" version="1.1" xmlns:xlink="http://www.w3.org/1999/xlink" xmlns:svgjs="http://svgjs.com/svgjs" width="512" height="512" x="0" y="0" viewBox="0 0 512 512" style="enable-background:new 0 0 512 512" xml:space="preserve" class=""><g><g xmlns="http://www.w3.org/2000/svg"><path d="m256 468.293h99.902c-38.504-36.423-37.463-83.252-37.463-83.252h-62.439-62.439s1.041 46.829-37.463 83.252z" fill="#2b4d66" data-original="#2b4d66" class=""></path><path d="m491.187 385.041h-470.374c-11.495 0-20.813-9.319-20.813-20.813v-333.008c0-11.495 9.318-20.813 20.813-20.813h470.374c11.495 0 20.813 9.318 20.813 20.813v333.008c0 11.494-9.318 20.813-20.813 20.813z" fill="#90d8f9" data-original="#90d8f9" class=""></path><path d="m491.187 10.407h-19.772c11.495 0 20.813 9.318 20.813 20.813v333.008c0 11.495-9.318 20.813-20.813 20.813h19.772c11.495 0 20.813-9.318 20.813-20.813v-333.008c0-11.495-9.318-20.813-20.813-20.813z" fill="#75cef9" data-original="#75cef9"></path><path d="m33.301 310.219v-256.21c0-5.69 4.612-10.302 10.302-10.302h424.795c5.69 0 10.302 4.612 10.302 10.302v256.209c0 5.69-4.612 10.302-10.302 10.302h-424.795c-5.69 0-10.302-4.612-10.302-10.301z" fill="#ecf4ff" data-original="#ecf4ff" class=""></path><path d="m120.715 495.35v-20.813c0-3.448 2.795-6.244 6.244-6.244h258.081c3.448 0 6.244 2.795 6.244 6.244v20.813c0 3.448-2.795 6.244-6.244 6.244h-258.081c-3.448 0-6.244-2.796-6.244-6.244z" fill="#4a80aa" data-original="#4a80aa" class=""></path><path d="m385.041 468.293h-31.22c3.448 0 6.244 2.795 6.244 6.244v20.813c0 3.448-2.795 6.244-6.244 6.244h31.22c3.448 0 6.244-2.795 6.244-6.244v-20.813c0-3.449-2.796-6.244-6.244-6.244z" fill="#407093" data-original="#407093"></path><g><path d="m285.138 135.726h-129.04c-4.268 0-7.726-3.459-7.726-7.726 0-4.268 3.459-7.726 7.726-7.726h129.04c4.268 0 7.726 3.459 7.726 7.726 0 4.268-3.459 7.726-7.726 7.726z" fill="#4a80aa" data-original="#4a80aa" class=""></path></g><g><path d="m322.602 94.101h-106.146c-4.268 0-7.726-3.459-7.726-7.726 0-4.268 3.459-7.726 7.726-7.726h106.146c4.268 0 7.726 3.459 7.726 7.726s-3.459 7.726-7.726 7.726z" fill="#4a80aa" data-original="#4a80aa" class=""></path></g><g><path d="m180.032 94.101h-23.935c-4.268 0-7.726-3.459-7.726-7.726 0-4.268 3.459-7.726 7.726-7.726h23.935c4.268 0 7.726 3.459 7.726 7.726.001 4.267-3.458 7.726-7.726 7.726z" fill="#4a80aa" data-original="#4a80aa" class=""></path></g><g><path d="m285.138 210.653h-129.04c-4.268 0-7.726-3.459-7.726-7.726s3.459-7.726 7.726-7.726h129.04c4.268 0 7.726 3.459 7.726 7.726s-3.459 7.726-7.726 7.726z" fill="#4a80aa" data-original="#4a80aa" class=""></path></g><g><path d="m322.602 169.027h-106.146c-4.268 0-7.726-3.459-7.726-7.726s3.459-7.726 7.726-7.726h106.146c4.268 0 7.726 3.459 7.726 7.726s-3.459 7.726-7.726 7.726z" fill="#4a80aa" data-original="#4a80aa" class=""></path></g><g><path d="m180.032 169.027h-23.935c-4.268 0-7.726-3.459-7.726-7.726s3.459-7.726 7.726-7.726h23.935c4.268 0 7.726 3.459 7.726 7.726s-3.458 7.726-7.726 7.726z" fill="#4a80aa" data-original="#4a80aa" class=""></path></g><g fill="#78d090"><path d="m114.472 78.648h-47.87c-4.268 0-7.726 3.459-7.726 7.726v41.626c0 4.268 3.459 7.726 7.726 7.726h47.87c4.268 0 7.726-3.459 7.726-7.726v-41.626c0-4.267-3.459-7.726-7.726-7.726z" fill="#78d090" data-original="#78d090"></path><path d="m114.472 153.574h-47.87c-4.268 0-7.726 3.459-7.726 7.726v41.626c0 4.268 3.459 7.726 7.726 7.726h47.87c4.268 0 7.726-3.459 7.726-7.726v-41.626c0-4.267-3.459-7.726-7.726-7.726z" fill="#78d090" data-original="#78d090"></path><path d="m114.472 228.501h-47.87c-4.268 0-7.726 3.459-7.726 7.726v41.627c0 4.268 3.459 7.726 7.726 7.726h47.87c4.268 0 7.726-3.459 7.726-7.726v-41.627c0-4.267-3.459-7.726-7.726-7.726z" fill="#78d090" data-original="#78d090"></path></g><g><path d="m285.138 285.58h-129.04c-4.268 0-7.726-3.459-7.726-7.726s3.459-7.726 7.726-7.726h129.04c4.268 0 7.726 3.459 7.726 7.726s-3.459 7.726-7.726 7.726z" fill="#4a80aa" data-original="#4a80aa" class=""></path></g><g><path d="m322.602 243.954h-106.146c-4.268 0-7.726-3.459-7.726-7.726s3.459-7.726 7.726-7.726h106.146c4.268 0 7.726 3.459 7.726 7.726s-3.459 7.726-7.726 7.726z" fill="#4a80aa" data-original="#4a80aa" class=""></path></g><g><path d="m180.032 243.954h-23.935c-4.268 0-7.726-3.459-7.726-7.726s3.459-7.726 7.726-7.726h23.935c4.268 0 7.726 3.459 7.726 7.726s-3.458 7.726-7.726 7.726z" fill="#4a80aa" data-original="#4a80aa" class=""></path></g><path d="m447.619 207.806-89.496-26.848c-2.724-.818-5.673-.072-7.684 1.937-2.009 2.01-2.754 4.962-1.937 7.684l26.849 89.496c.944 3.147 3.775 5.352 7.056 5.498.116.006.231.008.346.008 3.146 0 5.995-1.914 7.172-4.857l16.668-41.674 41.674-16.669c3.05-1.22 4.996-4.236 4.849-7.518-.145-3.283-2.35-6.114-5.497-7.057z" fill="#e490b7" data-original="#e490b7"></path></g></g></svg>