<svg xmlns="http://www.w3.org/2000/svg" version="1.1" xmlns:xlink="http://www.w3.org/1999/xlink" xmlns:svgjs="http://svgjs.com/svgjs" width="512" height="512" x="0" y="0" viewBox="0 0 64 64" style="enable-background:new 0 0 512 512" xml:space="preserve" class=""><g transform="matrix(1.1300000000000001,0,0,1.1300000000000001,-4.160000000000004,-4.290064964294437)"><path xmlns="http://www.w3.org/2000/svg" d="m8 13h48v42h-48z" fill="#f7a210" data-original="#f7a210" class=""></path><path xmlns="http://www.w3.org/2000/svg" d="m60 13h-56l6-9h44z" fill="#f3fcff" data-original="#f3fcff"></path><path xmlns="http://www.w3.org/2000/svg" d="m10.667 6-4.667 7h54l-4.667-7z" fill="#e3f9ff" data-original="#e3f9ff" class=""></path><path xmlns="http://www.w3.org/2000/svg" d="m36 13h8a0 0 0 0 1 0 0v3a4 4 0 0 1 -4 4 4 4 0 0 1 -4-4v-3a0 0 0 0 1 0 0z" fill="#44c8ef" data-original="#44c8ef" class=""></path><path xmlns="http://www.w3.org/2000/svg" d="m28 13h8a0 0 0 0 1 0 0v3a4 4 0 0 1 -4 4 4 4 0 0 1 -4-4v-3a0 0 0 0 1 0 0z" fill="#c5f4ff" data-original="#c5f4ff" class=""></path><path xmlns="http://www.w3.org/2000/svg" d="m20 13h8a0 0 0 0 1 0 0v3a4 4 0 0 1 -4 4 4 4 0 0 1 -4-4v-3a0 0 0 0 1 0 0z" fill="#44c8ef" data-original="#44c8ef" class=""></path><path xmlns="http://www.w3.org/2000/svg" d="m12 13h8a0 0 0 0 1 0 0v3a4 4 0 0 1 -4 4 4 4 0 0 1 -4-4v-3a0 0 0 0 1 0 0z" fill="#c5f4ff" data-original="#c5f4ff" class=""></path><path xmlns="http://www.w3.org/2000/svg" d="m44 13h8a0 0 0 0 1 0 0v3a4 4 0 0 1 -4 4 4 4 0 0 1 -4-4v-3a0 0 0 0 1 0 0z" fill="#c5f4ff" data-original="#c5f4ff" class=""></path><path xmlns="http://www.w3.org/2000/svg" d="m52 13h8a0 0 0 0 1 0 0v3a4 4 0 0 1 -4 4 4 4 0 0 1 -4-4v-3a0 0 0 0 1 0 0z" fill="#44c8ef" data-original="#44c8ef" class=""></path><path xmlns="http://www.w3.org/2000/svg" d="m4 13h8a0 0 0 0 1 0 0v3a4 4 0 0 1 -4 4 4 4 0 0 1 -4-4v-3a0 0 0 0 1 0 0z" fill="#62dbf5" data-original="#62dbf5"></path><path xmlns="http://www.w3.org/2000/svg" d="m9 19.859a3.992 3.992 0 0 0 3-3.859v-3h-6v3a3.992 3.992 0 0 0 3 3.859z" fill="#44c8ef" data-original="#44c8ef" class=""></path><path xmlns="http://www.w3.org/2000/svg" d="m16 35.083v15.834a2 2 0 0 0 1 1.732l14 8.083a2 2 0 0 0 2 0l14-8.083a2 2 0 0 0 1-1.732v-15.834a2 2 0 0 0 -1-1.732l-14-8.083a2 2 0 0 0 -2 0l-14 8.083a2 2 0 0 0 -1 1.732z" fill="#fff050" data-original="#fff050" class=""></path><g xmlns="http://www.w3.org/2000/svg" fill="#fac01e"><path d="m32 31.655 3.5 2.021a1 1 0 0 0 1.366-.366 1 1 0 0 0 -.366-1.366l-4-2.309a1 1 0 0 0 -1 0l-1 .577a1 1 0 0 0 -.5.866v23.922a1 1 0 0 0 1 1 1 1 0 0 0 1-1v-10.5h3.5a1 1 0 0 0 1-1 1 1 0 0 0 -1-1h-3.5z" fill="#fac01e" data-original="#fac01e" class=""></path><path d="m44.5 36.562-5-2.887a1 1 0 0 0 -1.366.367 1 1 0 0 0 .366 1.366l1.5.866v14.726a1 1 0 0 0 1 1 1 1 0 0 0 1-1v-13.572l1.5.866a1 1 0 0 0 1.366-.366 1 1 0 0 0 -.366-1.366z" fill="#fac01e" data-original="#fac01e" class=""></path><path d="m25.572 52.871-4.072-10.179v7.808a1 1 0 0 1 -1 1 1 1 0 0 1 -1-1v-13a1 1 0 0 1 1.928-.371l4.072 10.179v-12.808a1 1 0 0 1 1-1 1 1 0 0 1 1 1v18a1 1 0 0 1 -1.928.371z" fill="#fac01e" data-original="#fac01e" class=""></path></g><path xmlns="http://www.w3.org/2000/svg" d="m47.5 32.485-14-8.085a3.006 3.006 0 0 0 -3 0l-14 8.083a3.008 3.008 0 0 0 -1.5 2.6v15.834a3.008 3.008 0 0 0 1.5 2.6l14 8.083a3.006 3.006 0 0 0 3 0l14-8.083a3.008 3.008 0 0 0 1.5-2.6v-15.834a3.008 3.008 0 0 0 -1.5-2.598zm-.5 18.432a1 1 0 0 1 -.5.866l-14 8.083a1 1 0 0 1 -1 0l-14-8.083a1 1 0 0 1 -.5-.866v-15.834a1 1 0 0 1 .5-.866l14-8.083a1 1 0 0 1 1 0l14 8.083a1 1 0 0 1 .5.866z" fill="#ffd42d" data-original="#ffd42d" class=""></path></g></svg>