<svg xmlns="http://www.w3.org/2000/svg" version="1.1" xmlns:xlink="http://www.w3.org/1999/xlink" xmlns:svgjs="http://svgjs.com/svgjs" width="512" height="512" x="0" y="0" viewBox="0 0 512 512" style="enable-background:new 0 0 512 512" xml:space="preserve" class=""><g><g xmlns="http://www.w3.org/2000/svg"><circle cx="245" cy="256" fill="#fff0ad" r="245" data-original="#fff0ad" class=""></circle><path d="m490 256c0-26.163-4.117-51.361-11.711-75h-171.774c-16.74-13.746-38.163-22-61.515-22-53.572 0-97 43.428-97 97s43.428 97 97 97c23.352 0 44.774-8.254 61.515-22h171.774c7.594-23.639 11.711-48.837 11.711-75z" fill="#ffe177" data-original="#ffe177"></path><path d="m497 202h-202.422c14.601 13.416 23.771 32.655 23.771 54s-9.17 40.584-23.771 54h202.422c8.284 0 15-6.716 15-15v-78c0-8.284-6.716-15-15-15z" fill="#fd6930" data-original="#fd6930"></path><path d="m346 295v-78c0-8.284 6.716-15 15-15h-66.422c14.601 13.416 23.771 32.655 23.771 54s-9.17 40.584-23.771 54h66.422c-8.284 0-15-6.716-15-15z" fill="#fd5426" data-original="#fd5426"></path><g fill="#d73d24"><path d="m340 256c0-5.409 3.442-10.002 8.25-11.743-1.329-.481-2.755-.757-4.25-.757-6.904 0-12.5 5.596-12.5 12.5s5.596 12.5 12.5 12.5c1.495 0 2.921-.276 4.25-.757-4.808-1.741-8.25-6.334-8.25-11.743z" fill="#d73d24" data-original="#d73d24"></path><path d="m379.167 256c0-5.409 3.442-10.002 8.25-11.743-1.329-.481-2.755-.757-4.25-.757-6.904 0-12.5 5.596-12.5 12.5s5.596 12.5 12.5 12.5c1.495 0 2.921-.276 4.25-.757-4.808-1.741-8.25-6.334-8.25-11.743z" fill="#d73d24" data-original="#d73d24"></path><path d="m418.333 256c0-5.409 3.442-10.002 8.25-11.743-1.328-.481-2.755-.757-4.25-.757-6.904 0-12.5 5.596-12.5 12.5s5.596 12.5 12.5 12.5c1.495 0 2.922-.276 4.25-.757-4.808-1.741-8.25-6.334-8.25-11.743z" fill="#d73d24" data-original="#d73d24"></path><path d="m457.5 256c0-5.409 3.442-10.002 8.25-11.743-1.329-.481-2.755-.757-4.25-.757-6.904 0-12.5 5.596-12.5 12.5s5.596 12.5 12.5 12.5c1.495 0 2.921-.276 4.25-.757-4.808-1.741-8.25-6.334-8.25-11.743z" fill="#d73d24" data-original="#d73d24"></path></g><path d="m385.377 160.623v-78.686c0-7.127-8.617-10.697-13.657-5.657l-15.744 15.744c-76.964-52.128-182.76-44.177-250.904 23.892h42.843c4.418 0 8 3.582 8 8v40.185c40.689-39.459 101.304-46.493 149.118-21.134l-11.999 11.999c-5.04 5.04-1.47 13.657 5.657 13.657h78.686c4.418 0 8-3.582 8-8z" fill="#3692bc" data-original="#3692bc"></path><g><path d="m349.415 113.145c3.922 2.435 9.015 1.802 12.279-1.462l10.026-10.026c5.04-5.04 13.657-1.471 13.657 5.657v-25.377c0-7.127-8.617-10.697-13.657-5.657l-15.744 15.744c-76.964-52.128-182.76-44.177-250.904 23.892h31.149c64.309-42.301 148.032-43.219 213.194-2.771z" fill="#0681af" data-original="#0681af"></path></g><path d="m148.916 114.916h-78.687c-7.127 0-10.697 8.617-5.657 13.657l16.452 16.451c-52.149 76.993-44.172 182.842 23.969 250.983.463.463.936.91 1.403 1.368v-45.771c0-4.418 3.582-8 8-8h37.288c-38.21-40.668-44.77-100.4-19.717-147.637l11.292 11.292c5.04 5.04 13.657 1.47 13.657-5.657v-78.686c0-4.419-3.582-8-8-8z" fill="#03bed7" data-original="#03bed7"></path><g><path d="m101.856 151.579c2.434-3.92 1.797-9.011-1.466-12.274l-10.733-10.733c-5.04-5.04-1.47-13.657 5.657-13.657h-25.085c-7.127 0-10.697 8.617-5.657 13.657l16.451 16.451c-52.149 76.993-44.172 182.842 23.969 250.983.463.463.936.91 1.403 1.368v-29.958c-44.035-64.645-45.547-149.778-4.539-215.837z" fill="#07b2cd" data-original="#07b2cd" class=""></path></g><g><circle cx="245" cy="256" fill="#00f2a6" r="74.349" data-original="#00f2a6"></circle><path d="m213 256c0-33.703 22.432-62.152 53.175-71.272-6.713-1.992-13.815-3.077-21.175-3.077-41.062 0-74.349 33.287-74.349 74.349s33.287 74.349 74.349 74.349c7.359 0 14.462-1.086 21.175-3.077-30.743-9.12-53.175-37.569-53.175-71.272z" fill="#05e39c" data-original="#05e39c"></path><g fill="#00c285"><path d="m240.277 266.417 39.069-39.07c.381-.381.794-.71 1.229-.992-2.907-1.885-6.83-1.556-9.379.992l-34.994 34.995z" fill="#00c285" data-original="#00c285"></path><path d="m234.974 282.327-28.881-28.88c-2.929-2.929-2.929-7.678 0-10.606.381-.381.794-.71 1.228-.992-2.907-1.885-6.83-1.556-9.379.992-2.929 2.929-2.929 7.678 0 10.606l28.881 28.88c1.465 1.464 3.385 2.197 5.304 2.197 1.42 0 2.839-.404 4.075-1.205-.434-.282-.847-.611-1.228-.992z" fill="#00c285" data-original="#00c285"></path></g><g><path d="m240.277 284.524c-1.919 0-3.839-.732-5.304-2.197l-28.881-28.88c-2.929-2.929-2.929-7.678 0-10.606 2.93-2.929 7.678-2.929 10.607 0l23.577 23.577 39.069-39.07c2.93-2.929 7.678-2.929 10.607 0s2.929 7.678 0 10.606l-44.373 44.374c-1.463 1.464-3.383 2.196-5.302 2.196z" fill="#ffffff" data-original="#ffffff"></path></g></g><path d="m335.51 346.51c-40.688 40.688-102.169 48.179-150.543 22.523l12.772-12.772c5.04-5.04 1.47-13.657-5.657-13.657h-78.686c-4.418 0-8 3.582-8 8v78.686c0 7.127 8.617 10.697 13.657 5.657l14.971-14.971c76.993 52.148 182.842 44.172 250.983-23.969l19.092-19.092c3.124-3.124 3.124-8.19 0-11.314l-38.184-38.184c-3.124-3.124-8.19-3.124-11.314 0z" fill="#a79ba7" data-original="#a79ba7"></path><g><path d="m397.219 358.721-12.211 12.211c-66.23 66.23-168.081 75.623-244.437 28.215-3.917-2.432-9.005-1.787-12.265 1.473l-9.252 9.252c-5.04 5.04-13.657 1.47-13.657-5.657v25.075c0 7.127 8.617 10.697 13.657 5.657l14.971-14.971c76.993 52.148 182.842 44.172 250.983-23.969l19.092-19.092c3.124-3.124 3.124-8.19 0-11.314z" fill="#918291" data-original="#918291"></path></g><g fill="#fff"><circle cx="352.5" cy="256" r="12.5" fill="#ffffff" data-original="#ffffff"></circle><circle cx="391.667" cy="256" r="12.5" fill="#ffffff" data-original="#ffffff"></circle><circle cx="430.833" cy="256" r="12.5" fill="#ffffff" data-original="#ffffff"></circle><circle cx="470" cy="256" r="12.5" fill="#ffffff" data-original="#ffffff"></circle></g></g></g></svg>