<svg xmlns="http://www.w3.org/2000/svg" version="1.1" xmlns:xlink="http://www.w3.org/1999/xlink" xmlns:svgjs="http://svgjs.com/svgjs" width="512" height="512" x="0" y="0" viewBox="0 0 512 512" style="enable-background:new 0 0 512 512" xml:space="preserve" class=""><g>
<path xmlns="http://www.w3.org/2000/svg" style="" d="M439,434.991c-47.098,48.147-113.028,77.796-185.886,76.993C113.124,510.441-0.242,395.546,0,255.548  C0.245,114.371,114.766,0,256,0c73.843,0,140.377,31.27,187.1,81.285c0.943,1.009,0.868,2.577-0.116,3.545  c-2.459,2.418-3.984,5.782-3.984,9.504V434.991z" fill="#fd4fb6" data-original="#fd4fb6" class=""></path>
<path xmlns="http://www.w3.org/2000/svg" style="" d="M100,151H58c-11.046,0-20-8.954-20-20v-30c0-11.046,8.954-20,20-20h42c11.046,0,20,8.954,20,20v30  C120,142.046,111.046,151,100,151z" fill="#0573cd" data-original="#0573cd" class=""></path>
<path xmlns="http://www.w3.org/2000/svg" style="" d="M79.932,151c-10.512,0-19.034-8.954-19.034-20v-30c0-11.046,8.522-20,19.034-20H224.59h218.233  c13.985,14.924,26.207,31.519,36.326,49.46c5.178,9.18-1.444,20.54-11.983,20.54H79.932z" fill="#528ed7" data-original="#528ed7" class=""></path>
<path xmlns="http://www.w3.org/2000/svg" style="" d="M78,107c0,5.523-4.477,10-10,10s-10-4.477-10-10s4.477-10,10-10S78,101.477,78,107z M98,97  c-5.523,0-10,4.477-10,10s4.477,10,10,10s10-4.477,10-10S103.523,97,98,97z M128,97c-5.523,0-10,4.477-10,10s4.477,10,10,10  s10-4.477,10-10S133.523,97,128,97z" fill="#015aad" data-original="#015aad" class=""></path>
<path xmlns="http://www.w3.org/2000/svg" style="" d="M479.439,131C500.166,167.971,512,210.6,512,256c0,67.685-26.28,129.223-69.177,175H270H69.177  C57.484,418.522,47.027,404.875,38,390.248V131H479.439z" fill="#fff5f5" data-original="#fff5f5" class=""></path>
<path xmlns="http://www.w3.org/2000/svg" style="" d="M460,265v10c0,2.761-2.239,5-5,5H195c-2.761,0-5-2.239-5-5v-10c0-2.761,2.239-5,5-5h260  C457.761,260,460,262.239,460,265z M455,310H195c-2.761,0-5,2.239-5,5v10c0,2.761,2.239,5,5,5h260c2.761,0,5-2.239,5-5v-10  C460,312.239,457.761,310,455,310z M455,210H195c-2.761,0-5,2.239-5,5v10c0,2.761,2.239,5,5,5h260c2.761,0,5-2.239,5-5v-10  C460,212.239,457.761,210,455,210z M455,160H195c-2.761,0-5,2.239-5,5v10c0,2.761,2.239,5,5,5h260c2.761,0,5-2.239,5-5v-10  C460,162.239,457.761,160,455,160z M455,360H195c-2.761,0-5,2.239-5,5v10c0,2.761,2.239,5,5,5h260c2.761,0,5-2.239,5-5v-10  C460,362.239,457.761,360,455,360z" fill="#ffe899" data-original="#ffe899"></path>
<path xmlns="http://www.w3.org/2000/svg" style="" d="M222.5,365v10c0,2.761-2.239,5-5,5H195c-2.761,0-5-2.239-5-5v-10c0-2.761,2.239-5,5-5h22.5  C220.261,360,222.5,362.239,222.5,365z M195,280h40c2.761,0,5-2.239,5-5v-10c0-2.761-2.239-5-5-5h-40c-2.761,0-5,2.239-5,5v10  C190,277.761,192.239,280,195,280z M345,160H195c-2.761,0-5,2.239-5,5v10c0,2.761,2.239,5,5,5h150c2.761,0,5-2.239,5-5v-10  C350,162.239,347.761,160,345,160z M275,310h-80c-2.761,0-5,2.239-5,5v10c0,2.761,2.239,5,5,5h80c2.761,0,5-2.239,5-5v-10  C280,312.239,277.761,310,275,310z M305,210H195c-2.761,0-5,2.239-5,5v10c0,2.761,2.239,5,5,5h110c2.761,0,5-2.239,5-5v-10  C310,212.239,307.761,210,305,210z" fill="#fbc56d" data-original="#fbc56d" class=""></path>
<path xmlns="http://www.w3.org/2000/svg" style="" d="M168,431H48c-5.523,0-10-4.477-10-10V211v-80h130V431z" fill="#b0dde9" data-original="#b0dde9" class=""></path>
<path xmlns="http://www.w3.org/2000/svg" style="" d="M70.978,431H48c-5.523,0-10-4.477-10-10V211v-80h22.978v80v210C60.978,426.523,65.455,431,70.978,431  z" fill="#8ed0e1" data-original="#8ed0e1" class=""></path>
<path xmlns="http://www.w3.org/2000/svg" style="" d="M143,181H63c-2.761,0-5-2.239-5-5v-10c0-2.761,2.239-5,5-5h80c2.761,0,5,2.239,5,5v10  C148,178.761,145.761,181,143,181z" fill="#17b0ce" data-original="#17b0ce" class=""></path>
<path xmlns="http://www.w3.org/2000/svg" style="" d="M350,155v30c0,2.761-2.239,5-5,5h-10c-2.761,0-5-2.239-5-5v-30c0-2.761,2.239-5,5-5h10  C347.761,150,350,152.239,350,155z M305,200h-10c-2.761,0-5,2.239-5,5v30c0,2.761,2.239,5,5,5h10c2.761,0,5-2.239,5-5v-30  C310,202.239,307.761,200,305,200z M235,250h-10c-2.761,0-5,2.239-5,5v30c0,2.761,2.239,5,5,5h10c2.761,0,5-2.239,5-5v-30  C240,252.239,237.761,250,235,250z M215,350h-10c-2.761,0-5,2.239-5,5v30c0,2.761,2.239,5,5,5h10c2.761,0,5-2.239,5-5v-30  C220,352.239,217.761,350,215,350z M275,300h-10c-2.761,0-5,2.239-5,5v30c0,2.761,2.239,5,5,5h10c2.761,0,5-2.239,5-5v-30  C280,302.239,277.761,300,275,300z" fill="#0573cd" data-original="#0573cd" class=""></path>
<path xmlns="http://www.w3.org/2000/svg" style="" d="M360,155v30c0,2.761-2.239,5-5,5h-10c-2.761,0-5-2.239-5-5v-30c0-2.761,2.239-5,5-5h10  C357.761,150,360,152.239,360,155z M315,200h-10c-2.761,0-5,2.239-5,5v30c0,2.761,2.239,5,5,5h10c2.761,0,5-2.239,5-5v-30  C320,202.239,317.761,200,315,200z M245,250h-10c-2.761,0-5,2.239-5,5v30c0,2.761,2.239,5,5,5h10c2.761,0,5-2.239,5-5v-30  C250,252.239,247.761,250,245,250z M225,350h-10c-2.761,0-5,2.239-5,5v30c0,2.761,2.239,5,5,5h10c2.761,0,5-2.239,5-5v-30  C230,352.239,227.761,350,225,350z M285,300h-10c-2.761,0-5,2.239-5,5v30c0,2.761,2.239,5,5,5h10c2.761,0,5-2.239,5-5v-30  C290,302.239,287.761,300,285,300z" fill="#528ed7" data-original="#528ed7" class=""></path>
<path xmlns="http://www.w3.org/2000/svg" style="" d="M148,286v10c0,2.761-2.239,5-5,5H63c-2.761,0-5-2.239-5-5v-10c0-2.761,2.239-5,5-5h80  C145.761,281,148,283.239,148,286z M143,361H63c-2.761,0-5,2.239-5,5v10c0,2.761,2.239,5,5,5h80c2.761,0,5-2.239,5-5v-10  C148,363.239,145.761,361,143,361z M63,261h70c2.761,0,5-2.239,5-5v-10c0-2.761-2.239-5-5-5H63c-2.761,0-5,2.239-5,5v10  C58,258.761,60.239,261,63,261z M63,221h60c2.761,0,5-2.239,5-5v-10c0-2.761-2.239-5-5-5H63c-2.761,0-5,2.239-5,5v10  C58,218.761,60.239,221,63,221z M63,341h60c2.761,0,5-2.239,5-5v-10c0-2.761-2.239-5-5-5H63c-2.761,0-5,2.239-5,5v10  C58,338.761,60.239,341,63,341z" fill="#56bcd6" data-original="#56bcd6"></path>
<path xmlns="http://www.w3.org/2000/svg" style="" d="M444.442,238.448v87.586c0,6.785-4.508,12.511-10.69,14.364V420h-85.517v-72.935  c0-4.11-3.332-7.442-7.442-7.442v-0.015c-5.982-0.09-11.583-3.765-13.818-9.704l-19.56-51.957c-2.919-7.753,1-16.405,8.754-19.324  l1.936-0.729c7.753-2.918,16.405,1.001,19.323,8.754l6.936,18.425c0.784,2.083,3.872,1.521,3.872-0.705V185c0-8.284,6.716-15,15-15  h2.069c8.284,0,15,6.716,15,15v38.448h49.138C437.726,223.448,444.442,230.164,444.442,238.448z" fill="#d78878" data-original="#d78878" class=""></path>
<path xmlns="http://www.w3.org/2000/svg" style="" d="M347.772,286.345h-1.247l0.001-0.002c0.897-0.134,1.709-0.834,1.709-1.975V185  c0-8.284,6.716-15,15-15h0.671c-0.14,0.822-0.219,1.664-0.219,2.526v97.904c0,8.688-6.962,15.75-15.612,15.912  C347.974,286.344,347.873,286.345,347.772,286.345z M363.793,410v-72.935c0-4.11-3.332-7.442-7.442-7.442v-0.015  c-5.982-0.09-11.583-3.765-13.818-9.704l-19.56-51.957c-1.395-3.704-1.214-7.607,0.186-10.998c-1.683,0.026-3.389,0.319-5.054,0.946  l-1.936,0.729c-7.753,2.919-11.673,11.57-8.754,19.324l19.56,51.957c2.236,5.938,7.836,9.614,13.818,9.704v0.015  c4.11,0,7.442,3.332,7.442,7.442V420h85.517v-10H363.793z" fill="#ca6e59" data-original="#ca6e59" class=""></path>
<path xmlns="http://www.w3.org/2000/svg" style="" d="M330.064,501.104c-0.04-0.363-0.064-0.731-0.064-1.104V380c0-5.523,4.477-10,10-10h100  c5.523,0,10,4.477,10,10v43.029C418.644,459.415,377.224,486.873,330.064,501.104z" fill="#028f5d" data-original="#028f5d" class=""></path>
<path xmlns="http://www.w3.org/2000/svg" style="" d="M350,494.189V380c0-5.523,4.477-10,10-10h80c5.523,0,10,4.477,10,10v43.029  C423.142,454.195,388.907,478.822,350,494.189z" fill="#22b27f" data-original="#22b27f" class=""></path>
<path xmlns="http://www.w3.org/2000/svg" style="" d="M360,400c0,5.523-4.477,10-10,10s-10-4.477-10-10s4.477-10,10-10S360,394.477,360,400z" fill="#026841" data-original="#026841"></path>
<g xmlns="http://www.w3.org/2000/svg">
</g>
<g xmlns="http://www.w3.org/2000/svg">
</g>
<g xmlns="http://www.w3.org/2000/svg">
</g>
<g xmlns="http://www.w3.org/2000/svg">
</g>
<g xmlns="http://www.w3.org/2000/svg">
</g>
<g xmlns="http://www.w3.org/2000/svg">
</g>
<g xmlns="http://www.w3.org/2000/svg">
</g>
<g xmlns="http://www.w3.org/2000/svg">
</g>
<g xmlns="http://www.w3.org/2000/svg">
</g>
<g xmlns="http://www.w3.org/2000/svg">
</g>
<g xmlns="http://www.w3.org/2000/svg">
</g>
<g xmlns="http://www.w3.org/2000/svg">
</g>
<g xmlns="http://www.w3.org/2000/svg">
</g>
<g xmlns="http://www.w3.org/2000/svg">
</g>
<g xmlns="http://www.w3.org/2000/svg">
</g>
</g></svg>