<svg xmlns="http://www.w3.org/2000/svg" version="1.1" xmlns:xlink="http://www.w3.org/1999/xlink" xmlns:svgjs="http://svgjs.com/svgjs" width="512" height="512" x="0" y="0" viewBox="0 0 501 501" style="enable-background:new 0 0 512 512" xml:space="preserve" class=""><g><g xmlns="http://www.w3.org/2000/svg"><path d="m495.5 256c0 135.31-109.69 245-245 245s-245-109.69-245-245 109.69-245 245-245 245 109.69 245 245z" fill="#0ed1b2" data-original="#0ed1b2"></path><path d="m213 302.848c0 4.142-3.357 7.5-7.5 7.5h-34.394l-45.606 45.607c-1.465 1.464-3.385 2.197-5.304 2.197-.034 0-.067-.001-.101-.001-.032 0-.063.001-.095.001h-36.507c-2.594 4.483-7.441 7.5-12.993 7.5-8.284 0-15-6.716-15-15 0-8.285 6.716-15 15-15 5.552 0 10.399 3.017 12.993 7.5h33.596l45.607-45.607c1.407-1.407 3.314-2.197 5.304-2.197h37.5c4.143 0 7.5 3.358 7.5 7.5zm-7.5-101.196h-34.394l-45.606-45.607c-1.465-1.464-3.385-2.197-5.304-2.197-.034 0-.067.001-.101.001-.032 0-.063-.001-.095-.001h-36.507c-2.594-4.483-7.441-7.5-12.993-7.5-8.284 0-15 6.716-15 15s6.716 15 15 15c5.552 0 10.399-3.017 12.993-7.5h33.596l45.607 45.607c1.407 1.407 3.314 2.197 5.304 2.197h37.5c4.143 0 7.5-3.358 7.5-7.5s-3.357-7.5-7.5-7.5zm-142.007 61.848h142.007v-15h-142.007c-2.594-4.483-7.441-7.5-12.993-7.5-8.284 0-15 6.716-15 15s6.716 15 15 15c5.552 0 10.399-3.017 12.993-7.5zm232.007-46.848h37.5c1.989 0 3.896-.79 5.304-2.197l45.607-45.607h33.596c2.594 4.483 7.441 7.5 12.993 7.5 8.284 0 15-6.716 15-15s-6.716-15-15-15c-5.552 0-10.399 3.017-12.993 7.5h-36.507c-.032 0-.063.001-.095.001-.034 0-.068-.001-.101-.001-1.919 0-3.839.732-5.304 2.197l-45.606 45.607h-34.394c-4.143 0-7.5 3.358-7.5 7.5s3.357 7.5 7.5 7.5zm135 119c-5.552 0-10.399 3.017-12.993 7.5h-33.597l-45.607-45.607c-1.407-1.407-3.314-2.197-5.304-2.197h-37.5c-4.143 0-7.5 3.358-7.5 7.5s3.357 7.5 7.5 7.5h34.394l45.606 45.607c1.465 1.464 3.385 2.197 5.304 2.197.034 0 .067-.001.101-.001.032 0 .063.001.095.001h36.507c2.594 4.483 7.441 7.5 12.993 7.5 8.284 0 15-6.716 15-15 .001-8.285-6.715-15-14.999-15zm20-94.652c-5.552 0-10.399 3.017-12.993 7.5h-142.007v15h142.007c2.594 4.483 7.441 7.5 12.993 7.5 8.284 0 15-6.716 15-15s-6.716-15-15-15z" fill="#008a80" data-original="#008a80"></path><path d="m365.5 391h-230c-11.046 0-20-8.954-20-20v-230c0-11.046 8.954-20 20-20h230c11.046 0 20 8.954 20 20v230c0 11.046-8.954 20-20 20z" fill="#172a7d" data-original="#172a7d"></path><path d="m365.5 391h-201c-11.046 0-20-8.954-20-20v-230c0-11.046 8.954-20 20-20h201c11.046 0 20 8.954 20 20v230c0 11.046-8.954 20-20 20z" fill="#2740af" data-original="#2740af"></path><path d="m336.5 185v142c0 8.284-6.716 15-15 15h-142c-8.284 0-15-6.716-15-15v-142c0-8.284 6.716-15 15-15h142c8.284 0 15 6.716 15 15z" fill="#f57e00" data-original="#f57e00"></path><path d="m271.5 292h-42c-8.284 0-15-6.716-15-15v-42c0-8.284 6.716-15 15-15h42c8.284 0 15 6.716 15 15v42c0 8.284-6.716 15-15 15zm-81-20v-32c0-5.523-4.477-10-10-10h-10c-5.523 0-10 4.477-10 10v32c0 5.523 4.477 10 10 10h10c5.523 0 10-4.477 10-10zm150 0v-32c0-5.523-4.477-10-10-10h-10c-5.523 0-10 4.477-10 10v32c0 5.523 4.477 10 10 10h10c5.523 0 10-4.477 10-10zm-74-85v-12c0-5.523-4.477-10-10-10h-12c-5.523 0-10 4.477-10 10v12c0 5.523 4.477 10 10 10h12c5.523 0 10-4.477 10-10zm-49 0v-12c0-5.523-4.477-10-10-10h-12c-5.523 0-10 4.477-10 10v12c0 5.523 4.477 10 10 10h12c5.523 0 10-4.477 10-10zm98 0v-12c0-5.523-4.477-10-10-10h-12c-5.523 0-10 4.477-10 10v12c0 5.523 4.477 10 10 10h12c5.523 0 10-4.477 10-10zm-49 150v-12c0-5.523-4.477-10-10-10h-12c-5.523 0-10 4.477-10 10v12c0 5.523 4.477 10 10 10h12c5.523 0 10-4.477 10-10zm-49 0v-12c0-5.523-4.477-10-10-10h-12c-5.523 0-10 4.477-10 10v12c0 5.523 4.477 10 10 10h12c5.523 0 10-4.477 10-10zm98 0v-12c0-5.523-4.477-10-10-10h-12c-5.523 0-10 4.477-10 10v12c0 5.523 4.477 10 10 10h12c5.523 0 10-4.477 10-10z" fill="#f1ca50" data-original="#f1ca50"></path><path d="m271.5 220h-22c-8.284 0-15 6.716-15 15v42c0 8.284 6.716 15 15 15h22c8.284 0 15-6.716 15-15v-42c0-8.284-6.716-15-15-15zm-21 48.25c-6.766 0-12.25-5.484-12.25-12.25s5.484-12.25 12.25-12.25 12.25 5.484 12.25 12.25-5.484 12.25-12.25 12.25z" fill="#f7e6b0" data-original="#f7e6b0"></path><path d="m352.652 464.007v-36.507c0-.032-.001-.063-.001-.095 0-.034.001-.068.001-.101 0-1.919-.732-3.839-2.197-5.304l-45.607-45.606v-26.894h16.652c12.406 0 22.5-10.094 22.5-22.5v-142c0-12.406-10.094-22.5-22.5-22.5h-16.652v-26.894l45.607-45.606c1.464-1.465 2.197-3.385 2.197-5.304 0-.034-.001-.067-.001-.101 0-.032.001-.063.001-.095v-36.507c4.483-2.594 7.5-7.441 7.5-12.993 0-8.284-6.716-15-15-15s-15 6.716-15 15c0 5.552 3.016 10.399 7.5 12.993v33.597l-45.607 45.606c-1.407 1.407-2.197 3.314-2.197 5.304v30h-31.848v-134.507c4.483-2.594 7.5-7.441 7.5-12.993 0-8.284-6.716-15-15-15s-15 6.716-15 15c0 5.552 3.017 10.399 7.5 12.993v134.507h-31.848v-30c0-1.989-.79-3.896-2.197-5.304l-45.607-45.606v-33.597c4.484-2.594 7.5-7.441 7.5-12.993 0-8.284-6.716-15-15-15s-15 6.716-15 15c0 5.552 3.016 10.399 7.5 12.993v36.507c0 .032.001.063.001.095 0 .034-.001.067-.001.101 0 1.919.732 3.839 2.197 5.304l45.607 45.606v26.894h-16.652c-12.406 0-22.5 10.094-22.5 22.5v142c0 12.406 10.094 22.5 22.5 22.5h16.652v26.894l-45.607 45.606c-1.464 1.465-2.197 3.385-2.197 5.304 0 .033.001.067.001.101 0 .032-.001.063-.001.095v36.507c-3.993 2.31-6.823 6.408-7.394 11.199 8.547 4.279 17.379 8.074 26.46 11.347 2.145-2.594 3.434-5.923 3.434-9.552 0-5.552-3.016-10.399-7.5-12.993v-33.598l45.607-45.606c1.407-1.407 2.197-3.314 2.197-5.304v-30h31.848v134.507c-4.483 2.594-7.5 7.441-7.5 12.993 0 1.231.148 2.428.428 3.573 4.821.283 9.68.427 14.572.427s9.75-.144 14.572-.427c.28-1.145.428-2.342.428-3.573 0-5.552-3.017-10.399-7.5-12.993v-134.507h31.848v30c0 1.989.79 3.896 2.197 5.304l45.607 45.606v33.597c-4.484 2.594-7.5 7.441-7.5 12.993 0 3.629 1.289 6.958 3.434 9.552 9.081-3.273 17.913-7.067 26.46-11.347-.572-4.79-3.401-8.888-7.394-11.198zm-180.652-137.007v-142c0-4.136 3.364-7.5 7.5-7.5h142c4.136 0 7.5 3.364 7.5 7.5v142c0 4.136-3.364 7.5-7.5 7.5h-142c-4.136 0-7.5-3.364-7.5-7.5z" fill="#172a7d" data-original="#172a7d"></path></g></g></svg>