<svg xmlns="http://www.w3.org/2000/svg" version="1.1" xmlns:xlink="http://www.w3.org/1999/xlink" xmlns:svgjs="http://svgjs.com/svgjs" width="512" height="512" x="0" y="0" viewBox="0 0 512 512" style="enable-background:new 0 0 512 512" xml:space="preserve" class=""><g><g xmlns="http://www.w3.org/2000/svg"><g><g><g><g><g><g><g><g><circle cx="256" cy="256" fill="#a3d4ff" r="256" data-original="#a3d4ff" class=""></circle></g></g></g></g></g></g></g></g><path d="m512 256c0-5.542-.176-11.043-.523-16.499l-160.014-160.013-211.697 192.798 95.292 95.292-151.317 26.928 109.827 109.827c19.983 5.008 40.897 7.667 62.432 7.667 141.385 0 256-114.615 256-256z" fill="#65b1fc" data-original="#65b1fc"></path><g><g><g><circle cx="345.618" cy="233.36" fill="#27488f" r="47.157" data-original="#27488f"></circle></g><g><path d="m428.259 394.506h-165.282v-65.647c0-19.193 15.559-34.752 34.752-34.752h95.779c19.193 0 34.752 15.559 34.752 34.752v65.647z" fill="#27488f" data-original="#27488f"></path></g></g><g><g><circle cx="166.382" cy="233.36" fill="#4855b7" r="47.157" data-original="#4855b7"></circle></g><g><path d="m249.023 394.506h-165.282v-65.647c0-19.193 15.559-34.752 34.752-34.752h95.779c19.193 0 34.752 15.559 34.752 34.752v65.647z" fill="#4855b7" data-original="#4855b7"></path></g></g></g><g><g><circle cx="256" cy="193.044" fill="#7584f2" r="58.955" data-original="#7584f2"></circle></g><g><path d="m314.955 193.043c0-32.519-26.33-58.886-58.834-58.952v117.903c32.504-.064 58.834-26.431 58.834-58.951z" fill="#606aea" data-original="#606aea"></path></g><g><path d="m359.317 394.506h-206.634v-82.071c0-23.995 19.451-43.446 43.446-43.446h119.741c23.995 0 43.446 19.451 43.446 43.446v82.071z" fill="#7584f2" data-original="#7584f2"></path></g><g><path d="m359.317 312.435c0-23.995-19.452-43.446-43.446-43.446h-59.75v125.517h103.196z" fill="#606aea" data-original="#606aea"></path></g></g><g><g><circle cx="314.955" cy="120.365" fill="#ff475a" r="54.81" data-original="#ff475a"></circle></g><g><path d="m369.764 120.364c0-30.203-24.431-54.695-54.608-54.804v109.609c30.178-.109 54.608-24.602 54.608-54.805z" fill="#f03049" data-original="#f03049"></path></g><g><g><path d="m309.569 156.43v-52.341l-12.004 12.22-8.76-9.192 22.71-22.818h13.41v72.131z" fill="#ffffff" data-original="#ffffff"></path></g></g><g><g><path d="m315.157 84.299h9.768v72.131h-9.768z" fill="#e9edf5" data-original="#e9edf5"></path></g></g></g></g></g></svg>