<svg xmlns="http://www.w3.org/2000/svg" version="1.1" xmlns:xlink="http://www.w3.org/1999/xlink" xmlns:svgjs="http://svgjs.com/svgjs" width="512" height="512" x="0" y="0" viewBox="0 0 512 512" style="enable-background:new 0 0 512 512" xml:space="preserve" class=""><g><g xmlns="http://www.w3.org/2000/svg"><path d="m53.195 404.493h405.609c26.631-39.203 42.197-86.53 42.197-137.495 0-135.311-109.691-245.002-245.002-245.002s-245.001 109.691-245.001 245.002c0 50.965 15.567 98.291 42.197 137.495z" fill="#49b1f7" data-original="#49b1f7"></path><path d="m170.326 57.35c0 18.069-14.648 32.717-32.717 32.717h321.196v-32.717z" fill="#becaf5" data-original="#becaf5"></path><path d="m53.195 57.35v32.717h86.463c18.069 0 32.717-14.648 32.717-32.717z" fill="#3c58a0" data-original="#3c58a0"></path><path d="m148.925 88.018.219.215c-1.564 2.592-5.053 9.433-3.613 16.951.982 5.132 4.056 9.529 9.142 13.087-2.146 5.054-9.612 24.893-2.385 41.326 3.945 8.97 11.612 15.339 22.793 18.936l23.707 37.317c-2.756.431-7.408 1.546-12.092 4.412-6.653 4.071-14.585 12.561-14.585 29.888l.001 188.143h259.032l.004.009c10.182-10.41 19.446-21.723 27.656-33.809v-316.475z" fill="#deeeff" data-original="#deeeff"></path><path d="m53.195 88.018v316.475c8.21 12.086 17.473 23.398 27.655 33.809l.005-.009h92.756c0-47.367 0-162.715 0-188.143 0-32.195 27.735-33.071 27.735-33.071l-25.292-39.812c-41.5-12.9-19.501-59.54-19.501-59.54-18.333-11.773-5.486-29.709-5.486-29.709z" fill="#d3dcfb" data-original="#d3dcfb"></path><path d="m423.074 0h-258.536s-9.609 10.032 0 19.641l1.311 19.088s-8.174 12.364 4.478 20.525h288.479v-23.523c-.001-19.652-16.08-35.731-35.732-35.731z" fill="#2a428c" data-original="#2a428c" class=""></path><path d="m88.926 0c-19.652 0-35.731 16.079-35.731 35.731v23.524h119.18c-12.651-8.162-4.477-20.525-4.477-20.525l-1.311-19.088c-9.609-9.609 0-19.641 0-19.641h-77.661z" fill="#1c2e7a" data-original="#1c2e7a" class=""></path><path d="m108.684 29.627c0 6.361-5.157 11.518-11.518 11.518s-11.518-5.157-11.518-11.518 5.157-11.518 11.518-11.518 11.518 5.157 11.518 11.518z" fill="#ff4155" data-original="#ff4155"></path><path d="m140.53 29.627c0 6.361-5.157 11.518-11.518 11.518s-11.518-5.157-11.518-11.518 5.157-11.518 11.518-11.518 11.518 5.157 11.518 11.518z" fill="#ffdd40" data-original="#ffdd40"></path><path d="m172.375 29.627c0 6.361-5.157 11.518-11.518 11.518s-11.518-5.157-11.518-11.518 5.157-11.518 11.518-11.518 11.518 5.157 11.518 11.518z" fill="#88ce65" data-original="#88ce65" class=""></path><path d="m271.058 29.627c0-4.244 3.44-7.683 7.683-7.683h-68.542c-4.243 0-7.683 3.439-7.683 7.683s3.44 7.683 7.683 7.683h68.542c-4.243.001-7.683-3.439-7.683-7.683z" fill="#3c58a0" data-original="#3c58a0"></path><path d="m334.478 29.627c0-4.244-3.44-7.683-7.683-7.683h-50.102c-4.243 0-7.683 3.439-7.683 7.683s3.44 7.683 7.683 7.683h50.102c4.243.001 7.683-3.439 7.683-7.683z" fill="#6289cc" data-original="#6289cc"></path><g><path d="m419.653 37.311h-10.015c-4.243 0-7.683-3.439-7.683-7.683s3.44-7.683 7.683-7.683h10.015c4.243 0 7.683 3.439 7.683 7.683s-3.44 7.683-7.683 7.683z" fill="#6289cc" data-original="#6289cc"></path></g><g><path d="m384.836 37.311h-10.016c-4.243 0-7.683-3.439-7.683-7.683s3.44-7.683 7.683-7.683h10.016c4.243 0 7.683 3.439 7.683 7.683s-3.44 7.683-7.683 7.683z" fill="#3c58a0" data-original="#3c58a0"></path></g><path d="m406.972 117.727h-253.017c.242.18.466.368.718.544-2.146 5.054-9.612 24.893-2.385 41.326 3.945 8.97 11.612 15.339 22.793 18.936l23.707 37.317c-2.756.431-7.408 1.546-12.092 4.412-6.653 4.071-14.585 12.561-14.585 29.888l.001 208.478c-.018.412-.391 10.239 2.839 21.931 2.298 8.321 5.871 15.414 10.551 21.124 22.328 6.699 45.988 10.317 70.498 10.317 68.635 0 130.665-28.234 175.144-73.707v-296.394c0-13.35-10.822-24.172-24.172-24.172z" fill="#3c58a0" data-original="#3c58a0"></path><path d="m105.028 117.727c-13.35 0-24.173 10.823-24.173 24.173v296.393c29.214 29.866 65.999 52.295 107.253 64.173-15.619-17.181-14.497-43.775-14.497-43.775s0-176.345 0-208.541c0-32.195 27.735-33.071 27.735-33.071l-25.292-39.812c-41.5-12.9-19.501-59.54-19.501-59.54z" fill="#2a428c" data-original="#2a428c" class=""></path><g><path d="m191.095 265.516h-17.484c-4.243 0-7.683-3.439-7.683-7.683s3.44-7.683 7.683-7.683h17.484c4.243 0 7.683 3.439 7.683 7.683s-3.44 7.683-7.683 7.683z" fill="#ffdd40" data-original="#ffdd40"></path></g><g><path d="m309.864 265.516h-89.638c-4.243 0-7.683-3.439-7.683-7.683s3.44-7.683 7.683-7.683h89.638c4.243 0 7.683 3.439 7.683 7.683s-3.44 7.683-7.683 7.683z" fill="#6289cc" data-original="#6289cc"></path></g><g><path d="m309.864 362.103h-17.483c-4.243 0-7.683-3.439-7.683-7.683s3.44-7.683 7.683-7.683h17.483c4.243 0 7.683 3.439 7.683 7.683s-3.44 7.683-7.683 7.683z" fill="#deeeff" data-original="#deeeff"></path></g><g><path d="m263.25 362.103h-89.639c-4.243 0-7.683-3.439-7.683-7.683s3.44-7.683 7.683-7.683h89.639c4.243 0 7.683 3.439 7.683 7.683.001 4.244-3.439 7.683-7.683 7.683z" fill="#ffdd40" data-original="#ffdd40"></path></g><g><path d="m309.864 426.495h-17.483c-4.243 0-7.683-3.44-7.683-7.683 0-4.244 3.44-7.683 7.683-7.683h17.483c4.243 0 7.683 3.44 7.683 7.683 0 4.244-3.44 7.683-7.683 7.683z" fill="#4b6bb2" data-original="#4b6bb2"></path></g><g><path d="m263.25 426.495h-54.654c-4.243 0-7.683-3.44-7.683-7.683 0-4.244 3.44-7.683 7.683-7.683h54.654c4.243 0 7.683 3.44 7.683 7.683.001 4.244-3.439 7.683-7.683 7.683z" fill="#ffdd40" data-original="#ffdd40"></path></g><g><path d="m379.456 265.516h-40.393c-4.243 0-7.683-3.439-7.683-7.683s3.44-7.683 7.683-7.683h40.393c4.243 0 7.683 3.439 7.683 7.683s-3.44 7.683-7.683 7.683z" fill="#deeeff" data-original="#deeeff"></path></g><g><path d="m379.456 329.908h-17.484c-4.243 0-7.683-3.44-7.683-7.683s3.44-7.683 7.683-7.683h17.484c4.243 0 7.683 3.44 7.683 7.683s-3.44 7.683-7.683 7.683z" fill="#49b1f7" data-original="#49b1f7"></path></g><g><path d="m332.842 329.908h-89.639c-4.243 0-7.683-3.44-7.683-7.683s3.44-7.683 7.683-7.683h89.639c4.243 0 7.683 3.44 7.683 7.683s-3.44 7.683-7.683 7.683z" fill="#6289cc" data-original="#6289cc"></path></g><g><path d="m280.153 297.712h-106.542c-4.243 0-7.683-3.44-7.683-7.683s3.44-7.683 7.683-7.683h106.541c4.243 0 7.683 3.439 7.683 7.683s-3.439 7.683-7.682 7.683z" fill="#ffdd40" data-original="#ffdd40"></path></g><g><path d="m379.456 297.712h-69.591c-4.243 0-7.683-3.44-7.683-7.683s3.44-7.683 7.683-7.683h69.591c4.243 0 7.683 3.439 7.683 7.683s-3.44 7.683-7.683 7.683z" fill="#6289cc" data-original="#6289cc"></path></g><g><path d="m208.596 458.69h-34.984c-4.243 0-7.683-3.439-7.683-7.683s3.44-7.683 7.683-7.683h34.984c4.243 0 7.683 3.44 7.683 7.683s-3.44 7.683-7.683 7.683z" fill="#49b1f7" data-original="#49b1f7"></path></g><g><path d="m208.593 394.299h-34.982c-4.243 0-7.683-3.44-7.683-7.683 0-4.244 3.44-7.683 7.683-7.683h34.982c4.243 0 7.683 3.439 7.683 7.683.001 4.244-3.439 7.683-7.683 7.683z" fill="#49b1f7" data-original="#49b1f7"></path></g><g><path d="m332.838 394.299h-31.708c-4.243 0-7.683-3.44-7.683-7.683 0-4.244 3.44-7.683 7.683-7.683h31.708c4.243 0 7.683 3.439 7.683 7.683s-3.44 7.683-7.683 7.683z" fill="#6289cc" data-original="#6289cc"></path></g><g><path d="m379.456 394.299h-17.484c-4.243 0-7.683-3.44-7.683-7.683 0-4.244 3.44-7.683 7.683-7.683h17.484c4.243 0 7.683 3.439 7.683 7.683s-3.44 7.683-7.683 7.683z" fill="#6289cc" data-original="#6289cc"></path></g><g><path d="m140.829 265.516h-8.285c-4.243 0-7.683-3.439-7.683-7.683s3.44-7.683 7.683-7.683h8.285c4.243 0 7.683 3.439 7.683 7.683s-3.44 7.683-7.683 7.683z" fill="#6289cc" data-original="#6289cc"></path></g><g><path d="m140.829 297.712h-8.285c-4.243 0-7.683-3.44-7.683-7.683s3.44-7.683 7.683-7.683h8.285c4.243 0 7.683 3.439 7.683 7.683s-3.44 7.683-7.683 7.683z" fill="#6289cc" data-original="#6289cc"></path></g><g><path d="m140.829 362.103h-8.285c-4.243 0-7.683-3.439-7.683-7.683s3.44-7.683 7.683-7.683h8.285c4.243 0 7.683 3.439 7.683 7.683s-3.44 7.683-7.683 7.683z" fill="#6289cc" data-original="#6289cc"></path></g><g><path d="m140.829 329.908h-8.285c-4.243 0-7.683-3.44-7.683-7.683s3.44-7.683 7.683-7.683h8.285c4.243 0 7.683 3.44 7.683 7.683s-3.44 7.683-7.683 7.683z" fill="#6289cc" data-original="#6289cc"></path></g><g><path d="m140.829 458.69h-8.285c-4.243 0-7.683-3.439-7.683-7.683s3.44-7.683 7.683-7.683h8.285c4.243 0 7.683 3.44 7.683 7.683s-3.44 7.683-7.683 7.683z" fill="#6289cc" data-original="#6289cc"></path></g><g><path d="m140.829 394.299h-8.285c-4.243 0-7.683-3.44-7.683-7.683 0-4.244 3.44-7.683 7.683-7.683h8.285c4.243 0 7.683 3.439 7.683 7.683s-3.44 7.683-7.683 7.683z" fill="#6289cc" data-original="#6289cc"></path></g><g><path d="m140.829 426.495h-8.285c-4.243 0-7.683-3.44-7.683-7.683 0-4.244 3.44-7.683 7.683-7.683h8.285c4.243 0 7.683 3.44 7.683 7.683 0 4.244-3.44 7.683-7.683 7.683z" fill="#6289cc" data-original="#6289cc"></path></g><g><path d="m208.597 220.087c-2.625 0-5.25-1.003-7.251-3.007l-25.292-25.338c-3.997-4.005-3.991-10.491.013-14.487 4.005-3.999 10.491-3.992 14.488.013l25.292 25.338c3.997 4.005 3.991 10.491-.014 14.487-1.999 1.996-4.617 2.994-7.236 2.994z" fill="#1fa2ea" data-original="#1fa2ea"></path></g><g><path d="m237.425 227.527c-1.711 0-3.445-.429-5.04-1.333-4.923-2.788-6.653-9.04-3.865-13.963l18.565-32.776c2.789-4.922 9.039-6.654 13.963-3.865 4.923 2.788 6.653 9.04 3.865 13.963l-18.565 32.777c-1.885 3.327-5.353 5.197-8.923 5.197z" fill="#1fa2ea" data-original="#1fa2ea"></path></g><g><path d="m303.403 220.087c-2.619 0-5.237-.997-7.237-2.994-4.005-3.997-4.01-10.483-.013-14.487l25.292-25.338c3.998-4.006 10.484-4.011 14.488-.013 4.005 3.997 4.01 10.483.013 14.487l-25.292 25.338c-2.001 2.004-4.626 3.007-7.251 3.007z" fill="#1fa2ea" data-original="#1fa2ea"></path></g><g><path d="m255.991 194.75c-1.711 0-3.445-.429-5.04-1.333-4.923-2.788-6.653-9.04-3.865-13.963l18.565-32.776c2.788-4.923 9.038-6.654 13.963-3.865 4.923 2.788 6.653 9.04 3.865 13.963l-18.565 32.776c-1.885 3.328-5.353 5.198-8.923 5.198z" fill="#49b1f7" data-original="#49b1f7"></path></g><g><path d="m183.306 194.748c-2.619 0-5.237-.997-7.237-2.993-4.004-3.998-4.011-10.484-.013-14.488l25.292-25.339c3.996-4.006 10.483-4.012 14.488-.014 4.004 3.998 4.011 10.484.014 14.488l-25.292 25.339c-2.003 2.005-4.627 3.007-7.252 3.007z" fill="#49b1f7" data-original="#49b1f7"></path></g><g><path d="m328.694 194.748c-2.625 0-5.25-1.002-7.251-3.007l-25.292-25.339c-3.997-4.005-3.991-10.491.013-14.488 4.004-3.996 10.492-3.991 14.488.014l25.292 25.339c3.997 4.005 3.991 10.491-.013 14.488-1.999 1.995-4.618 2.993-7.237 2.993z" fill="#49b1f7" data-original="#49b1f7"></path></g></g></g></svg>