<svg xmlns="http://www.w3.org/2000/svg" version="1.1" xmlns:xlink="http://www.w3.org/1999/xlink" xmlns:svgjs="http://svgjs.com/svgjs" width="512" height="512" x="0" y="0" viewBox="0 0 512 512" style="enable-background:new 0 0 512 512" xml:space="preserve" class=""><g><g xmlns="http://www.w3.org/2000/svg"><g><path d="m256 330c-141.387 0-243.97-162.801-222.898-200 43.972-77.621 127.317-130 222.898-130 95.655 0 179.056 52.461 223 130.181 21.009 37.157-81.613 199.819-223 199.819z" fill="#bc98e6" data-original="#bc98e6"></path><path d="m512 256c0 26.051-3.891 51.191-11.129 74.871-5.031 16.469-11.672 32.231-19.75 47.109-8.25 15.2-147.391 39.02-225.121 39.02s-216.871-23.82-225.109-39.02c-3.289-6.031-6.332-12.21-9.121-18.531-14-31.629-21.77-66.629-21.77-103.449 0-46.219 12.25-89.57 33.68-127 44.121 77.07 127.16 129 222.32 129s178.211-51.93 222.32-129c21.43 37.43 33.68 80.781 33.68 127z" fill="#9a65d9" data-original="#9a65d9"></path><path d="m481.262 377.699c-7.16 13.223-15.434 25.742-24.723 37.43-8.437 10.633-17.719 20.57-27.719 29.723-25.678 23.513-56.168 41.859-89.82 53.389-3.957 1.356-7.958-10.406-12-9.241-3.961 1.142-7.962 15.213-12 16.166-18.941 4.469-38.695 6.834-59 6.834-21.38 0-42.148-2.622-62-7.561-5.061-1.259-6.063-15.883-11-17.439-4.137-1.303-12.228 10.505-16.271 9-31.173-11.602-59.475-29.105-83.549-51.148-10-9.153-19.282-19.09-27.719-29.723-9.289-11.688-17.563-24.207-24.723-37.43z" fill="#5541b6" data-original="#5541b6"></path></g><g><g id="Cloud_Storage_2_"><g><path d="m408.398 227.312c-7.066-51.349-60.064-84.326-109.057-66.189-10.6-17.194-25.675-31.092-43.341-39.572-14.604-7.773-31.092-11.777-48.051-11.542-65.011.47-113.064 58.887-104.113 119.422-27.323 5.418-49.072 29.445-48.836 58.181.236 32.506 28.108 58.887 60.613 58.651l140.387-1.178 142.27-1.177c32.506-.236 58.966-26.853 58.73-59.358-.236-28.502-21.278-52.291-48.602-57.238z" fill="#e7faff" data-original="#e7faff"></path></g><g><path d="m197.113 473.837v-105.197h-23.555v105.197l-27.005-27.005-16.654 16.654 37.582 32.792c8.593 3.167 17.406 5.875 26.405 8.118l46.886-40.91-16.654-16.654z" fill="#8fd59a" data-original="#8fd59a"></path><path d="m173.558 473.837-27.005-27.005-16.654 16.654 37.582 32.792c6.091 2.244 12.288 4.268 18.586 6.052v-133.69h-12.509z" fill="#c2e170" data-original="#c2e170"></path><path d="m271.228 419.2 16.654 16.654 27.005-27.005v96.335c8.002-1.884 15.862-4.136 23.555-6.751v-89.583l27.005 27.005 16.653-16.655-55.436-55.436z" fill="#6abcaf" data-original="#6abcaf"></path></g></g><path d="m457 284.549c.236 32.506-26.225 59.122-58.73 59.358l-142.27 1.178v-223.534c17.666 8.479 32.741 22.377 43.341 39.572 48.993-18.138 101.991 14.84 109.057 66.189 27.324 4.947 48.366 28.736 48.602 57.237z" fill="#dae3f9" data-original="#dae3f9"></path></g><g fill="#fff"><path d="m402.219 96.75h-1.524c-6.754 0-12.226-5.477-12.226-12.227v-1.523h-8.715v1.523c0 6.75-5.477 12.227-12.227 12.227h-1.527v8.715h1.527c6.75 0 12.227 5.472 12.227 12.226v1.528h8.715v-1.528c0-6.754 5.472-12.226 12.226-12.226h1.524z" fill="#ffffff" data-original="#ffffff"></path><path d="m294 50.531h-1.524c-6.754 0-12.226-5.477-12.226-12.227v-1.523h-8.715v1.523c0 6.75-5.477 12.227-12.227 12.227h-1.527v8.715h1.527c6.75 0 12.227 5.472 12.227 12.226v1.528h8.715v-1.528c0-6.754 5.472-12.226 12.226-12.226h1.524z" fill="#ffffff" data-original="#ffffff"></path></g></g></g></svg>