<?xml version="1.0" encoding="utf-8"?>
<!-- Generator: Adobe Illustrator 23.0.5, SVG Export Plug-In . SVG Version: 6.00 Build 0)  -->
<svg version="1.1" id="Layer_1" xmlns:svgjs="http://svgjs.com/svgjs"
	 xmlns="http://www.w3.org/2000/svg" xmlns:xlink="http://www.w3.org/1999/xlink" x="0px" y="0px" viewBox="0 0 512 512"
	 style="enable-background:new 0 0 512 512;" xml:space="preserve">
<style type="text/css">
	.st0{fill:#2EA2EF;}
	.st1{fill:#54BBFF;}
	.st2{fill:#CC1DAB;}
	.st3{fill:#915EFD;}
	.st4{fill:#6E4ACF;}
	.st5{fill:#AD8FFF;}
	.st6{fill:#FFFFFF;}
	.st7{fill:#00FC66;}
	.st8{fill:#097A1E;}
	.st9{fill:#FF8CDE;}
	.st10{fill:#FD4CC8;}
	.st11{fill:#FFD629;}
	.st12{fill:#FFA910;}
</style>
<g>
	<path class="st0" d="M256,0v512c141.4,0,256-114.6,256-256S397.4,0,256,0z"/>
	<path class="st1" d="M470.8,256C470.8,114.6,374.6,0,256,0C114.6,0,0,114.6,0,256s114.6,256,256,256
		C374.6,512,470.8,397.4,470.8,256z"/>
</g>
<g>
	<g>
		<g>
			<g>
				<g>
					<g>
						<g>
							<circle cx="358.4" cy="112" r="3.4"/>
						</g>
					</g>
					<g>
						<g>
							<circle cx="138.8" cy="112" r="3.4"/>
						</g>
					</g>
				</g>
				<g>
					<g>
						<g>
							<circle cx="358.4" cy="413.1" r="3.4"/>
						</g>
						<g>
							<circle cx="380.7" cy="393.4" r="3.4"/>
							<circle cx="358.4" cy="393.4" r="3.4"/>
						</g>
					</g>
					<g>
						<g>
							<circle cx="138.8" cy="413.1" r="3.4"/>
						</g>
						<g>
							<circle cx="138.8" cy="393.4" r="3.4"/>
							<circle cx="116.5" cy="393.4" r="3.4"/>
						</g>
					</g>
				</g>
			</g>
			<g>
				<path class="st2" d="M189.1,352.4l2.6,4.1c0.5,0.9,1.8,0.8,2.3-0.1l2.1-4c0.1-0.2,0.3-0.4,0.6-0.6l4.3-2.1
					c1.1-0.5,1-2.1-0.1-2.5l-4-1.4c-0.3-0.1-0.6-0.4-0.8-0.7l-2.1-4.5c-0.5-1-1.9-1.1-2.4-0.1l-2.5,4.7c-0.2,0.3-0.4,0.5-0.7,0.6
					l-3.7,1.3c-1.1,0.4-1.2,1.9-0.2,2.5l4.1,2.1C188.8,352.1,189,352.2,189.1,352.4L189.1,352.4z"/>
				<path class="st2" d="M300.6,159.4l2.6,4.1c0.5,0.9,1.8,0.8,2.3-0.1l2.1-4c0.1-0.2,0.3-0.4,0.6-0.6l4.3-2.1
					c1.1-0.5,1-2.1-0.1-2.5l-4-1.4c-0.3-0.1-0.6-0.4-0.8-0.7l-2.1-4.5c-0.5-1-1.9-1.1-2.4-0.1l-2.5,4.7c-0.2,0.3-0.4,0.5-0.7,0.6
					l-3.7,1.3c-1.1,0.4-1.2,1.9-0.2,2.5l4.1,2.1C300.3,159.1,300.5,159.2,300.6,159.4z"/>
			</g>
		</g>
		<g>
			<g>
				<g>
					<g>
						<path class="st3" d="M248.6,342.6l-98-44.5V204l98,42.8V342.6z"/>
					</g>
					<g>
						<g>
							<path d="M178.2,251.8c-4.2,0-7.7-3.5-7.7-7.7c0-4.2,3.5-7.7,7.7-7.7c4.2,0,7.7,3.5,7.7,7.7
								C185.9,248.4,182.4,251.8,178.2,251.8z M178.2,239.8c-2.4,0-4.3,1.9-4.3,4.3c0,2.4,1.9,4.3,4.3,4.3c2.4,0,4.3-1.9,4.3-4.3
								C182.5,241.8,180.5,239.8,178.2,239.8z"/>
							<path d="M224.6,270.7c-4.2,0-7.7-3.5-7.7-7.7c0-4.2,3.5-7.7,7.7-7.7c4.2,0,7.7,3.5,7.7,7.7
								C232.3,267.3,228.8,270.7,224.6,270.7z M224.6,258.7c-2.4,0-4.3,1.9-4.3,4.3c0,2.4,1.9,4.3,4.3,4.3c2.4,0,4.3-1.9,4.3-4.3
								C228.9,260.6,226.9,258.7,224.6,258.7z"/>
						</g>
						<g>
							<path d="M178.2,293c-4.2,0-7.7-3.5-7.7-7.7c0-4.2,3.5-7.7,7.7-7.7c4.2,0,7.7,3.5,7.7,7.7C185.9,289.5,182.4,293,178.2,293z
								 M178.2,280.9c-2.4,0-4.3,1.9-4.3,4.3c0,2.4,1.9,4.3,4.3,4.3c2.4,0,4.3-1.9,4.3-4.3C182.5,282.9,180.5,280.9,178.2,280.9z"/>
							<path d="M224.6,311.8c-4.2,0-7.7-3.5-7.7-7.7s3.5-7.7,7.7-7.7c4.2,0,7.7,3.5,7.7,7.7S228.8,311.8,224.6,311.8z M224.6,299.8
								c-2.4,0-4.3,1.9-4.3,4.3s1.9,4.3,4.3,4.3c2.4,0,4.3-1.9,4.3-4.3S226.9,299.8,224.6,299.8z"/>
						</g>
					</g>
				</g>
				<g>
					<g>
						<path class="st4" d="M248.6,342.6l98-44.5V204l-98,42.8L248.6,342.6z"/>
					</g>
					<g>
						<g>
							<path d="M324.9,251.8c-4.2,0-7.7-3.5-7.7-7.7c0-4.2,3.5-7.7,7.7-7.7s7.7,3.5,7.7,7.7C332.6,248.4,329.2,251.8,324.9,251.8z
								 M324.9,239.8c-2.4,0-4.3,1.9-4.3,4.3c0,2.4,1.9,4.3,4.3,4.3c2.4,0,4.3-1.9,4.3-4.3C329.2,241.7,327.3,239.8,324.9,239.8z"/>
							<path d="M267.4,271.5c-4.2,0-7.7-3.5-7.7-7.7s3.5-7.7,7.7-7.7c4.2,0,7.7,3.5,7.7,7.7C275.1,268.1,271.6,271.5,267.4,271.5z
								 M267.4,259.5c-2.4,0-4.3,1.9-4.3,4.3c0,2.4,1.9,4.3,4.3,4.3c2.4,0,4.3-1.9,4.3-4.3C271.7,261.5,269.7,259.5,267.4,259.5z"/>
						</g>
						<g>
							<path d="M324.9,293c-4.2,0-7.7-3.5-7.7-7.7c0-4.2,3.5-7.7,7.7-7.7s7.7,3.5,7.7,7.7C332.6,289.5,329.2,293,324.9,293z
								 M324.9,280.9c-2.4,0-4.3,1.9-4.3,4.3c0,2.4,1.9,4.3,4.3,4.3c2.4,0,4.3-1.9,4.3-4.3C329.2,282.9,327.3,280.9,324.9,280.9z"/>
							<path d="M267.4,316.1c-4.2,0-7.7-3.5-7.7-7.7c0-4.2,3.5-7.7,7.7-7.7c4.2,0,7.7,3.5,7.7,7.7
								C275.1,312.6,271.6,316.1,267.4,316.1z M267.4,304.1c-2.4,0-4.3,1.9-4.3,4.3c0,2.4,1.9,4.3,4.3,4.3c2.4,0,4.3-1.9,4.3-4.3
								C271.7,306,269.7,304.1,267.4,304.1z"/>
						</g>
					</g>
				</g>
				<g>
					<path class="st5" d="M248.6,246.8l-98-42.8l98-41.2l98,41.2L248.6,246.8z"/>
				</g>
				<path class="st6" d="M213.1,177.7l-23.8,10l97.2,42.5v0l-0.1,34.5l21.6-6.9v-37.1L213.1,177.7z"/>
			</g>
			<g>
				<g>
					<path class="st7" d="M390.6,361.9l47.8-29.8c5.7-3.5,5.4-11.8-0.5-15l-3.4-1.8c5.8-18.5,8.9-38.2,8.9-58.6
						c0-107.7-89-194.9-196.7-194.9l1.7,53.8c0.6,0,1.3,0,1.9,0c77.8,0,141,63.1,141,140.9c0,14.5-2.2,28.5-6.3,41.7l-4.1-1.7
						c-6.3-2.6-13,2.7-11.9,9.4l8.3,50C378.5,362,385.4,365.1,390.6,361.9z"/>
					<path class="st8" d="M438,317.1l-3.4-1.8c5.8-18.5,8.9-38.2,8.9-58.6c0-107.7-89-194.9-196.7-194.9l0.3,8.6
						c103.6,0.1,187.8,83.7,187.8,186.4c0,19.1-2.9,37.9-8.6,56c-1.2,3.9,0.5,8.2,4.1,10.1l3.4,1.8c0,0,0,0.1,0,0.1
						c0,0-53.8,33.1-55.5,33.8c2.3,4.2,7.8,5.9,12.1,3.2l47.8-29.8C444.1,328.6,443.8,320.3,438,317.1z"/>
				</g>
				<g>
					<path class="st9" d="M280.8,83.7L232.7,55c-5.9-3.5-13.3,0.9-13.1,7.7l0,1.3c-94,14-166,95-166,192.8
						c0,37.4,10.5,72.4,28.8,102.1l44.8-33.8c-11.3-20.3-17.7-43.6-17.7-68.4c0-67.4,47.4-123.8,110.6-137.7l0.1,3.9
						c0.1,6.8,7.7,10.9,13.4,7.1l47.5-31.6C286.5,94.8,286.3,86.9,280.8,83.7L280.8,83.7z"/>
					<path class="st10" d="M280.8,83.7L232.7,55c-5.9-3.5-13.3,0.9-13.1,7.7l0,1.3c-94,14-166,95-166,192.8
						c0,37.4,10.5,72.4,28.8,102.1l6.9-5.2c-17.7-29.1-27.1-62.6-27.1-96.9c0-91.6,68.2-170.9,158.7-184.3c4.3-0.6,7.5-4.4,7.3-8.8
						l-0.1-1.3c0,0,0.1-0.1,0.1,0c0,0,54,32.4,55.4,33.5C286.2,91.9,285.2,86.3,280.8,83.7L280.8,83.7z"/>
				</g>
				<g>
					<path class="st11" d="M424.6,340.7c-31.4,65.6-98.4,111-176,111c-60.3,0-114.2-27.4-149.9-70.3l-6.2,4.3
						c-5.6,3.9-13.3,0-13.5-6.9l-1.2-61.5c-0.1-5.8,5.5-10,11-8.4l53.4,16c6.8,2,8.3,10.9,2.6,15.1l-5.1,3.7
						c25.8,32.8,65.8,53.8,110.8,53.8c52.2,0,97.8-28.4,122.2-70.6l4.8,29c1,6.1,7.9,9.2,13.1,5.9L424.6,340.7z"/>
					<path class="st12" d="M410.1,349.7c-33,57.2-95,93.4-161.6,93.4c-55.5,0-107.8-24.5-143.3-67.3c-2.8-3.4-7.8-4.1-11.5-1.6
						l-6.2,4.3c0,0-1.3-67.7-1.3-70.1c-4.6,0.1-8.5,3.8-8.4,8.7l1.2,61.5c0.1,6.9,7.9,10.8,13.5,6.9l6.2-4.3
						c35.8,43,89.7,70.3,149.9,70.3c77.6,0,144.6-45.3,176-111L410.1,349.7z"/>
				</g>
			</g>
		</g>
	</g>
</g>
</svg>
