<svg xmlns="http://www.w3.org/2000/svg" version="1.1" xmlns:xlink="http://www.w3.org/1999/xlink" xmlns:svgjs="http://svgjs.com/svgjs" width="512" height="512" x="0" y="0" viewBox="0 0 512 512" style="enable-background:new 0 0 512 512" xml:space="preserve" class=""><g><path xmlns="http://www.w3.org/2000/svg" d="m245 0c-42.203125 0-81.914062 10.671875-116.582031 29.464844l-51.195313 394.054687c34.554688 32.492188 78.542969 55.054688 127.417969 63.160157l101.25-4.308594c105.851563-27.070313 184.113281-123.082032 184.113281-237.371094 0-135.308594-109.691406-245-245.003906-245zm0 0" fill="#ef4a8a" data-original="#ef4a8a"></path><path xmlns="http://www.w3.org/2000/svg" d="m195.789062 485.054688c15.898438 3.242187 32.355469 4.949218 49.210938 4.949218 24.117188 0 47.410156-3.503906 69.421875-9.996094-4.234375-13.179687-8.851563-32.800781-8.851563-56.515624h-99.140624c0 26.242187-6.042969 48.371093-10.640626 61.5625zm0 0" fill="#b7dbf6" data-original="#b7dbf6"></path><path xmlns="http://www.w3.org/2000/svg" d="m247.171875 489.980469c3.652344-16.71875 7.125-39.941407 6.433594-66.492188h-47.175781c0 26.246094-6.042969 48.375-10.640626 61.566407 15.898438 3.242187 32.355469 4.949218 49.210938 4.949218.726562 0 1.449219-.015625 2.171875-.023437zm0 0" fill="#97cbef" data-original="#97cbef"></path><path xmlns="http://www.w3.org/2000/svg" d="m484.894531 28.332031h-354.328125c-32.527344 17.214844-60.707031 41.539063-82.484375 70.898438l-19.75 31.335937-.003906-.007812c-18.082031 34.160156-28.328125 73.101562-28.328125 114.441406 0 42.726562 10.945312 82.886719 30.171875 117.855469h481.828125v-307.417969c0-14.90625-12.199219-27.105469-27.105469-27.105469zm0 0" fill="#284cb2" data-original="#284cb2"></path><path xmlns="http://www.w3.org/2000/svg" d="m47.984375 99.386719-19.613281 31.113281c-18.101563 34.171875-28.371094 73.132812-28.371094 114.5 0 42.726562 10.945312 82.886719 30.171875 117.855469h47.589844v-296.875c-10.910157 10.195312-20.875 21.382812-29.777344 33.40625zm0 0" fill="#1d3ba8" data-original="#1d3ba8"></path><path xmlns="http://www.w3.org/2000/svg" d="m79.007812 425.183594h405.886719c14.90625 0 27.105469-12.199219 27.105469-27.109375v-37.277344h-482.949219c12.992188 24.183594 29.933594 45.929687 49.957031 64.386719zm0 0" fill="#d6eafc" data-original="#d6eafc"></path><path xmlns="http://www.w3.org/2000/svg" d="m77.761719 424.011719v-63.214844h-48.710938c12.722657 23.675781 29.234375 45.007813 48.710938 63.214844zm0 0" fill="#b7dbf6" data-original="#b7dbf6"></path><path xmlns="http://www.w3.org/2000/svg" d="m28.332031 130.566406v197.757813c0 2.285156 1.855469 4.140625 4.140625 4.140625h447.054688c2.285156 0 4.140625-1.855469 4.140625-4.140625v-231.222657h-433.988281c-7.980469 10.523438-15.125 21.710938-21.347657 33.464844zm0 0" fill="#122894" data-original="#122894"></path><path xmlns="http://www.w3.org/2000/svg" d="m77.761719 97.101562h-28.082031c-7.980469 10.523438-15.125 21.710938-21.347657 33.464844v197.757813c0 2.285156 1.855469 4.140625 4.140625 4.140625h45.289063zm0 0" fill="#012481" data-original="#012481"></path><path xmlns="http://www.w3.org/2000/svg" d="m479.527344 56.664062h-391.21875c-15.019532 12.511719-28.519532 26.78125-40.179688 42.496094h435.539063v-38.355468c0-2.285157-1.855469-4.140626-4.140625-4.140626zm0 0" fill="#1d3ba8" data-original="#1d3ba8"></path><path xmlns="http://www.w3.org/2000/svg" d="m48.125 99.160156h29.636719v-33.179687c-10.84375 10.136719-20.773438 21.238281-29.636719 33.179687zm0 0" fill="#122894" data-original="#122894"></path><g xmlns="http://www.w3.org/2000/svg" fill="#406bcc"><path d="m85.503906 85.644531c-4.304687 0-7.742187-3.5-7.742187-7.730469 0-4.816406 4.453125-8.5625 9.246093-7.574218 3.542969.664062 6.214844 3.867187 6.214844 7.574218 0 4.199219-3.40625 7.730469-7.71875 7.730469zm0 0" fill="#406bcc" data-original="#406bcc"></path><path d="m110.945312 85.644531c-4.386718 0-7.738281-3.59375-7.738281-7.730469 0-4.792968 4.445313-8.566406 9.246094-7.574218 3.679687.691406 6.222656 4.023437 6.222656 7.574218 0 4.300782-3.511719 7.730469-7.730469 7.730469zm0 0" fill="#406bcc" data-original="#406bcc"></path><path d="m450.136719 85.644531h-76.265625c-4.269532 0-7.730469-3.460937-7.730469-7.730469 0-4.269531 3.460937-7.730468 7.730469-7.730468h76.265625c4.265625 0 7.726562 3.460937 7.726562 7.730468 0 4.269532-3.460937 7.730469-7.726562 7.730469zm0 0" fill="#406bcc" data-original="#406bcc"></path></g><path xmlns="http://www.w3.org/2000/svg" d="m409.78125 77.914062c0-4.269531 3.460938-7.730468 7.730469-7.730468h-43.640625c-4.269532 0-7.730469 3.460937-7.730469 7.730468 0 4.269532 3.460937 7.726563 7.730469 7.726563h43.640625c-4.269531.003906-7.730469-3.457031-7.730469-7.726563zm0 0" fill="#284cb2" data-original="#284cb2"></path><path xmlns="http://www.w3.org/2000/svg" d="m256 406.894531c-7.824219 0-14.164062-6.34375-14.164062-14.167969 0-7.824218 6.339843-14.164062 14.164062-14.164062s14.164062 6.339844 14.164062 14.164062c0 7.824219-6.339843 14.167969-14.164062 14.167969zm0 0" fill="#b7dbf6" data-original="#b7dbf6"></path><path xmlns="http://www.w3.org/2000/svg" d="m399.683594 169.179688c-4.300782 0-7.738282-3.5-7.738282-7.730469 0-4.816407 4.453126-8.5625 9.242188-7.574219 3.546875.664062 6.214844 3.867188 6.214844 7.574219.003906 4.199219-3.398438 7.730469-7.71875 7.730469zm0 0" fill="#406bcc" data-original="#406bcc"></path><path xmlns="http://www.w3.org/2000/svg" d="m425.132812 169.179688c-4.394531 0-7.742187-3.59375-7.742187-7.730469 0-4.792969 4.445313-8.566407 9.246094-7.574219 3.679687.691406 6.222656 4.023438 6.222656 7.574219 0 4.300781-3.511719 7.730469-7.726563 7.730469zm0 0" fill="#5488e2" data-original="#5488e2"></path><path xmlns="http://www.w3.org/2000/svg" d="m151.867188 287.070312c0-4.265624-3.460938-7.726562-7.730469-7.726562h-30.402344c-4.269531 0-7.726563 3.460938-7.726563 7.726562 0 4.273438 3.460938 7.730469 7.726563 7.730469h30.402344c4.269531 0 7.730469-3.457031 7.730469-7.730469zm0 0" fill="#5488e2" data-original="#5488e2"></path><path xmlns="http://www.w3.org/2000/svg" d="m128.339844 287.070312c0-4.265624 3.460937-7.726562 7.730468-7.726562h-22.335937c-4.269531 0-7.726563 3.460938-7.726563 7.726562 0 4.269532 3.457032 7.730469 7.726563 7.730469h22.335937c-4.269531 0-7.730468-3.457031-7.730468-7.730469zm0 0" fill="#406bcc" data-original="#406bcc"></path><path xmlns="http://www.w3.org/2000/svg" d="m282.136719 161.445312c0-4.265624-3.460938-7.726562-7.730469-7.726562h-30.402344c-4.269531 0-7.726562 3.460938-7.726562 7.726562 0 4.273438 3.457031 7.730469 7.726562 7.730469h30.402344c4.269531 0 7.730469-3.460937 7.730469-7.730469zm0 0" fill="#5488e2" data-original="#5488e2"></path><path xmlns="http://www.w3.org/2000/svg" d="m258.609375 161.445312c0-4.265624 3.457031-7.726562 7.726563-7.726562h-22.332032c-4.269531 0-7.730468 3.460938-7.730468 7.726562 0 4.273438 3.460937 7.730469 7.730468 7.730469h22.332032c-4.269532 0-7.726563-3.460937-7.726563-7.730469zm0 0" fill="#406bcc" data-original="#406bcc"></path><path xmlns="http://www.w3.org/2000/svg" d="m427.253906 190.371094-182.273437.007812c-5.320313 0-9.632813 4.3125-9.632813 9.636719l.003906 82.664063c0 5.324218 4.3125 9.636718 9.636719 9.636718l182.273438-.011718c5.320312 0 9.632812-4.3125 9.632812-9.632813l-.003906-82.667969c0-5.320312-4.316406-9.632812-9.636719-9.632812zm0 0" fill="#284cb2" data-original="#284cb2"></path><path xmlns="http://www.w3.org/2000/svg" d="m273.394531 282.679688-.003906-82.664063c0-5.320313 4.3125-9.636719 9.636719-9.636719l.035156.003906c-.011719 0-.023438-.003906-.035156-.003906h-38.042969c-5.324219 0-9.636719 4.3125-9.636719 9.636719l.003906 82.664063c0 5.324218 4.316407 9.636718 9.636719 9.636718l38.007813-.003906c-5.304688-.019531-9.601563-4.324219-9.601563-9.632812zm0 0" fill="#1d3ba8" data-original="#1d3ba8"></path><path xmlns="http://www.w3.org/2000/svg" d="m265.933594 252.378906c-4.855469 0-8.792969-3.9375-8.792969-8.792968 0-18.097657 14.726563-32.824219 32.824219-32.824219 4.851562 0 8.789062 3.9375 8.789062 8.792969 0 4.851562-3.933594 8.789062-8.789062 8.789062-8.402344.003906-15.238282 6.839844-15.238282 15.242188 0 4.855468-3.9375 8.792968-8.792968 8.792968zm0 0" fill="#06daf7" data-original="#06daf7"></path><path xmlns="http://www.w3.org/2000/svg" d="m289.964844 276.40625c-18.097656 0-32.820313-14.722656-32.824219-32.820312 0-4.855469 3.9375-8.792969 8.792969-8.792969 4.855468 0 8.792968 3.9375 8.792968 8.792969 0 8.402343 6.835938 15.238281 15.238282 15.238281 4.855468 0 8.792968 3.933593 8.792968 8.789062s-3.9375 8.792969-8.792968 8.792969zm0 0" fill="#05b8e2" data-original="#05b8e2"></path><path xmlns="http://www.w3.org/2000/svg" d="m289.964844 276.40625c-4.855469 0-8.789063-3.933594-8.789063-8.792969 0-4.855469 3.933594-8.789062 8.789063-8.789062 8.421875 0 15.238281-6.816407 15.238281-15.238281 0-4.855469 3.9375-8.792969 8.789063-8.792969 4.855468-.003907 8.792968 3.933593 8.792968 8.789062.003906 18.140625-14.675781 32.824219-32.820312 32.824219zm0 0" fill="#f9ce00" data-original="#f9ce00"></path><path xmlns="http://www.w3.org/2000/svg" d="m313.992188 252.375c-4.855469 0-8.789063-3.9375-8.789063-8.792969 0-8.421875-6.816406-15.238281-15.238281-15.238281-4.855469 0-8.792969-3.933594-8.792969-8.789062 0-4.855469 3.933594-8.792969 8.792969-8.792969 18.136718 0 32.820312 14.679687 32.820312 32.820312 0 4.855469-3.933594 8.792969-8.792968 8.792969zm0 0" fill="#f95d95" data-original="#f95d95"></path><path xmlns="http://www.w3.org/2000/svg" d="m350.324219 276.402344c-4.855469 0-8.792969-3.933594-8.792969-8.789063v-26.269531c0-4.855469 3.9375-8.792969 8.792969-8.792969s8.789062 3.9375 8.789062 8.792969l.003907 26.265625c-.003907 4.859375-3.9375 8.792969-8.792969 8.792969zm0 0" fill="#06daf7" data-original="#06daf7"></path><path xmlns="http://www.w3.org/2000/svg" d="m376.652344 276.402344c-4.855469 0-8.792969-3.9375-8.792969-8.792969v-13.132813c0-4.855468 3.9375-8.792968 8.792969-8.792968 4.855468 0 8.789062 3.933594 8.789062 8.792968v13.132813c0 4.855469-3.933594 8.792969-8.789062 8.792969zm0 0" fill="#f95d95" data-original="#f95d95"></path><path xmlns="http://www.w3.org/2000/svg" d="m403.613281 276.402344c-4.855469 0-8.792969-3.9375-8.792969-8.792969l-.003906-48.058594c0-4.855469 3.9375-8.792969 8.792969-8.792969s8.792969 3.933594 8.792969 8.789063v48.0625c0 4.855469-3.933594 8.792969-8.789063 8.792969zm0 0" fill="#f9ce00" data-original="#f9ce00"></path><path xmlns="http://www.w3.org/2000/svg" d="m350.324219 262.738281c-4.855469 0-8.792969-3.9375-8.792969-8.792969v13.667969c0 4.855469 3.9375 8.789063 8.792969 8.789063s8.792969-3.933594 8.792969-8.789063l-.003907-13.660156c-.003906 4.851563-3.9375 8.785156-8.789062 8.785156zm0 0" fill="#05b8e2" data-original="#05b8e2"></path><path xmlns="http://www.w3.org/2000/svg" d="m376.652344 262.734375c-4.765625 0-8.636719-3.792969-8.78125-8.523437 0 .085937-.011719.175781-.011719.265624v13.132813c0 4.855469 3.9375 8.792969 8.792969 8.792969 4.855468 0 8.792968-3.9375 8.792968-8.792969v-13.132813c0-.089843-.011718-.179687-.015624-.265624-.144532 4.730468-4.011719 8.523437-8.777344 8.523437zm0 0" fill="#e5387f" data-original="#e5387f"></path><path xmlns="http://www.w3.org/2000/svg" d="m403.613281 262.734375c-4.855469 0-8.792969-3.9375-8.792969-8.792969v.015625 13.652344c0 4.855469 3.9375 8.789063 8.792969 8.789063s8.789063-3.933594 8.789063-8.789063v-13.65625c-.007813 4.851563-3.9375 8.78125-8.789063 8.78125zm0 0" fill="#f4b500" data-original="#f4b500"></path><path xmlns="http://www.w3.org/2000/svg" d="m178.519531 194.085938-45.207031-45.207032c-2.332031-2.332031-6.109375-2.332031-8.441406 0l-45.207032 45.207032c-1.117187 1.117187-1.746093 2.636718-1.746093 4.21875v59.613281c0 3.296875 2.671875 5.96875 5.96875 5.96875h90.414062c3.296875 0 5.964844-2.671875 5.964844-5.96875v-59.613281c0-1.582032-.628906-3.101563-1.746094-4.21875zm0 0" fill="#06daf7" data-original="#06daf7"></path><path xmlns="http://www.w3.org/2000/svg" d="m112.191406 207.578125c0-1.582031.628906-3.097656 1.75-4.21875l36.925782-36.925781-17.554688-17.554688c-2.332031-2.332031-6.109375-2.332031-8.441406 0l-45.207032 45.207032c-1.117187 1.117187-1.746093 2.636718-1.746093 4.21875v59.613281c0 3.296875 2.671875 5.96875 5.96875 5.96875h28.304687zm0 0" fill="#05b8e2" data-original="#05b8e2"></path><path xmlns="http://www.w3.org/2000/svg" d="m144.636719 263.839844c.558593 0 1.113281.015625 1.667969.042968v-28.023437c0-9.421875-7.636719-17.058594-17.054688-17.058594-9.421875 0-17.058594 7.636719-17.058594 17.058594v27.980469zm0 0" fill="#07a3d3" data-original="#07a3d3"></path></g></svg>