<svg xmlns="http://www.w3.org/2000/svg" version="1.1" xmlns:xlink="http://www.w3.org/1999/xlink" xmlns:svgjs="http://svgjs.com/svgjs" width="512" height="512" x="0" y="0" viewBox="0 0 512 512" style="enable-background:new 0 0 512 512" xml:space="preserve" class=""><g><g xmlns="http://www.w3.org/2000/svg"><path d="m512 256c0 141.385-114.615 256-256 256s-256-114.615-256-256 114.615-256 256-256 256 114.615 256 256z" fill="#9bcf1b" data-original="#9bcf1b"></path><path d="m457.553 270c0 111.315-90.238 201.553-201.553 201.553s-201.553-90.238-201.553-201.553 90.238-201.553 201.553-201.553 201.553 90.238 201.553 201.553z" fill="#b9e746" data-original="#b9e746"></path><path d="m381.5 340v139.179c-6.496 3.661-13.168 7.046-20 10.14v-36.319h-211v36.319c-6.832-3.094-13.504-6.479-20-10.14v-139.179h20v93h211v-93z" fill="#453d83" data-original="#453d83"></path><path d="m329.383 453h-116.085c-5.523 0-10-4.477-10-10 0-5.523 4.477-10 10-10h116.085c5.523 0 10 4.477 10 10 0 5.523-4.477 10-10 10z" fill="#51489a" data-original="#51489a"></path><path d="m437 358.527h-362c-8.284 0-15-6.716-15-15 0-8.284 6.716-15 15-15h362c8.284 0 15 6.716 15 15 0 8.284-6.716 15-15 15zm-181-338.527c-5.523 0-10 4.477-10 10v30c0 5.523 4.477 10 10 10s10-4.477 10-10v-30c0-5.523-4.477-10-10-10z" fill="#453d83" data-original="#453d83"></path><path d="m263.5 391.004v35c0 4.142-3.358 7.5-7.5 7.5s-7.5-3.358-7.5-7.5v-35c0-4.142 3.358-7.5 7.5-7.5s7.5 3.358 7.5 7.5z" fill="#1380e2" data-original="#1380e2"></path><path d="m430 78v276.915c0 24.9-20.185 45.085-45.085 45.085h-233.816c-34.784 0-64.005-26.154-67.846-60.725-2.167-19.502-3.253-39.108-3.253-58.73v-202.545z" fill="#a7d0fc" data-original="#a7d0fc"></path><path d="m187.099 400h-36c-34.784 0-64.005-26.154-67.846-60.725-2.167-19.502-3.253-39.108-3.253-58.73v-202.545h36v202.545c0 19.621 1.086 39.228 3.253 58.729 3.841 34.572 33.062 60.726 67.846 60.726z" fill="#86befb" data-original="#86befb"></path><path d="m256 419.712c-16.7 0-30.287 13.587-30.287 30.288s13.587 30.288 30.287 30.288 30.287-13.587 30.287-30.288-13.587-30.288-30.287-30.288zm0 45.576c-8.429 0-15.287-6.858-15.287-15.288s6.858-15.288 15.287-15.288c8.43 0 15.287 6.858 15.287 15.288s-6.857 15.288-15.287 15.288z" fill="#fff5f5" data-original="#fff5f5"></path><path d="m390 212.5h-102.5v-92.5c0-4.142-3.357-7.5-7.5-7.5h-160c-4.142 0-7.5 3.358-7.5 7.5v200c0 4.142 3.358 7.5 7.5 7.5h270c4.143 0 7.5-3.358 7.5-7.5v-100c0-4.142-3.357-7.5-7.5-7.5zm-262.5-85h145v85h-145zm255 185h-185.617v-23h6.032c4.142 0 7.5-3.358 7.5-7.5s-3.358-7.5-7.5-7.5h-27.064c-4.142 0-7.5 3.358-7.5 7.5s3.358 7.5 7.5 7.5h6.032v23h-54.383v-85h54.383v21h-6.032c-4.142 0-7.5 3.358-7.5 7.5s3.358 7.5 7.5 7.5h13.454c.026 0 .052.001.077.001s.052-.001.077-.001h13.455c4.142 0 7.5-3.358 7.5-7.5s-3.358-7.5-7.5-7.5h-6.032v-21h185.618z" fill="#76b6fa" data-original="#76b6fa"></path><path d="m452.203 360.923-6.883 12.114c-9.47 16.667-27.162 26.963-46.331 26.963h-247.89c-9.675 0-18.919-2.023-27.306-5.688 0 0 53.016 8.478 18.607-87.804-1.033-2.891 1.44-5.825 4.463-5.288l302.563 53.789c2.719.483 4.141 3.512 2.777 5.914z" fill="#e9f3fe" data-original="#e9f3fe"></path><path d="m452.203 360.923-6.883 12.114c-9.47 16.667-27.162 26.963-46.331 26.963h-222.436c14.273-6.71 28.834-27.795 7.913-92.095l264.959 47.104c2.72.483 4.142 3.512 2.778 5.914z" fill="#fff5f5" data-original="#fff5f5"></path><path d="m396.911 145.5c0-3.37 2.316-6.199 5.443-6.984-.444-2.656-1.138-5.228-2.056-7.691-3.101.886-6.523-.406-8.209-3.325-1.684-2.917-1.095-6.522 1.218-8.766-1.695-2.049-3.58-3.934-5.629-5.629-2.243 2.313-5.849 2.902-8.766 1.218-2.92-1.686-4.212-5.108-3.325-8.209-2.463-.918-5.035-1.612-7.691-2.056-.784 3.127-3.613 5.443-6.984 5.443-3.37 0-6.199-2.316-6.984-5.443-2.656.444-5.228 1.138-7.691 2.056.886 3.101-.406 6.523-3.325 8.209-2.917 1.684-6.523 1.095-8.766-1.218-2.049 1.695-3.934 3.58-5.629 5.629 2.313 2.243 2.902 5.849 1.218 8.766-1.686 2.92-5.108 4.212-8.209 3.325-.918 2.463-1.612 5.035-2.056 7.691 3.127.784 5.443 3.613 5.443 6.984s-2.316 6.199-5.443 6.984c.444 2.656 1.138 5.228 2.056 7.691 3.101-.886 6.524.406 8.209 3.325 1.684 2.917 1.095 6.522-1.218 8.766 1.695 2.049 3.58 3.934 5.629 5.629 2.243-2.313 5.849-2.902 8.766-1.218 2.92 1.686 4.212 5.108 3.325 8.209 2.463.918 5.035 1.612 7.691 2.056.784-3.127 3.613-5.443 6.984-5.443 3.37 0 6.199 2.316 6.984 5.443 2.656-.444 5.228-1.138 7.691-2.056-.886-3.101.406-6.524 3.325-8.209 2.917-1.684 6.522-1.095 8.765 1.218 2.049-1.695 3.934-3.58 5.629-5.629-2.313-2.243-2.902-5.849-1.218-8.766 1.686-2.92 5.108-4.212 8.209-3.325.918-2.463 1.612-5.035 2.056-7.691-3.127-.785-5.442-3.614-5.442-6.984zm-36 20c-11.046 0-20-8.954-20-20s8.954-20 20-20 20 8.954 20 20-8.955 20-20 20zm9.073 127c0 4.142-3.357 7.5-7.5 7.5h-27.063c-4.143 0-7.5-3.358-7.5-7.5s3.357-7.5 7.5-7.5h27.063c4.143 0 7.5 3.358 7.5 7.5zm0-25c0-4.142-3.357-7.5-7.5-7.5h-44.984c-4.143 0-7.5 3.358-7.5 7.5s3.357 7.5 7.5 7.5h44.984c4.143 0 7.5-3.358 7.5-7.5zm-221.984-102.5h27.063c4.143 0 7.5 3.358 7.5 7.5s-3.357 7.5-7.5 7.5h-27.063c-4.143 0-7.5-3.358-7.5-7.5s3.357-7.5 7.5-7.5zm0-10h44.984c4.143 0 7.5-3.358 7.5-7.5s-3.357-7.5-7.5-7.5h-44.984c-4.143 0-7.5 3.358-7.5 7.5s3.357 7.5 7.5 7.5z" fill="#55a4f9" data-original="#55a4f9"></path><path d="m320.117 240v-40c0-5.523-4.477-10-10-10h-60c-5.523 0-10 4.477-10 10v40c0 5.523 4.477 10 10 10h60c5.523 0 10-4.477 10-10zm-40-130c-8.284 0-15 6.716-15 15s6.716 15 15 15 15-6.716 15-15-6.716-15-15-15zm-160.117 0c-8.284 0-15 6.716-15 15s6.716 15 15 15 15-6.716 15-15-6.716-15-15-15zm0 95c-8.284 0-15 6.716-15 15s6.716 15 15 15 15-6.716 15-15-6.716-15-15-15z" fill="#3493f8" data-original="#3493f8"></path><path d="m140.5 65c0 8.284-6.716 15-15 15h-50.5c-8.284 0-15-6.716-15-15s6.716-15 15-15h50.5c8.284 0 15 6.716 15 15z" fill="#453d83" data-original="#453d83"></path><path d="m452 65c0 8.284-6.716 15-15 15h-317c-8.284 0-15-6.716-15-15s6.716-15 15-15h317c8.284 0 15 6.716 15 15z" fill="#51489a" data-original="#51489a"></path></g></g></svg>