<svg xmlns="http://www.w3.org/2000/svg" version="1.1" xmlns:xlink="http://www.w3.org/1999/xlink" xmlns:svgjs="http://svgjs.com/svgjs" width="512" height="512" x="0" y="0" viewBox="0 0 512 512" style="enable-background:new 0 0 512 512" xml:space="preserve" class=""><g><circle xmlns="http://www.w3.org/2000/svg" cx="256" cy="256" fill="#fcd015" r="256" data-original="#fcd015"></circle><path xmlns="http://www.w3.org/2000/svg" d="m512 256c0-18.332-1.927-36.214-5.59-53.455l-71.41-71.41-358 259.865 112.196 112.196c21.297 5.741 43.693 8.804 66.804 8.804 141.385 0 256-114.615 256-256z" fill="#ff9d00" data-original="#ff9d00"></path><path xmlns="http://www.w3.org/2000/svg" d="m77 141.135h358v249.865h-358z" fill="#ffffff" data-original="#ffffff"></path><path xmlns="http://www.w3.org/2000/svg" d="m256 141.135h179v249.865h-179z" fill="#e9edf5" data-original="#e9edf5"></path><path xmlns="http://www.w3.org/2000/svg" d="m319.92 346.587c35.302-35.302 35.302-92.538 0-127.84s-92.538-35.302-127.841 0c-35.302 35.302-35.302 92.538 0 127.841 35.303 35.301 92.539 35.301 127.841-.001zm-103.401-103.402c21.805-21.805 57.158-21.805 78.962 0 21.805 21.805 21.805 57.158 0 78.963s-57.158 21.805-78.963 0c-21.804-21.805-21.804-57.158.001-78.963z" fill="#fe6a16" data-original="#fe6a16"></path><path xmlns="http://www.w3.org/2000/svg" d="m319.92 218.746c-17.651-17.651-40.786-26.477-63.92-26.477v34.562c14.289 0 28.579 5.451 39.481 16.354 21.805 21.805 21.805 57.158 0 78.963-10.902 10.902-25.192 16.353-39.481 16.353v34.563c23.135 0 46.269-8.826 63.92-26.477 35.303-35.302 35.302-92.538 0-127.841z" fill="#f24500" data-original="#f24500"></path><path xmlns="http://www.w3.org/2000/svg" d="m216.519 243.185c21.485-21.485 56.114-21.784 77.985-.929l24.723-24.186c-35.354-34.618-92.074-34.398-127.147.676-5.625 5.625-10.35 11.809-14.183 18.371l29.84 17.462c2.371-4.07 5.294-7.906 8.782-11.394z" fill="#ffce00" data-original="#ffce00"></path><path xmlns="http://www.w3.org/2000/svg" d="m319.227 218.07c-17.561-17.196-40.394-25.786-63.227-25.788v34.569c13.866.005 27.732 5.134 38.504 15.405z" fill="#fdba12" data-original="#fdba12"></path><path xmlns="http://www.w3.org/2000/svg" d="m295.481 243.185c13.813 13.813 18.863 33.061 15.176 50.86l33.773 7.402c6.112-28.915-2.054-60.245-24.51-82.701-.229-.229-.462-.45-.693-.676l-24.723 24.186c.325.31.658.609.977.929z" fill="#0053bf" data-original="#0053bf"></path><path xmlns="http://www.w3.org/2000/svg" d="m77 131.135h358v47.176h-358z" fill="#87c7ff" data-original="#87c7ff"></path><path xmlns="http://www.w3.org/2000/svg" d="m256 131.135h179v47.176h-179z" fill="#4a98f7" data-original="#4a98f7"></path><g xmlns="http://www.w3.org/2000/svg" fill="#4a7aff"><circle cx="104.5" cy="154.5" r="13.167" fill="#4a7aff" data-original="#4a7aff"></circle><circle cx="141" cy="154.5" r="13.167" fill="#4a7aff" data-original="#4a7aff"></circle><circle cx="177.355" cy="154.5" r="13.167" fill="#4a7aff" data-original="#4a7aff"></circle></g></g></svg>