<svg xmlns="http://www.w3.org/2000/svg" version="1.1" xmlns:xlink="http://www.w3.org/1999/xlink" xmlns:svgjs="http://svgjs.com/svgjs" width="512" height="512" x="0" y="0" viewBox="0 0 501 501" style="enable-background:new 0 0 512 512" xml:space="preserve" class="hovered-paths"><g><g xmlns="http://www.w3.org/2000/svg"><path d="m495.5 256c0 94.053-52.997 175.727-130.758 216.79h-228.485c-77.76-41.063-130.757-122.737-130.757-216.79 0-135.31 109.69-245 245-245s245 109.69 245 245z" fill="#172a7d" data-original="#172a7d" class=""></path><path d="m48.087 164.413c0-20.21 2.963-39.727 8.476-58.143 44.808-57.953 115.015-95.27 193.937-95.27s149.129 37.317 193.937 95.27c5.513 18.416 8.476 37.933 8.476 58.143 0 111.789-90.623 202.413-202.413 202.413s-202.413-90.624-202.413-202.413z" fill="#463b83" data-original="#463b83" class="hovered-path"></path><path d="m441.781 250.825-10.283 3.696c-1.154.415-2.062 1.323-2.477 2.477l-3.696 10.283c-1.303 3.625-6.43 3.625-7.733 0l-3.696-10.283c-.415-1.154-1.323-2.062-2.477-2.477l-10.284-3.696c-3.625-1.303-3.625-6.43 0-7.733l10.284-3.696c1.154-.415 2.062-1.323 2.477-2.477l3.696-10.284c1.303-3.625 6.43-3.625 7.733 0l3.696 10.284c.415 1.154 1.323 2.062 2.477 2.477l10.283 3.696c3.625 1.303 3.625 6.43 0 7.733zm-340 32.267-10.283-3.696c-1.154-.415-2.062-1.323-2.477-2.477l-3.696-10.284c-1.303-3.625-6.43-3.625-7.733 0l-3.696 10.284c-.415 1.154-1.323 2.062-2.477 2.477l-10.283 3.696c-3.625 1.303-3.625 6.43 0 7.733l10.283 3.696c1.154.415 2.062 1.323 2.477 2.477l3.696 10.283c1.303 3.625 6.43 3.625 7.733 0l3.696-10.283c.415-1.154 1.323-2.062 2.477-2.477l10.283-3.696c3.625-1.303 3.625-6.43 0-7.733z" fill="#8694dd" data-original="#8694dd"></path><path d="m364.742 472.79c-34.11 18.012-72.985 28.21-114.242 28.21s-80.132-10.198-114.242-28.21c3.133-6.951 10.122-11.79 18.242-11.79h20v-96c0-8.284 6.716-15 15-15h41v-100h40v100h41c8.284 0 15 6.716 15 15v96h20c8.12 0 15.109 4.839 18.242 11.79z" fill="#e27500" data-original="#e27500"></path><path d="m301.5 410h-102c-2.761 0-5-2.239-5-5v-30c0-2.761 2.239-5 5-5h102c2.761 0 5 2.239 5 5v30c0 2.761-2.239 5-5 5z" fill="#f5c02c" data-original="#f5c02c"></path><path d="m250.5 340c-11.046 0-20-8.954-20-20v-110c0-11.046 8.954-20 20-20 11.046 0 20 8.954 20 20v110c0 11.046-8.954 20-20 20z" fill="#f57e00" data-original="#f57e00"></path><path d="m346.5 450c0 11.046-8.954 20-20 20h-152c-11.046 0-20-8.954-20-20 0-11.046 8.954-20 20-20h152c11.046 0 20 8.954 20 20z" fill="#ecb700" data-original="#ecb700"></path><path d="m346.5 450c0 11.046-8.954 20-20 20h-112c-11.046 0-20-8.954-20-20 0-11.046 8.954-20 20-20h112c11.046 0 20 8.954 20 20z" fill="#f1ca50" data-original="#f1ca50"></path><path d="m246.619 290.6-84.992 31.501c-7.475 2.771-15.362-2.96-15.037-10.925l3.695-90.566c.109-2.668-.742-5.287-2.398-7.381l-56.223-71.099c-4.945-6.253-1.933-15.525 5.744-17.678l87.276-24.472c2.571-.721 4.799-2.339 6.279-4.562l50.244-75.442c4.419-6.635 14.168-6.635 18.587 0l50.244 75.442c1.48 2.223 3.708 3.841 6.279 4.562l87.276 24.472c7.676 2.152 10.689 11.424 5.744 17.678l-56.223 71.098c-1.656 2.095-2.507 4.713-2.398 7.381l3.695 90.566c.325 7.966-7.562 13.696-15.037 10.925l-84.993-31.5c-2.504-.928-5.258-.928-7.762 0z" fill="#fd9d01" data-original="#fd9d01"></path><path d="m354.41 311.176c.325 7.966-7.562 13.696-15.038 10.925l-84.991-31.501c-2.504-.928-5.258-.928-7.761 0l-84.992 31.501c-7.475 2.771-15.362-2.96-15.037-10.925l3.695-90.567c.109-2.668-.742-5.287-2.398-7.381l-56.224-71.098c-4.945-6.253-1.933-15.525 5.744-17.678l72.484-20.324c30.496 79.249 98.674 139.794 182.586 159.681z" fill="#f57e00" data-original="#f57e00"></path><path d="m294.97 256.809h-88.94c-5.523 0-10-4.477-10-10v-98.843c0-5.523 4.477-10 10-10h88.939c5.523 0 10 4.477 10 10v98.843c.001 5.523-4.477 10-9.999 10z" fill="#ecb700" data-original="#ecb700"></path><path d="m294.97 256.809h-58.803c-5.523 0-10-4.477-10-10v-98.843c0-5.523 4.477-10 10-10h58.803c5.523 0 10 4.477 10 10v98.843c0 5.523-4.478 10-10 10z" fill="#f1ca50" data-original="#f1ca50"></path><path d="m425.463 127.118c-2.711-8.344-9.372-14.74-17.82-17.109l-85.908-24.088-49.456-74.26c-4.865-7.302-13.006-11.661-21.779-11.661s-16.914 4.359-21.778 11.662l-49.456 74.259-85.908 24.088c-8.448 2.369-15.109 8.766-17.82 17.109-2.711 8.345-1.081 17.436 4.361 24.315l55.341 69.983-3.637 89.146c-.358 8.767 3.666 17.078 10.763 22.235 7.098 5.157 16.248 6.415 24.476 3.367l83.659-31.008 83.659 31.008c2.963 1.098 6.044 1.637 9.107 1.637 5.442 0 10.825-1.704 15.368-5.004 7.097-5.157 11.121-13.469 10.763-22.234l-3.637-89.147 55.341-69.982c5.442-6.88 7.072-15.971 4.361-24.316zm-84.116 76.806c-3.88 4.907-5.875 11.051-5.619 17.297l3.46 84.814-79.595-29.501c-5.863-2.172-12.322-2.172-18.186 0l-79.595 29.501 3.46-84.812c.256-6.249-1.739-12.393-5.62-17.3l-52.652-66.582 81.731-22.917c6.022-1.688 11.249-5.484 14.715-10.69l47.054-70.652 47.053 70.651c3.467 5.206 8.693 9.003 14.714 10.69l81.733 22.918z" fill="#f1ca50" data-original="#f1ca50"></path><path d="m244.5 410h-30l10-40h30zm50-40h-20l-10 40h20z" fill="#f3d373" data-original="#f3d373"></path><path d="m279.222 133.722v21.222c0 4.142-3.358 7.5-7.5 7.5s-7.5-3.358-7.5-7.5v-21.222c0-7.566-6.155-13.722-13.722-13.722s-13.722 6.155-13.722 13.722v21.222c0 4.142-3.358 7.5-7.5 7.5s-7.5-3.358-7.5-7.5v-21.222c0-15.837 12.885-28.722 28.722-28.722s28.722 12.884 28.722 28.722zm146.241-6.604c-2.711-8.344-9.372-14.74-17.82-17.109l-85.908-24.088-49.456-74.26c-4.865-7.302-13.006-11.661-21.779-11.661s-16.914 4.359-21.778 11.662l-49.456 74.259-9.606 2.693c-11.044 3.097-14.667 16.939-6.557 25.05 3.833 3.833 9.437 5.3 14.656 3.836l10.972-3.076c6.022-1.688 11.249-5.484 14.715-10.69l47.054-70.652 47.053 70.651c3.467 5.206 8.693 9.003 14.714 10.69l81.733 22.918-52.653 66.583c-3.88 4.907-5.875 11.051-5.619 17.297l.995 24.391c.328 8.04 6.941 14.389 14.988 14.389 8.524 0 15.335-7.094 14.988-15.612l-.937-22.971 55.341-69.982c5.441-6.882 7.071-15.973 4.36-24.318z" fill="#f5dc90" data-original="#f5dc90"></path><path d="m217.864 196.908-10.283 3.696c-1.154.415-2.062 1.323-2.477 2.477l-3.696 10.283c-1.303 3.625-6.43 3.625-7.733 0l-3.696-10.283c-.415-1.154-1.323-2.062-2.477-2.477l-10.283-3.696c-3.625-1.303-3.625-6.43 0-7.733l10.283-3.696c1.154-.415 2.062-1.323 2.477-2.477l3.696-10.283c1.303-3.625 6.43-3.625 7.733 0l3.696 10.283c.415 1.154 1.323 2.062 2.477 2.477l10.283 3.696c3.625 1.303 3.625 6.43 0 7.733zm49.396 179.187-10.283-3.696c-1.154-.415-2.062-1.323-2.477-2.477l-3.696-10.283c-1.303-3.625-6.43-3.625-7.733 0l-3.696 10.283c-.415 1.154-1.323 2.062-2.477 2.477l-10.283 3.696c-3.625 1.303-3.625 6.43 0 7.733l10.283 3.696c1.154.415 2.062 1.323 2.477 2.477l3.696 10.283c1.303 3.625 6.43 3.625 7.733 0l3.696-10.284c.415-1.154 1.323-2.062 2.477-2.477l10.283-3.696c3.625-1.303 3.625-6.43 0-7.732zm80.013-302.759-12.515-4.498c-1.404-.505-2.51-1.61-3.014-3.014l-4.498-12.515c-1.585-4.412-7.825-4.412-9.411 0l-4.498 12.515c-.505 1.404-1.61 2.51-3.014 3.014l-12.515 4.498c-4.412 1.585-4.412 7.825 0 9.411l12.515 4.498c1.404.505 2.51 1.61 3.014 3.014l4.498 12.515c1.585 4.412 7.825 4.412 9.411 0l4.498-12.515c.505-1.404 1.61-2.51 3.014-3.014l12.515-4.498c4.413-1.586 4.413-7.826 0-9.411z" fill="#f9eecf" data-original="#f9eecf"></path></g></g></svg>