<svg xmlns="http://www.w3.org/2000/svg" version="1.1" xmlns:xlink="http://www.w3.org/1999/xlink" xmlns:svgjs="http://svgjs.com/svgjs" width="512" height="512" x="0" y="0" viewBox="0 0 512 512" style="enable-background:new 0 0 512 512" xml:space="preserve" class=""><g>
<circle xmlns="http://www.w3.org/2000/svg" style="" cx="256" cy="256" r="256" fill="#ea8953" data-original="#ea8953" class=""></circle>
<path xmlns="http://www.w3.org/2000/svg" style="opacity:0.1;enable-background:new    ;" d="M310.133,106.667v33.386l-33.386-33.386h-41.494v33.386l-33.386-33.386  h-41.493v41.493l20.107,20.107h-20.107v41.547l20.107,20.106h-20.107v41.494l20.107,20.106h-20.107v41.494l168.423,168.423  c102.617-30.393,178.319-123.326,182.931-234.669L351.627,106.667H310.133z" fill="#000000" data-original="#000000"></path>
<rect xmlns="http://www.w3.org/2000/svg" x="160.375" y="106.667" style="" width="41.509" height="41.509" fill="#44c4a1" data-original="#44c4a1"></rect>
<rect xmlns="http://www.w3.org/2000/svg" x="235.25" y="106.667" style="" width="41.509" height="41.509" fill="#27a2db" data-original="#27a2db"></rect>
<rect xmlns="http://www.w3.org/2000/svg" x="310.135" y="106.667" style="" width="41.509" height="41.509" fill="#e56353" data-original="#e56353"></rect>
<rect xmlns="http://www.w3.org/2000/svg" x="160.375" y="168.292" style="" width="41.509" height="41.509" fill="#27a2db" data-original="#27a2db"></rect>
<rect xmlns="http://www.w3.org/2000/svg" x="235.25" y="168.292" style="" width="41.509" height="41.509" fill="#e56353" data-original="#e56353"></rect>
<rect xmlns="http://www.w3.org/2000/svg" x="310.135" y="168.292" style="" width="41.509" height="41.509" fill="#44c4a1" data-original="#44c4a1"></rect>
<rect xmlns="http://www.w3.org/2000/svg" x="160.375" y="229.917" style="" width="41.509" height="41.509" fill="#f6c358" data-original="#f6c358"></rect>
<rect xmlns="http://www.w3.org/2000/svg" x="235.25" y="229.917" style="" width="41.509" height="41.509" fill="#64798a" data-original="#64798a"></rect>
<rect xmlns="http://www.w3.org/2000/svg" x="310.135" y="229.917" style="" width="41.509" height="41.509" fill="#dc8744" data-original="#dc8744"></rect>
<rect xmlns="http://www.w3.org/2000/svg" x="160.375" y="291.521" style="" width="41.509" height="41.509" fill="#44c4a1" data-original="#44c4a1"></rect>
<rect xmlns="http://www.w3.org/2000/svg" x="235.25" y="291.521" style="" width="41.509" height="41.509" fill="#e56353" data-original="#e56353"></rect>
<rect xmlns="http://www.w3.org/2000/svg" x="310.135" y="291.521" style="" width="41.509" height="41.509" fill="#27a2db" data-original="#27a2db"></rect>
<path xmlns="http://www.w3.org/2000/svg" style="" d="M333.879,248.138c-2.697,0-5.212,0.726-7.375,1.969v-1.381c0-7.746-6.279-14.025-14.025-14.025  c-3.597,0-6.868,1.366-9.35,3.593v-1.589c0-7.746-6.279-14.025-14.025-14.025c-4.475,0-8.452,2.103-11.02,5.368v-39.762  c0-7.746-6.279-14.025-14.025-14.025s-14.025,6.279-14.025,14.025v95.869c-4.861-8.506-12.583-17.188-21.642-20.935  c-2.432-1.006-5.003-1.804-7.635-1.797c-2.632,0.007-5.349,0.906-7.12,2.853c-2.505,2.754-2.626,7.013-1.475,10.554  c1.151,3.541,3.363,6.62,5.171,9.875c4.249,7.648,6.279,18.114,8.903,26.459c2.624,8.346,6.066,16.774,12.404,22.805  c2.903,2.763,6.322,4.927,9.338,7.567c4.57,3.998,8.178,9.085,10.442,14.72h60.974h11.383c11.953-10.127,15.454-34.471,17.592-61.11  v-32.979C348.367,254.417,341.88,248.138,333.879,248.138z" fill="#f6c358" data-original="#f6c358"></path>
<rect xmlns="http://www.w3.org/2000/svg" x="244.729" y="355.146" style="" width="97.594" height="50.177" fill="#44c4a1" data-original="#44c4a1"></rect>
<circle xmlns="http://www.w3.org/2000/svg" style="" cx="325.542" cy="380.271" r="8.672" fill="#31978c" data-original="#31978c"></circle>
<g xmlns="http://www.w3.org/2000/svg">
</g>
<g xmlns="http://www.w3.org/2000/svg">
</g>
<g xmlns="http://www.w3.org/2000/svg">
</g>
<g xmlns="http://www.w3.org/2000/svg">
</g>
<g xmlns="http://www.w3.org/2000/svg">
</g>
<g xmlns="http://www.w3.org/2000/svg">
</g>
<g xmlns="http://www.w3.org/2000/svg">
</g>
<g xmlns="http://www.w3.org/2000/svg">
</g>
<g xmlns="http://www.w3.org/2000/svg">
</g>
<g xmlns="http://www.w3.org/2000/svg">
</g>
<g xmlns="http://www.w3.org/2000/svg">
</g>
<g xmlns="http://www.w3.org/2000/svg">
</g>
<g xmlns="http://www.w3.org/2000/svg">
</g>
<g xmlns="http://www.w3.org/2000/svg">
</g>
<g xmlns="http://www.w3.org/2000/svg">
</g>
</g></svg>