<svg xmlns="http://www.w3.org/2000/svg" version="1.1" xmlns:xlink="http://www.w3.org/1999/xlink" xmlns:svgjs="http://svgjs.com/svgjs" width="512" height="512" x="0" y="0" viewBox="0 0 512 512" style="enable-background:new 0 0 512 512" xml:space="preserve" class=""><g>
<g xmlns="http://www.w3.org/2000/svg">
	<circle style="" cx="256" cy="256" r="256" fill="#537983" data-original="#537983" class=""></circle>
	<path style="" d="M512,256c0-10.904-0.687-21.648-2.01-32.194l-75.711-75.711l-41.012,41.012l16,16l-17.679,17.679   l-32.656-32.656L219.25,272.75L116.154,169.074l-29.415,29.415l21.398,21.398l-16.477,16.477l40.292,40.292l-40.042,40.042   l35.5,35.5l-32.042,32.042l125.326,125.326C232.238,511.158,244.02,512,256,512C397.385,512,512,397.385,512,256z" fill="#3e5959" data-original="#3e5959"></path>
	<g>
		<g>
			<polygon style="" points="313.904,242.397 358.956,190.136 291.799,174.324 255.451,172.524 256,223.582      284.952,254.797    " fill="#ff9100" data-original="#ff9100"></polygon>
			<polygon style="" points="256,284.467 319.622,311.151 313.904,242.397 256,223.582 234.193,259.274    " fill="#fdbf00" data-original="#fdbf00"></polygon>
			<polygon style="" points="220.201,174.324 153.044,190.136 198.096,242.397 224.189,255.725 256,223.582      241.568,181.917    " fill="#fdbf00" data-original="#fdbf00"></polygon>
			<polygon style="" points="256,115.333 220.201,174.324 256,223.582 291.799,174.324    " fill="#ffda2d" data-original="#ffda2d"></polygon>
			<polygon style="" points="198.096,242.397 192.378,311.151 256,284.467 256,223.582    " fill="#ffda2d" data-original="#ffda2d"></polygon>
		</g>
		<polygon style="" points="256,223.582 291.799,174.324 256,115.333   " fill="#fdbf00" data-original="#fdbf00"></polygon>
		<g>
			<path style="" d="M397.311,245.171C392.295,324.768,330.145,387.136,256,387.136     c-78.07,0-141.747-68.475-141.747-152.651h21.807c0,72.182,53.863,130.844,119.94,130.844     c62.805,0,115.36-53.428,119.722-121.467L397.311,245.171z" fill="#7fe881" data-original="#7fe881"></path>
		</g>
		<path style="" d="M397.311,245.171C392.295,324.768,330.145,387.136,256,387.136v-21.807    c62.805,0,115.36-53.428,119.722-121.467L397.311,245.171z" fill="#5bc980" data-original="#5bc980"></path>
		<g>
			<path style="" d="M379.954,259.2l-3.599-10.297c-13.864-39.728,7.904-83.332,47.621-97.217l10.297-3.588     l3.599,10.286c13.933,39.923-7.872,83.351-47.632,97.228L379.954,259.2z" fill="#5bc980" data-original="#5bc980"></path>
		</g>
		<g>
			<path style="" d="M365.036,339.887h-10.904v-10.904c0-42.081,34.971-76.325,77.052-76.325h10.904v10.904     C442.089,305.643,407.117,339.887,365.036,339.887z" fill="#5bc980" data-original="#5bc980"></path>
		</g>
		<g>
			<path style="" d="M301.574,371.569l-6.24-8.934l8.944-6.25c16.707-11.67,37.002-16.132,57.042-12.575     c20.072,3.567,37.556,14.737,49.237,31.454l6.24,8.934l-8.944,6.25C373.245,414.592,325.634,406.01,301.574,371.569z" fill="#5bc980" data-original="#5bc980"></path>
		</g>
		<g>
			<path style="" d="M132.021,259.2l-10.297-3.588c-39.728-13.885-61.495-57.489-47.621-97.228l3.599-10.286     l10.297,3.588c39.717,13.885,61.485,57.489,47.621,97.217L132.021,259.2z" fill="#7fe881" data-original="#7fe881"></path>
		</g>
		<g>
			<path style="" d="M104.148,390.448l-8.944-6.25l6.24-8.934c11.681-16.717,29.165-27.887,49.237-31.454     c20.061-3.567,40.324,0.905,57.042,12.575l8.944,6.25l-6.24,8.934C186.35,406.015,138.713,414.591,104.148,390.448z" fill="#7fe881" data-original="#7fe881"></path>
		</g>
		<g>
			<path style="" d="M157.867,339.887h-10.904c-42.081,0-77.052-34.244-77.052-76.325v-10.904h10.904     c42.081,0,77.052,34.244,77.052,76.325V339.887z" fill="#7fe881" data-original="#7fe881"></path>
		</g>
		<path style="" d="M310.518,419.847v10.904h-21.807v-10.904c0-18.1-14.61-32.711-32.711-32.711    s-32.711,14.61-32.711,32.711v10.904h-21.807v-10.904c0-30.094,24.424-54.518,54.518-54.518S310.518,389.753,310.518,419.847z" fill="#7fe881" data-original="#7fe881"></path>
		<path style="" d="M310.518,419.847v10.904h-21.807v-10.904c0-18.1-14.61-32.711-32.711-32.711v-21.807    C286.094,365.329,310.518,389.753,310.518,419.847z" fill="#5bc980" data-original="#5bc980"></path>
	</g>
</g>















</g></svg>