<svg xmlns="http://www.w3.org/2000/svg" version="1.1" xmlns:xlink="http://www.w3.org/1999/xlink" xmlns:svgjs="http://svgjs.com/svgjs" width="512" height="512" x="0" y="0" viewBox="0 0 512 512" style="enable-background:new 0 0 512 512" xml:space="preserve" class=""><g><g xmlns="http://www.w3.org/2000/svg"><path d="m404.056 454.184c53.171-44.942 86.947-112.114 86.947-187.186 0-135.311-109.691-245.002-245.002-245.002-135.311 0-245.002 109.691-245.002 245.002 0 53.838 17.379 103.609 46.814 144.039z" fill="#73c3f9" data-original="#73c3f9"></path><path d="m401.032 245.752c-55.747-20.678-92.521-74.197-92.521-134.288v-40.78h-232.894c-15.798 0-28.604 12.806-28.604 28.604v310.652c7.59 10.547 15.998 20.465 25.13 29.664l309.698 31.288c8.1-5.408 15.868-11.275 23.249-17.583v-206.828c-1.374-.001-2.749-.243-4.058-.729z" fill="#e9efff" data-original="#e9efff"></path><path d="m171.508 70.684h-95.891c-15.798 0-28.604 12.806-28.604 28.604v310.652c7.59 10.547 15.998 20.465 25.13 29.664l99.364 10.039v-358.301c-11.183-11.184.001-20.658.001-20.658z" fill="#bec8f7" data-original="#bec8f7"></path><path d="m308.512 111.464v-12.176h-222.572c-5.701 0-10.323 4.622-10.323 10.323v64.251c0 5.702 4.622 10.323 10.323 10.323h242.099c-12.523-21.535-19.527-46.501-19.527-72.721z" fill="#3c58a0" data-original="#3c58a0"></path><circle cx="291.273" cy="141.736" fill="#ffdd40" r="13.845" data-original="#ffdd40"></circle><circle cx="249.712" cy="141.736" fill="#ff7186" r="13.845" data-original="#ff7186"></circle><circle cx="293.74" cy="139.326" fill="#ffe98d" r="6.138" data-original="#ffe98d"></circle><circle cx="252.139" cy="139.326" fill="#fc90a5" r="6.138" data-original="#fc90a5"></circle><path d="m328.039 184.185h-242.099c-5.701 0-10.323 4.622-10.323 10.323v64.251c0 5.702 4.622 10.323 10.323 10.323h280.224c5.701 0 10.323-4.621 10.323-10.323v-24.929c-20.177-12.351-36.729-29.495-48.448-49.645z" fill="#3c58a0" data-original="#3c58a0"></path><ellipse cx="291.273" cy="226.633" fill="#ffdd40" rx="13.845" ry="13.845" transform="matrix(.228 -.974 .974 .228 4.104 458.444)" data-original="#ffdd40"></ellipse><ellipse cx="249.712" cy="226.633" fill="#ff7186" rx="13.845" ry="13.845" transform="matrix(.228 -.974 .974 .228 -27.964 417.982)" data-original="#ff7186"></ellipse><ellipse cx="332.833" cy="226.633" fill="#4fabf7" rx="13.845" ry="13.845" transform="matrix(.1 -.995 .995 .1 74.062 535.143)" data-original="#4fabf7"></ellipse><path d="m341.878 224.223c0 3.39-2.748 6.138-6.138 6.138s-6.138-2.748-6.138-6.138 2.748-6.138 6.138-6.138c3.39.001 6.138 2.749 6.138 6.138z" fill="#73c3f9" data-original="#73c3f9"></path><path d="m299.878 224.223c0 3.39-2.748 6.138-6.138 6.138s-6.138-2.748-6.138-6.138 2.748-6.138 6.138-6.138c3.39.001 6.138 2.749 6.138 6.138z" fill="#ffe98d" data-original="#ffe98d"></path><path d="m258.276 224.223c0 3.39-2.748 6.138-6.138 6.138s-6.138-2.748-6.138-6.138 2.748-6.138 6.138-6.138 6.138 2.749 6.138 6.138z" fill="#fc90a5" data-original="#fc90a5"></path><path d="m366.164 269.082h-280.224c-5.701 0-10.323 4.622-10.323 10.323v64.251c0 5.701 4.622 10.323 10.323 10.323h280.224c5.701 0 10.323-4.622 10.323-10.323v-64.251c0-5.702-4.622-10.323-10.323-10.323z" fill="#3c58a0" data-original="#3c58a0"></path><path d="m366.164 353.979h-280.224c-5.701 0-10.323 4.622-10.323 10.323v64.251c0 5.701 4.622 10.323 10.323 10.323h280.224c5.701 0 10.323-4.622 10.323-10.323v-64.251c0-5.702-4.622-10.323-10.323-10.323z" fill="#3c58a0" data-original="#3c58a0"></path><g fill="#2a428c"><path d="m171.231 177.776c0-1.82-.791-3.536-2.132-4.767-8.454-7.758-13.759-18.894-13.759-31.273 0-12.379 5.305-23.514 13.759-31.273 1.341-1.231 2.132-2.947 2.132-4.767 0-3.539-2.869-6.409-6.408-6.409h-78.884c-1.974 0-3.813.565-5.381 1.526v81.844c1.569.962 3.407 1.526 5.382 1.526h85.291z" fill="#2a428c" data-original="#2a428c"></path><path d="m171.231 262.673c0-1.82-.791-3.536-2.132-4.767-8.454-7.758-13.759-18.894-13.759-31.273 0-12.379 5.305-23.514 13.759-31.273 1.341-1.231 2.132-2.947 2.132-4.767v-6.408h-85.291c-1.975 0-3.814.564-5.382 1.526v81.844c1.569.962 3.407 1.526 5.382 1.526h85.291z" fill="#2a428c" data-original="#2a428c"></path><path d="m169.098 280.257c1.341-1.231 2.132-2.947 2.132-4.767v-6.408h-85.29c-1.975 0-3.814.564-5.382 1.526v81.844c1.569.962 3.407 1.527 5.382 1.527h85.291v-6.408c0-1.82-.791-3.536-2.132-4.767-8.454-7.759-13.759-18.894-13.759-31.273 0-12.38 5.304-23.515 13.758-31.274z" fill="#2a428c" data-original="#2a428c"></path><path d="m169.098 365.154c1.341-1.231 2.132-2.947 2.132-4.767v-6.408h-85.29c-1.975 0-3.814.564-5.382 1.526v81.844c1.569.962 3.407 1.526 5.382 1.526h78.883-.001c3.539 0 6.408-2.869 6.408-6.409 0-1.82-.791-3.536-2.132-4.767-8.454-7.758-13.759-18.893-13.759-31.272.001-12.379 5.305-23.514 13.759-31.273z" fill="#2a428c" data-original="#2a428c"></path></g><path d="m366.164 438.875h-280.224c-3.912 0-7.315 2.176-9.066 5.384 43.974 41.969 103.541 67.741 169.127 67.741 47.966 0 92.704-13.796 130.486-37.619v-25.182c0-5.702-4.622-10.324-10.323-10.324z" fill="#3c58a0" data-original="#3c58a0"></path><path d="m80.558 440.392v7.302c22.346 20.471 48.499 36.847 77.277 47.952-1.607-4.476-2.495-9.293-2.495-14.322 0-12.379 5.305-23.514 13.759-31.273 1.341-1.231 2.132-2.947 2.132-4.767 0-3.539-2.869-6.408-6.408-6.408h-78.883c-1.973-.001-3.815.556-5.382 1.516z" fill="#2a428c" data-original="#2a428c"></path><path d="m305.117 481.324c0 7.646-6.199 13.845-13.845 13.845s-13.845-6.198-13.845-13.845c0-7.646 6.198-13.844 13.845-13.844 7.647-.001 13.845 6.198 13.845 13.844z" fill="#ffdd40" data-original="#ffdd40"></path><path d="m263.557 481.324c0 7.646-6.198 13.845-13.845 13.845-7.646 0-13.845-6.198-13.845-13.845 0-7.646 6.199-13.844 13.845-13.844 7.646-.001 13.845 6.198 13.845 13.844z" fill="#ff7186" data-original="#ff7186"></path><path d="m346.678 481.324c0 7.646-6.199 13.845-13.845 13.845s-13.844-6.198-13.844-13.845c0-7.646 6.198-13.844 13.844-13.844 7.646-.001 13.845 6.198 13.845 13.844z" fill="#4fabf7" data-original="#4fabf7"></path><circle cx="335.74" cy="478.914" fill="#73c3f9" r="6.138" data-original="#73c3f9"></circle><circle cx="293.74" cy="478.914" fill="#ffe98d" r="6.138" data-original="#ffe98d"></circle><circle cx="252.139" cy="478.914" fill="#fc90a5" r="6.138" data-original="#fc90a5"></circle><g><path d="m111.837 158.668c-4.388 0-7.946-3.557-7.946-7.945v-17.973c0-4.389 3.557-7.946 7.946-7.946 4.388 0 7.945 3.557 7.945 7.946v17.973c.001 4.389-3.557 7.945-7.945 7.945z" fill="#1c2e7a" data-original="#1c2e7a"></path></g><g><path d="m141.202 158.668c-4.388 0-7.945-3.557-7.945-7.945v-17.973c0-4.389 3.557-7.946 7.945-7.946s7.945 3.557 7.945 7.946v17.973c.001 4.389-3.557 7.945-7.945 7.945z" fill="#1c2e7a" data-original="#1c2e7a"></path></g><g><path d="m170.567 158.668c-4.388 0-7.945-3.557-7.945-7.945v-17.973c0-4.389 3.557-7.946 7.945-7.946s7.945 3.557 7.945 7.946v17.973c.001 4.389-3.557 7.945-7.945 7.945z" fill="#1c2e7a" data-original="#1c2e7a"></path></g><g><path d="m199.932 158.668c-4.388 0-7.945-3.557-7.945-7.945v-17.973c0-4.389 3.557-7.946 7.945-7.946s7.946 3.557 7.946 7.946v17.973c0 4.389-3.558 7.945-7.946 7.945z" fill="#1c2e7a" data-original="#1c2e7a"></path></g><g><path d="m111.837 243.565c-4.388 0-7.946-3.557-7.946-7.945v-17.973c0-4.389 3.557-7.945 7.946-7.945 4.388 0 7.945 3.557 7.945 7.945v17.973c.001 4.389-3.557 7.945-7.945 7.945z" fill="#1c2e7a" data-original="#1c2e7a"></path></g><g><path d="m141.202 243.565c-4.388 0-7.945-3.557-7.945-7.945v-17.973c0-4.389 3.557-7.945 7.945-7.945s7.945 3.557 7.945 7.945v17.973c.001 4.389-3.557 7.945-7.945 7.945z" fill="#1c2e7a" data-original="#1c2e7a"></path></g><g><path d="m170.567 243.565c-4.388 0-7.945-3.557-7.945-7.945v-17.973c0-4.389 3.557-7.945 7.945-7.945s7.945 3.557 7.945 7.945v17.973c.001 4.389-3.557 7.945-7.945 7.945z" fill="#1c2e7a" data-original="#1c2e7a"></path></g><g><path d="m199.932 243.565c-4.388 0-7.945-3.557-7.945-7.945v-17.973c0-4.389 3.557-7.945 7.945-7.945s7.946 3.557 7.946 7.945v17.973c0 4.389-3.558 7.945-7.946 7.945z" fill="#1c2e7a" data-original="#1c2e7a"></path></g><g><path d="m111.837 328.462c-4.388 0-7.946-3.557-7.946-7.945v-17.973c0-4.389 3.557-7.945 7.946-7.945 4.388 0 7.945 3.557 7.945 7.945v17.973c.001 4.388-3.557 7.945-7.945 7.945z" fill="#1c2e7a" data-original="#1c2e7a"></path></g><g><path d="m141.202 328.462c-4.388 0-7.945-3.557-7.945-7.945v-17.973c0-4.389 3.557-7.945 7.945-7.945s7.945 3.557 7.945 7.945v17.973c.001 4.388-3.557 7.945-7.945 7.945z" fill="#1c2e7a" data-original="#1c2e7a"></path></g><g><path d="m170.567 328.462c-4.388 0-7.945-3.557-7.945-7.945v-17.973c0-4.389 3.557-7.945 7.945-7.945s7.945 3.557 7.945 7.945v17.973c.001 4.388-3.557 7.945-7.945 7.945z" fill="#1c2e7a" data-original="#1c2e7a"></path></g><g><path d="m199.932 328.462c-4.388 0-7.945-3.557-7.945-7.945v-17.973c0-4.389 3.557-7.945 7.945-7.945s7.946 3.557 7.946 7.945v17.973c0 4.388-3.558 7.945-7.946 7.945z" fill="#1c2e7a" data-original="#1c2e7a"></path></g><g><path d="m111.837 413.359c-4.388 0-7.946-3.557-7.946-7.945v-17.973c0-4.389 3.557-7.946 7.946-7.946 4.388 0 7.945 3.557 7.945 7.946v17.973c.001 4.388-3.557 7.945-7.945 7.945z" fill="#1c2e7a" data-original="#1c2e7a"></path></g><g><path d="m141.202 413.359c-4.388 0-7.945-3.557-7.945-7.945v-17.973c0-4.389 3.557-7.946 7.945-7.946s7.945 3.557 7.945 7.946v17.973c.001 4.388-3.557 7.945-7.945 7.945z" fill="#1c2e7a" data-original="#1c2e7a"></path></g><g><path d="m170.567 413.359c-4.388 0-7.945-3.557-7.945-7.945v-17.973c0-4.389 3.557-7.946 7.945-7.946s7.945 3.557 7.945 7.946v17.973c.001 4.388-3.557 7.945-7.945 7.945z" fill="#1c2e7a" data-original="#1c2e7a"></path></g><g><path d="m199.932 413.359c-4.388 0-7.945-3.557-7.945-7.945v-17.973c0-4.389 3.557-7.946 7.945-7.946s7.946 3.557 7.946 7.946v17.973c0 4.388-3.558 7.945-7.946 7.945z" fill="#1c2e7a" data-original="#1c2e7a"></path></g><path d="m111.837 464.392c-2.639 0-4.971 1.292-6.416 3.272 4.671 3.278 9.459 6.401 14.361 9.353v-4.679c.001-4.389-3.557-7.946-7.945-7.946z" fill="#1c2e7a" data-original="#1c2e7a"></path><path d="m141.202 464.392c-4.388 0-7.945 3.557-7.945 7.946v12.222c5.131 2.664 10.368 5.15 15.703 7.453.12-.549.188-1.118.188-1.704v-17.971c0-4.389-3.558-7.946-7.946-7.946z" fill="#1c2e7a" data-original="#1c2e7a"></path><g><path d="m170.567 498.255c-4.388 0-7.945-3.557-7.945-7.945v-17.972c0-4.389 3.557-7.945 7.945-7.945s7.945 3.557 7.945 7.945v17.972c.001 4.388-3.557 7.945-7.945 7.945z" fill="#1c2e7a" data-original="#1c2e7a"></path></g><g><path d="m199.932 498.255c-4.388 0-7.945-3.557-7.945-7.945v-17.972c0-4.389 3.557-7.945 7.945-7.945s7.946 3.557 7.946 7.945v17.972c0 4.388-3.558 7.945-7.946 7.945z" fill="#1c2e7a" data-original="#1c2e7a"></path></g><path d="m368.541 258.758c0 1.312-1.067 2.379-2.377 2.379h-280.224c-1.311 0-2.377-1.067-2.377-2.379v-64.251c0-1.311 1.067-2.376 2.377-2.376h237.014c-3.148-5.115-5.994-10.421-8.526-15.891h-228.488c-1.311 0-2.377-1.067-2.377-2.378v-64.25c0-1.312 1.067-2.378 2.377-2.378h214.24v-15.892h-214.24c-10.073 0-18.268 8.196-18.268 18.27v64.25c0 3.829 1.189 7.384 3.211 10.323-2.021 2.94-3.211 6.493-3.211 10.322v64.251c0 3.83 1.189 7.384 3.211 10.324-2.022 2.939-3.211 6.494-3.211 10.323v64.251c0 3.83 1.189 7.384 3.211 10.323-2.022 2.939-3.211 6.493-3.211 10.323v64.251c0 3.205.842 6.211 2.299 8.832 4.363 4.506 8.897 8.843 13.592 13.005v-1.191c0-1.311 1.067-2.377 2.377-2.377h280.224c1.311 0 2.377 1.067 2.377 2.377v29.993c5.434-3.145 10.731-6.498 15.891-10.038v-19.955c0-3.829-1.189-7.384-3.211-10.323 2.022-2.939 3.211-6.494 3.211-10.323v-64.251c0-3.83-1.189-7.384-3.211-10.323 2.022-2.939 3.211-6.493 3.211-10.323v-64.251c0-3.829-1.19-7.384-3.211-10.323 2.022-2.94 3.211-6.494 3.211-10.324v-10.499c-5.516-2.725-10.821-5.76-15.891-9.091zm0 169.795c0 1.311-1.067 2.378-2.377 2.378h-280.224c-1.311 0-2.377-1.067-2.377-2.378v-64.251c0-1.311 1.067-2.378 2.377-2.378h280.224c1.311 0 2.377 1.067 2.377 2.378zm0-84.897c0 1.311-1.067 2.377-2.377 2.377h-280.224c-1.311 0-2.377-1.067-2.377-2.377v-64.251c0-1.311 1.067-2.377 2.377-2.377h280.224c1.311 0 2.377 1.067 2.377 2.377z" fill="#4b6bb2" data-original="#4b6bb2"></path><path d="m368.541 258.758c0 1.312-1.067 2.379-2.377 2.379h-280.224c-1.311 0-2.377-1.067-2.377-2.379v-64.251c0-1.311 1.067-2.376 2.377-2.376h237.014c-3.148-5.115-5.994-10.421-8.526-15.891h-228.488c-1.311 0-2.377-1.067-2.377-2.378v-64.25c0-1.312 1.067-2.378 2.377-2.378h214.24v-15.892h-214.24c-10.073 0-18.268 8.196-18.268 18.27v64.25c0 3.829 1.189 7.384 3.211 10.323-2.021 2.94-3.211 6.493-3.211 10.322v64.251c0 3.83 1.189 7.384 3.211 10.324-2.022 2.939-3.211 6.494-3.211 10.323v64.251c0 3.83 1.189 7.384 3.211 10.323-2.022 2.939-3.211 6.493-3.211 10.323v64.251c0 3.205.842 6.211 2.299 8.832 4.363 4.506 8.897 8.843 13.592 13.005v-1.191c0-1.311 1.067-2.377 2.377-2.377h280.224c1.311 0 2.377 1.067 2.377 2.377v29.993c5.434-3.145 10.731-6.498 15.891-10.038v-19.955c0-3.829-1.189-7.384-3.211-10.323 2.022-2.939 3.211-6.494 3.211-10.323v-64.251c0-3.83-1.189-7.384-3.211-10.323 2.022-2.939 3.211-6.493 3.211-10.323v-64.251c0-3.829-1.19-7.384-3.211-10.323 2.022-2.94 3.211-6.494 3.211-10.324v-10.499c-5.516-2.725-10.821-5.76-15.891-9.091zm0 169.795c0 1.311-1.067 2.378-2.377 2.378h-280.224c-1.311 0-2.377-1.067-2.377-2.378v-64.251c0-1.311 1.067-2.378 2.377-2.378h280.224c1.311 0 2.377 1.067 2.377 2.378zm0-84.897c0 1.311-1.067 2.377-2.377 2.377h-280.224c-1.311 0-2.377-1.067-2.377-2.377v-64.251c0-1.311 1.067-2.377 2.377-2.377h280.224c1.311 0 2.377 1.067 2.377 2.377z" fill="#4b6bb2" data-original="#4b6bb2"></path><path d="m499.109 56.063c-22.922-5.427-25.254-24.275-25.187-32.199.018-2.17-1.352-4.106-3.4-4.824-42.374-14.868-88.547-14.868-130.922 0-2.047.718-3.418 2.654-3.4 4.824.067 7.924-2.266 26.772-25.187 32.199-2.311.547-3.96 2.583-3.96 4.957v50.45c0 60.786 37.309 114.75 93.405 135.556 2.973 1.102 6.233 1.102 9.206 0 56.061-20.794 93.405-74.738 93.405-135.556v-50.45c-.001-2.374-1.65-4.41-3.96-4.957z" fill="#49d88b" data-original="#49d88b"></path><path d="m470.373 194.435c-.544-1.891-2.265-3.19-4.231-3.275-8.975-.388-11.931-6.085-12.898-10.059-.518-2.126-2.488-3.56-4.673-3.438-30.709 1.722-36.473-23.119-37.523-30.897-.217-1.61-.805-3.14-1.716-4.484l-19.267-28.407c0-1.004-.556-1.917-1.43-2.41-31.575-17.789-28.695-51.054-26.316-63.535.472-2.472-1.137-4.852-3.608-5.331-10.177-1.974-13.296-10.201-14.229-14.331-.325-1.438-1.372-2.566-2.731-3.14-2.409-1.017-3.838-2.526-4.656-4.172-.576.836-.905 1.842-.896 2.907.067 7.924-2.266 26.772-25.187 32.199-2.31.547-3.959 2.583-3.959 4.957v50.45c0 60.786 37.309 114.75 93.404 135.556 2.973 1.103 6.233 1.103 9.206 0 25.881-9.6 47.759-26.275 63.829-47.42-1.711-1.466-2.63-3.468-3.119-5.17z" fill="#38c674" data-original="#38c674"></path><g><path d="m397.701 254.463c-59.636-22.119-98.58-79.298-98.58-142.993v-50.45c0-6.06 4.138-11.273 10.063-12.676 15.912-3.767 19.16-15.356 19.084-24.413-.046-5.561 3.453-10.534 8.708-12.377 43.904-15.404 92.266-15.406 136.172.001 5.254 1.842 8.753 6.816 8.705 12.377-.076 9.056 3.173 20.645 19.083 24.412 5.926 1.404 10.064 6.617 10.064 12.676v50.45c0 64.169-39.363 121.028-98.579 142.993-4.745 1.76-9.972 1.761-14.72 0zm-82.715-191.235v48.243c0 56.587 34.383 108.145 88.231 128.118 1.188.442 2.499.442 3.69 0 52.953-19.643 88.23-70.552 88.23-128.118v-48.243c-25.077-7.031-28.736-28.219-29.112-37.348-39.395-13.357-82.533-13.357-121.927 0-.376 9.128-4.034 30.317-29.112 37.348z" fill="#73f9a9" data-original="#73f9a9"></path></g><path d="m470.373 194.435c-.241-.839-.724-1.552-1.347-2.103-15.329 21.147-36.675 37.818-62.12 47.257-1.191.442-2.502.442-3.69 0-53.847-19.972-88.231-71.53-88.231-128.118v-48.243c24.012-6.732 28.384-26.436 29.042-36.113-.503-.883-1.308-1.577-2.275-1.986-6.591-2.782-5.898-9.239-5.204-12.13.105-.435.134-.879.112-1.319-5.076 1.93-8.437 6.805-8.391 12.252.076 9.057-3.172 20.646-19.084 24.413-5.925 1.404-10.063 6.617-10.063 12.676v50.45c0 63.695 38.944 120.874 98.58 142.993 4.748 1.761 9.976 1.759 14.722 0 28.117-10.43 51.744-28.736 68.821-51.947-.702-.5-1.55-.818-2.472-.878-5.4-.349-7.547-4.238-8.4-7.204z" fill="#49d88b" data-original="#49d88b"></path><path d="m405.06 216.659c19.24-8.369 35.647-21.888 47.718-39.383 13.34-19.333 20.39-42.089 20.39-65.806v-34.003c-12.954-7.813-22.239-19.863-26.512-34.434-27.233-6.945-55.959-6.945-83.193 0-4.273 14.571-13.558 26.621-26.511 34.434v34.004c0 23.712 7.047 46.464 20.38 65.795 12.071 17.498 28.482 31.021 47.728 39.393z" fill="#38c674" data-original="#38c674"></path><path d="m451.744 178.723c-.863-.719-1.982-1.127-3.174-1.06-30.709 1.722-36.473-23.119-37.523-30.897-.217-1.61-.805-3.14-1.716-4.484l-19.267-28.407c0-1.004-.556-1.917-1.43-2.41-31.574-17.789-28.694-51.054-26.315-63.535.096-.502.085-.996.02-1.475-4.659 13.033-13.462 23.82-25.386 31.012v34.004c0 23.712 7.047 46.464 20.38 65.795 12.07 17.5 28.481 31.023 47.727 39.395 18.702-8.137 34.716-21.149 46.684-37.938z" fill="#24b55e" data-original="#24b55e"></path><g><path d="m394.12 146.22-19.014-19.014c-4.13-4.13-4.13-10.828 0-14.958s10.828-4.13 14.958 0l11.535 11.535 21.939-21.939c4.13-4.13 10.827-4.13 14.958 0 4.13 4.131 4.131 10.828 0 14.958l-29.418 29.419c-4.129 4.127-10.828 4.128-14.958-.001z" fill="#e9efff" data-original="#e9efff"></path></g><g><path d="m163.562 438.876c0-4.388 3.557-7.945 7.945-7.945h-85.567c-1.311 0-2.377-1.067-2.377-2.378v-64.251c0-1.311 1.067-2.378 2.377-2.378h85.568c-4.388 0-7.945-3.557-7.945-7.946 0-4.388 3.557-7.946 7.945-7.946h-85.568c-1.311 0-2.377-1.067-2.377-2.377v-64.251c0-1.311 1.067-2.377 2.377-2.377h85.568c-4.388 0-7.945-3.557-7.945-7.946 0-4.388 3.557-7.945 7.945-7.945h-85.568c-1.311 0-2.377-1.067-2.377-2.379v-64.251c0-1.311 1.067-2.376 2.377-2.376h85.568c-4.388 0-7.945-3.557-7.945-7.945v-.001c0-4.388 3.557-7.945 7.945-7.945h-85.568c-1.311 0-2.377-1.067-2.377-2.378v-64.25c0-1.312 1.067-2.378 2.377-2.378h85.568c-4.388 0-7.945-3.557-7.945-7.945v-.001c0-4.388 3.557-7.945 7.945-7.945h-85.568c-10.073 0-18.268 8.196-18.268 18.27v64.25c0 3.829 1.189 7.384 3.211 10.323-2.021 2.94-3.211 6.493-3.211 10.322v64.251c0 3.83 1.189 7.384 3.211 10.324-2.022 2.939-3.211 6.494-3.211 10.323v64.251c0 3.83 1.189 7.384 3.211 10.323-2.022 2.939-3.211 6.493-3.211 10.323v64.251c0 3.205.842 6.211 2.299 8.832 4.363 4.506 8.897 8.843 13.592 13.005v-1.191c0-1.311 1.067-2.377 2.377-2.377h85.568c-4.389-.001-7.946-3.558-7.946-7.946z" fill="#3c58a0" data-original="#3c58a0"></path></g><circle cx="291.273" cy="396.427" fill="#ffdd40" r="13.845" data-original="#ffdd40"></circle><circle cx="249.712" cy="396.427" fill="#ff7186" r="13.845" data-original="#ff7186"></circle><circle cx="332.833" cy="396.427" fill="#4fabf7" r="13.845" data-original="#4fabf7"></circle><circle cx="335.74" cy="394.017" fill="#73c3f9" r="6.138" data-original="#73c3f9"></circle><circle cx="293.74" cy="394.017" fill="#ffe98d" r="6.138" data-original="#ffe98d"></circle><circle cx="252.139" cy="394.017" fill="#fc90a5" r="6.138" data-original="#fc90a5"></circle><path d="m305.117 311.53c0 7.646-6.199 13.845-13.845 13.845s-13.845-6.198-13.845-13.845c0-7.646 6.198-13.845 13.845-13.845 7.647.001 13.845 6.199 13.845 13.845z" fill="#ffdd40" data-original="#ffdd40"></path><path d="m263.557 311.53c0 7.646-6.198 13.845-13.845 13.845-7.646 0-13.845-6.198-13.845-13.845 0-7.646 6.199-13.845 13.845-13.845 7.646.001 13.845 6.199 13.845 13.845z" fill="#ff7186" data-original="#ff7186"></path><path d="m346.678 311.53c0 7.646-6.199 13.845-13.845 13.845s-13.844-6.198-13.844-13.845c0-7.646 6.198-13.845 13.844-13.845 7.646.001 13.845 6.199 13.845 13.845z" fill="#4fabf7" data-original="#4fabf7"></path><circle cx="335.74" cy="309.12" fill="#73c3f9" r="6.138" data-original="#73c3f9"></circle><circle cx="293.74" cy="309.12" fill="#ffe98d" r="6.138" data-original="#ffe98d"></circle><circle cx="252.139" cy="309.12" fill="#fc90a5" r="6.138" data-original="#fc90a5"></circle></g></g></svg>