<svg xmlns="http://www.w3.org/2000/svg" version="1.1" xmlns:xlink="http://www.w3.org/1999/xlink" xmlns:svgjs="http://svgjs.com/svgjs" width="512" height="512" x="0" y="0" viewBox="0 0 256 256" style="enable-background:new 0 0 512 512" xml:space="preserve" class=""><g><g xmlns="http://www.w3.org/2000/svg"><g><g><ellipse cx="128" cy="128" fill="#382b73" rx="119.4" ry="119.4" transform="matrix(.707 -.707 .707 .707 -53.019 128)" data-original="#382b73" class=""></ellipse></g></g><g><g><path d="m69.562 120.124h25.656c1.381 0 2.5-1.119 2.5-2.5s-1.119-2.5-2.5-2.5h-25.656c-3.792 0-6.876 3.084-6.876 6.876v10.648h-11.368c-4.189 0-7.598 3.409-7.598 7.599v16.57c0 4.19 3.409 7.599 7.598 7.599h11.367v10.648c0 3.792 3.085 6.876 6.876 6.876h8.91l8.047 35.625c.257 1.14 1.27 1.949 2.438 1.949h17.02c.726 0 1.416-.315 1.891-.864s.688-1.277.583-1.995l-5.043-34.714h5.868l78.973 23.964c.748.265 1.524.396 2.299.396 1.389 0 2.767-.42 3.936-1.236 1.843-1.285 2.942-3.394 2.942-5.64v-15.034c0-.013 0-.027 0-.04v-14.221c11.073-.736 19.855-9.979 19.855-21.234v-.729c0-11.255-8.783-20.498-19.855-21.234v-29.293c0-2.246-1.1-4.354-2.941-5.639s-4.199-1.59-6.311-.814c-1.296.477-1.96 1.914-1.483 3.209.477 1.296 1.913 1.959 3.21 1.483.584-.215 1.213-.134 1.723.222s.803.917.803 1.539v83.38l-82.057-24.732c-.234-.071-.477-.106-.722-.106h-41.961v-34.182c0-1.035.841-1.876 1.876-1.876zm-6.876 39.291h-11.368c-1.433 0-2.598-1.166-2.598-2.599v-16.57c0-1.433 1.166-2.599 2.598-2.599h11.367v21.768zm134.739-27.468c8.313.725 14.855 7.723 14.855 16.22v.729c0 8.497-6.543 15.495-14.855 16.22zm-106.469 82.565-7.358-32.574h14.757l4.732 32.574zm18.322-53.331 83.147 25.061v13.181c0 .622-.293 1.183-.803 1.539-.511.356-1.141.436-1.723.222-.045-.017-.091-.032-.138-.046l-79.389-24.091c-.235-.072-.48-.108-.726-.108h-40.084c-1.035 0-1.876-.841-1.876-1.876v-13.882z" fill="#291b4a" data-original="#291b4a" class=""></path></g><g><path d="m99.444 124.632v5.484c0 2.242 1.516 4.2 3.689 4.763l4.161 1.072-2.186 3.702c-1.138 1.932-.825 4.389.761 5.974l3.878 3.878c1.584 1.585 4.041 1.897 5.976.759l3.7-2.184 1.073 4.163c.562 2.17 2.52 3.687 4.762 3.687h5.484c2.241 0 4.2-1.516 4.763-3.689l1.072-4.161 3.703 2.186c1.931 1.137 4.389.824 5.973-.761l3.879-3.878c1.585-1.586 1.897-4.042.759-5.976l-2.185-3.7 4.164-1.073c2.17-.562 3.686-2.521 3.686-4.762v-5.484c0-2.242-1.516-4.2-3.686-4.762-.001 0-.002 0-.003 0l-4.161-1.072 2.186-3.702c1.138-1.931.825-4.388-.761-5.974l-3.878-3.878c-1.585-1.586-4.042-1.898-5.976-.759l-3.7 2.184-1.073-4.164c-.562-2.17-2.521-3.686-4.762-3.686h-5.484c-2.242 0-4.2 1.516-4.762 3.688l-1.072 4.161-3.704-2.186c-1.931-1.137-4.388-.824-5.973.761l-3.878 3.878c-1.586 1.585-1.898 4.042-.759 5.976l2.184 3.7-4.165 1.073c-2.17.562-3.685 2.52-3.685 4.762zm5 .062 7.316-1.885c.761-.196 1.385-.738 1.686-1.464s.243-1.551-.157-2.228l-3.84-6.506 3.789-3.789 6.506 3.84c.676.399 1.501.458 2.228.157.726-.3 1.268-.925 1.464-1.686l1.885-7.316h5.359l1.885 7.315c.196.761.738 1.385 1.464 1.686.728.301 1.553.243 2.228-.157l6.506-3.84 3.789 3.789-3.84 6.506c-.399.676-.457 1.501-.156 2.227s.925 1.268 1.686 1.464l7.315 1.885v5.359l-7.315 1.885c-.761.196-1.385.738-1.686 1.464s-.243 1.551.156 2.227l3.84 6.506-3.789 3.789-6.506-3.84c-.676-.4-1.502-.458-2.228-.157s-1.268.925-1.464 1.686l-1.885 7.315h-5.359l-1.885-7.316c-.196-.761-.738-1.385-1.464-1.686-.725-.3-1.551-.243-2.228.157l-6.506 3.84-3.789-3.789 3.84-6.506c.399-.677.458-1.502.157-2.228s-.925-1.269-1.686-1.464l-7.316-1.885z" fill="#291b4a" data-original="#291b4a" class=""></path></g><g><path d="m138.907 127.374c0-6.014-4.893-10.907-10.907-10.907s-10.907 4.893-10.907 10.907 4.893 10.907 10.907 10.907c6.015 0 10.907-4.893 10.907-10.907zm-16.814 0c0-3.257 2.65-5.907 5.907-5.907s5.907 2.65 5.907 5.907-2.65 5.907-5.907 5.907-5.907-2.65-5.907-5.907z" fill="#291b4a" data-original="#291b4a" class=""></path></g><g><path d="m68.459 72.52v5.484c0 2.241 1.516 4.199 3.689 4.762l4.161 1.072-2.186 3.703c-1.137 1.932-.824 4.388.761 5.973l3.878 3.878c1.584 1.585 4.041 1.897 5.976.759l3.7-2.184 1.073 4.164c.562 2.17 2.52 3.686 4.762 3.686h5.484c2.241 0 4.199-1.516 4.762-3.689l1.072-4.161 3.703 2.186c1.932 1.138 4.388.824 5.973-.761l3.879-3.878c1.584-1.585 1.897-4.042.758-5.975l-2.184-3.701 4.164-1.073c2.17-.562 3.686-2.52 3.686-4.762v-5.483c0-2.242-1.516-4.2-3.686-4.762 0 0-.001 0-.002 0l-4.161-1.072 2.186-3.703c1.137-1.932.825-4.388-.76-5.973l-3.879-3.879c-1.586-1.584-4.043-1.897-5.976-.758l-3.7 2.184-1.073-4.164c-.562-2.17-2.52-3.686-4.761-3.686h-5.484c-2.242 0-4.2 1.516-4.763 3.689l-1.072 4.161-3.703-2.186c-1.932-1.137-4.389-.824-5.973.761l-3.877 3.877c-1.586 1.585-1.899 4.042-.76 5.977l2.184 3.7-4.164 1.073c-2.171.561-3.687 2.519-3.687 4.761zm5 .063 7.316-1.885c.761-.196 1.385-.738 1.686-1.464s.243-1.551-.157-2.228l-3.84-6.505 3.789-3.789 6.506 3.84c.676.399 1.501.457 2.228.157.726-.3 1.269-.925 1.464-1.686l1.885-7.316h5.359l1.885 7.316c.196.761.738 1.385 1.464 1.686.726.302 1.551.243 2.228-.157l6.506-3.84 3.789 3.789-3.84 6.505c-.399.677-.458 1.502-.157 2.228.3.726.925 1.268 1.686 1.464l7.316 1.885v5.359l-7.315 1.885c-.761.196-1.385.738-1.686 1.464s-.243 1.551.157 2.227l3.84 6.507-3.789 3.789-6.507-3.84c-.677-.4-1.502-.458-2.227-.157-.726.301-1.269.925-1.464 1.686l-1.885 7.315h-5.359l-1.885-7.315c-.196-.761-.738-1.385-1.464-1.686-.725-.301-1.55-.243-2.228.157l-6.506 3.84-3.789-3.789 3.84-6.506c.399-.676.458-1.501.157-2.227s-.925-1.269-1.686-1.464l-7.315-1.885v-5.36z" fill="#291b4a" data-original="#291b4a" class=""></path></g><g><path d="m107.922 75.262c0-6.014-4.893-10.907-10.907-10.907s-10.907 4.893-10.907 10.907 4.893 10.907 10.907 10.907 10.907-4.893 10.907-10.907zm-16.813 0c0-3.257 2.65-5.907 5.907-5.907s5.907 2.65 5.907 5.907-2.65 5.907-5.907 5.907-5.907-2.65-5.907-5.907z" fill="#291b4a" data-original="#291b4a" class=""></path></g><g><path d="m130.429 72.52v5.484c0 2.242 1.516 4.2 3.688 4.762l4.161 1.072-2.186 3.702c-1.138 1.931-.825 4.388.761 5.974l3.878 3.878c1.584 1.585 4.041 1.897 5.976.759l3.7-2.184 1.073 4.164c.562 2.17 2.521 3.686 4.762 3.686h5.484c2.241 0 4.2-1.516 4.763-3.689l1.072-4.161 3.703 2.186c1.932 1.137 4.388.824 5.973-.761l3.879-3.878c1.585-1.586 1.897-4.042.759-5.975l-2.185-3.701 4.164-1.073c2.17-.562 3.686-2.52 3.686-4.762v-5.483c0-2.242-1.516-4.2-3.686-4.762-.001 0-.002 0-.003 0l-4.161-1.072 2.186-3.702c1.138-1.932.825-4.388-.761-5.974l-3.878-3.878c-1.585-1.586-4.042-1.898-5.976-.759l-3.7 2.184-1.073-4.164c-.562-2.17-2.521-3.686-4.762-3.686h-5.484c-2.241 0-4.2 1.516-4.763 3.689l-1.072 4.161-3.703-2.186c-1.932-1.137-4.389-.824-5.973.761l-3.878 3.878c-1.586 1.585-1.898 4.042-.76 5.975l2.185 3.701-4.164 1.073c-2.17.561-3.685 2.519-3.685 4.761zm5 .063 7.315-1.885c.761-.196 1.385-.738 1.686-1.464s.243-1.551-.156-2.227l-3.84-6.506 3.789-3.789 6.506 3.84c.676.399 1.5.457 2.228.157.726-.3 1.268-.925 1.464-1.686l1.885-7.316h5.359l1.885 7.316c.196.761.738 1.386 1.464 1.686.728.302 1.552.243 2.228-.157l6.506-3.84 3.789 3.789-3.84 6.506c-.399.676-.457 1.501-.156 2.227s.925 1.268 1.686 1.464l7.315 1.885v5.359l-7.315 1.885c-.761.196-1.385.738-1.686 1.464s-.243 1.551.156 2.228l3.84 6.507-3.789 3.789-6.506-3.84c-.677-.4-1.501-.458-2.228-.157-.726.301-1.268.925-1.464 1.686l-1.885 7.315h-5.359l-1.885-7.315c-.196-.761-.738-1.385-1.464-1.686-.727-.301-1.552-.243-2.228.157l-6.506 3.84-3.789-3.789 3.84-6.507c.399-.677.457-1.501.156-2.228-.301-.726-.925-1.268-1.686-1.464l-7.315-1.885z" fill="#291b4a" data-original="#291b4a" class=""></path></g><g><path d="m169.892 75.262c0-6.014-4.893-10.907-10.907-10.907s-10.906 4.893-10.906 10.907 4.893 10.907 10.906 10.907c6.014 0 10.907-4.893 10.907-10.907zm-16.814 0c0-3.257 2.649-5.907 5.906-5.907s5.907 2.65 5.907 5.907-2.65 5.907-5.907 5.907-5.906-2.65-5.906-5.907z" fill="#291b4a" data-original="#291b4a" class=""></path></g></g><g><g><g><path d="m109.278 157.181 84.925 25.597c.241.073.483.107.723.107 1.074 0 2.066-.698 2.393-1.779.398-1.322-.351-2.717-1.672-3.115l-85.278-25.703c-.234-.071-.477-.106-.722-.106h-44.461c-1.381 0-2.5 1.119-2.5 2.5s1.119 2.5 2.5 2.5h44.092z" fill="#d3d3d3" data-original="#d3d3d3"></path></g></g><g><g><g><path d="m109.278 157.181 84.925 25.597c.241.073.483.107.723.107 1.074 0 2.066-.698 2.393-1.779.398-1.322-.351-2.717-1.672-3.115l-85.278-25.703c-.234-.071-.477-.106-.722-.106h-44.461c-1.381 0-2.5 1.119-2.5 2.5s1.119 2.5 2.5 2.5h44.092zm-45.092-2.5c0-.551.449-1 1-1h44.461c.098 0 .195.014.289.043l85.278 25.703c.528.159.828.718.669 1.246-.126.419-.52.712-.956.712-.099 0-.194-.014-.29-.043l-84.925-25.597c-.14-.042-.286-.064-.433-.064h-44.093c-.552 0-1-.449-1-1z" fill="#ebe7f2" data-original="#ebe7f2"></path></g></g></g><g><g><path d="m69.562 116.124h25.656c1.381 0 2.5-1.119 2.5-2.5s-1.119-2.5-2.5-2.5h-25.656c-3.792 0-6.876 3.084-6.876 6.876v53.063c0 3.792 3.085 6.876 6.876 6.876h39.713l78.973 23.964c.748.265 1.524.396 2.299.396 1.389 0 2.767-.42 3.936-1.236 1.843-1.285 2.942-3.394 2.942-5.64v-101.783c0-2.246-1.1-4.354-2.941-5.639-1.842-1.285-4.199-1.59-6.311-.814-1.296.477-1.96 1.914-1.483 3.209.477 1.297 1.913 1.96 3.21 1.483.584-.215 1.213-.134 1.723.222s.803.917.803 1.539v101.783c0 .622-.293 1.183-.803 1.539-.511.356-1.141.436-1.723.222-.045-.017-.091-.032-.138-.046l-79.389-24.091c-.235-.072-.48-.108-.726-.108h-40.085c-1.035 0-1.876-.841-1.876-1.876v-53.063c0-1.035.841-1.876 1.876-1.876z" fill="#ed9abc" data-original="#ed9abc"></path></g></g><g><g><path d="m195.998 161.177c-1.381 0-2.5 1.119-2.5 2.5s1.119 2.5 2.5 2.5c11.735 0 21.282-9.547 21.282-21.282v-.729c0-11.735-9.547-21.282-21.282-21.282-1.381 0-2.5 1.119-2.5 2.5s1.119 2.5 2.5 2.5c8.979 0 16.282 7.304 16.282 16.282v.729c0 8.978-7.303 16.282-16.282 16.282z" fill="#ed9abc" data-original="#ed9abc"></path></g></g><g><g><path d="m83.151 175.962c-.304-1.347-1.643-2.194-2.989-1.888-1.347.304-2.192 1.643-1.888 2.989l8.244 36.5c.257 1.14 1.27 1.949 2.438 1.949h17.02c.726 0 1.416-.315 1.891-.864s.688-1.277.583-1.995l-5.303-36.5c-.198-1.366-1.471-2.311-2.833-2.115-1.366.199-2.313 1.467-2.115 2.833l4.887 33.64h-12.13z" fill="#ed9abc" data-original="#ed9abc"></path></g></g><g><g><path d="m51.318 133.647h12.793c1.381 0 2.5-1.119 2.5-2.5s-1.119-2.5-2.5-2.5h-12.793c-4.189 0-7.598 3.409-7.598 7.599v16.57c0 4.19 3.409 7.599 7.598 7.599h12.793c1.381 0 2.5-1.119 2.5-2.5s-1.119-2.5-2.5-2.5h-12.793c-1.433 0-2.598-1.166-2.598-2.599v-16.57c0-1.433 1.166-2.599 2.598-2.599z" fill="#ed9abc" data-original="#ed9abc"></path></g></g><g><g fill="#e54890"><path d="m62.686 132.147h-11.368c-2.26 0-4.098 1.839-4.098 4.099v16.57c0 2.26 1.838 4.099 4.098 4.099h11.367c.828 0 1.5-.672 1.5-1.5v-21.767c.001-.829-.671-1.501-1.499-1.501zm0 23.268h-11.368c-1.433 0-2.598-1.166-2.598-2.599v-16.57c0-1.433 1.166-2.599 2.598-2.599h11.367v21.768z" fill="#e54890" data-original="#e54890"></path><path d="m197.425 162.615c.043 0 .087-.002.13-.006 9.098-.793 16.225-8.574 16.225-17.714v-.729c0-9.14-7.127-16.92-16.225-17.714-.044-.004-.087-.006-.13-.006-.374 0-.736.14-1.013.394-.31.284-.486.685-.486 1.106v33.168c0 .42.177.822.486 1.106.277.255.639.395 1.013.395zm0-34.668c8.313.725 14.855 7.723 14.855 16.22v.729c0 8.497-6.543 15.495-14.855 16.22z" fill="#e54890" data-original="#e54890"></path><path d="m89.492 210.843c.154.684.762 1.169 1.463 1.169h12.131c.435 0 .849-.189 1.134-.519.285-.329.413-.766.35-1.197l-4.732-32.574c-.107-.737-.739-1.284-1.484-1.284h-14.756c-.456 0-.887.207-1.172.563s-.392.822-.291 1.267zm8.863-32.905 4.732 32.574h-12.131l-7.358-32.574z" fill="#e54890" data-original="#e54890"></path><path d="m69.562 116.124h25.656c1.381 0 2.5-1.119 2.5-2.5s-1.119-2.5-2.5-2.5h-25.656c-3.792 0-6.876 3.084-6.876 6.876v10.648h-11.368c-4.189 0-7.598 3.409-7.598 7.599v16.57c0 4.19 3.409 7.599 7.598 7.599h11.367v10.648c0 3.792 3.085 6.876 6.876 6.876h8.91l8.047 35.625c.257 1.14 1.27 1.949 2.438 1.949h17.02c.726 0 1.416-.315 1.891-.864s.688-1.277.583-1.995l-5.043-34.714h5.868l78.973 23.964c.748.265 1.524.396 2.299.396 1.389 0 2.767-.42 3.936-1.236 1.843-1.285 2.942-3.394 2.942-5.64v-29.295c11.073-.736 19.855-9.979 19.855-21.234v-.729c0-11.255-8.783-20.498-19.855-21.234v-29.293c0-2.246-1.1-4.354-2.941-5.639-1.169-.816-2.547-1.237-3.937-1.237-.799 0-1.603.139-2.374.423-1.296.477-1.96 1.914-1.483 3.209.372 1.012 1.327 1.638 2.345 1.638.287 0 .579-.05.865-.155.215-.079.436-.118.654-.118.376 0 .746.115 1.068.34.51.356.803.917.803 1.539v101.783c0 .622-.293 1.183-.803 1.539-.323.225-.693.34-1.068.34-.219 0-.44-.039-.654-.118-.045-.017-.091-.032-.138-.046l-79.389-24.091c-.235-.072-.48-.108-.726-.108h-40.085c-1.035 0-1.876-.841-1.876-1.876v-53.063c0-1.035.841-1.876 1.876-1.876zm0 58.314h40.084c.099 0 .196.014.291.043l79.389 24.091c.005.002.05.017.055.018.379.14.773.21 1.173.21.688 0 1.354-.211 1.927-.61.918-.641 1.444-1.65 1.444-2.769v-101.781c0-1.119-.526-2.128-1.444-2.768-.572-.399-1.238-.61-1.927-.61-.399 0-.793.071-1.173.21-.113.041-.229.063-.346.063-.417 0-.793-.263-.938-.656-.092-.251-.081-.522.031-.765.112-.242.312-.427.562-.519.596-.219 1.221-.331 1.856-.331 1.107 0 2.172.334 3.078.967 1.44 1.005 2.3 2.653 2.3 4.409v29.293c0 .79.612 1.444 1.4 1.497 10.349.688 18.455 9.358 18.455 19.737v.729c0 10.38-8.106 19.049-18.455 19.737-.788.052-1.4.707-1.4 1.497v29.293c0 1.757-.86 3.405-2.301 4.41-.906.632-1.97.966-3.077.966-.614 0-1.219-.104-1.798-.309-.022-.008-.044-.015-.066-.022l-78.973-23.964c-.141-.043-.288-.065-.436-.065h-5.868c-.435 0-.849.189-1.134.519-.285.329-.413.766-.35 1.197l5.043 34.715c.042.287-.043.578-.233.797-.19.22-.466.346-.757.346h-17.02c-.471 0-.872-.321-.975-.78l-8.047-35.624c-.154-.684-.762-1.17-1.463-1.17h-8.91c-2.965 0-5.376-2.412-5.376-5.376v-10.648c0-.828-.672-1.5-1.5-1.5h-11.365c-3.362 0-6.098-2.736-6.098-6.099v-16.57c0-3.363 2.736-6.099 6.098-6.099h11.367c.828 0 1.5-.672 1.5-1.5v-10.647c0-2.964 2.412-5.376 5.376-5.376h25.656c.551 0 1 .449 1 1s-.449 1-1 1h-25.655c-1.862 0-3.376 1.514-3.376 3.376v53.063c0 1.861 1.514 3.375 3.376 3.375z" fill="#e54890" data-original="#e54890"></path></g></g><g><g><path d="m99.444 120.632v5.484c0 2.242 1.516 4.2 3.689 4.763l4.161 1.072-2.186 3.702c-1.138 1.932-.825 4.389.761 5.974l3.878 3.878c1.584 1.585 4.041 1.897 5.976.759l3.7-2.184 1.073 4.163c.562 2.17 2.52 3.687 4.762 3.687h5.484c2.241 0 4.2-1.516 4.763-3.689l1.072-4.161 3.703 2.186c1.931 1.137 4.389.824 5.973-.761l3.879-3.878c1.585-1.586 1.897-4.042.759-5.976l-2.185-3.7 4.164-1.073c2.17-.562 3.686-2.521 3.686-4.762v-5.484c0-2.242-1.516-4.2-3.686-4.762-.001 0-.002 0-.003 0l-4.161-1.072 2.186-3.702c1.138-1.931.825-4.388-.761-5.974l-3.878-3.878c-1.585-1.586-4.042-1.898-5.976-.759l-3.7 2.184-1.073-4.164c-.562-2.17-2.521-3.686-4.762-3.686h-5.484c-2.242 0-4.2 1.516-4.762 3.688l-1.072 4.161-3.704-2.186c-1.931-1.137-4.388-.824-5.973.761l-3.878 3.878c-1.586 1.585-1.898 4.042-.759 5.976l2.184 3.7-4.165 1.073c-2.17.562-3.685 2.52-3.685 4.762zm5 .062 7.316-1.885c.761-.196 1.385-.738 1.686-1.464s.243-1.551-.157-2.228l-3.84-6.506 3.789-3.789 6.506 3.84c.676.399 1.501.458 2.228.157.726-.3 1.268-.925 1.464-1.686l1.885-7.316h5.359l1.885 7.315c.196.761.738 1.385 1.464 1.686.728.301 1.553.243 2.228-.157l6.506-3.84 3.789 3.789-3.84 6.506c-.399.676-.457 1.501-.156 2.227s.925 1.268 1.686 1.464l7.315 1.885v5.359l-7.315 1.885c-.761.196-1.385.738-1.686 1.464s-.243 1.551.156 2.227l3.84 6.506-3.789 3.789-6.506-3.84c-.676-.4-1.502-.458-2.228-.157s-1.268.925-1.464 1.686l-1.885 7.315h-5.359l-1.885-7.316c-.196-.761-.738-1.385-1.464-1.686-.725-.301-1.551-.243-2.228.157l-6.506 3.84-3.789-3.789 3.84-6.506c.399-.677.458-1.502.157-2.228s-.925-1.269-1.686-1.464l-7.316-1.885z" fill="#f9b087" data-original="#f9b087" class=""></path></g></g><g><g><path d="m138.907 123.374c0-6.014-4.893-10.907-10.907-10.907s-10.907 4.893-10.907 10.907 4.893 10.907 10.907 10.907c6.015 0 10.907-4.893 10.907-10.907zm-16.814 0c0-3.257 2.65-5.907 5.907-5.907s5.907 2.65 5.907 5.907-2.65 5.907-5.907 5.907-5.907-2.65-5.907-5.907z" fill="#d3d3d3" data-original="#d3d3d3"></path></g></g><g><g><path d="m68.459 68.52v5.484c0 2.241 1.516 4.199 3.689 4.762l4.161 1.072-2.186 3.703c-1.137 1.932-.824 4.388.761 5.973l3.878 3.878c1.584 1.585 4.041 1.897 5.976.759l3.7-2.184 1.073 4.164c.562 2.17 2.52 3.686 4.762 3.686h5.484c2.241 0 4.199-1.516 4.762-3.689l1.072-4.161 3.703 2.186c1.932 1.138 4.388.824 5.973-.761l3.879-3.878c1.584-1.585 1.897-4.042.758-5.975l-2.184-3.701 4.164-1.073c2.17-.562 3.686-2.52 3.686-4.762v-5.483c0-2.242-1.516-4.2-3.686-4.762 0 0-.001 0-.002 0l-4.161-1.072 2.186-3.703c1.137-1.932.825-4.388-.76-5.973l-3.879-3.879c-1.586-1.584-4.043-1.897-5.976-.758l-3.7 2.184-1.073-4.164c-.562-2.17-2.52-3.686-4.761-3.686h-5.484c-2.242 0-4.2 1.516-4.763 3.689l-1.072 4.161-3.703-2.186c-1.932-1.137-4.389-.824-5.973.761l-3.877 3.877c-1.586 1.585-1.899 4.042-.76 5.977l2.184 3.7-4.164 1.073c-2.171.561-3.687 2.519-3.687 4.761zm5 .063 7.316-1.885c.761-.196 1.385-.738 1.686-1.464s.243-1.551-.157-2.228l-3.84-6.505 3.789-3.789 6.506 3.84c.676.399 1.501.457 2.228.157.726-.3 1.269-.925 1.464-1.686l1.885-7.316h5.359l1.885 7.316c.196.761.738 1.385 1.464 1.686s1.551.243 2.228-.157l6.506-3.84 3.789 3.789-3.84 6.505c-.399.677-.458 1.502-.157 2.228.3.726.925 1.268 1.686 1.464l7.316 1.885v5.359l-7.315 1.885c-.761.196-1.385.738-1.686 1.464s-.243 1.551.157 2.227l3.84 6.507-3.789 3.789-6.507-3.84c-.677-.4-1.502-.458-2.227-.157-.726.301-1.269.925-1.464 1.686l-1.885 7.315h-5.359l-1.885-7.315c-.196-.761-.738-1.385-1.464-1.686-.725-.3-1.55-.243-2.228.157l-6.506 3.84-3.789-3.789 3.84-6.506c.399-.676.458-1.501.157-2.227s-.925-1.269-1.686-1.464l-7.315-1.885v-5.36z" fill="#f9b087" data-original="#f9b087" class=""></path></g></g><g><g><path d="m107.922 71.262c0-6.014-4.893-10.907-10.907-10.907s-10.907 4.893-10.907 10.907 4.893 10.907 10.907 10.907 10.907-4.893 10.907-10.907zm-16.813 0c0-3.257 2.65-5.907 5.907-5.907s5.907 2.65 5.907 5.907-2.65 5.907-5.907 5.907-5.907-2.65-5.907-5.907z" fill="#d3d3d3" data-original="#d3d3d3"></path></g></g><g><g><path d="m130.429 68.52v5.484c0 2.242 1.516 4.2 3.688 4.762l4.161 1.072-2.186 3.702c-1.138 1.931-.825 4.388.761 5.974l3.878 3.878c1.584 1.585 4.041 1.897 5.976.759l3.7-2.184 1.073 4.164c.562 2.17 2.521 3.686 4.762 3.686h5.484c2.241 0 4.2-1.516 4.763-3.689l1.072-4.161 3.703 2.186c1.932 1.137 4.388.824 5.973-.761l3.879-3.878c1.585-1.586 1.897-4.042.759-5.975l-2.185-3.701 4.164-1.073c2.17-.562 3.686-2.52 3.686-4.762v-5.483c0-2.242-1.516-4.2-3.686-4.762-.001 0-.002 0-.003 0l-4.161-1.072 2.186-3.702c1.138-1.932.825-4.388-.761-5.974l-3.878-3.878c-1.585-1.586-4.042-1.898-5.976-.759l-3.7 2.184-1.073-4.164c-.562-2.17-2.521-3.686-4.762-3.686h-5.484c-2.241 0-4.2 1.516-4.763 3.689l-1.072 4.161-3.703-2.186c-1.932-1.137-4.389-.824-5.973.761l-3.878 3.878c-1.586 1.585-1.898 4.042-.76 5.975l2.185 3.701-4.164 1.073c-2.17.561-3.685 2.519-3.685 4.761zm5 .063 7.315-1.885c.761-.196 1.385-.738 1.686-1.464s.243-1.551-.156-2.227l-3.84-6.506 3.789-3.789 6.506 3.84c.676.399 1.5.457 2.228.157.726-.3 1.268-.925 1.464-1.686l1.885-7.316h5.359l1.885 7.316c.196.761.738 1.386 1.464 1.686.728.301 1.552.243 2.228-.157l6.506-3.84 3.789 3.789-3.84 6.506c-.399.676-.457 1.501-.156 2.227s.925 1.268 1.686 1.464l7.315 1.885v5.359l-7.315 1.885c-.761.196-1.385.738-1.686 1.464s-.243 1.551.156 2.228l3.84 6.507-3.789 3.789-6.506-3.84c-.677-.4-1.501-.458-2.228-.157-.726.301-1.268.925-1.464 1.686l-1.885 7.315h-5.359l-1.885-7.315c-.196-.761-.738-1.385-1.464-1.686-.727-.3-1.552-.243-2.228.157l-6.506 3.84-3.789-3.789 3.84-6.507c.399-.677.457-1.501.156-2.228-.301-.726-.925-1.268-1.686-1.464l-7.315-1.885z" fill="#f9b087" data-original="#f9b087" class=""></path></g></g><g><g><g fill="#ff8639"><path d="m99.444 120.632v5.484c0 2.242 1.516 4.2 3.689 4.763l4.161 1.072-2.186 3.702c-1.138 1.932-.825 4.389.761 5.974l3.878 3.878c.947.948 2.206 1.44 3.478 1.44.856 0 1.719-.223 2.498-.681l3.7-2.184 1.073 4.163c.562 2.17 2.52 3.687 4.762 3.687h5.484c2.241 0 4.2-1.516 4.763-3.689l1.072-4.161 3.703 2.186c.776.457 1.637.68 2.493.68 1.273 0 2.533-.493 3.48-1.441l3.879-3.878c1.585-1.586 1.897-4.042.759-5.976l-2.185-3.7 4.164-1.073c2.17-.562 3.686-2.521 3.686-4.762v-5.484c0-2.242-1.516-4.2-3.686-4.762-.001 0-.002 0-.003 0l-4.161-1.072 2.186-3.702c1.138-1.931.825-4.388-.761-5.974l-3.878-3.878c-.947-.948-2.206-1.441-3.479-1.441-.856 0-1.719.223-2.497.681l-3.7 2.184-1.073-4.164c-.562-2.17-2.521-3.686-4.762-3.686h-5.484c-2.242 0-4.2 1.516-4.762 3.688l-1.072 4.161-3.704-2.186c-.776-.457-1.637-.68-2.493-.68-1.273 0-2.532.493-3.48 1.441l-3.878 3.878c-1.586 1.585-1.898 4.042-.759 5.976l2.184 3.7-4.165 1.073c-2.17.563-3.685 2.521-3.685 4.763zm8.224-4.383c.456-.118.831-.443 1.011-.879.18-.435.146-.93-.094-1.336l-2.183-3.699c-.792-1.344-.575-3.052.528-4.154l3.878-3.878c.646-.646 1.505-1.002 2.419-1.002.608 0 1.207.163 1.73.472l3.704 2.186c.234.138.498.208.763.208.194 0 .39-.038.574-.114.435-.18.761-.555.879-1.012l1.072-4.16c.391-1.51 1.752-2.564 3.31-2.564h5.484c1.558 0 2.919 1.053 3.309 2.56l1.073 4.164c.118.456.443.831.879 1.012.184.076.379.114.574.114.265 0 .528-.07.763-.208l3.699-2.183c.526-.31 1.127-.474 1.736-.474.914 0 1.772.355 2.418 1.001l3.878 3.878c1.102 1.103 1.32 2.81.53 4.151l-2.186 3.702c-.24.406-.275.901-.094 1.337.18.436.555.761 1.012.879l4.161 1.072c.006.001.011.003.017.004 1.5.396 2.546 1.753 2.546 3.306v5.484c0 1.558-1.053 2.919-2.56 3.31l-4.164 1.073c-.457.118-.831.443-1.012.879-.18.436-.146.931.094 1.337l2.184 3.699c.791 1.343.574 3.052-.527 4.154l-3.879 3.879c-.645.646-1.504 1.001-2.419 1.001-.608 0-1.207-.163-1.73-.472l-3.703-2.186c-.234-.138-.498-.208-.763-.208-.194 0-.39.038-.574.114-.436.18-.761.555-.879 1.012l-1.072 4.159c-.391 1.51-1.752 2.565-3.311 2.565h-5.484c-1.558 0-2.919-1.054-3.309-2.561l-1.073-4.163c-.118-.457-.443-.831-.879-1.012-.184-.076-.379-.114-.574-.114-.265 0-.529.07-.763.208l-3.698 2.183c-.527.31-1.128.474-1.738.474-.914 0-1.772-.355-2.417-1.001l-3.878-3.878c-1.102-1.102-1.319-2.809-.53-4.151l2.186-3.702c.24-.406.275-.901.094-1.337-.18-.436-.555-.761-1.012-.879l-4.159-1.072c-1.51-.391-2.565-1.753-2.565-3.311v-5.484c0-1.558 1.053-2.919 2.56-3.309z" fill="#ff8639" data-original="#ff8639" class=""></path><path d="m104.07 127.506 7.316 1.885c.302.078.554.297.674.586.12.288.096.621-.063.891l-3.84 6.506c-.348.589-.253 1.339.231 1.823l3.789 3.789c.289.289.673.439 1.061.439.261 0 .525-.068.762-.208l6.506-3.84c.154-.091.33-.139.509-.139.132 0 .26.026.383.076.288.119.507.371.585.674l1.885 7.316c.171.663.768 1.126 1.453 1.126h5.359c.684 0 1.282-.463 1.453-1.126l1.885-7.315c.078-.303.297-.555.587-.675.122-.051.25-.076.382-.076.178 0 .353.048.508.139l6.506 3.84c.237.14.5.208.762.208.388 0 .772-.15 1.061-.439l3.789-3.789c.484-.484.579-1.234.231-1.823l-3.84-6.507c-.159-.268-.182-.601-.062-.89s.372-.508.674-.586l7.315-1.885c.663-.171 1.126-.768 1.126-1.453v-5.359c0-.684-.463-1.282-1.126-1.453l-7.315-1.885c-.303-.078-.555-.297-.675-.586s-.096-.621.062-.89l3.84-6.506c.348-.589.253-1.339-.231-1.823l-3.789-3.789c-.289-.289-.673-.439-1.061-.439-.261 0-.525.068-.762.208l-6.508 3.841c-.152.09-.327.138-.505.138-.132 0-.261-.026-.384-.076-.289-.12-.508-.372-.586-.675l-1.885-7.315c-.171-.663-.768-1.126-1.453-1.126h-5.359c-.684 0-1.282.463-1.453 1.126l-1.885 7.315c-.078.303-.297.555-.586.674-.122.051-.251.076-.383.076-.179 0-.354-.048-.508-.139l-6.506-3.84c-.237-.14-.5-.208-.762-.208-.388 0-.772.15-1.061.439l-3.789 3.789c-.484.484-.579 1.234-.231 1.823l3.84 6.506c.159.269.182.602.062.892-.119.288-.371.507-.674.585l-7.316 1.885c-.663.171-1.126.768-1.126 1.453v5.359c.002.685.465 1.282 1.128 1.453zm.374-6.812 7.316-1.885c.761-.196 1.385-.738 1.686-1.464s.243-1.551-.157-2.228l-3.84-6.506 3.789-3.789 6.506 3.84c.39.23.829.347 1.271.347.324 0 .649-.063.957-.19.726-.3 1.268-.925 1.464-1.686l1.885-7.316h5.359l1.885 7.315c.196.761.738 1.385 1.464 1.686.308.128.634.191.958.191.441 0 .88-.117 1.269-.347l6.506-3.84 3.789 3.789-3.84 6.506c-.399.676-.457 1.501-.156 2.227s.925 1.268 1.686 1.464l7.315 1.885v5.359l-7.315 1.885c-.761.196-1.385.738-1.686 1.464s-.243 1.551.156 2.227l3.84 6.506-3.789 3.789-6.506-3.84c-.389-.231-.829-.348-1.27-.348-.324 0-.65.063-.958.191-.726.301-1.268.925-1.464 1.686l-1.885 7.315h-5.359l-1.885-7.316c-.196-.761-.738-1.385-1.464-1.686-.307-.127-.632-.19-.956-.19-.441 0-.881.117-1.271.347l-6.506 3.84-3.789-3.789 3.84-6.506c.399-.677.458-1.502.157-2.228s-.925-1.269-1.686-1.464l-7.316-1.885z" fill="#ff8639" data-original="#ff8639" class=""></path></g></g></g><g><g><g fill="#ff8639"><path d="m73.085 75.394 7.316 1.885c.302.078.554.297.674.586.12.288.096.621-.063.89l-3.84 6.506c-.348.589-.253 1.339.231 1.823l3.789 3.789c.289.289.673.439 1.061.439.261 0 .525-.068.762-.208l6.505-3.84c.154-.091.33-.139.509-.139.132 0 .261.026.382.076.289.12.508.372.586.674l1.885 7.315c.171.663.768 1.126 1.453 1.126h5.359c.684 0 1.282-.463 1.453-1.126l1.885-7.316c.078-.302.297-.554.588-.675.121-.05.249-.076.38-.076.179 0 .354.048.509.139l6.507 3.84c.237.14.5.208.762.208.388 0 .772-.15 1.061-.439l3.789-3.789c.484-.484.579-1.234.231-1.823l-3.84-6.507c-.159-.269-.182-.601-.063-.89.12-.289.372-.508.674-.586l7.315-1.885c.663-.171 1.126-.768 1.126-1.453v-5.359c0-.684-.463-1.282-1.126-1.453l-7.315-1.885c-.303-.078-.555-.297-.675-.586-.12-.288-.096-.621.063-.891l3.84-6.505c.348-.589.253-1.339-.231-1.823l-3.789-3.789c-.289-.289-.673-.439-1.061-.439-.261 0-.525.068-.762.208l-6.507 3.841c-.154.091-.329.139-.508.139-.132 0-.26-.026-.383-.077-.289-.12-.508-.372-.586-.674l-1.885-7.316c-.171-.663-.768-1.126-1.453-1.126h-5.359c-.684 0-1.282.463-1.453 1.126l-1.885 7.316c-.078.302-.296.554-.585.673-.123.051-.252.076-.384.076-.179 0-.354-.048-.508-.139l-6.506-3.84c-.237-.14-.501-.208-.762-.208-.388 0-.772.15-1.061.439l-3.789 3.789c-.484.484-.579 1.234-.231 1.823l3.84 6.505c.159.269.182.602.062.892-.119.288-.371.507-.674.585l-7.316 1.885c-.663.171-1.126.768-1.126 1.453v5.359c.003.689.467 1.286 1.129 1.457zm.374-6.811 7.316-1.885c.761-.196 1.385-.738 1.686-1.464s.243-1.551-.157-2.228l-3.84-6.505 3.789-3.789 6.506 3.84c.39.23.829.347 1.27.347.324 0 .65-.063.957-.19.726-.3 1.269-.925 1.464-1.686l1.885-7.316h5.359l1.885 7.316c.196.761.738 1.385 1.464 1.686.307.128.633.191.957.191.441 0 .881-.117 1.271-.347l6.506-3.84 3.789 3.789-3.84 6.505c-.399.677-.458 1.502-.157 2.228.3.726.925 1.268 1.686 1.464l7.316 1.885v5.359l-7.315 1.885c-.761.196-1.385.738-1.686 1.464s-.243 1.551.157 2.227l3.84 6.507-3.789 3.789-6.507-3.84c-.39-.231-.83-.347-1.271-.347-.324 0-.649.063-.956.191-.726.301-1.269.925-1.464 1.686l-1.885 7.315h-5.359l-1.885-7.315c-.196-.761-.738-1.385-1.464-1.686-.307-.127-.632-.19-.956-.19-.441 0-.881.117-1.271.347l-6.506 3.84-3.789-3.789 3.84-6.506c.399-.676.458-1.501.157-2.227s-.925-1.269-1.686-1.464l-7.315-1.885v-5.362z" fill="#ff8639" data-original="#ff8639" class=""></path><path d="m68.459 68.52v5.484c0 2.241 1.516 4.199 3.689 4.762l4.161 1.072-2.186 3.703c-1.137 1.932-.824 4.388.761 5.973l3.878 3.878c.947.948 2.205 1.44 3.478 1.44.857 0 1.72-.223 2.498-.681l3.7-2.184 1.073 4.164c.562 2.17 2.52 3.686 4.762 3.686h5.484c2.241 0 4.199-1.516 4.762-3.689l1.072-4.161 3.703 2.186c.776.458 1.638.68 2.493.68 1.272 0 2.532-.493 3.48-1.441l3.879-3.878c1.584-1.585 1.897-4.042.758-5.975l-2.184-3.701 4.164-1.073c2.17-.562 3.686-2.52 3.686-4.762v-5.483c0-2.242-1.516-4.2-3.686-4.762 0 0-.001 0-.002 0l-4.161-1.072 2.186-3.703c1.137-1.932.825-4.388-.76-5.973l-3.879-3.879c-.948-.947-2.207-1.44-3.48-1.44-.856 0-1.719.223-2.496.681l-3.7 2.184-1.073-4.164c-.562-2.17-2.52-3.686-4.761-3.686h-5.484c-2.242 0-4.2 1.516-4.763 3.689l-1.072 4.161-3.703-2.186c-.776-.457-1.638-.68-2.493-.68-1.273 0-2.533.493-3.48 1.441l-3.877 3.877c-1.586 1.585-1.899 4.042-.76 5.977l2.184 3.7-4.164 1.073c-2.171.562-3.687 2.52-3.687 4.762zm8.224-4.382c.456-.118.831-.443 1.011-.879s.146-.93-.094-1.336l-2.183-3.699c-.792-1.344-.574-3.053.528-4.155l3.877-3.878c.646-.646 1.505-1.002 2.419-1.002.608 0 1.207.163 1.731.471l3.703 2.186c.234.138.498.208.763.208.194 0 .39-.038.574-.114.436-.18.761-.555.879-1.012l1.072-4.159c.391-1.51 1.753-2.565 3.311-2.565h5.484c1.558 0 2.919 1.053 3.309 2.56l1.073 4.164c.118.456.443.831.879 1.012.184.076.379.114.574.114.265 0 .528-.07.763-.208l3.699-2.183c.526-.31 1.126-.474 1.734-.474.914 0 1.773.355 2.419 1l3.879 3.879c1.102 1.101 1.319 2.808.529 4.15l-2.186 3.703c-.24.406-.274.901-.094 1.336s.555.761 1.011.878l4.161 1.072c.004.001.008.002.013.003 1.502.395 2.55 1.753 2.55 3.307v5.484c0 1.558-1.054 2.919-2.56 3.309l-4.164 1.073c-.456.118-.831.443-1.012.878-.18.436-.146.93.094 1.336l2.183 3.699c.791 1.344.575 3.052-.526 4.153l-3.879 3.878c-.646.646-1.506 1.002-2.42 1.002-.608 0-1.207-.164-1.731-.472l-3.703-2.186c-.234-.138-.498-.208-.762-.208-.194 0-.39.038-.574.114-.435.18-.761.555-.878 1.011l-1.072 4.159c-.391 1.51-1.752 2.565-3.31 2.565h-5.484c-1.558 0-2.919-1.053-3.309-2.56l-1.073-4.164c-.118-.456-.443-.831-.879-1.011-.184-.076-.379-.114-.574-.114-.265 0-.529.07-.763.208l-3.697 2.183c-.528.31-1.129.474-1.738.474-.914 0-1.772-.355-2.417-1.001l-3.878-3.878c-1.102-1.102-1.32-2.809-.53-4.15l2.186-3.703c.24-.406.274-.901.094-1.336s-.555-.761-1.011-.879l-4.159-1.072c-1.51-.391-2.565-1.752-2.565-3.31v-5.479c0-1.558 1.053-2.919 2.56-3.309z" fill="#ff8639" data-original="#ff8639" class=""></path></g></g></g><g><g><g fill="#ff8639"><path d="m130.429 68.52v5.484c0 2.242 1.516 4.2 3.688 4.762l4.161 1.072-2.186 3.702c-1.138 1.931-.825 4.388.761 5.974l3.878 3.878c.947.948 2.205 1.44 3.478 1.44.856 0 1.719-.223 2.498-.681l3.7-2.184 1.073 4.164c.562 2.17 2.521 3.686 4.762 3.686h5.484c2.241 0 4.2-1.516 4.763-3.689l1.072-4.161 3.703 2.186c.776.457 1.637.68 2.493.68 1.272 0 2.532-.493 3.48-1.441l3.879-3.878c1.585-1.586 1.897-4.042.759-5.975l-2.185-3.701 4.164-1.073c2.17-.562 3.686-2.52 3.686-4.762v-5.483c0-2.242-1.516-4.2-3.686-4.762-.001 0-.002 0-.003 0l-4.161-1.072 2.186-3.702c1.138-1.932.825-4.388-.761-5.974l-3.878-3.878c-.947-.948-2.206-1.441-3.479-1.441-.856 0-1.719.223-2.497.681l-3.7 2.184-1.073-4.164c-.562-2.17-2.521-3.686-4.762-3.686h-5.484c-2.241 0-4.2 1.516-4.763 3.689l-1.072 4.161-3.703-2.186c-.776-.457-1.638-.68-2.493-.68-1.273 0-2.532.493-3.48 1.441l-3.878 3.878c-1.586 1.585-1.898 4.042-.76 5.975l2.185 3.701-4.164 1.073c-2.17.562-3.685 2.52-3.685 4.762zm8.224-4.382c.457-.118.831-.443 1.012-.879s.146-.931-.094-1.337l-2.184-3.699c-.791-1.343-.574-3.051.528-4.153l3.878-3.879c.645-.646 1.504-1.001 2.419-1.001.608 0 1.207.163 1.73.471l3.703 2.186c.234.138.498.208.763.208.194 0 .39-.038.574-.114.436-.18.761-.555.879-1.012l1.072-4.159c.391-1.51 1.752-2.565 3.311-2.565h5.484c1.558 0 2.919 1.053 3.309 2.56l1.073 4.164c.118.456.443.831.879 1.012.184.076.379.114.574.114.265 0 .528-.07.763-.208l3.699-2.183c.526-.31 1.127-.474 1.736-.474.914 0 1.772.355 2.418 1.001l3.878 3.879c1.102 1.102 1.32 2.809.53 4.15l-2.186 3.702c-.24.406-.275.901-.094 1.337.18.436.555.761 1.012.879l4.161 1.072c.006.001.011.003.017.004 1.5.396 2.546 1.753 2.546 3.306v5.484c0 1.558-1.053 2.919-2.56 3.309l-4.164 1.073c-.457.118-.831.443-1.012.879s-.146.931.094 1.337l2.184 3.7c.791 1.343.574 3.051-.527 4.153l-3.879 3.878c-.646.646-1.505 1.002-2.419 1.002-.608 0-1.207-.163-1.73-.472l-3.703-2.186c-.234-.138-.498-.208-.763-.208-.194 0-.39.038-.574.114-.436.18-.761.555-.879 1.012l-1.072 4.159c-.391 1.51-1.752 2.565-3.311 2.565h-5.484c-1.558 0-2.919-1.053-3.309-2.56l-1.073-4.164c-.118-.456-.443-.831-.879-1.011-.184-.076-.379-.114-.574-.114-.265 0-.528.07-.763.208l-3.698 2.183c-.527.31-1.128.474-1.737.474-.914 0-1.772-.355-2.417-1.001l-3.878-3.878c-1.102-1.103-1.32-2.81-.53-4.151l2.186-3.702c.24-.406.275-.901.094-1.337-.18-.436-.555-.761-1.012-.879l-4.16-1.072c-1.51-.391-2.564-1.752-2.564-3.31v-5.485c0-1.558 1.053-2.919 2.56-3.31z" fill="#ff8639" data-original="#ff8639" class=""></path><path d="m135.054 75.394 7.316 1.885c.302.078.554.297.674.585.12.289.096.622-.062.891l-3.84 6.507c-.348.589-.253 1.339.231 1.823l3.789 3.789c.289.289.673.439 1.061.439.261 0 .525-.068.762-.208l6.507-3.84c.153-.09.328-.138.507-.138.132 0 .262.026.383.076.289.12.508.372.586.675l1.885 7.315c.171.663.768 1.126 1.453 1.126h5.359c.684 0 1.282-.463 1.453-1.126l1.885-7.315c.078-.303.297-.555.586-.675.122-.051.251-.076.383-.076.178 0 .354.048.508.139l6.506 3.84c.237.14.5.208.762.208.388 0 .772-.15 1.061-.439l3.789-3.789c.484-.484.579-1.234.231-1.823l-3.84-6.507c-.159-.269-.182-.602-.062-.891s.372-.508.674-.586l7.315-1.885c.663-.171 1.126-.768 1.126-1.453v-5.359c0-.684-.463-1.282-1.126-1.453l-7.315-1.885c-.303-.078-.555-.297-.675-.586s-.096-.621.062-.89l3.84-6.506c.348-.589.253-1.339-.231-1.823l-3.789-3.789c-.289-.289-.673-.439-1.061-.439-.261 0-.525.068-.762.208l-6.507 3.841c-.153.091-.328.138-.506.138-.132 0-.261-.026-.384-.077-.288-.119-.507-.371-.585-.674l-1.885-7.316c-.171-.663-.768-1.126-1.453-1.126h-5.359c-.684 0-1.282.463-1.453 1.126l-1.885 7.316c-.078.303-.297.555-.584.674-.123.051-.253.077-.386.077-.178 0-.353-.048-.507-.139l-6.506-3.84c-.237-.14-.501-.208-.762-.208-.388 0-.772.15-1.061.439l-3.789 3.789c-.484.484-.579 1.234-.231 1.823l3.84 6.506c.159.268.182.601.062.89s-.372.508-.674.586l-7.315 1.885c-.663.171-1.126.768-1.126 1.453v5.359c0 .685.463 1.282 1.125 1.453zm.375-6.811 7.315-1.885c.761-.196 1.385-.738 1.686-1.464s.243-1.551-.156-2.227l-3.84-6.506 3.789-3.789 6.506 3.84c.39.23.828.347 1.27.347.324 0 .65-.063.958-.19.726-.3 1.268-.925 1.464-1.686l1.885-7.316h5.359l1.885 7.316c.196.761.738 1.386 1.464 1.686.308.128.634.191.958.191.441 0 .88-.117 1.27-.347l6.506-3.84 3.789 3.789-3.84 6.506c-.399.676-.457 1.501-.156 2.227s.925 1.268 1.686 1.464l7.315 1.885v5.359l-7.315 1.885c-.761.196-1.385.738-1.686 1.464s-.243 1.551.156 2.228l3.84 6.507-3.789 3.789-6.506-3.84c-.39-.231-.829-.347-1.27-.347-.324 0-.649.063-.957.191-.726.301-1.268.925-1.464 1.686l-1.885 7.315h-5.359l-1.885-7.315c-.196-.761-.738-1.385-1.464-1.686-.308-.127-.633-.19-.957-.19-.441 0-.881.117-1.27.347l-6.506 3.84-3.789-3.789 3.84-6.507c.399-.677.457-1.501.156-2.228-.301-.726-.925-1.268-1.686-1.464l-7.315-1.885v-5.361z" fill="#ff8639" data-original="#ff8639" class=""></path></g></g></g><g><g><path d="m169.892 71.262c0-6.014-4.893-10.907-10.907-10.907s-10.906 4.893-10.906 10.907 4.893 10.907 10.906 10.907c6.014 0 10.907-4.893 10.907-10.907zm-16.814 0c0-3.257 2.649-5.907 5.906-5.907s5.907 2.65 5.907 5.907-2.65 5.907-5.907 5.907-5.906-2.65-5.906-5.907z" fill="#d3d3d3" data-original="#d3d3d3"></path></g></g><g><g><g fill="#ebe7f2"><path d="m138.907 123.374c0-6.014-4.893-10.907-10.907-10.907s-10.907 4.893-10.907 10.907 4.893 10.907 10.907 10.907c6.015 0 10.907-4.893 10.907-10.907zm-20.314 0c0-5.187 4.22-9.407 9.407-9.407s9.407 4.22 9.407 9.407-4.22 9.407-9.407 9.407-9.407-4.22-9.407-9.407z" fill="#ebe7f2" data-original="#ebe7f2"></path><path d="m135.407 123.374c0-4.084-3.323-7.407-7.407-7.407s-7.407 3.323-7.407 7.407 3.323 7.407 7.407 7.407 7.407-3.323 7.407-7.407zm-13.314 0c0-3.257 2.65-5.907 5.907-5.907s5.907 2.65 5.907 5.907-2.65 5.907-5.907 5.907-5.907-2.65-5.907-5.907z" fill="#ebe7f2" data-original="#ebe7f2"></path></g></g></g><g><g><g fill="#ebe7f2"><path d="m107.922 71.262c0-6.014-4.893-10.907-10.907-10.907s-10.907 4.893-10.907 10.907 4.893 10.907 10.907 10.907 10.907-4.893 10.907-10.907zm-20.313 0c0-5.187 4.22-9.407 9.407-9.407s9.407 4.22 9.407 9.407-4.22 9.407-9.407 9.407-9.407-4.22-9.407-9.407z" fill="#ebe7f2" data-original="#ebe7f2"></path><path d="m104.422 71.262c0-4.084-3.323-7.407-7.407-7.407s-7.407 3.323-7.407 7.407 3.323 7.407 7.407 7.407 7.407-3.323 7.407-7.407zm-13.313 0c0-3.257 2.65-5.907 5.907-5.907s5.907 2.65 5.907 5.907-2.65 5.907-5.907 5.907-5.907-2.65-5.907-5.907z" fill="#ebe7f2" data-original="#ebe7f2"></path></g></g></g><g><g><g fill="#ebe7f2"><path d="m166.392 71.262c0-4.084-3.323-7.407-7.407-7.407s-7.406 3.323-7.406 7.407 3.322 7.407 7.406 7.407 7.407-3.323 7.407-7.407zm-13.314 0c0-3.257 2.649-5.907 5.906-5.907s5.907 2.65 5.907 5.907-2.65 5.907-5.907 5.907-5.906-2.65-5.906-5.907z" fill="#ebe7f2" data-original="#ebe7f2"></path><path d="m169.892 71.262c0-6.014-4.893-10.907-10.907-10.907s-10.906 4.893-10.906 10.907 4.893 10.907 10.906 10.907c6.014 0 10.907-4.893 10.907-10.907zm-20.314 0c0-5.187 4.22-9.407 9.406-9.407 5.187 0 9.407 4.22 9.407 9.407s-4.22 9.407-9.407 9.407c-5.186 0-9.406-4.22-9.406-9.407z" fill="#ebe7f2" data-original="#ebe7f2"></path></g></g></g></g></g></g></svg>