<?xml version="1.0" encoding="utf-8"?>
<!-- Generator: Adobe Illustrator 23.0.5, SVG Export Plug-In . SVG Version: 6.00 Build 0)  -->
<svg version="1.1" id="Layer_1" xmlns:svgjs="http://svgjs.com/svgjs"
	 xmlns="http://www.w3.org/2000/svg" xmlns:xlink="http://www.w3.org/1999/xlink" x="0px" y="0px" viewBox="0 0 512 512"
	 style="enable-background:new 0 0 512 512;" xml:space="preserve">
<style type="text/css">
	.st0{fill:#210963;}
	.st1{fill:#FFC136;}
	.st2{fill:#78B9C8;}
	.st3{fill:#B9EBFF;}
	.st4{fill:#707384;}
	.st5{fill:#5B5C6C;}
	.st6{fill:#3B3B47;}
	.st7{fill:#FF6469;}
	.st8{fill:#FFB96A;}
	.st9{fill:#A7D16C;}
	.st10{fill:#E4EAF7;}
	.st11{fill:#A0DCF0;}
	.st12{fill:#88C057;}
</style>
<g>
	<g>
		<g>
			<g>
				<g id="XMLID_1357_">
					<g id="XMLID_1358_">
						<g id="XMLID_1359_">
							<g id="XMLID_1360_">
								<g id="XMLID_1361_">
									<g id="XMLID_1362_">
										<g id="XMLID_1363_">
											<g id="XMLID_1364_">
												<g id="XMLID_1365_">
													<g id="XMLID_1366_">
														<g id="XMLID_1430_">
															<g id="XMLID_1431_">
																<g id="XMLID_1432_">
																	<g id="XMLID_1433_">
																		<g id="XMLID_1434_">
																			<ellipse class="st0" cx="255.9" cy="256" rx="256" ry="256"/>
																		</g>
																	</g>
																</g>
															</g>
														</g>
													</g>
												</g>
											</g>
										</g>
									</g>
								</g>
							</g>
						</g>
					</g>
				</g>
			</g>
		</g>
	</g>
</g>
<circle class="st1" cx="220.5" cy="160" r="85.5"/>
<g>
	<path class="st2" d="M234.4,333.1c-22.2-20.4-56.7-18.9-77.1,3.4l80.4,73.7C258.1,388,256.6,353.5,234.4,333.1z"/>
	<path class="st2" d="M72.1,340.2c-31.4,20-40.6,61.7-20.6,93.1l113.7-72.5C145.1,329.4,103.5,320.2,72.1,340.2z"/>
	<path class="st3" d="M234.2,374.6c-6.9,0-13.6,1.2-19.7,3.3c-12.8-30.5-42.9-52-78-52c-45.6,0-58.6,47.3-60.3,92.5
		c-0.7,0-25.6-11.3-26.3-11.3c-24.3,0-44,19.7-44,44c0,24.3,19.7,44,44,44h184.4c33.3,0,60.2-27,60.2-60.2
		C294.4,401.6,267.5,374.6,234.2,374.6z"/>
	<path class="st4" d="M205.1,242.7h-119c-11.9,0-21.6,9.7-21.6,21.5v140.4c0,11.9,9.8,21.3,21.6,21.3h119c11.9,0,21.7-9.4,21.7-21.3
		V264.3C226.8,252.4,216.9,242.7,205.1,242.7z"/>
	<path class="st4" d="M226.5,288.6H64.6v-24.4c0-11.9,9.6-21.5,21.5-21.5h119c11.9,0,21.5,9.6,21.5,21.5V288.6z"/>
	<path class="st5" d="M64.6,288.6h161.9v45.8H64.6V288.6z"/>
	<path class="st4" d="M64.6,334.5h161.9v45.8H64.6V334.5z"/>
	<path class="st5" d="M205.1,426.1h-119c-11.9,0-21.5-9.6-21.5-21.5v-24.4h161.9v24.4C226.5,416.5,216.9,426.1,205.1,426.1z"/>
	<path class="st5" d="M226.5,264.3v24.4h-25.7v-24.4c0-11.9-9.6-21.5-21.5-21.5h25.7C216.9,242.8,226.5,252.4,226.5,264.3z"/>
	<path class="st6" d="M200.8,288.6h25.7v45.8h-25.7V288.6z"/>
	<path class="st5" d="M200.8,334.4h25.7v45.8h-25.7V334.4z"/>
	<path class="st6" d="M226.5,380.3v24.4c0,11.9-9.6,21.5-21.5,21.5h-25.7c11.9,0,21.5-9.6,21.5-21.5v-24.4H226.5z"/>
	<path class="st7" d="M91,265.7c0,2.5-2,4.5-4.5,4.5c-2.5,0-4.5-2-4.5-4.5c0-2.5,2-4.5,4.5-4.5C88.9,261.2,91,263.2,91,265.7z"/>
	<path class="st8" d="M107.7,265.7c0,2.5-2,4.5-4.5,4.5s-4.5-2-4.5-4.5c0-2.5,2-4.5,4.5-4.5S107.7,263.2,107.7,265.7z"/>
	<path class="st9" d="M124.4,265.7c0,2.5-2,4.5-4.5,4.5c-2.5,0-4.5-2-4.5-4.5c0-2.5,2-4.5,4.5-4.5
		C122.4,261.2,124.4,263.2,124.4,265.7z"/>
	<path class="st7" d="M91,311.5c0,2.5-2,4.5-4.5,4.5c-2.5,0-4.5-2-4.5-4.5c0-2.5,2-4.5,4.5-4.5C88.9,307,91,309,91,311.5z"/>
	<path class="st8" d="M107.7,311.5c0,2.5-2,4.5-4.5,4.5s-4.5-2-4.5-4.5c0-2.5,2-4.5,4.5-4.5S107.7,309,107.7,311.5z"/>
	<path class="st9" d="M124.4,311.5c0,2.5-2,4.5-4.5,4.5c-2.5,0-4.5-2-4.5-4.5c0-2.5,2-4.5,4.5-4.5C122.4,307,124.4,309,124.4,311.5z
		"/>
	<path class="st7" d="M91,357.4c0,2.5-2,4.5-4.5,4.5c-2.5,0-4.5-2-4.5-4.5c0-2.5,2-4.5,4.5-4.5C88.9,352.8,91,354.9,91,357.4z"/>
	<path class="st8" d="M107.7,357.4c0,2.5-2,4.5-4.5,4.5s-4.5-2-4.5-4.5c0-2.5,2-4.5,4.5-4.5S107.7,354.9,107.7,357.4z"/>
	<path class="st9" d="M124.4,357.4c0,2.5-2,4.5-4.5,4.5c-2.5,0-4.5-2-4.5-4.5c0-2.5,2-4.5,4.5-4.5
		C122.4,352.8,124.4,354.9,124.4,357.4z"/>
	<path class="st7" d="M91,403.2c0,2.5-2,4.5-4.5,4.5c-2.5,0-4.5-2-4.5-4.5c0-2.5,2-4.5,4.5-4.5C88.9,398.6,91,400.7,91,403.2z"/>
	<path class="st8" d="M107.7,403.2c0,2.5-2,4.5-4.5,4.5s-4.5-2-4.5-4.5c0-2.5,2-4.5,4.5-4.5S107.7,400.7,107.7,403.2z"/>
	<path class="st9" d="M124.4,403.2c0,2.5-2,4.5-4.5,4.5c-2.5,0-4.5-2-4.5-4.5c0-2.5,2-4.5,4.5-4.5
		C122.4,398.6,124.4,400.7,124.4,403.2z"/>
	<g>
		<path class="st10" d="M205.4,270.1h-22.4c-2.4,0-4.4-2-4.4-4.4c0-2.4,2-4.4,4.4-4.4h22.4c2.4,0,4.4,2,4.4,4.4
			C209.8,268.1,207.9,270.1,205.4,270.1z"/>
		<path class="st10" d="M205.4,315.9h-22.4c-2.4,0-4.4-2-4.4-4.4c0-2.4,2-4.4,4.4-4.4h22.4c2.4,0,4.4,2,4.4,4.4
			C209.8,314,207.9,315.9,205.4,315.9z"/>
		<path class="st10" d="M205.4,361.8h-22.4c-2.4,0-4.4-2-4.4-4.4c0-2.4,2-4.4,4.4-4.4h22.4c2.4,0,4.4,2,4.4,4.4
			C209.8,359.8,207.9,361.8,205.4,361.8z"/>
		<path class="st10" d="M205.4,407.6h-22.4c-2.4,0-4.4-2-4.4-4.4c0-2.4,2-4.4,4.4-4.4h22.4c2.4,0,4.4,2,4.4,4.4
			C209.8,405.6,207.9,407.6,205.4,407.6z"/>
	</g>
	<path class="st3" d="M185.1,434.9h109.3c0-33.3-27-60.2-60.2-60.2c-28,0-51.6,19.2-58.3,45.1c-0.2,0.6-0.3,1.3-0.5,1.9
		c-11-11.4-26.3-18.5-43.4-18.5c-3.8,0-7.5,0.4-11.1,1c-3.5,0.7-7,1.6-10.3,2.9c-9.9,3.8-18.6,10.1-25.2,18.2c0,0,0,0,0,0
		c-8-11-20.9-18.1-35.6-18.1l44,44c0-7.2-1.8-14.1-4.9-20.1l97.4,6.2C185.9,436.5,185.5,435.7,185.1,434.9z"/>
	<path class="st11" d="M234.2,374.6c-28,0-51.6,19.2-58.3,45.1c-0.4,1.5-0.7,3-1,4.6c0.6,0.5,1.2,0.9,1.8,1.5
		c7.6-24.5,30.5-42.4,57.5-42.4c30.3,0,55.3,22.4,59.6,51.5h0.6C294.4,401.6,267.5,374.6,234.2,374.6z"/>
	<path class="st11" d="M110.6,416c3.3-1.3,6.7-2.2,10.3-2.9c3.6-0.7,7.3-1,11.1-1c15.8,0,32.7,7.7,45.4,21c2.3,2.4,5.4,3.9,8.7,4.1
		l0.2,0c-1.9-4-4.3-7.7-7-11.2c-1.1-1.4-2.2-2.7-3.4-4c-11-11.7-26.6-18.9-43.8-18.9c-3.8,0-7.5,0.4-11.1,1c-3.5,0.7-7,1.6-10.3,2.9
		c-9.9,3.8-18.6,10.1-25.2,18.2c-0.2,0.2-0.4,0.5-0.6,0.7c-2.4,3-1.5,1.1-3.3,4.6l6.7,0.4C94.4,424.5,102.1,419.3,110.6,416z"/>
	<path class="st11" d="M93.5,450.8l0.3,0.3c0-24.3-19.7-44-44-44l-8.1,0.7c1.8,1.3,3.8,2.1,6,2.4c24,3.4,31.7,17.2,36.8,27.8
		C86.8,442.9,89.8,447.2,93.5,450.8z"/>
</g>
<g>
	<path class="st4" d="M458.1,20.5H326.5c-13.1,0-23.9,10.7-23.9,23.8v155.3c0,13.1,10.8,23.5,23.9,23.5h131.6
		c13.1,0,24-10.4,24-23.5V44.3C482.1,31.2,471.2,20.5,458.1,20.5z"/>
	<path class="st4" d="M481.9,71.3H302.7V44.3c0-13.1,10.6-23.8,23.8-23.8h131.6c13.1,0,23.8,10.6,23.8,23.8V71.3z"/>
	<path class="st5" d="M302.7,71.3h179.2V122H302.7V71.3z"/>
	<path class="st4" d="M302.7,122h179.2v50.7H302.7V122z"/>
	<path class="st5" d="M458.1,223.4H326.5c-13.1,0-23.8-10.6-23.8-23.8v-26.9h179.2v26.9C481.9,212.7,471.2,223.4,458.1,223.4z"/>
	<path class="st5" d="M481.9,44.3v26.9h-28.4V44.3c0-13.1-10.6-23.8-23.8-23.8h28.4C471.2,20.6,481.9,31.2,481.9,44.3z"/>
	<path class="st6" d="M453.4,71.3h28.4V122h-28.4V71.3z"/>
	<path class="st5" d="M453.4,122h28.4v50.7h-28.4V122z"/>
	<path class="st6" d="M481.9,172.7v26.9c0,13.1-10.6,23.8-23.8,23.8h-28.4c13.1,0,23.8-10.6,23.8-23.8v-26.9H481.9z"/>
	<path class="st7" d="M331.9,45.9c0,2.8-2.2,5-5,5s-5-2.2-5-5s2.2-5,5-5S331.9,43.2,331.9,45.9z"/>
	<path class="st8" d="M350.4,45.9c0,2.8-2.2,5-5,5c-2.8,0-5-2.2-5-5s2.2-5,5-5C348.1,40.9,350.4,43.2,350.4,45.9z"/>
	<path class="st9" d="M368.9,45.9c0,2.8-2.2,5-5,5c-2.8,0-5-2.2-5-5s2.2-5,5-5C366.6,40.9,368.9,43.2,368.9,45.9z"/>
	<path class="st7" d="M331.9,96.6c0,2.8-2.2,5-5,5s-5-2.2-5-5s2.2-5,5-5S331.9,93.9,331.9,96.6z"/>
	<path class="st8" d="M350.4,96.6c0,2.8-2.2,5-5,5c-2.8,0-5-2.2-5-5s2.2-5,5-5C348.1,91.6,350.4,93.9,350.4,96.6z"/>
	<path class="st9" d="M368.9,96.6c0,2.8-2.2,5-5,5c-2.8,0-5-2.2-5-5s2.2-5,5-5C366.6,91.6,368.9,93.9,368.9,96.6z"/>
	<path class="st7" d="M331.9,147.3c0,2.8-2.2,5-5,5s-5-2.2-5-5c0-2.8,2.2-5,5-5S331.9,144.6,331.9,147.3z"/>
	<path class="st8" d="M350.4,147.3c0,2.8-2.2,5-5,5c-2.8,0-5-2.2-5-5c0-2.8,2.2-5,5-5C348.1,142.3,350.4,144.6,350.4,147.3z"/>
	<path class="st9" d="M368.9,147.3c0,2.8-2.2,5-5,5c-2.8,0-5-2.2-5-5c0-2.8,2.2-5,5-5C366.6,142.3,368.9,144.6,368.9,147.3z"/>
	<path class="st7" d="M331.9,198c0,2.8-2.2,5-5,5s-5-2.2-5-5c0-2.8,2.2-5,5-5S331.9,195.3,331.9,198z"/>
	<path class="st8" d="M350.4,198c0,2.8-2.2,5-5,5c-2.8,0-5-2.2-5-5c0-2.8,2.2-5,5-5C348.1,193,350.4,195.3,350.4,198z"/>
	<path class="st9" d="M368.9,198c0,2.8-2.2,5-5,5c-2.8,0-5-2.2-5-5c0-2.8,2.2-5,5-5C366.6,193,368.9,195.3,368.9,198z"/>
	<g>
		<path class="st10" d="M458.5,50.8h-24.8c-2.7,0-4.9-2.2-4.9-4.9s2.2-4.9,4.9-4.9h24.8c2.7,0,4.9,2.2,4.9,4.9
			S461.2,50.8,458.5,50.8z"/>
		<path class="st10" d="M458.5,101.5h-24.8c-2.7,0-4.9-2.2-4.9-4.9s2.2-4.9,4.9-4.9h24.8c2.7,0,4.9,2.2,4.9,4.9
			S461.2,101.5,458.5,101.5z"/>
		<path class="st10" d="M458.5,152.2h-24.8c-2.7,0-4.9-2.2-4.9-4.9s2.2-4.9,4.9-4.9h24.8c2.7,0,4.9,2.2,4.9,4.9
			S461.2,152.2,458.5,152.2z"/>
		<path class="st10" d="M458.5,202.9h-24.8c-2.7,0-4.9-2.2-4.9-4.9s2.2-4.9,4.9-4.9h24.8c2.7,0,4.9,2.2,4.9,4.9
			S461.2,202.9,458.5,202.9z"/>
	</g>
</g>
<g>
	<path id="XMLID_955_" class="st12" d="M281.9,145.9l-23.6,25.4c-2.8,3-7.4,3.1-10.3,0.4c-3-2.8-3.1-7.4-0.4-10.3l7.2-7.7
		c-50.1-0.6-81.4,34.1-80.4,68.5c0,1.2-1.7,1.6-2.1,0.4c-13.4-35.3,6.9-81,64-91.2c5.5-0.9,11.1-1.7,16.8-2.3l-6.9-6.4
		c-3-2.8-3.1-7.4-0.4-10.3c2.8-3,7.4-3.1,10.3-0.4l25.4,23.6C284.5,138.3,284.7,143,281.9,145.9L281.9,145.9z"/>
</g>
</svg>
