<svg xmlns="http://www.w3.org/2000/svg" version="1.1" xmlns:xlink="http://www.w3.org/1999/xlink" xmlns:svgjs="http://svgjs.com/svgjs" width="512" height="512" x="0" y="0" viewBox="0 0 512 512" style="enable-background:new 0 0 512 512" xml:space="preserve" class=""><g><g xmlns="http://www.w3.org/2000/svg"><g><path d="m256 301c-141.387 0-243.97-133.801-222.898-171 43.972-77.621 127.317-130 222.898-130 95.655 0 179.056 52.461 223 130.181 21.009 37.157-81.613 170.819-223 170.819z" fill="#a8eb58" data-original="#a8eb58"></path><path d="m512 256c0 26.051-3.891 51.191-11.129 74.871-5.031 16.469-11.672 32.231-19.75 47.109-8.25 15.2-147.391 67.02-225.121 67.02s-216.871-51.82-225.109-67.02c-3.289-6.031-6.332-12.21-9.121-18.531-14-31.629-21.77-66.629-21.77-103.449 0-46.219 12.25-89.57 33.68-127 44.121 77.07 127.16 129 222.32 129s178.211-51.93 222.32-129c21.43 37.43 33.68 80.781 33.68 127z" fill="#80cf8c" data-original="#80cf8c"></path><path d="m481.262 377.699c-7.16 13.223-15.434 25.742-24.723 37.43-3.07 3.869-6.251 7.646-9.539 11.326-5.748 6.435-35.639 7.723-42 13.545-15.34 14.047-8.577 31.101-27 41.108-36.268 19.701-77.828 30.892-122 30.892-44.252 0-85.884-11.232-122.199-31-18.347-9.987-15.517-29.004-30.801-43-6.182-5.658-31.909-4.763-37.512-11-3.461-3.852-6.806-7.811-10.027-11.871-9.289-11.688-17.563-24.207-24.723-37.43z" fill="#599d8a" data-original="#599d8a"></path></g><g><path d="m446.578 146h-381.156v280.911c19.465 21.691 42.571 40.047 68.369 54.089h244.418c25.798-14.042 48.903-32.398 68.369-54.089z" fill="#e7faff" data-original="#e7faff"></path><path d="m446.578 146h-190.578v335h122.209c25.798-14.042 48.903-32.398 68.369-54.089z" fill="#dae3f9" data-original="#dae3f9"></path><g id="Equalizer_Controller_1_"><g><path d="m110.833 213h178.667v22.333h-178.667z" fill="#5f657a" data-original="#5f657a"></path></g><path d="m256 213h33.5v22.333h-33.5z" fill="#535564" data-original="#535564"></path><g><path d="m334.167 213h67v22.333h-67z" fill="#535564" data-original="#535564"></path></g><g><path d="m110.833 302.333h67v22.333h-67z" fill="#5f657a" data-original="#5f657a"></path></g><g><path d="m222.5 302.333h178.667v22.333h-178.667z" fill="#5f657a" data-original="#5f657a"></path></g><g><path d="m110.833 391.667h178.667v22.333h-178.667z" fill="#5f657a" data-original="#5f657a"></path></g><path d="m256 391.667h33.5v22.333h-33.5z" fill="#535564" data-original="#535564"></path><g><path d="m334.167 391.667h67v22.333h-67z" fill="#535564" data-original="#535564"></path></g><g><path d="m356.5 257.667h-89.333v-67h89.333z" fill="#8fd59a" data-original="#8fd59a"></path></g><g><path d="m244.833 347h-89.333v-67h89.333z" fill="#8fd59a" data-original="#8fd59a"></path></g><g><path d="m356.5 436.333h-89.333v-67h89.333z" fill="#8fd59a" data-original="#8fd59a"></path></g><g><path d="m356.5 257.667h-45.5v-67h45.5z" fill="#6abcaf" data-original="#6abcaf"></path></g><g><path d="m356.5 436.333h-45.5v-67h45.5z" fill="#6abcaf" data-original="#6abcaf"></path></g></g><g id="Equalizer_Controller_2_"><g><path d="m110.833 302.333h67v22.333h-67z" fill="#5f657a" data-original="#5f657a"></path></g><g><path d="m244.833 347h-89.333v-67h89.333z" fill="#c2e170" data-original="#c2e170"></path></g><g><path d="m244.833 347h-45.833v-67h45.833z" fill="#8fd59a" data-original="#8fd59a"></path></g></g><path d="m256 302.333h145.167v22.333h-145.167z" fill="#535564" data-original="#535564"></path></g><g fill="#fff"><path d="m274.109 37.75h-1.524c-6.754 0-12.226-5.477-12.226-12.227v-1.523h-8.715v1.523c0 6.75-5.477 12.227-12.227 12.227h-1.527v8.715h1.527c6.75 0 12.227 5.472 12.227 12.226v1.528h8.715v-1.528c0-6.754 5.472-12.226 12.226-12.226h1.524z" fill="#ffffff" data-original="#ffffff"></path><path d="m172.219 90.75h-1.524c-6.754 0-12.226-5.477-12.226-12.227v-1.523h-8.715v1.523c0 6.75-5.477 12.227-12.227 12.227h-1.527v8.715h1.527c6.75 0 12.227 5.472 12.227 12.226v1.528h8.715v-1.528c0-6.754 5.472-12.226 12.226-12.226h1.524z" fill="#ffffff" data-original="#ffffff"></path><path d="m379 90.75h-1.524c-6.754 0-12.226-5.477-12.226-12.227v-1.523h-8.715v1.523c0 6.75-5.477 12.227-12.227 12.227h-1.527v8.715h1.527c6.75 0 12.227 5.472 12.227 12.226v1.528h8.715v-1.528c0-6.754 5.472-12.226 12.226-12.226h1.524z" fill="#ffffff" data-original="#ffffff"></path></g></g></g></svg>