<?xml version="1.0" encoding="utf-8"?>
<!-- Generator: Adobe Illustrator 23.0.5, SVG Export Plug-In . SVG Version: 6.00 Build 0)  -->
<svg version="1.1" xmlns="http://www.w3.org/2000/svg" xmlns:xlink="http://www.w3.org/1999/xlink" x="0px" y="0px"
	 viewBox="0 0 100 46.7" style="enable-background:new 0 0 100 46.7;" xml:space="preserve">
<style type="text/css">
	.st0{fill:#071742;}
	.st1{clip-path:url(#SVGID_2_);}
	
		.st2{fill:none;stroke:#F57589;stroke-width:0.2;stroke-linecap:round;stroke-linejoin:round;stroke-miterlimit:10;stroke-dasharray:0,1;}
	
		.st3{fill:none;stroke:#F27488;stroke-width:0.1977;stroke-linecap:round;stroke-linejoin:round;stroke-miterlimit:10;stroke-dasharray:0,1.0041;}
	
		.st4{fill:none;stroke:#EF7387;stroke-width:0.1955;stroke-linecap:round;stroke-linejoin:round;stroke-miterlimit:10;stroke-dasharray:0,1.0082;}
	
		.st5{fill:none;stroke:#EC7286;stroke-width:0.1932;stroke-linecap:round;stroke-linejoin:round;stroke-miterlimit:10;stroke-dasharray:0,1.0123;}
	
		.st6{fill:none;stroke:#E97085;stroke-width:0.1909;stroke-linecap:round;stroke-linejoin:round;stroke-miterlimit:10;stroke-dasharray:0,1.0165;}
	
		.st7{fill:none;stroke:#E66F85;stroke-width:0.1887;stroke-linecap:round;stroke-linejoin:round;stroke-miterlimit:10;stroke-dasharray:0,1.0206;}
	
		.st8{fill:none;stroke:#E36E84;stroke-width:0.1864;stroke-linecap:round;stroke-linejoin:round;stroke-miterlimit:10;stroke-dasharray:0,1.0247;}
	
		.st9{fill:none;stroke:#E06D83;stroke-width:0.1842;stroke-linecap:round;stroke-linejoin:round;stroke-miterlimit:10;stroke-dasharray:0,1.0288;}
	
		.st10{fill:none;stroke:#DD6C82;stroke-width:0.1819;stroke-linecap:round;stroke-linejoin:round;stroke-miterlimit:10;stroke-dasharray:0,1.0329;}
	
		.st11{fill:none;stroke:#DB6B81;stroke-width:0.1796;stroke-linecap:round;stroke-linejoin:round;stroke-miterlimit:10;stroke-dasharray:0,1.037;}
	
		.st12{fill:none;stroke:#D86980;stroke-width:0.1774;stroke-linecap:round;stroke-linejoin:round;stroke-miterlimit:10;stroke-dasharray:0,1.0411;}
	
		.st13{fill:none;stroke:#D5687F;stroke-width:0.1751;stroke-linecap:round;stroke-linejoin:round;stroke-miterlimit:10;stroke-dasharray:0,1.0453;}
	
		.st14{fill:none;stroke:#D2677E;stroke-width:0.1728;stroke-linecap:round;stroke-linejoin:round;stroke-miterlimit:10;stroke-dasharray:0,1.0494;}
	
		.st15{fill:none;stroke:#CF667E;stroke-width:0.1706;stroke-linecap:round;stroke-linejoin:round;stroke-miterlimit:10;stroke-dasharray:0,1.0535;}
	
		.st16{fill:none;stroke:#CC657D;stroke-width:0.1683;stroke-linecap:round;stroke-linejoin:round;stroke-miterlimit:10;stroke-dasharray:0,1.0576;}
	
		.st17{fill:none;stroke:#C9647C;stroke-width:0.166;stroke-linecap:round;stroke-linejoin:round;stroke-miterlimit:10;stroke-dasharray:0,1.0617;}
	
		.st18{fill:none;stroke:#C6627B;stroke-width:0.1638;stroke-linecap:round;stroke-linejoin:round;stroke-miterlimit:10;stroke-dasharray:0,1.0658;}
	
		.st19{fill:none;stroke:#C3617A;stroke-width:0.1615;stroke-linecap:round;stroke-linejoin:round;stroke-miterlimit:10;stroke-dasharray:0,1.07;}
	
		.st20{fill:none;stroke:#C06079;stroke-width:0.1593;stroke-linecap:round;stroke-linejoin:round;stroke-miterlimit:10;stroke-dasharray:0,1.0741;}
	
		.st21{fill:none;stroke:#BD5F78;stroke-width:0.157;stroke-linecap:round;stroke-linejoin:round;stroke-miterlimit:10;stroke-dasharray:0,1.0782;}
	
		.st22{fill:none;stroke:#BA5E77;stroke-width:0.1547;stroke-linecap:round;stroke-linejoin:round;stroke-miterlimit:10;stroke-dasharray:0,1.0823;}
	
		.st23{fill:none;stroke:#B75D77;stroke-width:0.1525;stroke-linecap:round;stroke-linejoin:round;stroke-miterlimit:10;stroke-dasharray:0,1.0864;}
	
		.st24{fill:none;stroke:#B45B76;stroke-width:0.1502;stroke-linecap:round;stroke-linejoin:round;stroke-miterlimit:10;stroke-dasharray:0,1.0905;}
	
		.st25{fill:none;stroke:#B15A75;stroke-width:0.1479;stroke-linecap:round;stroke-linejoin:round;stroke-miterlimit:10;stroke-dasharray:0,1.0947;}
	
		.st26{fill:none;stroke:#AE5974;stroke-width:0.1457;stroke-linecap:round;stroke-linejoin:round;stroke-miterlimit:10;stroke-dasharray:0,1.0988;}
	
		.st27{fill:none;stroke:#AC5873;stroke-width:0.1434;stroke-linecap:round;stroke-linejoin:round;stroke-miterlimit:10;stroke-dasharray:0,1.1029;}
	
		.st28{fill:none;stroke:#A95772;stroke-width:0.1412;stroke-linecap:round;stroke-linejoin:round;stroke-miterlimit:10;stroke-dasharray:0,1.107;}
	
		.st29{fill:none;stroke:#A65671;stroke-width:0.1389;stroke-linecap:round;stroke-linejoin:round;stroke-miterlimit:10;stroke-dasharray:0,1.1111;}
	
		.st30{fill:none;stroke:#A35570;stroke-width:0.1366;stroke-linecap:round;stroke-linejoin:round;stroke-miterlimit:10;stroke-dasharray:0,1.1152;}
	
		.st31{fill:none;stroke:#A05370;stroke-width:0.1344;stroke-linecap:round;stroke-linejoin:round;stroke-miterlimit:10;stroke-dasharray:0,1.1193;}
	
		.st32{fill:none;stroke:#9D526F;stroke-width:0.1321;stroke-linecap:round;stroke-linejoin:round;stroke-miterlimit:10;stroke-dasharray:0,1.1235;}
	
		.st33{fill:none;stroke:#9A516E;stroke-width:0.1298;stroke-linecap:round;stroke-linejoin:round;stroke-miterlimit:10;stroke-dasharray:0,1.1276;}
	
		.st34{fill:none;stroke:#97506D;stroke-width:0.1276;stroke-linecap:round;stroke-linejoin:round;stroke-miterlimit:10;stroke-dasharray:0,1.1317;}
	
		.st35{fill:none;stroke:#944F6C;stroke-width:0.1253;stroke-linecap:round;stroke-linejoin:round;stroke-miterlimit:10;stroke-dasharray:0,1.1358;}
	
		.st36{fill:none;stroke:#914E6B;stroke-width:0.123;stroke-linecap:round;stroke-linejoin:round;stroke-miterlimit:10;stroke-dasharray:0,1.1399;}
	
		.st37{fill:none;stroke:#8E4C6A;stroke-width:0.1208;stroke-linecap:round;stroke-linejoin:round;stroke-miterlimit:10;stroke-dasharray:0,1.144;}
	
		.st38{fill:none;stroke:#8B4B69;stroke-width:0.1185;stroke-linecap:round;stroke-linejoin:round;stroke-miterlimit:10;stroke-dasharray:0,1.1481;}
	
		.st39{fill:none;stroke:#884A69;stroke-width:0.1163;stroke-linecap:round;stroke-linejoin:round;stroke-miterlimit:10;stroke-dasharray:0,1.1523;}
	
		.st40{fill:none;stroke:#854968;stroke-width:0.114;stroke-linecap:round;stroke-linejoin:round;stroke-miterlimit:10;stroke-dasharray:0,1.1564;}
	
		.st41{fill:none;stroke:#824867;stroke-width:0.1117;stroke-linecap:round;stroke-linejoin:round;stroke-miterlimit:10;stroke-dasharray:0,1.1605;}
	
		.st42{fill:none;stroke:#7F4766;stroke-width:0.1095;stroke-linecap:round;stroke-linejoin:round;stroke-miterlimit:10;stroke-dasharray:0,1.1646;}
	
		.st43{fill:none;stroke:#7D4565;stroke-width:0.1072;stroke-linecap:round;stroke-linejoin:round;stroke-miterlimit:10;stroke-dasharray:0,1.1687;}
	
		.st44{fill:none;stroke:#7A4464;stroke-width:0.1049;stroke-linecap:round;stroke-linejoin:round;stroke-miterlimit:10;stroke-dasharray:0,1.1728;}
	
		.st45{fill:none;stroke:#774363;stroke-width:0.1027;stroke-linecap:round;stroke-linejoin:round;stroke-miterlimit:10;stroke-dasharray:0,1.1769;}
	
		.st46{fill:none;stroke:#744262;stroke-width:0.1004;stroke-linecap:round;stroke-linejoin:round;stroke-miterlimit:10;stroke-dasharray:0,1.1811;}
	
		.st47{fill:none;stroke:#714162;stroke-width:9.814800e-02;stroke-linecap:round;stroke-linejoin:round;stroke-miterlimit:10;stroke-dasharray:0,1.1852;}
	
		.st48{fill:none;stroke:#6E4061;stroke-width:9.588500e-02;stroke-linecap:round;stroke-linejoin:round;stroke-miterlimit:10;stroke-dasharray:0,1.1893;}
	
		.st49{fill:none;stroke:#6B3E60;stroke-width:9.362100e-02;stroke-linecap:round;stroke-linejoin:round;stroke-miterlimit:10;stroke-dasharray:0,1.1934;}
	
		.st50{fill:none;stroke:#683D5F;stroke-width:9.135800e-02;stroke-linecap:round;stroke-linejoin:round;stroke-miterlimit:10;stroke-dasharray:0,1.1975;}
	
		.st51{fill:none;stroke:#653C5E;stroke-width:8.909500e-02;stroke-linecap:round;stroke-linejoin:round;stroke-miterlimit:10;stroke-dasharray:0,1.2017;}
	
		.st52{fill:none;stroke:#623B5D;stroke-width:8.683100e-02;stroke-linecap:round;stroke-linejoin:round;stroke-miterlimit:10;stroke-dasharray:0,1.2058;}
	
		.st53{fill:none;stroke:#5F3A5C;stroke-width:8.456800e-02;stroke-linecap:round;stroke-linejoin:round;stroke-miterlimit:10;stroke-dasharray:0,1.2099;}
	
		.st54{fill:none;stroke:#5C395B;stroke-width:8.230500e-02;stroke-linecap:round;stroke-linejoin:round;stroke-miterlimit:10;stroke-dasharray:0,1.214;}
	
		.st55{fill:none;stroke:#59375B;stroke-width:8.004100e-02;stroke-linecap:round;stroke-linejoin:round;stroke-miterlimit:10;stroke-dasharray:0,1.2181;}
	
		.st56{fill:none;stroke:#56365A;stroke-width:7.777800e-02;stroke-linecap:round;stroke-linejoin:round;stroke-miterlimit:10;stroke-dasharray:0,1.2222;}
	
		.st57{fill:none;stroke:#533559;stroke-width:7.551400e-02;stroke-linecap:round;stroke-linejoin:round;stroke-miterlimit:10;stroke-dasharray:0,1.2263;}
	
		.st58{fill:none;stroke:#503458;stroke-width:7.325100e-02;stroke-linecap:round;stroke-linejoin:round;stroke-miterlimit:10;stroke-dasharray:0,1.2305;}
	
		.st59{fill:none;stroke:#4E3357;stroke-width:7.098800e-02;stroke-linecap:round;stroke-linejoin:round;stroke-miterlimit:10;stroke-dasharray:0,1.2346;}
	
		.st60{fill:none;stroke:#4B3256;stroke-width:6.872400e-02;stroke-linecap:round;stroke-linejoin:round;stroke-miterlimit:10;stroke-dasharray:0,1.2387;}
	
		.st61{fill:none;stroke:#483155;stroke-width:6.646100e-02;stroke-linecap:round;stroke-linejoin:round;stroke-miterlimit:10;stroke-dasharray:0,1.2428;}
	
		.st62{fill:none;stroke:#452F54;stroke-width:6.419800e-02;stroke-linecap:round;stroke-linejoin:round;stroke-miterlimit:10;stroke-dasharray:0,1.2469;}
	
		.st63{fill:none;stroke:#422E54;stroke-width:6.193400e-02;stroke-linecap:round;stroke-linejoin:round;stroke-miterlimit:10;stroke-dasharray:0,1.251;}
	
		.st64{fill:none;stroke:#3F2D53;stroke-width:5.967100e-02;stroke-linecap:round;stroke-linejoin:round;stroke-miterlimit:10;stroke-dasharray:0,1.2551;}
	
		.st65{fill:none;stroke:#3C2C52;stroke-width:5.740700e-02;stroke-linecap:round;stroke-linejoin:round;stroke-miterlimit:10;stroke-dasharray:0,1.2593;}
	
		.st66{fill:none;stroke:#392B51;stroke-width:5.514400e-02;stroke-linecap:round;stroke-linejoin:round;stroke-miterlimit:10;stroke-dasharray:0,1.2634;}
	
		.st67{fill:none;stroke:#362A50;stroke-width:5.288100e-02;stroke-linecap:round;stroke-linejoin:round;stroke-miterlimit:10;stroke-dasharray:0,1.2675;}
	
		.st68{fill:none;stroke:#33284F;stroke-width:5.061700e-02;stroke-linecap:round;stroke-linejoin:round;stroke-miterlimit:10;stroke-dasharray:0,1.2716;}
	
		.st69{fill:none;stroke:#30274E;stroke-width:4.835400e-02;stroke-linecap:round;stroke-linejoin:round;stroke-miterlimit:10;stroke-dasharray:0,1.2757;}
	
		.st70{fill:none;stroke:#2D264D;stroke-width:4.609100e-02;stroke-linecap:round;stroke-linejoin:round;stroke-miterlimit:10;stroke-dasharray:0,1.2798;}
	
		.st71{fill:none;stroke:#2A254D;stroke-width:4.382700e-02;stroke-linecap:round;stroke-linejoin:round;stroke-miterlimit:10;stroke-dasharray:0,1.2839;}
	
		.st72{fill:none;stroke:#27244C;stroke-width:4.156400e-02;stroke-linecap:round;stroke-linejoin:round;stroke-miterlimit:10;stroke-dasharray:0,1.2881;}
	
		.st73{fill:none;stroke:#24234B;stroke-width:3.930000e-02;stroke-linecap:round;stroke-linejoin:round;stroke-miterlimit:10;stroke-dasharray:0,1.2922;}
	
		.st74{fill:none;stroke:#21214A;stroke-width:3.703700e-02;stroke-linecap:round;stroke-linejoin:round;stroke-miterlimit:10;stroke-dasharray:0,1.2963;}
	
		.st75{fill:none;stroke:#1F2049;stroke-width:3.477400e-02;stroke-linecap:round;stroke-linejoin:round;stroke-miterlimit:10;stroke-dasharray:0,1.3004;}
	
		.st76{fill:none;stroke:#1C1F48;stroke-width:3.251000e-02;stroke-linecap:round;stroke-linejoin:round;stroke-miterlimit:10;stroke-dasharray:0,1.3045;}
	
		.st77{fill:none;stroke:#191E47;stroke-width:3.024700e-02;stroke-linecap:round;stroke-linejoin:round;stroke-miterlimit:10;stroke-dasharray:0,1.3086;}
	
		.st78{fill:none;stroke:#161D46;stroke-width:2.798400e-02;stroke-linecap:round;stroke-linejoin:round;stroke-miterlimit:10;stroke-dasharray:0,1.3128;}
	
		.st79{fill:none;stroke:#131C46;stroke-width:2.572000e-02;stroke-linecap:round;stroke-linejoin:round;stroke-miterlimit:10;stroke-dasharray:0,1.3169;}
	
		.st80{fill:none;stroke:#101A45;stroke-width:2.345700e-02;stroke-linecap:round;stroke-linejoin:round;stroke-miterlimit:10;stroke-dasharray:0,1.321;}
	
		.st81{fill:none;stroke:#0D1944;stroke-width:2.119300e-02;stroke-linecap:round;stroke-linejoin:round;stroke-miterlimit:10;stroke-dasharray:0,1.3251;}
	
		.st82{fill:none;stroke:#0A1843;stroke-width:1.893000e-02;stroke-linecap:round;stroke-linejoin:round;stroke-miterlimit:10;stroke-dasharray:0,1.3292;}
	
		.st83{fill:none;stroke:#071742;stroke-width:1.666700e-02;stroke-linecap:round;stroke-linejoin:round;stroke-miterlimit:10;stroke-dasharray:0,1.3333;}
	.st84{opacity:0;}
</style>
<g id="bg">
	<rect class="st0" width="100" height="46.7"/>
</g>
<g id="line_particles">
	<g>
		<defs>
			<rect id="SVGID_1_" width="100" height="46.7"/>
		</defs>
		<clipPath id="SVGID_2_">
			<use xlink:href="#SVGID_1_"  style="overflow:visible;"/>
		</clipPath>
		<g class="st1">
			<path class="st2" d="M-19,35c8.5-9.1,22.3-12.7,34.2-9c8,2.5,14.8,8,23,9.9c12.1,2.9,25.2-2.7,33.7-11.8
				c5.4-5.8,9.7-13.1,16.8-16.7c6.8-3.5,15.1-2.8,22.5-0.5"/>
			<path class="st3" d="M-18.9,34.8c5.1-5.4,12.2-8.6,19.7-9.7c4.9-0.7,9.8-0.4,14.4,1.1c3.3,1.1,6.4,2.7,9.6,4.3
				c4.4,2.2,8.7,4.5,13.4,5.6c3.7,0.9,7.5,0.9,11.3,0.3c8.4-1.4,16.5-6.1,22.4-12.3c4.2-4.4,7.6-9.6,12.2-13.4
				c1.4-1.2,3-2.3,4.7-3.1c6.9-3.4,15.2-2.7,22.5-0.4"/>
			<path class="st4" d="M-18.9,34.5c5-5.2,12.1-8.2,19.5-9.3c4.9-0.8,9.8-0.5,14.4,1.1c3.3,1.1,6.4,2.8,9.5,4.4
				C28.9,32.8,33.3,35,38,36c3.7,0.8,7.5,0.8,11.2,0.2c8.4-1.4,16.4-6.2,22.4-12.5c4.2-4.4,7.7-9.5,12.3-13.3c1.5-1.2,3-2.2,4.7-3.1
				c6.9-3.4,15.2-2.5,22.5-0.2"/>
			<path class="st5" d="M-18.8,34.3c5-5.1,11.9-7.7,19.4-9c5-0.8,9.9-0.5,14.4,1c3.3,1.1,6.3,2.9,9.5,4.4c4.4,2.1,8.7,4.3,13.4,5.3
				c3.7,0.8,7.5,0.7,11.2,0.1c8.4-1.5,16.3-6.3,22.3-12.6c4.2-4.4,7.8-9.5,12.4-13.2c1.5-1.2,3-2.2,4.8-3c6.9-3.3,15.2-2.4,22.5,0"
				/>
			<path class="st6" d="M-18.7,34.1c4.9-4.9,11.8-7.3,19.2-8.6c5-0.9,9.9-0.6,14.4,1c3.3,1.2,6.3,3,9.4,4.5
				c4.4,2.1,8.7,4.2,13.4,5.1c3.7,0.7,7.5,0.7,11.2,0c8.3-1.6,16.2-6.5,22.3-12.7c4.2-4.4,7.9-9.4,12.5-13.1c1.5-1.2,3-2.2,4.8-3
				c6.9-3.2,15.2-2.3,22.4,0.2"/>
			<path class="st7" d="M-18.6,33.9c4.8-4.7,11.7-6.8,19.1-8.2c5.1-0.9,9.9-0.6,14.4,1c3.3,1.2,6.2,3.1,9.4,4.5
				c4.4,2.1,8.8,4.1,13.5,5c3.7,0.7,7.5,0.6,11.2-0.2c8.3-1.7,16.2-6.6,22.3-12.9c4.2-4.3,7.9-9.4,12.6-12.9
				c1.5-1.1,3.1-2.1,4.8-2.9c7-3.1,15.2-2.2,22.4,0.4"/>
			<path class="st8" d="M-18.5,33.7C-13.8,29.2-7,27.4,0.4,26c5.1-1,10-0.7,14.4,1c3.3,1.2,6.2,3.1,9.4,4.6c4.4,2,8.8,4,13.5,4.8
				c3.7,0.6,7.5,0.5,11.1-0.3c8.3-1.8,16.1-6.8,22.2-13c4.3-4.3,8-9.3,12.7-12.8c1.5-1.1,3.1-2.1,4.8-2.9c7-3.1,15.2-2.1,22.4,0.6"
				/>
			<path class="st9" d="M-18.4,33.5c4.7-4.4,11.4-5.9,18.8-7.4c5.2-1,10-0.7,14.4,0.9c3.2,1.2,6.1,3.2,9.3,4.7
				c4.4,2,8.8,3.9,13.5,4.7C41.3,37,45,36.8,48.7,36c8.2-1.8,16-6.9,22.2-13.1c4.3-4.3,8.1-9.2,12.8-12.7c1.5-1.1,3.1-2.1,4.8-2.8
				c7-3,15.3-1.9,22.4,0.8"/>
			<path class="st10" d="M-18.3,33.3c4.6-4.2,11.3-5.5,18.6-7c5.3-1.1,10.1-0.8,14.4,0.9c3.2,1.3,6.1,3.3,9.3,4.7
				c4.5,2,8.8,3.8,13.5,4.5c3.7,0.6,7.4,0.3,11.1-0.5c8.2-1.9,16-7.1,22.1-13.2c4.3-4.3,8.1-9.2,12.9-12.6c1.5-1.1,3.1-2,4.9-2.8
				c7-2.9,15.3-1.8,22.4,0.9"/>
			<path class="st11" d="M-18.3,33.1c4.5-4.1,11.1-5,18.5-6.6c5.3-1.1,10.1-0.9,14.4,0.9c3.2,1.3,6,3.4,9.2,4.8
				c4.5,1.9,8.9,3.7,13.6,4.4c3.7,0.5,7.4,0.2,11-0.6c8.2-2,15.9-7.2,22.1-13.4c4.3-4.3,8.2-9.1,13-12.5c1.5-1.1,3.1-2,4.9-2.7
				c7-2.9,15.3-1.7,22.4,1.1"/>
			<path class="st12" d="M-18.2,32.9c4.5-3.9,11-4.6,18.3-6.2c5.4-1.2,10.1-0.9,14.4,0.9c3.2,1.3,6,3.5,9.2,4.9
				c4.5,1.9,8.9,3.6,13.6,4.2c3.7,0.5,7.4,0.2,11-0.8c8.2-2.1,15.8-7.3,22.1-13.5c4.4-4.3,8.3-9,13.1-12.3c1.5-1.1,3.1-2,4.9-2.7
				c7.1-2.8,15.3-1.6,22.4,1.3"/>
			<path class="st13" d="M-18.1,32.7c4.4-3.7,10.9-4.1,18.2-5.8c5.4-1.3,10.2-1,14.4,0.8c3.2,1.4,5.9,3.6,9.2,4.9
				c4.5,1.9,8.9,3.6,13.6,4.1c3.7,0.4,7.4,0.1,11-0.9c8.1-2.2,15.7-7.5,22-13.6c4.4-4.3,8.3-9,13.2-12.2c1.5-1,3.2-1.9,4.9-2.6
				c7.1-2.7,15.3-1.4,22.4,1.5"/>
			<path class="st14" d="M-18,32.5c4.3-3.6,10.7-3.7,18-5.4c5.5-1.3,10.2-1,14.4,0.8c3.2,1.4,5.9,3.7,9.1,5
				c4.5,1.8,8.9,3.5,13.6,3.9c3.7,0.4,7.4,0,11-1c8.1-2.3,15.7-7.6,22-13.8c4.4-4.3,8.4-8.9,13.3-12.1c1.5-1,3.2-1.9,5-2.5
				c7.1-2.6,15.4-1.3,22.4,1.7"/>
			<path class="st15" d="M-17.9,32.3c4.3-3.4,10.6-3.3,17.9-5.1c5.6-1.4,10.3-1.1,14.4,0.8c3.2,1.4,5.8,3.7,9.1,5
				c4.5,1.8,9,3.4,13.7,3.8c3.7,0.3,7.4-0.1,10.9-1.1C56.1,33.4,63.6,28,70,21.9c4.4-4.3,8.5-8.8,13.4-12c1.6-1,3.2-1.9,5-2.5
				c7.1-2.6,15.4-1.2,22.3,1.9"/>
			<path class="st16" d="M-17.8,32.1c4.2-3.2,10.4-2.8,17.7-4.7c5.6-1.4,10.3-1.1,14.4,0.8c3.2,1.4,5.8,3.8,9.1,5.1
				c4.6,1.8,9,3.3,13.7,3.6c3.7,0.3,7.4-0.2,10.9-1.2c8-2.4,15.5-7.9,21.9-14c4.5-4.3,8.6-8.8,13.5-11.9c1.6-1,3.2-1.8,5-2.4
				c7.2-2.5,15.4-1.1,22.3,2.1"/>
			<path class="st17" d="M-17.8,31.9c4.1-3.1,10.3-2.4,17.6-4.3c5.7-1.5,10.3-1.2,14.4,0.7c3.1,1.5,5.7,3.9,9,5.2
				c4.6,1.7,9,3.2,13.7,3.5c3.7,0.2,7.4-0.3,10.9-1.4c8-2.5,15.4-8.1,21.9-14.1c4.5-4.2,8.6-8.7,13.6-11.7c1.6-1,3.2-1.8,5-2.4
				c7.2-2.4,15.4-1,22.3,2.2"/>
			<path class="st18" d="M-17.7,31.7c4.1-2.9,10.2-1.9,17.4-3.9c5.7-1.5,10.4-1.2,14.4,0.7c3.1,1.5,5.7,4,9,5.2
				c4.6,1.7,9.1,3.1,13.7,3.3c3.7,0.2,7.3-0.3,10.9-1.5c8-2.6,15.4-8.2,21.8-14.3c4.5-4.2,8.7-8.7,13.7-11.6c1.6-0.9,3.2-1.7,5-2.3
				c7.2-2.4,15.4-0.8,22.3,2.4"/>
			<path class="st19" d="M-17.6,31.5c4-2.7,10-1.5,17.3-3.5c5.8-1.6,10.4-1.3,14.4,0.7c3.1,1.5,5.6,4.1,8.9,5.3
				c4.6,1.7,9.1,3,13.8,3.2c3.7,0.2,7.3-0.4,10.8-1.6c7.9-2.7,15.3-8.3,21.8-14.4c4.5-4.2,8.8-8.6,13.8-11.5
				c1.6-0.9,3.3-1.7,5.1-2.3c7.2-2.3,15.5-0.7,22.3,2.6"/>
			<path class="st20" d="M-17.5,31.3c3.9-2.6,9.9-1.1,17.1-3.1c5.9-1.7,10.5-1.3,14.4,0.7c3.1,1.6,5.6,4.2,8.9,5.3
				c4.6,1.6,9.1,2.9,13.8,3c3.7,0.1,7.3-0.5,10.8-1.7c7.9-2.7,15.2-8.5,21.7-14.5c4.5-4.2,8.8-8.5,13.9-11.4
				c1.6-0.9,3.3-1.7,5.1-2.2c7.2-2.2,15.5-0.6,22.3,2.8"/>
			<path class="st21" d="M-17.4,31.1c3.9-2.4,9.8-0.6,17-2.7C5.5,26.7,10,27,14,29c3.1,1.6,5.5,4.3,8.9,5.4
				c4.6,1.6,9.1,2.8,13.8,2.9c3.7,0.1,7.3-0.6,10.8-1.8c7.9-2.8,15.2-8.6,21.7-14.7c4.6-4.2,8.9-8.5,14-11.3
				c1.6-0.9,3.3-1.6,5.1-2.2c7.3-2.2,15.5-0.5,22.3,3"/>
			<path class="st22" d="M-17.3,30.9c3.8-2.3,9.6-0.2,16.8-2.3c6-1.8,10.5-1.5,14.4,0.6c3.1,1.6,5.5,4.3,8.8,5.5
				c4.7,1.6,9.2,2.7,13.8,2.8c3.7,0,7.3-0.7,10.8-2c7.9-2.9,15.1-8.8,21.7-14.8c4.6-4.2,9-8.4,14.1-11.1c1.6-0.9,3.3-1.6,5.1-2.1
				c7.3-2.1,15.5-0.3,22.3,3.2"/>
			<path class="st23" d="M-17.2,30.7c3.7-2.1,9.5,0.2,16.7-1.9c6-1.8,10.6-1.5,14.4,0.6c3.1,1.7,5.4,4.4,8.8,5.5
				c4.7,1.5,9.2,2.6,13.9,2.6c3.7,0,7.3-0.8,10.7-2.1c7.8-3,15-8.9,21.6-14.9c4.6-4.2,9.1-8.3,14.2-11c1.6-0.9,3.3-1.6,5.2-2.1
				c7.3-2,15.5-0.2,22.2,3.4"/>
			<path class="st24" d="M-17.2,30.5c3.6-1.9,9.4,0.7,16.5-1.5c6.1-1.9,10.6-1.6,14.4,0.5c3.1,1.7,5.4,4.5,8.7,5.6
				c4.7,1.5,9.2,2.5,13.9,2.5c3.7-0.1,7.3-0.9,10.7-2.2c7.8-3.1,14.9-9.1,21.6-15c4.6-4.2,9.1-8.3,14.3-10.9c1.6-0.8,3.4-1.5,5.2-2
				c7.3-1.9,15.5-0.1,22.2,3.5"/>
			<path class="st25" d="M-17.1,30.3c3.6-1.8,9.2,1.1,16.4-1.2c6.1-2,10.6-1.6,14.4,0.5c3.1,1.7,5.3,4.6,8.7,5.7
				c4.7,1.5,9.2,2.4,13.9,2.3c3.7-0.1,7.3-0.9,10.7-2.3c7.8-3.2,14.9-9.2,21.5-15.2C73.2,16,77.7,12,82.9,9.4c1.6-0.8,3.4-1.5,5.2-2
				c7.4-1.9,15.6,0,22.2,3.7"/>
			<path class="st26" d="M-17,30.1c3.5-1.6,9.1,1.5,16.2-0.8c6.2-2,10.7-1.7,14.4,0.5c3,1.7,5.3,4.7,8.7,5.7
				c4.7,1.4,9.3,2.4,13.9,2.2c3.6-0.1,7.2-1,10.7-2.4C54.6,32.1,61.7,26,68.4,20c4.7-4.2,9.3-8.1,14.5-10.7c1.7-0.8,3.4-1.5,5.2-1.9
				c7.4-1.8,15.6,0.1,22.2,3.9"/>
			<path class="st27" d="M-16.9,29.9c3.4-1.4,9,2,16.1-0.4c6.3-2.1,10.7-1.7,14.4,0.5c3,1.8,5.2,4.8,8.6,5.8c4.7,1.4,9.3,2.3,14,2
				c3.6-0.2,7.2-1.1,10.6-2.6c7.7-3.3,14.7-9.5,21.4-15.4c4.7-4.1,9.3-8.1,14.6-10.5c1.7-0.8,3.4-1.4,5.2-1.9
				c7.4-1.7,15.6,0.3,22.2,4.1"/>
			<path class="st28" d="M-16.8,29.7c3.4-1.3,8.8,2.4,15.9,0c6.3-2.1,10.8-1.8,14.4,0.4c3,1.8,5.2,4.9,8.6,5.8
				c4.7,1.4,9.3,2.2,14,1.9c3.6-0.2,7.2-1.2,10.6-2.7c7.7-3.4,14.6-9.6,21.4-15.5c4.7-4.1,9.4-8,14.7-10.4c1.7-0.8,3.4-1.4,5.3-1.8
				c7.4-1.7,15.6,0.4,22.2,4.3"/>
			<path class="st29" d="M-16.7,29.5c3.3-1.1,8.7,2.8,15.8,0.4c6.4-2.2,10.8-1.8,14.5,0.4c3,1.8,5.1,4.9,8.5,5.9
				c4.8,1.3,9.3,2.1,14,1.7c3.6-0.3,7.2-1.3,10.6-2.8c7.6-3.5,14.6-9.8,21.4-15.7c4.8-4.1,9.5-7.9,14.8-10.3
				c1.7-0.7,3.4-1.3,5.3-1.7c7.4-1.6,15.6,0.5,22.2,4.5"/>
			<path class="st30" d="M-16.6,29.3c3.2-0.9,8.5,3.3,15.6,0.8c6.4-2.3,10.8-1.9,14.5,0.4c3,1.9,5.1,5,8.5,6c4.8,1.3,9.4,2,14,1.6
				c3.6-0.3,7.2-1.4,10.6-2.9c7.6-3.6,14.5-9.9,21.3-15.8c4.8-4.1,9.5-7.9,14.9-10.2c1.7-0.7,3.5-1.3,5.3-1.7
				c7.5-1.5,15.7,0.6,22.2,4.7"/>
			<path class="st31" d="M-16.6,29.1c3.2-0.8,8.4,3.7,15.5,1.2c6.5-2.3,10.9-1.9,14.5,0.4c3,1.9,5,5.1,8.5,6c4.8,1.3,9.4,1.9,14,1.4
				c3.6-0.4,7.2-1.4,10.5-3C54,31.4,60.8,25,67.7,19.1c4.8-4.1,9.6-7.8,15-10.1c1.7-0.7,3.5-1.3,5.3-1.6c7.5-1.5,15.7,0.8,22.2,4.8"
				/>
			<path class="st32" d="M-16.5,28.9c3.1-0.6,8.3,4.1,15.3,1.6c6.6-2.4,10.9-2,14.5,0.3c3,1.9,4.9,5.2,8.4,6.1
				c4.8,1.2,9.4,1.8,14.1,1.3c3.6-0.4,7.2-1.5,10.5-3.2c7.6-3.7,14.4-10.2,21.2-16.1c4.8-4.1,9.7-7.8,15.1-9.9
				c1.7-0.7,3.5-1.2,5.4-1.6c7.5-1.4,15.7,0.9,22.1,5"/>
			<path class="st33" d="M-16.4,28.7c3-0.4,8.1,4.6,15.1,2c6.6-2.4,11-2,14.5,0.3c3,2,4.9,5.3,8.4,6.1c4.8,1.2,9.5,1.7,14.1,1.1
				c3.6-0.5,7.2-1.6,10.5-3.3c7.5-3.8,14.3-10.3,21.2-16.2c4.8-4.1,9.8-7.7,15.2-9.8c1.7-0.7,3.5-1.2,5.4-1.5
				c7.5-1.3,15.7,1,22.1,5.2"/>
			<path class="st34" d="M-16.3,28.5c2.9-0.3,8,5,15,2.4c6.7-2.5,11-2.1,14.5,0.3c2.9,2,4.8,5.4,8.4,6.2c4.8,1.2,9.5,1.6,14.1,1
				c3.6-0.5,7.2-1.7,10.5-3.4c7.5-3.9,14.2-10.5,21.2-16.3c4.9-4.1,9.8-7.6,15.3-9.7c1.7-0.7,3.5-1.2,5.4-1.5
				c7.6-1.2,15.7,1.1,22.1,5.4"/>
			<path class="st35" d="M-16.2,28.3c2.9-0.1,7.9,5.4,14.8,2.7c6.7-2.6,11-2.1,14.5,0.3c2.9,2,4.8,5.5,8.3,6.3
				c4.9,1.1,9.5,1.5,14.1,0.8c3.6-0.5,7.1-1.8,10.4-3.5c7.5-4,14.1-10.6,21.1-16.4c4.9-4.1,9.9-7.6,15.4-9.6
				c1.7-0.6,3.5-1.1,5.4-1.4c7.6-1.2,15.8,1.2,22.1,5.6"/>
			<path class="st36" d="M-16.1,28.1c2.8,0.1,7.7,5.9,14.7,3.1c6.8-2.6,11.1-2.2,14.5,0.2c2.9,2.1,4.7,5.5,8.3,6.3
				c4.9,1.1,9.5,1.4,14.2,0.7c3.6-0.6,7.1-1.9,10.4-3.6c7.5-4,14.1-10.8,21.1-16.6c4.9-4.1,10-7.5,15.5-9.4c1.7-0.6,3.6-1.1,5.4-1.4
				c7.6-1.1,15.8,1.4,22.1,5.8"/>
			<path class="st37" d="M-16.1,27.9c2.7,0.2,7.6,6.3,14.5,3.5c6.8-2.7,11.1-2.2,14.5,0.2c2.9,2.1,4.7,5.6,8.2,6.4
				c4.9,1.1,9.6,1.3,14.2,0.5c3.6-0.6,7.1-1.9,10.4-3.8c7.4-4.1,14-10.9,21-16.7c4.9-4,10-7.4,15.6-9.3c1.8-0.6,3.6-1.1,5.5-1.3
				c7.6-1,15.8,1.5,22.1,6"/>
			<path class="st38" d="M-16,27.7c2.7,0.4,7.4,6.7,14.4,3.9c6.9-2.8,11.2-2.3,14.5,0.2c2.9,2.1,4.6,5.7,8.2,6.5
				c4.9,1,9.6,1.2,14.2,0.4c3.6-0.7,7.1-2,10.3-3.9c7.4-4.2,13.9-11.1,21-16.8c5-4,10.1-7.4,15.7-9.2c1.8-0.6,3.6-1,5.5-1.3
				c7.6-1,15.8,1.6,22.1,6.1"/>
			<path class="st39" d="M-15.9,27.5c2.6,0.5,7.3,7.1,14.2,4.3c7-2.8,11.2-2.3,14.5,0.2c2.9,2.2,4.6,5.8,8.2,6.5
				c4.9,1,9.6,1.2,14.2,0.2c3.6-0.7,7.1-2.1,10.3-4c7.4-4.3,13.8-11.2,21-17c5-4,10.2-7.3,15.8-9.1c1.8-0.6,3.6-1,5.5-1.2
				c7.7-0.9,15.8,1.7,22.1,6.3"/>
			<path class="st40" d="M-15.8,27.3c2.5,0.7,7.2,7.6,14.1,4.7c7-2.9,11.2-2.4,14.5,0.1c2.9,2.2,4.5,5.9,8.1,6.6
				c4.9,1,9.6,1.1,14.3,0.1c3.6-0.8,7.1-2.2,10.3-4.1c7.3-4.4,13.8-11.3,20.9-17.1c5-4,10.3-7.2,15.9-9c1.8-0.6,3.6-0.9,5.5-1.2
				c7.7-0.8,15.8,1.8,22,6.5"/>
			<path class="st41" d="M-15.7,27.1c2.5,0.9,7,8,13.9,5.1c7.1-3,11.3-2.4,14.5,0.1c2.9,2.2,4.5,6,8.1,6.6c5,0.9,9.7,1,14.3-0.1
				c3.6-0.8,7.1-2.3,10.3-4.2c7.3-4.5,13.7-11.5,20.9-17.2c5-4,10.3-7.2,16-8.8c1.8-0.5,3.6-0.9,5.6-1.1c7.7-0.7,15.9,2,22,6.7"/>
			<path class="st42" d="M-15.6,26.9c2.4,1,6.9,8.4,13.8,5.5c7.1-3,11.3-2.5,14.5,0.1c2.8,2.3,4.4,6.1,8,6.7c5,0.9,9.7,0.9,14.3-0.2
				c3.6-0.8,7.1-2.4,10.2-4.4c7.3-4.5,13.6-11.6,20.8-17.3c5.1-4,10.4-7.1,16.1-8.7c1.8-0.5,3.7-0.9,5.6-1c7.7-0.7,15.9,2.1,22,6.9"
				/>
			<path class="st43" d="M-15.5,26.7c2.3,1.2,6.7,8.8,13.6,5.9c7.2-3.1,11.3-2.5,14.5,0.1c2.8,2.3,4.4,6.1,8,6.8
				c5,0.9,9.7,0.8,14.3-0.4c3.6-0.9,7-2.5,10.2-4.5c7.2-4.6,13.5-11.8,20.8-17.5c5.1-4,10.5-7,16.2-8.6c1.8-0.5,3.7-0.8,5.6-1
				c7.8-0.6,15.9,2.2,22,7.1"/>
			<path class="st44" d="M-15.5,26.5c2.3,1.4,6.6,9.3,13.5,6.3c7.2-3.2,11.4-2.6,14.5,0c2.8,2.3,4.3,6.2,8,6.8
				c5,0.8,9.7,0.7,14.4-0.5c3.6-0.9,7-2.5,10.2-4.6c7.2-4.7,13.5-11.9,20.8-17.6c5.1-4,10.5-7,16.3-8.5c1.8-0.5,3.7-0.8,5.6-0.9
				c7.8-0.5,15.9,2.3,22,7.3"/>
			<path class="st45" d="M-15.4,26.3c2.2,1.5,6.5,9.7,13.3,6.6c7.3-3.2,11.4-2.6,14.5,0c2.8,2.4,4.3,6.3,7.9,6.9
				c5,0.8,9.8,0.6,14.4-0.7c3.6-1,7-2.6,10.2-4.7c7.2-4.8,13.4-12.1,20.7-17.7c5.1-4,10.6-6.9,16.4-8.4c1.8-0.5,3.7-0.8,5.6-0.9
				c7.8-0.5,15.9,2.5,22,7.4"/>
			<path class="st46" d="M-15.3,26.1c2.1,1.7,6.3,10.1,13.2,7c7.3-3.3,11.5-2.7,14.5,0c2.8,2.4,4.2,6.4,7.9,7
				c5,0.8,9.8,0.5,14.4-0.8c3.6-1,7-2.7,10.1-4.8c7.2-4.9,13.3-12.2,20.7-17.9c5.1-4,10.7-6.9,16.5-8.2c1.8-0.4,3.7-0.7,5.7-0.8
				c7.8-0.4,16,2.6,22,7.6"/>
			<path class="st47" d="M-15.2,25.9c2,1.9,6.2,10.5,13,7.4c7.4-3.4,11.5-2.7,14.5,0c2.8,2.4,4.2,6.5,7.8,7c5,0.7,9.8,0.4,14.4-0.9
				c3.6-1.1,7-2.8,10.1-5c7.1-4.9,13.3-12.3,20.6-18c5.2-3.9,10.8-6.8,16.6-8.1c1.8-0.4,3.7-0.7,5.7-0.8c7.8-0.3,16,2.7,22,7.8"/>
			<path class="st48" d="M-15.1,25.7c2,2,6,11,12.9,7.8c7.5-3.4,11.5-2.7,14.5-0.1c2.8,2.5,4.1,6.6,7.8,7.1
				c5.1,0.7,9.8,0.3,14.5-1.1c3.6-1.1,7-2.9,10.1-5.1c7.1-5,13.2-12.5,20.6-18.1c5.2-3.9,10.8-6.7,16.7-8c1.9-0.4,3.8-0.7,5.7-0.7
				c7.9-0.3,16,2.8,22,8"/>
			<path class="st49" d="M-15,25.5c1.9,2.2,5.9,11.4,12.7,8.2c7.5-3.5,11.6-2.8,14.5-0.1c2.7,2.5,4.1,6.7,7.8,7.1
				c5.1,0.7,9.9,0.2,14.5-1.2c3.6-1.1,7-3,10.1-5.2c7.1-5.1,13.1-12.6,20.6-18.2c5.2-3.9,10.9-6.7,16.8-7.9c1.9-0.4,3.8-0.6,5.7-0.7
				c7.9-0.2,16,2.9,21.9,8.2"/>
			<path class="st50" d="M-14.9,25.3c1.8,2.4,5.8,11.8,12.6,8.6c7.6-3.6,11.6-2.8,14.5-0.1c2.7,2.5,4,6.7,7.7,7.2
				c5.1,0.6,9.9,0.1,14.5-1.4c3.6-1.2,7-3,10-5.3c7-5.2,13-12.8,20.5-18.4c5.2-3.9,11-6.6,16.9-7.8c1.9-0.4,3.8-0.6,5.8-0.6
				c7.9-0.1,16,3.1,21.9,8.4"/>
			<path class="st51" d="M-14.9,25.1c1.8,2.5,5.6,12.2,12.4,9c7.6-3.7,11.6-2.9,14.5-0.1c2.7,2.6,4,6.8,7.7,7.3
				c5.1,0.6,9.9,0.1,14.5-1.5c3.6-1.2,6.9-3.1,10-5.4c7-5.3,13-12.9,20.5-18.5c5.3-3.9,11-6.5,17-7.6c1.9-0.4,3.8-0.6,5.8-0.6
				c7.9,0,16,3.2,21.9,8.6"/>
			<path class="st52" d="M-14.8,24.9c1.7,2.7,5.5,12.7,12.3,9.4c7.7-3.7,11.7-2.9,14.5-0.2c2.7,2.6,3.9,6.9,7.6,7.3
				c5.1,0.6,10,0,14.6-1.7c3.6-1.3,6.9-3.2,10-5.6c7-5.4,12.9-13.1,20.4-18.6c5.3-3.9,11.1-6.5,17.1-7.5c1.9-0.3,3.8-0.5,5.8-0.5
				c8,0,16.1,3.3,21.9,8.7"/>
			<path class="st53" d="M-14.7,24.7c1.6,2.8,5.3,13.1,12.1,9.8c7.7-3.8,11.7-3,14.5-0.2c2.7,2.6,3.9,7,7.6,7.4
				c5.1,0.5,10-0.1,14.6-1.8c3.6-1.3,6.9-3.3,10-5.7c6.9-5.5,12.8-13.2,20.4-18.8C69.8,11.5,75.7,9,81.7,8c1.9-0.3,3.8-0.5,5.8-0.5
				c8,0.1,16.1,3.4,21.9,8.9"/>
			<path class="st54" d="M-14.6,24.5c1.6,3,5.2,13.5,12,10.2c7.8-3.9,11.7-3,14.5-0.2c2.7,2.7,3.8,7.1,7.6,7.4
				c5.2,0.5,10-0.2,14.6-2c3.6-1.4,6.9-3.4,9.9-5.8c6.9-5.5,12.7-13.3,20.4-18.9c5.3-3.9,11.2-6.3,17.3-7.3c1.9-0.3,3.9-0.4,5.8-0.4
				c8,0.2,16.1,3.6,21.9,9.1"/>
			<path class="st55" d="M-14.5,24.3c1.5,3.2,5.1,13.9,11.8,10.5c7.8-3.9,11.8-3.1,14.5-0.3c2.6,2.7,3.8,7.2,7.5,7.5
				c5.2,0.5,10-0.3,14.6-2.1c3.6-1.4,6.9-3.5,9.9-5.9c6.9-5.6,12.7-13.5,20.3-19c5.4-3.9,11.3-6.3,17.4-7.2c1.9-0.3,3.9-0.4,5.9-0.4
				c8,0.2,16.1,3.7,21.9,9.3"/>
			<path class="st56" d="M-14.4,24.1C-13,27.4-9.5,38.4-2.8,35c7.9-4,11.8-3.1,14.5-0.3c2.6,2.8,3.7,7.3,7.5,7.6
				c5.2,0.4,10.1-0.4,14.6-2.3c3.5-1.5,6.9-3.6,9.9-6c6.9-5.7,12.6-13.6,20.3-19.1c5.4-3.9,11.4-6.2,17.5-7c1.9-0.3,3.9-0.4,5.9-0.3
				c8,0.3,16.1,3.8,21.9,9.5"/>
			<path class="st57" d="M-14.4,23.9c1.4,3.5,4.8,14.8,11.5,11.3C5.1,31.1,9,32,11.7,34.9c2.6,2.8,3.7,7.4,7.5,7.6
				c5.2,0.4,10.1-0.5,14.7-2.4c3.5-1.5,6.9-3.6,9.9-6.1c6.8-5.8,12.5-13.8,20.2-19.3c5.4-3.8,11.5-6.1,17.6-6.9
				c1.9-0.2,3.9-0.3,5.9-0.2c8.1,0.4,16.2,3.9,21.9,9.7"/>
			<path class="st58" d="M-14.3,23.7c1.3,3.7,4.6,15.2,11.4,11.7c8-4.1,11.9-3.2,14.5-0.3c2.6,2.8,3.6,7.4,7.4,7.7
				c5.2,0.4,10.1-0.6,14.7-2.6c3.5-1.5,6.9-3.7,9.8-6.3C50.4,28.1,56,20,63.8,14.5c5.4-3.8,11.5-6.1,17.7-6.8
				c1.9-0.2,3.9-0.3,5.9-0.2c8.1,0.5,16.2,4,21.8,9.8"/>
			<path class="st59" d="M-14.2,23.5C-13,27.3-9.7,39.1-3,35.6c8-4.2,11.9-3.3,14.5-0.4c2.6,2.9,3.6,7.5,7.4,7.8
				c5.2,0.3,10.1-0.7,14.7-2.7c3.5-1.6,6.8-3.8,9.8-6.4c6.8-5.9,12.4-14.1,20.2-19.5c5.4-3.8,11.6-6,17.8-6.7c2-0.2,3.9-0.3,6-0.1
				c8.1,0.5,16.2,4.2,21.8,10"/>
			<path class="st60" d="M-14.1,23.3c1.1,4,4.4,16.1,11.1,12.5c8.1-4.3,12-3.3,14.5-0.4c2.6,2.9,3.5,7.6,7.3,7.8
				c5.3,0.3,10.2-0.8,14.7-2.9c3.5-1.6,6.8-3.9,9.8-6.5c6.7-6,12.3-14.2,20.1-19.6c5.5-3.8,11.7-6,17.9-6.6c2-0.2,4-0.2,6-0.1
				c8.1,0.6,16.2,4.3,21.8,10.2"/>
			<path class="st61" d="M-14,23.1c1.1,4.2,4.2,16.5,10.9,12.9c8.2-4.4,12-3.4,14.5-0.4c2.6,2.9,3.5,7.7,7.3,7.9
				c5.3,0.3,10.2-0.9,14.8-3c3.5-1.7,6.8-4,9.7-6.6C50,27.7,55.5,19.4,63.3,14c5.5-3.8,11.7-5.9,18-6.4c2-0.2,4-0.2,6,0
				c8.2,0.7,16.2,4.4,21.8,10.4"/>
			<path class="st62" d="M-13.9,22.9c1,4.3,4.1,16.9,10.8,13.3c8.2-4.4,12-3.4,14.6-0.4c2.5,3,3.4,7.8,7.3,7.9
				c5.3,0.2,10.2-1,14.8-3.2c3.5-1.7,6.8-4.1,9.7-6.7c6.7-6.2,12.2-14.5,20-19.9C68.7,10,75,8,81.3,7.5c2-0.2,4-0.2,6,0
				c8.2,0.7,16.3,4.5,21.8,10.6"/>
			<path class="st63" d="M-13.8,22.7c0.9,4.5,3.9,17.3,10.6,13.7c8.3-4.5,12.1-3.4,14.6-0.5c2.5,3,3.4,7.9,7.2,8
				c5.3,0.2,10.2-1,14.8-3.3c3.5-1.8,6.8-4.1,9.7-6.9c6.6-6.3,12.1-14.6,20-20c5.5-3.8,11.9-5.8,18.2-6.2c2-0.1,4-0.1,6,0.1
				c8.2,0.8,16.3,4.7,21.8,10.8"/>
			<path class="st64" d="M-13.8,22.5c0.9,4.7,3.8,17.7,10.5,14.1C5,31.9,8.8,33,11.3,36c2.5,3,3.3,8,7.2,8.1
				c5.3,0.2,10.3-1.1,14.8-3.5c3.5-1.8,6.8-4.2,9.7-7c6.6-6.4,12-14.8,20-20.2c5.6-3.8,12-5.7,18.3-6.1c2-0.1,4-0.1,6.1,0.1
				c8.2,0.9,16.3,4.8,21.8,11"/>
			<path class="st65" d="M-13.7,22.3c0.8,4.8,3.6,18.2,10.3,14.4c8.4-4.7,12.1-3.5,14.6-0.5c2.5,3.1,3.3,8,7.1,8.1
				c5.3,0.1,10.3-1.2,14.9-3.6c3.5-1.8,6.8-4.3,9.6-7.1c6.6-6.4,11.9-14.9,19.9-20.3c5.6-3.8,12-5.6,18.4-5.9c2-0.1,4,0,6.1,0.2
				c8.2,0.9,16.3,4.9,21.8,11.1"/>
			<path class="st66" d="M-13.6,22.1c0.7,5,3.5,18.6,10.2,14.8c8.4-4.7,12.2-3.6,14.6-0.5c2.5,3.1,3.2,8.1,7.1,8.2
				c5.3,0.1,10.3-1.3,14.9-3.8c3.5-1.9,6.8-4.4,9.6-7.2c6.6-6.5,11.9-15.1,19.9-20.4c5.6-3.8,12.1-5.6,18.5-5.8c2-0.1,4.1,0,6.1,0.2
				c8.3,1,16.3,5,21.7,11.3"/>
			<path class="st67" d="M-13.5,21.9c0.7,5.2,3.4,19,10,15.2c8.5-4.8,12.2-3.6,14.6-0.6c2.4,3.2,3.2,8.2,7.1,8.2
				c5.4,0.1,10.4-1.4,14.9-3.9c3.5-1.9,6.7-4.5,9.6-7.3c6.5-6.6,11.8-15.2,19.8-20.5c5.6-3.7,12.2-5.5,18.6-5.7c2-0.1,4.1,0,6.1,0.3
				c8.3,1.1,16.3,5.1,21.7,11.5"/>
			<path class="st68" d="M-13.4,21.7c0.6,5.3,3.2,19.4,9.9,15.6c8.5-4.9,12.2-3.7,14.6-0.6c2.4,3.2,3.1,8.3,7,8.3
				c5.4,0,10.4-1.5,14.9-4.1c3.5-2,6.7-4.6,9.6-7.5c6.5-6.7,11.7-15.3,19.8-20.7C68,9.1,74.6,7.4,81.1,7.2c2,0,4.1,0.1,6.2,0.3
				c8.3,1.2,16.4,5.3,21.7,11.7"/>
			<path class="st69" d="M-13.3,21.5c0.5,5.5,3.1,19.8,9.7,16c8.6-5,12.3-3.7,14.6-0.6c2.4,3.2,3.1,8.4,7,8.4c5.4,0,10.4-1.6,15-4.2
				c3.5-2,6.7-4.7,9.5-7.6c6.5-6.8,11.7-15.5,19.7-20.8C67.8,8.9,74.5,7.3,81,7.2c2,0,4.1,0.1,6.2,0.4c8.3,1.2,16.4,5.4,21.7,11.9"
				/>
			<path class="st70" d="M-13.2,21.3c0.4,5.6,2.9,20.3,9.5,16.4c8.6-5,12.3-3.8,14.6-0.6c2.4,3.3,3,8.5,6.9,8.4
				c5.4,0,10.4-1.7,15-4.4c3.5-2.1,6.7-4.7,9.5-7.7c6.4-6.8,11.6-15.6,19.7-20.9C67.7,8.7,74.4,7.2,81,7.1c2.1,0,4.1,0.1,6.2,0.5
				c8.4,1.3,16.4,5.5,21.7,12.1"/>
			<path class="st71" d="M-13.2,21.1c0.4,5.8,2.8,20.7,9.4,16.8c8.7-5.1,12.3-3.8,14.6-0.7c2.4,3.3,3,8.6,6.9,8.5
				c5.4-0.1,10.5-1.8,15-4.5c3.5-2.1,6.7-4.8,9.5-7.8c6.4-6.9,11.5-15.8,19.7-21.1c5.7-3.7,12.5-5.2,19-5.2c2.1,0,4.1,0.2,6.2,0.5
				c8.4,1.4,16.4,5.6,21.7,12.3"/>
			<path class="st72" d="M-13.1,20.9c0.3,6,2.6,21.1,9.2,17.2c8.7-5.2,12.4-3.9,14.6-0.7c2.4,3.3,2.9,8.6,6.9,8.6
				c5.4-0.1,10.5-1.9,15-4.7c3.5-2.1,6.7-4.9,9.5-7.9c6.4-7,11.4-15.9,19.6-21.2C67.5,8.4,74.3,6.9,80.9,7C83,7,85,7.2,87.1,7.6
				c8.4,1.4,16.4,5.8,21.7,12.4"/>
			<path class="st73" d="M-13,20.7c0.2,6.1,2.5,21.5,9.1,17.6c8.8-5.3,12.4-3.9,14.6-0.7c2.3,3.4,2.9,8.7,6.8,8.6
				C23,46,28,44.2,32.6,41.3c3.5-2.2,6.7-5,9.4-8.1c6.3-7.1,11.4-16.1,19.6-21.3c5.8-3.7,12.6-5.1,19.2-5c2.1,0,4.2,0.2,6.3,0.6
				c8.4,1.5,16.5,5.9,21.7,12.6"/>
			<path class="st74" d="M-12.9,20.5c0.2,6.3,2.4,22,8.9,18c8.8-5.3,12.4-3.9,14.6-0.7c2.3,3.4,2.8,8.8,6.8,8.7
				c5.5-0.2,10.5-2,15.1-4.9c3.5-2.2,6.7-5.1,9.4-8.2C48.2,26,53.2,17,61.4,11.8c5.8-3.7,12.7-5.1,19.3-4.9C82.9,7,85,7.2,87.1,7.6
				c8.4,1.6,16.5,6,21.7,12.8"/>
			<path class="st75" d="M-12.8,20.3c0.1,6.5,2.2,22.4,8.8,18.3c8.9-5.4,12.5-4,14.6-0.8c2.3,3.5,2.8,8.9,6.7,8.7
				c5.5-0.2,10.6-2.1,15.1-5.1c3.5-2.3,6.6-5.2,9.4-8.3c6.3-7.3,11.2-16.3,19.5-21.6c5.8-3.7,12.7-5,19.4-4.7
				c2.1,0.1,4.2,0.3,6.3,0.7c8.5,1.7,16.5,6.1,21.6,13"/>
			<path class="st76" d="M-12.7,20.1c0,6.6,2.1,22.8,8.6,18.7c8.9-5.5,12.5-4,14.6-0.8c2.3,3.5,2.7,9,6.7,8.8
				c5.5-0.2,10.6-2.2,15.1-5.2c3.5-2.3,6.6-5.2,9.4-8.4c6.3-7.3,11.1-16.5,19.5-21.7C67,7.8,74,6.5,80.7,6.8
				c2.1,0.1,4.2,0.4,6.3,0.8c8.5,1.7,16.5,6.2,21.6,13.2"/>
			<path class="st77" d="M-12.7,19.9c0,6.8,1.9,23.2,8.5,19.1c9-5.6,12.5-4.1,14.6-0.8c2.3,3.5,2.7,9.1,6.7,8.9
				c5.5-0.3,10.6-2.3,15.2-5.4c3.5-2.4,6.6-5.3,9.3-8.5c6.2-7.4,11.1-16.6,19.4-21.8c5.9-3.6,12.9-4.9,19.6-4.5
				c2.1,0.1,4.2,0.4,6.3,0.8c8.5,1.8,16.5,6.4,21.6,13.4"/>
			<path class="st78" d="M-12.6,19.7c-0.1,7,1.8,23.6,8.3,19.5c9-5.7,12.5-4.1,14.6-0.8c2.2,3.6,2.6,9.2,6.6,8.9
				c5.5-0.3,10.6-2.4,15.2-5.5c3.5-2.4,6.6-5.4,9.3-8.7c6.2-7.5,11-16.8,19.4-22c5.9-3.6,12.9-4.8,19.7-4.4c2.1,0.1,4.3,0.4,6.4,0.9
				c8.5,1.9,16.6,6.5,21.6,13.6"/>
			<path class="st79" d="M-12.5,19.5c-0.2,7.1,1.6,24.1,8.2,19.9c9-5.7,12.6-4.2,14.6-0.9c2.2,3.6,2.6,9.2,6.6,9
				c5.6-0.3,10.7-2.5,15.2-5.7c3.5-2.4,6.6-5.5,9.3-8.8c6.2-7.6,10.9-16.9,19.3-22.1c5.9-3.6,13-4.7,19.8-4.3
				c2.1,0.1,4.3,0.5,6.4,0.9c8.6,1.9,16.6,6.6,21.6,13.7"/>
			<path class="st80" d="M-12.4,19.2c-0.2,7.3,1.5,24.5,8,20.3c9.1-5.8,12.6-4.2,14.6-0.9c2.2,3.6,2.5,9.3,6.6,9.1
				c5.6-0.4,10.7-2.6,15.2-5.8c3.5-2.5,6.6-5.6,9.3-8.9c6.1-7.7,10.9-17.1,19.3-22.2c5.9-3.6,13.1-4.7,19.9-4.1
				c2.1,0.2,4.3,0.5,6.4,1c8.6,2,16.6,6.7,21.6,13.9"/>
			<path class="st81" d="M-12.3,19c-0.3,7.5,1.3,24.9,7.9,20.7c9.1-5.9,12.6-4.3,14.6-0.9c2.2,3.7,2.4,9.4,6.5,9.1
				c5.6-0.4,10.7-2.7,15.3-6c3.5-2.5,6.6-5.7,9.2-9c6.1-7.7,10.8-17.2,19.3-22.3c5.9-3.6,13.2-4.6,20-4c2.2,0.2,4.3,0.5,6.4,1
				c8.6,2.1,16.6,6.9,21.6,14.1"/>
			<path class="st82" d="M-12.2,18.8c-0.4,7.6,1.2,25.3,7.7,21.1c9.2-6,12.7-4.3,14.6-0.9c2.1,3.7,2.4,9.5,6.5,9.2
				c5.6-0.4,10.8-2.8,15.3-6.1c3.5-2.6,6.6-5.8,9.2-9.1c6.1-7.8,10.7-17.3,19.2-22.5c6-3.6,13.2-4.5,20.2-3.9
				c2.2,0.2,4.3,0.6,6.5,1.1c8.6,2.1,16.6,7,21.6,14.3"/>
			<path class="st83" d="M-12.1,18.6c-0.5,7.8,1.1,25.7,7.6,21.5C14.9,27.4,8.7,49,16.5,48.4c9.9-0.9,18.4-7.6,24.5-15.5
				c6.1-7.9,10.6-17.5,19.2-22.6c6-3.6,13.3-4.5,20.3-3.8c11,1.1,21.9,6.4,28,15.6"/>
			<path class="st83" d="M-12.2,18.7c-0.4,7.8,1.2,25.6,7.7,21.3c19.3-12.5,13.2,8.8,20.9,8.1c7.7-0.7,14.6-4.9,20.1-10.5
				c1.5-1.5,2.9-3.2,4.2-4.9c6-7.8,10.6-17.3,19.1-22.4C62.1,9,64.6,8,67.3,7.3c3.2-0.8,6.5-1,9.7-0.9c1,0,2.1,0.1,3.1,0.2
				c2.2,0.2,4.4,0.7,6.6,1.2c4.3,1.1,8.5,2.9,12.2,5.2c3.8,2.4,7,5.4,9.5,9"/>
			<path class="st83" d="M-12.3,18.8c-0.4,7.8,1.3,25.4,7.8,21.2c19.2-12.3,13.1,8.7,20.8,8c7.6-0.7,14.5-4.9,19.9-10.5
				c1.5-1.5,2.9-3.2,4.2-4.8c6-7.8,10.5-17.2,18.9-22.2c2.4-1.4,5-2.4,7.7-3.1c3.2-0.7,6.5-0.9,9.8-0.8c1,0.1,2.1,0.1,3.1,0.3
				c2.2,0.3,4.4,0.7,6.6,1.3c4.4,1.1,8.6,2.9,12.4,5.2c3.8,2.3,7.1,5.2,9.7,8.8"/>
			<path class="st83" d="M-12.5,18.8c-0.3,7.7,1.4,25.2,7.9,21.1c19-12.1,13.1,8.6,20.7,7.9c7.6-0.7,14.3-4.9,19.8-10.4
				c1.5-1.5,2.9-3.1,4.2-4.8c5.9-7.7,10.5-17,18.8-22c2.4-1.4,5-2.5,7.7-3.1c3.2-0.7,6.6-0.9,9.9-0.7c1.1,0.1,2.1,0.2,3.1,0.3
				c2.2,0.3,4.5,0.8,6.7,1.3c4.4,1.2,8.7,2.9,12.5,5.1c3.8,2.3,7.2,5.1,9.8,8.5"/>
			<path class="st83" d="M-12.6,18.9c-0.3,7.7,1.5,25.1,8,21c18.8-11.9,13,8.5,20.6,7.8c7.5-0.7,14.2-4.9,19.6-10.3
				c1.5-1.5,2.9-3.1,4.2-4.8c5.9-7.6,10.4-16.9,18.7-21.8c2.4-1.5,5.1-2.5,7.8-3.1c3.3-0.7,6.6-0.9,9.9-0.6c1.1,0.1,2.1,0.2,3.2,0.3
				c2.2,0.3,4.5,0.8,6.7,1.4c4.4,1.2,8.8,2.9,12.6,5c3.9,2.2,7.3,5,10,8.3"/>
			<path class="st83" d="M-12.7,19c-0.3,7.7,1.6,24.9,8.1,20.8c18.7-11.7,12.9,8.4,20.4,7.7c7.5-0.7,14.1-4.8,19.5-10.2
				c1.5-1.5,2.9-3.1,4.1-4.7C45.3,25,49.8,15.8,58,10.9c2.4-1.5,5.1-2.5,7.9-3.1c3.3-0.7,6.7-0.8,10-0.5C77,7.3,78,7.5,79.1,7.6
				c2.3,0.3,4.5,0.8,6.7,1.5c4.5,1.2,8.8,2.8,12.7,5c3.9,2.1,7.4,4.8,10.1,8.1"/>
			<path class="st83" d="M-12.8,19C-13,26.7-11,43.8-4.6,39.7C13.9,28.2,8.3,48,15.7,47.3c7.4-0.7,14-4.8,19.3-10.1
				c1.5-1.5,2.8-3,4.1-4.7C45,25,49.5,15.9,57.6,11c2.5-1.5,5.1-2.6,7.9-3.2c3.3-0.7,6.7-0.8,10.1-0.4c1.1,0.1,2.1,0.2,3.2,0.4
				c2.3,0.4,4.5,0.9,6.8,1.5c4.5,1.2,8.9,2.8,12.9,4.9c4,2.1,7.5,4.7,10.3,7.8"/>
			<path class="st83" d="M-12.9,19.1c-0.2,7.7,1.8,24.5,8.3,20.6c18.3-11.3,12.8,8.1,20.2,7.4C23,46.4,29.5,42.3,34.8,37
				c1.5-1.5,2.8-3,4.1-4.6C44.7,25,49.1,16,57.2,11.2c2.5-1.5,5.2-2.6,8-3.2c3.3-0.7,6.8-0.7,10.2-0.3c1.1,0.1,2.1,0.3,3.2,0.5
				c2.3,0.4,4.6,0.9,6.8,1.6c4.5,1.3,9,2.8,13,4.9c4,2,7.6,4.5,10.4,7.6"/>
			<path class="st83" d="M-13,19.2c-0.2,7.6,1.9,24.4,8.4,20.4c18.2-11.1,12.7,8,20.1,7.3c7.3-0.7,13.8-4.7,19-10
				c1.4-1.4,2.8-3,4.1-4.6c5.8-7.4,10.2-16.2,18.2-21c2.5-1.5,5.2-2.6,8.1-3.2c3.4-0.7,6.8-0.7,10.2-0.3c1.1,0.1,2.2,0.3,3.2,0.5
				c2.3,0.4,4.6,1,6.9,1.6c4.6,1.3,9.1,2.8,13.1,4.8c4.1,2,7.7,4.4,10.6,7.4"/>
			<path class="st83" d="M-13.1,19.2c-0.1,7.6,2,24.2,8.5,20.3c18-10.9,12.6,7.9,19.9,7.2C22.6,46,29,42,34.3,36.8
				c1.4-1.4,2.8-3,4-4.5c5.7-7.3,10.2-16,18.1-20.9c2.5-1.5,5.3-2.6,8.1-3.2c3.4-0.7,6.9-0.6,10.3-0.2c1.1,0.1,2.2,0.3,3.2,0.5
				c2.3,0.4,4.6,1,6.9,1.7c4.6,1.3,9.2,2.8,13.3,4.7c4.1,1.9,7.8,4.3,10.7,7.2"/>
			<path class="st83" d="M-13.2,19.3c-0.1,7.6,2.2,24,8.6,20.2c17.8-10.7,12.6,7.8,19.8,7c7.2-0.7,13.6-4.7,18.7-9.8
				c1.4-1.4,2.8-2.9,4-4.5c5.7-7.2,10.1-15.9,18-20.7c2.5-1.5,5.3-2.7,8.2-3.2c3.4-0.7,7-0.6,10.4-0.1c1.1,0.2,2.2,0.3,3.3,0.6
				c2.3,0.5,4.6,1.1,6.9,1.8c4.6,1.3,9.3,2.8,13.4,4.7c4.2,1.9,7.9,4.1,10.9,6.9"/>
			<path class="st83" d="M-13.3,19.4c-0.1,7.6,2.3,23.9,8.7,20C13.1,29,7.9,47.1,15.1,46.3c7.1-0.7,13.4-4.6,18.6-9.7
				c1.4-1.4,2.7-2.9,4-4.5c5.7-7.1,10-15.7,17.9-20.5c2.6-1.6,5.4-2.7,8.3-3.3c3.5-0.7,7-0.5,10.4,0c1.1,0.2,2.2,0.4,3.3,0.6
				c2.3,0.5,4.6,1.1,7,1.8c4.7,1.4,9.4,2.8,13.5,4.6c4.2,1.8,7.9,4,11,6.7"/>
			<path class="st83" d="M-13.4,19.4c0,7.6,2.4,23.7,8.8,19.9C12.9,29.1,7.9,46.9,15,46.2c7-0.7,13.3-4.6,18.4-9.6
				c1.4-1.4,2.7-2.9,3.9-4.4c5.6-7.1,10-15.6,17.7-20.3c2.6-1.6,5.4-2.7,8.4-3.3C67,7.9,70.5,8.1,74,8.6c1.1,0.2,2.2,0.4,3.3,0.6
				c2.3,0.5,4.7,1.2,7,1.9C89,12.5,93.8,14,98,15.7c4.3,1.8,8,3.9,11.1,6.5"/>
			<path class="st83" d="M-13.5,19.5c0,7.6,2.5,23.5,8.9,19.8c17.3-10,12.3,7.4,19.4,6.7c7-0.7,13.2-4.6,18.3-9.6
				c1.4-1.4,2.7-2.9,3.9-4.4C42.7,25,47,16.6,54.7,12c2.6-1.6,5.5-2.8,8.4-3.3c3.5-0.6,7.1-0.4,10.6,0.2C74.8,9,75.9,9.2,77,9.5
				c2.3,0.6,4.7,1.2,7.1,1.9c4.7,1.4,9.5,2.8,13.8,4.5c4.3,1.7,8.1,3.7,11.3,6.3"/>
			<path class="st83" d="M-13.6,19.6c0,7.5,2.6,23.3,9,19.7c17.2-9.8,12.3,7.3,19.3,6.6c6.9-0.7,13.1-4.5,18.1-9.5
				c1.4-1.4,2.7-2.8,3.9-4.3c5.6-6.9,9.9-15.3,17.5-19.9c2.6-1.6,5.5-2.8,8.5-3.3C66.3,8.1,70,8.4,73.4,9c1.1,0.2,2.2,0.4,3.3,0.7
				c2.4,0.6,4.7,1.3,7.1,2c4.8,1.4,9.6,2.8,13.9,4.5c4.4,1.7,8.2,3.6,11.4,6"/>
			<path class="st83" d="M-13.7,19.6c0.1,7.5,2.7,23.2,9.1,19.5c17-9.6,12.2,7.2,19.2,6.4c6.9-0.7,13-4.5,18-9.4
				c1.4-1.4,2.7-2.8,3.9-4.3c5.5-6.9,9.8-15.1,17.4-19.7c2.6-1.6,5.5-2.8,8.6-3.4c3.6-0.6,7.2-0.3,10.7,0.3c1.1,0.2,2.2,0.5,3.3,0.8
				c2.4,0.6,4.7,1.3,7.2,2c4.8,1.4,9.7,2.8,14.1,4.4c4.4,1.6,8.3,3.4,11.6,5.8"/>
			<path class="st83" d="M-13.8,19.7c0.1,7.5,2.8,23,9.2,19.4c16.8-9.4,12.1,7.1,19.1,6.3c6.8-0.8,12.9-4.5,17.8-9.3
				c1.4-1.3,2.7-2.8,3.8-4.2c5.5-6.8,9.8-14.9,17.3-19.5c2.7-1.6,5.6-2.8,8.6-3.4c3.6-0.6,7.3-0.3,10.8,0.4c1.1,0.2,2.2,0.5,3.4,0.8
				c2.4,0.6,4.8,1.4,7.2,2.1c4.9,1.5,9.8,2.8,14.2,4.3c4.4,1.5,8.4,3.3,11.7,5.6"/>
			<path class="st83" d="M-13.9,19.8c0.2,7.5,2.9,22.8,9.3,19.3c16.6-9.2,12.1,7,19,6.2c6.7-0.8,12.8-4.4,17.7-9.2
				c1.4-1.3,2.6-2.7,3.8-4.2C41.3,25.1,45.6,17,53,12.5c2.7-1.6,5.6-2.9,8.7-3.4c3.7-0.6,7.3-0.2,10.9,0.5c1.1,0.2,2.3,0.5,3.4,0.8
				c2.4,0.7,4.8,1.4,7.2,2.2c4.9,1.5,9.9,2.8,14.3,4.3c4.5,1.5,8.5,3.2,11.9,5.3"/>
			<path class="st83" d="M-14,19.8c0.2,7.5,3,22.7,9.4,19.1c16.5-9,12,6.9,18.8,6.1c6.7-0.8,12.7-4.4,17.5-9.2
				c1.3-1.3,2.6-2.7,3.8-4.2c5.4-6.7,9.7-14.6,17-19.1c2.7-1.7,5.7-2.9,8.8-3.4c3.7-0.6,7.4-0.2,11,0.6c1.1,0.3,2.3,0.5,3.4,0.9
				c2.4,0.7,4.8,1.5,7.3,2.2c4.9,1.5,9.9,2.8,14.5,4.2c4.5,1.4,8.6,3,12,5.1"/>
			<path class="st83" d="M-14.1,19.9c0.2,7.5,3.1,22.5,9.5,19c16.3-8.8,11.9,6.7,18.7,6c6.6-0.8,12.6-4.4,17.4-9.1
				c1.3-1.3,2.6-2.7,3.8-4.1c5.4-6.6,9.6-14.5,16.9-18.9c2.7-1.7,5.7-2.9,8.9-3.4c3.7-0.6,7.5-0.1,11,0.7c1.1,0.3,2.3,0.6,3.4,0.9
				c2.4,0.7,4.8,1.5,7.3,2.3c5,1.5,10,2.8,14.6,4.2c4.6,1.4,8.7,2.9,12.2,4.9"/>
			<path class="st83" d="M-14.2,20c0.3,7.4,3.2,22.3,9.6,18.9c16.1-8.7,11.8,6.6,18.6,5.8c6.6-0.8,12.4-4.3,17.2-9
				c1.3-1.3,2.6-2.7,3.7-4.1c5.3-6.5,9.6-14.3,16.8-18.7c2.7-1.7,5.8-3,8.9-3.5c3.8-0.6,7.5-0.1,11.1,0.8c1.1,0.3,2.3,0.6,3.4,0.9
				c2.4,0.7,4.9,1.6,7.4,2.3c5,1.6,10.1,2.8,14.7,4.1c4.6,1.3,8.8,2.8,12.3,4.7"/>
			<path class="st83" d="M-14.3,20c0.3,7.4,3.3,22.2,9.7,18.8c15.9-8.5,11.8,6.5,18.5,5.7c6.5-0.8,12.3-4.3,17.1-8.9
				c1.3-1.3,2.6-2.6,3.7-4C40,25.1,44.2,17.4,51.3,13c2.8-1.7,5.8-3,9-3.5c3.8-0.6,7.6,0,11.2,0.9c1.2,0.3,2.3,0.6,3.4,1
				c2.4,0.8,4.9,1.6,7.4,2.4c5,1.6,10.2,2.8,14.8,4c4.7,1.3,8.9,2.6,12.5,4.4"/>
			<path class="st83" d="M-14.4,20.1c0.3,7.4,3.4,22,9.8,18.6c15.7-8.3,11.7,6.4,18.3,5.6c6.4-0.8,12.2-4.3,16.9-8.8
				c1.3-1.3,2.5-2.6,3.7-4c5.3-6.4,9.4-14,16.5-18.3c2.8-1.7,5.9-3,9.1-3.5c3.8-0.6,7.6,0,11.3,0.9c1.2,0.3,2.3,0.6,3.4,1
				c2.4,0.8,4.9,1.7,7.4,2.5c5.1,1.6,10.3,2.8,15,4c4.7,1.2,9,2.5,12.6,4.2"/>
			<path class="st83" d="M-14.5,20.2c0.4,7.4,3.5,21.8,9.9,18.5c15.6-8.1,11.6,6.3,18.2,5.5c6.4-0.8,12.1-4.3,16.8-8.8
				c1.3-1.2,2.5-2.6,3.7-3.9c5.2-6.3,9.4-13.8,16.4-18.2c2.8-1.7,5.9-3.1,9.1-3.5c3.8-0.6,7.7,0,11.3,1c1.2,0.3,2.3,0.7,3.5,1
				c2.5,0.8,4.9,1.7,7.5,2.5C87,16,92.3,17.1,97,18.3c4.8,1.2,9,2.3,12.7,4"/>
			<path class="st83" d="M-14.6,20.2c0.4,7.4,3.7,21.6,10,18.4C10.8,30.7,7,44.8,13.5,44c6.3-0.8,12-4.2,16.6-8.7
				c1.3-1.2,2.5-2.5,3.6-3.9c5.2-6.2,9.3-13.7,16.3-18c2.8-1.7,5.9-3.1,9.2-3.5C63.2,9.3,67,10,70.7,11c1.2,0.3,2.3,0.7,3.5,1.1
				c2.5,0.8,5,1.8,7.5,2.6c5.1,1.6,10.5,2.8,15.2,3.9c4.8,1.1,9.1,2.2,12.9,3.8"/>
			<path class="st83" d="M-14.7,20.3c0.4,7.3,3.8,21.5,10.2,18.2c15.2-7.7,11.5,6.1,18,5.2c6.3-0.8,11.9-4.2,16.5-8.6
				c1.3-1.2,2.5-2.5,3.6-3.9c5.2-6.2,9.3-13.5,16.2-17.8c2.9-1.8,6-3.1,9.3-3.6c3.9-0.5,7.8,0.1,11.5,1.2c1.2,0.3,2.3,0.7,3.5,1.1
				c2.5,0.9,5,1.8,7.6,2.6c5.2,1.7,10.5,2.8,15.4,3.8c4.9,1.1,9.2,2.1,13,3.5"/>
			<path class="st83" d="M-14.8,20.4c0.5,7.3,3.9,21.3,10.3,18.1c15-7.5,11.4,5.9,17.8,5.1c6.2-0.8,11.8-4.2,16.3-8.5
				c1.3-1.2,2.5-2.5,3.6-3.8c5.1-6.1,9.2-13.4,16-17.6c2.9-1.8,6-3.1,9.4-3.6c3.9-0.5,7.8,0.2,11.5,1.3c1.2,0.4,2.3,0.7,3.5,1.2
				c2.5,0.9,5,1.8,7.6,2.7c5.2,1.7,10.6,2.8,15.5,3.8c4.9,1,9.3,1.9,13.2,3.3"/>
			<path class="st83" d="M-14.9,20.4c0.5,7.3,4,21.1,10.4,18c14.8-7.3,11.3,5.8,17.7,5c6.1-0.8,11.7-4.1,16.2-8.4
				c1.3-1.2,2.4-2.5,3.5-3.8c5.1-6,9.2-13.2,15.9-17.4c2.9-1.8,6.1-3.2,9.4-3.6c4-0.5,7.9,0.2,11.6,1.4c1.2,0.4,2.4,0.8,3.5,1.2
				c2.5,0.9,5,1.9,7.6,2.7c5.2,1.7,10.7,2.8,15.6,3.7c5,0.9,9.4,1.8,13.3,3.1"/>
			<path class="st83" d="M-15,20.5c0.5,7.3,4.1,21,10.5,17.9c14.6-7.1,11.3,5.7,17.6,4.9c6.1-0.8,11.5-4.1,16-8.4
				c1.2-1.2,2.4-2.4,3.5-3.7c5.1-6,9.1-13.1,15.8-17.2c2.9-1.8,6.1-3.2,9.5-3.6c4-0.5,8,0.3,11.7,1.5c1.2,0.4,2.4,0.8,3.5,1.2
				c2.5,0.9,5,1.9,7.7,2.8c5.3,1.7,10.8,2.8,15.8,3.6c5,0.9,9.5,1.7,13.5,2.8"/>
			<path class="st83" d="M-15.1,20.6c0.6,7.3,4.2,20.8,10.6,17.7C9.9,31.3,6.6,43.9,12.9,43c6-0.8,11.4-4.1,15.9-8.3
				c1.2-1.2,2.4-2.4,3.5-3.7c5-5.9,9.1-12.9,15.7-17c2.9-1.8,6.2-3.2,9.6-3.7c4-0.5,8,0.3,11.8,1.5c1.2,0.4,2.4,0.8,3.6,1.3
				c2.5,1,5.1,2,7.7,2.9c5.3,1.8,10.9,2.8,15.9,3.6c5,0.8,9.6,1.5,13.6,2.6"/>
			<path class="st83" d="M-15.2,20.6c0.6,7.3,4.3,20.6,10.7,17.6c14.3-6.8,11.1,5.5,17.3,4.6c6-0.8,11.3-4,15.8-8.2
				c1.2-1.2,2.4-2.4,3.5-3.6c5-5.8,9-12.7,15.6-16.8c3-1.8,6.2-3.3,9.6-3.7c4.1-0.5,8.1,0.4,11.8,1.6c1.2,0.4,2.4,0.8,3.6,1.3
				c2.5,1,5.1,2,7.8,2.9c5.3,1.8,11,2.8,16,3.5c5.1,0.8,9.7,1.4,13.8,2.4"/>
			<path class="st83" d="M-15.3,20.7c0.6,7.2,4.4,20.4,10.8,17.5c14.1-6.6,11.1,5.4,17.2,4.5c5.9-0.8,11.2-4,15.6-8.1
				c1.2-1.1,2.4-2.3,3.4-3.6c5-5.8,9-12.6,15.4-16.6c3-1.8,6.3-3.3,9.7-3.7c4.1-0.5,8.1,0.4,11.9,1.7c1.2,0.4,2.4,0.9,3.6,1.3
				c2.6,1,5.1,2.1,7.8,3c5.4,1.8,11,2.8,16.2,3.5c5.1,0.7,9.8,1.2,13.9,2.2"/>
			<path class="st83" d="M-15.4,20.8C-14.7,28-11,41-4.6,38.1c13.9-6.4,11,5.3,17.1,4.4c5.8-0.8,11.1-4,15.5-8
				c1.2-1.1,2.3-2.3,3.4-3.6c4.9-5.7,8.9-12.4,15.3-16.4c3-1.9,6.3-3.3,9.8-3.7c4.1-0.5,8.2,0.5,12,1.8c1.2,0.4,2.4,0.9,3.6,1.4
				c2.6,1,5.1,2.1,7.9,3c5.4,1.8,11.1,2.8,16.3,3.4c5.2,0.7,9.9,1.1,14.1,1.9"/>
			<path class="st83" d="M-15.5,20.8C-14.8,28-11,40.9-4.6,38c13.7-6.2,10.9,5.1,17,4.3c5.8-0.8,11-3.9,15.3-8
				c1.2-1.1,2.3-2.3,3.4-3.5c4.9-5.6,8.8-12.3,15.2-16.2c3-1.9,6.3-3.3,9.8-3.7c4.2-0.5,8.2,0.5,12.1,1.9c1.2,0.4,2.4,0.9,3.6,1.4
				c2.6,1.1,5.2,2.2,7.9,3.1c5.5,1.8,11.2,2.8,16.4,3.3c5.2,0.6,10,1,14.2,1.7"/>
			<path class="st83" d="M-15.6,20.9C-14.9,28.1-11,40.8-4.6,38c13.5-6,10.8,5,16.9,4.1c5.7-0.8,10.9-3.9,15.2-7.9
				c1.2-1.1,2.3-2.3,3.4-3.5c4.8-5.5,8.8-12.1,15.1-16c3-1.9,6.4-3.4,9.9-3.8c4.2-0.5,8.3,0.6,12.1,2c1.2,0.4,2.4,0.9,3.6,1.4
				c2.6,1.1,5.2,2.2,7.9,3.2c5.5,1.9,11.3,2.7,16.6,3.3c5.3,0.6,10.1,0.8,14.3,1.5"/>
			<path class="st83" d="M-15.7,21c0.8,7.2,4.8,19.8,11.2,16.9c13.3-5.9,10.8,4.9,16.7,4c5.6-0.8,10.8-3.9,15-7.8
				c1.2-1.1,2.3-2.2,3.3-3.4c4.8-5.5,8.7-12,15-15.8c3.1-1.9,6.4-3.4,10-3.8c4.2-0.5,8.4,0.6,12.2,2.1c1.2,0.5,2.4,1,3.7,1.5
				c2.6,1.1,5.2,2.3,8,3.2c5.5,1.9,11.4,2.7,16.7,3.2c5.3,0.5,10.1,0.7,14.5,1.3"/>
			<path class="st83" d="M-15.8,21C-15,28.2-11,40.6-4.6,37.8C8.6,32.2,6.1,42.6,12,41.7c5.6-0.8,10.7-3.8,14.9-7.7
				c1.2-1.1,2.3-2.2,3.3-3.4C35,25.2,38.9,18.8,45.1,15c3.1-1.9,6.5-3.4,10.1-3.8c4.3-0.4,8.4,0.7,12.3,2.2c1.2,0.5,2.5,1,3.7,1.5
				c2.6,1.1,5.2,2.3,8,3.3c5.6,1.9,11.5,2.7,16.8,3.2c5.4,0.4,10.2,0.6,14.6,1"/>
			<path class="st83" d="M-15.9,21.1c0.9,7.1,5,19.4,11.4,16.7c12.9-5.5,10.6,4.7,16.5,3.8c5.5-0.9,10.5-3.8,14.7-7.6
				c1.2-1.1,2.3-2.2,3.3-3.3c4.7-5.3,8.6-11.6,14.7-15.5c3.1-1.9,6.5-3.5,10.1-3.8c4.3-0.4,8.5,0.7,12.3,2.2c1.2,0.5,2.5,1,3.7,1.6
				c2.6,1.2,5.3,2.4,8.1,3.3c5.6,1.9,11.6,2.7,16.9,3.1c5.4,0.4,10.3,0.4,14.8,0.8"/>
			<path class="st83" d="M-16,21.2c0.9,7.1,5.1,19.2,11.5,16.6C8.2,32.4,6,42.3,11.8,41.4c5.5-0.9,10.4-3.8,14.6-7.6
				c1.1-1,2.2-2.2,3.3-3.3c4.7-5.3,8.6-11.5,14.6-15.3c3.1-1.9,6.6-3.5,10.2-3.8c4.3-0.4,8.5,0.8,12.4,2.3c1.2,0.5,2.5,1,3.7,1.6
				c2.6,1.2,5.3,2.4,8.1,3.4c5.6,2,11.6,2.7,17.1,3.1c5.5,0.3,10.4,0.3,14.9,0.6"/>
			<path class="st83" d="M-16.2,21.2c0.9,7.1,5.2,19.1,11.6,16.4C8,32.5,5.9,42.1,11.7,41.2c5.4-0.9,10.3-3.7,14.4-7.5
				c1.1-1,2.2-2.1,3.2-3.3c4.7-5.2,8.5-11.3,14.5-15.1c3.1-2,6.6-3.5,10.3-3.9c4.3-0.4,8.6,0.8,12.5,2.4c1.3,0.5,2.5,1.1,3.7,1.6
				c2.6,1.2,5.3,2.5,8.1,3.5c5.7,2,11.7,2.7,17.2,3c5.5,0.3,10.5,0.1,15.1,0.3"/>
			<path class="st83" d="M-16.3,21.3c1,7.1,5.3,18.9,11.7,16.3c12.3-5,10.4,4.3,16.1,3.4c5.3-0.9,10.2-3.7,14.3-7.4
				c1.1-1,2.2-2.1,3.2-3.2c4.6-5.1,8.5-11.2,14.4-14.9c3.2-2,6.7-3.5,10.3-3.9c4.4-0.4,8.6,0.9,12.6,2.5c1.3,0.5,2.5,1.1,3.7,1.7
				c2.7,1.2,5.3,2.5,8.2,3.5c5.7,2,11.8,2.7,17.3,2.9c5.6,0.2,10.6,0,15.2,0.1"/>
			<path class="st83" d="M-16.4,21.4c1,7.1,5.4,18.7,11.8,16.2c12.1-4.8,10.3,4.2,16,3.3c5.3-0.9,10.1-3.7,14.1-7.3
				c1.1-1,2.2-2.1,3.2-3.2c4.6-5.1,8.4-11,14.2-14.7c3.2-2,6.7-3.6,10.4-3.9c4.4-0.4,8.7,0.9,12.6,2.6c1.3,0.5,2.5,1.1,3.8,1.7
				c2.7,1.3,5.4,2.6,8.2,3.6c5.7,2,11.9,2.7,17.5,2.9c5.6,0.2,10.7-0.1,15.4-0.1"/>
			<path class="st83" d="M-16.5,21.4c1,7,5.5,18.5,11.9,16c11.9-4.7,10.3,4.1,15.9,3.2c5.2-0.9,10-3.7,14-7.2c1.1-1,2.2-2,3.1-3.1
				c4.6-5,8.3-10.9,14.1-14.5c3.2-2,6.7-3.6,10.5-3.9c4.4-0.4,8.7,0.9,12.7,2.7c1.3,0.5,2.5,1.1,3.8,1.7c2.7,1.3,5.4,2.6,8.3,3.6
				c5.8,2,12,2.7,17.6,2.8c5.6,0.1,10.8-0.3,15.5-0.3"/>
			<path class="st83" d="M-16.6,21.5c1.1,7,5.6,18.4,12,15.9c11.7-4.5,10.2,4,15.7,3c5.2-0.9,9.9-3.6,13.8-7.1c1.1-1,2.1-2,3.1-3.1
				c4.5-4.9,8.3-10.7,14-14.3c3.2-2,6.8-3.6,10.6-4c4.5-0.4,8.8,1,12.8,2.8c1.3,0.6,2.5,1.2,3.8,1.8c2.7,1.3,5.4,2.7,8.3,3.7
				c5.8,2.1,12.1,2.7,17.7,2.8c5.7,0.1,10.9-0.4,15.7-0.6"/>
			<path class="st83" d="M-16.7,21.6c1.1,7,5.7,18.2,12.1,15.8C7,33,5.6,41.2,11.1,40.3c5.1-0.9,9.8-3.6,13.7-7.1c1.1-1,2.1-2,3.1-3
				c4.5-4.8,8.2-10.5,13.9-14.1c3.2-2,6.8-3.7,10.6-4c4.5-0.4,8.9,1,12.9,2.8c1.3,0.6,2.5,1.2,3.8,1.8c2.7,1.3,5.4,2.7,8.3,3.7
				c5.8,2.1,12.1,2.7,17.9,2.7c5.7,0,11-0.5,15.8-0.8"/>
			<path class="st83" d="M-16.8,21.6c1.1,7,5.8,18,12.2,15.7C6.8,33.1,5.5,41,10.9,40.1c5-0.9,9.6-3.6,13.5-7c1.1-1,2.1-2,3.1-3
				c4.5-4.8,8.2-10.4,13.8-13.9c3.3-2.1,6.9-3.7,10.7-4c4.5-0.4,8.9,1.1,12.9,2.9c1.3,0.6,2.6,1.2,3.8,1.9c2.7,1.4,5.5,2.7,8.4,3.8
				c5.9,2.1,12.2,2.7,18,2.7c5.8,0,11.1-0.7,15.9-1"/>
			<path class="st83" d="M-16.9,21.7c1.2,7,5.9,17.9,12.3,15.5c11.1-4,10,3.6,15.4,2.7c5-0.9,9.5-3.5,13.4-6.9
				c1.1-0.9,2.1-1.9,3-2.9c4.4-4.7,8.1-10.2,13.6-13.7c3.3-2.1,6.9-3.7,10.8-4c4.6-0.4,9,1.1,13,3c1.3,0.6,2.6,1.2,3.8,1.9
				c2.7,1.4,5.5,2.8,8.4,3.9c5.9,2.1,12.3,2.7,18.1,2.6c5.8-0.1,11.1-0.8,16.1-1.2"/>
			<path class="st83" d="M-17,21.8c1.2,7,6,17.7,12.4,15.4c10.9-3.9,9.9,3.5,15.2,2.6c4.9-0.9,9.4-3.5,13.2-6.8C25,32,26,31,26.9,30
				c4.4-4.6,8.1-10.1,13.5-13.5c3.3-2.1,7-3.7,10.8-4c4.6-0.3,9,1.2,13.1,3.1c1.3,0.6,2.6,1.3,3.9,1.9c2.7,1.4,5.5,2.8,8.5,3.9
				c5.9,2.2,12.4,2.7,18.3,2.5c5.9-0.2,11.2-1,16.2-1.5"/>
			<path class="st83" d="M-17.1,21.8c1.3,6.9,6.1,17.5,12.5,15.3c10.7-3.7,9.8,3.4,15.1,2.4c4.9-0.9,9.3-3.5,13.1-6.7
				c1-0.9,2-1.9,3-2.9c4.3-4.6,8-9.9,13.4-13.3c3.3-2.1,7-3.8,10.9-4.1c4.6-0.3,9.1,1.2,13.1,3.2c1.3,0.6,2.6,1.3,3.9,2
				c2.7,1.4,5.5,2.9,8.5,4c6,2.2,12.5,2.7,18.4,2.5c5.9-0.2,11.3-1.1,16.4-1.7"/>
			<path class="st83" d="M-17.2,21.9C-15.9,28.8-11,39.2-4.6,37c10.5-3.6,9.8,3.3,15,2.3c4.8-0.9,9.2-3.4,12.9-6.7
				c1-0.9,2-1.8,3-2.8c4.3-4.5,8-9.8,13.3-13.1c3.3-2.1,7.1-3.8,11-4.1c4.7-0.3,9.1,1.3,13.2,3.3c1.3,0.6,2.6,1.3,3.9,2
				c2.8,1.5,5.5,2.9,8.6,4c6,2.2,12.6,2.7,18.5,2.4c6-0.3,11.4-1.2,16.5-1.9"/>
			<path class="st83" d="M-17.3,22C-16,28.9-11,39.1-4.6,37c10.3-3.4,9.7,3.2,14.9,2.2c4.7-0.9,9.1-3.4,12.8-6.6
				c1-0.9,2-1.8,2.9-2.8c4.3-4.4,7.9-9.6,13.2-12.9c3.4-2.1,7.1-3.8,11-4.1c4.7-0.3,9.2,1.3,13.3,3.4c1.3,0.6,2.6,1.3,3.9,2
				c2.8,1.5,5.6,3,8.6,4.1c6.1,2.2,12.7,2.7,18.7,2.4c6-0.3,11.5-1.4,16.7-2.2"/>
			<path class="st83" d="M-17.4,22C-16,28.9-11,39-4.6,36.9C5.5,33.6,5.1,40,10.2,39c4.7-0.9,9-3.4,12.6-6.5c1-0.9,2-1.8,2.9-2.7
				c4.2-4.4,7.8-9.5,13-12.7c3.4-2.1,7.1-3.9,11.1-4.1c4.7-0.3,9.2,1.4,13.4,3.4c1.3,0.7,2.6,1.4,3.9,2.1c2.8,1.5,5.6,3,8.6,4.2
				c6.1,2.2,12.7,2.7,18.8,2.3c6.1-0.4,11.6-1.5,16.8-2.4"/>
			<path class="st83" d="M-17.5,22.1c1.4,6.9,6.4,16.8,12.9,14.8c9.9-3.1,9.6,3,14.6,2c4.6-0.9,8.9-3.3,12.5-6.4
				c1-0.9,2-1.8,2.9-2.7c4.2-4.3,7.8-9.3,12.9-12.6c3.4-2.2,7.2-3.9,11.2-4.1c4.7-0.3,9.3,1.4,13.4,3.5c1.3,0.7,2.6,1.4,3.9,2.1
				c2.8,1.5,5.6,3.1,8.7,4.2c6.1,2.3,12.8,2.7,18.9,2.2c6.1-0.4,11.7-1.6,17-2.6"/>
			<path class="st83" d="M-17.6,22.1c1.4,6.8,6.5,16.6,13,14.6c9.7-3,9.5,2.8,14.5,1.8c4.6-0.9,8.8-3.3,12.3-6.3
				c1-0.8,1.9-1.7,2.9-2.6c4.2-4.2,7.7-9.1,12.8-12.4c3.4-2.2,7.2-3.9,11.3-4.2c4.8-0.3,9.4,1.5,13.5,3.6c1.3,0.7,2.6,1.4,4,2.1
				c2.8,1.6,5.6,3.1,8.7,4.3c6.2,2.3,12.9,2.7,19,2.2c6.2-0.5,11.8-1.8,17.1-2.8"/>
			<path class="st83" d="M-17.7,22.2c1.5,6.8,6.6,16.4,13.1,14.5c9.5-2.8,9.4,2.7,14.4,1.7c4.5-0.9,8.6-3.3,12.2-6.3
				c1-0.8,1.9-1.7,2.8-2.6c4.1-4.2,7.7-9,12.7-12.2c3.4-2.2,7.3-3.9,11.3-4.2c4.8-0.3,9.4,1.5,13.6,3.7c1.3,0.7,2.6,1.4,4,2.2
				c2.8,1.6,5.7,3.2,8.8,4.3c6.2,2.3,13,2.7,19.2,2.1c6.2-0.5,11.9-1.9,17.3-3.1"/>
			<path class="st83" d="M-17.8,22.3c1.5,6.8,6.7,16.2,13.2,14.4c9.2-2.7,9.3,2.6,14.3,1.6c4.4-0.9,8.5-3.2,12-6.2
				c1-0.8,1.9-1.7,2.8-2.6c4.1-4.1,7.6-8.8,12.6-12c3.5-2.2,7.3-4,11.4-4.2c4.8-0.3,9.5,1.6,13.7,3.8c1.3,0.7,2.7,1.5,4,2.2
				c2.8,1.6,5.7,3.2,8.8,4.4c6.2,2.3,13.1,2.7,19.3,2.1c6.2-0.6,12-2.1,17.4-3.3"/>
			<path class="st83" d="M-17.9,22.3c1.5,6.8,6.8,16.1,13.3,14.2c9-2.5,9.3,2.5,14.1,1.5C14,37.1,18,34.8,21.5,32
				c1-0.8,1.9-1.6,2.8-2.5c4.1-4,7.6-8.7,12.4-11.8c3.5-2.2,7.4-4,11.5-4.2c4.9-0.3,9.5,1.6,13.7,3.9c1.3,0.7,2.7,1.5,4,2.3
				c2.8,1.6,5.7,3.3,8.8,4.4c6.3,2.4,13.2,2.7,19.4,2c6.3-0.6,12.1-2.2,17.5-3.5"/>
			<path class="st83" d="M-18,22.4c1.6,6.8,6.9,15.9,13.4,14.1c8.8-2.4,9.2,2.4,14,1.3c4.3-0.9,8.3-3.2,11.7-6
				c1-0.8,1.9-1.6,2.7-2.5c4-3.9,7.5-8.5,12.3-11.6c3.5-2.2,7.4-4,11.5-4.3c4.9-0.3,9.6,1.7,13.8,4c1.3,0.7,2.7,1.5,4,2.3
				c2.9,1.7,5.7,3.3,8.9,4.5c6.3,2.4,13.2,2.7,19.6,2c6.3-0.7,12.2-2.3,17.7-3.7"/>
			<path class="st83" d="M-18.1,22.5c1.6,6.8,7,15.7,13.5,14c8.6-2.3,9.1,2.3,13.9,1.2c4.3-0.9,8.2-3.1,11.6-5.9
				c0.9-0.8,1.9-1.6,2.7-2.4c4-3.9,7.5-8.4,12.2-11.4c3.5-2.3,7.5-4.1,11.6-4.3c4.9-0.3,9.6,1.7,13.9,4c1.4,0.7,2.7,1.5,4,2.3
				c2.9,1.7,5.8,3.4,8.9,4.6c6.3,2.4,13.3,2.7,19.7,1.9c6.4-0.8,12.2-2.5,17.8-4"/>
			<path class="st83" d="M-18.2,22.5c1.6,6.7,7.1,15.5,13.6,13.8c8.4-2.1,9.1,2.2,13.8,1.1c4.2-0.9,8.1-3.1,11.4-5.9
				c0.9-0.8,1.8-1.6,2.7-2.4c4-3.8,7.4-8.2,12.1-11.2c3.5-2.3,7.5-4.1,11.7-4.3c5-0.2,9.7,1.8,14,4.1c1.4,0.8,2.7,1.6,4,2.4
				c2.9,1.7,5.8,3.4,9,4.6c6.4,2.4,13.4,2.7,19.8,1.8c6.4-0.8,12.3-2.6,18-4.2"/>
			<path class="st83" d="M-18.3,22.6c1.7,6.7,7.2,15.3,13.7,13.7c8.2-2,9,2.1,13.6,1c4.1-0.9,8-3.1,11.3-5.8
				c0.9-0.7,1.8-1.5,2.7-2.3c3.9-3.7,7.3-8.1,12-11c3.6-2.3,7.5-4.1,11.8-4.3c5-0.2,9.7,1.8,14,4.2c1.4,0.8,2.7,1.6,4.1,2.4
				c2.9,1.7,5.8,3.5,9,4.7c6.4,2.4,13.5,2.7,20,1.8c6.5-0.9,12.4-2.7,18.1-4.4"/>
			<path class="st83" d="M-18.4,22.7c1.7,6.7,7.3,15.1,13.8,13.6c8-1.9,8.9,1.9,13.5,0.9c4.1-1,7.9-3.1,11.1-5.7
				c0.9-0.7,1.8-1.5,2.6-2.3c3.9-3.7,7.3-7.9,11.8-10.8c3.6-2.3,7.6-4.1,11.8-4.3c5-0.2,9.8,1.9,14.1,4.3c1.4,0.8,2.7,1.6,4.1,2.4
				c2.9,1.8,5.8,3.5,9,4.7c6.4,2.5,13.6,2.7,20.1,1.7c6.5-0.9,12.5-2.9,18.3-4.7"/>
			<path class="st83" d="M-18.5,22.7c1.7,6.7,7.4,14.9,14,13.5c7.7-1.7,8.8,1.8,13.4,0.7c4-1,7.7-3,11-5.6c0.9-0.7,1.8-1.5,2.6-2.3
				c3.8-3.6,7.2-7.7,11.7-10.6c3.6-2.3,7.6-4.2,11.9-4.4c5.1-0.2,9.9,1.9,14.2,4.4c1.4,0.8,2.7,1.6,4.1,2.5c2.9,1.8,5.9,3.6,9.1,4.8
				c6.5,2.5,13.7,2.6,20.2,1.7c6.6-1,12.6-3,18.4-4.9"/>
			<path class="st83" d="M-18.6,22.8c1.8,6.7,7.5,14.7,14.1,13.3c7.5-1.6,8.8,1.7,13.3,0.6c4-1,7.6-3,10.8-5.5
				c0.9-0.7,1.8-1.5,2.6-2.2c3.8-3.5,7.2-7.6,11.6-10.4c3.6-2.3,7.7-4.2,12-4.4c5.1-0.2,9.9,1.9,14.2,4.5c1.4,0.8,2.7,1.7,4.1,2.5
				c2.9,1.8,5.9,3.6,9.1,4.9c6.5,2.5,13.8,2.6,20.4,1.6c6.6-1,12.7-3.1,18.6-5.1"/>
			<path class="st83" d="M-18.7,22.9c1.8,6.7,7.6,14.5,14.2,13.2c7.3-1.5,8.7,1.6,13.1,0.5c3.9-1,7.5-3,10.7-5.5
				c0.9-0.7,1.7-1.4,2.6-2.2c3.8-3.5,7.1-7.4,11.5-10.2c3.6-2.3,7.7-4.2,12-4.4c5.1-0.2,10,2,14.3,4.6c1.4,0.8,2.8,1.7,4.1,2.5
				c2.9,1.8,5.9,3.7,9.2,4.9c6.5,2.5,13.8,2.6,20.5,1.5c6.7-1.1,12.8-3.3,18.7-5.3"/>
			<path class="st83" d="M-18.8,22.9C-17,29.6-11.2,37.3-4.6,36c7.1-1.4,8.6,1.5,13,0.4c3.8-1,7.4-2.9,10.5-5.4
				c0.9-0.7,1.7-1.4,2.5-2.1c3.7-3.4,7.1-7.3,11.4-10c3.7-2.4,7.8-4.3,12.1-4.4c5.2-0.2,10,2,14.4,4.6c1.4,0.8,2.8,1.7,4.1,2.6
				c2.9,1.9,5.9,3.7,9.2,5c6.6,2.6,13.9,2.6,20.6,1.5c6.7-1.1,12.9-3.4,18.9-5.6"/>
			<path class="st83" d="M-18.9,23C-17,29.6-11.2,37.1-4.6,36c6.9-1.2,8.6,1.4,12.9,0.3c3.8-1,7.3-2.9,10.4-5.3
				c0.9-0.7,1.7-1.4,2.5-2.1c3.7-3.3,7-7.1,11.2-9.9c3.7-2.4,7.8-4.3,12.2-4.4c5.2-0.2,10.1,2.1,14.5,4.7c1.4,0.8,2.8,1.7,4.2,2.6
				c3,1.9,5.9,3.7,9.3,5c6.6,2.6,14,2.6,20.8,1.4c6.8-1.2,13-3.6,19-5.8"/>
			<path class="st83" d="M-19,23.1c1.9,6.6,7.8,13.9,14.5,12.8c6.7-1.1,8.5,1.3,12.8,0.1c3.7-1,7.2-2.9,10.2-5.2
				c0.9-0.7,1.7-1.3,2.5-2c3.7-3.2,7-7,11.1-9.7c3.7-2.4,7.9-4.3,12.2-4.5c5.2-0.2,10.1,2.1,14.5,4.8c1.4,0.9,2.8,1.8,4.2,2.7
				c3,1.9,6,3.8,9.3,5.1c6.6,2.6,14.1,2.6,20.9,1.4c6.8-1.3,13.1-3.7,19.1-6"/>
			<path class="st83" d="M-19.1,23.1c2,6.6,7.9,13.7,14.6,12.7c6.4-1,8.4,1.1,12.7,0c3.7-1,7.1-2.8,10.1-5.1c0.8-0.6,1.7-1.3,2.5-2
				c3.6-3.2,6.9-6.8,11-9.5c3.7-2.4,7.9-4.4,12.3-4.5c5.2-0.2,10.2,2.2,14.6,4.9c1.4,0.9,2.8,1.8,4.2,2.7c3,1.9,6,3.8,9.3,5.2
				c6.7,2.6,14.2,2.6,21,1.3c6.8-1.3,13.2-3.8,19.3-6.2"/>
			<path class="st83" d="M-19.2,23.2c2,6.6,8,13.5,14.7,12.6c6.2-0.9,8.3,1,12.5-0.1c3.6-1,7-2.8,10-5c0.8-0.6,1.6-1.3,2.4-2
				c3.6-3.1,6.8-6.7,10.9-9.3c3.7-2.4,7.9-4.4,12.4-4.5c5.3-0.2,10.2,2.2,14.7,5c1.4,0.9,2.8,1.8,4.2,2.7c3,2,6,3.9,9.4,5.2
				c6.7,2.6,14.3,2.6,21.1,1.3c6.9-1.4,13.2-4,19.4-6.5"/>
			<path class="st83" d="M-19.3,23.3c2,6.5,8.1,13.3,14.8,12.4c6-0.8,8.3,0.9,12.4-0.2c3.5-1,6.9-2.8,9.8-5c0.8-0.6,1.6-1.3,2.4-1.9
				c3.6-3,6.8-6.5,10.7-9.1c3.8-2.4,8-4.4,12.5-4.5c5.3-0.1,10.3,2.3,14.8,5.1c1.4,0.9,2.8,1.8,4.2,2.8c3,2,6,3.9,9.4,5.3
				c6.8,2.7,14.3,2.6,21.3,1.2c6.9-1.4,13.3-4.1,19.6-6.7"/>
			<path class="st83" d="M-19.4,23.3c2.1,6.5,8.2,13.1,14.9,12.3c5.8-0.7,8.2,0.8,12.3-0.4c3.5-1,6.7-2.7,9.7-4.9
				c0.8-0.6,1.6-1.2,2.4-1.9c3.5-3,6.7-6.3,10.6-8.9c3.8-2.5,8-4.4,12.5-4.6c5.3-0.1,10.4,2.3,14.8,5.2c1.4,0.9,2.8,1.9,4.2,2.8
				c3,2,6.1,4,9.5,5.3c6.8,2.7,14.4,2.6,21.4,1.1c7-1.5,13.4-4.2,19.7-6.9"/>
			<path class="st83" d="M-19.5,23.4c2.1,6.5,8.6,14.2,15,12.2c5.4-1.7,8.1,0.7,12.2-0.5c3.4-1,6.6-2.7,9.5-4.8
				c0.8-0.6,1.6-1.2,2.3-1.8c3.5-2.9,6.7-6.2,10.5-8.7c3.8-2.5,8.1-4.5,12.6-4.6c5.4-0.1,10.4,2.4,14.9,5.2c1.4,0.9,2.8,1.9,4.3,2.8
				c3,2,6.1,4,9.5,5.4c6.8,2.7,14.5,2.6,21.5,1.1c7-1.5,13.5-4.4,19.9-7.2"/>
			<path class="st83" d="M-19.6,23.5c2.1,6.5,8.6,13.9,15.1,12c5.2-1.5,8.1,0.6,12-0.6c3.3-1,6.5-2.7,9.4-4.7
				c0.8-0.6,1.6-1.2,2.3-1.8c3.5-2.8,6.6-6,10.4-8.5c3.8-2.5,8.1-4.5,12.7-4.6c5.4-0.1,10.5,2.4,15,5.3c1.4,0.9,2.9,1.9,4.3,2.9
				c3,2.1,6.1,4.1,9.5,5.4c6.9,2.7,14.6,2.6,21.7,1c7.1-1.6,13.6-4.5,20-7.4"/>
			<path class="st83" d="M-19.7,23.5c2.2,6.5,8.6,13.6,15.2,11.9c5-1.3,8,0.5,11.9-0.7c3.3-1,6.4-2.6,9.2-4.6
				c0.8-0.6,1.5-1.1,2.3-1.7c3.4-2.8,6.6-5.9,10.3-8.3c3.8-2.5,8.2-4.5,12.7-4.6c5.4-0.1,10.5,2.5,15,5.4c1.4,0.9,2.9,1.9,4.3,2.9
				c3,2.1,6.1,4.1,9.6,5.5c6.9,2.8,14.7,2.6,21.8,1c7.1-1.6,13.7-4.7,20.2-7.6"/>
			<path class="st83" d="M-19.8,23.6c2.2,6.5,8.7,13.2,15.3,11.8c4.8-1.1,7.9,0.4,11.8-0.8c3.2-1,6.3-2.6,9.1-4.6
				c0.8-0.5,1.5-1.1,2.3-1.7c3.4-2.7,6.5-5.7,10.1-8.1c3.9-2.5,8.2-4.6,12.8-4.6C47,15.4,52.1,18,56.6,21c1.4,1,2.9,2,4.3,3
				c3.1,2.1,6.2,4.2,9.6,5.6c6.9,2.8,14.8,2.6,21.9,0.9c7.2-1.7,13.8-4.8,20.3-7.8"/>
			<path class="st83" d="M-20,23.7c2.2,6.4,8.7,12.8,15.4,11.7c4.7-0.8,7.8,0.2,11.7-1c3.2-1,6.2-2.6,8.9-4.5
				c0.8-0.5,1.5-1.1,2.2-1.7c3.4-2.6,6.4-5.6,10-7.9c3.9-2.5,8.3-4.6,12.9-4.7c5.5-0.1,10.6,2.6,15.2,5.6c1.5,1,2.9,2,4.3,3
				c3.1,2.1,6.2,4.2,9.7,5.6c7,2.8,14.9,2.6,22.1,0.9c7.2-1.7,13.9-4.9,20.5-8.1"/>
			<path class="st83" d="M-20.1,23.7c2.3,6.4,8.8,12.4,15.5,11.5c4.5-0.6,7.8,0.1,11.5-1.1c3.1-1,6.1-2.6,8.8-4.4
				c0.8-0.5,1.5-1.1,2.2-1.6c3.3-2.6,6.4-5.4,9.9-7.7c3.9-2.6,8.3-4.6,13-4.7c5.5-0.1,10.7,2.6,15.3,5.7c1.5,1,2.9,2,4.3,3
				c3.1,2.2,6.2,4.3,9.7,5.7c7,2.8,14.9,2.6,22.2,0.8c7.3-1.8,14-5.1,20.6-8.3"/>
			<path class="st83" d="M-20.2,23.8c2.3,6.4,8.8,12,15.6,11.4c4.3-0.4,7.7,0,11.4-1.2c3-1,6-2.5,8.6-4.3c0.7-0.5,1.5-1,2.2-1.6
				c3.3-2.5,6.3-5.3,9.8-7.5c3.9-2.6,8.3-4.6,13-4.7c5.6-0.1,10.7,2.7,15.3,5.8c1.5,1,2.9,2,4.4,3.1c3.1,2.2,6.2,4.3,9.7,5.7
				c7,2.8,15,2.6,22.3,0.7c7.3-1.9,14.1-5.2,20.7-8.5"/>
			<path class="st83" d="M-20.3,23.9c2.4,6.4,8.9,11.5,15.7,11.3C-0.4,35,3.1,35,6.7,33.8c3-1,5.8-2.5,8.5-4.2
				c0.7-0.5,1.5-1,2.2-1.5c3.2-2.4,6.3-5.1,9.7-7.3c3.9-2.6,8.4-4.7,13.1-4.7c5.6-0.1,10.8,2.7,15.4,5.9c1.5,1,2.9,2.1,4.4,3.1
				c3.1,2.2,6.3,4.4,9.8,5.8c7.1,2.9,15.1,2.6,22.5,0.7c7.4-1.9,14.2-5.3,20.9-8.7"/>
			<path class="st83" d="M-20.4,23.9c2.4,6.4,9,10.8,15.8,11.1c3.9,0.2,7.6-0.2,11.2-1.4c2.9-1,5.7-2.5,8.3-4.2
				c0.7-0.5,1.4-1,2.1-1.5c3.2-2.3,6.2-5,9.5-7.2c3.9-2.6,8.4-4.7,13.2-4.7c5.6-0.1,10.9,2.8,15.5,5.9c1.5,1,2.9,2.1,4.4,3.1
				c3.1,2.2,6.3,4.4,9.8,5.9c7.1,2.9,15.2,2.6,22.6,0.6c7.4-2,14.3-5.5,21-9"/>
			<path class="st83" d="M-20.5,24c2.4,6.4,9.1,10.4,15.9,11c6.8,0.6,13.5-1.9,19.2-5.6c4-2.6,7.6-5.8,11.5-8.4
				c4-2.6,8.5-4.7,13.2-4.8c5.7,0,10.9,2.8,15.6,6s9,6.9,14.3,9.1c7.1,2.9,15.3,2.6,22.7,0.6c7.4-2,14.3-5.6,21.2-9.2"/>
		</g>
	</g>
</g>
<g id="Layer_3">
	<g class="st84">
		<rect class="st0" width="100" height="46.7"/>
		<rect x="0.2" y="0.1" class="st0" width="99.7" height="46.5"/>
		<rect x="0.3" y="0.1" class="st0" width="99.4" height="46.4"/>
		<rect x="0.5" y="0.2" class="st0" width="99.1" height="46.2"/>
		<rect x="0.6" y="0.3" class="st0" width="98.8" height="46.1"/>
		<rect x="0.8" y="0.4" class="st0" width="98.4" height="45.9"/>
		<rect x="0.9" y="0.4" class="st0" width="98.1" height="45.8"/>
		<rect x="1.1" y="0.5" class="st0" width="97.8" height="45.6"/>
		<rect x="1.2" y="0.6" class="st0" width="97.5" height="45.5"/>
		<rect x="1.4" y="0.7" class="st0" width="97.2" height="45.4"/>
		<rect x="1.6" y="0.7" class="st0" width="96.9" height="45.2"/>
		<rect x="1.7" y="0.8" class="st0" width="96.6" height="45.1"/>
		<rect x="1.9" y="0.9" class="st0" width="96.3" height="44.9"/>
		<rect x="2" y="0.9" class="st0" width="96" height="44.8"/>
		<rect x="2.2" y="1" class="st0" width="95.6" height="44.6"/>
		<rect x="2.3" y="1.1" class="st0" width="95.3" height="44.5"/>
		<rect x="2.5" y="1.2" class="st0" width="95" height="44.3"/>
		<rect x="2.6" y="1.2" class="st0" width="94.7" height="44.2"/>
		<rect x="2.8" y="1.3" class="st0" width="94.4" height="44.1"/>
		<rect x="3" y="1.4" class="st0" width="94.1" height="43.9"/>
		<rect x="3.1" y="1.5" class="st0" width="93.8" height="43.8"/>
		<rect x="3.3" y="1.5" class="st0" width="93.5" height="43.6"/>
		<rect x="3.4" y="1.6" class="st0" width="93.2" height="43.5"/>
		<rect x="3.6" y="1.7" class="st0" width="92.8" height="43.3"/>
		<rect x="3.7" y="1.7" class="st0" width="92.5" height="43.2"/>
		<rect x="3.9" y="1.8" class="st0" width="92.2" height="43"/>
		<rect x="4" y="1.9" class="st0" width="91.9" height="42.9"/>
		<rect x="4.2" y="2" class="st0" width="91.6" height="42.7"/>
		<rect x="4.4" y="2" class="st0" width="91.3" height="42.6"/>
		<rect x="4.5" y="2.1" class="st0" width="91" height="42.5"/>
		<rect x="4.7" y="2.2" class="st0" width="90.7" height="42.3"/>
		<rect x="4.8" y="2.3" class="st0" width="90.3" height="42.2"/>
		<rect x="5" y="2.3" class="st0" width="90" height="42"/>
		<rect x="5.1" y="2.4" class="st0" width="89.7" height="41.9"/>
		<rect x="5.3" y="2.5" class="st0" width="89.4" height="41.7"/>
		<rect x="5.4" y="2.5" class="st0" width="89.1" height="41.6"/>
		<rect x="5.6" y="2.6" class="st0" width="88.8" height="41.4"/>
		<rect x="5.8" y="2.7" class="st0" width="88.5" height="41.3"/>
		<rect x="5.9" y="2.8" class="st0" width="88.2" height="41.1"/>
		<rect x="6.1" y="2.8" class="st0" width="87.9" height="41"/>
		<rect x="6.2" y="2.9" class="st0" width="87.5" height="40.9"/>
		<rect x="6.4" y="3" class="st0" width="87.2" height="40.7"/>
		<rect x="6.5" y="3.1" class="st0" width="86.9" height="40.6"/>
		<rect x="6.7" y="3.1" class="st0" width="86.6" height="40.4"/>
		<rect x="6.8" y="3.2" class="st0" width="86.3" height="40.3"/>
		<rect x="7" y="3.3" class="st0" width="86" height="40.1"/>
		<rect x="7.2" y="3.3" class="st0" width="85.7" height="40"/>
		<rect x="7.3" y="3.4" class="st0" width="85.4" height="39.8"/>
		<rect x="7.5" y="3.5" class="st0" width="85.1" height="39.7"/>
		<rect x="7.6" y="3.6" class="st0" width="84.7" height="39.5"/>
		<rect x="7.8" y="3.6" class="st0" width="84.4" height="39.4"/>
		<rect x="7.9" y="3.7" class="st0" width="84.1" height="39.3"/>
		<rect x="8.1" y="3.8" class="st0" width="83.8" height="39.1"/>
		<rect x="8.3" y="3.9" class="st0" width="83.5" height="39"/>
		<rect x="8.4" y="3.9" class="st0" width="83.2" height="38.8"/>
		<rect x="8.6" y="4" class="st0" width="82.9" height="38.7"/>
		<rect x="8.7" y="4.1" class="st0" width="82.6" height="38.5"/>
		<rect x="8.9" y="4.1" class="st0" width="82.3" height="38.4"/>
		<rect x="9" y="4.2" class="st0" width="81.9" height="38.2"/>
		<rect x="9.2" y="4.3" class="st0" width="81.6" height="38.1"/>
		<rect x="9.3" y="4.4" class="st0" width="81.3" height="37.9"/>
		<rect x="9.5" y="4.4" class="st0" width="81" height="37.8"/>
		<rect x="9.7" y="4.5" class="st0" width="80.7" height="37.7"/>
		<rect x="9.8" y="4.6" class="st0" width="80.4" height="37.5"/>
		<rect x="10" y="4.6" class="st0" width="80.1" height="37.4"/>
		<rect x="10.1" y="4.7" class="st0" width="79.8" height="37.2"/>
		<rect x="10.3" y="4.8" class="st0" width="79.5" height="37.1"/>
		<rect x="10.4" y="4.9" class="st0" width="79.1" height="36.9"/>
		<rect x="10.6" y="4.9" class="st0" width="78.8" height="36.8"/>
		<rect x="10.7" y="5" class="st0" width="78.5" height="36.6"/>
		<rect x="10.9" y="5.1" class="st0" width="78.2" height="36.5"/>
		<rect x="11.1" y="5.2" class="st0" width="77.9" height="36.4"/>
		<rect x="11.2" y="5.2" class="st0" width="77.6" height="36.2"/>
		<rect x="11.4" y="5.3" class="st0" width="77.3" height="36.1"/>
		<rect x="11.5" y="5.4" class="st0" width="77" height="35.9"/>
		<rect x="11.7" y="5.4" class="st0" width="76.6" height="35.8"/>
		<rect x="11.8" y="5.5" class="st0" width="76.3" height="35.6"/>
		<rect x="12" y="5.6" class="st0" width="76" height="35.5"/>
		<rect x="12.1" y="5.7" class="st0" width="75.7" height="35.3"/>
		<rect x="12.3" y="5.7" class="st0" width="75.4" height="35.2"/>
		<rect x="12.5" y="5.8" class="st0" width="75.1" height="35"/>
		<rect x="12.6" y="5.9" class="st0" width="74.8" height="34.9"/>
		<rect x="12.8" y="6" class="st0" width="74.5" height="34.8"/>
		<rect x="12.9" y="6" class="st0" width="74.2" height="34.6"/>
		<rect x="13.1" y="6.1" class="st0" width="73.8" height="34.5"/>
		<rect x="13.2" y="6.2" class="st0" width="73.5" height="34.3"/>
		<rect x="13.4" y="6.2" class="st0" width="73.2" height="34.2"/>
		<rect x="13.5" y="6.3" class="st0" width="72.9" height="34"/>
		<rect x="13.7" y="6.4" class="st0" width="72.6" height="33.9"/>
		<rect x="13.9" y="6.5" class="st0" width="72.3" height="33.7"/>
		<rect x="14" y="6.5" class="st0" width="72" height="33.6"/>
		<rect x="14.2" y="6.6" class="st0" width="71.7" height="33.4"/>
		<rect x="14.3" y="6.7" class="st0" width="71.4" height="33.3"/>
		<rect x="14.5" y="6.8" class="st0" width="71" height="33.2"/>
		<rect x="14.6" y="6.8" class="st0" width="70.7" height="33"/>
		<rect x="14.8" y="6.9" class="st0" width="70.4" height="32.9"/>
		<rect x="14.9" y="7" class="st0" width="70.1" height="32.7"/>
		<rect x="15.1" y="7" class="st0" width="69.8" height="32.6"/>
		<rect x="15.3" y="7.1" class="st0" width="69.5" height="32.4"/>
		<rect x="15.4" y="7.2" class="st0" width="69.2" height="32.3"/>
		<rect x="15.6" y="7.3" class="st0" width="68.9" height="32.1"/>
		<rect x="15.7" y="7.3" class="st0" width="68.6" height="32"/>
		<rect x="15.9" y="7.4" class="st0" width="68.2" height="31.8"/>
		<rect x="16" y="7.5" class="st0" width="67.9" height="31.7"/>
		<rect x="16.2" y="7.6" class="st0" width="67.6" height="31.6"/>
		<rect x="16.3" y="7.6" class="st0" width="67.3" height="31.4"/>
		<rect x="16.5" y="7.7" class="st0" width="67" height="31.3"/>
		<rect x="16.7" y="7.8" class="st0" width="66.7" height="31.1"/>
		<rect x="16.8" y="7.8" class="st0" width="66.4" height="31"/>
		<rect x="17" y="7.9" class="st0" width="66.1" height="30.8"/>
		<rect x="17.1" y="8" class="st0" width="65.8" height="30.7"/>
		<rect x="17.3" y="8.1" class="st0" width="65.4" height="30.5"/>
		<rect x="17.4" y="8.1" class="st0" width="65.1" height="30.4"/>
		<rect x="17.6" y="8.2" class="st0" width="64.8" height="30.2"/>
		<rect x="17.7" y="8.3" class="st0" width="64.5" height="30.1"/>
		<rect x="17.9" y="8.4" class="st0" width="64.2" height="30"/>
		<rect x="18.1" y="8.4" class="st0" width="63.9" height="29.8"/>
		<rect x="18.2" y="8.5" class="st0" width="63.6" height="29.7"/>
		<rect x="18.4" y="8.6" class="st0" width="63.3" height="29.5"/>
		<rect x="18.5" y="8.6" class="st0" width="62.9" height="29.4"/>
		<rect x="18.7" y="8.7" class="st0" width="62.6" height="29.2"/>
		<rect x="18.8" y="8.8" class="st0" width="62.3" height="29.1"/>
		<rect x="19" y="8.9" class="st0" width="62" height="28.9"/>
		<rect x="19.1" y="8.9" class="st0" width="61.7" height="28.8"/>
		<rect x="19.3" y="9" class="st0" width="61.4" height="28.6"/>
		<rect x="19.5" y="9.1" class="st0" width="61.1" height="28.5"/>
		<rect x="19.6" y="9.2" class="st0" width="60.8" height="28.4"/>
		<rect x="19.8" y="9.2" class="st0" width="60.5" height="28.2"/>
		<rect x="19.9" y="9.3" class="st0" width="60.1" height="28.1"/>
		<rect x="20.1" y="9.4" class="st0" width="59.8" height="27.9"/>
		<rect x="20.2" y="9.4" class="st0" width="59.5" height="27.8"/>
		<rect x="20.4" y="9.5" class="st0" width="59.2" height="27.6"/>
		<rect x="20.5" y="9.6" class="st0" width="58.9" height="27.5"/>
		<rect x="20.7" y="9.7" class="st0" width="58.6" height="27.3"/>
		<rect x="20.9" y="9.7" class="st0" width="58.3" height="27.2"/>
		<rect x="21" y="9.8" class="st0" width="58" height="27.1"/>
		<rect x="21.2" y="9.9" class="st0" width="57.7" height="26.9"/>
		<rect x="21.3" y="10" class="st0" width="57.3" height="26.8"/>
		<rect x="21.5" y="10" class="st0" width="57" height="26.6"/>
		<rect x="21.6" y="10.1" class="st0" width="56.7" height="26.5"/>
		<rect x="21.8" y="10.2" class="st0" width="56.4" height="26.3"/>
		<rect x="22" y="10.2" class="st0" width="56.1" height="26.2"/>
		<rect x="22.1" y="10.3" class="st0" width="55.8" height="26"/>
		<rect x="22.3" y="10.4" class="st0" width="55.5" height="25.9"/>
		<rect x="22.4" y="10.5" class="st0" width="55.2" height="25.7"/>
		<rect x="22.6" y="10.5" class="st0" width="54.9" height="25.6"/>
		<rect x="22.7" y="10.6" class="st0" width="54.5" height="25.5"/>
		<rect x="22.9" y="10.7" class="st0" width="54.2" height="25.3"/>
		<rect x="23" y="10.8" class="st0" width="53.9" height="25.2"/>
		<rect x="23.2" y="10.8" class="st0" width="53.6" height="25"/>
		<rect x="23.4" y="10.9" class="st0" width="53.3" height="24.9"/>
		<rect x="23.5" y="11" class="st0" width="53" height="24.7"/>
		<rect x="23.7" y="11" class="st0" width="52.7" height="24.6"/>
		<rect x="23.8" y="11.1" class="st0" width="52.4" height="24.4"/>
		<rect x="24" y="11.2" class="st0" width="52.1" height="24.3"/>
		<rect x="24.1" y="11.3" class="st0" width="51.7" height="24.1"/>
		<rect x="24.3" y="11.3" class="st0" width="51.4" height="24"/>
		<rect x="24.4" y="11.4" class="st0" width="51.1" height="23.9"/>
		<rect x="24.6" y="11.5" class="st0" width="50.8" height="23.7"/>
		<rect x="24.8" y="11.6" class="st0" width="50.5" height="23.6"/>
		<rect x="24.9" y="11.6" class="st0" width="50.2" height="23.4"/>
		<rect x="25.1" y="11.7" class="st0" width="49.9" height="23.3"/>
		<rect x="25.2" y="11.8" class="st0" width="49.6" height="23.1"/>
		<rect x="25.4" y="11.8" class="st0" width="49.2" height="23"/>
		<rect x="25.5" y="11.9" class="st0" width="48.9" height="22.8"/>
		<rect x="25.7" y="12" class="st0" width="48.6" height="22.7"/>
		<rect x="25.8" y="12.1" class="st0" width="48.3" height="22.5"/>
		<rect x="26" y="12.1" class="st0" width="48" height="22.4"/>
		<rect x="26.2" y="12.2" class="st0" width="47.7" height="22.3"/>
		<rect x="26.3" y="12.3" class="st0" width="47.4" height="22.1"/>
		<rect x="26.5" y="12.4" class="st0" width="47.1" height="22"/>
		<rect x="26.6" y="12.4" class="st0" width="46.8" height="21.8"/>
		<rect x="26.8" y="12.5" class="st0" width="46.4" height="21.7"/>
		<rect x="26.9" y="12.6" class="st0" width="46.1" height="21.5"/>
		<rect x="27.1" y="12.6" class="st0" width="45.8" height="21.4"/>
		<rect x="27.2" y="12.7" class="st0" width="45.5" height="21.2"/>
		<rect x="27.4" y="12.8" class="st0" width="45.2" height="21.1"/>
		<rect x="27.6" y="12.9" class="st0" width="44.9" height="20.9"/>
		<rect x="27.7" y="12.9" class="st0" width="44.6" height="20.8"/>
		<rect x="27.9" y="13" class="st0" width="44.3" height="20.7"/>
		<rect x="28" y="13.1" class="st0" width="44" height="20.5"/>
		<rect x="28.2" y="13.1" class="st0" width="43.6" height="20.4"/>
		<rect x="28.3" y="13.2" class="st0" width="43.3" height="20.2"/>
		<rect x="28.5" y="13.3" class="st0" width="43" height="20.1"/>
		<rect x="28.6" y="13.4" class="st0" width="42.7" height="19.9"/>
		<rect x="28.8" y="13.4" class="st0" width="42.4" height="19.8"/>
		<rect x="29" y="13.5" class="st0" width="42.1" height="19.6"/>
		<rect x="29.1" y="13.6" class="st0" width="41.8" height="19.5"/>
		<rect x="29.3" y="13.7" class="st0" width="41.5" height="19.4"/>
		<rect x="29.4" y="13.7" class="st0" width="41.2" height="19.2"/>
		<rect x="29.6" y="13.8" class="st0" width="40.8" height="19.1"/>
		<rect x="29.7" y="13.9" class="st0" width="40.5" height="18.9"/>
		<rect x="29.9" y="13.9" class="st0" width="40.2" height="18.8"/>
		<rect x="30" y="14" class="st0" width="39.9" height="18.6"/>
		<rect x="30.2" y="14.1" class="st0" width="39.6" height="18.5"/>
		<rect x="30.4" y="14.2" class="st0" width="39.3" height="18.3"/>
		<rect x="30.5" y="14.2" class="st0" width="39" height="18.2"/>
		<rect x="30.7" y="14.3" class="st0" width="38.7" height="18"/>
		<rect x="30.8" y="14.4" class="st0" width="38.4" height="17.9"/>
		<rect x="31" y="14.5" class="st0" width="38" height="17.8"/>
		<rect x="31.1" y="14.5" class="st0" width="37.7" height="17.6"/>
		<rect x="31.3" y="14.6" class="st0" width="37.4" height="17.5"/>
	</g>
</g>
</svg>
