<svg xmlns="http://www.w3.org/2000/svg" version="1.1" xmlns:xlink="http://www.w3.org/1999/xlink" xmlns:svgjs="http://svgjs.com/svgjs" width="512" height="512" x="0" y="0" viewBox="0 0 512.001 512" style="enable-background:new 0 0 512 512" xml:space="preserve" class=""><g><path xmlns="http://www.w3.org/2000/svg" d="m499.882812 268.410156c.730469-7.707031 1.117188-15.511718 1.117188-23.410156 0-135.308594-109.691406-245-245-245s-245 109.691406-245 245c0 7.898438.386719 15.703125 1.117188 23.410156zm0 0" fill="#f9ce00" data-original="#f9ce00"></path><path xmlns="http://www.w3.org/2000/svg" d="m26.726562 234.164062h458.542969v35.867188h-458.542969zm0 0" fill="#1d3ba8" data-original="#1d3ba8"></path><path xmlns="http://www.w3.org/2000/svg" d="m64.742188 398.113281c10.550781 13.15625 22.414062 25.214844 35.417968 35.945313h311.679688c13.003906-10.730469 24.871094-22.789063 35.417968-35.945313zm0 0" fill="#1d3ba8" data-original="#1d3ba8"></path><path xmlns="http://www.w3.org/2000/svg" d="m138.273438 252.222656v-.25c0-9.835937 7.972656-17.808594 17.808593-17.808594h-129.355469v35.867188h129.355469c-9.835937 0-17.808593-7.972656-17.808593-17.808594zm0 0" fill="#122894" data-original="#122894"></path><path xmlns="http://www.w3.org/2000/svg" d="m144.410156 429.363281c-12.386718-10.855469-4.777344-31.25 11.691406-31.25h-91.359374c10.550781 13.15625 22.414062 25.214844 35.417968 35.945313h56.324219c-4.292969 0-8.457031-1.539063-11.691406-4.363282-.128907-.109374-.253907-.222656-.382813-.332031zm0 0" fill="#122894" data-original="#122894"></path><path xmlns="http://www.w3.org/2000/svg" d="m485.273438 105.085938h-458.546876c0-15.917969 12.90625-28.820313 28.820313-28.820313h400.90625c15.914063 0 28.820313 12.90625 28.820313 28.820313zm0 0" fill="#406bcc" data-original="#406bcc"></path><path xmlns="http://www.w3.org/2000/svg" d="m170.046875 76.265625h-114.5c-15.914063 0-28.816406 12.90625-28.816406 28.820313h114.5c-.003907-15.914063 12.902343-28.820313 28.816406-28.820313zm0 0" fill="#284cb2" data-original="#284cb2"></path><path xmlns="http://www.w3.org/2000/svg" d="m497.085938 237.589844h-482.171876c-8.203124 0-14.914062-6.710938-14.914062-14.914063v-104.8125c0-8.199219 6.710938-14.910156 14.914062-14.910156h482.175782c8.199218 0 14.910156 6.710937 14.910156 14.910156v104.8125c0 8.203125-6.710938 14.914063-14.914062 14.914063zm0 0" fill="#284cb2" data-original="#284cb2"></path><path xmlns="http://www.w3.org/2000/svg" d="m129.582031 222.675781v-104.8125c0-8.199219 6.710938-14.910156 14.914063-14.910156h-129.582032c-8.203124 0-14.914062 6.710937-14.914062 14.910156v104.8125c0 8.203125 6.710938 14.914063 14.914062 14.914063h129.582032c-8.203125 0-14.914063-6.710938-14.914063-14.914063zm0 0" fill="#1d3ba8" data-original="#1d3ba8"></path><path xmlns="http://www.w3.org/2000/svg" d="m0 162.265625h512v16.011719h-512zm0 0" fill="#122894" data-original="#122894"></path><path xmlns="http://www.w3.org/2000/svg" d="m301.410156 162.265625h-48.5c4.417969 0 8.003906 3.582031 8.003906 8.003906s-3.585937 8.007813-8.003906 8.007813h48.5c4.417969 0 8.003906-3.585938 8.003906-8.007813s-3.585937-8.003906-8.003906-8.003906zm0 0" fill="#012481" data-original="#012481"></path><path xmlns="http://www.w3.org/2000/svg" d="m450.183594 218.984375c-4.457032 0-8.007813-3.609375-8.007813-8.007813 0-5.089843 4.714844-8.851562 9.566407-7.84375 3.558593.671876 6.445312 3.914063 6.445312 7.84375 0 4.390626-3.582031 8.007813-8.003906 8.007813zm0 0" fill="#f95d95" data-original="#f95d95"></path><path xmlns="http://www.w3.org/2000/svg" d="m418.695312 218.984375c-4.367187 0-8.007812-3.535156-8.007812-8.007813 0-5.207031 4.808594-8.832031 9.566406-7.84375 3.582032.675782 6.445313 3.910157 6.445313 7.84375 0 4.351563-3.539063 8.007813-8.003907 8.007813zm0 0" fill="#f9ce00" data-original="#f9ce00"></path><path xmlns="http://www.w3.org/2000/svg" d="m387.207031 218.984375c-4.574219 0-8.019531-3.753906-8.019531-8.007813 0-5.046874 4.699219-8.859374 9.578125-7.84375 3.527344.664063 6.433594 3.84375 6.433594 7.84375 0 4.496094-3.664063 8.007813-7.992188 8.007813zm0 0" fill="#06daf7" data-original="#06daf7"></path><path xmlns="http://www.w3.org/2000/svg" d="m211.324219 170.269531c0 9.558594-7.75 17.308594-17.308594 17.308594-9.5625 0-17.3125-7.75-17.3125-17.308594 0-9.558593 7.75-17.308593 17.3125-17.308593 9.558594 0 17.308594 7.75 17.308594 17.308593zm0 0" fill="#55f3ff" data-original="#55f3ff"></path><path xmlns="http://www.w3.org/2000/svg" d="m200.203125 175.203125c-6.144531 0-11.121094-4.980469-11.121094-11.121094 0-5.203125 3.574219-9.554687 8.402344-10.773437-1.121094-.226563-2.28125-.347656-3.46875-.347656-9.5625 0-17.3125 7.75-17.3125 17.308593 0 9.5625 7.75 17.308594 17.3125 17.308594 9.558594 0 17.308594-7.746094 17.308594-17.308594 0-1.1875-.121094-2.347656-.351563-3.46875-1.214844 4.824219-5.570312 8.402344-10.769531 8.402344zm0 0" fill="#06daf7" data-original="#06daf7"></path><path xmlns="http://www.w3.org/2000/svg" d="m451.949219 155.859375c-15.445313 0-140.945313 0-151.207031 0-7.957032 0-14.40625 6.453125-14.40625 14.410156s6.449218 14.410157 14.40625 14.410157h151.207031c7.960937 0 14.410156-6.449219 14.410156-14.410157 0-7.957031-6.449219-14.410156-14.410156-14.410156zm0 0" fill="#5488e2" data-original="#5488e2"></path><path xmlns="http://www.w3.org/2000/svg" d="m11.96875 266.707031c4.460938 50.816407 24.417969 97.1875 55.144531 134.339844h377.773438c30.726562-37.152344 50.683593-83.523437 55.148437-134.339844-.953125-.195312-1.9375-.296875-2.945312-.296875h-482.175782c-1.007812 0-1.992187.101563-2.945312.296875zm0 0" fill="#284cb2" data-original="#284cb2"></path><path xmlns="http://www.w3.org/2000/svg" d="m144.496094 266.410156h-129.582032c-1.007812 0-1.992187.101563-2.945312.296875 4.460938 50.816407 24.421875 97.1875 55.144531 134.339844h77.382813c-8.203125 0-14.914063-6.710937-14.914063-14.914063v-104.8125c0-8.199218 6.710938-14.910156 14.914063-14.910156zm0 0" fill="#1d3ba8" data-original="#1d3ba8"></path><path xmlns="http://www.w3.org/2000/svg" d="m30.851562 341.734375h450.300782c2.253906-5.246094 4.328125-10.585937 6.222656-16.011719h-462.75c1.894531 5.425782 3.96875 10.765625 6.226562 16.011719zm0 0" fill="#122894" data-original="#122894"></path><path xmlns="http://www.w3.org/2000/svg" d="m301.410156 325.722656h-48.5c4.417969 0 8.003906 3.582032 8.003906 8.003906 0 4.421876-3.585937 8.007813-8.003906 8.007813h48.5c4.417969 0 8.003906-3.585937 8.003906-8.007813 0-4.421874-3.585937-8.003906-8.003906-8.003906zm0 0" fill="#012481" data-original="#012481"></path><path xmlns="http://www.w3.org/2000/svg" d="m450.183594 382.441406c-4.457032 0-8.007813-3.609375-8.007813-8.007812 0-5.09375 4.714844-8.855469 9.566407-7.84375 3.558593.671875 6.445312 3.914062 6.445312 7.84375 0 4.390625-3.582031 8.007812-8.003906 8.007812zm0 0" fill="#f95d95" data-original="#f95d95"></path><path xmlns="http://www.w3.org/2000/svg" d="m418.695312 382.441406c-4.367187 0-8.007812-3.539062-8.007812-8.007812 0-5.207032 4.808594-8.835938 9.566406-7.84375 3.582032.675781 6.445313 3.910156 6.445313 7.84375 0 4.351562-3.539063 8.007812-8.003907 8.007812zm0 0" fill="#f9ce00" data-original="#f9ce00"></path><path xmlns="http://www.w3.org/2000/svg" d="m387.207031 382.441406c-4.574219 0-8.019531-3.753906-8.019531-8.007812 0-5.046875 4.699219-8.859375 9.578125-7.84375 3.527344.664062 6.433594 3.839844 6.433594 7.84375 0 4.496094-3.664063 8.007812-7.992188 8.007812zm0 0" fill="#06daf7" data-original="#06daf7"></path><path xmlns="http://www.w3.org/2000/svg" d="m451.949219 319.316406c-15.445313 0-140.945313 0-151.207031 0-7.957032 0-14.40625 6.449219-14.40625 14.410156 0 7.957032 6.449218 14.410157 14.40625 14.410157h151.207031c7.960937 0 14.410156-6.453125 14.410156-14.410157 0-7.960937-6.449219-14.410156-14.410156-14.410156zm0 0" fill="#5488e2" data-original="#5488e2"></path><path xmlns="http://www.w3.org/2000/svg" d="m368.175781 170.269531c0-7.957031 6.449219-14.410156 14.410157-14.410156-37.238282 0-76.308594 0-81.84375 0-7.957032 0-14.40625 6.453125-14.40625 14.410156 0 7.960938 6.449218 14.410157 14.40625 14.410157h81.84375c-7.960938 0-14.410157-6.453126-14.410157-14.410157zm0 0" fill="#406bcc" data-original="#406bcc"></path><path xmlns="http://www.w3.org/2000/svg" d="m368.175781 333.726562c0-7.957031 6.449219-14.410156 14.410157-14.410156-37.238282 0-76.308594 0-81.84375 0-7.957032 0-14.40625 6.449219-14.40625 14.410156 0 7.957032 6.449218 14.410157 14.40625 14.410157h81.84375c-7.960938 0-14.410157-6.453125-14.410157-14.410157zm0 0" fill="#406bcc" data-original="#406bcc"></path><path xmlns="http://www.w3.org/2000/svg" d="m95.222656 429.863281c43.027344 37.457031 99.25 60.140625 160.777344 60.140625s117.75-22.683594 160.777344-60.140625zm0 0" fill="#284cb2" data-original="#284cb2"></path><path xmlns="http://www.w3.org/2000/svg" d="m129.582031 454.902344v-10.125c0-8.203125 6.710938-14.914063 14.914063-14.914063h-49.273438c10.679688 9.296875 22.171875 17.683594 34.359375 25.039063zm0 0" fill="#1d3ba8" data-original="#1d3ba8"></path><path xmlns="http://www.w3.org/2000/svg" d="m146.890625 170.269531c0 9.558594-7.75 17.308594-17.308594 17.308594-9.558593 0-17.308593-7.75-17.308593-17.308594 0-9.558593 7.75-17.308593 17.308593-17.308593 9.558594 0 17.308594 7.75 17.308594 17.308593zm0 0" fill="#55f3ff" data-original="#55f3ff"></path><path xmlns="http://www.w3.org/2000/svg" d="m135.769531 175.203125c-6.140625 0-11.121093-4.980469-11.121093-11.121094 0-5.203125 3.578124-9.554687 8.402343-10.773437-1.121093-.226563-2.28125-.347656-3.46875-.347656-9.558593 0-17.308593 7.75-17.308593 17.308593 0 9.5625 7.75 17.308594 17.308593 17.308594 9.558594 0 17.308594-7.746094 17.308594-17.308594 0-1.1875-.121094-2.347656-.347656-3.46875-1.214844 4.824219-5.570313 8.402344-10.773438 8.402344zm0 0" fill="#06daf7" data-original="#06daf7"></path><path xmlns="http://www.w3.org/2000/svg" d="m82.460938 170.269531c0 9.558594-7.75 17.308594-17.3125 17.308594-9.558594 0-17.308594-7.75-17.308594-17.308594 0-9.558593 7.75-17.308593 17.308594-17.308593 9.5625 0 17.3125 7.75 17.3125 17.308593zm0 0" fill="#55f3ff" data-original="#55f3ff"></path><path xmlns="http://www.w3.org/2000/svg" d="m71.339844 175.203125c-6.144532 0-11.121094-4.980469-11.121094-11.121094 0-5.203125 3.574219-9.554687 8.398438-10.773437-1.121094-.226563-2.277344-.347656-3.46875-.347656-9.558594 0-17.308594 7.75-17.308594 17.308593 0 9.5625 7.75 17.308594 17.308594 17.308594 9.5625 0 17.3125-7.746094 17.3125-17.308594 0-1.1875-.121094-2.347656-.351563-3.46875-1.214844 4.824219-5.570313 8.402344-10.769531 8.402344zm0 0" fill="#06daf7" data-original="#06daf7"></path><path xmlns="http://www.w3.org/2000/svg" d="m211.324219 333.726562c0 9.558594-7.75 17.308594-17.308594 17.308594-9.5625 0-17.3125-7.75-17.3125-17.308594 0-9.558593 7.75-17.308593 17.3125-17.308593 9.558594 0 17.308594 7.75 17.308594 17.308593zm0 0" fill="#55f3ff" data-original="#55f3ff"></path><path xmlns="http://www.w3.org/2000/svg" d="m200.203125 338.660156c-6.144531 0-11.121094-4.980468-11.121094-11.121094 0-5.203124 3.574219-9.558593 8.402344-10.773437-1.121094-.226563-2.28125-.347656-3.46875-.347656-9.5625 0-17.3125 7.75-17.3125 17.308593 0 9.558594 7.75 17.308594 17.3125 17.308594 9.558594 0 17.308594-7.75 17.308594-17.308594 0-1.1875-.121094-2.347656-.351563-3.46875-1.214844 4.824219-5.570312 8.402344-10.769531 8.402344zm0 0" fill="#06daf7" data-original="#06daf7"></path><path xmlns="http://www.w3.org/2000/svg" d="m146.890625 333.726562c0 9.558594-7.75 17.308594-17.308594 17.308594-9.558593 0-17.308593-7.75-17.308593-17.308594 0-9.558593 7.75-17.308593 17.308593-17.308593 9.558594 0 17.308594 7.75 17.308594 17.308593zm0 0" fill="#55f3ff" data-original="#55f3ff"></path><path xmlns="http://www.w3.org/2000/svg" d="m135.769531 338.660156c-6.140625 0-11.121093-4.980468-11.121093-11.121094 0-5.203124 3.578124-9.558593 8.402343-10.773437-1.121093-.226563-2.28125-.347656-3.46875-.347656-9.558593 0-17.308593 7.75-17.308593 17.308593 0 9.558594 7.75 17.308594 17.308593 17.308594 9.558594 0 17.308594-7.75 17.308594-17.308594 0-1.1875-.121094-2.347656-.347656-3.46875-1.214844 4.824219-5.570313 8.402344-10.773438 8.402344zm0 0" fill="#06daf7" data-original="#06daf7"></path><path xmlns="http://www.w3.org/2000/svg" d="m82.460938 333.726562c0 9.558594-7.75 17.308594-17.3125 17.308594-9.558594 0-17.308594-7.75-17.308594-17.308594 0-9.558593 7.75-17.308593 17.308594-17.308593 9.5625 0 17.3125 7.75 17.3125 17.308593zm0 0" fill="#55f3ff" data-original="#55f3ff"></path><path xmlns="http://www.w3.org/2000/svg" d="m71.339844 338.660156c-6.144532 0-11.121094-4.980468-11.121094-11.121094 0-5.203124 3.574219-9.558593 8.398438-10.773437-1.121094-.226563-2.277344-.347656-3.46875-.347656-9.558594 0-17.308594 7.75-17.308594 17.308593 0 9.558594 7.75 17.308594 17.308594 17.308594 9.5625 0 17.3125-7.75 17.3125-17.308594 0-1.1875-.121094-2.347656-.351563-3.46875-1.214844 4.824219-5.570313 8.402344-10.769531 8.402344zm0 0" fill="#06daf7" data-original="#06daf7"></path></g></svg>