<svg xmlns="http://www.w3.org/2000/svg" version="1.1" xmlns:xlink="http://www.w3.org/1999/xlink" xmlns:svgjs="http://svgjs.com/svgjs" width="512" height="512" x="0" y="0" viewBox="0 0 512 512" style="enable-background:new 0 0 512 512" xml:space="preserve" class=""><g><g xmlns="http://www.w3.org/2000/svg"><path d="m512 256c0 141.385-114.615 256-256 256s-256-114.615-256-256 114.615-256 256-256 256 114.615 256 256z" fill="#6dc54a" data-original="#6dc54a" class=""></path><path d="m467.851 256c0 117.002-94.849 211.851-211.851 211.851s-211.851-94.849-211.851-211.851 94.849-211.851 211.851-211.851 211.851 94.849 211.851 211.851z" fill="#5db33a" data-original="#5db33a" class=""></path><path d="m136.715 55.148h-20.507c-8.284 0-15-6.716-15-15v-12.357c0-8.284 6.716-15 15-15h20.507c8.284 0 .234 6.716.234 15v12.358c0 8.283 8.05 14.999-.234 14.999z" fill="#f44545" data-original="#f44545"></path><path d="m167.405 55.148h-32.257c-8.284 0-15-6.716-15-15v-12.357c0-8.284 6.716-15 15-15h32.257c8.284 0 15 6.716 15 15v12.358c0 8.283-6.715 14.999-15 14.999z" fill="#fb5858" data-original="#fb5858" class=""></path><path d="m352.344 481.688c0 8.284 8.05 15-.234 15h-20.507c-8.284 0-15-6.716-15-15v-12.358c0-8.284 6.716-15 15-15h20.507c8.284 0 .234 6.716.234 15z" fill="#274c91" data-original="#274c91"></path><path d="m382.8 496.688h-32.257c-8.284 0-15-6.716-15-15v-12.358c0-8.284 6.716-15 15-15h32.257c8.284 0 15 6.716 15 15v12.357c0 8.285-6.716 15.001-15 15.001z" fill="#2e5aac" data-original="#2e5aac"></path><path d="m462.61 208.585h-16.405c-4.748-19.109-12.3-37.11-22.195-53.541l7.646-7.646c5.857-5.858 5.857-15.355 0-21.213l-45.841-45.841c-5.858-5.858-15.355-5.858-21.213 0l-7.646 7.645c-16.431-9.895-34.432-17.447-53.541-22.195v-10.794c0-8.284-6.716-15-15-15h-64.829c-8.285 0-15 6.716-15 15v10.795c-19.109 4.748-37.11 12.3-53.542 22.195l-7.646-7.645c-5.858-5.858-15.355-5.858-21.213 0l-45.841 45.841c-5.858 5.858-5.858 15.355 0 21.213l7.646 7.645c-9.895 16.431-17.447 34.432-22.195 53.541h-16.405c-8.284 0-15 6.716-15 15v64.829c0 8.284 6.716 15 15 15h16.405c4.748 19.109 12.3 37.11 22.195 53.541l-7.646 7.645c-5.858 5.858-5.858 15.355 0 21.213l45.841 45.841c5.858 5.858 15.355 5.858 21.213 0l7.646-7.646c16.431 9.895 34.432 17.447 53.542 22.195v10.797c0 8.284 6.715 15 15 15h64.829c8.284 0 15-6.716 15-15v-10.795c19.109-4.748 37.11-12.3 53.541-22.195l7.646 7.646c5.858 5.858 15.355 5.858 21.213 0l45.841-45.841c5.857-5.858 5.857-15.355 0-21.213l-7.646-7.646c9.895-16.431 17.447-34.432 22.195-53.541h16.405c8.284 0 15-6.716 15-15v-64.829c0-8.285-6.716-15.001-15-15.001zm-206.61 169.639c-67.503 0-122.225-54.722-122.225-122.224s54.722-122.224 122.225-122.224c67.502 0 122.224 54.722 122.224 122.224s-54.721 122.224-122.224 122.224z" fill="#e9f3fe" data-original="#e9f3fe" class=""></path><path d="m256 96c-88.366 0-160 71.634-160 160s71.634 160 160 160c88.365 0 160-71.634 160-160s-71.635-160-160-160zm0 280.234c-66.404 0-120.234-53.831-120.234-120.234s53.831-120.234 120.234-120.234 120.234 53.831 120.234 120.234-53.831 120.234-120.234 120.234z" fill="#c8e2fd" data-original="#c8e2fd"></path><path d="m419.003 294.551c-8.866 37.457-30.546 70.956-61.046 94.324-28.259 21.652-62.904 33.808-98.234 34.589l11.721 8.528c3.35 2.437 4.089 7.128 1.653 10.477-1.833 2.52-4.942 3.562-7.795 2.887-.94-.222-1.852-.631-2.681-1.235l-25.119-18.276c-3.35-2.437-4.089-7.128-1.653-10.477l18.275-25.119c2.437-3.349 7.129-4.088 10.477-1.652 3.35 2.437 4.089 7.128 1.653 10.477l-6.834 9.394c68.643-1.511 129.041-50.004 144.987-117.373 19.369-81.828-31.445-164.157-113.273-183.526-4.031-.954-6.525-4.995-5.571-9.026s4.995-6.525 9.026-5.571c89.875 21.275 145.688 111.702 124.414 201.579z" fill="#f44545" data-original="#f44545"></path><path d="m273.423 97.677c-.117 1.986-1.017 3.844-2.504 5.166l-23.217 20.638c-1.899 1.689-4.418 2.236-6.717 1.692-1.447-.342-2.807-1.118-3.871-2.314-2.752-3.096-2.473-7.837.623-10.589l9.686-8.611c-67.334 3.627-124.064 50.638-139.816 117.184-19.368 81.828 31.446 164.157 113.274 183.526 4.031.954 6.525 4.995 5.571 9.026s-4.995 6.525-9.026 5.571c-89.876-21.274-145.689-111.701-124.415-201.578 8.793-37.146 30.223-70.453 60.344-93.784 27.282-21.132 60.67-33.392 94.88-34.991l-8.542-9.61c-2.752-3.096-2.473-7.837.623-10.589 3.095-2.751 7.835-2.475 10.588.622l20.639 23.217c1.321 1.488 1.997 3.439 1.88 5.424z" fill="#55a4f9" data-original="#55a4f9"></path><path d="m454.064 180.385v151.229c0 8.284-6.716 15-15 15h-366.128c-8.284 0-15-6.716-15-15v-151.229c0-8.284 6.716-15 15-15h366.128c8.284 0 15 6.716 15 15z" fill="#274c91" data-original="#274c91"></path><path d="m119.222 346.615h-46.286c-8.284 0-15-6.716-15-15v-151.23c0-8.284 6.716-15 15-15h46.285c-8.284 0-14.667-.784-14.667 7.5v166.229c.001 8.285 6.383 7.501 14.668 7.501z" fill="#203e76" data-original="#203e76"></path><path d="m440.017 354.115h-368.034c-12.407 0-22.5-10.093-22.5-22.5v-151.23c0-12.407 10.093-22.5 22.5-22.5h368.034c12.407 0 22.5 10.093 22.5 22.5v151.229c0 12.407-10.093 22.501-22.5 22.501zm-368.034-181.23c-4.135 0-7.5 3.364-7.5 7.5v151.229c0 4.136 3.365 7.5 7.5 7.5h368.034c4.135 0 7.5-3.364 7.5-7.5v-151.229c0-4.136-3.365-7.5-7.5-7.5z" fill="#2e5aac" data-original="#2e5aac"></path><path d="m104.555 339.115h-32.572c-4.135 0-7.5-3.364-7.5-7.5v-151.23c0-4.136 3.365-7.5 7.5-7.5h32.572c3.096-8.729 11.432-15 21.21-15h-53.782c-12.407 0-22.5 10.093-22.5 22.5v151.229c0 12.407 10.093 22.5 22.5 22.5h53.782c-9.778.001-18.114-6.27-21.21-14.999z" fill="#274c91" data-original="#274c91"></path><path d="m217.046 266.1h.463c4.014 0 7.269 3.254 7.269 7.269v29.836c0 4.107-3.165 7.688-7.27 7.811-4.247.127-7.73-3.278-7.73-7.497v-30.15c-.001-4.015 3.254-7.269 7.268-7.269zm194.825 35.268-5.612-29.364c-.655-3.426-3.651-5.904-7.139-5.904h-.47c-4.561 0-7.996 4.153-7.139 8.633l5.629 29.451c.778 4.069 4.717 6.734 8.774 5.959 4.067-.778 6.735-4.706 5.957-8.775zm-222.377-17.231c-3.237-2.472-7.86-1.685-10.511 1.407-.903 1.053-1.87 2.04-2.879 2.938-5.614 5-12.71 7.536-21.091 7.536-16.837 0-31.278-10.452-37.177-25.208-1.124-2.811-3.776-4.711-6.804-4.711h-.491c-5.135 0-8.64 5.176-6.762 9.955 8.032 20.449 27.971 34.963 51.235 34.963 11.999 0 22.742-3.919 31.066-11.334 1.632-1.453 3.185-3.054 4.615-4.759 2.738-3.262 2.222-8.172-1.201-10.787zm52.938-18.037h-.616c-6.255 0-9.589 7.376-5.456 12.071l26.67 30.303c1.482 1.685 3.553 2.545 5.633 2.545 1.76 0 3.527-.616 4.952-1.87 3.109-2.737 3.411-7.476.675-10.585l-26.401-29.997c-1.38-1.569-3.368-2.467-5.457-2.467zm111.859 16.048-3.197-10.836c-.912-3.09-3.749-5.212-6.972-5.212h-.482c-4.855 0-8.345 4.669-6.972 9.325l8.483 28.752c.026.088.054.176.083.263 1.322 3.94 4.992 6.578 9.144 6.578h.05c4.171-.021 7.84-2.701 9.127-6.669.028-.086.054-.172.079-.259l8.19-28.729c1.323-4.642-2.163-9.261-6.99-9.261h-.481c-3.247 0-6.1 2.153-6.99 5.276zm-57.349 19.296c-.735 4.076 1.973 7.977 6.049 8.713 4.072.737 7.977-1.972 8.713-6.048l5.315-29.449c.805-4.459-2.622-8.56-7.153-8.56h-.47c-3.516 0-6.528 2.517-7.153 5.978z" fill="#c8e2fd" data-original="#c8e2fd"></path><path d="m398.719 280c-3.599 0-6.691-2.557-7.366-6.092l-7.672-40.141-11.628 40.789c-.918 3.222-3.862 5.444-7.212 5.444h-.001c-4.981 0-8.578-4.766-7.212-9.556l17.827-62.535c.025-.087.052-.174.08-.261 1.351-4.164 5.321-6.899 9.721-6.652 4.37.247 8.033 3.416 8.906 7.705l11.924 62.39c.882 4.624-2.661 8.909-7.367 8.909zm-66.439-72.438c-1.396-4.151-5.42-6.848-9.789-6.552-4.369.292-7.999 3.5-8.845 7.887l-11.24 62.272c-.83 4.601 2.705 8.832 7.38 8.832h.001c3.628 0 6.736-2.597 7.38-6.168l7.223-40.02 12.04 40.81c.941 3.189 3.869 5.377 7.193 5.377h.001c5.009 0 8.611-4.817 7.193-9.622l-18.454-62.55c-.025-.089-.053-.178-.083-.266zm-146.501 2.821c-9.802-6.622-21.385-9.883-33.313-9.343-29.231 1.323-52.536 25.821-52.472 55.082.015 6.707 1.236 13.137 3.457 19.082 1.085 2.904 3.901 4.796 7 4.796h.004c5.2 0 8.864-5.179 7.046-10.051-1.795-4.811-2.689-10.057-2.477-15.532.782-20.169 16.819-36.831 36.947-38.323 9.026-.669 17.828 1.651 25.24 6.602 3.351 2.239 7.998 1.608 10.395-1.632 2.554-3.453 1.696-8.302-1.827-10.681zm90.381 22.798c0 16.966-13.763 30.909-31.151 32.114l1.981 2.251c4.264 4.844.824 12.454-5.63 12.454h-.001c-2.155 0-4.206-.927-5.63-2.545l-10.57-12.01c-.189.071-.194.073-.383.145v6.91c0 4.142-3.358 7.5-7.5 7.5h-.001c-4.142 0-7.5-3.358-7.5-7.5v-64.091c0-4.137 3.379-7.476 7.516-7.427h.016 25.255c18.527 0 33.598 14.444 33.598 32.199zm-15 0c0-9.323-8.517-17.199-18.597-17.199h-17.731c.019 5.987.04 13.891.04 17.199 0 3.915.037 11.513.068 17.266 5.832-.031 13.587-.067 17.623-.067 10.08 0 18.597-7.877 18.597-17.199z" fill="#ffffff" data-original="#ffffff"></path></g></g></svg>