<svg xmlns="http://www.w3.org/2000/svg" version="1.1" xmlns:xlink="http://www.w3.org/1999/xlink" xmlns:svgjs="http://svgjs.com/svgjs" width="512" height="512" x="0" y="0" viewBox="0 0 512 512" style="enable-background:new 0 0 512 512" xml:space="preserve" class=""><g>
<g xmlns="http://www.w3.org/2000/svg">
	<g>
		<g>
			<g>
				<g>
					<g>
						<g>
							<g>
								<g>
									<g>
										<circle style="" cx="256" cy="256" r="256" fill="#ffb000" data-original="#ffb000"></circle>
									</g>
								</g>
							</g>
						</g>
					</g>
				</g>
			</g>
		</g>
	</g>
	<path style="" d="M512,256c0-9.136-0.488-18.157-1.421-27.046l-94.087-94.087l-11.35,26.139L305.136,61   L145.252,252.347l43.182,43.182L96.534,400.887L201.9,506.253C219.342,510.006,237.437,512,256,512   C397.385,512,512,397.385,512,256z" fill="#ff9500" data-original="#ff9500"></path>
	<g>
		<polygon style="" points="145.252,252.347 280.866,116.734 293.858,129.727 305.136,61 236.409,72.277     249.402,85.27 112.002,222.669   " fill="#ffffff" data-original="#ffffff"></polygon>
	</g>
	<g>
		<polygon style="" points="128.543,237.433 145.252,252.347 280.866,116.734 293.858,129.727 305.136,61 305.136,61       " fill="#f2f6fc" data-original="#f2f6fc"></polygon>
	</g>
	<g>
		<rect x="96.534" y="283.855" style="" width="95.995" height="117.032" fill="#636978" data-original="#636978"></rect>
	</g>
	<g>
		<rect x="144" y="283.855" style="" width="48.53" height="117.032" fill="#555a66" data-original="#555a66"></rect>
	</g>
	<g>
		<rect x="208.002" y="214.896" style="" width="95.995" height="185.991" fill="#555a66" data-original="#555a66"></rect>
	</g>
	<g>
		<rect x="255.905" y="214.896" style="" width="48.093" height="185.991" fill="#333940" data-original="#333940"></rect>
	</g>
	<g>
		<rect x="320.497" y="134.867" style="" width="95.995" height="266.02" fill="#333940" data-original="#333940"></rect>
	</g>
	<g>
		<rect x="367.214" y="134.867" style="" width="49.278" height="266.02" fill="#23272b" data-original="#23272b"></rect>
	</g>
</g>















</g></svg>