<svg xmlns="http://www.w3.org/2000/svg" version="1.1" xmlns:xlink="http://www.w3.org/1999/xlink" xmlns:svgjs="http://svgjs.com/svgjs" width="512" height="512" x="0" y="0" viewBox="0 0 512 512" style="enable-background:new 0 0 512 512" xml:space="preserve" class=""><g><path xmlns="http://www.w3.org/2000/svg" d="m512 256c0 141.386719-114.613281 256-256 256s-256-114.613281-256-256 114.613281-256 256-256 256 114.613281 256 256zm0 0" fill="#ffd400" data-original="#ffd400" class=""></path><path xmlns="http://www.w3.org/2000/svg" d="m510.214844 286.242188-66.582032-66.582032-5.101562 15.660156-128.4375-128.4375-172.277344 177.628907 58.15625 58.152343-55.703125 74.558594 93.835938 93.835938c7.21875.613281 14.515625.941406 21.894531.941406 131.152344 0 239.25-98.628906 254.214844-225.757812zm0 0" fill="#fdba12" data-original="#fdba12" class=""></path><g xmlns="http://www.w3.org/2000/svg" fill="#fa5d0f"><path d="m324.671875 194.035156c0 56.570313-45.859375 102.429688-102.429687 102.429688-56.570313 0-102.429688-45.859375-102.429688-102.429688 0-56.570312 45.859375-102.425781 102.429688-102.425781 56.570312 0 102.429687 45.855469 102.429687 102.425781zm0 0" fill="#fa5d0f" data-original="#fa5d0f" class=""></path><path d="m324.671875 194.035156c0-56.363281-45.527344-102.089844-101.816406-102.417968v204.839843c56.289062-.332031 101.816406-46.058593 101.816406-102.421875zm0 0" fill="#fa5d0f" data-original="#fa5d0f" class=""></path><path d="m222.242188 91.609375c-56.570313 0-102.429688 45.859375-102.429688 102.425781 0 56.570313 45.859375 102.429688 102.429688 102.429688.207031 0 .410156-.007813.613281-.007813v-204.839843c-.203125-.003907-.40625-.007813-.613281-.007813zm0 0" fill="#fa5d0f" data-original="#fa5d0f" class=""></path></g><path xmlns="http://www.w3.org/2000/svg" d="m267.707031 172.375c0 25.109375-20.355469 45.464844-45.464843 45.464844-25.109376 0-45.464844-20.355469-45.464844-45.464844s20.355468-45.46875 45.464844-45.46875c25.109374 0 45.464843 20.359375 45.464843 45.46875zm0 0" fill="#ffffff" data-original="#ffffff" class=""></path><path xmlns="http://www.w3.org/2000/svg" d="m267.707031 172.375c0-24.902344-20.023437-45.121094-44.851562-45.449219v90.898438c24.828125-.332031 44.851562-20.546875 44.851562-45.449219zm0 0" fill="#e9edf5" data-original="#e9edf5" class=""></path><path xmlns="http://www.w3.org/2000/svg" d="m222.242188 303.335938c30.347656 0 57.601562-13.210938 76.359374-34.179688-12.292968-30.097656-41.839843-51.316406-76.359374-51.316406-34.519532 0-64.066407 21.21875-76.359376 51.316406 18.757813 20.96875 46.011719 34.179688 76.359376 34.179688zm0 0" fill="#ffffff" data-original="#ffffff" class=""></path><path xmlns="http://www.w3.org/2000/svg" d="m222.832031 217.851562c-.191406 0-.972656 0 0 0v85.476563c-.972656 0-.78125.007813-.589843.007813 30.347656 0 57.601562-13.207032 76.359374-34.179688-12.292968-30.097656-41.25-51.304688-75.769531-51.304688zm0 0" fill="#e9edf5" data-original="#e9edf5" class=""></path><path xmlns="http://www.w3.org/2000/svg" d="m232.558594 380.410156c0 29.546875-23.949219 53.496094-53.492188 53.496094-29.546875 0-53.496094-23.949219-53.496094-53.496094 0-29.542968 23.949219-53.496094 53.496094-53.496094 29.542969 0 53.492188 23.953126 53.492188 53.496094zm0 0" fill="#fa5d0f" data-original="#fa5d0f" class=""></path><path xmlns="http://www.w3.org/2000/svg" d="m202.808594 369.097656c0 13.113282-10.628906 23.746094-23.742188 23.746094-13.117187 0-23.746094-10.632812-23.746094-23.746094 0-13.113281 10.628907-23.746094 23.746094-23.746094 13.113282 0 23.742188 10.632813 23.742188 23.746094zm0 0" fill="#ffffff" data-original="#ffffff" class=""></path><path xmlns="http://www.w3.org/2000/svg" d="m179.066406 392.84375c-17.085937 0-31.835937 9.957031-38.796875 24.378906 9.75 10.269532 23.519531 16.683594 38.796875 16.683594s29.046875-6.414062 38.792969-16.683594c-6.960937-14.421875-21.707031-24.378906-38.792969-24.378906zm0 0" fill="#ffffff" data-original="#ffffff" class=""></path><path xmlns="http://www.w3.org/2000/svg" d="m457.230469 249.859375c0 22.285156-18.066407 40.351563-40.355469 40.351563-22.285156 0-40.351562-18.066407-40.351562-40.351563 0-22.289063 18.066406-40.355469 40.351562-40.355469 22.289062 0 40.355469 18.066406 40.355469 40.355469zm0 0" fill="#fa5d0f" data-original="#fa5d0f" class=""></path><path xmlns="http://www.w3.org/2000/svg" d="m434.789062 241.324219c0 9.890625-8.019531 17.910156-17.914062 17.910156-9.890625 0-17.910156-8.019531-17.910156-17.910156 0-9.894531 8.019531-17.914063 17.910156-17.914063 9.894531 0 17.914062 8.019532 17.914062 17.914063zm0 0" fill="#e9edf5" data-original="#e9edf5" class=""></path><path xmlns="http://www.w3.org/2000/svg" d="m416.875 259.234375c-12.886719 0-24.011719 7.511719-29.265625 18.390625 7.355469 7.746094 17.742187 12.585938 29.265625 12.585938s21.914062-4.839844 29.265625-12.585938c-5.25-10.878906-16.375-18.390625-29.265625-18.390625zm0 0" fill="#e9edf5" data-original="#e9edf5" class=""></path><path xmlns="http://www.w3.org/2000/svg" d="m260.046875 294.296875 53.355469-53.355469 111.140625 111.140625-53.355469 53.355469zm0 0" fill="#414952" data-original="#414952"></path><path xmlns="http://www.w3.org/2000/svg" d="m286.835938 267.503906 26.566406-26.566406 111.140625 111.140625-26.566407 26.566406zm0 0" fill="#333940" data-original="#333940"></path><path xmlns="http://www.w3.org/2000/svg" d="m222.242188 317.847656c-68.269532 0-123.8125-55.542968-123.8125-123.8125 0-68.269531 55.542968-123.808594 123.8125-123.808594 68.269531 0 123.8125 55.539063 123.8125 123.808594 0 68.269532-55.542969 123.8125-123.8125 123.8125zm0-210.964844c-48.058594 0-87.152344 39.097657-87.152344 87.152344 0 48.058594 39.097656 87.152344 87.152344 87.152344 48.054687 0 87.152343-39.09375 87.152343-87.152344 0-48.054687-39.09375-87.152344-87.152343-87.152344zm0 0" fill="#707789" data-original="#707789" class=""></path><path xmlns="http://www.w3.org/2000/svg" d="m222.242188 106.882812c48.058593 0 87.152343 39.097657 87.152343 87.152344 0 26.28125-11.691406 49.882813-30.148437 65.875l25.953125 25.953125c25.074219-22.671875 40.855469-55.441406 40.855469-91.828125 0-68.269531-55.542969-123.8125-123.8125-123.8125-36.386719 0-69.15625 15.78125-91.828126 40.855469l25.953126 25.953125c15.992187-18.457031 39.59375-30.148438 65.875-30.148438zm0 0" fill="#636978" data-original="#636978" class=""></path></g></svg>