<svg xmlns="http://www.w3.org/2000/svg" version="1.1" xmlns:xlink="http://www.w3.org/1999/xlink" xmlns:svgjs="http://svgjs.com/svgjs" width="512" height="512" x="0" y="0" viewBox="0 0 128 128" style="enable-background:new 0 0 512 512" xml:space="preserve" class=""><g><g xmlns="http://www.w3.org/2000/svg" id="Circle_Grid" data-name="Circle Grid"><circle cx="64" cy="64" fill="#ef5261" r="64" data-original="#ef5261"></circle></g><g xmlns="http://www.w3.org/2000/svg" id="icon"><path d="m35.186 61.153h55.518v5.694h-55.518z" fill="#eeefee" data-original="#eeefee"></path><path d="m90.7 95.793h-22.865a5.694 5.694 0 0 1 -5.694-5.7v-52.193a5.694 5.694 0 0 1 5.694-5.695h22.865v5.7h-21.726a1.138 1.138 0 0 0 -1.139 1.138v49.917a1.138 1.138 0 0 0 1.139 1.14h21.726z" fill="#eeefee" data-original="#eeefee"></path><rect fill="#f6c863" height="30.373" rx="1.787" width="30.373" x="20" y="48.814" data-original="#f6c863" class=""></rect><g fill="#69b0ee"><rect height="22.591" rx="1.329" width="22.591" x="79.409" y="23.759" fill="#69b0ee" data-original="#69b0ee" class=""></rect><rect height="22.591" rx="1.329" width="22.591" x="79.409" y="52.705" fill="#69b0ee" data-original="#69b0ee" class=""></rect><rect height="22.591" rx="1.329" width="22.591" x="79.409" y="81.65" fill="#69b0ee" data-original="#69b0ee" class=""></rect></g></g></g></svg>