<?xml version="1.0" encoding="utf-8"?>
<!-- Generator: Adobe Illustrator 23.0.5, SVG Export Plug-In . SVG Version: 6.00 Build 0)  -->
<svg version="1.1" id="Layer_1" xmlns:svgjs="http://svgjs.com/svgjs"
	 xmlns="http://www.w3.org/2000/svg" xmlns:xlink="http://www.w3.org/1999/xlink" x="0px" y="0px" viewBox="0 0 512 512"
	 style="enable-background:new 0 0 512 512;" xml:space="preserve">
<style type="text/css">
	.st0{fill:#FE4675;}
	.st1{fill:#6244BD;}
	.st2{fill:#4E2AA5;}
	.st3{fill:#E6FCFF;}
	.st4{fill:#CCEBFF;}
	.st5{fill:#EC3969;}
	.st6{fill:#205DD9;}
	.st7{fill:#51E0F4;}
	.st8{fill:#15D4F0;}
	.st9{fill:#F9CE00;}
	.st10{fill:#F4B500;}
	.st11{fill:#8DAE16;}
	.st12{fill:#749C18;}
	.st13{fill:#FC6590;}
	.st14{fill:#A5C013;}
	.st15{fill:#FFE600;}
	.st16{fill:#8CECF8;}
	.st17{fill:#5F83FA;}
	.st18{fill:#4070EA;}
	.st19{fill:#B8DFF4;}
	.st20{fill:#FFFFFF;}
	.st21{fill:#7776D0;}
	.st22{fill:#6967BF;}
</style>
<g>
	<path class="st0" d="M255,22C119.7,22,10,131.7,10,267c0,51.5,15.9,99.3,43.1,138.8l196.1,106.1c1.9,0,3.8,0.1,5.8,0.1
		c135.3,0,245-109.7,245-245C500,131.7,390.3,22,255,22z"/>
	<path class="st1" d="M300.2,0L107.1,0c-31,0-56.1,25.1-56.1,56.1l0,346.5C94.8,468.4,169.5,511.8,254.4,512h1.1
		c28.8-0.1,56.4-5.1,82.1-14.3c11.5-10.3,18.7-25.2,18.7-41.8l0-399.7C356.4,25.1,331.2,0,300.2,0z"/>
	<path class="st2" d="M107.1,0c-31,0-56.1,25.1-56.1,56.1l0,346.5c16.2,24.3,36.5,45.5,60.1,62.6c-0.5-3.1-0.8-6.2-0.8-9.4l0-399.7
		c0-31,25.1-56.1,56.1-56.1v0c0,0,0,0,0,0L107.1,0z"/>
	<path class="st3" d="M300.2,29.3h-35.8c-3.7,0-7,2.1-8.6,5.4c-3.5,7.2-10.9,12.2-19.5,12.2l-65.2,0c-8.6,0-16-5-19.5-12.2
		c-1.6-3.3-4.9-5.4-8.6-5.4h-35.8c-14.8,0-26.8,12-26.8,26.8l0,382.6c17.1,17.4,36.7,32.2,58.4,43.9l161.6,0
		c14.8,0,26.8-12,26.8-26.8l0-399.7C327,41.3,315,29.3,300.2,29.3z"/>
	<path class="st4" d="M107.1,29.4c-14.8,0-26.8,12-26.8,26.8l0,382.6c9.5,9.7,19.8,18.5,30.7,26.5c-0.5-3-0.8-6.2-0.8-9.4l0-399.7
		c0-9.7,2.5-18.8,6.8-26.8H107.1z"/>
	<path class="st0" d="M288.1,85h-169c-4.9,0-8.9,4-8.9,8.9v76.6c0,4.9,4,8.9,8.9,8.9h169c4.9,0,8.9-4,8.9-8.9V93.9
		C297.1,89,293.1,85,288.1,85z"/>
	<path class="st5" d="M149.8,170.6V93.9c0-4.9,4-8.9,8.9-8.9h-39.6c-4.9,0-8.9,4-8.9,8.9v76.6c0,4.9,4,8.9,8.9,8.9h39.6
		C153.8,179.5,149.8,175.5,149.8,170.6z"/>
	<path class="st6" d="M286,452.6H229c-6.1,0-11.1-5-11.1-11.1v-57.1c0-6.1,5-11.1,11.1-11.1H286c6.1,0,11.1,5,11.1,11.1v57.1
		C297.1,447.6,292.1,452.6,286,452.6z"/>
	<path class="st7" d="M178.3,452.6h-57.1c-6.1,0-11.1-5-11.1-11.1v-57.1c0-6.1,5-11.1,11.1-11.1h57.1c6.1,0,11.1,5,11.1,11.1v57.1
		C189.4,447.6,184.4,452.6,178.3,452.6z"/>
	<path class="st8" d="M149.8,441.5v-57.1c0-6.1,5-11.1,11.1-11.1h-39.6c-6.1,0-11.1,5-11.1,11.1v57.1c0,6.1,5,11.1,11.1,11.1h39.6
		C154.8,452.6,149.8,447.6,149.8,441.5z"/>
	<path class="st9" d="M121.3,345.6h57.1c6.1,0,11.1-5,11.1-11.1v-57.1c0-6.1-5-11.1-11.1-11.1h-57.1c-6.1,0-11.1,5-11.1,11.1v57.1
		C110.2,340.7,115.2,345.6,121.3,345.6z"/>
	<path class="st10" d="M149.8,334.6v-57.1c0-6.1,5-11.1,11.1-11.1h-39.6c-6.1,0-11.1,5-11.1,11.1v57.1c0,6.1,5,11.1,11.1,11.1h39.6
		C154.8,345.6,149.8,340.7,149.8,334.6z"/>
	<path class="st11" d="M229,345.6H286c6.1,0,11.1-5,11.1-11.1v-57.1c0-6.1-5-11.1-11.1-11.1H229c-6.1,0-11.1,5-11.1,11.1v57.1
		C217.9,340.7,222.9,345.6,229,345.6z"/>
	<path class="st12" d="M257.5,334.6v-57.1c0-6.1,5-11.1,11.1-11.1H229c-6.1,0-11.1,5-11.1,11.1v57.1c0,6.1,5,11.1,11.1,11.1h39.6
		C262.5,345.6,257.5,340.7,257.5,334.6z"/>
	<path class="st13" d="M241.1,140.4h-74.9c-4.5,0-8.1-3.6-8.1-8.1c0-4.5,3.6-8.2,8.1-8.2h74.9c4.5,0,8.1,3.6,8.1,8.2
		C249.3,136.8,245.6,140.4,241.1,140.4z"/>
	<path class="st14" d="M297.1,320.1v15.6c0,6.1-5,11.1-11.1,11.1H229c-6.1,0-11.1-5-11.1-11.1v-15.6H297.1z"/>
	<path class="st11" d="M257.5,335.7v-15.6h-39.6v15.6c0,6.1,5,11.1,11.1,11.1h39.6C262.4,346.7,257.5,341.8,257.5,335.7z"/>
	<path class="st15" d="M189.4,320.1v15.6c0,6.1-5,11.1-11.1,11.1h-57.1c-6.1,0-11.1-5-11.1-11.1v-15.6H189.4z"/>
	<path class="st9" d="M149.8,335.7v-15.6h-39.6v15.6c0,6.1,5,11.1,11.1,11.1h39.6C154.8,346.7,149.8,341.8,149.8,335.7z"/>
	<path class="st16" d="M110.2,427v15.6c0,6.1,5,11.1,11.1,11.1h57.1c6.1,0,11.1-5,11.1-11.1V427H110.2z"/>
	<path class="st7" d="M149.8,442.6V427h-39.6v15.6c0,6.1,5,11.1,11.1,11.1h39.6C154.8,453.7,149.8,448.7,149.8,442.6z"/>
	<path class="st17" d="M217.9,427v15.6c0,6.1,5,11.1,11.1,11.1H286c6.1,0,11.1-5,11.1-11.1V427H217.9z"/>
	<path class="st18" d="M257.5,442.6V427h-39.6v15.6c0,6.1,5,11.1,11.1,11.1h39.6C262.4,453.7,257.5,448.7,257.5,442.6z"/>
	<path class="st4" d="M284.8,238.2H154.7c-8.1,0-14.7-6.6-14.7-14.7c0-8.1,6.6-14.7,14.7-14.7h130.1c8.1,0,14.7,6.6,14.7,14.7
		C299.5,231.6,292.9,238.2,284.8,238.2z"/>
	<path class="st19" d="M202.5,223.5c0-8.1,6.6-14.7,14.7-14.7h-62.5c-8.1,0-14.7,6.6-14.7,14.7c0,8.1,6.6,14.7,14.7,14.7h62.5
		C209.1,238.2,202.5,231.6,202.5,223.5z"/>
	<path class="st0" d="M154.7,238.2h-32.1c-8.1,0-14.7-6.6-14.7-14.7c0-8.1,6.6-14.7,14.7-14.7h32.1c8.1,0,14.7,6.6,14.7,14.7
		C169.3,231.6,162.8,238.2,154.7,238.2z"/>
	<path class="st5" d="M139.8,223.5c0-8.1,6.6-14.7,14.7-14.7h-31.9c-8.1,0-14.7,6.6-14.7,14.7c0,8.1,6.6,14.7,14.7,14.7h31.9
		C146.3,238.2,139.8,231.6,139.8,223.5z"/>
</g>
<g>
	
		<image style="overflow:visible;opacity:0.75;" width="290" height="147" xlink:href="7F5554A6.html"  transform="matrix(1 0 0 1 234 192)">
	</image>
	<g>
		<path class="st20" d="M473.3,316.3H271c-15.6,0-28.3-12.7-28.3-28.3v-59.4c0-15.6,12.7-28.3,28.3-28.3h202.3
			c15.6,0,28.3,12.7,28.3,28.3V288C501.6,303.6,488.9,316.3,473.3,316.3z"/>
	</g>
</g>
<g>
	<g>
		<g>
			<g>
				<g>
					<g>
						<path class="st21" d="M443.2,298.1c-4.3,0.1-8.1-2.7-9.5-6.8c0-0.1-0.1-0.2-0.1-0.3l-10.4-34.4l-5.6,34.2
							c-0.7,4.2-4.2,7.2-8.2,7.2c-0.5,0-1,0-1.5-0.1c-4.6-0.8-7.7-5.2-7-9.9l10.5-64c0,0,0-0.1,0-0.1c0.8-4.5,4.5-7.9,9-8.3
							c0.2,0,0.4,0,0.7,0c4.2-0.1,8.1,2.7,9.5,6.8c0,0.1,0.1,0.2,0.1,0.3l12,39.7l10.6-39.9c0-0.1,0.1-0.2,0.1-0.3
							c1.3-4.2,5.1-7.1,9.3-7.1c0.2,0,0.4,0,0.6,0c4.5,0.2,8.3,3.5,9.3,8c0,0,0,0.1,0,0.1l12.8,63.7c0.9,4.7-2,9.2-6.6,10.2
							c-0.5,0.1-1.1,0.2-1.6,0.2c-4,0.1-7.6-2.8-8.4-6.9l-6.9-34.2l-9.2,34.7c0,0.1-0.1,0.2-0.1,0.3
							C451.3,295.2,447.6,298.1,443.2,298.1C443.3,298.1,443.2,298.1,443.2,298.1L443.2,298.1z"/>
					</g>
					<g>
						<path class="st22" d="M485.3,286.8l-12.8-63.7l0-0.1c-1-4.5-4.8-7.8-9.3-8c-0.2,0-0.4,0-0.6,0c-3.9,0.1-7.4,2.5-9,6.1
							c0.3,0.7,0.5,1.3,0.7,2.1l0,0.1l7,34.6l0.5-1.9l6.9,34.2c0.8,4.1,4.4,7,8.4,6.9c0.5,0,1.1-0.1,1.6-0.2
							C483.3,296.1,486.2,291.5,485.3,286.8L485.3,286.8z"/>
					</g>
					<g>
						<path class="st21" d="M301.1,300c-22.4,0.3-40.8-18-41.1-40.9s17.7-41.7,40-41.9c8.1-0.1,16,2.2,22.8,6.8c9,6,0,20.6-9.3,14.4
							c-3.9-2.6-8.5-4-13.3-3.9c-13.1,0.2-23.5,11.1-23.4,24.5s10.9,24,24,23.8c5.3-0.1,10.3-2.2,13.7-6.4
							c6.9-8.6,19.9,2.4,13.1,10.9C321.2,295.4,311.5,299.9,301.1,300L301.1,300z"/>
					</g>
					<g>
						<path class="st22" d="M304.7,224.2c4.2,2.8,4.5,7.6,2.5,11.2c2.2,0.7,4.3,1.7,6.3,3c9.3,6.2,18.2-8.4,9.3-14.4
							c-6.8-4.5-14.7-6.9-22.8-6.8c-3.1,0-6.1,0.4-9,1.2C295.9,219.4,300.5,221.4,304.7,224.2L304.7,224.2z"/>
						<path class="st22" d="M314.6,276.4c-1,1.3-2.2,2.4-3.6,3.3c0.9,2.4,0.6,5.3-1.5,7.9c-4.6,5.7-10.8,9.6-17.7,11.5
							c3,0.7,6.1,1,9.3,1c10.3-0.1,20.1-4.6,26.6-12.7C334.5,278.8,321.5,267.8,314.6,276.4z"/>
					</g>
					<path class="st21" d="M372.8,266.3c10.4-3.5,17.8-13.3,17.7-24.6c-0.2-14.2-12-25.5-26.4-25.3l-17.1,0.2c0,0,0,0,0,0s0,0,0,0
						c-4.7,0.1-8.4,4-8.3,8.7l0.9,65.6c0.1,4.8,3.9,8.6,8.6,8.5c4.7-0.1,8.4-4,8.3-8.7l-0.2-17.4l20.2,22.9c1.7,1.9,4,2.9,6.4,2.8
						c2,0,4-0.8,5.6-2.2c3.5-3.2,3.7-8.7,0.6-12.2L372.8,266.3z M364.2,233.6c5-0.1,9.2,3.7,9.3,8.3s-4.1,8.5-9.1,8.5
						c-2,0-5.3,0.1-8.5,0.1c-0.1-3.2-0.1-6.5-0.1-8.4c0-1.7-0.1-5.1-0.1-8.4L364.2,233.6L364.2,233.6z"/>
					<g>
						<path class="st22" d="M388.9,284.5l-16.1-18.2c10.4-3.5,17.8-13.3,17.7-24.6c-0.2-14.2-12-25.5-26.4-25.3l-17.1,0.2
							c0,0,0,0,0,0s0,0,0,0c-0.6,0-1.3,0.1-1.9,0.2c10,1.1,18.4,7.9,21.6,17.1c3.9,0.9,6.8,4.2,6.9,8c0,3.8-2.8,7.2-6.7,8.2
							c-1.7,5.2-5.1,9.8-9.5,12.9c-3.3,2.4-3.8,7.2-1.1,10.2l10.2,11.6c0.3,0.4,0.6,0.8,0.9,1.2l8.9,10.1c1.7,1.9,4,2.9,6.4,2.8
							c2,0,4-0.8,5.6-2.2C391.8,293.5,392,288.1,388.9,284.5z"/>
					</g>
				</g>
			</g>
		</g>
	</g>
</g>
</svg>
