<?xml version="1.0" encoding="utf-8"?>
<!-- Generator: Adobe Illustrator 23.0.5, SVG Export Plug-In . SVG Version: 6.00 Build 0)  -->
<svg version="1.1" id="Layer_1" xmlns:svgjs="http://svgjs.com/svgjs"
	 xmlns="http://www.w3.org/2000/svg" xmlns:xlink="http://www.w3.org/1999/xlink" x="0px" y="0px" viewBox="0 0 512 512"
	 style="enable-background:new 0 0 512 512;" xml:space="preserve">
<style type="text/css">
	.st0{fill:#F0CA9E;}
	.st1{fill:#E5C094;}
	.st2{fill:#F6E4CC;}
	.st3{fill:#F2D9B7;}
	.st4{fill:#F0CD00;}
	.st5{fill:#FFDE50;}
	.st6{fill:#FFEA94;}
	.st7{fill:#FAA300;}
	.st8{fill:#FFBD00;}
	.st9{fill:#F68E00;}
</style>
<g>
	<path class="st0" d="M351.8,318.6c-8.9-6.7-21.5-5.3-28.8,3.1L275.4,377c-9.1,10.6-22.4,16.7-36.4,16.6l15.7,54.4
		c21.3,0,41.1-10.6,53-28.2l48.9-72.3C363,338.1,360.8,325.4,351.8,318.6L351.8,318.6z"/>
	<path class="st1" d="M388.6,318.6c-8.9-6.7-21.5-5.3-28.8,3.1L312.2,377c-9.1,10.6-22.4,16.7-36.4,16.6l15.7,54.4
		c21.3,0,41.1-10.6,53-28.2l48.9-72.3C399.7,338.1,397.6,325.4,388.6,318.6L388.6,318.6z"/>
	<path class="st2" d="M239,393.6h79.1c14,0,27.2-6.1,36.3-16.6l48-55.6c7.1-8.2,19.4-9.6,28.1-3c9.1,6.9,11,19.8,4.1,29c0,0,0,0,0,0
		l-56.4,75.1C366.1,438.5,347.1,448,327,448H201.3l-62.4,56L71,436.1l69.4-69.4c13.5-13.5,31.8-21.1,50.9-21.1H287
		c13.3,0,24,10.7,24,24s-10.7,24-24,24L239,393.6z"/>
	<path class="st3" d="M430.4,318.3c-8.7-6.5-21-5.2-28.1,3l-48,55.6c-9.1,10.6-22.4,16.6-36.3,16.6H287c13.3,0,24-10.7,24-24
		c0-0.7-0.1-1.3-0.2-1.9c-4.3-3.9-10-6.1-15.8-6.1h-95.7c-19.1,0-37.4,7.6-50.9,21.1L83,448.1l55.9,55.9l62.4-56H327
		c20.1,0,39.1-9.5,51.2-25.6l56.4-75.1C441.4,338.2,439.6,325.2,430.4,318.3L430.4,318.3z"/>
	<path class="st0" d="M318.1,393.6H239c-4.4,0-8,3.6-8,8s3.6,8,8,8h48c12.5,0,24.3-6,31.8-16C318.6,393.6,318.3,393.6,318.1,393.6z"
		/>
	<path d="M435.4,311.9c-11.8-8.8-28.3-7.3-38.3,3.6c-1.1-1.2-2.3-2.3-3.6-3.3c-10.8-8-25.6-7.7-36,0.8c-0.3-0.2-0.5-0.5-0.8-0.8
		c-12.3-9.2-29.6-7.3-39.6,4.3l-19.9,23.1c-3.7-1.3-7.5-2-11.4-2h-94.2c-21.2,0-41.6,8.4-56.6,23.4l-69.4,69.4
		c-3.1,3.1-3.1,8.2,0,11.3l67.9,67.9c3,3,7.8,3.1,11,0.3l60.1-54h122.7c22.6-0.1,44-10.7,57.6-28.8l56.4-75.1
		C450.6,339.4,448.1,321.4,435.4,311.9L435.4,311.9z M366,327c4.5-5.2,12.4-6.1,17.9-1.9c1,0.8,1.9,1.7,2.6,2.7l-38,44
		c-7.6,8.8-18.7,13.9-30.3,13.9H315c1.2-1.1,2.3-2.2,3.4-3.4L366,327z M329.2,327c4.4-5.1,12-6,17.6-2.2L317.2,359
		c-1.5-3.9-3.7-7.5-6.6-10.6L329.2,327z M428.3,342.5l-56.4,75.1c-10.6,14.1-27.2,22.4-44.8,22.4H201.4c-2,0-3.9,0.7-5.3,2
		L139.3,493l-56.9-56.9l63.8-63.8c12-12,28.3-18.8,45.3-18.8h95.7c8.8,0,16,7.2,16,16c0,0.9-0.1,1.8-0.2,2.7
		c-1.6,7.9-8.7,13.5-16.7,13.3H239c-4.4,0-8,3.6-8,8s3.6,8,8,8h79.2c16.3,0,31.8-7.1,42.4-19.4l48-55.6c4.6-5.3,12.6-5.9,17.9-1.4
		C431.6,329.6,432.4,337.2,428.3,342.5L428.3,342.5z"/>
</g>
<g>
	<g>
		<g>
			<path class="st4" d="M405.2,158c0,81.9-66.4,148.2-148.2,148.2c-43.2,0-82-18.4-109.1-47.9c-7.1-7.7-13.4-16.2-18.8-25.3
				c-12.9-22-20.4-47.7-20.4-75C108.8,76.1,175.1,9.8,257,9.8c27.4,0,53,7.4,75,20.4c9.1,5.4,17.6,11.7,25.3,18.8
				C386.8,76,405.2,114.8,405.2,158z"/>
			<path class="st5" d="M405.2,158c0,80-63.4,145.2-142.7,148.1C183.2,303.2,119.8,238,119.8,158S183.2,12.8,262.5,9.9
				C341.8,12.8,405.2,78,405.2,158z"/>
			<path class="st6" d="M357.4,48.9L147.9,258.4c-7.1-7.7-13.4-16.2-18.8-25.3L332,30.1C341.1,35.5,349.6,41.8,357.4,48.9z"/>
			<path class="st6" d="M395,103.8L202.8,296c-13.6-5.3-26.2-12.7-37.5-21.6L373.5,66.3C382.4,77.6,389.7,90.2,395,103.8z"/>
			<path class="st7" d="M372.2,158c0,63.6-51.6,115.2-115.2,115.2c-22.2,0-42.8-6.3-60.4-17.1c-7.7-4.7-14.7-10.3-21-16.6
				c-4.7-4.6-8.9-9.7-12.7-15.1c-5.2-7.4-9.6-15.5-13-24.1c-5-12.7-7.8-26.5-8-40.9c0-0.5,0-0.9,0-1.4
				c0-63.6,51.6-115.2,115.2-115.2c0.5,0,0.9,0,1.4,0c14.4,0.2,28.2,3,40.9,8c8.6,3.4,16.6,7.8,24.1,13c5.4,3.8,10.4,8.1,15.1,12.7
				c6.3,6.3,11.9,13.4,16.6,21C365.9,115.2,372.2,135.8,372.2,158z"/>
			<path class="st8" d="M338.4,76.5L175.5,239.4c-4.7-4.6-8.9-9.7-12.7-15.1c-5.2-7.4-9.6-15.5-13-24.1c-5-12.7-7.8-26.5-8-40.9
				c0-0.5,0-0.9,0-1.4c0-63.6,51.6-115.2,115.2-115.2c0.5,0,0.9,0,1.4,0c14.4,0.2,28.2,3,40.9,8c8.6,3.4,16.6,7.8,24.1,13
				C328.7,67.6,333.8,71.9,338.4,76.5z"/>
			<path class="st9" d="M372.2,158c0,63.6-51.6,115.2-115.2,115.2c-2.2,0-4.4-0.1-6.5-0.2c60.6-3.4,108.7-53.6,108.7-115
				S311.1,46.4,250.5,43c2.2-0.1,4.3-0.2,6.5-0.2C320.6,42.8,372.2,94.4,372.2,158z"/>
		</g>
		<path class="st9" d="M253.2,149.1v-46.6c7.3,4,12.2,11.8,12.2,20.6c0,6.3,5.1,11.3,11.3,11.3s11.3-5.1,11.3-11.3
			c0-21.6-14.9-39.7-34.9-44.8v-9.2c0-6.3-5.1-11.3-11.3-11.3s-11.3,5.1-11.3,11.3v9.2c-20,5.1-34.9,23.2-34.9,44.8
			c0,12.9,3.8,22.9,11.6,30.7c5.7,5.7,13.2,9.9,23.3,12.9v46.7c-7.3-4-12.2-11.8-12.2-20.6c0-6.3-5.1-11.3-11.3-11.3
			s-11.3,5.1-11.3,11.3c0,21.6,14.9,39.7,34.9,44.8v9.2c0,6.3,5.1,11.3,11.3,11.3s11.3-5.1,11.3-11.3v-9.2
			c20-5.1,34.9-23.2,34.9-44.8c0-12.7-3.9-23.1-11.7-30.9C270.7,156.4,263.1,152.1,253.2,149.1z M223.3,137.8
			c-2.3-2.3-4.9-6-4.9-14.7c0-8.9,4.9-16.6,12.2-20.6v40.1C227.5,141.2,225.1,139.6,223.3,137.8z M253.2,213.5v-40.2
			c9.9,4.6,12.2,11.2,12.2,19.6C265.4,201.8,260.5,209.5,253.2,213.5z"/>
		<path class="st6" d="M268.3,149.1v-46.6c7.3,4,12.2,11.8,12.2,20.6c0,6.3,5.1,11.3,11.3,11.3c6.3,0,11.3-5.1,11.3-11.3
			c0-21.6-14.9-39.7-34.9-44.8v-9.2c0-6.3-5.1-11.3-11.3-11.3c-6.3,0-11.3,5.1-11.3,11.3v9.2c-20,5.1-34.9,23.2-34.9,44.8
			c0,12.9,3.8,22.9,11.6,30.7c5.7,5.7,13.2,9.9,23.3,12.9v46.7c-7.3-4-12.2-11.8-12.2-20.6c0-6.3-5.1-11.3-11.3-11.3
			c-6.3,0-11.3,5.1-11.3,11.3c0,21.6,14.9,39.7,34.9,44.8v9.2c0,6.3,5.1,11.3,11.3,11.3c6.3,0,11.3-5.1,11.3-11.3v-9.2
			c20-5.1,34.9-23.2,34.9-44.8c0-12.7-3.9-23.1-11.7-30.9C285.8,156.4,278.2,152.1,268.3,149.1z M238.4,137.8
			c-2.3-2.3-4.9-6-4.9-14.7c0-8.9,4.9-16.6,12.2-20.6v40.1C242.6,141.2,240.2,139.6,238.4,137.8z M268.3,213.5v-40.2
			c9.9,4.6,12.2,11.2,12.2,19.6C280.5,201.8,275.6,209.5,268.3,213.5z"/>
	</g>
</g>
</svg>
