<?xml version="1.0" encoding="utf-8"?>
<!-- Generator: Adobe Illustrator 23.0.5, SVG Export Plug-In . SVG Version: 6.00 Build 0)  -->
<svg version="1.1" id="Layer_1" xmlns:svgjs="http://svgjs.com/svgjs"
	 xmlns="http://www.w3.org/2000/svg" xmlns:xlink="http://www.w3.org/1999/xlink" x="0px" y="0px" viewBox="0 0 512 512"
	 style="enable-background:new 0 0 512 512;" xml:space="preserve">
<style type="text/css">
	.st0{fill:#A17834;}
	.st1{fill:#F6BC1B;}
	.st2{fill:#F79726;}
	.st3{fill:#8A6639;}
	.st4{fill:#B2B1B4;}
	.st5{fill:#1E1E1B;}
	.st6{fill:#808080;}
	.st7{fill:#F79219;}
	.st8{fill:#EF7816;}
	.st9{fill:#939598;}
	.st10{fill:#808285;}
	.st11{fill:#58595B;}
	.st12{fill:#414042;}
</style>
<g>
	<path class="st0" d="M478.4,198.3v16.5l-41.2,164.7V396H74.8v-16.5L33.6,214.8v-16.5H478.4z"/>
	<path class="st1" d="M453.7,107.7h-41.2l-32.9-41.2h-32.9l-8.2-49.4h-90.6l-32.9,32.9h-65.9L131,107.7h-23.3l-65.9,32.9l-8.2,41.2
		v16.5h444.8v-16.5L453.7,107.7z"/>
	<path class="st2" d="M387.8,140.7h16.5v16.5h-16.5V140.7z"/>
	<path class="st2" d="M330.1,91.3h16.5v16.5h-16.5V91.3z"/>
	<path class="st2" d="M223.1,74.8h16.5v16.5h-16.5V74.8z"/>
	<path class="st2" d="M280.7,124.2h16.5v16.5h-16.5V124.2z"/>
	<path class="st2" d="M198.3,132.5h16.5v16.5h-16.5V132.5z"/>
	<path class="st2" d="M107.7,140.7h16.5v16.5h-16.5V140.7z"/>
	<g>
		<path class="st3" d="M124.2,272.5H48L43.9,256h80.3V272.5z"/>
		<path class="st3" d="M99.5,305.4H56.3l-4.1-16.5h47.4V305.4z"/>
		<path class="st3" d="M107.7,338.4H64.5l-4.1-16.5h47.4V338.4z"/>
		<path class="st3" d="M387.8,272.5H464l4.1-16.5h-80.3V272.5z"/>
		<path class="st3" d="M412.5,305.4h43.2l4.1-16.5h-47.4V305.4z"/>
		<path class="st3" d="M404.3,338.4h43.2l4.1-16.5h-47.4V338.4z"/>
		<path class="st3" d="M478.4,198.3v16.5l-4.1,16.5H37.7l-4.1-16.5v-16.5H478.4z"/>
	</g>
	<path class="st0" d="M17.1,181.9h477.7v32.9H17.1V181.9z"/>
	<path class="st1" d="M297.2,280.7c0-10.5-6.6-19.8-16.5-23.3v-9.7h-16.5v8.2h-16.5v-8.2h-16.5v8.2h-16.5v16.5h16.5v16.5h-16.5v16.5
		h16.5v16.5h-16.5v16.5h16.5v8.2h16.5v-8.2h16.5v8.2h16.5v-9.7c12.9-4.5,19.6-18.6,15.1-31.5c-1.1-3.1-2.7-5.9-4.9-8.3
		C294.9,292.7,297.2,286.8,297.2,280.7z M247.8,272.5h24.7c4.5,0,8.2,3.7,8.2,8.2s-3.7,8.2-8.2,8.2h-24.7V272.5z M272.5,321.9h-24.7
		v-16.5h24.7c4.5,0,8.2,3.7,8.2,8.2S277,321.9,272.5,321.9z"/>
	<path class="st4" d="M83,453.7L17.1,429v-49.4h477.7V429L429,453.7H83z"/>
	<path class="st5" d="M8.9,354.8h16.5v107.1H8.9V354.8z"/>
	<path class="st5" d="M486.6,354.8h16.5v107.1h-16.5V354.8z"/>
	<circle class="st5" cx="124.2" cy="453.7" r="41.2"/>
	<circle class="st5" cx="387.8" cy="453.7" r="41.2"/>
	<path class="st6" d="M116,445.4h16.5v16.5H116V445.4z"/>
	<path class="st6" d="M379.5,445.4H396v16.5h-16.5V445.4z"/>
</g>
<g>
	<g>
		<g>
			<g>
				<path class="st7" d="M475.3,301.2L340.6,168.9c-2.3-2.3-2.4-6.1-0.1-8.4l12.7-12.9c2.3-2.3,6.1-2.4,8.4-0.1l134.6,132.3
					c2.3,2.3,2.4,6.1,0.1,8.4l-12.7,12.9C481.4,303.4,477.6,303.5,475.3,301.2L475.3,301.2z"/>
			</g>
			<g>
				<path class="st8" d="M361.7,147.5c-2.3-2.3-6.1-2.3-8.4,0.1l134.6,132.3c2.3,2.3,2.4,6.1,0.1,8.4l-12.7,12.9
					c2.3,2.3,6.1,2.3,8.4-0.1l12.7-12.9c2.3-2.3,2.3-6.1-0.1-8.4L361.7,147.5z"/>
			</g>
			<g>
				<path class="st9" d="M318.3,260.6c4,3.9,24.5-31.6,52.9-61c23.8-24.6,50.7-47.3,61-55.8c2.3-1.9,2.2-5.5-0.1-7.8l-15.1-14.8
					c-2.1-2-5.2-2.3-7.2-0.6c-9.7,8.5-37.6,34-58.1,64.3C329,218.4,314.7,257.1,318.3,260.6L318.3,260.6z"/>
			</g>
			<g>
				<path class="st10" d="M416.9,121.2c-2.1-2-5.2-2.3-7.2-0.6c-0.3,0.3-0.6,0.6-1,0.9l14.9,14.6c2.3,2.3,2.4,5.9,0.1,7.8
					c-10.2,8.4-37.2,31.1-61,55.8c-19.4,20.1-35.2,43.2-44.5,54.4c-0.7,3.5-0.8,5.8,0,6.5c4,3.9,24.5-31.6,52.9-61
					c23.8-24.6,50.7-47.3,61-55.8c2.3-1.9,2.2-5.5-0.1-7.8L416.9,121.2z"/>
			</g>
			<g>
				<path class="st11" d="M397.9,177.4l-23.6-23.2c-0.9-0.9-2.4-0.9-3.4,0l-23.4,23.8c-0.9,0.9-0.9,2.4,0,3.4l23.6,23.2
					c0.9,0.9,2.4,0.9,3.4,0l23.4-23.8C398.9,179.8,398.8,178.3,397.9,177.4L397.9,177.4z"/>
			</g>
			<g>
				<path class="st12" d="M374.3,154.2c-0.9-0.9-2.4-0.9-3.4,0l-2.5,2.5l21,20.7c0.9,0.9,0.9,2.4,0,3.4l-20.9,21.3l2.5,2.5
					c0.9,0.9,2.4,0.9,3.4,0l23.4-23.8c0.9-0.9,0.9-2.4,0-3.4L374.3,154.2z"/>
			</g>
		</g>
	</g>
</g>
</svg>
