<svg xmlns="http://www.w3.org/2000/svg" xml:space="preserve" style="enable-background:new 0 0 300 230.6" viewBox="0 0 300 230.6"><style>.st0{fill:#ebebeb}.st1{fill:#fafafa}.st2{fill:#f0f0f0}.st3{fill:#e0e0e0}.st6{fill:#407bff}.st9{opacity:.3;fill:#fff;enable-background:new}.st10{fill:#263238}.st11{opacity:.5;fill:#fff;enable-background:new}.st12{opacity:.3;fill:#fff}.st13{opacity:.2}.st15{fill:#fff}.st16{opacity:.3}.st17{opacity:.2;fill:#fff}.st18{fill:#b55b52}.st19{opacity:0}.st20{opacity:.8;fill:#fff}.st21{opacity:.4}.st22,.st24{opacity:.5}.st24{fill:#fff}.st25{fill:#a02724}.st26{opacity:.2;enable-background:new}.st27,.st28{opacity:.4;fill:#fff}.st28{opacity:.6}.st30{fill:#e4897b}</style><g id="Background_Complete"><path d="M.1 200.6h299.7v.1H.1zM250 210.2h19.9v.1H250zM193.5 211.9h5.2v.1h-5.2zM237.9 204.7h11.5v.1h-11.5zM31.6 205.7h25.9v.1H31.6zM62.8 205.7h3.8v.1h-3.8zM78.9 208.2h56.2v.1H78.9zM142.2 173.8H26.5c-1.9 0-3.4-1.5-3.4-3.4V7.7c0-1.9 1.5-3.4 3.4-3.4h115.8c1.9 0 3.4 1.5 3.4 3.4v162.7c-.1 1.9-1.6 3.4-3.5 3.4zM26.5 4.4c-1.8 0-3.3 1.5-3.3 3.3v162.7c0 1.8 1.5 3.3 3.3 3.3h115.8c1.8 0 3.3-1.5 3.3-3.3V7.7c0-1.8-1.5-3.3-3.3-3.3H26.5zM271.9 173.8H156.1c-1.9 0-3.4-1.5-3.4-3.4V7.7c0-1.9 1.5-3.4 3.4-3.4h115.8c1.9 0 3.4 1.5 3.4 3.4v162.7c0 1.9-1.5 3.4-3.4 3.4zM156.1 4.4c-1.8 0-3.3 1.5-3.3 3.3v162.7c0 1.8 1.5 3.3 3.3 3.3h115.8c1.8 0 3.3-1.5 3.3-3.3V7.7c0-1.8-1.5-3.3-3.3-3.3H156.1z" class="st0"/><path d="M147.5 43.7h101.6v113.8H147.5z" class="st0"/><path d="M147.5 45.5h99.6v110h-99.6z" class="st1"/><path d="M243.4 103.9v-7.7h-2.2V91h-2.9v-7.7h-.8V91h-2.9v5.2h-2.2v7.7h-4.1v2.2h-1.8v8.5h-.4v-12.1H225v7.7h-1.1V91.8h-.7v7.7h-3v-2.6h-1.1V86.3h-2.2V75.6h-.7v1.5h-15.1v-4.5h-2.6V55.7h-1.1v16.9h-3.6v4.5h-1.5v22h-7.7v-6.6h2.5v-1.1h-2.5v-1.8h-7.4v-17h-1.8v-2.5h-8.9v2.5h-1.1v23.6h-4v10.7h-2.2v-8.5h-1.9v-2.2h-4v-7.7h-2.2v-5.2h-2.6v-7.7h-1v79.9h99.6v-51.6z" class="st2"/><path d="M206.7 78.2h1v1h-1zM206.7 80h1v1h-1zM206.7 87h1v1h-1zM206.7 88.7h1v1h-1zM206.7 90.5h1v1h-1zM206.7 95.7h1v1h-1zM206.7 97.4h1v1h-1zM205.1 85.2h1v1h-1zM205.1 87h1v1h-1zM205.1 88.7h1v1h-1zM205.1 90.5h1v1h-1zM205.1 92.2h1v1h-1zM205.1 95.7h1v1h-1zM205.1 97.4h1v1h-1zM203.4 78.2h1v1h-1zM203.4 80h1v1h-1zM203.4 81.7h1v1h-1zM203.4 83.5h1v1h-1zM203.4 85.2h1v1h-1zM203.4 87h1v1h-1zM203.4 88.7h1v1h-1zM203.4 90.5h1v1h-1zM203.4 92.2h1v1h-1zM203.4 93.9h1v1h-1zM203.4 97.4h1v1h-1zM201.8 78.2h1v1h-1zM201.8 80h1v1h-1zM201.8 81.7h1v1h-1zM201.8 83.5h1v1h-1zM201.8 85.2h1v1h-1zM201.8 87h1v1h-1zM201.8 88.7h1v1h-1zM201.8 104.4h1v1h-1zM200.1 78.2h1v1h-1zM200.1 80h1v1h-1zM200.1 81.7h1v1h-1zM200.1 83.5h1v1h-1zM200.1 85.2h1v1h-1zM200.1 87h1v1h-1zM200.1 88.7h1v1h-1zM200.1 90.5h1v1h-1zM200.1 100.9h1v1h-1zM200.1 102.7h1v1h-1zM200.1 104.4h1v1h-1zM200.1 106.2h1v1h-1zM200.1 113.2h1v1h-1zM198.5 78.2h1v1h-1zM198.5 80h1v1h-1zM198.5 81.7h1v1h-1zM198.5 83.5h1v1h-1zM198.5 85.2h1v1h-1zM198.5 87h1v1h-1zM198.5 88.7h1v1h-1zM198.5 90.5h1v1h-1zM198.5 92.2h1v1h-1zM198.5 93.9h1v1h-1zM198.5 99.2h1v1h-1zM198.5 100.9h1v1h-1zM198.5 102.7h1v1h-1zM198.5 104.4h1v1h-1zM198.5 106.2h1v1h-1zM198.5 113.2h1v1h-1zM196.8 78.2h1v1h-1zM196.8 80h1v1h-1zM196.8 81.7h1v1h-1zM196.8 83.5h1v1h-1zM196.8 85.2h1v1h-1zM196.8 87h1v1h-1zM196.8 88.7h1v1h-1zM196.8 90.5h1v1h-1zM196.8 92.2h1v1h-1zM196.8 93.9h1v1h-1zM196.8 95.7h1v1h-1zM196.8 97.4h1v1h-1zM196.8 99.2h1v1h-1zM196.8 100.9h1v1h-1zM196.8 102.7h1v1h-1zM196.8 104.4h1v1h-1zM196.8 106.2h1v1h-1zM196.8 107.9h1v1h-1zM195.2 78.2h1v1h-1zM195.2 80h1v1h-1zM195.2 81.7h1v1h-1zM195.2 83.5h1v1h-1zM195.2 85.2h1v1h-1zM195.2 87h1v1h-1zM195.2 88.7h1v1h-1zM195.2 90.5h1v1h-1zM195.2 92.2h1v1h-1zM195.2 93.9h1v1h-1zM195.2 99.2h1v1h-1zM195.2 100.9h1v1h-1zM195.2 102.7h1v1h-1zM195.2 104.4h1v1h-1zM193.5 78.2h1v1h-1zM193.5 80h1v1h-1zM193.5 81.7h1v1h-1zM193.5 83.5h1v1h-1zM193.5 85.2h1v1h-1zM193.5 87h1v1h-1zM193.5 88.7h1v1h-1zM193.5 90.5h1v1h-1zM193.5 92.2h1v1h-1zM193.5 93.9h1v1h-1zM193.5 99.2h1v1h-1zM193.5 100.9h1v1h-1zM193.5 102.7h1v1h-1zM174.9 73.7h1v1h-1zM174.9 75.4h1v1h-1zM174.9 77.2h1v1h-1zM174.9 78.9h1v1h-1zM174.9 80.7h1v1h-1zM174.9 82.4h1v1h-1zM174.9 84.2h1v1h-1zM174.9 85.9h1v1h-1zM174.9 91.2h1v1h-1zM174.9 92.9h1v1h-1zM173.2 73.7h1v1h-1zM173.2 75.4h1v1h-1zM173.2 77.2h1v1h-1zM173.2 78.9h1v1h-1zM173.2 80.7h1v1h-1zM173.2 82.4h1v1h-1zM173.2 84.2h1v1h-1zM173.2 85.9h1v1h-1zM173.2 92.9h1v1h-1zM171.5 73.7h1v1h-1zM171.5 75.4h1v1h-1zM171.5 77.2h1v1h-1zM171.5 78.9h1v1h-1zM171.5 80.7h1v1h-1zM171.5 82.4h1v1h-1zM171.5 84.2h1v1h-1zM171.5 85.9h1v1h-1zM169.9 73.7h1v1h-1zM169.9 75.4h1v1h-1zM169.9 77.2h1v1h-1zM169.9 78.9h1v1h-1zM169.9 80.7h1v1h-1zM169.9 82.4h1v1h-1zM169.9 85.9h1v1h-1zM169.9 87.7h1v1h-1zM169.9 92.9h1v1h-1zM169.9 94.7h1v1h-1zM169.9 96.4h1v1h-1zM169.9 98.2h1v1h-1zM169.9 99.9h1v1h-1zM169.9 101.6h1v1h-1zM169.9 103.4h1v1h-1zM168.2 73.7h1v1h-1zM168.2 75.4h1v1h-1zM168.2 77.2h1v1h-1zM168.2 78.9h1v1h-1zM168.2 80.7h1v1h-1zM168.2 82.4h1v1h-1zM168.2 87.7h1v1h-1zM168.2 89.4h1v1h-1zM168.2 91.2h1v1h-1zM168.2 92.9h1v1h-1zM168.2 94.7h1v1h-1zM168.2 96.4h1v1h-1zM168.2 98.2h1v1h-1zM168.2 99.9h1v1h-1zM168.2 101.6h1v1h-1zM168.2 103.4h1v1h-1zM168.2 105.1h1v1h-1zM168.2 108.6h1v1h-1zM166.6 73.7h1v1h-1zM166.6 75.4h1v1h-1zM166.6 77.2h1v1h-1zM166.6 78.9h1v1h-1zM166.6 80.7h1v1h-1zM166.6 82.4h1v1h-1zM166.6 87.7h1v1h-1zM166.6 89.4h1v1h-1zM166.6 91.2h1v1h-1zM166.6 92.9h1v1h-1zM166.6 98.2h1v1h-1zM166.6 99.9h1v1h-1zM166.6 101.6h1v1h-1zM166.6 103.4h1v1h-1zM166.6 105.1h1v1h-1zM166.6 108.6h1v1h-1zM166.6 110.4h1v1h-1zM151.5 89.9h1v1h-1zM151.5 91.7h1v1h-1zM151.5 93.4h1v1h-1zM151.5 95.2h1v1h-1zM151.5 96.9h1v1h-1zM151.5 98.7h1v1h-1zM151.5 100.4h1v1h-1zM151.5 105.7h1v1h-1zM151.5 107.4h1v1h-1zM151.5 109.2h1v1h-1zM149.9 89.9h1v1h-1zM149.9 91.7h1v1h-1zM149.9 93.4h1v1h-1zM149.9 95.2h1v1h-1zM149.9 96.9h1v1h-1zM149.9 98.7h1v1h-1zM149.9 100.4h1v1h-1zM147.8 89.9h1.5v1h-1.5zM147.8 91.7h1.5v1h-1.5zM147.8 93.4h1.5v1h-1.5zM147.8 95.2h1.5v1h-1.5zM147.8 96.9h1.5v1h-1.5zM147.8 98.7h1.5v1h-1.5zM147.8 100.4h1.5v1h-1.5zM239.3 92.2h1v1h-1zM239.3 93.9h1v1h-1zM239.3 95.7h1v1h-1zM239.3 97.4h1v1h-1zM239.3 99.2h1v1h-1zM239.3 100.9h1v1h-1zM239.3 102.7h1v1h-1zM239.3 104.4h1v1h-1zM239.3 106.2h1v1h-1zM239.3 107.9h1v1h-1zM239.3 109.7h1v1h-1zM239.3 111.4h1v1h-1zM239.3 113.2h1v1h-1zM239.3 114.9h1v1h-1zM239.3 116.7h1v1h-1zM239.3 118.4h1v1h-1zM239.3 120.2h1v1h-1zM239.3 121.9h1v1h-1zM239.3 123.7h1v1h-1zM239.3 125.4h1v1h-1zM237.7 92.2h1v1h-1zM237.7 93.9h1v1h-1zM237.7 95.7h1v1h-1zM237.7 97.4h1v1h-1zM237.7 99.2h1v1h-1zM237.7 100.9h1v1h-1zM237.7 102.7h1v1h-1zM237.7 104.4h1v1h-1zM237.7 106.2h1v1h-1zM237.7 107.9h1v1h-1zM237.7 109.7h1v1h-1zM237.7 111.4h1v1h-1zM237.7 113.2h1v1h-1zM237.7 114.9h1v1h-1zM237.7 116.7h1v1h-1zM237.7 118.4h1v1h-1zM237.7 120.2h1v1h-1zM237.7 121.9h1v1h-1zM236 92.2h1v1h-1zM236 93.9h1v1h-1zM236 95.7h1v1h-1zM236 97.4h1v1h-1zM236 99.2h1v1h-1zM236 100.9h1v1h-1zM236 102.7h1v1h-1zM236 104.4h1v1h-1zM236 106.2h1v1h-1zM236 107.9h1v1h-1zM236 109.7h1v1h-1zM236 111.4h1v1h-1zM236 113.2h1v1h-1zM236 114.9h1v1h-1zM236 116.7h1v1h-1zM236 118.4h1v1h-1zM236 120.2h1v1h-1zM236 121.9h1v1h-1zM245.5 105h1v1h-1zM245.5 106.7h1v1h-1zM245.5 108.5h1v1h-1zM245.5 110.2h1v1h-1zM245.5 112h1v1h-1zM245.5 113.7h1v1h-1zM245.5 115.4h1v1h-1zM245.5 117.2h1v1h-1zM245.5 118.9h1v1h-1zM245.5 120.7h1v1h-1zM245.5 122.4h1v1h-1zM245.5 124.2h1v1h-1zM245.5 125.9h1v1h-1zM243.9 105h1v1h-1zM243.9 106.7h1v1h-1zM243.9 108.5h1v1h-1zM243.9 110.2h1v1h-1zM243.9 112h1v1h-1zM243.9 113.7h1v1h-1zM243.9 115.4h1v1h-1zM243.9 117.2h1v1h-1zM243.9 118.9h1v1h-1zM243.9 120.7h1v1h-1zM243.9 122.4h1v1h-1zM243.9 124.2h1v1h-1zM243.9 125.9h1v1h-1zM242.2 105h1v1h-1zM242.2 106.7h1v1h-1zM242.2 108.5h1v1h-1zM242.2 110.2h1v1h-1zM242.2 112h1v1h-1zM242.2 113.7h1v1h-1zM242.2 115.4h1v1h-1zM242.2 117.2h1v1h-1zM242.2 118.9h1v1h-1zM242.2 120.7h1v1h-1zM242.2 122.4h1v1h-1zM242.2 124.2h1v1h-1zM242.2 125.9h1v1h-1zM242.2 127.7h1v1h-1zM233 105.5h1v1h-1zM233 107.2h1v1h-1zM233 109h1v1h-1zM233 110.7h1v1h-1zM233 112.5h1v1h-1zM233 114.2h1v1h-1zM233 116h1v1h-1zM233 117.7h1v1h-1zM233 119.5h1v1h-1zM233 121.2h1v1h-1zM233 126.5h1v1h-1zM231.3 105.5h1v1h-1zM231.3 107.2h1v1h-1zM231.3 109h1v1h-1zM231.3 110.7h1v1h-1zM231.3 112.5h1v1h-1zM231.3 114.2h1v1h-1zM231.3 116h1v1h-1zM231.3 117.7h1v1h-1zM231.3 119.5h1v1h-1zM231.3 124.7h1v1h-1zM231.3 126.5h1v1h-1zM229.7 105.5h1v1h-1zM229.7 107.2h1v1h-1zM229.7 109h1v1h-1zM229.7 110.7h1v1h-1zM229.7 112.5h1v1h-1zM229.7 114.2h1v1h-1zM229.7 116h1v1h-1zM229.7 117.7h1v1h-1zM229.7 123h1v1h-1zM229.7 124.7h1v1h-1zM229.7 126.5h1v1h-1zM214.3 78.9h1v1h-1zM214.3 80.7h1v1h-1zM214.3 82.4h1v1h-1zM214.3 84.2h1v1h-1zM214.3 85.9h1v1h-1zM214.3 87.7h1v1h-1zM214.3 89.4h1v1h-1zM214.3 91.2h1v1h-1zM214.3 92.9h1v1h-1zM214.3 94.7h1v1h-1zM214.3 96.4h1v1h-1zM214.3 98.2h1v1h-1zM214.3 99.9h1v1h-1zM214.3 101.6h1v1h-1zM214.3 103.4h1v1h-1zM214.3 105.1h1v1h-1zM214.3 106.9h1v1h-1zM214.3 110.4h1v1h-1zM214.3 112.1h1v1h-1zM214.3 113.9h1v1h-1zM214.3 115.6h1v1h-1zM214.3 117.4h1v1h-1zM212.6 78.9h1v1h-1zM212.6 80.7h1v1h-1zM212.6 82.4h1v1h-1zM212.6 84.2h1v1h-1zM212.6 85.9h1v1h-1zM212.6 87.7h1v1h-1zM212.6 89.4h1v1h-1zM212.6 91.2h1v1h-1zM212.6 92.9h1v1h-1zM212.6 94.7h1v1h-1zM212.6 96.4h1v1h-1zM212.6 98.2h1v1h-1zM212.6 99.9h1v1h-1zM212.6 101.6h1v1h-1zM212.6 103.4h1v1h-1zM212.6 105.1h1v1h-1zM212.6 115.6h1v1h-1zM212.6 117.4h1v1h-1zM211 78.9h1v1h-1zM211 80.7h1v1h-1zM211 82.4h1v1h-1zM211 84.2h1v1h-1zM211 85.9h1v1h-1zM211 87.7h1v1h-1zM211 89.4h1v1h-1zM211 91.2h1v1h-1zM211 92.9h1v1h-1zM211 94.7h1v1h-1zM211 96.4h1v1h-1zM211 98.2h1v1h-1zM211 99.9h1v1h-1zM211 101.6h1v1h-1zM211 103.4h1v1h-1zM211 105.1h1v1h-1zM211 108.6h1v1h-1zM211 110.4h1v1h-1zM211 112.1h1v1h-1zM211 113.9h1v1h-1zM211 117.4h1v1h-1zM220.3 100.9h1v1h-1zM220.3 102.7h1v1h-1zM220.3 104.4h1v1h-1zM220.3 106.2h1v1h-1zM220.3 107.9h1v1h-1zM220.3 109.7h1v1h-1zM220.3 111.4h1v1h-1zM220.3 114.9h1v1h-1zM220.3 116.7h1v1h-1zM220.3 118.4h1v1h-1zM220.3 120.2h1v1h-1zM220.3 121.9h1v1h-1zM220.3 123.7h1v1h-1zM220.3 125.4h1v1h-1zM220.3 127.2h1v1h-1zM218.6 100.9h1v1h-1zM218.6 102.7h1v1h-1zM218.6 104.4h1v1h-1zM218.6 106.2h1v1h-1zM218.6 107.9h1v1h-1zM218.6 109.7h1v1h-1zM218.6 114.9h1v1h-1zM218.6 116.7h1v1h-1zM218.6 118.4h1v1h-1zM218.6 120.2h1v1h-1zM218.6 121.9h1v1h-1zM218.6 123.7h1v1h-1zM218.6 125.4h1v1h-1zM218.6 127.2h1v1h-1zM217 100.9h1v1h-1zM217 102.7h1v1h-1zM217 104.4h1v1h-1zM217 106.2h1v1h-1zM217 107.9h1v1h-1zM217 109.7h1v1h-1zM217 113.2h1v1h-1zM217 114.9h1v1h-1zM217 116.7h1v1h-1zM217 118.4h1v1h-1zM217 120.2h1v1h-1zM217 121.9h1v1h-1zM217 123.7h1v1h-1zM217 125.4h1v1h-1zM217 127.2h1v1h-1zM182.1 91.2h1v1h-1zM182.1 92.9h1v1h-1zM182.1 94.7h1v1h-1zM182.1 96.4h1v1h-1zM182.1 98.2h1v1h-1zM182.1 99.9h1v1h-1zM182.1 101.6h1v1h-1zM182.1 103.4h1v1h-1zM182.1 105.1h1v1h-1zM182.1 106.9h1v1h-1zM182.1 108.6h1v1h-1zM182.1 110.4h1v1h-1zM182.1 112.1h1v1h-1zM182.1 115.6h1v1h-1zM182.1 117.4h1v1h-1zM182.1 119.1h1v1h-1zM182.1 120.9h1v1h-1zM182.1 124.4h1v1h-1zM182.1 126.1h1v1h-1zM182.1 127.9h1v1h-1zM180.4 91.2h1v1h-1zM180.4 92.9h1v1h-1zM180.4 94.7h1v1h-1zM180.4 96.4h1v1h-1zM180.4 98.2h1v1h-1zM180.4 99.9h1v1h-1zM180.4 101.6h1v1h-1zM180.4 103.4h1v1h-1zM180.4 105.1h1v1h-1zM180.4 106.9h1v1h-1zM180.4 108.6h1v1h-1zM180.4 110.4h1v1h-1zM180.4 112.1h1v1h-1zM180.4 117.4h1v1h-1zM180.4 119.1h1v1h-1zM180.4 122.6h1v1h-1zM180.4 124.4h1v1h-1zM180.4 126.1h1v1h-1zM180.4 127.9h1v1h-1zM178.8 91.2h1v1h-1zM178.8 92.9h1v1h-1zM178.8 94.7h1v1h-1zM178.8 96.4h1v1h-1zM178.8 98.2h1v1h-1zM178.8 99.9h1v1h-1zM178.8 101.6h1v1h-1zM178.8 103.4h1v1h-1zM178.8 105.1h1v1h-1zM178.8 106.9h1v1h-1zM178.8 108.6h1v1h-1zM178.8 110.4h1v1h-1zM178.8 112.1h1v1h-1zM178.8 113.9h1v1h-1zM178.8 117.4h1v1h-1zM178.8 120.9h1v1h-1zM178.8 122.6h1v1h-1zM178.8 124.4h1v1h-1zM178.8 126.1h1v1h-1zM178.8 127.9h1v1h-1zM188.8 101.1h1v1h-1zM188.8 102.9h1v1h-1zM188.8 104.6h1v1h-1zM188.8 106.4h1v1h-1zM188.8 108.1h1v1h-1zM188.8 109.9h1v1h-1zM188.8 115.1h1v1h-1zM188.8 116.9h1v1h-1zM188.8 118.6h1v1h-1zM188.8 120.4h1v1h-1zM188.8 122.1h1v1h-1zM188.8 123.9h1v1h-1zM188.8 125.6h1v1h-1zM187.2 101.1h1v1h-1zM187.2 102.9h1v1h-1zM187.2 104.6h1v1h-1zM187.2 106.4h1v1h-1zM187.2 108.1h1v1h-1zM187.2 109.9h1v1h-1zM187.2 115.1h1v1h-1zM187.2 116.9h1v1h-1zM187.2 118.6h1v1h-1zM187.2 120.4h1v1h-1zM187.2 122.1h1v1h-1zM187.2 123.9h1v1h-1zM187.2 127.3h1v1h-1z" class="st1"/><path d="M147.5 44h2.1v113.6h-2.1zM180.7 44h1.8v113.6h-1.8zM213.7 44h1.8v113.6h-1.8z" class="st0"/><circle cx="85.1" cy="27.1" r="8.5" class="st3"/><circle cx="85.1" cy="27.1" r="7.2" class="st2"/><path d="M85.4 22.2v5l3.4-1.9" class="st2"/><path d="M85.4 27.8c-.1 0-.2 0-.3-.1-.2-.1-.3-.3-.3-.5v-5c0-.3.3-.6.6-.6s.6.3.6.6v4l2.5-1.4c.3-.2.7-.1.8.2.2.3.1.7-.2.8l-3.3 1.9c-.2.1-.3.1-.4.1zM47.2 87.5h13.5v113.3H47.2z" class="st3"/><path d="M59.2 87.5h37.9v113.3H59.2z" class="st0"/><path d="M63.1 91.4h30.1v30.1H63.1z" class="st1"/><path d="M86.3 109.1H70c-.5 0-.8-.4-.8-.8 0-.5.4-.8.8-.8h16.3c.5 0 .8.4.8.8 0 .5-.4.8-.8.8zM86.3 112.5H70c-.5 0-.8-.4-.8-.8 0-.5.4-.8.8-.8h16.3c.5 0 .8.4.8.8s-.4.8-.8.8zM86.3 115.8H70c-.5 0-.8-.4-.8-.8 0-.5.4-.8.8-.8h16.3c.5 0 .8.4.8.8s-.4.8-.8.8z" class="st3"/><path d="M81.3 103h-6.4l-1.7-1.7v-3.6l1.7-1.7h6.4l1.7 1.7v3.6z" class="st0"/><path d="M63.1 124.4h30.1v30.1H63.1z" class="st1"/><path d="M86.3 142.2H70c-.5 0-.8-.4-.8-.8 0-.5.4-.8.8-.8h16.3c.5 0 .8.4.8.8s-.4.8-.8.8zM86.3 145.5H70c-.5 0-.8-.4-.8-.8 0-.5.4-.8.8-.8h16.3c.5 0 .8.4.8.8s-.4.8-.8.8zM86.3 148.8H70c-.5 0-.8-.4-.8-.8 0-.5.4-.8.8-.8h16.3c.5 0 .8.4.8.8s-.4.8-.8.8z" class="st3"/><path d="M81.3 136.1h-6.4l-1.7-1.7v-3.7l1.7-1.7h6.4l1.7 1.7v3.7z" class="st0"/><path d="M63.1 157.5h30.1v30.1H63.1z" class="st1"/><path d="M86.3 175.2H70c-.5 0-.8-.4-.8-.8 0-.5.4-.8.8-.8h16.3c.5 0 .8.4.8.8s-.4.8-.8.8zM86.3 178.5H70c-.5 0-.8-.4-.8-.8 0-.5.4-.8.8-.8h16.3c.5 0 .8.4.8.8s-.4.8-.8.8zM86.3 181.8H70c-.5 0-.8-.4-.8-.8 0-.5.4-.8.8-.8h16.3c.5 0 .8.4.8.8 0 .5-.4.8-.8.8z" class="st3"/><path d="M81.3 169.1h-6.4l-1.7-1.7v-3.6l1.7-1.7h6.4l1.7 1.7v3.6z" class="st0"/></g><g id="Shadow_1_"><ellipse id="_x3C_Path_x3E__359_" cx="150" cy="220.9" rx="116.2" ry="6.8" style="fill:#f5f5f5"/></g><g id="Plant"><path d="M231 165.8c.1.9-2.3 1.5-4.2 1.8.2 1.6 1.2 3.2 2.7 4.7 1.8-1 4.5-2.4 5-2.1.5.4-2.2 2.1-3.9 3.1 1.2 1.1 2.5 2 3.8 2.9.8-.8 1.8-1.5 2.4-1.1.6.4.4 1.6.1 2.6 2 1.2 3.5 1.9 3.5 1.9s.8-2.6 1.3-5.7l-.3-.6c-.3-.8 0-1.1.5-1.2.1-1.4.2-2.8 0-4.1-2.3-.5-5-1.4-4-2.7.6-.8 1.8-.9 3-.7-.2-.3-.4-.5-.6-.8-4.1-4.6-7 0-7 0-2.4-2-5.8-1.5-6.5 1.7 1.4-.2 4-.8 4.2.3z" class="st6"/><path d="M231 165.8c.1.9-2.3 1.5-4.2 1.8.2 1.6 1.2 3.2 2.7 4.7 1.8-1 4.5-2.4 5-2.1.5.4-2.2 2.1-3.9 3.1 1.2 1.1 2.5 2 3.8 2.9.8-.8 1.8-1.5 2.4-1.1.6.4.4 1.6.1 2.6 2 1.2 3.5 1.9 3.5 1.9s.8-2.6 1.3-5.7l-.3-.6c-.3-.8 0-1.1.5-1.2.1-1.4.2-2.8 0-4.1-2.3-.5-5-1.4-4-2.7.6-.8 1.8-.9 3-.7-.2-.3-.4-.5-.6-.8-4.1-4.6-7 0-7 0-2.4-2-5.8-1.5-6.5 1.7 1.4-.2 4-.8 4.2.3z" class="st9"/><path d="M236.1 199.4h-.6c0-.3 2.5-30.9-4.4-33.8-.7-.3-1.4-.3-2.1.1-2.5 1.3-3.7 6.6-3.7 6.7l-.6-.1c.1-.2 1.3-5.7 4-7.1.8-.4 1.7-.5 2.6-.1 7.3 3 4.9 33 4.8 34.3z" class="st6"/><path d="M237 198.7c-.1-1.4-2.9-33.7 2.3-37.2 1.3-.8 2.4-1 3.3-.5 2.5 1.2 2.8 6.5 2.8 6.8h-.6c0-.1-.3-5.2-2.5-6.3-.7-.4-1.7-.2-2.7.5-4.9 3.2-2.1 36.3-2 36.6l-.6.1z" class="st6"/><path d="M237.8 201.3c0-1.1-.9-25.8 3.9-28 .9-.4 1.9-.4 2.8 0 3.3 1.4 5.3 7.5 5.4 7.8l-.6.2c0-.1-2-6.1-5.1-7.4-.8-.3-1.6-.3-2.3 0-3.7 1.7-3.8 20.4-3.5 27.4h-.6z" class="st6"/><path d="m236.6 200.2-.6-.1c.8-7.4 2.4-27-.2-29.4-.4-.4-.7-.5-1.1-.3-1.8.7-2.8 7.1-3.1 9.5l-.6-.1c.1-.9 1.1-9 3.5-10 .6-.2 1.1-.1 1.7.4 3.4 3.2.5 28.9.4 30z" class="st6"/><path d="M226.6 186.2h21.5l-1.8 24.2h-17.9z" class="st10"/><path d="M229.5 177.4c-.2.6-1.9.1-3.2-.3-.5 1-.3 2.4 0 3.8 1.5 0 3.6 0 3.8.4.2.4-2.1.6-3.5.6.4 1.1.9 2.1 1.4 3.1.8-.2 1.6-.3 1.8.1.2.4-.3 1.1-.8 1.7.8 1.4 1.5 2.4 1.5 2.4s1.4-1.3 2.8-3.1v-.5c.1-.6.4-.7.7-.5.6-.8 1.1-1.7 1.4-2.5-1.2-1.1-2.6-2.6-1.5-3.1.7-.3 1.4 0 2.1.6 0-.2 0-.4-.1-.7-1-4.2-4.3-2.4-4.3-2.4-.8-2.1-3.1-2.9-4.6-1.2 1 .3 2.8.9 2.5 1.6z" class="st6"/><path d="M229.5 177.4c-.2.6-1.9.1-3.2-.3-.5 1-.3 2.4 0 3.8 1.5 0 3.6 0 3.8.4.2.4-2.1.6-3.5.6.4 1.1.9 2.1 1.4 3.1.8-.2 1.6-.3 1.8.1.2.4-.3 1.1-.8 1.7.8 1.4 1.5 2.4 1.5 2.4s1.4-1.3 2.8-3.1v-.5c.1-.6.4-.7.7-.5.6-.8 1.1-1.7 1.4-2.5-1.2-1.1-2.6-2.6-1.5-3.1.7-.3 1.4 0 2.1.6 0-.2 0-.4-.1-.7-1-4.2-4.3-2.4-4.3-2.4-.8-2.1-3.1-2.9-4.6-1.2 1 .3 2.8.9 2.5 1.6z" class="st9"/><path d="M245.5 180.2c-.7.1-1.3.2-2 .4-.2-.5-.3-.9-.3-1.4-.1-4.3 3-2.5 4.6-3.8.8-.6 1.8-1 2.7-.9-.1.2-.3.5-.4.7-.2.4.1.8.5.9.4.1.9 0 1.2-.1.1-.1.2-.1.3-.2.2.4.4.9.6 1.5.2.6.3 1.2.3 1.9-.2.1-.5.1-.7.2-.4.1-.6.7-.3 1 .3.3.6.5.9.6-.1.7-.3 1.4-.5 2h-.2c-.2 0-.3.1-.5.1-.1 0-.2.1-.3.1-.2.1-.4.3-.4.5s.1.5.3.6c.1.1.2.1.3.2-.5.8-1.1 1.4-1.7 1.7 0 0-.8-.3-1.8-1 .1-.2.3-.3.4-.5.1-.2.2-.4.2-.7 0-.2-.2-.5-.4-.6-.2-.1-.5-.2-.7-.2-.2 0-.5.2-.6.4-.1.2-.3.4-.5.6-.8-.6-1.6-1.3-2.2-2.1h.1c.4-.1.8-.2 1.2-.2.5 0 .8-.6.8-1 .1-.4-.4-.7-.9-.7z" class="st6"/><path d="M245.5 180.2c-.7.1-1.3.2-2 .4-.2-.5-.3-.9-.3-1.4-.1-4.3 3-2.5 4.6-3.8.8-.6 1.8-1 2.7-.9-.1.2-.3.5-.4.7-.2.4.1.8.5.9.4.1.9 0 1.2-.1.1-.1.2-.1.3-.2.2.4.4.9.6 1.5.2.6.3 1.2.3 1.9-.2.1-.5.1-.7.2-.4.1-.6.7-.3 1 .3.3.6.5.9.6-.1.7-.3 1.4-.5 2h-.2c-.2 0-.3.1-.5.1-.1 0-.2.1-.3.1-.2.1-.4.3-.4.5s.1.5.3.6c.1.1.2.1.3.2-.5.8-1.1 1.4-1.7 1.7 0 0-.8-.3-1.8-1 .1-.2.3-.3.4-.5.1-.2.2-.4.2-.7 0-.2-.2-.5-.4-.6-.2-.1-.5-.2-.7-.2-.2 0-.5.2-.6.4-.1.2-.3.4-.5.6-.8-.6-1.6-1.3-2.2-2.1h.1c.4-.1.8-.2 1.2-.2.5 0 .8-.6.8-1 .1-.4-.4-.7-.9-.7z" class="st11"/><path d="M246.7 165.3c.4-.3.8-.5 1.2-.6-.1-.3-.3-.6-.5-.9-1.8-2.3-2.7 0-4.1 0-.7 0-1.4.3-1.8.8.2.1.4.1.5.2.3.1.3.5.1.7-.2.2-.4.4-.7.5h-.3c0 .3.2.6.3 1 .2.4.4.8.7 1.1.2-.1.3-.2.5-.2.3-.1.6.1.6.4 0 .3-.1.5-.2.7.4.3.8.6 1.2.8l.1-.1c.1-.1.2-.1.3-.1.1 0 .1 0 .2-.1.2 0 .3 0 .4.1.1.1.2.3.1.4 0 .1-.1.2-.1.2.6.2 1.2.3 1.7.2 0 0 .3-.5.5-1.3-.1 0-.3-.1-.4-.1-.2 0-.3-.1-.4-.3-.1-.1-.1-.3-.1-.5s.1-.3.3-.4c.1-.1.3-.1.5-.1s.3.1.5.1c.2-.7.3-1.4.2-2.1-.3.1-.5.3-.7.4-.3.2-.7.1-.9-.2 0 0 .1-.4.3-.6z" class="st6"/><path d="M246.7 165.3c.4-.3.8-.5 1.2-.6-.1-.3-.3-.6-.5-.9-1.8-2.3-2.7 0-4.1 0-.7 0-1.4.3-1.8.8.2.1.4.1.5.2.3.1.3.5.1.7-.2.2-.4.4-.7.5h-.3c0 .3.2.6.3 1 .2.4.4.8.7 1.1.2-.1.3-.2.5-.2.3-.1.6.1.6.4 0 .3-.1.5-.2.7.4.3.8.6 1.2.8l.1-.1c.1-.1.2-.1.3-.1.1 0 .1 0 .2-.1.2 0 .3 0 .4.1.1.1.2.3.1.4 0 .1-.1.2-.1.2.6.2 1.2.3 1.7.2 0 0 .3-.5.5-1.3-.1 0-.3-.1-.4-.1-.2 0-.3-.1-.4-.3-.1-.1-.1-.3-.1-.5s.1-.3.3-.4c.1-.1.3-.1.5-.1s.3.1.5.1c.2-.7.3-1.4.2-2.1-.3.1-.5.3-.7.4-.3.2-.7.1-.9-.2 0 0 .1-.4.3-.6z" class="st9"/><path d="M229.2 169.6c-.1.9 2.3 1.5 4.2 1.8-.2 1.6-1.2 3.2-2.7 4.7-1.8-1-4.5-2.4-5-2.1-.5.4 2.2 2.1 3.9 3.1-1.2 1.1-2.5 2-3.8 2.9-.8-.8-1.8-1.5-2.4-1.1-.6.4-.4 1.6-.1 2.6-2 1.2-3.5 1.9-3.5 1.9s-.8-2.6-1.3-5.7l.3-.6c.3-.8 0-1.1-.5-1.2-.1-1.4-.2-2.8 0-4.1 2.3-.5 5-1.4 4-2.7-.6-.8-1.8-.9-3-.7.2-.3.4-.5.6-.8 4.1-4.6 7 0 7 0 2.4-2 5.8-1.5 6.5 1.7-1.5-.3-4-.8-4.2.3z" class="st6"/><path d="M229.2 169.6c-.1.9 2.3 1.5 4.2 1.8-.2 1.6-1.2 3.2-2.7 4.7-1.8-1-4.5-2.4-5-2.1-.5.4 2.2 2.1 3.9 3.1-1.2 1.1-2.5 2-3.8 2.9-.8-.8-1.8-1.5-2.4-1.1-.6.4-.4 1.6-.1 2.6-2 1.2-3.5 1.9-3.5 1.9s-.8-2.6-1.3-5.7l.3-.6c.3-.8 0-1.1-.5-1.2-.1-1.4-.2-2.8 0-4.1 2.3-.5 5-1.4 4-2.7-.6-.8-1.8-.9-3-.7.2-.3.4-.5.6-.8 4.1-4.6 7 0 7 0 2.4-2 5.8-1.5 6.5 1.7-1.5-.3-4-.8-4.2.3z" class="st11"/></g><g id="Character_1_1_"><path d="M114.1 219 99 213.4 83.7 219c-.5.2-1.1-.2-1.1-.8 0-.3.2-.6.5-.7l15.9-7.4 15.7 7.4c.3.1.5.4.5.7 0 .6-.6 1-1.1.8z" class="st10"/><path d="M114.1 219 99 213.4 83.7 219c-.5.2-1.1-.2-1.1-.8 0-.3.2-.6.5-.7l15.9-7.4 15.7 7.4c.3.1.5.4.5.7 0 .6-.6 1-1.1.8z" class="st12"/><path d="m95.4 214.7 3.6-1.3 3.4 1.2v-2.9l-3.4-1.6-3.6 1.7z" class="st13"/><path d="M98.9 219.1c-.7 0-1.3-.5-1.3-1.2l-.4-4.5v-37.2h3.5v37.2l-.4 4.5c-.1.7-.7 1.2-1.4 1.2z" class="st10"/><path d="M98.9 219.1c-.7 0-1.3-.5-1.3-1.2l-.4-4.5v-37.2h3.5v37.2l-.4 4.5c-.1.7-.7 1.2-1.4 1.2z" class="st12"/><path d="M97.1 176.2h3.5v4.3h-3.5z" class="st13"/><path d="M91 137.9c.5 0 1 .2 1.3.8 6.5 10.7 8.7 23.6 6.5 35.9-.1.8-.7 1.1-1.3 1.2-1 .1-18.4 0-19 0-.9 0-2-.8-1.8-2 2.1-11.4-.2-23.5-6.2-33.4-.7-1.2.4-2.4 1.5-2.4.6-.1 17.9-.1 19-.1z" class="st6"/><path d="M91 137.9c.5 0 1 .2 1.3.8 6.5 10.7 8.7 23.6 6.5 35.9-.1.8-.7 1.1-1.3 1.2-1 .1-18.4 0-19 0-.9 0-2-.8-1.8-2 2.1-11.4-.2-23.5-6.2-33.4-.7-1.2.4-2.4 1.5-2.4.6-.1 17.9-.1 19-.1z" class="st13"/><path d="M76.8 173.8c2.1-11.4-.2-23.5-6.2-33.4-1.1-1.8 1.7-3.4 2.8-1.6 6.5 10.7 8.7 23.6 6.5 35.9-.3 2-3.4 1.1-3.1-.9z" class="st6"/><path d="M76.8 173.8c2.1-11.4-.2-23.5-6.2-33.4-1.1-1.8 1.7-3.4 2.8-1.6 6.5 10.7 8.7 23.6 6.5 35.9-.3 2-3.4 1.1-3.1-.9z" class="st15" style="opacity:.1"/><path d="M131.1 172.8c-4-1-8.1-1.6-12.2-1.7-4.2-.1-20.1 0-23.8 0-4.6 0-9.2.6-13.6 1.7-2.8.7-1.9 4.7.6 4.8h48.3c2.6.1 3.5-4 .7-4.8z" class="st6"/><path d="M131.1 172.8c-4-1-8.1-1.6-12.2-1.7-4.2-.1-20.1 0-23.8 0-4.6 0-9.2.6-13.6 1.7-2.8.7-1.9 4.7.6 4.8h48.3c2.6.1 3.5-4 .7-4.8z" class="st16"/><path d="M82.7 177.5c8-2.1 16.6-2.1 24.6 0 3 .8 4.3-3.9 1.3-4.7-8.9-2.3-18.3-2.3-27.2 0-3 .8-1.7 5.5 1.3 4.7z" class="st6"/><g class="st16"><path d="M82.7 177.5c8-2.1 16.6-2.1 24.6 0 3 .8 4.3-3.9 1.3-4.7-8.9-2.3-18.3-2.3-27.2 0-3 .8-1.7 5.5 1.3 4.7z" class="st15"/></g><path d="M90.9 153.9h21.5v8.6H90.9z" class="st10"/><path d="M90.9 153.9h21.5v8.6H90.9z" class="st17"/><path d="m123.9 199.6-2.8 12.3 3.5 1.3 5.1-12.3z" class="st18"/><path d="m124.4 212.4-3.2-1.7c-.1-.1-.3 0-.4.1l-2.3 2.6c-.2.2-.2.6.1.8 0 0 .1 0 .1.1 1.3.7 2.6 1.3 4.2 2.1 1.9 1 1.3 1 3.6 2.3 1.4.8 2.5-.7 1.9-1.1-2.5-1.8-2.8-3-3.3-4.5-.2-.3-.4-.5-.7-.7zM95.5 161.4l17.2-.9s28.6 4.5 28.2 12.5c-.4 8-12.1 33.2-12.1 33.2l-6.8-1.9s5.2-25.3 8.6-29.6c0 0-21.4-2.5-26.7-3.9-2.9-.8-10 .5-8.4-9.4z" class="st10"/><path d="m95.5 161.4 17.2-.9s28.6 4.5 28.2 12.5c-.4 8-12.1 33.2-12.1 33.2l-6.8-1.9s5.2-25.3 8.6-29.6c0 0-21.4-2.5-26.7-3.9-2.9-.8-10 .5-8.4-9.4z" class="st17"/><path d="M127.7 174.4c.1-1.6-.1-4.1-1.3-6.9-1.6-3.6-14.7-5.7-20.9-6.6l-10 .5c-1.6 9.9 5.5 8.6 8.4 9.4 4.2 1.1 17.8 2.8 23.8 3.6z" class="st13"/><path d="m112.2 203-.4 12.6 3.8.2 2.5-12.6z" class="st18"/><path d="m115.3 214.6-3.7.1c-.2 0-.3.1-.3.3l-.7 3.5c-.1.3.1.6.4.7h.1c1.5-.1 2.9-.2 4.8-.2 2.2 0 1.7.2 4.3.2 1.6 0 1.9-1.8 1.2-1.9-3.1-.3-4-1.3-5.2-2.3-.2-.3-.5-.4-.9-.4zM121.5 202.8l8.6 2.4-1.6 3.3-7.8-2zM100.1 161.4s23 .8 24.4 7.9c1.4 7-6.4 38.6-6.4 38.6h-6.9s.8-28.3 3.1-34.3c0 0-19 3-24-1.3-3.6-3.1.7-10.9.7-10.9h9.1z" class="st10"/><path d="M100.1 161.4s23 .8 24.4 7.9c1.4 7-6.4 38.6-6.4 38.6h-6.9s.8-28.3 3.1-34.3c0 0-19 3-24-1.3-3.6-3.1.7-10.9.7-10.9h9.1z" class="st17"/><path d="m110.6 206.2 8.7.4-.9 3.4-7.8-.4z" class="st10"/><path d="m130.8 134.7 3.7-1.4-3.1-3s-3.2 1.4-2.4 3.1l1.8 1.3z" class="st18"/><path d="m136.9 130.3-3.6-1.7-2 1.7 3.1 3z" class="st18"/><path d="m126.1 134.9 2.1-2.4 2.9 2.5-2.3 2.8z" class="st6"/><path d="m126.1 134.9 2.1-2.4 2.9 2.5-2.3 2.8z" class="st20"/><path d="M111.3 120.3s2.3 2.6 5.5 11c3.3 8.4 6.9 6 10.9 1.4l3.3 3s-6.1 7.6-10 7.6c-4.3 0-8.5-6.7-9.3-11.3-.8-4.6-.4-11.7-.4-11.7z" class="st10"/><path d="m112.1 125.2-1.2-1-.6 3.2c.1.9.2 1.9.3 2.7.5 2.7 2.3 6.1 4.2 9-.6-6.4-2.7-13.9-2.7-13.9z" class="st21"/><path d="m88.8 145.4.3 17.6 12.9.4c1.7 0 2.1-1.1 2.4-2.4l.6-2.3.6 2.1c.3 1.3 2.1 1.5 3.4 1.2l5.6-1.4-1.3-17.3s.9-13-1.2-21.4c-.4-1.6-1.8-2.7-3.4-3.1-3.6-.9-11.4-2-20.2 1.5-.8.3-1.3 1.2-1.2 2l1.5 23.1z" class="st10"/><path d="M104.9 138c0 .3-.2.5-.5.5s-.5-.2-.5-.5.2-.5.5-.5c.2-.1.5.2.5.5zM105.4 145.4c0 .3-.2.5-.5.5s-.5-.2-.5-.5.2-.5.5-.5.5.2.5.5zM105.6 152.8c0 .3-.2.5-.5.5s-.5-.2-.5-.5.2-.5.5-.5.5.2.5.5z" class="st22"/><path d="M96.2 117.8s2.9-1.2 6.4-.4l1.3.8.5 1.5-1.7 1.3-4 .4-3.3-1.4.2-1.5.6-.7z" class="st10"/><path d="M103.4 118.5c-1.3-.3-2.2-2.6-1.2-4.1l-5.7-4.4c.8 8 .4 6.5-.8 8.8 0 0 .8 2.7 5.4 1.8 3.1-.5 2.3-2.1 2.3-2.1z" class="st18"/><path d="m102.3 114.4-5.8-4.3c.1 1.1.2 1.1.2 2 .6 1.2 1.8 4.4 5.1 4.5-.1-.6.1-1.8.5-2.2z" class="st13"/><path d="m95.9 122.8 1.5 5.1 3.7 5.3 3 3.1 1.1-4.6-.3-9.5-.1-2.1-.8-1.2-1.4 1.2-1.1.4h-1.7l-4.3-1.3z" class="st6"/><path d="m95.9 122.8 1.5 5.1 3.7 5.3 3 3.1 1.1-4.6-.3-9.5-.1-2.1-.8-1.2-1.4 1.2-1.1.4h-1.7l-4.3-1.3z" style="opacity:.8;fill:#407bff"/><path d="m95.9 122.8 1.5 5.1 3.7 5.3 3 3.1 1.1-4.6-.3-9.5-.1-2.1-.8-1.2-1.4 1.2-1.1.4h-1.7l-4.3-1.3z" class="st24"/><path d="M99.4 122.2s.5 1.2 1.7 2.2c0 0-.7 5.2.4 8.9l2.6 3.1.8-3.8s-1.2-6.1-2.7-8.4c0 0 .7-1.2.9-2.5l-.9-.8s-1.3.9-2.1.3l-.7 1z" class="st6"/><path d="M95.8 118.2s2.4 2.1 4.8 2.1 2.7-2.5 2.7-2.5l1 1.1s.2 1.8-.8 3.7l-2.5-1.7-1.7 2.5s-2.7-1.3-4-3.6l.5-1.6z" class="st6"/><path d="M95.8 118.2s2.4 2.1 4.8 2.1 2.7-2.5 2.7-2.5l1 1.1s.2 1.8-.8 3.7l-2.5-1.7-1.7 2.5s-2.7-1.3-4-3.6l.5-1.6z" class="st20"/><path d="M96.2 117.8s-2 6.1 7.8 17.7c0 0 1.7-14.2-1.3-18.2l2.1.8 2.2 3.4-1.6 1 2 .9s-.3 4.6-3.1 13.5c0 0-6.4-5-10.6-11.6l1.9-1.6-2.6-.4 1.2-4.6 2-.9z" class="st10"/><path d="M96.2 117.8s-2 6.1 7.8 17.7c0 0 1.7-14.2-1.3-18.2l2.1.8 2.2 3.4-1.6 1 2 .9s-.3 4.6-3.1 13.5c0 0-6.4-5-10.6-11.6l1.9-1.6-2.6-.4 1.2-4.6 2-.9z" class="st16"/><path d="m87.7 124.1 2.5 14.1.3-.4c1.4-7.2-.5-14.2-.5-14.2l-.8.4-1.5.1z" class="st21"/><path d="M103.8 99.1s2.8 5.1.6 8.2c-2.1 3.1-5.7-6.9-5.7-6.9l5.1-1.3z" class="st10"/><path d="M106.3 110.2c0 .2 0 .4-.1.6-.1.7-.4 1.4-.7 2-.4.6-.9 1.2-1.5 1.6-1.1.8-2.4 1.2-3.7 1.1-.9-.1-1.8-.4-2.6-1-2.4-1.7-2.8-4.1-3.8-8.1-.2-.9-.2-1.8 0-2.6.7-3 3.7-5 6.7-4.3 4.3 1 5.9 6.9 5.7 10.7z" class="st18"/><path d="M100.3 106.5c0 .3.3.6.5.5.2 0 .3-.3.3-.7-.1-.3-.3-.6-.5-.5-.2.1-.4.4-.3.7zM104 105.9c0 .3.3.6.5.5.2 0 .3-.3.3-.7-.1-.3-.3-.6-.5-.5-.2.1-.3.4-.3.7z" class="st10"/><path d="M102.9 106.3c.6.9 1.3 1.8 2.1 2.5-.4.4-1 .6-1.5.6l-.6-3.1z" class="st25"/><path d="M105.1 104c-.1 0-.1.1-.2 0-.5-.2-1-.2-1.4.1-.1.1-.2 0-.3 0-.1-.1 0-.2 0-.3.5-.3 1.2-.4 1.8-.1.2 0 .2.2.1.3.1 0 .1 0 0 0 .1 0 .1 0 0 0zM99.3 105.2h-.1c-.1-.1-.1-.2 0-.3.4-.5 1-.8 1.6-.7.1 0 .2.1.2.2s-.1.2-.2.2c-.5 0-1 .2-1.3.6h-.2zM96 100.9l.6 1.7c-.5.4-.7 1.2-.3 1.8.9 1.4.6 3.9-.3 5 0 0-.2-.6-.7-.4-.5.3.4 3.6 1.8 5 0 0-1.9-1.1-3.6-4.4-1.6-3.1-2.3-5.8-1.9-7.2l4.4-1.5z" class="st10"/><path d="M92.7 110.1c.6.8 1.5 1.4 2.6 1.6 1.4.2 1.9-1.1 1.4-2.3-.5-1.1-1.7-2.5-3-2.1-1.4.4-1.7 1.8-1 2.8z" class="st18"/><path d="M91.5 103.4s-.9-2.2 2.3-4.9c3.3-2.6 7.7-1.4 9.9-3.5 2.1-2.1 3.6 4.3-1.5 6.2-5.1 1.9-10.7 2.2-10.7 2.2zM103.3 110.6c-.4.5-1 1.5-1 1.5-.1 0-.2-.1-.3-.1-1.3-.5-1.8-1.2-1.9-1.8 0-.3 0-.6.1-.9.1-.3.2-.4.2-.4.5.7 1.7 1.3 2.4 1.6.4 0 .5.1.5.1z" class="st10"/><path d="m102.9 110.4-.3.4c-1.2-.5-2.1-1-2.3-1.5.1-.3.2-.4.2-.4.5.6 1.7 1.2 2.4 1.5z" class="st15"/><path d="M102 111.9c-1.3-.5-1.8-1.2-1.9-1.8.4.2 1 .5 1.4.9.3.3.5.6.5.9z" class="st25"/><path d="M80 139.8c.6 1.3 1.7 1.5 2.8.9.9-.4 1.8-1.3 2.5-2.3.5-.7 1.2-1.8 1.9-3 1.5-2.5 3-5.3 3-5.3.9-1.3 1.5-2.8 1-5-.9-2.7-2-4.2-3.1-4.3-3 1.5-9.2 16.6-8.1 19z" class="st10"/><path d="M82.8 140.7c.9-.4 1.8-1.3 2.5-2.3.5-.7 1.2-1.8 1.9-3-.9-1.6-1.8-2.8-1.8-2.8l-1.5 4.2s-2.6.6-3.1 2c-.1.6.8 1.3 2 1.9z" class="st26"/><path d="m82.9 128.6 5 19.1c.1.4.6.8 1 .7l13.3-1.8c.5-.1.7-.5.6-.9l-5-19.1c-.1-.4-.6-.8-1-.7l-13.3 1.8c-.5 0-.7.4-.6.9z" class="st10"/><path d="m82.9 128.6 5 19.1c.1.4.6.8 1 .7l12.7-1.7c.5-.1.7-.5.6-.9l-5-19.1c-.1-.4-.6-.8-1-.7l-12.7 1.7c-.5 0-.7.4-.6.9z" class="st27"/><path d="M92.1 135.9c.7-.1 1.3.4 1.5 1 .2.6-.2 1.2-.9 1.3-.7.1-1.3-.4-1.5-1 .7-.1 1.1-.7.9-1.3z" class="st12"/><path d="M81.8 144.3c.9.5 2.9-.2 3.5-.5.1 0 .2-.1.2-.1s1.1-3.6-1.8-5.5h-.1c-.9-.5-3.7.1-3.8 1.1-.3 3.8.9 4.4 2 5z" class="st10"/><path d="M83.6 141.2c.3 1.3 1.1 2.1 1.8 2.6.1 0 .2-.1.2-.1s1.1-3.6-1.8-5.5h-.1c-.3.3-.7 1.1-.1 3z" class="st26"/><path d="M87.7 136.7s-1.8-.1-2.7 0c-.8.1-.6 2.8-.6 2.8l-.7.4s-.6 1.6.7 2.4l.6-.3s.2.6.7 1c.5.3 3.1-.4 3.1-.4l-1.1-5.9z" class="st18"/></g><g id="Table"><path d="M135.5 148.3c.3 0 .6-.3.6-.6s-.3-.6-.6-.6h-16.7c-.3 0-.6.3-.6.6s.3.6.6.6h16.7z" class="st6"/><path d="M135.5 148.3c.3 0 .6-.3.6-.6s-.3-.6-.6-.6h-16.7c-.3 0-.6.3-.6.6s.3.6.6.6h16.7z" class="st24"/><path d="m134 147.3 2.2-15.8c.1-.6.6-1.1 1.2-1.1h2.1v17.9h-4.7c-.4 0-.8-.4-.8-1z" class="st6"/><path d="m134 147.3 2.2-15.8c.1-.6.6-1.1 1.2-1.1h2.1v17.9h-4.7c-.4 0-.8-.4-.8-1z" class="st28"/><path d="M135.9 148.3h18.9c.6 0 1.1-.5 1.2-1.1l2.2-15.8c.1-.6-.3-1.1-.9-1.1h-18.9c-.6 0-1.1.5-1.2 1.1l-2.2 15.8c-.1.7.3 1.1.9 1.1z" class="st6"/><path d="M135.9 148.3h18.9c.6 0 1.1-.5 1.2-1.1l2.2-15.8c.1-.6-.3-1.1-.9-1.1h-18.9c-.6 0-1.1.5-1.2 1.1l-2.2 15.8c-.1.7.3 1.1.9 1.1z" class="st24"/><path d="M145 140.2c-.1.9.5 1.6 1.4 1.6.9 0 1.7-.7 1.9-1.6.1-.9-.5-1.6-1.4-1.6s-1.8.7-1.9 1.6z" style="opacity:.7;fill:#fff"/><path d="M77.7 219.5h1.6l2-67.2h-2.1z" class="st10"/><path d="M77.7 219.5h1.6l2-67.2h-2.1z" class="st28"/><path d="M103 152.3v67.2h-1.7l-1.9-64.2h-20l-1.5 64.2h-1.6v-67.2z" class="st10"/><path d="M103 152.3v67.2h-1.7l-1.9-64.2h-20l-1.5 64.2h-1.6v-67.2z" class="st27"/><path d="M103 219.5h1.5l.6-67.2H103z" class="st10"/><path d="M103 219.5h1.5l.6-67.2H103z" class="st28"/><path d="M162.8 219.5h1.5l2.1-67.2h-2.1z" class="st10"/><path d="M162.8 219.5h1.5l2.1-67.2h-2.1z" class="st28"/><path d="M188 152.3v67.2h-1.6l-2-64.2h-20l-1.4 64.2h-1.7v-67.2z" class="st10"/><path d="M188 152.3v67.2h-1.6l-2-64.2h-20l-1.4 64.2h-1.7v-67.2z" class="st27"/><path d="M188 219.5h1.6l.5-67.2H188z" class="st10"/><path d="M188 219.5h1.6l.5-67.2H188z" class="st28"/><path d="M192.832 152.234h-88.6v-3.9h88.6z" class="st10"/><path d="M192.832 152.234h-88.6v-3.9h88.6z" class="st24"/><path d="M106.694 152.234h-33.2v-3.9h33.2z" class="st10"/><path d="M106.694 152.234h-33.2v-3.9h33.2z" class="st12"/></g><g id="Character_2"><path d="m175.8 126.2 1.5-2.8 2 2.9s-1.5 2.4-2.7 1.6l-.8-1.7zM180 121.8l1 3.1-1.6 1.3-2.1-2.8z" class="st30"/><path d="M178.1 123c.2 1.3.7 2.4 1.3 3.3l.3-.3-1.1-3.3-.5.3z" class="st13"/><path d="m175.4 131.6.4-5.4 2 .4v5.4zM149.3 196.8l3.1 1.2 2.3-4.2 2-3.8-3.4-2.1-2.1 4.7z" class="st30"/><path d="m151.2 192.6 3.5 1.2 2-3.8-3.4-2.1z" class="st26"/><path d="m151.8 190.3 4.2 2.3s15.9-28 18.4-27.7c2.4.2 25.7 15 32.7 9.6 7.1-5.5.2-21.9.2-21.9s-14.6-4.2-16.2-1c-.3.6-.7 1.9-1 2.9-.3 1-.5 1.9-.5 1.9-.4-.2-14.9-6.1-21.4-2.9-6.6 3.1-16.4 36.8-16.4 36.8z" class="st10"/><path d="m151.8 190.3 4.2 2.3s15.9-28 18.4-27.7c2.4.2 25.7 15 32.7 9.6 7.1-5.5.2-21.9.2-21.9s-14.6-4.2-16.2-1c-.3.6-.7 1.9-1 2.9-.3 1-.5 1.9-.5 1.9-.4-.2-14.9-6.1-21.4-2.9-6.6 3.1-16.4 36.8-16.4 36.8z" class="st9"/><path d="m174.7 213.1 3.3-.4V203.8l-4-.2.4 5z" class="st30"/><path d="m174.4 208.7 3.6-.5v-4.3l-4-.3z" class="st26"/><path d="m158.1 191.2-6.2-3.1-.6 2.6 4.7 2.4zM196.2 174.4s-1-.1-16.6-3c0 0-.4 19.9-1.1 34.7l-4.8.2s-6.9-32.9-6.1-37.9c.8-5 6.7-5.6 6.7-5.6s10.4 8 21.9 11.6z" class="st10"/><path d="M196.2 174.4s-1-.1-16.6-3c0 0-.4 19.9-1.1 34.7l-4.8.2s-6.9-32.9-6.1-37.9c.8-5 6.7-5.6 6.7-5.6s10.4 8 21.9 11.6z" style="opacity:.4;fill:#fff;enable-background:new"/><path d="M196.2 174.4s-1-.1-16.6-3c0 0-.4 19.9-1.1 34.7l-4.8.2s-6.9-32.9-6.1-37.9c.8-5 6.7-5.6 6.7-5.6s10.4 8 21.9 11.6z" style="opacity:.3;enable-background:new"/><path d="m179.4 204.8-6.5-.1.9 2.7h5.3zM143.2 202.3c.5-.2 1.1-.2 1.6-.2 0 0 2-.8 4.4-4.8l2.1.3c1 .1 2.4 1.3 2.1 2.2-.5 2-2.1 3.7-2.9 5.5l-.3-.1 1.1-3c.4-1-.9-.2-1.5.8-.7 1-1.6 1.9-3.8 1.1-2.7-1-3.7-1.5-2.8-1.8z" class="st10"/><path d="M149.7 196.2s-3.3 5-4.9 5.9c0 0 1.8 1.5 4.3-.9 3.1-3 3.7-2.9 3.7-2.9s0-.3-.1-.9c-.3-1.2-3-1.2-3-1.2z" class="st30"/><path d="M169.8 219c.5-.3 1-.5 1.5-.6 0 0 1.7-1.3 3.1-5.7l2.1-.2c1.7-.2 2.7.8 2.6 2.1 0 1.6-1.5 5.7-1.5 5.7l-.4-.1.3-3.2c.1-1.1-.9.1-1.3 1.2-.4 1.1-1.1 2.3-3.4 2-2.7-.4-3.8-.7-3-1.2z" class="st10"/><path d="M174.7 211.5s-2 5.7-3.4 6.9c0 0 2.1 1 3.9-1.9 2.3-3.7 3.3-3.6 3.3-3.6s-.4-.4-.7-.9c-.5-1-3.1-.5-3.1-.5z" class="st30"/><path d="M180.1 117.8s-.1 0-.1-.1c-.5-.7-1.5-.7-1.5-.7-.1 0-.1-.1-.1-.1 0-.1.1-.2.1-.2.1 0 1.2 0 1.8.9 0 0 0 .1-.2.2.1 0 .1 0 0 0z" class="st10"/><path d="M179 119.6s-.7 1-1.3 1.5c0 0 .3.6 1 .6l.3-2.1z" style="fill:#de5753"/><path d="M178.4 118.4c0 .3.1.6.3.6.2 0 .4-.2.5-.5 0-.3-.1-.6-.3-.6-.3-.1-.5.2-.5.5z" class="st10"/><path d="m178.9 117.9-.7-.4c.1 0 .3.7.7.4z" class="st10"/><path d="m186.9 126.3-.1.1c-.6.4-1.3.8-2.2.9-2.2.4-3.8 0-4.7-1-1.3-1.6-1.5-4.3-1.2-7.5.2-1.5.4-2.8.9-3.7v-.1s0-.1.1-.1c.7-1.4 1.7-2.2 3.4-2.5.6-.1 1.2-.1 1.9-.1 6.3.1 6.9 10.6 1.9 14z" class="st30"/><path d="M186.8 126.4c-.6.4-1.3.7-2.1.8-2.2.4-3.8 0-4.7-1.1 1.1.3 2.5.5 4-.1.9-.4 1.8-.2 2.8.4z" class="st26"/><path d="M179.6 115s-.6 4.4 3.5 6.5c0 0 1.6 4.7 4.2 4.9 3.6.3 7-4.7 6-10-1.2-6.9-11.4-7.9-13.7-1.4z" class="st10"/><path d="M181.1 120.1c0-.7.6-1.8 1.7-1.6 1.1.2 1.6 3-1.2 3.5-.4 0-.6-.5-.5-1.9z" class="st30"/><path d="M187.5 110.7s-4.2-1.3-6.6.3c-2.8 1.8-3.9 3.8-.9 7.2 0 0 7.2-1.9 9.5-1.3s4 1.4 4 1.4c.8-4.8-3.6-8.5-6-7.6z" class="st10"/><path d="M183.6 126.8s3.1 1.5 2.2 4.8l7.9-3.3s-4.3-.3-4.1-3.3c0 .1-4.5-1.6-6 1.8z" class="st30"/><path d="M192.1 116.4s1.6-4.5 5.1-3.7c3.5.8 3.3 4.6.7 5.7-2.6 1.2-6.1.8-5.8-2z" class="st10"/><path d="M196.2 118.6s3.1 0 2.7 2.7c0 0-.3-.9-1-1.2 0 0 .9.7 0 2 0 0 .4-.8-.9-1.4-1.3-.6-4.8-.5-4.2-2.3.8-1.8 3.4.2 3.4.2z" class="st10"/><path d="m193.1 128.2-1.9-1.4s-6.3.9-6.4 4.9c-.1 4 8.3-3.5 8.3-3.5z" class="st6"/><path d="m189.5 156.3 6 3s-2-3.3-5.5-4.9c-.3 1-.5 1.9-.5 1.9z" class="st26"/><path d="M194.3 128.2s-4.7-.9-11.3 3.5c0 0-2.2 9.7 7.1 22.8l17.7-1.1c-.1-.1-4.9-19.4-13.5-25.2z" class="st10"/><path d="M183.5 140.6c.3 1.2.7 2.6 1.2 4 1.1 2.9 2.8 6.3 5.3 9.8l17.7-1.1s-4.8-19.3-13.5-25.2c0 0-4.7-.9-11.3 3.5 0 .1-.8 3.5.6 9z" style="opacity:.1;fill:#fff;enable-background:new"/><path d="M183.5 140.6c.3 1.2.7 2.6 1.2 4 .2-2.1.9-5.2.9-5.2-.5.1-1.8 1-2.1 1.2z" class="st26"/><path d="M187.9 135.1c-3.1 5.6-6.4 11.2-9.8 16.7-1.5 2.4-5.2 1.2-5-1.6.2-3.6.5-7.2.8-10.8.3-3.6.7-7.2 1.2-10.8.3-1.8 2.8-1.7 3 .1.4 7.2.5 14.5.5 21.8l-5.1-1.4c2.2-4.3 4.5-8.5 6.9-12.6l2.4-4.2c2-3.4 6.9-.7 5.1 2.8z" class="st10"/><path d="M187.9 135.1c-3.1 5.6-6.4 11.2-9.8 16.7-1.5 2.4-5.2 1.2-5-1.6.2-3.6.5-7.2.8-10.8.3-3.6.7-7.2 1.2-10.8.3-1.8 2.8-1.7 3 .1.4 7.2.5 14.5.5 21.8l-5.1-1.4c2.2-4.3 4.5-8.5 6.9-12.6l2.4-4.2c2-3.4 6.9-.7 5.1 2.8z" style="opacity:.1;fill:#fff"/><path d="M178.5 139.3 177 142l1.4-6.1z" class="st13"/><path d="m220.3 219.8-15.1-5.6-15.3 5.6c-.5.2-1.1-.2-1.1-.8 0-.3.2-.6.5-.7l15.9-7.4 15.7 7.4c.3.1.5.4.5.7-.1.6-.6 1-1.1.8z" class="st10"/><path d="m220.3 219.8-15.1-5.6-15.3 5.6c-.5.2-1.1-.2-1.1-.8 0-.3.2-.6.5-.7l15.9-7.4 15.7 7.4c.3.1.5.4.5.7-.1.6-.6 1-1.1.8z" class="st12"/><path d="m201.6 215.5 3.6-1.3 3.4 1.3v-3l-3.4-1.6-3.6 1.7z" class="st13"/><path d="M205.1 219.9c-.7 0-1.3-.5-1.3-1.2l-.4-4.5V177h3.5v37.2l-.4 4.5c-.2.7-.7 1.2-1.4 1.2z" class="st10"/><path d="M205.1 219.9c-.7 0-1.3-.5-1.3-1.2l-.4-4.5V177h3.5v37.2l-.4 4.5c-.2.7-.7 1.2-1.4 1.2z" class="st12"/><path d="M203.3 177h3.5v4.3h-3.5z" class="st13"/><path d="M229.6 173.6c-4-1-8.1-1.6-12.2-1.7-4.2-.1-20.1 0-23.8 0-4.6 0-9.2.6-13.6 1.7-2.8.7-1.9 4.7.6 4.8h48.3c2.6.2 3.5-4 .7-4.8z" class="st6"/><path d="M229.6 173.6c-4-1-8.1-1.6-12.2-1.7-4.2-.1-20.1 0-23.8 0-4.6 0-9.2.6-13.6 1.7-2.8.7-1.9 4.7.6 4.8h48.3c2.6.2 3.5-4 .7-4.8z" class="st16"/><path d="M181.2 178.3c8-2.1 16.6-2.1 24.6 0 3 .8 4.3-3.9 1.3-4.7-8.9-2.3-18.3-2.3-27.2 0-3 .8-1.7 5.5 1.3 4.7z" class="st6"/><g class="st16"><path d="M181.2 178.3c8-2.1 16.6-2.1 24.6 0 3 .8 4.3-3.9 1.3-4.7-8.9-2.3-18.3-2.3-27.2 0-3 .8-1.7 5.5 1.3 4.7z" class="st15"/></g><path d="M216.8 138.7c-.5 0-1 .2-1.3.8-6.5 10.7-8.7 23.6-6.5 35.9.1.8.7 1.1 1.3 1.2 1 .1 18.4 0 19 0 .9 0 2-.8 1.8-2-2.1-11.4.2-23.5 6.2-33.4.7-1.2-.4-2.4-1.5-2.4-.6-.1-17.9-.1-19-.1z" class="st6"/><path d="M216.8 138.7c-.5 0-1 .2-1.3.8-6.5 10.7-8.7 23.6-6.5 35.9.1.8.7 1.1 1.3 1.2 1 .1 18.4 0 19 0 .9 0 2-.8 1.8-2-2.1-11.4.2-23.5 6.2-33.4.7-1.2-.4-2.4-1.5-2.4-.6-.1-17.9-.1-19-.1z" class="st13"/><path d="M212 174.6c-2.1-11.4.2-23.5 6.2-33.4 1.1-1.8-1.7-3.4-2.8-1.6-6.5 10.7-8.7 23.6-6.5 35.9.4 2 3.5 1.1 3.1-.9z" class="st6"/><g class="st13"><path d="M212 174.6c-2.1-11.4.2-23.5 6.2-33.4 1.1-1.8-1.7-3.4-2.8-1.6-6.5 10.7-8.7 23.6-6.5 35.9.4 2 3.5 1.1 3.1-.9z" class="st15"/></g></g><g id="Chart_4"><circle cx="201" cy="89.3" r="11.3" class="st10" transform="rotate(-11.314 201.034 89.307)"/><path d="m201 89.3 7.9 8.1c-4.4 4.3-11.7 4.2-16-.2-4.3-4.4-4.2-11.7.2-16 2.2-2.1 5.2-3.3 8.2-3.2l-.3 11.3z" class="st6"/><path d="m201 89.3 7.9 8.1c-1.2 1.2-2.7 2.1-4.2 2.6-1.6.5-3.3.7-4.9.5l1.2-11.2z" class="st24"/><path d="m201 89.3 9.8 5.7c-.5.9-1.1 1.6-1.8 2.3-4.4 4.4-11.6 4.4-16 0-.4-.4-.8-.9-1.1-1.3l9.1-6.7z" class="st27"/><path d="M196.7 93.5c-2.3-2.3-2.3-6.1 0-8.5 2.3-2.3 6.1-2.3 8.5 0s2.3 6.1 0 8.5c-2.3 2.4-6.1 2.4-8.5 0z" class="st15"/><path d="M236.9 80h-14.4c-.1 0-.2-.1-.2-.2s.1-.2.2-.2h14.4c.1 0 .2.1.2.2s-.1.2-.2.2zM234.5 84.7h-12c-.1 0-.2-.1-.2-.2s.1-.2.2-.2h12c.1 0 .2.1.2.2s-.1.2-.2.2zM239.4 89.5h-16.9c-.1 0-.2-.1-.2-.2s.1-.2.2-.2h16.9c.1 0 .2.1.2.2s-.1.2-.2.2zM236.9 94.3h-14.4c-.1 0-.2-.1-.2-.2s.1-.2.2-.2h14.4c.1 0 .2.1.2.2s-.1.2-.2.2zM237.7 99h-15.2c-.1 0-.2-.1-.2-.2s.1-.2.2-.2h15.2c.1 0 .2.1.2.2s-.1.2-.2.2zM216.2 78.4h2.9v2.8h-2.9zM216.2 83.1h2.9v2.8h-2.9z" class="st10"/><path d="M216.2 87.9h2.9v2.8h-2.9zM216.2 92.6h2.9v2.8h-2.9zM216.2 97.4h2.9v2.8h-2.9z" class="st6"/><path d="M216.2 83.1h2.9v2.8h-2.9zM216.2 92.6h2.9v2.8h-2.9z" class="st27"/><path d="M216.2 97.4h2.9v2.8h-2.9z" class="st28"/><path d="M240.6 105.1h-51.7c-2.8 0-5.1-2.3-5.1-5.1V77c0-2.8 2.3-5.1 5.1-5.1h51.7c2.8 0 5.1 2.3 5.1 5.1v23c0 2.8-2.3 5.1-5.1 5.1zm-51.7-32.5c-2.5 0-4.5 2-4.5 4.5v23c0 2.5 2 4.5 4.5 4.5h51.7c2.5 0 4.5-2 4.5-4.5V77c0-2.5-2-4.5-4.5-4.5h-51.7z" class="st6"/></g><g id="Chart_3"><path d="M134.2 85.5h1.6v29.8h-1.6z" class="st6"/><path d="M134.2 85.5h1.6v29.8h-1.6z" class="st26"/><path d="M136.9 92.2h1.6v23.2h-1.6z" class="st10"/><path d="M136.9 92.2h1.6v23.2h-1.6z" class="st27"/><path d="M128.8 103.2h1.6v12.2h-1.6zM131.5 98.8h1.6v16.6h-1.6z" class="st6"/><path d="M139.6 89.9h1.6v25.4h-1.6z" class="st10"/><path d="M136.9 95.1h1.6v20.2h-1.6zM139.6 93.9h1.6v21.5h-1.6z" class="st27"/><path d="M134.2 88.2h1.6v27.2h-1.6z" class="st6"/><path d="M131.5 104.7h1.6v10.7h-1.6z" class="st27"/><path d="M128.8 103.2h1.6v12.2h-1.6z" class="st17"/><path d="M128.8 106h1.6v9.4h-1.6z" class="st27"/><path d="M142.1 115.5h-14.2c-.1 0-.1 0-.1-.1s0-.1.1-.1h14.2c.1 0 .1 0 .1.1s0 .1-.1.1z" class="st10"/><path d="M156.9 92.2h1.6v23.2h-1.6z" class="st6"/><path d="M156.9 92.2h1.6v23.2h-1.6z" class="st26"/><path d="M159.6 92.8h1.6v22.6h-1.6z" class="st10"/><path d="M159.6 92.8h1.6v22.6h-1.6z" class="st27"/><path d="M151.5 96.6h1.6v18.7h-1.6zM154.2 96.1h1.6v19.3h-1.6z" class="st6"/><path d="M162.3 98.5h1.6v16.9h-1.6z" class="st10"/><path d="M159.6 95.7h1.6v19.7h-1.6zM162.3 101.1h1.6v14.2h-1.6z" class="st27"/><path d="M156.9 94.2h1.6v21.2h-1.6z" class="st6"/><path d="M154.2 99.5h1.6v15.9h-1.6z" class="st27"/><path d="M151.5 96.6h1.6v18.7h-1.6z" class="st17"/><path d="M151.5 100.9h1.6v14.5h-1.6z" class="st27"/><path d="M164.8 115.5h-14.2c-.1 0-.1 0-.1-.1s0-.1.1-.1h14.2c.1 0 .1 0 .1.1s0 .1-.1.1z" class="st10"/><path d="M167 121.9h-40.8c-2.8 0-5.1-2.3-5.1-5.1V85.4c0-2.8 2.3-5.1 5.1-5.1H167c2.8 0 5.1 2.3 5.1 5.1v31.4c-.1 2.8-2.3 5.1-5.1 5.1zM126.2 81c-2.5 0-4.5 2-4.5 4.5v31.4c0 2.5 2 4.5 4.5 4.5H167c2.5 0 4.5-2 4.5-4.5V85.4c0-2.5-2-4.5-4.5-4.5h-40.8z" class="st6"/></g><g id="Chart_2"><path d="M208.9 60.1h-41.4V36.9h.3v22.9h41.1z" class="st26"/><path d="M169.7 56.2h1.8v3.4h-1.8z" class="st26"/><path d="M169.7 56.2h1.8v1h-1.8z" class="st6"/><path d="M173.3 50.9h1.8v8.7h-1.8z" class="st26"/><path d="M173.3 50.9h1.8v2.5h-1.8z" class="st6"/><path d="M177 52.9h1.8v6.7H177z" class="st26"/><path d="M177 52.9h1.8v2H177z" class="st6"/><path d="M180.6 49.8h1.8v9.8h-1.8z" class="st26"/><path d="M180.6 49.8h1.8v2.9h-1.8z" class="st6"/><path d="M184.3 47h1.8v12.6h-1.8z" class="st26"/><path d="M184.3 47h1.8v3.7h-1.8z" class="st6"/><path d="M187.9 44.8h1.8v14.8h-1.8z" class="st26"/><path d="M187.9 44.8h1.8v4.3h-1.8z" class="st6"/><path d="M191.6 47.3h1.8v12.3h-1.8z" class="st26"/><path d="M191.6 47.3h1.8v3.6h-1.8z" class="st6"/><path d="M195.2 46.8h1.8v12.8h-1.8z" class="st26"/><path d="M195.2 46.8h1.8v3.7h-1.8z" class="st6"/><path d="M198.9 43.5h1.8v16.1h-1.8z" class="st26"/><path d="M198.9 43.5h1.8v4.7h-1.8z" class="st6"/><path d="M202.5 40.2h1.8v19.4h-1.8z" class="st26"/><path d="M202.5 40.2h1.8v5.7h-1.8z" class="st6"/><path d="M206.2 37.3h1.8v22.3h-1.8z" class="st26"/><path d="M206.2 37.3h1.8v6.5h-1.8z" class="st6"/><path d="M177 33.4h22.2v.9H177z" class="st26"/><path d="M210.1 66H166c-2.8 0-5.1-2.3-5.1-5.1V30.1c0-2.8 2.3-5.1 5.1-5.1h44.2c2.8 0 5.1 2.3 5.1 5.1V61c-.1 2.8-2.4 5-5.2 5zM166 25.7c-2.5 0-4.5 2-4.5 4.5V61c0 2.5 2 4.5 4.5 4.5h44.2c2.5 0 4.5-2 4.5-4.5V30.1c0-2.5-2-4.5-4.5-4.5H166z" class="st6"/></g><g id="Chart_1"><path d="M88.3 66.5s7.8-12.7 10.2-12.9c2.5-.2 5.3 7.1 7.3 6.4 2-.7 13.8-21.6 16.5-21.1 2.7.6 7 11.8 8 11.7 1-.2 2.4-2.3 5.3 3.5s5.3 12.3 5.3 12.3H88.3z" class="st6"/><path d="M88.3 66.5s7.8-12.7 10.2-12.9c2.5-.2 5.3 7.1 7.3 6.4 2-.7 13.8-21.6 16.5-21.1 2.7.6 7 11.8 8 11.7 1-.2 2.4-2.3 5.3 3.5s5.3 12.3 5.3 12.3H88.3z" class="st27"/><path d="M135.7 66.5s-9.9-21.7-13.1-22.7c-3.2-1-7.4 8.6-9.6 10.4-2.1 1.7-5.6-6.3-7-6.4-1.4-.1-7.9 12.5-10 12.4-2.1-.1-2.5-1.8-4.7-2.7-2.3-.9-8 9-8 9h52.4z" class="st6"/><path d="M137.5 66.5s-4.9-8.2-6.8-10.1c-1.9-1.9-4.6 4.8-6.5 5-1.9.3-9-13.4-11-14.4S107 58 105 58.3c-2 .2-6-7.3-8.2-7.7-2.1-.4-11.9 15.9-11.9 15.9h52.6z" class="st10"/><path d="M137.5 66.5s-4.9-8.2-6.8-10.1c-1.9-1.9-4.6 4.8-6.5 5-1.9.3-9-13.4-11-14.4S107 58 105 58.3c-2 .2-6-7.3-8.2-7.7-2.1-.4-11.9 15.9-11.9 15.9h52.6z" class="st27"/><path d="M82 66.3h59.7v.4H82z" class="st10"/><path d="M136.1 66.5s-2.4-6-4.4-5.9-2.8 4.5-4.7 4.3c-1.9-.2-4.2-7.2-7-6.9-2.9.3-3.4 4.5-5.2 5.3-1.8.8-5.3-4.6-7.6-5.3-2.3-.7-5 6.4-7.5 6.9s-3.5-2.9-5-2.7c-1.5.3-5.6 4.3-5.6 4.3h47z" class="st10"/><path d="M141.6 72.9H82c-2.8 0-5.1-2.3-5.1-5.1V37.6c0-2.8 2.3-5.1 5.1-5.1h59.6c2.8 0 5.1 2.3 5.1 5.1v30.2c0 2.8-2.3 5.1-5.1 5.1zM82 33.2c-2.5 0-4.5 2-4.5 4.5v30.2c0 2.5 2 4.5 4.5 4.5h59.6c2.5 0 4.5-2 4.5-4.5V37.6c0-2.5-2-4.5-4.5-4.5H82z" class="st6"/></g></svg>