<?xml version="1.0" encoding="utf-8"?>
<!-- Generator: Adobe Illustrator 23.0.5, SVG Export Plug-In . SVG Version: 6.00 Build 0)  -->
<svg version="1.1" id="Layer_1" xmlns:svgjs="http://svgjs.com/svgjs"
	 xmlns="http://www.w3.org/2000/svg" xmlns:xlink="http://www.w3.org/1999/xlink" x="0px" y="0px" viewBox="0 0 512 512"
	 style="enable-background:new 0 0 512 512;" xml:space="preserve">
<style type="text/css">
	.st0{fill:#E9F1F2;}
	.st1{fill:#D0D8DA;}
	.st2{fill:#00B4D8;}
	.st3{fill:#ADE8F4;}
	.st4{fill:#48CAE4;}
	.st5{fill:#F9DBAF;}
	.st6{fill:#EDB88E;}
	.st7{fill:#DA9367;}
	.st8{fill:#FCF2AD;}
	.st9{fill:#323232;}
</style>
<g>
	<g id="Color">
		<g>
			<g>
				<path class="st0" d="M431,147.7H81c-23,0-41.7,18.7-41.7,41.7v258.3h433.3V189.3C472.7,166.3,454,147.7,431,147.7z"/>
				<path class="st1" d="M89.3,389.3c-13.8,0-25-11.2-25-25V151.2c-14.7,6.4-25,21.1-25,38.1v258.3h433.3v-58.3H89.3z"/>
				<path class="st0" d="M297.7,431v16.7h-83.3V431h-200v25c0,23,18.7,41.7,41.7,41.7h400c23,0,41.7-18.7,41.7-41.7v-25H297.7z"/>
				<path class="st1" d="M481,464.3H81c-20.2,0-37-14.3-40.8-33.3H14.3v25c0,23,18.7,41.7,41.7,41.7h400c21.3,0,38.6-16,41.2-36.6
					C492.2,463.2,486.7,464.3,481,464.3z"/>
			</g>
			<g>
				<path class="st2" d="M372.7,81h50V39.3c0-13.8-11.2-25-25-25h-25V81z"/>
				<path class="st3" d="M114.3,14.3c-13.8,0-25,11.2-25,25v325h283.3v-325c0-13.8,11.2-25,25-25H114.3z"/>
				<path class="st4" d="M301.5,167.2c-69,0-125-56-125-125V14.3h-62.2c-13.8,0-25,11.2-25,25v325h283.3V167.2H301.5z"/>
				<path class="st5" d="M131,56h141.7v33.3H131V56z"/>
				<circle class="st6" cx="139.3" cy="314.3" r="16.7"/>
				<circle class="st6" cx="172.7" cy="231" r="16.7"/>
				<circle class="st5" cx="322.7" cy="81" r="16.7"/>
				<path class="st6" d="M177.3,56H131v33.3h54.8C181.5,78.9,178.6,67.7,177.3,56z"/>
				<circle class="st6" cx="322.7" cy="81" r="8.3"/>
				<g>
					<circle class="st7" cx="172.7" cy="231" r="8.3"/>
					<circle class="st7" cx="139.3" cy="314.3" r="8.3"/>
				</g>
			</g>
			<g>
				<g>
					<circle class="st8" cx="372.7" cy="306" r="125"/>
					<path class="st5" d="M451.8,360.2c-69,0-125-56-125-125c0-17.3,3.5-33.9,9.9-48.9c-51.5,15.4-89.1,63.2-89.1,119.7
						c0,69,56,125,125,125c51.7,0,96-31.4,115.1-76.1C476.4,358.3,464.3,360.2,451.8,360.2L451.8,360.2z"/>
					<circle class="st6" cx="372.7" cy="306" r="91.7"/>
					<path class="st7" d="M281,306c0,50.6,41,91.7,91.7,91.7c30.4,0,57.4-14.9,74-37.8c-66.6-2.7-119.9-57.4-119.9-124.7
						c0-2.9,0.2-5.8,0.4-8.7C299.7,242.2,281,271.9,281,306z"/>
					<path class="st5" d="M372.7,247.7l41.7,58.3l-41.7,58.3L331,306L372.7,247.7z"/>
					<path class="st8" d="M372.7,314.3l41.7-8.3l-41.7-58.3L331,306L372.7,314.3z"/>
					<path class="st6" d="M388.2,342.6c-20.2-11.9-36.7-29.3-47.5-50.2L331,306l41.7,58.3L388.2,342.6z"/>
					<path class="st5" d="M352.1,310.2c-4.2-5.6-8.1-11.6-11.3-17.9L331,306L352.1,310.2z"/>
				</g>
			</g>
		</g>
	</g>
	<g id="Outline_copy">
		<g>
			<path class="st9" d="M497.7,422.7H481v-39.1c6.3-8.9,11.7-18.7,15.8-29.3c1.7-4.3-0.5-9.1-4.7-10.8c-4.3-1.7-9.1,0.5-10.8,4.7
				c-17.6,45.2-60.2,74.4-108.6,74.4C308.3,422.7,256,370.3,256,306s52.3-116.7,116.7-116.7S489.3,241.7,489.3,306
				c0,4-0.2,8.1-0.6,12.1c-0.5,4.6,2.9,8.7,7.4,9.1c4.5,0.5,8.7-2.9,9.2-7.4c0.5-4.6,0.7-9.2,0.7-13.8c0-28.9-9.3-55.6-25-77.4
				v-39.2c0-27.6-22.4-50-50-50h-50v-50h41.7c4.6,0,8.3-3.7,8.3-8.3V39.3C431,21,416.1,6,397.7,6H114.3C96,6,81,21,81,39.3v100
				c-27.6,0-50,22.4-50,50V281c0,4.6,3.7,8.3,8.3,8.3s8.3-3.7,8.3-8.3v-91.7C47.7,171,62.6,156,81,156v208.3c0,4.6,3.7,8.3,8.3,8.3
				h139.5c4.6,0,8.3-3.7,8.3-8.3c0-4.6-3.7-8.3-8.3-8.3H97.7V39.3c0-9.2,7.5-16.7,16.7-16.7h254.5c-2.9,4.9-4.5,10.6-4.5,16.7v133.8
				c-11.8,0.7-23.3,3-34.1,6.6v-74.5c9.7-3.4,16.7-12.6,16.7-23.5c0-13.8-11.2-25-25-25s-25,11.2-25,25c0,10.8,7,20,16.7,23.5v81.4
				c-24.8,12.3-45.3,32.1-58.4,56.4l-18.3-18c-1.6-1.5-3.6-2.4-5.8-2.4h-34.9c-3.4-9.7-12.6-16.7-23.5-16.7c-13.8,0-25,11.2-25,25
				s11.2,25,25,25c10.9,0,20-7,23.5-16.7h31.5l20.3,20c-5.5,14.5-8.6,30.2-8.6,46.6h-76.5c-3.4-9.7-12.6-16.7-23.5-16.7
				c-13.8,0-25,11.2-25,25s11.2,25,25,25c10.9,0,20-7,23.5-16.7h77.7c5.4,43.1,31.3,79.8,67.8,100h-10.6c-4.6,0-8.3,3.7-8.3,8.3v8.3
				h-66.7V431c0-4.6-3.7-8.3-8.3-8.3H47.7V314.3c0-4.6-3.7-8.3-8.3-8.3s-8.3,3.7-8.3,8.3v108.3H14.3c-4.6,0-8.3,3.7-8.3,8.3v25
				c0,27.6,22.4,50,50,50h91.7c4.6,0,8.3-3.7,8.3-8.3c0-4.6-3.7-8.3-8.3-8.3H56c-18.4,0-33.3-14.9-33.3-33.3v-16.7H206v8.3
				c0,4.6,3.7,8.3,8.3,8.3h83.3c4.6,0,8.3-3.7,8.3-8.3v-8.3h183.3V456c0,18.4-14.9,33.3-33.3,33.3H181c-4.6,0-8.3,3.7-8.3,8.3
				c0,4.6,3.7,8.3,8.3,8.3h275c27.6,0,50-22.4,50-50v-25C506,426.4,502.3,422.7,497.7,422.7L497.7,422.7z M321.9,73.4
				c4.6,0,8.3,3.7,8.3,8.3c0,4.6-3.7,8.3-8.3,8.3s-8.3-3.7-8.3-8.3C313.6,77.2,317.3,73.4,321.9,73.4z M431,156
				c18.4,0,33.3,14.9,33.3,33.3v20.1c-22-20.9-51.1-34.3-83.3-36.3V156H431z M397.7,22.7c9.2,0,16.7,7.5,16.7,16.7v33.3H381V39.3
				C381,30.1,388.5,22.7,397.7,22.7z M172.7,239.3c-4.6,0-8.3-3.7-8.3-8.3s3.7-8.3,8.3-8.3c4.6,0,8.3,3.7,8.3,8.3
				S177.3,239.3,172.7,239.3z M139.3,322.7c-4.6,0-8.3-3.7-8.3-8.3c0-4.6,3.7-8.3,8.3-8.3c4.6,0,8.3,3.7,8.3,8.3
				C147.7,318.9,143.9,322.7,139.3,322.7z M464.3,402.9v19.8h-27C447.1,417.2,456.2,410.6,464.3,402.9z"/>
			<circle class="st9" cx="56" cy="464.3" r="8.3"/>
			<circle class="st9" cx="89.3" cy="464.3" r="8.3"/>
			<circle class="st9" cx="422.7" cy="464.3" r="8.3"/>
			<circle class="st9" cx="456" cy="464.3" r="8.3"/>
			<path class="st9" d="M301.9,247.2c-3.8-2.6-9-1.6-11.6,2.1c-11.5,16.7-17.6,36.3-17.6,56.7c0,55.1,44.9,100,100,100
				s100-44.9,100-100s-44.9-100-100-100c-20.3,0-39.9,6.1-56.7,17.6c-3.8,2.6-4.7,7.8-2.1,11.6c2.6,3.8,7.8,4.8,11.6,2.1
				c13.9-9.6,30.3-14.7,47.2-14.7c45.9,0,83.3,37.4,83.3,83.3s-37.4,83.3-83.3,83.3s-83.3-37.4-83.3-83.3c0-16.9,5.1-33.3,14.7-47.2
				C306.6,255,305.7,249.8,301.9,247.2L301.9,247.2z"/>
			<path class="st9" d="M372.7,372.7c2.7,0,5.2-1.3,6.8-3.5l41.7-58.3c2.1-2.9,2.1-6.8,0-9.7l-41.7-58.3c-3.1-4.4-10.4-4.4-13.6,0
				l-41.7,58.3c-2.1,2.9-2.1,6.8,0,9.7l41.7,58.3C367.4,371.4,370,372.7,372.7,372.7z M372.7,350L350,318.3l21,4.2
				c0.5,0.1,1.1,0.2,1.6,0.2s1.1,0,1.6-0.2l21-4.2L372.7,350z M372.7,262l27.4,38.4l-27.4,5.5l-27.4-5.5L372.7,262z"/>
			<path class="st9" d="M281,56c0-4.6-3.7-8.3-8.3-8.3H131c-4.6,0-8.3,3.7-8.3,8.3v33.3c0,4.6,3.7,8.3,8.3,8.3h141.7
				c4.6,0,8.3-3.7,8.3-8.3V56z M264.3,81h-125V64.3h125V81z"/>
			<path class="st9" d="M272.7,114.3H181c-4.6,0-8.3,3.7-8.3,8.3c0,4.6,3.7,8.3,8.3,8.3h91.7c4.6,0,8.3-3.7,8.3-8.3
				C281,118.1,277.3,114.3,272.7,114.3z"/>
			<path class="st9" d="M131,164.3h141.7c4.6,0,8.3-3.7,8.3-8.3c0-4.6-3.7-8.3-8.3-8.3H131c-4.6,0-8.3,3.7-8.3,8.3
				C122.7,160.6,126.4,164.3,131,164.3z"/>
			<path class="st9" d="M214.3,181c-4.6,0-8.3,3.7-8.3,8.3c0,4.6,3.7,8.3,8.3,8.3h50c4.6,0,8.3-3.7,8.3-8.3c0-4.6-3.7-8.3-8.3-8.3
				H214.3z"/>
		</g>
	</g>
</g>
</svg>
