<?xml version="1.0" encoding="utf-8"?>
<!-- Generator: Adobe Illustrator 23.0.5, SVG Export Plug-In . SVG Version: 6.00 Build 0)  -->
<svg version="1.1" id="Layer_1" xmlns:svgjs="http://svgjs.com/svgjs"
	 xmlns="http://www.w3.org/2000/svg" xmlns:xlink="http://www.w3.org/1999/xlink" x="0px" y="0px" viewBox="0 0 512 512"
	 style="enable-background:new 0 0 512 512;" xml:space="preserve">
<style type="text/css">
	.st0{fill:#E4E8F4;}
	.st1{enable-background:new    ;}
	.st2{fill:#474B59;}
	.st3{fill:#5B5E71;}
	.st4{fill:#BAC1CE;}
	.st5{fill:#D4DAE8;}
	.st6{fill:#3F434F;}
	.st7{fill:#525566;}
	.st8{fill:#CAD0DD;}
	.st9{fill:#ED435C;}
	.st10{fill:#6EBA6E;}
	.st11{fill:#F9BB4A;}
	.st12{fill:#8FACFC;}
	.st13{fill:#DDAF9B;}
	.st14{fill:#576CFB;}
	.st15{fill:#75CA75;}
	.st16{fill:#E8F1FA;}
	.st17{fill:#F76D8E;}
	.st18{fill:#363A44;}
	.st19{fill:#37617B;}
	.st20{fill:#4562EF;}
	.st21{fill:#EFAC41;}
	.st22{fill:#E5A03C;}
	.st23{fill:#E63044;}
	.st24{fill:#F25574;}
	.st25{fill:#65AA65;}
	.st26{fill:#3C5DD6;}
</style>
<g>
	<g>
		<g>
			<path class="st0" d="M506.8,382.6l-0.1,38.7c0,1-0.2,1.9-0.5,2.6c-0.3,0.7-0.7,1.3-1.4,1.6l-22.3,13c0-0.1,0.1-0.2,0.1-0.2
				c-1.2,0.9-2.9,0.8-4.7-0.3l-82.7-47.7l-0.1,8.5c0,2-1.4,4.2-4.2,5.9l-34.2,19.8c-5.7,3.2-14.7,3.2-20.3,0l-37-21.3l-69.5,40.4
				l-37.1,53.2l-38.6-9.2l-19.9,11.6l-48-27.7L24,456.8l10.6-15.1l-29.4-17l69.8-40.6l37.3-53.2l38.6,9.1l19.9-11.5l47.7,27.5l21,5
				v-5.3c0-2.1,1.4-4.3,4.2-5.9l28.9-16.7v-13.7l-30.6-17.6c-3.7,8.2-9.2,14.5-16,18.5l-11.1,6.4c0.5-0.4,1.2-1,1.7-1.4
				c-13.8,10.4-34.1,10.3-56.9-2.8c-19.6-11.3-37.3-30.3-50.7-52.2L55.7,301l-9.6,20.1l-38,22l12.2-25.5L8.1,306.3l38-22l9.7,8.7
				l49.8-28.7c-12.8-22.8-20.7-48.3-20.6-71.4c0.1-23.9,8.6-40.6,22.4-48.3l12.4-7.2c13.5-7.9,32.4-6.8,53.3,5.2
				c1.3,0.7,2.6,1.7,3.9,2.5l0.3-122.3c0-3.9,1.3-6.7,3.4-8.3l0.2-0.2c0.3-0.2,0.6-0.3,1-0.5L203.5,1c2.5-1.5,6-1.3,9.8,1l280,161.7
				c7.6,4.4,13.7,15,13.7,23.9l-0.4,195.1H506.8z"/>
			<path class="st0" d="M385.8,512l65.1-37.8l0-4.9l0,0l0-4.8l0,0l0-4.8l0,0l0-4.9l-65.5-37.8l-65.1,37.8l0,4.9l0,0l0,4.8l0,0l0,4.8
				l0,0l0,4.8L385.8,512z"/>
			<g>
				<g>
					<g>
						<g>
							<g>
								<g class="st1">
									<g>
										<path class="st2" d="M395.2,389.4l-0.1,9.4c0,2.1-1.4,4.2-4.2,5.9l-34.2,19.9c-5.6,3.2-14.8,3.2-20.3,0L243.6,371
											c-2.8-1.7-4.3-3.8-4.3-6l0.1-9.4c0,2.2,1.4,4.3,4.2,6l92.8,53.5c5.6,3.2,14.8,3.2,20.3,0l34.2-19.9
											C393.8,393.6,395.2,391.5,395.2,389.4z"/>
									</g>
									<g>
										<path class="st3" d="M391,383.4c5.6,3.3,5.7,8.5,0,11.8l-34.2,19.9c-5.6,3.3-14.7,3.3-20.4,0l-92.8-53.6
											c-5.6-3.3-5.7-8.5-0.1-11.8l34.2-19.9c5.6-3.3,14.8-3.3,20.4,0L391,383.4z"/>
									</g>
								</g>
							</g>
							<g>
								<g class="st1">
									<g>
										<path class="st4" d="M364.3,332.2l0,58.9l-12.7,7.4l0-58.9L364.3,332.2z"/>
									</g>
									<g>
										<path class="st5" d="M351.5,339.6l0,58.9l-79.1-45.6l0-58.9L351.5,339.6z"/>
									</g>
									<g>
										<path class="st0" d="M364.3,332.2l-12.7,7.4l-79.1-45.6l12.7-7.4L364.3,332.2z"/>
									</g>
								</g>
							</g>
						</g>
						<g>
							<g>
								<path class="st0" d="M484.4,395.6l-0.1,38.7c0,1-0.1,1.9-0.5,2.6c-1,2.1-3.3,2.6-6,1.1L183.1,267.8
									c-2.6-1.5-4.9-4.7-5.9-7.9c-0.3-1-0.5-2.2-0.5-3.2l0.1-38.7L484.4,395.6z"/>
							</g>
							<g>
								<path class="st4" d="M506.8,382.6l-0.1,38.7c0,0.9-0.2,1.9-0.5,2.5c-0.3,0.7-0.7,1.3-1.4,1.6l-22.3,13
									c0.5-0.3,1.1-0.8,1.4-1.6c0.3-0.6,0.4-1.6,0.4-2.5l0.1-38.7L506.8,382.6z"/>
							</g>
							<g>
								<path class="st0" d="M473.8,191l-0.5,185.2L188.1,211.6l0.5-185.2L473.8,191z"/>
							</g>
							<g>
								<path class="st6" d="M507,187.5l-0.5,195.2l-22.4,13l0.6-195.2c0-8.8-6.1-19.5-13.7-23.9L190.8,14.9
									c-3.8-2.2-7.9-1.7-10.4-0.3l23-13.7c2.5-1.5,6-1.3,9.8,0.9l280,161.7C500.8,168,507,178.7,507,187.5z"/>
							</g>
							<g>
								<path class="st7" d="M471.2,176.6c7.6,4.4,13.8,15.1,13.7,23.9l-0.6,195.2L176.8,218l0.6-195.2c0-8.8,6.3-12.3,13.9-7.9
									L471.2,176.6z M473.2,376.2l0.5-185.2L188.6,26.4l-0.5,185.2L473.2,376.2z"/>
							</g>
						</g>
					</g>
					<g>
						<path class="st4" d="M312,306.8c5.9,3.4,10.6,11.6,10.6,18.4c0,6.8-4.7,9.5-10.7,6.1c-5.9-3.4-10.6-11.5-10.6-18.4
							C301.4,306.2,306.2,303.4,312,306.8z"/>
					</g>
				</g>
				<g>
					<g>
						<g>
							<path class="st8" d="M281,370.8l-88.2,126L23.9,456.9l88.2-126L281,370.8z"/>
						</g>
						<g>
							<path class="st0" d="M299.9,403l-165.7,96.3L5,424.7l165.7-96.3L299.9,403z"/>
						</g>
						<g>
							<g class="st1">
								<g>
									<path class="st9" d="M80.2,428.8l0,1.4l0,2.1l-1,0l0-2.1l0-0.8l-0.4,0l-9.3,0.2l-1.6,0l0-0.2l0-0.8l-0.2-4.6l0-0.8l0-0.3
										l0-0.9l-0.2-4.3l0-0.8l-8.6,0l-2.5,0l-8.6,0l-1.7,0l0-1l0-5.1l0-0.3l0.9,0l0,0.3l0.1,5l0,0.4l0.7,0l8.6,0l2.4,0l8.7,0l1,0
										l0,0.8l0.2,5.5l0,0.9l0.2,5.4l0,0.2l1.1,0l7.8-0.2l1.4,0L80.2,428.8z"/>
								</g>
								<g>
									<path class="st8" d="M64.4,432.4l-0.9,0l0-0.3l4.4-2.6l0,0.2l1.6,0l4.6,2.7l4.8-2.8l-0.2-0.1l0.4,0l0,0.8l-3.6,2.1l-2.7,0
										l-4.2-2.4L64.4,432.4z"/>
								</g>
								<g>
									<path class="st8" d="M121.6,431.8l-1.8,1.1l-56.5-32.6l1.8-1.1L121.6,431.8z"/>
								</g>
								<g>
									<path class="st8" d="M101.7,436.4l-1.8,0.2l-3.5,2.1l-2-1.2l-1.2,0.2l2.5,1.5l-2,1.2l1.6-0.2l1.1-0.6l0.8,0.5l1.2-0.2
										l-1.3-0.8L101.7,436.4z M101.7,436.4l-1.8,0.2l-3.5,2.1l-2-1.2l-1.2,0.2l2.5,1.5l-2,1.2l1.6-0.2l1.1-0.6l0.8,0.5l1.2-0.2
										l-1.3-0.8L101.7,436.4z M101.7,436.4l-1.8,0.2l-3.5,2.1l-2-1.2l-1.2,0.2l2.5,1.5l-2,1.2l1.6-0.2l1.1-0.6l0.8,0.5l1.2-0.2
										l-1.3-0.8L101.7,436.4z M101.7,436.4l-1.8,0.2l-3.5,2.1l-2-1.2l-1.2,0.2l2.5,1.5l-2,1.2l1.6-0.2l1.1-0.6l0.8,0.5l1.2-0.2
										l-1.3-0.8L101.7,436.4z M101.7,436.4l-1.8,0.2l-3.5,2.1l-2-1.2l-1.2,0.2l2.5,1.5l-2,1.2l1.6-0.2l1.1-0.6l0.8,0.5l1.2-0.2
										l-1.3-0.8L101.7,436.4z M113.6,435.9l-0.7-0.5l-4.9-2.8l-0.7-0.4l-4.9-2.8l-0.7-0.5l-4.9-2.8l-0.7-0.4l-4.9-2.8l-0.7-0.5
										l-4.9-2.8l-0.7-0.4l-4.8-2.8l-0.7-0.4l-4.9-2.9l-0.7-0.4l-4.9-2.9l-0.7-0.4l-4.8-2.8l-0.7-0.4l-5.6-3.2l-5.6,3.2l-0.7,0.4
										l-4.8,2.8l-0.7,0.5l-4.9,2.8l-0.6,0.4l-4.9,2.9l-0.7,0.4l-4.9,2.9h1.4l4.2-2.5l4.3,2.5h1.7l-0.1,1l4.5,2.5l-4.5,2.6
										l-0.2,0.1h1.2l4-2.3l4.2,2.4H52l-4.9-2.8l4.9-2.9l4.9,2.9l-4.8,2.8h1.3l4.2-2.4l4.3,2.5h1.7v1l4.4,2.5l-0.1-0.9l-4.1-2.4
										l3.9-2.2l-0.1-0.8l-4.6,2.6l-4.9-2.8l4.8-2.8l4.6,2.6v-0.8l-3.9-2.2l3.6-2.1V417l-4.3,2.5l-4.3-2.5h-2.5l-4.3,2.5l-4.3-2.5
										H46V416l-4.4-2.5l4.4-2.5v-0.2h0.9v0.3l4.4,2.5L47,416v0.4h0.7L52,414l4.3,2.5h2.3l4.4-2.5l4.4,2.5h0.9l0.1,0.8l0.2-0.1
										l4.9,2.8l-4.8,2.8l0.1,0.9l4.7,2.7l-4.5,2.6v0.2H70l4.1-2.4l3.8,2.2l1.4-0.1l-4.5-2.5l4.9-2.8l4.9,2.8l-4.3,2.5v1.4
										l3.5,2.1l1.5-0.1l-4.8-2.7l4.8-2.9l4.8,2.9l-4.7,2.7h0.8v0.3l4.6-2.6l4.9,2.8l-4.9,2.8l-4.6-2.7l-0.1,0.8l4,2.3l-4.2,2.4
										l1.9-0.3l2.9-1.7l1.6,1l1.2-0.2l-2.1-1.2l4.8-2.9l4.9,2.8h0.3l0.2,0.5l0.2-0.1l4.8,2.8l0.3-0.1l0.2,0.5l0.2-0.1l4.9,2.9
										l-4.8,2.8l-4.9-2.9l4.6-2.7l-1.5,0.2l-3.7,2.2l-2.7-1.5l-1.2,0.2l3.2,1.9l-4.9,2.8l-4.8-2.8l2.5-1.5l-1.6,0.2l-1.6,0.9
										l-1.2-0.7l-1.2,0.1l1.7,1l-4.9,2.8l-4.9-2.8l0.4-0.2l-1.5,0.2v-0.6l-4.4-2.5l4.4-2.5l-0.1-1.3l-4-2.3h-2l-4.6,2.6l-4.5-2.6
										h-1.6V432l-4.2-2.5l4.2-2.5v-0.5H62l-4.4,2.5l-4.6-2.6l-2-0.1l-4.6,2.6l-4.6-2.6l-1.8-0.1l-4.6,2.7l-4.9-2.8l4.9-2.8
										l4.6,2.7l0.1-0.8l-4-2.3l4.2-2.5v-0.5h-0.6l-4.3,2.5l-4.5-2.6h-1.2v-0.5l-0.5,0.3l-5.6,3.2l5.6,3.2l0.7,0.4l4.9,2.9
										l0.7,0.4l4.9,2.8l0.7,0.4l4.9,2.9l0.7,0.4l4.9,2.8l0.7,0.4l4.9,2.9l0.7,0.4l4.8,2.8l0.7,0.4l4.9,2.9l0.7,0.4l4.9,2.8
										l0.6,0.5l4.9,2.8l0.7,0.4l5.6,3.2l5.6-3.2l0.7-0.4l4.8-2.8l0.7-0.5l4.9-2.8l0.6-0.4l4.9-2.8l0.7-0.5l4.8-2.8l0.7-0.4
										l5.6-3.2L113.6,435.9z M57.5,417.1l4.9,2.8l-4.8,2.8l-4.9-2.8L57.5,417.1z M46.5,417.1l4.8,2.8l-4.9,2.9l-4.8-2.9
										L46.5,417.1z M45.8,416.7l-4.9,2.8l-4.9-2.8l4.8-2.9L45.8,416.7z M25.1,423.1l4.9-2.9l4.9,2.9l-4.9,2.8L25.1,423.1z
										 M90.9,442.7l4.8,2.8l-4.8,2.9l-4.9-2.8L90.9,442.7z M90.2,448.7l-4.8,2.8l-4.9-2.8l4.8-2.8L90.2,448.7z M79.8,442.7
										l4.9,2.9l-4.8,2.8l-4.9-2.9L79.8,442.7z M79.1,442.3l-4.8,2.8l-4.9-2.9l4.8-2.8L79.1,442.3z M74.2,433.1l4.9,2.9l-4.9,2.8
										l-4.9-2.8L74.2,433.1z M73.5,439.1l-4.8,2.8l-4.9-2.8l4.8-2.8L73.5,439.1z M63.1,433.1l4.9,2.9l-4.8,2.8l-4.9-2.8
										L63.1,433.1z M62.4,432.7l-4.8,2.8l-4.8-2.8l4.8-2.8L62.4,432.7z M52.1,426.7l4.9,2.9l-4.8,2.8l-4.9-2.8L52.1,426.7z
										 M36.2,429.5l4.8-2.9l4.9,2.9l-4.9,2.8L36.2,429.5z M41.7,432.7l4.9-2.8l4.9,2.8l-4.9,2.9L41.7,432.7z M52.1,438.7
										l-4.8-2.8l4.9-2.9l4.8,2.9L52.1,438.7z M52.8,439.1l4.9-2.8l4.9,2.8l-4.8,2.9L52.8,439.1z M58.4,442.3l4.8-2.9l4.9,2.8
										l-4.9,2.9L58.4,442.3z M63.9,445.5l4.9-2.8l4.9,2.8l-4.9,2.9L63.9,445.5z M69.4,448.7l4.9-2.9l4.9,2.9l-4.9,2.8L69.4,448.7
										z M75,451.9l4.9-2.8l4.9,2.8l-4.9,2.9L75,451.9z M85.4,457.9l-4.9-2.8l4.9-2.9l4.9,2.9L85.4,457.9z M91,454.8l-4.9-2.9
										l4.8-2.8l4.9,2.8L91,454.8z M96.4,451.5l-4.9-2.8l4.8-2.9l4.9,2.9L96.4,451.5z M101.9,448.4l-4.9-2.9l4.8-2.8l4.9,2.9
										L101.9,448.4z M57.5,404.3l4.9,2.8l-4.9,2.9l-4.9-2.9L57.5,404.3z M47.1,410.2l4.8-2.8l4.9,2.9l-4.8,2.8L47.1,410.2z
										 M57.6,416.3l-4.9-2.8l4.8-2.8l4.9,2.8L57.6,416.3z M58.2,410.3l4.9-2.9l4.9,2.8l-4.9,2.9L58.2,410.3z M63.7,413.5l4.9-2.8
										l4.9,2.8l-4.9,2.9L63.7,413.5z M69.3,416.7l4.9-2.9l4.9,2.9l-4.9,2.8L69.3,416.7z M74.2,425.9l-4.9-2.8l4.8-2.8l4.9,2.8
										L74.2,425.9z M74.8,419.9l4.9-2.8l4.8,2.8l-4.8,2.9L74.8,419.9z M80.4,423.1l4.8-2.9l4.9,2.9l-4.9,2.8L80.4,423.1z
										 M85.9,426.3l4.8-2.8l4.9,2.8l-4.9,2.8L85.9,426.3z M91.4,429.5l4.9-2.9l4.9,2.9l-4.9,2.8L91.4,429.5z M97,432.7l4.9-2.8
										l4.9,2.8l-4.8,2.9L97,432.7z M102.5,435.9l4.9-2.9l4.9,2.9l-4.9,2.8L102.5,435.9z M112.9,442l-4.9-2.9l4.9-2.8l4.9,2.8
										L112.9,442z M96.4,438.7l-2-1.2l-1.2,0.2l2.5,1.5l-2,1.2l1.6-0.2l1.1-0.6l0.8,0.5l1.2-0.2l-1.3-0.8l4.6-2.7l-1.8,0.2
										L96.4,438.7z M101.7,436.4l-1.8,0.2l-3.5,2.1l-2-1.2l-1.2,0.2l2.5,1.5l-2,1.2l1.6-0.2l1.1-0.6l0.8,0.5l1.2-0.2l-1.3-0.8
										L101.7,436.4z M101.7,436.4l-1.8,0.2l-3.5,2.1l-2-1.2l-1.2,0.2l2.5,1.5l-2,1.2l1.6-0.2l1.1-0.6l0.8,0.5l1.2-0.2l-1.3-0.8
										L101.7,436.4z M101.7,436.4l-1.8,0.2l-3.5,2.1l-2-1.2l-1.2,0.2l2.5,1.5l-2,1.2l1.6-0.2l1.1-0.6l0.8,0.5l1.2-0.2l-1.3-0.8
										L101.7,436.4z M101.7,436.4l-1.8,0.2l-3.5,2.1l-2-1.2l-1.2,0.2l2.5,1.5l-2,1.2l1.6-0.2l1.1-0.6l0.8,0.5l1.2-0.2l-1.3-0.8
										L101.7,436.4z"/>
								</g>
								<g>
									<path class="st10" d="M101.4,435.8l0.2,0.5l-1.8,0.3l-5.5,0.9l-1.2,0.2l-6.7,1.1l-1.8,0.3l0-0.7l0.3-5.3l0-0.3l-0.9,0l-4,0
										l-1,0l-4,0l-2,0l-9,0l-1.7,0l0-1l0-5l0-0.5l-0.6,0l-9-0.1l-2,0l-9.2-0.1l-1.8,0l0-0.2l0-0.8l0.2-4.8l0-0.5l-0.6,0l-8.8,0
										l-1.2,0l-0.1-0.5l1.4,0l8.6,0l1.7,0l0,0.9l-0.2,5.2l1.3,0.1l8.2,0.1l1.4,0l1.4,0l8.5,0.1l1.7,0l0,1l-0.1,5.1l0,0.3l0.9,0
										l8.5,0l2.7,0l3.6,0l1,0l3.5,0l1.5,0l1,0l0,0.3l0,0.3l0,0.8l-0.3,4.7l2-0.3l4.6-0.7l1.2-0.2l7.5-1.2L101.4,435.8z"/>
								</g>
								<g>
									<path class="st8" d="M84.6,439.1l-4.4-2.5l0-1.4l4-2.3l0.9,0l0,0.3l-4.7,2.7l4.4,2.5l0,0.7l1.8-0.3l-0.5,0.3l2.9,1.7
										l-1.2,0.1l-2.4-1.4l-3.3,1.9l-1.6,0.2L84.6,439.1z"/>
								</g>
								<g>
									<path class="st9" d="M107,439.1l0.2,0.5l-1.5,0.1l-6.4,0.6l-1.3,0.1l-3.8,0.4l-1.6,0.2l-2.8,0.3l-1.2,0.1l-7.7,0.7
										l-1.5,0.1l0-0.6l-0.1-5.1l0-1.3l0-2.4l1,0l0,2.3l0,1.4l0,5l0.1,0l1.6-0.2l5.7-0.5l1.2-0.1l4.8-0.5l1.6-0.2l1.9-0.2l1.3-0.1
										l8.3-0.8L107,439.1z"/>
								</g>
								<g>
									<path class="st8" d="M188,458.1l-1.8,1.1l-112.6-65l1.8-1.1L188,458.1z"/>
								</g>
								<g>
									<path class="st8" d="M182.8,461.2l-1.8,1.1l-112.6-65l1.8-1.1L182.8,461.2z"/>
								</g>
								<g>
									<path class="st11" d="M106.9,459.5l-7.3,4.3l-0.9-0.5l7.3-4.3L106.9,459.5z"/>
								</g>
								<g>
									<path class="st11" d="M117,457l-14.5,8.4l-0.9-0.5l14.5-8.4L117,457z"/>
								</g>
								<g>
									<path class="st11" d="M136.6,452.4l-28.3,16.4l-0.9-0.5l28.3-16.4L136.6,452.4z"/>
								</g>
								<g>
									<path class="st12" d="M127.6,471.4l-7.3,4.3l-0.9-0.5l7.3-4.3L127.6,471.4z"/>
								</g>
								<g>
									<path class="st12" d="M137.7,468.9l-14.5,8.4l-0.9-0.5l14.5-8.4L137.7,468.9z"/>
								</g>
								<g>
									<path class="st8" d="M125.1,442.3L91,462.2l45.7,26.4l34.2-19.8L125.1,442.3z M136.6,486.9l-42.7-24.7l31.4-18.3l42.8,24.7
										L136.6,486.9z"/>
								</g>
								<g>
									<path class="st11" d="M129.7,453l-24.2,14.1l-0.9-0.5l24.2-14.1L129.7,453z"/>
								</g>
								<g>
									<path class="st11" d="M131.5,458.7l-20.2,11.7l-0.9-0.5l20.2-11.7L131.5,458.7z"/>
								</g>
								<g>
									<path class="st11" d="M127.9,464.2l-13.7,8l-0.9-0.5l13.7-8L127.9,464.2z"/>
								</g>
								<g>
									<path class="st12" d="M150.3,464.9L126,479l-0.9-0.5l24.2-14.1L150.3,464.9z"/>
								</g>
								<g>
									<path class="st12" d="M157.2,464.3l-28.3,16.4l-0.9-0.5l28.3-16.4L157.2,464.3z"/>
								</g>
								<g>
									<path class="st12" d="M152.1,470.7l-20.2,11.7l-0.9-0.5l20.2-11.7L152.1,470.7z"/>
								</g>
								<g>
									<path class="st12" d="M148.5,476.1l-13.7,8l-0.9-0.5l13.7-8L148.5,476.1z"/>
								</g>
							</g>
						</g>
					</g>
					<g>
						<g>
							<path class="st13" d="M206.4,419.2c-7.1,3.4-15.9,5.4-25,5.9l-0.1-13c3.2-0.3,6.3-1,9.1-2.1L206.4,419.2z"/>
						</g>
						<g>
							<path class="st9" d="M223.8,400.1c-0.8,5.9-4.9,11.6-11.8,16l-15.9-9.2c2.7-2,4.5-4.3,5.2-6.8L223.8,400.1z"/>
						</g>
						<g>
							<path class="st14" d="M173.9,370.8l0.1,13c-12.4,0.8-21.9,6.8-21.9,14.2c0.1,3.8,2.6,7.4,7.3,10.1c4,2.3,9.2,3.8,14.7,4.1
								l0.1,13c-11.5-0.4-22.3-3.2-30.5-7.9c-8.9-5.1-13.9-12-13.9-19.2C129.7,383.6,149.3,371.6,173.9,370.8z"/>
						</g>
						<g>
							<path class="st15" d="M215.5,382.5c4.7,4,7.5,8.4,8.2,13.3l-22.4,0c-0.4-1.4-1.1-2.7-2-3.9L215.5,382.5z"/>
						</g>
						<g>
							<path class="st11" d="M210.7,379.1l-15.8,9.2l-0.6-0.4c-3.6-2.1-8.2-3.5-13.2-4l-0.1-13c10.9,0.6,21.1,3.4,28.9,7.9
								L210.7,379.1z"/>
						</g>
					</g>
				</g>
				<g>
					<g>
						<g>
							<g>
								<path class="st9" d="M160.1,180c27,15.6,49,53.6,48.9,84.7c-0.1,31.1-22.2,43.7-49.2,28.1s-49-53.6-48.9-84.7
									C110.9,176.9,133,164.4,160.1,180z M159.8,277.8c19.9,11.5,36.1,2.2,36.2-20.6c0.1-22.9-16.1-50.9-36-62.3
									c-19.9-11.5-36.2-2.2-36.2,20.7C123.7,238.3,139.8,266.3,159.8,277.8"/>
							</g>
						</g>
						<g>
							<path class="st16" d="M160.1,165.1c34.2,19.8,61.9,67.7,61.8,107c-0.1,39.2-28,55.2-62.2,35.5
								c-34.2-19.8-61.9-67.8-61.8-107.1C98,161.3,125.9,145.4,160.1,165.1z M159.7,292.8c27,15.6,49.1,3,49.2-28.1
								c0.1-31.1-21.9-69.1-48.9-84.7s-49.1-3.1-49.2,28.1C110.7,239.1,132.7,277.1,159.7,292.8"/>
						</g>
						<g>
							<g>
								<path class="st17" d="M247.7,272.2c-0.1,23.5-8.4,40.2-21.8,48l-12.9,7.5c13.4-7.8,21.7-24.5,21.8-48.1
									c0.2-47.6-33.3-105.5-74.7-129.4c-20.8-12-39.7-13.1-53.3-5.2l12.9-7.5c13.6-7.9,32.4-6.8,53.3,5.2
									C214.4,166.6,247.9,224.6,247.7,272.2z"/>
							</g>
						</g>
						<g>
							<g>
								<path class="st9" d="M160.1,150.2c41.4,23.9,74.8,81.8,74.7,129.5c-0.1,47.5-33.8,66.7-75.2,42.8
									c-41.4-23.9-74.8-81.8-74.7-129.4C85.1,145.5,118.7,126.3,160.1,150.2z M159.7,307.6c34.2,19.8,62.1,3.8,62.2-35.5
									c0.1-39.3-27.6-87.3-61.8-107s-62.1-3.9-62.2,35.4C97.8,239.8,125.5,287.9,159.7,307.6"/>
							</g>
						</g>
						<g>
							<g>
								<path class="st9" d="M160,209.7c-12.8-7.4-23.2-1.4-23.3,13.3c0,14.7,10.4,32.6,23.1,40c12.8,7.4,23.2,1.4,23.2-13.2
									C183.1,235.1,172.7,217.1,160,209.7z"/>
							</g>
						</g>
						<g>
							<path class="st16" d="M160,194.9c19.9,11.5,36,39.4,36,62.3c-0.1,22.8-16.3,32.1-36.2,20.6c-19.9-11.5-36.1-39.5-36-62.3
								C123.8,192.6,140.1,183.3,160,194.9z M159.8,263c12.8,7.4,23.2,1.4,23.2-13.2c0-14.7-10.3-32.6-23.1-40
								c-12.8-7.4-23.2-1.4-23.3,13.3C136.7,237.6,147.1,255.6,159.8,263"/>
						</g>
					</g>
					<g>
						<g>
							<path class="st18" d="M46,284.4l9.7,8.8L156.4,235c1.9-1.1,3.4-0.2,3.4,2c0,2.2-1.5,4.8-3.4,5.9L55.8,301l-9.6,20.1L8.1,343
								l12.2-25.5L8,306.3L46,284.4z"/>
						</g>
					</g>
				</g>
				<g>
					<g>
						<path class="st19" d="M281.3,141.3L281,252.8L262.3,242l0.3-111.5L281.3,141.3z"/>
					</g>
					<g>
						<path class="st3" d="M318.3,186.8l-0.2,87.4l-18.8-10.8l0.2-87.4L318.3,186.8z"/>
					</g>
					<g>
						<path class="st10" d="M355.1,239.8l-0.2,55.8l-18.7-10.8l0.2-55.8L355.1,239.8z"/>
					</g>
					<g>
						<path class="st20" d="M392.2,226.9l-0.3,90l-18.7-10.8l0.3-90L392.2,226.9z"/>
					</g>
					<g>
						<path class="st21" d="M429.2,213.6l-0.4,124.6l-18.7-10.8l0.4-124.6L429.2,213.6z"/>
					</g>
					<g>
						<path class="st9" d="M466.3,204.5l-0.4,155l-18.7-10.8l0.4-155L466.3,204.5z"/>
					</g>
				</g>
				<g>
					<g>
						<g class="st1">
							<g>
								<path class="st22" d="M450.8,469.3l0,4.9L385.8,512l0-4.9L450.8,469.3z"/>
							</g>
							<g>
								<path class="st21" d="M385.8,507.1l0,4.9l-65.5-37.8l0-4.9L385.8,507.1z"/>
							</g>
							<g>
								<path class="st11" d="M450.8,469.3l-65.1,37.8l-65.5-37.8l65.1-37.8L450.8,469.3z"/>
							</g>
						</g>
					</g>
					<g>
						<g class="st1">
							<g>
								<path class="st23" d="M450.8,464.4l0,4.9l-65.1,37.8l0-4.9L450.8,464.4z"/>
							</g>
							<g>
								<path class="st9" d="M385.8,502.2l0,4.9l-65.5-37.8l0-4.9L385.8,502.2z"/>
							</g>
							<g>
								<path class="st24" d="M450.8,464.4l-65.1,37.8l-65.5-37.8l65.1-37.8L450.8,464.4z"/>
							</g>
						</g>
					</g>
					<g>
						<g class="st1">
							<g>
								<path class="st25" d="M450.8,459.6l0,4.9l-65.1,37.8l0-4.9L450.8,459.6z"/>
							</g>
							<g>
								<path class="st10" d="M385.8,497.4l0,4.9l-65.5-37.8l0-4.9L385.8,497.4z"/>
							</g>
							<g>
								<path class="st15" d="M450.8,459.6l-65.1,37.8l-65.5-37.8l65.1-37.8L450.8,459.6z"/>
							</g>
						</g>
					</g>
					<g>
						<g class="st1">
							<g>
								<path class="st26" d="M450.8,454.7l0,4.9l-65.1,37.8l0-4.9L450.8,454.7z"/>
							</g>
							<g>
								<path class="st20" d="M385.8,492.5l0,4.9l-65.5-37.8l0-4.9L385.8,492.5z"/>
							</g>
							<g>
								<path class="st14" d="M450.8,454.7l-65.1,37.8l-65.5-37.8l65.1-37.8L450.8,454.7z"/>
							</g>
							<g>
								<g>
									<path class="st26" d="M399.6,433.8l-4,2.3l-15.2-8.8l4-2.3L399.6,433.8z"/>
								</g>
								<g>
									<path class="st26" d="M427.7,461.6l-4,2.3l-15.2-8.8l4-2.3L427.7,461.6z"/>
								</g>
								<g class="st1">
									<g>
										<path class="st26" d="M389.7,439.6l-4,2.3l-15.2-8.8l4-2.3L389.7,439.6z"/>
									</g>
									<g>
										<path class="st26" d="M379.7,445.4l-4,2.3l-15.2-8.8l4-2.3L379.7,445.4z"/>
									</g>
									<g>
										<path class="st26" d="M408.7,450.6l-4,2.3l-15.2-8.8l4-2.3L408.7,450.6z"/>
									</g>
									<g>
										<path class="st26" d="M369.7,451.2l-4,2.3l-15.2-8.8l4-2.3L369.7,451.2z"/>
									</g>
									<g>
										<path class="st26" d="M398.7,456.4l-4,2.3l-15.2-8.8l4-2.3L398.7,456.4z"/>
									</g>
									<g>
										<path class="st26" d="M388.8,462.2l-4,2.3l-15.2-8.8l4-2.3L388.8,462.2z"/>
									</g>
								</g>
								<g>
									<path class="st26" d="M414.2,442.2l-4,2.3l-10.7-6.2l4-2.3L414.2,442.2z"/>
								</g>
								<g>
									<path class="st26" d="M432.6,452.9l-4,2.3l-10.2-5.9l4-2.3L432.6,452.9z"/>
								</g>
								<g>
									<path class="st26" d="M407.8,473.2l-4,2.3l-15.2-8.8l4-2.3L407.8,473.2z"/>
								</g>
								<g>
									<path class="st26" d="M417.7,467.4l-4,2.3l-15.2-8.8l4-2.3L417.7,467.4z"/>
								</g>
							</g>
						</g>
					</g>
				</g>
			</g>
		</g>
	</g>
</g>
</svg>
