<?xml version="1.0" encoding="utf-8"?>
<!-- Generator: Adobe Illustrator 23.0.5, SVG Export Plug-In . SVG Version: 6.00 Build 0)  -->
<svg version="1.1" id="Layer_1" xmlns:svgjs="http://svgjs.com/svgjs"
	 xmlns="http://www.w3.org/2000/svg" xmlns:xlink="http://www.w3.org/1999/xlink" x="0px" y="0px" viewBox="0 0 512 512"
	 style="enable-background:new 0 0 512 512;" xml:space="preserve">
<style type="text/css">
	.st0{fill:#FFAB03;}
	.st1{fill:#E2E2E2;}
	.st2{opacity:0.3;}
	.st3{fill:#FFFFFF;}
	.st4{fill:#4E6575;}
	.st5{fill:#7CB5E8;}
	.st6{fill:#EF4A51;}
	.st7{opacity:0.5;}
	.st8{fill:#8ABA55;}
</style>
<g>
	<g>
		<g>
			<path class="st0" d="M500.8,464.2H399.1c-4.7,0-8.6,3.9-8.6,8.8v30.2c0,4.9,3.8,8.8,8.6,8.8h101.7c4.7,0,8.6-3.9,8.6-8.8V473
				C509.4,468.2,505.5,464.2,500.8,464.2z"/>
		</g>
		<g>
			<path class="st0" d="M382,464.2H280.3c-4.7,0-8.6,3.9-8.6,8.8v30.2c0,4.9,3.8,8.8,8.6,8.8H382c4.7,0,8.6-3.9,8.6-8.8V473
				C390.6,468.2,386.8,464.2,382,464.2z"/>
		</g>
		<g>
			<path class="st0" d="M500.8,416.5H399.1c-4.7,0-8.6,3.9-8.6,8.8v30.2c0,4.9,3.8,8.8,8.6,8.8h101.7c4.7,0,8.6-3.9,8.6-8.8v-30.2
				C509.4,420.4,505.5,416.5,500.8,416.5z"/>
		</g>
		<g>
			<path class="st0" d="M382,416.5H280.3c-4.7,0-8.6,3.9-8.6,8.8v30.2c0,4.9,3.8,8.8,8.6,8.8H382c4.7,0,8.6-3.9,8.6-8.8v-30.2
				C390.6,420.4,386.8,416.5,382,416.5z"/>
		</g>
		<g>
			<path class="st0" d="M500.8,368.8H399.1c-4.7,0-8.6,3.9-8.6,8.8v30.2c0,4.9,3.8,8.8,8.6,8.8h101.7c4.7,0,8.6-3.9,8.6-8.8v-30.2
				C509.4,372.7,505.5,368.8,500.8,368.8z"/>
		</g>
		<g>
			<path class="st0" d="M500.8,321H399.1c-4.7,0-8.6,3.9-8.6,8.8V360c0,4.9,3.8,8.8,8.6,8.8h101.7c4.7,0,8.6-3.9,8.6-8.8v-30.2
				C509.4,325,505.5,321,500.8,321z"/>
		</g>
		<g>
			<path class="st0" d="M382,368.8H280.3c-4.7,0-8.6,3.9-8.6,8.8v30.2c0,4.9,3.8,8.8,8.6,8.8H382c4.7,0,8.6-3.9,8.6-8.8v-30.2
				C390.6,372.7,386.8,368.8,382,368.8z"/>
		</g>
		<g>
			<path class="st1" d="M429.3,95.6c0-51.7-41-93.7-91.4-93.7v93.7H429.3z"/>
		</g>
		<g class="st2">
			<path class="st3" d="M362.6,5.5v34.2c0,18.5,14.6,33.5,32.7,33.5h31.2C418.6,40.5,394.1,14.6,362.6,5.5z"/>
		</g>
		<g>
			<path class="st4" d="M337.9,95.6l64.7,66.3c16.5-16.9,26.7-40.4,26.7-66.3H337.9z"/>
		</g>
		<g>
			<path class="st5" d="M337.9,1.9c-50.4,0-91.4,42-91.4,93.7s41,93.7,91.4,93.7c25.3,0,48.1-10.5,64.7-27.4l-64.7-66.3V1.9z"/>
		</g>
		<g>
			<path class="st6" d="M144.1,245.9H95.7l-32.4-72.5c-3.4-9.9,3.8-20.3,14.1-20.3h85.1c10.2,0,17.4,10.4,14.1,20.3L144.1,245.9z"/>
		</g>
		<g>
			<path class="st1" d="M185.1,180.9h-11.9l-29,65H95.7l-29-65H54.7c-11.2,0-18.4,12.2-13.2,22.3L67.1,246h105.5l25.6-42.8
				C203.5,193.1,196.3,180.9,185.1,180.9L185.1,180.9z"/>
		</g>
		<g>
			<path class="st1" d="M190.4,245.9h-141c-10.1,0-18.1,8.3-18.1,18.6c0,10.3,8.1,18.6,18.1,18.6h141c10.1,0,18.1-8.3,18.1-18.6
				C208.6,254.2,200.5,245.9,190.4,245.9z"/>
		</g>
		<g class="st7">
			<path class="st3" d="M190.4,245.9h-88.7c-0.1,0.8-0.2,1.6-0.2,2.4c0,10.3,8.1,18.6,18.1,18.6h88.7c0.1-0.8,0.2-1.6,0.2-2.4
				C208.6,254.3,200.5,245.9,190.4,245.9L190.4,245.9z"/>
		</g>
		<g>
			<path class="st6" d="M195.1,282.5c-1.5,0.4-3,0.7-4.7,0.7h-141c-1.6,0-3.2-0.3-4.7-0.7C19,318.7,2.6,351,2.6,396.6
				c0,81.7,52.6,115.3,117.3,115.3s117.3-33.6,117.3-115.3C237.3,351,220.8,318.7,195.1,282.5L195.1,282.5z"/>
		</g>
		<g>
			<path class="st0" d="M263.2,464.2h-43c-20.6,33.1-57.7,47.7-100.3,47.7h143.3c4.7,0,8.6-3.9,8.6-8.8V473
				C271.7,468.2,267.9,464.2,263.2,464.2z"/>
		</g>
		<g>
			<path class="st0" d="M263.2,416.5H236c-2.2,18.9-7.7,34.8-15.8,47.7h43c4.7,0,8.6-3.9,8.6-8.8v-30.2
				C271.7,420.4,267.9,416.5,263.2,416.5z"/>
		</g>
		<g class="st2">
			<path class="st1" d="M162.5,153.3H81c3.5,36.1,33.3,64.3,69.4,64.3c2.2,0,4.4-0.2,6.5-0.3l19.5-43.7
				C179.9,163.6,172.7,153.3,162.5,153.3L162.5,153.3z"/>
		</g>
		<g class="st2">
			<path class="st1" d="M190.4,283.2H55.9c-5.9,14.5-9.1,30.3-9.1,46.9c0,67.8,53.6,122.8,119.8,122.8c24.7,0,47.6-7.6,66.6-20.8
				c2.5-10.7,4-22.5,4-35.5c0-45.7-16.3-78-42.1-114.1C193.6,282.9,192.1,283.2,190.4,283.2z"/>
		</g>
		<g>
			<ellipse class="st0" cx="119.9" cy="398.1" rx="63.6" ry="65.2"/>
		</g>
		<g class="st2">
			<path class="st3" d="M119.9,333c-14.8,0-28.4,5.3-39.2,14c-1.3,5.2-2,10.6-2,16.3c0,36,28.4,65.2,63.6,65.2
				c14.8,0,28.4-5.3,39.2-14c1.3-5.2,2-10.6,2-16.3C183.5,362.2,155,333,119.9,333z"/>
		</g>
		<g>
			<path class="st8" d="M372.2,258l-41-42.1l-41,42.1H313v81.9h36.3V258H372.2z"/>
		</g>
		<g class="st2">
			<path class="st3" d="M331.2,270.3c0,9.2,7.4,16.8,16.3,16.8h1.8V258h22.9l-41-42.1V270.3z"/>
		</g>
		<g>
			<path class="st8" d="M491,202l-41-42.1L409,202h22.8v81.9h36.4V202L491,202z"/>
		</g>
		<g class="st2">
			<path class="st3" d="M449.9,214.2c0,9.2,7.4,16.8,16.3,16.8h1.8v-29.1H491l-41-42.1V214.2z"/>
		</g>
		<g class="st2">
			<path class="st3" d="M246.5,95.6c0,51.7,41,93.7,91.4,93.7c25.3,0,48.1-10.5,64.7-27.4L391,150.1c-14.1,14.5-33,22.5-53.1,22.5
				c-41.4,0-75-34.5-75-76.9s33.7-76.9,75-76.9V2C287.4,1.9,246.5,43.8,246.5,95.6z"/>
		</g>
		<g class="st2">
			<path class="st3" d="M501.1,321h-76.7v13.7c0,4.7,3.7,8.5,8.3,8.5h76.7v-13.7C509.4,324.9,505.7,321,501.1,321z"/>
		</g>
		<g class="st2">
			<path class="st3" d="M501.1,368.8h-76.7v13.7c0,4.7,3.7,8.5,8.3,8.5h76.7v-13.7C509.4,372.6,505.7,368.8,501.1,368.8z"/>
		</g>
		<g class="st2">
			<path class="st3" d="M501.1,416.5h-76.7v13.7c0,4.7,3.7,8.5,8.3,8.5h76.7v-13.7C509.4,420.3,505.7,416.5,501.1,416.5z"/>
		</g>
		<g class="st2">
			<path class="st3" d="M501.1,464.2h-76.7v13.7c0,4.7,3.7,8.5,8.3,8.5h76.7v-13.7C509.4,468,505.7,464.2,501.1,464.2z"/>
		</g>
		<g class="st2">
			<path class="st3" d="M382.3,368.8h-76.7v13.7c0,4.7,3.7,8.5,8.3,8.5h76.7v-13.7C390.6,372.6,386.8,368.8,382.3,368.8z"/>
		</g>
		<g class="st2">
			<path class="st3" d="M382.3,416.5h-76.7v13.7c0,4.7,3.7,8.5,8.3,8.5h76.7v-13.7C390.6,420.3,386.8,416.5,382.3,416.5z"/>
		</g>
		<g class="st2">
			<path class="st3" d="M382.3,464.2h-76.7v13.7c0,4.7,3.7,8.5,8.3,8.5h76.7v-13.7C390.6,468,386.8,464.2,382.3,464.2z"/>
		</g>
		<g class="st2">
			<path class="st3" d="M263.2,416.5H236c-1,8-2.6,15.3-4.6,22.1h40.5v-13.3C271.7,420.4,267.9,416.5,263.2,416.5z"/>
		</g>
		<g class="st2">
			<path class="st3" d="M263.2,464.2h-43c-5.4,8.6-11.9,15.9-19.3,22.1h70.9V473C271.7,468.2,267.9,464.2,263.2,464.2z"/>
		</g>
	</g>
</g>
<g>
	<path class="st4" d="M139.3,397.8c3.2-4.2,5-9.3,5-14.6c0.1-7.2-3.2-14.1-8.8-18.6V356c0-3-2.4-5.4-5.4-5.4c-3,0-5.4,2.4-5.4,5.4
		v4.1c-1.2-0.2-2.4-0.4-3.6-0.4h-12.7V356c0-3-2.4-5.4-5.4-5.4c-3,0-5.4,2.4-5.4,5.4v3.6h-3.6c-3,0-5.4,2.4-5.4,5.4
		c0,3,2.4,5.4,5.4,5.4h3.6V432h-3.6c-3,0-5.4,2.4-5.4,5.4c0,3,2.4,5.4,5.4,5.4h3.6v3.6c0,3,2.4,5.4,5.4,5.4c3,0,5.4-2.4,5.4-5.4
		c0,0,0,0,0,0v-3.6h16.3v3.6c0,3,2.4,5.4,5.4,5.4c3,0,5.4-2.4,5.4-5.4c0,0,0,0,0,0v-4.3c11.8-2.6,17.9-12.9,17.9-22.9
		C153.4,410.6,148.6,401.6,139.3,397.8L139.3,397.8z M108.3,370.5h12.5c8.7,0.2,12.6,6.5,12.6,12.7s-3.9,12.4-12.6,12.7h-12.6
		L108.3,370.5z M129.9,432h-21.6v-25.3H121h8.9c8.7,0.2,12.6,6.5,12.6,12.7S138.6,431.8,129.9,432z"/>
	<path class="st4" d="M139.3,397.8c3.2-4.2,5-9.3,5-14.6c0.1-7.2-3.2-14.1-8.8-18.6V356c0-3-2.4-5.4-5.4-5.4c-3,0-5.4,2.4-5.4,5.4
		v4.1c-1.2-0.2-2.3-0.4-3.6-0.4v10.8c8.6,0.3,12.5,6.6,12.5,12.7c0,6.1-3.8,12.4-12.5,12.7v10.8h8.9c8.7,0.2,12.6,6.5,12.6,12.7
		c0,6.1-3.9,12.5-12.6,12.7H121v10.8h3.6v3.6c0,3,2.4,5.4,5.4,5.4c3,0,5.4-2.4,5.4-5.4v-4.3c11.8-2.7,17.9-12.9,17.9-22.9
		C153.3,410.6,148.6,401.6,139.3,397.8L139.3,397.8z"/>
</g>
</svg>
