<?xml version="1.0" encoding="utf-8"?>
<!-- Generator: Adobe Illustrator 23.0.5, SVG Export Plug-In . SVG Version: 6.00 Build 0)  -->
<svg version="1.1" id="Layer_1" xmlns:svgjs="http://svgjs.com/svgjs"
	 xmlns="http://www.w3.org/2000/svg" xmlns:xlink="http://www.w3.org/1999/xlink" x="0px" y="0px" viewBox="0 0 512 512"
	 style="enable-background:new 0 0 512 512;" xml:space="preserve">
<style type="text/css">
	.st0{fill:#314898;}
	.st1{fill:#253A84;}
	.st2{fill:#F0FFFF;}
	.st3{fill:#1B2E69;}
	.st4{fill:#F5C115;}
	.st5{fill:#FAE15A;}
	.st6{fill:#DC286E;}
	.st7{fill:#E44E91;}
</style>
<g>
	<path class="st0" d="M129,8h256c8.8,0,16,7.2,16,16v464c0,8.8-7.2,16-16,16H129c-8.8,0-16-7.2-16-16V24C113,15.2,120.2,8,129,8z"/>
	<path class="st1" d="M145,24h240c8.8,0,16,7.2,16,16v448c0,8.8-7.2,16-16,16H145c-8.8,0-16-7.2-16-16V40C129,31.2,136.2,24,145,24z
		"/>
	<path class="st2" d="M129,56h256v384H129V56z"/>
	<g>
		<path class="st3" d="M167,150H97c-2.3,0-4.4-1.3-5.4-3.3L77.3,118H27v-12h54c2.3,0,4.4,1.3,5.4,3.3l14.3,28.7H167V150z"/>
		<path class="st3" d="M81,278H27v-12h50.3l14.3-28.7c1-2,3.1-3.3,5.4-3.3h70v12h-66.3l-14.3,28.7C85.4,276.7,83.3,278,81,278z"/>
		<path class="st3" d="M51,186h118v12H51V186z"/>
	</g>
	<circle class="st4" cx="25" cy="112" r="16"/>
	<path class="st5" d="M9,112c0,2.3,0.5,4.5,1.4,6.6c8.1,3.6,17.5,0.1,21.2-8c1.9-4.2,1.9-9,0-13.2c-8.1-3.6-17.5-0.1-21.2,8
		C9.5,107.5,9,109.7,9,112z"/>
	<circle class="st4" cx="49" cy="192" r="16"/>
	<path class="st5" d="M33,192c0,2.3,0.5,4.5,1.4,6.6c8.1,3.6,17.5,0.1,21.2-8c1.9-4.2,1.9-9,0-13.2c-8.1-3.6-17.5-0.1-21.2,8
		C33.5,187.5,33,189.7,33,192z"/>
	<circle class="st4" cx="25" cy="272" r="16"/>
	<path class="st5" d="M25,256c2.3,0,4.5,0.5,6.6,1.4c3.6,8.1,0.1,17.5-8,21.2c-4.2,1.9-9,1.9-13.2,0c-3.6-8.1-0.1-17.5,8-21.2
		C20.5,256.5,22.7,256,25,256L25,256z"/>
	<path class="st3" d="M417,150h-70v-12h66.3l14.3-28.7c1-2,3.1-3.3,5.4-3.3h54v12h-50.3l-14.3,28.7C421.4,148.7,419.3,150,417,150z"
		/>
	<path class="st3" d="M487,278h-54c-2.3,0-4.4-1.3-5.4-3.3L413.3,246H347v-12h70c2.3,0,4.4,1.3,5.4,3.3l14.3,28.7H487V278z"/>
	<path class="st3" d="M345,186h118v12H345V186z"/>
	<circle class="st4" cx="489" cy="112" r="16"/>
	<path class="st5" d="M489,96c2.3,0,4.5,0.5,6.6,1.4c3.6,8.1,0.1,17.5-8,21.2c-4.2,1.9-9,1.9-13.2,0c-3.6-8.1-0.1-17.5,8-21.2
		C484.5,96.5,486.7,96,489,96z"/>
	<circle class="st4" cx="465" cy="192" r="16"/>
	<path class="st5" d="M465,176c2.3,0,4.5,0.5,6.6,1.4c3.6,8.1,0.1,17.5-8,21.2c-4.2,1.9-9,1.9-13.2,0c-3.6-8.1-0.1-17.5,8-21.2
		C460.5,176.5,462.7,176,465,176z"/>
	<circle class="st4" cx="489" cy="272" r="16"/>
	<path class="st5" d="M473,272c0,2.3,0.5,4.5,1.4,6.6c8.1,3.6,17.5,0.1,21.2-8c1.9-4.2,1.9-9,0-13.2c-8.1-3.6-17.5-0.1-21.2,8
		C473.5,267.5,473,269.7,473,272z"/>
	<path class="st3" d="M209,440h96l0,0v16c0,8.8-7.2,16-16,16h-64c-8.8,0-16-7.2-16-16V440L209,440z"/>
	<path class="st6" d="M237,340h40c4.4,0,8,3.6,8,8v40c0,4.4-3.6,8-8,8h-40c-4.4,0-8-3.6-8-8v-40C229,343.6,232.6,340,237,340z"/>
	<path class="st6" d="M149,340h40c4.4,0,8,3.6,8,8v40c0,4.4-3.6,8-8,8h-40c-4.4,0-8-3.6-8-8v-40C141,343.6,144.6,340,149,340z"/>
	<path class="st6" d="M325,340h40c4.4,0,8,3.6,8,8v40c0,4.4-3.6,8-8,8h-40c-4.4,0-8-3.6-8-8v-40C317,343.6,320.6,340,325,340z"/>
	<path class="st7" d="M177,96h160c8.8,0,16,7.2,16,16v160c0,8.8-7.2,16-16,16H177c-8.8,0-16-7.2-16-16V112
		C161,103.2,168.2,96,177,96z"/>
	<path class="st6" d="M209,128h128c8.8,0,16,7.2,16,16v128c0,8.8-7.2,16-16,16H209c-8.8,0-16-7.2-16-16V144
		C193,135.2,200.2,128,209,128z"/>
</g>
</svg>
