<svg xmlns="http://www.w3.org/2000/svg" version="1.1" xmlns:xlink="http://www.w3.org/1999/xlink" xmlns:svgjs="http://svgjs.com/svgjs" width="512" height="512" x="0" y="0" viewBox="0 0 480.05 480.05" style="enable-background:new 0 0 512 512" xml:space="preserve" class=""><g><g xmlns="http://www.w3.org/2000/svg"><path d="m244.017 305.381 30.76 17.758c7.401 4.274 16.596 4.275 24 .001l30.764-17.762c7.401-4.273 12-12.238 12-20.784v-35.522c0-8.546-4.598-16.511-12-20.784l-30.73-17.743c-7.433-4.29-16.658-4.272-24.076.045l-7.368 4.29c-3.818 2.223-5.111 7.12-2.888 10.938 2.224 3.818 7.121 5.111 10.939 2.888l7.368-4.29c2.471-1.438 5.547-1.443 8.025-.015l30.729 17.742c2.468 1.425 4 4.08 4 6.929v35.522c0 2.849-1.533 5.504-4 6.928l-30.764 17.762c-2.467 1.423-5.532 1.425-8-.001l-30.759-17.758c-2.458-1.42-3.984-4.075-3.983-6.935v-89.077c.003-8.556-4.587-16.523-11.982-20.794l-30.76-17.758c-7.402-4.274-16.598-4.273-24-.001l-30.764 17.762c-7.401 4.273-12 12.238-12 20.784v35.522c0 8.546 4.598 16.511 12 20.784l30.73 17.743c7.434 4.291 16.659 4.272 24.076-.045l6.85-3.988c3.818-2.223 5.111-7.12 2.888-10.938-2.223-3.817-7.121-5.109-10.939-2.888l-6.85 3.988c-2.471 1.438-5.547 1.443-8.025.015l-30.729-17.742c-2.468-1.425-4-4.08-4-6.929v-35.522c0-2.849 1.533-5.504 4-6.928l30.764-17.762c2.466-1.424 5.531-1.426 8 .001l30.759 17.758c2.458 1.42 3.984 4.075 3.983 6.935v89.077c-.003 8.556 4.587 16.524 11.982 20.794z" fill="#ffffff" data-original="#000000"></path><path d="m409.741 70.345c-93.782-93.782-245.82-93.86-339.596.165-83.165 83.386-91.423 210.533-29.771 302.759 2.456 3.672 7.424 4.659 11.097 2.204s4.661-7.423 2.205-11.097c-24.625-36.835-37.641-79.826-37.641-124.326 0-123.514 100.486-224 224-224s224 100.486 224 224-100.486 224-224 224c-54.418 0-106.882-19.75-147.726-55.612-3.321-2.916-8.375-2.586-11.29.733-2.915 3.32-2.587 8.375.733 11.29 43.765 38.427 99.977 59.589 158.282 59.589 133.423 0 240-108.21 240-240 .001-64.106-24.963-124.376-70.293-169.705z" fill="#ffffff" data-original="#000000"></path><path d="m79.035 240.05c0 88.775 72.224 161 161 161s161-72.225 161-161c0-58.589-31.882-112.612-83.204-140.989-3.869-2.141-8.734-.736-10.872 3.13s-.737 8.734 3.13 10.872c46.228 25.561 74.946 74.22 74.946 126.987 0 79.953-65.047 145-145 145s-145-65.047-145-145c0-91.62 83.766-159.23 171.651-142.598 4.345.823 8.526-2.031 9.348-6.373.822-4.341-2.031-8.526-6.373-9.348-97.66-18.49-190.626 56.589-190.626 158.319z" fill="#ffffff" data-original="#000000"></path><path d="m321.351 64.774c1.69-4.082-.249-8.762-4.331-10.452-48.93-20.26-105.055-20.258-153.982.004-4.082 1.69-6.021 6.37-4.33 10.452 1.687 4.076 6.362 6.023 10.452 4.331 45.038-18.651 96.7-18.652 141.739-.004 4.081 1.689 8.762-.249 10.452-4.331z" fill="#ffffff" data-original="#000000"></path><path d="m310.899 410.995c-45.039 18.649-96.702 18.649-141.739-.004-4.079-1.688-8.762.249-10.452 4.331s.248 8.762 4.33 10.452c48.92 20.258 105.046 20.267 153.982.004 4.082-1.69 6.021-6.37 4.331-10.452s-6.371-6.018-10.452-4.331z" fill="#ffffff" data-original="#000000"></path><path d="m415.305 321.372c4.098 1.695 8.768-.264 10.452-4.331 20.26-48.93 20.258-105.054-.004-153.982-1.691-4.084-6.372-6.021-10.452-4.331-4.082 1.69-6.021 6.37-4.33 10.452 18.651 45.039 18.653 96.701.003 141.74-1.69 4.082.249 8.762 4.331 10.452z" fill="#ffffff" data-original="#000000"></path><path d="m64.758 158.728c-4.08-1.688-8.762.249-10.452 4.331-20.263 48.929-20.264 105.053-.004 153.982 1.691 4.083 6.37 6.02 10.452 4.331 4.082-1.69 6.021-6.37 4.331-10.452-18.649-45.039-18.648-96.701.003-141.74 1.69-4.082-.248-8.762-4.33-10.452z" fill="#ffffff" data-original="#000000"></path></g></g></svg>