<svg xmlns="http://www.w3.org/2000/svg" version="1.1" xmlns:xlink="http://www.w3.org/1999/xlink" xmlns:svgjs="http://svgjs.com/svgjs" width="512" height="512" x="0" y="0" viewBox="0 0 128 128" style="enable-background:new 0 0 512 512" xml:space="preserve" class=""><g transform="matrix(1.19,0,0,1.19,-12.16000072479244,-12.16000072479244)"><linearGradient xmlns="http://www.w3.org/2000/svg" id="SVGID_1_" gradientUnits="userSpaceOnUse" x1="10.491" x2="117.509" y1="64" y2="64"><stop stop-opacity="1" stop-color="#ffffff" offset="0"></stop><stop stop-opacity="1" stop-color="#ffffff" offset="1"></stop></linearGradient><g xmlns="http://www.w3.org/2000/svg"><g><g><g><path d="m64.001 72.056c-.333 0-.665-.11-.939-.331l-11.845-9.518c-.557-.448-.721-1.226-.392-1.86l11.845-22.839c.258-.498.771-.81 1.332-.81.56 0 1.074.312 1.332.81l11.844 22.839c.329.634.165 1.412-.392 1.86l-11.846 9.518c-.274.22-.607.331-.939.331zm-9.948-11.419 9.948 7.994 9.947-7.994-9.947-19.181z" fill="url(#SVGID_1_)" data-original="url(#SVGID_1_)"></path></g><g><g><path d="m64.002 91.302c-.507 0-1.002-.257-1.285-.723l-13.323-21.995c-.383-.633-.248-1.45.318-1.926.565-.475 1.395-.468 1.951.019l13.324 11.631c.624.545.688 1.492.144 2.116-.544.625-1.492.688-2.116.144l-6.056-5.286 8.325 13.743c.429.709.203 1.631-.506 2.061-.243.145-.511.216-.776.216z" fill="url(#SVGID_1_)" data-original="url(#SVGID_1_)"></path></g><g><path d="m64 91.302c-.265 0-.533-.07-.776-.217-.708-.43-.935-1.352-.506-2.061l8.324-13.743-6.055 5.286c-.623.544-1.572.481-2.116-.144-.545-.624-.48-1.571.144-2.116l13.322-11.631c.557-.485 1.385-.494 1.951-.019.566.476.701 1.293.318 1.926l-13.322 21.996c-.282.466-.777.723-1.284.723z" fill="url(#SVGID_1_)" data-original="url(#SVGID_1_)"></path></g></g><g><path d="m53.159 62.538c-.667 0-1.275-.448-1.451-1.124-.208-.802.273-1.621 1.075-1.829l10.841-2.813c.247-.064.507-.064.754 0l10.839 2.813c.802.208 1.283 1.027 1.075 1.829-.208.801-1.024 1.286-1.829 1.075l-10.462-2.715-10.464 2.715c-.126.033-.253.049-.378.049z" fill="url(#SVGID_1_)" data-original="url(#SVGID_1_)"></path></g><g><path d="m64.001 59.724c-.829 0-1.5-.671-1.5-1.5v-18.743c0-.829.671-1.5 1.5-1.5s1.5.671 1.5 1.5v18.742c0 .829-.671 1.501-1.5 1.501z" fill="url(#SVGID_1_)" data-original="url(#SVGID_1_)"></path></g></g><g><g><path d="m64.001 111.13c-25.988 0-47.131-21.143-47.131-47.13 0-25.988 21.143-47.131 47.131-47.131s47.131 21.143 47.131 47.131c0 25.987-21.143 47.13-47.131 47.13zm0-91.261c-24.334 0-44.131 19.797-44.131 44.131 0 24.333 19.797 44.13 44.131 44.13s44.131-19.797 44.131-44.13c0-24.334-19.797-44.131-44.131-44.131z" fill="url(#SVGID_1_)" data-original="url(#SVGID_1_)"></path></g><g><path d="m64.001 117.509c-29.505 0-53.51-24.004-53.51-53.509s24.004-53.509 53.51-53.509c29.504 0 53.508 24.004 53.508 53.509s-24.004 53.509-53.508 53.509zm0-104.018c-27.851 0-50.51 22.658-50.51 50.509s22.659 50.509 50.51 50.509c27.85 0 50.508-22.658 50.508-50.509s-22.658-50.509-50.508-50.509z" fill="url(#SVGID_1_)" data-original="url(#SVGID_1_)"></path></g><g><path d="m35.495 86.657c-2.589 0-4.695-2.106-4.695-4.695 0-2.59 2.106-4.697 4.695-4.697s4.696 2.107 4.696 4.697c0 2.589-2.107 4.695-4.696 4.695zm0-6.392c-.935 0-1.695.762-1.695 1.697s.761 1.695 1.695 1.695c.936 0 1.696-.761 1.696-1.695 0-.936-.76-1.697-1.696-1.697z" fill="url(#SVGID_1_)" data-original="url(#SVGID_1_)"></path></g><g><path d="m91.55 83.462c-2.589 0-4.696-2.107-4.696-4.697 0-2.589 2.107-4.695 4.696-4.695s4.695 2.106 4.695 4.695-2.106 4.697-4.695 4.697zm0-6.393c-.936 0-1.696.761-1.696 1.695 0 .936.761 1.697 1.696 1.697s1.695-.762 1.695-1.697c0-.934-.761-1.695-1.695-1.695z" fill="url(#SVGID_1_)" data-original="url(#SVGID_1_)"></path></g><g><path d="m36.79 57.811c-2.589 0-4.696-2.107-4.696-4.697 0-2.589 2.107-4.695 4.696-4.695s4.695 2.106 4.695 4.695-2.106 4.697-4.695 4.697zm0-6.393c-.936 0-1.696.761-1.696 1.695 0 .936.761 1.697 1.696 1.697s1.695-.761 1.695-1.697c0-.934-.76-1.695-1.695-1.695z" fill="url(#SVGID_1_)" data-original="url(#SVGID_1_)"></path></g><g><path d="m89.888 55.938c-2.589 0-4.695-2.106-4.695-4.695 0-2.59 2.106-4.697 4.695-4.697s4.695 2.107 4.695 4.697c0 2.588-2.106 4.695-4.695 4.695zm0-6.393c-.935 0-1.695.761-1.695 1.697 0 .935.761 1.695 1.695 1.695s1.695-.761 1.695-1.695c0-.936-.761-1.697-1.695-1.697z" fill="url(#SVGID_1_)" data-original="url(#SVGID_1_)"></path></g><g><g><path d="m64.001 33.346c-2.589 0-4.696-2.106-4.696-4.695s2.107-4.695 4.696-4.695 4.695 2.106 4.695 4.695-2.106 4.695-4.695 4.695zm0-6.391c-.936 0-1.696.761-1.696 1.695s.761 1.695 1.696 1.695 1.695-.761 1.695-1.695-.76-1.695-1.695-1.695z" fill="url(#SVGID_1_)" data-original="url(#SVGID_1_)"></path></g><g><path d="m64.001 104.046c-2.589 0-4.696-2.107-4.696-4.697 0-2.589 2.107-4.695 4.696-4.695s4.695 2.106 4.695 4.695-2.106 4.697-4.695 4.697zm0-6.393c-.936 0-1.696.761-1.696 1.695 0 .936.761 1.697 1.696 1.697s1.695-.762 1.695-1.697c0-.934-.76-1.695-1.695-1.695z" fill="url(#SVGID_1_)" data-original="url(#SVGID_1_)"></path></g></g><g><path d="m36.79 51.418c-.829 0-1.5-.671-1.5-1.5v-9.615l-5.767-6.424c-.553-.616-.502-1.565.114-2.118.617-.554 1.564-.502 2.118.114l6.15 6.852c.247.275.384.632.384 1.002v10.189c.001.829-.67 1.5-1.499 1.5z" fill="url(#SVGID_1_)" data-original="url(#SVGID_1_)"></path></g><g><path d="m109.388 60.771h-8.506c-.337 0-.665-.114-.93-.323l-7.799-6.158c-.65-.513-.761-1.457-.248-2.107s1.457-.761 2.107-.248l7.39 5.835h7.985c.829 0 1.5.671 1.5 1.5s-.671 1.501-1.499 1.501z" fill="url(#SVGID_1_)" data-original="url(#SVGID_1_)"></path></g><g><path d="m78.298 30.15h-11.102c-.829 0-1.5-.671-1.5-1.5s.671-1.5 1.5-1.5h10.518l5.587-5.122c.611-.559 1.56-.519 2.12.092s.518 1.56-.092 2.12l-6.018 5.516c-.276.254-.638.394-1.013.394z" fill="url(#SVGID_1_)" data-original="url(#SVGID_1_)"></path></g><g><path d="m86.691 105.095c-.318 0-.639-.101-.911-.309l-5.145-3.938h-13.44c-.829 0-1.5-.672-1.5-1.5s.671-1.5 1.5-1.5h13.948c.33 0 .65.108.912.309l5.548 4.246c.658.504.783 1.445.28 2.104-.295.386-.741.588-1.192.588z" fill="url(#SVGID_1_)" data-original="url(#SVGID_1_)"></path></g><g><path d="m93.083 77.472c-.358 0-.717-.127-1.003-.386-.616-.554-.665-1.503-.111-2.118l6.66-7.395c.285-.315.69-.496 1.115-.496h9.645c.829 0 1.5.672 1.5 1.5s-.671 1.5-1.5 1.5h-8.977l-6.213 6.898c-.298.33-.706.497-1.116.497z" fill="url(#SVGID_1_)" data-original="url(#SVGID_1_)"></path></g><g><path d="m33.593 80.907c-.325 0-.652-.105-.928-.322-1.094-.862-8.625-7.204-10.521-8.801h-3.341c-.829 0-1.5-.672-1.5-1.5s.671-1.5 1.5-1.5h3.889c.354 0 .696.125.967.354.097.081 9.675 8.154 10.863 9.092.65.513.762 1.456.25 2.106-.296.375-.735.571-1.179.571z" fill="url(#SVGID_1_)" data-original="url(#SVGID_1_)"></path></g><g><path d="m43.379 71.784h-3.394c-.357 0-.702-.127-.973-.358l-8.925-7.611h-11.717c-.829 0-1.5-.671-1.5-1.5s.671-1.5 1.5-1.5h12.27c.357 0 .702.127.973.359l8.925 7.611h2.841c.829 0 1.5.672 1.5 1.5s-.671 1.499-1.5 1.499z" fill="url(#SVGID_1_)" data-original="url(#SVGID_1_)"></path></g><g><path d="m90.634 40.086h-9.3c-.829 0-1.5-.671-1.5-1.5s.671-1.5 1.5-1.5h8.75l6.313-5.353c.632-.536 1.578-.458 2.114.174s.458 1.579-.174 2.114l-6.732 5.709c-.272.23-.616.356-.971.356z" fill="url(#SVGID_1_)" data-original="url(#SVGID_1_)"></path></g><g><path d="m43.379 106.214c-.829 0-1.5-.672-1.5-1.5v-9.195c0-.271.074-.539.214-.771l2.277-3.795c.426-.71 1.347-.942 2.058-.515.71.426.94 1.348.514 2.058l-2.063 3.439v8.779c0 .828-.671 1.5-1.5 1.5z" fill="url(#SVGID_1_)" data-original="url(#SVGID_1_)"></path></g><g><path d="m48.805 35.152c-.363 0-.728-.131-1.016-.397l-5.427-5.002c-.308-.284-.483-.684-.483-1.103v-5.359c0-.829.671-1.5 1.5-1.5s1.5.671 1.5 1.5v4.702l4.943 4.556c.609.562.648 1.51.086 2.12-.295.321-.699.483-1.103.483z" fill="url(#SVGID_1_)" data-original="url(#SVGID_1_)"></path></g><g><path d="m95.566 97.653c-.322 0-.646-.103-.919-.315l-8.469-6.583h-4.844c-.829 0-1.5-.672-1.5-1.5s.671-1.5 1.5-1.5h5.358c.333 0 .657.111.92.315l8.875 6.898c.654.509.772 1.451.264 2.105-.295.381-.737.58-1.185.58z" fill="url(#SVGID_1_)" data-original="url(#SVGID_1_)"></path></g></g></g></g></g></svg>