<?xml version="1.0" encoding="utf-8"?>
<!-- Generator: Adobe Illustrator 23.0.5, SVG Export Plug-In . SVG Version: 6.00 Build 0)  -->
<svg version="1.1" id="Layer_1" xmlns:svgjs="http://svgjs.com/svgjs"
	 xmlns="http://www.w3.org/2000/svg" xmlns:xlink="http://www.w3.org/1999/xlink" x="0px" y="0px" viewBox="0 0 512 512"
	 style="enable-background:new 0 0 512 512;" xml:space="preserve">
<style type="text/css">
	.st0{fill:#F26622;}
	.st1{fill:#133551;}
	.st2{fill:#53D8D8;}
	.st3{fill:#182D41;}
	.st4{fill:#4CA987;}
	.st5{fill:#F58387;}
	.st6{fill:#A0EAEA;}
	.st7{fill:#4A5160;}
	.st8{fill:#5FA8ED;}
	.st9{fill:#B0B5CA;}
	.st10{fill:#F3CE7D;}
	.st11{fill:#399694;}
	.st12{fill:#5FCDA4;}
	.st13{fill:#74E2B5;}
	.st14{fill:#FFD8B7;}
	.st15{fill:#DBBAA2;}
	.st16{fill:#F4F8FC;}
</style>
<g>
	<path class="st0" d="M31.5,9.5l0,322l50.7,21.9l156.5-4.7l0.1-339.2L31.5,9.5z"/>
	<path class="st1" d="M63.1,9.5H31.5l0,322l31.6,13.7L63.1,9.5z"/>
	<path class="st2" d="M391.7,261.3h-92.6c-17.4,0-31.6,13.7-31.6,31.1v78.1l155.9,0.5v-78.6C423.5,274.9,409.2,261.3,391.7,261.3z"
		/>
	<path class="st3" d="M122.4,93.1h26.5v25.7h-26.5V93.1z"/>
	<path class="st3" d="M122.4,38.5h25.6v25.7h-25.6V38.5z"/>
	<path class="st3" d="M183.9,38.5h25.6v25.7h-25.6V38.5z"/>
	<path class="st4" d="M256.7,134.3l41.6,8.3c2.7,0.5,4.5,3.2,4,5.9c-3.5,17.2-14.2,32.2-29.4,41.1l-23.6-41.1
		C254,145.2,256.7,139.9,256.7,134.3z"/>
	<path class="st5" d="M272.9,189.6c-10.1,6-21.6,9.1-33.4,9.1c-0.5,0-1,0-1.6,0c-6.3-0.1-12.6-1.2-18.6-3.1l12.2-45.8
		c5.7,2.9,12.5,2.4,17.7-1.3L272.9,189.6z"/>
	<path class="st6" d="M256.7,134.3c0,5.7-2.8,11-7.4,14.2c-5.2,3.6-12,4.1-17.7,1.3v0c-8.5-4.3-11.9-14.7-7.6-23.3
		c2.9-5.8,8.9-9.5,15.4-9.5c1,0,2,0.1,3,0.3C250.7,118.7,256.7,125.9,256.7,134.3z"/>
	<path class="st3" d="M60.8,93.1h25.6v25.7H60.8V93.1z"/>
	<path class="st7" d="M444.7,129.8l-19.7,19l-18.4-8.2l18.1-19.2L444.7,129.8z"/>
	<path class="st2" d="M377.6,171.3c17.6,17,18,45.1,1,62.7c-17,17.6-45.1,18-62.7,1c-17.6-17-18-45.1-1-62.7
		c8.3-8.6,19.8-13.5,31.8-13.5C358.3,158.8,369.3,163.3,377.6,171.3z"/>
	<path class="st3" d="M60.8,38.5h25.6v25.7H60.8V38.5z"/>
	<path class="st8" d="M248.7,70.6c2.8,0.4,4.7,3,4.3,5.8c0,0.2-0.1,0.4-0.1,0.5l-10.4,40.4c-1-0.2-2-0.3-3-0.3
		c-9.6,0-17.3,7.8-17.3,17.3c0,6.5,3.7,12.5,9.5,15.4v0l-12.2,45.8c-33.8-11.1-52.2-47.6-41.1-81.4c8.6-26.1,32.9-43.9,60.4-44.3
		c0.2,0,0.5,0,0.7,0C242.5,69.9,245.6,70.1,248.7,70.6z"/>
	<path class="st9" d="M418.5,99.6l6.1,21.8l-18.1,19.2l-1.7-0.7l-6.8-20.5L418.5,99.6z"/>
	<path class="st10" d="M330,7.3l48,61.1h-27.6v62.2h-44.2V68.4h-27L330,7.3z"/>
	<path class="st11" d="M363,186.8c8.9,8.9,8.8,23.3-0.1,32.2c-8.9,8.9-23.3,8.8-32.2-0.1c-8.9-8.9-8.8-23.3,0.1-32.2
		c4.3-4.3,10.1-6.6,16.1-6.6C352.9,180.1,358.7,182.5,363,186.8z"/>
	<path class="st12" d="M175.6,191.7h-81c-6.7-0.2-12.3,5.2-12.5,11.9c0,0.1,0,0.2,0,0.3v147.9l53.8,29.7l52.7-38.1V204
		C188.5,197,182.6,191.7,175.6,191.7L175.6,191.7z"/>
	<path class="st4" d="M188.2,204v18.3c-3,1.4-6.3,2.2-9.7,2.2c-12.7,0-23.1-10.4-23-23.2c0-3.4,0.8-6.8,2.3-9.9h17.8
		C182.6,191.4,188.2,197,188.2,204C188.2,204,188.2,204,188.2,204L188.2,204z"/>
	<path class="st4" d="M170.1,279.3c0.1,19.3-15.4,35-34.7,35.2c-19.3,0.1-35-15.4-35.2-34.7c-0.1-19.3,15.4-35,34.7-35.2
		c0.1,0,0.2,0,0.3,0C154.4,244.5,170,260.1,170.1,279.3C170.1,279.3,170.1,279.3,170.1,279.3z"/>
	<path class="st4" d="M113,191.4c5.5,11.5,0.7,25.3-10.8,30.8c-3.1,1.5-6.5,2.3-9.9,2.3c-3.5,0-7-0.7-10.3-2.2V204
		c0-7,5.7-12.6,12.6-12.6c0,0,0,0,0,0H113z"/>
	<path class="st4" d="M115.3,356.7c0,3.6-1,9.7-2.4,12.7l-30.9-17v-16.6c3.2-1.4,6.7-2.2,10.3-2.2
		C105,333.6,115.3,343.9,115.3,356.7C115.3,356.7,115.3,356.7,115.3,356.7L115.3,356.7z"/>
	<path class="st13" d="M161.9,278.7c0-3.2-2.3-5.8-5.5-6.3c-3.7-7-12.4-9.7-19.4-6c-4.7,2.5-7.6,7.3-7.6,12.6c0,0.9-0.8,1.7-1.8,1.7
		c-0.9,0-1.6-0.8-1.7-1.7c0-0.5,0.2-1,0.7-1.3c2.8-2.1,3.3-6.1,1.2-8.9c-2.1-2.8-6.1-3.3-8.9-1.2l0,0c-1.8,1.4-3.3,3.2-4.3,5.2
		c-3.4,0.7-5.6,4.1-4.9,7.5c0.5,2.4,2.4,4.3,4.9,4.9c3.4,7.1,12,10.1,19.2,6.7c4.9-2.4,8.1-7.4,8.1-12.9c0-0.9,0.8-1.7,1.8-1.7
		c0.9,0,1.6,0.8,1.7,1.7c0,0.5-0.2,1-0.7,1.3c-2.8,2.1-3.4,6-1.3,8.8c2.1,2.8,6,3.4,8.8,1.3c0,0,0.1-0.1,0.1-0.1
		c1.9-1.5,3.4-3.4,4.4-5.6C159.8,284.3,161.9,281.7,161.9,278.7L161.9,278.7z"/>
	<path class="st3" d="M349.2,207.8c-3.5,0-6.3-2.8-6.3-6.3c0-1.6,0.6-3.2,1.7-4.3l53.7-57.1l-6.2-18.8c-0.8-2.3-0.1-4.9,1.6-6.5
		l20.4-19.7c2.5-2.4,6.5-2.4,8.9,0.2c0.7,0.8,1.3,1.7,1.5,2.7l5.3,18.8l17.3,7.2c3.2,1.3,4.7,5,3.4,8.3c-0.3,0.8-0.8,1.5-1.5,2.1
		l-19.7,19c-1.9,1.8-4.6,2.3-6.9,1.2l-14.4-6.4l-54.3,57.7C352.6,207.1,350.9,207.8,349.2,207.8L349.2,207.8z M417.2,138.4l6.4,2.8
		l9.7-9.3l-7.2-3L417.2,138.4z M405.3,121.1l2.8,8.5l9.4-10l-2.3-8.2L405.3,121.1z"/>
	<g>
		<path class="st3" d="M415.9,199.7L415.9,199.7l-8.2-0.1c-3.5,0-6.3-2.9-6.3-6.4c0-3.5,2.9-6.3,6.4-6.3l8.2,0.1
			c3.5,0,6.3,2.9,6.3,6.4C422.2,196.9,419.4,199.7,415.9,199.7L415.9,199.7z"/>
		<path class="st3" d="M481.4,200.3L481.4,200.3l-48-0.5c-3.5,0-6.3-2.9-6.3-6.4c0-3.5,2.9-6.3,6.4-6.3h0.1l47.9,0.5
			c3.5,0,6.3,2.9,6.3,6.4C487.7,197.5,484.9,200.3,481.4,200.3L481.4,200.3z"/>
		<path class="st3" d="M484.4,233.9L484.4,233.9l-8.2-0.1c-3.5,0-6.3-2.9-6.3-6.4c0-3.5,2.9-6.3,6.4-6.3h0.1l8.2,0.1
			c3.5,0,6.3,2.9,6.3,6.4C490.7,231.1,487.9,233.9,484.4,233.9L484.4,233.9L484.4,233.9z"/>
		<path class="st3" d="M458.7,233.6L458.7,233.6l-37.9-0.5c-3.5,0-6.3-2.9-6.3-6.4c0-3.5,2.9-6.3,6.4-6.3h0.1l37.8,0.5
			c3.5,0,6.3,2.9,6.3,6.4C465.1,230.8,462.2,233.6,458.7,233.6L458.7,233.6z"/>
		<path class="st3" d="M449.4,273.9L449.4,273.9l-8.2-0.1c-3.5,0-6.3-2.9-6.3-6.4s2.9-6.3,6.4-6.3l0,0h0.1l8.2,0.1
			c3.5,0,6.3,2.9,6.3,6.4S452.9,273.9,449.4,273.9L449.4,273.9L449.4,273.9z"/>
		<path class="st3" d="M504.7,274.5L504.7,274.5l-37.9-0.5c-3.5,0-6.3-2.9-6.3-6.4c0-3.5,2.9-6.3,6.4-6.3l0,0h0.1l37.8,0.5
			c3.5,0,6.3,2.9,6.3,6.4C511,271.7,508.2,274.5,504.7,274.5z"/>
	</g>
	<path class="st0" d="M135.8,483.4c-1.3,0-2.6-0.4-3.7-1.2l-13.7-9.8c-2.9-2-3.6-5.9-1.6-8.8c2-2.9,5.9-3.6,8.8-1.6
		c0,0,0.1,0,0.1,0.1l13.7,9.8c2.8,2,3.5,6,1.5,8.8C139.8,482.4,137.8,483.4,135.8,483.4L135.8,483.4z M108.4,463.8
		c-1.3,0-2.6-0.4-3.7-1.2L91,452.8c-2.8-2-3.5-6-1.5-8.8c2-2.8,6-3.5,8.8-1.5l0,0l13.7,9.8c2.8,2,3.5,6,1.5,8.8
		C112.3,462.8,110.4,463.8,108.4,463.8z M80.9,444.2c-1.3,0-2.6-0.4-3.7-1.2l-13.7-9.8c-2.8-2-3.5-6-1.5-8.8c2-2.8,6-3.5,8.8-1.5
		l13.7,9.8c2.8,2,3.5,6,1.5,8.8C84.9,443.2,83,444.2,80.9,444.2L80.9,444.2z M53.5,424.7c-1.3,0-2.6-0.4-3.7-1.2l-13.7-9.8
		c-2.8-2-3.5-6-1.5-8.8c2-2.8,6-3.5,8.8-1.5l0,0l13.7,9.8c2.8,2,3.5,6,1.5,8.8C57.4,423.7,55.5,424.7,53.5,424.7L53.5,424.7z
		 M26,405.1c-1.3,0-2.6-0.4-3.7-1.2l-13.7-9.8c-2.8-2-3.5-6-1.5-8.8s6-3.5,8.8-1.5l0,0l13.7,9.8c2.8,2,3.5,6,1.5,8.8
		C30,404.1,28.1,405.1,26,405.1L26,405.1z"/>
	<path class="st14" d="M423.3,371c-10.1-2.2-19.4-7.1-27.1-14l-15-13.6c-29.8-23-70.1-27-103.8-10.3l-6.2,3.1
		c-1.2,0.6-2.4,1.1-3.6,1.6c-8.7,3.7-18.1,5.6-27.6,5.6h-60.2c-22.3,0-40.8,16.6-44.2,38.4L50.4,335c-5.8-3.2-12.3-4.7-18.9-4.4
		c-12.2,0.6-23.2,7.3-29.4,17.8l156.5,109.4c21,10.6,45,14.1,68.1,9.8l90.4-17c8.3-2.1,17.1-0.9,24.6,3.3l49,31.5l34.2-114.2
		C424.4,371.2,423.8,371.1,423.3,371L423.3,371z"/>
	<g id="_Path_">
		<path class="st15" d="M135.2,395.3c-3.5,0-6.3-2.8-6.3-6.3c0-28.6,22.9-51.9,51.1-51.9h60.2c9.8,0,19.5-2.3,28.4-6.6l6.2-3.1
			c35.9-17.8,78.8-13.5,110.4,11c0.1,0.1,0.3,0.2,0.4,0.3l15,13.6c7.2,6.5,16.1,10.9,25.6,12.8c3.4,0.7,5.7,4,5,7.4
			c-0.7,3.4-3.9,5.7-7.4,5c-11.8-2.3-22.8-7.8-31.7-15.8l-14.8-13.4c-27.8-21.4-65.5-25.1-97-9.5l-6.2,3.1
			c-10.6,5.2-22.2,7.9-33.9,7.9h-60.2c-19,0-34.8,14.1-37.9,32.6l44.2-2c15.8-0.7,31.7,0,47.4,2.2c3.5,0.5,5.9,3.7,5.4,7.1
			c-0.5,3.5-3.7,5.9-7.1,5.4c-14.9-2.1-30-2.8-45.1-2.1l-51.3,2.4C135.4,395.3,135.3,395.3,135.2,395.3L135.2,395.3z"/>
	</g>
	<path class="st3" d="M435.3,336.6l-44.6,149l-1.3,19.2h94.2l24.2-168.2L435.3,336.6z"/>
	<path class="st16" d="M453.2,372.2c-3.5,0-6.3-2.8-6.3-6.3c0-0.7,0.1-1.3,0.3-2l1.1-3.4c1.1-3.3,4.7-5.1,8-4c3.3,1.1,5.1,4.7,4,8
		l-1.1,3.4C458.4,370.4,456,372.2,453.2,372.2L453.2,372.2z"/>
	<path class="st16" d="M434.5,429.6c-3.5,0-6.3-2.8-6.3-6.3c0-0.7,0.1-1.3,0.3-2L441,383c1.1-3.3,4.7-5.1,8-4c3.3,1.1,5.1,4.7,4,8
		l-12.5,38.4C439.6,427.9,437.2,429.6,434.5,429.6z"/>
</g>
</svg>
