<?xml version="1.0" encoding="utf-8"?>
<!-- Generator: Adobe Illustrator 23.0.5, SVG Export Plug-In . SVG Version: 6.00 Build 0)  -->
<svg version="1.1" id="Layer_1" xmlns:svgjs="http://svgjs.com/svgjs"
	 xmlns="http://www.w3.org/2000/svg" xmlns:xlink="http://www.w3.org/1999/xlink" x="0px" y="0px" viewBox="0 0 512 512"
	 style="enable-background:new 0 0 512 512;" xml:space="preserve">
<style type="text/css">
	.st0{fill:#C0E5F2;}
	.st1{fill:#99C9D6;}
	.st2{fill:#182D41;}
	.st3{fill:#FFFFFF;}
	.st4{fill:#FFD15B;}
	.st5{fill:#F26622;}
	.st6{fill:#FE646F;}
	.st7{fill:#BBEC6C;}
</style>
<g>
	<g>
		<path class="st0" d="M419.9,35.7v389.6c0,0-338.7,68.5-357.5,69c-0.3,0-0.6,0-0.9,0h0c-9.5,0-18.2-3.9-24.4-10.1
			C30.9,478,27,469.3,27,459.8V35.7c0-10,8.1-18.1,18.1-18.1h356.8C411.9,17.7,419.9,25.7,419.9,35.7L419.9,35.7z"/>
		<path class="st1" d="M419.9,415.3v10c0,0-338.7,68.5-357.5,69c-0.3,0-0.6,0-0.9,0h0c-9.5,0-18.2-3.9-24.4-10.1
			C30.9,478,27,469.3,27,459.8v-44.5L419.9,415.3L419.9,415.3z"/>
		<g>
			<path class="st2" d="M449.1,361.3l-12.3-7.1c1.1-4.9,1.6-10,1.6-15.2c0-5.2-0.6-10.3-1.6-15.2l12.3-7.1
				c6.2-3.6,8.3-11.5,4.7-17.7l-8.7-15.1c-3.6-6.2-11.5-8.3-17.7-4.8l-12.3,7.1c-7.5-6.8-16.4-12.1-26.3-15.2v-14.2
				c0-7.2-5.8-13-13-13h-17.4c-7.2,0-13,5.8-13,13V271c-9.9,3.2-18.8,8.4-26.3,15.2l-12.3-7.1c-6.2-3.6-14.1-1.5-17.7,4.8l-8.7,15.1
				c-3.6,6.2-1.5,14.1,4.7,17.7l12.3,7.1c-1.1,4.9-1.6,10-1.6,15.2c0,5.2,0.6,10.3,1.6,15.2l-12.3,7.1c-6.2,3.6-8.3,11.5-4.7,17.7
				l8.7,15.1c3.6,6.2,11.5,8.3,17.7,4.8l12.3-7.1c7.5,6.8,16.4,12.1,26.3,15.2v14.2c0,7.2,5.8,13,13,13h17.4c7.2,0,13-5.8,13-13V407
				c9.9-3.2,18.8-8.4,26.3-15.2l12.3,7.1c6.2,3.6,14.1,1.5,17.7-4.8l8.7-15.1C457.4,372.8,455.3,364.9,449.1,361.3z M367.1,369.1
				c-16.6,0-30.1-13.5-30.1-30.1c0-16.7,13.5-30.1,30.1-30.1c16.7,0,30.1,13.5,30.1,30.1C397.3,355.6,383.8,369.1,367.1,369.1z"/>
		</g>
		<path class="st0" d="M470.9,425.3c10,0,18.1,8.1,18.1,18.1v16.5c0,9.5-3.9,18.2-10.1,24.4c-6.3,6.2-14.9,10.1-24.4,10.1H61.5
			c19.1,0,34.5-15.5,34.5-34.5v-16.5c0-10,8.1-18.1,18.1-18.1H470.9z"/>
		<g>
			<path class="st2" d="M242.4,53.9c-4,0-7.2,3.2-7.2,7.2v42c0,1.3-0.7,2.5-1.7,3c-1.9,1-4.3-1.1-4.6-1.3c-2.9-2.7-7.5-2.5-10.2,0.5
				c-2.7,2.9-2.5,7.5,0.5,10.2c3.3,3,8,5.4,13.1,5.4c2.6,0,5.4-0.6,8.1-2.1c5.6-3.1,9.1-9.1,9.1-15.6v-42
				C249.6,57.1,246.4,53.9,242.4,53.9z"/>
			<path class="st2" d="M289.5,68.7c4,0,7.2-3.2,7.2-7.2s-3.2-7.2-7.2-7.2h-21.9c-4,0-7.2,3.2-7.2,7.2v52c0,4,3.2,7.2,7.2,7.2h21.9
				c4,0,7.2-3.2,7.2-7.2c0-4-3.2-7.2-7.2-7.2h-14.7V94.8h13.1c4,0,7.2-3.2,7.2-7.2s-3.2-7.2-7.2-7.2h-13.1V68.7L289.5,68.7z"/>
			<path class="st2" d="M354.6,100.7c-3-2.6-7.6-2.2-10.1,0.9c-0.4,0.5-0.9,1-1.4,1.4c-2.5,2.3-5.8,3.4-9.6,3.4
				c-10.5,0-19.1-8.6-19.1-19.1s8.6-19.1,19.1-19.1c3.8,0,7.5,1.1,10.7,3.3c3.3,2.2,7.8,1.4,10-1.9c2.2-3.3,1.4-7.8-1.9-10
				c-5.5-3.7-12-5.7-18.7-5.7c-18.4,0-33.5,15-33.5,33.5s15,33.5,33.5,33.5c7.4,0,14-2.4,19.2-7c1-0.9,2-1.9,2.9-2.9
				C358,107.8,357.6,103.2,354.6,100.7z"/>
			<path class="st2" d="M397.5,53.9h-29c-4,0-7.2,3.2-7.2,7.2s3.2,7.2,7.2,7.2h7.3v45.3c0,4,3.2,7.2,7.2,7.2s7.2-3.2,7.2-7.2V68.3
				h7.4c4,0,7.2-3.2,7.2-7.2S401.5,53.9,397.5,53.9L397.5,53.9z"/>
			<path class="st2" d="M144.2,74.7c0-11.5-9.7-20.8-21.6-20.8h-14c-1.9,0-3.7,0.8-5.1,2.1c-1.3,1.4-2.1,3.2-2.1,5.1
				c0,0,0,52.5,0,52.5c0,4,3.2,7.2,7.2,7.2c4,0,7.2-3.2,7.2-7.2v-13.2l15.8,18c1.4,1.6,3.4,2.4,5.4,2.4c1.7,0,3.4-0.6,4.8-1.8
				c3-2.6,3.3-7.2,0.6-10.2l-12.7-14.4C138.1,91.6,144.2,83.8,144.2,74.7z M122.6,81.2c-1.6,0-4.2,0-6.7,0c0-2.5,0-10.4,0-12.9h6.7
				c3.9,0,7.2,3,7.2,6.5S126.5,81.2,122.6,81.2z"/>
			<path class="st2" d="M71.8,53.9H57.1c-1.9,0-3.7,0.8-5.1,2.1c-1.3,1.4-2.1,3.2-2.1,5.1v52.5c0,4,3.2,7.2,7.2,7.2s7.2-3.2,7.2-7.2
				V97.9c2.8,0,5.7,0,7.4,0c12.3,0,22.3-9.9,22.3-22S84.1,53.9,71.8,53.9z M71.8,83.5c-1.7,0-4.6,0-7.4,0c0-2.9,0-12.3,0-15.3h7.4
				c4.3,0,7.9,3.5,7.9,7.6C79.7,80,76,83.5,71.8,83.5z"/>
			<path class="st2" d="M182.1,53.9c-18.4,0-33.5,15-33.5,33.5s15,33.5,33.5,33.5s33.5-15,33.5-33.5S200.5,53.9,182.1,53.9z
				 M182.1,106.4c-10.5,0-19.1-8.6-19.1-19.1s8.6-19.1,19.1-19.1c10.5,0,19.1,8.6,19.1,19.1S192.6,106.4,182.1,106.4z"/>
		</g>
		<path class="st3" d="M373.7,149.6H73.2c-4,0-7.2-3.2-7.2-7.2c0-4,3.2-7.2,7.2-7.2h300.4c4,0,7.2,3.2,7.2,7.2
			C380.9,146.4,377.7,149.6,373.7,149.6z"/>
		<path class="st4" d="M200.3,280.2H80.1c-11.2,0-20.2-9.1-20.2-20.2v-64.8c0-11.2,9.1-20.2,20.2-20.2h120.3
			c11.2,0,20.2,9.1,20.2,20.2v64.8C220.6,271.1,211.5,280.2,200.3,280.2L200.3,280.2z"/>
		<path class="st5" d="M387.1,209.9h-134c-4,0-7.2-3.2-7.2-7.2s3.2-7.2,7.2-7.2h134c4,0,7.2,3.2,7.2,7.2S391,209.9,387.1,209.9z"/>
		<path class="st5" d="M335.4,237.6h-82.3c-4,0-7.2-3.2-7.2-7.2c0-4,3.2-7.2,7.2-7.2h82.3c4,0,7.2,3.2,7.2,7.2
			C342.6,234.4,339.4,237.6,335.4,237.6z"/>
		<g>
			<path class="st5" d="M253.1,319.9H59.8c-4,0-7.2-3.2-7.2-7.2s3.2-7.2,7.2-7.2h193.3c4,0,7.2,3.2,7.2,7.2S257.1,319.9,253.1,319.9
				L253.1,319.9z"/>
			<path class="st5" d="M253.1,375.4H59.8c-4,0-7.2-3.2-7.2-7.2c0-4,3.2-7.2,7.2-7.2h193.3c4,0,7.2,3.2,7.2,7.2
				C260.3,372.2,257.1,375.4,253.1,375.4L253.1,375.4z"/>
			<path class="st5" d="M152.6,403.9H59.8c-4,0-7.2-3.2-7.2-7.2c0-4,3.2-7.2,7.2-7.2h92.8c4,0,7.2,3.2,7.2,7.2
				C159.8,400.7,156.6,403.9,152.6,403.9z"/>
		</g>
		<g>
			<path class="st6" d="M84.5,228.5h44.9v28.7H84.5V228.5z"/>
			<path class="st7" d="M151.1,202h44.9v55.2h-44.9V202z"/>
		</g>
		<path class="st5" d="M265.6,347.6H59.8c-4,0-7.2-3.2-7.2-7.2s3.2-7.2,7.2-7.2h205.7c4,0,7.2,3.2,7.2,7.2S269.5,347.6,265.6,347.6z
			"/>
	</g>
</g>
</svg>
