<svg xmlns="http://www.w3.org/2000/svg" version="1.1" xmlns:xlink="http://www.w3.org/1999/xlink" xmlns:svgjs="http://svgjs.com/svgjs" width="512" height="512" x="0" y="0" viewBox="0 0 64 64" style="enable-background:new 0 0 512 512" xml:space="preserve" class=""><g transform="matrix(1.0599999999999998,0,0,1.0599999999999998,-1.9199999999999946,-1.9199999999999946)"><path xmlns="http://www.w3.org/2000/svg" d="M32,2A30,30,0,1,0,62,32,30.034,30.034,0,0,0,32,2Zm0,54A24,24,0,1,1,56,32,24.028,24.028,0,0,1,32,56ZM54.992,19.88l1.734-1a27.819,27.819,0,0,1,2.044,4.913l-1.932.517A25.789,25.789,0,0,0,54.992,19.88Zm-1-1.73a26.1,26.1,0,0,0-2.922-3.8l1.414-1.414a28.157,28.157,0,0,1,3.241,4.216Zm-4.336-5.216a26.1,26.1,0,0,0-3.8-2.922l1-1.733a28.157,28.157,0,0,1,4.216,3.241ZM44.12,9.008a25.789,25.789,0,0,0-4.429-1.846l.517-1.932a27.819,27.819,0,0,1,4.913,2.044ZM37.758,6.65A25.975,25.975,0,0,0,33,6.025v-2a27.936,27.936,0,0,1,5.275.693ZM31,6.025a25.975,25.975,0,0,0-4.758.625l-.517-1.932A27.936,27.936,0,0,1,31,4.025ZM24.309,7.162A25.789,25.789,0,0,0,19.88,9.008l-1-1.734A27.819,27.819,0,0,1,23.792,5.23Zm-6.159,2.85a26.1,26.1,0,0,0-3.8,2.922L12.934,11.52A28.157,28.157,0,0,1,17.15,8.279Zm-5.216,4.336a26.1,26.1,0,0,0-2.922,3.8l-1.733-1a28.157,28.157,0,0,1,3.241-4.216ZM9.008,19.88a25.789,25.789,0,0,0-1.846,4.429L5.23,23.792a27.819,27.819,0,0,1,2.044-4.913ZM6.65,26.242A25.975,25.975,0,0,0,6.025,31h-2a27.936,27.936,0,0,1,.693-5.275ZM6.025,33a25.975,25.975,0,0,0,.625,4.758l-1.932.517A27.936,27.936,0,0,1,4.025,33Zm1.137,6.691A25.789,25.789,0,0,0,9.008,44.12l-1.734,1A27.819,27.819,0,0,1,5.23,40.208Zm2.85,6.159a26.1,26.1,0,0,0,2.922,3.8L11.52,51.066A28.157,28.157,0,0,1,8.279,46.85Zm4.336,5.216a26.1,26.1,0,0,0,3.8,2.922l-1,1.733a28.157,28.157,0,0,1-4.216-3.241Zm5.532,3.926a25.789,25.789,0,0,0,4.429,1.846l-.517,1.932a27.819,27.819,0,0,1-4.913-2.044Zm6.362,2.358A25.975,25.975,0,0,0,31,57.975v2a27.936,27.936,0,0,1-5.275-.693ZM33,57.975a25.975,25.975,0,0,0,4.758-.625l.517,1.932A27.936,27.936,0,0,1,33,59.975Zm6.691-1.137a25.789,25.789,0,0,0,4.429-1.846l1,1.734a27.819,27.819,0,0,1-4.913,2.044Zm6.159-2.85a26.1,26.1,0,0,0,3.8-2.922l1.414,1.414a28.157,28.157,0,0,1-4.216,3.241Zm5.216-4.336a26.1,26.1,0,0,0,2.922-3.8l1.733,1a28.157,28.157,0,0,1-3.241,4.216Zm3.926-5.532a25.789,25.789,0,0,0,1.846-4.429l1.932.517a27.819,27.819,0,0,1-2.044,4.913Zm2.358-6.362A25.975,25.975,0,0,0,57.975,33h2a27.936,27.936,0,0,1-.693,5.275ZM57.975,31a25.975,25.975,0,0,0-.625-4.758l1.932-.517A27.936,27.936,0,0,1,59.975,31Z" fill="#ffffff" data-original="#000000"></path><path xmlns="http://www.w3.org/2000/svg" d="M22.808,31.293,18.565,27.05a1,1,0,0,0-1.414,0l-4.243,4.243a1,1,0,0,0,0,1.414l4.243,4.243a1,1,0,0,0,1.414,0l4.243-4.243A1,1,0,0,0,22.808,31.293Zm-4.95,3.536L15.029,32l2.829-2.829L20.687,32Z" fill="#ffffff" data-original="#000000"></path><path xmlns="http://www.w3.org/2000/svg" d="M31.293,27.05,27.05,31.293a1,1,0,0,0,0,1.414l4.243,4.243a1,1,0,0,0,1.414,0l4.243-4.243a1,1,0,0,0,0-1.414L32.707,27.05A1,1,0,0,0,31.293,27.05ZM32,34.829,29.171,32,32,29.171,34.829,32Z" fill="#ffffff" data-original="#000000"></path><path xmlns="http://www.w3.org/2000/svg" d="M51.092,31.293,46.849,27.05a1,1,0,0,0-1.414,0l-4.243,4.243a1,1,0,0,0,0,1.414l4.243,4.243a1,1,0,0,0,1.414,0l4.243-4.243A1,1,0,0,0,51.092,31.293Zm-4.95,3.536L43.313,32l2.829-2.829L48.971,32Z" fill="#ffffff" data-original="#000000"></path><path xmlns="http://www.w3.org/2000/svg" d="M24.222,29.878a1,1,0,0,0,1.414,0L32,23.515l6.364,6.363a1,1,0,0,0,1.414,0l4.243-4.242a1,1,0,0,0,0-1.414L32.707,12.908a1,1,0,0,0-1.414,0L19.979,24.222a1,1,0,0,0,0,1.414ZM32,15.029l9.9,9.9-2.828,2.828-6.364-6.363a1,1,0,0,0-1.414,0l-6.364,6.363L22.1,24.929Z" fill="#ffffff" data-original="#000000"></path><path xmlns="http://www.w3.org/2000/svg" d="M39.778,34.122a1,1,0,0,0-1.414,0L32,40.485l-6.364-6.363a1.029,1.029,0,0,0-1.414,0l-4.243,4.242a1,1,0,0,0,0,1.414L31.293,51.092a1,1,0,0,0,1.414,0L44.021,39.778a1,1,0,0,0,0-1.414ZM32,48.971l-9.9-9.9,2.828-2.828,6.364,6.363a1,1,0,0,0,1.414,0l6.364-6.363L41.9,39.071Z" fill="#ffffff" data-original="#000000"></path></g></svg>