<?xml version="1.0" encoding="utf-8"?>
<!-- Generator: Adobe Illustrator 23.0.5, SVG Export Plug-In . SVG Version: 6.00 Build 0)  -->
<svg version="1.1" id="Layer_1" xmlns:svgjs="http://svgjs.com/svgjs"
	 xmlns="http://www.w3.org/2000/svg" xmlns:xlink="http://www.w3.org/1999/xlink" x="0px" y="0px" viewBox="0 0 512 512"
	 style="enable-background:new 0 0 512 512;" xml:space="preserve">
<style type="text/css">
	.st0{fill:#E83D62;}
	.st1{fill:#CE2955;}
	.st2{fill:#46CC6B;}
	.st3{fill:#179C5F;}
	.st4{fill:#FCB73E;}
	.st5{fill:#FD982E;}
	.st6{opacity:0.2;}
	.st7{fill:#FFFFFF;}
	.st8{fill:#65B9FF;}
	.st9{fill:#3E7FFF;}
</style>
<g>
	<g id="_x32_3">
		<g>
			<g>
				<g>
					<g>
						<path class="st0" d="M487.4,162.9c-0.6,1-36.1,67-33.8,62.8c-2.7,5-9.1,6.9-14.1,4.2l-62.8-34.1c-8.1-4.4-6.9-16.5,2-19.1
							l15.8-4.7c-19.8-53.4-55.4-94.1-132.4-106.6c-6.3-1-7.1-9.8-1-11.8c5.1-1.7,10.2-3.1,15.1-4.5
							c138.7-34.6,183.3,103.5,183.3,103.5l15.8-4.7C484.2,145.3,491.9,154.8,487.4,162.9z"/>
					</g>
				</g>
				<g>
					<g>
						<path class="st1" d="M394.4,172C374.5,118.6,339,77.8,262.1,65.4c-6.3-1-7.2-9.8-1.1-11.8c5.2-1.7,10.3-3.2,15.2-4.4
							c0.9-0.2,1.9-0.4,2.8-0.7c-5.6,2-11.5,4.3-17.4,6.9c94.2,7.2,135,50.7,156.8,109.4L394.4,172z"/>
					</g>
				</g>
				<g>
					<g>
						<path class="st1" d="M457.1,219.2c-0.9,1.6-2.7,5-3.5,6.4c-2.7,5.1-9.1,7-14.1,4.2l-62.7-34c-8.2-4.4-6.9-16.5,2-19.1l0,0
							L457.1,219.2z"/>
					</g>
				</g>
			</g>
			<g>
				<g>
					<g>
						<path class="st2" d="M233.3,459c4.9-1.3,10-2.7,15.2-4.4c6.1-2,5.2-10.8-1.1-11.8c-77-12.4-112.5-53.2-132.3-106.6l15.7-4.7
							c8.9-2.6,10.2-14.7,2-19.1l-62.8-34c-5.1-2.7-11.4-0.9-14.1,4.2l-1.6,3L22,345.3c-4.4,8.2,3.2,17.6,12.1,14.9l15.8-4.7
							C50,355.5,94.6,493.6,233.3,459L233.3,459z"/>
					</g>
				</g>
				<g>
					<g>
						<path class="st3" d="M115.1,336.2c19.8,53.4,55.3,94.2,132.3,106.5c6.3,1,7.2,9.8,1.1,11.8c-5.2,1.7-10.3,3.2-15.2,4.4
							c-0.9,0.2-1.9,0.4-2.8,0.7c5.6-2,11.5-4.3,17.4-6.9c-94.2-7.2-135-50.7-156.8-109.4L115.1,336.2z"/>
					</g>
				</g>
				<g>
					<g>
						<path class="st3" d="M52.5,289l1.9-3.5l1.6-3c2.7-5.1,9.1-7,14.1-4.2l62.7,34c8.2,4.4,6.9,16.5-2,19.1l0,0L52.5,289z"/>
					</g>
				</g>
			</g>
			<g>
				<g>
					<g>
						<g>
							<path class="st4" d="M480.6,460.5c-26.4,33.3-66.9,50.2-109.2,46.7c-61.5-5.4-112.5-57.9-112.5-123.6
								c0-71.7,60.8-129.9,135.9-123.6c29.8,2.7,56.9,16.3,76.9,36.9c18.1,18.3,30.6,42.3,34.4,68.8
								C511,401.3,501,434.6,480.6,460.5z"/>
						</g>
					</g>
					<g>
						<g>
							<path class="st5" d="M399.6,506.6c-9.2,1.3-18.5,1.5-28.1,0.6c-61.5-5.4-112.5-57.9-112.5-123.6
								c0-71.7,60.8-129.9,135.9-123.6c1.7,0.2,3.1,0.4,4.8,0.6c-64.1,8.8-107.7,62.9-107.7,123
								C291.8,447.4,340.1,499.1,399.6,506.6z"/>
						</g>
					</g>
					<g class="st6">
						<g>
							<g>
								<path class="st7" d="M480.6,460.5c-7.3-8.1-16.5-14.6-25.6-20.6c-12.7-8.8-26.3-16.7-36.7-28.3
									c-10.2-11.7-17.1-27.5-13.8-42.7c2.7-13.3,13.1-24,24.2-32.3c16.3-12.2,33.7-21.1,42.9-39.6c18.1,18.3,30.6,42.3,34.4,68.8
									C511,401.3,501,434.6,480.6,460.5z"/>
							</g>
						</g>
					</g>
				</g>
				<g>
					<g>
						<path class="st7" d="M426.3,350.3c0-15.3-12.4-27.7-27.7-27.7h-10.7v-7.3c0-3.9-3.2-7.1-7.1-7.1c-3.9,0-7.1,3.2-7.1,7.1v7.3
							h-31.8c-3.9,0-7.1,3.2-7.1,7.1c0,3.9,3.2,7.1,7.1,7.1h7.3v87.9h-7.3c-3.9,0-7.1,3.2-7.1,7.1c0,3.9,3.2,7.1,7.1,7.1h31.8v7.3
							c0,3.9,3.2,7.1,7.1,7.1c3.9,0,7.1-3.2,7.1-7.1v-7.3h10.7c15.3,0,27.7-12.4,27.7-27.7v-9.8c0-7.8-3.4-15.3-9.4-20.6
							c6-5.3,9.4-12.8,9.4-20.6V350.3z M412.1,401.4v9.8c0,7.5-6.1,13.5-13.5,13.5h-35.3v-36.9h35.3
							C406.1,387.8,412.1,393.9,412.1,401.4z M398.6,373.7h-35.3v-36.9h35.3c7.5,0,13.5,6.1,13.5,13.5v9.8
							C412.1,367.6,406.1,373.7,398.6,373.7z"/>
					</g>
				</g>
			</g>
			<g>
				<g>
					<g>
						<g>
							<path class="st8" d="M226.5,207.2c-26.4,33.3-66.9,50.2-109.2,46.7C55.8,248.5,4.7,196,4.7,130.3
								C4.7,58.6,65.6,0.4,140.6,6.8c29.8,2.7,56.9,16.3,76.9,36.9c18.1,18.3,30.6,42.3,34.4,68.8
								C256.8,148,246.8,181.3,226.5,207.2L226.5,207.2z"/>
						</g>
					</g>
					<g>
						<g>
							<path class="st9" d="M145.4,253.3c-9.2,1.3-18.5,1.5-28.1,0.6C55.8,248.5,4.7,196,4.7,130.3C4.7,58.6,65.6,0.4,140.6,6.8
								c1.7,0.2,3.1,0.4,4.8,0.6c-64.1,8.8-107.7,62.9-107.7,123C37.6,194.1,85.9,245.8,145.4,253.3z"/>
						</g>
					</g>
					<g class="st6">
						<g>
							<g>
								<path class="st7" d="M226.5,207.2c-16.7-18.6-45.1-29.7-62.3-49c-10.2-11.7-17.1-27.5-13.8-42.7c2.7-13.3,13.1-24,24.2-32.3
									c16.3-12.2,33.7-21.1,42.9-39.6c18.1,18.3,30.6,42.3,34.4,68.8C256.8,148,246.8,181.3,226.5,207.2z"/>
							</g>
						</g>
					</g>
				</g>
			</g>
		</g>
		<g>
			<g>
				<g>
					<path class="st7" d="M131.4,181v10.8c0,2.6-1.8,4.6-4.7,4.6c-2.5,0-4.6-1.6-4.6-4.6V181c-11-0.7-21.2-3.1-30.8-7.2
						c-4.2-1.8-5.8-7.2-2.5-10.7c2-2.1,5.1-2.3,7.4-1.3c8.2,3.7,16.9,5.7,25.9,6.1v-35.1c-18-4.8-34-11.1-34-29.9
						c0-15.5,11.7-29.2,34-31.1V61.2c0-2.6,1.9-4.7,4.6-4.7c2.6,0,4.7,2,4.7,4.7v10.5c10,0.4,18.8,2.1,26.5,5
						c5,1.8,5.3,7.3,2.6,10.5c-1.5,1.8-3.9,2.6-6.9,1.4c-6.9-2.4-14.3-3.8-22.2-4.1v36.3c7.3,1.7,13.4,3.6,18.2,5.6
						c10.3,4.3,17,12.4,17,25C166.6,169.7,150.4,179.9,131.4,181z M122.1,118.5V85c-10.4,1.4-20.1,6.4-20.1,16.9
						C102,112.3,112,115.9,122.1,118.5z M152.9,150.5c0-9.5-11.8-12.8-21.5-15.4v32.8C145.7,166.9,152.9,161.1,152.9,150.5z"/>
				</g>
			</g>
		</g>
	</g>
</g>
</svg>
