<?xml version="1.0" encoding="utf-8"?>
<!-- Generator: Adobe Illustrator 23.0.5, SVG Export Plug-In . SVG Version: 6.00 Build 0)  -->
<svg version="1.1" id="Layer_1" xmlns:svgjs="http://svgjs.com/svgjs"
	 xmlns="http://www.w3.org/2000/svg" xmlns:xlink="http://www.w3.org/1999/xlink" x="0px" y="0px" viewBox="0 0 512 512"
	 style="enable-background:new 0 0 512 512;" xml:space="preserve">
<style type="text/css">
	.st0{fill:#FF3500;}
	.st1{fill:#C8002B;}
	.st2{fill:#F20038;}
	.st3{fill:#190664;}
	.st4{fill:#0C003D;}
	.st5{fill:#E0F0F7;}
	.st6{fill:#FFFFFF;}
	.st7{fill:#FFE706;}
	.st8{fill:#FFBF03;}
</style>
<g>
	<g>
		<g>
			<path class="st0" d="M140.9,335.9l-17.3,18.8c-53.2,0-96.2-43.1-96.2-96.2c0-53.2,43.1-96.2,96.2-96.2l17.3,18.8
				C181,225,181,292.1,140.9,335.9z"/>
			<path class="st1" d="M219.9,258.6c0,53.2-43.1,96.2-96.2,96.2V162.3C176.8,162.3,219.9,205.4,219.9,258.6z"/>
			<g>
				<path class="st2" d="M207,210.4l-83.4,48.1l48.1-83.4C186.4,183.6,198.6,195.8,207,210.4z"/>
				<path class="st2" d="M123.7,258.6H27.4c0-17.5,4.7-34,12.9-48.1L123.7,258.6z"/>
				<path class="st2" d="M123.7,258.6l-48.1,83.4c-14.6-8.5-26.8-20.6-35.2-35.2L123.7,258.6z"/>
				<path class="st2" d="M123.7,162.3v96.2l-48.1-83.4C89.7,167,106.1,162.3,123.7,162.3z"/>
				<path class="st2" d="M171.8,341.9c-14.2,8.2-30.6,12.9-48.1,12.9v-96.2L171.8,341.9z"/>
				<path class="st2" d="M219.9,258.6c0,17.5-4.7,34-12.9,48.1l-83.4-48.1H219.9z"/>
			</g>
			<g>
				<path class="st3" d="M123.7,258.6v76.1c-13.9,0-26.9-3.7-38-10.2L123.7,258.6z"/>
				<path class="st4" d="M189.6,296.6c-6.7,11.5-16.3,21.2-27.8,27.9l-38-65.9L189.6,296.6z"/>
				<path class="st5" d="M123.7,334.6v-76.1l38,65.9C150.5,330.9,137.5,334.6,123.7,334.6z"/>
				<path class="st4" d="M199.8,258.6h-76.1l65.9-38C196,231.7,199.8,244.7,199.8,258.6z"/>
				<path class="st4" d="M161.7,192.7l-38,65.9v-76.1C137.5,182.5,150.5,186.2,161.7,192.7z"/>
				<path class="st3" d="M123.7,258.6l-65.9-38c6.7-11.5,16.3-21.2,27.8-27.9L123.7,258.6z"/>
				<path class="st3" d="M123.7,258.6l-65.9,38c-6.5-11.2-10.2-24.2-10.2-38H123.7z"/>
				<g>
					<path class="st6" d="M57.8,220.5l65.9,38H47.6C47.6,244.7,51.3,231.7,57.8,220.5z"/>
					<path class="st6" d="M123.7,258.6l-38,65.9c-11.5-6.7-21.2-16.3-27.8-27.9L123.7,258.6z"/>
					<path class="st6" d="M123.7,182.5v76.1l-38-65.9C96.8,186.2,109.8,182.5,123.7,182.5z"/>
				</g>
				<path class="st5" d="M189.6,220.5l-65.9,38l38-65.9C173.3,199.3,182.9,209,189.6,220.5L189.6,220.5z"/>
				<path class="st5" d="M199.8,258.6c0,13.9-3.7,26.9-10.2,38l-65.9-38H199.8z"/>
				<path class="st0" d="M139.8,293.8l-16.1,20.3c-30.7,0-55.6-24.9-55.6-55.6c0-30.7,24.9-55.6,55.6-55.6l16.1,20.3
					C156.1,244,156.1,273.2,139.8,293.8L139.8,293.8z"/>
			</g>
			<path class="st2" d="M179.2,258.6c0,30.7-24.9,55.6-55.6,55.6V203C154.4,203,179.2,227.9,179.2,258.6z"/>
			<g>
				<path class="st7" d="M142.5,267.3l4.4,25.8l-23.3-12.2l-23.3,12.2l4.4-25.8L86,248.9l26.1-3.8l11.6-24.1l11.6,24.1l26.1,3.8
					L142.5,267.3z"/>
				<path class="st8" d="M142.5,267.3l4.4,25.8l-23.3-12.2v-59.9l11.6,24.1l26.1,3.8L142.5,267.3z"/>
			</g>
		</g>
	</g>
</g>
<g>
	<g>
		<g>
			<path class="st0" d="M404.6,335.6L388,353.7c-50.9,0-92.2-41.3-92.2-92.2s41.3-92.2,92.2-92.2l16.5,18.1
				C443,229.3,443,293.6,404.6,335.6z"/>
			<path class="st1" d="M480.3,261.5c0,50.9-41.3,92.2-92.2,92.2V169.2C439,169.2,480.3,210.5,480.3,261.5L480.3,261.5z"/>
			<g>
				<path class="st2" d="M467.9,215.3L388,261.5l46.1-79.9C448.2,189.7,459.8,201.3,467.9,215.3z"/>
				<path class="st2" d="M388,261.5h-92.2c0-16.8,4.5-32.6,12.3-46.1L388,261.5z"/>
				<path class="st2" d="M388,261.5l-46.1,79.9c-14-8.1-25.7-19.8-33.8-33.8L388,261.5z"/>
				<path class="st2" d="M388,169.2v92.2l-46.1-79.9C355.5,173.7,371.2,169.2,388,169.2z"/>
				<path class="st2" d="M434.2,341.3c-13.6,7.8-29.3,12.3-46.1,12.3v-92.2L434.2,341.3z"/>
				<path class="st2" d="M480.3,261.5c0,16.8-4.5,32.6-12.3,46.1L388,261.5H480.3z"/>
			</g>
			<g>
				<path class="st3" d="M388,261.5v72.9c-13.3,0-25.7-3.6-36.5-9.8L388,261.5z"/>
				<path class="st4" d="M451.2,297.9c-6.4,11.1-15.6,20.3-26.7,26.7L388,261.5L451.2,297.9z"/>
				<path class="st5" d="M388,334.4v-72.9l36.5,63.1C413.8,330.8,401.3,334.4,388,334.4z"/>
				<path class="st4" d="M461,261.5H388l63.1-36.5C457.4,235.7,461,248.2,461,261.5z"/>
				<path class="st4" d="M424.5,198.3L388,261.5v-72.9C401.3,188.6,413.8,192.1,424.5,198.3L424.5,198.3z"/>
				<path class="st3" d="M388,261.5L324.9,225c6.4-11.1,15.6-20.3,26.7-26.7L388,261.5z"/>
				<path class="st3" d="M388,261.5l-63.1,36.5c-6.2-10.7-9.8-23.2-9.8-36.5H388z"/>
				<g>
					<path class="st6" d="M324.9,225l63.1,36.5h-72.9C315.1,248.2,318.7,235.7,324.9,225z"/>
					<path class="st6" d="M388,261.5l-36.5,63.1c-11.1-6.4-20.3-15.6-26.7-26.7L388,261.5z"/>
					<path class="st6" d="M388,188.6v72.9l-36.5-63.1C362.3,192.1,374.8,188.6,388,188.6z"/>
				</g>
				<path class="st5" d="M451.2,225L388,261.5l36.5-63.1C435.6,204.7,444.8,213.9,451.2,225L451.2,225z"/>
				<path class="st5" d="M461,261.5c0,13.3-3.6,25.7-9.8,36.5L388,261.5H461z"/>
				<path class="st0" d="M403.5,295.2L388,314.7c-29.4,0-53.2-23.8-53.2-53.2s23.8-53.2,53.2-53.2l15.4,19.5
					C419.2,247.5,419.2,275.4,403.5,295.2z"/>
			</g>
			<path class="st2" d="M441.3,261.5c0,29.4-23.8,53.2-53.2,53.2V208.2C417.5,208.2,441.3,232.1,441.3,261.5L441.3,261.5z"/>
			<g>
				<g>
					<path class="st7" d="M406.1,269.8l4.2,24.7l-22.3-11.7l-22.3,11.7l4.2-24.7l-18.1-17.6l25-3.7l11.1-23.1l11.1,23.1l25,3.7
						L406.1,269.8z"/>
					<path class="st8" d="M406.1,269.8l4.2,24.7l-22.3-11.7v-57.4l11.1,23.1l25,3.7L406.1,269.8z"/>
				</g>
			</g>
		</g>
	</g>
</g>
<g>
	<g>
		<g>
			<path class="st0" d="M271.3,492.9L254.8,511c-50.9,0-92.2-41.3-92.2-92.2s41.3-92.2,92.2-92.2l16.5,18.1
				C309.8,386.6,309.8,451,271.3,492.9z"/>
			<path class="st1" d="M347,418.8c0,50.9-41.3,92.2-92.2,92.2V326.6C305.7,326.6,347,367.8,347,418.8L347,418.8z"/>
			<g>
				<path class="st2" d="M334.7,372.7l-79.9,46.1l46.1-79.9C314.9,347,326.6,358.7,334.7,372.7z"/>
				<path class="st2" d="M254.8,418.8h-92.2c0-16.8,4.5-32.6,12.3-46.1L254.8,418.8z"/>
				<path class="st2" d="M254.8,418.8l-46.1,79.9c-14-8.1-25.7-19.8-33.8-33.8L254.8,418.8z"/>
				<path class="st2" d="M254.8,326.6v92.2l-46.1-79.9C222.2,331.1,238,326.6,254.8,326.6z"/>
				<path class="st2" d="M300.9,498.7c-13.6,7.8-29.3,12.3-46.1,12.3v-92.2L300.9,498.7z"/>
				<path class="st2" d="M347,418.8c0,16.8-4.5,32.6-12.3,46.1l-79.9-46.1H347z"/>
			</g>
			<g>
				<path class="st3" d="M254.8,418.8v72.9c-13.3,0-25.7-3.6-36.5-9.8L254.8,418.8z"/>
				<path class="st4" d="M317.9,455.2c-6.4,11.1-15.6,20.3-26.7,26.7l-36.5-63.1L317.9,455.2z"/>
				<path class="st5" d="M254.8,491.7v-72.9l36.5,63.1C280.5,488.1,268.1,491.7,254.8,491.7z"/>
				<path class="st4" d="M327.7,418.8h-72.9l63.1-36.5C324.1,393,327.7,405.5,327.7,418.8z"/>
				<path class="st4" d="M291.2,355.6l-36.5,63.1v-72.9C268.1,345.9,280.5,349.4,291.2,355.6L291.2,355.6z"/>
				<path class="st3" d="M254.8,418.8l-63.1-36.5c6.4-11.1,15.6-20.3,26.7-26.7L254.8,418.8z"/>
				<path class="st3" d="M254.8,418.8l-63.1,36.5c-6.2-10.7-9.8-23.2-9.8-36.5H254.8z"/>
				<g>
					<path class="st6" d="M191.6,382.3l63.1,36.5h-72.9C181.9,405.5,185.4,393,191.6,382.3z"/>
					<path class="st6" d="M254.8,418.8l-36.5,63.1c-11.1-6.4-20.3-15.6-26.7-26.7L254.8,418.8z"/>
					<path class="st6" d="M254.8,345.9v72.9l-36.5-63.1C229,349.4,241.5,345.9,254.8,345.9z"/>
				</g>
				<path class="st5" d="M317.9,382.3l-63.1,36.5l36.5-63.1C302.3,362,311.5,371.3,317.9,382.3L317.9,382.3z"/>
				<path class="st5" d="M327.7,418.8c0,13.3-3.6,25.7-9.8,36.5l-63.1-36.5H327.7z"/>
				<path class="st0" d="M270.2,452.5L254.8,472c-29.4,0-53.2-23.8-53.2-53.2s23.8-53.2,53.2-53.2l15.4,19.5
					C285.9,404.8,285.9,432.8,270.2,452.5z"/>
			</g>
			<path class="st2" d="M308,418.8c0,29.4-23.8,53.2-53.2,53.2V365.5C284.2,365.5,308,389.4,308,418.8L308,418.8z"/>
			<g>
				<g>
					<path class="st7" d="M272.9,427.1l4.2,24.7l-22.3-11.7l-22.3,11.7l4.2-24.7l-18.1-17.6l25-3.7l11.1-23.1l11.1,23.1l25,3.7
						L272.9,427.1z"/>
					<path class="st8" d="M272.9,427.1l4.2,24.7l-22.3-11.7v-57.4l11.1,23.1l25,3.7L272.9,427.1z"/>
				</g>
			</g>
		</g>
	</g>
</g>
<g>
	<g>
		<g>
			<path class="st0" d="M278.1,171.5l-16.5,18.1c-50.9,0-92.2-41.3-92.2-92.2s41.3-92.2,92.2-92.2l16.5,18.1
				C316.5,65.2,316.5,129.6,278.1,171.5z"/>
			<path class="st1" d="M353.8,97.4c0,50.9-41.3,92.2-92.2,92.2V5.2C312.5,5.2,353.8,46.4,353.8,97.4L353.8,97.4z"/>
			<g>
				<path class="st2" d="M341.4,51.3l-79.9,46.1l46.1-79.9C321.6,25.6,333.3,37.3,341.4,51.3z"/>
				<path class="st2" d="M261.5,97.4h-92.2c0-16.8,4.5-32.6,12.3-46.1L261.5,97.4z"/>
				<path class="st2" d="M261.5,97.4l-46.1,79.9c-14-8.1-25.7-19.8-33.8-33.8L261.5,97.4z"/>
				<path class="st2" d="M261.5,5.2v92.2l-46.1-79.9C229,9.6,244.7,5.2,261.5,5.2z"/>
				<path class="st2" d="M307.7,177.3c-13.6,7.8-29.3,12.3-46.1,12.3V97.4L307.7,177.3z"/>
				<path class="st2" d="M353.8,97.4c0,16.8-4.5,32.6-12.3,46.1l-79.9-46.1H353.8z"/>
			</g>
			<g>
				<path class="st3" d="M261.5,97.4v72.9c-13.3,0-25.7-3.6-36.5-9.8L261.5,97.4z"/>
				<path class="st4" d="M324.7,133.8c-6.4,11.1-15.6,20.3-26.7,26.7l-36.5-63.1L324.7,133.8z"/>
				<path class="st5" d="M261.5,170.3V97.4l36.5,63.1C287.3,166.7,274.8,170.3,261.5,170.3z"/>
				<path class="st4" d="M334.4,97.4h-72.9l63.1-36.5C330.9,71.6,334.4,84.1,334.4,97.4z"/>
				<path class="st4" d="M298,34.2l-36.5,63.1V24.5C274.8,24.5,287.3,28,298,34.2L298,34.2z"/>
				<path class="st3" d="M261.5,97.4l-63.1-36.5c6.4-11.1,15.6-20.3,26.7-26.7L261.5,97.4z"/>
				<path class="st3" d="M261.5,97.4l-63.1,36.5c-6.2-10.7-9.8-23.2-9.8-36.5H261.5z"/>
				<g>
					<path class="st6" d="M198.4,60.9l63.1,36.5h-72.9C188.6,84.1,192.2,71.6,198.4,60.9z"/>
					<path class="st6" d="M261.5,97.4l-36.5,63.1c-11.1-6.4-20.3-15.6-26.7-26.7L261.5,97.4z"/>
					<path class="st6" d="M261.5,24.5v72.9l-36.5-63.1C235.8,28,248.2,24.5,261.5,24.5z"/>
				</g>
				<path class="st5" d="M324.7,60.9l-63.1,36.5L298,34.2C309.1,40.6,318.3,49.9,324.7,60.9L324.7,60.9z"/>
				<path class="st5" d="M334.4,97.4c0,13.3-3.6,25.7-9.8,36.5l-63.1-36.5H334.4z"/>
				<path class="st0" d="M277,131.1l-15.4,19.5c-29.4,0-53.2-23.8-53.2-53.2s23.8-53.2,53.2-53.2L277,63.6
					C292.6,83.4,292.6,111.4,277,131.1z"/>
			</g>
			<path class="st2" d="M314.8,97.4c0,29.4-23.8,53.2-53.2,53.2V44.1C290.9,44.1,314.8,68,314.8,97.4L314.8,97.4z"/>
			<g>
				<g>
					<path class="st7" d="M279.6,105.7l4.2,24.7l-22.3-11.7l-22.3,11.7l4.2-24.7l-18.1-17.6l25-3.7l11.1-23.1l11.1,23.1l25,3.7
						L279.6,105.7z"/>
					<path class="st8" d="M279.6,105.7l4.2,24.7l-22.3-11.7V61.3l11.1,23.1l25,3.7L279.6,105.7z"/>
				</g>
			</g>
		</g>
	</g>
</g>
</svg>
