<?xml version="1.0" encoding="utf-8"?>
<!-- Generator: Adobe Illustrator 23.0.5, SVG Export Plug-In . SVG Version: 6.00 Build 0)  -->
<svg version="1.1" id="Layer_1" xmlns:svgjs="http://svgjs.com/svgjs"
	 xmlns="http://www.w3.org/2000/svg" xmlns:xlink="http://www.w3.org/1999/xlink" x="0px" y="0px" viewBox="0 0 512 512"
	 style="enable-background:new 0 0 512 512;" xml:space="preserve">
<style type="text/css">
	.st0{fill:#D0D8DA;}
	.st1{fill:#B8BEBF;}
	.st2{fill:#FF7373;}
	.st3{fill:#E9F1F2;}
	.st4{fill:#EF5350;}
	.st5{fill:#ADE8F4;}
	.st6{fill:#48CAE4;}
	.st7{fill:#F9DBAF;}
	.st8{fill:#EDB88E;}
	.st9{fill:#DA9367;}
	.st10{fill:#E53935;}
	.st11{fill:#C62828;}
	.st12{fill:#FFCC66;}
	.st13{fill:#FFBA55;}
	.st14{fill:#F8834B;}
	.st15{fill:#FFDE76;}
	.st16{fill:#FFBB33;}
	.st17{fill:#FFA622;}
	.st18{fill:#F6611A;}
	.st19{fill:#FFD143;}
</style>
<g>
	<g id="Color_copy">
		<path class="st0" d="M151.3,504.3c-8.4,4.9-19.2,3-25.5-4.4l-51.7-60.9l30-17.3l51.3,50.9c7.9,7.8,8,20.6,0.1,28.5
			C154.3,502.3,152.8,503.4,151.3,504.3L151.3,504.3z"/>
		<path class="st1" d="M151.2,504.3c-8.4,4.9-19.1,3-25.4-4.4l-51.7-61l29.9-17.3l19.7,19.6l-2.1,0.8c-9,3.5-13.5,13.6-10,22.6
			c0.7,1.8,1.7,3.5,2.9,4.9l10.4,12.2c6.3,7.8,17.2,10.1,26.1,5.5c3.6-2,6.5-5.1,8.2-8.9C163.9,487.7,160.4,499.1,151.2,504.3
			L151.2,504.3z"/>
		<path class="st2" d="M27.7,375.8l22.5-13l0,0l43.3,75l0,0l-22.5,13c-20.7,11.9-47.2,4.9-59.1-15.8S7,387.7,27.7,375.8z"/>
		<path class="st3" d="M50.1,362.8l43.3,75c29.5-17,62.9-26,96.9-26.2l17.8-0.1l-77.9-134.9l-9,15.4
			C104.2,321.4,79.6,345.8,50.1,362.8L50.1,362.8z"/>
		<path class="st2" d="M136.6,252.9L136.6,252.9c8.3-4.8,18.9-1.9,23.6,6.3l77.9,134.9c4.8,8.3,1.9,18.9-6.3,23.6l0,0
			c-8.3,4.8-18.9,1.9-23.6-6.3l-77.9-134.9C125.5,268.3,128.3,257.7,136.6,252.9z"/>
		<path class="st4" d="M231.8,417.8c-8.3,4.8-18.9,1.9-23.6-6.4c0,0,0,0,0,0l-77.9-134.8c-4-6.8-2.8-15.5,2.9-21l75,129.9
			c4.8,8.3,15.3,11.2,23.6,6.4c0,0,0,0,0,0c1.3-0.7,2.4-1.6,3.5-2.7l2.9,4.9C242.9,402.4,240.1,413,231.8,417.8z"/>
		<path class="st4" d="M93.4,437.7l-22.5,13c-20.7,11.9-47.2,4.9-59.1-15.8C8,428.3,6,420.9,6,413.3c0-4.4,0.7-8.8,2-13
			c0.5,1.7,1.2,3.4,1.9,5c9.9,21.8,35.5,31.4,57.3,21.6c1.3-0.6,2.5-1.2,3.7-1.9l11.3-6.6L93.4,437.7z"/>
		<path class="st0" d="M208.2,411.4l-17.9,0.1c-16.9,0.1-33.8,2.3-50.1,6.8c-16.4,4.5-32.1,11-46.7,19.5l-11.2-19.3l11.2-6.4
			c13.5-7.8,27.9-13.9,42.8-18.3c18.4-5.4,28.9-24.7,23.4-43.1c-0.8-2.6-1.8-5.1-3.2-7.4l-32.4-56.1l6.1-10.6L208.2,411.4z"/>
		<path class="st5" d="M352.2,5c-86-0.1-155.7,69.5-155.8,155.5c0,43.1,17.8,84.4,49.3,113.8l-32,76.9l90.5-42.2
			c81.8,26.6,169.7-18.3,196.3-100.1C527,127,482.2,39.2,400.4,12.6C384.8,7.6,368.6,5,352.2,5z"/>
		<path class="st6" d="M489,235.3c-27.3,50.1-79.8,81.3-136.8,81.3c-16.3,0-32.5-2.6-47.9-7.6l-90.5,42.2l32-76.9
			c-62.8-58.7-66.1-157.2-7.4-220c17.9-19.1,40.3-33.4,65.2-41.6c-34,84.2,6.7,180,90.9,213.9c19.6,7.9,40.5,11.9,61.6,11.9
			C467.1,238.7,478.2,237.6,489,235.3z"/>
		<circle class="st2" cx="352.2" cy="160.8" r="103.9"/>
		<path class="st4" d="M424.3,235.6c-41.3,39.8-107,38.7-146.9-2.5c-39.8-41.3-38.7-107,2.5-146.9c3.7-3.5,7.6-6.8,11.7-9.8
			C292.7,154.2,348,220.6,424.3,235.6z"/>
		<circle class="st7" cx="352.2" cy="130.5" r="26"/>
		<path class="st7" d="M386.8,182.4c0-14.3-11.6-26-26-26h-17.3c-14.3,0-26,11.6-26,26v23.7c20.8,14.5,48.4,14.5,69.2,0V182.4z"/>
		<path class="st8" d="M375,142.9c-6.8,12.6-22.6,17.3-35.2,10.5c-12.6-6.8-17.3-22.6-10.5-35.2c3.6-6.6,9.9-11.4,17.3-13
			c-6.8,12.6-2.2,28.4,10.4,35.2c3.8,2.1,8.1,3.1,12.4,3.1C371.4,143.5,373.2,143.3,375,142.9z"/>
		<path class="st8" d="M386.8,203.6v2.6c-20.8,14.5-48.4,14.5-69.2,0v-23.7c0-9.4,5.1-18.1,13.3-22.7
			C340,183.6,361.5,200.4,386.8,203.6z"/>
		<path class="st9" d="M370,214.4c-17.8,5.5-37.2,2.5-52.4-8.2v-23.7c0-4.8,1.4-9.6,3.9-13.7C334.4,187.1,350.9,202.6,370,214.4z"/>
		<path class="st10" d="M473.4,152.1h-9.1C460,96.9,416.1,53,360.9,48.7v-9.1c0-4.8-3.9-8.7-8.7-8.7s-8.7,3.9-8.7,8.7v9.1
			c-55.2,4.3-99.1,48.2-103.4,103.4H231c-4.8,0-8.7,3.9-8.7,8.7c0,4.8,3.9,8.7,8.7,8.7h9.1c4.3,55.2,48.2,99.1,103.4,103.4v9.1
			c0,4.8,3.9,8.7,8.7,8.7s8.7-3.9,8.7-8.7v-9.1c55.2-4.3,99.1-48.2,103.4-103.4h9.1c4.8,0,8.7-3.9,8.7-8.7
			C482,156,478.1,152.1,473.4,152.1z M360.9,255.6v-8.2c0-4.8-3.9-8.7-8.7-8.7s-8.7,3.9-8.7,8.7v8.2c-45.7-4.2-81.9-40.4-86.1-86.1
			h8.2c4.8,0,8.7-3.9,8.7-8.7c0-4.8-3.9-8.7-8.7-8.7h-8.2c4.2-45.7,40.4-81.9,86.1-86.1v8.2c0,4.8,3.9,8.7,8.7,8.7s8.7-3.9,8.7-8.7
			V66c45.7,4.2,81.9,40.4,86.1,86.1h-8.2c-4.8,0-8.7,3.9-8.7,8.7c0,4.8,3.9,8.7,8.7,8.7h8.2C442.7,215.1,406.5,251.3,360.9,255.6z"
			/>
		<path class="st11" d="M413.8,233.2c-14.9,12.8-33.4,20.7-53,22.4v-8.2c0-4.8-3.9-8.7-8.7-8.7s-8.7,3.9-8.7,8.7v8.2
			c-45.7-4.2-81.9-40.4-86.1-86.1h8.2c4.8,0,8.7-3.9,8.7-8.7c0-4.8-3.9-8.7-8.7-8.7h-8.2c2.4-25.5,14.9-48.9,34.7-65.1
			c-0.3-4.2-0.5-8.5-0.5-12.8c0-2.8,0.1-5.5,0.2-8.2c-29.8,19-48.9,50.9-51.7,86.1H231c-4.8,0-8.7,3.9-8.7,8.7
			c0,4.8,3.9,8.7,8.7,8.7h9.1c4.3,55.2,48.2,99.1,103.4,103.4v9.1c0,4.8,3.9,8.7,8.7,8.7s8.7-3.9,8.7-8.7v-9.1
			c28.2-2.2,54.5-14.9,73.7-35.7C427.5,236.3,420.6,235,413.8,233.2L413.8,233.2z"/>
		<g>
			<path class="st2" d="M54.5,179.8c-3.8-2.9-9.2-2.1-12.1,1.7c-2.9,3.8-2.1,9.2,1.7,12.1l34.6,26c3.8,2.9,9.2,2.1,12.1-1.7
				c2.9-3.8,2.1-9.2-1.7-12.1L54.5,179.8z"/>
			<path class="st2" d="M100.8,140.8c-1.5-4.5-6.4-7-11-5.5c-4.5,1.5-7,6.4-5.5,11l17.3,51.9c1.5,4.5,6.4,7,11,5.5s7-6.4,5.5-11
				L100.8,140.8z"/>
			<path class="st2" d="M154.9,143.7c-4.7-0.9-9.2,2.1-10.2,6.8l-8.7,43.3c-0.9,4.7,2.1,9.2,6.7,10.2c0.6,0.1,1.1,0.2,1.7,0.2
				c4.1,0,7.7-2.9,8.5-6.9l8.7-43.3C162.6,149.2,159.6,144.6,154.9,143.7L154.9,143.7z"/>
			<path class="st2" d="M246.9,437.9c-4.7,0.8-7.9,5.2-7.1,10c0,0,0,0,0,0l8.7,51.9c0.7,4.2,4.3,7.2,8.5,7.2c0.5,0,1,0,1.4-0.1
				c4.7-0.8,7.9-5.2,7.1-10c0,0,0,0,0,0l-8.7-51.9C256.1,440.3,251.6,437.1,246.9,437.9L246.9,437.9z"/>
			<path class="st2" d="M288.5,431.1c-3.7-3.1-9.1-2.6-12.2,1.1c-3.1,3.7-2.6,9.1,1.1,12.2l51.9,43.3c3.7,3.1,9.1,2.6,12.2-1.1
				c3.1-3.7,2.6-9.1-1.1-12.2l0,0L288.5,431.1z"/>
			<path class="st2" d="M363.2,412.1l-60.6-17.3c-4.5-1.5-9.4,1-10.9,5.5c-1.5,4.5,1,9.4,5.5,10.9c0.2,0.1,0.4,0.1,0.6,0.2
				l60.6,17.3c0.8,0.2,1.6,0.3,2.4,0.3c4.8,0,8.6-3.9,8.6-8.7C369.5,416.6,366.9,413.2,363.2,412.1L363.2,412.1z"/>
			<path class="st2" d="M308.9,377.2c0.5,0,1,0,1.4-0.1l51.9-8.7c4.7-0.6,8.1-5,7.4-9.7c-0.6-4.7-5-8.1-9.7-7.4
				c-0.2,0-0.3,0.1-0.5,0.1l-51.9,8.7c-4.7,0.8-7.9,5.3-7.1,10C301.1,374.1,304.7,377.2,308.9,377.2z"/>
		</g>
	</g>
</g>
<g>
	<path class="st12" d="M417.5,159.9c0.5,34.9-29.6,65.1-64.6,64.6c-85.7-3.4-85.7-125.8,0-129.2C388.1,94.9,417.9,125,417.5,159.9z"
		/>
	<path class="st13" d="M353,218.3c-39.9-1.6-58.2-31.4-58.2-58.4s18.2-56.8,58.3-58.4h0.5c15.2,0,29.6,6.2,40.7,17.4
		c10.9,11.1,17.1,26,16.9,40.9c0.2,15-5.9,29.8-16.8,41c-11,11.1-25.8,17.5-40.7,17.5L353,218.3z"/>
	<path class="st14" d="M353.1,208.2h-0.2c-1.7,0-3.1-1.4-3.1-3.1c0-1.7,1.4-3.1,3.1-3.1h0.2c1.7,0,3.1,1.4,3.1,3.1c0,0,0,0,0,0
		C356.2,206.8,354.8,208.2,353.1,208.2C353.1,208.2,353.1,208.2,353.1,208.2L353.1,208.2z M339.8,206.4c-1.6-0.5-2.6-2.2-2.1-3.8
		c0.5-1.6,2.2-2.6,3.8-2.1c1.6,0.5,2.6,2.2,2.1,3.8c-0.4,1.3-1.6,2.3-3,2.3C340.4,206.6,340.1,206.5,339.8,206.4L339.8,206.4z
		 M362.3,204.3c-0.5-1.6,0.5-3.4,2.1-3.8c0,0,0,0,0,0c1.6-0.5,3.3,0.5,3.8,2.1c0.5,1.6-0.5,3.3-2.1,3.8c0,0,0,0,0,0l0,0
		c-0.3,0.1-0.6,0.1-0.9,0.1C363.9,206.5,362.6,205.6,362.3,204.3L362.3,204.3z M327.8,201.2c-1.5-0.9-1.9-2.8-1.1-4.2c0,0,0,0,0,0
		c0.9-1.5,2.8-1.9,4.3-1c1.5,0.9,1.9,2.8,1,4.2c0,0,0,0,0,0c-0.6,0.9-1.6,1.5-2.7,1.5C328.8,201.6,328.3,201.5,327.8,201.2
		L327.8,201.2z M373.9,200c-0.9-1.4-0.5-3.3,1-4.2c0,0,0,0,0,0c1.5-0.9,3.4-0.5,4.3,1c0.9,1.5,0.4,3.4-1,4.3c-0.5,0.3-1,0.5-1.6,0.5
		C375.4,201.5,374.4,201,373.9,200L373.9,200z M317.6,192.9c-1.2-1.3-1.1-3.2,0.2-4.4c1.2-1.2,3.2-1.1,4.4,0.1c0,0,0,0,0,0
		c1.2,1.2,1.1,3.2-0.1,4.4c0,0,0,0,0,0c-0.6,0.5-1.3,0.8-2.1,0.8C319,193.9,318.2,193.5,317.6,192.9z M383.9,192.9
		c-1.3-1.2-1.3-3.1-0.2-4.4c0,0,0,0,0,0v0c1.1-1.3,3.1-1.3,4.4-0.2c0,0,0,0,0,0c1.3,1.2,1.3,3.1,0.2,4.4c-0.6,0.6-1.4,1-2.3,1
		C385.2,193.7,384.5,193.4,383.9,192.9L383.9,192.9z M310,182.2c-0.8-1.5-0.2-3.4,1.3-4.2c0,0,0,0,0,0c1.5-0.8,3.4-0.2,4.2,1.3
		c0.8,1.5,0.2,3.4-1.3,4.2c0,0,0,0,0,0c-0.5,0.2-0.9,0.3-1.5,0.3C311.6,183.8,310.5,183.2,310,182.2L310,182.2z M391.7,183.3
		c-1.5-0.8-2.1-2.6-1.3-4.2c0,0,0,0,0,0c0.8-1.5,2.6-2.1,4.1-1.3c0,0,0,0,0,0c1.5,0.8,2.1,2.6,1.3,4.2c0,0,0,0,0,0
		c-0.5,1-1.6,1.7-2.8,1.7C392.6,183.6,392.1,183.5,391.7,183.3L391.7,183.3z M305.6,169.8c-0.4-1.6,0.7-3.3,2.3-3.6c0,0,0,0,0.1,0
		c1.7-0.4,3.3,0.7,3.7,2.4c0.3,1.7-0.7,3.3-2.4,3.7c-0.2,0-0.4,0.1-0.6,0.1C307.1,172.2,305.9,171.2,305.6,169.8L305.6,169.8z
		 M396.6,172c-1.7-0.3-2.8-1.9-2.5-3.6c0,0,0,0,0,0c0.3-1.7,2-2.8,3.7-2.4c1.7,0.3,2.8,2,2.4,3.7c-0.3,1.4-1.6,2.5-3,2.5
		C397,172,396.8,172,396.6,172L396.6,172z M307.6,160c-1.7-0.2-3-1.7-2.8-3.4c0.2-1.7,1.7-2.9,3.4-2.8c1.7,0.1,2.9,1.6,2.8,3.3
		c0,0,0,0,0,0c-0.1,1.6-1.5,2.8-3.1,2.8H307.6z M394.8,157c-0.2-1.7,1.1-3.2,2.8-3.4c0,0,0,0,0,0c1.7-0.2,3.2,1.1,3.4,2.8
		c0.2,1.7-1.1,3.2-2.8,3.4c-0.1,0-0.2,0-0.3,0C396.3,159.8,394.9,158.6,394.8,157L394.8,157z M309.4,147.7c-1.6-0.5-2.5-2.3-2-3.9
		c0,0,0,0,0,0c0.5-1.6,2.2-2.5,3.8-2c0,0,0,0,0.1,0c1.6,0.5,2.5,2.2,2,3.8c0,0,0,0,0,0.1c-0.4,1.3-1.6,2.1-2.9,2.1
		C310,147.9,309.7,147.9,309.4,147.7z M392.4,145.6c-0.6-1.6,0.3-3.4,1.9-3.9c0,0,0,0,0.1,0c1.6-0.6,3.4,0.3,3.9,1.9
		c0.5,1.6-0.3,3.4-1.9,3.9c-0.3,0.1-0.7,0.2-1,0.2C394,147.7,392.8,146.9,392.4,145.6L392.4,145.6z M314,136.3
		c-1.4-1-1.8-2.9-0.8-4.3c0.9-1.4,2.8-1.8,4.2-0.8c0,0,0,0,0.1,0c1.4,1,1.8,2.9,0.8,4.3c0,0,0,0,0,0c-0.6,0.8-1.5,1.3-2.5,1.3
		C315.2,136.9,314.5,136.7,314,136.3L314,136.3z M387.3,135.4c-1-1.4-0.6-3.3,0.8-4.3c1.4-1,3.3-0.7,4.3,0.7c0,0,0,0,0,0h0
		c1,1.4,0.7,3.3-0.7,4.3c0,0,0,0-0.1,0c-0.5,0.4-1.1,0.6-1.8,0.6C388.8,136.7,387.9,136.2,387.3,135.4L387.3,135.4z M321.7,126.7
		c-1.1-1.3-0.9-3.2,0.4-4.3c0,0,0,0,0,0c1.3-1.1,3.2-0.9,4.3,0.4c0,0,0,0,0,0c1.1,1.3,0.9,3.3-0.5,4.4c0,0,0,0,0,0
		c-0.5,0.5-1.2,0.7-1.9,0.7C323.2,127.9,322.3,127.4,321.7,126.7L321.7,126.7z M379.5,127.1c-1.3-1.1-1.6-3-0.5-4.4c0,0,0,0,0,0
		c1.1-1.3,3-1.6,4.3-0.5c1.3,1.1,1.6,3,0.5,4.4c0,0,0,0,0,0c-0.6,0.7-1.5,1.2-2.4,1.2C380.7,127.7,380.1,127.5,379.5,127.1
		L379.5,127.1z M331.9,119.7c-0.7-1.6,0.1-3.4,1.7-4.1c1.6-0.7,3.4,0.1,4.1,1.7c0.6,1.6-0.1,3.4-1.7,4.1c-0.4,0.1-0.8,0.2-1.2,0.2
		C333.5,121.6,332.3,120.8,331.9,119.7z M369.6,121.3c-1.6-0.6-2.3-2.4-1.7-4c0,0,0,0,0,0c0.6-1.6,2.4-2.3,4-1.7c0,0,0,0,0,0
		c1.6,0.7,2.3,2.5,1.7,4.1c-0.5,1.2-1.6,1.9-2.9,1.9C370.4,121.5,370,121.4,369.6,121.3L369.6,121.3z M343.6,115.7
		c-0.2-1.7,0.9-3.2,2.6-3.5c0,0,0,0,0.1,0c1.7-0.2,3.2,0.9,3.5,2.6c0,0,0,0,0,0.1c0.2,1.7-1,3.2-2.7,3.5c-0.2,0-0.3,0-0.4,0
		C345.1,118.4,343.7,117.3,343.6,115.7z M358.5,118.4c-1.7-0.2-2.9-1.8-2.7-3.5c0,0,0,0,0,0c0.2-1.7,1.8-2.9,3.4-2.7c0,0,0,0,0,0
		c1.7,0.2,2.9,1.7,2.7,3.4c-0.2,1.5-1.5,2.7-3.1,2.7C358.8,118.4,358.7,118.4,358.5,118.4z"/>
	<path class="st15" d="M363.3,157.9c1.8-2.4,2.8-5.3,2.8-8.4c0-4.1-1.8-8-5.1-10.6v-4.9c0-1.7-1.4-3.1-3.1-3.1
		c-1.7,0-3.1,1.4-3.1,3.1v2.3c-0.7-0.1-1.4-0.2-2.1-0.3h-7.2v-2.1c0-1.7-1.4-3.1-3.1-3.1c-1.7,0-3.1,1.4-3.1,3.1v2.1h-2.1
		c-1.7,0-3.1,1.4-3.1,3.1c0,1.7,1.4,3.1,3.1,3.1h2.1v35.1h-2.1c-1.7,0-3.1,1.4-3.1,3.1c0,1.7,1.4,3.1,3.1,3.1h2.1v2.1
		c0,1.7,1.4,3.1,3.1,3.1c1.7,0,3.1-1.4,3.1-3.1c0,0,0,0,0,0v-2.1h9.3v2.1c0,1.7,1.4,3.1,3.1,3.1c1.7,0,3.1-1.4,3.1-3.1c0,0,0,0,0,0
		v-2.4c6.7-1.5,10.2-7.4,10.2-13.1C371.4,165.2,368.6,160.1,363.3,157.9L363.3,157.9z M345.6,142.3h7.2c5,0.1,7.2,3.7,7.2,7.2
		c0,3.5-2.2,7.1-7.2,7.2h-7.2V142.3z M358,177.5h-12.3V163h7.2h5.1c5,0.1,7.2,3.7,7.2,7.2C365.2,173.8,362.9,177.3,358,177.5z"/>
	<path class="st16" d="M417.5,159.9c0,1.1,0,2.1-0.1,3.1c-1.2,32.5-28.8,60.3-61.4,61.4c-1,0.1-2,0.1-3.1,0.1V95.3
		c1.1,0,2.1,0,3.1,0.1c32.8,1.3,60.2,28.9,61.4,61.4C417.5,157.8,417.5,158.9,417.5,159.9L417.5,159.9z"/>
	<path class="st17" d="M411.3,159.8c0,0.8,0,1.6,0,2.5c-0.4,14.1-6.5,28-16.8,38.5c-10.6,10.8-24.8,17.1-39.2,17.5c-0.5,0-1,0-1.5,0
		h-0.9V101.5h0.7c0.6,0,1.1,0,1.7,0c14.5,0.4,28.4,6.6,39.1,17.4c10.4,10.5,16.4,24.5,16.9,38.6
		C411.3,158.3,411.3,159.1,411.3,159.8L411.3,159.8z"/>
	<path class="st18" d="M359.3,112.2c-0.1,0-0.3,0-0.4,0c-1.6,0-2.9,1.1-3.1,2.7c-0.2,1.7,1,3.3,2.7,3.5c0,0,0,0,0,0
		c0.1,0,0.3,0,0.4,0c1.6,0,2.9-1.2,3.1-2.7c0-0.1,0-0.3,0-0.4C362,113.7,360.9,112.4,359.3,112.2L359.3,112.2z M372,115.6
		c-0.4-0.1-0.8-0.2-1.1-0.2c-1.7,0-3.1,1.4-3.1,3.1c0,1.3,0.7,2.4,1.9,2.9c0.4,0.2,0.8,0.2,1.2,0.2c1.3,0,2.4-0.8,2.9-1.9
		c0.1-0.4,0.2-0.8,0.2-1.2C373.9,117.2,373.2,116,372,115.6L372,115.6z M383.4,122.2c-0.5-0.4-1.2-0.7-1.9-0.7
		c-1.7,0-3.1,1.4-3.1,3.1c0,0.9,0.4,1.8,1.2,2.4c0.5,0.4,1.2,0.7,1.9,0.7c0.9,0,1.8-0.4,2.4-1.2c0.4-0.5,0.7-1.2,0.7-1.9
		C384.5,123.7,384.1,122.8,383.4,122.2L383.4,122.2z M392.4,131.9L392.4,131.9c-0.5-0.8-1.5-1.3-2.5-1.3c-0.6,0-1.3,0.2-1.8,0.6
		c-1.4,1-1.7,2.9-0.8,4.3c0.6,0.8,1.5,1.3,2.5,1.3c1.7,0,3.1-1.4,3.1-3.1C392.9,133,392.7,132.4,392.4,131.9L392.4,131.9z
		 M398.3,143.6c-0.4-1.2-1.6-2.1-2.9-2.1c-0.3,0-0.7,0-1,0.2c-1.6,0.5-2.5,2.3-2,3.9c0.4,1.3,1.6,2.1,3,2.1c0.3,0,0.7,0,1-0.2
		c1.3-0.4,2.1-1.6,2.1-3C398.4,144.3,398.4,143.9,398.3,143.6L398.3,143.6z M397.8,153.6h-0.3c-1.7,0.2-3,1.7-2.8,3.4
		c0.2,1.6,1.5,2.8,3.1,2.8c0.1,0,0.2,0,0.3,0c1.6-0.2,2.8-1.5,2.8-3.1v-0.3C400.8,154.8,399.4,153.6,397.8,153.6L397.8,153.6z
		 M397.8,165.9c-0.2,0-0.4-0.1-0.6-0.1c-1.7,0-3.1,1.4-3.1,3.1c0,1.5,1.1,2.8,2.5,3c0.2,0,0.4,0.1,0.6,0.1c1.5,0,2.7-1,3-2.5
		c0-0.2,0.1-0.4,0.1-0.6C400.2,167.5,399.2,166.2,397.8,165.9L397.8,165.9z M394.5,177.8c-0.4-0.2-0.9-0.3-1.4-0.3
		c-1.7,0-3.1,1.4-3.1,3.1c0,1.2,0.7,2.2,1.7,2.7c0.4,0.2,0.9,0.3,1.4,0.3c1.2,0,2.2-0.6,2.8-1.7c0.2-0.4,0.3-0.9,0.3-1.4
		C396.2,179.4,395.5,178.3,394.5,177.8L394.5,177.8z M388.1,188.3c-1.3-1.1-3.2-1-4.4,0.2c-1.1,1.2-1.1,3.2,0.2,4.3
		c1.3,1.1,3.2,1.1,4.4-0.2c0.5-0.6,0.8-1.3,0.8-2.1C389.1,189.8,388.7,188.9,388.1,188.3L388.1,188.3z M379.1,196.8
		c-0.6-0.9-1.6-1.5-2.6-1.5c-0.6,0-1.1,0.2-1.6,0.5c-1.4,0.9-1.9,2.8-1,4.3c0.6,0.9,1.5,1.4,2.6,1.4c0.6,0,1.1-0.2,1.6-0.5
		c0.9-0.6,1.5-1.6,1.5-2.6C379.6,197.9,379.4,197.3,379.1,196.8L379.1,196.8z M368.3,203.4c0-0.3,0-0.6-0.1-0.9
		c-0.4-1.3-1.6-2.3-3-2.3c-0.3,0-0.6,0-0.8,0.1c-1.6,0.5-2.6,2.2-2.1,3.8c0,0,0,0,0,0c0.4,1.3,1.6,2.2,3,2.2c0.3,0,0.6,0,0.9-0.1
		l0,0C367.4,206,368.3,204.8,368.3,203.4L368.3,203.4z M353.1,202h-0.2v6.2h0.2c1.7,0,3.1-1.4,3.1-3.1v-0.1
		C356.1,203.4,354.8,202,353.1,202C353.1,202,353.1,202,353.1,202L353.1,202z"/>
	<path class="st19" d="M363.3,157.9c1.8-2.4,2.8-5.3,2.8-8.4c0-4.1-1.8-8-5-10.6v-4.9c0-1.7-1.4-3.1-3.1-3.1c-1.7,0-3.1,1.4-3.1,3.1
		v2.3c-0.7-0.1-1.3-0.2-2.1-0.2v6.2c4.9,0.2,7.1,3.8,7.1,7.2c0,3.5-2.2,7.1-7.1,7.2v6.2h5.1c5,0.1,7.2,3.7,7.2,7.2
		c0,3.5-2.2,7.1-7.2,7.2h-5.1v6.2h2.1v2.1c0,1.7,1.4,3.1,3.1,3.1c1.7,0,3.1-1.4,3.1-3.1v-2.4c6.7-1.5,10.2-7.4,10.2-13.1
		C371.3,165.2,368.6,160.1,363.3,157.9L363.3,157.9z"/>
</g>
</svg>
