<svg xmlns="http://www.w3.org/2000/svg" version="1.1" xmlns:xlink="http://www.w3.org/1999/xlink" xmlns:svgjs="http://svgjs.com/svgjs" width="512" height="512" x="0" y="0" viewBox="0 0 64 64" style="enable-background:new 0 0 512 512" xml:space="preserve" class=""><g><linearGradient xmlns="http://www.w3.org/2000/svg" id="SVGID_1_" gradientUnits="userSpaceOnUse" x1="32" x2="32" y1="63" y2="1"><stop stop-opacity="1" stop-color="#ffffff" offset="0"></stop><stop stop-opacity="1" stop-color="#ffffff" offset="1"></stop></linearGradient><path xmlns="http://www.w3.org/2000/svg" d="m6 63h16c2.757 0 5-2.243 5-5v-9h1c1.654 0 3-1.346 3-3v-14c0-1.654-1.346-3-3-3h-15c-2.099 0-4.068-.93-5.404-2.55s-1.867-3.758-1.458-5.864c.53-2.728 2.72-4.917 5.448-5.448 2.107-.408 4.243.122 5.863 1.458 1.621 1.336 2.551 3.306 2.551 5.404h2c0-2.698-1.195-5.23-3.278-6.947-1.057-.871-2.283-1.474-3.587-1.79.848-5.82 5.893-10.263 11.865-10.263 4.419 0 8.468 2.419 10.568 6.314l.459.851.866-.43c.982-.488 2.027-.735 3.107-.735 3.859 0 7 3.14 7 7s-3.141 7-7 7v2c4.963 0 9-4.038 9-9 0-.334-.021-.662-.057-.987.469-.004.94.025 1.412.113 2.759.514 4.973 2.708 5.507 5.459.409 2.106-.122 4.244-1.458 5.864-1.336 1.621-3.305 2.551-5.404 2.551h-15c-1.654 0-3 1.346-3 3v16c0 1.654 1.346 3 3 3h1.051c.514 6.701 6.119 12 12.949 12 7.168 0 13-5.832 13-13s-5.832-13-13-13c-6.83 0-12.435 5.299-12.949 12h-1.051c-.552 0-1-.449-1-1v-16c0-.551.448-1 1-1h15c2.697 0 5.229-1.195 6.947-3.278 1.717-2.083 2.401-4.823 1.878-7.517-.689-3.551-3.544-6.381-7.104-7.044-.747-.14-1.498-.185-2.24-.143-1.234-3.499-4.564-6.018-8.481-6.018-1.079 0-2.13.191-3.135.569-2.553-4.074-7.018-6.569-11.865-6.569-6.979 0-12.87 5.201-13.846 12.008-.646-.012-1.298.04-1.949.167-3.521.684-6.347 3.509-7.03 7.029-.523 2.695.161 5.435 1.878 7.518 1.718 2.083 4.25 3.278 6.947 3.278h15c.552 0 1 .449 1 1v14c0 .551-.448 1-1 1h-1v-9c0-2.757-2.243-5-5-5h-16c-2.757 0-5 2.243-5 5v20c0 2.757 2.243 5 5 5zm36.35-5.112c.915-2.897 3.564-4.888 6.65-4.888h2c3.088 0 5.737 1.991 6.65 4.888-1.982 1.922-4.678 3.112-7.65 3.112s-5.668-1.19-7.65-3.112zm7.65-6.888c-2.206 0-4-1.794-4-4s1.794-4 4-4 4 1.794 4 4-1.794 4-4 4zm0-12c6.065 0 11 4.935 11 11 0 2.27-.692 4.381-1.874 6.135-1.035-2.194-2.9-3.858-5.165-4.639 1.247-1.101 2.039-2.706 2.039-4.496 0-3.309-2.691-6-6-6s-6 2.691-6 6c0 1.79.792 3.395 2.04 4.496-2.265.782-4.129 2.446-5.165 4.639-1.183-1.754-1.875-3.865-1.875-6.135 0-6.065 4.935-11 11-11zm-28 22h-16c-1.654 0-3-1.346-3-3v-3h22v3c0 1.654-1.346 3-3 3zm-16-26h16c1.654 0 3 1.346 3 3v15h-22v-15c0-1.654 1.346-3 3-3zm1 8h14c1.103 0 2-.897 2-2v-2c0-1.103-.897-2-2-2h-14c-1.103 0-2 .897-2 2v2c0 1.103.897 2 2 2zm0-4h14l.001 2h-14.001zm0 12h14c1.103 0 2-.897 2-2v-2c0-1.103-.897-2-2-2h-14c-1.103 0-2 .897-2 2v2c0 1.103.897 2 2 2zm0-4h14l.001 2h-14.001zm14 10h2v2h-2zm-4 0h2v2h-2zm-4 0h2v2h-2zm0-38v-2c2.757 0 5 2.243 5 5h-2c0-1.654-1.346-3-3-3zm21.169-7.555c-1.362-2.742-4.109-4.445-7.169-4.445v-2c3.824 0 7.257 2.128 8.96 5.554zm12.831 4.555c0 2.757-2.243 5-5 5v-2c1.654 0 3-1.346 3-3zm-34 9h2v2h-2zm6 2h-2v-2h2zm2-2h2v2h-2z" fill="url(#SVGID_1_)" data-original="url(#SVGID_1_)"></path></g></svg>