<svg xmlns="http://www.w3.org/2000/svg" version="1.1" xmlns:xlink="http://www.w3.org/1999/xlink" xmlns:svgjs="http://svgjs.com/svgjs" width="512" height="512" x="0" y="0" viewBox="0 0 512 512" style="enable-background:new 0 0 512 512" xml:space="preserve" class=""><g><g xmlns="http://www.w3.org/2000/svg"><g><g><path d="m437.02 74.98c-48.352-48.351-112.64-74.98-181.02-74.98s-132.667 26.629-181.02 74.98c-48.351 48.353-74.98 112.64-74.98 181.02s26.629 132.667 74.98 181.02c48.353 48.351 112.64 74.98 181.02 74.98s132.668-26.629 181.02-74.98c48.351-48.353 74.98-112.64 74.98-181.02s-26.629-132.667-74.98-181.02zm-181.02 422.02c-132.888 0-241-108.112-241-241s108.112-241 241-241 241 108.112 241 241-108.112 241-241 241z" fill="#ffffff" data-original="#000000" class=""></path><path d="m444.835 274.363c.398-4.123-2.621-7.788-6.744-8.186-4.123-.394-7.788 2.622-8.186 6.745-8.683 89.963-83.446 157.805-173.905 157.805-96.345 0-174.727-78.382-174.727-174.727s78.382-174.727 174.727-174.727c89.963 0 164.688 67.427 173.818 156.841.42 4.12 4.083 7.116 8.223 6.7 4.121-.421 7.12-4.103 6.699-8.223-4.74-46.429-26.492-89.396-61.25-120.986-35.001-31.813-80.278-49.332-127.49-49.332-104.616 0-189.727 85.111-189.727 189.727s85.111 189.727 189.727 189.727c47.395 0 92.801-17.639 127.854-49.668 34.821-31.817 56.478-75.036 60.981-121.696z" fill="#ffffff" data-original="#000000" class=""></path><path d="m414.905 97.094c-42.445-42.446-98.879-65.821-158.905-65.821-60.027 0-116.461 23.375-158.906 65.821-42.446 42.445-65.821 98.879-65.821 158.906 0 56.547 21.079 110.583 59.354 152.155 38.044 41.321 89.693 66.778 145.434 71.682 4.12.362 7.765-2.687 8.128-6.814.363-4.126-2.688-7.766-6.814-8.128-107.16-9.428-191.102-101.186-191.102-208.895 0-115.644 94.083-209.727 209.727-209.727s209.727 94.083 209.727 209.727c0 108.852-84.906 200.695-193.298 209.09-4.13.32-7.219 3.927-6.898 8.057.305 3.933 3.59 6.921 7.47 6.921.194 0 .39-.008.587-.023 56.258-4.357 108.475-29.595 147.031-71.065 38.762-41.691 60.108-96.021 60.108-152.98 0-60.027-23.376-116.46-65.822-158.906z" fill="#ffffff" data-original="#000000" class=""></path><path d="m209.716 271.923c-1.529-3.851-5.89-5.734-9.738-4.205-3.85 1.528-5.732 5.888-4.205 9.738l48.146 121.307c.963 2.426 3.118 4.177 5.69 4.623.427.074.855.11 1.281.11 2.136 0 4.196-.914 5.633-2.548l143.287-163.01c2.651-3.017 2.457-7.586-.442-10.366l-57.317-54.952c-1.086-1.041-2.46-1.731-3.943-1.981l-184.845-31.16c-2.671-.453-5.375.574-7.079 2.68-1.703 2.105-2.138 4.966-1.139 7.482l37.413 94.265c1.528 3.85 5.887 5.733 9.738 4.205 3.85-1.528 5.732-5.888 4.205-9.738l-27.266-68.699 95.435 74.156-17.18 123.015zm166.927-45.358-84.304 5.258 44.561-43.362zm-196.517-67.347 140.906 23.753-48.988 47.671zm99.052 88.455 97.447-6.078-114.844 130.652z" fill="#ffffff" data-original="#000000" class=""></path></g></g></g></g></svg>