<svg xmlns="http://www.w3.org/2000/svg" version="1.1" xmlns:xlink="http://www.w3.org/1999/xlink" xmlns:svgjs="http://svgjs.com/svgjs" width="512" height="512" x="0" y="0" viewBox="0 0 512 512" style="enable-background:new 0 0 512 512" xml:space="preserve" class=""><g><g xmlns="http://www.w3.org/2000/svg"><path d="m0 256c0-141.281 114.446-255.831 255.688-256 140.057-.167 254.874 113.285 256.299 253.336.835 82.051-36.937 155.314-96.264 202.738-3.639 2.909-8.765 2.978-12.575.297-41.628-29.291-92.379-46.49-147.148-46.49s-105.519 17.199-147.148 46.49c-3.81 2.681-8.936 2.612-12.575-.297-58.684-46.911-96.277-119.102-96.277-200.074z" fill="#0691ce" data-original="#0691ce"></path><path d="m436.902 270c0 109.131-88.468 197.599-197.599 197.599s-197.598-88.468-197.598-197.599 88.468-197.599 197.599-197.599 197.598 88.468 197.598 197.599z" fill="#07a9f0" data-original="#07a9f0"></path><path d="m428.644 110v140c0 5.523-4.477 10-10 10h-168.644c-5.523 0-10-4.477-10-10v-140c0-5.523 4.477-10 10-10h168.644c5.523 0 10 4.477 10 10z" fill="#40c1fa" data-original="#40c1fa"></path><path d="m474.322 191.472v94.555c0 5.523-4.477 10-10 10h-124.322c-5.523 0-10-4.477-10-10v-94.555c0-5.523 4.477-10 10-10h124.322c5.523 0 10 4.478 10 10z" fill="#93dcfc" data-original="#93dcfc"></path><path d="m357.161 207.5c0-4.142 3.358-7.5 7.5-7.5h75c4.142 0 7.5 3.358 7.5 7.5s-3.358 7.5-7.5 7.5h-75c-4.142 0-7.5-3.358-7.5-7.5zm82.5 55h-75c-4.142 0-7.5 3.358-7.5 7.5s3.358 7.5 7.5 7.5h75c4.142 0 7.5-3.358 7.5-7.5s-3.358-7.5-7.5-7.5zm0-31.25h-75c-4.142 0-7.5 3.358-7.5 7.5s3.358 7.5 7.5 7.5h75c4.142 0 7.5-3.358 7.5-7.5s-3.358-7.5-7.5-7.5z" fill="#b4e7fd" data-original="#b4e7fd"></path><path d="m190 34.555v85.445c0 5.523-4.477 10-10 10h-139.804c-5.523 0-10-4.477-10-10v-85.445c0-5.523 4.477-10 10-10h139.804c5.523 0 10 4.477 10 10z" fill="#e5554e" data-original="#e5554e"></path><path d="m58.401 130h-18.205c-5.523 0-10-4.477-10-10v-85.445c0-5.523 4.477-10 10-10h18.205c-5.523 0-10 4.477-10 10v85.445c0 5.523 4.478 10 10 10z" fill="#cc4646" data-original="#cc4646"></path><path d="m132.236 83.232-24.208 20.054c-1.78 1.474-4.356 1.474-6.136 0l-24.208-20.054c-7.755-6.425-9.023-17.841-2.865-25.81 6.885-8.911 20.031-9.75 27.993-1.787l2.147 2.147 2.147-2.147c7.963-7.963 21.108-7.123 27.993 1.787 6.159 7.969 4.892 19.385-2.863 25.81z" fill="#f87b67" data-original="#f87b67"></path><path d="m126.128 476.657c-10.552-6.223-20.618-13.182-30.128-20.806v-72.341c0-38.66 31.34-70 70-70h41.538c-38.66 0-70 31.34-70 70v86.671c0 5.856-6.367 9.451-11.41 6.476z" fill="#cc4646" data-original="#cc4646"></path><path d="m416 383.511v72.341c-43.827 35.133-99.459 56.148-160 56.148-47.457 0-91.897-12.913-130-35.417v-93.072c0-38.66 31.34-70 70-70h14.042l5.936 5.702h78.527l7.452-5.702h44.043c38.66 0 70 31.34 70 70z" fill="#e5554e" data-original="#e5554e"></path><path d="m256 369.383c-25.382 0-45.958-20.576-45.958-45.957v-9.915h91.915v9.915c.001 25.381-20.575 45.957-45.957 45.957zm-92.5 46.723c-4.142 0-7.5 3.358-7.5 7.5v68.125c4.923 2.091 9.925 4.032 15 5.818v-73.944c0-4.141-3.358-7.499-7.5-7.499zm185 0c-4.142 0-7.5 3.358-7.5 7.5v73.944c5.075-1.786 10.077-3.727 15-5.818v-68.126c0-4.142-3.358-7.5-7.5-7.5zm-25.989-11.744h-56.011c-1.657 0-3 1.343-3 3v31.677c0 .988.486 1.912 1.3 2.472l28.005 19.255c1.024.704 2.376.704 3.399 0l28.005-19.255c.814-.56 1.3-1.484 1.3-2.472v-31.677c.002-1.657-1.342-3-2.998-3z" fill="#cc4646" data-original="#cc4646"></path><path d="m325.835 407.17h-62.66c-2.761 0-5-2.239-5-5v-8.383c0-2.761 2.239-5 5-5h62.66c2.761 0 5 2.239 5 5v8.383c0 2.762-2.238 5-5 5z" fill="#f76c57" data-original="#f76c57"></path><path d="m512 34.131c0 18.85-15.281 34.131-34.131 34.131h-72.529l-63.996 42.664v-42.663c-18.85 0-34.131-15.281-34.131-34.131 0-18.851 15.281-34.132 34.131-34.132h136.525c18.85 0 34.131 15.281 34.131 34.131z" fill="#eac23f" data-original="#eac23f"></path><path d="m512 34.131c0 18.85-15.281 34.131-34.131 34.131h-91.674c-18.85 0-34.131-15.281-34.131-34.131 0-18.85 15.281-34.131 34.131-34.131h91.674c18.85 0 34.131 15.281 34.131 34.131z" fill="#e9cc5a" data-original="#e9cc5a"></path><path d="m353.9 32.033-6.077 5.594c-.312.287-.454.715-.375 1.132l1.532 8.116c.194 1.027-.9 1.812-1.811 1.299l-7.198-4.051c-.37-.208-.821-.211-1.193-.007l-7.245 3.965c-.916.502-2.001-.296-1.795-1.321l1.628-8.097c.084-.416-.053-.846-.362-1.137l-6.01-5.666c-.76-.717-.336-1.995.701-2.115l8.204-.954c.421-.049.788-.312.969-.695l3.531-7.466c.447-.944 1.793-.936 2.229.013l3.442 7.508c.177.386.54.653.961.707l8.192 1.051c1.037.134 1.446 1.417.677 2.124zm34.401-2.123-8.192-1.051c-.421-.054-.784-.321-.961-.707l-3.442-7.508c-.435-.95-1.782-.958-2.229-.013l-3.531 7.466c-.181.384-.548.646-.969.695l-8.204.954c-1.038.121-1.461 1.399-.701 2.115l6.01 5.666c.309.291.445.721.362 1.137l-1.628 8.097c-.206 1.024.879 1.822 1.795 1.321l7.245-3.965c.372-.204.823-.201 1.193.007l7.198 4.051c.91.512 2.005-.273 1.811-1.299l-1.532-8.116c-.079-.417.063-.845.375-1.132l6.077-5.594c.768-.708.359-1.991-.677-2.124zm35.077 0-8.192-1.051c-.421-.054-.784-.321-.961-.707l-3.442-7.508c-.435-.95-1.782-.958-2.229-.013l-3.531 7.466c-.181.384-.548.646-.969.695l-8.204.954c-1.038.121-1.461 1.399-.701 2.115l6.01 5.666c.309.291.445.721.362 1.137l-1.628 8.097c-.206 1.024.879 1.822 1.795 1.321l7.245-3.965c.372-.204.823-.201 1.193.007l7.198 4.051c.91.512 2.004-.273 1.811-1.299l-1.532-8.116c-.079-.417.063-.845.375-1.132l6.077-5.594c.768-.708.359-1.991-.677-2.124zm35.077 0-8.192-1.051c-.421-.054-.784-.321-.961-.707l-3.442-7.508c-.435-.95-1.782-.958-2.229-.013l-3.531 7.466c-.181.384-.548.646-.969.695l-8.204.954c-1.038.121-1.461 1.399-.701 2.115l6.01 5.666c.309.291.446.721.362 1.137l-1.628 8.097c-.206 1.024.879 1.822 1.795 1.321l7.245-3.965c.372-.204.823-.201 1.193.007l7.198 4.051c.91.512 2.005-.273 1.811-1.299l-1.532-8.116c-.079-.417.063-.845.375-1.132l6.077-5.594c.767-.708.359-1.991-.677-2.124zm35.077 0-8.192-1.051c-.421-.054-.784-.321-.961-.707l-3.442-7.508c-.436-.95-1.782-.958-2.229-.013l-3.531 7.466c-.181.384-.548.646-.969.695l-8.204.954c-1.038.121-1.461 1.399-.701 2.115l6.01 5.666c.309.291.446.721.362 1.137l-1.628 8.097c-.206 1.024.879 1.822 1.795 1.321l7.245-3.965c.372-.204.823-.201 1.193.007l7.198 4.051c.911.512 2.005-.273 1.811-1.299l-1.532-8.116c-.079-.417.063-.845.375-1.132l6.077-5.594c.767-.708.359-1.991-.677-2.124z" fill="#fff5f5" data-original="#fff5f5"></path><path d="m282.404 254.897c-7.389 1.441-15.024 2.197-22.835 2.197h-7.139c-65.492 0-118.584-53.092-118.584-118.584 0-65.492 53.092-118.584 118.584-118.584h7.139.234c4.761.009 5.979 6.621 1.556 8.383-43.771 17.443-74.705 60.209-74.705 110.2.001 57.683 41.184 105.744 95.75 116.388z" fill="#e9cc5a" data-original="#e9cc5a"></path><path d="m378.153 138.511c0 59.275-43.49 108.391-100.301 117.183-56.812-8.792-100.302-57.908-100.302-117.183 0-59.274 43.49-108.391 100.302-117.183 56.812 8.792 100.301 57.908 100.301 117.183z" fill="#f1de96" data-original="#f1de96"></path><path d="m171 188.511v10c0 13.807-11.193 25-25 25s-25-11.193-25-25v-10c0-13.807 11.193-25 25-25s25 11.193 25 25z" fill="#faa68e" data-original="#faa68e"></path><path d="m136 183.511v20c0 8.178 3.927 15.439 9.998 20-13.806-.001-24.998-11.194-24.998-25v-10c0-13.806 11.192-24.999 24.998-25-6.071 4.561-9.998 11.821-9.998 20zm230-20v-20c0-60.751-49.249-110-110-110-60.751 0-110 49.249-110 110v40c0 50.351 33.83 92.801 80 105.859v34.141c0 16.568 13.431 30 30 30s30-13.431 30-30v-34.141c33.586-9.499 60.641-34.551 72.895-66.883 2.252.666 4.637 1.024 7.105 1.024 13.807 0 25-11.193 25-25v-10c0-13.807-11.193-25-25-25z" fill="#e09380" data-original="#e09380"></path><path d="m366 143.511v40c0 50.792-34.425 93.543-81.216 106.195-9.023 2.44-18.545 2.44-27.568 0-46.791-12.652-81.216-55.403-81.216-106.195v-40c0-55.663 41.345-101.669 95-108.985 53.655 7.315 95 53.321 95 108.985z" fill="#faa68e" data-original="#faa68e"></path><path d="m270.5 190.242c-3.875 3.875-9.024 6.009-14.5 6.009s-10.625-2.134-14.5-6.009c-2.929-2.93-2.929-7.678 0-10.607 2.929-2.928 7.678-2.928 10.606 0 1.042 1.042 2.424 1.616 3.893 1.616s2.851-.574 3.893-1.616c2.929-2.928 7.678-2.928 10.606 0 2.931 2.929 2.931 7.677.002 10.607z" fill="#d47f6c" data-original="#d47f6c"></path><path d="m223.5 151.011c0 8.284-6.716 15-15 15s-15-6.716-15-15 6.716-15 15-15 15 6.715 15 15zm80-15c-8.284 0-15 6.716-15 15s6.716 15 15 15 15-6.716 15-15-6.716-15-15-15z" fill="#2b3894" data-original="#2b3894"></path><path d="m226 143.511c0 4.142-3.358 7.5-7.5 7.5s-7.5-3.358-7.5-7.5 3.358-7.5 7.5-7.5 7.5 3.358 7.5 7.5zm87.5-7.5c-4.142 0-7.5 3.358-7.5 7.5s3.358 7.5 7.5 7.5 7.5-3.358 7.5-7.5-3.358-7.5-7.5-7.5z" fill="#fff5f5" data-original="#fff5f5"></path><path d="m286 223.511c0 16.569-13.431 30-30 30-16.568 0-30-13.431-30-30 0-4.142 3.358-7.5 7.5-7.5h45c4.142 0 7.5 3.357 7.5 7.5z" fill="#fff5f5" data-original="#fff5f5"></path><path d="m263.5 252.565c-2.397.617-4.91.945-7.5.945-16.568 0-30-13.431-30-30 0-4.142 3.358-7.5 7.5-7.5h15c-4.142 0-7.5 3.358-7.5 7.5 0 13.979 9.561 25.725 22.5 29.055z" fill="#e1ebf0" data-original="#e1ebf0"></path><path d="m197.404 78.698c-1.128 1.928-3.206 3.098-5.44 3.098h-43.702c20.112-36.862 59.219-61.87 104.167-61.87h7.139c6.86 0 13.584.583 20.125 1.701-35.104 6.002-64.944 27.436-82.289 57.071z" fill="#e9cc5a" data-original="#e9cc5a"></path><path d="m363.737 81.797h-168.807c17.362-31.822 45.502-54.81 82.714-60.501 37.213 5.691 68.731 28.679 86.093 60.501z" fill="#f1de96" data-original="#f1de96"></path><path d="m89.219 217.549-12.105 11.412c-.622.586-.897 1.452-.729 2.29l3.279 16.309c.415 2.063-1.77 3.67-3.616 2.66l-14.594-7.986c-.75-.41-1.658-.405-2.403.014l-14.498 8.159c-1.834 1.032-4.037-.549-3.647-2.617l3.085-16.347c.159-.84-.127-1.702-.756-2.281l-12.24-11.267c-1.548-1.425-.725-4.01 1.362-4.277l16.5-2.117c.848-.109 1.579-.647 1.935-1.424l6.933-15.122c.877-1.913 3.589-1.929 4.489-.027l7.113 15.039c.365.773 1.103 1.302 1.952 1.401l16.524 1.921c2.094.242 2.948 2.816 1.416 4.26z" fill="#fff5f5" data-original="#fff5f5"></path><path d="m7.219 175.739 2.069-10.964c.106-.563-.085-1.141-.507-1.53l-8.209-7.557c-1.038-.956-.487-2.689.913-2.869l11.067-1.42c.569-.073 1.059-.434 1.298-.955l4.65-10.142c.588-1.283 2.407-1.294 3.011-.018l4.771 10.086c.245.518.74.873 1.309.939l11.083 1.288c1.402.163 1.974 1.89.947 2.858l-8.118 7.654c-.417.393-.602.974-.489 1.536l2.2 10.939c.278 1.384-1.187 2.462-2.425 1.784l-9.789-5.356c-.503-.275-1.112-.272-1.612.01l-9.724 5.472c-1.229.692-2.707-.369-2.445-1.755zm444.765 183.99 12.099-6.809c.622-.35 1.38-.354 2.005-.012l12.179 6.664c1.541.843 3.364-.498 3.018-2.22l-2.737-13.611c-.141-.699.089-1.422.608-1.911l10.102-9.524c1.278-1.205.565-3.353-1.179-3.556l-13.79-1.603c-.708-.082-1.324-.524-1.629-1.169l-5.936-12.55c-.751-1.587-3.014-1.574-3.746.022l-5.786 12.62c-.297.648-.908 1.098-1.615 1.188l-13.77 1.767c-1.742.224-2.428 2.38-1.136 3.57l10.213 9.405c.525.483.763 1.203.631 1.903l-2.575 13.642c-.326 1.726 1.513 3.046 3.044 2.184z" fill="#eac23f" data-original="#eac23f"></path><path d="m162.787 330.306c0 18.85-15.281 34.131-34.131 34.131h-94.525c-18.85 0-34.131-15.281-34.131-34.131 0-18.85 15.281-34.131 34.131-34.131h30.529l63.996-42.664v42.664c18.85 0 34.131 15.281 34.131 34.131z" fill="#b4e7fd" data-original="#b4e7fd"></path><path d="m162.787 330.306c0 18.85-15.281 34.131-34.131 34.131h-41.64c-18.85 0-34.131-15.281-34.131-34.131 0-18.85 15.281-34.131 34.131-34.131h41.64c18.85 0 34.131 15.281 34.131 34.131z" fill="#d5f1fe" data-original="#d5f1fe"></path><path d="m58.418 330.306c0 4.142-3.358 7.5-7.5 7.5s-7.5-3.358-7.5-7.5 3.358-7.5 7.5-7.5 7.5 3.358 7.5 7.5zm23.191-7.5c-4.142 0-7.5 3.358-7.5 7.5s3.358 7.5 7.5 7.5 7.5-3.358 7.5-7.5-3.358-7.5-7.5-7.5zm30.261 0c-4.142 0-7.5 3.358-7.5 7.5s3.358 7.5 7.5 7.5 7.5-3.358 7.5-7.5-3.358-7.5-7.5-7.5z" fill="#9bb9c3" data-original="#9bb9c3"></path></g></g></svg>