<svg xmlns="http://www.w3.org/2000/svg" xmlns:xlink="http://www.w3.org/1999/xlink" viewBox="0 0 946.3 1059.7" xmlns:v="https://vecta.io/nano"><style><![CDATA[.Aa{enable-background:new}.Ab{fill:#021530}.Ac{fill:#052244}.Ad{stroke-miterlimit:10}]]></style><g class="Aa Ab"><path d="M244.1 72.7V25.8h14.4c4.1 0 7.8.9 11.1 2.8a19.28 19.28 0 0 1 7.6 7.9c1.8 3.4 2.7 7.3 2.7 11.7v2.2c0 4.4-.9 8.2-2.7 11.6a19.28 19.28 0 0 1-7.6 7.9c-3.3 1.9-7 2.8-11.1 2.8h-14.4zm9.6-39.1v31.3h4.7c3.8 0 6.7-1.2 8.7-3.7s3-6 3.1-10.6v-2.5c0-4.8-1-8.4-3-10.8-2-2.5-4.9-3.7-8.7-3.7h-4.8z"/><use xlink:href="#AK"/><path d="M336.5 65.9c1.7 0 3.1-.5 4.2-1.4s1.6-2.2 1.7-3.8h8.7c0 2.4-.7 4.5-1.9 6.5-1.3 2-3 3.5-5.2 4.6s-4.6 1.6-7.3 1.6c-5 0-8.9-1.6-11.8-4.8s-4.3-7.5-4.3-13.1v-.6c0-5.4 1.4-9.7 4.3-12.9s6.8-4.8 11.8-4.8c4.4 0 7.9 1.2 10.5 3.7s4 5.8 4 9.9h-8.7c0-1.8-.6-3.3-1.7-4.4s-2.5-1.7-4.3-1.7c-2.2 0-3.8.8-4.9 2.4s-1.7 4.1-1.7 7.7v1c0 3.6.5 6.2 1.6 7.7 1.1 1.6 2.8 2.4 5 2.4z"/><use xlink:href="#AK" x="70.1"/><path d="M400.7 37.8l.3 4c2.5-3.1 5.8-4.7 10-4.7 3.7 0 6.4 1.1 8.3 3.3s2.7 5.4 2.8 9.7v22.5h-9.3V50.4c0-2-.4-3.4-1.3-4.3s-2.3-1.3-4.3-1.3c-2.6 0-4.6 1.1-5.9 3.4v24.6H392v-35h8.7zm39.5-8.5v8.6h6v6.8h-6v17.4c0 1.3.2 2.2.7 2.8s1.4.8 2.8.8c1 0 1.9-.1 2.7-.2v7.1c-1.8.6-3.7.8-5.6.8-6.5 0-9.9-3.3-10-9.9V44.7h-5.1v-6.8h5.1v-8.6h9.4zM471 46.6c-1.3-.2-2.4-.3-3.4-.3-3.5 0-5.8 1.2-6.9 3.6v22.8h-9.3V37.8h8.8l.3 4.2c1.9-3.2 4.5-4.8 7.8-4.8 1 0 2 .1 2.9.4l-.2 9zm23.7 26.1c-.4-.8-.7-1.9-.9-3.1-2.3 2.5-5.2 3.8-8.8 3.8-3.4 0-6.2-1-8.5-3-2.2-2-3.4-4.5-3.4-7.5 0-3.7 1.4-6.5 4.1-8.5s6.7-3 11.9-3h4.3v-2c0-1.6-.4-2.9-1.2-3.9s-2.1-1.5-3.9-1.5c-1.6 0-2.8.4-3.7 1.1-.9.8-1.3 1.8-1.3 3.1H474c0-2 .6-3.9 1.9-5.6 1.2-1.7 3-3.1 5.3-4 2.3-1 4.8-1.5 7.7-1.5 4.3 0 7.7 1.1 10.2 3.2 2.5 2.2 3.8 5.2 3.8 9.1v15.1c0 3.3.5 5.8 1.4 7.5v.5h-9.6zm-7.7-6.5c1.4 0 2.6-.3 3.8-.9s2-1.4 2.6-2.5v-6h-3.5c-4.7 0-7.1 1.6-7.4 4.8v.5c0 1.2.4 2.1 1.2 2.9s1.9 1.2 3.3 1.2zm32.7 6.5h-9.3V23.2h9.3v49.5zm7.6-43.9c0-1.4.5-2.5 1.4-3.4s2.2-1.4 3.8-1.4 2.9.5 3.8 1.4a4.76 4.76 0 0 1 1.4 3.4c0 1.4-.5 2.6-1.4 3.5-1 .9-2.2 1.4-3.8 1.4s-2.8-.5-3.8-1.4c-.9-.9-1.4-2.1-1.4-3.5zm9.9 43.9h-9.3V37.8h9.3v34.9zm18.4-7.5h17v7.5h-28.9V67l16.4-21.7h-15.9v-7.5h27.9v5.5l-16.5 21.9zm38.4 8.2c-5.1 0-9.3-1.6-12.5-4.7s-4.8-7.3-4.8-12.5v-.9c0-3.5.7-6.6 2-9.4s3.3-4.9 5.8-6.4 5.3-2.2 8.5-2.2c4.8 0 8.5 1.5 11.3 4.5 2.7 3 4.1 7.3 4.1 12.8v3.8h-22.2c.3 2.3 1.2 4.1 2.7 5.5s3.4 2.1 5.8 2.1c3.6 0 6.4-1.3 8.4-3.9l4.6 5.1c-1.4 2-3.3 3.5-5.7 4.6-2.5 1-5.1 1.6-8 1.6zm-1.1-28.7c-1.8 0-3.3.6-4.5 1.9s-1.9 3-2.2 5.4h13v-.7c0-2.1-.6-3.7-1.7-4.8-1.1-1.2-2.6-1.8-4.6-1.8zM612.2 55c0-5.4 1.2-9.8 3.7-13 2.4-3.2 5.8-4.8 10-4.8 3.4 0 6.2 1.3 8.4 3.8V23.2h9.3v49.5h-8.4l-.5-3.7c-2.3 2.9-5.3 4.4-9 4.4-4.1 0-7.4-1.6-9.9-4.8-2.4-3.3-3.6-7.8-3.6-13.6zm9.3.7c0 3.3.6 5.8 1.7 7.5s2.8 2.6 5 2.6c2.9 0 4.9-1.2 6.1-3.6V48.4c-1.2-2.4-3.2-3.6-6-3.6-4.6 0-6.8 3.6-6.8 10.9z"/></g><g fill="none" stroke="#6cf" stroke-width="5" class="Ad"><path d="M223.3 307.1L460 212.8l234.7 94.3 97.7 231.6-96 241.6L460 874.6l-236.7-99.5-92.6-231.4z"/><path d="M460 212.8v661.8"/><path d="M130.7 543.7l661.7-5M223.3 307.1h471.4"/><path d="M460 212.8l332.4 325.9m-661.7 5L460 212.8"/><path d="M223.3 775.1v-468m569.1 231.6L223.3 307.1"/><path d="M694.7 307.1l-564 236.6m565.7 236.6L130.7 543.7"/><path d="M460 212.8L223.3 775.1"/><path d="M223.3 307.1L460 874.6"/><path d="M130.7 543.7L460 874.6m234.7-567.5L460 874.6"/><path d="M223.3 307.1l473.1 473.2"/><path d="M460 212.8l236.4 567.5"/><path d="M694.7 307.1l1.7 473.2m-473.1-5.2l471.4-468m1.7 473.2l-473.1-5.2"/><path d="M792.4 538.7L460 874.6"/><path d="M223.3 775.1l569.1-236.4"/></g><g fill="#ff971a"><circle cx="578.2" cy="262.3" r="17.7"/><circle cx="328.2" cy="264.3" r="17.7"/><circle cx="178.2" cy="424.3" r="17.7"/><circle cx="741.2" cy="424.3" r="17.7"/><circle cx="341.2" cy="824.3" r="17.7"/><circle cx="591.2" cy="822.3" r="17.7"/><circle cx="741.2" cy="662.3" r="17.7"/><circle cx="178.2" cy="662.3" r="17.7"/></g><linearGradient id="A" gradientUnits="userSpaceOnUse" x1="266" y1="172.314" x2="293.532" y2="172.314"><stop offset="0" stop-color="#f2790a"/><stop offset="1" stop-color="#031035"/></linearGradient><path d="M267.5,173.8H292c0.8,0,1.5-0.7,1.5-1.5s-0.7-1.5-1.5-1.5h-24.5c-0.8,0-1.5,0.7-1.5,1.5         S266.7,173.8,267.5,173.8z" fill="url(#A)"/><linearGradient id="B" gradientUnits="userSpaceOnUse" x1="229.279" y1="167.614" x2="302.698" y2="167.614"><stop offset="0" stop-color="#f2790a"/><stop offset="1" stop-color="#031035"/></linearGradient><path d="M302.7 160v-6.1c0-1.5-.4-2.8-1.2-4v-.1l-9.5-15.2c-1.4-2.3-3.8-3.6-6.5-3.6h-39.1c-2.7 0-5.1 1.4-6.5 3.6l-9.5 15.2v.1c-.7 1.2-1.2 2.5-1.2 4v6.1c0 2.5 1.2 4.7 3.1 6.1-1.9 1.4-3.1 3.6-3.1 6.1v6.1c0 2.5 1.2 4.7 3.1 6.1-1.9 1.4-3.1 3.6-3.1 6.1v6.1a7.6 7.6 0 0 0 7.6 7.6H257a1.54 1.54 0 0 0 1.5-1.5 1.54 1.54 0 0 0-1.5-1.5h-20.1c-2.5 0-4.6-2.1-4.6-4.6v-6.1c0-2.5 2.1-4.6 4.6-4.6h25.6a1.54 1.54 0 0 0 1.5-1.5 1.54 1.54 0 0 0-1.5-1.5h-25.6c-2.5 0-4.6-2.1-4.6-4.6v-6.1c0-2.5 2.1-4.6 4.6-4.6H295c2.5 0 4.6 2.1 4.6 4.6v6.1c0 .7-.2 1.3-.5 2-.4.8-.1 1.7.7 2 .8.4 1.7.1 2-.7.5-1.1.8-2.2.8-3.3v-6.1c0-2.5-1.2-4.7-3.1-6.1 2-1.4 3.2-3.6 3.2-6.1zm-60.2-23.8c.8-1.4 2.3-2.2 3.9-2.2h39.1c1.6 0 3.1.8 3.9 2.2l6.3 10.1c-.2 0-.5-.1-.7-.1h-58.1c-.2 0-.5 0-.7.1l6.3-10.1zm57.1 23.8c0 2.5-2.1 4.6-4.6 4.6h-58.1c-2.5 0-4.6-2.1-4.6-4.6v-6.1c0-2.5 2.1-4.6 4.6-4.6H295c2.5 0 4.6 2.1 4.6 4.6v6.1h0z" fill="url(#B)"/><linearGradient id="C" gradientUnits="userSpaceOnUse" x1="235.4" y1="193.714" x2="244.577" y2="193.714"><stop offset="0" stop-color="#f2790a"/><stop offset="1" stop-color="#031035"/></linearGradient><use xlink:href="#AL" fill="url(#C)"/><linearGradient id="D" gradientUnits="userSpaceOnUse" x1="259.9" y1="190.464" x2="302.7" y2="190.464"><stop offset="0" stop-color="#f2790a"/><stop offset="1" stop-color="#031035"/></linearGradient><path d="M292 182.9h-.8c-2.5-3.8-6.8-6.2-11.4-6.2-7.1 0-13 5.4-13.7 12.4-3.5.7-6.2 3.8-6.2 7.5a7.6 7.6 0 0 0 7.6 7.6H292c5.9 0 10.7-4.8 10.7-10.7 0-5.7-4.8-10.6-10.7-10.6zm0 18.4h-24.5c-2.5 0-4.6-2.1-4.6-4.6s2.1-4.6 4.6-4.6a1.54 1.54 0 0 0 1.5-1.5c0-5.9 4.8-10.7 10.7-10.7 3.8 0 7.4 2.1 9.3 5.5.3.6.9.9 1.6.8.4-.1.9-.1 1.3-.1a7.6 7.6 0 0 1 7.6 7.6c0 4.2-3.3 7.6-7.5 7.6z" fill="url(#D)"/><linearGradient id="E" gradientUnits="userSpaceOnUse" x1="266" y1="153.914" x2="293.532" y2="153.914"><stop offset="0" stop-color="#f2790a"/><stop offset="1" stop-color="#031035"/></linearGradient><path d="M292,152.4h-24.5c-0.8,0-1.5,0.7-1.5,1.5s0.7,1.5,1.5,1.5H292c0.8,0,1.5-0.7,1.5-1.5         S292.8,152.4,292,152.4z" fill="url(#E)"/><linearGradient id="F" gradientUnits="userSpaceOnUse" x1="266" y1="160.014" x2="293.532" y2="160.014"><stop offset="0" stop-color="#f2790a"/><stop offset="1" stop-color="#031035"/></linearGradient><path d="M292,158.5h-24.5c-0.8,0-1.5,0.7-1.5,1.5s0.7,1.5,1.5,1.5H292c0.8,0,1.5-0.7,1.5-1.5         S292.8,158.5,292,158.5z" fill="url(#F)"/><linearGradient id="G" gradientUnits="userSpaceOnUse" x1="235.4" y1="157.014" x2="244.577" y2="157.014"><stop offset="0" stop-color="#f2790a"/><stop offset="1" stop-color="#031035"/></linearGradient><path d="M240 152.4c-2.5 0-4.6 2.1-4.6 4.6s2.1 4.6 4.6 4.6 4.6-2.1 4.6-4.6c0-2.6-2.1-4.6-4.6-4.6zm0 6.1a1.54 1.54 0 0 1-1.5-1.5 1.54 1.54 0 0 1 1.5-1.5 1.54 1.54 0 0 1 1.5 1.5 1.54 1.54 0 0 1-1.5 1.5z" fill="url(#G)"/><linearGradient id="H" gradientUnits="userSpaceOnUse" x1="235.4" y1="175.314" x2="244.577" y2="175.314"><stop offset="0" stop-color="#f2790a"/><stop offset="1" stop-color="#031035"/></linearGradient><use xlink:href="#AM" fill="url(#H)"/><g class="Aa Ab"><path d="M213.3 232.9h7.6v2.9h-11.2v-17.5h3.6v14.6zm8.9-3.7c0-1.3.2-2.4.7-3.4s1.2-1.8 2.1-2.3c.9-.6 2-.8 3.2-.8 1.8 0 3.2.5 4.3 1.6s1.7 2.5 1.9 4.4v.9c0 2-.6 3.6-1.7 4.8s-2.6 1.8-4.5 1.8-3.4-.6-4.5-1.8-1.7-2.8-1.7-4.9v-.3zm3.5.2c0 1.2.2 2.2.7 2.8.5.7 1.1 1 2 1 .8 0 1.5-.3 2-1 .5-.6.7-1.7.7-3.1 0-1.2-.2-2.1-.7-2.8s-1.1-1-2-1c-.8 0-1.5.3-2 1s-.7 1.7-.7 3.1zm10.5-.2c0-2 .5-3.6 1.4-4.8s2.2-1.8 3.8-1.8c1.4 0 2.5.5 3.3 1.5l.1-1.2h3.1v12.6c0 1.1-.3 2.1-.8 3-.5.8-1.2 1.5-2.2 1.9a8.05 8.05 0 0 1-3.3.7 6.71 6.71 0 0 1-2.8-.6c-.9-.4-1.6-.9-2.1-1.5l1.5-2.1c.9 1 1.9 1.5 3.1 1.5.9 0 1.6-.2 2.1-.7s.8-1.2.8-2.1v-.7c-.8.9-1.9 1.4-3.2 1.4-1.6 0-2.8-.6-3.8-1.8s-1.4-2.8-1.4-4.9v-.4zm3.4.2c0 1.2.2 2.1.7 2.8s1.1 1 1.9 1c1.1 0 1.8-.4 2.3-1.2v-5.5c-.5-.8-1.2-1.2-2.2-1.2-.8 0-1.5.3-2 1s-.7 1.8-.7 3.1zm26.5 1.8c0-.7-.2-1.2-.7-1.6s-1.3-.7-2.6-1.2l-3-1.2c-2-1.1-3-2.5-3-4.3 0-.9.3-1.8.8-2.5s1.3-1.3 2.3-1.7 2.1-.6 3.4-.6c1.2 0 2.4.2 3.3.7s1.7 1.1 2.3 1.9.8 1.8.8 2.8h-3.6c0-.8-.3-1.4-.8-1.9-.5-.4-1.2-.7-2.1-.7s-1.6.2-2.1.6-.7.9-.7 1.5.3 1 .9 1.4 1.4.7 2.5 1.1c2 .6 3.5 1.4 4.5 2.3.9.9 1.4 2 1.4 3.4 0 1.5-.6 2.7-1.7 3.6s-2.7 1.3-4.6 1.3c-1.3 0-2.6-.2-3.7-.7a6.34 6.34 0 0 1-2.5-2c-.6-.9-.9-1.8-.9-3h3.6c0 1.9 1.2 2.9 3.5 2.9.9 0 1.5-.2 2-.5.5-.5.7-1 .7-1.6zm11.8 4.8c-1.9 0-3.5-.6-4.7-1.8s-1.8-2.7-1.8-4.7v-.3c0-1.3.3-2.5.8-3.5a6.11 6.11 0 0 1 2.1-2.4c.9-.6 2-.8 3.2-.8 1.8 0 3.2.6 4.2 1.7s1.5 2.7 1.5 4.8v1.4H275c.1.8.5 1.5 1 2 .6.5 1.3.8 2.1.8 1.3 0 2.4-.5 3.1-1.5l1.7 1.9c-.5.7-1.2 1.3-2.1 1.7s-1.8.7-2.9.7zm-.4-10.7a2.19 2.19 0 0 0-1.7.7c-.4.5-.7 1.1-.8 2h4.8v-.3c0-.8-.2-1.4-.6-1.8-.4-.3-.9-.6-1.7-.6z"/><use xlink:href="#AN"/><path d="M299.3 231.5l2.4-8.8h3.6l-4.4 13h-3.3l-4.4-13h3.6l2.5 8.8zm13.4 4.5c-1.9 0-3.5-.6-4.7-1.8s-1.8-2.7-1.8-4.7v-.3c0-1.3.3-2.5.8-3.5a6.11 6.11 0 0 1 2.1-2.4c.9-.6 2-.8 3.2-.8 1.8 0 3.2.6 4.2 1.7s1.5 2.7 1.5 4.8v1.4h-8.3c.1.8.5 1.5 1 2 .6.5 1.3.8 2.1.8 1.3 0 2.4-.5 3.1-1.5l1.7 1.9c-.5.7-1.2 1.3-2.1 1.7s-1.8.7-2.8.7zm-.4-10.7a2.19 2.19 0 0 0-1.7.7c-.4.5-.7 1.1-.8 2h4.8v-.3c0-.8-.2-1.4-.6-1.8-.4-.3-1-.6-1.7-.6zm15 .7c-.5-.1-.9-.1-1.2-.1-1.3 0-2.2.4-2.6 1.3v8.5H320v-13h3.3l.1 1.5c.7-1.2 1.7-1.8 2.9-1.8.4 0 .7.1 1.1.2l-.1 3.4z"/></g><g class="Aa Ab"><path d="M53.5 474.6c-.6.8-1.6 1.4-2.7 1.8-1.2.4-2.5.6-3.9.6-1.5 0-2.8-.3-4-1-1.1-.7-2-1.6-2.6-2.9s-.9-2.7-1-4.4v-1.2c0-1.7.3-3.3.9-4.5.6-1.3 1.4-2.3 2.5-2.9 1.1-.7 2.4-1 3.9-1 2.1 0 3.7.5 4.9 1.5s1.9 2.4 2.1 4.3H50c-.2-1-.5-1.7-1.1-2.2-.5-.5-1.3-.7-2.3-.7-1.2 0-2.2.5-2.8 1.4s-1 2.3-1 4.1v1.1c0 1.8.3 3.2 1 4.2s1.7 1.4 3.1 1.4 2.3-.3 2.9-.9v-3h-3.3v-2.7h6.9v7zm10.2 2.2c-.2-.3-.3-.7-.3-1.2-.8.9-1.9 1.4-3.3 1.4a4.96 4.96 0 0 1-3.2-1.1c-.8-.7-1.3-1.7-1.3-2.8 0-1.4.5-2.4 1.5-3.2 1-.7 2.5-1.1 4.4-1.1h1.6v-.7c0-.6-.2-1.1-.5-1.4-.3-.4-.8-.5-1.5-.5-.6 0-1 .1-1.4.4s-.5.7-.5 1.2H56c0-.8.2-1.4.7-2.1.5-.6 1.1-1.1 2-1.5.8-.4 1.8-.5 2.9-.5 1.6 0 2.9.4 3.8 1.2s1.4 1.9 1.4 3.4v5.6c0 1.2.2 2.2.5 2.8v.2h-3.6zm-2.8-2.4c.5 0 1-.1 1.4-.3s.8-.5 1-.9V471H62c-1.7 0-2.7.6-2.8 1.8v.2c0 .4.2.8.5 1.1s.6.3 1.2.3z"/><use xlink:href="#AO"/><path d="M83.7 477c-1.9 0-3.5-.6-4.7-1.8s-1.8-2.7-1.8-4.7v-.3c0-1.3.3-2.5.8-3.5a6.11 6.11 0 0 1 2.1-2.4c.9-.6 2-.8 3.2-.8 1.8 0 3.2.6 4.2 1.7s1.5 2.7 1.5 4.8v1.4h-8.3c.1.8.5 1.5 1 2 .6.5 1.3.8 2.1.8 1.3 0 2.4-.5 3.1-1.5l1.7 1.9c-.5.7-1.2 1.3-2.1 1.7s-1.7.7-2.8.7zm-.4-10.7a2.19 2.19 0 0 0-1.7.7c-.4.5-.7 1.1-.8 2h4.8v-.3c0-.8-.2-1.4-.6-1.8-.4-.3-1-.6-1.7-.6zm19 5.8l1.7-8.3h3.3l-3.3 13h-2.9l-2.5-8.2-2.5 8.2h-2.9l-3.3-13h3.3L95 472l2.4-8.3h2.5l2.4 8.4zm14.3 4.7c-.2-.3-.3-.7-.3-1.2-.8.9-1.9 1.4-3.3 1.4a4.96 4.96 0 0 1-3.2-1.1c-.8-.7-1.3-1.7-1.3-2.8 0-1.4.5-2.4 1.5-3.2 1-.7 2.5-1.1 4.4-1.1h1.6v-.7c0-.6-.2-1.1-.5-1.4-.3-.4-.8-.5-1.5-.5-.6 0-1 .1-1.4.4s-.5.7-.5 1.2h-3.5c0-.8.2-1.4.7-2.1.5-.6 1.1-1.1 2-1.5.8-.4 1.8-.5 2.9-.5 1.6 0 2.9.4 3.8 1.2s1.4 1.9 1.4 3.4v5.6c0 1.2.2 2.2.5 2.8v.2h-3.3zm-2.9-2.4c.5 0 1-.1 1.4-.3s.8-.5 1-.9V471h-1.3c-1.7 0-2.7.6-2.8 1.8v.2c0 .4.2.8.5 1.1s.7.3 1.2.3zm13.2-2.5l2.4-8.1h3.7l-5.2 15-.3.7c-.8 1.7-2.1 2.5-3.8 2.5-.5 0-1-.1-1.5-.2v-2.6h.5c.7 0 1.1-.1 1.5-.3.3-.2.6-.5.8-1l.4-1.1-4.5-13h3.7l2.3 8.1z"/></g><linearGradient id="I" gradientUnits="userSpaceOnUse" x1="820.7" y1="653.014" x2="848.232" y2="653.014"><stop offset="0" stop-color="#f2790a"/><stop offset="1" stop-color="#031035"/></linearGradient><path d="M822.2,654.5h24.5c0.8,0,1.5-0.7,1.5-1.5s-0.7-1.5-1.5-1.5h-24.5c-0.8,0-1.5,0.7-1.5,1.5         S821.4,654.5,822.2,654.5z" fill="url(#I)"/><linearGradient id="J" gradientUnits="userSpaceOnUse" x1="784.003" y1="648.314" x2="857.421" y2="648.314"><stop offset="0" stop-color="#f2790a"/><stop offset="1" stop-color="#031035"/></linearGradient><path d="M857.4 640.7v-6.1c0-1.5-.4-2.8-1.2-4v-.1l-9.5-15.2c-1.4-2.3-3.8-3.6-6.5-3.6h-39.1c-2.7 0-5.1 1.4-6.5 3.6l-9.5 15.2v.1c-.7 1.2-1.2 2.5-1.2 4v6.1c0 2.5 1.2 4.7 3.1 6.1-1.9 1.4-3.1 3.6-3.1 6.1v6.1c0 2.5 1.2 4.7 3.1 6.1-1.9 1.4-3.1 3.6-3.1 6.1v6.1a7.6 7.6 0 0 0 7.6 7.6h20.1a1.54 1.54 0 0 0 1.5-1.5 1.54 1.54 0 0 0-1.5-1.5h-20.1c-2.5 0-4.6-2.1-4.6-4.6v-6.1c0-2.5 2.1-4.6 4.6-4.6h25.6a1.54 1.54 0 0 0 1.5-1.5 1.54 1.54 0 0 0-1.5-1.5h-25.6c-2.5 0-4.6-2.1-4.6-4.6v-6.1c0-2.5 2.1-4.6 4.6-4.6h58.1c2.5 0 4.6 2.1 4.6 4.6v6.1c0 .7-.2 1.3-.5 2-.4.8-.1 1.7.7 2 .8.4 1.7.1 2-.7.5-1.1.8-2.2.8-3.3v-6.1c0-2.5-1.2-4.7-3.1-6.1 2.1-1.3 3.3-3.6 3.3-6.1zm-60.1-23.8c.8-1.4 2.3-2.2 3.9-2.2h39.1c1.6 0 3.1.8 3.9 2.2l6.3 10.1c-.2 0-.5-.1-.7-.1h-58.1c-.2 0-.5 0-.7.1l6.3-10.1zm57.1 23.8c0 2.5-2.1 4.6-4.6 4.6h-58.1c-2.5 0-4.6-2.1-4.6-4.6v-6.1c0-2.5 2.1-4.6 4.6-4.6h58.1c2.5 0 4.6 2.1 4.6 4.6v6.1h0z" fill="url(#J)"/><linearGradient id="K" gradientUnits="userSpaceOnUse" x1="235.421" y1="193.714" x2="244.599" y2="193.714"><stop offset="0" stop-color="#f2790a"/><stop offset="1" stop-color="#031035"/></linearGradient><use xlink:href="#AL" x="554.7" y="480.7" fill="url(#K)"/><linearGradient id="L" gradientUnits="userSpaceOnUse" x1="814.6" y1="671.264" x2="857.4" y2="671.264"><stop offset="0" stop-color="#f2790a"/><stop offset="1" stop-color="#031035"/></linearGradient><path d="M846.7 663.7h-.8c-2.5-3.8-6.8-6.2-11.4-6.2-7.1 0-13 5.4-13.7 12.4-3.5.7-6.2 3.8-6.2 7.5a7.6 7.6 0 0 0 7.6 7.6h24.5c5.9 0 10.7-4.8 10.7-10.7 0-5.8-4.8-10.6-10.7-10.6zm0 18.3h-24.5c-2.5 0-4.6-2.1-4.6-4.6s2.1-4.6 4.6-4.6a1.54 1.54 0 0 0 1.5-1.5c0-5.9 4.8-10.7 10.7-10.7 3.8 0 7.4 2.1 9.3 5.5.3.6.9.9 1.6.8.4-.1.9-.1 1.3-.1a7.6 7.6 0 0 1 7.6 7.6c0 4.2-3.3 7.6-7.5 7.6z" fill="url(#L)"/><linearGradient id="M" gradientUnits="userSpaceOnUse" x1="820.7" y1="634.614" x2="848.232" y2="634.614"><stop offset="0" stop-color="#f2790a"/><stop offset="1" stop-color="#031035"/></linearGradient><path d="M846.7,633.1h-24.5c-0.8,0-1.5,0.7-1.5,1.5s0.7,1.5,1.5,1.5h24.5c0.8,0,1.5-0.7,1.5-1.5         S847.6,633.1,846.7,633.1z" fill="url(#M)"/><linearGradient id="N" gradientUnits="userSpaceOnUse" x1="820.7" y1="640.714" x2="848.232" y2="640.714"><stop offset="0" stop-color="#f2790a"/><stop offset="1" stop-color="#031035"/></linearGradient><path d="M846.7,639.2h-24.5c-0.8,0-1.5,0.7-1.5,1.5s0.7,1.5,1.5,1.5h24.5c0.8,0,1.5-0.7,1.5-1.5         S847.6,639.2,846.7,639.2z" fill="url(#N)"/><linearGradient id="O" gradientUnits="userSpaceOnUse" x1="790.121" y1="637.714" x2="799.299" y2="637.714"><stop offset="0" stop-color="#f2790a"/><stop offset="1" stop-color="#031035"/></linearGradient><path d="M794.7 633.1c-2.5 0-4.6 2.1-4.6 4.6s2.1 4.6 4.6 4.6 4.6-2.1 4.6-4.6c0-2.6-2.1-4.6-4.6-4.6zm0 6.1a1.54 1.54 0 0 1-1.5-1.5 1.54 1.54 0 0 1 1.5-1.5 1.54 1.54 0 0 1 1.5 1.5 1.47 1.47 0 0 1-1.5 1.5z" fill="url(#O)"/><linearGradient id="P" gradientUnits="userSpaceOnUse" x1="235.421" y1="175.314" x2="244.599" y2="175.314"><stop offset="0" stop-color="#f2790a"/><stop offset="1" stop-color="#031035"/></linearGradient><use xlink:href="#AM" x="554.7" y="480.7" fill="url(#P)"/><g class="Aa Ab"><path d="M768 713.6h7.6v2.9h-11.2V699h3.6v14.6z"/><use xlink:href="#AP"/><use xlink:href="#AQ"/><path d="M820.8 711.9c0-.7-.2-1.2-.7-1.6s-1.3-.7-2.6-1.2c-1.2-.4-2.2-.8-3-1.2-2-1.1-3-2.5-3-4.3 0-.9.3-1.8.8-2.5s1.3-1.3 2.3-1.7 2.1-.6 3.4-.6c1.2 0 2.4.2 3.3.7s1.7 1.1 2.3 1.9.8 1.8.8 2.8h-3.6c0-.8-.3-1.4-.8-1.9-.5-.4-1.2-.7-2.1-.7s-1.6.2-2.1.6-.7.9-.7 1.5.3 1 .9 1.4 1.4.7 2.5 1.1c2 .6 3.5 1.4 4.5 2.3.9.9 1.4 2 1.4 3.4 0 1.5-.6 2.7-1.7 3.6s-2.7 1.3-4.6 1.3c-1.3 0-2.6-.2-3.7-.7a6.34 6.34 0 0 1-2.5-2c-.6-.8-.9-1.8-.9-3h3.6c0 1.9 1.2 2.9 3.5 2.9.9 0 1.5-.2 2-.5.5-.5.7-1 .7-1.6zm11.8 4.8c-1.9 0-3.5-.6-4.7-1.8s-1.8-2.7-1.8-4.7v-.2c0-1.3.3-2.5.8-3.5a6.11 6.11 0 0 1 2.1-2.4c.9-.6 2-.8 3.2-.8 1.8 0 3.2.6 4.2 1.7s1.5 2.7 1.5 4.8v1.4h-8.3c.1.8.5 1.5 1 2 .6.5 1.3.8 2.1.8 1.3 0 2.4-.5 3.1-1.5l1.7 1.9c-.5.7-1.2 1.3-2.1 1.7-.7.4-1.7.6-2.8.6zm-.4-10.6a2.19 2.19 0 0 0-1.7.7c-.4.5-.7 1.1-.8 2h4.8v-.3c0-.8-.2-1.4-.6-1.8-.3-.4-.9-.6-1.7-.6zm15.1.7c-.5-.1-.9-.1-1.2-.1-1.3 0-2.2.4-2.6 1.3v8.5H840v-13h3.3l.1 1.5c.7-1.2 1.7-1.8 2.9-1.8.4 0 .7.1 1.1.2l-.1 3.4zm6.7 5.5l2.4-8.8h3.6l-4.4 13h-3.3l-4.4-13h3.6l2.5 8.8zm13.4 4.4c-1.9 0-3.5-.6-4.7-1.8s-1.8-2.7-1.8-4.7v-.2c0-1.3.3-2.5.8-3.5a6.11 6.11 0 0 1 2.1-2.4c.9-.6 2-.8 3.2-.8 1.8 0 3.2.6 4.2 1.7s1.5 2.7 1.5 4.8v1.4h-8.3c.1.8.5 1.5 1 2 .6.5 1.3.8 2.1.8 1.3 0 2.4-.5 3.1-1.5l1.7 1.9c-.5.7-1.2 1.3-2.1 1.7-.8.4-1.7.6-2.8.6zm-.4-10.6a2.19 2.19 0 0 0-1.7.7c-.4.5-.7 1.1-.8 2h4.8v-.3c0-.8-.2-1.4-.6-1.8s-1-.6-1.7-.6z"/><use xlink:href="#AN" x="589.5" y="480.8"/></g><linearGradient id="Q" gradientUnits="userSpaceOnUse" x1="614.638" y1="893.877" x2="697.96" y2="810.554"><stop offset="0" stop-color="#f2790a"/><stop offset="1" stop-color="#031035"/></linearGradient><path d="M656.3 857.3c0-.7-.6-1.3-1.3-1.3h-7.6c-.7 0-1.3.6-1.3 1.3s.6 1.3 1.3 1.3h7.6c.7 0 1.3-.6 1.3-1.3z" fill="url(#Q)"/><linearGradient id="R" gradientUnits="userSpaceOnUse" x1="615.851" y1="895.088" x2="699.174" y2="811.766"><stop offset="0" stop-color="#f2790a"/><stop offset="1" stop-color="#031035"/></linearGradient><path d="M673.6 874.9l-13.5-4.5v-4c1.8-1 3.4-2.4 4.7-4h6.7c.7 0 1.3-.6 1.3-1.3v-6.4c2.2-.3 3.8-2.2 3.8-4.4v-8.9c0-2.2-1.6-4.1-3.8-4.4v-11.5c0-7.7-6.3-14-14-14h-15.2c-7.7 0-14 6.3-14 14V837c-2.2.3-3.8 2.2-3.8 4.4v8.9c0 2.5 2 4.4 4.4 4.4h3.6c1.1 4.9 4.2 9.1 8.5 11.6v4l-13.5 4.5c-5.6 1.8-9.3 7-9.3 12.9v1.3c0 .7.6 1.3 1.3 1.3h60.9c.7 0 1.3-.6 1.3-1.3v-1.3c-.1-5.8-3.8-11-9.4-12.8zm-3.4-15h-3.7c.9-1.6 1.6-3.3 2-5.1h1.7v5.1zm3.8-18.4v8.9c0 1.1-.9 1.9-1.9 1.9H669v-12.7h3.2c1 0 1.8.8 1.8 1.9zm-3.8-15.9V837H669v-7.6c0-6.1-3.2-11.9-8.4-15.1a11.49 11.49 0 0 1 9.6 11.3zm-19-11.4c8.4 0 15.2 6.8 15.2 15.2v3.7c-2.4-2.6-5.5-4.7-5.6-4.8-.6-.4-1.4-.2-1.8.4-1.9 2.8-6.6 4.9-13.7 6.1-3.1.5-6.2.8-9.3.9v-6.3c0-8.4 6.8-15.2 15.2-15.2zm-17.8 38.1h-3.2c-1.1 0-1.9-.9-1.9-1.9v-8.9c0-1.1.9-1.9 1.9-1.9h3.2v12.7zm0-22.9v7.6h-1.3v-11.4c0-5.6 4.1-10.4 9.7-11.3-5.2 3.3-8.4 9-8.4 15.1zM636 851v-12.7c4.4-.1 18.9-1 24.4-7.1.5.4 1.3 1 2 1.6 1.9 1.7 3.3 3.2 4.1 4.6V851c0 3.2-1 6.3-2.9 8.9h-9.8c-.7 0-1.3.6-1.3 1.3s.6 1.3 1.3 1.3h7.5c-6.3 5.6-15.9 5-21.5-1.3-2.5-2.9-3.8-6.5-3.8-10.2h0zm13.9 36.8H622c0-4.8 3-9 7.6-10.5l13.7-4.6c2.1 1.8 5.1 2.9 6.6 3.3v11.8h0zm-5.1-17.1v-3.2a17.4 17.4 0 0 0 12.7 0v3.2c-2 1.7-5.3 2.8-6.3 3-1-.2-4.4-1.2-6.4-3zm7.7 17.1v-11.7c1.5-.5 4.6-1.6 6.6-3.3l13.7 4.6c4.5 1.5 7.6 5.7 7.6 10.5l-27.9-.1h0z" fill="url(#R)"/><linearGradient id="S" gradientUnits="userSpaceOnUse" x1="603.864" y1="883.101" x2="687.186" y2="799.778"><stop offset="0" stop-color="#f2790a"/><stop offset="1" stop-color="#031035"/></linearGradient><path d="M643.6 840.8c-.7 0-1.3.6-1.3 1.3v2.5c0 .7.6 1.3 1.3 1.3s1.3-.6 1.3-1.3v-2.5c-.1-.7-.6-1.3-1.3-1.3z" fill="url(#S)"/><linearGradient id="T" gradientUnits="userSpaceOnUse" x1="611.464" y1="890.701" x2="694.786" y2="807.378"><stop offset="0" stop-color="#f2790a"/><stop offset="1" stop-color="#031035"/></linearGradient><path d="M658.8 845.9c.7 0 1.3-.6 1.3-1.3v-2.5c0-.7-.6-1.3-1.3-1.3s-1.3.6-1.3 1.3v2.5c0 .7.6 1.3 1.3 1.3z" fill="url(#T)"/><g class="Aa Ab"><path d="M597.5 911.6h7.6v2.9h-11.2V897h3.6v14.6z"/><use xlink:href="#AP" x="-170.5" y="198"/><use xlink:href="#AQ" x="-170.5" y="198"/><path d="M650.4 909.9c0-.7-.2-1.2-.7-1.6s-1.3-.7-2.6-1.2c-1.2-.4-2.2-.8-3-1.2-2-1.1-3-2.5-3-4.3 0-.9.3-1.8.8-2.5s1.3-1.3 2.3-1.7 2.1-.6 3.4-.6c1.2 0 2.4.2 3.3.7s1.7 1.1 2.3 1.9.8 1.8.8 2.8h-3.6c0-.8-.3-1.4-.8-1.9-.5-.4-1.2-.7-2.1-.7s-1.6.2-2.1.6-.7.9-.7 1.5.3 1 .9 1.4 1.4.7 2.5 1.1c2 .6 3.5 1.4 4.5 2.3.9.9 1.4 2 1.4 3.4 0 1.5-.6 2.7-1.7 3.6s-2.7 1.3-4.6 1.3c-1.3 0-2.6-.2-3.7-.7a6.34 6.34 0 0 1-2.5-2c-.6-.8-.9-1.8-.9-3h3.6c0 1.9 1.2 2.9 3.5 2.9.9 0 1.5-.2 2-.5.4-.5.7-1 .7-1.6zm11.8 4.8c-1.9 0-3.5-.6-4.7-1.8s-1.8-2.7-1.8-4.7v-.2c0-1.3.3-2.5.8-3.5a6.11 6.11 0 0 1 2.1-2.4c.9-.6 2-.8 3.2-.8 1.8 0 3.2.6 4.2 1.7s1.5 2.7 1.5 4.8v1.4h-8.3c.1.8.5 1.5 1 2 .6.5 1.3.8 2.1.8 1.3 0 2.4-.5 3.1-1.5l1.7 1.9c-.5.7-1.2 1.3-2.1 1.7-.8.4-1.8.6-2.8.6zm-.4-10.6a2.19 2.19 0 0 0-1.7.7c-.4.5-.7 1.1-.8 2h4.8v-.3c0-.8-.2-1.4-.6-1.8s-1-.6-1.7-.6z"/><use xlink:href="#AN" x="384.3" y="678.8"/><path d="M683.5 910.3l2.4-8.8h3.6l-4.4 13h-3.3l-4.4-13h3.6l2.5 8.8zm13.4 4.4c-1.9 0-3.5-.6-4.7-1.8s-1.8-2.7-1.8-4.7v-.2c0-1.3.3-2.5.8-3.5a6.11 6.11 0 0 1 2.1-2.4c.9-.6 2-.8 3.2-.8 1.8 0 3.2.6 4.2 1.7s1.5 2.7 1.5 4.8v1.4H694c.1.8.5 1.5 1 2 .6.5 1.3.8 2.1.8 1.3 0 2.4-.5 3.1-1.5l1.7 1.9c-.5.7-1.2 1.3-2.1 1.7-.8.4-1.8.6-2.9.6zm-.4-10.6a2.19 2.19 0 0 0-1.7.7c-.4.5-.7 1.1-.8 2h4.8v-.3c0-.8-.2-1.4-.6-1.8s-1-.6-1.7-.6z"/><use xlink:href="#AN" x="419" y="678.8"/></g><g class="Aa Ab"><use xlink:href="#AR"/><path d="M798.7 465.8c-.2-.3-.3-.7-.3-1.2-.8.9-1.9 1.4-3.3 1.4a4.96 4.96 0 0 1-3.2-1.1c-.8-.7-1.3-1.7-1.3-2.8 0-1.4.5-2.4 1.5-3.2 1-.7 2.5-1.1 4.4-1.1h1.6v-.7c0-.6-.2-1.1-.5-1.4-.3-.4-.8-.5-1.5-.5-.6 0-1 .1-1.4.4s-.5.7-.5 1.2h-3.5c0-.8.2-1.4.7-2.1.5-.6 1.1-1.1 2-1.5s1.8-.5 2.9-.5c1.6 0 2.9.4 3.8 1.2s1.4 1.9 1.4 3.4v5.6c0 1.2.2 2.2.5 2.8v.2h-3.3zm-2.9-2.4c.5 0 1-.1 1.4-.3s.8-.5 1-.9V460h-1.3c-1.7 0-2.7.6-2.8 1.8v.2c0 .4.2.8.5 1.1.3.1.7.3 1.2.3z"/><use xlink:href="#AS"/><path d="M822.9 466c-1.9 0-3.5-.6-4.7-1.8s-1.8-2.7-1.8-4.7v-.3c0-1.3.3-2.5.8-3.5a6.11 6.11 0 0 1 2.1-2.4c.9-.6 2-.8 3.2-.8 1.8 0 3.2.6 4.2 1.7s1.5 2.7 1.5 4.8v1.4H820c.1.8.5 1.5 1 2 .6.5 1.3.8 2.1.8 1.3 0 2.4-.5 3.1-1.5l1.7 1.9c-.5.7-1.2 1.3-2.1 1.7s-1.8.7-2.9.7zm-.3-10.7a2.19 2.19 0 0 0-1.7.7c-.4.5-.7 1.1-.8 2h4.8v-.3c0-.8-.2-1.4-.6-1.8s-1-.6-1.7-.6z"/><use xlink:href="#AT"/><use xlink:href="#AO" x="782.1" y="-11"/><path d="M867.3 465.8c-.2-.3-.3-.7-.3-1.2-.8.9-1.9 1.4-3.3 1.4a4.96 4.96 0 0 1-3.2-1.1c-.9-.7-1.3-1.7-1.3-2.8 0-1.4.5-2.4 1.5-3.2 1-.7 2.5-1.1 4.4-1.1h1.6v-.7c0-.6-.2-1.1-.5-1.4-.3-.4-.8-.5-1.5-.5-.6 0-1 .1-1.4.4s-.5.7-.5 1.2h-3.5c0-.8.2-1.4.7-2.1.5-.6 1.1-1.1 2-1.5.8-.4 1.8-.5 2.9-.5 1.6 0 2.9.4 3.8 1.2s1.4 1.9 1.4 3.4v5.6c0 1.2.2 2.2.5 2.8v.2h-3.3zm-2.8-2.4c.5 0 1-.1 1.4-.3s.8-.5 1-.9V460h-1.3c-1.7 0-2.7.6-2.8 1.8v.2c0 .4.2.8.5 1.1s.6.3 1.2.3z"/><use xlink:href="#AO" x="803.6" y="-11"/><use xlink:href="#AU"/><use xlink:href="#AV"/><use xlink:href="#AW"/></g><linearGradient id="U" gradientUnits="userSpaceOnUse" x1="791.134" y1="403.677" x2="864.834" y2="403.677"><stop offset="0" stop-color="#f2790a"/><stop offset="1" stop-color="#031035"/></linearGradient><path d="M861.2 413.2h-43V412a3.76 3.76 0 0 0-3.7-3.7H813l-2.3-7.6c4.4 2.5 9.4 3.9 14.5 3.9 2.5 0 5-.3 7.4-.9.8-.2 1.3-.8 1.5-1.5s0-1.5-.6-2l-5.5-5.5v-15.8c.8-1.1 1.2-2.3 1.2-3.6 0-3.4-2.8-6.1-6.1-6.1-1.3 0-2.6.4-3.6 1.2h-15.8l-3-3c-.5-.6-1.3-.8-2.1-.6s-1.3.8-1.5 1.5c-2 7.9-.7 16.4 3.8 23.3-1.6 2.4-1.3 5.7.8 7.7l-2.7 9.2h-1.5a3.76 3.76 0 0 0-3.7 3.7v1.5c-1.5.5-2.5 1.9-2.5 3.5v19.7a3.76 3.76 0 0 0 3.7 3.7h66.3a3.76 3.76 0 0 0 3.7-3.7v-19.7c-.2-2.3-1.8-4-3.8-4zm-59-18.4a3.76 3.76 0 0 1 3.7-3.7 3.76 3.76 0 0 1 3.7 3.7 3.76 3.76 0 0 1-3.7 3.7c-2.1 0-3.7-1.7-3.7-3.7zm20.9-5.2v-8.4c.8 0 1.7-.2 2.5-.5v11.4l-2.5-2.5zm-2.5-8.9v6.4l-9.6-9.6h6.4c.7 1.5 1.8 2.6 3.2 3.2zm2.5-9.3a3.76 3.76 0 0 1 3.7 3.7 3.76 3.76 0 0 1-3.7 3.7 3.76 3.76 0 0 1-3.7-3.7c0-2 1.6-3.7 3.7-3.7zm-5.6 1.3c-.3.8-.5 1.6-.5 2.5h-8.4l-2.5-2.5h11.4zm-18.3-3.4l32.1 32.1c-7 1.7-14.3.5-20.3-3.3 1.8-2.8 1-6.6-1.8-8.5-2-1.3-4.7-1.3-6.7 0-3.7-6-4.9-13.4-3.3-20.3zm4.5 31.2a5.36 5.36 0 0 0 4.3 0l2.3 7.8h-9l2.4-7.8zm-6.4 10.3h17.2c.7 0 1.2.6 1.2 1.2v1.2H796V412c0-.7.6-1.2 1.3-1.2zm12.3 27h-9.8v-16h9.8v16zm52.8-1.2c0 .7-.6 1.2-1.2 1.2H812v-16c0-1.4-1.1-2.5-2.5-2.5h-9.8c-1.4 0-2.5 1.1-2.5 2.5v16h-2.5c-.7 0-1.2-.6-1.2-1.2v-19.7c0-.7.5-1.2 1.2-1.2H861c.7 0 1.2.6 1.2 1.2v19.7h.2z" fill="url(#U)"/><linearGradient id="V" gradientUnits="userSpaceOnUse" x1="815.7" y1="425.564" x2="832.9" y2="425.564"><stop offset="0" stop-color="#f2790a"/><stop offset="1" stop-color="#031035"/></linearGradient><use xlink:href="#AX" fill="url(#V)"/><linearGradient id="W" gradientUnits="userSpaceOnUse" x1="839.047" y1="425.564" x2="856.247" y2="425.564"><stop offset="0" stop-color="#f2790a"/><stop offset="1" stop-color="#031035"/></linearGradient><use xlink:href="#AY" fill="url(#W)"/><linearGradient id="X" gradientUnits="userSpaceOnUse" x1="832.9" y1="382.514" x2="864.842" y2="382.514"><stop offset="0" stop-color="#f2790a"/><stop offset="1" stop-color="#031035"/></linearGradient><use xlink:href="#AZ" fill="url(#X)"/><linearGradient id="Y" gradientUnits="userSpaceOnUse" x1="848.875" y1="376.314" x2="856.246" y2="376.314"><stop offset="0" stop-color="#f2790a"/><stop offset="1" stop-color="#031035"/></linearGradient><path d="M852.6 380a3.76 3.76 0 0 0 3.7-3.7 3.76 3.76 0 0 0-3.7-3.7 3.76 3.76 0 0 0-3.7 3.7c0 2.1 1.6 3.7 3.7 3.7zm0-4.9c.7 0 1.2.6 1.2 1.2 0 .7-.6 1.2-1.2 1.2-.7 0-1.2-.6-1.2-1.2-.1-.6.5-1.2 1.2-1.2z" fill="url(#Y)"/><linearGradient id="Z" gradientUnits="userSpaceOnUse" x1="848.875" y1="388.014" x2="857.475" y2="388.014"><stop offset="0" stop-color="#f2790a"/><stop offset="1" stop-color="#031035"/></linearGradient><path d="M853.2 383.7c-2.4 0-4.3 1.9-4.3 4.3s1.9 4.3 4.3 4.3 4.3-1.9 4.3-4.3-2-4.3-4.3-4.3zm0 6.2a1.79 1.79 0 1 1 0-3.6 1.79 1.79 0 0 1 1.8 1.8c0 .9-.8 1.8-1.8 1.8z" fill="url(#Z)"/><linearGradient id="a" gradientUnits="userSpaceOnUse" x1="837.818" y1="382.514" x2="847.646" y2="382.514"><stop offset="0" stop-color="#f2790a"/><stop offset="1" stop-color="#031035"/></linearGradient><path d="M842.7,377.6c-2.7,0-4.9,2.2-4.9,4.9s2.2,4.9,4.9,4.9s4.9-2.2,4.9-4.9S845.4,377.6,842.7,377.6z M842.7,385      c-1.4,0-2.5-1.1-2.5-2.5s1.1-2.5,2.5-2.5s2.5,1.1,2.5,2.5S844.1,385,842.7,385z" fill="url(#a)"/><linearGradient id="b" gradientUnits="userSpaceOnUse" x1="835.359" y1="405.264" x2="846.417" y2="405.264"><stop offset="0" stop-color="#f2790a"/><stop offset="1" stop-color="#031035"/></linearGradient><use xlink:href="#Aa" fill="url(#b)"/><linearGradient id="c" gradientUnits="userSpaceOnUse" x1="852.559" y1="404.614" x2="864.841" y2="404.614"><stop offset="0" stop-color="#f2790a"/><stop offset="1" stop-color="#031035"/></linearGradient><use xlink:href="#Ab" fill="url(#c)"/><linearGradient id="d" gradientUnits="userSpaceOnUse" x1="802.191" y1="429.814" x2="804.648" y2="429.814"><stop offset="0" stop-color="#f2790a"/><stop offset="1" stop-color="#031035"/></linearGradient><use xlink:href="#Ac" fill="url(#d)"/><g class="Aa Ab"><use xlink:href="#AR" x="-231" y="-237"/><path d="M567.7 228.8c-.2-.3-.3-.7-.3-1.2-.8.9-1.9 1.4-3.3 1.4a4.96 4.96 0 0 1-3.2-1.1c-.8-.7-1.3-1.7-1.3-2.8 0-1.4.5-2.4 1.5-3.2 1-.7 2.5-1.1 4.4-1.1h1.6v-.7c0-.6-.2-1.1-.5-1.4-.3-.4-.8-.5-1.5-.5-.6 0-1 .1-1.4.4s-.5.7-.5 1.2h-3.5c0-.8.2-1.4.7-2.1.5-.6 1.1-1.1 2-1.5s1.8-.5 2.9-.5c1.6 0 2.9.4 3.8 1.2s1.4 1.9 1.4 3.4v5.6c0 1.2.2 2.2.5 2.8v.2h-3.3zm-2.9-2.4c.5 0 1-.1 1.4-.3s.8-.5 1-.9V223h-1.3c-1.7 0-2.7.6-2.8 1.8v.2c0 .4.2.8.5 1.1.3.1.7.3 1.2.3z"/><use xlink:href="#AS" x="-231" y="-237"/><path d="M591.9 229c-1.9 0-3.5-.6-4.7-1.8s-1.8-2.7-1.8-4.7v-.3c0-1.3.3-2.5.8-3.5a6.11 6.11 0 0 1 2.1-2.4c.9-.6 2-.8 3.2-.8 1.8 0 3.2.6 4.2 1.7s1.5 2.7 1.5 4.8v1.4H589c.1.8.5 1.5 1 2 .6.5 1.3.8 2.1.8 1.3 0 2.4-.5 3.1-1.5l1.7 1.9c-.5.7-1.2 1.3-2.1 1.7s-1.8.7-2.9.7zm-.3-10.7a2.19 2.19 0 0 0-1.7.7c-.4.5-.7 1.1-.8 2h4.8v-.3c0-.8-.2-1.4-.6-1.8s-1-.6-1.7-.6z"/><use xlink:href="#AT" x="-231" y="-237"/><use xlink:href="#AO" x="551.1" y="-248"/><path d="M636.3 228.8c-.2-.3-.3-.7-.3-1.2-.8.9-1.9 1.4-3.3 1.4a4.96 4.96 0 0 1-3.2-1.1c-.9-.7-1.3-1.7-1.3-2.8 0-1.4.5-2.4 1.5-3.2 1-.7 2.5-1.1 4.4-1.1h1.6v-.7c0-.6-.2-1.1-.5-1.4-.3-.4-.8-.5-1.5-.5-.6 0-1 .1-1.4.4s-.5.7-.5 1.2h-3.5c0-.8.2-1.4.7-2.1.5-.6 1.1-1.1 2-1.5.8-.4 1.8-.5 2.9-.5 1.6 0 2.9.4 3.8 1.2s1.4 1.9 1.4 3.4v5.6c0 1.2.2 2.2.5 2.8v.2h-3.3zm-2.8-2.4c.5 0 1-.1 1.4-.3s.8-.5 1-.9V223h-1.3c-1.7 0-2.7.6-2.8 1.8v.2c0 .4.2.8.5 1.1s.6.3 1.2.3z"/><use xlink:href="#AO" x="572.6" y="-248"/><use xlink:href="#AU" x="-231" y="-237"/><use xlink:href="#AV" x="-231" y="-237"/><use xlink:href="#AW" x="-231" y="-237"/></g><linearGradient id="e" gradientUnits="userSpaceOnUse" x1="560.134" y1="166.677" x2="633.834" y2="166.677"><stop offset="0" stop-color="#f2790a"/><stop offset="1" stop-color="#031035"/></linearGradient><path d="M630.2 176.2h-43V175a3.76 3.76 0 0 0-3.7-3.7H582l-2.3-7.6c4.4 2.5 9.4 3.9 14.5 3.9 2.5 0 5-.3 7.4-.9.8-.2 1.3-.8 1.5-1.5s0-1.5-.6-2l-5.5-5.5v-15.8c.8-1.1 1.2-2.3 1.2-3.6 0-3.4-2.8-6.1-6.1-6.1-1.3 0-2.6.4-3.6 1.2h-15.8l-3-3c-.5-.6-1.3-.8-2.1-.6s-1.3.8-1.5 1.5c-2 7.9-.7 16.4 3.8 23.3-1.6 2.4-1.3 5.7.8 7.7l-2.7 9.2h-1.5a3.76 3.76 0 0 0-3.7 3.7v1.5c-1.5.5-2.5 1.9-2.5 3.5v19.7a3.76 3.76 0 0 0 3.7 3.7h66.3a3.76 3.76 0 0 0 3.7-3.7v-19.7c-.2-2.3-1.8-4-3.8-4zm-59-18.4a3.76 3.76 0 0 1 3.7-3.7 3.76 3.76 0 0 1 3.7 3.7 3.76 3.76 0 0 1-3.7 3.7c-2.1 0-3.7-1.7-3.7-3.7zm20.9-5.2v-8.4c.8 0 1.7-.2 2.5-.5v11.4l-2.5-2.5zm-2.5-8.9v6.4l-9.6-9.6h6.4c.7 1.5 1.8 2.6 3.2 3.2zm2.5-9.3a3.76 3.76 0 0 1 3.7 3.7 3.76 3.76 0 0 1-3.7 3.7 3.76 3.76 0 0 1-3.7-3.7c0-2 1.6-3.7 3.7-3.7zm-5.6 1.3c-.3.8-.5 1.6-.5 2.5h-8.4l-2.5-2.5h11.4zm-18.3-3.4l32.1 32.1c-7 1.7-14.3.5-20.3-3.3 1.8-2.8 1-6.6-1.8-8.5-2-1.3-4.7-1.3-6.7 0-3.7-6-4.9-13.4-3.3-20.3zm4.5 31.2a5.36 5.36 0 0 0 4.3 0l2.3 7.8h-9l2.4-7.8zm-6.4 10.3h17.2c.7 0 1.2.6 1.2 1.2v1.2H565V175c0-.7.6-1.2 1.3-1.2zm12.3 27h-9.8v-16h9.8v16zm52.8-1.2c0 .7-.6 1.2-1.2 1.2H581v-16c0-1.4-1.1-2.5-2.5-2.5h-9.8c-1.4 0-2.5 1.1-2.5 2.5v16h-2.5c-.7 0-1.2-.6-1.2-1.2v-19.7c0-.7.5-1.2 1.2-1.2H630c.7 0 1.2.6 1.2 1.2v19.7h.2z" fill="url(#e)"/><use xlink:href="#AX" x="-231" y="-237" fill="url(#V)"/><use xlink:href="#AY" x="-231" y="-237" fill="url(#W)"/><use xlink:href="#AZ" x="-231" y="-237" fill="url(#X)"/><linearGradient id="f" gradientUnits="userSpaceOnUse" x1="617.875" y1="139.314" x2="625.246" y2="139.314"><stop offset="0" stop-color="#f2790a"/><stop offset="1" stop-color="#031035"/></linearGradient><path d="M621.6 143a3.76 3.76 0 0 0 3.7-3.7 3.76 3.76 0 0 0-3.7-3.7 3.76 3.76 0 0 0-3.7 3.7c0 2 1.6 3.7 3.7 3.7zm0-4.9c.7 0 1.2.6 1.2 1.2s-.6 1.2-1.2 1.2c-.7 0-1.2-.6-1.2-1.2s.5-1.2 1.2-1.2z" fill="url(#f)"/><linearGradient id="g" gradientUnits="userSpaceOnUse" x1="617.875" y1="151.014" x2="626.475" y2="151.014"><stop offset="0" stop-color="#f2790a"/><stop offset="1" stop-color="#031035"/></linearGradient><use xlink:href="#Ad" fill="url(#g)"/><linearGradient id="h" gradientUnits="userSpaceOnUse" x1="606.818" y1="145.514" x2="616.646" y2="145.514"><stop offset="0" stop-color="#f2790a"/><stop offset="1" stop-color="#031035"/></linearGradient><use xlink:href="#Ae" fill="url(#h)"/><use xlink:href="#Aa" x="-231" y="-237" fill="url(#b)"/><use xlink:href="#Ab" x="-231" y="-237" fill="url(#c)"/><use xlink:href="#Ac" x="-231" y="-237" fill="url(#d)"/><g class="Aa Ab"><path d="M44.7 734.8v-17.5h6.1c2.1 0 3.7.4 4.8 1.2s1.6 2 1.6 3.6c0 .9-.2 1.6-.7 2.3-.4.7-1.1 1.1-1.8 1.4.9.2 1.6.7 2.1 1.4s.8 1.5.8 2.5c0 1.7-.5 3-1.6 3.8-1.1.9-2.6 1.3-4.6 1.3h-6.7zm3.6-10.2H51c1.8 0 2.7-.8 2.7-2.2 0-.8-.2-1.4-.7-1.7s-1.2-.5-2.2-.5h-2.5v4.4zm0 2.6v4.7h3.1c.8 0 1.5-.2 2-.6s.7-1 .7-1.7c0-1.6-.8-2.4-2.5-2.4h-3.3zm19.4 7.6c-.2-.3-.3-.7-.3-1.2-.8.9-1.9 1.4-3.3 1.4a4.96 4.96 0 0 1-3.2-1.1c-.8-.7-1.3-1.7-1.3-2.8 0-1.4.5-2.4 1.5-3.2 1-.7 2.5-1.1 4.4-1.1h1.6v-.7c0-.6-.2-1.1-.5-1.4s-.8-.5-1.5-.5c-.6 0-1 .1-1.4.4-.3.3-.5.7-.5 1.2h-3.5c0-.8.2-1.4.7-2.1.5-.6 1.1-1.1 2-1.5.8-.4 1.8-.5 2.9-.5 1.6 0 2.9.4 3.8 1.2s1.4 1.9 1.4 3.4v5.6c0 1.2.2 2.2.5 2.8v.2h-3.3zm-2.9-2.4c.5 0 1-.1 1.4-.3s.8-.5 1-.9V729h-1.3c-1.7 0-2.7.6-2.8 1.8v.2c0 .4.2.8.5 1.1.3.1.7.3 1.2.3zm15.6-1.2a1.1 1.1 0 0 0-.6-1 8.84 8.84 0 0 0-2-.7c-3.1-.6-4.6-2-4.6-3.9 0-1.2.5-2.1 1.4-2.9 1-.8 2.2-1.2 3.8-1.2s3 .4 4 1.2 1.5 1.8 1.5 3h-3.5c0-.5-.2-.9-.5-1.2s-.8-.5-1.5-.5c-.6 0-1 .1-1.4.4-.3.3-.5.6-.5 1s.2.7.5.9c.4.2 1 .4 1.8.6l2.2.6c1.8.7 2.7 1.8 2.7 3.5 0 1.2-.5 2.1-1.5 2.9-1 .7-2.3 1.1-3.9 1.1-1.1 0-2.1-.2-2.9-.6s-1.5-.9-2-1.6-.7-1.4-.7-2.2H76a1.75 1.75 0 0 0 .7 1.4c.4.3 1 .5 1.7.5s1.2-.1 1.5-.4c.3-.2.5-.5.5-.9zm11.5 3.8c-1.9 0-3.5-.6-4.7-1.8s-1.8-2.7-1.8-4.7v-.3c0-1.3.3-2.5.8-3.5a6.11 6.11 0 0 1 2.1-2.4c.9-.6 2-.8 3.2-.8 1.8 0 3.2.6 4.2 1.7s1.5 2.7 1.5 4.8v1.4H89c.1.8.5 1.5 1 2 .6.5 1.3.8 2.1.8 1.3 0 2.4-.5 3.1-1.5l1.7 1.9c-.5.7-1.2 1.3-2.1 1.7s-1.8.7-2.9.7zm-.3-10.7a2.19 2.19 0 0 0-1.7.7c-.4.5-.7 1.1-.8 2h4.8v-.3c0-.8-.2-1.4-.6-1.8-.4-.3-1-.6-1.7-.6zm23.1 5.9c0-.7-.2-1.2-.7-1.6s-1.3-.7-2.6-1.2l-3-1.2c-2-1.1-3-2.5-3-4.3 0-.9.3-1.8.8-2.5s1.3-1.3 2.3-1.7 2.1-.6 3.4-.6c1.2 0 2.4.2 3.3.7 1 .5 1.7 1.1 2.3 1.9s.8 1.8.8 2.8h-3.6c0-.8-.3-1.4-.8-1.9-.5-.4-1.2-.7-2.1-.7s-1.6.2-2.1.6-.7.9-.7 1.5.3 1 .9 1.4 1.4.7 2.5 1.1c2 .6 3.5 1.4 4.5 2.3.9.9 1.4 2 1.4 3.4 0 1.5-.6 2.7-1.7 3.6s-2.7 1.3-4.6 1.3c-1.3 0-2.6-.2-3.7-.7a6.34 6.34 0 0 1-2.5-2c-.6-.9-.9-1.8-.9-3h3.6c0 1.9 1.2 2.9 3.5 2.9.9 0 1.5-.2 2-.5.4-.5.7-1 .7-1.6z"/><use xlink:href="#AO" x="51.1" y="258"/><path d="M136.3 734.8c-.2-.3-.3-.7-.3-1.2-.8.9-1.9 1.4-3.3 1.4a4.96 4.96 0 0 1-3.2-1.1c-.8-.7-1.3-1.7-1.3-2.8 0-1.4.5-2.4 1.5-3.2 1-.7 2.5-1.1 4.4-1.1h1.6v-.7c0-.6-.2-1.1-.5-1.4s-.8-.5-1.5-.5c-.6 0-1 .1-1.4.4-.3.3-.5.7-.5 1.2h-3.5c0-.8.2-1.4.7-2.1.5-.6 1.1-1.1 2-1.5.8-.4 1.8-.5 2.9-.5 1.6 0 2.9.4 3.8 1.2s1.4 1.9 1.4 3.4v5.6c0 1.2.2 2.2.5 2.8v.2h-3.3zm-2.8-2.4c.5 0 1-.1 1.4-.3s.8-.5 1-.9V729h-1.3c-1.7 0-2.7.6-2.8 1.8v.2c0 .4.2.8.5 1.1.2.1.6.3 1.2.3z"/><use xlink:href="#AO" x="72.6" y="258"/><path d="M150.3 718.4c0-.5.2-.9.5-1.3.3-.3.8-.5 1.4-.5s1.1.2 1.4.5c.4.3.5.8.5 1.3s-.2 1-.5 1.3-.8.5-1.4.5-1.1-.2-1.4-.5c-.4-.3-.5-.7-.5-1.3zm3.6 16.4h-3.5v-13h3.5v13zm2.4-6.6c0-1.3.2-2.4.7-3.4s1.2-1.8 2.1-2.3 2-.8 3.2-.8c1.8 0 3.2.5 4.3 1.6s1.7 2.5 1.9 4.4v.9c0 2-.6 3.6-1.7 4.8s-2.6 1.8-4.5 1.8-3.4-.6-4.5-1.8-1.7-2.8-1.7-4.9v-.3zm3.4.2c0 1.2.2 2.2.7 2.8.5.7 1.1 1 2 1 .8 0 1.5-.3 2-1 .5-.6.7-1.7.7-3.1 0-1.2-.2-2.1-.7-2.8s-1.1-1-2-1c-.8 0-1.5.3-2 1-.4.7-.7 1.7-.7 3.1zm14.2-6.6l.1 1.5c.9-1.2 2.2-1.7 3.7-1.7 1.4 0 2.4.4 3.1 1.2s1 2 1 3.6v8.4h-3.5v-8.3c0-.7-.2-1.3-.5-1.6s-.9-.5-1.6-.5c-1 0-1.7.4-2.2 1.3v9.2h-3.5v-13h3.4z"/></g><linearGradient id="i" gradientUnits="userSpaceOnUse" x1="60.2" y1="672.677" x2="133.9" y2="672.677"><stop offset="0" stop-color="#f2790a"/><stop offset="1" stop-color="#031035"/></linearGradient><path d="M130.2 682.2h-43V681a3.76 3.76 0 0 0-3.7-3.7H82l-2.3-7.6c4.4 2.5 9.4 3.9 14.5 3.9 2.5 0 5-.3 7.4-.9.8-.2 1.3-.8 1.5-1.5s0-1.5-.6-2l-5.5-5.5v-15.8c.8-1.1 1.2-2.3 1.2-3.6 0-3.4-2.8-6.1-6.1-6.1-1.3 0-2.6.4-3.6 1.2H72.6l-3-3c-.5-.6-1.3-.8-2.1-.6s-1.3.8-1.5 1.5c-2 7.9-.7 16.4 3.8 23.3-1.6 2.4-1.3 5.7.8 7.7l-2.7 9.2h-1.5a3.76 3.76 0 0 0-3.7 3.7v1.5c-1.5.5-2.5 1.9-2.5 3.5v19.7a3.76 3.76 0 0 0 3.7 3.7h66.3a3.76 3.76 0 0 0 3.7-3.7v-19.7c-.1-2.3-1.7-4-3.7-4zm-59-18.4a3.76 3.76 0 0 1 3.7-3.7 3.76 3.76 0 0 1 3.7 3.7 3.76 3.76 0 0 1-3.7 3.7c-2.1 0-3.7-1.7-3.7-3.7zm20.9-5.2v-8.4c.8 0 1.7-.2 2.5-.5v11.4l-2.5-2.5zm-2.5-8.9v6.4l-9.6-9.6h6.4c.7 1.5 1.8 2.6 3.2 3.2zm2.5-9.3a3.76 3.76 0 0 1 3.7 3.7 3.76 3.76 0 0 1-3.7 3.7 3.76 3.76 0 0 1-3.7-3.7c0-2 1.6-3.7 3.7-3.7zm-5.6 1.3c-.3.8-.5 1.6-.5 2.5h-8.4l-2.5-2.5h11.4zm-18.3-3.4l32.1 32.1c-7 1.7-14.3.5-20.3-3.3 1.8-2.8 1-6.6-1.8-8.5-2-1.3-4.7-1.3-6.7 0-3.7-6-4.9-13.4-3.3-20.3zm4.5 31.2a5.36 5.36 0 0 0 4.3 0l2.3 7.8h-9l2.4-7.8zm-6.4 10.3h17.2c.7 0 1.2.6 1.2 1.2v1.2H65V681c0-.7.6-1.2 1.3-1.2zm12.3 27h-9.8v-16h9.8v16zm52.8-1.2c0 .7-.6 1.2-1.2 1.2H81v-16c0-1.4-1.1-2.5-2.5-2.5h-9.8c-1.4 0-2.5 1.1-2.5 2.5v16h-2.5c-.7 0-1.2-.6-1.2-1.2v-19.7c0-.7.6-1.2 1.2-1.2H130c.7 0 1.2.5 1.2 1.2v19.7h.2z" fill="url(#i)"/><linearGradient id="j" gradientUnits="userSpaceOnUse" x1="84.7" y1="694.564" x2="101.9" y2="694.564"><stop offset="0" stop-color="#f2790a"/><stop offset="1" stop-color="#031035"/></linearGradient><path d="M98.2 688.4h-9.8a3.76 3.76 0 0 0-3.7 3.7v4.9a3.76 3.76 0 0 0 3.7 3.7h9.8a3.76 3.76 0 0 0 3.7-3.7v-4.9c0-2.1-1.6-3.7-3.7-3.7zm1.2 8.6c0 .7-.6 1.2-1.2 1.2h-9.8c-.7 0-1.2-.6-1.2-1.2v-4.9c0-.7.6-1.2 1.2-1.2h9.8c.7 0 1.2.5 1.2 1.2v4.9z" fill="url(#j)"/><linearGradient id="k" gradientUnits="userSpaceOnUse" x1="108.047" y1="694.564" x2="125.247" y2="694.564"><stop offset="0" stop-color="#f2790a"/><stop offset="1" stop-color="#031035"/></linearGradient><path d="M121.6 688.4h-9.8a3.76 3.76 0 0 0-3.7 3.7v4.9a3.76 3.76 0 0 0 3.7 3.7h9.8a3.76 3.76 0 0 0 3.7-3.7v-4.9c-.1-2.1-1.7-3.7-3.7-3.7zm1.2 8.6c0 .7-.6 1.2-1.2 1.2h-9.8c-.7 0-1.2-.6-1.2-1.2v-4.9c0-.7.6-1.2 1.2-1.2h9.8c.7 0 1.2.5 1.2 1.2v4.9z" fill="url(#k)"/><linearGradient id="l" gradientUnits="userSpaceOnUse" x1="101.9" y1="651.514" x2="133.842" y2="651.514"><stop offset="0" stop-color="#f2790a"/><stop offset="1" stop-color="#031035"/></linearGradient><path d="M117.9 635.5c-8.8 0-16 7.2-16 16s7.2 16 16 16 16-7.2 16-16c-.1-8.8-7.2-16-16-16zm0 29.5c-7.5 0-13.5-6.1-13.5-13.5s6.1-13.5 13.5-13.5c7.5 0 13.5 6.1 13.5 13.5 0 7.5-6.1 13.5-13.5 13.5z" fill="url(#l)"/><linearGradient id="m" gradientUnits="userSpaceOnUse" x1="117.875" y1="645.314" x2="125.246" y2="645.314"><stop offset="0" stop-color="#f2790a"/><stop offset="1" stop-color="#031035"/></linearGradient><path d="M121.6 649a3.76 3.76 0 0 0 3.7-3.7 3.76 3.76 0 0 0-3.7-3.7 3.76 3.76 0 0 0-3.7 3.7c0 2.1 1.6 3.7 3.7 3.7zm0-4.9c.7 0 1.2.6 1.2 1.2 0 .7-.6 1.2-1.2 1.2-.7 0-1.2-.5-1.2-1.2-.1-.6.5-1.2 1.2-1.2z" fill="url(#m)"/><use xlink:href="#Ad" x="-500" y="506" fill="url(#g)"/><use xlink:href="#Ae" x="-500" y="506" fill="url(#h)"/><use xlink:href="#Aa" x="-731" y="269" fill="url(#b)"/><use xlink:href="#Ab" x="-731" y="269" fill="url(#c)"/><linearGradient id="n" gradientUnits="userSpaceOnUse" x1="71.191" y1="698.814" x2="73.648" y2="698.814"><stop offset="0" stop-color="#f2790a"/><stop offset="1" stop-color="#031035"/></linearGradient><path d="M72.4 700.6c.7 0 1.2-.6 1.2-1.2v-1.2c0-.7-.6-1.2-1.2-1.2s-1.2.6-1.2 1.2v1.2c0 .7.5 1.2 1.2 1.2z" fill="url(#n)"/><g class="Aa Ab"><path d="M201.2 915.1v-17.5h6.1c2.1 0 3.7.4 4.8 1.2s1.6 2 1.6 3.6c0 .9-.2 1.6-.7 2.3-.4.7-1.1 1.1-1.8 1.4.9.2 1.6.7 2.1 1.4s.8 1.5.8 2.5c0 1.7-.5 3-1.6 3.8-1.1.9-2.6 1.3-4.6 1.3h-6.7zm3.6-10.2h2.7c1.8 0 2.7-.8 2.7-2.2 0-.8-.2-1.4-.7-1.7s-1.2-.5-2.2-.5h-2.5v4.4zm0 2.6v4.7h3.1c.8 0 1.5-.2 2-.6s.7-1 .7-1.7c0-1.6-.8-2.4-2.5-2.4h-3.3zm19.4 7.6c-.2-.3-.3-.7-.3-1.2-.8.9-1.9 1.4-3.3 1.4a4.96 4.96 0 0 1-3.2-1.1c-.8-.7-1.3-1.7-1.3-2.8 0-1.4.5-2.4 1.5-3.2 1-.7 2.5-1.1 4.4-1.1h1.6v-.7c0-.6-.2-1.1-.5-1.4-.3-.4-.8-.5-1.5-.5-.6 0-1 .1-1.4.4s-.5.7-.5 1.2h-3.5c0-.8.2-1.4.7-2.1.5-.6 1.1-1.1 2-1.5.8-.4 1.8-.5 2.9-.5 1.6 0 2.9.4 3.8 1.2s1.4 1.9 1.4 3.4v5.6c0 1.2.2 2.2.5 2.8v.2h-3.3zm-2.9-2.4c.5 0 1-.1 1.4-.3s.8-.5 1-.9v-2.2h-1.3c-1.7 0-2.7.6-2.8 1.8v.2c0 .4.2.8.5 1.1s.7.3 1.2.3zm15.6-1.2a1.1 1.1 0 0 0-.6-1 8.84 8.84 0 0 0-2-.7c-3.1-.6-4.6-2-4.6-3.9 0-1.2.5-2.1 1.4-2.9 1-.8 2.2-1.2 3.8-1.2s3 .4 4 1.2 1.5 1.8 1.5 3h-3.5c0-.5-.2-.9-.5-1.2s-.8-.5-1.5-.5c-.6 0-1 .1-1.4.4-.3.3-.5.6-.5 1s.2.7.5.9c.4.2 1 .4 1.8.6l2.2.6c1.8.7 2.7 1.8 2.7 3.5 0 1.2-.5 2.1-1.5 2.9-1 .7-2.3 1.1-3.9 1.1-1.1 0-2.1-.2-2.9-.6s-1.5-.9-2-1.6-.7-1.4-.7-2.2h3.3a1.75 1.75 0 0 0 .7 1.4c.4.3 1 .5 1.7.5s1.2-.1 1.5-.4c.3-.1.5-.5.5-.9zm11.6 3.8c-1.9 0-3.5-.6-4.7-1.8s-1.8-2.7-1.8-4.7v-.3c0-1.3.3-2.5.8-3.5a6.11 6.11 0 0 1 2.1-2.4c.9-.6 2-.8 3.2-.8 1.8 0 3.2.6 4.2 1.7s1.5 2.7 1.5 4.8v1.4h-8.3c.1.8.5 1.5 1 2 .6.5 1.3.8 2.1.8 1.3 0 2.4-.5 3.1-1.5l1.7 1.9c-.5.7-1.2 1.3-2.1 1.7s-1.8.7-2.8.7zm-.4-10.6a2.19 2.19 0 0 0-1.7.7c-.4.5-.7 1.1-.8 2h4.8v-.3c0-.8-.2-1.4-.6-1.8s-1-.6-1.7-.6zm23.1 5.8c0-.7-.2-1.2-.7-1.6s-1.3-.7-2.6-1.2l-3-1.2c-2-1.1-3-2.5-3-4.3 0-.9.3-1.8.8-2.5s1.3-1.3 2.3-1.7 2.1-.6 3.4-.6c1.2 0 2.4.2 3.3.7s1.7 1.1 2.3 1.9.8 1.8.8 2.8h-3.6c0-.8-.3-1.4-.8-1.9-.5-.4-1.2-.7-2.1-.7s-1.6.2-2.1.6-.7.9-.7 1.5.3 1 .9 1.4 1.4.7 2.5 1.1c2 .6 3.5 1.4 4.5 2.3.9.9 1.4 2 1.4 3.4 0 1.5-.6 2.7-1.7 3.6s-2.7 1.3-4.6 1.3c-1.3 0-2.6-.2-3.7-.7a6.34 6.34 0 0 1-2.5-2c-.6-.9-.9-1.8-.9-3h3.6c0 1.9 1.2 2.9 3.5 2.9.9 0 1.5-.2 2-.5.4-.5.7-1 .7-1.6z"/><use xlink:href="#Af"/><path d="M292.8 915.1c-.2-.3-.3-.7-.3-1.2-.8.9-1.9 1.4-3.3 1.4a4.96 4.96 0 0 1-3.2-1.1c-.8-.7-1.3-1.7-1.3-2.8 0-1.4.5-2.4 1.5-3.2 1-.7 2.5-1.1 4.4-1.1h1.6v-.7c0-.6-.2-1.1-.5-1.4-.3-.4-.8-.5-1.5-.5-.6 0-1 .1-1.4.4s-.5.7-.5 1.2h-3.5c0-.8.2-1.4.7-2.1.5-.6 1.1-1.1 2-1.5.8-.4 1.8-.5 2.9-.5 1.6 0 2.9.4 3.8 1.2s1.4 1.9 1.4 3.4v5.6c0 1.2.2 2.2.5 2.8v.2h-3.3zm-2.8-2.4c.5 0 1-.1 1.4-.3s.8-.5 1-.9v-2.2H291c-1.7 0-2.7.6-2.8 1.8v.2c0 .4.2.8.5 1.1s.7.3 1.3.3z"/><use xlink:href="#Af" x="21.4"/><path d="M306.8 898.8c0-.5.2-.9.5-1.3.3-.3.8-.5 1.4-.5s1.1.2 1.4.5c.4.3.5.8.5 1.3s-.2 1-.5 1.3c-.4.3-.8.5-1.4.5s-1.1-.2-1.4-.5c-.3-.4-.5-.8-.5-1.3zm3.7 16.3H307v-13h3.5v13z"/><use xlink:href="#AV" x="-574.5" y="449.3"/><path d="M330.4 902.1l.1 1.5c.9-1.2 2.2-1.7 3.7-1.7 1.4 0 2.4.4 3.1 1.2s1 2 1 3.6v8.4h-3.5v-8.3c0-.7-.2-1.3-.5-1.6s-.9-.5-1.6-.5c-1 0-1.7.4-2.2 1.2v9.2H327v-13h3.4z"/></g><linearGradient id="o" gradientUnits="userSpaceOnUse" x1="216.644" y1="852.977" x2="290.344" y2="852.977"><stop offset="0" stop-color="#f2790a"/><stop offset="1" stop-color="#031035"/></linearGradient><path d="M286.7 862.5h-43v-1.2a3.76 3.76 0 0 0-3.7-3.7h-1.5l-2.3-7.6c4.4 2.5 9.4 3.9 14.5 3.9 2.5 0 5-.3 7.4-.9.8-.2 1.3-.8 1.5-1.5s0-1.5-.6-2l-5.5-5.5v-15.8c.8-1.1 1.2-2.3 1.2-3.6 0-3.4-2.8-6.1-6.1-6.1-1.3 0-2.6.4-3.6 1.2h-15.8l-3-3c-.5-.6-1.3-.8-2.1-.6s-1.3.8-1.5 1.5c-2 7.9-.7 16.4 3.8 23.3-1.6 2.4-1.3 5.7.8 7.7l-2.7 9.2H223a3.76 3.76 0 0 0-3.7 3.7v1.5c-1.5.5-2.5 1.9-2.5 3.5v19.7a3.76 3.76 0 0 0 3.7 3.7h66.3a3.76 3.76 0 0 0 3.7-3.7v-19.7c-.1-2.3-1.8-4-3.8-4zm-59-18.4a3.76 3.76 0 0 1 3.7-3.7 3.76 3.76 0 0 1 3.7 3.7 3.76 3.76 0 0 1-3.7 3.7 3.76 3.76 0 0 1-3.7-3.7zm20.9-5.1v-8.4c.8 0 1.7-.2 2.5-.5v11.4l-2.5-2.5zm-2.5-8.9v6.4l-9.6-9.6h6.4c.7 1.4 1.8 2.6 3.2 3.2zm2.5-9.3a3.76 3.76 0 0 1 3.7 3.7 3.76 3.76 0 0 1-3.7 3.7 3.76 3.76 0 0 1-3.7-3.7c0-2.1 1.7-3.7 3.7-3.7zM243 822c-.3.8-.5 1.6-.5 2.5h-8.4l-2.5-2.5H243zm-18.3-3.4l32.1 32.1c-7 1.7-14.3.5-20.3-3.3 1.8-2.8 1-6.6-1.8-8.5-2-1.3-4.7-1.3-6.7 0-3.7-6-4.9-13.3-3.3-20.3zm4.5 31.2a5.36 5.36 0 0 0 4.3 0l2.3 7.8h-9l2.4-7.8zm-6.4 10.3H240c.7 0 1.2.6 1.2 1.2v1.2h-19.7v-1.2c.1-.7.6-1.2 1.3-1.2zm12.3 27h-9.8v-16h9.8v16zm52.8-1.2c0 .7-.6 1.2-1.2 1.2h-49.1v-16c0-1.4-1.1-2.5-2.5-2.5h-9.8c-1.4 0-2.5 1.1-2.5 2.5v16h-2.5c-.7 0-1.2-.6-1.2-1.2v-19.7c0-.7.6-1.2 1.2-1.2h66.3c.7 0 1.2.6 1.2 1.2v19.7h.1z" fill="url(#o)"/><linearGradient id="p" gradientUnits="userSpaceOnUse" x1="241.2" y1="874.864" x2="258.4" y2="874.864"><stop offset="0" stop-color="#f2790a"/><stop offset="1" stop-color="#031035"/></linearGradient><path d="M254.7 868.7h-9.8a3.76 3.76 0 0 0-3.7 3.7v4.9a3.76 3.76 0 0 0 3.7 3.7h9.8a3.76 3.76 0 0 0 3.7-3.7v-4.9c0-2.1-1.6-3.7-3.7-3.7zm1.3 8.6c0 .7-.6 1.2-1.2 1.2H245c-.7 0-1.2-.6-1.2-1.2v-4.9c0-.7.6-1.2 1.2-1.2h9.8c.7 0 1.2.5 1.2 1.2v4.9z" fill="url(#p)"/><linearGradient id="q" gradientUnits="userSpaceOnUse" x1="264.557" y1="874.864" x2="281.757" y2="874.864"><stop offset="0" stop-color="#f2790a"/><stop offset="1" stop-color="#031035"/></linearGradient><path d="M278.1 868.7h-9.8a3.76 3.76 0 0 0-3.7 3.7v4.9a3.76 3.76 0 0 0 3.7 3.7h9.8a3.76 3.76 0 0 0 3.7-3.7v-4.9c0-2.1-1.7-3.7-3.7-3.7zm1.2 8.6c0 .7-.6 1.2-1.2 1.2h-9.8c-.7 0-1.2-.6-1.2-1.2v-4.9c0-.7.6-1.2 1.2-1.2h9.8c.7 0 1.2.5 1.2 1.2v4.9z" fill="url(#q)"/><linearGradient id="r" gradientUnits="userSpaceOnUse" x1="258.4" y1="831.914" x2="290.342" y2="831.914"><stop offset="0" stop-color="#f2790a"/><stop offset="1" stop-color="#031035"/></linearGradient><path d="M274.4 815.9c-8.8 0-16 7.2-16 16s7.2 16 16 16 16-7.2 16-16c-.1-8.9-7.2-16-16-16zm0 29.4c-7.5 0-13.5-6.1-13.5-13.5 0-7.5 6.1-13.5 13.5-13.5 7.5 0 13.5 6.1 13.5 13.5 0 7.5-6.1 13.5-13.5 13.5z" fill="url(#r)"/><linearGradient id="s" gradientUnits="userSpaceOnUse" x1="274.385" y1="825.714" x2="281.756" y2="825.714"><stop offset="0" stop-color="#f2790a"/><stop offset="1" stop-color="#031035"/></linearGradient><path d="M278.1 829.4a3.76 3.76 0 0 0 3.7-3.7 3.76 3.76 0 0 0-3.7-3.7 3.76 3.76 0 0 0-3.7 3.7c0 2 1.6 3.7 3.7 3.7zm0-4.9c.7 0 1.2.6 1.2 1.2 0 .7-.6 1.2-1.2 1.2-.7 0-1.2-.6-1.2-1.2-.1-.7.5-1.2 1.2-1.2z" fill="url(#s)"/><linearGradient id="t" gradientUnits="userSpaceOnUse" x1="274.385" y1="837.414" x2="282.985" y2="837.414"><stop offset="0" stop-color="#f2790a"/><stop offset="1" stop-color="#031035"/></linearGradient><path d="M278.7 833.1c-2.4 0-4.3 1.9-4.3 4.3s1.9 4.3 4.3 4.3 4.3-1.9 4.3-4.3-1.9-4.3-4.3-4.3zm0 6.1a1.79 1.79 0 1 1 0-3.6 1.79 1.79 0 1 1 0 3.6z" fill="url(#t)"/><linearGradient id="u" gradientUnits="userSpaceOnUse" x1="263.328" y1="831.814" x2="273.156" y2="831.814"><stop offset="0" stop-color="#f2790a"/><stop offset="1" stop-color="#031035"/></linearGradient><path d="M268.2 826.9a4.91 4.91 0 0 0-4.9 4.9 4.91 4.91 0 0 0 4.9 4.9 4.91 4.91 0 0 0 4.9-4.9c0-2.7-2.1-4.9-4.9-4.9zm0 7.4c-1.4 0-2.5-1.1-2.5-2.5s1.1-2.5 2.5-2.5 2.5 1.1 2.5 2.5-1.1 2.5-2.5 2.5z" fill="url(#u)"/><use xlink:href="#Aa" x="-574.5" y="449.3" fill="url(#b)"/><linearGradient id="v" gradientUnits="userSpaceOnUse" x1="278.059" y1="853.914" x2="290.341" y2="853.914"><stop offset="0" stop-color="#f2790a"/><stop offset="1" stop-color="#031035"/></linearGradient><path d="M289.4 852.3l-2.3-1.3-1.3-2.3h0c-.5-.9-1.6-1.2-2.5-.7-.3.2-.6.4-.7.7l-1.3 2.3-2.3 1.3c-.9.5-1.2 1.6-.7 2.5.2.3.4.6.7.7l2.3 1.3 1.3 2.3c.5.9 1.6 1.2 2.5.7.3-.2.6-.4.7-.7l1.3-2.3 2.3-1.3c.9-.5 1.2-1.6.7-2.5-.1-.2-.4-.5-.7-.7h0zm-3.8 2.5c-.2.1-.4.3-.5.5l-.9 1.6-.9-1.6c-.1-.2-.3-.4-.5-.5l-1.6-.9 1.6-.9c.2-.1.4-.3.5-.5l.9-1.6.9 1.6c.1.2.3.4.5.5l1.6.9-1.6.9z" fill="url(#v)"/><linearGradient id="w" gradientUnits="userSpaceOnUse" x1="227.7" y1="879.214" x2="230.157" y2="879.214"><stop offset="0" stop-color="#f2790a"/><stop offset="1" stop-color="#031035"/></linearGradient><path d="M228.9 881c.7 0 1.2-.6 1.2-1.2v-1.2c0-.7-.6-1.2-1.2-1.2s-1.2.5-1.2 1.2v1.2c0 .6.6 1.2 1.2 1.2z" fill="url(#w)"/><linearGradient id="x" gradientUnits="userSpaceOnUse" x1="46.7" y1="420.014" x2="127.3" y2="420.014"><stop offset="0" stop-color="#f2790a"/><stop offset="1" stop-color="#031035"/></linearGradient><path d="M125.9 440.2h-2.7v-43c0-4.4-3.6-8.1-8.1-8.1H107v2.7h8.1c3 0 5.4 2.4 5.4 5.4v43H99.1c-.4 0-.7.1-.9.4l-2.3 2.3H78.2l-2.3-2.3c-.3-.3-.6-.4-.9-.4H53.4v-43c0-3 2.4-5.4 5.4-5.4h8.1v-2.7h-8.1c-4.4 0-8.1 3.6-8.1 8.1v43H48c-.7 0-1.3.6-1.3 1.3v4c0 3 2.4 5.4 5.4 5.4h69.8c3 0 5.4-2.4 5.4-5.4v-4c0-.7-.6-1.3-1.4-1.3zm-1.3 5.4a2.69 2.69 0 0 1-2.7 2.7H52.1a2.69 2.69 0 0 1-2.7-2.7v-2.7h25l2.3 2.3c.3.3.6.4.9.4h18.8c.4 0 .7-.1.9-.4l2.3-2.3h25v2.7z" fill="url(#x)"/><linearGradient id="y" gradientUnits="userSpaceOnUse" x1="56.1" y1="416.064" x2="117.871" y2="416.064"><stop offset="0" stop-color="#f2790a"/><stop offset="1" stop-color="#031035"/></linearGradient><path d="M56.1 398.6v37.6c0 .7.6 1.3 1.3 1.3h59.1c.7 0 1.3-.6 1.3-1.3v-37.6c0-2.2-1.8-4-4-4h-6.7v2.7h6.7c.7 0 1.3.6 1.3 1.3v36.3H58.8v-36.3c0-.7.6-1.3 1.3-1.3h6.7v-2.7h-6.7c-2.2 0-4 1.8-4 4z" fill="url(#y)"/><linearGradient id="z" gradientUnits="userSpaceOnUse" x1="69.543" y1="391.864" x2="104.457" y2="391.864"><stop offset="0" stop-color="#f2790a"/><stop offset="1" stop-color="#031035"/></linearGradient><path d="M87 378.5c2.2 0 4 1.8 4 4 0 .7.6 1.3 1.3 1.3h5.4c.7 0 1.3-.6 1.3-1.3a12.08 12.08 0 1 0-24.2 0v4h-1.3c-2.2 0-4 1.8-4 4v18.8c0 2.2 1.8 4 4 4H87v-2.6H73.6c-.7 0-1.3-.6-1.3-1.3v-18.8c0-.7.6-1.3 1.3-1.3h26.9c.7 0 1.3.6 1.3 1.3v9.4h2.7v-9.4c0-2.2-1.8-4-4-4H83v-4c0-2.3 1.8-4.1 4-4.1zm-9.4 8v-4c0-4.9 3.8-9 8.7-9.4s9.3 3.2 10 8h-2.7a6.63 6.63 0 0 0-7.3-5.3c-3.4.3-6 3.2-6 6.7v4h-2.7 0z" fill="url(#z)"/><linearGradient id="AA" gradientUnits="userSpaceOnUse" x1="81.628" y1="399.964" x2="92.372" y2="399.964"><stop offset="0" stop-color="#f2790a"/><stop offset="1" stop-color="#031035"/></linearGradient><path d="M88.3 406.7v-2.9c2.6-.7 4.3-3.2 4-5.9s-2.6-4.7-5.3-4.7-5 2-5.3 4.7 1.4 5.2 4 5.9v2.9h2.6zm-4-8.1a2.69 2.69 0 1 1 5.4 0 2.69 2.69 0 1 1-5.4 0z" fill="url(#AA)"/><linearGradient id="AB" gradientUnits="userSpaceOnUse" x1="65.5" y1="424.114" x2="108.259" y2="424.114"><stop offset="0" stop-color="#f2790a"/><stop offset="1" stop-color="#031035"/></linearGradient><path d="M65.5 424.1a6.7 6.7 0 0 0 6.7 6.7h29.5c3.1 0 5.7-2.1 6.5-5l-2.6-.7c-.5 1.8-2.1 3-3.9 3H72.2c-2.2 0-4-1.8-4-4s1.8-4 4-4h16.1v-2.7H72.2a6.7 6.7 0 0 0-6.7 6.7z" fill="url(#AB)"/><linearGradient id="AC" gradientUnits="userSpaceOnUse" x1="72.229" y1="424.164" x2="74.914" y2="424.164"><stop offset="0" stop-color="#f2790a"/><stop offset="1" stop-color="#031035"/></linearGradient><path d="M72.2 422.8h2.7v2.7h-2.7v-2.7z" fill="url(#AC)"/><linearGradient id="AD" gradientUnits="userSpaceOnUse" x1="77.6" y1="424.164" x2="80.286" y2="424.164"><stop offset="0" stop-color="#f2790a"/><stop offset="1" stop-color="#031035"/></linearGradient><path d="M77.6 422.8h2.7v2.7h-2.7v-2.7z" fill="url(#AD)"/><linearGradient id="AE" gradientUnits="userSpaceOnUse" x1="82.971" y1="424.164" x2="85.657" y2="424.164"><stop offset="0" stop-color="#f2790a"/><stop offset="1" stop-color="#031035"/></linearGradient><path d="M83 422.8h2.7v2.7H83v-2.7z" fill="url(#AE)"/><linearGradient id="AF" gradientUnits="userSpaceOnUse" x1="88.343" y1="424.164" x2="91.029" y2="424.164"><stop offset="0" stop-color="#f2790a"/><stop offset="1" stop-color="#031035"/></linearGradient><path d="M88.3 422.8H91v2.7h-2.7v-2.7z" fill="url(#AF)"/><linearGradient id="AG" gradientUnits="userSpaceOnUse" x1="95.451" y1="411.552" x2="110.778" y2="411.552"><stop offset="0" stop-color="#f2790a"/><stop offset="1" stop-color="#031035"/></linearGradient><path d="M97.3 411.1l-1.9 1.9 4 4c.5.5 1.4.5 1.9 0l9.4-9.4-1.9-1.9-8.5 8.5-3-3.1z" fill="url(#AG)"/><linearGradient id="AH" gradientUnits="userSpaceOnUse" x1="89.7" y1="413.323" x2="111.186" y2="413.323"><stop offset="0" stop-color="#f2790a"/><stop offset="1" stop-color="#031035"/></linearGradient><path d="M89.7 413.4c0 4 2.2 7.7 5.8 9.5s7.9 1.5 11.2-.8 5-6.3 4.4-10.3l-2.7.4c.1.4.1.8.1 1.2a8.02 8.02 0 0 1-6.1 7.8c-3.6.9-7.3-.8-9.1-4.1-1.7-3.3-1-7.3 1.8-9.8s6.9-2.7 9.9-.6l1.5-2.2c-3.3-2.3-7.6-2.6-11.1-.7s-5.7 5.6-5.7 9.6z" fill="url(#AH)"/><linearGradient id="AI" gradientUnits="userSpaceOnUse" x1="95.1" y1="997.714" x2="809.9" y2="997.714"><stop offset="0" stop-color="#f2790a"/><stop offset="1" stop-color="#031035"/></linearGradient><g class="Ad"><path d="M773.7,1048H131.3c-18.6,0-33.7-15.1-33.7-33.7v-33.2c0-18.6,15.1-33.7,33.7-33.7h642.4   c18.6,0,33.7,15.1,33.7,33.7v33.2C807.4,1032.9,792.3,1048,773.7,1048z" fill="none" stroke="url(#AI)" stroke-width="5"/><path d="M559.5 524.2l.2-5c0-44.6-36.3-80.8-80.8-80.8-32.2 0-61.2 19.2-74 48.3a39.33 39.33 0 0 0-12.7-2.1c-20.6 0-37.7 15.5-40.1 36-26.8 5.3-46.5 28.7-46.5 56.4 0 31.8 25.9 57.7 57.7 57.7h173.2c31.8 0 57.7-25.9 57.7-57.7.2-23-13.7-43.7-34.7-52.8z" fill="#c2d9ef" stroke="#d0d3d6"/></g><path d="M342.4 578.7h-6.2v-30.1h6.2v30.1zm11.9-10.6v10.6h-6.2v-30.1h11.7c2.3 0 4.2.4 6 1.2 1.7.8 3 2 4 3.5.9 1.5 1.4 3.3 1.4 5.2 0 2.9-1 5.3-3 7s-4.8 2.6-8.4 2.6h-5.5zm0-5h5.5c1.6 0 2.9-.4 3.7-1.2.9-.8 1.3-1.9 1.3-3.3 0-1.5-.4-2.7-1.3-3.6s-2.1-1.4-3.6-1.4h-5.7v9.5zm31.7 15.6v-30.1h10.5c3.6 0 6.4.7 8.3 2.1s2.8 3.4 2.8 6.1c0 1.5-.4 2.8-1.1 3.9-.8 1.1-1.8 1.9-3.2 2.5 1.5.4 2.8 1.2 3.6 2.3.9 1.2 1.3 2.6 1.3 4.3 0 2.9-.9 5.1-2.8 6.6-1.8 1.5-4.5 2.2-7.9 2.3H386zm6.2-17.4h4.6c3.1-.1 4.7-1.3 4.7-3.7 0-1.4-.4-2.3-1.2-2.9s-2-.9-3.7-.9h-4.3v7.5zm0 4.3v8.1h5.3c1.5 0 2.6-.3 3.4-1s1.2-1.7 1.2-2.9c0-2.8-1.4-4.2-4.3-4.2h-5.6zm33.3 13.1c-.3-.5-.5-1.2-.6-2-1.4 1.6-3.3 2.4-5.6 2.4-2.2 0-4-.6-5.4-1.9s-2.2-2.9-2.2-4.8c0-2.4.9-4.2 2.6-5.5s4.3-1.9 7.6-1.9h2.7v-1.3c0-1-.3-1.9-.8-2.5s-1.4-.9-2.5-.9c-1 0-1.8.2-2.4.7s-.9 1.1-.9 2h-6c0-1.3.4-2.5 1.2-3.6s1.9-2 3.4-2.6 3.1-.9 4.9-.9c2.8 0 4.9.7 6.6 2.1 1.6 1.4 2.4 3.3 2.4 5.8v9.7c0 2.1.3 3.7.9 4.8v.4h-5.9zm-4.9-4.1c.9 0 1.7-.2 2.4-.6s1.3-.9 1.7-1.6v-3.8h-2.2c-3 0-4.6 1-4.8 3.1v.4c0 .7.3 1.4.8 1.8s1.2.7 2.1.7zm24-.3c1.1 0 2-.3 2.7-.9s1-1.4 1.1-2.4h5.6a7.87 7.87 0 0 1-1.2 4.2c-.8 1.3-1.9 2.2-3.3 2.9s-3 1-4.7 1c-3.2 0-5.7-1-7.6-3-1.8-2-2.8-4.8-2.8-8.4v-.4c0-3.4.9-6.2 2.7-8.2s4.3-3.1 7.5-3.1c2.8 0 5 .8 6.7 2.4s2.5 3.7 2.6 6.4h-5.6c0-1.2-.4-2.1-1.1-2.8a3.69 3.69 0 0 0-2.7-1.1c-1.4 0-2.4.5-3.2 1.5-.7 1-1.1 2.7-1.1 4.9v.6c0 2.3.4 4 1.1 5 .8.9 1.8 1.4 3.3 1.4zm20.8-4.5l-2.1 2.1v6.8h-6V547h6v17.6l1.2-1.5 5.7-6.7h7.2l-8.1 9.3 8.8 13h-6.9l-5.8-8.9zm34.7-2c0 3.6-.8 6.4-2.3 8.4s-3.7 3-6.4 3c-2.4 0-4.4-.9-5.8-2.8l-.3 2.4h-5.4V547h6v11.4c1.4-1.6 3.2-2.4 5.4-2.4 2.7 0 4.9 1 6.4 3s2.3 4.8 2.3 8.5v.3zm-6-.5c0-2.3-.4-3.9-1.1-4.9s-1.8-1.6-3.2-1.6c-1.9 0-3.2.8-3.9 2.3v8.8c.7 1.6 2.1 2.4 4 2.4s3.2-1 3.8-2.9c.2-.8.4-2.2.4-4.1zm8.7 0c0-2.2.4-4.2 1.3-5.9s2.1-3.1 3.7-4c1.6-1 3.5-1.4 5.6-1.4 3 0 5.5.9 7.4 2.8 1.9 1.8 3 4.4 3.2 7.5v1.5c0 3.4-1 6.2-2.9 8.3s-4.5 3.1-7.7 3.1-5.8-1-7.7-3.1-2.9-4.9-2.9-8.4v-.4zm6 .5c0 2.1.4 3.7 1.2 4.9.8 1.1 1.9 1.7 3.4 1.7 1.4 0 2.6-.6 3.4-1.7s1.2-2.9 1.2-5.3c0-2.1-.4-3.7-1.2-4.8s-2-1.7-3.4-1.7c-1.5 0-2.6.6-3.4 1.7-.8 1-1.2 2.8-1.2 5.2zm24.4-11.4l.2 2.6c1.6-2 3.7-3 6.4-3 2.4 0 4.1.7 5.3 2.1s1.7 3.5 1.8 6.2v14.4h-6v-14.3c0-1.3-.3-2.2-.8-2.8s-1.5-.9-2.7-.9c-1.7 0-2.9.7-3.8 2.1v15.8h-6v-22.4h5.6zm28.4 22.7c-3.3 0-5.9-1-8-3s-3.1-4.7-3.1-8v-.6c0-2.2.4-4.3 1.3-6 .9-1.8 2.1-3.1 3.7-4.1s3.4-1.4 5.4-1.4c3.1 0 5.5 1 7.2 2.9 1.8 1.9 2.6 4.7 2.6 8.2v2.4h-14.2c.2 1.5.8 2.6 1.7 3.5 1 .9 2.2 1.3 3.7 1.3 2.3 0 4.1-.8 5.4-2.5l2.9 3.3c-.9 1.3-2.1 2.3-3.6 3-1.4.7-3.1 1-5 1zm-.6-18.3c-1.2 0-2.1.4-2.9 1.2-.7.8-1.2 2-1.4 3.4h8.3v-.4c0-1.3-.4-2.4-1.1-3.1s-1.7-1.1-2.9-1.1z" class="Aa Ac"/><path d="M188.4 983c.1-1 .1-2 .1-3.1 0-27.4-22.3-49.8-49.8-49.8-19.8 0-37.6 11.8-45.5 29.8-2.5-.9-5.2-1.3-7.8-1.3-12.7 0-23.2 9.6-24.7 22.2-16.5 3.2-28.6 17.7-28.6 34.7 0 19.6 15.9 35.5 35.6 35.5h106.7c19.6 0 35.6-15.9 35.6-35.5-.1-14.2-8.6-27-21.6-32.5z" fill="#c2d9ef" stroke="#d0d3d6" class="Ad"/><path d="M54.8 1016.5H51V998h3.8v18.5zm7.3-6.5v6.5h-3.8V998h7.2c1.4 0 2.6.3 3.7.8s1.9 1.2 2.4 2.2c.6.9.9 2 .9 3.2 0 1.8-.6 3.2-1.9 4.3-1.2 1-3 1.6-5.2 1.6h-3.3zm0-3.1h3.4c1 0 1.8-.2 2.3-.7s.8-1.2.8-2c0-.9-.3-1.6-.8-2.2s-1.3-.8-2.2-.9h-3.5v5.8zm19.5 9.6V998h6.5c2.2 0 4 .4 5.1 1.3 1.2.9 1.7 2.1 1.7 3.8 0 .9-.2 1.7-.7 2.4s-1.1 1.2-1.9 1.5c.9.2 1.7.7 2.2 1.4s.8 1.6.8 2.6c0 1.8-.6 3.1-1.7 4s-2.8 1.4-4.9 1.4h-7.1zm3.8-10.7h2.8c1.9 0 2.9-.8 2.9-2.3 0-.8-.2-1.4-.7-1.8s-1.3-.6-2.3-.6h-2.7v4.7zm0 2.7v5h3.3c.9 0 1.6-.2 2.1-.6s.8-1 .8-1.8c0-1.7-.9-2.6-2.6-2.6h-3.6zm20.5 8c-.2-.3-.3-.7-.4-1.2-.9 1-2 1.5-3.5 1.5-1.3 0-2.5-.4-3.4-1.2s-1.3-1.8-1.3-3c0-1.5.5-2.6 1.6-3.4s2.6-1.2 4.7-1.2h1.7v-.8c0-.6-.2-1.1-.5-1.5s-.8-.6-1.5-.6c-.6 0-1.1.1-1.5.4s-.5.7-.5 1.2h-3.7c0-.8.2-1.5.7-2.2s1.2-1.2 2.1-1.6 1.9-.6 3-.6c1.7 0 3 .4 4 1.3s1.5 2 1.5 3.6v6c0 1.3.2 2.3.5 3v.2h-3.5zm-3-2.5c.5 0 1-.1 1.5-.4.5-.2.8-.6 1-1v-2.4H104c-1.8 0-2.8.6-2.9 1.9v.2c0 .5.2.8.5 1.1s.7.6 1.3.6zm14.7-.2a2.52 2.52 0 0 0 1.7-.6c.4-.4.6-.9.7-1.5h3.4c0 .9-.3 1.8-.8 2.6s-1.2 1.4-2.1 1.8-1.8.6-2.9.6c-2 0-3.5-.6-4.7-1.9-1.1-1.3-1.7-3-1.7-5.2v-.2c0-2.1.6-3.8 1.7-5.1s2.7-1.9 4.6-1.9c1.7 0 3.1.5 4.1 1.5s1.6 2.3 1.6 3.9H120c0-.7-.2-1.3-.7-1.7-.4-.4-1-.7-1.7-.7-.9 0-1.5.3-1.9.9s-.7 1.6-.7 3v.4c0 1.4.2 2.4.6 3.1.5.7 1.2 1 2 1zm12.9-2.8l-1.3 1.3v4.2h-3.7V997h3.7v10.8l.7-.9 3.5-4.1h4.4l-5 5.7 5.4 8H134l-3.5-5.5zm21.3-1.2c0 2.2-.5 3.9-1.4 5.2-.9 1.2-2.3 1.8-3.9 1.8-1.5 0-2.7-.6-3.6-1.7l-.2 1.5h-3.3V997h3.7v7c.8-1 2-1.5 3.3-1.5 1.7 0 3 .6 3.9 1.9 1 1.2 1.4 3 1.4 5.2v.2zm-3.7-.3c0-1.4-.2-2.4-.7-3-.4-.6-1.1-1-2-1-1.2 0-2 .5-2.4 1.4v5.4c.4 1 1.3 1.5 2.4 1.5 1.2 0 2-.6 2.3-1.8.4-.5.4-1.4.4-2.5zm5.4 0c0-1.4.3-2.6.8-3.6.5-1.1 1.3-1.9 2.3-2.5s2.1-.9 3.4-.9c1.9 0 3.4.6 4.5 1.7 1.2 1.1 1.8 2.7 2 4.6v.9c0 2.1-.6 3.8-1.8 5.1s-2.8 1.9-4.7 1.9c-2 0-3.6-.6-4.8-1.9s-1.8-3-1.8-5.2v-.1zm3.7.3c0 1.3.2 2.3.7 3s1.2 1 2.1 1 1.6-.3 2.1-1 .8-1.8.8-3.3c0-1.3-.3-2.3-.8-3s-1.2-1.1-2.1-1.1-1.6.4-2.1 1.1-.7 1.8-.7 3.3zm15-7l.1 1.6c1-1.2 2.3-1.8 4-1.8 1.5 0 2.5.4 3.3 1.3.7.9 1.1 2.1 1.1 3.8v8.9H177v-8.8c0-.8-.2-1.3-.5-1.7s-.9-.5-1.7-.5c-1 0-1.8.4-2.3 1.3v9.7h-3.7v-13.8h3.4zm17.5 14c-2 0-3.7-.6-4.9-1.9-1.3-1.2-1.9-2.9-1.9-4.9v-.4c0-1.4.3-2.6.8-3.7s1.3-1.9 2.3-2.5 2.1-.9 3.4-.9c1.9 0 3.4.6 4.4 1.8 1.1 1.2 1.6 2.9 1.6 5v1.5h-8.8c.1.9.5 1.6 1.1 2.2.6.5 1.4.8 2.3.8 1.4 0 2.5-.5 3.3-1.5l1.8 2c-.6.8-1.3 1.4-2.2 1.8-1 .5-2 .7-3.2.7zm-.4-11.3c-.7 0-1.3.2-1.8.7s-.7 1.2-.9 2.1h5.1v-.3c0-.8-.2-1.4-.7-1.9s-.9-.6-1.7-.6z" class="Aa Ac"/><g class="Aa Ac"><path d="M241.8 989.3v-24.9h7.7c2.2 0 4.1.5 5.9 1.5 1.7 1 3.1 2.4 4 4.2 1 1.8 1.5 3.9 1.5 6.2v1.1c0 2.3-.5 4.4-1.4 6.2-1 1.8-2.3 3.2-4 4.2s-3.7 1.5-5.9 1.5h-7.8zm5.2-20.7v16.6h2.5c2 0 3.5-.7 4.6-2s1.6-3.2 1.6-5.6v-1.3c0-2.5-.5-4.4-1.6-5.8-1-1.3-2.6-2-4.6-2H247z"/><use xlink:href="#Ag"/><path d="M290.9 985.6c.9 0 1.7-.3 2.2-.8.6-.5.9-1.2.9-2h4.6c0 1.3-.4 2.4-1 3.4-.7 1-1.6 1.9-2.8 2.4-1.2.6-2.5.9-3.9.9-2.6 0-4.7-.8-6.3-2.5-1.5-1.7-2.3-4-2.3-7v-.3c0-2.8.8-5.1 2.3-6.8s3.6-2.5 6.2-2.5c2.3 0 4.2.7 5.6 2s2.1 3.1 2.1 5.3H294c0-1-.3-1.7-.9-2.3s-1.3-.9-2.3-.9c-1.2 0-2 .4-2.6 1.3-.6.8-.9 2.2-.9 4.1v.5c0 1.9.3 3.3.9 4.1s1.5 1.1 2.7 1.1z"/><use xlink:href="#Ah"/><use xlink:href="#Ai"/><use xlink:href="#Aj"/><use xlink:href="#Ak"/><path d="M374.7 989.3c-.2-.4-.4-1-.5-1.7-1.2 1.3-2.8 2-4.7 2-1.8 0-3.3-.5-4.5-1.6-1.2-1-1.8-2.4-1.8-4 0-2 .7-3.5 2.2-4.5s3.6-1.6 6.3-1.6h2.3v-1.1c0-.9-.2-1.5-.7-2.1-.4-.5-1.1-.8-2.1-.8-.8 0-1.5.2-2 .6s-.7.9-.7 1.6h-4.9c0-1.1.3-2.1 1-3s1.6-1.6 2.8-2.1a10.7 10.7 0 0 1 4.1-.8c2.3 0 4.1.6 5.4 1.7s2 2.8 2 4.8v8c0 1.8.3 3.1.7 4v.3h-4.9zm-4-3.4c.7 0 1.4-.2 2-.5s1.1-.8 1.4-1.3v-3.2h-1.8c-2.5 0-3.8.9-3.9 2.6v.3c0 .6.2 1.1.6 1.5.3.4.9.6 1.7.6zm17.3 3.4h-5V963h5v26.3zm4-23.3c0-.7.2-1.4.7-1.8.5-.5 1.2-.7 2-.7s1.5.2 2 .7.8 1.1.8 1.8c0 .8-.3 1.4-.8 1.8-.5.5-1.2.7-2 .7s-1.5-.2-2-.7-.7-1-.7-1.8zm5.3 23.3h-5v-18.5h5v18.5zm9.7-4h9v4h-15.3v-3l8.7-11.5H401v-4h14.8v2.9l-8.8 11.6z"/><use xlink:href="#Ag" x="154.6"/><path d="M437 979.9c0-2.9.6-5.2 1.9-6.9s3.1-2.6 5.3-2.6c1.8 0 3.3.7 4.5 2V963h5v26.3h-4.5l-.2-2c-1.2 1.5-2.8 2.3-4.8 2.3-2.2 0-3.9-.9-5.2-2.6s-2-4-2-7.1zm5 .4c0 1.7.3 3.1.9 4s1.5 1.4 2.6 1.4c1.5 0 2.6-.6 3.2-1.9v-7.3c-.6-1.3-1.7-1.9-3.2-1.9-2.3-.1-3.5 1.8-3.5 5.7z"/><use xlink:href="#Ai" x="145.9"/><path d="M494.4 989.6c-2.7 0-4.9-.8-6.6-2.5s-2.6-3.9-2.6-6.6v-.5a11.48 11.48 0 0 1 1.1-5c.7-1.5 1.7-2.6 3-3.4s2.8-1.2 4.5-1.2c2.5 0 4.5.8 6 2.4s2.2 3.9 2.2 6.8v2h-11.8c.2 1.2.6 2.2 1.4 2.9s1.8 1.1 3.1 1.1c1.9 0 3.4-.7 4.5-2.1l2.4 2.7a7.47 7.47 0 0 1-3 2.5 9.9 9.9 0 0 1-4.2.9zm-.6-15.2c-1 0-1.8.3-2.4 1s-1 1.6-1.2 2.8h6.9v-.4c0-1.1-.3-1.9-.9-2.5-.5-.6-1.4-.9-2.4-.9zm16.9-8.2v4.5h3.2v3.6h-3.2v9.2c0 .7.1 1.2.4 1.5s.8.4 1.5.4c.5 0 1 0 1.5-.1v3.7c-1 .3-2 .4-3 .4-3.5 0-5.2-1.7-5.3-5.2v-10H503v-3.6h2.7v-4.5h5zm22 16.4l2.4-11.8h4.8l-4.7 18.5H531l-3.5-11.6-3.5 11.6h-4.1l-4.7-18.5h4.8l2.4 11.8 3.4-11.8h3.6l3.3 11.8z"/><use xlink:href="#Al"/><use xlink:href="#Ak" x="210.3"/><path d="M581.6 981.9l-1.8 1.8v5.6h-4.9V963h4.9v14.5l1-1.2 4.7-5.6h5.9l-6.7 7.7 7.3 10.8h-5.7l-4.7-7.3zm19.9-2c0-2.9.6-5.2 1.9-6.9s3.1-2.6 5.3-2.6c1.8 0 3.3.7 4.5 2V963h5v26.3h-4.5l-.2-2c-1.2 1.5-2.8 2.3-4.8 2.3-2.2 0-3.9-.9-5.2-2.6s-2-4-2-7.1zm5 .4c0 1.7.3 3.1.9 4s1.5 1.4 2.6 1.4c1.5 0 2.6-.6 3.2-1.9v-7.3c-.6-1.3-1.7-1.9-3.2-1.9-2.4-.1-3.5 1.8-3.5 5.7z"/><use xlink:href="#Ah" x="320.6"/><use xlink:href="#Am"/><use xlink:href="#An"/><path d="M667.5 979.9c0-2.8.7-5.1 2-6.9 1.4-1.7 3.2-2.6 5.5-2.6 2 0 3.6.7 4.7 2.1l.2-1.7h4.5v17.9c0 1.6-.4 3-1.1 4.2s-1.8 2.1-3.1 2.7-2.9.9-4.7.9c-1.4 0-2.7-.3-4-.8s-2.3-1.2-2.9-2.1l2.2-3c1.2 1.4 2.7 2.1 4.5 2.1 1.3 0 2.3-.4 3.1-1.1.7-.7 1.1-1.7 1.1-3v-1c-1.1 1.3-2.6 1.9-4.5 1.9-2.2 0-4-.9-5.4-2.6s-2.1-4-2.1-6.9v-.1zm4.9.4c0 1.7.3 3 1 3.9.7 1 1.6 1.4 2.8 1.4 1.5 0 2.6-.6 3.2-1.7v-7.8c-.7-1.1-1.7-1.7-3.2-1.7-1.2 0-2.1.5-2.8 1.5-.6 1-1 2.4-1 4.4z"/><use xlink:href="#Ai" x="367.8"/></g><g class="Aa Ac"><path d="M282 1022.6h-9.6v-4h9.6v4z"/><use xlink:href="#Ai" x="-25.7" y="42"/><use xlink:href="#Al" x="-228" y="42"/><use xlink:href="#Am" x="-298.1" y="42"/><use xlink:href="#An" x="-298.1" y="42"/><path d="M374.6 1012.8l.2 2.1c1.3-1.7 3.1-2.5 5.3-2.5 2 0 3.4.6 4.4 1.7 1 1.2 1.4 2.9 1.5 5.2v11.9h-5v-11.8c0-1-.2-1.8-.7-2.3s-1.2-.7-2.3-.7c-1.4 0-2.4.6-3.1 1.8v13H370v-18.5h4.6zm14.4 9.1c0-2.8.7-5.1 2-6.9 1.4-1.7 3.2-2.6 5.5-2.6 2 0 3.6.7 4.7 2.1l.2-1.7h4.5v17.9c0 1.6-.4 3-1.1 4.2s-1.8 2.1-3.1 2.7-2.9.9-4.7.9c-1.4 0-2.7-.3-4-.8s-2.3-1.2-2.9-2.1l2.2-3c1.2 1.4 2.7 2.1 4.5 2.1 1.3 0 2.3-.4 3.1-1.1.7-.7 1.1-1.7 1.1-3v-1c-1.1 1.3-2.6 1.9-4.5 1.9-2.2 0-4-.9-5.4-2.6s-2.1-4-2.1-6.9v-.1zm4.9.4c0 1.7.3 3 1 3.9.7 1 1.6 1.4 2.8 1.4 1.5 0 2.6-.6 3.2-1.7v-7.8c-.7-1.1-1.7-1.7-3.2-1.7-1.2 0-2.1.5-2.8 1.5s-1 2.4-1 4.4zm21 9h-5V1005h5v26.3zm12.6.3c-2.7 0-4.9-.8-6.6-2.5s-2.6-3.9-2.6-6.6v-.5a11.48 11.48 0 0 1 1.1-5c.7-1.5 1.7-2.6 3.1-3.4 1.3-.8 2.8-1.2 4.5-1.2 2.5 0 4.5.8 6 2.4s2.2 3.9 2.2 6.8v2h-11.8c.2 1.2.6 2.2 1.4 2.9s1.8 1.1 3.1 1.1c1.9 0 3.4-.7 4.5-2.1l2.4 2.7a7.47 7.47 0 0 1-3 2.5c-1.4.6-2.8.9-4.3.9zm-.6-15.2c-1 0-1.8.3-2.4 1s-1 1.6-1.2 2.8h6.9v-.4c0-1.1-.3-1.9-.9-2.5s-1.4-.9-2.4-.9zm36.3 5.8c0 2.8-.6 5.1-1.9 6.8s-3 2.6-5.2 2.6c-1.9 0-3.4-.6-4.5-1.9v8.7h-4.9v-25.6h4.6l.2 1.8c1.2-1.4 2.8-2.2 4.7-2.2 2.3 0 4.1.8 5.3 2.5 1.3 1.7 1.9 4 1.9 7v.3zm-4.9-.3c0-1.7-.3-3-.9-4-.6-.9-1.5-1.4-2.7-1.4-1.5 0-2.6.6-3.2 1.8v7.6c.6 1.2 1.7 1.8 3.2 1.8 2.4-.1 3.6-2 3.6-5.8z"/><use xlink:href="#Al" x="-76" y="42"/><use xlink:href="#Ao"/><use xlink:href="#Ai" x="175" y="42"/><use xlink:href="#Aj" x="175" y="42"/><use xlink:href="#Al" x="-6.8" y="42"/><use xlink:href="#Ap"/><use xlink:href="#Ap" x="21.3"/><path d="M599.8 1031.3c-.2-.4-.4-1-.5-1.7-1.2 1.3-2.8 2-4.7 2-1.8 0-3.3-.5-4.5-1.6-1.2-1-1.8-2.4-1.8-4 0-2 .7-3.5 2.2-4.5s3.6-1.6 6.3-1.6h2.3v-1.1c0-.9-.2-1.5-.7-2.1-.4-.5-1.1-.8-2.1-.8-.8 0-1.5.2-2 .6s-.7.9-.7 1.6h-4.9c0-1.1.3-2.1 1-3s1.6-1.6 2.8-2.1a10.7 10.7 0 0 1 4.1-.8c2.3 0 4.1.6 5.4 1.7s2 2.8 2 4.8v8c0 1.8.3 3.1.7 4v.3h-4.9zm-4.1-3.5c.7 0 1.4-.2 2-.5s1.1-.8 1.4-1.3v-3.2h-1.8c-2.5 0-3.8.9-3.9 2.6v.3c0 .6.2 1.1.6 1.5.4.5 1 .6 1.7.6z"/><use xlink:href="#Ao" x="121.8"/><path d="M622.3 1031.3h-5V1005h5v26.3zm15.2-1.9c-1.2 1.5-2.9 2.2-5.1 2.2-2 0-3.5-.6-4.5-1.7s-1.6-2.8-1.6-5v-12.1h4.9v12c0 1.9.9 2.9 2.6 2.9s2.8-.6 3.5-1.7v-13.1h5v18.5h-4.6l-.2-2zm18.9-12c-.7-.1-1.3-.1-1.8-.1-1.9 0-3.1.6-3.7 1.9v12.1H646v-18.5h4.7l.1 2.2c1-1.7 2.4-2.5 4.1-2.5.5 0 1.1.1 1.5.2v4.7zm10.6 14.2c-2.7 0-4.9-.8-6.6-2.5s-2.6-3.9-2.6-6.6v-.5a11.48 11.48 0 0 1 1.1-5c.7-1.5 1.7-2.6 3-3.4s2.8-1.2 4.5-1.2c2.5 0 4.5.8 6 2.4s2.2 3.9 2.2 6.8v2h-11.8c.2 1.2.6 2.2 1.4 2.9s1.8 1.1 3.1 1.1c1.9 0 3.4-.7 4.5-2.1l2.4 2.7a7.47 7.47 0 0 1-3 2.5 9.9 9.9 0 0 1-4.2.9zm-.6-15.2c-1 0-1.8.3-2.4 1s-1 1.6-1.2 2.8h6.9v-.4c0-1.1-.3-1.9-.9-2.5s-1.4-.9-2.4-.9z"/></g><defs ><path id="AK" d="M302.4 73.4c-5.1 0-9.3-1.6-12.5-4.7s-4.8-7.3-4.8-12.5v-.9c0-3.5.7-6.6 2-9.4s3.3-4.9 5.8-6.4 5.3-2.2 8.5-2.2c4.8 0 8.5 1.5 11.3 4.5s4.1 7.3 4.1 12.8v3.8h-22.2c.3 2.3 1.2 4.1 2.7 5.5s3.4 2.1 5.8 2.1c3.6 0 6.4-1.3 8.4-3.9l4.6 5.1c-1.4 2-3.3 3.5-5.7 4.6-2.5 1-5.1 1.6-8 1.6zm-1.1-28.7c-1.8 0-3.3.6-4.5 1.9-1.1 1.3-1.9 3-2.2 5.4h13v-.7c0-2.1-.6-3.7-1.7-4.8-1.1-1.2-2.6-1.8-4.6-1.8z"/><path id="AL" d="M235.4 193.7c0 2.5 2.1 4.6 4.6 4.6s4.6-2.1 4.6-4.6-2.1-4.6-4.6-4.6-4.6 2-4.6 4.6zm6.1 0a1.54 1.54 0 0 1-1.5 1.5 1.54 1.54 0 0 1-1.5-1.5 1.54 1.54 0 0 1 1.5-1.5 1.47 1.47 0 0 1 1.5 1.5z"/><path id="AM" d="M235.4 175.3c0 2.5 2.1 4.6 4.6 4.6s4.6-2.1 4.6-4.6-2.1-4.6-4.6-4.6-4.6 2.1-4.6 4.6zm6.1 0a1.54 1.54 0 0 1-1.5 1.5 1.54 1.54 0 0 1-1.5-1.5 1.54 1.54 0 0 1 1.5-1.5 1.54 1.54 0 0 1 1.5 1.5z"/><path id="AN" d="M292.5 226c-.5-.1-.9-.1-1.2-.1-1.3 0-2.2.4-2.6 1.3v8.5h-3.5v-13h3.3l.1 1.5c.7-1.2 1.7-1.8 2.9-1.8.4 0 .7.1 1.1.2l-.1 3.4z"/><path id="AO" d="M73.5 460.6v3.2h2.2v2.5h-2.2v6.5c0 .5.1.8.3 1s.5.3 1.1.3c.4 0 .7 0 1-.1v2.6c-.7.2-1.4.3-2.1.3-2.4 0-3.7-1.2-3.7-3.7v-7h-1.9v-2.5h1.9v-3.2h3.4z"/><path id="AP" d="M777 709.9c0-1.3.2-2.4.7-3.4s1.2-1.8 2.1-2.3c.9-.6 2-.8 3.2-.8 1.8 0 3.2.5 4.3 1.6s1.7 2.5 1.9 4.4v.9c0 2-.6 3.6-1.7 4.8s-2.6 1.8-4.5 1.8-3.4-.6-4.5-1.8-1.7-2.8-1.7-4.9v-.3zm3.4.2c0 1.2.2 2.2.7 2.8.5.7 1.1 1 2 1 .8 0 1.5-.3 2-1 .5-.6.7-1.7.7-3.1 0-1.2-.2-2.1-.7-2.8s-1.1-1-2-1c-.8 0-1.5.3-2 1s-.7 1.7-.7 3.1z"/><path id="AQ" d="M790.9 709.9c0-2 .5-3.6 1.4-4.8s2.2-1.8 3.8-1.8c1.4 0 2.5.5 3.3 1.5l.1-1.2h3.1v12.6c0 1.1-.3 2.1-.8 3-.5.8-1.2 1.5-2.2 1.9a8.05 8.05 0 0 1-3.3.7 6.71 6.71 0 0 1-2.8-.6c-.9-.4-1.6-.9-2.1-1.5l1.5-2.1c.9 1 1.9 1.5 3.1 1.5.9 0 1.6-.2 2.1-.7s.8-1.2.8-2.1v-.7c-.8.9-1.9 1.4-3.2 1.4-1.6 0-2.8-.6-3.8-1.8s-1.4-2.8-1.4-4.9v-.4zm3.5.3c0 1.2.2 2.1.7 2.8s1.1 1 1.9 1c1.1 0 1.8-.4 2.3-1.2v-5.5c-.5-.8-1.2-1.2-2.2-1.2-.8 0-1.5.3-2 1s-.7 1.7-.7 3.1z"/><path id="AR" d="M775.7 465.8v-17.5h6.1c2.1 0 3.7.4 4.8 1.2s1.6 2 1.6 3.6c0 .9-.2 1.6-.7 2.3-.4.7-1.1 1.1-1.8 1.4.9.2 1.6.7 2.1 1.4s.8 1.5.8 2.5c0 1.7-.5 3-1.6 3.8s-2.6 1.3-4.6 1.3h-6.7zm3.6-10.2h2.7c1.8 0 2.7-.8 2.7-2.2 0-.8-.2-1.4-.7-1.7s-1.2-.5-2.2-.5h-2.5v4.4zm0 2.6v4.7h3.1c.8 0 1.5-.2 2-.6s.7-1 .7-1.7c0-1.6-.8-2.4-2.5-2.4h-3.3z"/><path id="AS" d="M811.4 462.2a1.1 1.1 0 0 0-.6-1 8.84 8.84 0 0 0-2-.7c-3.1-.6-4.6-2-4.6-3.9 0-1.2.5-2.1 1.4-2.9 1-.8 2.2-1.2 3.8-1.2s3 .4 4 1.2 1.5 1.8 1.5 3h-3.5c0-.5-.2-.9-.5-1.2s-.8-.5-1.5-.5c-.6 0-1 .1-1.4.4-.3.3-.5.6-.5 1s.2.7.5.9 1 .4 1.8.6l2.2.6c1.8.7 2.7 1.8 2.7 3.5 0 1.2-.5 2.1-1.5 2.9s-2.3 1.1-3.9 1.1c-1.1 0-2.1-.2-2.9-.6s-1.5-.9-2-1.6-.7-1.4-.7-2.2h3.3a1.75 1.75 0 0 0 .7 1.4c.4.3 1 .5 1.7.5s1.2-.1 1.5-.4c.3-.2.5-.5.5-.9z"/><path id="AT" d="M845.7 461.2c0-.7-.2-1.2-.7-1.6s-1.3-.7-2.6-1.2l-3-1.2c-2-1.1-3-2.5-3-4.3 0-.9.3-1.8.8-2.5s1.3-1.3 2.3-1.7 2.1-.6 3.4-.6c1.2 0 2.4.2 3.3.7s1.7 1.1 2.3 1.9.8 1.8.8 2.8h-3.6c0-.8-.3-1.4-.8-1.9-.5-.4-1.2-.7-2.1-.7s-1.6.2-2.1.6-.7.9-.7 1.5.3 1 .9 1.4 1.4.7 2.5 1.1c2 .6 3.5 1.4 4.5 2.3.9.9 1.4 2 1.4 3.4 0 1.5-.6 2.7-1.7 3.6s-2.7 1.3-4.6 1.3c-1.3 0-2.6-.2-3.7-.7a6.34 6.34 0 0 1-2.5-2c-.6-.8-.9-1.8-.9-3h3.6c0 1.9 1.2 2.9 3.5 2.9.9 0 1.5-.2 2-.5.4-.5.7-1 .7-1.6z"/><path id="AU" d="M881.3 449.4c0-.5.2-.9.5-1.3.3-.3.8-.5 1.4-.5s1.1.2 1.4.5c.4.3.5.8.5 1.3s-.2 1-.5 1.3c-.4.3-.8.5-1.4.5s-1.1-.2-1.4-.5c-.4-.3-.5-.7-.5-1.3zm3.6 16.4h-3.5v-13h3.5v13z"/><path id="AV" d="M887.3 459.2c0-1.3.2-2.4.7-3.4s1.2-1.8 2.1-2.3c.9-.6 2-.8 3.2-.8 1.8 0 3.2.5 4.3 1.6s1.7 2.5 1.9 4.4v.9c0 2-.6 3.6-1.7 4.8s-2.6 1.8-4.5 1.8-3.4-.6-4.5-1.8-1.7-2.8-1.7-4.9v-.3zm3.4.2c0 1.2.2 2.2.7 2.8.5.7 1.1 1 2 1 .8 0 1.5-.3 2-1 .5-.6.7-1.7.7-3.1 0-1.2-.2-2.1-.7-2.8s-1.1-1-2-1c-.8 0-1.5.3-2 1-.4.7-.7 1.7-.7 3.1z"/><path id="AW" d="M904.9 452.8l.1 1.5c.9-1.2 2.2-1.7 3.7-1.7 1.4 0 2.4.4 3.1 1.2s1 2 1 3.6v8.4h-3.5v-8.3c0-.7-.2-1.3-.5-1.6s-.9-.5-1.6-.5c-1 0-1.7.4-2.2 1.2v9.2h-3.5v-13h3.4z"/><path id="AX" d="M829.2 419.4h-9.8a3.76 3.76 0 0 0-3.7 3.7v4.9a3.76 3.76 0 0 0 3.7 3.7h9.8a3.76 3.76 0 0 0 3.7-3.7v-4.9c0-2.1-1.6-3.7-3.7-3.7zm1.2 8.6c0 .7-.6 1.2-1.2 1.2h-9.8c-.7 0-1.2-.6-1.2-1.2v-4.9c0-.7.6-1.2 1.2-1.2h9.8c.7 0 1.2.6 1.2 1.2v4.9z"/><path id="AY" d="M852.6 419.4h-9.8a3.76 3.76 0 0 0-3.7 3.7v4.9a3.76 3.76 0 0 0 3.7 3.7h9.8a3.76 3.76 0 0 0 3.7-3.7v-4.9c-.1-2.1-1.7-3.7-3.7-3.7zm1.2 8.6c0 .7-.6 1.2-1.2 1.2h-9.8c-.7 0-1.2-.6-1.2-1.2v-4.9c0-.7.6-1.2 1.2-1.2h9.8c.7 0 1.2.6 1.2 1.2v4.9z"/><path id="AZ" d="M848.9 366.5c-8.8 0-16 7.2-16 16s7.2 16 16 16 16-7.2 16-16c-.1-8.8-7.2-16-16-16zm0 29.5c-7.5 0-13.5-6.1-13.5-13.5 0-7.5 6.1-13.5 13.5-13.5s13.5 6.1 13.5 13.5c0 7.5-6.1 13.5-13.5 13.5z"/><path id="Aa" d="M838.3 407.9l1.1 2c.5.9 1.5 1.2 2.4.7.3-.2.5-.4.7-.7l1.1-2 2-1.1c.9-.5 1.2-1.5.7-2.4-.2-.3-.4-.5-.7-.7l-2-1.1-1.1-2c-.5-.9-1.5-1.2-2.4-.7-.3.2-.5.4-.7.7l-1.1 2-2 1.1c-.9.5-1.2 1.5-.7 2.4.2.3.4.5.7.7l2 1.1zm1.5-3.3c.2-.1.4-.3.5-.5l.6-1.2.6 1.2c.1.2.3.4.5.5l1.2.6-1.2.6c-.2.1-.4.3-.5.5l-.6 1.2-.6-1.2c-.1-.2-.3-.4-.5-.5l-1.2-.6 1.2-.6z"/><path id="Ab" d="M863.9 403l-2.3-1.3-1.3-2.3h0c-.5-.9-1.6-1.2-2.5-.7-.3.2-.6.4-.7.7l-1.3 2.3-2.3 1.3c-.9.5-1.2 1.6-.7 2.5.2.3.4.6.7.7l2.3 1.3 1.3 2.3c.5.9 1.6 1.2 2.5.7.3-.2.6-.4.7-.7l1.3-2.3 2.3-1.3c.9-.5 1.2-1.6.7-2.5-.1-.3-.4-.5-.7-.7h0zm-3.8 2.5c-.2.1-.4.3-.5.5l-.9 1.6-.9-1.6c-.1-.2-.3-.4-.5-.5l-1.6-.9 1.6-.9c.2-.1.4-.3.5-.5l.9-1.6.9 1.6c.1.2.3.4.5.5l1.6.9-1.6.9z"/><path id="Ac" d="M803.4 431.6c.7 0 1.2-.6 1.2-1.2v-1.2c0-.7-.6-1.2-1.2-1.2-.7 0-1.2.6-1.2 1.2v1.2c0 .7.5 1.2 1.2 1.2z"/><path id="Ad" d="M622.2 146.7c-2.4 0-4.3 1.9-4.3 4.3s1.9 4.3 4.3 4.3 4.3-1.9 4.3-4.3-2-4.3-4.3-4.3zm0 6.2a1.79 1.79 0 1 1 0-3.6 1.79 1.79 0 1 1 0 3.6z"/><path id="Ae" d="M611.7 140.6a4.91 4.91 0 0 0-4.9 4.9 4.91 4.91 0 0 0 4.9 4.9 4.91 4.91 0 0 0 4.9-4.9 4.91 4.91 0 0 0-4.9-4.9zm0 7.4c-1.4 0-2.5-1.1-2.5-2.5s1.1-2.5 2.5-2.5 2.5 1.1 2.5 2.5-1.1 2.5-2.5 2.5z"/><path id="Af" d="M281.2 898.9v3.2h2.2v2.5h-2.2v6.5c0 .5.1.8.3 1s.5.3 1.1.3c.4 0 .7 0 1-.1v2.6c-.7.2-1.4.3-2.1.3-2.4 0-3.7-1.2-3.7-3.7v-7h-1.9V902h1.9v-3.2h3.4z"/><path id="Ag" d="M272.8 989.6c-2.7 0-4.9-.8-6.6-2.5s-2.6-3.9-2.6-6.6v-.5a11.48 11.48 0 0 1 1.1-5c.7-1.5 1.7-2.6 3-3.4s2.8-1.2 4.5-1.2c2.5 0 4.5.8 6 2.4s2.2 3.9 2.2 6.8v2h-11.8c.2 1.2.6 2.2 1.4 2.9s1.8 1.1 3.1 1.1c1.9 0 3.4-.7 4.5-2.1l2.4 2.7a7.47 7.47 0 0 1-3 2.5 9.9 9.9 0 0 1-4.2.9zm-.6-15.2c-1 0-1.8.3-2.4 1s-1 1.6-1.2 2.8h6.9v-.4c0-1.1-.3-1.9-.9-2.5-.5-.6-1.3-.9-2.4-.9z"/><path id="Ah" d="M309.9 989.6c-2.7 0-4.9-.8-6.6-2.5s-2.6-3.9-2.6-6.6v-.5a11.48 11.48 0 0 1 1.1-5c.7-1.5 1.7-2.6 3.1-3.4 1.3-.8 2.8-1.2 4.5-1.2 2.5 0 4.5.8 6 2.4s2.2 3.9 2.2 6.8v2h-11.8c.2 1.2.6 2.2 1.4 2.9s1.8 1.1 3.1 1.1c1.9 0 3.4-.7 4.5-2.1l2.4 2.7a7.47 7.47 0 0 1-3 2.5c-1.3.6-2.7.9-4.3.9zm-.5-15.2c-1 0-1.8.3-2.4 1s-1 1.6-1.2 2.8h6.9v-.4c0-1.1-.3-1.9-.9-2.5s-1.4-.9-2.4-.9z"/><path id="Ai" d="M324.9 970.8l.2 2.1c1.3-1.7 3.1-2.5 5.3-2.5 2 0 3.4.6 4.4 1.7 1 1.2 1.4 2.9 1.5 5.2v11.9h-4.9v-11.8c0-1-.2-1.8-.7-2.3s-1.2-.7-2.3-.7c-1.4 0-2.4.6-3.1 1.8v13h-4.9v-18.5h4.5z"/><path id="Aj" d="M345.9 966.2v4.5h3.2v3.6h-3.2v9.2c0 .7.1 1.2.4 1.5s.8.4 1.5.4c.5 0 1 0 1.5-.1v3.7c-1 .3-2 .4-3 .4-3.5 0-5.2-1.7-5.3-5.2v-10h-2.7v-3.6h2.7v-4.5h4.9z"/><path id="Ak" d="M362.2 975.4c-.7-.1-1.3-.1-1.8-.1-1.9 0-3.1.6-3.7 1.9v12.1h-4.9v-18.5h4.7l.1 2.2c1-1.7 2.4-2.5 4.1-2.5.5 0 1.1.1 1.5.2v4.7z"/><path id="Al" d="M541.5 979.9c0-1.8.4-3.5 1.1-4.9a7.59 7.59 0 0 1 3.1-3.3c1.3-.8 2.9-1.2 4.6-1.2 2.5 0 4.5.8 6.1 2.3s2.5 3.6 2.6 6.2v1.3c0 2.8-.8 5.1-2.4 6.8s-3.7 2.6-6.4 2.6-4.8-.9-6.4-2.6-2.4-4-2.4-7v-.2zm5 .3c0 1.8.3 3.1 1 4s1.6 1.4 2.8 1.4 2.1-.5 2.8-1.4 1-2.4 1-4.4c0-1.7-.3-3.1-1-4s-1.6-1.4-2.8-1.4-2.1.5-2.8 1.4c-.7 1-1 2.4-1 4.4z"/><path id="Am" d="M650.9 984.2c0-.6-.3-1.1-.9-1.4a9.95 9.95 0 0 0-2.9-.9c-4.4-.9-6.6-2.8-6.6-5.6 0-1.6.7-3 2-4.1s3.1-1.6 5.3-1.6c2.3 0 4.2.6 5.6 1.7s2.1 2.5 2.1 4.3h-4.9c0-.7-.2-1.3-.7-1.8s-1.2-.7-2.1-.7c-.8 0-1.5.2-1.9.6-.5.4-.7.9-.7 1.4s.3 1 .8 1.3 1.4.6 2.6.9c1.2.2 2.3.5 3.1.8 2.6 1 3.9 2.6 3.9 5 0 1.7-.7 3-2.2 4.1-1.4 1-3.3 1.6-5.6 1.6a10.7 10.7 0 0 1-4.1-.8c-1.2-.6-2.1-1.3-2.8-2.3s-1-2-1-3.1h4.7c0 .9.4 1.5 1 2s1.4.7 2.4.7c.9 0 1.7-.2 2.1-.5.6-.6.8-1 .8-1.6z"/><path id="An" d="M658.9 966c0-.7.2-1.4.7-1.8.5-.5 1.2-.7 2-.7s1.5.2 2 .7.8 1.1.8 1.8c0 .8-.3 1.4-.8 1.8-.5.5-1.2.7-2 .7s-1.5-.2-2-.7-.7-1-.7-1.8zm5.2 23.3h-5v-18.5h5v18.5z"/><path id="Ao" d="M486 1008c0-.7.2-1.4.7-1.8.5-.5 1.2-.7 2-.7s1.5.2 2 .7.8 1.1.8 1.8c0 .8-.3 1.4-.8 1.8a3.22 3.22 0 0 1-2 .7c-.8 0-1.5-.2-2-.7s-.7-1-.7-1.8zm5.3 23.3h-5v-18.5h5v18.5z"/><path id="Ap" d="M556.6 1031.3v-14.9h-2.8v-3.6h2.8v-1.6c0-2.1.6-3.7 1.8-4.8s2.9-1.7 5-1.7c.7 0 1.5.1 2.5.3l-.1 3.8c-.4-.1-.9-.2-1.5-.2-1.9 0-2.8.9-2.8 2.6v1.5h3.7v3.6h-3.7v14.9h-4.9z"/></defs></svg>