<svg xmlns="http://www.w3.org/2000/svg" xmlns:xlink="http://www.w3.org/1999/xlink" viewBox="0 0 946.3 1065.6" xmlns:v="https://vecta.io/nano"><style><![CDATA[.Ae{fill:#021530}.Af{stroke-miterlimit:10}]]></style><linearGradient id="A" gradientUnits="userSpaceOnUse" x1="259.033" y1="174.025" x2="286.565" y2="174.025"><stop offset="0" stop-color="#f2790a"/><stop offset="1" stop-color="#031035"/></linearGradient><path d="M260.6 175.6H285a1.54 1.54 0 0 0 1.5-1.5 1.54 1.54 0 0 0-1.5-1.5h-24.5a1.54 1.54 0 0 0-1.5 1.5c0 .8.7 1.5 1.6 1.5z" fill="url(#A)"/><linearGradient id="B" gradientUnits="userSpaceOnUse" x1="222.324" y1="169.436" x2="295.742" y2="169.436"><stop offset="0" stop-color="#f2790a"/><stop offset="1" stop-color="#031035"/></linearGradient><path d="M295.7 161.8v-6.1c0-1.5-.4-2.8-1.2-4v-.1l-9.5-15.2c-1.4-2.3-3.8-3.6-6.5-3.6h-39.1c-2.7 0-5.1 1.4-6.5 3.6l-9.5 15.2v.1c-.7 1.2-1.2 2.5-1.2 4v6.1c0 2.5 1.2 4.7 3.1 6.1-1.9 1.4-3.1 3.6-3.1 6.1v6.1c0 2.5 1.2 4.7 3.1 6.1-1.9 1.4-3.1 3.6-3.1 6.1v6.1a7.6 7.6 0 0 0 7.6 7.6H250a1.54 1.54 0 0 0 1.5-1.5 1.54 1.54 0 0 0-1.5-1.5h-20c-2.5 0-4.6-2.1-4.6-4.6v-6.1c0-2.5 2.1-4.6 4.6-4.6h25.6a1.54 1.54 0 0 0 1.5-1.5 1.54 1.54 0 0 0-1.5-1.5H230c-2.5 0-4.6-2.1-4.6-4.6V174c0-2.5 2.1-4.6 4.6-4.6h58.1c2.5 0 4.6 2.1 4.6 4.6v6.1c0 .7-.2 1.3-.5 2-.4.8-.1 1.7.7 2 .8.4 1.7.1 2-.7.5-1.1.8-2.2.8-3.3V174c0-2.5-1.2-4.7-3.1-6.1 1.9-1.4 3.1-3.6 3.1-6.1zM235.6 138c.8-1.4 2.3-2.2 3.9-2.2h39.1c1.6 0 3.1.8 3.9 2.2l6.3 10.1c-.2 0-.5-.1-.7-.1H230c-.2 0-.5 0-.7.1l6.3-10.1zm57.1 23.8c0 2.5-2.1 4.6-4.6 4.6H230c-2.5 0-4.6-2.1-4.6-4.6v-6.1c0-2.5 2.1-4.6 4.6-4.6h58.1c2.5 0 4.6 2.1 4.6 4.6v6.1h0z" fill="url(#B)"/><linearGradient id="C" gradientUnits="userSpaceOnUse" x1="228.442" y1="195.439" x2="237.619" y2="195.439"><stop offset="0" stop-color="#f2790a"/><stop offset="1" stop-color="#031035"/></linearGradient><path d="M228.4 195.4c0 2.5 2.1 4.6 4.6 4.6s4.6-2.1 4.6-4.6-2.1-4.6-4.6-4.6-4.6 2.1-4.6 4.6zm6.2 0a1.54 1.54 0 0 1-1.5 1.5 1.54 1.54 0 0 1-1.5-1.5 1.54 1.54 0 0 1 1.5-1.5 1.54 1.54 0 0 1 1.5 1.5z" fill="url(#C)"/><linearGradient id="D" gradientUnits="userSpaceOnUse" x1="252.915" y1="192.379" x2="295.742" y2="192.379"><stop offset="0" stop-color="#f2790a"/><stop offset="1" stop-color="#031035"/></linearGradient><path d="M285 184.7h-.8c-2.5-3.8-6.8-6.2-11.4-6.2-7.1 0-13 5.4-13.7 12.4-3.5.7-6.2 3.8-6.2 7.5a7.6 7.6 0 0 0 7.6 7.6H285c5.9 0 10.7-4.8 10.7-10.7s-4.8-10.6-10.7-10.6zm0 18.4h-24.5c-2.5 0-4.6-2.1-4.6-4.6s2.1-4.6 4.6-4.6a1.54 1.54 0 0 0 1.5-1.5c0-5.9 4.8-10.7 10.7-10.7 3.8 0 7.4 2.1 9.3 5.5.3.6.9.9 1.6.8.4-.1.9-.1 1.3-.1a7.6 7.6 0 0 1 7.6 7.6c0 4.2-3.2 7.6-7.5 7.6z" fill="url(#D)"/><linearGradient id="E" gradientUnits="userSpaceOnUse" x1="259.033" y1="155.67" x2="286.565" y2="155.67"><stop offset="0" stop-color="#f2790a"/><stop offset="1" stop-color="#031035"/></linearGradient><path d="M285 154.1h-24.5a1.54 1.54 0 0 0-1.5 1.5 1.54 1.54 0 0 0 1.5 1.5H285a1.54 1.54 0 0 0 1.5-1.5c.1-.8-.6-1.5-1.5-1.5z" fill="url(#E)"/><linearGradient id="F" gradientUnits="userSpaceOnUse" x1="259.033" y1="161.789" x2="286.565" y2="161.789"><stop offset="0" stop-color="#f2790a"/><stop offset="1" stop-color="#031035"/></linearGradient><path d="M285,160.3h-24.5c-0.8,0-1.5,0.7-1.5,1.5s0.7,1.5,1.5,1.5H285c0.8,0,1.5-0.7,1.5-1.5         S285.9,160.3,285,160.3z" fill="url(#F)"/><linearGradient id="G" gradientUnits="userSpaceOnUse" x1="228.442" y1="158.729" x2="237.619" y2="158.729"><stop offset="0" stop-color="#f2790a"/><stop offset="1" stop-color="#031035"/></linearGradient><path d="M233 154.1c-2.5 0-4.6 2.1-4.6 4.6s2.1 4.6 4.6 4.6 4.6-2.1 4.6-4.6-2-4.6-4.6-4.6zm0 6.2a1.54 1.54 0 0 1-1.5-1.5 1.54 1.54 0 0 1 1.5-1.5 1.54 1.54 0 0 1 1.5 1.5c.1.8-.6 1.5-1.5 1.5z" fill="url(#G)"/><linearGradient id="H" gradientUnits="userSpaceOnUse" x1="228.442" y1="177.084" x2="237.619" y2="177.084"><stop offset="0" stop-color="#f2790a"/><stop offset="1" stop-color="#031035"/></linearGradient><path d="M228.4 177.1c0 2.5 2.1 4.6 4.6 4.6s4.6-2.1 4.6-4.6-2.1-4.6-4.6-4.6-4.6 2.1-4.6 4.6zm6.2 0a1.54 1.54 0 0 1-1.5 1.5 1.54 1.54 0 0 1-1.5-1.5 1.54 1.54 0 0 1 1.5-1.5 1.47 1.47 0 0 1 1.5 1.5z" fill="url(#H)"/><g class="Ae"><path d="M206.3 234.6h7.6v2.9h-11.2V220h3.6v14.6zm9-3.7c0-1.3.2-2.4.7-3.4s1.2-1.8 2.1-2.3c.9-.6 2-.8 3.2-.8 1.8 0 3.2.5 4.3 1.6s1.7 2.5 1.9 4.4v.9c0 2-.6 3.6-1.7 4.8s-2.6 1.8-4.5 1.8-3.4-.6-4.5-1.8-1.7-2.8-1.7-4.9v-.3zm3.4.3c0 1.2.2 2.2.7 2.8.5.7 1.1 1 2 1 .8 0 1.5-.3 2-1 .5-.6.7-1.7.7-3.1 0-1.2-.2-2.1-.7-2.8s-1.1-1-2-1c-.8 0-1.5.3-2 1-.4.7-.7 1.7-.7 3.1zm10.5-.3c0-2 .5-3.6 1.4-4.8s2.2-1.8 3.8-1.8c1.4 0 2.5.5 3.3 1.5l.1-1.2h3.1v12.6c0 1.1-.3 2.1-.8 3-.5.8-1.2 1.5-2.2 1.9a8.05 8.05 0 0 1-3.3.7 6.71 6.71 0 0 1-2.8-.6c-.9-.4-1.6-.9-2.1-1.5l1.5-2.1c.9 1 1.9 1.5 3.1 1.5.9 0 1.6-.2 2.1-.7s.8-1.2.8-2.1v-.7c-.8.9-1.9 1.4-3.2 1.4-1.6 0-2.8-.6-3.8-1.8s-1.4-2.8-1.4-4.9v-.4zm3.5.3c0 1.2.2 2.1.7 2.8s1.1 1 1.9 1c1.1 0 1.8-.4 2.3-1.2v-5.5c-.5-.8-1.2-1.2-2.2-1.2-.8 0-1.5.3-2 1s-.7 1.8-.7 3.1zm26.5 1.8c0-.7-.2-1.2-.7-1.6s-1.3-.7-2.6-1.2c-1.2-.4-2.2-.8-3-1.2-2-1.1-3-2.5-3-4.3 0-.9.3-1.8.8-2.5s1.3-1.3 2.3-1.7 2.1-.6 3.4-.6c1.2 0 2.4.2 3.3.7 1 .5 1.7 1.1 2.3 1.9s.8 1.8.8 2.8h-3.6c0-.8-.3-1.4-.8-1.9-.5-.4-1.2-.7-2.1-.7s-1.6.2-2.1.6-.7.9-.7 1.5.3 1 .9 1.4 1.4.7 2.5 1.1c2 .6 3.5 1.4 4.5 2.3.9.9 1.4 2 1.4 3.4 0 1.5-.6 2.7-1.7 3.6s-2.7 1.3-4.6 1.3c-1.3 0-2.6-.2-3.7-.7a6.34 6.34 0 0 1-2.5-2c-.6-.9-.9-1.8-.9-3h3.6c0 1.9 1.2 2.9 3.5 2.9.9 0 1.5-.2 2-.5.4-.5.7-1 .7-1.6zm11.8 4.8c-1.9 0-3.5-.6-4.7-1.8s-1.8-2.7-1.8-4.7v-.3c0-1.3.3-2.5.8-3.5a6.11 6.11 0 0 1 2.1-2.4c.9-.6 2-.8 3.2-.8 1.8 0 3.2.6 4.2 1.7s1.5 2.7 1.5 4.8v1.4H268c.1.8.5 1.5 1 2 .6.5 1.3.8 2.1.8 1.3 0 2.4-.5 3.1-1.5l1.7 1.9c-.5.7-1.2 1.3-2.1 1.7s-1.8.7-2.8.7zm-.4-10.7a2.19 2.19 0 0 0-1.7.7c-.4.5-.7 1.1-.8 2h4.8v-.3c0-.8-.2-1.4-.6-1.8s-1-.6-1.7-.6z"/><use xlink:href="#AN"/><path d="M292.3 233.3l2.4-8.8h3.6l-4.4 13h-3.3l-4.4-13h3.6l2.5 8.8z"/><use xlink:href="#AO"/><path d="M320.3 227.8c-.5-.1-.9-.1-1.2-.1-1.3 0-2.2.4-2.6 1.3v8.5H313v-13h3.3l.1 1.5c.7-1.2 1.7-1.8 2.9-1.8.4 0 .7.1 1.1.2l-.1 3.4z"/></g><linearGradient id="I" gradientUnits="userSpaceOnUse" x1="813.756" y1="654.75" x2="841.288" y2="654.75"><stop offset="0" stop-color="#f2790a"/><stop offset="1" stop-color="#031035"/></linearGradient><path d="M815.3 656.3h24.5a1.54 1.54 0 0 0 1.5-1.5 1.54 1.54 0 0 0-1.5-1.5h-24.5a1.54 1.54 0 0 0-1.5 1.5 1.47 1.47 0 0 0 1.5 1.5z" fill="url(#I)"/><linearGradient id="J" gradientUnits="userSpaceOnUse" x1="777.047" y1="650.161" x2="850.465" y2="650.161"><stop offset="0" stop-color="#f2790a"/><stop offset="1" stop-color="#031035"/></linearGradient><path d="M850.5 642.5v-6.1c0-1.5-.4-2.8-1.2-4v-.1l-9.5-15.2c-1.4-2.3-3.8-3.6-6.5-3.6h-39.1c-2.7 0-5.1 1.4-6.5 3.6l-9.5 15.2v.1c-.7 1.2-1.2 2.5-1.2 4v6.1c0 2.5 1.2 4.7 3.1 6.1-1.9 1.4-3.1 3.6-3.1 6.1v6.1c0 2.5 1.2 4.7 3.1 6.1-1.9 1.4-3.1 3.6-3.1 6.1v6.1a7.6 7.6 0 0 0 7.6 7.6h20.1a1.54 1.54 0 0 0 1.5-1.5 1.54 1.54 0 0 0-1.5-1.5h-20.1c-2.5 0-4.6-2.1-4.6-4.6V673c0-2.5 2.1-4.6 4.6-4.6h25.6a1.54 1.54 0 0 0 1.5-1.5 1.54 1.54 0 0 0-1.5-1.5h-25.6c-2.5 0-4.6-2.1-4.6-4.6v-6.1c0-2.5 2.1-4.6 4.6-4.6h58.1c2.5 0 4.6 2.1 4.6 4.6v6.1c0 .7-.2 1.3-.5 2-.4.8-.1 1.7.7 2 .8.4 1.7.1 2-.7.5-1.1.8-2.2.8-3.3v-6.1c0-2.5-1.2-4.7-3.1-6.1 2-1.4 3.3-3.6 3.3-6.1zm-60.2-23.8c.8-1.4 2.3-2.2 3.9-2.2h39.1c1.6 0 3.1.8 3.9 2.2l6.3 10.1c-.2 0-.5-.1-.7-.1h-58.1c-.2 0-.5 0-.7.1l6.3-10.1zm57.1 23.8c0 2.5-2.1 4.6-4.6 4.6h-58.1c-2.5 0-4.6-2.1-4.6-4.6v-6.1c0-2.5 2.1-4.6 4.6-4.6h58.1c2.5 0 4.6 2.1 4.6 4.6v6.1h0z" fill="url(#J)"/><linearGradient id="K" gradientUnits="userSpaceOnUse" x1="783.166" y1="676.163" x2="792.343" y2="676.163"><stop offset="0" stop-color="#f2790a"/><stop offset="1" stop-color="#031035"/></linearGradient><path d="M783.2 676.2c0 2.5 2.1 4.6 4.6 4.6s4.6-2.1 4.6-4.6-2.1-4.6-4.6-4.6-4.6 2-4.6 4.6zm6.1 0a1.54 1.54 0 0 1-1.5 1.5 1.54 1.54 0 0 1-1.5-1.5 1.54 1.54 0 0 1 1.5-1.5 1.47 1.47 0 0 1 1.5 1.5z" fill="url(#K)"/><linearGradient id="L" gradientUnits="userSpaceOnUse" x1="807.638" y1="673.104" x2="850.465" y2="673.104"><stop offset="0" stop-color="#f2790a"/><stop offset="1" stop-color="#031035"/></linearGradient><path d="M839.8 665.5h-.8c-2.5-3.8-6.8-6.2-11.4-6.2-7.1 0-13 5.4-13.7 12.4-3.5.7-6.2 3.8-6.2 7.5a7.6 7.6 0 0 0 7.6 7.6h24.5c5.9 0 10.7-4.8 10.7-10.7 0-5.8-4.8-10.6-10.7-10.6zm0 18.3h-24.5c-2.5 0-4.6-2.1-4.6-4.6s2.1-4.6 4.6-4.6a1.54 1.54 0 0 0 1.5-1.5c0-5.9 4.8-10.7 10.7-10.7 3.8 0 7.4 2.1 9.3 5.5.3.6.9.9 1.6.8.4-.1.9-.1 1.3-.1a7.6 7.6 0 0 1 7.6 7.6c0 4.2-3.3 7.6-7.5 7.6z" fill="url(#L)"/><linearGradient id="M" gradientUnits="userSpaceOnUse" x1="813.756" y1="636.395" x2="841.288" y2="636.395"><stop offset="0" stop-color="#f2790a"/><stop offset="1" stop-color="#031035"/></linearGradient><path d="M839.8,634.9h-24.5c-0.8,0-1.5,0.7-1.5,1.5s0.7,1.5,1.5,1.5h24.5c0.8,0,1.5-0.7,1.5-1.5         S840.6,634.9,839.8,634.9z" fill="url(#M)"/><linearGradient id="N" gradientUnits="userSpaceOnUse" x1="813.756" y1="642.513" x2="841.288" y2="642.513"><stop offset="0" stop-color="#f2790a"/><stop offset="1" stop-color="#031035"/></linearGradient><path d="M839.8,641h-24.5c-0.8,0-1.5,0.7-1.5,1.5s0.7,1.5,1.5,1.5h24.5c0.8,0,1.5-0.7,1.5-1.5         S840.6,641,839.8,641z" fill="url(#N)"/><linearGradient id="O" gradientUnits="userSpaceOnUse" x1="783.166" y1="639.454" x2="792.343" y2="639.454"><stop offset="0" stop-color="#f2790a"/><stop offset="1" stop-color="#031035"/></linearGradient><path d="M787.8 634.9c-2.5 0-4.6 2.1-4.6 4.6s2.1 4.6 4.6 4.6 4.6-2.1 4.6-4.6c-.1-2.6-2.1-4.6-4.6-4.6zm0 6.1a1.54 1.54 0 0 1-1.5-1.5 1.54 1.54 0 0 1 1.5-1.5 1.54 1.54 0 0 1 1.5 1.5 1.54 1.54 0 0 1-1.5 1.5z" fill="url(#O)"/><linearGradient id="P" gradientUnits="userSpaceOnUse" x1="783.166" y1="657.809" x2="792.343" y2="657.809"><stop offset="0" stop-color="#f2790a"/><stop offset="1" stop-color="#031035"/></linearGradient><path d="M783.2 657.8c0 2.5 2.1 4.6 4.6 4.6s4.6-2.1 4.6-4.6-2.1-4.6-4.6-4.6-4.6 2.1-4.6 4.6zm6.1 0a1.54 1.54 0 0 1-1.5 1.5 1.54 1.54 0 0 1-1.5-1.5 1.54 1.54 0 0 1 1.5-1.5 1.54 1.54 0 0 1 1.5 1.5z" fill="url(#P)"/><g class="Ae"><path d="M761.1 715.4h7.6v2.9h-11.2v-17.5h3.6v14.6z"/><use xlink:href="#AP"/><path d="M783.9 711.7c0-2 .5-3.6 1.4-4.8s2.2-1.8 3.8-1.8c1.4 0 2.5.5 3.3 1.5l.1-1.2h3.1V718c0 1.1-.3 2.1-.8 3-.5.8-1.2 1.5-2.2 1.9a8.05 8.05 0 0 1-3.3.7 6.71 6.71 0 0 1-2.8-.6c-.9-.4-1.6-.9-2.1-1.5l1.5-2.1c.9 1 1.9 1.5 3.1 1.5.9 0 1.6-.2 2.1-.7s.8-1.2.8-2.1v-.7c-.8.9-1.9 1.4-3.2 1.4-1.6 0-2.8-.6-3.8-1.8s-1.4-2.8-1.4-4.9v-.4zm3.5.2c0 1.2.2 2.1.7 2.8s1.1 1 1.9 1c1.1 0 1.8-.4 2.3-1.2V709c-.5-.8-1.2-1.2-2.2-1.2-.8 0-1.5.3-2 1-.5.8-.7 1.8-.7 3.1zm26.5 1.8c0-.7-.2-1.2-.7-1.6s-1.3-.7-2.6-1.2l-3-1.2c-2-1.1-3-2.5-3-4.3 0-.9.3-1.8.8-2.5s1.3-1.3 2.3-1.7 2.1-.6 3.4-.6c1.2 0 2.4.2 3.3.7 1 .5 1.7 1.1 2.3 1.9s.8 1.8.8 2.8h-3.6c0-.8-.3-1.4-.8-1.9-.5-.4-1.2-.7-2.1-.7s-1.6.2-2.1.6-.7.9-.7 1.5.3 1 .9 1.4 1.4.7 2.5 1.1c2 .6 3.5 1.4 4.5 2.3.9.9 1.4 2 1.4 3.4 0 1.5-.6 2.7-1.7 3.6s-2.7 1.3-4.6 1.3c-1.3 0-2.6-.2-3.7-.7a6.34 6.34 0 0 1-2.5-2c-.6-.9-.9-1.8-.9-3h3.6c0 1.9 1.2 2.9 3.5 2.9.9 0 1.5-.2 2-.5.4-.5.7-1 .7-1.6z"/><use xlink:href="#AO" x="520" y="480.7"/><path d="M840.3 708.5c-.5-.1-.9-.1-1.2-.1-1.3 0-2.2.4-2.6 1.3v8.5H833v-13h3.3l.1 1.5c.7-1.2 1.7-1.8 2.9-1.8.4 0 .7.1 1.1.2l-.1 3.4zm6.7 5.5l2.4-8.8h3.6l-4.4 13h-3.3l-4.4-13h3.6l2.5 8.8z"/><use xlink:href="#AQ"/><use xlink:href="#AN" x="589.4" y="480.7"/></g><linearGradient id="Q" gradientUnits="userSpaceOnUse" x1="604.519" y1="894.386" x2="695.087" y2="803.818"><stop offset="0" stop-color="#f2790a"/><stop offset="1" stop-color="#031035"/></linearGradient><path d="M649.8 854.7c0-.8-.6-1.4-1.4-1.4h-8.3c-.8 0-1.4.6-1.4 1.4s.6 1.4 1.4 1.4h8.3c.7 0 1.4-.7 1.4-1.4z" fill="url(#Q)"/><linearGradient id="R" gradientUnits="userSpaceOnUse" x1="605.852" y1="895.719" x2="696.42" y2="805.152"><stop offset="0" stop-color="#f2790a"/><stop offset="1" stop-color="#031035"/></linearGradient><path d="M668.6 873.8l-14.7-4.9v-4.4a19.14 19.14 0 0 0 5.1-4.3h7.3c.8 0 1.4-.6 1.4-1.4v-6.9c2.4-.3 4.1-2.4 4.1-4.8v-9.7c0-2.4-1.8-4.4-4.1-4.8v-12.5c0-8.4-6.8-15.2-15.2-15.2H636c-8.4 0-15.2 6.8-15.2 15.2v12.5c-2.4.3-4.1 2.4-4.1 4.8v9.7c0 2.7 2.2 4.8 4.8 4.8h3.9c1.2 5.3 4.5 9.9 9.2 12.6v4.4l-14.7 4.9c-6 2-10.1 7.7-10.1 14v1.4c0 .8.6 1.4 1.4 1.4h66.2c.8 0 1.4-.6 1.4-1.4v-1.4c-.1-6.4-4.1-12-10.2-14zm-3.7-16.4h-4c1-1.7 1.7-3.6 2.1-5.5h1.8v5.5zm4.2-20v9.7c0 1.1-.9 2.1-2.1 2.1h-3.4v-13.8h3.4c1.1 0 2.1.9 2.1 2zm-4.2-17.2v12.4h-1.4v-8.3c0-6.7-3.5-12.9-9.1-16.4 6.1 1 10.5 6.2 10.5 12.3zm-20.7-12.4c9.1 0 16.5 7.4 16.6 16.6v4.1c-2.7-2.9-5.9-5.1-6.1-5.2-.6-.4-1.5-.3-1.9.4-2 3.1-7.2 5.4-14.9 6.6-3.4.5-6.8.9-10.2 1v-6.9c0-9.2 7.4-16.6 16.5-16.6zm-19.3 41.4h-3.4c-1.1 0-2.1-.9-2.1-2.1v-9.7c0-1.1.9-2.1 2.1-2.1h3.4v13.9zm0-24.9v8.3h-1.4v-12.4c0-6.1 4.5-11.3 10.5-12.3-5.6 3.5-9.1 9.7-9.1 16.4zm2.8 23.5V834c4.8-.1 20.5-1.1 26.5-7.7a22.22 22.22 0 0 1 2.2 1.7c2.1 1.8 3.6 3.5 4.4 5v14.8c0 3.5-1.1 6.8-3.1 9.7H647c-.8 0-1.4.6-1.4 1.4s.6 1.4 1.4 1.4h8.2c-6.9 6-17.3 5.4-23.4-1.5-2.7-3.1-4.1-7-4.1-11h0zm15.2 40h-30.4c0-5.2 3.3-9.8 8.2-11.4l14.9-5c2.3 1.9 5.6 3.1 7.2 3.6v12.8zm-5.6-18.6v-3.4a19.31 19.31 0 0 0 13.8 0v3.4c-2.2 1.9-5.8 3-6.9 3.3-1.1-.3-4.7-1.4-6.9-3.3zm8.3 18.6V875c1.7-.5 4.9-1.7 7.2-3.6l14.9 5c4.9 1.6 8.2 6.2 8.2 11.4h-30.3z" fill="url(#R)"/><linearGradient id="S" gradientUnits="userSpaceOnUse" x1="592.793" y1="882.66" x2="683.361" y2="792.092"><stop offset="0" stop-color="#f2790a"/><stop offset="1" stop-color="#031035"/></linearGradient><path d="M636 836.7c-.8 0-1.4.6-1.4 1.4v2.8c0 .8.6 1.4 1.4 1.4s1.4-.6 1.4-1.4v-2.8c-.1-.7-.7-1.4-1.4-1.4z" fill="url(#S)"/><linearGradient id="T" gradientUnits="userSpaceOnUse" x1="601.07" y1="890.937" x2="691.638" y2="800.369"><stop offset="0" stop-color="#f2790a"/><stop offset="1" stop-color="#031035"/></linearGradient><path d="M652.5 842.3c.8 0 1.4-.6 1.4-1.4v-2.8c0-.8-.6-1.4-1.4-1.4s-1.4.6-1.4 1.4v2.8c0 .7.7 1.4 1.4 1.4z" fill="url(#T)"/><g class="Ae"><path d="M588.6 916.4h7.6v2.9H585v-17.5h3.6v14.6z"/><use xlink:href="#AP" x="-172.5" y="201"/><path d="M611.4 912.7c0-2 .5-3.6 1.4-4.8s2.2-1.8 3.8-1.8c1.4 0 2.5.5 3.3 1.5l.1-1.2h3.1V919c0 1.1-.3 2.1-.8 3-.5.8-1.2 1.5-2.2 1.9a8.05 8.05 0 0 1-3.3.7 6.71 6.71 0 0 1-2.8-.6c-.9-.4-1.6-.9-2.1-1.5l1.5-2.1c.9 1 1.9 1.5 3.1 1.5.9 0 1.6-.2 2.1-.7s.8-1.2.8-2.1v-.7c-.8.9-1.9 1.4-3.2 1.4-1.6 0-2.8-.6-3.8-1.8s-1.4-2.8-1.4-4.9v-.4zm3.5.2c0 1.2.2 2.1.7 2.8s1.1 1 1.9 1c1.1 0 1.8-.4 2.3-1.2V910c-.5-.8-1.2-1.2-2.2-1.2-.8 0-1.5.3-2 1-.4.8-.7 1.8-.7 3.1zm26.5 1.8c0-.7-.2-1.2-.7-1.6s-1.3-.7-2.6-1.2l-3-1.2c-2-1.1-3-2.5-3-4.3 0-.9.3-1.8.8-2.5s1.3-1.3 2.3-1.7 2.1-.6 3.4-.6c1.2 0 2.4.2 3.3.7 1 .5 1.7 1.1 2.3 1.9s.8 1.8.8 2.8h-3.6c0-.8-.3-1.4-.8-1.9-.5-.4-1.2-.7-2.1-.7s-1.6.2-2.1.6-.7.9-.7 1.5.3 1 .9 1.4 1.4.7 2.5 1.1c2 .6 3.5 1.4 4.5 2.3.9.9 1.4 2 1.4 3.4 0 1.5-.6 2.7-1.7 3.6s-2.7 1.3-4.6 1.3c-1.3 0-2.6-.2-3.7-.7a6.34 6.34 0 0 1-2.5-2c-.6-.9-.9-1.8-.9-3h3.6c0 1.9 1.2 2.9 3.5 2.9.9 0 1.5-.2 2-.5.5-.5.7-1 .7-1.6z"/><use xlink:href="#AO" x="347.5" y="681.7"/><use xlink:href="#AN" x="382.2" y="681.7"/><path d="M674.5 915l2.4-8.8h3.6l-4.4 13h-3.3l-4.4-13h3.6l2.5 8.8zm13.4 4.5c-1.9 0-3.5-.6-4.7-1.8s-1.8-2.7-1.8-4.7v-.3c0-1.3.3-2.5.8-3.5a6.11 6.11 0 0 1 2.1-2.4c.9-.6 2-.8 3.2-.8 1.8 0 3.2.6 4.2 1.7s1.5 2.7 1.5 4.8v1.4H685c.1.8.5 1.5 1 2 .6.5 1.3.8 2.1.8 1.3 0 2.4-.5 3.1-1.5l1.7 1.9c-.5.7-1.2 1.3-2.1 1.7s-1.8.7-2.9.7zm-.4-10.7a2.19 2.19 0 0 0-1.7.7c-.4.5-.7 1.1-.8 2h4.8v-.3c0-.8-.2-1.4-.6-1.8s-.9-.6-1.7-.6z"/><use xlink:href="#AN" x="416.9" y="681.7"/></g><linearGradient id="U" gradientUnits="userSpaceOnUse" x1="784.178" y1="405.161" x2="857.89" y2="405.161"><stop offset="0" stop-color="#f2790a"/><stop offset="1" stop-color="#031035"/></linearGradient><path d="M854.2 415h-43v-1.2a3.76 3.76 0 0 0-3.7-3.7H806l-2.3-7.6c4.4 2.5 9.4 3.9 14.5 3.9 2.5 0 5-.3 7.4-.9.8-.2 1.3-.8 1.5-1.5s0-1.5-.6-2l-5.5-5.5v-15.8c.8-1.1 1.2-2.3 1.2-3.6 0-3.4-2.8-6.1-6.1-6.1-1.3 0-2.6.4-3.6 1.2h-15.8l-3-3c-.5-.6-1.3-.8-2.1-.6s-1.3.8-1.5 1.5c-2 7.9-.7 16.4 3.8 23.3-1.6 2.4-1.3 5.7.8 7.7l-2.7 9.2h-1.5a3.76 3.76 0 0 0-3.7 3.7v1.5c-1.5.5-2.5 1.9-2.5 3.5v19.7a3.76 3.76 0 0 0 3.7 3.7h66.3a3.76 3.76 0 0 0 3.7-3.7V419c-.1-2.4-1.8-4-3.8-4zm-59-18.4a3.76 3.76 0 0 1 3.7-3.7 3.76 3.76 0 0 1 3.7 3.7 3.76 3.76 0 0 1-3.7 3.7c-2-.1-3.7-1.7-3.7-3.7zm20.9-5.2V383c.8 0 1.7-.2 2.5-.5v11.4l-2.5-2.5zm-2.4-8.9v6.4l-9.6-9.6h6.4a5.6 5.6 0 0 0 3.2 3.2zm2.4-9.3a3.76 3.76 0 0 1 3.7 3.7 3.76 3.76 0 0 1-3.7 3.7 3.76 3.76 0 0 1-3.7-3.7 3.76 3.76 0 0 1 3.7-3.7zm-5.6 1.2c-.3.8-.5 1.6-.5 2.5h-8.4l-2.5-2.5h11.4zm-18.2-3.3l32.1 32.1c-7 1.7-14.3.5-20.3-3.3 1.8-2.8 1-6.6-1.8-8.5-2-1.3-4.7-1.3-6.7 0-3.8-6.1-5-13.4-3.3-20.3zm4.5 31.2a5.36 5.36 0 0 0 4.3 0l2.3 7.8h-9l2.4-7.8zm-6.5 10.2h17.2c.7 0 1.2.6 1.2 1.2v1.2H789v-1.2c.1-.6.6-1.2 1.3-1.2zm12.3 27.1h-9.8v-16h9.8v16zm52.8-1.3c0 .7-.5 1.2-1.2 1.2h-49.1v-16c0-1.4-1.1-2.5-2.5-2.5h-9.8c-1.4 0-2.5 1.1-2.5 2.5v16h-2.5c-.7 0-1.2-.6-1.2-1.2v-19.7c0-.7.6-1.2 1.2-1.2h66.3c.7 0 1.2.6 1.2 1.2v19.7z" fill="url(#U)"/><linearGradient id="V" gradientUnits="userSpaceOnUse" x1="808.749" y1="427.276" x2="825.948" y2="427.276"><stop offset="0" stop-color="#f2790a"/><stop offset="1" stop-color="#031035"/></linearGradient><use xlink:href="#AR" fill="url(#V)"/><linearGradient id="W" gradientUnits="userSpaceOnUse" x1="832.091" y1="427.276" x2="849.29" y2="427.276"><stop offset="0" stop-color="#f2790a"/><stop offset="1" stop-color="#031035"/></linearGradient><use xlink:href="#AS" fill="url(#W)"/><linearGradient id="X" gradientUnits="userSpaceOnUse" x1="825.948" y1="384.278" x2="857.89" y2="384.278"><stop offset="0" stop-color="#f2790a"/><stop offset="1" stop-color="#031035"/></linearGradient><path d="M841.9 368.3c-8.8 0-16 7.2-16 16s7.2 16 16 16 16-7.2 16-16-7.2-16-16-16zm0 29.5c-7.5 0-13.5-6.1-13.5-13.5 0-7.5 6.1-13.5 13.5-13.5 7.5 0 13.5 6.1 13.5 13.5s-6 13.5-13.5 13.5z" fill="url(#X)"/><linearGradient id="Y" gradientUnits="userSpaceOnUse" x1="841.919" y1="378.135" x2="849.29" y2="378.135"><stop offset="0" stop-color="#f2790a"/><stop offset="1" stop-color="#031035"/></linearGradient><path d="M845.6 381.8a3.76 3.76 0 0 0 3.7-3.7 3.76 3.76 0 0 0-3.7-3.7 3.76 3.76 0 0 0-3.7 3.7 3.76 3.76 0 0 0 3.7 3.7zm0-4.9c.7 0 1.2.6 1.2 1.2s-.5 1.2-1.2 1.2-1.2-.6-1.2-1.2.5-1.2 1.2-1.2z" fill="url(#Y)"/><linearGradient id="Z" gradientUnits="userSpaceOnUse" x1="841.919" y1="389.806" x2="850.519" y2="389.806"><stop offset="0" stop-color="#f2790a"/><stop offset="1" stop-color="#031035"/></linearGradient><path d="M846.2 385.5c-2.4 0-4.3 1.9-4.3 4.3s1.9 4.3 4.3 4.3 4.3-1.9 4.3-4.3-1.9-4.3-4.3-4.3zm0 6.1a1.79 1.79 0 1 1 0-3.6 1.79 1.79 0 0 1 1.8 1.8c.1 1-.8 1.8-1.8 1.8z" fill="url(#Z)"/><linearGradient id="a" gradientUnits="userSpaceOnUse" x1="830.862" y1="384.278" x2="840.69" y2="384.278"><stop offset="0" stop-color="#f2790a"/><stop offset="1" stop-color="#031035"/></linearGradient><use xlink:href="#AT" fill="url(#a)"/><linearGradient id="b" gradientUnits="userSpaceOnUse" x1="828.404" y1="407.005" x2="839.462" y2="407.005"><stop offset="0" stop-color="#f2790a"/><stop offset="1" stop-color="#031035"/></linearGradient><use xlink:href="#AU" fill="url(#b)"/><linearGradient id="c" gradientUnits="userSpaceOnUse" x1="845.602" y1="406.392" x2="857.891" y2="406.392"><stop offset="0" stop-color="#f2790a"/><stop offset="1" stop-color="#031035"/></linearGradient><use xlink:href="#AV" fill="url(#c)"/><linearGradient id="d" gradientUnits="userSpaceOnUse" x1="795.235" y1="431.576" x2="797.692" y2="431.576"><stop offset="0" stop-color="#f2790a"/><stop offset="1" stop-color="#031035"/></linearGradient><path d="M796.5 433.4c.7 0 1.2-.6 1.2-1.2V431c0-.7-.5-1.2-1.2-1.2s-1.2.6-1.2 1.2v1.2c-.1.7.5 1.2 1.2 1.2z" fill="url(#d)"/><g class="Ae"><path d="M768.7 467.5V450h6.1c2.1 0 3.7.4 4.8 1.2s1.6 2 1.6 3.6c0 .9-.2 1.6-.7 2.3-.4.7-1.1 1.1-1.8 1.4.9.2 1.6.7 2.1 1.4s.8 1.5.8 2.5c0 1.7-.5 3-1.6 3.8s-2.6 1.3-4.6 1.3h-6.7zm3.6-10.1h2.7c1.8 0 2.7-.8 2.7-2.2 0-.8-.2-1.4-.7-1.7s-1.2-.5-2.2-.5h-2.5v4.4zm0 2.5v4.7h3.1c.8 0 1.5-.2 2-.6s.7-1 .7-1.7c0-1.6-.8-2.4-2.5-2.4h-3.3zm19.4 7.6c-.2-.3-.3-.7-.3-1.2-.8.9-1.9 1.4-3.3 1.4a4.96 4.96 0 0 1-3.2-1.1c-.8-.7-1.3-1.7-1.3-2.8 0-1.4.5-2.4 1.5-3.2s2.5-1.1 4.4-1.1h1.6v-.7c0-.6-.2-1.1-.5-1.4-.3-.4-.8-.5-1.5-.5-.6 0-1 .1-1.4.4-.3.3-.5.7-.5 1.2H784c0-.8.2-1.4.7-2.1.5-.6 1.1-1.1 2-1.5.8-.4 1.8-.5 2.9-.5 1.6 0 2.9.4 3.8 1.2s1.4 1.9 1.4 3.4v5.6c0 1.2.2 2.2.5 2.8v.2h-3.6zm-2.9-2.4c.5 0 1-.1 1.4-.3s.8-.5 1-.9v-2.2h-1.3c-1.7 0-2.7.6-2.8 1.8v.2c0 .4.2.8.5 1.1.3.2.7.3 1.2.3z"/><use xlink:href="#AW"/><path d="M816 467.8c-1.9 0-3.5-.6-4.7-1.8s-1.8-2.7-1.8-4.7v-.3c0-1.3.3-2.5.8-3.5a6.11 6.11 0 0 1 2.1-2.4c.9-.6 2-.8 3.2-.8 1.8 0 3.2.6 4.2 1.7s1.5 2.7 1.5 4.8v1.4H813c.1.8.5 1.5 1 2 .6.5 1.3.8 2.1.8 1.3 0 2.4-.5 3.1-1.5l1.7 1.9c-.5.7-1.2 1.3-2.1 1.7s-1.7.7-2.8.7zm-.4-10.7a2.19 2.19 0 0 0-1.7.7c-.4.5-.7 1.1-.8 2h4.8v-.3c0-.8-.2-1.4-.6-1.8s-1-.6-1.7-.6z"/><use xlink:href="#AX"/><use xlink:href="#AY"/><use xlink:href="#AZ"/><use xlink:href="#AY" x="21.5"/><use xlink:href="#Aa"/><use xlink:href="#Ab"/><use xlink:href="#Ac"/></g><linearGradient id="e" gradientUnits="userSpaceOnUse" x1="553.178" y1="168.161" x2="626.89" y2="168.161"><stop offset="0" stop-color="#f2790a"/><stop offset="1" stop-color="#031035"/></linearGradient><path d="M623.2 178h-43v-1.2a3.76 3.76 0 0 0-3.7-3.7H575l-2.3-7.6c4.4 2.5 9.4 3.9 14.5 3.9 2.5 0 5-.3 7.4-.9.8-.2 1.3-.8 1.5-1.5s0-1.5-.6-2l-5.5-5.5v-15.8c.8-1.1 1.2-2.3 1.2-3.6 0-3.4-2.8-6.1-6.1-6.1-1.3 0-2.6.4-3.6 1.2h-15.8l-3-3c-.5-.6-1.3-.8-2.1-.6s-1.3.8-1.5 1.5c-2 7.9-.7 16.4 3.8 23.3-1.6 2.4-1.3 5.7.8 7.7l-2.7 9.2h-1.5a3.76 3.76 0 0 0-3.7 3.7v1.5c-1.5.5-2.5 1.9-2.5 3.5v19.7a3.76 3.76 0 0 0 3.7 3.7h66.3a3.76 3.76 0 0 0 3.7-3.7V182c-.1-2.4-1.8-4-3.8-4zm-59-18.4a3.76 3.76 0 0 1 3.7-3.7 3.76 3.76 0 0 1 3.7 3.7 3.76 3.76 0 0 1-3.7 3.7c-2-.1-3.7-1.7-3.7-3.7zm20.9-5.2V146c.8 0 1.7-.2 2.5-.5v11.4l-2.5-2.5zm-2.4-8.9v6.4l-9.6-9.6h6.4a5.6 5.6 0 0 0 3.2 3.2zm2.4-9.3a3.76 3.76 0 0 1 3.7 3.7 3.76 3.76 0 0 1-3.7 3.7 3.76 3.76 0 0 1-3.7-3.7 3.76 3.76 0 0 1 3.7-3.7zm-5.6 1.2c-.3.8-.5 1.6-.5 2.5h-8.4l-2.5-2.5h11.4zm-18.2-3.3l32.1 32.1c-7 1.7-14.3.5-20.3-3.3 1.8-2.8 1-6.6-1.8-8.5-2-1.3-4.7-1.3-6.7 0-3.8-6.1-5-13.4-3.3-20.3zm4.5 31.2a5.36 5.36 0 0 0 4.3 0l2.3 7.8h-9l2.4-7.8zm-6.5 10.2h17.2c.7 0 1.2.6 1.2 1.2v1.2H558v-1.2c.1-.6.6-1.2 1.3-1.2zm12.3 27.1h-9.8v-16h9.8v16zm52.8-1.3c0 .7-.5 1.2-1.2 1.2h-49.1v-16c0-1.4-1.1-2.5-2.5-2.5h-9.8c-1.4 0-2.5 1.1-2.5 2.5v16h-2.5c-.7 0-1.2-.6-1.2-1.2v-19.7c0-.7.6-1.2 1.2-1.2h66.3c.7 0 1.2.6 1.2 1.2v19.7z" fill="url(#e)"/><use xlink:href="#AR" x="-231" y="-237" fill="url(#V)"/><use xlink:href="#AS" x="-231" y="-237" fill="url(#W)"/><linearGradient id="f" gradientUnits="userSpaceOnUse" x1="594.948" y1="147.278" x2="626.89" y2="147.278"><stop offset="0" stop-color="#f2790a"/><stop offset="1" stop-color="#031035"/></linearGradient><path d="M610.9 131.3c-8.8 0-16 7.2-16 16s7.2 16 16 16 16-7.2 16-16-7.2-16-16-16zm0 29.5c-7.5 0-13.5-6.1-13.5-13.5s6.1-13.5 13.5-13.5c7.5 0 13.5 6.1 13.5 13.5s-6 13.5-13.5 13.5z" fill="url(#f)"/><linearGradient id="g" gradientUnits="userSpaceOnUse" x1="610.919" y1="141.135" x2="618.29" y2="141.135"><stop offset="0" stop-color="#f2790a"/><stop offset="1" stop-color="#031035"/></linearGradient><path d="M614.6 144.8a3.76 3.76 0 0 0 3.7-3.7 3.76 3.76 0 0 0-3.7-3.7 3.76 3.76 0 0 0-3.7 3.7c0 2.1 1.7 3.7 3.7 3.7zm0-4.9c.7 0 1.2.6 1.2 1.2s-.5 1.2-1.2 1.2-1.2-.6-1.2-1.2.5-1.2 1.2-1.2z" fill="url(#g)"/><linearGradient id="h" gradientUnits="userSpaceOnUse" x1="610.919" y1="152.806" x2="619.519" y2="152.806"><stop offset="0" stop-color="#f2790a"/><stop offset="1" stop-color="#031035"/></linearGradient><use xlink:href="#Ad" fill="url(#h)"/><use xlink:href="#AT" x="-231" y="-237" fill="url(#a)"/><use xlink:href="#AU" x="-231" y="-237" fill="url(#b)"/><use xlink:href="#AV" x="-231" y="-237" fill="url(#c)"/><linearGradient id="i" gradientUnits="userSpaceOnUse" x1="564.235" y1="194.576" x2="566.692" y2="194.576"><stop offset="0" stop-color="#f2790a"/><stop offset="1" stop-color="#031035"/></linearGradient><path d="M565.5 196.4c.7 0 1.2-.6 1.2-1.2V194c0-.7-.5-1.2-1.2-1.2s-1.2.6-1.2 1.2v1.2c-.1.7.5 1.2 1.2 1.2z" fill="url(#i)"/><g class="Ae"><path d="M537.7 230.5V213h6.1c2.1 0 3.7.4 4.8 1.2s1.6 2 1.6 3.6c0 .9-.2 1.6-.7 2.3-.4.7-1.1 1.1-1.8 1.4.9.2 1.6.7 2.1 1.4s.8 1.5.8 2.5c0 1.7-.5 3-1.6 3.8s-2.6 1.3-4.6 1.3h-6.7zm3.6-10.1h2.7c1.8 0 2.7-.8 2.7-2.2 0-.8-.2-1.4-.7-1.7s-1.2-.5-2.2-.5h-2.5v4.4zm0 2.5v4.7h3.1c.8 0 1.5-.2 2-.6s.7-1 .7-1.7c0-1.6-.8-2.4-2.5-2.4h-3.3zm19.4 7.6c-.2-.3-.3-.7-.3-1.2-.8.9-1.9 1.4-3.3 1.4a4.96 4.96 0 0 1-3.2-1.1c-.8-.7-1.3-1.7-1.3-2.8 0-1.4.5-2.4 1.5-3.2s2.5-1.1 4.4-1.1h1.6v-.7c0-.6-.2-1.1-.5-1.4-.3-.4-.8-.5-1.5-.5-.6 0-1 .1-1.4.4-.3.3-.5.7-.5 1.2H553c0-.8.2-1.4.7-2.1.5-.6 1.1-1.1 2-1.5.8-.4 1.8-.5 2.9-.5 1.6 0 2.9.4 3.8 1.2s1.4 1.9 1.4 3.4v5.6c0 1.2.2 2.2.5 2.8v.2h-3.6zm-2.9-2.4c.5 0 1-.1 1.4-.3s.8-.5 1-.9v-2.2h-1.3c-1.7 0-2.7.6-2.8 1.8v.2c0 .4.2.8.5 1.1.3.2.7.3 1.2.3z"/><use xlink:href="#AW" x="-231" y="-237"/><path d="M585 230.8c-1.9 0-3.5-.6-4.7-1.8s-1.8-2.7-1.8-4.7v-.3c0-1.3.3-2.5.8-3.5a6.11 6.11 0 0 1 2.1-2.4c.9-.6 2-.8 3.2-.8 1.8 0 3.2.6 4.2 1.7s1.5 2.7 1.5 4.8v1.4H582c.1.8.5 1.5 1 2 .6.5 1.3.8 2.1.8 1.3 0 2.4-.5 3.1-1.5l1.7 1.9c-.5.7-1.2 1.3-2.1 1.7s-1.7.7-2.8.7zm-.4-10.7a2.19 2.19 0 0 0-1.7.7c-.4.5-.7 1.1-.8 2h4.8v-.3c0-.8-.2-1.4-.6-1.8s-1-.6-1.7-.6z"/><use xlink:href="#AX" x="-231" y="-237"/><use xlink:href="#AY" x="-231" y="-237"/><use xlink:href="#AZ" x="-231" y="-237"/><use xlink:href="#AY" x="-209.5" y="-237"/><use xlink:href="#Aa" x="-231" y="-237"/><use xlink:href="#Ab" x="-231" y="-237"/><use xlink:href="#Ac" x="-231" y="-237"/></g><linearGradient id="j" gradientUnits="userSpaceOnUse" x1="53.178" y1="674.161" x2="126.89" y2="674.161"><stop offset="0" stop-color="#f2790a"/><stop offset="1" stop-color="#031035"/></linearGradient><path d="M123.2 684h-43v-1.2a3.76 3.76 0 0 0-3.7-3.7H75l-2.3-7.6c4.4 2.5 9.4 3.9 14.5 3.9 2.5 0 5-.3 7.4-.9.8-.2 1.3-.8 1.5-1.5s0-1.5-.6-2l-5.5-5.5v-15.8c.8-1.1 1.2-2.3 1.2-3.6 0-3.4-2.8-6.1-6.1-6.1-1.3 0-2.6.4-3.6 1.2H65.7l-3-3c-.5-.6-1.3-.8-2.1-.6s-1.3.8-1.5 1.5c-2 7.9-.7 16.4 3.8 23.3-1.6 2.4-1.3 5.7.8 7.7l-2.7 9.2h-1.5a3.76 3.76 0 0 0-3.7 3.7v1.5c-1.5.5-2.5 1.9-2.5 3.5v19.7a3.76 3.76 0 0 0 3.7 3.7h66.3a3.76 3.76 0 0 0 3.7-3.7V688c-.1-2.4-1.8-4-3.8-4zm-59-18.4a3.76 3.76 0 0 1 3.7-3.7 3.76 3.76 0 0 1 3.7 3.7 3.76 3.76 0 0 1-3.7 3.7c-2-.1-3.7-1.7-3.7-3.7zm20.9-5.2V652c.8 0 1.7-.2 2.5-.5v11.4l-2.5-2.5zm-2.4-8.9v6.4l-9.6-9.6h6.4a5.6 5.6 0 0 0 3.2 3.2zm2.4-9.3a3.76 3.76 0 0 1 3.7 3.7 3.76 3.76 0 0 1-3.7 3.7 3.76 3.76 0 0 1-3.7-3.7 3.76 3.76 0 0 1 3.7-3.7zm-5.6 1.2c-.3.8-.5 1.6-.5 2.5h-8.4l-2.5-2.5h11.4zm-18.2-3.3l32.1 32.1c-7 1.7-14.3.5-20.3-3.3 1.8-2.8 1-6.6-1.8-8.5-2-1.3-4.7-1.3-6.7 0-3.8-6.1-5-13.4-3.3-20.3zm4.5 31.2a5.36 5.36 0 0 0 4.3 0l2.3 7.8h-9l2.4-7.8zm-6.5 10.2h17.2c.7 0 1.2.6 1.2 1.2v1.2H58.1v-1.2c0-.6.5-1.2 1.2-1.2zm12.3 27.1h-9.8v-16h9.8v16zm52.8-1.3c0 .7-.6 1.2-1.2 1.2H74.1v-16c0-1.4-1.1-2.5-2.5-2.5h-9.8c-1.4 0-2.5 1.1-2.5 2.5v16h-2.5c-.7 0-1.2-.6-1.2-1.2v-19.7c0-.7.6-1.2 1.2-1.2h66.3c.7 0 1.2.5 1.2 1.2v19.7z" fill="url(#j)"/><linearGradient id="k" gradientUnits="userSpaceOnUse" x1="77.749" y1="696.276" x2="94.948" y2="696.276"><stop offset="0" stop-color="#f2790a"/><stop offset="1" stop-color="#031035"/></linearGradient><path d="M91.3 690.1h-9.8a3.76 3.76 0 0 0-3.7 3.7v4.9a3.76 3.76 0 0 0 3.7 3.7h9.8a3.76 3.76 0 0 0 3.7-3.7v-4.9c-.1-2-1.7-3.7-3.7-3.7zm1.2 8.6c0 .7-.6 1.2-1.2 1.2h-9.8c-.7 0-1.2-.6-1.2-1.2v-4.9c0-.7.6-1.2 1.2-1.2h9.8c.7 0 1.2.5 1.2 1.2v4.9z" fill="url(#k)"/><linearGradient id="l" gradientUnits="userSpaceOnUse" x1="101.091" y1="696.276" x2="118.29" y2="696.276"><stop offset="0" stop-color="#f2790a"/><stop offset="1" stop-color="#031035"/></linearGradient><path d="M114.6 690.1h-9.8a3.76 3.76 0 0 0-3.7 3.7v4.9a3.76 3.76 0 0 0 3.7 3.7h9.8a3.76 3.76 0 0 0 3.7-3.7v-4.9a3.76 3.76 0 0 0-3.7-3.7zm1.2 8.6c0 .7-.6 1.2-1.2 1.2h-9.8c-.7 0-1.2-.6-1.2-1.2v-4.9c0-.7.6-1.2 1.2-1.2h9.8c.7 0 1.2.5 1.2 1.2v4.9z" fill="url(#l)"/><linearGradient id="m" gradientUnits="userSpaceOnUse" x1="94.948" y1="653.278" x2="126.89" y2="653.278"><stop offset="0" stop-color="#f2790a"/><stop offset="1" stop-color="#031035"/></linearGradient><path d="M110.9 637.3c-8.8 0-16 7.2-16 16s7.2 16 16 16 16-7.2 16-16-7.2-16-16-16zm0 29.5c-7.5 0-13.5-6.1-13.5-13.5s6.1-13.5 13.5-13.5 13.5 6.1 13.5 13.5-6 13.5-13.5 13.5z" fill="url(#m)"/><linearGradient id="n" gradientUnits="userSpaceOnUse" x1="110.919" y1="647.135" x2="118.29" y2="647.135"><stop offset="0" stop-color="#f2790a"/><stop offset="1" stop-color="#031035"/></linearGradient><path d="M114.6 650.8a3.76 3.76 0 0 0 3.7-3.7 3.76 3.76 0 0 0-3.7-3.7 3.76 3.76 0 0 0-3.7 3.7c0 2.1 1.7 3.7 3.7 3.7zm0-4.9c.7 0 1.2.6 1.2 1.2 0 .7-.6 1.2-1.2 1.2s-1.2-.6-1.2-1.2.5-1.2 1.2-1.2z" fill="url(#n)"/><use xlink:href="#Ad" x="-500" y="506" fill="url(#h)"/><linearGradient id="o" gradientUnits="userSpaceOnUse" x1="830.862" y1="384.278" x2="840.691" y2="384.278"><stop offset="0" stop-color="#f2790a"/><stop offset="1" stop-color="#031035"/></linearGradient><use xlink:href="#AT" x="-731" y="269" fill="url(#o)"/><use xlink:href="#AU" x="-731" y="269" fill="url(#b)"/><use xlink:href="#AV" x="-731" y="269" fill="url(#c)"/><linearGradient id="p" gradientUnits="userSpaceOnUse" x1="64.235" y1="700.576" x2="66.692" y2="700.576"><stop offset="0" stop-color="#f2790a"/><stop offset="1" stop-color="#031035"/></linearGradient><path d="M65.5 702.4c.7 0 1.2-.6 1.2-1.2V700c0-.7-.6-1.2-1.2-1.2-.7 0-1.2.6-1.2 1.2v1.2c-.1.7.5 1.2 1.2 1.2z" fill="url(#p)"/><g class="Ae"><path d="M37.7 736.5V719h6.1c2.1 0 3.7.4 4.8 1.2s1.6 2 1.6 3.6c0 .9-.2 1.6-.7 2.3-.4.7-1.1 1.1-1.8 1.4.9.2 1.6.7 2.1 1.4s.8 1.5.8 2.5c0 1.7-.5 3-1.6 3.8s-2.6 1.3-4.6 1.3h-6.7zm3.6-10.1H44c1.8 0 2.7-.8 2.7-2.2 0-.8-.2-1.4-.7-1.7s-1.2-.5-2.2-.5h-2.5v4.4zm0 2.5v4.7h3.1c.8 0 1.5-.2 2-.6s.7-1 .7-1.7c0-1.6-.8-2.4-2.5-2.4h-3.3zm19.4 7.6c-.2-.3-.3-.7-.3-1.2-.8.9-1.9 1.4-3.3 1.4a4.96 4.96 0 0 1-3.2-1.1c-.8-.7-1.3-1.7-1.3-2.8 0-1.4.5-2.4 1.5-3.2s2.5-1.1 4.4-1.1h1.6v-.7c0-.6-.2-1.1-.5-1.4-.3-.4-.8-.5-1.5-.5-.6 0-1 .1-1.4.4-.3.3-.5.7-.5 1.2H53c0-.8.2-1.4.7-2.1.5-.6 1.1-1.1 2-1.5.8-.4 1.8-.5 2.9-.5 1.6 0 2.9.4 3.8 1.2s1.4 1.9 1.4 3.4v5.6c0 1.2.2 2.2.5 2.8v.2h-3.6zm-2.9-2.4c.5 0 1-.1 1.4-.3s.8-.5 1-.9v-2.2h-1.3c-1.7 0-2.7.6-2.8 1.8v.2c0 .4.2.8.5 1.1.3.2.7.3 1.2.3zm15.6-1.1a1.1 1.1 0 0 0-.6-1 8.84 8.84 0 0 0-2-.7c-3.1-.6-4.6-2-4.6-3.9 0-1.2.5-2.1 1.4-2.9 1-.8 2.2-1.2 3.8-1.2s3 .4 4 1.2 1.5 1.8 1.5 3h-3.5c0-.5-.2-.9-.5-1.2s-.8-.5-1.5-.5c-.6 0-1 .1-1.4.4-.3.3-.5.6-.5 1s.2.7.5.9c.4.2 1 .4 1.8.6l2.2.6c1.8.7 2.7 1.8 2.7 3.5 0 1.2-.5 2.1-1.5 2.9-1 .7-2.3 1.1-3.9 1.1-1.1 0-2.1-.2-2.9-.6s-1.5-.9-2-1.6-.7-1.4-.7-2.2H69a1.75 1.75 0 0 0 .7 1.4c.4.3 1 .5 1.7.5s1.2-.1 1.5-.4c.3-.2.5-.5.5-.9zm11.6 3.8c-1.9 0-3.5-.6-4.7-1.8s-1.8-2.7-1.8-4.7v-.3c0-1.3.3-2.5.8-3.5a6.11 6.11 0 0 1 2.1-2.4c.9-.6 2-.8 3.2-.8 1.8 0 3.2.6 4.2 1.7s1.5 2.7 1.5 4.8v1.4H82c.1.8.5 1.5 1 2 .6.5 1.3.8 2.1.8 1.3 0 2.4-.5 3.1-1.5l1.7 1.9c-.5.7-1.2 1.3-2.1 1.7s-1.7.7-2.8.7zm-.4-10.7a2.19 2.19 0 0 0-1.7.7c-.4.5-.7 1.1-.8 2h4.8v-.3c0-.8-.2-1.4-.6-1.8s-1-.6-1.7-.6z"/><use xlink:href="#Ae"/><use xlink:href="#AY" x="-731" y="269"/><use xlink:href="#AZ" x="-731" y="269"/><use xlink:href="#AY" x="-709.5" y="269"/><path d="M143.3 720.2c0-.5.2-.9.5-1.3.3-.3.8-.5 1.4-.5s1.1.2 1.4.5c.4.3.5.8.5 1.3s-.2 1-.5 1.3c-.4.3-.8.5-1.4.5s-1.1-.2-1.4-.5c-.3-.4-.5-.8-.5-1.3zm3.7 16.3h-3.5v-13h3.5v13z"/><use xlink:href="#Ab" x="-731" y="269"/><use xlink:href="#Ac" x="-731" y="269"/></g><linearGradient id="q" gradientUnits="userSpaceOnUse" x1="209.688" y1="854.494" x2="283.4" y2="854.494"><stop offset="0" stop-color="#f2790a"/><stop offset="1" stop-color="#031035"/></linearGradient><path d="M279.7 864.3h-43v-1.2a3.76 3.76 0 0 0-3.7-3.7h-1.5l-2.3-7.6c4.4 2.5 9.4 3.9 14.5 3.9 2.5 0 5-.3 7.4-.9.8-.2 1.3-.8 1.5-1.5s0-1.5-.6-2l-5.5-5.5V830c.8-1.1 1.2-2.3 1.2-3.6 0-3.4-2.8-6.1-6.1-6.1-1.3 0-2.6.4-3.6 1.2h-15.8l-3-3c-.5-.6-1.3-.8-2.1-.6s-1.3.8-1.5 1.5c-2 7.9-.7 16.4 3.8 23.3-1.6 2.4-1.3 5.7.8 7.7l-2.7 9.2H216a3.76 3.76 0 0 0-3.7 3.7v1.5c-1.5.5-2.5 1.9-2.5 3.5V888a3.76 3.76 0 0 0 3.7 3.7h66.3a3.76 3.76 0 0 0 3.7-3.7v-20c-.1-2-1.8-3.7-3.8-3.7zm-59-18.4a3.76 3.76 0 0 1 3.7-3.7 3.76 3.76 0 0 1 3.7 3.7 3.76 3.76 0 0 1-3.7 3.7 3.76 3.76 0 0 1-3.7-3.7zm20.9-5.1v-8.4c.8 0 1.7-.2 2.5-.5v11.4l-2.5-2.5zm-2.4-8.9v6.4l-9.6-9.6h6.4c.6 1.4 1.8 2.5 3.2 3.2zm2.4-9.3a3.76 3.76 0 0 1 3.7 3.7 3.76 3.76 0 0 1-3.7 3.7 3.76 3.76 0 0 1-3.7-3.7c0-2.1 1.7-3.7 3.7-3.7zm-5.6 1.2c-.3.8-.5 1.6-.5 2.5h-8.4l-2.5-2.5H236zm-18.2-3.4l32.1 32.1c-7 1.7-14.3.5-20.3-3.3 1.8-2.8 1-6.6-1.8-8.5-2-1.3-4.7-1.3-6.7 0-3.8-6-5-13.3-3.3-20.3zm4.5 31.2a5.36 5.36 0 0 0 4.3 0l2.3 7.8h-9l2.4-7.8zm-6.5 10.3H233c.7 0 1.2.6 1.2 1.2v1.2h-19.7v-1.2c.1-.7.7-1.2 1.3-1.2zm12.3 27h-9.8v-16h9.8v16zm52.8-1.2c0 .7-.6 1.2-1.2 1.2h-49.1v-16c0-1.4-1.1-2.5-2.5-2.5h-9.8c-1.4 0-2.5 1.1-2.5 2.5v16h-2.5c-.7 0-1.2-.6-1.2-1.2V868c0-.7.6-1.2 1.2-1.2h66.3c.7 0 1.2.6 1.2 1.2v19.7z" fill="url(#q)"/><linearGradient id="r" gradientUnits="userSpaceOnUse" x1="234.259" y1="876.609" x2="251.458" y2="876.609"><stop offset="0" stop-color="#f2790a"/><stop offset="1" stop-color="#031035"/></linearGradient><path d="M247.8 870.5H238a3.76 3.76 0 0 0-3.7 3.7v4.9a3.76 3.76 0 0 0 3.7 3.7h9.8a3.76 3.76 0 0 0 3.7-3.7v-4.9c0-2.1-1.7-3.7-3.7-3.7zm1.2 8.6c0 .7-.6 1.2-1.2 1.2H238c-.7 0-1.2-.6-1.2-1.2v-4.9c0-.7.6-1.2 1.2-1.2h9.8c.7 0 1.2.5 1.2 1.2v4.9z" fill="url(#r)"/><linearGradient id="s" gradientUnits="userSpaceOnUse" x1="257.601" y1="876.609" x2="274.8" y2="876.609"><stop offset="0" stop-color="#f2790a"/><stop offset="1" stop-color="#031035"/></linearGradient><path d="M271.1 870.5h-9.8a3.76 3.76 0 0 0-3.7 3.7v4.9a3.76 3.76 0 0 0 3.7 3.7h9.8a3.76 3.76 0 0 0 3.7-3.7v-4.9c0-2.1-1.7-3.7-3.7-3.7zm1.2 8.6c0 .7-.6 1.2-1.2 1.2h-9.8c-.7 0-1.2-.6-1.2-1.2v-4.9c0-.7.6-1.2 1.2-1.2h9.8c.7 0 1.2.5 1.2 1.2v4.9z" fill="url(#s)"/><linearGradient id="t" gradientUnits="userSpaceOnUse" x1="251.458" y1="833.611" x2="283.4" y2="833.611"><stop offset="0" stop-color="#f2790a"/><stop offset="1" stop-color="#031035"/></linearGradient><path d="M267.4 817.6c-8.8 0-16 7.2-16 16s7.2 16 16 16 16-7.2 16-16-7.2-15.9-16-16zm0 29.5c-7.5 0-13.5-6.1-13.5-13.5 0-7.5 6.1-13.5 13.5-13.5 7.5 0 13.5 6.1 13.5 13.5 0 7.5-6 13.5-13.5 13.5z" fill="url(#t)"/><linearGradient id="u" gradientUnits="userSpaceOnUse" x1="267.429" y1="827.468" x2="274.8" y2="827.468"><stop offset="0" stop-color="#f2790a"/><stop offset="1" stop-color="#031035"/></linearGradient><path d="M271.1 831.2a3.76 3.76 0 0 0 3.7-3.7 3.76 3.76 0 0 0-3.7-3.7 3.76 3.76 0 0 0-3.7 3.7 3.76 3.76 0 0 0 3.7 3.7zm0-5c.7 0 1.2.6 1.2 1.2 0 .7-.6 1.2-1.2 1.2s-1.2-.6-1.2-1.2.5-1.2 1.2-1.2z" fill="url(#u)"/><linearGradient id="v" gradientUnits="userSpaceOnUse" x1="267.429" y1="839.139" x2="276.029" y2="839.139"><stop offset="0" stop-color="#f2790a"/><stop offset="1" stop-color="#031035"/></linearGradient><path d="M271.7 834.8c-2.4 0-4.3 1.9-4.3 4.3s1.9 4.3 4.3 4.3 4.3-1.9 4.3-4.3-1.9-4.3-4.3-4.3zm0 6.2a1.79 1.79 0 1 1 0-3.6 1.79 1.79 0 1 1 0 3.6z" fill="url(#v)"/><linearGradient id="w" gradientUnits="userSpaceOnUse" x1="256.372" y1="833.611" x2="266.2" y2="833.611"><stop offset="0" stop-color="#f2790a"/><stop offset="1" stop-color="#031035"/></linearGradient><path d="M261.3 828.7a4.91 4.91 0 0 0-4.9 4.9 4.91 4.91 0 0 0 4.9 4.9 4.91 4.91 0 0 0 4.9-4.9 4.91 4.91 0 0 0-4.9-4.9zm0 7.4c-1.4 0-2.5-1.1-2.5-2.5s1.1-2.5 2.5-2.5 2.5 1.1 2.5 2.5-1.2 2.5-2.5 2.5z" fill="url(#w)"/><linearGradient id="x" gradientUnits="userSpaceOnUse" x1="253.914" y1="856.338" x2="264.972" y2="856.338"><stop offset="0" stop-color="#f2790a"/><stop offset="1" stop-color="#031035"/></linearGradient><path d="M256.8 859l1.1 2c.5.9 1.5 1.2 2.4.7.3-.2.5-.4.7-.7l1.1-2 2-1.1c.9-.5 1.2-1.5.7-2.4-.2-.3-.4-.5-.7-.7l-2-1.1-1.1-2c-.5-.9-1.5-1.2-2.4-.7-.3.2-.5.4-.7.7l-1.1 2-2 1.1c-.9.5-1.2 1.5-.7 2.4.2.3.4.5.7.7l2 1.1zm1.5-3.3c.2-.1.4-.3.5-.5l.6-1.2.6 1.2c.1.2.3.4.5.5l1.2.6-1.2.6c-.2.1-.4.3-.5.5l-.6 1.2-.6-1.2c-.1-.2-.3-.4-.5-.5l-1.2-.6 1.2-.6z" fill="url(#x)"/><linearGradient id="y" gradientUnits="userSpaceOnUse" x1="271.112" y1="855.725" x2="283.401" y2="855.725"><stop offset="0" stop-color="#f2790a"/><stop offset="1" stop-color="#031035"/></linearGradient><path d="M282.4 854.1l-2.3-1.3-1.3-2.3h0c-.5-.9-1.6-1.2-2.5-.7-.3.2-.6.4-.7.7l-1.3 2.3-2.3 1.3c-.9.5-1.2 1.6-.7 2.5.2.3.4.6.7.7l2.3 1.3 1.3 2.3c.5.9 1.6 1.2 2.5.7.3-.2.6-.4.7-.7l1.3-2.3 2.3-1.3c.9-.5 1.2-1.6.7-2.5-.1-.3-.3-.5-.7-.7h0zm-3.8 2.5c-.2.1-.4.3-.5.5l-.9 1.6-.9-1.6c-.1-.2-.3-.4-.5-.5l-1.6-.9 1.6-.9c.2-.1.4-.3.5-.5l.9-1.6.9 1.6c.1.2.3.4.5.5l1.6.9-1.6.9z" fill="url(#y)"/><linearGradient id="z" gradientUnits="userSpaceOnUse" x1="220.745" y1="880.909" x2="223.202" y2="880.909"><stop offset="0" stop-color="#f2790a"/><stop offset="1" stop-color="#031035"/></linearGradient><path d="M222 882.8c.7 0 1.2-.6 1.2-1.2v-1.2c0-.7-.6-1.2-1.2-1.2s-1.2.5-1.2 1.2v1.2c-.1.6.5 1.2 1.2 1.2z" fill="url(#z)"/><g class="Ae"><path d="M194.2 916.9v-17.5h6.1c2.1 0 3.7.4 4.8 1.2s1.6 2 1.6 3.6c0 .9-.2 1.6-.7 2.3-.4.7-1.1 1.1-1.8 1.4.9.2 1.6.7 2.1 1.4s.8 1.5.8 2.5c0 1.7-.5 3-1.6 3.8s-2.6 1.3-4.6 1.3h-6.7zm3.6-10.2h2.7c1.8 0 2.7-.8 2.7-2.2 0-.8-.2-1.4-.7-1.7s-1.2-.5-2.2-.5h-2.5v4.4zm0 2.6v4.7h3.1c.8 0 1.5-.2 2-.6s.7-1 .7-1.7c0-1.6-.8-2.4-2.5-2.4h-3.3zm19.4 7.6c-.2-.3-.3-.7-.3-1.2-.8.9-1.9 1.4-3.3 1.4a4.96 4.96 0 0 1-3.2-1.1c-.8-.7-1.3-1.7-1.3-2.8 0-1.4.5-2.4 1.5-3.2s2.5-1.1 4.4-1.1h1.6v-.7c0-.6-.2-1.1-.5-1.4-.3-.4-.8-.5-1.5-.5-.6 0-1 .1-1.4.4-.3.3-.5.7-.5 1.2h-3.5c0-.8.2-1.4.7-2.1.5-.6 1.1-1.1 2-1.5.8-.4 1.8-.5 2.9-.5 1.6 0 2.9.4 3.8 1.2s1.4 1.9 1.4 3.4v5.6c0 1.2.2 2.2.5 2.8v.2h-3.3zm-2.8-2.4c.5 0 1-.1 1.4-.3s.8-.5 1-.9V911h-1.3c-1.7 0-2.7.6-2.8 1.8v.2c0 .4.2.8.5 1.1.2.2.6.4 1.2.4zm15.5-1.2a1.1 1.1 0 0 0-.6-1 8.84 8.84 0 0 0-2-.7c-3.1-.6-4.6-2-4.6-3.9 0-1.2.5-2.1 1.4-2.9 1-.8 2.2-1.2 3.8-1.2s3 .4 4 1.2 1.5 1.8 1.5 3h-3.5c0-.5-.2-.9-.5-1.2s-.8-.5-1.5-.5c-.6 0-1 .1-1.4.4-.3.3-.5.6-.5 1s.2.7.5.9c.4.2 1 .4 1.8.6l2.2.6c1.8.7 2.7 1.8 2.7 3.5 0 1.2-.5 2.1-1.5 2.9-1 .7-2.3 1.1-3.9 1.1-1.1 0-2.1-.2-2.9-.6s-1.5-.9-2-1.6-.7-1.4-.7-2.2h3.3a1.75 1.75 0 0 0 .7 1.4c.4.3 1 .5 1.7.5s1.2-.1 1.5-.4c.3-.2.5-.5.5-.9zm11.6 3.8c-1.9 0-3.5-.6-4.7-1.8s-1.8-2.7-1.8-4.7v-.3c0-1.3.3-2.5.8-3.5a6.11 6.11 0 0 1 2.1-2.4c.9-.6 2-.8 3.2-.8 1.8 0 3.2.6 4.2 1.7s1.5 2.7 1.5 4.8v1.4h-8.3c.1.8.5 1.5 1 2 .6.5 1.3.8 2.1.8 1.3 0 2.4-.5 3.1-1.5l1.7 1.9c-.5.7-1.2 1.3-2.1 1.7s-1.7.7-2.8.7zm-.4-10.7a2.19 2.19 0 0 0-1.7.7c-.4.5-.7 1.1-.8 2h4.8v-.3c0-.8-.2-1.4-.6-1.8-.4-.3-1-.6-1.7-.6z"/><use xlink:href="#Ae" x="156.5" y="180.3"/><use xlink:href="#AY" x="-574.5" y="449.3"/><path d="M285.9 916.9c-.2-.3-.3-.7-.3-1.2-.8.9-1.9 1.4-3.3 1.4a4.96 4.96 0 0 1-3.2-1.1c-.8-.7-1.3-1.7-1.3-2.8 0-1.4.5-2.4 1.5-3.2s2.5-1.1 4.4-1.1h1.6v-.7c0-.6-.2-1.1-.5-1.4-.3-.4-.8-.5-1.5-.5-.6 0-1 .1-1.4.4-.3.3-.5.7-.5 1.2h-3.5c0-.8.2-1.4.7-2.1.5-.6 1.1-1.1 2-1.5.8-.4 1.8-.5 2.9-.5 1.6 0 2.9.4 3.8 1.2s1.4 1.9 1.4 3.4v5.6c0 1.2.2 2.2.5 2.8v.2h-3.3zm-2.9-2.4c.5 0 1-.1 1.4-.3s.8-.5 1-.9V911h-1.3c-1.7 0-2.7.6-2.8 1.8v.2c0 .4.2.8.5 1.1.3.2.7.4 1.2.4z"/><use xlink:href="#AY" x="-553" y="449.3"/><path d="M299.8 900.5c0-.5.2-.9.5-1.3.3-.3.8-.5 1.4-.5s1.1.2 1.4.5c.4.3.5.8.5 1.3s-.2 1-.5 1.3c-.4.3-.8.5-1.4.5s-1.1-.2-1.4-.5-.5-.7-.5-1.3zm3.7 16.4H300v-13h3.5v13z"/><use xlink:href="#AP" x="-464.2" y="198.6"/><use xlink:href="#Ac" x="-574.4" y="449.3"/></g><linearGradient id="AA" gradientUnits="userSpaceOnUse" x1="39.759" y1="421.882" x2="120.33" y2="421.882"><stop offset="0" stop-color="#f2790a"/><stop offset="1" stop-color="#031035"/></linearGradient><path d="M119 442h-2.7v-43c0-4.4-3.6-8.1-8.1-8.1h-8.1v2.7h8.1c3 0 5.4 2.4 5.4 5.4v43H92.1c-.4 0-.7.1-.9.4l-2.3 2.3H71.2l-2.3-2.3c-.3-.3-.6-.4-.9-.4H46.5v-43c0-3 2.4-5.4 5.4-5.4H60V391h-8.1c-4.4 0-8.1 3.6-8.1 8.1v43h-2.7c-.7 0-1.3.6-1.3 1.3v4c0 3 2.4 5.4 5.4 5.4H115c3 0 5.4-2.4 5.4-5.4v-4c-.1-.8-.7-1.4-1.4-1.4zm-1.4 5.4a2.69 2.69 0 0 1-2.7 2.7H45.1a2.69 2.69 0 0 1-2.7-2.7v-2.7h25l2.3 2.3c.3.3.6.4.9.4h18.8c.4 0 .7-.1.9-.4l2.3-2.3h25v2.7z" fill="url(#AA)"/><linearGradient id="AB" gradientUnits="userSpaceOnUse" x1="49.159" y1="417.854" x2="110.93" y2="417.854"><stop offset="0" stop-color="#f2790a"/><stop offset="1" stop-color="#031035"/></linearGradient><path d="M49.2 400.4V438c0 .7.6 1.3 1.3 1.3h59.1c.7 0 1.3-.6 1.3-1.3v-37.6c0-2.2-1.8-4-4-4h-6.7v2.7h6.7c.7 0 1.3.6 1.3 1.3v36.3H51.8v-36.3c0-.7.6-1.3 1.3-1.3h6.7v-2.7h-6.7c-2.1 0-3.9 1.8-3.9 4z" fill="url(#AB)"/><linearGradient id="AC" gradientUnits="userSpaceOnUse" x1="62.587" y1="393.682" x2="97.501" y2="393.682"><stop offset="0" stop-color="#f2790a"/><stop offset="1" stop-color="#031035"/></linearGradient><path d="M80 380.3c2.2 0 4 1.8 4 4 0 .7.6 1.3 1.3 1.3h5.4c.7 0 1.3-.6 1.3-1.3a12.08 12.08 0 0 0-12.1-12.1c-6.7 0-11.9 5.4-11.9 12.1v4h-1.3c-2.2 0-4 1.8-4 4v18.8c0 2.2 1.8 4 4 4H80v-2.7H66.6c-.7 0-1.3-.6-1.3-1.3v-18.8c0-.7.6-1.3 1.3-1.3h26.9c.7 0 1.3.6 1.3 1.3v9.4h2.7v-9.4c0-2.2-1.8-4-4-4H76v-4c0-2.2 1.8-4 4-4zm-9.4 8v-4c0-4.9 3.8-9 8.7-9.4s9.3 3.2 10 8h-2.7a6.63 6.63 0 0 0-7.3-5.3c-3.4.3-6 3.2-6 6.7v4h-2.7z" fill="url(#AC)"/><linearGradient id="AD" gradientUnits="userSpaceOnUse" x1="74.672" y1="401.729" x2="85.416" y2="401.729"><stop offset="0" stop-color="#f2790a"/><stop offset="1" stop-color="#031035"/></linearGradient><path d="M81.4 408.5v-2.9c2.6-.7 4.3-3.2 4-5.9-.4-2.7-2.7-4.7-5.4-4.7s-5 2-5.3 4.7 1.4 5.2 4 5.9v2.9h2.7zm-4-8.1a2.69 2.69 0 1 1 5.4 0 2.69 2.69 0 1 1-5.4 0z" fill="url(#AD)"/><linearGradient id="AE" gradientUnits="userSpaceOnUse" x1="58.559" y1="425.911" x2="101.317" y2="425.911"><stop offset="0" stop-color="#f2790a"/><stop offset="1" stop-color="#031035"/></linearGradient><path d="M58.6 425.9a6.7 6.7 0 0 0 6.7 6.7h29.5c3.1 0 5.7-2.1 6.5-5l-2.6-.7c-.5 1.8-2.1 3-3.9 3H65.3c-2.2 0-4-1.8-4-4s1.8-4 4-4h16.1v-2.7H65.3a6.7 6.7 0 0 0-6.7 6.7z" fill="url(#AE)"/><linearGradient id="AF" gradientUnits="userSpaceOnUse" x1="65.273" y1="425.911" x2="67.959" y2="425.911"><stop offset="0" stop-color="#f2790a"/><stop offset="1" stop-color="#031035"/></linearGradient><path d="M65.3 424.6H68v2.7h-2.7v-2.7z" fill="url(#AF)"/><linearGradient id="AG" gradientUnits="userSpaceOnUse" x1="70.644" y1="425.911" x2="73.33" y2="425.911"><stop offset="0" stop-color="#f2790a"/><stop offset="1" stop-color="#031035"/></linearGradient><path d="M70.6 424.6h2.7v2.7h-2.7v-2.7z" fill="url(#AG)"/><linearGradient id="AH" gradientUnits="userSpaceOnUse" x1="76.016" y1="425.911" x2="78.701" y2="425.911"><stop offset="0" stop-color="#f2790a"/><stop offset="1" stop-color="#031035"/></linearGradient><path d="M76 424.6h2.7v2.7H76v-2.7z" fill="url(#AH)"/><linearGradient id="AI" gradientUnits="userSpaceOnUse" x1="81.387" y1="425.911" x2="84.073" y2="425.911"><stop offset="0" stop-color="#f2790a"/><stop offset="1" stop-color="#031035"/></linearGradient><path d="M81.4 424.6h2.7v2.7h-2.7v-2.7z" fill="url(#AI)"/><linearGradient id="AJ" gradientUnits="userSpaceOnUse" x1="88.495" y1="413.35" x2="103.822" y2="413.35"><stop offset="0" stop-color="#f2790a"/><stop offset="1" stop-color="#031035"/></linearGradient><path d="M90.4 412.9l-1.9 1.9 4 4c.5.5 1.4.5 1.9 0l9.4-9.4-1.9-1.9-8.5 8.5-3-3.1z" fill="url(#AJ)"/><linearGradient id="AK" gradientUnits="userSpaceOnUse" x1="82.73" y1="415.164" x2="104.216" y2="415.164"><stop offset="0" stop-color="#f2790a"/><stop offset="1" stop-color="#031035"/></linearGradient><path d="M82.7 415.2c0 4 2.2 7.7 5.8 9.5s7.9 1.5 11.2-.8 5-6.3 4.4-10.3l-2.7.4c.1.4.1.8.1 1.2a8.02 8.02 0 0 1-6.1 7.8c-3.6.9-7.3-.8-9.1-4.1-1.7-3.3-1-7.3 1.8-9.8s6.9-2.7 9.9-.6l1.5-2.2c-3.3-2.3-7.6-2.6-11.1-.7-3.4 1.9-5.7 5.6-5.7 9.6z" fill="url(#AK)"/><circle cx="454.3" cy="546.1" r="16.3" fill="#6cf"/><g fill="none" stroke="#6cf" stroke-width="5" class="Af"><path d="M571.3 264.1l-117 282m280-120l-280 120m280 118l-280-118m130 278l-130-278m-120 280l120-280"/><path d="M321.3 266.1l133 280m-283-120l283 120m-283 118l283-118"/></g><g fill="#ff971a"><circle cx="571.3" cy="264.1" r="17.7"/><circle cx="321.3" cy="266.1" r="17.7"/><circle cx="171.3" cy="426.1" r="17.7"/><circle cx="734.3" cy="426.1" r="17.7"/><circle cx="454.3" cy="546.1" r="100.3"/><circle cx="334.3" cy="826.1" r="17.7"/><circle cx="584.3" cy="824.1" r="17.7"/><circle cx="734.3" cy="664.1" r="17.7"/><circle cx="171.3" cy="664.1" r="17.7"/></g><g class="Ae"><path d="M46.6 476.3c-.6.8-1.6 1.4-2.7 1.8-1.2.4-2.5.6-3.9.6-1.5 0-2.8-.3-4-1-1.1-.7-2-1.6-2.6-2.9s-.9-2.7-1-4.4v-1.2c0-1.7.3-3.3.9-4.5s1.4-2.3 2.5-2.9a8.05 8.05 0 0 1 3.9-1c2.1 0 3.7.5 4.9 1.5s1.9 2.4 2.1 4.3h-3.5c-.2-1-.5-1.7-1.1-2.2-.5-.5-1.3-.7-2.3-.7-1.2 0-2.2.5-2.8 1.4s-1 2.3-1 4.1v1.1c0 1.8.3 3.2 1 4.2.7.9 1.7 1.4 3.1 1.4s2.3-.3 2.9-.9v-3h-3.3v-2.7h6.9v7zm10.2 2.2c-.2-.3-.3-.7-.3-1.2-.8.9-1.9 1.4-3.3 1.4a4.96 4.96 0 0 1-3.2-1.1c-.8-.7-1.3-1.7-1.3-2.8 0-1.4.5-2.4 1.5-3.2s2.5-1.1 4.4-1.1h1.6v-.7c0-.6-.2-1.1-.5-1.4-.3-.4-.8-.5-1.5-.5-.6 0-1 .1-1.4.4-.3.3-.5.7-.5 1.2H49c0-.8.2-1.4.7-2.1.5-.6 1.1-1.1 2-1.5.8-.4 1.8-.5 2.9-.5 1.6 0 2.9.4 3.8 1.2s1.4 1.9 1.4 3.4v5.6c0 1.2.2 2.2.5 2.8v.2h-3.5zm-2.9-2.4c.5 0 1-.1 1.4-.3s.8-.5 1-.9v-2.2H55c-1.7 0-2.7.6-2.8 1.8v.2c0 .4.2.8.5 1.1.3.2.7.3 1.2.3z"/><use xlink:href="#AY" x="-782.1" y="11"/><use xlink:href="#AQ" x="-783.7" y="-239.7"/><path d="M95.3 473.8l1.7-8.3h3.3l-3.3 13h-2.9l-2.5-8.2-2.5 8.2h-2.9l-3.3-13h3.3l1.7 8.3 2.4-8.3H93l2.3 8.3z"/><use xlink:href="#AZ" x="-750.8" y="11"/><path d="M119.9 473.6l2.4-8.1h3.7l-5.2 15-.3.7c-.8 1.7-2.1 2.5-3.8 2.5-.5 0-1-.1-1.5-.2v-2.6h.5c.7 0 1.1-.1 1.5-.3s.6-.5.8-1l.4-1.1-4.5-13h3.7l2.3 8.1z"/><use xlink:href="#Af"/><path d="M390.9 582.3c-1.9 0-3.5-.6-4.8-1.8s-1.8-2.8-1.8-4.8v-.3c0-1.3.3-2.5.8-3.6s1.2-1.9 2.2-2.4c.9-.6 2-.9 3.2-.9 1.8 0 3.2.6 4.3 1.7 1 1.1 1.6 2.8 1.6 4.9v1.4h-8.5a3.47 3.47 0 0 0 1 2.1c.6.5 1.3.8 2.2.8 1.4 0 2.4-.5 3.2-1.5l1.7 2c-.5.8-1.3 1.3-2.2 1.8-.8.4-1.8.6-2.9.6zm-.4-10.9c-.7 0-1.3.2-1.7.7s-.7 1.2-.8 2h4.9v-.3c0-.8-.2-1.4-.6-1.8-.5-.4-1-.6-1.8-.6zm11.2-2.7l.1 1.5c.9-1.2 2.2-1.8 3.8-1.8 1.4 0 2.5.4 3.1 1.2.7.8 1 2.1 1.1 3.7v8.6h-3.5v-8.5c0-.8-.2-1.3-.5-1.6s-.9-.5-1.6-.5c-1 0-1.7.4-2.2 1.3v9.4h-3.5v-13.3h3.2z"/><use xlink:href="#Ag"/><path d="M428.4 572.1c-.5-.1-.9-.1-1.3-.1-1.3 0-2.2.5-2.6 1.4v8.7H421v-13.3h3.4l.1 1.6c.7-1.2 1.7-1.8 3-1.8.4 0 .8.1 1.1.2l-.2 3.3zm9.1 9.9c-.2-.3-.3-.7-.4-1.2-.9 1-2 1.4-3.4 1.4-1.3 0-2.4-.4-3.2-1.1-.9-.8-1.3-1.7-1.3-2.8 0-1.4.5-2.5 1.6-3.2 1-.8 2.6-1.1 4.5-1.1h1.6v-.8c0-.6-.2-1.1-.5-1.5s-.8-.6-1.5-.6c-.6 0-1.1.1-1.4.4s-.5.7-.5 1.2h-3.5c0-.8.2-1.5.7-2.1s1.1-1.2 2-1.5c.9-.4 1.8-.6 2.9-.6 1.6 0 2.9.4 3.9 1.2s1.4 2 1.4 3.5v5.8c0 1.3.2 2.2.5 2.9v.2h-3.4zm-3-2.4c.5 0 1-.1 1.4-.3s.8-.5 1-.9V576h-1.3c-1.8 0-2.7.6-2.8 1.8v.2c0 .4.2.8.5 1.1s.7.5 1.2.5zM447 582h-3.6v-18.9h3.6V582zm18.7-4.7c0-.7-.2-1.2-.7-1.6s-1.4-.8-2.7-1.2-2.3-.8-3-1.2c-2-1.1-3-2.6-3-4.4 0-1 .3-1.8.8-2.6s1.3-1.3 2.3-1.8c1-.4 2.2-.6 3.4-.6 1.3 0 2.4.2 3.4.7s1.8 1.1 2.3 2 .8 1.8.8 2.9h-3.7c0-.8-.3-1.5-.8-1.9s-1.2-.7-2.2-.7c-.9 0-1.6.2-2.1.6s-.7.9-.7 1.5.3 1.1.9 1.5 1.4.8 2.6 1.1c2.1.6 3.6 1.4 4.6 2.3s1.4 2.1 1.4 3.5c0 1.5-.6 2.8-1.8 3.6s-2.7 1.3-4.7 1.3c-1.4 0-2.6-.3-3.8-.8-1.1-.5-2-1.2-2.6-2.1a5.29 5.29 0 0 1-.9-3h3.7c0 2 1.2 3 3.5 3 .9 0 1.6-.2 2.1-.5.6-.4.9-.9.9-1.6zm17.5-.1l1.7-8.5h3.4L485 582h-3l-2.5-8.4-2.5 8.4h-3l-3.4-13.3h3.4l1.7 8.4 2.4-8.4h2.6l2.5 8.5zm6.9-11.9c0-.5.2-1 .5-1.3.4-.3.8-.5 1.5-.5.6 0 1.1.2 1.4.5.4.3.5.8.5 1.3s-.2 1-.5 1.3-.8.5-1.4.5-1.1-.2-1.4-.5-.6-.8-.6-1.3zm3.8 16.7h-3.6v-13.3h3.6V582zm7.1-16.5v3.3h2.3v2.6H501v6.6c0 .5.1.8.3 1.1s.5.3 1.1.3c.4 0 .7 0 1-.1v2.7c-.7.2-1.4.3-2.1.3-2.5 0-3.8-1.3-3.8-3.8v-7.2h-1.9v-2.6h1.9v-3.3h3.5zm9.8 13.9c.7 0 1.2-.2 1.6-.5.4-.4.6-.8.6-1.4h3.3c0 .9-.3 1.7-.7 2.5-.5.7-1.1 1.3-2 1.7-.8.4-1.8.6-2.8.6-1.9 0-3.4-.6-4.5-1.8s-1.6-2.9-1.6-5v-.2c0-2 .5-3.7 1.6-4.9s2.6-1.8 4.5-1.8c1.7 0 3 .5 4 1.4s1.5 2.2 1.5 3.8H513c0-.7-.2-1.3-.6-1.7s-.9-.6-1.6-.6c-.8 0-1.5.3-1.9.9s-.6 1.6-.6 2.9v.4c0 1.4.2 2.4.6 3 .4.4 1.1.7 1.9.7zm11.1-9.2c.9-1.1 2.1-1.7 3.5-1.7 2.9 0 4.3 1.7 4.4 5v8.5h-3.5v-8.4c0-.8-.2-1.3-.5-1.7s-.9-.5-1.6-.5c-1 0-1.8.4-2.3 1.2v9.4h-3.5v-18.9h3.5v7.1zm18 13.4h-2.6l6.6-19.4h2.6l-6.6 19.4z"/><use xlink:href="#Af" x="36.9" y="30.1"/><path d="M421.1 605.4c0-1.3.3-2.5.8-3.5s1.2-1.8 2.2-2.4 2.1-.8 3.3-.8c1.8 0 3.3.5 4.4 1.6s1.8 2.6 1.9 4.5v.9c0 2-.6 3.7-1.7 4.9s-2.7 1.8-4.6 1.8-3.4-.6-4.6-1.8c-1.1-1.2-1.7-2.9-1.7-5v-.2zm3.6.3c0 1.3.2 2.2.7 2.9s1.2 1 2 1c.9 0 1.5-.3 2-1s.7-1.7.7-3.2c0-1.2-.2-2.2-.7-2.9s-1.2-1-2-1c-.9 0-1.5.3-2 1s-.7 1.8-.7 3.2zm14.5-6.8l.1 1.5c.9-1.2 2.2-1.8 3.8-1.8 1.4 0 2.5.4 3.1 1.2.7.8 1 2.1 1.1 3.7v8.6h-3.5v-8.5c0-.8-.2-1.3-.5-1.6s-.9-.5-1.6-.5c-1 0-1.7.4-2.2 1.3v9.4H436v-13.3h3.2z"/><use xlink:href="#Ag" x="37.5" y="30.1"/><use xlink:href="#Ah"/><path d="M466.7 605.4c0-1.3.3-2.5.8-3.5s1.2-1.8 2.2-2.4 2.1-.8 3.3-.8c1.8 0 3.3.5 4.4 1.6s1.8 2.6 1.9 4.5v.9c0 2-.6 3.7-1.7 4.9s-2.7 1.8-4.6 1.8-3.4-.6-4.6-1.8c-1.1-1.2-1.7-2.9-1.7-5v-.2zm3.5.3c0 1.3.2 2.2.7 2.9s1.2 1 2 1c.9 0 1.5-.3 2-1s.7-1.7.7-3.2c0-1.2-.2-2.2-.7-2.9s-1.2-1-2-1c-.9 0-1.5.3-2 1s-.7 1.8-.7 3.2zm15 6.5h-3.6v-18.9h3.6v18.9zm6.6 0h-3.6v-18.9h3.6v18.9zm9.1.2c-1.9 0-3.5-.6-4.8-1.8s-1.8-2.8-1.8-4.8v-.3c0-1.3.3-2.5.8-3.6s1.2-1.9 2.2-2.4c.9-.6 2-.9 3.2-.9 1.8 0 3.2.6 4.3 1.7 1 1.1 1.6 2.8 1.6 4.9v1.4h-8.5a3.47 3.47 0 0 0 1 2.1c.6.5 1.3.8 2.2.8 1.4 0 2.4-.5 3.2-1.5l1.7 2c-.5.8-1.3 1.3-2.2 1.8-.8.4-1.8.6-2.9.6zm-.4-10.9c-.7 0-1.3.2-1.7.7s-.7 1.2-.8 2h4.9v-.2c0-.8-.2-1.4-.6-1.8-.5-.5-1.1-.7-1.8-.7z"/><use xlink:href="#Ah" x="49.9"/></g><path d="M406.9 516.6h65.6v15.1h-65.6v-15.1zm0-30.1h65.6v15.1h-65.6v-15.1z" fill="#47568c"/><path d="M439.7 486.5h32.8v15.1h-32.8v-15.1zm0 30.1h32.8v15.1h-32.8v-15.1z" fill="#2c3b73"/><path d="M480 466.2h-80.7c-1.4 0-2.5 1.1-2.5 2.5V489c0 1.4 1.1 2.5 2.5 2.5H480c1.4 0 2.5-1.1 2.5-2.5v-20.3c.1-1.4-1-2.5-2.5-2.5zm0 30.3h-80.7c-1.4 0-2.5 1.1-2.5 2.5v20.1c0 1.4 1.1 2.5 2.5 2.5H480c1.4 0 2.5-1.1 2.5-2.5V499c.1-1.4-1-2.5-2.5-2.5zm0 30.1h-80.7c-1.4 0-2.5 1.1-2.5 2.5v20.3c0 1.4 1.1 2.5 2.5 2.5H480c1.4 0 2.5-1.1 2.5-2.5v-20.3c.1-1.4-1-2.5-2.5-2.5z" fill="#61729b"/><path d="M482.6 468.7V489c0 1.4-1.1 2.5-2.5 2.5h-40.4v-25.3H480c1.5 0 2.6 1.1 2.6 2.5zm0 30.3v20.1c0 1.4-1.1 2.5-2.5 2.5h-40.4v-25.1H480c1.5 0 2.6 1.1 2.6 2.5zm0 30.2v20.3c0 1.4-1.1 2.5-2.5 2.5h-40.4v-25.3H480c1.5-.1 2.6 1 2.6 2.5z" fill="#47568c"/><g fill="#25d9f8"><use xlink:href="#Ai"/><use xlink:href="#Ai" x="10"/><use xlink:href="#Ai" x="20.1"/><use xlink:href="#Ai" y="-30.1"/><use xlink:href="#Ai" x="10" y="-30.1"/><use xlink:href="#Ai" x="20.1" y="-30.1"/><use xlink:href="#Ai" y="-60.3"/><use xlink:href="#Ai" x="10" y="-60.3"/><use xlink:href="#Ai" x="20.1" y="-60.3"/></g><linearGradient id="AL" gradientUnits="userSpaceOnUse" x1="95.133" y1="1003.565" x2="809.929" y2="1003.565"><stop offset="0" stop-color="#f2790a"/><stop offset="1" stop-color="#031035"/></linearGradient><path d="M773.7,1053.9H131.3c-18.6,0-33.7-15.1-33.7-33.7V987c0-18.6,15.1-33.7,33.7-33.7h642.4   c18.6,0,33.7,15.1,33.7,33.7v33.2C807.4,1038.8,792.3,1053.9,773.7,1053.9z" fill="none" stroke="url(#AL)" stroke-width="5" class="Af"/><path d="M118.3 953.3h21.4v86.6h-21.4z"/><path d="M57.2 1053.1c3.2 5.2 8.8 8.3 14.9 8.3h111.6c6.1 0 11.7-3.1 14.9-8.3s3.5-11.6.8-17l-55.8-111.6c-3-5.9-8.9-9.6-15.6-9.6s-12.6 3.7-15.6 9.6L56.5 1036c-2.7 5.5-2.5 11.9.7 17.1zm77.8-91.2v45.1a7.13 7.13 0 0 1-7.1 7.1 7.13 7.13 0 0 1-7.1-7.1v-45.1a7.13 7.13 0 0 1 7.1-7.1c3.9 0 7.1 3.1 7.1 7.1h0zm-14.2 70.9v-5.2a7.13 7.13 0 0 1 7.1-7.1 7.13 7.13 0 0 1 7.1 7.1v5.2a7.13 7.13 0 0 1-7.1 7.1 7.13 7.13 0 0 1-7.1-7.1z"/><path d="M61.1 1049.5c3 4.9 8.3 7.8 14.1 7.8h105.5c5.8 0 11-2.9 14.1-7.8 3-4.9 3.3-10.9.7-16.1l-52.8-105.5c-2.8-5.6-8.4-9.1-14.7-9.1s-11.9 3.5-14.7 9.1l-52.8 105.5c-2.7 5.2-2.4 11.2.6 16.1zm73.5-86.2v42.6a6.7 6.7 0 1 1-13.4 0v-42.6a6.7 6.7 0 1 1 13.4 0h0zm-13.4 67v-4.9a6.7 6.7 0 0 1 13.4 0v4.9a6.7 6.7 0 1 1-13.4 0z" fill="#e5d405"/><path d="M497.1 493.9h9.6v39h-9.6z"/><path d="M469.6 538.8c1.4 2.3 4 3.7 6.7 3.7h50.2c2.7 0 5.3-1.4 6.7-3.7s1.6-5.2.3-7.7l-25.1-50.3c-1.3-2.7-4-4.3-7-4.3s-5.7 1.7-7 4.3l-25.1 50.3c-1.2 2.5-1.1 5.4.3 7.7zm35-41V518c0 1.8-1.4 3.2-3.2 3.2s-3.2-1.4-3.2-3.2v-20.3c0-1.8 1.4-3.2 3.2-3.2s3.2 1.5 3.2 3.3h0zm-6.4 31.9v-2.3c0-1.8 1.4-3.2 3.2-3.2s3.2 1.4 3.2 3.2v2.3c0 1.7-1.4 3.2-3.2 3.2s-3.2-1.5-3.2-3.2z"/><path d="M471.4 537.2c1.4 2.2 3.7 3.5 6.3 3.5h47.5c2.6 0 5-1.3 6.3-3.5s1.5-4.9.3-7.2L508 482.5c-1.3-2.5-3.8-4.1-6.6-4.1s-5.4 1.6-6.6 4.1L471 530c-1.1 2.3-1 5 .4 7.2zm33.1-38.8v19.2c0 1.7-1.3 3-3 3s-3-1.3-3-3v-19.2c0-1.7 1.3-3 3-3s3 1.3 3 3h0zm-6.1 30.2v-2.2c0-1.7 1.3-3 3-3s3 1.3 3 3v2.2a3.01 3.01 0 0 1-3 3 3.01 3.01 0 0 1-3-3z" fill="#e5d405"/><g fill="#052244"><use xlink:href="#Aj"/><path d="M298.8 995.5c-2.7 0-4.9-.8-6.6-2.5s-2.6-3.9-2.6-6.6v-.5a11.48 11.48 0 0 1 1.1-5c.7-1.5 1.7-2.6 3.1-3.4 1.3-.8 2.8-1.2 4.5-1.2 2.5 0 4.5.8 6 2.4s2.2 3.9 2.2 6.8v2h-11.8c.2 1.2.6 2.2 1.4 2.9s1.8 1.1 3.1 1.1c1.9 0 3.4-.7 4.5-2.1l2.4 2.7a7.47 7.47 0 0 1-3 2.5c-1.3.6-2.7.9-4.3.9zm-.5-15.2c-1 0-1.8.3-2.4 1s-1 1.6-1.2 2.8h6.9v-.4c0-1.1-.3-1.9-.9-2.5s-1.4-.9-2.4-.9z"/><use xlink:href="#Ak"/><use xlink:href="#Al"/><use xlink:href="#Am"/><use xlink:href="#An"/><path d="M376.9 995.1h-5v-26.3h5v26.3zm26-6.5c0-1-.3-1.7-1-2.2s-1.9-1.1-3.7-1.6c-1.8-.6-3.2-1.1-4.2-1.7-2.8-1.5-4.2-3.6-4.2-6.2 0-1.3.4-2.5 1.1-3.6.8-1.1 1.8-1.9 3.3-2.5 1.4-.6 3-.9 4.8-.9s3.4.3 4.8 1c1.4.6 2.5 1.6 3.2 2.7.8 1.2 1.2 2.5 1.2 4h-5.1a3.69 3.69 0 0 0-1.1-2.7c-.7-.6-1.7-.9-3-.9s-2.2.3-2.9.8-1 1.2-1 2.1c0 .8.4 1.5 1.2 2s2 1.1 3.6 1.5c2.9.9 5 2 6.4 3.3s2 2.9 2 4.9c0 2.2-.8 3.8-2.4 5.1-1.6 1.2-3.8 1.8-6.6 1.8-1.9 0-3.7-.4-5.2-1.1-1.6-.7-2.8-1.7-3.6-2.9s-1.2-2.6-1.2-4.2h5.1c0 2.7 1.6 4.1 4.9 4.1 1.2 0 2.2-.2 2.9-.7.4-.5.7-1.2.7-2.1zm24.4-.2l2.4-11.8h4.8l-4.7 18.5h-4.1l-3.5-11.6-3.5 11.6h-4.1l-4.7-18.5h4.8l2.4 11.8 3.4-11.8h3.6l3.2 11.8z"/><use xlink:href="#Ao"/><use xlink:href="#Al" x="117.4"/><path d="M465.7 991.5c.9 0 1.7-.3 2.2-.8.6-.5.9-1.2.9-2h4.6c0 1.3-.4 2.4-1 3.4-.7 1-1.6 1.9-2.8 2.4s-2.5.9-3.9.9c-2.6 0-4.7-.8-6.3-2.5s-2.3-4-2.3-7v-.3c0-2.8.8-5.1 2.3-6.8s3.6-2.5 6.2-2.5c2.3 0 4.2.7 5.6 2s2.1 3.1 2.1 5.3h-4.6c0-1-.3-1.7-.9-2.3s-1.3-.9-2.3-.9c-1.2 0-2 .4-2.6 1.3s-.9 2.2-.9 4.1v.5c0 1.9.3 3.3.9 4.1s1.6 1.1 2.8 1.1zm15.4-12.8c1.3-1.6 3-2.4 4.9-2.4 4 0 6 2.3 6.1 7v11.8h-4.9v-11.7c0-1.1-.2-1.8-.7-2.3s-1.2-.8-2.3-.8c-1.4 0-2.5.6-3.1 1.7v13.1h-4.9v-26.3h4.9v9.9zm25 18.6h-3.7l9.2-27h3.7l-9.2 27z"/><use xlink:href="#Aj" x="258.9"/><path d="M548.5 985.7c0-1.8.4-3.5 1.1-4.9a7.59 7.59 0 0 1 3.1-3.3c1.3-.8 2.9-1.2 4.6-1.2 2.5 0 4.5.8 6.1 2.3s2.5 3.6 2.6 6.2v1.3c0 2.8-.8 5.1-2.4 6.8s-3.7 2.6-6.4 2.6-4.8-.9-6.4-2.6-2.4-4-2.4-7v-.2zm4.9.4c0 1.8.3 3.1 1 4s1.6 1.4 2.8 1.4 2.1-.5 2.8-1.4 1-2.4 1-4.4c0-1.7-.3-3.1-1-4s-1.6-1.4-2.8-1.4-2.1.5-2.8 1.4c-.6.9-1 2.4-1 4.4zm20.2-9.4l.2 2.1c1.3-1.7 3.1-2.5 5.3-2.5 2 0 3.4.6 4.4 1.7 1 1.2 1.4 2.9 1.5 5.2v11.9h-5v-11.8c0-1-.2-1.8-.7-2.3s-1.2-.7-2.3-.7c-1.4 0-2.4.6-3.1 1.8v13H569v-18.5h4.6zm21-4.6v4.5h3.2v3.6h-3.2v9.2c0 .7.1 1.2.4 1.5s.8.4 1.5.4c.5 0 1 0 1.5-.1v3.7c-1 .3-2 .4-3 .4-3.5 0-5.2-1.7-5.3-5.2v-10H587v-3.6h2.7V972h4.9z"/><use xlink:href="#Am" x="259.8"/><path d="M611.9 985.7c0-1.8.4-3.5 1.1-4.9a7.59 7.59 0 0 1 3.1-3.3c1.3-.8 2.9-1.2 4.6-1.2 2.5 0 4.5.8 6.1 2.3s2.5 3.6 2.6 6.2v1.3c0 2.8-.8 5.1-2.4 6.8s-3.7 2.6-6.4 2.6-4.8-.9-6.4-2.6-2.4-4-2.4-7v-.2zm4.9.4c0 1.8.3 3.1 1 4s1.6 1.4 2.8 1.4 2.1-.5 2.8-1.4 1-2.4 1-4.4c0-1.7-.3-3.1-1-4s-1.6-1.4-2.8-1.4-2.1.5-2.8 1.4-1 2.4-1 4.4zm20.8 9h-5v-26.3h5v26.3zm9.3 0h-5v-26.3h5v26.3z"/><use xlink:href="#Ap"/><use xlink:href="#Am" x="329.2"/><path d="M272.7 1028.5h-9.6v-4h9.6v4z"/><use xlink:href="#Aq"/><use xlink:href="#Ak" x="-4.1" y="42"/><use xlink:href="#Ap" x="-326.2" y="42"/><path d="M362.4 1032c0-.6-.3-1.1-.9-1.4a9.95 9.95 0 0 0-2.9-.9c-4.4-.9-6.6-2.8-6.6-5.6 0-1.6.7-3 2-4.1s3.1-1.6 5.3-1.6c2.3 0 4.2.6 5.6 1.7s2.1 2.5 2.1 4.3h-4.9c0-.7-.2-1.3-.7-1.8s-1.2-.7-2.1-.7c-.8 0-1.5.2-1.9.6-.5.4-.7.9-.7 1.4s.3 1 .8 1.3 1.4.6 2.6.9c1.2.2 2.3.5 3.1.8 2.6 1 3.9 2.6 3.9 5 0 1.7-.7 3-2.2 4.1-1.4 1-3.3 1.6-5.6 1.6a10.7 10.7 0 0 1-4.1-.8c-1.2-.6-2.1-1.3-2.8-2.3s-1-2-1-3.1h4.7c0 .9.4 1.5 1 2s1.4.7 2.4.7c.9 0 1.7-.2 2.1-.5.6-.5.8-1 .8-1.6z"/><use xlink:href="#Ao" x="-66.5" y="42"/><use xlink:href="#Ak" x="70.4" y="42"/><path d="M398.6 1027.8c0-2.8.7-5.1 2-6.9 1.4-1.7 3.2-2.6 5.5-2.6 2 0 3.6.7 4.7 2.1l.2-1.7h4.5v17.9c0 1.6-.4 3-1.1 4.2s-1.8 2.1-3.1 2.7-2.9.9-4.7.9c-1.4 0-2.7-.3-4-.8s-2.3-1.2-2.9-2.1l2.2-3c1.2 1.4 2.7 2.1 4.5 2.1 1.3 0 2.3-.4 3.1-1.1.7-.7 1.1-1.7 1.1-3v-1c-1.1 1.3-2.6 1.9-4.5 1.9-2.2 0-4-.9-5.4-2.6s-2.1-4-2.1-6.9v-.1zm4.9.3c0 1.7.3 3 1 3.9.7 1 1.6 1.4 2.8 1.4 1.5 0 2.6-.6 3.2-1.7v-7.8c-.7-1.1-1.7-1.7-3.2-1.7-1.2 0-2.1.5-2.8 1.5-.6 1.1-1 2.5-1 4.4zm21 9h-5v-26.3h5v26.3zm12.6.4c-2.7 0-4.9-.8-6.6-2.5s-2.6-3.9-2.6-6.6v-.5a11.48 11.48 0 0 1 1.1-5c.7-1.5 1.7-2.6 3.1-3.4 1.3-.8 2.8-1.2 4.5-1.2 2.5 0 4.5.8 6 2.4s2.2 3.9 2.2 6.8v2H433c.2 1.2.6 2.2 1.4 2.9s1.8 1.1 3.1 1.1c1.9 0 3.4-.7 4.5-2.1l2.4 2.7a7.47 7.47 0 0 1-3 2.5c-1.4.6-2.8.9-4.3.9zm-.6-15.2c-1 0-1.8.3-2.4 1s-1 1.6-1.2 2.8h6.9v-.4c0-1.1-.3-1.9-.9-2.5-.5-.6-1.3-.9-2.4-.9zm36.3 5.8c0 2.8-.6 5.1-1.9 6.8s-3 2.6-5.2 2.6c-1.9 0-3.4-.6-4.5-1.9v8.7h-4.9v-25.6h4.6l.2 1.8c1.2-1.4 2.8-2.2 4.7-2.2 2.3 0 4.1.8 5.3 2.5 1.3 1.7 1.9 4 1.9 7v.3zm-4.9-.4c0-1.7-.3-3-.9-4-.6-.9-1.5-1.4-2.7-1.4-1.5 0-2.6.6-3.2 1.8v7.6c.6 1.2 1.7 1.8 3.2 1.8 2.4 0 3.6-1.9 3.6-5.8z"/><use xlink:href="#Aq" x="190.5"/><path d="M495.7 1013.9c0-.7.2-1.4.7-1.8.5-.5 1.2-.7 2-.7s1.5.2 2 .7.8 1.1.8 1.8c0 .8-.3 1.4-.8 1.8a3.22 3.22 0 0 1-2 .7c-.8 0-1.5-.2-2-.7s-.7-1.1-.7-1.8zm5.2 23.2h-5v-18.5h5v18.5zm8.6-18.4l.2 2.1c1.3-1.7 3.1-2.5 5.3-2.5 2 0 3.4.6 4.4 1.7 1 1.2 1.4 2.9 1.5 5.2v11.9H516v-11.8c0-1-.2-1.8-.7-2.3s-1.2-.7-2.3-.7c-1.4 0-2.4.6-3.1 1.8v13H505v-18.5h4.5zm21-4.6v4.5h3.2v3.6h-3.2v9.2c0 .7.1 1.2.4 1.5s.8.4 1.5.4c.5 0 1 0 1.5-.1v3.7c-1 .3-2 .4-3 .4-3.5 0-5.2-1.7-5.3-5.2v-10h-2.7v-3.6h2.7v-4.5h4.9z"/><use xlink:href="#Aq" x="259.7"/><use xlink:href="#Ar"/><use xlink:href="#Ar" x="21.3"/><use xlink:href="#An" x="245.8" y="42"/><path d="M617.4 1013.9c0-.7.2-1.4.7-1.8.5-.5 1.2-.7 2-.7s1.5.2 2 .7.8 1.1.8 1.8c0 .8-.3 1.4-.8 1.8a3.22 3.22 0 0 1-2 .7c-.8 0-1.5-.2-2-.7s-.7-1.1-.7-1.8zm5.3 23.2h-5v-18.5h5v18.5zm9.3 0h-5v-26.3h5v26.3zm15.1-1.8c-1.2 1.5-2.9 2.2-5.1 2.2-2 0-3.5-.6-4.5-1.7s-1.6-2.8-1.6-5v-12.1h4.9v12c0 1.9.9 2.9 2.6 2.9s2.8-.6 3.5-1.7v-13.1h5v18.5h-4.6l-.2-2z"/><use xlink:href="#Am" x="314.9" y="42"/><path d="M676.6 1037.5c-2.7 0-4.9-.8-6.6-2.5s-2.6-3.9-2.6-6.6v-.5a11.48 11.48 0 0 1 1.1-5c.7-1.5 1.7-2.6 3.1-3.4 1.3-.8 2.8-1.2 4.5-1.2 2.5 0 4.5.8 6 2.4s2.2 3.9 2.2 6.8v2h-11.8c.2 1.2.6 2.2 1.4 2.9s1.8 1.1 3.1 1.1c1.9 0 3.4-.7 4.5-2.1l2.4 2.7a7.47 7.47 0 0 1-3 2.5c-1.4.6-2.8.9-4.3.9zm-.6-15.2c-1 0-1.8.3-2.4 1s-1 1.6-1.2 2.8h6.9v-.4c0-1.1-.3-1.9-.9-2.5-.5-.6-1.4-.9-2.4-.9z"/></g><g class="Ae"><path d="M305.4 57.9c-.4 5-2.2 9-5.6 11.9s-7.8 4.4-13.3 4.4c-6 0-10.7-2-14.2-6.1-3.4-4-5.2-9.6-5.2-16.7v-2.9c0-4.5.8-8.5 2.4-11.9s3.9-6.1 6.8-7.9c3-1.8 6.4-2.8 10.3-2.8 5.4 0 9.8 1.5 13.1 4.4s5.2 7 5.7 12.2h-9.7c-.2-3-1.1-5.2-2.5-6.6-1.5-1.4-3.7-2-6.6-2-3.2 0-5.6 1.2-7.2 3.5s-2.4 5.9-2.5 10.7v3.5c0 5.1.8 8.8 2.3 11.1s4 3.5 7.3 3.5c3 0 5.2-.7 6.7-2 1.5-1.4 2.3-3.5 2.5-6.3h9.7z"/><use xlink:href="#As"/><path d="M355.4 38.6l.3 4c2.5-3.1 5.8-4.7 10-4.7 3.7 0 6.4 1.1 8.3 3.3 1.8 2.2 2.7 5.4 2.8 9.7v22.5h-9.3V51.2c0-2-.4-3.4-1.3-4.3s-2.3-1.3-4.3-1.3c-2.6 0-4.6 1.1-5.9 3.4v24.6h-9.3v-35h8.7zm39.5-8.6v8.6h6v6.8h-6v17.4c0 1.3.2 2.2.7 2.8s1.4.8 2.8.8c1 0 1.9-.1 2.7-.2v7.1c-1.8.6-3.7.8-5.6.8-6.5 0-9.9-3.3-10-9.9V45.4h-5.1v-6.8h5.1V30h9.4zm30.8 17.3c-1.3-.2-2.4-.3-3.4-.3-3.5 0-5.8 1.2-6.9 3.6v22.8h-9.3V38.6h8.8l.3 4.2c1.9-3.2 4.5-4.8 7.8-4.8 1 0 2 .1 2.9.4l-.2 8.9zm23.7 26.2c-.4-.8-.7-1.9-.9-3.1-2.3 2.5-5.2 3.8-8.8 3.8-3.4 0-6.2-1-8.5-3-2.2-2-3.4-4.5-3.4-7.5 0-3.7 1.4-6.5 4.1-8.5s6.7-3 11.9-3h4.3v-2c0-1.6-.4-2.9-1.2-3.9s-2.1-1.5-3.9-1.5c-1.6 0-2.8.4-3.7 1.1-.9.8-1.3 1.8-1.3 3.1h-9.3c0-2 .6-3.9 1.9-5.6 1.2-1.7 3-3.1 5.3-4 2.3-1 4.8-1.5 7.7-1.5 4.3 0 7.7 1.1 10.2 3.2 2.5 2.2 3.8 5.2 3.8 9.1v15.1c0 3.3.5 5.8 1.4 7.5v.5h-9.6zm-7.7-6.5c1.4 0 2.6-.3 3.8-.9s2-1.4 2.6-2.5v-6h-3.5c-4.7 0-7.1 1.6-7.4 4.8v.5c0 1.2.4 2.1 1.2 2.9.7.8 1.9 1.2 3.3 1.2zm32.7 6.5H465V24h9.3v49.5zm7.6-43.9c0-1.4.5-2.5 1.4-3.4s2.2-1.4 3.8-1.4 2.9.5 3.8 1.4a4.76 4.76 0 0 1 1.4 3.4c0 1.4-.5 2.6-1.4 3.5-1 .9-2.2 1.4-3.8 1.4s-2.8-.5-3.8-1.4-1.4-2.1-1.4-3.5zm9.9 43.9h-9.3V38.6h9.3v34.9zm18.4-7.5h17v7.5h-28.9v-5.7l16.4-21.7h-15.9v-7.5h27.9v5.5L510.3 66z"/><use xlink:href="#As" x="221.5"/><path d="M566.9 55.8c0-5.4 1.2-9.8 3.7-13 2.4-3.2 5.8-4.8 10-4.8 3.4 0 6.2 1.3 8.4 3.8V24h9.3v49.5h-8.4l-.5-3.7c-2.3 2.9-5.3 4.4-9 4.4-4.1 0-7.4-1.6-9.9-4.9-2.4-3.3-3.6-7.8-3.6-13.5zm9.3.7c0 3.3.6 5.8 1.7 7.5s2.8 2.6 5 2.6c2.9 0 4.9-1.2 6.1-3.6V49.2c-1.2-2.4-3.2-3.6-6-3.6-4.6-.1-6.8 3.6-6.8 10.9z"/></g><defs ><path id="AN" d="M285.6 227.8c-.5-.1-.9-.1-1.2-.1-1.3 0-2.2.4-2.6 1.3v8.5h-3.5v-13h3.3l.1 1.5c.7-1.2 1.7-1.8 2.9-1.8.4 0 .7.1 1.1.2l-.1 3.4z"/><path id="AO" d="M305.7 237.8c-1.9 0-3.5-.6-4.7-1.8s-1.8-2.7-1.8-4.7v-.3c0-1.3.3-2.5.8-3.5a6.11 6.11 0 0 1 2.1-2.4c.9-.6 2-.8 3.2-.8 1.8 0 3.2.6 4.2 1.7s1.5 2.7 1.5 4.8v1.4h-8.3c.1.8.5 1.5 1 2 .6.5 1.3.8 2.1.8 1.3 0 2.4-.5 3.1-1.5l1.7 1.9c-.5.7-1.2 1.3-2.1 1.7s-1.7.7-2.8.7zm-.4-10.7a2.19 2.19 0 0 0-1.7.7c-.4.5-.7 1.1-.8 2h4.8v-.3c0-.8-.2-1.4-.6-1.8s-1-.6-1.7-.6z"/><path id="AP" d="M770 711.7c0-1.3.2-2.4.7-3.4s1.2-1.8 2.1-2.3c.9-.6 2-.8 3.2-.8 1.8 0 3.2.5 4.3 1.6s1.7 2.5 1.9 4.4v.9c0 2-.6 3.6-1.7 4.8s-2.6 1.8-4.5 1.8-3.4-.6-4.5-1.8-1.7-2.8-1.7-4.9v-.3zm3.5.2c0 1.2.2 2.2.7 2.8.5.7 1.1 1 2 1 .8 0 1.5-.3 2-1 .5-.6.7-1.7.7-3.1 0-1.2-.2-2.1-.7-2.8s-1.1-1-2-1c-.8 0-1.5.3-2 1s-.7 1.7-.7 3.1z"/><path id="AQ" d="M860.4 718.5c-1.9 0-3.5-.6-4.7-1.8s-1.8-2.7-1.8-4.7v-.3c0-1.3.3-2.5.8-3.5a6.11 6.11 0 0 1 2.1-2.4c.9-.6 2-.8 3.2-.8 1.8 0 3.2.6 4.2 1.7s1.5 2.7 1.5 4.8v1.4h-8.3c.1.8.5 1.5 1 2 .6.5 1.3.8 2.1.8 1.3 0 2.4-.5 3.1-1.5l1.7 1.9c-.5.7-1.2 1.3-2.1 1.7s-1.7.7-2.8.7zm-.4-10.7a2.19 2.19 0 0 0-1.7.7c-.4.5-.7 1.1-.8 2h4.8v-.3c0-.8-.2-1.4-.6-1.8s-.9-.6-1.7-.6z"/><path id="AR" d="M822.3 421.1h-9.8a3.76 3.76 0 0 0-3.7 3.7v4.9a3.76 3.76 0 0 0 3.7 3.7h9.8a3.76 3.76 0 0 0 3.7-3.7v-4.9c-.1-2-1.7-3.7-3.7-3.7zm1.2 8.6c0 .7-.6 1.2-1.2 1.2h-9.8c-.7 0-1.2-.6-1.2-1.2v-4.9c0-.7.6-1.2 1.2-1.2h9.8c.7 0 1.2.6 1.2 1.2v4.9z"/><path id="AS" d="M845.6 421.1h-9.8a3.76 3.76 0 0 0-3.7 3.7v4.9a3.76 3.76 0 0 0 3.7 3.7h9.8a3.76 3.76 0 0 0 3.7-3.7v-4.9a3.76 3.76 0 0 0-3.7-3.7zm1.2 8.6c0 .7-.5 1.2-1.2 1.2h-9.8c-.7 0-1.2-.6-1.2-1.2v-4.9c0-.7.5-1.2 1.2-1.2h9.8c.7 0 1.2.6 1.2 1.2v4.9z"/><path id="AT" d="M835.8 379.4a4.91 4.91 0 0 0-4.9 4.9 4.91 4.91 0 0 0 4.9 4.9 4.91 4.91 0 0 0 4.9-4.9 4.91 4.91 0 0 0-4.9-4.9zm0 7.3c-1.4 0-2.5-1.1-2.5-2.5s1.1-2.5 2.5-2.5 2.5 1.1 2.5 2.5-1.2 2.5-2.5 2.5z"/><path id="AU" d="M831.3 409.6l1.1 2c.5.9 1.5 1.2 2.4.7.3-.2.5-.4.7-.7l1.1-2 2-1.1c.9-.5 1.2-1.5.7-2.4-.2-.3-.4-.5-.7-.7l-2-1.1-1.1-2c-.5-.9-1.5-1.2-2.4-.7-.3.2-.5.4-.7.7l-1.1 2-2 1.1c-.9.5-1.2 1.5-.7 2.4.2.3.4.5.7.7l2 1.1zm1.5-3.2c.2-.1.4-.3.5-.5l.6-1.2.6 1.2c.1.2.3.4.5.5l1.2.6-1.2.6c-.2.1-.4.3-.5.5l-.6 1.2-.6-1.2c-.1-.2-.3-.4-.5-.5l-1.2-.6 1.2-.6z"/><path id="AV" d="M856.9 404.8l-2.3-1.3-1.3-2.3h0c-.5-.9-1.6-1.2-2.5-.7-.3.2-.6.4-.7.7l-1.3 2.3-2.3 1.3c-.9.5-1.2 1.6-.7 2.5.2.3.4.6.7.7l2.3 1.3 1.3 2.3c.5.9 1.6 1.2 2.5.7.3-.2.6-.4.7-.7l1.3-2.3 2.3-1.3c.9-.5 1.2-1.6.7-2.5a1.21 1.21 0 0 0-.7-.7h0zm-3.8 2.5c-.2.1-.4.3-.5.5l-.9 1.6-.9-1.6c-.1-.2-.3-.4-.5-.5l-1.6-.9 1.6-.9c.2-.1.4-.3.5-.5l.9-1.6.9 1.6c.1.2.3.4.5.5l1.6.9-1.6.9z"/><path id="AW" d="M804.4 464a1.1 1.1 0 0 0-.6-1 8.84 8.84 0 0 0-2-.7c-3.1-.6-4.6-2-4.6-3.9 0-1.2.5-2.1 1.4-2.9 1-.8 2.2-1.2 3.8-1.2s3 .4 4 1.2 1.5 1.8 1.5 3h-3.5c0-.5-.2-.9-.5-1.2s-.8-.5-1.5-.5c-.6 0-1 .1-1.4.4s-.5.6-.5 1 .2.7.5.9 1 .4 1.8.6l2.2.6c1.8.7 2.7 1.8 2.7 3.5 0 1.2-.5 2.1-1.5 2.9-1 .7-2.3 1.1-3.9 1.1-1.1 0-2.1-.2-2.9-.6s-1.5-.9-2-1.6-.7-1.4-.7-2.2h3.3a1.75 1.75 0 0 0 .7 1.4c.4.3 1 .5 1.7.5s1.2-.1 1.5-.4c.3-.2.5-.5.5-.9z"/><path id="AX" d="M838.7 463c0-.7-.2-1.2-.7-1.6s-1.3-.7-2.6-1.2c-1.2-.4-2.2-.8-3-1.2-2-1.1-3-2.5-3-4.3 0-.9.3-1.8.8-2.5s1.3-1.3 2.3-1.7 2.1-.6 3.4-.6c1.2 0 2.4.2 3.3.7 1 .5 1.7 1.1 2.3 1.9s.8 1.8.8 2.8h-3.6c0-.8-.3-1.4-.8-1.9-.5-.4-1.2-.7-2.1-.7s-1.6.2-2.1.6-.7.9-.7 1.5.3 1 .9 1.4 1.4.7 2.5 1.1c2 .6 3.5 1.4 4.5 2.3.9.9 1.4 2 1.4 3.4 0 1.5-.6 2.7-1.7 3.6s-2.7 1.3-4.6 1.3c-1.3 0-2.6-.2-3.7-.7a6.34 6.34 0 0 1-2.5-2c-.6-.9-.9-1.8-.9-3h3.6c0 1.9 1.2 2.9 3.5 2.9.9 0 1.5-.2 2-.5.5-.5.7-1 .7-1.6z"/><path id="AY" d="M848.7 451.4v3.2h2.2v2.5h-2.2v6.5c0 .5.1.8.3 1s.5.3 1.1.3c.4 0 .7 0 1-.1v2.6c-.7.2-1.4.3-2.1.3-2.4 0-3.7-1.2-3.7-3.7v-7h-1.9v-2.5h1.9v-3.2h3.4z"/><path id="AZ" d="M860.4 467.5c-.2-.3-.3-.7-.3-1.2-.8.9-1.9 1.4-3.3 1.4a4.96 4.96 0 0 1-3.2-1.1c-.8-.7-1.3-1.7-1.3-2.8 0-1.4.5-2.4 1.5-3.2s2.5-1.1 4.4-1.1h1.6v-.7c0-.6-.2-1.1-.5-1.4-.3-.4-.8-.5-1.5-.5-.6 0-1 .1-1.4.4-.3.3-.5.7-.5 1.2h-3.5c0-.8.2-1.4.7-2.1.5-.6 1.1-1.1 2-1.5.8-.4 1.8-.5 2.9-.5 1.6 0 2.9.4 3.8 1.2s1.4 1.9 1.4 3.4v5.6c0 1.2.2 2.2.5 2.8v.2h-3.3zm-2.9-2.4c.5 0 1-.1 1.4-.3s.8-.5 1-.9v-2.2h-1.3c-1.7 0-2.7.6-2.8 1.8v.2c0 .4.2.8.5 1.1.3.2.7.3 1.2.3z"/><path id="Aa" d="M874.3 451.2c0-.5.2-.9.5-1.3.3-.3.8-.5 1.4-.5s1.1.2 1.4.5c.4.3.5.8.5 1.3s-.2 1-.5 1.3c-.4.3-.8.5-1.4.5s-1.1-.2-1.4-.5-.5-.8-.5-1.3zm3.7 16.3h-3.5v-13h3.5v13z"/><path id="Ab" d="M880.3 460.9c0-1.3.2-2.4.7-3.4s1.2-1.8 2.1-2.3c.9-.6 2-.8 3.2-.8 1.8 0 3.2.5 4.3 1.6s1.7 2.5 1.9 4.4v.9c0 2-.6 3.6-1.7 4.8s-2.6 1.8-4.5 1.8-3.4-.6-4.5-1.8-1.7-2.8-1.7-4.9v-.3zm3.5.3c0 1.2.2 2.2.7 2.8.5.7 1.1 1 2 1 .8 0 1.5-.3 2-1 .5-.6.7-1.7.7-3.1 0-1.2-.2-2.1-.7-2.8s-1.1-1-2-1c-.8 0-1.5.3-2 1s-.7 1.7-.7 3.1z"/><path id="Ac" d="M897.9 454.6l.1 1.5c.9-1.2 2.2-1.7 3.7-1.7 1.4 0 2.4.4 3.1 1.2s1 2 1 3.6v8.4h-3.5v-8.3c0-.7-.2-1.3-.5-1.6s-.9-.5-1.6-.5c-1 0-1.7.4-2.2 1.2v9.2h-3.5v-13h3.4z"/><path id="Ad" d="M615.2 148.5c-2.4 0-4.3 1.9-4.3 4.3s1.9 4.3 4.3 4.3 4.3-1.9 4.3-4.3-1.9-4.3-4.3-4.3zm0 6.1a1.79 1.79 0 1 1 0-3.6 1.79 1.79 0 1 1 0 3.6z"/><path id="Ae" d="M107.7 732c0-.7-.2-1.2-.7-1.6s-1.3-.7-2.6-1.2c-1.2-.4-2.2-.8-3-1.2-2-1.1-3-2.5-3-4.3 0-.9.3-1.8.8-2.5s1.3-1.3 2.3-1.7 2.1-.6 3.4-.6c1.2 0 2.4.2 3.3.7 1 .5 1.7 1.1 2.3 1.9s.8 1.8.8 2.8h-3.6c0-.8-.3-1.4-.8-1.9-.5-.4-1.2-.7-2.1-.7s-1.6.2-2.1.6-.7.9-.7 1.5.3 1 .9 1.4 1.4.7 2.5 1.1c2 .6 3.5 1.4 4.5 2.3.9.9 1.4 2 1.4 3.4 0 1.5-.6 2.7-1.7 3.6s-2.7 1.3-4.6 1.3c-1.3 0-2.6-.2-3.7-.7a6.34 6.34 0 0 1-2.5-2c-.6-.8-.9-1.8-.9-3h3.6c0 1.9 1.2 2.9 3.5 2.9.9 0 1.5-.2 2-.5.5-.5.7-1 .7-1.6z"/><path id="Af" d="M382.6 576.1c-.1 1.9-.8 3.4-2.1 4.5s-3 1.7-5.1 1.7c-2.3 0-4.1-.8-5.4-2.3s-2-3.7-2-6.4v-1.1c0-1.7.3-3.2.9-4.5s1.5-2.3 2.6-3 2.4-1 3.9-1c2.1 0 3.7.6 5 1.7s2 2.7 2.2 4.7h-3.7c-.1-1.2-.4-2-1-2.5s-1.4-.8-2.5-.8c-1.2 0-2.1.4-2.8 1.3s-.9 2.2-.9 4.1v1.4c0 1.9.3 3.3.9 4.2s1.5 1.3 2.8 1.3c1.1 0 2-.3 2.5-.8.6-.5.9-1.3 1-2.4h3.7z"/><path id="Ag" d="M416.7 565.5v3.3h2.3v2.6h-2.3v6.6c0 .5.1.8.3 1.1s.5.3 1.1.3c.4 0 .7 0 1-.1v2.7c-.7.2-1.4.3-2.1.3-2.5 0-3.8-1.3-3.8-3.8v-7.2h-1.9v-2.6h1.9v-3.3h3.5z"/><path id="Ah" d="M465.9 602.2c-.5-.1-.9-.1-1.3-.1-1.3 0-2.2.5-2.6 1.4v8.7h-3.5v-13.3h3.4l.1 1.6c.7-1.2 1.7-1.8 3-1.8.4 0 .8.1 1.1.2l-.2 3.3z"/><path id="Ai" d="M411.9 539.2c0 1.4-1.1 2.5-2.5 2.5s-2.5-1.1-2.5-2.5 1.1-2.5 2.5-2.5 2.5 1.1 2.5 2.5z"/><path id="Aj" d="M287.3 986.9c-.2 2.7-1.2 4.8-3 6.3s-4.1 2.3-7 2.3c-3.2 0-5.7-1.1-7.5-3.2s-2.7-5.1-2.7-8.8V982c0-2.4.4-4.5 1.3-6.3.8-1.8 2-3.2 3.6-4.2s3.4-1.5 5.5-1.5c2.9 0 5.2.8 6.9 2.3 1.8 1.5 2.8 3.7 3 6.5h-5.1c-.1-1.6-.6-2.8-1.3-3.5-.8-.7-1.9-1.1-3.5-1.1-1.7 0-3 .6-3.8 1.8s-1.3 3.1-1.3 5.7v1.9c0 2.7.4 4.7 1.2 5.9s2.1 1.9 3.9 1.9c1.6 0 2.8-.4 3.5-1.1.8-.7 1.2-1.8 1.3-3.4h5z"/><path id="Ak" d="M313.8 976.7l.2 2.1c1.3-1.7 3.1-2.5 5.3-2.5 2 0 3.4.6 4.4 1.7 1 1.2 1.4 2.9 1.5 5.2v11.9h-4.9v-11.8c0-1-.2-1.8-.7-2.3s-1.2-.7-2.3-.7c-1.4 0-2.4.6-3.1 1.8v13h-4.9v-18.5h4.5z"/><path id="Al" d="M334.7 972.1v4.5h3.2v3.6h-3.2v9.2c0 .7.1 1.2.4 1.5s.8.4 1.5.4c.5 0 1 0 1.5-.1v3.7c-1 .3-2 .4-3 .4-3.5 0-5.2-1.7-5.3-5.2v-10h-2.7v-3.6h2.7V972h4.9z"/><path id="Am" d="M351.1 981.3c-.7-.1-1.3-.1-1.8-.1-1.9 0-3.1.6-3.7 1.9v12.1h-4.9v-18.5h4.7l.1 2.2c1-1.7 2.4-2.5 4.1-2.5.5 0 1.1.1 1.5.2v4.7z"/><path id="An" d="M363.6 995.1c-.2-.4-.4-1-.5-1.7-1.2 1.3-2.8 2-4.7 2-1.8 0-3.3-.5-4.5-1.6-1.2-1-1.8-2.4-1.8-4 0-2 .7-3.5 2.2-4.5s3.6-1.6 6.3-1.6h2.3v-1.1c0-.9-.2-1.5-.7-2.1-.4-.5-1.1-.8-2.1-.8-.8 0-1.5.2-2 .6s-.7.9-.7 1.6h-4.9c0-1.1.3-2.1 1-3s1.6-1.6 2.8-2.1a10.7 10.7 0 0 1 4.1-.8c2.3 0 4.1.6 5.4 1.7s2 2.8 2 4.8v8c0 1.8.3 3.1.7 4v.3h-4.9zm-4.1-3.4c.7 0 1.4-.2 2-.5s1.1-.8 1.4-1.3v-3.2h-1.8c-2.5 0-3.8.9-3.9 2.6v.3c0 .6.2 1.1.6 1.5s1 .6 1.7.6z"/><path id="Ao" d="M436.9 971.9c0-.7.2-1.4.7-1.8.5-.5 1.2-.7 2-.7s1.5.2 2 .7.8 1.1.8 1.8c0 .8-.3 1.4-.8 1.8-.5.5-1.2.7-2 .7s-1.5-.2-2-.7-.7-1.1-.7-1.8zm5.2 23.2h-5v-18.5h5v18.5z"/><path id="Ap" d="M659.5 995.5c-2.7 0-4.9-.8-6.6-2.5s-2.6-3.9-2.6-6.6v-.5a11.48 11.48 0 0 1 1.1-5c.7-1.5 1.7-2.6 3.1-3.4 1.3-.8 2.8-1.2 4.5-1.2 2.5 0 4.5.8 6 2.4s2.2 3.9 2.2 6.8v2h-11.8c.2 1.2.6 2.2 1.4 2.9s1.8 1.1 3.1 1.1c1.9 0 3.4-.7 4.5-2.1l2.4 2.7a7.47 7.47 0 0 1-3 2.5c-1.4.6-2.8.9-4.3.9zm-.6-15.2c-1 0-1.8.3-2.4 1s-1 1.6-1.2 2.8h6.9v-.4c0-1.1-.3-1.9-.9-2.5-.5-.6-1.3-.9-2.4-.9z"/><path id="Aq" d="M284.6 1027.7c0-1.8.4-3.5 1.1-4.9a7.59 7.59 0 0 1 3.1-3.3c1.3-.8 2.9-1.2 4.6-1.2 2.5 0 4.5.8 6.1 2.3s2.5 3.6 2.6 6.2v1.3c0 2.8-.8 5.1-2.4 6.8s-3.7 2.6-6.4 2.6-4.8-.9-6.4-2.6-2.4-4-2.4-7v-.2zm5 .4c0 1.8.3 3.1 1 4s1.6 1.4 2.8 1.4 2.1-.5 2.8-1.4 1-2.4 1-4.4c0-1.7-.3-3.1-1-4s-1.6-1.4-2.8-1.4-2.1.5-2.8 1.4-1 2.4-1 4.4z"/><path id="Ar" d="M566.2 1037.1v-14.9h-2.8v-3.6h2.8v-1.6c0-2.1.6-3.7 1.8-4.8s2.9-1.7 5-1.7c.7 0 1.5.1 2.5.3l-.1 3.8c-.4-.1-.9-.2-1.5-.2-1.9 0-2.8.9-2.8 2.6v1.5h3.7v3.6h-3.7v14.9h-4.9z"/><path id="As" d="M327.2 74.1c-5.1 0-9.3-1.6-12.5-4.7s-4.8-7.3-4.8-12.5V56c0-3.5.7-6.6 2-9.4 1.4-2.8 3.3-4.9 5.8-6.4s5.3-2.2 8.5-2.2c4.8 0 8.5 1.5 11.3 4.5 2.7 3 4.1 7.3 4.1 12.8v3.8h-22.2c.3 2.3 1.2 4.1 2.7 5.5s3.4 2.1 5.8 2.1c3.6 0 6.4-1.3 8.4-3.9l4.6 5.1c-1.4 2-3.3 3.5-5.7 4.6s-5.1 1.6-8 1.6zm-1.1-28.6c-1.8 0-3.3.6-4.5 1.9-1.1 1.3-1.9 3-2.2 5.4h13V52c0-2.1-.6-3.7-1.7-4.8-1.1-1.2-2.6-1.7-4.6-1.7z"/></defs></svg>