<svg xmlns="http://www.w3.org/2000/svg" version="1.1" xmlns:xlink="http://www.w3.org/1999/xlink" xmlns:svgjs="http://svgjs.com/svgjs" width="512" height="512" x="0" y="0" viewBox="0 0 64 64" style="enable-background:new 0 0 512 512" xml:space="preserve" class=""><g><g xmlns="http://www.w3.org/2000/svg" id="_21-Consultant" data-name="21-Consultant"><path d="m1 9v38a2 2 0 0 0 2 2h44a2 2 0 0 0 2-2v-38z" fill="#f4f4f4" data-original="#f4f4f4"></path><path d="m5 47v-38h-4v38a2 2 0 0 0 2 2h4a2 2 0 0 1 -2-2z" fill="#cfd9dc" data-original="#cfd9dc" class=""></path><path d="m49 3a2 2 0 0 0 -2-2h-44a2 2 0 0 0 -2 2v6h48z" fill="#314a66" data-original="#314a66"></path><path d="m7 1h-4a2 2 0 0 0 -2 2v6h4v-6a2 2 0 0 1 2-2z" fill="#263540" data-original="#263540" class=""></path><path d="m33.36 7.64a8.99 8.99 0 0 0 -13.842 1.36h14.961a8.916 8.916 0 0 0 -1.119-1.36z" fill="#263540" data-original="#263540" class=""></path><path d="m41.66 43a64.263 64.263 0 0 0 -1.32-7.67c-.2-.85-.34-1.33-.34-1.33l-5-1-3-.6-2-.4v-3.68a6.97 6.97 0 0 0 4-6.32v-1h1a2.006 2.006 0 0 0 2-2v-2h-1v-3a8.946 8.946 0 0 0 -1.521-5h-14.961a8.954 8.954 0 0 0 -1.518 5v3h-1v2a2.006 2.006 0 0 0 2 2h1v1a6.958 6.958 0 0 0 2.05 4.95 6.868 6.868 0 0 0 1.95 1.37v3.68l-2 .4-3 .6-5 1s-.14.48-.34 1.33a64.263 64.263 0 0 0 -1.32 7.67 56.292 56.292 0 0 0 -.34 6h30a56.292 56.292 0 0 0 -.34-6z" fill="#cfd9dc" data-original="#cfd9dc" class=""></path><path d="m40 49h-15v-3l8-2-2-3 2-1v-7l5 1s.14.48.34 1.33a64.263 64.263 0 0 1 1.32 7.67 56.292 56.292 0 0 1 .34 6z" fill="#3d5c9e" data-original="#3d5c9e"></path><path d="m35 17v2a2.006 2.006 0 0 1 -2 2h-1v-4z" fill="#e09380" data-original="#e09380"></path><path d="m34 14v3h-2c-11 0-11-3-11-3a2.938 2.938 0 0 1 -3 3h-2v-3a9 9 0 0 1 18 0z" fill="#966857" data-original="#966857"></path><path d="m21 12a2.938 2.938 0 0 1 -3 3h-2v2h2a2.938 2.938 0 0 0 3-3s0 3 11 3h2v-2h-2c-11 0-11-3-11-3z" fill="#8d5c4d" data-original="#8d5c4d"></path><path d="m33 33v7l-2 1 2 3-8 2c4-4 5-12 5-12v-1.6z" fill="#7ea8c2" data-original="#7ea8c2"></path><path d="m28 28.32a7.017 7.017 0 0 1 -7.95-1.37 6.958 6.958 0 0 1 -2.05-4.95v-5a2.938 2.938 0 0 0 3-3s0 3 11 3v5a6.97 6.97 0 0 1 -4 6.32zm0-6.32h-6a3 3 0 0 0 6 0z" fill="#ffbeaa" data-original="#ffbeaa"></path><path d="m30 32.4v1.6l-3 3-2-2 3-3z" fill="#acaeaf" data-original="#acaeaf"></path><path d="m27 37 3-3s-1 8-5 12v-11z" fill="#f4f4f4" data-original="#f4f4f4"></path><path d="m28 28.32v3.68l-3 3-3-3v-3.68a6.958 6.958 0 0 0 6 0z" fill="#e09380" data-original="#e09380"></path><path d="m22 22h6a3 3 0 0 1 -6 0z" fill="#ff475a" data-original="#ff475a"></path><path d="m25 22h-3a2.974 2.974 0 0 0 .415 1.5 2.982 2.982 0 0 1 2.585-1.5z" fill="#d1093a" data-original="#d1093a"></path><path d="m27.585 23.5a2.974 2.974 0 0 0 .415-1.5h-3a2.982 2.982 0 0 1 2.585 1.5z" fill="#d1093a" data-original="#d1093a"></path><path d="m25 46v3h-15a56.292 56.292 0 0 1 .34-6 64.263 64.263 0 0 1 1.32-7.67c.2-.85.34-1.33.34-1.33l5-1v7l2 1-2 3z" fill="#314a66" data-original="#314a66"></path><path d="m25 35v11c-4-4-5-12-5-12l3 3z" fill="#cfd9dc" data-original="#cfd9dc" class=""></path><path d="m25 35-2 2-3-3v-1.6l2-.4z" fill="#acaeaf" data-original="#acaeaf"></path><path d="m25 46-8-2 2-3-2-1v-7l3-.6v1.6s1 8 5 12z" fill="#7ea8c2" data-original="#7ea8c2"></path><path d="m18 17v4h-1a2.006 2.006 0 0 1 -2-2v-2z" fill="#e09380" data-original="#e09380"></path><path d="m61 14h-20a2 2 0 0 0 -2 2v8a2 2 0 0 0 2 2h3v3l3-3h14a2 2 0 0 0 2-2v-8a2 2 0 0 0 -2-2z" fill="#ffd03e" data-original="#ffd03e"></path><path d="m41 24v-8a2 2 0 0 1 2-2h-2a2 2 0 0 0 -2 2v8a2 2 0 0 0 2 2h2a2 2 0 0 1 -2-2z" fill="#f7941d" data-original="#f7941d"></path><path d="m46 26h-2v3l2-2z" fill="#f7941d" data-original="#f7941d"></path><circle cx="44" cy="20" fill="#fe7f2d" r="2" data-original="#fe7f2d"></circle><circle cx="51" cy="20" fill="#fe7f2d" r="2" data-original="#fe7f2d"></circle><circle cx="58" cy="20" fill="#fe7f2d" r="2" data-original="#fe7f2d"></circle><path d="m52 56-2 2-2-2v-1.43l2-.57z" fill="#f4f4f4" data-original="#f4f4f4"></path><path d="m56 54.57v1.43l-2 2-2-2 2-2z" fill="#f4f4f4" data-original="#f4f4f4"></path><path d="m60 55.71 1 .29s1.39 0 1.85 4.04a26.887 26.887 0 0 1 .15 2.96h-11v-7l2 2 2-2v-1.43z" fill="#e3a76f" data-original="#e3a76f"></path><path d="m44 55.71 4-1.14v1.43l2 2 2-2v7h-11a26.887 26.887 0 0 1 .15-2.96c.46-4.04 1.85-4.04 1.85-4.04z" fill="#f2bb88" data-original="#f2bb88"></path><path d="m54 51.59v2.41l-2 2-2-2v-2.41a5.083 5.083 0 0 0 4 0z" fill="#faa68e" data-original="#faa68e"></path><path d="m48 54.57-4 1.14c.03-6.79 1-9.78 1-14.71a7 7 0 1 1 14 0c0 4.93.97 7.92 1 14.71l-4-1.14-2-.57v-2.41a5.029 5.029 0 0 0 3-4.59v-3c-5 0-5-3-5-3 0 3-5 3-5 3v3a5.022 5.022 0 0 0 1.46 3.54 5.131 5.131 0 0 0 1.54 1.05v2.41z" fill="#263540" data-original="#263540" class=""></path><path d="m57 42c-5 0-5-3-5-3 0 3-5 3-5 3v2s5 0 5-3c0 0 0 3 5 3z" fill="#202d35" data-original="#202d35"></path><path d="m54 51.59a5 5 0 0 1 -5.54-1.05 5.022 5.022 0 0 1 -1.46-3.54v-3s5 0 5-3c0 0 0 3 5 3v3a5.029 5.029 0 0 1 -3 4.59z" fill="#ffbeaa" data-original="#ffbeaa"></path><path d="m52 41c0 3-5 3-5 3v2s5 0 5-3c0 0 0 3 5 3v-2c-5 0-5-3-5-3z" fill="#faa68e" data-original="#faa68e"></path><path d="m33 57v-2a2 2 0 0 0 -2-2h-22a2 2 0 0 0 -2 2v6a2 2 0 0 0 2 2h22a2 2 0 0 0 2-2v-1h3z" fill="#ffd03e" data-original="#ffd03e"></path><path d="m9 61v-6a2 2 0 0 1 2-2h-2a2 2 0 0 0 -2 2v6a2 2 0 0 0 2 2h2a2 2 0 0 1 -2-2z" fill="#f7941d" data-original="#f7941d"></path><g fill="#54addd"><path d="m4 4h2v2h-2z" fill="#54addd" data-original="#54addd"></path><path d="m8 4h2v2h-2z" fill="#54addd" data-original="#54addd"></path><path d="m12 4h2v2h-2z" fill="#54addd" data-original="#54addd"></path><path d="m44 4h2v2h-2z" fill="#54addd" data-original="#54addd"></path></g><path d="m10 57h2v2h-2z" fill="#fe7f2d" data-original="#fe7f2d"></path><path d="m14 57h16v2h-16z" fill="#fe7f2d" data-original="#fe7f2d"></path></g></g></svg>