<svg xmlns="http://www.w3.org/2000/svg" version="1.1" xmlns:xlink="http://www.w3.org/1999/xlink" xmlns:svgjs="http://svgjs.com/svgjs" width="512" height="512" x="0" y="0" viewBox="0 0 53 53" style="enable-background:new 0 0 512 512" xml:space="preserve" class=""><g transform="matrix(1.1,0,0,1.1,-2.650000023841862,-2.6500001192092917)"><g xmlns="http://www.w3.org/2000/svg" id="_x34_2"><g><g><g><path d="m9.513 15.4h34.867v30.943h-34.867z" fill="#b5b5ea" data-original="#b5b5ea" class=""></path></g></g><g><g><path d="m50.5 47.0222282v2.8124084c0 .3778763-.3063316.6842079-.6842079.6842079h-46.1290412c-.377877 0-.6842067-.3063316-.6842067-.6842079v-2.8124084c0-.3778763.3063297-.6842079.6842067-.6842079h46.1290398c.3778777 0 .6842093.3063317.6842093.6842079z" fill="#deddff" data-original="#deddff" class=""></path></g></g><g><g><g><path d="m14.8192511 43.4205856v2.9174347h-9.7130828v-2.9174347c0-.3280525.2659383-.5939903.5939903-.5939903h8.5251026c.3280511 0 .5939899.2659378.5939899.5939903z" fill="#deddff" data-original="#deddff" class=""></path></g></g><g><g><path d="m14.8192511 17.2283344v2.9174347c0 .3280506-.2659388.5939903-.5939903.5939903h-8.5251022c-.328052 0-.5939903-.2659397-.5939903-.5939903v-2.9174347z" fill="#deddff" data-original="#deddff" class=""></path></g></g><g><g><path d="m6.211 20.742h7.504v22.085h-7.504z" fill="#deddff" data-original="#deddff" class=""></path></g></g></g><g><g><path d="m49.3567734 17.2304668h-45.7171443c-1.1775599 0-1.578233-1.5704823-.5446-2.1346188l22.858572-12.475749c.3394356-.1852567.7497654-.1852567 1.089201 0l22.858572 12.475749c1.0336349.5641366.632962 2.1346188-.5446007 2.1346188z" fill="#deddff" data-original="#deddff" class=""></path></g></g><g><g><path d="m49.3582726 17.2299118h-45.7134784c-1.1404877 0-1.5443606-1.4374104-.6771579-2.043292.5596781.4103088-2.1351883.1264963 46.3906364.2138271.2732849 0 .4990005-.0831671.6771545-.2138271.8672027.617773.4514388 2.043292-.6771546 2.043292z" fill="#c6c6f7" data-original="#c6c6f7" class=""></path></g></g><g><g><path d="m38.915947 13.9035797h-24.8288279c-.4989319 0-.665266-.6533747-.2257195-.8909855l12.4144144-6.7715049c.1425514-.0831676.3088856-.0831676.451437 0l12.4144154 6.7715049c.4276543.2376108.2613182.8909855-.2257194.8909855z" fill="#c6c6f7" data-original="#c6c6f7" class=""></path></g></g><g><g><g><path d="m48.3963776 43.4205856v2.9174347h-9.7130852v-2.9174347c0-.3280525.2659378-.5939903.5939903-.5939903h8.5251045c.3280487 0 .5939904.2659378.5939904.5939903z" fill="#deddff" data-original="#deddff" class=""></path></g></g><g><g><path d="m38.681 45.302h9.716v1.038h-9.716z" fill="#c6c6f7" data-original="#c6c6f7" class=""></path></g></g><g><g><path d="m5.106 45.302h9.716v1.038h-9.716z" fill="#c6c6f7" data-original="#c6c6f7" class=""></path></g></g><g><g><path d="m48.3963776 17.2283344v2.9174347c0 .3280506-.2659416.5939903-.5939903.5939903h-8.5251045c-.3280525 0-.5939903-.2659397-.5939903-.5939903v-2.9174347z" fill="#deddff" data-original="#deddff" class=""></path></g></g><g><g><path d="m39.788 20.742h7.504v22.085h-7.504z" fill="#deddff" data-original="#deddff" class=""></path></g></g><g><g><path d="m41.4225693 28.1950169v7.1710796c0 3.2411499 2.6274719 5.8686218 5.8686218 5.8686218h.0000038v1.5918541h-7.5080452v-22.0802116h7.5080452v1.5800343h-.0000038c-3.2411499-.0000001-5.8686218 2.6274719-5.8686218 5.8686218z" fill="#c6c6f7" data-original="#c6c6f7" class=""></path></g></g></g><g><g><path d="m7.8507676 28.1950169v7.1710796c0 3.2411499 2.6274714 5.8686218 5.8686223 5.8686218h.0000057v1.5918541h-7.5080471v-22.0802116h7.5080471v1.5800343h-.0000057c-3.2411508-.0000001-5.8686223 2.6274719-5.8686223 5.8686218z" fill="#c6c6f7" data-original="#c6c6f7" class=""></path></g></g></g><g><g><path d="m29.2099915 21.5064621v20.560009c0 .3313713-.2686291.5999985-.6000004.5999985h-4.2199821c-.3313713 0-.6000004-.2686272-.6000004-.5999985v-20.560009c0-.3313713.2686291-.6000004.6000004-.6000004h4.2199821c.3313713 0 .6000004.2686291.6000004.6000004z" fill="#312e4b" data-original="#312e4b" class=""></path></g></g><g><g><g><g><path d="m37.4357605 30.5893593c-.2503052-1.7660522-1.0846558-3.3652954-2.2944946-4.5890503-1.335022-1.376709-3.1428223-2.2806396-5.1314087-2.4613647-2.2077522-.1854401-4.4006786.4328613-6.2198486 2.0232544v12.4553833c1.2810059 1.1203003 2.8977661 1.8579712 4.6623535 2.0142212 2.8263092.2373009 5.5266457-.8957787 7.2868652-3.1149902 1.3546715-1.7272492 2.0251083-3.9467279 1.6965332-6.3274537z" fill="#fcb73e" data-original="#fcb73e"></path></g></g><g><g><path d="m23.7900085 28.5709267c1.0983906-2.5991783 3.487215-4.5706177 6.5396729-4.9902954-.1113281-.013916-.2085571-.027832-.3198242-.041687-2.2077522-.1854401-4.4006786.4328613-6.2198486 2.0232544v3.008728z" fill="#fd982e" data-original="#fd982e" class=""></path></g></g><g><g><path d="m23.7900085 34.9965248v3.0210571c1.2810059 1.1203003 2.8977661 1.8579712 4.6623535 2.0142212.6395874.055603 1.2654419.041687 1.8773193-.041748-2.9285277-.3702393-5.4114379-2.335022-6.5396728-4.9935303z" fill="#fd982e" data-original="#fd982e" class=""></path></g></g><g opacity=".2"><g><g><path d="m35.7392311 36.9168167c-1.1151123-1.2424698-3.0083122-1.9804192-4.1579723-3.2680321-.6813965-.7787514-1.1403294-1.8356457-.9178658-2.8507786.1807899-.8900242.8761044-1.5992603 1.6131802-2.1554623 1.0851059-.8139229 2.2478485-1.4085312 2.8646965-2.6422329 1.2098427 1.2237625 2.0441895 2.8230228 2.2944908 4.5890675.3277512 2.3741913-.3377762 4.5949708-1.6965294 6.3274384z" fill="#ffffff" data-original="#ffffff" class=""></path></g></g></g></g><g><g><path d="m32.112999 29.5637112c0-1.0184841-.8281822-1.8466682-1.8466663-1.8466682h-.716404v-.4896107c0-.2605114-.2115498-.4720612-.4720592-.4720612-.2605114 0-.4720612.2115498-.4720612.4720612v.4896107h-2.1251907c-.2605114 0-.4720612.2115498-.4720612.4720592 0 .2605114.2115498.4720612.4720612.4720612h.4891491v5.8665657h-.4891491c-.2605114 0-.4720612.2115479-.4720612.4720573s.2115498.4720612.4720612.4720612h2.1251907v.4891472c0 .2605133.2115498.4720612.4720612.4720612.2605095 0 .4720592-.2115479.4720592-.4720612v-.4891472h.716404c1.0184841 0 1.8466663-.8281822 1.8466663-1.8466682v-.6558952c0-.5228691-.2277145-1.0212555-.6267948-1.3750706.3990803-.3533516.6267948-.8512783.6267948-1.3750687zm-.9441185 3.4055729v.6558952c0 .4974632-.4050846.9025497-.9025478.9025497h-2.3524475v-2.4614563h2.3524475c.4974632 0 .9025478.4050866.9025478.9030114zm-.9025479-1.8471299h-2.3524475v-2.4609909h2.3524475c.4974632 0 .9025478.4050827.9025478.9025478v.6554337c.0000001.4979248-.4050845.9030094-.9025478.9030094z" fill="#ffffff" data-original="#ffffff" class=""></path></g></g></g></g></g></svg>