<svg xmlns="http://www.w3.org/2000/svg" version="1.1" xmlns:xlink="http://www.w3.org/1999/xlink" xmlns:svgjs="http://svgjs.com/svgjs" width="512" height="512" x="0" y="0" viewBox="0 0 501 501" style="enable-background:new 0 0 512 512" xml:space="preserve" class=""><g><path xmlns="http://www.w3.org/2000/svg" d="m490 256.002c-.001 128.538-98.988 233.956-224.89 244.185-5.145.418-9.865-2.813-11.362-7.753-35.523-117.204-127.978-209.658-245.181-245.182-4.94-1.497-8.171-6.217-7.753-11.362 10.228-125.902 115.646-224.889 244.185-224.89 135.115-.001 245.002 109.886 245.001 245.002z" fill="#f52c2c" data-original="#f52c2c"></path><path xmlns="http://www.w3.org/2000/svg" d="m495.142 268.902-231.391 231.391c-6.189.468-12.442.707-18.751.707-135.31 0-245-109.69-245-245 0-6.309.239-12.562.707-18.751l46.913-46.913 184.478-184.478c7.811-7.811 20.474-7.811 28.284 0l14.849 14.849c3.905 3.905 3.905 10.237 0 14.142l-7.071 7.071c-7.811 7.81-7.811 20.474 0 28.284l14.142 14.142c7.811 7.811 20.474 7.811 28.284 0l7.071-7.071c3.905-3.905 10.237-3.905 14.142 0l17.677 17.678c3.905 3.905 3.905 10.237 0 14.142l-7.071 7.071c-7.81 7.811-7.81 20.474 0 28.284l14.142 14.142c7.81 7.811 20.474 7.811 28.284 0l7.071-7.071c3.905-3.905 10.237-3.905 14.142 0l17.678 17.677c3.905 3.905 3.905 10.237 0 14.142l-7.071 7.071c-7.811 7.811-7.811 20.474 0 28.284l14.142 14.142c7.811 7.811 20.474 7.811 28.284 0l7.071-7.071c3.905-3.905 10.237-3.905 14.142 0l14.849 14.849c7.814 7.813 7.814 20.476.003 28.287z" fill="#fdbf43" data-original="#fdbf43"></path><path xmlns="http://www.w3.org/2000/svg" d="m4.924 305.112c-3.229-15.867-4.924-32.292-4.924-49.112 0-6.309.239-12.562.707-18.751l231.391-231.391c7.811-7.811 20.474-7.811 28.284 0l14.849 14.849c3.714 3.714 3.896 9.622.545 13.551l-218.2 218.201z" fill="#f4aa39" data-original="#f4aa39"></path><path xmlns="http://www.w3.org/2000/svg" d="m69.481 280.906c5.858 5.858 5.858 15.355 0 21.213l-14.142 14.142c-5.858 5.858-15.355 5.858-21.213 0l-28.285-28.284c-5.858-5.858-5.858-15.355 0-21.213l14.142-14.142c5.858-5.858 15.355-5.858 21.213 0zm84.852 84.852c-5.858-5.858-15.355-5.858-21.213 0l-14.142 14.142c-5.858 5.858-5.858 15.355 0 21.213l28.284 28.284c5.858 5.858 15.355 5.858 21.213 0l14.142-14.142c5.858-5.858 5.858-15.355 0-21.213zm120.209 21.214c-5.858-5.858-15.355-5.858-21.213 0l-14.142 14.142c-5.858 5.858-5.858 15.355 0 21.213l28.284 28.284c5.858 5.858 15.355 5.858 21.213 0l14.142-14.142c5.858-5.858 5.858-15.355 0-21.213zm-155.564-155.564-28.284-28.284c-5.858-5.858-15.355-5.858-21.213 0l-14.142 14.142c-5.858 5.858-5.858 15.355 0 21.213l28.284 28.284c5.858 5.858 15.355 5.858 21.213 0l14.142-14.142c5.858-5.858 5.858-15.355 0-21.213zm134.35 0c5.858-5.858 5.858-15.355 0-21.213l-28.284-28.284c-5.858-5.858-15.355-5.858-21.213 0l-14.142 14.142c-5.858 5.858-5.858 15.355 0 21.213l28.284 28.284c5.858 5.858 15.355 5.858 21.213 0zm-98.995-49.497c5.858 5.858 15.355 5.858 21.213 0l14.142-14.142c5.858-5.858 5.858-15.355 0-21.213l-28.284-28.284c-5.858-5.858-15.355-5.858-21.213 0l-14.142 14.142c-5.858 5.858-5.858 15.355 0 21.213zm226.275 155.563-28.284-28.284c-5.858-5.858-15.355-5.858-21.213 0l-14.142 14.142c-5.858 5.858-5.858 15.355 0 21.213l28.284 28.284c5.858 5.858 15.355 5.858 21.213 0l14.142-14.142c5.858-5.858 5.858-15.355 0-21.213z" fill="#fc9302" data-original="#fc9302"></path><path xmlns="http://www.w3.org/2000/svg" d="m176.584 133.451-35.355 35.355-15.18-15.18c-5.858-5.858-5.858-15.355 0-21.213l14.142-14.142c5.858-5.858 15.355-5.858 21.213 0zm-156.601 119.17-14.142 14.142c-5.858 5.858-5.858 15.355 0 21.213l8.109 8.109 35.355-35.355-8.109-8.109c-5.857-5.858-15.355-5.858-21.213 0zm49.498-49.497-14.142 14.142c-5.858 5.858-5.858 15.355 0 21.213l8.109 8.109 35.355-35.355-8.109-8.109c-5.858-5.858-15.355-5.858-21.213 0z" fill="#e27500" data-original="#e27500"></path><path xmlns="http://www.w3.org/2000/svg" d="m310.067 201.53-21.507 63.421c-4.314 12.721-2.092 26.75 5.942 37.515l40.052 53.671c3.372 4.518.099 10.941-5.538 10.869l-66.962-.856c-13.431-.172-26.087 6.277-33.843 17.244l-38.667 54.677c-3.255 4.603-10.375 3.475-12.049-1.908l-19.879-63.95c-3.987-12.827-14.031-22.87-26.858-26.858l-63.95-19.879c-5.384-1.673-6.511-8.794-1.908-12.049l54.677-38.667c10.967-7.756 17.415-20.411 17.244-33.843l-.856-66.962c-.072-5.637 6.351-8.91 10.869-5.538l53.671 40.052c10.765 8.034 24.794 10.255 37.515 5.942l63.421-21.507c5.339-1.811 10.437 3.287 8.626 8.626z" fill="#fdf385" data-original="#fdf385"></path><path xmlns="http://www.w3.org/2000/svg" d="m329.016 367.005-66.962-.856c-13.431-.172-26.087 6.277-33.842 17.244l-.739 1.044c-33.344-50.549-35.638-115.557-6.882-168.096 5.799.618 11.745-.003 17.43-1.931l63.42-21.507c5.339-1.81 10.437 3.287 8.626 8.626l-21.507 63.421c-4.314 12.721-2.092 26.75 5.942 37.515l40.052 53.671c3.372 4.518.099 10.941-5.538 10.869z" fill="#fdf7bd" data-original="#fdf7bd"></path></g></svg>