<svg xmlns="http://www.w3.org/2000/svg" version="1.1" xmlns:xlink="http://www.w3.org/1999/xlink" xmlns:svgjs="http://svgjs.com/svgjs" width="512" height="512" x="0" y="0" viewBox="0 0 499.35 499.35" style="enable-background:new 0 0 512 512" xml:space="preserve" class=""><g><g xmlns="http://www.w3.org/2000/svg"><g fill="#fcf0b6"><path d="m16.739 237.39c-8.511 0-15.41-6.899-15.41-15.41v-33.498c0-8.511 6.899-15.41 15.41-15.41h254.06c8.391 0 15.193 6.802 15.193 15.193v33.933c0 8.391-6.802 15.193-15.193 15.193h-254.06z" fill="#fcf0b6" data-original="#fcf0b6"></path><path d="m16.739 365.027c-8.511 0-15.41-6.899-15.41-15.41v-33.498c0-8.511 6.899-15.41 15.41-15.41h254.06c8.391 0 15.193 6.802 15.193 15.193v33.933c0 8.391-6.802 15.193-15.193 15.193h-254.06z" fill="#fcf0b6" data-original="#fcf0b6"></path><path d="m15.41 493.663c-8.511 0-15.41-6.899-15.41-15.41v-33.498c0-8.511 6.899-15.41 15.41-15.41h254.06c8.391 0 15.193 6.802 15.193 15.193v33.933c0 8.391-6.802 15.193-15.193 15.193h-254.06z" fill="#fcf0b6" data-original="#fcf0b6"></path></g><path d="m16.739 301.13c-8.511 0-15.41-6.899-15.41-15.41v-33.498c0-8.511 6.899-15.41 15.41-15.41h254.06c8.391 0 15.193 6.802 15.193 15.193v33.933c0 8.391-6.802 15.193-15.193 15.193h-254.06z" fill="#f5c374" data-original="#f5c374"></path><path d="m16.739 429.345c-8.511 0-15.41-6.899-15.41-15.41v-33.498c0-8.511 6.899-15.41 15.41-15.41h254.06c8.391 0 15.193 6.802 15.193 15.193v33.933c0 8.391-6.802 15.193-15.193 15.193h-254.06z" fill="#f5c374" data-original="#f5c374"></path><path d="m36.621 216.322c-8.511 0-15.41-6.9-15.41-15.411v-27.839h-4.472c-8.511 0-15.41 6.899-15.41 15.41v33.498c0 8.511 6.899 15.41 15.41 15.41h254.06c8.391 0 15.193-6.802 15.193-15.193v-5.876h-249.371z" fill="#fbe372" data-original="#fbe372"></path><path d="m36.621 343.958c-8.511 0-15.41-6.9-15.41-15.411v-27.839h-4.472c-8.511 0-15.41 6.899-15.41 15.41v33.498c0 8.511 6.899 15.41 15.41 15.41h254.06c8.391 0 15.193-6.802 15.193-15.193v-5.876h-249.371z" fill="#fbe372" data-original="#fbe372"></path><path d="m35.293 472.595c-8.511 0-15.41-6.9-15.41-15.411v-27.839h-4.473c-8.511 0-15.41 6.899-15.41 15.41v33.498c0 8.511 6.899 15.41 15.41 15.41h254.06c8.391 0 15.193-6.802 15.193-15.193v-5.876h-249.37z" fill="#fbe372" data-original="#fbe372"></path><path d="m36.621 280.061c-8.511 0-15.41-6.899-15.41-15.41v-27.84h-4.472c-8.511 0-15.41 6.899-15.41 15.41v33.498c0 8.511 6.899 15.41 15.41 15.41h254.06c8.391 0 15.193-6.802 15.193-15.193v-5.876h-249.371z" fill="#f3b658" data-original="#f3b658"></path><path d="m36.621 408.277c-8.511 0-15.41-6.9-15.41-15.411v-27.839h-4.472c-8.511 0-15.41 6.899-15.41 15.41v33.498c0 8.511 6.899 15.41 15.41 15.41h254.06c8.391 0 15.193-6.802 15.193-15.193v-5.876h-249.371z" fill="#f3b658" data-original="#f3b658"></path><circle cx="330.025" cy="325.854" fill="#fcf0b6" r="169.325" data-original="#fcf0b6"></circle><path d="m224.805 319.799c0-76.928 51.315-141.872 121.572-162.491-5.379-.515-10.838-.78-16.352-.78-93.516 0-169.325 75.81-169.325 169.325 0 93.516 75.809 169.325 169.325 169.325 16.588 0 32.607-2.382 47.757-6.828-85.847-8.222-152.977-80.549-152.977-168.551z" fill="#fbe88c" data-original="#fbe88c"></path><circle cx="330.026" cy="325.854" fill="#f5c374" r="133.014" data-original="#f5c374"></circle><path d="m288.664 452.286c-38.927-31.021-63.859-78.841-63.859-132.486 0-42.151 15.418-80.718 40.902-110.351-40.921 22.709-68.696 66.381-68.696 116.405.001 58.915 38.489 109.003 91.653 126.432z" fill="#f3b658" data-original="#f3b658"></path><path d="m372.858 317.511c6.326-6.572 10.228-15.492 10.228-25.313 0-18.566-13.923-33.929-31.874-36.225v-11.928c0-4.548-3.686-8.233-8.233-8.233-4.548 0-8.233 3.686-8.233 8.233v11.621h-17.223v-11.621c0-4.548-3.686-8.233-8.233-8.233s-8.233 3.686-8.233 8.233v11.621h-26.903c-4.548 0-8.233 3.686-8.233 8.233 0 4.548 3.686 8.233 8.233 8.233h7.611v106.52h-7.611c-4.548 0-8.233 3.686-8.233 8.233 0 4.548 3.686 8.233 8.233 8.233 0 0 20.446-.012 26.903-.029v12.574c0 4.548 3.686 8.233 8.233 8.233s8.233-3.686 8.233-8.233v-12.617c5.801-.015 11.801-.029 17.223-.042v12.659c0 4.548 3.686 8.233 8.233 8.233s8.233-3.686 8.233-8.233v-12.691c.621-.001 1.153-.001 1.581-.001 22.793 0 41.337-18.544 41.337-41.337.001-15.515-8.596-29.054-21.272-36.123zm-6.238-25.313c0 11.064-9.002 20.066-20.066 20.066-2.619 0-48.323.033-48.323.033v-40.165h48.323c11.065 0 20.066 9.001 20.066 20.066zm-13.827 86.307c-6.807 0-39.118.084-54.563.124v-49.795c7.765-.019 54.563-.071 54.563-.071 13.714 0 24.871 11.157 24.871 24.871s-11.156 24.871-24.871 24.871z" fill="#fcf0b6" data-original="#fcf0b6"></path><g><g><g><path d="m125.081 147.887c-3.729 0-7.333-1.39-10.103-3.913l-29.654-27.022c-2.327-2.12-2.494-5.726-.374-8.053l12.527-13.747c2.12-2.327 5.726-2.494 8.053-.374l17.938 16.346c.292.266.746.243 1.01-.051l94.01-105.003c2.1-2.346 5.704-2.545 8.049-.445l13.857 12.407c2.345 2.1 2.544 5.704.445 8.049l-104.349 116.551c-2.703 3.019-6.451 4.989-10.495 5.227-.305.018-.61.028-.914.028z" fill="#e5827f" data-original="#e5827f"></path></g></g></g></g></g></svg>