<svg xmlns="http://www.w3.org/2000/svg" version="1.1" xmlns:xlink="http://www.w3.org/1999/xlink" xmlns:svgjs="http://svgjs.com/svgjs" width="512" height="512" x="0" y="0" viewBox="0 0 256 256" style="enable-background:new 0 0 512 512" xml:space="preserve" class=""><g transform="matrix(1.0599999999999998,0,0,1.0599999999999998,-7.680003433227512,-7.680007095336862)"><g xmlns="http://www.w3.org/2000/svg"><g><g><path d="m119.474 9.902-90.121 42.129c-7.662 3.58-12.366 11.744-11.812 20.474 1.567 24.521 7.508 74.787 30.003 112.283 28.375 47.298 63.609 59.678 75.941 62.673 2.976.719 6.057.719 9.031 0 12.332-2.996 47.566-15.375 75.941-62.673 22.497-37.496 28.435-87.766 30.002-112.283.555-8.729-4.153-16.893-11.812-20.474l-90.121-42.129c-5.423-2.536-11.632-2.536-17.052 0z" fill="#377de2" data-original="#377de2" class=""></path></g><g><path d="m72.748 217.265c21.369 21.099 41.914 28.053 50.737 30.196 1.488.359 3.001.539 4.515.539v-240c-2.908 0-5.815.634-8.525 1.902l-46.727 21.843z" fill="#478cf7" data-original="#478cf7" class=""></path></g><g><path d="m226.647 52.031-43.396-20.286v185.521c8.5-8.393 17.13-19.017 25.205-32.478 22.497-37.496 28.435-87.766 30.002-112.283.556-8.73-4.152-16.894-11.811-20.474z" fill="#2266d3" data-original="#2266d3"></path></g><g><path d="m121.442 37.158-69.322 32.406c-5.894 2.754-9.512 9.034-9.086 15.749 1.205 18.862 5.775 57.527 23.078 86.369 21.826 36.382 48.928 45.904 58.415 48.209 2.289.553 4.659.553 6.947 0 9.486-2.304 36.588-11.827 58.414-48.209 17.305-28.842 21.872-67.51 23.078-86.369.427-6.715-3.194-12.995-9.086-15.749l-69.322-32.405c-4.171-1.952-8.947-1.952-13.116-.001z" fill="#e6e7e8" data-original="#e6e7e8" class=""></path></g><g><path d="m203.88 69.564-16.476-7.702c3.754 3.241 5.895 8.209 5.562 13.451-1.205 18.859-5.773 57.527-23.078 86.369-21.827 36.382-48.928 45.904-58.415 48.209-2.288.553-4.657.553-6.947 0-1.238-.301-2.783-.729-4.571-1.319 10.686 7.212 19.829 10.167 24.571 11.319 2.289.553 4.659.553 6.947 0 9.486-2.304 36.588-11.827 58.415-48.209 17.305-28.842 21.872-67.51 23.078-86.369.427-6.715-3.194-12.995-9.086-15.749z" fill="#d1d3d4" data-original="#d1d3d4"></path></g><g><path d="m52.691 183.702c-.68 0-1.342-.347-1.717-.972-19.198-32-26.261-73.187-28.805-102.104-.097-1.1.717-2.071 1.817-2.167 1.093-.102 2.071.716 2.167 1.817 2.507 28.499 9.444 69.051 28.25 100.397.568.947.261 2.176-.686 2.744-.321.192-.676.285-1.026.285zm-29.142-109.233c-1.047 0-1.927-.814-1.994-1.873l-.022-.345c-.07-1.103.767-2.053 1.869-2.123 1.113-.062 2.053.767 2.123 1.869l.022.345c.07 1.103-.767 2.053-1.869 2.123-.043.003-.087.004-.129.004z" fill="#5e9cf7" data-original="#5e9cf7" class=""></path></g></g><g><g><path d="m77.579 88.709c12.356-12.356 32.389-12.356 44.745 0l5.676 5.677 5.676-5.676c12.356-12.356 32.389-12.356 44.745 0 12.356 12.356 12.356 32.389 0 44.745l-5.676 5.676-38.57 38.57c-3.41 3.41-8.939 3.41-12.349 0l-38.57-38.57-5.676-5.676c-12.357-12.357-12.357-32.39-.001-44.746z" fill="#d10028" data-original="#d10028" class=""></path></g><g><path d="m77.579 88.709c12.356-12.356 32.389-12.356 44.745 0l5.676 5.677 5.676-5.676c12.356-12.356 32.389-12.356 44.745 0 12.356 12.356 12.356 32.389 0 44.745l-5.676 5.676-38.57 38.57c-3.41 3.41-8.939 3.41-12.349 0l-38.57-38.57-5.676-5.676c-12.357-12.357-12.357-32.39-.001-44.746z" fill="#d10028" data-original="#d10028" class=""></path></g><g><g><path d="m178.421 88.709c-5.356-5.356-12.154-8.386-19.143-9.099 11.486 12.41 11.205 31.782-.857 43.844l-5.676 5.676-38.57 38.57c-.402.402-.835.753-1.289 1.06l8.94 8.94c3.41 3.41 8.939 3.41 12.349 0l38.57-38.57 5.676-5.676c12.356-12.356 12.356-32.389 0-44.745z" fill="#b7022d" data-original="#b7022d"></path></g></g><g><path d="m108.381 149.248c.14 0 .28-.007.421-.021 1.657-.167 3.059-1.295 3.575-2.877l10.225-31.328 10.635 18.654c.767 1.346 2.165 2.175 3.763 2.12 1.548-.04 2.95-.93 3.645-2.315l6.336-12.613 3.916 4.932c.797 1.005 2.01 1.59 3.292 1.59h10.722c2.322 0 4.203-1.882 4.203-4.203 0-2.322-1.882-4.203-4.203-4.203h-8.692l-6.747-8.498c-.892-1.125-2.296-1.718-3.723-1.568-1.427.147-2.68 1.012-3.325 2.295l-5.77 11.484-11.451-20.086c-.823-1.445-2.414-2.265-4.077-2.1-1.654.168-3.055 1.296-3.57 2.877l-10.217 31.301-7.701-13.576c-.746-1.316-2.143-2.13-3.656-2.13h-34.574c-2.322 0-4.203 1.882-4.203 4.203 0 2.322 1.882 4.203 4.203 4.203h32.127l11.191 19.728c.751 1.327 2.153 2.131 3.655 2.131z" fill="#ffc91d" data-original="#ffc91d"></path></g></g></g></g></svg>