<svg xmlns="http://www.w3.org/2000/svg" version="1.1" xmlns:xlink="http://www.w3.org/1999/xlink" xmlns:svgjs="http://svgjs.com/svgjs" width="512" height="512" x="0" y="0" viewBox="0 0 50 50" style="enable-background:new 0 0 512 512" xml:space="preserve" class=""><g transform="matrix(1.04,0,0,1.04,-0.9999999618530211,-0.9999999618530211)"><g xmlns="http://www.w3.org/2000/svg" id="XMLID_11771_"><g id="XMLID_10634_"><g id="XMLID_11759_"><path d="m36.733 8.622h-27.746c-1.806 0-3.27 1.464-3.27 3.27v33.834c0 1.806 1.464 3.27 3.27 3.27h27.747c1.806 0 3.27-1.464 3.27-3.27v-33.834c-.001-1.806-1.465-3.27-3.271-3.27z" fill="#666666" data-original="#666666" class=""></path></g><g id="XMLID_11778_"><path d="m32.549 28.337h1.365v20.658h-1.365z" fill="#e6e6e6" data-original="#e6e6e6" class=""></path></g><g id="XMLID_11780_"><path d="m26.489 24.496v18.558h1.365v-17.993l3.658-3.658v-12.781h-1.365v12.216z" fill="#e6e6e6" data-original="#e6e6e6" class=""></path></g><g id="XMLID_11782_"><path d="m20.279 43.572v-10.454h-1.365v11.02l2.485 2.485v2.372h1.366v-2.937z" fill="#e6e6e6" data-original="#e6e6e6" class=""></path></g><g id="XMLID_11784_"><path d="m12.756 22.893v16.423h1.366v-16.988l-2.85-2.85v-10.856h-1.365v11.422z" fill="#e6e6e6" data-original="#e6e6e6" class=""></path></g><g id="XMLID_11650_"><g id="XMLID_10614_"><circle cx="33.233" cy="28.337" fill="#e6e6e6" r="2.581" data-original="#e6e6e6" class=""></circle></g><g id="XMLID_11415_"><circle cx="33.232" cy="28.337" fill="#515151" r="1.379" data-original="#515151" class=""></circle></g></g><g id="XMLID_11766_"><g id="XMLID_11794_"><circle cx="40.709" cy="40.695" fill="#3ab7fc" r="8.31" data-original="#3ab7fc"></circle></g><g id="XMLID_11793_"><circle cx="40.709" cy="40.695" fill="#ffffff" r="6.764" data-original="#ffffff" class=""></circle></g><g id="XMLID_11788_"><path d="m43.925 41.206c-.147-.456-.539-.666-.966-.813-.032-.011-.065-.018-.097-.029-.004-.001-.005-.011-.009-.02.118-.097.245-.187.354-.294.503-.499.424-1.686-.355-2.198-.219-.145-.764-.38-1.39-.38v-1.399h-.862v1.351h-.657v-1.351h-.863v1.394h-1.7v.908c.178 0 .359-.002.54.001.404.006.554.158.554.562v3.512c0 .344-.095.438-.437.44-.163.001-.326 0-.499 0-.056.334-.109.648-.167.993h1.709v1.436h.863v-1.384h.657v1.384h.863v-1.404c.307-.04.606-.062.897-.119.481-.095.952-.241 1.266-.648.449-.588.523-1.254.299-1.942zm-3.968-2.755c.495-.029.978-.047 1.445.123.357.13.556.397.55.733-.005.329-.215.592-.576.713-.457.152-.927.14-1.419.129zm1.826 4.236c-.586.236-1.2.211-1.826.199v-1.882c.613.004 1.209-.057 1.783.163.385.148.588.399.595.749.007.37-.157.612-.552.771z" fill="#3ab7fc" data-original="#3ab7fc"></path></g></g><g id="XMLID_11739_"><g id="XMLID_11741_"><circle cx="27.172" cy="43.054" fill="#e6e6e6" r="2.581" data-original="#e6e6e6" class=""></circle></g><g id="XMLID_11740_"><circle cx="27.172" cy="43.054" fill="#515151" r="1.379" data-original="#515151" class=""></circle></g></g><g id="XMLID_11742_"><g id="XMLID_11752_"><circle cx="19.597" cy="33.118" fill="#e6e6e6" r="2.581" data-original="#e6e6e6" class=""></circle></g><g id="XMLID_11743_"><circle cx="19.597" cy="33.118" fill="#515151" r="1.379" data-original="#515151" class=""></circle></g></g><g id="XMLID_11755_"><g id="XMLID_11758_"><circle cx="13.439" cy="39.316" fill="#e6e6e6" r="2.581" data-original="#e6e6e6" class=""></circle></g><g id="XMLID_11756_"><circle cx="13.439" cy="39.316" fill="#515151" r="1.379" data-original="#515151" class=""></circle></g></g><g id="XMLID_11777_"><path d="m26.319 8.052h-6.919c-.301 0-.545.244-.545.545v10.816c0 2.169 1.624 4.112 3.789 4.226 2.309.121 4.22-1.715 4.22-3.998v-11.044c.001-.301-.243-.545-.545-.545z" fill="#515151" data-original="#515151" class=""></path></g><g id="XMLID_11769_"><circle cx="22.86" cy="20.028" fill="#ffcc66" r="2.087" data-original="#ffcc66"></circle></g><g id="XMLID_11770_"><circle cx="22.86" cy="20.028" fill="#515151" r="1.051" data-original="#515151" class=""></circle></g></g><g id="XMLID_11659_"><g id="XMLID_11787_"><circle cx="9.291" cy="9.305" fill="#ed7161" r="8.31" data-original="#ed7161" class=""></circle></g><g id="XMLID_11786_"><circle cx="9.291" cy="9.305" fill="#ffffff" r="6.764" data-original="#ffffff" class=""></circle></g><g id="XMLID_11776_"><g id="XMLID_11783_"><path d="m6.507 8.447 2.784-1.202 2.783 1.201-2.783-4.684z" fill="#ed7161" data-original="#ed7161" class=""></path></g><g id="XMLID_11781_"><path d="m7.01 11.613 2.281 3.236 2.28-3.237-2.281 1.37z" fill="#ed7161" data-original="#ed7161" class=""></path></g><g id="XMLID_11779_"><path d="m5.717 9.778 3.574 2.144 3.574-2.145-3.574-1.543z" fill="#ed7161" data-original="#ed7161" class=""></path></g></g></g></g></g></svg>