<svg xmlns="http://www.w3.org/2000/svg" version="1.1" xmlns:xlink="http://www.w3.org/1999/xlink" xmlns:svgjs="http://svgjs.com/svgjs" width="512" height="512" x="0" y="0" viewBox="0 0 511.275 511.275" style="enable-background:new 0 0 512 512" xml:space="preserve" class=""><g><g xmlns="http://www.w3.org/2000/svg"><g><path d="m506.908 259.504c0-139.049-112.722-251.771-251.771-251.771-96.888 0-156.572 54.651-156.736 54.743 0 0-2.481 3.097-2.945 5.156-3.77 16.734-7.292 39.161-7.292 55.526 0 139.049 117.259 251.743 256.308 251.743 53.544 0 113.117-25.663 152.987-56.518.892-.69 3.722-5.328 3.722-5.328.175-1.072 5.727-23.179 5.727-53.551z" fill="#e5f6fd" data-original="#e5f6fd"></path><path d="m344.45 367.794c-139.049 0-247.091-112.207-247.091-251.256 0-18.379-2.698-36.802 1.042-54.062-57.902 46.129-95.034 117.243-95.034 197.028 0 32.001 5.971 62.608 16.858 90.768l372.119 120.336c54.419-35.417 94.504-91.392 108.837-157.553-43.008 34.257-97.474 54.739-156.731 54.739z" fill="#cce1fe" data-original="#cce1fe" class=""></path></g><g><path d="m254.362 474.008v-159.274l-59.76-13.224-51.665 11.467v161.031z" fill="#dcd2cd" data-original="#dcd2cd"></path><g><g><g><path d="m195.14 376.99c-19.472 0-35.256-15.785-35.256-35.256v-78.969h70.513v78.969c0 19.471-15.785 35.256-35.257 35.256z" fill="#e09380" data-original="#e09380"></path></g></g></g><g><g><g><path d="m230.397 306.861v-39.728h-70.513v39.728c0 19.472 15.785 35.256 35.256 35.256 19.472.001 35.257-15.784 35.257-35.256z" fill="#d27f6c" data-original="#d27f6c"></path></g></g></g><g><g><g><path d="m318.703 168.345c0 12.961-10.507 23.469-23.469 23.469h-6.224v-59.495h6.224c12.961 0 23.469 10.507 23.469 23.469z" fill="#e09380" data-original="#e09380"></path></g></g></g><g><g><g><path d="m295.235 172.452v-20.77c4.525 0 8.193 3.668 8.193 8.193v4.384c0 4.524-3.668 8.193-8.193 8.193z" fill="#dd5ca2" data-original="#dd5ca2"></path></g></g></g><g><g><g><path d="m70.587 168.345c0 12.961 10.507 23.469 23.469 23.469h5.434l1.659-59.495h-7.092c-12.961 0-23.469 10.507-23.469 23.469v12.557z" fill="#e09380" data-original="#e09380"></path></g></g></g><g><g><g><path d="m85.833 164.266c0 4.541 3.681 8.222 8.222 8.222v-20.845c-4.541 0-8.222 3.681-8.222 8.222z" fill="#dd5ca2" data-original="#dd5ca2"></path></g></g></g><path d="m295.235 112.061c0-55.554-45.035-100.589-100.589-100.589-.938 0-1.874.013-2.806.039-40.581 1.112-72.597 35.014-72.597 75.611v142.367c0 .773.012 1.544.035 2.313 1.209 40.325 34.823 72.152 75.164 72.521l13.867.127c49.057-6.447 86.926-48.416 86.926-99.233z" fill="#edbc83" data-original="#edbc83"></path><g><g><g><path d="m151.893 167.812v7.058c0 4.604 3.733 8.337 8.337 8.337s8.337-3.733 8.337-8.337v-7.058z" fill="#e09380" data-original="#e09380"></path></g></g></g><g><g><g><path d="m219.82 167.812v7.058c0 4.604 3.733 8.337 8.337 8.337s8.337-3.733 8.337-8.337v-7.058z" fill="#e09380" data-original="#e09380"></path></g></g></g><path d="m208.308 304.445c-49.467-6.446-87.888-48.751-87.888-100.219v-92.165c0-51.086 38.083-93.273 87.407-99.73-4.314-.565-8.713-.86-13.182-.86-55.554 0-100.589 45.035-100.589 100.589v92.165c0 55.579 44.803 100.481 99.939 101.07.122.002.242.011.364.012.26.002.521.003.781.003 1.794 0 3.576-.049 5.347-.143.026-.001.052-.002.078-.003-.002 0-.003-.001-.005-.002 2.611-.139 5.194-.382 7.748-.717z" fill="#e09380" data-original="#e09380"></path><g><g><g><path d="m160.229 176.53c-4.604 0-8.337-3.733-8.337-8.337v-10.723l3.073-4.654-3.073-4.654v-2.77c0-4.604 3.733-8.337 8.337-8.337s8.337 3.733 8.337 8.337v22.8c0 4.605-3.733 8.338-8.337 8.338z" fill="#20396b" data-original="#20396b" class=""></path></g></g></g><g><g><g><path d="m228.156 176.53c-4.604 0-8.337-3.733-8.337-8.337v-10.723l3.073-4.654-3.073-4.654v-2.77c0-4.604 3.733-8.337 8.337-8.337s8.337 3.733 8.337 8.337v22.8c0 4.605-3.733 8.338-8.337 8.338z" fill="#20396b" data-original="#20396b" class=""></path></g></g></g><g><path d="m225.837 222.65h-8.584l-22.608 4.694-22.608-4.694h-7.594c-2.547 0-4.583 2.223-4.243 4.748.65 4.83 2.278 9.35 4.679 13.354l45.776 13.566c10.338-5.075 17.828-15.063 19.424-26.919.341-2.525-1.695-4.749-4.242-4.749z" fill="#c4237c" data-original="#c4237c"></path></g><g><g><g><path d="m181.632 188.364c-2.072 8.276 1.694 17.29 8.897 20.008 1.449.547 3 .843 4.611.843s3.162-.296 4.611-.843c7.203-2.717 10.969-11.732 8.897-20.008l-6.87-27.435c-1.73-6.907-11.545-6.907-13.275 0z" fill="#e09380" data-original="#e09380"></path></g></g></g><g><path d="m154.966 160.543c-1.697 0-3.073-1.376-3.073-3.073v-9.307c0-1.697 1.376-3.073 3.073-3.073 1.697 0 3.073 1.376 3.073 3.073v9.307c0 1.697-1.376 3.073-3.073 3.073z" fill="#ffffff" data-original="#ffffff"></path></g><g><path d="m222.893 160.543c-1.697 0-3.073-1.376-3.073-3.073v-9.307c0-1.697 1.376-3.073 3.073-3.073 1.697 0 3.073 1.376 3.073 3.073v9.307c0 1.697-1.376 3.073-3.073 3.073z" fill="#ffffff" data-original="#ffffff"></path></g><g><path d="m164.883 240.75c6.16 10.276 17.404 17.157 30.257 17.157 5.568 0 10.831-1.295 15.513-3.594-2.012-12.625-12.947-22.276-26.14-22.276-7.785.001-14.785 3.362-19.63 8.713z" fill="#db387e" data-original="#db387e"></path></g><g><path d="m212.279 232.038h-35.268c-2.747 0-4.973-2.227-4.973-4.973v-4.414h45.215v4.414c0 2.746-2.227 4.973-4.974 4.973z" fill="#ffffff" data-original="#ffffff"></path></g><path d="m281.726 7.733h-116.843v43.681c0 33.9 27.482 61.382 61.382 61.382h15.781c15.134 0 28.979-5.487 39.68-14.567z" fill="#e09380" data-original="#e09380"></path><path d="m94.055 112.796h26.459c29.027 0 52.557-23.531 52.557-52.557v-52.506h-26.459c-29.027 0-52.557 23.531-52.557 52.557z" fill="#e09380" data-original="#e09380"></path><path d="m273.996 33.566h21.239v138.886c-11.73 0-21.239-9.509-21.239-21.239z" fill="#20396b" data-original="#20396b" class=""></path><path d="m94.055 105.063 21.239-71.497v117.647c0 11.73-9.509 21.239-21.239 21.239z" fill="#20396b" data-original="#20396b" class=""></path><path d="m303.428 43.681c0 33.9-27.482 61.382-61.382 61.382h-15.781c-33.9 0-61.382-27.482-61.382-61.382v-43.681h138.544v43.681z" fill="#26447e" data-original="#26447e"></path><path d="m94.055 105.063h26.459c29.027 0 52.557-23.531 52.557-52.557v-52.506h-26.459c-29.027 0-52.557 23.531-52.557 52.557z" fill="#20396b" data-original="#20396b" class=""></path><g><g><g><g><path d="m171.213 128.005h-24.312c-4.604 0-8.337-3.732-8.337-8.337 0-4.604 3.732-8.337 8.337-8.337h24.312c4.604 0 8.337 3.732 8.337 8.337-.001 4.605-3.733 8.337-8.337 8.337z" fill="#26447e" data-original="#26447e"></path></g></g></g></g><g><g><g><g><path d="m240.685 128.005h-24.312c-4.604 0-8.337-3.732-8.337-8.337 0-4.604 3.732-8.337 8.337-8.337h24.312c4.604 0 8.337 3.732 8.337 8.337 0 4.605-3.733 8.337-8.337 8.337z" fill="#26447e" data-original="#26447e"></path></g></g></g></g><path d="m392.343 403.133c0-32.991-22.339-62.804-55.682-70.188l-82.692-18.298-59.333 155.626-59.324-155.603-82.207 18.246c-12.799 2.842-23.96 8.995-32.866 17.35 36.421 94.195 127.851 161.009 234.898 161.009 50.396 0 97.597-14.89 137.206-40.668z" fill="#20396b" data-original="#20396b" class=""></path><path d="m201.415 473.658 12.298-57.388c1.044-4.872-.43-9.942-3.924-13.494l-14.911-15.162-15.108 15.17c-3.531 3.545-5.034 8.634-3.996 13.529l12.156 57.345z" fill="#6e64c2" data-original="#6e64c2"></path><path d="m158.667 306.898 36.481 63.57-30.575 20.279-47.96-73.096z" fill="#ffffff" data-original="#ffffff"></path><path d="m231.63 306.832-36.751 63.636 29.717 20.279 48.819-73.096z" fill="#ffffff" data-original="#ffffff"></path><path d="m194.879 370.468 20.507 13.993-20.75 13.994-20.525-13.994z" fill="#6e64c2" data-original="#6e64c2"></path><g fill="#26447e"><path d="m134.681 313.031-63.474 11.691c-3.102.571-4.508 4.215-2.593 6.722l32.129 42.069c.519.68 1.232 1.186 2.045 1.452l30.254 9.899-12.142 7.002c-2.242 1.293-2.806 4.28-1.189 6.302l86.7 108.377c.81.159 1.62.315 2.432.466z" fill="#26447e" data-original="#26447e"></path><path d="m254.488 313.031 63.474 11.691c3.102.571 4.508 4.215 2.593 6.722l-32.129 42.069c-.519.68-1.232 1.186-2.045 1.452l-30.254 9.899 12.237 7.058c2.209 1.274 2.795 4.2 1.247 6.226l-67.964 88.992-11.359-7.202z" fill="#26447e" data-original="#26447e"></path><path d="m264.626 454.841h56.801v18.817h-56.801z" fill="#26447e" data-original="#26447e"></path></g></g><g><g><g><path d="m377.424 235.649c-28.043 0-45.317 15.818-45.365 15.845 0 0-.718.896-.852 1.492-1.091 4.843-2.111 11.334-2.111 16.071 0 40.245 33.939 72.863 74.184 72.863 15.498 0 32.74-7.428 44.279-16.358.258-.2 1.077-1.542 1.077-1.542.051-.311 1.658-6.709 1.658-15.5 0-40.246-32.625-72.871-72.87-72.871z" fill="#f5de46" data-original="#f5de46"></path></g><g><g><path d="m448.637 324.019c-12.448 9.915-28.212 15.843-45.363 15.843-40.245 0-72.871-32.625-72.871-72.871 0-5.32.574-10.503 1.656-15.498-.002.001.002-.001 0 0-16.759 13.351-27.506 33.934-27.506 57.026 0 40.245 32.625 72.871 72.871 72.871 34.626 0 64.045-24.284 71.213-57.371z" fill="#efc250" data-original="#efc250"></path></g></g></g><g><path d="m381.575 235.769-50.381 50.381c5.098 20.461 19.105 37.557 37.528 47.225l67.669-67.67c-12.486-17.166-32.282-28.67-54.816-29.936z" fill="#fce265" data-original="#fce265"></path></g><g><path d="m332.588 284.755-27.915 27.915c1.266 22.535 12.77 42.331 29.937 54.816l35.561-35.561c-18.499-9.449-32.423-26.571-37.583-47.17z" fill="#fcd06d" data-original="#fcd06d"></path></g><g><path d="m374.315 343.422c-12.126-.404-22.029-6.669-22.029-13.136 0-3.436 3.031-8.488 6.871-8.488 4.244 0 7.68 5.962 15.157 7.275v-16.37c-9.297-3.537-20.21-7.882-20.21-20.816 0-12.833 9.498-18.997 20.21-20.513v-2.83c0-1.415 1.617-2.728 3.84-2.728 1.92 0 3.84 1.314 3.84 2.728v2.526c6.265.202 18.088 1.819 18.088 8.791 0 2.728-1.819 8.286-6.265 8.286-3.335 0-5.254-3.234-11.823-3.739v14.753c9.195 3.436 19.906 8.185 19.906 21.826 0 12.53-8.084 20.109-19.906 22.029v2.931c0 1.415-1.92 2.728-3.84 2.728-2.223 0-3.84-1.314-3.84-2.728v-2.525zm1.01-46.684v-12.025c-4.547.91-6.467 3.234-6.467 5.659 0 2.93 2.627 4.749 6.467 6.366zm5.659 18.694v13.54c3.436-.809 6.164-2.729 6.164-6.366 0-3.334-2.526-5.456-6.164-7.174z" fill="#fbf490" data-original="#fbf490"></path></g><g><path d="m440.95 261.147-53.513-31.241c-3.279-.414-6.621-.627-10.013-.627-30.494 0-49.278 17.2-49.33 17.229-18.224 14.518-29.91 36.9-29.91 62.011 0 3.25.196 6.455.576 9.602l31.292 53.924c13.214 9.87 29.611 15.714 47.372 15.714 37.653 0 69.643-26.407 77.437-62.385.055-.338 1.802-7.295 1.802-16.854 0-17.762-5.843-34.159-15.713-47.373zm-4.804 59.825c-.029.131-.063.283-.099.457-2.886 13.183-10.277 25.148-20.82 33.703-10.653 8.644-24.079 13.405-37.804 13.405-12.41 0-23.953-3.786-33.533-10.264-22.642-9.176-34.176-34.438-26.281-57.558l.512-1.5c2.292-14.77 10.011-28.161 21.95-37.673.256-.204.509-.416.76-.637.12-.106 10.458-9.041 27.279-11.679 2.916-.457 6.027-.725 9.314-.725l33.765-4.572 15.962 31.017c6.494 9.588 10.291 21.145 10.291 33.573-.001 4.203-.473 8.742-1.296 12.453z" fill="#fbf490" data-original="#fbf490"></path></g><g><g><path d="m322.47 332.645-9.451-5.071 4.424-16.931c-.025-.705-.037-1.413-.037-2.124 0-3.146.248-6.253.721-9.302l-19.315 19.315c.389 3.083.954 6.11 1.687 9.072l7.633 19.383c5.466 9.826 12.962 18.367 21.92 25.059l13.8-13.8c-9.328-6.318-16.793-15.189-21.382-25.601z" fill="#fff8b3" data-original="#fff8b3"></path></g><g><path d="m415.891 239.227-19.383-7.633c-2.962-.732-5.989-1.298-9.072-1.687l-19.325 19.325c2.917-.458 6.025-.731 9.313-.731.711 0 1.419.012 2.124.037l16.425-4.609 5.577 9.636c10.412 4.589 19.282 12.054 25.6 21.382l13.8-13.8c-6.692-8.958-15.234-16.454-25.059-21.92z" fill="#fff8b3" data-original="#fff8b3"></path></g></g><g><path d="m300.501 327.603c1.695 6.856 4.281 13.361 7.631 19.383l14.343-14.343c-2.986-6.773-4.74-14.201-5.014-22z" fill="#ffffff" data-original="#ffffff"></path></g><g><path d="m379.547 248.557c7.799.274 15.227 2.028 22 5.014l14.343-14.343c-6.022-3.35-12.527-5.935-19.383-7.631z" fill="#ffffff" data-original="#ffffff"></path></g><g fill="#fff"><path d="m482.381 217.057c2.68 12.826 12.701 22.847 25.527 25.527-12.826 2.68-22.847 12.701-25.527 25.527-2.68-12.826-12.701-22.847-25.527-25.527 12.826-2.68 22.847-12.701 25.527-25.527z" fill="#ffffff" data-original="#ffffff"></path><path d="m437.441 194.256c1.838 8.799 8.713 15.673 17.512 17.512-8.799 1.838-15.673 8.713-17.512 17.512-1.838-8.799-8.713-15.673-17.512-17.512 8.8-1.838 15.674-8.713 17.512-17.512z" fill="#ffffff" data-original="#ffffff"></path></g></g></g></g></svg>