<svg xmlns="http://www.w3.org/2000/svg" version="1.1" xmlns:xlink="http://www.w3.org/1999/xlink" xmlns:svgjs="http://svgjs.com/svgjs" width="512" height="512" x="0" y="0" viewBox="0 0 24 24" style="enable-background:new 0 0 512 512" xml:space="preserve" class=""><g><path xmlns="http://www.w3.org/2000/svg" d="m4.25 6h-2.5c-.96 0-1.75.79-1.75 1.75v14.5c0 .96.79 1.75 1.75 1.75h2.5c.96 0 1.75-.79 1.75-1.75v-14.5c0-.96-.79-1.75-1.75-1.75z" fill="#90a4ae" data-original="#90a4ae" class=""></path><path xmlns="http://www.w3.org/2000/svg" d="m16.25 6h-2.5c-.96 0-1.75.79-1.75 1.75v14.5c0 .96.79 1.75 1.75 1.75h2.5c.96 0 1.75-.79 1.75-1.75v-14.5c0-.96-.79-1.75-1.75-1.75z" fill="#cfd8dc" data-original="#cfd8dc"></path><path xmlns="http://www.w3.org/2000/svg" d="m10.25 0h-2.5c-.96 0-1.75.79-1.75 1.75v20.5c0 .96.79 1.75 1.75 1.75h2.5c.96 0 1.75-.79 1.75-1.75v-20.5c0-.96-.79-1.75-1.75-1.75z" fill="#b0bec5" data-original="#b0bec5" class=""></path><path xmlns="http://www.w3.org/2000/svg" d="m0 19h6v2h-6z" fill="#607d8b" data-original="#607d8b"></path><path xmlns="http://www.w3.org/2000/svg" d="m9 21c-.552 0-1-.448-1-1v-17c0-.552.448-1 1-1s1 .448 1 1v17c0 .552-.448 1-1 1z" fill="#90a4ae" data-original="#90a4ae" class=""></path><path xmlns="http://www.w3.org/2000/svg" d="m12 19h6v2h-6z" fill="#b0bec5" data-original="#b0bec5" class=""></path><path xmlns="http://www.w3.org/2000/svg" d="m15 6h-1.25c-.96 0-1.75.79-1.75 1.75v14.5c0 .96.79 1.75 1.75 1.75h1.25v-3h-3v-2h3z" fill="#b4bcc0" data-original="#b4bcc0" class=""></path><path xmlns="http://www.w3.org/2000/svg" d="m3 6h-1.25c-.96 0-1.75.79-1.75 1.75v14.5c0 .96.79 1.75 1.75 1.75h1.25v-3h-3v-2h3z" fill="#7d8f97" data-original="#7d8f97" class=""></path><path xmlns="http://www.w3.org/2000/svg" d="m3 19h-3v2h3z" fill="#546d79" data-original="#546d79"></path><path xmlns="http://www.w3.org/2000/svg" d="m9 0h-1.25c-.96 0-1.75.79-1.75 1.75v20.5c0 .96.79 1.75 1.75 1.75h1.25v-3c-.553 0-1-.447-1-1v-17c0-.553.447-1 1-1z" fill="#99a5ac" data-original="#99a5ac" class=""></path><path xmlns="http://www.w3.org/2000/svg" d="m9 2c-.553 0-1 .447-1 1v17c0 .553.447 1 1 1z" fill="#7d8f97" data-original="#7d8f97" class=""></path><path xmlns="http://www.w3.org/2000/svg" d="m15 19h-3v2h3z" fill="#99a5ac" data-original="#99a5ac" class=""></path><g xmlns="http://www.w3.org/2000/svg" fill="#2196f3"><path d="m13.886 6.68-1.75-2.5c-.238-.339-.155-.807.184-1.044.339-.238.808-.155 1.044.184l.923 1.319 1.507-4.146c.109-.296.391-.493.706-.493h6.75c.414 0 .75.336.75.75s-.336.75-.75.75h-6.225l-1.82 5.006c-.207.57-.972.671-1.319.174z" fill="#2196f3" data-original="#2196f3"></path><path d="m21.25 9h-2.5c-.414 0-.75-.336-.75-.75v-1.25c0-.965.785-1.75 1.75-1.75h.5c.138 0 .25-.112.25-.25v-.25c0-.138-.112-.25-.25-.25h-1.5c-.414 0-.75-.336-.75-.75s.336-.75.75-.75h1.5c.965 0 1.75.785 1.75 1.75v.25c0 .965-.785 1.75-1.75 1.75h-.5c-.138 0-.25.112-.25.25v.5h1.75c.414 0 .75.336.75.75s-.336.75-.75.75z" fill="#2196f3" data-original="#2196f3"></path></g></g></svg>