<svg xmlns="http://www.w3.org/2000/svg" version="1.1" xmlns:xlink="http://www.w3.org/1999/xlink" xmlns:svgjs="http://svgjs.com/svgjs" width="512" height="512" x="0" y="0" viewBox="0 0 511.999 511.999" style="enable-background:new 0 0 512 512" xml:space="preserve" class=""><g>
<path xmlns="http://www.w3.org/2000/svg" style="" d="M415.967,57.498h-73.181v12.03c0,6.839-5.596,12.435-12.435,12.435H181.646  c-6.839,0-12.435-5.596-12.435-12.435v-12.03h-73.18c-15.428,0-27.979,12.552-27.979,27.979V484.02  c0,15.428,12.552,27.979,27.979,27.979h319.937c15.428,0,27.979-12.552,27.979-27.979V85.477  C443.947,70.05,431.395,57.498,415.967,57.498z" fill="#707487" data-original="#707487" class=""></path>
<path xmlns="http://www.w3.org/2000/svg" style="" d="M88.656,484.021V85.477c0-15.428,12.552-27.979,27.979-27.979H96.031  c-15.428,0-27.979,12.552-27.979,27.979V484.02c0,15.428,12.552,27.979,27.979,27.979h20.605  C101.208,512,88.656,499.448,88.656,484.021z" fill="#5b5d6e" data-original="#5b5d6e"></path>
<path xmlns="http://www.w3.org/2000/svg" style="" d="M403.979,480.193H108.018c-3.721,0-6.737-3.016-6.737-6.737V117.918c0-3.721,3.016-6.737,6.737-6.737  h295.961c3.721,0,6.737,3.016,6.737,6.737v355.537C410.716,477.176,407.7,480.193,403.979,480.193z" fill="#e4eaf8" data-original="#e4eaf8"></path>
<path xmlns="http://www.w3.org/2000/svg" style="" d="M122.573,473.252v-355.13c0-3.833,3.107-6.941,6.941-6.941h-21.292c-3.833,0-6.941,3.107-6.941,6.941  v355.13c0,3.833,3.108,6.941,6.941,6.941h21.292C125.681,480.193,122.573,477.085,122.573,473.252z" fill="#d8dce5" data-original="#d8dce5"></path>
<path xmlns="http://www.w3.org/2000/svg" style="" d="M310.474,148.127h-108.95c-9.4,0-17.048-7.648-17.048-17.049V77.842c0-4.267,3.459-7.727,7.727-7.727  s7.727,3.459,7.727,7.727v53.235c0,0.879,0.715,1.595,1.595,1.595h108.95c0.879,0,1.595-0.716,1.595-1.595V77.842  c0-4.267,3.459-7.727,7.727-7.727s7.727,3.459,7.727,7.727v53.235C327.522,140.479,319.874,148.127,310.474,148.127z" fill="#ffc850" data-original="#ffc850"></path>
<path xmlns="http://www.w3.org/2000/svg" style="" d="M280.618,32.725v-20.29C280.618,5.596,275.022,0,268.183,0h-24.368  c-6.839,0-12.435,5.596-12.435,12.435v20.289L280.618,32.725L280.618,32.725z" fill="#d8dce5" data-original="#d8dce5"></path>
<path xmlns="http://www.w3.org/2000/svg" style="" d="M264.8,0h-20.986c-6.839,0-12.435,5.596-12.435,12.435v20.289h20.985V12.435  C252.365,5.596,257.961,0,264.8,0z" fill="#c3c8d1" data-original="#c3c8d1"></path>
<path xmlns="http://www.w3.org/2000/svg" style="" d="M330.423,32.209H181.574c-7.101,0-12.878,5.777-12.878,12.878V69.6  c0,7.101,5.777,12.878,12.878,12.878h148.849c7.101,0,12.878-5.777,12.878-12.878V45.087  C343.301,37.986,337.524,32.209,330.423,32.209z" fill="#e4eaf8" data-original="#e4eaf8"></path>
<path xmlns="http://www.w3.org/2000/svg" style="" d="M330.423,61.874H181.574c-7.101,0-12.878-5.777-12.878-12.878V69.6  c0,7.101,5.777,12.878,12.878,12.878h148.849c7.101,0,12.878-5.777,12.878-12.878V48.996  C343.301,56.097,337.524,61.874,330.423,61.874z" fill="#d8dce5" data-original="#d8dce5"></path>
<g xmlns="http://www.w3.org/2000/svg">
	<path style="" d="M169.811,241.698c-0.025,0-0.05,0-0.075,0c-3.187-0.02-6.229-1.332-8.43-3.636l-20.854-21.819   c-4.49-4.697-4.321-12.145,0.376-16.635c4.698-4.49,12.146-4.322,16.635,0.376l12.457,13.033l30.878-31.491   c4.549-4.64,11.998-4.713,16.638-0.163c4.64,4.549,4.713,11.999,0.164,16.638l-39.387,40.169   C175.999,240.427,172.97,241.698,169.811,241.698z" fill="#00c3ff" data-original="#00c3ff"></path>
	<path style="" d="M169.811,332.887c-0.025,0-0.05,0-0.075,0c-3.187-0.02-6.229-1.332-8.43-3.636l-20.854-21.819   c-4.49-4.697-4.321-12.145,0.376-16.635c4.698-4.49,12.146-4.322,16.635,0.376l12.457,13.033l30.878-31.491   c4.549-4.64,11.998-4.713,16.638-0.163c4.64,4.549,4.713,11.999,0.164,16.638l-39.387,40.169   C175.999,331.616,172.97,332.887,169.811,332.887z" fill="#00c3ff" data-original="#00c3ff"></path>
	<path style="" d="M169.811,424.077c-0.025,0-0.05,0-0.075,0c-3.187-0.02-6.229-1.332-8.43-3.636l-20.854-21.819   c-4.49-4.698-4.321-12.145,0.376-16.635c4.697-4.49,12.145-4.321,16.634,0.376l12.457,13.033l30.878-31.491   c4.549-4.64,11.998-4.713,16.638-0.163c4.64,4.549,4.713,11.998,0.164,16.638l-39.387,40.169   C175.999,422.806,172.97,424.077,169.811,424.077z" fill="#00c3ff" data-original="#00c3ff"></path>
</g>
<g xmlns="http://www.w3.org/2000/svg">
	<path style="" d="M176.76,232.711l-20.854-21.819c-3.54-3.703-4.171-9.112-1.984-13.437   c-4.265-1.985-9.488-1.294-13.094,2.153c-4.697,4.49-4.865,11.937-0.376,16.635l20.854,21.819c2.201,2.304,5.243,3.615,8.43,3.636   c0.025,0,0.05,0,0.075,0c3.159,0,6.188-1.271,8.401-3.528l2.64-2.692C179.323,234.858,177.922,233.928,176.76,232.711z" fill="#06b0f2" data-original="#06b0f2" class=""></path>
	<path style="" d="M176.76,323.901l-20.854-21.819c-3.54-3.703-4.171-9.112-1.984-13.437   c-4.265-1.985-9.488-1.294-13.094,2.153c-4.697,4.489-4.865,11.937-0.376,16.635l20.854,21.819c2.201,2.304,5.243,3.616,8.43,3.636   c0.025,0,0.05,0,0.075,0c3.159,0,6.188-1.271,8.401-3.528l2.64-2.692C179.323,326.048,177.922,325.117,176.76,323.901z" fill="#06b0f2" data-original="#06b0f2" class=""></path>
	<path style="" d="M176.76,415.09l-20.854-21.819c-3.54-3.704-4.171-9.112-1.984-13.437   c-4.265-1.985-9.488-1.294-13.094,2.152c-4.698,4.49-4.866,11.937-0.376,16.635l20.854,21.819c2.201,2.304,5.243,3.616,8.43,3.636   c0.025,0,0.05,0,0.075,0c3.159,0,6.188-1.271,8.401-3.528l2.64-2.692C179.323,417.237,177.922,416.307,176.76,415.09z" fill="#06b0f2" data-original="#06b0f2" class=""></path>
</g>
<g xmlns="http://www.w3.org/2000/svg">
	<path style="" d="M369.602,217.575H255.999c-4.267,0-7.727-3.459-7.727-7.727c0-4.267,3.459-7.727,7.727-7.727   h113.603c4.267,0,7.727,3.459,7.727,7.727C377.329,214.115,373.869,217.575,369.602,217.575z" fill="#c3c8d1" data-original="#c3c8d1"></path>
	<path style="" d="M369.602,311.34H255.999c-4.267,0-7.727-3.459-7.727-7.727c0-4.267,3.459-7.727,7.727-7.727h113.603   c4.267,0,7.727,3.459,7.727,7.727C377.329,307.88,373.869,311.34,369.602,311.34z" fill="#c3c8d1" data-original="#c3c8d1"></path>
	<path style="" d="M369.602,405.104H255.999c-4.267,0-7.727-3.459-7.727-7.727s3.459-7.727,7.727-7.727h113.603   c4.267,0,7.727,3.459,7.727,7.727S373.869,405.104,369.602,405.104z" fill="#c3c8d1" data-original="#c3c8d1"></path>
</g>
<g xmlns="http://www.w3.org/2000/svg">
</g>
<g xmlns="http://www.w3.org/2000/svg">
</g>
<g xmlns="http://www.w3.org/2000/svg">
</g>
<g xmlns="http://www.w3.org/2000/svg">
</g>
<g xmlns="http://www.w3.org/2000/svg">
</g>
<g xmlns="http://www.w3.org/2000/svg">
</g>
<g xmlns="http://www.w3.org/2000/svg">
</g>
<g xmlns="http://www.w3.org/2000/svg">
</g>
<g xmlns="http://www.w3.org/2000/svg">
</g>
<g xmlns="http://www.w3.org/2000/svg">
</g>
<g xmlns="http://www.w3.org/2000/svg">
</g>
<g xmlns="http://www.w3.org/2000/svg">
</g>
<g xmlns="http://www.w3.org/2000/svg">
</g>
<g xmlns="http://www.w3.org/2000/svg">
</g>
<g xmlns="http://www.w3.org/2000/svg">
</g>
</g></svg>