<?xml version="1.0" encoding="utf-8"?>
<!-- Generator: Adobe Illustrator 23.0.5, SVG Export Plug-In . SVG Version: 6.00 Build 0)  -->
<svg version="1.1" id="Layer_1" xmlns="http://www.w3.org/2000/svg" xmlns:xlink="http://www.w3.org/1999/xlink" x="0px" y="0px"
	 viewBox="0 0 42.4 50" style="enable-background:new 0 0 42.4 50;" xml:space="preserve">
<style type="text/css">
	.st0{fill:#F8B024;}
	.st1{fill:url(#SVGID_1_);}
	.st2{opacity:0.44;fill:url(#SVGID_2_);}
	.st3{opacity:0.42;fill:url(#SVGID_3_);}
	.st4{fill:url(#SVGID_4_);}
	.st5{opacity:0.44;fill:url(#SVGID_5_);}
	.st6{opacity:0.42;fill:url(#SVGID_6_);}
	.st7{fill:url(#SVGID_7_);}
	.st8{fill:url(#SVGID_8_);}
	.st9{opacity:0.3;fill:url(#SVGID_9_);}
	.st10{fill:url(#SVGID_10_);}
	.st11{opacity:0.3;fill:url(#SVGID_11_);}
	.st12{fill:url(#SVGID_12_);}
	.st13{opacity:0.5;}
	.st14{fill:url(#SVGID_13_);}
	.st15{fill:url(#SVGID_14_);}
	.st16{fill:url(#SVGID_15_);}
	.st17{fill:url(#SVGID_16_);}
	.st18{opacity:0.5;fill:url(#SVGID_17_);}
	.st19{fill:url(#SVGID_18_);}
</style>
<g>
	<g>
		<g>
			<path class="st0" d="M19.5,49.4L19.5,49.4c-1.4,0.8-3.1,0.3-3.9-1.1l-9-16.1l7.1-4l7,17.7C21.3,47.2,20.7,48.7,19.5,49.4z"/>
			<linearGradient id="SVGID_1_" gradientUnits="userSpaceOnUse" x1="1.6829" y1="32.731" x2="9.2431" y2="28.5909">
				<stop  offset="1.161860e-03" style="stop-color:#00D1FF"/>
				<stop  offset="0.9958" style="stop-color:#0162FF"/>
			</linearGradient>
			<path class="st1" d="M8.1,34.2L7,34.8c-2.1,1.2-4.8,0.4-5.9-1.7l0,0c-1.2-2.1-0.4-4.8,1.7-5.9l1.1-0.6c2.1-1.2,4.8-0.4,5.9,1.7
				l0,0C11,30.3,10.2,33,8.1,34.2z"/>
			<linearGradient id="SVGID_2_" gradientUnits="userSpaceOnUse" x1="-1.728" y1="34.8184" x2="7.2877" y2="29.6975">
				<stop  offset="1.161860e-03" style="stop-color:#00D1FF"/>
				<stop  offset="0.9958" style="stop-color:#0162FF"/>
			</linearGradient>
			<path class="st2" d="M2.8,30.1l3.1-1.7c1.5-0.9,3.5-0.3,4.4,1.2l1,1.7c0-0.4-0.2-0.8-0.4-1.2l-1.1-2C8.9,26.6,7,26,5.4,26.9
				l-3.1,1.7c-1.5,0.9-2.1,2.8-1.2,4.4l0.1,0.3C1.1,32,1.7,30.7,2.8,30.1z"/>
			<linearGradient id="SVGID_3_" gradientUnits="userSpaceOnUse" x1="7.2758" y1="31.1415" x2="-0.3334" y2="36.01">
				<stop  offset="1.161860e-03" style="stop-color:#00D1FF"/>
				<stop  offset="0.9958" style="stop-color:#0162FF"/>
			</linearGradient>
			<path class="st3" d="M10.4,29.2l-1.1-2c-0.1-0.3-0.3-0.5-0.5-0.7l0.6,1c0.9,1.5,0.3,3.5-1.2,4.4L5,33.7c-1.3,0.7-2.9,0.5-3.8-0.6
				l0.5,1c0.9,1.5,2.8,2.1,4.4,1.2l3.1-1.7C10.7,32.7,11.2,30.8,10.4,29.2z"/>
			<linearGradient id="SVGID_4_" gradientUnits="userSpaceOnUse" x1="4.7321" y1="31.0938" x2="12.6211" y2="26.6629">
				<stop  offset="1.161860e-03" style="stop-color:#00D1FF"/>
				<stop  offset="0.9958" style="stop-color:#0162FF"/>
			</linearGradient>
			<path class="st4" d="M14.4,32.8l-1.6,0.9c-3,1.7-6.8,0.6-8.5-2.4l0,0c-1.7-3-0.6-6.8,2.4-8.5l1.6-0.9c3-1.7,6.8-0.6,8.5,2.4l0,0
				C18.5,27.4,17.4,31.2,14.4,32.8z"/>
			<linearGradient id="SVGID_5_" gradientUnits="userSpaceOnUse" x1="3.4117" y1="31.0235" x2="13.4371" y2="25.7223">
				<stop  offset="1.161860e-03" style="stop-color:#00D1FF"/>
				<stop  offset="0.9958" style="stop-color:#0162FF"/>
			</linearGradient>
			<path class="st5" d="M5.9,26.6l5.7-3.2c1.9-1,4.2-0.4,5.3,1.5l2,3.5c-0.1-0.4-0.2-0.9-0.4-1.3L16.1,23c-1-1.9-3.4-2.5-5.3-1.5
				l-5.7,3.2c-1.9,1-2.5,3.4-1.5,5.3L4,30.6C3.7,29.1,4.4,27.4,5.9,26.6z"/>
			<linearGradient id="SVGID_6_" gradientUnits="userSpaceOnUse" x1="13.2832" y1="27.456" x2="4.1954" y2="32.9015">
				<stop  offset="1.161860e-03" style="stop-color:#00D1FF"/>
				<stop  offset="0.9958" style="stop-color:#0162FF"/>
			</linearGradient>
			<path class="st6" d="M18,26.4l-2.3-4.1c-0.4-0.6-0.9-1.1-1.5-1.5c0,0,0,0.1,0.1,0.1l2.3,4.1c1,1.9,0.4,4.2-1.5,5.3l-5.7,3.2
				c-1.2,0.7-2.7,0.6-3.8,0c1.1,1.8,3.4,2.4,5.2,1.4l5.7-3.2C18.3,30.6,19,28.3,18,26.4z"/>
			<linearGradient id="SVGID_7_" gradientUnits="userSpaceOnUse" x1="8.6869" y1="29.9701" x2="26.9774" y2="18.8969">
				<stop  offset="6.931090e-03" style="stop-color:#FF9A25"/>
				<stop  offset="1" style="stop-color:#FFE000"/>
			</linearGradient>
			<path class="st7" d="M39.4,29.9c-10.2,0.7-15.8-0.7-22.1,2.8c-4.3,2.4-11.7-10.9-7.4-13.3c6.8-3.8,8.6-9.1,14-17.3L39.4,29.9z"/>
			<linearGradient id="SVGID_8_" gradientUnits="userSpaceOnUse" x1="6.7892" y1="26.0549" x2="23.291" y2="12.2085">
				<stop  offset="0" style="stop-color:#FFE000"/>
				<stop  offset="0.9996" style="stop-color:#FFE000;stop-opacity:0"/>
			</linearGradient>
			<path class="st8" d="M11,22.8c6.8-3.8,9-8.3,14.4-16.5l-0.7-1.5c-5.4,8.2-7.5,12.7-14.4,16.5c-2,1.1-1,4.3,0.6,7.5
				C10,26.1,9.4,23.7,11,22.8z"/>
			<linearGradient id="SVGID_9_" gradientUnits="userSpaceOnUse" x1="6.4857" y1="32.2557" x2="29.958" y2="25.2959">
				<stop  offset="6.931090e-03" style="stop-color:#FF9A25"/>
				<stop  offset="1" style="stop-color:#FFE000"/>
			</linearGradient>
			<path class="st9" d="M37.8,27.1c-9.8,0.6-15.4-0.6-21.5,2.8c-2.3,1.3-5.6-2.1-7.4-5.8c1.1,4.5,5.5,10.3,8.4,8.7
				c6.3-3.5,11.9-2.2,22.1-2.8L37.8,27.1z"/>
			<linearGradient id="SVGID_10_" gradientUnits="userSpaceOnUse" x1="21.5866" y1="21.6016" x2="37.9627" y2="12.5947">
				<stop  offset="6.931090e-03" style="stop-color:#FF9A25"/>
				<stop  offset="1" style="stop-color:#FFE000"/>
			</linearGradient>
			<path class="st10" d="M36.1,13.6c4.3,7.7,5.7,15,3.3,16.4c-2.5,1.4-7.9-3.7-12.2-11.4c-4.3-7.7-5.7-15-3.3-16.4
				S31.9,5.9,36.1,13.6z"/>
			<linearGradient id="SVGID_11_" gradientUnits="userSpaceOnUse" x1="22.7463" y1="16.895" x2="38.4919" y2="16.895">
				<stop  offset="6.931090e-03" style="stop-color:#FF9A25"/>
				<stop  offset="1" style="stop-color:#FFE000"/>
			</linearGradient>
			<path class="st11" d="M38.3,30.1c0.8-2.8-0.9-8.7-4.3-14.9C30.3,8.6,25.7,3.9,22.9,3.6c-0.8,2.8,0.9,8.7,4.3,14.9
				C30.9,25.2,35.5,29.9,38.3,30.1z"/>
			<linearGradient id="SVGID_12_" gradientUnits="userSpaceOnUse" x1="26.9576" y1="8.6457" x2="44.4827" y2="38.174">
				<stop  offset="1.161860e-03" style="stop-color:#00D1FF"/>
				<stop  offset="0.9958" style="stop-color:#0162FF"/>
			</linearGradient>
			<path class="st12" d="M37.4,12.8C32.6,4.2,26-1.3,22.7,0.6c-3.3,1.8-2.1,10.3,2.7,19c4.8,8.6,11.4,14.1,14.7,12.3
				C43.4,30,42.2,21.5,37.4,12.8z M39.4,29.9c-2.5,1.4-7.9-3.7-12.2-11.4c-4.3-7.7-5.7-15-3.3-16.4s7.9,3.7,12.2,11.4
				C40.4,21.2,41.9,28.6,39.4,29.9z"/>
			<g class="st13">
				<linearGradient id="SVGID_13_" gradientUnits="userSpaceOnUse" x1="23.2601" y1="14.5635" x2="40.9921" y2="14.5635">
					<stop  offset="1.161860e-03" style="stop-color:#00D1FF"/>
					<stop  offset="0.9958" style="stop-color:#0162FF"/>
				</linearGradient>
				<path class="st14" d="M36.5,12.5C32.3,4.9,26.8-0.2,24.3,1.1c-0.5,0.3-0.9,0.9-1.1,1.7c0.2-0.3,0.4-0.5,0.7-0.7
					c2.5-1.4,7.9,3.7,12.2,11.4c3.3,6,5,11.7,4.3,14.6C41.9,25.9,40.3,19.3,36.5,12.5z"/>
				<linearGradient id="SVGID_14_" gradientUnits="userSpaceOnUse" x1="20.8644" y1="17.0189" x2="41.7424" y2="17.0189">
					<stop  offset="1.161860e-03" style="stop-color:#00D1FF"/>
					<stop  offset="0.9958" style="stop-color:#0162FF"/>
				</linearGradient>
				<path class="st15" d="M40.5,30.8c-3.3,1.8-9.9-3.7-14.7-12.3c-3.7-6.6-5.2-13.1-4.3-16.6c-1.6,3.2-0.1,10.4,3.9,17.7
					c4.8,8.6,11.4,14.1,14.7,12.3c0.8-0.4,1.3-1.2,1.6-2.3C41.4,30,41,30.5,40.5,30.8z"/>
			</g>
			<linearGradient id="SVGID_15_" gradientUnits="userSpaceOnUse" x1="30.5079" y1="16.5841" x2="25.4589" y2="20.0947">
				<stop  offset="1.161860e-03" style="stop-color:#00D1FF"/>
				<stop  offset="0.9958" style="stop-color:#0162FF"/>
			</linearGradient>
			<path class="st16" d="M27.2,18.5c0.9,1.7,1.9,3.2,2.9,4.6l4.3-2.4l-5.3-9.5l-4.3,2.4C25.5,15.2,26.3,16.9,27.2,18.5z"/>
			<linearGradient id="SVGID_16_" gradientUnits="userSpaceOnUse" x1="30.6078" y1="11.7671" x2="24.4929" y2="15.8521">
				<stop  offset="1.161860e-03" style="stop-color:#00D1FF"/>
				<stop  offset="0.9958" style="stop-color:#0162FF"/>
			</linearGradient>
			<path class="st17" d="M26,16.2c0,0-0.8-1.7-1.2-2.6l4.3-2.4l1.4,2.6L26,16.2z"/>
			<linearGradient id="SVGID_17_" gradientUnits="userSpaceOnUse" x1="37.9457" y1="17.0496" x2="28.1804" y2="22.3872">
				<stop  offset="1.161860e-03" style="stop-color:#00D1FF"/>
				<stop  offset="0.9958" style="stop-color:#0162FF"/>
			</linearGradient>
			<path class="st18" d="M32.6,18.1l-4.2,2.3c0.6,0.9,1.2,1.8,1.8,2.7l4.3-2.4L32.6,18.1z"/>
			<linearGradient id="SVGID_18_" gradientUnits="userSpaceOnUse" x1="30.6272" y1="13.7141" x2="37.1776" y2="26.3373">
				<stop  offset="1.161860e-03" style="stop-color:#00D1FF"/>
				<stop  offset="0.9958" style="stop-color:#0162FF"/>
			</linearGradient>
			<path class="st19" d="M33.3,15.1c1.5,2.6,2,5.2,1.1,5.6c-0.8,0.5-2.7-1.3-4.2-3.9c-1.5-2.6-2-5.2-1.1-5.6
				C30,10.7,31.9,12.5,33.3,15.1z"/>
		</g>
	</g>
</g>
</svg>
