<svg xmlns="http://www.w3.org/2000/svg" xmlns:xlink="http://www.w3.org/1999/xlink" viewBox="0 0 554.2 422.4" xmlns:v="https://vecta.io/nano"><style><![CDATA[.B{fill:#fff}.C{fill:#ff7a68}.D{fill:#00d089}.E{fill:#695eff}.F{fill:#003099}.G{fill:#4b499c}.H{fill:#cbdfff}.I{fill:#9283f7}.J{fill:#e9e9e9}.K{fill:#6c6cff}.L{fill:#26236e}.M{fill:#4744b4}.N{fill:#aca6ff}.O{fill:#8080ff}.P{fill:#d4d4d4}]]></style><linearGradient id="A" gradientUnits="userSpaceOnUse" x1="442.084" y1="353.591" x2="442.084" y2="149.881"><stop offset=".169" stop-color="#8080e5"/><stop offset=".347" stop-color="#9983e5"/><stop offset=".555" stop-color="#b085e5"/><stop offset=".685" stop-color="#b986e5"/><stop offset=".693" stop-color="#ba88e5"/><stop offset=".782" stop-color="#bf99e4"/><stop offset=".879" stop-color="#c3a3e4"/><stop offset="1" stop-color="#c4a6e4"/></linearGradient><path fill="url(#A)" d="M446 158.7v186.7c0 4-3.7 7.7-7.9 8.2 2.3-.5 3.8-2.7 3.8-6.1V160.8c0-2.8-1-5.9-2.6-8.6l3.9-2.3c1.8 2.8 2.8 6 2.8 8.8z"/><linearGradient id="B" gradientUnits="userSpaceOnUse" x1="207.779" y1="84.054" x2="443.318" y2="84.054"><stop offset="0" stop-color="#ebe5f0"/><stop offset=".368" stop-color="#e9e3f0"/><stop offset=".578" stop-color="#e4daee"/><stop offset=".749" stop-color="#dccceb"/><stop offset=".897" stop-color="#d0b9e8"/><stop offset="1" stop-color="#c4a6e4"/></linearGradient><path fill="url(#B)" d="M443.3 149.9l-3.9 2.3c-1.6-2.7-3.8-5.1-6.2-6.5L213.8 18.9c-2.3-1.3-4.5-1.5-6-.7 2.8-2.4 7.2-3 10.1-1.4l219.4 126.7c2.3 1.4 4.4 3.7 6 6.4z"/><linearGradient id="C" gradientUnits="userSpaceOnUse" x1="205.013" y1="174.294" x2="441.974" y2="174.294"><stop offset=".237" stop-color="#231c55"/><stop offset=".405" stop-color="#261f62"/><stop offset=".715" stop-color="#2e2884"/><stop offset="1" stop-color="#3632a9"/></linearGradient><path fill="url(#C)" d="M205 194l29.1 16.8 207.9 120v-170c0-2.8-1-5.9-2.6-8.6s-3.8-5.1-6.2-6.5L213.8 18.9c-2.3-1.3-4.5-1.5-6-.7-1.6.8-2.6 2.6-2.7 5.3L205 194z"/><path opacity=".5" fill="#3632a9" d="M301.7 276.6l52.5 30.3-19.9 16.1c-2.5 1.4-5.2 2.2-7.9 2.2a15.39 15.39 0 0 1-7.7-2.1l-44.1-25.4c-3.9-2.5-3.1-8.4-.3-10.1 0 0 .1 0 .1-.1.1 0 .1-.1.2-.1l27.1-10.8z"/><linearGradient id="D" gradientUnits="userSpaceOnUse" x1="271.901" y1="302.997" x2="326.384" y2="302.997"><stop offset=".228" stop-color="#b986e5"/><stop offset=".46" stop-color="#b686e5"/><stop offset=".648" stop-color="#ac85e5"/><stop offset=".82" stop-color="#9b83e5"/><stop offset=".983" stop-color="#8380e5"/><stop offset="1" stop-color="#8080e5"/></linearGradient><path fill="url(#D)" d="M326.4 318.4v3.4a15.39 15.39 0 0 1-7.7-2.1l-44.1-25.4c-3.9-2.5-3.1-8.4-.3-10.1-2.4 1.6-2.3 5.2.2 6.7l44 25.4c2.4 1.4 5.2 2.1 7.9 2.1z"/><path fill="#8080e5" d="M351.7 305.4l-17.4 14.2c-2.5 1.4-5.2 2.2-7.9 2.2v-3.4c2.7 0 5.4-.7 7.9-2.1l15.2-12.2 2.2 1.3z"/><linearGradient id="E" gradientUnits="userSpaceOnUse" x1="272.554" y1="296.781" x2="349.504" y2="296.781"><stop offset="0" stop-color="#f5f4ff"/><stop offset=".358" stop-color="#f2f0fd"/><stop offset=".688" stop-color="#e8e5f5"/><stop offset="1" stop-color="#d9d3e9"/></linearGradient><path fill="url(#E)" d="M349.5 304.1h0l-15.2 12.2a15.91 15.91 0 0 1-15.8 0l-44-25.4c-2.6-1.5-2.6-5.1-.2-6.7 0 0 .1 0 .1-.1.1 0 .1-.1.2-.1l24.7-8.9.2.1 50 28.9z"/><linearGradient id="F" gradientUnits="userSpaceOnUse" x1="575.835" y1="425.353" x2="86.173" y2="134.987"><stop offset="0" stop-color="#f5f4ff"/><stop offset=".355" stop-color="#edebf9"/><stop offset=".938" stop-color="#d6d2e7"/><stop offset="1" stop-color="#d3cfe5"/></linearGradient><path fill="url(#F)" d="M205 194v16.6c0 2.5.8 5.3 2.2 7.9 1.6 3.1 4 5.8 6.6 7.3l219.4 126.8c1.8 1.1 3.5 1.4 4.9 1.1.2 0 .3-.1.5-.1a.76.76 0 0 0 .4-.2c.1 0 .1-.1.2-.1s.1-.1.2-.1.1-.1.2-.1.1-.1.2-.1c.1-.1.2-.1.2-.2l.3-.3c.4-.4.7-.8.9-1.3.1-.1.1-.2.1-.3s0-.1.1-.2c0-.1.1-.2.1-.4v-.1c0-.2.1-.3.1-.5v-.1c0-.2.1-.4.1-.6v-18L233.8 211 205 194z"/><linearGradient id="G" gradientUnits="userSpaceOnUse" x1="233.882" y1="17.193" x2="413.05" y2="327.521"><stop offset="0" stop-color="#f5f4ff"/><stop offset=".358" stop-color="#f2f0fd"/><stop offset=".688" stop-color="#e8e5f5"/><stop offset="1" stop-color="#d9d3e9"/></linearGradient><path fill="url(#G)" d="M433.3 315.8V155.7L213.7 28.9V189z"/><linearGradient id="H" gradientUnits="userSpaceOnUse" x1="314.619" y1="297.027" x2="320.252" y2="287.269"><stop offset=".065" stop-color="#d9dffd"/><stop offset="1" stop-color="#6d6ddd"/></linearGradient><path opacity=".6" fill="url(#H)" d="M299.2 275.1l-13.8 5 54.6 31.6 9.5-7.5z"/><defs><filter id="I" filterUnits="userSpaceOnUse" x="207.2" y="152.1" width="234.8" height="201.6"><feColorMatrix values="1 0 0 0 0 0 1 0 0 0 0 0 1 0 0 0 0 0 1 0"/></filter><path id="J" d="M207.2 218.5h0c1.6 3.1 4 5.8 6.6 7.3l219.4 126.8c1.8 1.1 3.5 1.4 4.9 1.1.2 0 .3-.1.5-.1a.76.76 0 0 0 .4-.2c.1 0 .1-.1.2-.1s.1-.1.2-.1.1-.1.2-.1.1-.1.2-.1c.1-.1.2-.1.2-.2l.3-.3c.4-.4.7-.8.9-1.3.1-.1.1-.2.1-.3s0-.1.1-.2c0-.1.1-.2.1-.4v-.1c0-.2.1-.3.1-.5v-.1c0-.2.1-.4.1-.6V160.8c0-2.8-1-5.9-2.6-8.6l-231.9 66.3z"/><path id="K" d="M407.9 206.2c2.1 3.7 2.1 7.7-.1 8.9-1.1.6-2.5.4-3.9-.4s-2.8-2.3-3.9-4.1c-2.1-3.7-2.1-7.7.1-8.9 1.1-.6 2.5-.4 3.9.4s2.8 2.2 3.9 4.1zm-1 2.1c.3-.2.2-.8-.1-1.3-.1-.2-.3-.4-.5-.5s-.5-.1-.6 0l-2.4 1.9-.7-1.3c-.2-.3-.4-.5-.6-.6s-.4-.1-.5-.1c-.3.2-.3.7 0 1.3l1.3 2.4c.1.3.4.5.6.6h0c.2.1.4.1.6 0l2.9-2.4"/><path id="L" d="M406.8 207c.3.5.4 1.1.1 1.3l-3 2.4c-.1.1-.4.1-.6 0h0c-.2-.1-.4-.3-.6-.6l-1.3-2.4c-.3-.5-.3-1.1 0-1.3.2-.1.3 0 .5.1s.4.3.6.6l.7 1.3 2.4-1.9c.2-.1.4-.1.6 0 .3.1.5.3.6.5z"/><path id="M" d="M402.7 276.6c.4.5.6 1.1.6 1.7 0 .9-.6 1.2-1.4.8-.8-.5-1.4-1.5-1.4-2.4 0-.6.3-.9.6-1 .2 0 .5 0 .8.2.3.1.6.4.8.7zm-.8 1h.1c0-.1 0-.2-.1-.2s-.1 0-.1.1c0 0 .1 0 .1.1"/><path id="N" d="M261.4 86.2l9.4 5.6c.4.2.7.8.7 1.2v.2c0 .4-.3.6-.7.4l-9.4-5.6c-.4-.2-.7-.8-.7-1.2v-.2c0-.5.3-.6.7-.4z"/><path id="O" d="M240.7 68l3.1 1.8v1.3l-2.2-1.3v1.4c.2-.1.5-.1.9.1.8.5 1.6 1.7 1.5 3 0 1.4-.8 1.8-1.9 1.2-.8-.5-1.4-1.2-1.8-2.1l.6-.6c.3.7.8 1.2 1.2 1.5.5.3.9.1.9-.5s-.3-1.2-.8-1.5c-.3-.2-.6-.2-.9-.1l-.7-.8.1-3.4z"/><path id="P" d="M146 296.8c-.1-.1-.2-.1-.3-.2-1.6-.9-2.9-2.4-2.9-5.1v-1.9l.8.4v1.9c0 2.2 1 3.7 2.2 4.6 0 .2.1.2.2.3z"/><path id="Q" d="M156.1 287.3c-4.9 2.8-8.8 9.6-8.8 15.2s3.9 7.9 8.8 5.1c4.8-2.8 8.8-9.6 8.8-15.2 0-5.7-3.9-7.9-8.8-5.1z"/><path id="R" d="M147.4 302.5c0-5.6 3.9-12.4 8.8-15.2 2.4-1.4 4.6-1.5 6.2-.6l-4.1-2.3c-1.6-.9-3.8-.7-6.2.6-4.8 2.8-8.8 9.6-8.8 15.2 0 2.8 1 4.8 2.6 5.7l4.1 2.3c-1.6-.9-2.6-2.8-2.6-5.7z"/><path id="S" d="M150.9 299.5c-.1-.1-.2-.1-.3-.2-1.6-.9-2.9-2.4-2.9-5.1v-5.1l.8.4v5.1c0 2.2 1 3.7 2.2 4.6 0 .2.1.3.2.3z"/><path id="T" d="M75.3 326.9c-.1-.1-.2-.1-.3-.2-1.6-.9-2.9-2.4-2.9-5.1v-1.9l.8.4v1.9c0 2.2 1 3.7 2.2 4.6 0 .2.1.3.2.3z"/><path id="U" d="M82.7 326.1c-.9 1.4-2.1 2.3-3.1 2.2s-2.5-.4-3.8-1.1c-.1-.1-.3-.2-.4-.3s-.2-.1-.3-.2c-1.2-.9-2.2-2.4-2.2-4.6v-1.9l7.7-4.5.8-.4v2.7c0 1.4.4 2.6 1.2 3.3l.5.5c.7.7.6 2.6-.4 4.3z"/><path id="V" d="M76.6 332.6c0-5.6 3.9-12.4 8.8-15.2 2.4-1.4 4.6-1.5 6.2-.6l-4.1-2.3c-1.6-.9-3.8-.7-6.2.6-4.8 2.8-8.8 9.6-8.8 15.2 0 2.8 1 4.8 2.6 5.7l4.1 2.3c-1.6-.8-2.6-2.8-2.6-5.7z"/><path id="W" d="M80.2 329.7c-.1-.1-.2-.1-.3-.2-1.6-.9-2.9-2.4-2.9-5.1v-5.1l.8.4v5.1c0 2.2 1 3.7 2.2 4.6 0 .1.1.2.2.3z"/><path id="X" d="M87.5 328.8c-.9 1.4-2.1 2.3-3.1 2.2s-2.5-.4-3.8-1.1c-.1-.1-.3-.2-.4-.3s-.2-.1-.3-.2c-1.2-.9-2.2-2.4-2.2-4.6v-5.1l7.7-4.5.8-.4v5.9c0 1.4.4 2.6 1.2 3.3l.5.5c.8.8.6 2.7-.4 4.3z"/></defs><mask maskUnits="userSpaceOnUse" x="207.2" y="152.1" width="234.8" height="201.6" id="a"><g filter="url(#I)"><defs><filter  filterUnits="userSpaceOnUse" x="207.2" y="152.1" width="234.8" height="201.6"><feFlood flood-color="#fff" flood-opacity="1"/><feBlend in="SourceGraphic"/></filter></defs><mask maskUnits="userSpaceOnUse" x="207.2" y="152.1" width="234.8" height="201.6" id="a"/><linearGradient id="b" gradientUnits="userSpaceOnUse" x1="443.267" y1="348.49" x2="321.944" y2="183.694"><stop offset="0" stop-color="#fff"/><stop offset=".955"/></linearGradient><use xlink:href="#J" mask="url(#a)" fill="url(#b)"/></g></mask><linearGradient id="c" gradientUnits="userSpaceOnUse" x1="443.267" y1="348.49" x2="321.944" y2="183.694"><stop offset="0" stop-color="#6d6ddd"/><stop offset=".955" stop-color="#d9dffd"/></linearGradient><use xlink:href="#J" opacity=".7" fill="url(#c)"/><path d="M367.2 185.8l24.2 14.1c.4.2.8.9.8 1.4s-.4.7-.8.4l-24.2-14.1c-.4-.2-.8-.9-.8-1.4s.4-.7.8-.4z" class="B"/><path d="M377.6 148.8c1.2.7 2.1 2.7 2.1 4.7s-.9 2.9-2.1 2.2-2.1-2.7-2.1-4.7.9-2.9 2.1-2.2zm0 5.5c.6.4 1.1-.3 1.1-1.5s-.4-2.4-1.1-2.7c-.6-.4-1.1.3-1.1 1.5s.4 2.4 1.1 2.7" class="F"/><path d="M377.6 150.1c.6.4 1.1 1.5 1.1 2.7s-.5 1.9-1.1 1.5-1.1-1.5-1.1-2.8c0-1.2.5-1.8 1.1-1.4z" class="B"/><path d="M372.8 145.9c1.2.7 2.1 2.7 2.1 4.6 0 2-.9 2.9-2.1 2.2s-2.1-2.7-2.1-4.7c-.1-1.9.8-2.8 2.1-2.1zm-.1 5.6c.6.4 1.1-.3 1.1-1.5s-.4-2.4-1-2.8-1.1.3-1.1 1.5c-.1 1.2.4 2.4 1 2.8" class="F"/><path d="M372.8 147.2c.6.4 1.1 1.5 1 2.8 0 1.2-.5 1.9-1.1 1.5s-1.1-1.5-1.1-2.8c.1-1.2.5-1.8 1.2-1.5z" class="B"/><path d="M364.8 141.3l.8.5-.1 6.6-1-.6.1-5-.8.3-.4-1.3zm3.4 2c1 .6 1.7 1.9 1.7 3.1 0 .9-.3 1.4-1.1 1.7l-.9.4 2 1.2v1.3l-3.6-2.1v-1.1l1.8-.8c.6-.3.8-.6.8-1.1s-.3-1.1-.7-1.3c-.5-.3-.8-.1-1.2.2l-.6-1.3c.5-.6 1.1-.7 1.8-.2z" class="F"/><path d="M401.9 277.3c.1 0 .1.1.1.2s-.1.1-.1 0c-.1 0-.1-.1-.1-.2h.1z" class="D"/><g class="B"><path d="M399.2 269.3v-.1l1.1 5.4-1.1-5.3z"/><path d="M397.8 265.7l1.7 1.1c.3.2.5.5.6.9l.3 1.4.3 1.7.6 3.1.2 1.1c.1.4-.1.7-.5.6-.1 0-.1 0-.2-.1-.2-.1-.3-.3-.4-.5s-.1-.3-.2-.4l-1.1-5.4-.3-1.3-1.2-.8c-.4-.2-.6-.7-.6-1.1.1-.4.4-.5.8-.3z"/></g><path d="M401.3 273.9l-.6-3.1 6.3 3.6-.8 2.7-4.8-2.8z" class="D"/><path d="M408.4 274c.1.3.2.5.1.7l-1.1 4c-.1.3-.3.4-.6.2l-.4-.2c-.2-.3-.5-.6-.8-.7-.3-.2-.6-.2-.8-.2l-2.1-1.2c-.2-.3-.5-.6-.8-.7-.3-.2-.6-.2-.8-.2l-.3-.1c.1 0 .1.1.2.1.3.1.6-.2.5-.6l-.2-1.1.1.4 4.8 2.8.8-2.7-6.3-3.7-.3-1.7 7.5 4.4c.2.1.4.3.5.5zm-41.5-44.1l24.2 14.1c.4.2.8.9.8 1.4s-.4.7-.8.4l-24.2-14.1c-.4-.3-.8-.9-.8-1.4.1-.5.4-.7.8-.4zm40.8-1.8c2.1 3.7 2.1 7.7-.1 8.9-1.1.6-2.5.4-3.9-.4s-2.8-2.3-3.9-4.1c-2.1-3.7-2.1-7.7.1-8.9 1.1-.6 2.5-.4 3.9.4 1.5.8 2.9 2.2 3.9 4.1zm-.9 2.1c.3-.2.2-.8-.1-1.3-.1-.2-.3-.4-.5-.5s-.5-.1-.6 0l-2.4 1.9-.7-1.3c-.2-.3-.4-.5-.6-.6s-.4-.1-.5-.1c-.3.2-.3.7 0 1.3l1.3 2.4c.1.3.4.5.6.6h0c.2.1.4.1.6 0l2.9-2.4" class="B"/><path d="M360.7 196l52 30.3-.1 18.4-52-30.3.1-18.4zm47 41c2.2-1.2 2.2-5.2.1-8.9-1.1-1.9-2.5-3.3-3.9-4.1s-2.8-1-3.9-.4c-2.2 1.2-2.2 5.2-.1 8.9 1.1 1.9 2.5 3.3 3.9 4.1s2.8 1 3.9.4m-16.4-13.3c.4.3.8.1.8-.4s-.3-1.1-.8-1.4l-24.2-14.1c-.4-.2-.8-.1-.8.4s.3 1.1.8 1.4l24.2 14.1M360.9 174l52 30.3-.1 18.4-52-30.3.1-18.4zm46.9 41.1c2.2-1.2 2.2-5.2.1-8.9-1.1-1.9-2.5-3.3-3.9-4.1s-2.8-1-3.9-.4c-2.2 1.2-2.2 5.2-.1 8.9 1.1 1.9 2.5 3.3 3.9 4.1 1.5.8 2.9 1 3.9.4m-16.4-13.4c.4.3.8.1.8-.4s-.3-1.1-.8-1.4l-24.2-14.1c-.4-.2-.8 0-.8.4 0 .5.3 1.1.8 1.4l24.2 14.1" class="K"/><use xlink:href="#K" class="B"/><use xlink:href="#L" class="K"/><g class="B"><path d="M417.2 199.7L357 164.2c-1.5-.9-2.8-.2-2.8 1.6l-1 94.2c0 1.8 1.2 4 2.8 4.9l60.2 35.5c1.5.9 2.8.2 2.8-1.6l1-94.2c0-1.8-1.2-4-2.8-4.9zm-4.9 89.1l-52-30.3.1-18.4 52 30.3-.1 18.4m.2-22.1l-52-30.3.1-18.4 52 30.3-.1 18.4m.1-22l-52-30.3.1-18.4 52 30.3-.1 18.4m.1-22.1l-52-30.3.1-18.4 52 30.3-.1 18.4m-45.9 29.3L391 266c.4.2.8.9.8 1.4s-.4.7-.8.4l-24.2-14.1c-.4-.2-.8-.9-.8-1.4 0-.4.4-.6.8-.4z"/><use xlink:href="#M"/><use xlink:href="#M" x="3.6" y="2.1"/></g><path d="M405.5 279.4c.1 0 .1.1.1.2s-.1.1-.1 0c-.1 0-.1-.1-.1-.2h.1zm-45.1-39.3l52 30.3-.1 18.4-52-30.3.1-18.4zm48.1 34.7c.1-.2 0-.5-.1-.7-.1-.3-.3-.5-.5-.6l-7.5-4.4-.3-1.4c-.1-.4-.3-.7-.6-.9l-1.7-1c-.4-.2-.7-.1-.7.3s.3.9.6 1.1l1.2.8.3 1.3v.1l1.1 5.3a.76.76 0 0 0 .2.4c.1.2.3.4.5.5l.3.1c-.4.1-.6.4-.6 1 0 .9.6 2 1.4 2.4.8.5 1.4.1 1.4-.8 0-.6-.2-1.2-.6-1.7l2.1 1.2c-.4.1-.6.4-.6 1 0 .9.6 2 1.4 2.4.8.5 1.4.1 1.4-.8 0-.6-.2-1.2-.6-1.7l.4.2c.3.2.5.1.6-.2l.9-3.9m-17.5-7c.4.3.8.1.8-.4s-.3-1.1-.8-1.4l-24.2-14.1c-.4-.2-.8-.1-.8.4s.3 1.1.8 1.4l24.2 14.1" class="D"/><g class="K"><path d="M360.6 218.1l52 30.3-.1 18.4-52-30.3.1-18.4zm46.9 41.1c2.2-1.2 2.2-5.2.1-8.9-1.1-1.9-2.5-3.3-3.9-4.1s-2.8-1-3.9-.4c-2.2 1.2-2.2 5.2-.1 8.9 1.1 1.9 2.5 3.3 3.9 4.1 1.5.8 2.9 1 3.9.4m-16.3-13.4c.4.3.8.1.8-.4s-.3-1.1-.8-1.4L367 229.9c-.4-.2-.8-.1-.8.4s.3 1.1.8 1.4l24.2 14.1"/><use xlink:href="#L" x="-0.3" y="44.1"/></g><g class="B"><use xlink:href="#K" x="-0.3" y="44.1"/><path d="M367.1 207.8l24.2 14.1c.4.3.8.9.8 1.4s-.4.7-.8.4l-24.2-14.1c-.4-.3-.8-.9-.8-1.4 0-.4.4-.6.8-.4z"/></g><path d="M406.7 228.9c.3.5.4 1.1.1 1.3l-3 2.4c-.1.1-.4.1-.6 0h0c-.2-.1-.4-.3-.6-.6l-1.3-2.4c-.3-.5-.3-1.1 0-1.3.2-.1.3 0 .5.1s.4.3.6.6l.7 1.3 2.4-1.9c.2-.1.4-.1.6 0s.4.3.6.5z" class="K"/><path d="M382.4 154.3l27.1 16c.4.2.7.8.7 1.2v.2c0 .4-.3.6-.7.4l-27.1-16c-.4-.2-.7-.8-.7-1.2v-.2c.1-.4.4-.6.7-.4zm26.7 12.6l.5.3c.4.2.7.8.7 1.2v.2c0 .4-.3.6-.7.4l-.5-.3c-.4-.2-.7-.8-.7-1.2v-.2c0-.4.3-.6.7-.4z" class="I"/><path d="M417 161c1.4.8 2.5 2.8 2.5 4.3l-.3 23.3c0 1.6-1.1 2.2-2.5 1.4l-60.2-35.6c-1.4-.8-2.5-2.8-2.5-4.3l.3-23.3c0-1.6 1.1-2.2 2.5-1.4L417 161zm-6.8 13.7v-.2c0-.4-.3-1-.7-1.2l-27.1-16c-.4-.2-.7-.1-.7.4v.2c0 .4.3 1 .7 1.2l27.1 16c.4.2.7 0 .7-.4m0-3v-.2c0-.4-.3-1-.7-1.2l-27.1-16c-.4-.2-.7-.1-.7.4v.2c0 .4.3 1 .7 1.2l27.1 16c.4.2.7 0 .7-.4m-28.4-20.1v.2c0 .4.3 1 .7 1.2l23.8 14c.4.2.7.1.7-.4v-.2c0-.4-.3-1-.7-1.2l-23.8-14c-.4-.2-.7 0-.7.4m-4.2 4c1.2.7 2.1-.2 2.1-2.2s-.8-3.9-2.1-4.7c-1.2-.7-2.1.2-2.1 2.2-.1 2.1.8 4 2.1 4.7-.1 0 0 0 0 0m-4.9-2.8c1.2.7 2.1-.2 2.1-2.2s-.8-3.9-2.1-4.6c-1.2-.7-2.1.2-2.1 2.2 0 1.9.8 3.8 2.1 4.6 0-.1 0 0 0 0m-2.8-1.8v-1.3l-2-1.2.9-.4c.8-.3 1.1-.9 1.1-1.7 0-1.2-.7-2.5-1.7-3.1-.8-.4-1.3-.3-1.8.2l.6 1.3c.3-.3.7-.5 1.2-.2.4.2.7.8.7 1.3s-.2.8-.8 1.1l-1.8.8v1.1l3.6 2.1m-4.4-2.6l.1-6.6-.8-.5-1.4.5.4 1.2.8-.2-.1 5 1 .6m44.8 20.2v-.2c0-.4-.3-1-.7-1.2l-.5-.3c-.4-.2-.7 0-.7.4v.2c0 .4.3 1 .7 1.2l.5.3c.3.2.6 0 .7-.4" class="B"/><path d="M409.5 173.3l-27.1-16c-.4-.2-.7-.1-.7.4v.2c0 .4.3 1 .7 1.2l27.1 16c.4.2.7 0 .7-.4v-.2c0-.4-.3-.9-.7-1.2zm-27-22.1l23.8 14c.4.2.7.8.7 1.2v.2c0 .4-.3.6-.7.4l-23.8-14c-.4-.2-.7-.8-.7-1.2v-.2c0-.4.3-.6.7-.4z" class="I"/><path d="M246.6 75c.5.3.8.9.8 1.5 0 .5-.3.8-.8.5s-.8-.9-.9-1.8c.1-.3.5-.4.9-.2z" class="B"/><path d="M238.8 66.9l.8.5-.1 6.6-1-.6.1-5-.8.2-.4-1.2zm8.1 7.1c.9.5 1.6 1.7 1.6 3s-.8 1.8-1.8 1.2c-1.4-.8-2-2.6-2-4.5 0-2 .9-3 2.2-2.2.6.3 1.1.9 1.4 1.6l-.5.8c-.3-.5-.6-.9-1-1.1-.6-.4-1 .1-1.1 1.2.3-.3.7-.2 1.2 0zm-.3 3c.5.3.8 0 .8-.5 0-.6-.4-1.2-.8-1.5-.4-.2-.7-.1-.9.3.1.8.3 1.4.9 1.7m4.3-3c1.4.8 2 2.6 2 4.5 0 2-.9 3-2.2 2.2-.6-.3-1.1-.9-1.4-1.6l.5-.8c.3.5.6.9 1 1.1.6.4 1-.1 1.1-1.2-.3.2-.7.2-1.2-.1-.9-.5-1.6-1.7-1.6-3s.8-1.7 1.8-1.1c0-.1 0-.1 0 0zm.1 3.2c.4.2.7.1.8-.3-.1-.9-.3-1.5-.9-1.8-.5-.3-.8 0-.8.5 0 .7.4 1.3.9 1.6" class="F"/><g class="I"><use xlink:href="#N"/><path d="M258.1 84.2l.5.3c.4.2.7.8.7 1.2v.2c0 .4-.3.6-.7.4l-.6-.3c-.4-.2-.7-.8-.7-1.2v-.2c.1-.4.4-.6.8-.4zm0-3.1l12.8 7.5c.4.2.7.8.7 1.2v.2c0 .4-.3.6-.7.4l-12.8-7.5c-.4-.2-.7-.8-.7-1.2v-.2c0-.5.3-.6.7-.4z"/></g><path d="M282.2 81.4l-53.5-31.6c-1.4-.8-2.5-.2-2.5 1.4l-.3 23.3c0 1.6 1.1 3.5 2.5 4.3l53.5 31.6c1.4.8 2.5.2 2.5-1.4l.3-23.3c0-1.6-1.1-3.5-2.5-4.3zM239.5 74l-1-.6.1-5-.8.2-.4-1.2 1.4-.5.8.5-.1 6.6m2.6 1.6c-.8-.5-1.4-1.2-1.8-2.1l.6-.6c.3.7.8 1.2 1.2 1.5.5.3.9.1.9-.5s-.3-1.2-.8-1.5c-.3-.2-.6-.2-.9-.1l-.7-.8.1-3.5 3.1 1.8v1.3l-2.2-1.3v1.4c.2-.1.5-.1.9.1.8.5 1.6 1.7 1.5 3 0 1.5-.7 2-1.9 1.3m4.5 2.7c-1.4-.8-2-2.6-2-4.5 0-2 .9-3 2.2-2.2.6.3 1.1.9 1.4 1.6l-.5.8c-.3-.5-.6-.9-1-1.1-.6-.3-1 .1-1.1 1.2.3-.2.7-.2 1.2.1.9.5 1.6 1.7 1.6 3 0 1.2-.8 1.7-1.8 1.1m6.3.1c0 2-.9 3-2.2 2.2-.6-.3-1.1-.9-1.4-1.6l.5-.8c.3.5.6.9 1 1.1.6.3 1-.1 1.1-1.2-.3.2-.7.2-1.2-.1-.9-.5-1.6-1.7-1.6-3s.8-1.8 1.8-1.2c1.4 1 2 2.7 2 4.6m6.3 7.5c0 .4-.3.6-.7.4h0l-.2-.1-.3-.2c-.1 0-.1-.1-.2-.1l-.1-.1s0-.1-.1-.1l-.1-.1s0-.1-.1-.1c0-.1-.1-.1-.1-.2-.1-.1-.1-.3-.1-.4v-.4c.1-.3.4-.3.7-.2h0l.5.3.4.4c0 .1.1.1.1.2v.1a.9.9 0 0 1 .1.5l.2.1m12.3 7.2c0 .4-.3.6-.7.4l-9.4-5.6c-.4-.2-.7-.8-.7-1.2v-.2c0-.4.3-.6.7-.4l9.4 5.6c.4.2.7.8.7 1.2v.2m0-3.1c0 .4-.3.6-.7.4l-12.7-7.5c-.4-.2-.7-.8-.7-1.2v-.2c0-.4.3-.6.7-.4l12.7 7.5c.4.2.7.8.7 1.2v.2m.1-3c0 .4-.3.6-.7.4l-12.7-7.5c-.4-.2-.7-.8-.7-1.2v-.2c0-.4.3-.6.7-.4l12.7 7.5c.4.2.7.8.7 1.2v.2" class="B"/><use xlink:href="#O" class="F"/><path d="M258.1 78.1l12.7 7.5c.4.2.7.8.7 1.2v.2c0 .4-.3.6-.7.4L258 79.9c-.4-.2-.7-.8-.7-1.2v-.2c.2-.5.5-.6.8-.4z" class="I"/><path d="M227 87.4l119.2 70.4c1.4.8 2.5 2.8 2.5 4.3l-1.1 94.6c0 1.6-1.1 2.2-2.5 1.4l-119.2-70.4c-1.4-.8-2.5-2.8-2.5-4.3l1.1-94.6c0-1.6 1.1-2.2 2.5-1.4zm24-12.2c.5.3.8.9.9 1.8-.1.4-.5.5-.8.3-.5-.3-.8-.9-.8-1.5-.2-.6.2-.9.7-.6zm62.6 37.1c.6.4 1.1 1.5 1.1 2.7s-.5 1.9-1.1 1.5-1.1-1.5-1.1-2.8c0-1.2.5-1.8 1.1-1.4zm32.2 6.6c1.4.8 2.5 2.8 2.5 4.3l-.3 23.3c0 1.6-1.1 2.2-2.5 1.4L292 116.3c-1.4-.8-2.5-2.8-2.5-4.3l.3-23.3c0-1.6 1.1-2.2 2.5-1.4l53.5 31.6zm-32.3-1.1c1.2.7 2.1-.2 2.1-2.2s-.8-3.9-2.1-4.7c-1.2-.7-2.1.2-2.1 2.2s.9 4 2.1 4.7m20.6 12.3v-.2c0-.4-.3-1-.7-1.2l-12.7-7.5c-.4-.2-.7-.1-.7.4v.2c0 .4.3 1 .7 1.2l12.7 7.5c.4.2.7 0 .7-.4m.1-3v-.2c0-.4-.3-1-.7-1.2l-12.7-7.5c-.4-.2-.7-.1-.7.4v.2c0 .4.3 1 .7 1.2l12.7 7.5c.3.2.6 0 .7-.4m-29.4-14.5c1.1.6 1.8.2 1.8-.9a2.82 2.82 0 0 0-1-2.1c.5.1.9-.2.9-1 0-1-.6-2.2-1.7-2.8-.8-.5-1.4-.3-1.8.1l.6 1.2c.3-.3.7-.4 1.1-.1.5.3.8.8.8 1.3s-.3.6-.8.3l-.5-.3v1.2l.5.3c.6.4.9.8.9 1.3s-.3.6-.8.3-.9-.8-1.3-1.5l-.6.6c.4.8 1 1.6 1.9 2.1m4.1 2.5c1.1.6 1.9.2 1.9-1.2 0-1.3-.7-2.5-1.5-3-.4-.2-.7-.2-.9-.1v-1.4l2.2 1.3v-1.3l-3.1-1.8-.1 3.5.7.8c.3-.1.6-.1.9.1.5.3.8.9.8 1.5s-.3.8-.9.5c-.5-.3-.9-.8-1.2-1.5l-.6.6c.4.8 1 1.5 1.8 2m11.2.4v.2c0 .4.3 1 .7 1.2l9.4 5.6c.4.2.7.1.7-.4v-.2c0-.4-.3-1-.7-1.2l-9.4-5.6c-.4-.2-.7-.1-.7.4m-18-4.5l.1-6.6-.8-.5-1.4.5.4 1.2.8-.2-.1 5 1 .6m32.1 13v-.2c0-.4-.3-1-.7-1.2l-.5-.3c-.4-.2-.7 0-.7.4v.2c0 .4.3 1 .7 1.2l.5.3c.4.2.7 0 .7-.4" class="B"/><path d="M313.6 111c1.2.7 2.1 2.7 2.1 4.7s-.9 2.9-2.1 2.2-2.1-2.7-2.1-4.7.9-2.9 2.1-2.2zm-.1 5.5c.6.4 1.1-.3 1.1-1.5s-.4-2.4-1.1-2.7c-.6-.4-1.1.3-1.1 1.5.1 1.2.5 2.3 1.1 2.7" class="F"/><g class="I"><path d="M320.7 121.2l12.7 7.5c.4.2.7.8.7 1.2v.2c0 .4-.3.6-.7.4l-12.8-7.5c-.4-.2-.7-.8-.7-1.2v-.2c.1-.4.4-.6.8-.4z"/><use xlink:href="#N" x="59.4" y="28.9"/><path d="M320.7 118.2l12.7 7.5c.4.2.7.8.7 1.2v.2c0 .4-.3.6-.7.4l-12.8-7.5c-.4-.2-.7-.8-.7-1.2v-.2c.1-.4.5-.6.8-.4zm12.3 4.1l.5.3c.4.2.7.8.7 1.2v.2c0 .4-.3.6-.7.4l-.5-.3c-.4-.2-.7-.8-.7-1.2v-.2c0-.4.3-.6.7-.4z"/></g><g class="F"><path d="M301.4 103.9l.8.5-.1 6.6-1-.6.1-5-.8.2-.4-1.2zm3.4 1.9c1.1.6 1.8 1.8 1.7 2.8 0 .8-.4 1.1-.9 1 .5.5 1 1.3 1 2.1 0 1.1-.7 1.5-1.8.9-.9-.5-1.5-1.4-1.9-2.2l.6-.6c.3.7.8 1.2 1.2 1.5.5.3.8.1.8-.3 0-.5-.3-.9-.9-1.3l-.5-.3v-1.2l.5.3c.5.3.8.2.8-.3s-.3-1-.8-1.3-.8-.2-1.1.1l-.6-1.2c.5-.3 1.1-.5 1.9 0z"/><use xlink:href="#O" x="66.8" y="39.5"/></g><path d="M242.7 168l65 40-3.8 5.7-57.9-35.6z" class="H"/><path d="M319.8 178.8l7.4 17-10.6 9.5-76.2-46.8c7.3-18.9 26.3-23.2 47.4-11 .5.3 1.1.6 1.6 1l23.3 14.3 7.1 16zM271 161.3l49.2 30.2-10.6-24.1-13.5-8.3-.6-.3c-2.6-1.5-5.2-2.6-7.7-3.2-6.4-1.6-12-.1-15.7 4.3l-1.1 1.4" class="D"/><path d="M295.6 158.8l.6.3 2.8 1.7-.1 4.4c-.1 1.7-1.3 2.4-2.8 1.5 0 0-.1 0-.1-.1l-5.3-3.3c-1.6-1-2.8-3.2-2.7-4.9l.1-2.9c2.3.7 4.9 1.8 7.5 3.3z" class="O"/><path fill="#0d0c45" d="M240.4 158.5l76.2 46.8-5.4 4.8-3.5-2.2-69.2-42.6c.4-2.3 1.1-4.7 1.9-6.8z"/><path d="M320.7 162.1l5 12.1-5.9 4.6-7.1-16z" class="O"/><path fill="#e1e4fb" d="M328.3 161.1l-.2 6.3-4.5 1.7-2.9-7z"/><g class="E"><path d="M152 285.1l-.7.5-7.7 4.4-.8-.4 8.5-4.9z"/><use xlink:href="#P"/><path d="M153.4 296c-.9 1.4-2.1 2.3-3.1 2.2s-2.5-.4-3.8-1.1c-.1-.1-.3-.2-.4-.3s-.2-.1-.3-.2c-1.2-.9-2.2-2.4-2.2-4.6v-2l7.7-4.5.8-.4v2.7c0 1.4.4 2.6 1.2 3.3l.5.5c.7.8.6 2.7-.4 4.4z"/></g><use xlink:href="#Q" class="L"/><use xlink:href="#R" class="M"/><path d="M162.5 293.7c0 4.1-2.9 9-6.4 11.1-3.5 2-6.4.4-6.4-3.7s2.9-9 6.4-11.1c3.6-2 6.4-.3 6.4 3.7z" class="E"/><path d="M162 294c0 3.8-2.6 8.3-5.9 10.2-3.2 1.9-5.9.4-5.9-3.4s2.6-8.3 5.9-10.2c3.3-1.8 5.9-.3 5.9 3.4z" class="J"/><path d="M159.5 295.5c0 2.1-1.5 4.7-3.3 5.8s-3.3.2-3.3-1.9 1.5-4.7 3.3-5.8 3.3-.2 3.3 1.9zm-2.6-10.8l-.7.4-7.8 4.5-.7-.4 8.5-4.9z" class="E"/><use xlink:href="#S" class="N"/><path d="M158.3 298.7c-.9 1.4-2.1 2.3-3.1 2.2s-2.5-.4-3.8-1.1c-.1-.1-.3-.2-.4-.3s-.2-.1-.3-.2c-1.2-.9-2.2-2.4-2.2-4.6v-5.1l7.7-4.5.8-.4v5.9c0 1.4.4 2.6 1.2 3.3l.5.5c.7.7.6 2.6-.4 4.3z" class="G"/><g class="E"><path d="M81.3 315.3l-.7.4-7.8 4.5-.7-.5 8.5-4.9z"/><use xlink:href="#T"/><use xlink:href="#U"/></g><path d="M85.4 317.4c-4.8 2.8-8.8 9.6-8.8 15.2s3.9 7.9 8.8 5.1c4.8-2.8 8.8-9.6 8.8-15.2s-3.9-7.9-8.8-5.1z" class="L"/><use xlink:href="#V" class="M"/><path d="M91.8 323.9c0 4.1-2.9 9-6.4 11.1-3.5 2-6.4.4-6.4-3.7s2.9-9 6.4-11.1 6.4-.4 6.4 3.7z" class="E"/><path d="M91.3 324.2c0 3.8-2.6 8.3-5.9 10.2-3.2 1.9-5.9.4-5.9-3.4s2.6-8.3 5.9-10.2 5.9-.4 5.9 3.4z" class="J"/><path d="M88.7 325.6c0 2.1-1.5 4.7-3.3 5.8s-3.3.2-3.3-1.9 1.5-4.7 3.3-5.8c1.9-1 3.3-.2 3.3 1.9z" class="E"/><path d="M86.2 314.8l-.8.5-7.7 4.4-.8-.4 8.5-4.9z" class="G"/><use xlink:href="#W" class="N"/><use xlink:href="#X" class="G"/><g class="E"><path d="M189.3 312.3l-.7.5-7.8 4.4-.7-.4 8.5-4.9z"/><use xlink:href="#P" x="37.3" y="27.2"/><use xlink:href="#U" x="108" y="-2.9"/></g><use xlink:href="#Q" x="37.3" y="27.2" class="L"/><use xlink:href="#R" x="37.2" y="27.2" class="M"/><path d="M199.8 320.9c0 4.1-2.9 9-6.4 11.1-3.5 2-6.4.4-6.4-3.7s2.9-9 6.4-11.1c3.5-2 6.4-.3 6.4 3.7z" class="E"/><path d="M199.3 321.2c0 3.8-2.6 8.3-5.9 10.2-3.2 1.9-5.9.4-5.9-3.4s2.6-8.3 5.9-10.2c3.3-1.8 5.9-.3 5.9 3.4z" class="J"/><path d="M196.7 322.7c0 2.1-1.5 4.7-3.3 5.8s-3.3.2-3.3-1.9 1.5-4.7 3.3-5.8c1.9-1.1 3.3-.2 3.3 1.9zm-2.5-10.8l-.8.4-7.7 4.5-.8-.4 8.5-4.9z" class="E"/><use xlink:href="#S" x="37.3" y="27.2" class="N"/><path d="M195.5 325.9c-.9 1.4-2.1 2.3-3.1 2.2s-2.5-.4-3.8-1.1c-.1-.1-.3-.2-.4-.3s-.2-.1-.3-.2c-1.2-.9-2.2-2.4-2.2-4.6v-5.1l7.7-4.5.8-.4v5.9c0 1.4.4 2.6 1.2 3.3l.5.5c.8.7.6 2.6-.4 4.3z" class="G"/><g class="E"><path d="M118.6 342.5l-.8.4-7.7 4.5-.8-.5 8.5-4.9z"/><use xlink:href="#T" x="37.3" y="27.2"/><path d="M119.9 353.3c-.9 1.4-2.1 2.3-3.1 2.2s-2.5-.4-3.8-1.1c-.1-.1-.3-.2-.4-.3s-.2-.1-.3-.2c-1.2-.9-2.2-2.4-2.2-4.6v-1.9l7.7-4.5.8-.4v2.7c0 1.4.4 2.6 1.2 3.3l.5.5c.8.7.6 2.6-.4 4.3z"/></g><path d="M122.7 344.6c-4.8 2.8-8.8 9.6-8.8 15.2s3.9 7.9 8.8 5.1c4.8-2.8 8.8-9.6 8.8-15.2s-4-7.9-8.8-5.1z" class="L"/><use xlink:href="#V" x="37.3" y="27.2" class="M"/><path d="M129.1 351.1c0 4.1-2.9 9-6.4 11.1-3.5 2-6.4.4-6.4-3.7s2.9-9 6.4-11.1 6.4-.4 6.4 3.7z" class="E"/><path d="M128.6 351.4c0 3.8-2.6 8.3-5.9 10.2-3.2 1.9-5.9.4-5.9-3.4s2.6-8.3 5.9-10.2c3.2-1.9 5.9-.4 5.9 3.4z" class="J"/><path d="M126 352.8c0 2.1-1.5 4.7-3.3 5.8s-3.3.2-3.3-1.9 1.5-4.7 3.3-5.8c1.8-1 3.3-.2 3.3 1.9z" class="E"/><path d="M123.4 342l-.7.5-7.7 4.4-.8-.4 8.5-4.9z" class="G"/><use xlink:href="#W" x="37.3" y="27.2" class="N"/><use xlink:href="#X" x="37.3" y="27.2" class="G"/><g fill="#dedede"><path d="M192.8 313.3l-87.4 38.8c-6.2 2.9-15.2 2.7-20.9-.6L61.1 338c-5.7-3.3-6.1-8.5-1.1-12.1l70.3-48.7 5.6 2.7-70.3 48.7c-2.7 1.9-2.5 4.7.6 6.4l23.4 13.5c3 1.8 7.8 1.9 11.1.3l87.4-38.8 4.7 3.3z"/><path d="M188.2 310.1l11.4-5.3c1.9-1.1 3.1-4.3 2-5.6l-14.2-20.5c-.5-.6-.3-2 .5-3.1s1.9-1.5 2.4-.9l15 21.5c2.6 3.1-.2 10.9-5 13.6l-7.5 3.5-4.6-3.2zm-57.9-32.9l10.8-6.7c1.9-1.1 4.7-3.4 3.6-4.7l-14.2-20.5c-.5-.6-.3-2 .5-3.1s1.9-1.5 2.4-.9l13.4 20.6c2.6 3.1-.2 10.9-5 13.6l-6 4.3-5.5-2.6z"/></g><g fill="#b0b0b0"><path d="M207.4 205.1l1-5.1-60.5-35-1 5.1 13.1 7.6-4.5 22.2-12-7.4-.5 2.5 12 7.3-4.6 22.5-11.9-6.6-.5 2.4 11.9 6.6-4.5 21.9-12.1-7.3-3 3.8 57.8 33.8.6-4.5-12.2-7.3 5.8-22.6 11.4 6.3.6-2.3-11.4-6.3 5.2-20.5 11.7 7 .5-2.1-11.6-7.1 5.7-22.6 13 7.7zm-45.6-26.4l14.6 8.4-5.2 22.3-13.9-8.5 4.5-22.2zm-5.1 24.6l13.9 8.4-5 21.4-13.4-7.4 4.5-22.4zm-5.1 24.7l13.4 7.4-5.2 22.2-12.7-7.6 4.5-22zm23.2 38.6l-13.4-8 5.3-22.2 13.8 7.6-5.7 22.6zm6.3-24.8l-13.8-7.7 5.1-21.3 14 8.5-5.3 20.5zm5.8-22.8l-14-8.5 5.3-22.3 14.4 8.3-5.7 22.5z"/><path d="M133.4 260.9l12.7 7.4 14.6-8.4 1.3.7-14.6 8.4 12.7 7.4 15.5-7.9 1.3.7-15.5 7.9 12.7 7.4-1.4.7-12.7-7.3-15.5 7.9 12.1 7-1.4.7-12.1-7-15.5 7.9 11.6 6.7-1.4.7-11.5-6.7-15.5 7.9 11 6.4-1.4.7-10.9-6.3-15.5 7.6 10.4 6-1.4.7-10.4-6-15.5 7.9-1.3-.7 15.5-7.9-8.5-4.9-14.6 8.4-1.3-.7 14.6-8.4-8.5-4.9-13.6 9-1.3-.7 13.6-9-10.4-6 1.2-.8 10.4 6 13.6-9-10.9-6.3 1.2-.8 11 6.4 13.6-9-11.5-6.7 1.2-.8 11.6 6.7 13.6-9-12.1-7 1.2-.8 12.1 7 13.6-9-12.7-7.3 1.2-.8 12.7 7.4 13.6-9 1.3.7-13.8 8.8zm-34.8 36.3l-14.5 8.4 8.6 5 15.5-7.9-9.6-5.5zm-10.8-6.3l-13.6 9 8.6 5 14.5-8.4-9.5-5.6zm26.7-2.8l-14.5 8.4 9.6 5.6 15.5-7.9-10.6-6.1zm-11.9-6.9l-13.6 9 9.6 5.6 14.5-8.4-10.5-6.2zm27.7-2.3l-14.5 8.4 10.7 6.2 15.5-7.9-11.7-6.7zm-12.9-7.5l-13.6 9 10.7 6.2 14.5-8.4-11.6-6.8zm28.7-1.7l-14.5 8.4 11.7 6.8 15.5-7.9-12.7-7.3zm-13.9-8l-13.6 9 11.7 6.8 14.5-8.4-12.6-7.4z"/></g><path d="M148.3 156.9l-1.6 8-101 93.2c-.9.9-1.6 2.2-1.5 3.2l2.7 41.9v1h1.6s.1 0 .1-.1h.1l.1-.1c1.5-1.1 83.5-58.5 83.6-58.5.9-.6 1.6-1.8 1.8-2.8l17.7-87.1c.6-3-2.8-2.8-3.6 1.3zm-12.4 60.9l-12.2 9.6 3.8-21.8 13.1-11.3-4.7 23.5zm-30.2 42.1l2.7-18.7 13.2-10.3-3.6 20.4-12.3 8.6zm-14 9.8l1.8-16.8 13.2-10.4L104 261l-12.3 8.7zm-14 9.8l.9-14.9 13.2-10.4-1.8 16.7-12.3 8.6zm35.2-79.2l-2.7 18.4L95.9 231l1.8-16.6 15.2-14.1zm16.9-15.6l-3.6 20.2-14.3 12.2 2.7-18.5 15.2-13.9zm-34.1 48.2l14.2-12.2-2.9 19.7-13.3 10.4 2-17.9zM92 252.3l-13.3 10.4 1-16.1L94 234.4l-2 17.9zm2.2-19.9l-14.3 12.3.9-14.8 15.2-14-1.8 16.5zm-16 13.8l-14.6 12.5.3-13.2 15.2-14.1-.9 14.8zm-.2 1.9L77 264l-13.9 10.9.4-14.3L78 248.1zm-16.5 28.1l-11.7 9.2L49 273l12.8-11-.3 14.2zm-11.6 11l11.6-9.1-.3 13-10.5 7.4-.8-11.3zm13.2-10.4L76.9 266l-.9 14.7-13.2 9.2.3-13.1zm45.6-37.7l2.9-19.9 14.2-12.2-3.8 21.7-13.3 10.4zm32.4-47L128 203.4l3.6-20.4 14.1-13-4.6 22.1zm-78.9 55l-.3 13.1-13.1 11.2-.7-11.2 14.1-13.1zm68.7-4.9l-11.2 7.9 3.6-20.6 12.1-9.5-4.5 22.2z" class="P"/><path fill="#3a3ad1" d="M158.9 282.5l-46.4 27.1v-22.1l46.4-27.1z"/><path fill="#5050d9" d="M76.7 288.8l35.8 20.8v-22.1l-35.8-20.8z"/><path opacity=".2" fill="#191919" d="M158.9 264.9L112.5 292v-4.5l46.4-27.1v4.5zm-82.2 1.8l35.8 20.7v4.5l-35.8-20.7v-4.5z"/><path d="M159.6 247.4l-47.1 27.5-37-21.4 47.2-27.5z" class="O"/><path fill="#5050d9" d="M75.5 253.5l37 21.4v15.9l-37-21.4z"/><path fill="#3a3ad1" d="M112.5 274.9l47.1-27.5v15.9l-47.1 27.5z"/><g class="J"><path d="M89.2 322.5l-2.4-40.3-38.6-21.6v-.5l-.6.2-2.7-1.5.1 2.3-.8.2 2.7 41.9c0 .4.2.7.4.9h0l40.5 22.3v-1.8c.9-.3 1.5-1.1 1.4-2.1zm-1.9.2l-8.5-4.8-.8-12.5 8.4 4.7.9 12.6zm-28.7-16l-7.7-4.3-.8-12.6 7.8 4.3.7 12.6zm.5-11.8l8.2 4.6.8 12.5-8.2-4.6-.8-12.5zm10.2 17.8l-.8-12.5 8.2 4.6.8 12.5-8.2-4.6zm8.6-8.7l-.8-13.2 8.2 4.6 1 13.3-8.4-4.7zm-1.2-.7l-8.2-4.6-.8-13.2 8.2 4.6.8 13.2zm-9.1-19.1l-.6-10.4 8.2 4.6.6 10.4-8.2-4.6zm-1.3-.7l-8.2-4.6-.6-10.4 8.2 4.6.6 10.4zm.1 1.4l.8 13.2-8.2-4.6-.8-13.2 8.2 4.6zm-8.7 7.9l-7.8-4.3-.9-13.3 7.9 4.4.8 13.2zm27.5 1.2l-8.2-4.6-.6-10.4 8.1 4.5.7 10.5zm-29-26.2l.6 10.4-7.9-4.4-.7-10.4 8 4.4z"/><path d="M58.1 268.5c0 .5.4.7.8.5.5-.3.8-.9.8-1.4s-.4-.7-.8-.5-.8.8-.8 1.4z"/><path d="M58.4 269l4.5 2.5c.1-.8.3-1.6.7-2.3l-4.1-2.3c-.2-.1-.4-.1-.6 0-.5.3-.8.9-.8 1.4 0 .4.1.6.3.7-.1 0-.1 0 0 0z"/></g><path fill="#0d0c45" d="M229.4 151.4c-.3-.2-.8-.2-1.3.1-1 .6-1.8 2-1.8 3.1 0 .6.2 1 .5 1.2l-52.3-30.3-.2-.1c-.3-.2-.4-.6-.4-1.1 0-1.1.8-2.5 1.8-3.1.5-.3.9-.3 1.2-.2.1 0 .1.1.2.1l52.3 30.3z"/><path d="M197.9 228.5c-.2 0-.5 0-.8-.1-1.6-.4-2.6-2.1-2.2-3.7l10.1-39.6c.7-2.6 1.8-5 3.3-7.1l23.8-33c1-1.4 2.9-1.7 4.2-.7 1.4 1 1.7 2.9.7 4.2l-23.8 33c-1.1 1.5-1.9 3.2-2.4 5.1l-10.1 39.6c-.2 1.3-1.5 2.3-2.8 2.3zm-54.8-31.2c-.2 0-.4 0-.6-.1-1.6-.3-2.7-1.9-2.4-3.6l7.6-37.7c.4-2.2 1.3-4.2 2.6-6.1l25.3-36.7c1-1.4 2.8-1.7 4.2-.8 1.4 1 1.7 2.8.8 4.2l-25.3 36.7c-.8 1.2-1.3 2.4-1.6 3.8l-7.6 37.7c-.3 1.6-1.6 2.6-3 2.6z" class="G"/><path d="M142.4 169.7c-.4-.2-.7-.2-.9 0l-6.5 6 2 2.3 6.2-5.7.2-.2c.1-.1.2-.3.2-.6-.1-.6-.6-1.4-1.2-1.8z" class="P"/><path fill="#6d6be8" d="M151 166.7l-.3-.2c-.3-.1-.7-.1-1.1.2-1 .6-1.8 1.9-1.8 3.1 0 .5.2.9.4 1.1.1 0 .1.1.2.1l5.7 3.3 1.4-5-4.5-2.6z"/><path fill="#bd852a" d="M174.5 242.1l-46.5 27v-22l46.5-27.1z"/><path fill="#da9930" d="M92.2 248.4l35.8 20.7v-22l-35.8-20.8z"/><path opacity=".2" fill="#191919" d="M174.5 224.5l-46.5 27V247l46.4-27.1.1 4.6zm-82.3 1.8L128 247v4.5l-35.8-20.7v-4.5z"/><path fill="#ffd952" d="M175.2 207L128 234.5l-36.9-21.4 47.1-27.5z"/><path fill="#ffc700" d="M91.1 213.1l36.9 21.4v15.9l-36.9-21.5z"/><path fill="#d9a900" d="M128 234.5l47.2-27.5v15.9L128 250.4z"/><path d="M208 192.5l-1.9 7.8-120.1 80c-1.1.7-1.9 2-1.8 3l3.2 42.4v.7l.1.1h.1l.1.1h1.7c.1 0 .1 0 .2-.1h.1c1.8-.9 99.4-47.6 99.5-47.6 1-.5 1.9-1.6 2.2-2.6l21.1-84.8c.5-2.8-3.5-3.1-4.5 1zm-14.8 59.2l-14.5 8 4.6-21.3 15.6-9.5-5.7 22.8zm-35.9 38.1l3.2-18.3 15.7-8.6-4.3 19.9-14.6 7zm-16.7 8l2.2-16.5 15.7-8.6-3.2 18.1-14.7 7zm-16.7 8L125 291l15.7-8.6-2.2 16.4-14.6 7zm-32.2 15.4l-.9-11.4 14.5-8-.1 12.9-13.5 6.5zm74.1-90l-3.2 18-17 10.4 2.2-16.4 18-12zm20.1-13.4l-4.2 19.8-17 10.4 3.2-18.1 18-12.1zm-40.5 43.8l16.9-10.3-3.4 19.4-15.8 8.7 2.3-17.8zm-4.4 18.8l-15.8 8.7 1.2-15.9 16.9-10.3-2.3 17.5zm2.6-19.5l-17 10.4 1.1-14.7 18.1-12-2.2 16.3zm-19.1 11.6l-17 10.5.1-13 18.1-12-1.2 14.5zm-.1 1.9l-1.2 15.8-15.9 8.7.1-14.2 17-10.3zM105.3 300l-14.6 8-1-12.5 15.7-9.6-.1 14.1zm2 .8l15.7-8.6-1.1 14.6-14.7 7 .1-13zm53.6-31.3l3.4-19.5 16.9-10.3-4.5 21.2-15.8 8.6zm38.6-42.8l-15.7 9.6 4.3-19.9 16.8-11.2-5.4 21.5zm-93.9 44.6l-.1 12.9-15.9 9.7-.9-11.3 16.9-11.3zm81.7 4.2l-13.3 6.4 4.3-20.1 14.4-7.9-5.4 21.6z" class="P"/><g class="B"><path d="M441.8 292.6l-7.2 4.1v-8.3z"/><path d="M434.6 288.4l4.3-2.5 7.2 4.2-4.3 2.5zm4.3-10.4c0 1 .7 2.2 1.6 2.7l-4.3 2.5c-.9-.5-1.6-1.7-1.6-2.7l4.3-2.5z"/><path d="M434.7 253.2l4.3-2.5-.1 27.3-4.2 2.5z"/><path d="M439 250.7l-4.2 2.4c0-.5.2-.9.5-1l4.3-2.5c-.4.2-.6.6-.6 1.1z"/></g><path d="M435.2 252.2l4.3-2.5c.3-.2.7-.1 1.1.1l-4.3 2.5c-.4-.3-.8-.3-1.1-.1z" class="D"/><path d="M438.9 242c.1.8.4 1.7.9 2.5l-4.3 2.5c-.5-.8-.8-1.7-.9-2.5l4.3-2.5z" class="B"/><g class="D"><path d="M457.1 282.8l4.3-2.5a1.36 1.36 0 0 0 .7 1.1c.1.1.2.1.3.1l-4.3 2.5c-.1 0-.2 0-.3-.1-.4-.1-.7-.6-.7-1.1z"/><path d="M457.1 279.8l4.3-2.5v3.1l-4.3 2.4z"/></g><path d="M442.1 246.9c.9.5 1.7.6 2.3.2l-4.3 2.5c-.6.3-1.4.3-2.3-.2-.2-.1-.4-.2-.5-.4-.7-.5-1.3-1.2-1.8-2.1l4.3-2.5c.5.8 1.1 1.5 1.8 2.1.2.2.4.3.5.4zm-2.3-7.7c-.7.4-1.1 1.4-.9 2.8l-4.3 2.5c-.2-1.4.2-2.4.9-2.8l4.3-2.5z" class="B"/><g class="D"><path d="M458.1 284.1l4.2-2.5 2.4-.2-4.3 2.5zm-1-7.4l4.3-2.5v3.1l-4.3 2.5z"/><path d="M461.4 274.2c-.6.4-1.2.7-1.9 1.1-.6.3-1.1.6-1.7 1-.2.1-.4.2-.5.3-.1 0-.2.1-.2.1 0-.2.1-.4.2-.4l4.3-2.5c-.1 0-.2.2-.2.4z"/></g><path d="M457.3 276.2l4.3-2.5c.1-.1.3-.1.5 0l-4.3 2.5h-.5z" class="B"/><path d="M435.5 241.7l4.3-2.5c.6-.3 1.4-.3 2.3.2l-4.3 2.5c-.8-.5-1.7-.5-2.3-.2z" class="H"/><path d="M457.7 276.3l4.3-2.5.3.3-4.3 2.5c0-.1-.1-.2-.3-.3z" class="B"/><path d="M460.4 283.9l4.3-2.5 2.3-.2-4.3 2.5z" class="D"/><path d="M458.1 276.6l4.3-2.5 2.3 2.9-4.3 2.5z" class="B"/><path d="M467.1 281.1l-4.3 2.5h-.1l4.3-2.5c.1.1.1.1.1 0z" class="D"/><path d="M444.5 247.2l-4.3 2.5c.7-.4 1.1-1.4.9-2.8-.2-1.7-1.3-3.6-2.7-4.6-.2-.1-.4-.3-.6-.4l4.3-2.5c.2.1.4.2.6.4 1.4 1 2.4 2.9 2.7 4.6.1 1.4-.2 2.4-.9 2.8z" class="H"/><path d="M436.3 252.3l4.3-2.5 49.6 28.6-4.3 2.5z" class="D"/><g class="B"><path d="M444 250.3l4.3-2.5v1.6l-4.3 2.5zm16.4 29.2l4.3-2.5 2.3 2.9-4.3 2.5z"/><path d="M467.1 281.1l-4.3 2.5c.3-.2.2-.8-.1-1.3l4.3-2.5c.4.5.4 1.2.1 1.3zm-30.9 2.1l4.3-2.5 49.6 28.6-4.3 2.5z"/></g><path d="M487.5 283.6l4.3-2.5-.1 27.3-4.3 2.5z" class="D"/><path d="M491.2 309.5l-4.3 2.5c-.3.2-.7.1-1.1-.1l4.3-2.5c.4.2.8.2 1.1.1z" class="B"/><path d="M485.9 280.9c.9.5 1.6 1.7 1.6 2.7l-.1 27.3c0 1-.7 1.4-1.6.9l-49.6-28.6c-.9-.5-1.6-1.7-1.6-2.7l.1-27.3c0-1 .7-1.4 1.6-.9l49.6 28.6zm-23.2 2.8c.4 0 .4-.8 0-1.3l-4.6-5.8-.3-.3c-.3-.2-.7-.1-.7.4v6.2a1.36 1.36 0 0 0 .7 1.1c.1.1.2.1.3.1l4.6-.4" class="D"/><path d="M457.7 276.3l.3.3 4.6 5.8c.4.5.4 1.3 0 1.3l-4.6.4c-.1 0-.2 0-.3-.1-.3-.2-.7-.7-.7-1.1v-6.2c.1-.5.4-.6.7-.4zM444 246.5l4.3-2.5v1.7l-4.3 2.5z" class="B"/><path d="M491.2 309.5l-4.3 2.5c.3-.2.5-.5.5-1l4.3-2.5c0 .4-.2.8-.5 1z" class="D"/><path d="M444 251.9l4.3-2.5 33.7 19.5-4.3 2.5z" class="B"/><path d="M444 250.3l4.3-2.5 33.7 19.4-4.3 2.5z" class="H"/><path d="M444 248.2l4.3-2.5 19 10.9-4.3 2.5z" class="B"/><g class="H"><path d="M463 257.5l4.3-2.5v1.6l-4.3 2.5z"/><path d="M444 246.5l4.3-2.5 19 11-4.3 2.5zm33.7 23.2l4.3-2.5v1.7l-4.3 2.5z"/></g><path d="M485.9 280.9l4.3-2.5c.9.5 1.6 1.7 1.6 2.7l-4.3 2.5c0-1-.7-2.2-1.6-2.7z" class="D"/><path d="M490.5 268c1.2.7 2.1 2.3 2.1 3.7l-.1 47.7c0 1.4-1 1.9-2.2 1.2l-48.5-28-7.2-4.1-3.5-2c-1.2-.7-2.1-2.3-2.1-3.7l.1-47.7c0-1.4 1-1.9 2.2-1.2l59.2 34.1zm-3.1 42.9l.1-27.3c0-1-.7-2.2-1.6-2.7l-49.6-28.6c-.9-.5-1.6-.1-1.6.9l-.1 27.3c0 1 .7 2.2 1.6 2.7l49.6 28.6c.9.5 1.6.1 1.6-.9M444 250.3v1.6l33.7 19.5v-1.6L444 250.3m-9.4-5.8c.2 1.7 1.3 3.6 2.7 4.6.2.1.4.3.5.4 2 1.1 3.6 0 3.2-2.5-.2-1.7-1.3-3.6-2.7-4.6-.2-.1-.4-.3-.6-.4-1.8-1.2-3.4-.1-3.1 2.5m9.4 2v1.6l19 11v-1.6l-19-11" class="B"/><path d="M437.9 241.9c.2.1.4.2.6.4 1.4 1 2.4 2.9 2.7 4.6.3 2.5-1.3 3.7-3.2 2.5-.2-.1-.4-.2-.5-.4-1.4-1-2.4-2.9-2.7-4.6-.5-2.5 1.1-3.6 3.1-2.5zm25.1 15.6v1.6l-19-10.9v-1.7zm14.7 12.2v1.7L444 251.9v-1.6zm17.1-4.2l-59.2-34.2c-.6-.3-1.1-.4-1.5-.1l-4.3 2.5c.4-.2.9-.2 1.5.1l59.2 34.2c1.2.7 2.1 2.3 2.1 3.7l-.1 47.7c0 .7-.2 1.2-.6 1.4l4.3-2.5c.4-.2.6-.7.6-1.4l.1-47.7c0-1.3-.9-3-2.1-3.7z" class="H"/><g class="C"><path d="M414.8 170.7l5.1-2.9 3.6 6.3-5 2.9z"/><path d="M414.2 169.7l5.1-2.9.6 1-5.1 2.9z"/><path d="M419.3 162.6c-1 .6-1 2.4 0 4.2l-5 2.9c-1-1.7-1-3.6 0-4.2l.6-.3 4.4-2.6zm-.8 14.4l5-2.9 3.6-2.1-5 2.9z"/></g><g class="B"><path d="M423.507 165.734l-5.015 2.915-.603-1.038 5.015-2.915z"/><path d="M414.3 165.5l5-2.9c.5-.3 1.2-.2 1.8.2.7.4 1.3 1.1 1.8 1.9l-5 2.9c-.5-.9-1.2-1.5-1.8-1.9-.7-.4-1.3-.5-1.8-.2z"/></g><path d="M422.1 174.9l5-2.9.7-.3-5.1 2.9z" class="C"/><g class="B"><path d="M418.5 168.7l5-3 .6-.3-5 2.9z"/><path d="M419.1 168.3l5-2.9c.5-.3 1.2-.2 1.8.2l-5 2.9c-.6-.4-1.3-.5-1.8-.2z"/><path d="M420.9 168.5l5-2.9c.7.4 1.3 1.1 1.8 1.9 1 1.7 1 3.6 0 4.2l-5 2.9c1-.6 1-2.5 0-4.2-.4-.9-1.1-1.5-1.8-1.9z"/><path d="M420.9 168.5c.7.4 1.3 1.1 1.8 1.9 1 1.7 1 3.6 0 4.2l-.6.3-3.7 2.1-3.6-6.3-.6-1.1c-1-1.7-1-3.6 0-4.2.5-.3 1.2-.2 1.8.2.7.4 1.3 1.1 1.8 1.9l.6 1 .6-.3c.6-.2 1.3-.1 1.9.3z"/></g><g class="C"><path d="M430.8 184.5l5-2.9 3.5 2-5 2.9zm-.9-13.1l5-2.9v3.1l-5 3z"/><path d="M439.9 186.9l5-2.9v2.8l-5 3zm-10-12.3l5-3 5.1 3-5 2.9z"/><path d="M435 177.5l5-2.9-4.2 7-5 2.9z"/></g><path d="M438.5 179l5-2.9-4.2 7.5-5 2.9z" class="B"/><path d="M439.9 189.8l5-3 8.7 5.1-5 2.9zm-.2-10.5l5-2.9 1.9 3.3-5 3z" class="C"/><g class="B"><path d="M439.9 186.9l5-2.9 4.1-1.1-5 3zm-10-15.5l5-2.9 8.6 5-5 2.9z"/><path d="M438.5 176.4v2.6l-4.2 7.5-3.5-2 4.2-7-5.1-2.9v-3.2z"/><path d="M438.5 176.4l5-2.9v2.6l-5 2.9z"/></g><path d="M445.2 176.2c-.1.1-.3.2-.4.3l-5 2.9c.1-.1.3-.2.4-.3l5-2.9z" class="C"/><path d="M444.6 189.3l5-2.9 4 2.3-5 2.9z" class="B"/><path d="M444.6 189.3l5-2.9 1.4-.2-5 2.9z" class="C"/><path d="M449.8 182.6l-5 2.9c-.2.1-.5.2-.8.3l5-2.9.8-.3zm-1.2 9l5-2.9v3.2l-5 2.9z" class="B"/><path d="M451 186.2c.6-.1 1-.2 1.4-.4l-5 2.9c-.4.2-.8.4-1.4.4 1.5-.9 3.4-2.3 5-2.9zm-.6-4.6c0 .4-.1.8-.6 1l-5 2.9c.4-.3.6-.6.6-1 0-.7-.5-1.5-1.2-1.9l5-2.9-5 2.9c-.9-.5-1.7-.5-2.5 0l5-2.9c.8-.5 1.6-.6 2.5 0 .7.4 1.2 1.2 1.2 1.9z" class="C"/><g class="B"><path d="M440.1 179.1l5-2.9c1.1-.7 2.5-.5 4.1.4l-5 2.9c-1.6-1-2.9-1.1-4.1-.4z"/><path d="M444.2 179.5c2.6 1.5 4.3 4.3 4.3 6.7 0 1.6-.6 2.6-2.5 2.9l-1.4.2 4 2.3v3.2l-8.7-5v-2.9l4.1-1c1.1-.3 1.4-.7 1.4-1.4s-.5-1.5-1.2-1.9c-.9-.5-1.7-.5-2.5 0l-1.9-3.3c1.1-.9 2.6-.9 4.4.2z"/><path d="M452.4 185.7l-5 2.9c.8-.5 1.1-1.3 1.1-2.5 0-2.4-1.7-5.2-4.3-6.7l5-2.9c2.6 1.5 4.3 4.3 4.3 6.7.1 1.2-.2 2-1.1 2.5z"/></g><path fill="#f6622c" d="M455.7 173.2l-35.3-20.4c-2.4-1.4-4.5-1.5-6.1-.6l-5 2.9c1.5-.9 3.7-.8 6.1.6l35.3 20.4c4.7 2.7 8.5 9.3 8.5 14.7v9.5c0 2.7-1 4.6-2.5 5.5l5-2.9c1.5-.9 2.5-2.8 2.5-5.5v-9.5c0-5.4-3.8-12-8.5-14.7z"/><g class="C"><path d="M450.7 176.1c4.7 2.7 8.5 9.3 8.5 14.7v9.5c0 5.4-3.8 7.6-8.5 4.9l-35.3-20.4c-4.7-2.7-8.5-9.3-8.5-14.7v-9.5c0-5.4 3.8-7.6 8.5-4.9l35.3 20.4zm-2.1 18.7v-3.2l-4-2.3 1.4-.2c1.9-.3 2.5-1.3 2.5-2.9 0-2.4-1.7-5.2-4.3-6.7-1.8-1-3.3-1.1-4.5-.1l1.9 3.3c.8-.5 1.6-.6 2.5 0 .7.4 1.2 1.2 1.2 1.9s-.3 1.1-1.4 1.4l-4.1 1v2.9l8.8 4.9M438.5 179v-2.7l-8.6-5v3.2l5.1 2.9-4.2 7 3.5 2 4.2-7.4m-15.8-4.4c1-.6 1-2.5 0-4.2-.5-.9-1.2-1.5-1.8-1.9-.7-.4-1.3-.5-1.8-.2l-.6.3-.6-1c-.5-.9-1.2-1.5-1.8-1.9-.7-.4-1.3-.5-1.8-.2-1 .6-1 2.4 0 4.2l.6 1.1 3.6 6.3 3.7-2.1.5-.4m-257-93.9l4.3-2.5 4.9 8.5-4.3 2.5z"/><path d="M164.9 79.3l4.3-2.5.8 1.4-4.3 2.5zm4.2-2.5l-4.3 2.5 4.3-2.5z"/><path d="M169.1 76.8l-4.3 2.5c-1.3-2.3-1.3-4.8 0-5.6l4.3-2.5c-1.3.8-1.3 3.3 0 5.6z"/></g><path d="M157.9 62.4l4.3-2.5c.9-.5 2.1-.4 3.4.3l-4.3 2.5c-1.3-.7-2.5-.8-3.4-.3z" class="B"/><path d="M170.6 89.2l4.3-2.5 4.9-2.8-4.3 2.5z" class="C"/><g class="B"><path d="M169.8 76.5l4.3-2.5.8 1.4-4.3 2.5z"/><path d="M164.9 73.7l4.3-2.5c.7-.4 1.6-.3 2.5.2s1.8 1.4 2.5 2.6l-4.3 2.5c-.7-1.2-1.6-2.1-2.5-2.6s-1.8-.6-2.5-.2zm5.7 4.2l4.3-2.5.8-.4-4.3 2.5z"/><path d="M171.4 77.5l4.3-2.5c.7-.4 1.6-.3 2.5.2l-4.3 2.5c-.9-.5-1.8-.6-2.5-.2z"/><path d="M173.9 77.7l4.3-2.5c.9.5 1.8 1.4 2.5 2.6 1.4 2.3 1.3 4.9 0 5.6l-4.3 2.5c1.4-.8 1.4-3.3 0-5.6-.7-1.2-1.6-2.1-2.5-2.6z"/></g><path d="M180 73.5c2.6 1.5 4.8 5.2 4.8 8.2v17.4c0 3-2.2 4.3-4.8 2.7l-3.9-2.2-6.6 3.8v-7.6l-8.2-4.7c-2.6-1.5-4.8-5.2-4.8-8.2V65.5c0-3 2.2-4.3 4.8-2.7L180 73.5zm-3.7 12.4c1.4-.8 1.4-3.3 0-5.6-.7-1.2-1.6-2.1-2.5-2.6s-1.8-.6-2.5-.2l-.8.5-.8-1.4c-.7-1.2-1.6-2.1-2.5-2.6s-1.8-.6-2.5-.2c-1.4.8-1.4 3.3 0 5.6l.8 1.4 4.9 8.5 4.9-2.8 1-.6" class="C"/><path d="M173.9 77.7c.9.5 1.8 1.4 2.5 2.6 1.4 2.3 1.3 4.9 0 5.6l-.8.5-4.9 2.8-4.9-8.5-.8-1.4c-1.3-2.3-1.3-4.9 0-5.6.7-.4 1.6-.3 2.5.2s1.8 1.4 2.5 2.6l.8 1.4.8-.5c.5-.3 1.4-.2 2.3.3z" class="B"/><path d="M176.5 85.8l-1 .6.8-.5c.1 0 .1 0 .2-.1z" class="C"/><g class="B"><path d="M187.6 99.8l-4.3 2.5c.9-.5 1.4-1.6 1.4-3.1l4.3-2.5c0 1.5-.6 2.6-1.4 3.1z"/><path d="M184.7 81.8l4.3-2.5v17.4l-4.3 2.5zm-23.4-19l4.3-2.5L184.2 71l-4.2 2.5z"/><path d="M180 73.5l4.3-2.5c2.6 1.5 4.8 5.2 4.8 8.2l-4.3 2.5c-.1-3-2.2-6.7-4.8-8.2z"/></g><g class="C"><path d="M415.6 84.2l5-2.9 5.7 9.9-5 2.9z"/><path d="M414.7 82.6l5-2.9.9 1.6-5 2.9zm4.9-3h0l-5 2.9 5-2.9z"/><path d="M419.6 79.6l-5 2.9c-1.6-2.7-1.5-5.7 0-6.6l5-2.9c-1.5 1-1.5 3.9 0 6.6z"/></g><path d="M406.5 62.8l5-2.9c1-.6 2.4-.5 4 .4l-5 2.9c-1.5-.9-2.9-.9-4-.4z" class="B"/><path d="M421.3 94.1l5-2.9 5.8-3.3-5 2.9z" class="C"/><g class="B"><path d="M420.4 79.3l5-2.9 1 1.6-5 2.9z"/><path d="M414.7 76l5-2.9c.8-.5 1.8-.3 2.9.3 1 .6 2.1 1.7 2.9 3l-5 2.9c-.8-1.4-1.8-2.4-2.9-3s-2.1-.8-2.9-.3zm6.7 4.9l5-2.9.9-.5-5 2.9z"/><path d="M422.3 80.4l5-2.9c.8-.5 1.8-.3 2.9.3l-5 2.9c-1-.6-2.1-.8-2.9-.3z"/><path d="M425.2 80.7l5-2.9c1 .6 2.1 1.7 2.9 3 1.6 2.7 1.6 5.7 0 6.6l-5 2.9c1.6-.9 1.6-3.9 0-6.6-.8-1.4-1.9-2.4-2.9-3z"/></g><path d="M432.3 75.8c3.1 1.8 5.6 6.1 5.6 9.6l-.1 20.4c0 3.5-2.5 5-5.6 3.2l-4.5-2.6-7.7 4.4v-8.9l-9.5-5.5c-3.1-1.8-5.6-6.1-5.6-9.6l.1-20.4c0-3.5 2.5-5 5.6-3.2l21.7 12.6zM428 90.3c1.6-.9 1.6-3.9 0-6.6-.8-1.4-1.8-2.4-2.9-3-1-.6-2.1-.7-2.9-.3l-1 .5-1-1.6c-.8-1.4-1.8-2.4-2.9-3-1-.6-2.1-.7-2.9-.3-1.6.9-1.6 3.9 0 6.6l1 1.7 5.7 9.9 5.7-3.3 1.2-.6" class="C"/><path d="M425.2 80.7c1 .6 2.1 1.7 2.9 3 1.6 2.7 1.6 5.7 0 6.6l-1 .5-5.7 3.3-5.7-9.9-1-1.7c-1.6-2.7-1.6-5.7 0-6.6.8-.5 1.8-.3 2.9.3 1 .6 2.1 1.7 2.9 3l1 1.6 1-.5c.6-.4 1.7-.2 2.7.4z" class="B"/><path d="M428.2 90.2l-1.1.7 1-.5c0-.1.1-.2.1-.2z" class="C"/><g class="B"><path d="M441.2 106.5l-5 2.9c1-.6 1.6-1.8 1.6-3.6l5-2.9c0 1.7-.6 3-1.6 3.6z"/><path d="M437.8 85.4l5-2.9v20.4l-5 2.9zm-27.3-22.2l5-2.9 21.8 12.6-5 2.9z"/><path d="M432.3 75.8l5-2.9c3.1 1.8 5.6 6.1 5.6 9.6l-5 2.9c-.1-3.5-2.5-7.8-5.6-9.6z"/></g></svg>