<svg xmlns="http://www.w3.org/2000/svg" version="1.1" xmlns:xlink="http://www.w3.org/1999/xlink" xmlns:svgjs="http://svgjs.com/svgjs" width="512" height="512" x="0" y="0" viewBox="0 0 512 512" style="enable-background:new 0 0 512 512" xml:space="preserve" class=""><g><path xmlns="http://www.w3.org/2000/svg" d="M340.686,240l-2.343,2.343a8,8,0,0,0,11.314,11.314l16-16a8,8,0,0,0,0-11.314l-16-16a8,8,0,0,0-11.314,11.314L340.686,224H254.624A24.119,24.119,0,0,0,240,209.376V155.314l2.343,2.343a8,8,0,0,0,11.314-11.314l-16-16a8,8,0,0,0-11.314,0l-16,16a8,8,0,0,0,11.314,11.314L224,155.314v54.062A24,24,0,1,0,254.624,240ZM232,240a8,8,0,1,1,8-8A8.009,8.009,0,0,1,232,240Z" fill="#ffffff" data-original="#000000" class=""></path><path xmlns="http://www.w3.org/2000/svg" d="M437.551,298.521a215.83,215.83,0,1,0-139.03,139.028,103.99,103.99,0,1,0,139.03-139.028ZM232,432C121.72,432,32,342.28,32,232S121.72,32,232,32s200,89.72,200,200a199.635,199.635,0,0,1-9.347,60.612,103.09,103.09,0,0,0-15.691-3.531A183.43,183.43,0,0,0,416,232c0-101.458-82.542-184-184-184S48,130.542,48,232s82.542,184,184,184a183.348,183.348,0,0,0,57.082-9.03,103.08,103.08,0,0,0,3.529,15.679A199.66,199.66,0,0,1,232,432Zm56.02-41.569A166.772,166.772,0,0,1,240,399.813V392a8,8,0,0,0-16,0v7.805a167.354,167.354,0,0,1-104.948-43.544l5.468-5.468a8,8,0,1,0-11.314-11.313l-5.467,5.468A167.354,167.354,0,0,1,64.195,240H72a8,8,0,0,0,0-16H64.195a167.359,167.359,0,0,1,43.544-104.948l6.6,6.6a8,8,0,1,0,11.314-11.312l-6.6-6.6A167.351,167.351,0,0,1,224,64.195V72a8,8,0,0,0,16,0V64.195a167.354,167.354,0,0,1,104.948,43.544l-5.468,5.468a8,8,0,0,0,11.314,11.313l5.467-5.468A167.354,167.354,0,0,1,399.805,224H392a8,8,0,0,0,0,16h7.812a166.9,166.9,0,0,1-9.387,48.02A104.113,104.113,0,0,0,288.02,390.431ZM392,480a88,88,0,1,1,88-88A88.1,88.1,0,0,1,392,480Z" fill="#ffffff" data-original="#000000" class=""></path><path xmlns="http://www.w3.org/2000/svg" d="M436.912,353.686a8,8,0,0,0-11.227,1.4l-50.436,64.847-17.592-17.593a8,8,0,0,0-11.314,11.314l24,24A8,8,0,0,0,376,440c.165,0,.331,0,.5-.016a8,8,0,0,0,5.818-3.073l56-72A8,8,0,0,0,436.912,353.686Z" fill="#ffffff" data-original="#000000" class=""></path></g></svg>