<?xml version="1.0" encoding="utf-8"?>
<!-- Generator: Adobe Illustrator 23.0.5, SVG Export Plug-In . SVG Version: 6.00 Build 0)  -->
<svg version="1.1" xmlns="http://www.w3.org/2000/svg" xmlns:xlink="http://www.w3.org/1999/xlink" x="0px" y="0px"
	 viewBox="0 0 5000 3375" enable-background="new 0 0 5000 3375" xml:space="preserve">
<g id="Layer_2">
	<linearGradient id="SVGID_1_" gradientUnits="userSpaceOnUse" x1="2500" y1="-2542.0183" x2="2500" y2="5903.4814">
		<stop  offset="0.3862" style="stop-color:#38CAD1"/>
		<stop  offset="0.4953" style="stop-color:#3BB6D5"/>
		<stop  offset="0.7182" style="stop-color:#4383DF"/>
		<stop  offset="1" style="stop-color:#4F3BED"/>
	</linearGradient>
	<rect y="-896.33" fill="url(#SVGID_1_)" width="5000" height="5000"/>
</g>
<g id="Layer_3">
	<g opacity="0.6">
		<g>
			<g>
				
					<rect x="3918.38" y="58.31" transform="matrix(0.4239 -0.9057 0.9057 0.4239 1833.3079 3822.052)" fill="#FFFFFF" width="5" height="823.38"/>
			</g>
			<g>
				
					<rect x="2901.41" y="450.32" transform="matrix(0.8882 -0.4594 0.4594 0.8882 154.5469 1540.8531)" fill="#FFFFFF" width="684.87" height="5"/>
			</g>
			<g>
				
					<rect x="3617.55" y="287.65" transform="matrix(0.9765 -0.2156 0.2156 0.9765 -48.9263 795.1171)" fill="#FFFFFF" width="5" height="668.35"/>
			</g>
			<g>
				
					<rect x="3187.35" y="1456.46" transform="matrix(0.5856 -0.8106 0.8106 0.5856 -216.9094 3372.344)" fill="#FFFFFF" width="5" height="883.72"/>
			</g>
			<g>
				
					<rect x="4151.57" y="669.36" transform="matrix(0.4661 -0.8847 0.8847 0.4661 1163.7268 4311.4282)" fill="#FFFFFF" width="5" height="1044.32"/>
			</g>
			<g>
				<polygon fill="#FFFFFF" points="3883.23,1625.83 3884.2,1623.53 4297.5,643.36 4291.97,641.03 4291,643.33 3877.7,1623.5 				
					"/>
			</g>
			<g>
				
					<rect x="2236.71" y="-219.87" transform="matrix(0.1681 -0.9858 0.9858 0.1681 1379.1475 2615.5959)" fill="#FFFFFF" width="5" height="1421.17"/>
			</g>
			<g>
				
					<rect x="2750.13" y="166.91" transform="matrix(0.6977 -0.7164 0.7164 0.6977 525.5681 2101.4182)" fill="#FFFFFF" width="5" height="522.17"/>
			</g>
			<g>
				
					<rect x="1763.61" y="1792.74" transform="matrix(0.4763 -0.8793 0.8793 0.4763 -459.8849 2818.3169)" fill="#FFFFFF" width="744.92" height="5"/>
			</g>
			<g>
				
					<rect x="1896.26" y="1878.64" transform="matrix(0.8749 -0.4842 0.4842 0.8749 -611.3712 1395.11)" fill="#FFFFFF" width="997.83" height="5"/>
			</g>
			<g>
				
					<rect x="1563.88" y="1533.96" transform="matrix(0.9833 -0.1818 0.1818 0.9833 -246.9974 378.6819)" fill="#FFFFFF" width="755.9" height="5"/>
			</g>
			<g>
				<polygon fill="#FFFFFF" points="486.6,1431.69 1165.27,897.67 1162.16,893.78 483.49,1427.8 				"/>
			</g>
			<g>
				
					<rect x="968.86" y="405.27" transform="matrix(0.7297 -0.6838 0.6838 0.7297 -206.8962 849.773)" fill="#FFFFFF" width="5" height="562.6"/>
			</g>
			<g>
				
					<rect x="1030.44" y="629.05" transform="matrix(0.5845 -0.8114 0.8114 0.5845 48.9617 1358.7255)" fill="#FFFFFF" width="641.56" height="5"/>
			</g>
			<g>
				
					<rect x="1551.95" y="371.08" transform="matrix(0.9997 -0.0254 0.0254 0.9997 -24.6015 39.805)" fill="#FFFFFF" width="5" height="1234.3"/>
			</g>
			<g>
				
					<rect x="1640.73" y="455.5" transform="matrix(0.0941 -0.9956 0.9956 0.0941 555.5365 2484.8633)" fill="#FFFFFF" width="5" height="963.31"/>
			</g>
			<g>
				
					<rect x="1761.92" y="1540.39" transform="matrix(0.7997 -0.6004 0.6004 0.7997 -765.728 1432.83)" fill="#FFFFFF" width="5" height="647.13"/>
			</g>
			<g>
				
					<rect x="2246.22" y="1266.79" transform="matrix(0.7939 -0.608 0.608 0.7939 -241.5828 1825.8561)" fill="#FFFFFF" width="652.74" height="5"/>
			</g>
			<g>
				
					<rect x="2215.62" y="964.42" transform="matrix(0.9306 -0.3659 0.3659 0.9306 -294.4652 896.6567)" fill="#FFFFFF" width="5" height="521.39"/>
			</g>
			<g>
				
					<rect x="2827.34" y="1006.99" transform="matrix(0.99 -0.1412 0.1412 0.99 -109.8566 470.6779)" fill="#FFFFFF" width="869.12" height="5"/>
			</g>
			<g>
				<rect x="2829.19" y="1070.85" fill="#FFFFFF" width="5" height="568.7"/>
			</g>
			<g>
				
					<rect x="1534.91" y="306.07" transform="matrix(0.9926 -0.1213 0.1213 0.9926 -22.2731 251.1018)" fill="#FFFFFF" width="1034.48" height="5"/>
			</g>
			<g>
				
					<rect x="3869.66" y="1526.13" transform="matrix(0.9689 -0.2473 0.2473 0.9689 -246.0471 1098.0515)" fill="#FFFFFF" width="758.14" height="5"/>
			</g>
			<g>
				
					<rect x="3399.63" y="1887.23" transform="matrix(0.5291 -0.8485 0.8485 0.5291 145.662 4041.948)" fill="#FFFFFF" width="630.17" height="5"/>
			</g>
			<g>
				
					<rect x="2474.72" y="669.45" transform="matrix(0.1236 -0.9923 0.9923 0.1236 1152.161 3357.9536)" fill="#FFFFFF" width="5" height="714.43"/>
			</g>
			<g>
				
					<rect x="2649.09" y="837.99" transform="matrix(0.2282 -0.9736 0.9736 0.2282 1408.8229 3458.218)" fill="#FFFFFF" width="473.2" height="5"/>
			</g>
			<g>
				<polygon fill="#FFFFFF" points="2832.39,1643.39 2833.84,1642.22 3696.2,949.24 3691.9,943.89 2831,1635.7 2312.19,1463.7 
					2310.03,1470.21 2312.4,1471 				"/>
			</g>
			<g>
				<polygon fill="#FFFFFF" points="1572.1,1608.97 1573.19,1602.2 1570.73,1601.8 483.13,1425.94 482.03,1432.71 484.5,1433.11 
									"/>
			</g>
			<g>
				<polygon fill="#FFFFFF" points="2121.89,986.65 2124.17,985.61 2943.38,612.22 2940.54,605.98 2119.05,980.41 				"/>
			</g>
			<g>
				<polygon fill="#FFFFFF" points="1569.57,1611.04 1572.74,1607.46 2126.97,982.9 2121.84,978.35 1570.79,1599.33 1165.45,887.95 
					1159.5,891.35 				"/>
			</g>
			<g>
				
					<rect x="1827.31" y="251.7" transform="matrix(0.7232 -0.6906 0.6906 0.7232 39.2325 1451.6692)" fill="#FFFFFF" width="6.86" height="850.37"/>
			</g>
			<g>
				<polygon fill="#FFFFFF" points="2829.25,1643.01 2831.75,1642.97 3883.99,1625.75 3883.88,1618.9 3881.38,1618.94 
					2829.14,1636.16 				"/>
			</g>
			<g>
				<polygon fill="#FFFFFF" points="3878.81,1625.7 3885.41,1623.85 3884.74,1621.44 3694.73,944.8 3688.13,946.65 3688.8,949.06 
									"/>
			</g>
			<g>
				<polygon fill="#FFFFFF" points="3692.19,951.93 3693.65,951.19 4297.54,646.43 4294.45,640.31 3692.02,944.33 2938.81,605.99 
					2936,612.24 				"/>
			</g>
		</g>
		<g>
			<g>
				
					<ellipse transform="matrix(0.9732 -0.2298 0.2298 0.9732 -33.2129 1003.7436)" fill="#FFFFFF" cx="4293.76" cy="644.5" rx="34.36" ry="34.36"/>
			</g>
			<g>
				
					<ellipse transform="matrix(0.9732 -0.2298 0.2298 0.9732 -268.9105 935.1699)" fill="#FFFFFF" cx="3881.44" cy="1622.36" rx="34.36" ry="34.36"/>
			</g>
			<g>
				<circle fill="#FFFFFF" cx="3692.1" cy="948.13" r="34.36"/>
			</g>
			<g>
				
					<ellipse transform="matrix(0.9732 -0.2298 0.2298 0.9732 27.0193 823.0675)" fill="#FFFFFF" cx="3548" cy="295.51" rx="34.36" ry="34.36"/>
			</g>
			<g>
				<circle fill="#FFFFFF" cx="1538.73" cy="371.28" r="34.36"/>
			</g>
			<g>
				<circle fill="#FFFFFF" cx="2565.58" cy="245.85" r="34.36"/>
			</g>
			<g>
				
					<ellipse transform="matrix(0.9628 -0.2702 0.2702 0.9628 -368.313 184.2686)" fill="#FFFFFF" cx="485.05" cy="1429.73" rx="34.36" ry="34.36"/>
			</g>
			<g>
				<circle fill="#FFFFFF" cx="2939.68" cy="610.14" r="34.36"/>
			</g>
			<g>
				<circle fill="#FFFFFF" cx="2831.69" cy="1639.54" r="34.36"/>
			</g>
			<g>
				
					<ellipse transform="matrix(0.3827 -0.9239 0.9239 0.3827 1523.8804 5150.4492)" fill="#FFFFFF" cx="4616.04" cy="1434.9" rx="34.36" ry="34.36"/>
			</g>
			<g>
				
					<ellipse transform="matrix(0.7071 -0.7071 0.7071 0.7071 -675.1423 1580.4313)" fill="#FFFFFF" cx="1570.18" cy="1605.18" rx="34.36" ry="34.36"/>
			</g>
			<g>
				<circle fill="#FFFFFF" cx="1163.71" cy="891.82" r="34.36"/>
			</g>
			<g>
				
					<ellipse transform="matrix(0.3748 -0.9271 0.9271 0.3748 40.802 1023.1447)" fill="#FFFFFF" cx="779" cy="481.32" rx="34.36" ry="34.36"/>
			</g>
			<g>
				
					<ellipse transform="matrix(0.9871 -0.1602 0.1602 0.9871 -129.9675 352.7128)" fill="#FFFFFF" cx="2122.75" cy="982.49" rx="34.36" ry="34.36"/>
			</g>
			<g>
				
					<ellipse transform="matrix(0.7071 -0.7071 0.7071 0.7071 -360.2476 2065.7717)" fill="#FFFFFF" cx="2313.48" cy="1467.74" rx="34.36" ry="34.36"/>
			</g>
			<g>
				
					<ellipse transform="matrix(0.3827 -0.9239 0.9239 0.3827 -752.0363 3119.9636)" fill="#FFFFFF" cx="1958.66" cy="2122.73" rx="34.36" ry="34.36"/>
			</g>
			<g>
				<circle fill="#FFFFFF" cx="3548" cy="2157.09" r="34.36"/>
			</g>
			<g>
				
					<ellipse transform="matrix(0.7071 -0.7071 0.7071 0.7071 72.181 2315.9529)" fill="#FFFFFF" cx="2831.69" cy="1070.85" rx="34.36" ry="34.36"/>
			</g>
		</g>
	</g>
</g>
<g id="Layer_7">
	<g>
		<g>
			<circle fill="#FFFFFF" cx="2032.38" cy="859.64" r="66.11"/>
			<g>
				<path fill="#FFFFFF" d="M2266.38,652.43l28.07-31.95c-157.39-158-402.72-152.16-552.4,13.02l29.59,30.54
					C1905.83,516.47,2125.31,511.26,2266.38,652.43z"/>
				<path fill="#FFFFFF" d="M2208.1,718.76l28.07-31.95c-123.5-123.04-315.14-118.52-432.67,10.09l29.59,30.54
					C1935.13,616.44,2100.93,612.55,2208.1,718.76z"/>
				<path fill="#FFFFFF" d="M2151.69,782.98l28.06-31.94c-90.7-89.23-230.34-85.97-316.76,7.27l29.59,30.54
					C1963.51,713.19,2077.32,710.57,2151.69,782.98z"/>
			</g>
		</g>
		<g>
			<linearGradient id="SVGID_2_" gradientUnits="userSpaceOnUse" x1="4128.5537" y1="1370.6221" x2="3473.3975" y2="1752.0485">
				<stop  offset="0" style="stop-color:#4694E2"/>
				<stop  offset="1" style="stop-color:#4F74ED"/>
			</linearGradient>
			<path fill="url(#SVGID_2_)" d="M4271.24,1708.95h-658.55c-22.94,0-41.53-18.59-41.53-41.53v-376.33
				c0-22.94,18.59-41.53,41.53-41.53h658.55c22.94,0,41.53,18.59,41.53,41.53v376.33
				C4312.77,1690.36,4294.18,1708.95,4271.24,1708.95z"/>
			<linearGradient id="SVGID_3_" gradientUnits="userSpaceOnUse" x1="3582.7419" y1="1216.4696" x2="3802.0293" y2="1582.7791">
				<stop  offset="0.2401" style="stop-color:#EBBC60"/>
				<stop  offset="0.5481" style="stop-color:#FFFFFF"/>
				<stop  offset="0.993" style="stop-color:#FFBC38"/>
			</linearGradient>
			<path fill="url(#SVGID_3_)" d="M3696.5,1365.62h54.46v-21.82c0-7.27-5.89-13.16-13.16-13.16h-76.21v52.67
				c0,3.15-1.68,5.71-4.83,5.71l0,0c-3.15,0-4.39-2.56-4.39-5.71v-52.67h-13.19c-7.27,0-13.16,5.89-13.16,13.16v63.81h71.48
				c2.22,0,4.25,1.6,4.47,3.81c0.25,2.54-1.74,4.69-4.23,4.69h-71.72v26.32c0,7.27,5.89,13.16,13.16,13.16h98.63
				c7.27,0,13.16-5.89,13.16-13.16v-68.14h-54.71c-2.54,0-4.57-2.19-4.31-4.78C3692.17,1367.25,3694.23,1365.62,3696.5,1365.62z"/>
			<rect x="4106" y="1581.02" fill="#EDECEB" width="151.08" height="76.23"/>
			<g>
				<rect x="3626.01" y="1502.07" fill="#EDECEB" width="140.98" height="35.57"/>
				<rect x="3786.82" y="1502.07" fill="#EDECEB" width="143.61" height="35.57"/>
				<rect x="4109.55" y="1502.07" fill="#EDECEB" width="146.69" height="35.57"/>
				<rect x="3952.91" y="1502.07" fill="#EDECEB" width="135.71" height="35.57"/>
			</g>
			<rect x="3626.85" y="1581.02" fill="#EDCF85" width="434.79" height="45.93"/>
			<rect x="4070.02" y="1292.75" fill="#EDECEB" width="187.06" height="53.55"/>
		</g>
		<g>
			<defs>
				<filter id="Adobe_OpacityMaskFilter" filterUnits="userSpaceOnUse" x="507.75" y="2187.91" width="1513.63" height="532.36">
					<feFlood  style="flood-color:white;flood-opacity:1" result="back"/>
					<feBlend  in="SourceGraphic" in2="back" mode="normal"/>
				</filter>
			</defs>
			<mask maskUnits="userSpaceOnUse" x="507.75" y="2187.91" width="1513.63" height="532.36" id="SVGID_4_">
				<g filter="url(#Adobe_OpacityMaskFilter)">
					<defs>
						
							<filter id="Adobe_OpacityMaskFilter_1_" filterUnits="userSpaceOnUse" x="507.75" y="2187.91" width="1513.63" height="532.36">
							<feFlood  style="flood-color:white;flood-opacity:1" result="back"/>
							<feBlend  in="SourceGraphic" in2="back" mode="normal"/>
						</filter>
					</defs>
					<mask maskUnits="userSpaceOnUse" x="507.75" y="2187.91" width="1513.63" height="532.36" id="SVGID_4_">
						<g filter="url(#Adobe_OpacityMaskFilter_1_)">
						</g>
					</mask>
					<linearGradient id="SVGID_5_" gradientUnits="userSpaceOnUse" x1="728.9553" y1="2805.0908" x2="2118.9758" y2="1895.8298">
						<stop  offset="4.277940e-03" style="stop-color:#FFFFFF"/>
						<stop  offset="1" style="stop-color:#000000"/>
					</linearGradient>
					<polygon mask="url(#SVGID_4_)" fill="url(#SVGID_5_)" points="507.75,2609.66 1019.68,2720.27 2021.38,2299.8 1425.83,2187.91 
											"/>
				</g>
			</mask>
			<linearGradient id="SVGID_6_" gradientUnits="userSpaceOnUse" x1="728.9553" y1="2805.0908" x2="2118.9758" y2="1895.8298">
				<stop  offset="4.277940e-03" style="stop-color:#0E7AA5"/>
				<stop  offset="1" style="stop-color:#FFFFFF"/>
			</linearGradient>
			<polygon opacity="0.4" fill="url(#SVGID_6_)" points="507.75,2609.66 1019.68,2720.27 2021.38,2299.8 1425.83,2187.91 			"/>
			<g>
				<g>
					<path fill="#E6E6E6" d="M1586.25,1632.09c-0.24,0-0.48-0.01-0.72-0.02l-556.82-36.88c-3.14-0.21-6.03-1.78-7.9-4.3
						c-1.88-2.52-2.55-5.74-1.85-8.81c23.75-103.52,53.85-170.03,92.02-203.35c2.12-1.85,4.87-2.8,7.68-2.63l559.08,32.53
						c4.02,0.23,7.57,2.7,9.2,6.38c1.63,3.68,1.05,7.97-1.48,11.09c-46.79,57.73-76.61,124.01-88.63,197
						C1595.98,1628.31,1591.47,1632.09,1586.25,1632.09z M1042.78,1574.59l534.56,35.41c12.35-66.21,38.81-127.01,78.83-181.14
						l-534.24-31.09C1090.6,1427.41,1064,1486.82,1042.78,1574.59z"/>
					<path fill="#1F81C7" d="M1654.9,1405.96c-1.83-5.35-5.29-10.82-10.56-11.36l-505.67-31.43c-21.32,3.85-21.33,46.54-2.88,47.73
						l505.67,31.43c6.07-1.24,10.02-5.8,12.44-12.95C1644.34,1429.02,1641.84,1406.16,1654.9,1405.96z"/>
				</g>
				<g>
					<path fill="#5B5B5B" d="M1037.41,2702.83L1037.41,2702.83c-21.05,0-38.27-17.22-38.27-38.27v-68.33
						c0-21.05,17.22-38.27,38.27-38.27h0c21.05,0,38.27,17.22,38.27,38.27v68.33C1075.68,2685.61,1058.46,2702.83,1037.41,2702.83z"
						/>
					<polygon fill="#B2B2B2" points="999.14,2596.23 999.14,2686.23 1005.2,2681.97 1005.2,2588.91 					"/>
					<g>
						<path fill="#4D4D4D" d="M1029.92,2601.79c0,0,37.35-8.81,54.69,25.52s-34.16,92.81-46.9,95.11
							c-12.74,2.3-36.86-0.5-48.12-22.9C978.35,2677.12,1001.18,2614.04,1029.92,2601.79z"/>
						<g>
							
								<ellipse transform="matrix(0.349 -0.9371 0.9371 0.349 -1823.5129 2689.896)" fill="#4D4D4D" cx="1024.27" cy="2657.4" rx="58.09" ry="38.63"/>
							
								<ellipse transform="matrix(0.349 -0.9371 0.9371 0.349 -1816.2736 2718.168)" fill="#4D4D4D" cx="1048.24" cy="2666.33" rx="58.09" ry="38.63"/>
							
								<ellipse transform="matrix(0.349 -0.9371 0.9371 0.349 -1816.2736 2718.1675)" fill="#5B5B5B" cx="1048.24" cy="2666.33" rx="48.51" ry="32.26"/>
						</g>
					</g>
					<g>
						<path fill="#5B5B5B" d="M983.96,2593.98h-0.13v-1.26C983.84,2593.14,983.88,2593.56,983.96,2593.98z"/>
					</g>
					<path fill="#B2B2B2" d="M1037.41,2557.96L1037.41,2557.96c-21.05,0-38.27,16.94-38.27,37.65l6.06,11.8
						c0-21.15,31.67-21.1,31.67,0l0.54,74.19c0,20.94,36.45,6.19,38.27-16.43v-69.56
						C1075.68,2574.91,1058.46,2557.96,1037.41,2557.96z"/>
				</g>
				<g>
					<path fill="#5C5C5C" d="M541.32,2606.15L541.32,2606.15c-19.39,0-35.26-15.87-35.26-35.26v-62.96
						c0-19.39,15.87-35.26,35.26-35.26h0c19.39,0,35.26,15.87,35.26,35.26v62.96C576.58,2590.29,560.71,2606.15,541.32,2606.15z"/>
					<polygon fill="#B2B2B2" points="506.05,2507.93 506.05,2590.87 511.63,2586.94 511.63,2501.18 					"/>
					<g>
						<path fill="#4D4D4D" d="M534.42,2513.05c0,0,34.41-8.11,50.4,23.52c15.99,31.63-31.48,85.52-43.22,87.64
							c-11.74,2.12-33.97-0.46-44.34-21.1C486.89,2582.46,507.93,2524.34,534.42,2513.05z"/>
						<g>
							
								<ellipse transform="matrix(0.349 -0.9371 0.9371 0.349 -2058.5574 2165.3452)" fill="#4D4D4D" cx="529.2" cy="2564.3" rx="53.53" ry="35.6"/>
							
								<ellipse transform="matrix(0.349 -0.9371 0.9371 0.349 -2051.8867 2191.3982)" fill="#4D4D4D" cx="551.29" cy="2572.52" rx="53.53" ry="35.6"/>
							
								<ellipse transform="matrix(0.349 -0.9371 0.9371 0.349 -2051.8857 2191.3909)" fill="#5B5B5B" cx="551.29" cy="2572.52" rx="44.7" ry="29.73"/>
						</g>
					</g>
					<g>
						<path fill="#5B5B5B" d="M492.07,2505.85h-0.12v-1.16C491.95,2505.09,491.99,2505.47,492.07,2505.85z"/>
					</g>
					<path fill="#B2B2B2" d="M541.32,2472.67L541.32,2472.67c-19.4,0-35.26,15.61-35.26,34.7l5.58,10.88
						c0-19.49,29.19-19.44,29.19,0l0.5,68.36c0,19.29,33.59,5.7,35.26-15.14v-64.09C576.58,2488.28,560.71,2472.67,541.32,2472.67z"
						/>
				</g>
				<g>
					<path fill="#5C5C5C" d="M1010.79,2390.16L1010.79,2390.16c-17.31,0-31.46-14.16-31.46-31.46v-56.18
						c0-17.31,14.16-31.46,31.46-31.46h0c17.31,0,31.46,14.16,31.46,31.46v56.18C1042.26,2376,1028.1,2390.16,1010.79,2390.16z"/>
					<polygon fill="#B2B2B2" points="979.33,2302.51 979.33,2376.52 984.31,2373.01 984.31,2296.49 					"/>
					<g>
						<path fill="#4D4D4D" d="M1004.64,2307.09c0,0,30.71-7.24,44.97,20.98s-28.09,76.31-38.56,78.2
							c-10.48,1.89-30.31-0.41-39.56-18.83C962.23,2369.02,981,2317.16,1004.64,2307.09z"/>
						<g>
							
								<ellipse transform="matrix(0.349 -0.9371 0.9371 0.349 -1553.8762 2468.8499)" fill="#4D4D4D" cx="999.99" cy="2352.81" rx="47.76" ry="31.76"/>
							
								<ellipse transform="matrix(0.349 -0.9371 0.9371 0.349 -1547.9244 2492.0874)" fill="#4D4D4D" cx="1019.69" cy="2360.15" rx="47.76" ry="31.76"/>
							
								<ellipse transform="matrix(0.349 -0.9371 0.9371 0.349 -1547.9246 2492.0842)" fill="#5B5B5B" cx="1019.69" cy="2360.15" rx="39.89" ry="26.52"/>
						</g>
					</g>
					<g>
						<path fill="#5B5B5B" d="M966.85,2300.66h-0.1v-1.04C966.75,2299.98,966.78,2300.32,966.85,2300.66z"/>
					</g>
					<path fill="#B2B2B2" d="M1010.79,2271.05L1010.79,2271.05c-17.31,0-31.46,13.93-31.46,30.96l4.98,9.71
						c0-17.39,26.04-17.35,26.04,0l0.44,61c0,17.22,29.97,5.09,31.46-13.51v-57.19C1042.26,2284.98,1028.1,2271.05,1010.79,2271.05z
						"/>
				</g>
				<g>
					<path fill="#5C5C5C" d="M1531.76,2458.04L1531.76,2458.04c-17.31,0-31.46-14.16-31.46-31.46v-56.18
						c0-17.31,14.16-31.46,31.46-31.46h0c17.31,0,31.46,14.16,31.46,31.46v56.18C1563.23,2443.88,1549.07,2458.04,1531.76,2458.04z"
						/>
					<polygon fill="#B2B2B2" points="1500.3,2370.4 1500.3,2444.4 1505.28,2440.89 1505.28,2364.38 					"/>
					<g>
						<path fill="#4D4D4D" d="M1525.61,2374.97c0,0,30.71-7.24,44.97,20.98c14.26,28.22-28.09,76.31-38.56,78.2
							c-10.48,1.89-30.31-0.41-39.56-18.83C1483.2,2436.9,1501.97,2385.04,1525.61,2374.97z"/>
						<g>
							
								<ellipse transform="matrix(0.349 -0.9371 0.9371 0.349 -1278.3286 3001.2512)" fill="#4D4D4D" cx="1520.96" cy="2420.69" rx="47.76" ry="31.76"/>
							
								<ellipse transform="matrix(0.349 -0.9371 0.9371 0.349 -1272.3746 3024.5051)" fill="#4D4D4D" cx="1540.66" cy="2428.03" rx="47.76" ry="31.76"/>
							
								<ellipse transform="matrix(0.349 -0.9371 0.9371 0.349 -1272.3767 3024.4954)" fill="#5B5B5B" cx="1540.66" cy="2428.03" rx="39.89" ry="26.52"/>
						</g>
					</g>
					<g>
						<path fill="#5B5B5B" d="M1487.82,2368.54h-0.1v-1.04C1487.72,2367.86,1487.75,2368.2,1487.82,2368.54z"/>
					</g>
					<path fill="#B2B2B2" d="M1531.76,2338.93L1531.76,2338.93c-17.31,0-31.46,13.93-31.46,30.96l4.98,9.71
						c0-17.39,26.04-17.35,26.04,0l-5.81,59.09c0,17.22,36.22,6.99,37.72-11.61v-57.19
						C1563.23,2352.86,1549.07,2338.93,1531.76,2338.93z"/>
				</g>
				<g>
					<path fill="#CCCCCC" d="M947.67,2604.78c-8.47,0-16.98-0.83-25.43-2.5l-401.05-79.29c-12.04-2.38-20.86-12.19-21.95-24.41
						c-1.09-12.22,5.86-23.44,17.28-27.91l460.76-180.28c33.36-13.05,52.49-48.03,45.48-83.16l-23.34-116.94
						c-0.73-3.65,0.34-7.42,2.88-10.14c2.54-2.72,6.23-4.05,9.91-3.58l525.45,67.17c4.78,0.61,8.68,4.13,9.78,8.82l23.51,100.38
						c10.17,44.94-12.93,91.13-54.91,109.91l-515.27,230.53C983.89,2600.95,965.87,2604.78,947.67,2604.78z M1025.23,2101.51
						l20.19,101.18c9.21,46.13-15.91,92.05-59.71,109.19l-460.76,180.28c-2.46,0.96-2.82,2.9-2.69,4.35
						c0.13,1.45,0.83,3.29,3.42,3.8l401.05,79.29c21.9,4.33,44.25,1.8,64.63-7.32l515.27-230.53c31.97-14.3,49.57-49.48,41.84-83.64
						l-21.66-92.49L1025.23,2101.51z"/>
				</g>
				<g>
					<g>
						<g>
							<path fill="#CCCCCC" d="M1561.46,2159.65c-0.2,0-0.4-0.01-0.6-0.04l-573.27-70.77c-2.58-0.32-4.46-2.61-4.27-5.2
								l37.33-503.55c0.2-2.67,2.52-4.69,5.18-4.51l573.27,36.88c1.3,0.08,2.5,0.68,3.36,1.66c0.85,0.98,1.28,2.25,1.19,3.55
								l-37.33,537.44c-0.09,1.34-0.73,2.58-1.76,3.43C1563.68,2159.26,1562.58,2159.65,1561.46,2159.65z M993.39,2079.72
								l563.55,69.57l36.63-527.42l-563.56-36.26L993.39,2079.72z"/>
							
								<rect x="1297.24" y="1478.32" transform="matrix(0.0817 -0.9967 0.9967 0.0817 -566.1354 2917.4194)" fill="#CCCCCC" width="5.86" height="575.25"/>
							
								<rect x="1284.22" y="1659.24" transform="matrix(0.0947 -0.9955 0.9955 0.0947 -773.3914 3044.2227)" fill="#CCCCCC" width="5.86" height="576.22"/>
						</g>
						<g>
							<path fill="#CCCCCC" d="M1045.01,2092.4c-0.04,0-0.09,0-0.13-0.01c-0.86-0.07-1.5-0.82-1.43-1.68l41.88-507.26
								c0.07-0.86,0.83-1.49,1.68-1.43c0.86,0.07,1.5,0.82,1.43,1.68l-41.88,507.25C1046.49,2091.78,1045.81,2092.4,1045.01,2092.4z
								"/>
							<path fill="#CCCCCC" d="M1118.92,2101.55c-0.04,0-0.08,0-0.13-0.01c-0.86-0.07-1.5-0.82-1.43-1.68l41.17-511.54
								c0.07-0.86,0.8-1.49,1.68-1.43c0.86,0.07,1.5,0.82,1.43,1.68l-41.17,511.54C1120.41,2100.93,1119.72,2101.55,1118.92,2101.55
								z"/>
							<path fill="#CCCCCC" d="M1194.07,2110.86c-0.04,0-0.08,0-0.12-0.01c-0.86-0.07-1.5-0.82-1.43-1.68l40.42-515.9
								c0.07-0.86,0.81-1.52,1.68-1.43c0.86,0.07,1.5,0.82,1.43,1.68l-40.42,515.9C1195.56,2110.23,1194.87,2110.86,1194.07,2110.86
								z"/>
							<path fill="#CCCCCC" d="M1270.48,2120.32c-0.04,0-0.08,0-0.12,0c-0.86-0.07-1.5-0.82-1.44-1.68l39.64-520.34
								c0.07-0.86,0.81-1.5,1.68-1.44c0.86,0.07,1.5,0.82,1.44,1.68l-39.64,520.34C1271.98,2119.69,1271.29,2120.32,1270.48,2120.32
								z"/>
							<g>
								<path fill="#CCCCCC" d="M1348.21,2129.94c-0.04,0-0.08,0-0.12,0c-0.86-0.06-1.51-0.81-1.44-1.67l38.83-524.85
									c0.06-0.86,0.81-1.5,1.67-1.44c0.86,0.06,1.51,0.81,1.44,1.67l-38.83,524.85
									C1349.7,2129.32,1349.02,2129.94,1348.21,2129.94z"/>
							</g>
							<g>
								<path fill="#CCCCCC" d="M1427.27,2139.73c-0.04,0-0.08,0-0.11,0c-0.86-0.06-1.51-0.81-1.45-1.67l37.99-529.44
									c0.06-0.86,0.81-1.52,1.67-1.45c0.86,0.06,1.51,0.81,1.45,1.67l-37.99,529.44
									C1428.76,2139.1,1428.08,2139.73,1427.27,2139.73z"/>
							</g>
							<g>
								<path fill="#CCCCCC" d="M1507.69,2149.69c-0.04,0-0.07,0-0.11,0c-0.86-0.06-1.51-0.81-1.45-1.67l37.11-534.11
									c0.06-0.86,0.81-1.52,1.67-1.45c0.86,0.06,1.51,0.81,1.45,1.67l-37.11,534.11
									C1509.19,2149.06,1508.51,2149.69,1507.69,2149.69z"/>
							</g>
						</g>
						<path fill="#CCCCCC" d="M1427.87,1879.48l-270.5-23.46c-9.9-0.86-17.27-9.53-16.51-19.44l12.35-162.75l305.89,20.67
							l-11.57,168.15C1446.83,1872.78,1437.97,1880.36,1427.87,1879.48z"/>
					</g>
					<g>
						<g>
							<path fill="#CCCCCC" d="M510.78,2256.93c-0.79,0-1.46-0.59-1.55-1.39l-50.38-459.5c-0.09-0.86,0.52-1.63,1.38-1.72
								c0.85-0.09,1.63,0.52,1.72,1.38l50.39,459.5c0.09,0.86-0.52,1.63-1.38,1.72C510.89,2256.92,510.83,2256.93,510.78,2256.93z"
								/>
							<path fill="#CCCCCC" d="M554.25,2241.32c-0.8,0-1.48-0.61-1.55-1.42l-42.69-463.4c-0.08-0.86,0.55-1.62,1.41-1.7
								c0.84-0.07,1.62,0.55,1.7,1.41l42.69,463.4c0.08,0.86-0.55,1.62-1.41,1.7C554.35,2241.32,554.3,2241.32,554.25,2241.32z"/>
							<path fill="#CCCCCC" d="M597.9,2225.65c-0.81,0-1.49-0.62-1.56-1.45l-34.93-467.33c-0.06-0.86,0.58-1.61,1.44-1.67
								c0.86-0.06,1.61,0.58,1.67,1.44l34.93,467.33c0.06,0.86-0.58,1.61-1.44,1.67C597.97,2225.65,597.94,2225.65,597.9,2225.65z"
								/>
							<path fill="#CCCCCC" d="M641.72,2209.92c-0.82,0-1.51-0.64-1.56-1.47l-27.09-471.29c-0.05-0.86,0.61-1.6,1.47-1.65
								c0.84-0.02,1.6,0.61,1.65,1.47l27.09,471.29c0.05,0.86-0.61,1.6-1.47,1.65C641.78,2209.92,641.75,2209.92,641.72,2209.92z"/>
							<path fill="#CCCCCC" d="M685.72,2194.13c-0.83,0-1.53-0.66-1.56-1.5l-19.19-475.28c-0.03-0.86,0.64-1.59,1.5-1.62
								c0.87-0.04,1.59,0.64,1.62,1.5l19.19,475.28c0.03,0.86-0.64,1.59-1.5,1.62C685.77,2194.13,685.74,2194.13,685.72,2194.13z"/>
							<path fill="#CCCCCC" d="M729.9,2178.27c-0.85,0-1.54-0.67-1.56-1.53l-11.21-479.3c-0.02-0.86,0.66-1.58,1.52-1.6
								c0.87-0.01,1.58,0.66,1.6,1.52l11.22,479.3c0.02,0.86-0.66,1.58-1.52,1.6C729.93,2178.27,729.92,2178.27,729.9,2178.27z"/>
							<path fill="#CCCCCC" d="M774.27,2162.34c-0.86,0-1.56-0.69-1.56-1.55l-3.17-483.36c-0.01-0.86,0.69-1.57,1.55-1.57
								c0,0,0.01,0,0.01,0c0.86,0,1.56,0.69,1.56,1.55l3.17,483.36c0.01,0.86-0.69,1.57-1.55,1.57
								C774.27,2162.34,774.27,2162.34,774.27,2162.34z"/>
							<path fill="#CCCCCC" d="M818.81,2146.35c-0.01,0-0.01,0-0.02,0c-0.86-0.01-1.55-0.71-1.55-1.58l4.95-487.44
								c0.01-0.86,0.71-1.55,1.56-1.55c0.01,0,0.01,0,0.02,0c0.86,0.01,1.55,0.71,1.55,1.58l-4.95,487.44
								C820.36,2145.66,819.66,2146.35,818.81,2146.35z"/>
							<path fill="#CCCCCC" d="M863.54,2130.3c-0.01,0-0.03,0-0.04,0c-0.86-0.02-1.54-0.74-1.52-1.6l13.14-491.56
								c0.02-0.86,0.75-1.58,1.6-1.52c0.86,0.02,1.54,0.74,1.52,1.6l-13.14,491.56C865.07,2129.63,864.38,2130.3,863.54,2130.3z"/>
							<path fill="#CCCCCC" d="M908.45,2114.18c-0.02,0-0.05,0-0.07,0c-0.86-0.04-1.53-0.77-1.49-1.63l21.4-495.71
								c0.04-0.86,0.75-1.54,1.63-1.49c0.86,0.04,1.53,0.77,1.49,1.63L910,2112.68C909.97,2113.52,909.28,2114.18,908.45,2114.18z"
								/>
							<path fill="#CCCCCC" d="M953.54,2097.99c-0.03,0-0.06,0-0.09,0c-0.86-0.05-1.52-0.79-1.47-1.65l29.74-499.89
								c0.05-0.86,0.81-1.52,1.65-1.47c0.86,0.05,1.52,0.79,1.47,1.65l-29.74,499.89C955.05,2097.35,954.36,2097.99,953.54,2097.99z
								"/>
						</g>
						<g>
							<path fill="#CCCCCC" d="M467.09,2275.93c-0.89,0-1.78-0.25-2.56-0.73c-1.26-0.78-2.1-2.09-2.28-3.56l-55.74-456.48
								c-0.27-2.23,1.01-4.35,3.11-5.15l614.16-234.13c1.56-0.6,3.31-0.35,4.65,0.65c1.34,1,2.07,2.61,1.95,4.27l-37.33,503.55
								c-0.14,1.92-1.4,3.58-3.22,4.23l-521.09,187.06C468.2,2275.83,467.64,2275.93,467.09,2275.93z M416.66,1817.77l54.53,446.63
								l512.36-183.92l36.53-492.74L416.66,1817.77z"/>
							
								<rect x="409.34" y="1847.23" transform="matrix(0.937 -0.3494 0.3494 0.937 -600.9639 368.6137)" fill="#CCCCCC" width="623.92" height="5.86"/>
							
								<rect x="431.45" y="2018.89" transform="matrix(0.938 -0.3466 0.3466 0.938 -655.7886 376.581)" fill="#CCCCCC" width="587.08" height="5.86"/>
						</g>
					</g>
				</g>
				<g>
					<g>
						<path fill="#CCCCCC" d="M1026.93,2348.05c-0.09,0-0.18-0.01-0.28-0.02l-514.51-91.71c-0.85-0.15-1.41-0.96-1.26-1.81
							c0.15-0.85,0.96-1.42,1.81-1.26l514.51,91.71c0.85,0.15,1.41,0.96,1.26,1.81C1028.33,2347.52,1027.67,2348.05,1026.93,2348.05
							z"/>
						<path fill="#CCCCCC" d="M1077.39,2329.95c-0.09,0-0.18-0.01-0.27-0.02l-519.55-89.86c-0.85-0.15-1.42-0.96-1.27-1.81
							s0.96-1.41,1.8-1.27l519.55,89.86c0.85,0.15,1.42,0.96,1.27,1.81C1078.8,2329.41,1078.14,2329.95,1077.39,2329.95z"/>
						<path fill="#CCCCCC" d="M1127.84,2311.85c-0.09,0-0.17-0.01-0.26-0.02l-524.59-88.02c-0.85-0.14-1.42-0.95-1.28-1.8
							c0.14-0.85,0.95-1.43,1.8-1.28l524.59,88.02c0.85,0.14,1.42,0.95,1.28,1.8C1129.25,2311.31,1128.59,2311.85,1127.84,2311.85z"
							/>
						<path fill="#CCCCCC" d="M1178.27,2293.77c-0.08,0-0.17-0.01-0.25-0.02l-529.62-86.18c-0.85-0.14-1.43-0.94-1.29-1.79
							c0.14-0.85,0.94-1.44,1.79-1.29l529.62,86.18c0.85,0.14,1.43,0.94,1.29,1.79C1179.69,2293.22,1179.02,2293.77,1178.27,2293.77
							z"/>
						<path fill="#CCCCCC" d="M1228.69,2275.68c-0.08,0-0.16-0.01-0.25-0.02l-534.65-84.34c-0.85-0.13-1.43-0.93-1.3-1.79
							c0.13-0.85,0.93-1.43,1.79-1.3l534.65,84.34c0.85,0.13,1.43,0.93,1.3,1.79C1230.11,2275.13,1229.44,2275.68,1228.69,2275.68z"
							/>
						<path fill="#CCCCCC" d="M1279.09,2257.6c-0.08,0-0.16-0.01-0.24-0.02l-539.68-82.5c-0.85-0.13-1.44-0.93-1.31-1.78
							c0.13-0.85,0.93-1.44,1.78-1.31l539.68,82.5c0.85,0.13,1.44,0.93,1.31,1.78C1280.51,2257.05,1279.85,2257.6,1279.09,2257.6z"
							/>
						<path fill="#CCCCCC" d="M1329.48,2239.53c-0.08,0-0.15-0.01-0.23-0.02l-544.7-80.66c-0.85-0.13-1.44-0.92-1.32-1.77
							c0.13-0.85,0.92-1.44,1.77-1.32l544.7,80.66c0.85,0.13,1.44,0.92,1.32,1.77C1330.9,2238.98,1330.24,2239.53,1329.48,2239.53z"
							/>
						<path fill="#CCCCCC" d="M1379.85,2221.47c-0.07,0-0.15-0.01-0.22-0.02l-549.72-78.82c-0.85-0.12-1.45-0.91-1.32-1.77
							c0.12-0.85,0.92-1.44,1.77-1.32l549.72,78.82c0.85,0.12,1.45,0.91,1.32,1.77C1381.28,2220.9,1380.61,2221.47,1379.85,2221.47z
							"/>
						<path fill="#CCCCCC" d="M1430.2,2203.41c-0.07,0-0.14-0.01-0.22-0.01l-554.74-76.98c-0.85-0.12-1.45-0.91-1.33-1.76
							c0.12-0.85,0.91-1.44,1.76-1.33l554.74,76.98c0.85,0.12,1.45,0.91,1.33,1.76C1431.64,2202.84,1430.97,2203.41,1430.2,2203.41z
							"/>
						<path fill="#CCCCCC" d="M1480.54,2185.35c-0.07,0-0.14,0-0.21-0.01l-559.76-75.14c-0.85-0.12-1.45-0.9-1.34-1.76
							c0.11-0.85,0.9-1.46,1.76-1.34l559.76,75.14c0.85,0.12,1.45,0.9,1.34,1.76C1481.98,2184.78,1481.31,2185.35,1480.54,2185.35z"
							/>
						<path fill="#CCCCCC" d="M1530.87,2167.3c-0.07,0-0.13,0-0.2-0.01l-564.77-73.31c-0.86-0.11-1.46-0.89-1.35-1.75
							c0.11-0.86,0.89-1.46,1.75-1.35l564.77,73.31c0.86,0.11,1.46,0.89,1.35,1.75C1532.31,2166.72,1531.64,2167.3,1530.87,2167.3z"
							/>
					</g>
					<g>
						
							<rect x="608.77" y="2198.73" transform="matrix(0.9407 -0.3392 0.3392 0.9407 -693.7891 433.3743)" fill="#CCCCCC" width="568.48" height="5.86"/>
						
							<rect x="791.65" y="2226.14" transform="matrix(0.9375 -0.3479 0.3479 0.9375 -708.0488 515.0203)" fill="#CCCCCC" width="576.8" height="5.86"/>
						<path fill="#CCCCCC" d="M989.22,2366.84c-0.38,0-0.77-0.03-1.15-0.1l-522.13-88.96c-3.06-0.52-5.38-3.04-5.66-6.13
							c-0.27-3.09,1.57-5.98,4.5-7.03l521.09-187.06c1.01-0.36,2.08-0.48,3.14-0.35l573.27,70.77c3.14,0.39,5.6,2.88,5.95,6.03
							c0.35,3.14-1.51,6.12-4.48,7.19l-572.23,205.25C990.79,2366.71,990,2366.84,989.22,2366.84z M493.89,2268.69l494.71,84.29
							l543.53-194.95l-543.17-67.06L493.89,2268.69z"/>
					</g>
				</g>
				<g>
					<g>
						<polygon fill="#DEB275" points="864.58,2209.21 596.47,2152.68 596.47,1844.1 864.58,1892.62 						"/>
						<polygon fill="#FFCD8C" points="596.47,1844.1 707.67,1808.03 790.16,1785.37 1045.44,1828.9 864.58,1892.62 						"/>
						<polygon fill="#DEB275" points="864.58,2209.21 1041.57,2135.43 1045.44,1828.9 864.58,1892.62 						"/>
						<path fill="#B38358" d="M971.48,1856.71c-0.03,0-0.06,0-0.09-0.01l-263.81-48.18c-0.27-0.05-0.45-0.31-0.4-0.58
							c0.05-0.27,0.31-0.46,0.58-0.4l263.81,48.18c0.27,0.05,0.45,0.31,0.4,0.58C971.93,1856.55,971.72,1856.71,971.48,1856.71z"/>
						<path fill="#B38358" d="M865.98,1893.82c-0.21,0-0.4-0.13-0.47-0.34c-0.09-0.26,0.05-0.55,0.31-0.64l178.59-62.81
							c0.26-0.09,0.55,0.05,0.64,0.31c0.09,0.26-0.05,0.55-0.31,0.64l-178.59,62.81C866.09,1893.81,866.03,1893.82,865.98,1893.82z"
							/>
						<polygon fill="#FFFFFF" points="694.13,1812.63 955.22,1861.67 955.22,1930.95 982.18,1918.27 984.08,1851.84 725.52,1803.44 
													"/>
					</g>
					<g>
						<polygon fill="#DEB275" points="1244.86,2217.63 976.75,2161.1 976.75,1852.53 1244.86,1901.05 						"/>
						<polygon fill="#FFCD8C" points="976.75,1852.53 1087.95,1816.46 1170.44,1793.8 1425.72,1837.32 1244.86,1901.05 						"/>
						<polygon fill="#E8BB7F" points="1244.86,2217.63 1421.85,2143.85 1425.72,1837.32 1244.86,1901.05 						"/>
						<path fill="#B38358" d="M1351.76,1865.14c-0.03,0-0.06,0-0.09-0.01l-263.81-48.18c-0.27-0.05-0.45-0.31-0.4-0.58
							c0.05-0.27,0.31-0.45,0.58-0.4l263.81,48.18c0.27,0.05,0.45,0.31,0.4,0.58C1352.21,1864.97,1352,1865.14,1351.76,1865.14z"/>
						<path fill="#B38358" d="M1246.26,1902.25c-0.21,0-0.4-0.13-0.47-0.34c-0.09-0.26,0.05-0.55,0.31-0.64l178.59-62.81
							c0.26-0.09,0.55,0.05,0.64,0.31c0.09,0.26-0.05,0.55-0.31,0.64l-178.59,62.81
							C1246.37,1902.24,1246.31,1902.25,1246.26,1902.25z"/>
						<polygon fill="#FFFFFF" points="1074.41,1821.05 1335.5,1870.09 1335.5,1939.37 1362.46,1926.7 1364.36,1860.26 
							1105.8,1811.86 						"/>
						<polygon opacity="0.2" points="1182.16,1889.7 1334.81,1850.9 1028.01,1840.55 1028.01,1881.58 976.75,1870.34 976.75,2161.1 
							1157.48,2193.99 						"/>
					</g>
					<g>
						<polygon fill="#E8BB7F" points="976.61,2299.45 708.51,2242.92 708.51,1934.35 976.61,1982.87 						"/>
						<polygon fill="#FFCD8C" points="708.51,1934.35 819.71,1898.28 902.2,1875.62 1157.48,1919.14 976.61,1982.87 						"/>
						<polygon fill="#DEB275" points="976.61,2299.45 1153.61,2225.67 1157.48,1919.14 976.61,1982.87 						"/>
						<path fill="#B38358" d="M1083.52,1946.96c-0.03,0-0.06,0-0.09-0.01l-263.81-48.18c-0.27-0.05-0.45-0.31-0.4-0.58
							c0.05-0.27,0.31-0.45,0.58-0.4l263.81,48.18c0.27,0.05,0.45,0.31,0.4,0.58C1083.97,1946.79,1083.76,1946.96,1083.52,1946.96z"
							/>
						<path fill="#B38358" d="M978.02,1984.06c-0.21,0-0.4-0.13-0.47-0.34c-0.09-0.26,0.05-0.55,0.31-0.64l178.59-62.81
							c0.26-0.09,0.55,0.05,0.64,0.31c0.09,0.26-0.05,0.55-0.31,0.64l-178.59,62.81C978.13,1984.05,978.07,1984.06,978.02,1984.06z"
							/>
						<polygon fill="#FFFFFF" points="806.16,1902.87 1067.26,1951.91 1067.26,2021.19 1094.22,2008.52 1096.12,1942.08 
							837.56,1893.68 						"/>
						<polygon opacity="0.2" points="708.51,1991.32 882.09,1991.32 905.49,1970 1059.15,1903.94 902.2,1875.62 708.51,1934.35 
													"/>
					</g>
					<g>
						<polygon fill="#E8BB7F" points="1115.47,1897.15 1334.81,1850.9 1334.81,1598.45 1115.47,1638.15 						"/>
						<polygon fill="#FFCD8C" points="1334.81,1598.45 1243.84,1568.94 1176.35,1550.4 967.5,1586.01 1115.47,1638.15 						"/>
						<polygon fill="#C99D62" points="1115.47,1897.15 970.66,1836.79 967.5,1586.01 1115.47,1638.15 						"/>
						<polygon opacity="0.2" points="1151.51,1631.63 1115.47,1659.3 1062.38,1695.79 1059.15,1873.68 1032.08,1861.91 
							1032.08,1608.03 1115.47,1638.15 						"/>
						<path fill="#B38358" d="M1028,1608.77c-0.19,0-0.37-0.14-0.4-0.34c-0.04-0.22,0.11-0.44,0.33-0.48l215.83-39.42
							c0.22-0.04,0.44,0.11,0.48,0.33c0.04,0.22-0.11,0.44-0.33,0.48l-215.83,39.42C1028.05,1608.77,1028.03,1608.77,1028,1608.77z"
							/>
						<path fill="#B38358" d="M1114.32,1639.13c-0.05,0-0.09-0.01-0.14-0.02l-146.11-51.39c-0.21-0.07-0.33-0.31-0.25-0.52
							c0.08-0.21,0.31-0.32,0.52-0.25l146.11,51.39c0.21,0.08,0.33,0.31,0.25,0.52C1114.65,1639.02,1114.49,1639.13,1114.32,1639.13
							z"/>
						<polygon fill="#FFFFFF" points="1254.92,1572.7 1041.31,1612.82 1041.31,1669.5 1019.25,1659.13 1017.7,1604.78 
							1229.23,1565.18 						"/>
					</g>
					<g>
						<polygon fill="#E8BB7F" points="891.68,1975.93 659.54,1926.99 659.54,1659.8 891.68,1701.82 						"/>
						<polygon fill="#FFCD8C" points="659.54,1659.8 755.82,1628.57 827.25,1608.95 1048.28,1646.64 891.68,1701.82 						"/>
						<polygon fill="#DEB275" points="891.68,1975.93 1044.94,1912.05 1048.28,1646.64 891.68,1701.82 						"/>
						<path fill="#B38358" d="M984.25,1670.72c-0.03,0-0.05,0-0.08-0.01L755.74,1629c-0.24-0.04-0.39-0.27-0.35-0.51
							c0.04-0.23,0.27-0.39,0.5-0.35l228.43,41.72c0.24,0.04,0.39,0.27,0.35,0.51C984.64,1670.58,984.45,1670.72,984.25,1670.72z"/>
						<path fill="#B38358" d="M892.9,1702.85c-0.18,0-0.35-0.11-0.41-0.29c-0.08-0.23,0.04-0.47,0.27-0.55l154.63-54.39
							c0.23-0.08,0.47,0.04,0.55,0.27c0.08,0.23-0.04,0.47-0.27,0.55l-154.63,54.39C892.99,1702.85,892.94,1702.85,892.9,1702.85z"
							/>
						<polygon fill="#FFFFFF" points="744.09,1632.55 970.17,1675.01 970.17,1735 993.51,1724.03 995.16,1666.5 771.28,1624.59 
													"/>
						<polygon opacity="0.2" points="845.69,1615.53 832.52,1619.15 953.97,1680.34 1047.53,1776.04 1048.28,1646.64 						"/>
					</g>
					<g>
						<polygon fill="#E8BB7F" points="953.97,1680.34 1151.15,1638.76 1151.15,1411.82 953.97,1447.51 						"/>
						<polygon fill="#FFCD8C" points="1151.15,1411.82 1069.37,1385.29 1008.7,1368.63 820.96,1400.64 953.97,1447.51 						"/>
						<polygon fill="#DEB275" points="953.97,1680.34 823.8,1626.08 820.96,1400.64 953.97,1447.51 						"/>
						<path fill="#B38358" d="M875.35,1421.1c-0.17,0-0.33-0.12-0.36-0.3c-0.04-0.2,0.1-0.39,0.3-0.43l194.02-35.43
							c0.2-0.04,0.39,0.1,0.43,0.3c0.04,0.2-0.1,0.39-0.3,0.43l-194.02,35.43C875.39,1421.09,875.37,1421.1,875.35,1421.1z"/>
						<path fill="#B38358" d="M952.94,1448.39c-0.04,0-0.08-0.01-0.12-0.02l-131.34-46.2c-0.19-0.07-0.29-0.28-0.23-0.47
							c0.07-0.19,0.28-0.29,0.47-0.23l131.34,46.2c0.19,0.07,0.29,0.28,0.23,0.47C953.24,1448.29,953.09,1448.39,952.94,1448.39z"/>
						<polygon fill="#FFFFFF" points="1079.33,1388.68 887.31,1424.74 887.31,1475.69 867.48,1466.37 866.08,1417.51 
							1056.24,1381.91 						"/>
					</g>
				</g>
			</g>
			<g>
				<g>
					<g>
						<path fill="#E6E6E6" d="M518.34,2281.34c-0.78,0-1.45-0.58-1.55-1.38l-54.75-458.93c-0.1-0.86,0.51-1.63,1.37-1.73
							c0.85-0.11,1.63,0.51,1.74,1.36l54.75,458.93c0.1,0.86-0.51,1.63-1.37,1.74C518.46,2281.34,518.4,2281.34,518.34,2281.34z"/>
						<path fill="#E6E6E6" d="M585.56,2292.8c-0.78,0-1.46-0.59-1.55-1.39l-51.92-461.96c-0.1-0.86,0.52-1.63,1.38-1.73
							c0.86-0.09,1.63,0.52,1.73,1.38l51.92,461.96c0.1,0.86-0.52,1.63-1.38,1.73C585.68,2292.79,585.62,2292.8,585.56,2292.8z"/>
						<path fill="#E6E6E6" d="M653.8,2304.42c-0.79,0-1.47-0.6-1.55-1.4L603.24,1838c-0.09-0.86,0.53-1.63,1.39-1.72
							c0.86-0.08,1.63,0.53,1.72,1.39l49.01,465.03c0.09,0.86-0.53,1.63-1.39,1.72C653.91,2304.42,653.85,2304.42,653.8,2304.42z"/>
						<path fill="#E6E6E6" d="M723.06,2316.23c-0.79,0-1.47-0.6-1.55-1.41l-45.99-468.13c-0.08-0.86,0.54-1.62,1.4-1.71
							c0.86-0.09,1.62,0.54,1.71,1.4l45.99,468.13c0.08,0.86-0.54,1.62-1.4,1.71C723.17,2316.22,723.12,2316.23,723.06,2316.23z"/>
						<g>
							<path fill="#E6E6E6" d="M793.39,2328.21c-0.8,0-1.48-0.61-1.55-1.42l-42.88-471.28c-0.08-0.86,0.55-1.62,1.41-1.7
								c0.86-0.08,1.62,0.55,1.7,1.41l42.88,471.28c0.08,0.86-0.55,1.62-1.41,1.7C793.48,2328.2,793.43,2328.21,793.39,2328.21z"/>
						</g>
						<g>
							<path fill="#E6E6E6" d="M864.79,2340.37c-0.8,0-1.49-0.62-1.55-1.43l-39.66-474.47c-0.07-0.86,0.57-1.61,1.43-1.69
								c0.88-0.06,1.61,0.57,1.69,1.43l39.66,474.47c0.07,0.86-0.57,1.61-1.43,1.69C864.87,2340.37,864.83,2340.37,864.79,2340.37z"
								/>
						</g>
						<g>
							<path fill="#E6E6E6" d="M937.29,2352.73c-0.81,0-1.49-0.62-1.56-1.44l-36.33-477.7c-0.07-0.86,0.58-1.61,1.44-1.68
								c0.86-0.06,1.61,0.58,1.67,1.44l36.33,477.7c0.07,0.86-0.58,1.61-1.44,1.68C937.37,2352.72,937.33,2352.73,937.29,2352.73z"
								/>
						</g>
					</g>
					<g>
						<path fill="#E6E6E6" d="M989.22,2364.89c-0.27,0-0.55-0.02-0.82-0.07l-522.13-88.96c-2.13-0.36-3.76-2.08-4.02-4.22
							l-55.74-456.48c-0.18-1.49,0.33-2.98,1.39-4.04c1.06-1.06,2.55-1.58,4.04-1.4l546.3,65.72c2.33,0.28,4.13,2.18,4.29,4.52
							l31.57,479.73c0.1,1.49-0.49,2.94-1.6,3.94C991.59,2364.45,990.42,2364.89,989.22,2364.89z M471.49,2266.85l512.46,87.31
							l-30.9-469.52l-536.1-64.49L471.49,2266.85z"/>
						
							<rect x="698.45" y="1728.13" transform="matrix(0.1501 -0.9887 0.9887 0.1501 -1381.2365 2393.1301)" fill="#E6E6E6" width="5.85" height="543.71"/>
						
							<rect x="711.38" y="1896.09" transform="matrix(0.1501 -0.9887 0.9887 0.1501 -1532.1873 2545.1055)" fill="#E6E6E6" width="5.85" height="535.36"/>
					</g>
				</g>
				<g>
					<g>
						<path fill="#E6E6E6" d="M989.22,2364.89c-0.94,0-1.87-0.27-2.68-0.8c-1.28-0.84-2.09-2.23-2.19-3.76l-31.57-479.73
							c-0.14-2.09,1.08-4.04,3.02-4.83l641.13-262.97c1.56-0.64,3.34-0.43,4.71,0.56c1.37,0.99,2.13,2.61,2.01,4.29l-37.33,537.44
							c-0.13,1.93-1.4,3.6-3.22,4.25L990.87,2364.6C990.33,2364.8,989.78,2364.89,989.22,2364.89z M962.75,1883.47l30.91,469.77
							l563.14-201.99l36.56-526.44L962.75,1883.47z"/>
						
							<rect x="944.1" y="1913.38" transform="matrix(0.9276 -0.3735 0.3735 0.9276 -623.2941 615.8079)" fill="#E6E6E6" width="666.69" height="5.85"/>
						
							<rect x="957.61" y="2086.34" transform="matrix(0.9331 -0.3597 0.3597 0.9331 -666.1221 599.046)" fill="#E6E6E6" width="637.71" height="5.86"/>
					</g>
					<g>
						<path fill="#E6E6E6" d="M1038.12,2344.03c-0.81,0-1.5-0.63-1.56-1.46l-32.59-481.83c-0.06-0.86,0.59-1.6,1.45-1.66
							c0.86-0.06,1.6,0.59,1.66,1.45l32.59,481.83c0.06,0.86-0.59,1.6-1.45,1.66C1038.19,2344.03,1038.16,2344.03,1038.12,2344.03z"
							/>
						<path fill="#E6E6E6" d="M1083.8,2327.65c-0.82,0-1.51-0.64-1.56-1.48l-26.69-486.6c-0.05-0.86,0.61-1.6,1.47-1.64
							c0.85-0.05,1.6,0.61,1.64,1.47l26.69,486.6c0.05,0.86-0.61,1.6-1.47,1.64C1083.86,2327.65,1083.83,2327.65,1083.8,2327.65z"/>
						<path fill="#E6E6E6" d="M1129.92,2311.11c-0.83,0-1.52-0.66-1.56-1.5l-20.68-491.44c-0.04-0.86,0.63-1.59,1.49-1.63
							c0.87-0.04,1.59,0.63,1.63,1.49l20.68,491.44c0.04,0.86-0.63,1.59-1.49,1.63C1129.97,2311.11,1129.94,2311.11,1129.92,2311.11
							z"/>
						<path fill="#E6E6E6" d="M1176.48,2294.41c-0.84,0-1.53-0.67-1.56-1.52l-14.53-496.35c-0.03-0.86,0.65-1.58,1.51-1.61
							c0.85-0.05,1.58,0.65,1.61,1.52l14.54,496.35c0.03,0.86-0.65,1.58-1.52,1.61C1176.51,2294.41,1176.5,2294.41,1176.48,2294.41z
							"/>
						<path fill="#E6E6E6" d="M1223.49,2277.55c-0.85,0-1.55-0.68-1.56-1.54l-8.27-501.34c-0.01-0.86,0.67-1.57,1.54-1.59
							c0.88-0.03,1.57,0.67,1.59,1.54l8.27,501.34c0.01,0.86-0.67,1.57-1.54,1.59C1223.51,2277.55,1223.5,2277.55,1223.49,2277.55z"
							/>
						<path fill="#E6E6E6" d="M1270.96,2260.52c-0.86,0-1.56-0.7-1.56-1.56l-1.87-506.41c0-0.86,0.69-1.56,1.56-1.57c0,0,0,0,0.01,0
							c0.86,0,1.56,0.7,1.56,1.56l1.87,506.41C1272.52,2259.82,1271.82,2260.52,1270.96,2260.52
							C1270.96,2260.52,1270.96,2260.52,1270.96,2260.52z"/>
						<path fill="#E6E6E6" d="M1318.88,2243.33c0,0-0.01,0-0.01,0c-0.86-0.01-1.55-0.71-1.55-1.58l4.67-511.56
							c0.01-0.86,0.71-1.55,1.56-1.55c0,0,0.01,0,0.01,0c0.86,0.01,1.55,0.71,1.55,1.58l-4.67,511.56
							C1320.44,2242.64,1319.74,2243.33,1318.88,2243.33z"/>
						<path fill="#E6E6E6" d="M1367.28,2225.98c-0.01,0-0.02,0-0.04,0c-0.86-0.02-1.55-0.73-1.53-1.6l11.34-516.79
							c0.02-0.86,0.69-1.53,1.6-1.53c0.86,0.02,1.55,0.73,1.53,1.6l-11.34,516.79C1368.82,2225.3,1368.12,2225.98,1367.28,2225.98z"
							/>
						<path fill="#E6E6E6" d="M1416.15,2208.45c-0.02,0-0.04,0-0.05,0c-0.86-0.03-1.54-0.75-1.51-1.61l18.15-522.1
							c0.03-0.86,0.78-1.55,1.61-1.51c0.86,0.03,1.54,0.75,1.51,1.61l-18.15,522.1C1417.68,2207.78,1416.98,2208.45,1416.15,2208.45
							z"/>
						<path fill="#E6E6E6" d="M1465.5,2190.75c-0.02,0-0.05,0-0.08,0c-0.86-0.04-1.53-0.77-1.49-1.63l25.1-527.49
							c0.04-0.86,0.77-1.55,1.63-1.49c0.86,0.04,1.53,0.77,1.49,1.63l-25.1,527.49C1467.02,2190.09,1466.33,2190.75,1465.5,2190.75z
							"/>
						<path fill="#E6E6E6" d="M1515.34,2172.87c-0.03,0-0.06,0-0.1,0c-0.86-0.05-1.52-0.79-1.46-1.65l32.2-532.97
							c0.05-0.86,0.8-1.52,1.65-1.46c0.86,0.05,1.52,0.79,1.46,1.65l-32.2,532.97C1516.85,2172.23,1516.16,2172.87,1515.34,2172.87z
							"/>
					</g>
				</g>
			</g>
		</g>
		<g>
			<defs>
				
					<filter id="Adobe_OpacityMaskFilter_2_" filterUnits="userSpaceOnUse" x="3539.64" y="2470.61" width="1042.04" height="281.52">
					<feFlood  style="flood-color:white;flood-opacity:1" result="back"/>
					<feBlend  in="SourceGraphic" in2="back" mode="normal"/>
				</filter>
			</defs>
			<mask maskUnits="userSpaceOnUse" x="3539.64" y="2470.61" width="1042.04" height="281.52" id="SVGID_7_">
				<g filter="url(#Adobe_OpacityMaskFilter_2_)">
					<defs>
						
							<filter id="Adobe_OpacityMaskFilter_3_" filterUnits="userSpaceOnUse" x="3539.64" y="2470.61" width="1042.04" height="281.52">
							<feFlood  style="flood-color:white;flood-opacity:1" result="back"/>
							<feBlend  in="SourceGraphic" in2="back" mode="normal"/>
						</filter>
					</defs>
					<mask maskUnits="userSpaceOnUse" x="3539.64" y="2470.61" width="1042.04" height="281.52" id="SVGID_7_">
						<g filter="url(#Adobe_OpacityMaskFilter_3_)">
						</g>
					</mask>
					<linearGradient id="SVGID_8_" gradientUnits="userSpaceOnUse" x1="3926.0889" y1="2750.0061" x2="4898.3008" y2="1795.5795">
						<stop  offset="4.277940e-03" style="stop-color:#FFFFFF"/>
						<stop  offset="1" style="stop-color:#000000"/>
					</linearGradient>
					<polygon mask="url(#SVGID_7_)" fill="url(#SVGID_8_)" points="3539.64,2559.2 3852.13,2655.37 3981.79,2663.61 
						4223.45,2752.13 4581.68,2676.6 4028.99,2470.61 					"/>
				</g>
			</mask>
			<linearGradient id="SVGID_9_" gradientUnits="userSpaceOnUse" x1="3926.0889" y1="2750.0061" x2="4898.3008" y2="1795.5795">
				<stop  offset="4.277940e-03" style="stop-color:#0E7AA5"/>
				<stop  offset="1" style="stop-color:#FFFFFF"/>
			</linearGradient>
			<polygon fill="url(#SVGID_9_)" points="3539.64,2559.2 3852.13,2655.37 3981.79,2663.61 4223.45,2752.13 4581.68,2676.6 
				4028.99,2470.61 			"/>
			<g>
				<polygon fill="#21CC8D" points="3878.12,2630.56 3539.64,2559.2 3539.64,2169.63 3878.12,2230.89 				"/>
				<polygon fill="#24DF9A" points="3539.64,2169.63 3680.02,2124.09 3784.17,2095.48 4106.45,2150.43 3878.12,2230.89 				"/>
				<polygon fill="#1FBF84" points="3878.12,2630.56 4101.57,2537.42 4106.45,2150.43 3878.12,2230.89 				"/>
				<polygon opacity="0.2" points="3822.5,2220.82 3878.12,2263.52 3960.04,2319.83 3965.02,2594.34 4006.79,2576.19 
					4006.79,2184.41 3878.12,2230.89 				"/>
				<path fill="#199969" d="M4013.08,2185.55c0.3,0,0.57-0.21,0.62-0.52c0.06-0.34-0.17-0.67-0.51-0.74l-333.06-60.82
					c-0.34-0.06-0.67,0.17-0.74,0.51c-0.06,0.34,0.17,0.67,0.51,0.74l333.06,60.82C4013.01,2185.55,4013.04,2185.55,4013.08,2185.55
					z"/>
				<path fill="#B38358" d="M3879.89,2232.4c0.07,0,0.14-0.01,0.21-0.04l225.46-79.3c0.33-0.11,0.5-0.48,0.39-0.81
					c-0.12-0.33-0.48-0.5-0.81-0.39l-225.46,79.3c-0.33,0.12-0.5,0.48-0.39,0.81C3879.38,2232.23,3879.62,2232.4,3879.89,2232.4z"/>
				<polygon fill="#FFFFFF" points="3662.92,2129.9 3992.56,2191.8 3992.56,2279.27 4026.59,2263.27 4028.99,2179.39 
					3702.56,2118.29 				"/>
			</g>
			<g>
				<polygon fill="#14CFD9" points="4223.45,2752.13 4581.68,2676.6 4581.68,2264.3 4223.45,2329.14 				"/>
				<polygon fill="#24DDE6" points="4581.68,2264.3 4433.1,2216.11 4322.88,2185.83 3981.79,2243.99 4223.45,2329.14 				"/>
				<polygon fill="#08BCC4" points="4223.45,2752.13 3986.95,2653.56 3981.79,2243.99 4223.45,2329.14 				"/>
				<path fill="#069399" d="M4080.61,2281.16c0.04,0,0.08,0,0.12-0.01l352.49-64.37c0.36-0.07,0.61-0.42,0.54-0.78
					c-0.07-0.36-0.42-0.6-0.78-0.54l-352.49,64.37c-0.36,0.07-0.61,0.42-0.54,0.78C4080.01,2280.93,4080.29,2281.16,4080.61,2281.16
					z"/>
				<path fill="#069399" d="M4221.57,2330.74c0.28,0,0.54-0.17,0.63-0.45c0.12-0.35-0.06-0.73-0.41-0.85l-238.62-83.93
					c-0.35-0.13-0.73,0.06-0.85,0.41s0.06,0.73,0.41,0.85l238.62,83.93C4221.43,2330.72,4221.5,2330.74,4221.57,2330.74z"/>
				<polygon fill="#FFFFFF" points="4451.2,2222.25 4102.33,2287.77 4102.33,2380.34 4066.31,2363.41 4063.77,2274.64 
					4409.25,2209.97 				"/>
				<polygon opacity="0.2" points="4294.42,2195.99 4314.75,2201.57 4127.32,2295.99 3982.96,2443.68 3981.79,2243.99 				"/>
			</g>
			<g>
				<polygon fill="#60D0D6" points="4127.32,2295.99 3823.04,2231.84 3823.04,1881.63 4127.32,1936.7 				"/>
				<polygon fill="#9EECF0" points="3823.04,1881.63 3949.24,1840.7 4042.87,1814.98 4332.59,1864.37 4127.32,1936.7 				"/>
				<polygon fill="#74E2E8" points="4127.32,2295.99 4328.2,2212.26 4332.59,1864.37 4127.32,1936.7 				"/>
				<path fill="#50ADB3" d="M4248.65,1895.94c0.27,0,0.51-0.19,0.56-0.47c0.06-0.31-0.15-0.61-0.46-0.66l-299.41-54.68
					c-0.31-0.06-0.61,0.15-0.66,0.46c-0.06,0.31,0.15,0.61,0.46,0.66l299.41,54.68C4248.58,1895.94,4248.62,1895.94,4248.65,1895.94
					z"/>
				<path fill="#50ADB3" d="M4128.91,1938.06c0.06,0,0.13-0.01,0.19-0.03l202.68-71.29c0.3-0.1,0.45-0.43,0.35-0.73
					c-0.1-0.3-0.43-0.45-0.73-0.35l-202.68,71.29c-0.3,0.1-0.45,0.43-0.35,0.73C4128.46,1937.91,4128.68,1938.06,4128.91,1938.06z"
					/>
				<polygon fill="#FFFFFF" points="3933.88,1845.91 4230.2,1901.56 4230.2,1980.19 4260.8,1965.81 4262.95,1890.41 3969.5,1835.48 
									"/>
			</g>
		</g>
		<g>
			<path opacity="0.5" fill="#070707" d="M1225.32,3030.05l2665.31-1.86c75.59,0,66.47-45.15,44.92-80.27l-180.24-315.86H1378.68
				l-207.28,361.16C1161.99,3009.61,1173.63,3036.02,1225.32,3030.05z"/>
			<path fill="#66D5D9" d="M3808.43,2999.61H1280.08c-51.38,0-101.98-15.16-120.7-44.58l0,0h2769.76
				C3929.14,2955.03,3915.32,2999.61,3808.43,2999.61z"/>
			<g>
				<g>
					<path fill="#94F7FA" d="M3896.25,2967.73H1189.93c-21.66,0-46.97-7.98-21.78-49.99l193.42-324.29
						c12.97-21.74,34.02-34.67,56.46-34.67h2250.12c22.44,0,43.49,12.92,56.46,34.67l193.42,324.29
						C3944.61,2967.73,3917.9,2967.73,3896.25,2967.73z"/>
					<path fill="#878787" d="M1189.93,2957.77c-14.74,0-21.7-3.95-23.31-7.64c-0.75-1.73-2.36-8.75,8.36-26.62l193.43-324.31
						c11.38-19.08,29.93-30.47,49.61-30.47h2250.12c19.69,0,38.24,11.39,49.61,30.46l193.29,324.08
						c11.98,22.6,9.58,29.17,9.27,29.85c-2.16,4.65-16.42,4.65-24.08,4.65H1189.93z"/>
				</g>
				<g>
					<g>
						<g>
							<polygon fill="#595959" points="1539.23,2632.06 1424.97,2632.06 1445.25,2591.33 1557.4,2591.33 							"/>
							<polygon fill="#595959" points="1688.06,2632.06 1573.81,2632.06 1591.34,2591.33 1703.49,2591.33 							"/>
							<polygon fill="#595959" points="1836.9,2632.06 1722.65,2632.06 1737.44,2591.33 1849.58,2591.33 							"/>
							<polygon fill="#595959" points="1985.74,2632.06 1871.48,2632.06 1883.53,2591.33 1995.68,2591.33 							"/>
							<polygon fill="#595959" points="2134.58,2632.06 2020.32,2632.06 2029.62,2591.33 2141.77,2591.33 							"/>
							<polygon fill="#595959" points="2283.42,2632.06 2169.16,2632.06 2175.71,2591.33 2287.86,2591.33 							"/>
							<polygon fill="#595959" points="2432.26,2632.06 2318,2632.06 2321.8,2591.33 2433.95,2591.33 							"/>
							<polygon fill="#595959" points="2581.1,2632.06 2466.84,2632.06 2467.89,2591.33 2580.04,2591.33 							"/>
							<polygon fill="#595959" points="2729.93,2632.06 2615.68,2632.06 2613.98,2591.33 2726.13,2591.33 							"/>
							<polygon fill="#595959" points="2878.77,2632.06 2764.52,2632.06 2760.08,2591.33 2872.22,2591.33 							"/>
							<polygon fill="#595959" points="3027.61,2632.06 2913.35,2632.06 2906.17,2591.33 3018.32,2591.33 							"/>
							<polygon fill="#595959" points="3176.45,2632.06 3062.19,2632.06 3052.26,2591.33 3164.41,2591.33 							"/>
							<polygon fill="#595959" points="3325.29,2632.06 3211.03,2632.06 3198.35,2591.33 3310.5,2591.33 							"/>
							<polygon fill="#595959" points="3474.13,2632.06 3359.87,2632.06 3344.44,2591.33 3456.59,2591.33 							"/>
							<polygon fill="#595959" points="3622.97,2632.06 3508.71,2632.06 3490.53,2591.33 3602.68,2591.33 							"/>
							<polygon fill="#595959" points="1515.56,2685.1 1398.55,2685.1 1419.82,2642.4 1534.61,2642.4 							"/>
							<polygon fill="#595959" points="1667.97,2685.1 1550.97,2685.1 1569.35,2642.4 1684.15,2642.4 							"/>
							<polygon fill="#595959" points="1820.39,2685.1 1703.39,2685.1 1718.89,2642.4 1833.68,2642.4 							"/>
							<polygon fill="#595959" points="1972.81,2685.1 1855.8,2685.1 1868.43,2642.4 1983.22,2642.4 							"/>
							<polygon fill="#595959" points="2125.22,2685.1 2008.22,2685.1 2017.96,2642.4 2132.75,2642.4 							"/>
							<polygon fill="#595959" points="2277.64,2685.1 2160.63,2685.1 2167.5,2642.4 2282.29,2642.4 							"/>
							<polygon fill="#595959" points="2430.05,2685.1 2313.05,2685.1 2317.03,2642.4 2431.83,2642.4 							"/>
							<polygon fill="#595959" points="2582.47,2685.1 2465.47,2685.1 2466.57,2642.4 2581.36,2642.4 							"/>
							<polygon fill="#595959" points="2734.89,2685.1 2617.88,2685.1 2616.11,2642.4 2730.9,2642.4 							"/>
							<polygon fill="#595959" points="2887.3,2685.1 2770.3,2685.1 2765.64,2642.4 2880.44,2642.4 							"/>
							<polygon fill="#595959" points="3039.72,2685.1 2922.71,2685.1 2915.18,2642.4 3029.97,2642.4 							"/>
							<polygon fill="#595959" points="3192.13,2685.1 3075.13,2685.1 3064.72,2642.4 3179.51,2642.4 							"/>
							<polygon fill="#595959" points="3344.55,2685.1 3227.55,2685.1 3214.25,2642.4 3329.05,2642.4 							"/>
							<polygon fill="#595959" points="3496.97,2685.1 3379.96,2685.1 3363.79,2642.4 3478.58,2642.4 							"/>
							<polygon fill="#595959" points="3649.38,2685.1 3532.38,2685.1 3513.33,2642.4 3628.12,2642.4 							"/>
							<polygon fill="#595959" points="1490.72,2740.74 1370.84,2740.74 1393.15,2695.94 1510.72,2695.94 							"/>
							<polygon fill="#595959" points="1646.89,2740.74 1527.01,2740.74 1546.3,2695.94 1663.86,2695.94 							"/>
							<polygon fill="#595959" points="1803.06,2740.74 1683.18,2740.74 1699.45,2695.94 1817.01,2695.94 							"/>
							<polygon fill="#595959" points="1959.23,2740.74 1839.35,2740.74 1852.59,2695.94 1970.16,2695.94 							"/>
							<polygon fill="#595959" points="2115.4,2740.74 1995.52,2740.74 2005.74,2695.94 2123.31,2695.94 							"/>
							<polygon fill="#595959" points="2271.57,2740.74 2151.69,2740.74 2158.89,2695.94 2276.45,2695.94 							"/>
							<polygon fill="#595959" points="2427.74,2740.74 2307.86,2740.74 2312.04,2695.94 2429.6,2695.94 							"/>
							<polygon fill="#595959" points="2583.91,2740.74 2464.02,2740.74 2465.18,2695.94 2582.75,2695.94 							"/>
							<polygon fill="#595959" points="2740.08,2740.74 2620.19,2740.74 2618.33,2695.94 2735.9,2695.94 							"/>
							<polygon fill="#595959" points="2896.25,2740.74 2776.36,2740.74 2771.48,2695.94 2889.05,2695.94 							"/>
							<polygon fill="#595959" points="3052.42,2740.74 2932.53,2740.74 2924.63,2695.94 3042.19,2695.94 							"/>
							<polygon fill="#595959" points="3208.59,2740.74 3088.7,2740.74 3077.78,2695.94 3195.34,2695.94 							"/>
							<polygon fill="#595959" points="3364.76,2740.74 3244.87,2740.74 3230.92,2695.94 3348.49,2695.94 							"/>
							<polygon fill="#595959" points="3520.93,2740.74 3401.04,2740.74 3384.07,2695.94 3501.64,2695.94 							"/>
							<polygon fill="#595959" points="3677.1,2740.74 3557.21,2740.74 3537.22,2695.94 3654.78,2695.94 							"/>
							<polygon fill="#595959" points="1464.64,2799.2 1341.72,2799.2 1365.17,2752.13 1485.64,2752.13 							"/>
							<polygon fill="#595959" points="1624.75,2799.2 1501.84,2799.2 1522.1,2752.13 1642.58,2752.13 							"/>
							<polygon fill="#595959" points="1784.86,2799.2 1661.95,2799.2 1679.04,2752.13 1799.52,2752.13 							"/>
							<polygon fill="#595959" points="1944.97,2799.2 1822.06,2799.2 1835.98,2752.13 1956.45,2752.13 							"/>
							<polygon fill="#595959" points="2900.52,2799.2 1982.17,2799.2 1992.92,2752.13 2893.05,2752.13 							"/>
							<polygon fill="#595959" points="3065.76,2799.2 2942.85,2799.2 2934.54,2752.13 3055.02,2752.13 							"/>
							<polygon fill="#595959" points="3225.87,2799.2 3102.96,2799.2 3091.48,2752.13 3211.96,2752.13 							"/>
							<polygon fill="#595959" points="3385.99,2799.2 3263.07,2799.2 3248.42,2752.13 3368.89,2752.13 							"/>
							<polygon fill="#595959" points="3546.1,2799.2 3423.19,2799.2 3405.36,2752.13 3525.83,2752.13 							"/>
							<polygon fill="#595959" points="3706.21,2799.2 3583.3,2799.2 3562.29,2752.13 3682.77,2752.13 							"/>
						</g>
					</g>
					<polygon fill="#757575" points="2922.08,2935.17 1951.14,2935.17 1978.4,2815.72 2903.14,2815.72 					"/>
				</g>
			</g>
		</g>
		<g>
			<path fill="#94F7FA" d="M3645.42,2557.16H1441.37c-29.65,0-53.69-24.04-53.69-53.69V1135.69c0-29.65,24.04-53.69,53.69-53.69
				h2204.05c29.65,0,53.69,24.04,53.69,53.69v1367.78C3699.11,2533.12,3675.07,2557.16,3645.42,2557.16z"/>
			<path fill="#595959" d="M1441.37,2547.19c-24.11,0-43.73-19.62-43.73-43.73V1135.69c0-24.11,19.62-43.73,43.73-43.73h2204.05
				c24.11,0,43.73,19.62,43.73,43.73v1367.78c0,24.11-19.62,43.73-43.73,43.73H1441.37z"/>
			<g>
				<rect x="1464.58" y="1149.73" fill="#FFFFFF" width="2157.63" height="1349.03"/>
			</g>
			<rect x="1576.61" y="1382.09" fill="#1FB3C7" width="1948.5" height="326.96"/>
			<g>
				<g>
					<path fill="#FFFFFF" d="M3234.35,1580.56h-125.9c-2.5,0-4.72-1.62-5.49-4l-24.12-75.13c-0.56-1.75-0.25-3.67,0.83-5.16
						c1.09-1.49,2.82-2.37,4.66-2.37h174.13c1.84,0,3.57,0.88,4.66,2.37c1.08,1.49,1.39,3.4,0.83,5.16l-24.12,75.13
						C3239.08,1578.94,3236.86,1580.56,3234.35,1580.56z M3112.66,1569.03h117.49l20.42-63.6h-158.32L3112.66,1569.03z"/>
					<path fill="#FFFFFF" d="M3224.01,1612.37h-107.37c-3.18,0-5.76-2.58-5.76-5.76c0-3.18,2.58-5.76,5.76-5.76h103.15
						c7.02-0.18,10.19-5.04,10.7-10.01c0.45-4.45-1.24-8.98-4.22-10.28l36.25-113.53c0.76-2.39,2.98-4.01,5.49-4.01h37.49
						c3.18,0,5.76,2.58,5.76,5.76c0,3.18-2.58,5.76-5.76,5.76h-33.28L3239,1579.93C3247.83,1594.45,3235.81,1612.37,3224.01,1612.37
						z"/>
					
						<ellipse transform="matrix(0.2298 -0.9732 0.9732 0.2298 829.4706 4311.4448)" fill="#FFFFFF" cx="3138.61" cy="1631.68" rx="13.26" ry="13.26"/>
					
						<ellipse transform="matrix(0.1602 -0.9871 0.9871 0.1602 1081.2815 4534.2573)" fill="#FFFFFF" cx="3205.33" cy="1631.68" rx="13.26" ry="13.26"/>
					<path fill="#FFFFFF" d="M3174.53,1580.56c-3.18,0-5.76-2.58-5.76-5.76v-75.13c0-3.18,2.58-5.76,5.76-5.76s5.76,2.58,5.76,5.76
						v75.13C3180.3,1577.98,3177.72,1580.56,3174.53,1580.56z"/>
					<path fill="#FFFFFF" d="M3142.4,1580.56c-2.63,0-5.01-1.81-5.62-4.49l-17.05-75.13c-0.7-3.1,1.24-6.19,4.35-6.9
						c3.11-0.7,6.19,1.24,6.9,4.35l17.05,75.13c0.7,3.1-1.24,6.19-4.35,6.9C3143.25,1580.52,3142.82,1580.56,3142.4,1580.56z"/>
					<path fill="#FFFFFF" d="M3205.34,1580.56c-0.28,0-0.56-0.02-0.84-0.06c-3.15-0.46-5.33-3.38-4.87-6.53l10.93-75.13
						c0.46-3.15,3.38-5.33,6.53-4.87c3.15,0.46,5.33,3.38,4.87,6.53l-10.93,75.13C3210.62,1578.49,3208.16,1580.56,3205.34,1580.56z
						"/>
					<path fill="#FFFFFF" d="M3246.41,1543.46h-149.86c-3.18,0-5.76-2.58-5.76-5.76s2.58-5.76,5.76-5.76h149.86
						c3.18,0,5.76,2.58,5.76,5.76S3249.6,1543.46,3246.41,1543.46z"/>
				</g>
				<path fill="#FFFFFF" d="M3310.38,1477.29h-33.79v-17.35h33.79c4.35,0,7.88,3.53,7.88,7.88v1.59
					C3318.26,1473.76,3314.73,1477.29,3310.38,1477.29z"/>
			</g>
			<rect x="1576.61" y="1784.72" fill="#94F3F7" width="329.05" height="315.32"/>
			<rect x="1981.48" y="1784.72" fill="#94F3F7" width="329.05" height="315.32"/>
			<rect x="2386.34" y="1784.72" fill="#94F3F7" width="329.05" height="315.32"/>
			<rect x="2791.2" y="1784.72" fill="#94F3F7" width="329.05" height="315.32"/>
			<rect x="3196.06" y="1784.72" fill="#94F3F7" width="329.05" height="315.32"/>
			<rect x="1576.61" y="2159.09" fill="#94F3F7" width="329.05" height="315.32"/>
			<rect x="1981.48" y="2159.09" fill="#94F3F7" width="329.05" height="315.32"/>
			<rect x="2386.34" y="2159.09" fill="#94F3F7" width="329.05" height="315.32"/>
			<rect x="2791.2" y="2159.09" fill="#94F3F7" width="329.05" height="315.32"/>
			<rect x="3196.06" y="2159.09" fill="#94F3F7" width="329.05" height="315.32"/>
			<g>
				<path fill="#149CC4" d="M1820.92,2011.31l-6.49-1.91c0.14-0.47,11.4-48.79,12.29-67.16c1.08-22.12-5.83-41.67-19.99-56.54
					c-16.19-17-40.84-26.75-67.62-26.75c-26.19,0-48.97,8.84-64.15,24.9c-13.96,14.76-20.64,34.94-19.33,58.37
					c1.03,18.52,10.5,65.09,10.6,65.56l-6.63,1.35c-0.39-1.93-9.66-47.52-10.72-66.53c-1.41-25.33,5.91-47.25,21.18-63.39
					c16.48-17.42,41.01-27.02,69.07-27.02c28.63,0,55.07,10.52,72.53,28.85c15.47,16.24,23.02,37.52,21.85,61.54
					C1832.54,1961.74,1821.49,2009.38,1820.92,2011.31z"/>
				<g>
					<g>
						<path fill="#149CC4" d="M1659.99,1977.68l8.84,47.13c0.96,5.09,5.57,8.57,10.62,8.22l-12.44-66.91
							C1662.12,1967.6,1659.02,1972.55,1659.99,1977.68z"/>
						<path fill="#149CC4" d="M1680.64,2032.89l19.03-3.57l-12.58-67.02l-19.03,3.57c-0.36,0.07-0.71,0.16-1.06,0.26l12.44,66.91
							C1679.84,2033,1680.24,2032.96,1680.64,2032.89z"/>
					</g>
					<g>
						<path fill="#38C2EB" d="M1704.71,2035.91L1704.71,2035.91c-5.81,1.09-11.41-2.74-12.5-8.55l-11.36-60.54
							c-1.09-5.81,2.74-11.41,8.55-12.5l0,0c5.81-1.09,11.41,2.74,12.5,8.55l11.36,60.54
							C1714.35,2029.22,1710.52,2034.81,1704.71,2035.91z"/>
					</g>
				</g>
				<g>
					<g>
						<path fill="#149CC4" d="M1821.22,1978.35l-10.03,46.89c-1.08,5.07-5.79,8.42-10.82,7.95l14.12-66.57
							C1819.35,1968.22,1822.32,1973.25,1821.22,1978.35z"/>
						<path fill="#149CC4" d="M1799.19,2033.03l-18.93-4.05l14.26-66.68l18.93,4.05c0.36,0.08,0.71,0.17,1.05,0.29l-14.12,66.57
							C1799.98,2033.16,1799.59,2033.11,1799.19,2033.03z"/>
					</g>
					<g>
						<path fill="#38C2EB" d="M1775.05,2035.44L1775.05,2035.44c5.78,1.24,11.47-2.45,12.71-8.23l12.88-60.23
							c1.24-5.78-2.45-11.47-8.23-12.71l0,0c-5.78-1.24-11.47,2.45-12.71,8.23l-12.88,60.23
							C1765.59,2028.51,1769.27,2034.2,1775.05,2035.44z"/>
					</g>
				</g>
			</g>
			<g>
				<path fill="#149CC4" d="M2654.5,2398.87c-1.44-28.43-66.36-46.2-66.36-46.2s-59.4-63.9-84.22-95.93
					c-42.26,16.25-52.33,36.29-46.03,71.13c20.59-17.18,55.73,14.24,98.45,71H2654.5z"/>
				<path fill="#149CC4" d="M2457.88,2327.87l14.09,74.04h6.8c1.89-33.34,6.13-71.13,28.64-59.08
					C2507.4,2313.09,2457.88,2313.09,2457.88,2327.87z"/>
			</g>
			<g>
				<g>
					<path fill="#149CC4" d="M2170.3,2216.66c-1.37-3.91-2.21-8.03-2.62-12.21h-3.36c-0.09,3.75-0.93,7.71-1.51,9.83
						c-2.35,8.64-8.97,15.16-16.81,15.58c-7.84-0.42-14.45-6.94-16.81-15.58c-0.58-2.12-1.42-6.07-1.51-9.83h-3.36
						c-0.41,4.18-1.25,8.29-2.62,12.21c-3.39,9.64-9.18,17.76-16.03,24.48l5.35,49.21h33.51h2.93h33.51l5.35-49.21
						C2179.48,2234.43,2173.68,2226.3,2170.3,2216.66z"/>
					<path fill="#149CC4" d="M2224.01,2419.24c-14.91,15.01-137.47,16.51-156.01,0c8.36-46.59,19.31-91.6,43.01-128.89H2181
						C2202.21,2322.54,2214.32,2368.99,2224.01,2419.24z"/>
				</g>
				<path fill="#FFFFFF" d="M2152.07,2302.12c-28.34,0-41.75-11.83-42.31-12.34c-0.43-0.39-0.46-1.04-0.08-1.47s1.05-0.46,1.47-0.08
					c0.13,0.12,13.44,11.8,40.91,11.8c0.02,0,0.03,0,0.05,0c24.68-0.01,27.84-9.87,27.87-9.97c0.16-0.55,0.74-0.87,1.29-0.71
					c0.55,0.16,0.87,0.74,0.71,1.29c-0.14,0.47-3.64,11.46-29.88,11.48C2152.11,2302.12,2152.09,2302.12,2152.07,2302.12z"/>
				<path fill="none" stroke="#FFFFFF" stroke-width="2.0889" stroke-linecap="round" stroke-miterlimit="10" d="M2156.76,2301.08
					c0,0-13.65,12.36-9.02,18.03C2152.38,2324.78,2156.76,2301.08,2156.76,2301.08z"/>
				<path fill="none" stroke="#FFFFFF" stroke-width="2.0889" stroke-linecap="round" stroke-miterlimit="10" d="M2156.76,2301.08
					c0,0,0.52-22.15,10.3-20.86C2176.85,2281.5,2156.76,2301.08,2156.76,2301.08z"/>
				<path fill="#FFFFFF" d="M2176.6,2318.8c-0.39,0-0.76-0.22-0.94-0.59c-6.14-12.59-19.03-16.09-19.16-16.13
					c-0.56-0.15-0.89-0.72-0.75-1.27s0.72-0.89,1.27-0.75c0.57,0.15,13.94,3.76,20.51,17.23c0.25,0.52,0.04,1.14-0.48,1.4
					C2176.9,2318.77,2176.75,2318.8,2176.6,2318.8z"/>
			</g>
			<g>
				<path fill="#38C2EB" d="M2109.11,1865.21c0,0,19.86,6.46,48.93-0.98c18.63,22.45-14.18,33.31-34.66,28.51
					C2102.9,1887.92,2109.11,1865.21,2109.11,1865.21z"/>
				<path fill="#149CC4" d="M2158.04,1864.22c-1.61,6.13-4.83,11.52-10.78,14.97c-13.94,8.08-31.93-0.45-38.15-13.99
					c-11.03,1.44-20.69,3.6-27.62,6.13v155.3h109.63v-155.3C2181.31,1867.62,2169.88,1865.36,2158.04,1864.22z"/>
				<polygon fill="#149CC4" points="2081.49,1871.33 2034.28,1907.89 2065.33,1948.48 2111.55,1914.02 				"/>
				<polygon fill="#149CC4" points="2191.47,1871.33 2238.73,1907.89 2207.69,1948.48 2161.41,1914.02 				"/>
			</g>
			<g>
				<g>
					<path fill="#149CC4" d="M2836.25,2382.08h-2.56v10.86c0,0,138.79,9.39,193.46,0c54.66-9.39,58.4-27.38,58.4-27.38v-11.17h-1.88
						L2836.25,2382.08z"/>
					<path fill="#38C2EB" d="M3083.36,2359.68c-14.32,18.55-57.73,24.24-112.04,25.12c-22.36,0.4-46.57-0.04-71.35-0.73
						c-21.08-0.62-42.6-1.4-63.72-1.98c-2.09-15.5,3.41-44.36,7.75-60.26c1.4-5.14,2.68-8.96,3.53-10.5l0.81-0.29
						c7.23,9.77,24.97,15.64,35.47,15.42c17.19-0.4,36.54-12.19,30.99-26.33c-0.92-1.95-1.62-3.67-2.09-5.25
						c-4.41-14.07,7.67-14.18,25.78-3.23c32.1,19.87,60.63,26.96,83.66,30.52c4.77,0.73,9.29,1.32,13.59,1.84
						C3068.08,2327.95,3086.26,2328.06,3083.36,2359.68z"/>
					<path fill="#149CC4" d="M3083.36,2359.68c-14.32,18.55-57.73,24.24-112.04,25.12c-1.58-7.79-2.94-28.28,25.01-33.38
						c21.23-3.86,33.27-17.48,39.4-27.43C3068.08,2327.95,3086.26,2328.06,3083.36,2359.68z"/>
					<path fill="#149CC4" d="M2899.96,2384.07c-21.08-0.62-42.6-1.4-63.72-1.98c-2.09-15.5,3.41-44.36,7.75-60.26
						C2861.99,2328.03,2893.94,2344.44,2899.96,2384.07z"/>
					<path fill="#149CC4" d="M3022.14,2322.15c-4.11,6.39-10.47,6.61-16.56,6.61c-54.9-3.56-82.74-24.83-92.87-33.9
						c-4.41-14.07,7.67-14.18,25.78-3.23C2970.58,2311.5,2999.12,2318.59,3022.14,2322.15z"/>
				</g>
				<path fill="#59D9FF" d="M2958.78,2386.1c-49.67,0-123.18-2.91-124.15-2.95l-1.06-0.04l0.08-2.12l1.06,0.04
					c1.25,0.05,125.75,4.98,159.86,1.99c32.57-2.86,81.78-7.18,88.06-28.91l0.29-1.02l2.04,0.59l-0.29,1.02
					c-6.68,23.13-56.77,27.53-89.92,30.44C2986.78,2385.83,2973.88,2386.1,2958.78,2386.1z"/>
			</g>
			<g>
				<g>
					<path fill="#38C2EB" d="M3319.17,1906.78h83.06c47.28,0,86.77,37.96,86.49,85.24c-0.11,18.87-6.14,35.61-20.68,44.39h-218.99
						c-13.82-6.42-19.15-28.82-15.47-55.66C3239.41,1938.21,3276.24,1906.78,3319.17,1906.78z"/>
					<path fill="#38C2EB" d="M3331.75,1908.97l0.06-0.72c1.35-16,15.18-28.53,31.48-28.53c16.3,0,30.13,12.53,31.49,28.53l0.06,0.72
						h10.72l-0.14-1.63c-1.82-21.49-20.33-38.32-42.13-38.32c-21.81,0-40.31,16.83-42.13,38.32l-0.14,1.63H3331.75z"/>
				</g>
				<rect x="3332.69" y="1956.07" fill="#149CC4" width="20.54" height="80.34"/>
				<rect x="3373.36" y="1956.07" fill="#149CC4" width="20.54" height="80.34"/>
			</g>
			<g>
				<g>
					<g>
						
							<ellipse transform="matrix(0.1648 -0.9863 0.9863 0.1648 141.948 4081.0391)" fill="#38C2EB" cx="2480.71" cy="1956.7" rx="34.79" ry="50.02"/>
						
							<ellipse transform="matrix(0.1648 -0.9863 0.9863 0.1648 220.2807 4212.5903)" fill="#38C2EB" cx="2597.55" cy="1976.23" rx="34.79" ry="50.02"/>
						<path fill="#38C2EB" d="M2568.66,1959.66h-5.52c0-3.17-8.65-8.89-22.19-10.65c-10.48-1.36-18.02,0.45-20.58,2.71
							c-0.9,0.79-0.9,1.37-0.9,1.56h-5.52c0-2.14,0.96-4.12,2.78-5.71c4.45-3.91,14-5.45,24.94-4.04
							C2554.74,1945.23,2568.66,1951.46,2568.66,1959.66z"/>
					</g>
					<path fill="#38C2EB" d="M2431.77,1946.63c-0.92,0-1.82-0.46-2.34-1.3c-0.81-1.29-0.42-3,0.88-3.81l88.45-55.34
						c0.05-0.03,0.1-0.06,0.15-0.09c13.07-7.05,18.82-1.52,20.69,1.18c5.17,7.5,1.34,20.94-8.37,29.35c-1.15,1-2.9,0.88-3.9-0.28
						c-1-1.15-0.88-2.9,0.28-3.9c8.11-7.03,10.62-17.43,7.44-22.04c-2.15-3.12-7.05-2.93-13.45,0.5l-88.37,55.29
						C2432.78,1946.5,2432.27,1946.63,2431.77,1946.63z"/>
					<path fill="#38C2EB" d="M2646.64,1988.5c-0.34,0-0.69-0.06-1.03-0.2c-1.41-0.57-2.1-2.18-1.53-3.59l29.85-74.02
						c0.06-0.16,0.14-0.3,0.23-0.45c3.97-6.27,8.04-4.47,9.19-3.77c6.05,3.68,7.37,21.02,0.37,33.05c-0.77,1.32-2.45,1.77-3.78,1
						c-1.32-0.77-1.77-2.46-1-3.78c4.31-7.41,4.79-17.24,3.07-22.73c-0.56-1.78-1.18-2.55-1.46-2.77c-0.21,0.11-0.78,0.51-1.6,1.75
						l-29.76,73.78C2648.77,1987.84,2647.73,1988.5,2646.64,1988.5z"/>
				</g>
				<path fill="#149CC4" d="M2443.5,1965.45l37.53-37.53c-0.96-0.09-1.92-0.16-2.89-0.2c-22.52-0.92-39.63,11.31-38.21,27.32
					C2440.25,1958.67,2441.51,1962.18,2443.5,1965.45z"/>
				<path fill="#149CC4" d="M2496.48,1931.46l-43.81,43.81c7.94,5.96,18.85,9.94,30.61,10.42c22.52,0.92,39.63-11.31,38.21-27.32
					C2520.48,1946.97,2510.35,1936.74,2496.48,1931.46z"/>
				<path fill="#149CC4" d="M2628.29,1958.42l-44.72,44.72c5.18,1.73,10.81,2.79,16.64,3.03c23.27,0.95,40.95-11.69,39.49-28.23
					C2639.05,1970.67,2634.81,1963.86,2628.29,1958.42z"/>
				<path fill="#149CC4" d="M2570.77,1996.96c15.24-15.24,30.49-30.49,45.73-45.73c-6.47-2.85-13.85-4.64-21.6-4.95
					c-23.27-0.95-40.95,11.69-39.49,28.23C2556.18,1983.16,2562.03,1991.16,2570.77,1996.96z"/>
			</g>
			<g>
				<polygon fill="#38C2EB" points="1776.79,2259.27 1770.14,2271.14 1648.98,2271.14 1648.98,2374.82 1833.3,2374.82 
					1833.3,2272.39 1826,2259.27 				"/>
				<rect x="1719.89" y="2259.27" fill="#38C2EB" width="42.5" height="17.1"/>
				<rect x="1663.22" y="2259.27" fill="#38C2EB" width="42.5" height="17.1"/>
				<rect x="1648.98" y="2294.89" fill="#149CC4" width="184.32" height="59.83"/>
				
					<ellipse transform="matrix(0.7071 -0.7071 0.7071 0.7071 -1123.0554 1938.3076)" fill="#149CC4" cx="1778.22" cy="2324.8" rx="42.26" ry="42.26"/>
				
					<ellipse transform="matrix(0.7071 -0.7071 0.7071 0.7071 -1123.0554 1938.3076)" fill="#38C2EB" cx="1778.22" cy="2324.8" rx="32.77" ry="32.77"/>
				
					<ellipse transform="matrix(0.7071 -0.7071 0.7071 0.7071 -1123.0554 1938.3076)" fill="#149CC4" cx="1778.22" cy="2324.8" rx="15.67" ry="15.67"/>
			</g>
			<g>
				<rect x="2928.61" y="1862.31" fill="#149CC4" width="59.47" height="180.82"/>
				<g>
					
						<ellipse transform="matrix(0.2298 -0.9732 0.9732 0.2298 378.8813 4378.7412)" fill="#38C2EB" cx="2955.83" cy="1950" rx="52.59" ry="52.59"/>
					<circle fill="#149CC4" cx="2955.83" cy="1950" r="42.34"/>
					
						<rect x="2909.48" y="1911.67" transform="matrix(0.8181 0.5751 -0.5751 0.8181 1633.626 -1326.6451)" fill="#38C2EB" width="8.23" height="13.94"/>
					
						<rect x="2899.5" y="1950.31" transform="matrix(0.9911 -0.1328 0.1328 0.9911 -234.2826 403.083)" fill="#38C2EB" width="8.23" height="13.94"/>
					
						<rect x="2993.71" y="1911.38" transform="matrix(-0.8263 0.5632 -0.5632 -0.8263 6555.3965 1815.0642)" fill="#38C2EB" width="8.23" height="13.94"/>
					
						<rect x="3003.72" y="1950.93" transform="matrix(-0.9911 -0.1328 0.1328 -0.9911 5728.9028 4298.0337)" fill="#38C2EB" width="8.23" height="13.94"/>
					<path fill="#38C2EB" d="M2955.94,1952.28l-20.66-10.65c-0.97-0.5-1.35-1.69-0.85-2.66c0.5-0.97,1.69-1.35,2.66-0.85l18.64,9.61
						l26.26-16.83c0.92-0.59,2.14-0.32,2.73,0.6c0.59,0.92,0.32,2.14-0.6,2.73L2955.94,1952.28z"/>
				</g>
			</g>
			<g>
				<path fill="#149CC4" d="M3280.32,2366.93c9.81,3,23.91,5.39,40,7.08c26.47,2.8,58.4,3.77,85.76,2.63
					c27.04-1.11,49.63-4.26,58.13-9.71c0,0,18.06-107.15-88.32-109.52c-1.19-0.03-2.41-0.04-3.63-0.04
					C3261.87,2257.37,3280.32,2366.93,3280.32,2366.93z"/>
				<path fill="#16ADD9" d="M3320.32,2374.01c26.47,2.8,58.4,3.77,85.76,2.63c15.02-97.3-27.89-118.18-30.19-119.23
					c-0.07-0.03-0.09-0.04-0.09-0.04h-3.53C3316.25,2288.66,3318.99,2358.49,3320.32,2374.01z"/>
				<path fill="#38C2EB" d="M3452.72,2371.03c0,0-30.09,50.03-169.66,38.72c-59.7-4.84-2.73-42.81-2.73-42.81
					C3317.92,2375.92,3390.36,2380.06,3452.72,2371.03z"/>
			</g>
			<g>
				<path fill="none" stroke="#1FBFC7" stroke-width="2.8983" stroke-miterlimit="10" d="M2295.28,1316.02h-672.04
					c-23.3,0-42.18-18.88-42.18-42.18v0c0-23.3,18.88-42.18,42.18-42.18h672.04c23.3,0,42.18,18.88,42.18,42.18v0
					C2337.46,1297.13,2318.58,1316.02,2295.28,1316.02z"/>
				<path fill="#1FBFC7" d="M2295.28,1231.66h-70.26v84.36h70.26c23.3,0,42.18-18.88,42.18-42.18
					C2337.46,1250.54,2318.58,1231.66,2295.28,1231.66z"/>
				<g>
					<path fill="#FFFFFF" d="M2269.24,1286.08c-5.83,0-11.32-2.27-15.45-6.4c-8.52-8.52-8.52-22.38,0-30.89
						c4.13-4.13,9.61-6.4,15.45-6.4s11.32,2.27,15.45,6.4l0,0c8.52,8.52,8.52,22.38,0,30.89
						C2280.57,1283.81,2275.08,1286.08,2269.24,1286.08z M2269.24,1247.66c-4.43,0-8.59,1.72-11.72,4.85
						c-6.46,6.46-6.46,16.98,0,23.44c3.13,3.13,7.29,4.85,11.72,4.85s8.59-1.72,11.72-4.85c6.46-6.46,6.46-16.98,0-23.44
						C2277.83,1249.38,2273.67,1247.66,2269.24,1247.66z"/>
					<polygon fill="#FFFFFF" points="2297.53,1296.39 2280.96,1279.68 2284.69,1275.95 2301.25,1292.66 					"/>
					<path fill="#FFFFFF" d="M2304.92,1300.05L2304.92,1300.05c-1.85,1.85-4.86,1.85-6.71,0l-13.87-13.87l6.71-6.71l13.87,13.87
						C2306.77,1295.2,2306.77,1298.2,2304.92,1300.05z"/>
				</g>
			</g>
			<g>
				<path fill="#FFFFFF" d="M1742.47,1557.09c0-29.93,21.78-53.65,51.27-53.65s51.27,23.71,51.27,53.65
					c0,29.94-21.64,53.65-51.27,53.65S1742.47,1587.02,1742.47,1557.09z M1750.48,1557.09c0,25.49,17.34,46.09,43.27,46.09
					s43.27-20.6,43.27-46.09c0-25.49-17.34-46.09-43.27-46.09S1750.48,1531.6,1750.48,1557.09z"/>
				<path fill="#FFFFFF" d="M1872.29,1505.22l63.72,90.4v-90.4h7.71v103.74h-7.71l-63.72-90.69v90.69h-7.71v-103.74H1872.29z"/>
				<path fill="#FFFFFF" d="M1969.81,1505.22h7.71v96.62h49.5v7.11h-57.2V1505.22z"/>
				<path fill="#FFFFFF" d="M2044.2,1505.22h7.71v103.74h-7.71V1505.22z"/>
				<path fill="#FFFFFF" d="M2087.77,1505.22l63.72,90.4v-90.4h7.71v103.74h-7.71l-63.72-90.69v90.69h-7.71v-103.74H2087.77z"/>
				<path fill="#FFFFFF" d="M2192.99,1552.2h46.24v7.11h-46.24v42.53h50.68v7.11h-58.39v-103.74h57.5v7.11h-49.79V1552.2z"/>
				<path fill="#FFFFFF" d="M2332.29,1559.61c-15.26-6.67-27.86-14.67-27.86-30.38c0-11.71,9.48-25.79,28.9-25.79
					c18.52,0,28.16,14.97,28.16,14.97l-5.93,4.59c0,0-7.41-12-22.08-12c-13.04,0-21.34,7.85-21.34,18.23
					c0,12.74,11.71,18.38,26.53,24.9c15.86,6.96,24.75,14.97,24.75,28.9c0,16.75-13.63,27.71-30.97,27.71
					c-22.82,0-32.16-21.19-32.16-21.19l6.96-4.15c0,0,6.82,17.78,25.19,17.78c12.89,0,23.27-7.71,23.27-20.15
					C2355.71,1570.13,2344.45,1564.94,2332.29,1559.61z"/>
				<path fill="#FFFFFF" d="M2452.18,1505.22h7.71v103.74h-7.71v-49.65h-59.72v49.65h-7.71v-103.74h7.71v46.98h59.72V1505.22z"/>
				<path fill="#FFFFFF" d="M2479.45,1557.09c0-29.93,21.79-53.65,51.28-53.65s51.27,23.71,51.27,53.65
					c0,29.94-21.64,53.65-51.27,53.65S2479.45,1587.02,2479.45,1557.09z M2487.46,1557.09c0,25.49,17.34,46.09,43.27,46.09
					s43.27-20.6,43.27-46.09c0-25.49-17.34-46.09-43.27-46.09S2487.46,1531.6,2487.46,1557.09z"/>
				<path fill="#FFFFFF" d="M2601.57,1505.22h26.53c20.15,0,32.75,13.04,32.75,30.08c0,17.04-12.6,30.08-32.75,30.08h-18.82v43.57
					h-7.71V1505.22z M2628.24,1558.27c14.52,0,24.6-9.34,24.6-22.97c0-13.63-10.08-22.97-24.6-22.97h-18.97v45.94H2628.24z"/>
				<path fill="#FFFFFF" d="M2677.74,1505.22h26.53c20.15,0,32.75,13.04,32.75,30.08c0,17.04-12.6,30.08-32.75,30.08h-18.82v43.57
					h-7.71V1505.22z M2704.42,1558.27c14.52,0,24.6-9.34,24.6-22.97c0-13.63-10.08-22.97-24.6-22.97h-18.97v45.94H2704.42z"/>
				<path fill="#FFFFFF" d="M2755.99,1505.22h7.71v103.74h-7.71V1505.22z"/>
				<path fill="#FFFFFF" d="M2799.56,1505.22l63.72,90.4v-90.4h7.71v103.74h-7.71l-63.72-90.69v90.69h-7.71v-103.74H2799.56z"/>
				<path fill="#FFFFFF" d="M2946.57,1554.42h35.86v42.38c0,0-14.38,13.93-40.75,13.93c-30.68,0-51.13-23.71-51.13-53.65
					c0-29.93,21.19-53.65,51.13-53.65c25.79,0,37.64,14.67,37.64,14.67l-5.48,5.19c0,0-9.93-12.3-32.16-12.3
					c-25.49,0-43.13,20.3-43.13,46.09c0,25.79,16.75,46.09,43.13,46.09c22.23,0,33.2-9.78,33.2-9.78v-31.71h-28.3V1554.42z"/>
			</g>
		</g>
		<g>
			<g>
				<path fill="#D9C561" d="M4425.66,3035.79c-20.06-26.23-73.36-44.99-135.96-44.99c-62.6,0-115.89,18.76-135.95,44.99h-8.52v23.08
					c0,37.59,64.68,68.07,144.48,68.07s144.48-30.47,144.48-68.07v-23.08H4425.66z"/>
				<ellipse fill="#E8DC68" cx="4289.71" cy="3035.79" rx="144.48" ry="68.07"/>
				<ellipse fill="#FFF39E" cx="4289.71" cy="3035.79" rx="135.39" ry="63.79"/>
			</g>
			
				<ellipse fill="none" stroke="#E8DC68" stroke-width="1.9577" stroke-miterlimit="10" cx="4289.71" cy="3035.79" rx="123.53" ry="56.96"/>
			<g>
				<ellipse fill="#FFF39E" cx="4289.71" cy="3035.79" rx="120.59" ry="55.6"/>
				<g>
					<g>
						<path fill="#E8DB52" d="M4258.25,3063.2c0.72-4.11-6.6-8.31-6.6-8.31s-8.49,2.48-9.21,6.59c-0.65,3.71,5.25,7.49,6.4,8.19
							c-8.44-2-15.84-4.5-22.09-7.41c1.39-0.26,8.65-1.77,10.98-5.19c2.58-3.79-1.88-8.51-1.88-8.51s-8.63,1.44-11.21,5.23
							c-2.22,3.26,0.76,7.19,1.64,8.24c-5.55-2.63-10.16-5.6-13.74-8.86c0.36-0.05,0.56-0.09,0.56-0.09s-0.16-0.22-0.5-0.58
							c1.89-0.28,8.21-1.39,10.96-4.28c3.26-3.42,0.27-8.03,0.27-8.03s-8.27,0.94-11.52,4.36c-2.3,2.41-1.49,5.41-0.81,6.97
							c-0.45-0.35-1-0.72-1.67-1.11c-2.8-3.19-4.67-6.61-5.53-10.23c2.33-0.01,7.89-0.26,12.1-2.24c5.44-2.56,6.51-7.04,6.51-7.04
							s-7.76-0.33-13.2,2.23c-3.23,1.52-4.92,3.71-5.76,5.24c-0.02-0.12-0.04-0.24-0.06-0.36c-0.47-3.79,0.21-7.47,1.94-10.98
							c1.28,0.1,7.44,0.48,12.89-1.29c6.12-1.99,9.03-5.93,9.03-5.93s-7.02-0.72-13.15,1.27c-4.45,1.45-7.2,3.92-8.36,5.17
							c2.36-4.36,6.36-8.44,11.82-12.11c2,0.24,7.24,0.68,12.61-0.28c6.82-1.23,11.24-4.28,11.24-4.28s-6.64-1.06-13.46,0.17
							c-2.24,0.4-4.21,1-5.86,1.62c4.71-2.62,10.24-4.98,16.5-7.03c1.55,0.11,7.38,0.4,12.9-0.99c6.43-1.62,9.98-4.9,9.98-4.9
							s-6.88-0.66-13.31,0.96c-4.52,1.14-7.6,3.09-9.05,4.15c-6.28,1.99-11.86,4.28-16.65,6.82c0.46-0.46,0.86-0.96,1.15-1.5
							c1.76-3.28-1.09-6.7-1.09-6.7s-5.7,1.89-7.46,5.17c-1.76,3.28,1.09,6.7,1.09,6.7s0.16-0.05,0.41-0.15
							c-4.39,2.96-7.84,6.18-10.26,9.6c0.03-0.82-0.2-1.73-0.93-2.67c-2.53-3.25-10.01-5.59-10.01-5.59s-3.37,2.93-0.84,6.18
							c2.25,2.88,8.37,5.04,9.73,5.49c-1.75,3.55-2.44,7.28-1.96,11.12c0.09,0.71,0.23,1.42,0.4,2.13c0,0,0,0.01,0,0.01l0,0
							c0.77,3.25,2.37,6.37,4.76,9.32c-1.36-0.57-3.03-1.09-5.06-1.43c-7.62-1.27-17.39,0.41-17.39,0.41s2.58,3.74,10.2,5.01
							c5.79,0.96,12.81,0.23,15.86-0.18c3,2.73,6.74,5.29,11.18,7.62c11.49,6.04,27.38,10.46,45.95,12.8l0.29-0.49
							c-7.11-0.89-13.73-2.07-19.82-3.5C4250.22,3069.43,4257.58,3067.02,4258.25,3063.2z"/>
						<path fill="#E8DB52" d="M4232.88,3067.02c-8.94-0.24-17.87,3.22-17.87,3.22s5.56,3.86,14.49,4.1
							c8.94,0.24,17.87-3.22,17.87-3.22S4241.81,3067.27,4232.88,3067.02z"/>
						<path fill="#E8DB52" d="M4211.89,3058.51c-8.56-0.48-17.8,2.39-17.8,2.39s4.64,3.65,13.2,4.13s17.8-2.4,17.8-2.4
							S4220.45,3058.99,4211.89,3058.51z"/>
						<path fill="#E8DB52" d="M4203.2,3040.68c0,0-0.64-3.58-7.05-5.61c-6.41-2.03-16.17-1.73-16.17-1.73s0.64,3.58,7.05,5.61
							C4193.44,3040.97,4203.2,3040.68,4203.2,3040.68z"/>
						<path fill="#E8DB52" d="M4346.53,3066.37c-8.94,0.24-14.49,4.1-14.49,4.1s8.93,3.46,17.87,3.22c8.94-0.24,14.49-4.1,14.49-4.1
							S4355.47,3066.13,4346.53,3066.37z"/>
						<path fill="#E8DB52" d="M4367.52,3057.87c-8.56,0.48-13.2,4.13-13.2,4.13s9.24,2.87,17.8,2.39c8.56-0.48,13.2-4.13,13.2-4.13
							S4376.08,3057.39,4367.52,3057.87z"/>
						<path fill="#E8DB52" d="M4376.51,3047.44c-2.04,0.34-3.7,0.86-5.06,1.43c2.39-2.96,3.99-6.08,4.76-9.32l0,0c0,0,0,0,0-0.01
							c0.17-0.7,0.31-1.41,0.4-2.13c0.48-3.84-0.21-7.57-1.96-11.12c1.36-0.45,7.49-2.61,9.73-5.49c2.53-3.25-0.84-6.18-0.84-6.18
							s-7.48,2.34-10.01,5.59c-0.73,0.94-0.96,1.85-0.93,2.67c-2.42-3.42-5.87-6.64-10.26-9.6c0.25,0.09,0.41,0.15,0.41,0.15
							s2.85-3.42,1.09-6.7c-1.76-3.28-7.46-5.17-7.46-5.17s-2.85,3.42-1.09,6.7c0.29,0.54,0.69,1.04,1.15,1.5
							c-4.79-2.54-10.37-4.84-16.65-6.82c-1.44-1.06-4.53-3.02-9.05-4.15c-6.43-1.62-13.31-0.96-13.31-0.96s3.55,3.28,9.98,4.9
							c5.52,1.39,11.35,1.1,12.9,0.99c6.27,2.05,11.79,4.41,16.5,7.03c-1.65-0.62-3.62-1.22-5.86-1.62
							c-6.82-1.23-13.46-0.17-13.46-0.17s4.42,3.05,11.24,4.28c5.37,0.97,10.61,0.52,12.61,0.28c5.46,3.67,9.46,7.75,11.82,12.11
							c-1.17-1.25-3.91-3.72-8.36-5.17c-6.12-1.99-13.15-1.27-13.15-1.27s2.9,3.95,9.03,5.93c5.46,1.77,11.62,1.39,12.89,1.29
							c1.73,3.51,2.41,7.19,1.94,10.98c-0.02,0.12-0.04,0.24-0.06,0.36c-0.84-1.53-2.53-3.73-5.76-5.25
							c-5.44-2.56-13.2-2.23-13.2-2.23s1.07,4.48,6.51,7.04c4.2,1.98,9.77,2.23,12.1,2.24c-0.86,3.62-2.73,7.04-5.53,10.23
							c-0.67,0.38-1.22,0.76-1.67,1.11c0.68-1.56,1.48-4.56-0.81-6.97c-3.26-3.42-11.52-4.36-11.52-4.36s-2.98,4.61,0.27,8.03
							c2.75,2.89,9.07,4.01,10.96,4.28c-0.34,0.35-0.5,0.58-0.5,0.58s0.2,0.03,0.56,0.09c-3.57,3.26-8.19,6.23-13.74,8.86
							c0.88-1.04,3.86-4.98,1.64-8.24c-2.58-3.79-11.21-5.23-11.21-5.23s-4.45,4.71-1.88,8.51c2.33,3.42,9.58,4.93,10.98,5.19
							c-6.24,2.91-13.65,5.41-22.09,7.41c1.15-0.7,7.05-4.48,6.4-8.19c-0.72-4.11-9.21-6.59-9.21-6.59s-7.32,4.19-6.6,8.31
							c0.67,3.82,8.03,6.23,9.08,6.55c-6.09,1.43-12.71,2.61-19.82,3.5l0.29,0.49c18.57-2.34,34.46-6.76,45.96-12.8
							c4.44-2.33,8.17-4.88,11.18-7.62c3.05,0.41,10.07,1.15,15.86,0.18c7.62-1.27,10.2-5.01,10.2-5.01
							S4384.13,3046.17,4376.51,3047.44z"/>
						<path fill="#E8DB52" d="M4383.26,3034.42c-6.41,2.03-7.05,5.61-7.05,5.61s9.76,0.3,16.17-1.73c6.41-2.03,7.05-5.61,7.05-5.61
							S4389.68,3032.4,4383.26,3034.42z"/>
					</g>
					<ellipse fill="#E8DB52" cx="4289.71" cy="3035.79" rx="38.12" ry="17.58"/>
				</g>
			</g>
		</g>
		<g>
			<g>
				<path fill="#D9C561" d="M4042.24,3177.21c-24.86-32.51-90.9-55.75-168.46-55.75c-77.56,0-143.6,23.24-168.46,55.75h-10.56v28.59
					c0,46.58,80.15,84.34,179.02,84.34c98.87,0,179.02-37.76,179.02-84.34v-28.59H4042.24z"/>
				<ellipse fill="#E8DC68" cx="3873.78" cy="3177.21" rx="179.02" ry="84.34"/>
				<ellipse fill="#FFF39E" cx="3873.78" cy="3177.21" rx="167.77" ry="79.04"/>
			</g>
			
				<ellipse fill="none" stroke="#E8DC68" stroke-width="2.4258" stroke-miterlimit="10" cx="3873.78" cy="3177.21" rx="153.06" ry="70.57"/>
			<g>
				<ellipse fill="#FFF39E" cx="3873.78" cy="3177.21" rx="149.43" ry="68.9"/>
				<g>
					<g>
						<path fill="#E8DB52" d="M3834.81,3211.18c0.9-5.1-8.17-10.29-8.17-10.29s-10.52,3.07-11.42,8.17
							c-0.81,4.6,6.51,9.28,7.93,10.15c-10.46-2.48-19.63-5.57-27.37-9.18c1.73-0.32,10.72-2.19,13.6-6.43
							c3.2-4.7-2.32-10.54-2.32-10.54s-10.7,1.78-13.89,6.48c-2.75,4.04,0.94,8.91,2.03,10.21c-6.88-3.26-12.59-6.94-17.02-10.98
							c0.44-0.07,0.69-0.11,0.69-0.11s-0.19-0.28-0.62-0.72c2.34-0.34,10.17-1.72,13.58-5.31c4.04-4.24,0.34-9.95,0.34-9.95
							s-10.24,1.16-14.28,5.4c-2.85,2.99-1.85,6.71-1.01,8.64c-0.55-0.43-1.24-0.9-2.07-1.37c-3.47-3.95-5.78-8.19-6.85-12.68
							c2.88-0.02,9.78-0.33,14.99-2.78c6.74-3.17,8.07-8.73,8.07-8.73s-9.61-0.41-16.36,2.76c-4,1.88-6.09,4.6-7.13,6.5
							c-0.02-0.15-0.06-0.3-0.07-0.45c-0.58-4.7,0.26-9.25,2.4-13.6c1.58,0.13,9.21,0.6,15.98-1.6c7.59-2.46,11.18-7.35,11.18-7.35
							s-8.7-0.89-16.29,1.57c-5.52,1.79-8.92,4.86-10.36,6.4c2.92-5.4,7.88-10.46,14.65-15.01c2.47,0.29,8.97,0.85,15.62-0.35
							c8.45-1.52,13.93-5.3,13.93-5.3s-8.23-1.31-16.68,0.21c-2.77,0.5-5.21,1.24-7.26,2.01c5.84-3.24,12.69-6.17,20.45-8.71
							c1.92,0.14,9.15,0.5,15.99-1.22c7.97-2,12.37-6.07,12.37-6.07s-8.52-0.82-16.49,1.18c-5.6,1.41-9.42,3.83-11.21,5.15
							c-7.78,2.46-14.69,5.3-20.63,8.45c0.57-0.57,1.07-1.19,1.43-1.86c2.18-4.06-1.35-8.3-1.35-8.3s-7.07,2.34-9.25,6.4
							c-2.18,4.06,1.35,8.3,1.35,8.3s0.2-0.07,0.51-0.18c-5.44,3.67-9.71,7.66-12.72,11.89c0.04-1.02-0.25-2.15-1.15-3.31
							c-3.14-4.03-12.41-6.92-12.41-6.92s-4.18,3.63-1.04,7.66c2.78,3.57,10.37,6.25,12.06,6.81c-2.16,4.4-3.02,9.02-2.43,13.78
							c0.11,0.89,0.29,1.76,0.49,2.63c0,0,0,0.01,0,0.01l0,0c0.96,4.02,2.94,7.89,5.9,11.55c-1.69-0.71-3.75-1.35-6.28-1.77
							c-9.44-1.57-21.55,0.51-21.55,0.51s3.2,4.63,12.64,6.21c7.17,1.19,15.87,0.28,19.65-0.23c3.72,3.39,8.35,6.55,13.85,9.44
							c14.24,7.48,33.93,12.96,56.94,15.86l0.36-0.6c-8.81-1.11-17.01-2.57-24.55-4.34
							C3824.85,3218.89,3833.97,3215.91,3834.81,3211.18z"/>
						<path fill="#E8DB52" d="M3803.37,3215.91c-11.07-0.3-22.14,3.99-22.14,3.99s6.88,4.78,17.96,5.09
							c11.07,0.3,22.14-3.99,22.14-3.99S3814.44,3216.21,3803.37,3215.91z"/>
						<path fill="#E8DB52" d="M3777.37,3205.37c-10.61-0.59-22.05,2.97-22.05,2.97s5.75,4.53,16.35,5.12s22.05-2.97,22.05-2.97
							S3787.97,3205.96,3777.37,3205.37z"/>
						<path fill="#E8DB52" d="M3766.6,3183.27c0,0-0.79-4.44-8.74-6.95c-7.95-2.51-20.04-2.14-20.04-2.14s0.79,4.44,8.74,6.95
							C3754.51,3183.63,3766.6,3183.27,3766.6,3183.27z"/>
						<path fill="#E8DB52" d="M3944.2,3215.1c-11.07,0.3-17.96,5.09-17.96,5.09s11.07,4.29,22.14,3.99
							c11.07-0.3,17.96-5.09,17.96-5.09S3955.27,3214.8,3944.2,3215.1z"/>
						<path fill="#E8DB52" d="M3970.2,3204.56c-10.61,0.59-16.35,5.12-16.35,5.12s11.45,3.56,22.05,2.97
							c10.61-0.59,16.35-5.12,16.35-5.12S3980.81,3203.97,3970.2,3204.56z"/>
						<path fill="#E8DB52" d="M3981.34,3191.64c-2.52,0.42-4.59,1.06-6.28,1.77c2.96-3.66,4.94-7.53,5.9-11.55l0,0
							c0,0,0-0.01,0-0.01c0.21-0.87,0.38-1.75,0.49-2.64c0.59-4.76-0.27-9.37-2.43-13.78c1.69-0.56,9.28-3.24,12.06-6.81
							c3.14-4.03-1.04-7.66-1.04-7.66s-9.27,2.9-12.41,6.92c-0.91,1.16-1.19,2.29-1.15,3.31c-3-4.24-7.28-8.23-12.72-11.89
							c0.31,0.12,0.51,0.18,0.51,0.18s3.53-4.24,1.35-8.3c-2.18-4.06-9.25-6.4-9.25-6.4s-3.53,4.24-1.35,8.3
							c0.36,0.67,0.86,1.29,1.43,1.86c-5.94-3.15-12.85-5.99-20.63-8.45c-1.79-1.32-5.61-3.74-11.21-5.15
							c-7.97-2-16.49-1.18-16.49-1.18s4.4,4.07,12.37,6.07c6.84,1.72,14.07,1.36,15.98,1.22c7.76,2.54,14.61,5.47,20.45,8.71
							c-2.04-0.77-4.49-1.51-7.26-2.01c-8.45-1.52-16.68-0.21-16.68-0.21s5.48,3.78,13.93,5.3c6.65,1.2,13.15,0.64,15.62,0.35
							c6.77,4.55,11.73,9.6,14.65,15.01c-1.45-1.54-4.84-4.61-10.36-6.4c-7.59-2.46-16.29-1.57-16.29-1.57s3.6,4.89,11.18,7.35
							c6.76,2.2,14.39,1.73,15.98,1.6c2.14,4.34,2.98,8.9,2.4,13.6c-0.02,0.15-0.05,0.3-0.07,0.45c-1.04-1.9-3.13-4.62-7.13-6.5
							c-6.74-3.17-16.36-2.76-16.36-2.76s1.32,5.55,8.07,8.73c5.21,2.45,12.11,2.76,14.99,2.77c-1.07,4.48-3.38,8.73-6.85,12.67
							c-0.82,0.47-1.51,0.94-2.07,1.37c0.84-1.93,1.84-5.65-1.01-8.64c-4.04-4.24-14.28-5.4-14.28-5.4s-3.7,5.71,0.34,9.95
							c3.41,3.58,11.24,4.96,13.58,5.31c-0.42,0.44-0.62,0.72-0.62,0.72s0.25,0.04,0.69,0.11c-4.43,4.03-10.14,7.71-17.02,10.98
							c1.09-1.29,4.78-6.17,2.03-10.21c-3.19-4.7-13.89-6.48-13.89-6.48s-5.52,5.84-2.32,10.54c2.88,4.24,11.88,6.11,13.6,6.43
							c-7.74,3.61-16.91,6.7-27.37,9.18c1.43-0.86,8.74-5.55,7.93-10.15c-0.9-5.1-11.42-8.17-11.42-8.17s-9.07,5.19-8.17,10.29
							c0.83,4.73,9.95,7.71,11.25,8.12c-7.55,1.77-15.75,3.23-24.55,4.34l0.36,0.6c23.01-2.9,42.7-8.38,56.94-15.86
							c5.5-2.89,10.13-6.05,13.85-9.44c3.78,0.51,12.48,1.42,19.65,0.23c9.44-1.57,12.64-6.21,12.64-6.21
							S3990.78,3190.07,3981.34,3191.64z"/>
						<path fill="#E8DB52" d="M3989.71,3175.52c-7.95,2.51-8.74,6.95-8.74,6.95s12.09,0.37,20.04-2.14
							c7.95-2.51,8.74-6.95,8.74-6.95S3997.66,3173.01,3989.71,3175.52z"/>
					</g>
					<ellipse fill="#E8DB52" cx="3873.78" cy="3177.21" rx="47.24" ry="21.78"/>
				</g>
			</g>
		</g>
		<g>
			<g>
				<path fill="#ADAFB3" d="M4227.74,2862.06c-18.53-24.23-67.75-41.55-125.56-41.55c-57.81,0-107.03,17.32-125.56,41.55h-7.87
					v21.31c0,34.72,59.74,62.86,133.43,62.86c73.69,0,133.43-28.14,133.43-62.86v-21.31H4227.74z"/>
				<ellipse fill="#ADAFB3" cx="4102.19" cy="2862.06" rx="133.43" ry="62.86"/>
				<ellipse fill="#CACDD1" cx="4102.19" cy="2862.06" rx="125.04" ry="58.91"/>
			</g>
			<g>
				<g>
					<g>
						<g>
							<path fill="#ADAFB3" d="M4070.2,2889.93c0.73-4.18-6.71-8.44-6.71-8.44s-8.63,2.52-9.37,6.7c-0.66,3.78,5.34,7.62,6.51,8.33
								c-8.58-2.03-16.11-4.57-22.45-7.53c1.42-0.27,8.79-1.8,11.16-5.28c2.62-3.86-1.91-8.65-1.91-8.65s-8.78,1.46-11.4,5.32
								c-2.25,3.31,0.77,7.31,1.67,8.38c-5.64-2.68-10.33-5.7-13.97-9.01c0.36-0.05,0.57-0.09,0.57-0.09s-0.16-0.23-0.51-0.59
								c1.92-0.28,8.35-1.41,11.15-4.35c3.31-3.48,0.28-8.16,0.28-8.16s-8.4,0.95-11.71,4.43c-2.34,2.45-1.51,5.5-0.83,7.09
								c-0.45-0.35-1.02-0.74-1.7-1.12c-2.85-3.24-4.74-6.72-5.62-10.4c2.36-0.01,8.03-0.27,12.3-2.28c5.53-2.6,6.62-7.16,6.62-7.16
								s-7.89-0.34-13.42,2.26c-3.28,1.54-5,3.77-5.85,5.33c-0.02-0.12-0.05-0.25-0.06-0.37c-0.48-3.85,0.22-7.59,1.97-11.16
								c1.3,0.11,7.56,0.49,13.11-1.31c6.22-2.02,9.18-6.03,9.18-6.03s-7.14-0.73-13.37,1.29c-4.53,1.47-7.32,3.99-8.5,5.25
								c2.4-4.43,6.47-8.58,12.02-12.31c2.03,0.24,7.36,0.69,12.82-0.29c6.94-1.25,11.43-4.35,11.43-4.35s-6.75-1.07-13.69,0.17
								c-2.27,0.41-4.28,1.02-5.95,1.65c4.79-2.66,10.41-5.06,16.78-7.15c1.57,0.11,7.5,0.41,13.12-1
								c6.54-1.64,10.15-4.98,10.15-4.98s-6.99-0.67-13.53,0.97c-4.59,1.15-7.73,3.14-9.2,4.22c-6.39,2.02-12.05,4.35-16.93,6.94
								c0.47-0.47,0.88-0.98,1.17-1.52c1.79-3.33-1.11-6.81-1.11-6.81s-5.8,1.92-7.59,5.25c-1.79,3.33,1.11,6.81,1.11,6.81
								s0.16-0.05,0.42-0.15c-4.46,3.01-7.97,6.28-10.43,9.76c0.03-0.84-0.2-1.76-0.95-2.72c-2.58-3.3-10.18-5.68-10.18-5.68
								s-3.43,2.98-0.85,6.28c2.28,2.93,8.51,5.13,9.89,5.59c-1.78,3.61-2.48,7.4-1.99,11.3c0.09,0.73,0.24,1.45,0.41,2.16
								c0,0,0,0.01,0,0.01l0,0c0.78,3.3,2.41,6.47,4.84,9.48c-1.39-0.58-3.08-1.11-5.15-1.45c-7.75-1.29-17.68,0.42-17.68,0.42
								s2.63,3.8,10.37,5.09c5.88,0.98,13.02,0.23,16.12-0.19c3.05,2.78,6.85,5.38,11.36,7.75c11.69,6.14,27.84,10.64,46.72,13.01
								l0.29-0.49c-7.23-0.91-13.96-2.11-20.15-3.56C4062.04,2896.26,4069.52,2893.81,4070.2,2889.93z"/>
						</g>
						<g>
							<path fill="#ADAFB3" d="M4044.41,2893.81c-9.08-0.25-18.16,3.27-18.16,3.27s5.65,3.92,14.73,4.17
								c9.08,0.25,18.16-3.27,18.16-3.27S4053.5,2894.06,4044.41,2893.81z"/>
						</g>
						<g>
							<path fill="#ADAFB3" d="M4023.08,2885.16c-8.7-0.49-18.1,2.43-18.1,2.43s4.72,3.71,13.42,4.2c8.7,0.49,18.1-2.43,18.1-2.43
								S4031.78,2885.65,4023.08,2885.16z"/>
						</g>
						<g>
							<path fill="#ADAFB3" d="M4014.24,2867.03c0,0-0.65-3.64-7.17-5.7c-6.52-2.06-16.44-1.76-16.44-1.76s0.65,3.64,7.17,5.7
								C4004.32,2867.33,4014.24,2867.03,4014.24,2867.03z"/>
						</g>
						<g>
							<path fill="#ADAFB3" d="M4159.96,2893.15c-9.08,0.25-14.73,4.17-14.73,4.17s9.08,3.52,18.16,3.27
								c9.08-0.25,14.73-4.17,14.73-4.17S4169.05,2892.9,4159.96,2893.15z"/>
						</g>
						<g>
							<path fill="#ADAFB3" d="M4181.3,2884.5c-8.7,0.49-13.42,4.2-13.42,4.2s9.39,2.92,18.1,2.43c8.7-0.49,13.42-4.2,13.42-4.2
								S4190,2884.02,4181.3,2884.5z"/>
						</g>
						<g>
							<path fill="#ADAFB3" d="M4190.44,2873.9c-2.07,0.34-3.76,0.87-5.15,1.45c2.43-3,4.05-6.18,4.84-9.48l0,0c0,0,0,0,0-0.01
								c0.17-0.72,0.31-1.44,0.4-2.16c0.48-3.9-0.22-7.69-1.99-11.3c1.38-0.46,7.61-2.66,9.89-5.59c2.58-3.3-0.85-6.28-0.85-6.28
								s-7.6,2.38-10.18,5.68c-0.74,0.95-0.98,1.88-0.95,2.72c-2.46-3.48-5.97-6.75-10.43-9.76c0.26,0.1,0.42,0.15,0.42,0.15
								s2.9-3.48,1.11-6.81c-1.79-3.33-7.59-5.25-7.59-5.25s-2.9,3.48-1.11,6.81c0.29,0.55,0.71,1.06,1.17,1.53
								c-4.87-2.59-10.54-4.92-16.93-6.94c-1.47-1.08-4.61-3.07-9.2-4.22c-6.54-1.64-13.53-0.97-13.53-0.97s3.61,3.34,10.15,4.98
								c5.61,1.41,11.54,1.12,13.12,1c6.37,2.08,11.99,4.49,16.78,7.15c-1.68-0.63-3.68-1.24-5.95-1.65
								c-6.94-1.25-13.69-0.17-13.69-0.17s4.5,3.1,11.43,4.35c5.46,0.98,10.79,0.53,12.82,0.29c5.56,3.73,9.62,7.88,12.02,12.31
								c-1.19-1.27-3.98-3.78-8.5-5.25c-6.22-2.02-13.37-1.29-13.37-1.29s2.95,4.01,9.18,6.03c5.55,1.8,11.81,1.42,13.11,1.31
								c1.75,3.56,2.45,7.31,1.97,11.16c-0.02,0.12-0.04,0.25-0.06,0.37c-0.85-1.56-2.57-3.79-5.85-5.33
								c-5.53-2.6-13.42-2.26-13.42-2.26s1.09,4.56,6.62,7.16c4.27,2.01,9.94,2.26,12.3,2.28c-0.88,3.68-2.77,7.16-5.62,10.4
								c-0.68,0.39-1.24,0.77-1.7,1.12c0.69-1.59,1.51-4.64-0.83-7.09c-3.31-3.48-11.71-4.43-11.71-4.43s-3.04,4.68,0.28,8.16
								c2.8,2.94,9.22,4.07,11.15,4.35c-0.35,0.36-0.51,0.59-0.51,0.59s0.2,0.03,0.57,0.09c-3.63,3.31-8.32,6.33-13.97,9.01
								c0.9-1.06,3.92-5.06,1.67-8.38c-2.62-3.86-11.4-5.32-11.4-5.32s-4.53,4.79-1.91,8.65c2.37,3.48,9.74,5.01,11.16,5.28
								c-6.35,2.96-13.87,5.5-22.45,7.53c1.17-0.71,7.17-4.55,6.51-8.33c-0.73-4.18-9.37-6.7-9.37-6.7s-7.44,4.26-6.71,8.44
								c0.68,3.88,8.16,6.33,9.23,6.66c-6.19,1.45-12.92,2.65-20.15,3.56l0.29,0.49c18.88-2.38,35.04-6.88,46.72-13.01
								c4.51-2.37,8.31-4.97,11.36-7.75c3.1,0.42,10.24,1.17,16.12,0.19c7.75-1.29,10.37-5.09,10.37-5.09
								S4198.18,2872.61,4190.44,2873.9z"/>
						</g>
						<g>
							<path fill="#ADAFB3" d="M4197.3,2860.67c-6.52,2.06-7.17,5.7-7.17,5.7s9.92,0.3,16.44-1.76c6.52-2.06,7.17-5.7,7.17-5.7
								S4203.82,2858.61,4197.3,2860.67z"/>
						</g>
					</g>
					<g>
						<ellipse fill="#ADAFB3" cx="4102.19" cy="2862.06" rx="38.76" ry="17.87"/>
					</g>
				</g>
			</g>
		</g>
		<g>
			<linearGradient id="SVGID_10_" gradientUnits="userSpaceOnUse" x1="2747.7561" y1="-13.454" x2="3391.0105" y2="1905.2244">
				<stop  offset="0" style="stop-color:#25D2D9"/>
				<stop  offset="1" style="stop-color:#74FFFF"/>
			</linearGradient>
			<path fill="url(#SVGID_10_)" d="M3485,970.06h-896.88c-67.43,0-122.09-54.66-122.09-122.09v0c0-67.43,54.66-122.09,122.09-122.09
				H3485c67.43,0,122.09,54.66,122.09,122.09v0C3607.08,915.4,3552.42,970.06,3485,970.06z"/>
			<polygon fill="#FFF37C" points="2620.04,768.78 2639.7,829.28 2703.31,829.28 2651.85,866.67 2671.5,927.17 2620.04,889.78 
				2568.58,927.17 2588.23,866.67 2536.77,829.28 2600.38,829.28 			"/>
			<polygon fill="#FFF37C" points="2827.72,768.78 2847.37,829.28 2910.99,829.28 2859.52,866.67 2879.18,927.17 2827.72,889.78 
				2776.25,927.17 2795.91,866.67 2744.44,829.28 2808.06,829.28 			"/>
			<polygon fill="#FFF37C" points="3035.39,768.78 3055.05,829.28 3118.66,829.28 3067.2,866.67 3086.86,927.17 3035.39,889.78 
				2983.93,927.17 3003.58,866.67 2952.12,829.28 3015.73,829.28 			"/>
			<polygon fill="#FFF37C" points="3243.07,768.78 3262.73,829.28 3326.34,829.28 3274.87,866.67 3294.53,927.17 3243.07,889.78 
				3191.6,927.17 3211.26,866.67 3159.8,829.28 3223.41,829.28 			"/>
			<polygon fill="#FFF37C" points="3450.74,768.78 3470.4,829.28 3534.02,829.28 3482.55,866.67 3502.21,927.17 3450.74,889.78 
				3399.28,927.17 3418.94,866.67 3367.47,829.28 3431.09,829.28 			"/>
		</g>
	</g>
</g>
</svg>
