<?xml version="1.0" encoding="utf-8"?>
<!-- Generator: Adobe Illustrator 23.0.5, SVG Export Plug-In . SVG Version: 6.00 Build 0)  -->
<svg version="1.1" id="Layer_1" xmlns:svgjs="http://svgjs.com/svgjs"
	 xmlns="http://www.w3.org/2000/svg" xmlns:xlink="http://www.w3.org/1999/xlink" x="0px" y="0px" viewBox="0 0 512 512"
	 style="enable-background:new 0 0 512 512;" xml:space="preserve">
<g>
	<g>
		<path style="fill:#B50D61;" d="M432,184h48c13.2,0,24-10.8,24-24V32c0-13.2-10.8-24-24-24H272c-13.2,0-24,10.8-24,24v64h-21.8
			l-7,20.8c-12.5,3.3-24.5,8.3-35.7,14.8l-15.6-7.8V8H8v176h123.4c-6.4,11.1-11.3,22.9-14.6,35.3l-20.9,7V280H32
			c-13.2,0-24,10.8-24,24v128c0,13.2,10.8,24,24,24h48v1.4c0,11.4-4.1,22.1-11.5,30.6H48v16h176v-16h-20.5
			c-7.4-8.5-11.5-19.2-11.5-30.6V456h48c13.2,0,24-10.8,24-24v-16h21.8l7-20.8c12.5-3.3,24.5-8.3,35.7-14.8l15.6,7.8V504h160V328
			H380.6c6.4-11.1,11.3-22.9,14.6-35.3l20.9-7V232h48v-16h-20.5c-7.4-8.5-11.5-19.2-11.5-30.6V184H432z M480,168H272
			c-4.4,0-8-3.6-8-8v-24h224v24C488,164.4,484.4,168,480,168z M308.5,216H288v16h60.9c2,7.8,3.1,15.8,3.1,24
			c0,50.2-38.8,91.5-88,95.6V304c0-13.2-10.8-24-24-24h-76.9c-2-7.8-3.1-15.8-3.1-24c0-50.2,38.8-91.5,88-95.6
			c0.2,13,10.9,23.6,24,23.6h48v1.4C320,196.8,315.9,207.5,308.5,216z M272,24h208c4.4,0,8,3.6,8,8v88H264V32
			C264,27.6,267.6,24,272,24z M24,24h128v109.7l-16,16V104H40v48h93.7l-11.9,11.9l2,4.1H24V24z M120,120v16H56v-16H120z M112,237.8
			l18.4-6.1l1-4.4c3.2-13.8,8.6-26.9,16.2-39l2.4-3.8l-8.7-17.3l25.8-25.8l17.3,8.7l3.8-2.4c12.1-7.6,25.2-13,39-16.2l4.4-1
			l6.1-18.3H248v32.4c-58,4.1-104,52.5-104,111.6c0,8.1,0.9,16.1,2.6,24H112V237.8z M32,296h208c4.4,0,8,3.6,8,8v88H24v-88
			C24,299.6,27.6,296,32,296z M184,488H88c5.2-9.2,8-19.7,8-30.6V456h80v1.4C176,468.3,178.8,478.8,184,488z M240,440H32
			c-4.4,0-8-3.6-8-8v-24h224v24C248,436.4,244.4,440,240,440z M488,488H360V378.3l16-16V408h96v-48h-93.7l11.9-11.9l-2-4.1H488V488z
			 M392,392v-16h64v16H392z M400,274.2l-18.4,6.1l-1,4.4c-3.2,13.8-8.6,26.9-16.2,39l-2.4,3.8l8.7,17.3l-25.8,25.8l-17.3-8.7
			l-3.8,2.4c-12.1,7.6-25.2,13-39,16.2l-4.4,1l-6.1,18.3H264v-32.4c58-4.1,104-52.5,104-111.6c0-8.1-0.9-16.2-2.6-24H400V274.2z
			 M328,216c5.2-9.2,8-19.7,8-30.6V184h80v1.4c0,10.9,2.8,21.4,8,30.6H328z"/>
		<path style="fill:#B50D61;" d="M376,424h96v16h-96V424z"/>
		<path style="fill:#B50D61;" d="M376,456h16v16h-16V456z"/>
		<path style="fill:#B50D61;" d="M408,456h64v16h-64V456z"/>
		<path style="fill:#B50D61;" d="M40,72h96v16H40V72z"/>
		<path style="fill:#B50D61;" d="M120,40h16v16h-16V40z"/>
		<path style="fill:#B50D61;" d="M40,40h64v16H40V40z"/>
		<path style="fill:#B50D61;" d="M335.5,264.8c0.3-2.9,0.5-5.8,0.5-8.8c0-3-0.2-6-0.5-8.9l-15.9,1.8c0.3,2.3,0.4,4.7,0.4,7.1
			c0,2.4-0.1,4.8-0.4,7.1L335.5,264.8z"/>
		<path style="fill:#B50D61;" d="M331.6,282.2l-15.1-5.2c-1.5,4.5-3.6,8.8-6.1,12.8l13.6,8.5C327.1,293.2,329.7,287.8,331.6,282.2
			L331.6,282.2z"/>
		<path style="fill:#B50D61;" d="M313,312.1l-11.4-11.2c-3,3.1-6.4,5.9-10.1,8.3l8.9,13.3C305,319.5,309.2,316,313,312.1z"/>
	</g>
</g>
</svg>
