<?xml version="1.0" encoding="utf-8"?>
<!-- Generator: Adobe Illustrator 23.0.5, SVG Export Plug-In . SVG Version: 6.00 Build 0)  -->
<svg version="1.1" id="Layer_1" xmlns:svgjs="http://svgjs.com/svgjs"
	 xmlns="http://www.w3.org/2000/svg" xmlns:xlink="http://www.w3.org/1999/xlink" x="0px" y="0px" viewBox="0 0 425 444.6"
	 style="enable-background:new 0 0 425 444.6;" xml:space="preserve">
<g>
	<path style="fill:#B50D61;" d="M308.9,444c15.7,0,30.8-6.2,41.9-17.3l27.1-27.1h11.7c4.1,0,7.4-3.3,7.4-7.4v-44.4h22.2V333H397
		v-14.8h22.2v-14.8H397v-14.8h22.2v-14.8H397V259h22.2v-14.8H397v-29.6c0-4.1-3.3-7.4-7.4-7.4h-22.2V185h-14.8v22.2h-14.8V185H323
		v22.2h-14.8V185h-14.8v22.2h-22.2c-4.1,0-7.4,3.3-7.4,7.4v3.8l-49.7-29c8.3-12.2,12.7-26.6,12.7-41.4V44.4c0-7.8-3.1-15.4-8.7-20.9
		c-5.6-5.6-13.1-8.7-20.9-8.7h-4C187.9,5.7,178.2,0,167.6,0H138c-15.7,0-30.7,6.3-41.8,17.4S78.8,43.5,78.8,59.2V148
		c0,14.8,4.4,29.2,12.7,41.4l-68.3,39.9c-11.4,6.6-18.3,18.8-18.4,32v175.4c0,4.1,3.3,7.4,7.4,7.4h296.7L308.9,444L308.9,444z
		 M219.4,429.2v-40.6l42.9-30.7c1.3-1,3.1-1.1,4.5-0.3l0.2,0.1c1.9,1,3,3.1,2.6,5.2c-2.2,11-5.6,27.9-5.6,27.9l0,0
		c-0.4,2.2,0.1,4.4,1.5,6.1s3.5,2.7,5.7,2.7h14.4c6.7,0,13.2-2.3,18.5-6.5l19-15.2c1.4-1.1,3.3-1.6,5.1-1.4c1.8,0.3,3.4,1.3,4.5,2.9
		c1.7,2.6,1.4,6.1-0.8,8.3l-28.5,28.5c-8.3,8.4-19.6,13-31.4,13H219.4z M308.2,355.2v-82.3c5.1-1.3,9.8-4,13.5-7.7s6.4-8.4,7.7-13.5
		h23.1v103.6h-44.3L308.2,355.2L308.2,355.2z M340.3,416.2c-7.8,7.8-18.2,12.4-29.2,13c0.9-0.8,1.8-1.6,2.7-2.5l27.1-27.1H357
		L340.3,416.2z M278.6,222h103.6v162.8h-33.7c0.4-4.8-0.8-9.6-3.5-13.6c-0.3-0.4-0.5-0.8-0.9-1.2H360c4.1,0,7.4-3.3,7.4-7.4V244.2
		c0-4.1-3.3-7.4-7.4-7.4h-37c-4.1,0-7.4,3.3-7.4,7.4c0,3.9-1.6,7.7-4.3,10.5s-6.5,4.3-10.5,4.3c-4.1,0-7.4,3.3-7.4,7.4v96.2
		c0,4.1,3.3,7.4,7.4,7.4h8.5l-14.5,11.5c-2.6,2.1-5.9,3.2-9.3,3.2h-5.4c1.1-5.7,2.6-13.2,3.8-19l0,0c1.3-6.6-0.8-13.4-5.7-18h0.2
		L278.6,222z M263.8,244.2h-22.2V259h22.2v14.8h-22.2v14.8h22.2v14.8h-22.2v14.8h22.2V333h-22.2v14.8h9.4L210.2,377l-13-2.3V296
		c0-4.1-3.3-7.4-7.4-7.4h-22.9l54.1-78.1l42.8,25V244.2z M189.8,59.2c2.8,0,5.4,1.1,7.4,3.1L212,77.1V148
		c0,21.1-11.3,40.7-29.6,51.3s-40.9,10.6-59.2,0S93.6,169.2,93.6,148V77.1l14.8-14.8c2-2,4.6-3.1,7.4-3.1s5.4,1.1,7.4,3.1L134.9,74
		c4.7,4.7,11.2,7.4,17.9,7.4s13.1-2.7,17.9-7.4l11.7-11.7C184.4,60.3,187,59.2,189.8,59.2L189.8,59.2z M152.8,222
		c19.3,0,37.9-7.6,51.7-21.1l3.7,2.1l-55.4,80l-55.4-80l3.7-2.1l0,0C114.9,214.4,133.5,222,152.8,222L152.8,222z M152.8,325.6
		c4.1,0,7.4-3.3,7.4-7.4v-14.8h22.2V372l-59.2-10.5v-58.2h22.2v14.8C145.4,322.3,148.7,325.6,152.8,325.6L152.8,325.6z M212,44.4
		v11.7l-4.3-4.3c-2.9-2.9-6.5-5.1-10.5-6.3V29.6c3.9,0,7.7,1.6,10.5,4.3C210.4,36.7,212,40.5,212,44.4L212,44.4z M138,14.8h29.6
		c3.9,0,7.7,1.6,10.5,4.3s4.3,6.5,4.3,10.5v15.9c-3.9,1.2-7.6,3.4-10.5,6.3l-11.7,11.7c-2,2-4.6,3.1-7.4,3.1c-2.8,0-5.4-1.1-7.4-3.1
		l-11.7-11.7c-4.7-4.7-11.2-7.4-17.9-7.4c-6.7,0-13.1,2.7-17.9,7.4L93.7,56c0.8-11.2,5.8-21.7,14.1-29.3
		C116,19.1,126.8,14.8,138,14.8L138,14.8z M19.6,261.2c0-7.9,4.2-15.2,11-19.2l54-31.5l54.1,78.1h-22.9c-4.1,0-7.4,3.3-7.4,7.4v62.7
		l0,0c-4.3-1.5-8.1-4.4-10.7-8.1c-2.7-3.8-4.1-8.2-4.1-12.8v-19.6H78.8v19.6l0,0c0,8.7,3.1,17.1,8.6,23.8
		c5.6,6.7,13.4,11.1,21.9,12.6l95.2,16.8v38.2h-96.2c-23.5,0-46.1-9.4-62.8-26c-16.6-16.7-26-39.2-26-62.8v-79.2H19.6z M19.6,393.7
		c8.8,14.5,21,26.7,35.5,35.5H19.6V393.7z"/>
	<path style="fill:#B50D61;" d="M323,288.6h14.8V333H323V288.6z"/>
	<path style="fill:#B50D61;" d="M108.4,96.2H138V111h-29.6V96.2z"/>
	<path style="fill:#B50D61;" d="M152.8,155.4c0,4.1-3.3,7.4-7.4,7.4H138v14.8h7.4l0,0c5.9,0,11.5-2.4,15.7-6.5s6.5-9.8,6.5-15.7
		v-14.8h-14.8L152.8,155.4z"/>
	<path style="fill:#B50D61;" d="M130.6,125.8c0,4.1-3.3,7.4-7.4,7.4s-7.4-3.3-7.4-7.4s3.3-7.4,7.4-7.4S130.6,121.7,130.6,125.8"/>
	<path style="fill:#B50D61;" d="M167.6,96.2h29.6V111h-29.6V96.2z"/>
	<path style="fill:#B50D61;" d="M189.8,125.8c0,4.1-3.3,7.4-7.4,7.4s-7.4-3.3-7.4-7.4s3.3-7.4,7.4-7.4S189.8,121.7,189.8,125.8"/>
</g>
</svg>
