<?xml version="1.0" encoding="utf-8"?>
<!-- Generator: Adobe Illustrator 23.0.5, SVG Export Plug-In . SVG Version: 6.00 Build 0)  -->
<svg version="1.1" id="Layer_1" xmlns:svgjs="http://svgjs.com/svgjs"
	 xmlns="http://www.w3.org/2000/svg" xmlns:xlink="http://www.w3.org/1999/xlink" x="0px" y="0px" viewBox="0 0 472.2 346.8"
	 style="enable-background:new 0 0 472.2 346.8;" xml:space="preserve">
<g>
	<path style="fill:#B50D61;" d="M140.8,131.4v-1.3c0-0.2,0-0.4,0-0.7c0.2,0.7,0.5,1.3,0.7,1.9c0.4,0.9,0.6,1.8,0.9,2.7
		c0-0.1,0-0.3,0-0.5c-0.4-2.1-0.9-4.1-1.7-6.1c-0.1-2.1-0.4-4.1-0.9-6c0,0.1,0.1,0.2,0.2,0.3c-0.1-0.3-0.2-0.7-0.4-1.1
		c-0.1-0.2-0.1-0.4-0.2-0.6c-0.5-1.3-1.1-2.5-1.9-3.6c-0.7-1-1.4-1.9-2.3-2.7c-0.4-0.3-0.8-0.8-1.1-1.2c-1.2-1.8-2.6-3.5-4.2-4.8
		c-1-0.8-2.1-1.5-3.4-2.1c-1.4-0.6-2.9-1.3-4.4-1.9c-0.3-0.2-0.7-0.3-1.1-0.5c4.1,0.3,8,1.5,11.8,3.1c0.7,0.3,1.4,0.6,2.2,1
		c-0.1-0.2-0.3-0.3-0.5-0.4c-0.8-0.5-1.6-1-2.3-1.4c-3.9-2.1-8.2-3.3-12.7-3.8c-2-0.2-4.1-0.2-5.9-1c-0.7-0.3-1.4-0.4-2.1-0.6
		c-0.2,0-0.3-0.1-0.6-0.2c-0.8-0.2-1.7-0.4-2.5-0.6v-0.1h9.3c-0.1-0.2-0.2-0.2-0.2-0.2c-4-0.6-8-1.1-12-0.7h-0.2
		c-1.4,0.1-2.8,0.2-4.2,0c-0.6-0.1-1.3-0.1-1.8-0.2c0-0.1,0-0.1,0-0.2l0,0c3-0.6,6.1-1.1,9.3-1.7c-3.2,0.1-6.3,0.3-9.3,0.8
		c-1.7,0.3-3.3,0.8-5,1.1c-2.4,0.3-4.9,0.4-7.3,0.6c4.8-2.3,9.9-3.3,15.2-3.8c-1,0-1.9,0-3,0c-3.6,0.2-7.2,0.6-10.8,1.6
		c-2.9,0.8-5.7,1.9-8.1,3.8c-0.5,0.4-1,0.6-1.5,0.9c0-0.1-0.1-0.2-0.2-0.2c1.1-0.8,2.2-1.6,3.3-2.4c1.2-0.7,2.4-1.4,3.6-1.9
		c1.2-0.6,2.5-1,3.7-1.5c-2.4,0.6-4.8,1.5-7,2.6c-3.7,1.8-6.7,4.7-9.8,7.3c-0.6,0.6-1.3,1.1-1.9,1.6l0,0c-0.2,0.4-0.5,0.8-0.7,1.2
		c-0.3,0.6-0.6,1.3-0.9,1.9c-0.2,0.3-0.6,0.5-0.9,0.6c-0.6,0.3-1.3,0.4-1.9,0.7c-0.2,0.1-0.3,0.2-0.5,0.2c-0.7,0.4-1.4,0.8-2,1.3
		c-1.9,1.5-3.1,3.6-3.7,6.1c0.8-1.6,1.8-3,3.3-4.3c-0.4,1.4-0.7,2.6-1.1,3.8c-0.2,0.5-0.4,1-0.7,1.4c-0.8,1.2-1.4,2.5-1.9,4
		c0.6-1.1,1.2-2,1.8-3l0.1,0.1c0,0.3-0.1,0.5-0.2,0.8c-1.4,5.9-2.1,11.9-1.9,18c0.1,2.9,0.5,5.7,1.5,8.4v19c0,6.8,2.5,13.4,6.9,18.5
		c1.1,1.3,2,2.7,2.8,4.2l3.2,6.3c5.2,10.2,15.5,16.6,27,16.6c11.4,0,21.8-6.4,27-16.6l3.2-6.3c0.8-1.5,1.7-2.9,2.8-4.2
		c4.4-5.1,6.9-11.7,6.9-18.5v-17c0.1-0.4,0.2-0.7,0.3-1.1c0.9-4.3,0.7-8.6,0.3-12.9C141.3,134.4,141.1,132.9,140.8,131.4
		L140.8,131.4z M121.9,133.4c3.4,0.1,11.1,1.6,11.1,11.9v21.6c0,4.9-1.8,9.7-5,13.4c-1.5,1.7-2.8,3.7-3.8,5.7l-3.2,6.3
		c-3.8,7.6-11.5,12.3-20,12.3s-16.2-4.7-20-12.3l-3.2-6.3c-1.1-2.1-2.3-4-3.8-5.8c-3.2-3.7-5-8.5-5-13.4v-12c0-0.5,0-1,0-1.5
		c0-0.3,0-0.6,0.1-0.9v-8.7c0,0,0.7-10.4,9.6-10.4c0,0,14.1,6.1,23.1,6.2C108.9,139.6,115.8,137.4,121.9,133.4"/>
	<path style="fill:#B50D61;" d="M131.2,219.7c14.9,5,31.1,7.3,44.7,16.5c8.1,5.5,10.2,14.3,10.9,23.4c0.3,3.8,4.1,69.1,4,72.9
		c-0.2,6-4.4,10.3-10.4,10.6c-1.8,0.1-3.7,0.1-5.5,0.1c-47.2,0-102.1,0-149.2,0c-11,0-14.7-3.7-14.6-14.8c0.1-4.5,4-70.6,4.9-75
		c1.9-9.6,6.9-17.3,16.2-20.9c12.6-4.9,25.5-8.9,39-13.6l21.1,56.5l4.2-37.8L91,232c-0.1-0.1-0.2-0.3-0.3-0.5
		c-0.7-4,2.4-7.6,6.5-7.6h7.7c3.7,0,6.6,3,6.6,6.5c0,0.4,0,0.7-0.1,1.1c0,0.2-0.1,0.3-0.2,0.5l-4.9,5.5v1.1l3.7,37L131.2,219.7z"/>
	<path style="fill:#B50D61;" d="M436.2,3.7H36.6c-19.8,0-36,16.1-36,35.9v189.3c5.5-8.4,13.3-14.7,22.9-18.4
		c2.2-0.9,4.5-1.6,6.7-2.4V39.6c0-3.5,2.8-6.3,6.3-6.3h399.6c3.5,0,6.3,2.8,6.3,6.3v224.2c0,3.5-2.8,6.3-6.3,6.3h-225
		c0.5,8.1,1.1,19.1,1.7,29.6h223.3c19.8,0,35.9-16.1,35.9-35.9V39.6C472.2,19.8,456,3.7,436.2,3.7L436.2,3.7z"/>
	<path style="fill:#B50D61;" d="M436.2,3.7H36.6c-19.8,0-36,16.1-36,35.9v189.3c5.5-8.4,13.3-14.7,22.9-18.4
		c2.2-0.9,4.5-1.6,6.7-2.4V39.6c0-3.5,2.8-6.3,6.3-6.3h399.6c3.5,0,6.3,2.8,6.3,6.3v224.2c0,3.5-2.8,6.3-6.3,6.3h-225
		c0.5,8.1,1.1,19.1,1.7,29.6h223.3c19.8,0,35.9-16.1,35.9-35.9V39.6C472.2,19.8,456,3.7,436.2,3.7L436.2,3.7z"/>
	<path style="fill:#B50D61;" d="M411.5,218.4H398V78.6c0-3.6-2.9-6.4-6.5-6.4h-12.9c-3.6,0-6.5,2.9-6.5,6.4v139.8h-25.8v-88.1
		c0-3.6-2.9-6.4-6.5-6.4H327c-3.6,0-6.5,2.9-6.5,6.4v88.1h-25.8v-114c0-3.6-2.9-6.4-6.5-6.4h-12.9c-3.6,0-6.5,2.9-6.5,6.4v113.9H243
		V156c0-3.6-2.9-6.4-6.4-6.4h-12.9c-3.6,0-6.4,2.9-6.4,6.4v62.3h-13.6c-3.6,0-6.4,2.9-6.4,6.4s2.9,6.4,6.4,6.4h207.9
		c3.6,0,6.5-2.9,6.5-6.4C418,221.3,415.1,218.4,411.5,218.4L411.5,218.4z"/>
</g>
</svg>
