<?xml version="1.0" encoding="utf-8"?>
<!-- Generator: Adobe Illustrator 23.0.5, SVG Export Plug-In . SVG Version: 6.00 Build 0)  -->
<svg version="1.1" id="Layer_1" xmlns:svgjs="http://svgjs.com/svgjs"
	 xmlns="http://www.w3.org/2000/svg" xmlns:xlink="http://www.w3.org/1999/xlink" x="0px" y="0px" viewBox="0 0 512 512"
	 style="enable-background:new 0 0 512 512;" xml:space="preserve">
<g>
	<path style="fill:#B50D61;" d="M441.9,2.5c-17.9,0-35.1,7.1-47.8,19.8c-12.7,12.7-19.8,29.9-19.8,47.8s7.1,35.1,19.8,47.8
		c12.7,12.7,29.9,19.8,47.8,19.8s35.1-7.1,47.8-19.8s19.8-29.9,19.8-47.8s-7.1-35.1-19.8-47.8S459.8,2.5,441.9,2.5L441.9,2.5z
		 M441.9,61.7c8,0,15.6,3.8,20.4,10.2s6.2,14.8,3.9,22.5c-2.4,7.7-8.2,13.8-15.8,16.4v9.1h-16.9v-9.1l0,0c-4.9-1.7-9.2-5-12.2-9.2
		c-3-4.3-4.7-9.3-4.7-14.6c0-4.7,3.8-8.4,8.5-8.4s8.5,3.8,8.5,8.4c0,3.4,2.1,6.5,5.2,7.8c3.2,1.3,6.8,0.6,9.2-1.8
		c2.4-2.4,3.1-6.1,1.8-9.2c-1.3-3.2-4.4-5.2-7.8-5.2c-8,0-15.6-3.8-20.4-10.2c-4.8-6.5-6.2-14.8-3.9-22.5
		c2.4-7.7,8.2-13.8,15.8-16.4v-10h16.9v10c4.9,1.7,9.2,5,12.2,9.2c3,4.3,4.7,9.4,4.7,14.6h-16.9c0-3.4-2.1-6.5-5.2-7.8
		c-3.2-1.3-6.8-0.6-9.2,1.8c-2.4,2.4-3.1,6-1.8,9.2S438.5,61.7,441.9,61.7L441.9,61.7z"/>
	<path style="fill:#B50D61;" d="M179.9,272.9l16.9,1.5V332h25.4v-55.5l13.9,1.2c18.7,2.3,36.6,8.5,52.8,18.2l15.2,9.1l0,0
		c0.5,0.3,1.2,0.3,1.7,0s0.9-0.9,0.9-1.5V182.9c0-0.6-0.3-1.2-0.9-1.5s-1.2-0.3-1.7,0l-22.4,13.5c-11.4,6.9-23.8,12-36.8,15.2
		l-65,12L179.9,272.9z"/>
	<path style="fill:#B50D61;" d="M340.5,239.1h33.8V256h-33.8V239.1z"/>
	<path style="fill:#B50D61;" d="M328.3,206.2l33.8-16.9l7.6,15.1l-33.8,16.9L328.3,206.2z"/>
	<path style="fill:#B50D61;" d="M328.3,288.9l7.6-15.1l33.8,16.9l-7.6,15.1L328.3,288.9z"/>
	<path style="fill:#B50D61;" d="M509.5,399.6c0-2.2-0.9-4.4-2.5-6s-3.7-2.5-6-2.5H399.6c-4.7,0-8.5,3.8-8.5,8.5V501
		c0,2.2,0.9,4.4,2.5,6s3.7,2.5,6,2.5H501c2.2,0,4.4-0.9,6-2.5s2.5-3.7,2.5-6V399.6z"/>
	<path style="fill:#B50D61;" d="M103.9,2.5H11c-4.7,0-8.4,3.8-8.4,8.4V70c0,2.2,0.9,4.4,2.5,6s3.7,2.5,6,2.5h25.4v25.3
		c0,2.2,0.9,4.4,2.5,6s3.7,2.5,6,2.5h33.8l-8.4,33.8l42.3-33.8h33.8c2.2,0,4.4-0.9,6-2.5s2.5-3.7,2.5-6v-59c0-2.2-0.9-4.4-2.5-6
		s-3.7-2.5-6-2.5h-33.8V10.9c0-2.2-0.9-4.4-2.5-6C108.3,3.4,106.2,2.5,103.9,2.5L103.9,2.5z"/>
	<path style="fill:#B50D61;" d="M61.7,171.5h16.9v177.4H61.7V171.5z"/>
	<path style="fill:#B50D61;" d="M163.1,433.4h202.8v16.9H163.1V433.4z"/>
	<path style="fill:#B50D61;" d="M433.4,163.1h16.9v202.8h-16.9V163.1z"/>
	<path style="fill:#B50D61;" d="M179.9,61.7h169v16.9h-169V61.7z"/>
</g>
<g>
	<path style="fill:#B50D61;" d="M132.6,474.9c-1,0-1.9-0.4-2.6-1l-22.2-20.7c-1.5-1.4-1.6-3.8-0.2-5.3s3.8-1.6,5.3-0.2l22.2,20.7
		c1.1,1.1,1.5,2.7,0.9,4.1C135.6,473.9,134.2,474.9,132.6,474.9L132.6,474.9z"/>
	<path style="fill:#B50D61;" d="M133.4,494.1H18.6c-5,0-9.8-2-13.4-5.5s-5.5-8.3-5.5-13.4v-66.5c0-5,2-9.8,5.5-13.4
		s8.3-5.5,13.4-5.5h114.9c5,0,9.8,2,13.4,5.5c3.5,3.5,5.5,8.3,5.5,13.4v66.5c0,5-2,9.8-5.5,13.4
		C143.3,492.1,138.4,494.1,133.4,494.1L133.4,494.1z M18.6,397.4L18.6,397.4c-3,0-5.9,1.2-8,3.3c-2.1,2.1-3.3,5-3.3,8v66.5
		c0,3,1.2,5.9,3.3,8s5,3.3,8,3.3h114.9c3,0,5.9-1.2,8-3.3c2.1-2.1,3.3-5,3.3-8v-66.5c0-3-1.2-5.9-3.3-8s-5-3.3-8-3.3H18.6z"/>
	<path style="fill:#B50D61;" d="M76,452.8c-4.2,0-8.3-1.3-11.7-3.9l-47.2-35.3c-0.8-0.6-1.4-1.5-1.6-2.5s0.1-2,0.7-2.9
		c0.6-0.8,1.5-1.4,2.5-1.5s2,0.1,2.8,0.8l47.2,35.3c2.1,1.5,4.6,2.4,7.1,2.4s5.1-0.8,7.1-2.4l47.2-35.3c1.7-1.3,4-0.9,5.3,0.8
		s0.9,4-0.8,5.3L87.7,449C84.3,451.5,80.2,452.8,76,452.8L76,452.8z"/>
	<path style="fill:#B50D61;" d="M19.4,474.9c-1.5,0-3-1-3.5-2.4s-0.2-3.1,0.9-4.1L39,447.6l0,0c1.5-1.4,3.9-1.4,5.3,0.2
		c1.4,1.5,1.3,3.9-0.2,5.3L22,473.9C21.3,474.5,20.3,474.9,19.4,474.9L19.4,474.9z"/>
</g>
<path style="fill:#FFFFFF;" d="M479.5,451c-7.9,0-15,4.1-19.1,10.2l-20.6-9.6c0.4-1.5,0.7-3.1,0.7-4.8s-0.3-3.2-0.7-4.8l28-13.1
	c2.8,3.4,7,5.6,11.7,5.6c8.4,0,15.2-6.8,15.2-15.2s-6.8-15.2-15.2-15.2s-15.2,6.8-15.2,15.2c0,1.1,0.1,2.2,0.4,3.2l-27.9,13.1
	c-3.5-4.8-9-7.9-15.4-7.9c-10.5,0-19.1,8.6-19.1,19.1s8.6,19.1,19.1,19.1c6.3,0,11.9-3.1,15.4-7.9l20.7,9.7c-0.6,2-0.9,4.1-0.9,6.3
	c0,12.7,10.3,23,23,23c12.6,0,23-10.3,23-23S492.1,451,479.5,451L479.5,451z"/>
</svg>
