<?xml version="1.0" encoding="utf-8"?>
<!-- Generator: Adobe Illustrator 23.0.5, SVG Export Plug-In . SVG Version: 6.00 Build 0)  -->
<svg version="1.1" id="Layer_1" xmlns:svgjs="http://svgjs.com/svgjs"
	 xmlns="http://www.w3.org/2000/svg" xmlns:xlink="http://www.w3.org/1999/xlink" x="0px" y="0px" viewBox="0 0 512 512"
	 style="enable-background:new 0 0 512 512;" xml:space="preserve">
<g>
	<path style="fill:#B50D61;" d="M155.8,155.1c-13.8,0-25,11.2-25,25c0,0.5,0.1,1,0.1,1.5l14.2,78c2.1,11.6,12,20.1,23.8,20.5l37,6.9
		v153.5c-4.5-1.2-9-2.4-13.3-3.9l-5.3,15.8c5.4,1.8,11,3.4,16.7,4.8l2-8V476c0,16.1,13.1,29.2,29.2,29.2c8.2,0,15.5-3.4,20.9-8.8
		c5.3,5.4,12.7,8.8,20.9,8.8c16.1,0,29.2-13.1,29.2-29.2V287l38.1-7c10.9-0.4,20.4-7.8,23.3-18.4l21.7-79.4c0.2-0.7,0.3-1.5,0.3-2.2
		c0-13.8-11.2-25-25-25c-13.4,0-24.3,10.5-25,23.7L326.7,224c-1,3.6-4.3,6.1-8,6.1H289c5.3-7,8.5-15.6,8.5-25
		c0-23-18.7-41.7-41.7-41.7s-41.7,18.7-41.7,41.7c0,9.4,3.3,18,8.6,25h-27.4c-4.1,0-7.7-3.1-8.2-7.2l-6.2-43.5
		C180.4,166,169.4,155.1,155.8,155.1L155.8,155.1z M230.8,205.1c0-13.8,11.2-25,25-25s25,11.2,25,25s-11.2,25-25,25
		S230.8,218.9,230.8,205.1z M195.3,246.8h123c11.1,0,21-7.5,24.1-18.1l13.2-46.3c0.2-0.7,0.3-1.5,0.3-2.3c0-4.6,3.7-8.3,8.3-8.3
		c4.3,0,7.8,3.3,8.3,7.4l-21.3,78.2c-1,3.6-4.3,6.1-8,6.1c-0.5,0-1,0-1.5,0.1l-45.6,8.3c-4,0.7-6.8,4.2-6.8,8.2v196
		c0,6.9-5.6,12.5-12.5,12.5s-12.5-5.6-12.5-12.5V363.5h-16.7v112.6c0,6.9-5.6,12.5-12.5,12.5s-12.5-5.6-12.5-12.5v-196
		c0-4-2.9-7.5-6.8-8.2l-44.4-8.3c-0.5-0.1-1-0.1-1.5-0.1c-4,0-7.5-2.9-8.2-6.8l-14-77.2c0.3-4.3,3.9-7.7,8.3-7.7
		c4.6,0,8.3,3.8,8.3,8.3c0,0.4,0,0.8,0.1,1.2l6.3,44.1C172.3,237.6,182.9,246.8,195.3,246.8L195.3,246.8z"/>
	<path style="fill:#B50D61;" d="M80.7,155.1c41.4,0,75-33.7,75-75.1S122,5,80.7,5s-75,33.7-75,75S39.3,155.1,80.7,155.1L80.7,155.1z
		 M80.7,21.7c32.2,0,58.4,26.2,58.4,58.4s-26.2,58.4-58.4,58.4S22.4,112.2,22.4,80S48.5,21.7,80.7,21.7L80.7,21.7z"/>
	<path style="fill:#B50D61;" d="M72.4,96.7h33.3V80h-25V46.7H64.1v41.7C64.1,93,67.8,96.7,72.4,96.7L72.4,96.7z"/>
	<path style="fill:#B50D61;" d="M497.7,88.4h-8.3V13.3c0-4.6-3.7-8.3-8.3-8.3H330.9c-4.6,0-8.3,3.7-8.3,8.3v75.1h-8.3
		c-4.6,0-8.3,3.7-8.3,8.3c0,23,18.7,41.7,41.7,41.7h116.7c23,0,41.7-18.7,41.7-41.7C506,92.1,502.3,88.4,497.7,88.4L497.7,88.4z
		 M339.2,21.7h133.4v66.7H339.2V21.7z M464.3,121.7H347.6c-10.9,0-20.1-7-23.6-16.7h6.9h157C484.5,114.8,475.2,121.7,464.3,121.7
		L464.3,121.7z"/>
	<path style="fill:#B50D61;" d="M364.2,46.7h16.7v25h-16.7V46.7z"/>
	<path style="fill:#B50D61;" d="M397.6,38.3h16.7v33.3h-16.7V38.3z"/>
	<path style="fill:#B50D61;" d="M430.9,46.7h16.7v25h-16.7V46.7z"/>
	<path style="fill:#B50D61;" d="M14,505.3h116.8c4.6,0,8.3-3.7,8.3-8.3V380.2c0-2.5-1.1-4.9-3.1-6.5l-41.7-33.4
		c-1.5-1.2-3.3-1.8-5.2-1.8H14c-4.6,0-8.3,3.7-8.3,8.3V497C5.7,501.6,9.4,505.3,14,505.3L14,505.3z M22.4,355.2h63.8l36.3,29v104.4
		H22.4V355.2z"/>
	<path style="fill:#B50D61;" d="M414.3,321.9c-50.6,0-91.7,41.1-91.7,91.7c0,29.9,14.4,56.3,36.5,73.1c0.1,0,0.1,0.1,0.1,0.2
		c0.4,0.3,0.7,0.5,1.1,0.8c1.5,1.1,3,2.1,4.5,3.1c0.7,0.5,1.5,0.9,2.2,1.4c1.5,0.9,3,1.8,4.5,2.6c1.3,0.7,2.7,1.3,4,1.9
		c1.7,0.8,3.4,1.5,5.1,2.2c1.8,0.7,3.6,1.4,5.4,2c0.9,0.3,1.9,0.6,2.9,0.8c1.8,0.5,3.6,1,5.4,1.4c1,0.2,1.9,0.4,2.9,0.6
		c1.9,0.4,3.9,0.6,5.8,0.9c0.9,0.1,1.7,0.2,2.6,0.3c2.8,0.3,5.7,0.4,8.5,0.4c2.9,0,5.7-0.2,8.6-0.4c0.9-0.1,1.7-0.2,2.6-0.3
		c2-0.2,3.9-0.5,5.8-0.9c1-0.2,1.9-0.4,2.9-0.6c1.8-0.4,3.6-0.9,5.4-1.4c1-0.3,1.9-0.5,2.9-0.8c1.8-0.6,3.6-1.3,5.4-2
		c1.7-0.7,3.4-1.4,5.1-2.2c1.4-0.6,2.7-1.2,4-1.9c1.5-0.8,3-1.7,4.5-2.6c0.7-0.5,1.5-0.9,2.2-1.4c1.5-1,3-2,4.5-3.1
		c0.4-0.3,0.7-0.5,1.1-0.8c0.1,0,0.1-0.1,0.1-0.2c22.1-16.8,36.5-43.3,36.5-73.1C506,363,464.9,321.9,414.3,321.9L414.3,321.9z
		 M372.6,475.9v-20.6c0-18.4,15-33.4,33.4-33.4h16.7c18.4,0,33.4,15,33.4,33.4v20.6c-3.1,2.1-6.3,3.9-9.7,5.5l0,0
		c-20.1,9.4-43.9,9.4-64,0l0,0C378.9,479.8,375.7,478,372.6,475.9L372.6,475.9z M414.3,405.2c-9.2,0-16.7-7.5-16.7-16.7
		s7.5-16.7,16.7-16.7s16.7,7.5,16.7,16.7C431,397.8,423.5,405.2,414.3,405.2z M472.6,460.6v-5.4c0-21.2-13.3-39.3-31.9-46.6
		c4.3-5.6,6.9-12.5,6.9-20.1c0-18.4-15-33.4-33.4-33.4s-33.4,15-33.4,33.4c0,7.6,2.6,14.5,6.9,20.1c-18.7,7.3-31.9,25.4-31.9,46.6
		v5.4c-10.4-12.9-16.7-29.3-16.7-47.1c0-41.4,33.7-75.1,75.1-75.1s75,33.7,75,75C489.3,431.4,483,447.8,472.6,460.6L472.6,460.6z"/>
	<path style="fill:#B50D61;" d="M39,380.2h58.4v16.7H39V380.2z"/>
	<path style="fill:#B50D61;" d="M39,413.6h66.7v16.7H39V413.6z"/>
	<path style="fill:#B50D61;" d="M39,446.9h66.7v16.7H39V446.9z"/>
	<path style="fill:#B50D61;" d="M304.1,35.4c-5.6-1.3-11.4-2.3-17-3.2l-2.4,16.5c5.2,0.8,10.5,1.7,15.7,2.9L304.1,35.4z"/>
	<path style="fill:#B50D61;" d="M175.1,63.6l-6.8-15.3c-5.3,2.3-10.5,4.9-15.6,7.6l7.9,14.7C165.4,68.2,170.2,65.8,175.1,63.6
		L175.1,63.6z"/>
	<path style="fill:#B50D61;" d="M255.8,46.7c4.3,0,8.6,0.1,12.9,0.4l1.1-16.6c-4.6-0.3-9.3-0.4-14-0.4h-3.4l0.3,16.7L255.8,46.7z"/>
	<path style="fill:#B50D61;" d="M205.3,53.1L201.1,37c-5.6,1.4-11.1,3.1-16.6,5l5.5,15.8C195,56,200.1,54.5,205.3,53.1L205.3,53.1z"
		/>
	<path style="fill:#B50D61;" d="M236.8,47.6L235.2,31c-5.7,0.5-11.5,1.3-17.2,2.3l2.9,16.4C226.1,48.8,231.4,48.1,236.8,47.6
		L236.8,47.6z"/>
	<path style="fill:#B50D61;" d="M69.1,318.8c-1.9-4.9-3.6-10-5.2-15.1l-16,4.7c1.6,5.5,3.5,11.1,5.6,16.4L69.1,318.8z"/>
	<path style="fill:#B50D61;" d="M40.4,222.6l16.6,1.8c0.6-5.3,1.4-10.6,2.4-15.8L43,205.5C41.9,211.1,41,216.9,40.4,222.6
		L40.4,222.6z"/>
	<path style="fill:#B50D61;" d="M39,246.8c0,3.5,0.1,7,0.2,10.4l16.7-0.8c-0.1-3.2-0.2-6.4-0.2-9.6c0-2.1,0-4.2,0.1-6.4l-16.7-0.6
		C39.1,242.2,39,244.5,39,246.8L39,246.8z"/>
	<path style="fill:#B50D61;" d="M60,288.2c-1.1-5.2-2-10.5-2.7-15.8l-16.5,2.1c0.7,5.7,1.7,11.4,2.9,17.1L60,288.2z"/>
	<path style="fill:#B50D61;" d="M67.9,177.8l-15.7-5.7c-2,5.4-3.8,11-5.3,16.5l16.1,4.5C64.4,188,66.1,182.8,67.9,177.8L67.9,177.8z
		"/>
	<path style="fill:#B50D61;" d="M155.3,438.9c5.1,2.7,10.4,5.2,15.7,7.4l6.5-15.3c-4.9-2.1-9.7-4.4-14.5-6.9L155.3,438.9z"/>
	<path style="fill:#B50D61;" d="M450.2,294.8l16.2,4c1-4,1.9-8.1,2.6-12.3l-16.4-3C451.9,287.3,451.1,291.1,450.2,294.8L450.2,294.8
		z"/>
	<path style="fill:#B50D61;" d="M454.1,219.7c0.7,5.3,1.2,10.6,1.5,15.9l16.7-0.9c-0.3-5.7-0.9-11.5-1.6-17.3L454.1,219.7z"/>
	<path style="fill:#B50D61;" d="M472.6,252.1l-16.7-0.4c-0.1,5.3-0.5,10.6-1,16l16.6,1.7C472.1,263.6,472.5,257.8,472.6,252.1
		L472.6,252.1z"/>
	<path style="fill:#B50D61;" d="M435.6,158.8c2.3,4.8,4.5,9.7,6.5,14.6l15.5-6.1c-2.1-5.4-4.5-10.7-7-15.9L435.6,158.8z"/>
	<path style="fill:#B50D61;" d="M447.3,188.5c1.5,5,2.9,10.2,4,15.5l16.3-3.6c-1.2-5.7-2.7-11.3-4.4-16.8L447.3,188.5z"/>
</g>
</svg>
