<?xml version="1.0" encoding="utf-8"?>
<!-- Generator: Adobe Illustrator 23.0.5, SVG Export Plug-In . SVG Version: 6.00 Build 0)  -->
<svg version="1.1" id="Layer_1" xmlns:svgjs="http://svgjs.com/svgjs"
	 xmlns="http://www.w3.org/2000/svg" xmlns:xlink="http://www.w3.org/1999/xlink" x="0px" y="0px" viewBox="0 0 512 512"
	 style="enable-background:new 0 0 512 512;" xml:space="preserve">
<g>
	<g>
		<g id="mobilephone_路_ecommerce_路_shopping_路_buy_路_cart">
			<path style="fill:#B50D61;" d="M128,42.7h8.5c4.7,0,8.5-3.8,8.5-8.5s-3.8-8.5-8.5-8.5H128c-4.7,0-8.5,3.8-8.5,8.5
				S123.3,42.7,128,42.7z"/>
			<path style="fill:#B50D61;" d="M170.7,42.7h8.5c4.7,0,8.5-3.8,8.5-8.5s-3.8-8.5-8.5-8.5h-8.5c-4.7,0-8.5,3.8-8.5,8.5
				S166,42.7,170.7,42.7z"/>
			<path style="fill:#B50D61;" d="M503.5,85.3H307.2V42.7c0-23.6-19.1-42.7-42.7-42.7H42.7C19.1,0,0,19.1,0,42.7v384
				c0,23.6,19.1,42.7,42.7,42.7h162.1v34.1c0,4.7,3.8,8.5,8.5,8.5H384c4.7,0,8.5-3.8,8.5-8.5v-51.2c0-4.7-3.8-8.5-8.5-8.5h-8.5v-3.3
				c0-1.7,0.5-3.4,1.5-4.8l5.5-8.4c6.6-9.8,10.1-21.4,10.1-33.2v-86.9h110.9c4.7,0,8.5-3.8,8.5-8.5V93.9
				C512,89.2,508.2,85.3,503.5,85.3z M17.1,42.7c0-14.1,11.5-25.6,25.6-25.6h221.9c14.1,0,25.6,11.5,25.6,25.6v8.5H17.1V42.7z
				 M17.1,68.3h273.1v17.1h-25.6c-4.7,0-8.5,3.8-8.5,8.5v95.5c-10.3,4-17.1,13.9-17.1,24.9v75.9h-8.5c-14.1,0-25.6,11.5-25.6,25.6
				V384H17.1V68.3z M204.8,452.3H42.7c-14.1,0-25.6-11.5-25.6-25.6v-25.6h188.2c1.1,9.4,4.4,18.3,9.6,26.2l5.5,8.4
				c0.9,1.4,1.4,3.1,1.5,4.8v3.3h-8.5C208.6,443.7,204.8,447.6,204.8,452.3z M375.5,494.9H221.9v-34.1h153.6V494.9z M375.5,394.1
				c0,8.4-2.5,16.7-7.2,23.7l-5.6,8.4c-2.8,4.2-4.3,9.2-4.3,14.3v3.3H238.9v-3.3c0-5.1-1.5-10-4.3-14.3l-5.6-8.4
				c-4.7-7-7.2-15.3-7.2-23.7v-78.3c0-4.7,3.8-8.5,8.5-8.5h8.5V350c0,4.7,3.8,8.5,8.5,8.5s8.5-3.8,8.5-8.5V214.3
				c-0.1-4.7,3.2-8.7,7.8-9.5c2.6-0.2,5.1,0.8,6.8,2.6c1.6,1.5,2.5,3.7,2.5,5.9v102.4c0,4.7,3.8,8.5,8.5,8.5s8.5-3.8,8.5-8.5V273
				c0-4.7,3.8-8.5,8.5-8.5c2.3,0,4.5,0.9,6.1,2.6c1.6,1.5,2.5,3.7,2.5,5.9v42.7c0,4.7,3.8,8.5,8.5,8.5s8.5-3.8,8.5-8.5v-34.1
				c0-4.7,3.8-8.5,8.5-8.5c2.3,0,4.5,0.9,6.1,2.6c1.6,1.5,2.5,3.7,2.5,5.9v34.1c0,4.7,3.8,8.5,8.5,8.5s8.5-3.8,8.5-8.5v-17.1
				c0-4.7,3.8-8.5,8.5-8.5c2.3,0,4.5,0.9,6.1,2.6c1.6,1.5,2.5,3.7,2.5,5.9v95.5H375.5z M494.9,290.1H391c-1.2-3.6-3.2-6.8-5.9-9.5
				c-7.3-7.1-18-9.4-27.6-5.8c-1.2-4.3-3.4-8.2-6.6-11.3c-8.2-7.9-20.6-9.7-30.7-4.3c-1-1.6-2.1-3-3.4-4.3c-7-6.9-17.4-9.3-26.7-6.1
				v-35.6c0-6.8-2.6-13.2-7.4-18c-2.7-2.7-6-4.8-9.6-6.1v-86.9H495v187.9L494.9,290.1L494.9,290.1z"/>
			<path style="fill:#B50D61;" d="M68.3,264.5h-8.5c-4.7,0-8.5,3.8-8.5,8.5s3.8,8.5,8.5,8.5h8.5c4.7,0,8.5-3.8,8.5-8.5
				S73,264.5,68.3,264.5z"/>
			<path style="fill:#B50D61;" d="M187.7,264.5h-85.3c-4.7,0-8.5,3.8-8.5,8.5s3.8,8.5,8.5,8.5h85.3c4.7,0,8.5-3.8,8.5-8.5
				S192.4,264.5,187.7,264.5z"/>
			<path style="fill:#B50D61;" d="M68.3,298.7h-8.5c-4.7,0-8.5,3.8-8.5,8.5s3.8,8.5,8.5,8.5h8.5c4.7,0,8.5-3.8,8.5-8.5
				S73,298.7,68.3,298.7z"/>
			<path style="fill:#B50D61;" d="M170.7,298.7h-68.3c-4.7,0-8.5,3.8-8.5,8.5s3.8,8.5,8.5,8.5h68.3c4.7,0,8.5-3.8,8.5-8.5
				S175.4,298.7,170.7,298.7z"/>
			<path style="fill:#B50D61;" d="M68.3,332.8h-8.5c-4.7,0-8.5,3.8-8.5,8.5s3.8,8.5,8.5,8.5h8.5c4.7,0,8.5-3.8,8.5-8.5
				C76.8,336.6,73,332.8,68.3,332.8z"/>
			<path style="fill:#B50D61;" d="M170.7,332.8h-68.3c-4.7,0-8.5,3.8-8.5,8.5s3.8,8.5,8.5,8.5h68.3c4.7,0,8.5-3.8,8.5-8.5
				C179.2,336.6,175.4,332.8,170.7,332.8z"/>
			<circle style="fill:#B50D61;" cx="366.9" cy="230.4" r="17.1"/>
			<circle style="fill:#B50D61;" cx="409.6" cy="230.4" r="17.1"/>
			<path style="fill:#B50D61;" d="M332.8,145.1h9.5l1.2,9.5v0.2l6.4,51.1c0.5,4.3,4.2,7.5,8.5,7.5h59.7c3.7,0,6.9-2.4,8.1-5.8
				l17.1-51.2c1.5-4.5-0.9-9.3-5.4-10.8c-0.9-0.3-1.8-0.4-2.7-0.4h-75.7l-1.2-9.6c-0.5-4.3-4.2-7.5-8.5-7.5h-17.1
				c-4.7,0-8.5,3.8-8.5,8.5S328.1,145.1,332.8,145.1z M423.4,162.1L412,196.3h-46.1l-4.3-34.1h61.8V162.1z"/>
			<path style="fill:#B50D61;" d="M170.7,418.1h-34.1c-4.7,0-8.5,3.8-8.5,8.5s3.8,8.5,8.5,8.5h34.1c4.7,0,8.5-3.8,8.5-8.5
				S175.4,418.1,170.7,418.1z"/>
			<path style="fill:#B50D61;" d="M232.5,111.2l-34-8.5c-0.7-0.2-1.4-0.3-2.1-0.3h-17.2c-4.7,0-8.5,3.8-8.5,8.5
				c0,9.4-7.6,17.1-17.1,17.1c-9.4,0-17.1-7.6-17.1-17.1c0-4.7-3.8-8.5-8.5-8.5h-17.3c-0.7,0-1.4,0.1-2.1,0.3l-33.9,8.5
				c-3.8,1-6.5,4.4-6.5,8.3v34.1c0,4.7,3.8,8.5,8.5,8.5c0.7,0,1.4-0.1,2.1-0.3l23.5-5.9v74.4c0,4.7,3.8,8.5,8.5,8.5h85.3
				c4.7,0,8.5-3.8,8.5-8.5V156l23.5,5.9c4.6,1.1,9.2-1.6,10.4-6.2c0.2-0.7,0.3-1.4,0.3-2.1v-34.1
				C238.9,115.6,236.3,112.1,232.5,111.2z M221.9,142.7l-23.5-5.9c-2.5-0.6-5.2-0.1-7.3,1.6c-2.1,1.6-3.3,4.1-3.3,6.7v76.8h-68.3
				v-76.8c0-4.7-3.8-8.5-8.5-8.5c-0.7,0-1.4,0.1-2.1,0.3l-23.5,5.9v-16.5l26.5-6.7h8.8c4.7,18.3,23.3,29.3,41.6,24.6
				c12.1-3.1,21.5-12.5,24.6-24.6h8.7l26.5,6.7v16.4L221.9,142.7L221.9,142.7z"/>
		</g>
	</g>
</g>
</svg>
