<?xml version="1.0" encoding="utf-8"?>
<!-- Generator: Adobe Illustrator 23.0.5, SVG Export Plug-In . SVG Version: 6.00 Build 0)  -->
<svg version="1.1" id="Layer_1" xmlns:svgjs="http://svgjs.com/svgjs"
	 xmlns="http://www.w3.org/2000/svg" xmlns:xlink="http://www.w3.org/1999/xlink" x="0px" y="0px" viewBox="0 0 512 512"
	 style="enable-background:new 0 0 512 512;" xml:space="preserve">
<g>
	<path style="fill:#B50D61;" d="M216.3,216h-59.6L143,195.6c-1.5-2.2-4-3.6-6.6-3.6h-64c-4.4,0-8,3.6-8,8v111.9
		c0,2.1,0.8,4.1,2.3,5.6s3.5,2.3,5.7,2.3h143.9c2.1,0,4.1-0.8,5.6-2.3s2.3-3.5,2.3-5.6V224c0-2.1-0.8-4.2-2.3-5.6
		C220.4,216.9,218.4,216,216.3,216L216.3,216z M208.3,304H80.4v-96H132l13.7,20.4c1.5,2.2,4,3.6,6.6,3.6h55.9L208.3,304z"/>
	<path style="fill:#B50D61;" d="M472,248h-16c-4.4,0-8,3.6-8,8s3.6,8,8,8h16c4.4,0,8-3.6,8-8S476.5,248,472,248z"/>
	<path style="fill:#B50D61;" d="M472,280h-16c-4.4,0-8,3.6-8,8s3.6,8,8,8h16c4.4,0,8-3.6,8-8S476.5,280,472,280z"/>
	<path style="fill:#B50D61;" d="M472,216h-16c-4.4,0-8,3.6-8,8s3.6,8,8,8h16c4.4,0,8-3.6,8-8S476.5,216,472,216z"/>
	<path style="fill:#B50D61;" d="M472,431.8h-16c-4.4,0-8,3.6-8,8s3.6,8,8,8h16c4.4,0,8-3.6,8-8S476.5,431.8,472,431.8z"/>
	<path style="fill:#B50D61;" d="M472,463.8h-16c-4.4,0-8,3.6-8,8s3.6,8,8,8h16c4.4,0,8-3.6,8-8S476.5,463.8,472,463.8z"/>
	<path style="fill:#B50D61;" d="M472,399.9h-16c-4.4,0-8,3.6-8,8s3.6,8,8,8h16c4.4,0,8-3.6,8-8C480,403.4,476.5,399.9,472,399.9z"/>
	<path style="fill:#B50D61;" d="M424.1,144.1H504c2.1,0,4.1-0.8,5.6-2.3s2.3-3.5,2.3-5.6V8.2c0-2.1-0.8-4.2-2.3-5.7
		s-3.5-2.3-5.6-2.3h-79.9c-4.4,0-8,3.6-8,8v55.9h-56c-4.4,0-8,3.6-8,8V248h-63.9V24.2c0-6.4-2.5-12.5-7-17s-10.6-7-17-7H24.5
		c-6.4,0-12.5,2.5-17,7s-7,10.6-7,17v463.6c0,6.4,2.5,12.5,7,17s10.6,7,17,7h239.8c6.4,0,12.5-2.5,17-7s7-10.6,7-17V264h63.9v175.8
		c0,2.1,0.8,4.1,2.3,5.6s3.5,2.3,5.6,2.3H416v55.9l0,0c0,2.1,0.8,4.1,2.3,5.6s3.5,2.3,5.6,2.3H504c2.1,0,4.1-0.8,5.6-2.3
		s2.3-3.5,2.3-5.6V375.9c0-2.1-0.8-4.1-2.3-5.6s-3.5-2.3-5.6-2.3h-79.9c-4.4,0-8,3.6-8,8v55.9h-48V264h48v56c0,2.1,0.8,4.1,2.3,5.6
		s3.5,2.3,5.6,2.3h80c2.1,0,4.1-0.8,5.6-2.3s2.3-3.5,2.3-5.6V192.1c0-2.1-0.8-4.1-2.3-5.6s-3.5-2.3-5.6-2.3h-79.9c-4.4,0-8,3.6-8,8
		V248h-48V80.2h48v55.9c0,2.1,0.8,4.1,2.3,5.6C419.9,143.3,422,144.1,424.1,144.1L424.1,144.1z M432.1,16.2H496v111.9h-63.9V16.2z
		 M272.2,487.8c0,2.1-0.8,4.1-2.3,5.6s-3.5,2.3-5.6,2.3H24.5c-4.4,0-8-3.6-8-8V24.2c0-4.4,3.6-8,8-8h239.8c2.1,0,4.2,0.8,5.6,2.3
		c1.5,1.5,2.3,3.5,2.3,5.6L272.2,487.8L272.2,487.8z M432.1,383.9H496v111.9h-63.9V383.9z M432.1,200.1H496V312h-63.9V200.1z"/>
	<path style="fill:#B50D61;" d="M472,64.2h-16c-4.4,0-8,3.6-8,8s3.6,8,8,8h16c4.4,0,8-3.6,8-8C480,67.8,476.5,64.2,472,64.2z"/>
	<path style="fill:#B50D61;" d="M472,96.2h-16c-4.4,0-8,3.6-8,8s3.6,8,8,8h16c4.4,0,8-3.6,8-8C480,99.7,476.5,96.2,472,96.2z"/>
	<path style="fill:#B50D61;" d="M472,32.2h-16c-4.4,0-8,3.6-8,8s3.6,8,8,8h16c4.4,0,8-3.6,8-8S476.5,32.2,472,32.2z"/>
	<path style="fill:#B50D61;" d="M136.4,48.2h16l0,0c4.4,0,8-3.6,8-8s-3.6-8-8-8h-16c-4.4,0-8,3.6-8,8S131.9,48.2,136.4,48.2
		L136.4,48.2z"/>
	<path style="fill:#B50D61;" d="M168.3,463.8h-47.9c-4.4,0-8,3.6-8,8s3.6,8,8,8h48l0,0c4.4,0,8-3.6,8-8
		C176.3,467.4,172.7,463.8,168.3,463.8L168.3,463.8z"/>
</g>
</svg>
