<?xml version="1.0" encoding="utf-8"?>
<!-- Generator: Adobe Illustrator 23.0.5, SVG Export Plug-In . SVG Version: 6.00 Build 0)  -->
<svg version="1.1" id="Layer_1" xmlns:svgjs="http://svgjs.com/svgjs"
	 xmlns="http://www.w3.org/2000/svg" xmlns:xlink="http://www.w3.org/1999/xlink" x="0px" y="0px" viewBox="0 0 684 567"
	 style="enable-background:new 0 0 684 567;" xml:space="preserve">
<g>
	<path style="fill:#B50D61;" d="M10.1,97.1c0.1,0.7,0.1,1.5,0.2,2.2c5,56.6,38.1,100.4,78.3,100.4c40.7,0,74.1-44.9,78.4-102.6
		c0.6-4.1,0.9-8.4,0.9-12.7c0-4.3-0.3-8.6-0.9-12.7c-5.8-40.1-38.7-70.8-78.4-70.8S15.9,31.6,10.1,71.8c-0.6,4.1-0.9,8.4-0.9,12.7
		c0,1.8,0.1,3.5,0.2,5.2C9.5,92.1,9.8,94.6,10.1,97.1L10.1,97.1z M39.6,52c0,0,54.8,26.7,91.7,0c0,0,21.9,34.6,15.8,48.3l11.1-12.8
		c0,3.4-0.3,6.7-0.8,10c-3.8,50.7-33.2,90.1-68.9,90.1c-35.1,0-64.1-38.1-68.7-87.6c3.1,0.8,6.9,2.3,11,5.2
		C30.9,105.1,23.1,58.6,39.6,52L39.6,52z"/>
	<path style="fill:#B50D61;" d="M670,202.8c16.9,1.9,31.8,4.8,31.8,4.8c-33.8-18.6-33-85.3-33-85.3c6-129.2-79.3-122.4-79.3-122.4
		l-0.1,0.2l-0.1-0.2c0,0-85.3-6.8-79.4,122.4c0,0,0.9,66.7-32.9,85.3c0,0,9.1-0.6,21.3-0.9c-34.5,15.4-58.5,50-58.5,90.2
		c0,54.5,44.2,44.9,98.7,44.9h101.7c54.5,0,98.7,9.6,98.7-44.9C739,252.8,710,215.4,670,202.8L670,202.8z M612.3,228.7l-22.8,37.1
		l-22.8-37.1c-16.6-3.8-29.4-11.5-34.6-21.1c13.4,1.2,24.7,3.6,27.7,8.4l-12.7-28c12.1,12,26.6,19.1,42.3,19.1
		c15.3,0,29.6-6.7,41.5-18.2l-8.8,18.2c2.9-4.8,14-6.1,27-5.8C647.1,213.7,632.4,224.1,612.3,228.7L612.3,228.7z M655,109.8
		c-1.3,17.1-5.6,32.9-12.2,46.1c-12,24-31.4,39.7-53.3,39.7c-33.4,0-61-36.3-65.4-83.4c0,0,26.4-4.4,42.2-10.6
		c0,0,28.6-9.5,63.4-34.7c0.2-0.1,0.3-0.2,0.5-0.4c0,0,0.6,0.9,1.5,2.4c3,5.2,9.5,20.6-2.8,27.7l22.3,2.8h0.4l4.1,0.8
		C655.7,103.5,655.5,106.7,655,109.8L655,109.8z"/>
	<path style="fill:#B50D61;" d="M161.3,187.9c-3.2-0.6-6.4-1.1-9.8-1.4l0,0c0,0.1,0,0.3,0,0.4c0,0.4-0.1,0.8-0.1,1.2V188v0.1
		c-0.2,1.8-0.6,3.6-1.3,5.4c0.7-1.7,1.1-3.5,1.3-5.4c-0.4,2.4-1.6,5.6-3.3,9.3c-9.1,19.3-34,52.9-49.5,73l-2.9-41.8
		c4-2.1,7.4-5.4,9.8-9.2c1.9-3.2,3.1-6.7,3.1-10.4c0,0-10.8,4.8-21.9,4.8S64.8,209,64.8,209c0,3.3,1,6.6,2.7,9.6
		c2.3,4.2,6,7.8,10.2,9.9l-3,42.9c-14.5-20.6-39.2-57-46.8-76.2l0,0c-1.1-2.7-1.8-5.1-2.1-7c-0.1-0.5-0.1-0.9-0.1-1.3l0,0
		c0-0.1,0-0.3,0-0.4c-1.6,0.1-3.1,0.3-4.6,0.5c-0.1,0-0.2,0-0.3,0c-50.5,7-89.3,50.3-89.3,102.7c0,57.3,46.4,57.1,103.7,57.1H142
		c57.3,0,103.7,0.1,103.7-57.1C245.7,239.1,209.4,196.9,161.3,187.9L161.3,187.9z"/>
	<path style="fill:#B50D61;" d="M257.7,278.3c0.1,0.8,0.1,1.6,0.2,2.4c5.3,59.9,40.4,106.2,82.8,106.2c43,0,78.4-47.5,83-108.5
		c0.6-4.4,1-8.9,1-13.4c0-4.6-0.3-9.1-1-13.4c-6.1-42.4-41-74.9-83-74.9s-76.9,32.5-83,75c-0.6,4.4-1,8.9-1,13.4
		c0,1.9,0.1,3.7,0.2,5.5C257.1,273.1,257.3,275.8,257.7,278.3L257.7,278.3z M288.9,230.7c0,0,58,28.2,97,0c0,0,23.2,36.6,16.7,51
		l11.8-13.5c0,3.6-0.3,7.1-0.8,10.6c-4,53.6-35.1,95.3-72.9,95.3c-37.1,0-67.8-40.4-72.6-92.7c3.3,0.8,7.3,2.4,11.6,5.5
		C279.7,286.8,271.4,237.6,288.9,230.7L288.9,230.7z"/>
	<path style="fill:#B50D61;" d="M417.6,374.4c-3.4-0.6-6.8-1.1-10.3-1.4l0,0c0,0.1,0,0.3,0,0.5c0,0.4-0.1,0.8-0.1,1.2c0,0,0,0,0-0.1
		c0,0,0,0,0,0.1c-0.2,1.9-0.7,3.8-1.4,5.6c0.7-1.8,1.2-3.7,1.4-5.6c-0.4,2.6-1.6,5.9-3.5,9.8c-9.6,20.4-36,56-52.4,77.2l-3.1-44.2
		c4.2-2.2,7.9-5.7,10.4-9.8c2-3.4,3.3-7.1,3.3-11c0,0-11.5,5.1-23.2,5.1s-23.2-5.1-23.2-5.1c0,3.5,1.1,7,2.9,10.2
		c2.5,4.4,6.3,8.2,10.8,10.5l-3.2,45.4c-15.4-21.8-41.5-60.3-49.5-80.6l0,0c-1.1-2.9-1.9-5.4-2.3-7.4l0,0c-0.1-0.5-0.1-0.9-0.2-1.4
		l0,0c0-0.1,0-0.3,0-0.5l0,0c-1.6,0.1-3.3,0.4-4.9,0.6c-0.1,0-0.2,0-0.3,0c-53.4,7.4-94.4,53.3-94.4,108.7
		c0,60.6,49.1,60.5,109.7,60.5h113c60.6,0,109.7,0.1,109.7-60.5C506.9,428.6,468.5,384,417.6,374.4L417.6,374.4z"/>
</g>
</svg>
