<?xml version="1.0" encoding="utf-8"?>
<!-- Generator: Adobe Illustrator 23.0.5, SVG Export Plug-In . SVG Version: 6.00 Build 0)  -->
<svg version="1.1" xmlns="http://www.w3.org/2000/svg" xmlns:xlink="http://www.w3.org/1999/xlink" x="0px" y="0px"
	 viewBox="0 0 767.6 547.7" style="enable-background:new 0 0 767.6 547.7;" xml:space="preserve">
<style type="text/css">
	.st0{fill:none;stroke:#150D36;stroke-width:2;stroke-miterlimit:10;}
	.st1{opacity:0.19;}
	.st2{fill:none;stroke:#19374C;stroke-width:3;stroke-miterlimit:10;}
	.st3{fill:none;stroke:#150D36;stroke-width:3;stroke-miterlimit:10;}
	.st4{fill:none;stroke:url(#SVGID_1_);stroke-width:10;stroke-miterlimit:10;}
	.st5{fill:none;stroke:url(#SVGID_2_);stroke-width:10;stroke-miterlimit:10;}
	.st6{fill:none;stroke:url(#SVGID_3_);stroke-width:10;stroke-miterlimit:10;}
	.st7{fill:none;stroke:url(#SVGID_4_);stroke-width:10;stroke-miterlimit:10;}
	.st8{fill:none;stroke:url(#SVGID_5_);stroke-width:10;stroke-miterlimit:10;}
	.st9{fill:none;stroke:url(#SVGID_6_);stroke-width:10;stroke-miterlimit:10;}
	.st10{opacity:0.5;}
	.st11{fill:#939393;}
	.st12{fill:url(#SVGID_7_);}
	.st13{fill:url(#SVGID_8_);}
	.st14{fill:url(#SVGID_9_);}
	.st15{fill:url(#SVGID_10_);}
	.st16{fill:url(#SVGID_11_);}
	.st17{fill:url(#SVGID_12_);}
	.st18{fill:#FFFFFF;}
	.st19{fill:#150D36;}
	.st20{fill:#19374C;}
	.st21{fill:none;stroke:url(#SVGID_13_);stroke-width:10;stroke-miterlimit:10;}
	.st22{fill:url(#SVGID_14_);}
	.st23{fill:none;stroke:url(#SVGID_15_);stroke-width:10;stroke-miterlimit:10;}
	.st24{fill:url(#SVGID_16_);}
</style>
<g id="BACKGROUND">
</g>
<g id="OBJECTS">
	<g>
		<line class="st0" x1="458.1" y1="273.4" x2="607" y2="273.4"/>
		<line class="st0" x1="160.3" y1="273.4" x2="309.2" y2="273.4"/>
		<g>
			<g class="st1">
				<path class="st2" d="M233,109c40.7,0,73.8,33,73.8,73.8s-33,73.8-73.8,73.8"/>
			</g>
			<g>
				<path class="st3" d="M233,105c40.7,0,73.8,33,73.8,73.8s-33,73.8-73.8,73.8"/>
			</g>
		</g>
		<g>
			<linearGradient id="SVGID_1_" gradientUnits="userSpaceOnUse" x1="154.2209" y1="178.7641" x2="232.9849" y2="178.7641">
				<stop  offset="0" style="stop-color:#7B33FA"/>
				<stop  offset="1" style="stop-color:#957CDC"/>
			</linearGradient>
			<path class="st4" d="M233,252.5c-40.7,0-73.8-33-73.8-73.8s33-73.8,73.8-73.8"/>
		</g>
		<g>
			<g class="st1">
				<path class="st2" d="M88,203.6c40.7,0,73.8,33,73.8,73.8c0,40.7-33,73.8-73.8,73.8"/>
			</g>
			<g>
				<path class="st3" d="M88,199.6c40.7,0,73.8,33,73.8,73.8c0,40.7-33,73.8-73.8,73.8"/>
			</g>
		</g>
		<g>
			<linearGradient id="SVGID_2_" gradientUnits="userSpaceOnUse" x1="9.2194" y1="273.354" x2="87.9834" y2="273.354">
				<stop  offset="5.100000e-07" style="stop-color:#1389D1"/>
				<stop  offset="1" style="stop-color:#14C3D0"/>
			</linearGradient>
			<path class="st5" d="M88,347.1c-40.7,0-73.8-33-73.8-73.8c0-40.7,33-73.8,73.8-73.8"/>
		</g>
		<g>
			<g>
				<g class="st1">
					<path class="st2" d="M534.7,256.5c-40.7,0-73.8-33-73.8-73.8c0-40.7,33-73.8,73.8-73.8"/>
				</g>
				<g>
					<path class="st3" d="M534.7,252.5c-40.7,0-73.8-33-73.8-73.8c0-40.7,33-73.8,73.8-73.8"/>
				</g>
			</g>
			<g>
				<linearGradient id="SVGID_3_" gradientUnits="userSpaceOnUse" x1="534.7333" y1="178.7641" x2="613.4973" y2="178.7641">
					<stop  offset="3.722630e-03" style="stop-color:#FF062C"/>
					<stop  offset="0.9926" style="stop-color:#C40077"/>
				</linearGradient>
				<path class="st6" d="M534.7,105c40.7,0,73.8,33,73.8,73.8c0,40.7-33,73.8-73.8,73.8"/>
			</g>
		</g>
		<g>
			<g class="st1">
				<path class="st2" d="M534.7,445.7c-40.7,0-73.8-33-73.8-73.8s33-73.8,73.8-73.8"/>
			</g>
			<g>
				<path class="st3" d="M534.7,441.7c-40.7,0-73.8-33-73.8-73.8s33-73.8,73.8-73.8"/>
			</g>
		</g>
		<g>
			<linearGradient id="SVGID_4_" gradientUnits="userSpaceOnUse" x1="534.7333" y1="367.944" x2="613.4973" y2="367.944">
				<stop  offset="1.117200e-02" style="stop-color:#5EB5EB"/>
				<stop  offset="0.9926" style="stop-color:#39559E"/>
			</linearGradient>
			<path class="st7" d="M534.7,294.2c40.7,0,73.8,33,73.8,73.8s-33,73.8-73.8,73.8"/>
		</g>
		<g>
			<g class="st1">
				<path class="st2" d="M680.1,351.1c-40.7,0-73.8-33-73.8-73.8c0-40.7,33-73.8,73.8-73.8"/>
			</g>
			<g>
				<path class="st3" d="M680.1,347.1c-40.7,0-73.8-33-73.8-73.8c0-40.7,33-73.8,73.8-73.8"/>
			</g>
		</g>
		<g>
			<linearGradient id="SVGID_5_" gradientUnits="userSpaceOnUse" x1="680.1046" y1="273.354" x2="758.8685" y2="273.354">
				<stop  offset="0.2451" style="stop-color:#F15D24"/>
				<stop  offset="0.4136" style="stop-color:#F26B22"/>
				<stop  offset="1" style="stop-color:#F6991B"/>
			</linearGradient>
			<path class="st8" d="M680.1,199.6c40.7,0,73.8,33,73.8,73.8c0,40.7-33,73.8-73.8,73.8"/>
		</g>
		<g>
			<g class="st1">
				<path class="st2" d="M233,298.2c40.7,0,73.8,33,73.8,73.8c0,40.7-33,73.8-73.8,73.8"/>
			</g>
			<g>
				<path class="st3" d="M233,294.2c40.7,0,73.8,33,73.8,73.8c0,40.7-33,73.8-73.8,73.8"/>
			</g>
		</g>
		<g>
			<linearGradient id="SVGID_6_" gradientUnits="userSpaceOnUse" x1="154.2209" y1="367.944" x2="232.9849" y2="367.944">
				<stop  offset="0" style="stop-color:#3D8B67"/>
				<stop  offset="1" style="stop-color:#9AD032"/>
			</linearGradient>
			<path class="st9" d="M233,441.7c-40.7,0-73.8-33-73.8-73.8c0-40.7,33-73.8,73.8-73.8"/>
		</g>
		<g>
			<g>
				<line class="st0" x1="436.2" y1="233.1" x2="467.9" y2="211.1"/>
				<g>
					<g class="st10">
						<path class="st11" d="M465,215.1c0,3.3,2.6,5.9,5.9,5.9c3.3,0,5.9-2.6,5.9-5.9s-2.6-5.9-5.9-5.9
							C467.7,209.2,465,211.8,465,215.1z"/>
					</g>
					<g>
						<linearGradient id="SVGID_7_" gradientUnits="userSpaceOnUse" x1="462.0157" y1="211.1002" x2="473.8394" y2="211.1002">
							<stop  offset="3.722630e-03" style="stop-color:#FF062C"/>
							<stop  offset="0.9926" style="stop-color:#C40077"/>
						</linearGradient>
						<path class="st12" d="M462,211.1c0,3.3,2.6,5.9,5.9,5.9c3.3,0,5.9-2.6,5.9-5.9s-2.6-5.9-5.9-5.9
							C464.7,205.2,462,207.8,462,211.1z"/>
					</g>
				</g>
			</g>
			<g>
				<line class="st0" x1="436.2" y1="313.6" x2="467.9" y2="335.6"/>
				<g>
					<g class="st10">
						<path class="st11" d="M465,339.6c0-3.3,2.6-5.9,5.9-5.9c3.3,0,5.9,2.6,5.9,5.9c0,3.3-2.6,5.9-5.9,5.9
							C467.7,345.5,465,342.9,465,339.6z"/>
					</g>
					<g>
						
							<linearGradient id="SVGID_8_" gradientUnits="userSpaceOnUse" x1="462.0157" y1="137.916" x2="473.8394" y2="137.916" gradientTransform="matrix(1 0 0 -1 0 473.5238)">
							<stop  offset="1.117200e-02" style="stop-color:#5EB5EB"/>
							<stop  offset="0.9926" style="stop-color:#39559E"/>
						</linearGradient>
						<path class="st13" d="M462,335.6c0-3.3,2.6-5.9,5.9-5.9c3.3,0,5.9,2.6,5.9,5.9c0,3.3-2.6,5.9-5.9,5.9
							C464.7,341.5,462,338.9,462,335.6z"/>
					</g>
				</g>
			</g>
		</g>
		<g>
			<g class="st10">
				<circle class="st11" cx="610.2" cy="277.4" r="5.9"/>
			</g>
			<g>
				<linearGradient id="SVGID_9_" gradientUnits="userSpaceOnUse" x1="601.3132" y1="273.354" x2="613.1368" y2="273.354">
					<stop  offset="0.2451" style="stop-color:#F15D24"/>
					<stop  offset="0.4136" style="stop-color:#F26B22"/>
					<stop  offset="1" style="stop-color:#F6991B"/>
				</linearGradient>
				<circle class="st14" cx="607.2" cy="273.4" r="5.9"/>
			</g>
		</g>
		<g>
			<g class="st10">
				<path class="st11" d="M158.6,277.4c0,3.3,2.6,5.9,5.9,5.9c3.3,0,5.9-2.6,5.9-5.9c0-3.3-2.6-5.9-5.9-5.9
					C161.2,271.4,158.6,274.1,158.6,277.4z"/>
			</g>
			<g>
				<linearGradient id="SVGID_10_" gradientUnits="userSpaceOnUse" x1="155.5803" y1="273.354" x2="167.404" y2="273.354">
					<stop  offset="5.100000e-07" style="stop-color:#1389D1"/>
					<stop  offset="1" style="stop-color:#14C3D0"/>
				</linearGradient>
				<path class="st15" d="M155.6,273.4c0,3.3,2.6,5.9,5.9,5.9c3.3,0,5.9-2.6,5.9-5.9c0-3.3-2.6-5.9-5.9-5.9
					C158.2,267.4,155.6,270.1,155.6,273.4z"/>
			</g>
		</g>
		<g>
			<line class="st0" x1="331.6" y1="233.1" x2="299.9" y2="211.1"/>
			<g>
				<g class="st10">
					<path class="st11" d="M308.8,215.1c0,3.3-2.6,5.9-5.9,5.9c-3.3,0-5.9-2.6-5.9-5.9s2.6-5.9,5.9-5.9
						C306.2,209.2,308.8,211.8,308.8,215.1z"/>
				</g>
				<g>
					
						<linearGradient id="SVGID_11_" gradientUnits="userSpaceOnUse" x1="55.5345" y1="211.1002" x2="67.3582" y2="211.1002" gradientTransform="matrix(-1 0 0 1 361.3333 0)">
						<stop  offset="0" style="stop-color:#7B33FA"/>
						<stop  offset="1" style="stop-color:#957CDC"/>
					</linearGradient>
					<path class="st16" d="M305.8,211.1c0,3.3-2.6,5.9-5.9,5.9c-3.3,0-5.9-2.6-5.9-5.9s2.6-5.9,5.9-5.9
						C303.2,205.2,305.8,207.8,305.8,211.1z"/>
				</g>
			</g>
		</g>
		<g>
			<line class="st0" x1="331.6" y1="313.6" x2="299.9" y2="335.6"/>
			<g>
				<g class="st10">
					<path class="st11" d="M308.8,339.6c0-3.3-2.6-5.9-5.9-5.9c-3.3,0-5.9,2.6-5.9,5.9c0,3.3,2.6,5.9,5.9,5.9
						C306.2,345.5,308.8,342.9,308.8,339.6z"/>
				</g>
				<g>
					
						<linearGradient id="SVGID_12_" gradientUnits="userSpaceOnUse" x1="55.5345" y1="137.916" x2="67.3582" y2="137.916" gradientTransform="matrix(-1 0 0 -1 361.3333 473.5238)">
						<stop  offset="0" style="stop-color:#3D8B67"/>
						<stop  offset="1" style="stop-color:#9AD032"/>
					</linearGradient>
					<path class="st17" d="M305.8,335.6c0-3.3-2.6-5.9-5.9-5.9c-3.3,0-5.9,2.6-5.9,5.9c0,3.3,2.6,5.9,5.9,5.9
						C303.2,341.5,305.8,338.9,305.8,335.6z"/>
				</g>
			</g>
		</g>
		<g>
			
				<ellipse transform="matrix(0.7071 -0.7071 0.7071 0.7071 -80.8608 351.4929)" class="st18" cx="383.9" cy="273.4" rx="85.1" ry="85.1"/>
		</g>
		<g>
			<path class="st19" d="M381.6,359.7c-0.7,0-1.2-0.6-1.2-1.3l0,0c0-0.7,0.6-1.2,1.3-1.2l0,0c0.7,0,1.2,0.6,1.2,1.3l0,0
				C382.9,359.1,382.3,359.7,381.6,359.7L381.6,359.7C381.7,359.7,381.6,359.7,381.6,359.7z M387.4,358.4c0-0.7,0.5-1.3,1.2-1.3l0,0
				c0.7,0,1.3,0.5,1.3,1.2l0,0c0,0.7-0.5,1.3-1.2,1.3l0,0c0,0,0,0-0.1,0l0,0C388,359.6,387.5,359,387.4,358.4z M374.5,359.2
				c-0.7-0.1-1.2-0.7-1.1-1.4l0,0c0.1-0.7,0.7-1.2,1.4-1.1l0,0c0.7,0.1,1.2,0.7,1.1,1.4l0,0c-0.1,0.6-0.6,1.1-1.2,1.1l0,0
				C374.6,359.2,374.6,359.2,374.5,359.2z M394.5,357.8c-0.1-0.7,0.4-1.3,1.1-1.4l0,0c0.7-0.1,1.3,0.4,1.4,1.1l0,0
				c0.1,0.7-0.4,1.3-1.1,1.4l0,0c-0.1,0-0.1,0-0.2,0l0,0C395.1,358.9,394.5,358.4,394.5,357.8z M367.5,358.1c-0.7-0.1-1.1-0.8-1-1.5
				l0,0c0.1-0.7,0.8-1.1,1.5-1l0,0c0.7,0.1,1.1,0.8,1,1.5l0,0c-0.1,0.6-0.6,1-1.2,1l0,0C367.6,358.2,367.5,358.2,367.5,358.1z
				 M401.4,356.6c-0.2-0.7,0.3-1.3,1-1.5l0,0c0.7-0.2,1.3,0.3,1.5,1l0,0c0.2,0.7-0.3,1.3-0.9,1.5l0,0l0,0l0,0c-0.1,0-0.2,0-0.3,0
				l0,0C402,357.6,401.5,357.2,401.4,356.6z M360.5,356.5c-0.7-0.2-1-0.9-0.9-1.5l0,0c0.2-0.7,0.9-1.1,1.5-0.9l0,0
				c0.7,0.2,1,0.9,0.9,1.5l0,0c-0.2,0.5-0.7,0.9-1.2,0.9l0,0C360.7,356.5,360.6,356.5,360.5,356.5z M408.2,354.9
				c-0.2-0.7,0.2-1.4,0.8-1.6l0,0c0.7-0.2,1.4,0.2,1.6,0.8l0,0c0.2,0.7-0.2,1.4-0.8,1.6l0,0c-0.1,0-0.3,0-0.4,0l0,0
				C408.9,355.8,408.4,355.5,408.2,354.9z M353.7,354.3C353.7,354.3,353.7,354.3,353.7,354.3L353.7,354.3c-0.6-0.2-1-1-0.7-1.6l0,0
				c0.2-0.7,1-1,1.6-0.7l0,0c0.6,0.2,1,1,0.7,1.6l0,0c-0.2,0.5-0.7,0.8-1.2,0.8l0,0C354,354.4,353.9,354.3,353.7,354.3z
				 M414.9,352.6c-0.3-0.6,0-1.4,0.7-1.6l0,0c0.6-0.3,1.4,0.1,1.6,0.7l0,0c0.3,0.6,0,1.4-0.7,1.6l0,0c-0.2,0.1-0.3,0.1-0.5,0.1l0,0
				C415.5,353.4,415,353.1,414.9,352.6z M347.1,351.5c-0.6-0.3-0.9-1-0.6-1.7l0,0c0.3-0.6,1-0.9,1.7-0.6l0,0c0.6,0.3,0.9,1,0.6,1.7
				l0,0c-0.2,0.5-0.7,0.7-1.1,0.7l0,0C347.5,351.6,347.3,351.6,347.1,351.5z M421.3,349.8c-0.3-0.6-0.1-1.4,0.6-1.7l0,0
				c0.6-0.3,1.4-0.1,1.7,0.5l0,0c0.3,0.6,0.1,1.4-0.5,1.7l0,0l0,0l0,0c-0.2,0.1-0.4,0.1-0.6,0.1l0,0
				C421.9,350.5,421.5,350.2,421.3,349.8z M340.8,348.2c-0.6-0.4-0.8-1.1-0.5-1.7l0,0c0.3-0.6,1.1-0.8,1.7-0.5l0,0
				c0.6,0.3,0.8,1.1,0.5,1.7l0,0c-0.2,0.4-0.6,0.6-1.1,0.6l0,0C341.2,348.4,341,348.3,340.8,348.2z M427.5,346.5
				c-0.4-0.6-0.2-1.4,0.4-1.7l0,0c0.6-0.4,1.4-0.2,1.7,0.4l0,0c0.4,0.6,0.2,1.4-0.4,1.7l0,0c-0.2,0.1-0.4,0.2-0.7,0.2l0,0
				C428.1,347,427.7,346.8,427.5,346.5z M334.8,344.4c-0.6-0.4-0.7-1.2-0.3-1.7l0,0c0.4-0.6,1.2-0.7,1.7-0.3l0,0
				c0.6,0.4,0.7,1.2,0.3,1.7l0,0c-0.2,0.3-0.6,0.5-1,0.5l0,0C335.3,344.6,335,344.6,334.8,344.4z M433.3,342.6
				c-0.4-0.6-0.3-1.3,0.3-1.8l0,0c0.6-0.4,1.3-0.3,1.8,0.3l0,0c0.4,0.5,0.3,1.3-0.3,1.8l0,0c-0.2,0.2-0.5,0.2-0.7,0.2l0,0
				C434,343.1,433.6,342.9,433.3,342.6z M329.1,340.1L329.1,340.1L329.1,340.1c-0.5-0.4-0.6-1.2-0.2-1.8l0,0
				c0.4-0.5,1.2-0.6,1.8-0.2h0c0.5,0.4,0.6,1.2,0.2,1.8l0,0c-0.3,0.3-0.6,0.5-1,0.5l0,0C329.6,340.4,329.3,340.3,329.1,340.1z
				 M438.9,338.3c-0.5-0.5-0.4-1.3,0.1-1.8l0,0c0.5-0.4,1.3-0.4,1.8,0.1l0,0c0.5,0.5,0.4,1.3-0.1,1.8l0,0c-0.2,0.2-0.5,0.3-0.8,0.3
				l0,0C439.5,338.7,439.1,338.6,438.9,338.3z M323.8,335.4c-0.5-0.5-0.5-1.3,0-1.8l0,0c0.5-0.5,1.3-0.5,1.8,0l0,0
				c0.5,0.5,0.5,1.3,0,1.8l0,0c-0.2,0.3-0.6,0.4-0.9,0.4l0,0C324.3,335.7,324,335.6,323.8,335.4z M444.1,333.5
				c-0.5-0.5-0.5-1.3,0-1.8v0c0.5-0.5,1.3-0.5,1.8,0l0,0c0.5,0.5,0.5,1.3,0,1.8l0,0c0,0,0,0,0,0l0,0c-0.3,0.3-0.6,0.4-0.9,0.4l0,0
				C444.6,333.9,444.3,333.7,444.1,333.5z M318.9,330.2L318.9,330.2L318.9,330.2c-0.5-0.5-0.4-1.3,0.1-1.8l0,0
				c0.5-0.5,1.3-0.4,1.8,0.1l0,0c0.5,0.5,0.4,1.3-0.1,1.8l0,0c-0.2,0.2-0.5,0.3-0.8,0.3l0,0C319.4,330.6,319.1,330.5,318.9,330.2z
				 M448.8,328.3c-0.5-0.4-0.6-1.2-0.2-1.8l0,0c0.4-0.5,1.2-0.6,1.8-0.2l0,0c0.5,0.4,0.6,1.2,0.2,1.8l0,0l0,0l0,0
				c-0.3,0.3-0.6,0.5-1,0.5l0,0C449.3,328.6,449.1,328.5,448.8,328.3z M314.4,324.6c-0.4-0.6-0.3-1.3,0.3-1.8l0,0
				c0.5-0.4,1.3-0.3,1.8,0.3l0,0c0.4,0.6,0.3,1.3-0.3,1.8l0,0c-0.2,0.2-0.5,0.3-0.7,0.3l0,0C315,325.1,314.6,325,314.4,324.6z
				 M453.1,322.8c-0.6-0.4-0.7-1.2-0.3-1.7l0,0c0.4-0.6,1.2-0.7,1.7-0.3l0,0c0.6,0.4,0.7,1.2,0.3,1.7l0,0c-0.2,0.4-0.6,0.5-1,0.5
				l0,0C453.6,323,453.4,322.9,453.1,322.8z M310.4,318.7L310.4,318.7L310.4,318.7c-0.4-0.6-0.2-1.3,0.4-1.7l0,0
				c0.6-0.4,1.4-0.2,1.7,0.4h0c0.4,0.6,0.2,1.4-0.4,1.7l0,0c-0.2,0.1-0.4,0.2-0.7,0.2l0,0C311,319.3,310.6,319.1,310.4,318.7z
				 M457,316.9c-0.6-0.3-0.8-1.1-0.4-1.7v0c0.3-0.6,1.1-0.8,1.7-0.5l0,0c0.6,0.3,0.8,1.1,0.5,1.7l0,0c-0.2,0.4-0.6,0.6-1.1,0.6l0,0
				C457.4,317.1,457.2,317,457,316.9z M306.9,312.5L306.9,312.5L306.9,312.5c-0.3-0.6-0.1-1.4,0.5-1.7l0,0c0.6-0.3,1.4-0.1,1.7,0.5
				l0,0c0.3,0.6,0.1,1.4-0.5,1.7l0,0c-0.2,0.1-0.4,0.1-0.6,0.1l0,0C307.5,313.2,307.1,312.9,306.9,312.5z M460.4,310.7
				c-0.6-0.3-0.9-1-0.6-1.7l0,0c0.3-0.6,1-0.9,1.7-0.6l0,0c0.6,0.3,0.9,1,0.6,1.7l0,0l0,0l0,0c-0.2,0.5-0.7,0.7-1.1,0.7l0,0
				C460.7,310.8,460.5,310.8,460.4,310.7z M303.9,306c-0.3-0.6,0-1.4,0.7-1.6l0,0c0.6-0.3,1.4,0,1.6,0.7l0,0c0.3,0.6,0,1.4-0.7,1.6
				l0,0c-0.2,0.1-0.3,0.1-0.5,0.1l0,0C304.6,306.8,304.1,306.5,303.9,306z M463.2,304.3c-0.6-0.2-1-1-0.7-1.6l0,0
				c0.2-0.6,1-1,1.6-0.7l0,0c0.6,0.2,1,1,0.7,1.6l0,0l0,0l0,0c-0.2,0.5-0.7,0.8-1.2,0.8l0,0C463.5,304.3,463.3,304.3,463.2,304.3z
				 M301.5,299.3c-0.2-0.7,0.2-1.4,0.8-1.6l0,0c0.7-0.2,1.4,0.2,1.6,0.8l0,0c0.2,0.6-0.2,1.4-0.8,1.6l0,0c-0.1,0-0.3,0.1-0.4,0.1
				l0,0C302.1,300.2,301.7,299.8,301.5,299.3z M465.5,297.6c-0.7-0.2-1-0.9-0.9-1.5l0,0c0.2-0.7,0.9-1.1,1.5-0.9l0,0
				c0.7,0.2,1,0.9,0.9,1.5l0,0l0,0l0,0c-0.1,0.5-0.6,0.9-1.2,0.9l0,0C465.7,297.7,465.6,297.6,465.5,297.6z M299.6,292.4
				c-0.2-0.7,0.3-1.3,0.9-1.5l0,0c0.7-0.1,1.3,0.3,1.5,1l0,0c0.2,0.7-0.3,1.3-0.9,1.5l0,0c-0.1,0-0.2,0-0.3,0l0,0
				C300.3,293.4,299.8,293,299.6,292.4z M467.2,290.8c-0.7-0.1-1.1-0.8-1-1.5l0,0c0.1-0.7,0.8-1.1,1.5-1l0,0c0.7,0.1,1.1,0.8,1,1.5
				l0,0l0,0l0,0c-0.1,0.6-0.6,1-1.2,1l0,0C467.3,290.8,467.3,290.8,467.2,290.8z M298.3,285.4C298.3,285.4,298.3,285.4,298.3,285.4
				L298.3,285.4c-0.1-0.7,0.4-1.3,1.1-1.4l0,0c0.7-0.1,1.3,0.4,1.4,1.1l0,0c0.1,0.7-0.4,1.3-1.1,1.4l0,0c-0.1,0-0.1,0-0.2,0l0,0
				C299,286.5,298.4,286,298.3,285.4z M468.3,283.9c-0.7-0.1-1.2-0.7-1.1-1.4l0,0c0.1-0.7,0.7-1.2,1.4-1.1l0,0
				c0.7,0.1,1.2,0.7,1.1,1.4l0,0c-0.1,0.6-0.6,1.1-1.2,1.1l0,0C468.4,283.9,468.4,283.9,468.3,283.9z M297.7,278.3
				c0-0.7,0.5-1.3,1.2-1.3l0,0c0.7,0,1.3,0.5,1.3,1.2l0,0c0,0.7-0.5,1.3-1.2,1.3l0,0c0,0,0,0-0.1,0l0,0
				C298.2,279.5,297.7,279,297.7,278.3z M468.9,276.9c-0.7,0-1.2-0.6-1.2-1.3l0,0c0,0,0-0.1,0-0.1l0,0c0,0,0-0.1,0-0.1l0,0
				c0-0.7,0.6-1.2,1.3-1.2l0,0c0.7,0,1.2,0.6,1.2,1.3l0,0c0,0,0,0.1,0,0.1l0,0c0,0,0,0.1,0,0.1l0,0l0,0l0,0
				C470.2,276.3,469.6,276.9,468.9,276.9L468.9,276.9C468.9,276.9,468.9,276.9,468.9,276.9z M298.8,272.5c-0.7,0-1.2-0.6-1.2-1.3
				l0,0c0-0.7,0.6-1.2,1.3-1.2l0,0c0.7,0,1.2,0.6,1.2,1.3l0,0C300,271.9,299.5,272.5,298.8,272.5L298.8,272.5
				C298.8,272.5,298.8,272.5,298.8,272.5z M467.6,268.4c0-0.7,0.5-1.3,1.2-1.3l0,0c0.7,0,1.3,0.5,1.3,1.2l0,0c0,0.7-0.5,1.3-1.2,1.3
				l0,0c0,0,0,0-0.1,0l0,0C468.2,269.6,467.6,269.1,467.6,268.4z M299.1,265.4c-0.7-0.1-1.2-0.7-1.1-1.4l0,0
				c0.1-0.7,0.7-1.2,1.4-1.1l0,0c0.7,0.1,1.2,0.7,1.1,1.4l0,0c-0.1,0.6-0.6,1.1-1.2,1.1l0,0C299.2,265.4,299.2,265.4,299.1,265.4z
				 M466.9,261.6c-0.1-0.7,0.4-1.3,1.1-1.4l0,0c0.7-0.1,1.3,0.4,1.4,1.1l0,0c0.1,0.7-0.4,1.3-1.1,1.4l0,0c-0.1,0-0.1,0-0.2,0l0,0
				C467.5,262.6,467,262.2,466.9,261.6z M300.1,258.5c-0.7-0.1-1.1-0.8-1-1.5l0,0c0.1-0.7,0.8-1.1,1.5-1l0,0c0.7,0.1,1.1,0.8,1,1.5
				l0,0c-0.1,0.6-0.6,1-1.2,1l0,0C300.2,258.5,300.1,258.5,300.1,258.5z M465.6,254.7L465.6,254.7c-0.2-0.7,0.3-1.3,0.9-1.5l0,0
				c0.7-0.1,1.3,0.3,1.5,0.9l0,0l0,0l0,0c0.2,0.7-0.3,1.4-0.9,1.5l0,0c-0.1,0-0.2,0-0.3,0l0,0C466.3,255.7,465.8,255.3,465.6,254.7z
				 M301.6,251.6c-0.7-0.2-1-0.9-0.9-1.5l0,0c0,0,0,0,0,0l0,0c0.2-0.7,0.9-1,1.5-0.9l0,0c0.7,0.2,1.1,0.9,0.9,1.5l0,0
				c-0.2,0.6-0.7,0.9-1.2,0.9l0,0C301.8,251.6,301.7,251.6,301.6,251.6z M463.8,248.1c-0.2-0.7,0.2-1.4,0.8-1.6l0,0
				c0.7-0.2,1.4,0.2,1.6,0.8l0,0c0.2,0.7-0.2,1.4-0.8,1.6l0,0c-0.1,0-0.3,0-0.4,0l0,0C464.5,248.9,464,248.6,463.8,248.1z
				 M303.6,244.9c-0.7-0.2-1-1-0.7-1.6l0,0c0,0,0,0,0,0l0,0c0.2-0.6,1-1,1.6-0.7l0,0c0.6,0.2,1,1,0.7,1.6l0,0
				c-0.2,0.5-0.7,0.8-1.2,0.8l0,0C303.9,245,303.8,244.9,303.6,244.9z M461.5,241.5c-0.3-0.6,0-1.4,0.7-1.6l0,0
				c0.6-0.3,1.4,0,1.6,0.7l0,0c0.3,0.6,0,1.4-0.7,1.6l0,0c-0.2,0.1-0.3,0.1-0.5,0.1l0,0C462.1,242.3,461.7,242,461.5,241.5z
				 M306.3,238.3c-0.6-0.3-0.9-1-0.6-1.7l0,0c0.3-0.6,1-0.9,1.7-0.6l0,0c0.6,0.3,0.9,1,0.6,1.7l0,0c-0.2,0.5-0.7,0.7-1.1,0.7l0,0
				C306.6,238.5,306.4,238.4,306.3,238.3z M458.6,235.3c-0.3-0.6-0.1-1.4,0.5-1.7l0,0c0.6-0.3,1.4-0.1,1.7,0.6l0,0
				c0.3,0.6,0.1,1.4-0.6,1.7l0,0c-0.2,0.1-0.4,0.1-0.6,0.1l0,0C459.2,235.9,458.8,235.7,458.6,235.3z M309.4,232.1
				c-0.6-0.4-0.8-1.1-0.5-1.7l0,0l0,0l0,0c0.3-0.6,1.1-0.8,1.7-0.5l0,0c0.6,0.3,0.8,1.1,0.5,1.7l0,0c-0.2,0.4-0.7,0.6-1.1,0.6l0,0
				C309.8,232.2,309.6,232.2,309.4,232.1z M455.2,229.2c-0.4-0.6-0.2-1.4,0.4-1.7l0,0c0.6-0.4,1.4-0.2,1.7,0.4l0,0l0,0l0,0
				c0.4,0.6,0.2,1.4-0.4,1.7l0,0c-0.2,0.1-0.4,0.2-0.7,0.2l0,0C455.8,229.8,455.4,229.6,455.2,229.2z M313.1,226.1
				c-0.6-0.4-0.7-1.2-0.3-1.7l0,0c0.4-0.6,1.2-0.7,1.7-0.3l0,0c0.6,0.4,0.7,1.2,0.3,1.7l0,0c-0.2,0.4-0.6,0.5-1,0.5l0,0
				C313.6,226.3,313.3,226.2,313.1,226.1z M451.3,223.5c-0.4-0.6-0.3-1.3,0.3-1.8l0,0c0.6-0.4,1.3-0.3,1.8,0.3l0,0l0,0l0,0
				c0.4,0.5,0.3,1.3-0.3,1.8l0,0c-0.2,0.2-0.5,0.2-0.8,0.2l0,0C451.9,224,451.5,223.8,451.3,223.5z M317.2,220.4
				c-0.5-0.4-0.6-1.2-0.2-1.8l0,0l0,0l0,0c0.4-0.5,1.2-0.6,1.8-0.2l0,0c0.5,0.4,0.6,1.2,0.2,1.8h0c-0.3,0.3-0.6,0.5-1,0.5l0,0
				C317.8,220.7,317.5,220.6,317.2,220.4z M446.9,218.1L446.9,218.1c-0.5-0.5-0.4-1.3,0.1-1.8l0,0c0.5-0.5,1.3-0.4,1.8,0.1l0,0l0,0
				l0,0c0.5,0.5,0.4,1.3-0.1,1.8l0,0c-0.2,0.2-0.5,0.3-0.8,0.3l0,0C447.5,218.5,447.2,218.4,446.9,218.1z M321.9,215.1
				c-0.5-0.5-0.5-1.3,0-1.8l0,0c0.5-0.5,1.3-0.5,1.8,0l0,0c0.5,0.5,0.5,1.3,0,1.8l0,0c-0.3,0.3-0.6,0.4-0.9,0.4l0,0
				C322.4,215.4,322.1,215.3,321.9,215.1z M442.1,213.1c-0.5-0.5-0.5-1.3,0-1.8l0,0c0.5-0.5,1.3-0.5,1.8,0l0,0
				c0.5,0.5,0.5,1.3,0,1.8l0,0c-0.3,0.3-0.6,0.4-0.9,0.4l0,0C442.7,213.4,442.4,213.3,442.1,213.1z M326.9,210.1
				c-0.5-0.5-0.4-1.3,0.1-1.8l0,0c0.5-0.5,1.3-0.4,1.8,0.1l0,0c0.5,0.5,0.4,1.3-0.1,1.8l0,0c-0.2,0.2-0.5,0.3-0.8,0.3l0,0
				C327.5,210.6,327.1,210.4,326.9,210.1z M437,208.5c-0.5-0.4-0.6-1.2-0.2-1.8l0,0c0.4-0.5,1.2-0.6,1.8-0.2l0,0
				c0.5,0.4,0.6,1.2,0.2,1.8l0,0c-0.2,0.3-0.6,0.5-1,0.5l0,0C437.5,208.8,437.2,208.7,437,208.5z M332.3,205.7
				c-0.4-0.6-0.3-1.3,0.3-1.8l0,0c0.5-0.4,1.3-0.3,1.7,0.3l0,0c0.4,0.6,0.3,1.3-0.3,1.8l0,0c-0.2,0.2-0.5,0.3-0.7,0.3l0,0
				C332.9,206.2,332.5,206,332.3,205.7z M431.4,204.3L431.4,204.3c-0.6-0.4-0.7-1.2-0.3-1.7l0,0c0.4-0.6,1.2-0.7,1.7-0.3l0,0
				c0.6,0.4,0.7,1.2,0.3,1.7l0,0c-0.2,0.4-0.6,0.5-1,0.5l0,0C431.9,204.5,431.7,204.5,431.4,204.3z M338.1,201.6
				c-0.4-0.6-0.2-1.4,0.4-1.7l0,0c0.6-0.4,1.4-0.2,1.7,0.4l0,0c0.4,0.6,0.2,1.4-0.4,1.7l0,0c-0.2,0.1-0.4,0.2-0.7,0.2l0,0
				C338.7,202.2,338.3,202,338.1,201.6z M425.6,200.6c-0.6-0.4-0.8-1.1-0.5-1.7l0,0c0.3-0.6,1.1-0.8,1.7-0.5l0,0
				c0.6,0.3,0.8,1.1,0.5,1.7l0,0c-0.2,0.4-0.7,0.6-1.1,0.6l0,0C426,200.8,425.8,200.7,425.6,200.6z M344.1,198.1
				c-0.3-0.6-0.1-1.4,0.5-1.7l0,0c0.6-0.3,1.4-0.1,1.7,0.5l0,0c0.3,0.6,0.1,1.4-0.5,1.7l0,0c-0.2,0.1-0.4,0.1-0.6,0.1l0,0
				C344.8,198.8,344.3,198.5,344.1,198.1z M419.4,197.4L419.4,197.4c-0.6-0.3-0.9-1-0.6-1.7l0,0c0.3-0.6,1-0.9,1.7-0.6l0,0
				c0,0,0,0,0,0l0,0c0.6,0.3,0.9,1,0.6,1.7l0,0c-0.2,0.5-0.7,0.7-1.1,0.7l0,0C419.8,197.5,419.6,197.5,419.4,197.4z M350.5,195.1
				c-0.3-0.6,0-1.4,0.7-1.6l0,0l0,0l0,0c0.6-0.3,1.4,0,1.6,0.7l0,0c0.3,0.6,0,1.4-0.7,1.6l0,0c-0.2,0.1-0.3,0.1-0.5,0.1l0,0
				C351.1,195.8,350.7,195.5,350.5,195.1z M413,194.7c-0.6-0.2-1-1-0.7-1.6l0,0c0.2-0.6,1-1,1.6-0.7l0,0c0.6,0.2,1,1,0.7,1.6l0,0
				c-0.2,0.5-0.7,0.8-1.2,0.8l0,0C413.3,194.8,413.2,194.8,413,194.7z M357,192.6c-0.2-0.7,0.1-1.4,0.8-1.6l0,0
				c0.7-0.2,1.4,0.2,1.6,0.8l0,0c0.2,0.7-0.2,1.4-0.8,1.6l0,0c-0.1,0-0.3,0-0.4,0l0,0C357.7,193.4,357.2,193.1,357,192.6z
				 M406.4,192.6L406.4,192.6c-0.7-0.2-1.1-0.9-0.9-1.5l0,0c0.2-0.7,0.9-1.1,1.5-0.9l0,0c0.7,0.2,1.1,0.9,0.9,1.5l0,0
				c-0.2,0.6-0.7,0.9-1.2,0.9l0,0C406.7,192.6,406.6,192.6,406.4,192.6z M363.8,190.6c-0.2-0.7,0.3-1.3,0.9-1.5l0,0
				c0.7-0.1,1.3,0.3,1.5,0.9l0,0c0.2,0.7-0.3,1.3-0.9,1.5l0,0c-0.1,0-0.2,0-0.3,0l0,0C364.4,191.6,363.9,191.2,363.8,190.6z
				 M399.7,191c-0.7-0.1-1.1-0.8-1-1.5l0,0c0.1-0.7,0.8-1.1,1.5-1l0,0l0,0l0,0c0.7,0.1,1.1,0.8,1,1.5l0,0c-0.1,0.6-0.6,1-1.2,1l0,0
				C399.9,191,399.8,191,399.7,191z M370.7,189.3c-0.1-0.7,0.4-1.3,1.1-1.4l0,0c0.7-0.1,1.3,0.4,1.4,1.1l0,0
				c0.1,0.7-0.4,1.3-1.1,1.4l0,0c-0.1,0-0.1,0-0.2,0l0,0C371.3,190.3,370.8,189.9,370.7,189.3z M392.8,190L392.8,190
				c-0.7-0.1-1.2-0.7-1.1-1.4l0,0c0.1-0.7,0.7-1.2,1.4-1.1l0,0c0.7,0.1,1.2,0.7,1.1,1.4l0,0c-0.1,0.6-0.6,1.1-1.2,1.1l0,0
				C392.9,190,392.9,190,392.8,190z M377.7,188.5c0-0.7,0.5-1.3,1.2-1.3l0,0l0,0l0,0c0.7,0,1.3,0.5,1.3,1.2l0,0
				c0,0.7-0.5,1.3-1.2,1.3l0,0c0,0-0.1,0-0.1,0l0,0C378.3,189.6,377.7,189.1,377.7,188.5z M385.9,189.5c-0.7,0-1.2-0.6-1.2-1.3l0,0
				c0-0.7,0.6-1.2,1.3-1.2l0,0c0.7,0,1.2,0.6,1.2,1.3l0,0C387.2,189,386.6,189.5,385.9,189.5L385.9,189.5
				C386,189.5,385.9,189.5,385.9,189.5z"/>
		</g>
		<g>
			<g class="st1">
				<circle class="st20" cx="383.9" cy="278.4" r="77"/>
			</g>
			<g>
				<circle class="st18" cx="383.9" cy="273.4" r="77"/>
			</g>
		</g>
		<g>
			<circle class="st19" cx="383.9" cy="273.4" r="69.5"/>
		</g>
		<g>
			<line class="st0" x1="386.4" y1="160.6" x2="386.4" y2="187.5"/>
			<g>
				<g class="st1">
					<path class="st2" d="M460.2,92.3c0,40.7-33,73.8-73.8,73.8c-40.7,0-73.8-33-73.8-73.8"/>
				</g>
				<g>
					<path class="st3" d="M460.2,88.3c0,40.7-33,73.8-73.8,73.8c-40.7,0-73.8-33-73.8-73.8"/>
				</g>
			</g>
			<g>
				
					<linearGradient id="SVGID_13_" gradientUnits="userSpaceOnUse" x1="-170.8775" y1="108.8461" x2="-92.1135" y2="108.8461" gradientTransform="matrix(0 1 -1 0 495.2845 180.4297)">
					<stop  offset="5.079873e-07" style="stop-color:#A14093"/>
					<stop  offset="1" style="stop-color:#5398D4"/>
				</linearGradient>
				<path class="st21" d="M312.7,88.3c0-40.7,33-73.8,73.8-73.8c40.7,0,73.8,33,73.8,73.8"/>
			</g>
			<g>
				<g class="st10">
					<path class="st11" d="M389.4,159.9c-3.3,0-5.9,2.6-5.9,5.9c0,3.3,2.6,5.9,5.9,5.9c3.3,0,5.9-2.6,5.9-5.9
						C395.4,162.6,392.7,159.9,389.4,159.9z"/>
				</g>
				<g>
					<linearGradient id="SVGID_14_" gradientUnits="userSpaceOnUse" x1="373.3548" y1="138.4254" x2="403.0691" y2="191.5683">
						<stop  offset="5.079873e-07" style="stop-color:#A14093"/>
						<stop  offset="1" style="stop-color:#5398D4"/>
					</linearGradient>
					<path class="st22" d="M386.4,155.9c-3.3,0-5.9,2.6-5.9,5.9c0,3.3,2.6,5.9,5.9,5.9c3.3,0,5.9-2.6,5.9-5.9
						C392.4,158.6,389.7,155.9,386.4,155.9z"/>
				</g>
			</g>
		</g>
		<g>
			<line class="st0" x1="381.7" y1="384.8" x2="381.7" y2="357.9"/>
			<g>
				<g class="st1">
					<path class="st2" d="M307.9,461.1c0-40.7,33-73.8,73.8-73.8c40.7,0,73.8,33,73.8,73.8"/>
				</g>
				<g>
					<path class="st3" d="M307.9,457.1c0-40.7,33-73.8,73.8-73.8c40.7,0,73.8,33,73.8,73.8"/>
				</g>
			</g>
			<g>
				
					<linearGradient id="SVGID_15_" gradientUnits="userSpaceOnUse" x1="176.0047" y1="159.3862" x2="254.7687" y2="159.3862" gradientTransform="matrix(0 -1 1 0 222.2749 711.8811)">
					<stop  offset="5.079873e-07" style="stop-color:#CA5735"/>
					<stop  offset="1" style="stop-color:#FFDD20"/>
				</linearGradient>
				<path class="st23" d="M455.4,457.1c0,40.7-33,73.8-73.8,73.8c-40.7,0-73.8-33-73.8-73.8"/>
			</g>
			<g>
				<g class="st10">
					<path class="st11" d="M384.7,393.5c3.3,0,5.9-2.6,5.9-5.9c0-3.3-2.6-5.9-5.9-5.9c-3.3,0-5.9,2.6-5.9,5.9
						C378.7,390.9,381.4,393.5,384.7,393.5z"/>
				</g>
				<g>
					<linearGradient id="SVGID_16_" gradientUnits="userSpaceOnUse" x1="375.4207" y1="372.8444" x2="387.8492" y2="394.2729">
						<stop  offset="5.079873e-07" style="stop-color:#CA5735"/>
						<stop  offset="1" style="stop-color:#FFDD20"/>
					</linearGradient>
					<path class="st24" d="M381.7,389.5c3.3,0,5.9-2.6,5.9-5.9c0-3.3-2.6-5.9-5.9-5.9c-3.3,0-5.9,2.6-5.9,5.9
						C375.7,386.9,378.4,389.5,381.7,389.5z"/>
				</g>
			</g>
		</g>
		<g>
			<g>
				<path d="M208.6,177.1c0.6,0.4,1.5,0.7,2.4,0.7c1.3,0,2.1-0.7,2.1-1.7c0-1-0.5-1.5-1.9-2c-1.7-0.6-2.7-1.5-2.7-2.9
					c0-1.6,1.3-2.8,3.3-2.8c1,0,1.8,0.2,2.3,0.5l-0.4,1.1c-0.3-0.2-1-0.5-1.9-0.5c-1.4,0-1.9,0.8-1.9,1.5c0,1,0.6,1.4,2,2
					c1.7,0.7,2.6,1.5,2.6,3c0,1.6-1.2,2.9-3.6,2.9c-1,0-2.1-0.3-2.6-0.7L208.6,177.1z"/>
				<path d="M217.9,175.4l-1.1,3.2h-1.4l3.5-10.2h1.6l3.5,10.2h-1.4l-1.1-3.2H217.9z M221.3,174.4l-1-2.9c-0.2-0.7-0.4-1.3-0.5-1.9
					h0c-0.2,0.6-0.3,1.2-0.5,1.8l-1,3H221.3z"/>
				<path d="M225.5,168.4h1.3v9.1h4.4v1.1h-5.7V168.4z"/>
				<path d="M238,173.9h-4v3.7h4.4v1.1h-5.7v-10.2h5.5v1.1H234v3.2h4V173.9z"/>
				<path d="M240,177.1c0.6,0.4,1.5,0.7,2.4,0.7c1.3,0,2.1-0.7,2.1-1.7c0-1-0.5-1.5-1.9-2c-1.7-0.6-2.7-1.5-2.7-2.9
					c0-1.6,1.3-2.8,3.3-2.8c1,0,1.8,0.2,2.3,0.5l-0.4,1.1c-0.3-0.2-1-0.5-1.9-0.5c-1.4,0-1.9,0.8-1.9,1.5c0,1,0.6,1.4,2,2
					c1.7,0.7,2.6,1.5,2.6,3c0,1.6-1.2,2.9-3.6,2.9c-1,0-2.1-0.3-2.6-0.7L240,177.1z"/>
				<path d="M257.2,178.7c-0.3-0.3-0.6-0.6-1-1c-0.9,0.8-1.9,1.2-3,1.2c-2,0-3.1-1.3-3.1-2.9c0-1.4,0.8-2.3,2-3v0
					c-0.5-0.7-0.8-1.4-0.8-2.1c0-1.2,0.9-2.5,2.6-2.5c1.3,0,2.3,0.8,2.3,2.2c0,1.1-0.6,1.9-2.2,2.7v0c0.9,1,1.8,2.1,2.5,2.8
					c0.5-0.7,0.8-1.7,1-3h1.2c-0.3,1.6-0.7,2.9-1.5,3.8c0.5,0.6,1.1,1.2,1.7,1.8H257.2z M255.6,176.9c-0.6-0.7-1.7-1.9-2.9-3.2
					c-0.5,0.3-1.3,1-1.3,2.1c0,1.2,0.9,2.1,2.1,2.1C254.4,177.8,255.1,177.4,255.6,176.9z M252.5,170.7c0,0.7,0.3,1.3,0.8,1.8
					c1-0.6,1.7-1.1,1.7-2c0-0.6-0.3-1.3-1.2-1.3C253,169.2,252.5,169.9,252.5,170.7z"/>
				<path d="M191,186.8c0.8-0.1,1.8-0.2,2.8-0.2c1.9,0,3.2,0.4,4.1,1.3c0.9,0.8,1.4,2,1.4,3.7c0,1.7-0.5,3-1.5,4
					c-1,1-2.5,1.5-4.5,1.5c-0.9,0-1.7,0-2.4-0.1V186.8z M192.3,195.8c0.3,0.1,0.8,0.1,1.3,0.1c2.8,0,4.3-1.6,4.3-4.3
					c0-2.4-1.3-3.9-4.1-3.9c-0.7,0-1.2,0.1-1.5,0.1V195.8z"/>
				<path d="M202.4,186.6v10.2h-1.3v-10.2H202.4z"/>
				<path d="M204.5,195.2c0.6,0.4,1.5,0.7,2.4,0.7c1.3,0,2.1-0.7,2.1-1.7c0-1-0.5-1.5-1.9-2c-1.7-0.6-2.7-1.5-2.7-2.9
					c0-1.6,1.3-2.8,3.3-2.8c1,0,1.8,0.2,2.3,0.5l-0.4,1.1c-0.3-0.2-1-0.5-1.9-0.5c-1.4,0-1.9,0.8-1.9,1.5c0,1,0.6,1.4,2,2
					c1.7,0.7,2.6,1.5,2.6,3c0,1.6-1.2,2.9-3.6,2.9c-1,0-2.1-0.3-2.6-0.7L204.5,195.2z"/>
				<path d="M214.1,187.8H211v-1.1h7.6v1.1h-3.1v9.1h-1.3V187.8z"/>
				<path d="M219.7,186.8c0.7-0.1,1.6-0.2,2.5-0.2c1.4,0,2.3,0.3,3,0.8c0.5,0.5,0.8,1.2,0.8,1.9c0,1.3-0.8,2.2-1.9,2.6v0
					c0.8,0.3,1.3,1,1.5,2.1c0.3,1.4,0.6,2.4,0.8,2.8H225c-0.2-0.3-0.4-1.2-0.7-2.4c-0.3-1.4-0.8-1.9-2-2H221v4.4h-1.3V186.8z
					 M221,191.4h1.3c1.4,0,2.3-0.8,2.3-1.9c0-1.3-1-1.9-2.3-1.9c-0.6,0-1.1,0.1-1.3,0.1V191.4z"/>
				<path d="M229.2,186.6v10.2h-1.3v-10.2H229.2z"/>
				<path d="M231.5,186.8c0.6-0.1,1.5-0.2,2.4-0.2c1.3,0,2.2,0.2,2.8,0.7c0.5,0.4,0.8,1,0.8,1.8c0,1-0.7,1.8-1.7,2.2v0
					c1,0.2,2.1,1,2.1,2.6c0,0.9-0.3,1.5-0.9,2c-0.7,0.7-1.9,1-3.5,1c-0.9,0-1.6-0.1-2-0.1V186.8z M232.8,190.9h1.2
					c1.4,0,2.2-0.7,2.2-1.7c0-1.2-0.9-1.7-2.2-1.7c-0.6,0-1,0-1.2,0.1V190.9z M232.8,195.8c0.3,0,0.6,0.1,1.1,0.1
					c1.4,0,2.6-0.5,2.6-2c0-1.4-1.2-2-2.6-2h-1.1V195.8z"/>
				<path d="M241,186.6v6c0,2.3,1,3.3,2.4,3.3c1.5,0,2.5-1,2.5-3.3v-6h1.3v6c0,3.1-1.7,4.4-3.9,4.4c-2.1,0-3.7-1.2-3.7-4.4v-6H241z"
					/>
				<path d="M251.4,187.8h-3.1v-1.1h7.6v1.1h-3.1v9.1h-1.3V187.8z"/>
				<path d="M258.3,186.6v10.2H257v-10.2H258.3z"/>
				<path d="M269.4,191.6c0,3.5-2.1,5.4-4.7,5.4c-2.7,0-4.6-2.1-4.6-5.2c0-3.2,2-5.4,4.7-5.4C267.6,186.5,269.4,188.6,269.4,191.6z
					 M261.4,191.8c0,2.2,1.2,4.1,3.3,4.1c2.1,0,3.3-1.9,3.3-4.2c0-2-1.1-4.2-3.3-4.2C262.5,187.5,261.4,189.6,261.4,191.8z"/>
				<path d="M271.1,196.8v-10.2h1.4l3.3,5.2c0.8,1.2,1.3,2.3,1.8,3.3l0,0c-0.1-1.4-0.2-2.6-0.2-4.2v-4.3h1.2v10.2h-1.3l-3.2-5.2
					c-0.7-1.1-1.4-2.3-1.9-3.4l0,0c0.1,1.3,0.1,2.5,0.1,4.2v4.4H271.1z"/>
			</g>
		</g>
		<g>
			<g>
				<path d="M355.8,85.7V96h-1.3V85.7H355.8z"/>
				<path d="M358.2,96V85.7h1.4l3.3,5.2c0.8,1.2,1.3,2.3,1.8,3.3l0,0c-0.1-1.4-0.2-2.6-0.2-4.2v-4.3h1.2V96h-1.3l-3.2-5.2
					c-0.7-1.1-1.4-2.3-1.9-3.4l0,0c0.1,1.3,0.1,2.5,0.1,4.2V96H358.2z"/>
				<path d="M370.4,96L367,85.7h1.4l1.6,5c0.4,1.4,0.8,2.6,1.1,3.8h0c0.3-1.2,0.7-2.5,1.2-3.8l1.7-5h1.4L371.8,96H370.4z"/>
				<path d="M381.9,91.2h-4v3.7h4.4V96h-5.7V85.7h5.5v1.1h-4.2v3.2h4V91.2z"/>
				<path d="M384,85.9c0.7-0.1,1.6-0.2,2.5-0.2c1.4,0,2.3,0.3,3,0.8c0.5,0.5,0.8,1.2,0.8,1.9c0,1.3-0.8,2.2-1.9,2.6v0
					c0.8,0.3,1.3,1,1.5,2.1c0.3,1.4,0.6,2.4,0.8,2.8h-1.4c-0.2-0.3-0.4-1.2-0.7-2.4c-0.3-1.4-0.8-1.9-2-2h-1.2V96H384V85.9z
					 M385.4,90.5h1.3c1.4,0,2.3-0.8,2.3-1.9c0-1.3-1-1.9-2.3-1.9c-0.6,0-1.1,0.1-1.3,0.1V90.5z"/>
				<path d="M394.3,86.9h-3.1v-1.1h7.6v1.1h-3.1V96h-1.3V86.9z"/>
				<path d="M408.2,90.7c0,3.5-2.1,5.4-4.7,5.4c-2.7,0-4.6-2.1-4.6-5.2c0-3.2,2-5.4,4.7-5.4C406.4,85.6,408.2,87.7,408.2,90.7z
					 M400.3,90.9c0,2.2,1.2,4.1,3.3,4.1c2.1,0,3.3-1.9,3.3-4.2c0-2-1.1-4.2-3.3-4.2C401.3,86.7,400.3,88.7,400.3,90.9z"/>
				<path d="M409.9,85.9c0.7-0.1,1.6-0.2,2.5-0.2c1.4,0,2.3,0.3,3,0.8c0.5,0.5,0.8,1.2,0.8,1.9c0,1.3-0.8,2.2-1.9,2.6v0
					c0.8,0.3,1.3,1,1.5,2.1c0.3,1.4,0.6,2.4,0.8,2.8h-1.4c-0.2-0.3-0.4-1.2-0.7-2.4c-0.3-1.4-0.8-1.9-2-2h-1.2V96h-1.3V85.9z
					 M411.2,90.5h1.3c1.4,0,2.3-0.8,2.3-1.9c0-1.3-1-1.9-2.3-1.9c-0.6,0-1.1,0.1-1.3,0.1V90.5z"/>
				<path d="M420.2,96v-4.3l-3.2-5.9h1.5l1.4,2.8c0.4,0.8,0.7,1.4,1,2.1h0c0.3-0.7,0.6-1.3,1-2.1l1.5-2.8h1.5l-3.4,5.9V96H420.2z"/>
			</g>
		</g>
		<g>
			<g>
				<path d="M495.1,175.6c0.8-0.1,1.8-0.2,2.8-0.2c1.9,0,3.2,0.4,4.1,1.3c0.9,0.8,1.4,2,1.4,3.7c0,1.7-0.5,3-1.5,4
					c-1,1-2.5,1.5-4.5,1.5c-0.9,0-1.7,0-2.4-0.1V175.6z M496.4,184.6c0.3,0.1,0.8,0.1,1.3,0.1c2.8,0,4.3-1.6,4.3-4.3
					c0-2.4-1.3-3.9-4.1-3.9c-0.7,0-1.2,0.1-1.5,0.1V184.6z"/>
				<path d="M506.5,175.4v10.2h-1.3v-10.2H506.5z"/>
				<path d="M508.6,184c0.6,0.4,1.5,0.7,2.4,0.7c1.3,0,2.1-0.7,2.1-1.7c0-1-0.5-1.5-1.9-2c-1.7-0.6-2.7-1.5-2.7-2.9
					c0-1.6,1.3-2.8,3.3-2.8c1,0,1.8,0.2,2.3,0.5l-0.4,1.1c-0.3-0.2-1-0.5-1.9-0.5c-1.4,0-1.9,0.8-1.9,1.5c0,1,0.6,1.4,2,2
					c1.7,0.7,2.6,1.5,2.6,3c0,1.6-1.2,2.9-3.6,2.9c-1,0-2.1-0.3-2.6-0.7L508.6,184z"/>
				<path d="M518.2,176.5h-3.1v-1.1h7.6v1.1h-3.1v9.1h-1.3V176.5z"/>
				<path d="M523.8,175.6c0.7-0.1,1.6-0.2,2.5-0.2c1.4,0,2.3,0.3,3,0.8c0.5,0.5,0.8,1.2,0.8,1.9c0,1.3-0.8,2.2-1.9,2.6v0
					c0.8,0.3,1.3,1,1.5,2.1c0.3,1.4,0.6,2.4,0.8,2.8h-1.4c-0.2-0.3-0.4-1.2-0.7-2.4c-0.3-1.4-0.8-1.9-2-2h-1.2v4.4h-1.3V175.6z
					 M525.1,180.2h1.3c1.4,0,2.3-0.8,2.3-1.9c0-1.3-1-1.9-2.3-1.9c-0.6,0-1.1,0.1-1.3,0.1V180.2z"/>
				<path d="M533.3,175.4v10.2H532v-10.2H533.3z"/>
				<path d="M535.6,175.6c0.6-0.1,1.5-0.2,2.4-0.2c1.3,0,2.2,0.2,2.8,0.7c0.5,0.4,0.8,1,0.8,1.8c0,1-0.7,1.8-1.7,2.2v0
					c1,0.2,2.1,1,2.1,2.6c0,0.9-0.3,1.5-0.9,2c-0.7,0.7-1.9,1-3.5,1c-0.9,0-1.6-0.1-2-0.1V175.6z M536.9,179.7h1.2
					c1.4,0,2.2-0.7,2.2-1.7c0-1.2-0.9-1.7-2.2-1.7c-0.6,0-1,0-1.2,0.1V179.7z M536.9,184.6c0.3,0,0.6,0.1,1.1,0.1
					c1.4,0,2.6-0.5,2.6-2c0-1.4-1.2-2-2.6-2h-1.1V184.6z"/>
				<path d="M545.1,175.4v6c0,2.3,1,3.3,2.4,3.3c1.5,0,2.5-1,2.5-3.3v-6h1.3v6c0,3.1-1.7,4.4-3.9,4.4c-2.1,0-3.7-1.2-3.7-4.4v-6
					H545.1z"/>
				<path d="M555.6,176.5h-3.1v-1.1h7.6v1.1h-3.1v9.1h-1.3V176.5z"/>
				<path d="M562.5,175.4v10.2h-1.3v-10.2H562.5z"/>
				<path d="M573.5,180.4c0,3.5-2.1,5.4-4.7,5.4c-2.7,0-4.6-2.1-4.6-5.2c0-3.2,2-5.4,4.7-5.4C571.7,175.3,573.5,177.4,573.5,180.4z
					 M565.6,180.6c0,2.2,1.2,4.1,3.3,4.1c2.1,0,3.3-1.9,3.3-4.2c0-2-1.1-4.2-3.3-4.2C566.7,176.3,565.6,178.4,565.6,180.6z"/>
				<path d="M575.2,185.6v-10.2h1.4l3.3,5.2c0.8,1.2,1.3,2.3,1.8,3.3l0,0c-0.1-1.4-0.2-2.6-0.2-4.2v-4.3h1.2v10.2h-1.3l-3.2-5.2
					c-0.7-1.1-1.4-2.3-1.9-3.4l0,0c0.1,1.3,0.1,2.5,0.1,4.2v4.4H575.2z"/>
			</g>
		</g>
		<g>
			<g>
				<path d="M641.5,268.1c0.6-0.1,1.5-0.2,2.5-0.2c1.3,0,2.3,0.3,2.9,0.8c0.6,0.5,0.9,1.2,0.9,2.1c0,0.9-0.3,1.7-0.8,2.2
					c-0.7,0.7-1.8,1.1-3.1,1.1c-0.4,0-0.8,0-1.1-0.1v4.1h-1.3V268.1z M642.8,273.1c0.3,0.1,0.7,0.1,1.1,0.1c1.6,0,2.6-0.8,2.6-2.2
					c0-1.3-1-2-2.4-2c-0.6,0-1,0-1.2,0.1V273.1z"/>
				<path d="M650.9,268v6c0,2.3,1,3.3,2.4,3.3c1.5,0,2.5-1,2.5-3.3v-6h1.3v6c0,3.1-1.7,4.4-3.9,4.4c-2.1,0-3.7-1.2-3.7-4.4v-6H650.9
					z"/>
				<path d="M659.4,268.2c0.7-0.1,1.6-0.2,2.5-0.2c1.4,0,2.3,0.3,3,0.8c0.5,0.5,0.8,1.2,0.8,1.9c0,1.3-0.8,2.2-1.9,2.6v0
					c0.8,0.3,1.3,1,1.5,2.1c0.3,1.4,0.6,2.4,0.8,2.8h-1.4c-0.2-0.3-0.4-1.2-0.7-2.4c-0.3-1.4-0.8-1.9-2-2h-1.2v4.4h-1.3V268.2z
					 M660.7,272.8h1.3c1.4,0,2.3-0.8,2.3-1.9c0-1.3-1-1.9-2.3-1.9c-0.6,0-1.1,0.1-1.3,0.1V272.8z"/>
				<path d="M674.7,277.9c-0.5,0.2-1.5,0.5-2.7,0.5c-2.9,0-5-1.8-5-5.2c0-3.2,2.2-5.4,5.3-5.4c1.3,0,2.1,0.3,2.4,0.5l-0.3,1.1
					c-0.5-0.2-1.2-0.4-2.1-0.4c-2.4,0-4,1.5-4,4.2c0,2.5,1.4,4.1,3.9,4.1c0.8,0,1.6-0.2,2.2-0.4L674.7,277.9z"/>
				<path d="M677.7,268v4.3h4.9V268h1.3v10.2h-1.3v-4.8h-4.9v4.8h-1.3V268H677.7z"/>
				<path d="M687.9,275l-1.1,3.2h-1.4L689,268h1.6l3.5,10.2h-1.4l-1.1-3.2H687.9z M691.3,274l-1-2.9c-0.2-0.7-0.4-1.3-0.5-1.9h0
					c-0.2,0.6-0.3,1.2-0.5,1.8l-1,3H691.3z"/>
				<path d="M695.4,276.6c0.6,0.4,1.5,0.7,2.4,0.7c1.3,0,2.1-0.7,2.1-1.7c0-1-0.5-1.5-1.9-2c-1.7-0.6-2.7-1.5-2.7-2.9
					c0-1.6,1.3-2.8,3.3-2.8c1,0,1.8,0.2,2.3,0.5l-0.4,1.1c-0.3-0.2-1-0.5-1.9-0.5c-1.4,0-1.9,0.8-1.9,1.5c0,1,0.6,1.4,2,2
					c1.7,0.7,2.6,1.5,2.6,3c0,1.6-1.2,2.9-3.6,2.9c-1,0-2.1-0.3-2.6-0.7L695.4,276.6z"/>
				<path d="M704.3,268v10.2H703V268H704.3z"/>
				<path d="M706.6,278.2V268h1.4l3.3,5.2c0.8,1.2,1.3,2.3,1.8,3.3l0,0c-0.1-1.4-0.2-2.6-0.2-4.2V268h1.2v10.2H713l-3.2-5.2
					c-0.7-1.1-1.4-2.3-1.9-3.4l0,0c0.1,1.3,0.1,2.5,0.1,4.2v4.4H706.6z"/>
				<path d="M724.4,277.8c-0.6,0.2-1.8,0.6-3.1,0.6c-1.5,0-2.8-0.4-3.8-1.3c-0.9-0.8-1.4-2.2-1.4-3.8c0-3,2.1-5.3,5.5-5.3
					c1.2,0,2.1,0.3,2.5,0.5l-0.3,1.1c-0.5-0.2-1.2-0.4-2.3-0.4c-2.5,0-4.1,1.5-4.1,4.1c0,2.6,1.6,4.1,3.9,4.1c0.9,0,1.5-0.1,1.8-0.3
					v-3H721v-1.1h3.4V277.8z"/>
			</g>
		</g>
		<g>
			<g>
				<path d="M510.9,366.3h5.5v1.1h-4.2v3.4h3.9v1.1h-3.9v4.6h-1.3V366.3z"/>
				<path d="M519.6,366.3v10.2h-1.3v-10.2H519.6z"/>
				<path d="M521.9,376.5v-10.2h1.4l3.3,5.2c0.8,1.2,1.3,2.3,1.8,3.3l0,0c-0.1-1.4-0.2-2.6-0.2-4.2v-4.3h1.2v10.2h-1.3l-3.2-5.2
					c-0.7-1.1-1.4-2.3-1.9-3.4l0,0c0.1,1.3,0.1,2.5,0.1,4.2v4.4H521.9z"/>
				<path d="M533.5,373.3l-1.1,3.2h-1.4l3.5-10.2h1.6l3.5,10.2h-1.4l-1.1-3.2H533.5z M536.9,372.3l-1-2.9c-0.2-0.7-0.4-1.3-0.5-1.9
					h0c-0.2,0.6-0.3,1.2-0.5,1.8l-1,3H536.9z"/>
				<path d="M541.2,376.5v-10.2h1.4l3.3,5.2c0.8,1.2,1.3,2.3,1.8,3.3l0,0c-0.1-1.4-0.2-2.6-0.2-4.2v-4.3h1.2v10.2h-1.3l-3.2-5.2
					c-0.7-1.1-1.4-2.3-1.9-3.4l0,0c0.1,1.3,0.1,2.5,0.1,4.2v4.4H541.2z"/>
				<path d="M558.3,376.2c-0.5,0.2-1.5,0.5-2.7,0.5c-2.9,0-5-1.8-5-5.2c0-3.2,2.2-5.4,5.3-5.4c1.3,0,2.1,0.3,2.4,0.5l-0.3,1.1
					c-0.5-0.2-1.2-0.4-2.1-0.4c-2.4,0-4,1.5-4,4.2c0,2.5,1.4,4.1,3.9,4.1c0.8,0,1.6-0.2,2.2-0.4L558.3,376.2z"/>
				<path d="M565.2,371.7h-4v3.7h4.4v1.1h-5.7v-10.2h5.5v1.1h-4.2v3.2h4V371.7z"/>
			</g>
		</g>
		<g>
			<g>
				<path d="M360.8,449.8v4.3h4.9v-4.3h1.3V460h-1.3v-4.8h-4.9v4.8h-1.3v-10.2H360.8z"/>
				<path d="M370.7,449.8v6c0,2.3,1,3.3,2.4,3.3c1.5,0,2.5-1,2.5-3.3v-6h1.3v6c0,3.1-1.7,4.4-3.9,4.4c-2.1,0-3.7-1.2-3.7-4.4v-6
					H370.7z"/>
				<path d="M387.8,455.5c-0.1-1.4-0.2-3.1-0.2-4.4h0c-0.3,1.2-0.8,2.5-1.3,3.9l-1.8,5h-1l-1.7-4.9c-0.5-1.4-0.9-2.8-1.2-4h0
					c0,1.3-0.1,3-0.2,4.5l-0.3,4.4h-1.3l0.7-10.2h1.7l1.7,4.9c0.4,1.3,0.8,2.4,1,3.4h0c0.3-1,0.6-2.2,1.1-3.4l1.8-4.9h1.7l0.6,10.2
					h-1.3L387.8,455.5z"/>
				<path d="M392.9,456.8l-1.1,3.2h-1.4l3.5-10.2h1.6L399,460h-1.4l-1.1-3.2H392.9z M396.2,455.8l-1-2.9c-0.2-0.7-0.4-1.3-0.5-1.9h0
					c-0.2,0.6-0.3,1.2-0.5,1.8l-1,3H396.2z"/>
				<path d="M400.5,460v-10.2h1.4l3.3,5.2c0.8,1.2,1.3,2.3,1.8,3.3l0,0c-0.1-1.4-0.2-2.6-0.2-4.2v-4.3h1.2V460h-1.3l-3.2-5.2
					c-0.7-1.1-1.4-2.3-1.9-3.4l0,0c0.1,1.3,0.1,2.5,0.1,4.2v4.4H400.5z"/>
				<path d="M347.4,468.1c0.7-0.1,1.6-0.2,2.5-0.2c1.4,0,2.3,0.3,3,0.8c0.5,0.5,0.8,1.2,0.8,1.9c0,1.3-0.8,2.2-1.9,2.6v0
					c0.8,0.3,1.3,1,1.5,2.1c0.3,1.4,0.6,2.4,0.8,2.8h-1.4c-0.2-0.3-0.4-1.2-0.7-2.4c-0.3-1.4-0.8-1.9-2-2h-1.2v4.4h-1.3V468.1z
					 M348.7,472.8h1.3c1.4,0,2.3-0.8,2.3-1.9c0-1.3-1-1.9-2.3-1.9c-0.6,0-1.1,0.1-1.3,0.1V472.8z"/>
				<path d="M360.8,473.4h-4v3.7h4.4v1.1h-5.7V468h5.5v1.1h-4.2v3.2h4V473.4z"/>
				<path d="M362.8,476.6c0.6,0.4,1.5,0.7,2.4,0.7c1.3,0,2.1-0.7,2.1-1.7c0-1-0.5-1.5-1.9-2c-1.7-0.6-2.7-1.5-2.7-2.9
					c0-1.6,1.3-2.8,3.3-2.8c1,0,1.8,0.2,2.3,0.5l-0.4,1.1c-0.3-0.2-1-0.5-1.9-0.5c-1.4,0-1.9,0.8-1.9,1.5c0,1,0.6,1.4,2,2
					c1.7,0.7,2.6,1.5,2.6,3c0,1.6-1.2,2.9-3.6,2.9c-1,0-2.1-0.3-2.6-0.7L362.8,476.6z"/>
				<path d="M379.2,473c0,3.5-2.1,5.4-4.7,5.4c-2.7,0-4.6-2.1-4.6-5.2c0-3.2,2-5.4,4.7-5.4C377.4,467.8,379.2,469.9,379.2,473z
					 M371.3,473.1c0,2.2,1.2,4.1,3.3,4.1c2.1,0,3.3-1.9,3.3-4.2c0-2-1.1-4.2-3.3-4.2C372.4,468.9,371.3,470.9,371.3,473.1z"/>
				<path d="M382.2,468v6c0,2.3,1,3.3,2.4,3.3c1.5,0,2.5-1,2.5-3.3v-6h1.3v6c0,3.1-1.7,4.4-3.9,4.4c-2.1,0-3.7-1.2-3.7-4.4v-6H382.2
					z"/>
				<path d="M390.7,468.1c0.7-0.1,1.6-0.2,2.5-0.2c1.4,0,2.3,0.3,3,0.8c0.5,0.5,0.8,1.2,0.8,1.9c0,1.3-0.8,2.2-1.9,2.6v0
					c0.8,0.3,1.3,1,1.5,2.1c0.3,1.4,0.6,2.4,0.8,2.8H396c-0.2-0.3-0.4-1.2-0.7-2.4c-0.3-1.4-0.8-1.9-2-2H392v4.4h-1.3V468.1z
					 M392,472.8h1.3c1.4,0,2.3-0.8,2.3-1.9c0-1.3-1-1.9-2.3-1.9c-0.6,0-1.1,0.1-1.3,0.1V472.8z"/>
				<path d="M406.1,477.9c-0.5,0.2-1.5,0.5-2.7,0.5c-2.9,0-5-1.8-5-5.2c0-3.2,2.2-5.4,5.3-5.4c1.3,0,2.1,0.3,2.4,0.5l-0.3,1.1
					c-0.5-0.2-1.2-0.4-2.1-0.4c-2.4,0-4,1.5-4,4.2c0,2.5,1.4,4.1,3.9,4.1c0.8,0,1.6-0.2,2.2-0.4L406.1,477.9z"/>
				<path d="M413,473.4h-4v3.7h4.4v1.1h-5.7V468h5.5v1.1H409v3.2h4V473.4z"/>
				<path d="M415,476.6c0.6,0.4,1.5,0.7,2.4,0.7c1.3,0,2.1-0.7,2.1-1.7c0-1-0.5-1.5-1.9-2c-1.7-0.6-2.7-1.5-2.7-2.9
					c0-1.6,1.3-2.8,3.3-2.8c1,0,1.8,0.2,2.3,0.5l-0.4,1.1c-0.3-0.2-1-0.5-1.9-0.5c-1.4,0-1.9,0.8-1.9,1.5c0,1,0.6,1.4,2,2
					c1.7,0.7,2.6,1.5,2.6,3c0,1.6-1.2,2.9-3.6,2.9c-1,0-2.1-0.3-2.6-0.7L415,476.6z"/>
			</g>
		</g>
		<g>
			<g>
				<path d="M203.6,347.7c-0.5,0.2-1.5,0.5-2.7,0.5c-2.9,0-5-1.8-5-5.2c0-3.2,2.2-5.4,5.3-5.4c1.3,0,2.1,0.3,2.4,0.5l-0.3,1.1
					c-0.5-0.2-1.2-0.4-2.1-0.4c-2.4,0-4,1.5-4,4.2c0,2.5,1.4,4.1,3.9,4.1c0.8,0,1.6-0.2,2.2-0.4L203.6,347.7z"/>
				<path d="M206.5,337.8v6c0,2.3,1,3.3,2.4,3.3c1.5,0,2.5-1,2.5-3.3v-6h1.3v6c0,3.1-1.7,4.4-3.9,4.4c-2.1,0-3.7-1.2-3.7-4.4v-6
					H206.5z"/>
				<path d="M214.8,346.4c0.6,0.4,1.5,0.7,2.4,0.7c1.3,0,2.1-0.7,2.1-1.7c0-1-0.5-1.5-1.9-2c-1.7-0.6-2.7-1.5-2.7-2.9
					c0-1.6,1.3-2.8,3.3-2.8c1,0,1.8,0.2,2.3,0.5l-0.4,1.1c-0.3-0.2-1-0.5-1.9-0.5c-1.4,0-1.9,0.8-1.9,1.5c0,1,0.6,1.4,2,2
					c1.7,0.7,2.6,1.5,2.6,3c0,1.6-1.2,2.9-3.6,2.9c-1,0-2.1-0.3-2.6-0.7L214.8,346.4z"/>
				<path d="M224.4,338.9h-3.1v-1.1h7.6v1.1h-3.1v9.1h-1.3V338.9z"/>
				<path d="M238.3,342.8c0,3.5-2.1,5.4-4.7,5.4c-2.7,0-4.6-2.1-4.6-5.2c0-3.2,2-5.4,4.7-5.4C236.5,337.6,238.3,339.7,238.3,342.8z
					 M230.4,342.9c0,2.2,1.2,4.1,3.3,4.1c2.1,0,3.3-1.9,3.3-4.2c0-2-1.1-4.2-3.3-4.2C231.5,338.7,230.4,340.7,230.4,342.9z"/>
				<path d="M248.7,343.5c-0.1-1.4-0.2-3.1-0.2-4.4h0c-0.3,1.2-0.8,2.5-1.3,3.9l-1.8,5h-1l-1.7-4.9c-0.5-1.4-0.9-2.8-1.2-4h0
					c0,1.3-0.1,3-0.2,4.5L241,348h-1.3l0.7-10.2h1.7l1.7,4.9c0.4,1.3,0.8,2.4,1,3.4h0c0.3-1,0.6-2.2,1.1-3.4l1.8-4.9h1.7l0.6,10.2
					h-1.3L248.7,343.5z"/>
				<path d="M257.5,343.2h-4v3.7h4.4v1.1h-5.7v-10.2h5.5v1.1h-4.2v3.2h4V343.2z"/>
				<path d="M259.7,337.9c0.7-0.1,1.6-0.2,2.5-0.2c1.4,0,2.3,0.3,3,0.8c0.5,0.5,0.8,1.2,0.8,1.9c0,1.3-0.8,2.2-1.9,2.6v0
					c0.8,0.3,1.3,1,1.5,2.1c0.3,1.4,0.6,2.4,0.8,2.8H265c-0.2-0.3-0.4-1.2-0.7-2.4c-0.3-1.4-0.8-1.9-2-2H261v4.4h-1.3V337.9z
					 M261,342.6h1.3c1.4,0,2.3-0.8,2.3-1.9c0-1.3-1-1.9-2.3-1.9c-0.6,0-1.1,0.1-1.3,0.1V342.6z"/>
				<path d="M191.4,356.1c0.7-0.1,1.6-0.2,2.5-0.2c1.4,0,2.3,0.3,3,0.8c0.5,0.5,0.8,1.2,0.8,1.9c0,1.3-0.8,2.2-1.9,2.6v0
					c0.8,0.3,1.3,1,1.5,2.1c0.3,1.4,0.6,2.4,0.8,2.8h-1.4c-0.2-0.3-0.4-1.2-0.7-2.4c-0.3-1.4-0.8-1.9-2-2h-1.2v4.4h-1.3V356.1z
					 M192.7,360.7h1.3c1.4,0,2.3-0.8,2.3-1.9c0-1.3-1-1.9-2.3-1.9c-0.6,0-1.1,0.1-1.3,0.1V360.7z"/>
				<path d="M204.8,361.4h-4v3.7h4.4v1.1h-5.7V356h5.5v1.1h-4.2v3.2h4V361.4z"/>
				<path d="M207,356h1.3v9.1h4.4v1.1H207V356z"/>
				<path d="M215.8,363l-1.1,3.2h-1.4l3.5-10.2h1.6l3.5,10.2h-1.4l-1.1-3.2H215.8z M219.1,361.9l-1-2.9c-0.2-0.7-0.4-1.3-0.5-1.9h0
					c-0.2,0.6-0.3,1.2-0.5,1.8l-1,3H219.1z"/>
				<path d="M224.2,357.1h-3.1V356h7.6v1.1h-3.1v9.1h-1.3V357.1z"/>
				<path d="M231.1,356v10.2h-1.3V356H231.1z"/>
				<path d="M242.1,361c0,3.5-2.1,5.4-4.7,5.4c-2.7,0-4.6-2.1-4.6-5.2c0-3.2,2-5.4,4.7-5.4C240.3,355.8,242.1,357.9,242.1,361z
					 M234.2,361.1c0,2.2,1.2,4.1,3.3,4.1c2.1,0,3.3-1.9,3.3-4.2c0-2-1.1-4.2-3.3-4.2C235.3,356.9,234.2,358.9,234.2,361.1z"/>
				<path d="M243.7,364.6c0.6,0.4,1.5,0.7,2.4,0.7c1.3,0,2.1-0.7,2.1-1.7c0-1-0.5-1.5-1.9-2c-1.7-0.6-2.7-1.5-2.7-2.9
					c0-1.6,1.3-2.8,3.3-2.8c1,0,1.8,0.2,2.3,0.5l-0.4,1.1c-0.3-0.2-1-0.5-1.9-0.5c-1.4,0-1.9,0.8-1.9,1.5c0,1,0.6,1.4,2,2
					c1.7,0.7,2.6,1.5,2.6,3c0,1.6-1.2,2.9-3.6,2.9c-1,0-2.1-0.3-2.6-0.7L243.7,364.6z"/>
				<path d="M252.6,356v4.3h4.9V356h1.3v10.2h-1.3v-4.8h-4.9v4.8h-1.3V356H252.6z"/>
				<path d="M262.5,356v10.2h-1.3V356H262.5z"/>
				<path d="M264.8,356.1c0.6-0.1,1.5-0.2,2.5-0.2c1.3,0,2.3,0.3,2.9,0.8c0.6,0.5,0.9,1.2,0.9,2.1c0,0.9-0.3,1.7-0.8,2.2
					c-0.7,0.7-1.8,1.1-3.1,1.1c-0.4,0-0.8,0-1.1-0.1v4.1h-1.3V356.1z M266.1,361c0.3,0.1,0.7,0.1,1.1,0.1c1.6,0,2.6-0.8,2.6-2.2
					c0-1.3-1-2-2.4-2c-0.6,0-1,0-1.2,0.1V361z"/>
				<path d="M193.4,379.9c-0.1-1.4-0.2-3.1-0.2-4.4h0c-0.3,1.2-0.8,2.5-1.3,3.9l-1.8,5h-1l-1.7-4.9c-0.5-1.4-0.9-2.8-1.2-4h0
					c0,1.3-0.1,3-0.2,4.5l-0.3,4.4h-1.3l0.7-10.2h1.7l1.7,4.9c0.4,1.3,0.8,2.4,1,3.4h0c0.3-1,0.6-2.2,1.1-3.4l1.8-4.9h1.7l0.6,10.2
					h-1.3L193.4,379.9z"/>
				<path d="M198.5,381.1l-1.1,3.2H196l3.5-10.2h1.6l3.5,10.2h-1.4l-1.1-3.2H198.5z M201.8,380.1l-1-2.9c-0.2-0.7-0.4-1.3-0.5-1.9h0
					c-0.2,0.6-0.3,1.2-0.5,1.8l-1,3H201.8z"/>
				<path d="M206.1,384.4v-10.2h1.4l3.3,5.2c0.8,1.2,1.3,2.3,1.8,3.3l0,0c-0.1-1.4-0.2-2.6-0.2-4.2v-4.3h1.2v10.2h-1.3l-3.2-5.2
					c-0.7-1.1-1.4-2.3-1.9-3.4l0,0c0.1,1.3,0.1,2.5,0.1,4.2v4.4H206.1z"/>
				<path d="M217.7,381.1l-1.1,3.2h-1.4l3.5-10.2h1.6l3.5,10.2h-1.4l-1.1-3.2H217.7z M221.1,380.1l-1-2.9c-0.2-0.7-0.4-1.3-0.5-1.9
					h0c-0.2,0.6-0.3,1.2-0.5,1.8l-1,3H221.1z"/>
				<path d="M232.9,383.9c-0.6,0.2-1.8,0.6-3.1,0.6c-1.5,0-2.8-0.4-3.8-1.3c-0.9-0.8-1.4-2.2-1.4-3.8c0-3,2.1-5.3,5.5-5.3
					c1.2,0,2.1,0.3,2.5,0.5l-0.3,1.1c-0.5-0.2-1.2-0.4-2.3-0.4c-2.5,0-4.1,1.5-4.1,4.1c0,2.6,1.6,4.1,3.9,4.1c0.9,0,1.5-0.1,1.8-0.3
					v-3h-2.1V379h3.4V383.9z"/>
				<path d="M240.2,379.6h-4v3.7h4.4v1.1h-5.7v-10.2h5.5v1.1h-4.2v3.2h4V379.6z"/>
				<path d="M251,379.9c-0.1-1.4-0.2-3.1-0.2-4.4h0c-0.3,1.2-0.8,2.5-1.3,3.9l-1.8,5h-1l-1.7-4.9c-0.5-1.4-0.9-2.8-1.2-4h0
					c0,1.3-0.1,3-0.2,4.5l-0.3,4.4h-1.3l0.7-10.2h1.7l1.7,4.9c0.4,1.3,0.8,2.4,1,3.4h0c0.3-1,0.6-2.2,1.1-3.4l1.8-4.9h1.7l0.6,10.2
					h-1.3L251,379.9z"/>
				<path d="M259.8,379.6h-4v3.7h4.4v1.1h-5.7v-10.2h5.5v1.1h-4.2v3.2h4V379.6z"/>
				<path d="M262,384.4v-10.2h1.4l3.3,5.2c0.8,1.2,1.3,2.3,1.8,3.3l0,0c-0.1-1.4-0.2-2.6-0.2-4.2v-4.3h1.2v10.2h-1.3l-3.2-5.2
					c-0.7-1.1-1.4-2.3-1.9-3.4l0,0c0.1,1.3,0.1,2.5,0.1,4.2v4.4H262z"/>
				<path d="M273.9,375.3h-3.1v-1.1h7.6v1.1h-3.1v9.1h-1.3V375.3z"/>
				<path d="M216.1,391.4c-1.1,1.5-1.9,3.5-1.9,6.2c0,2.7,0.8,4.6,1.9,6.1h-1c-1-1.3-2-3.2-2-6.2c0-3,1-4.9,2-6.2H216.1z"/>
				<path d="M224.7,402.2c-0.5,0.2-1.5,0.5-2.7,0.5c-2.9,0-5-1.8-5-5.2c0-3.2,2.2-5.4,5.3-5.4c1.3,0,2.1,0.3,2.4,0.5l-0.3,1.1
					c-0.5-0.2-1.2-0.4-2.1-0.4c-2.4,0-4,1.5-4,4.2c0,2.5,1.4,4.1,3.9,4.1c0.8,0,1.6-0.2,2.2-0.4L224.7,402.2z"/>
				<path d="M226.4,392.5c0.7-0.1,1.6-0.2,2.5-0.2c1.4,0,2.3,0.3,3,0.8c0.5,0.5,0.8,1.2,0.8,1.9c0,1.3-0.8,2.2-1.9,2.6v0
					c0.8,0.3,1.3,1,1.5,2.1c0.3,1.4,0.6,2.4,0.8,2.8h-1.4c-0.2-0.3-0.4-1.2-0.7-2.4c-0.3-1.4-0.8-1.9-2-2h-1.2v4.4h-1.3V392.5z
					 M227.7,397.1h1.3c1.4,0,2.3-0.8,2.3-1.9c0-1.3-1-1.9-2.3-1.9c-0.6,0-1.1,0.1-1.3,0.1V397.1z"/>
				<path d="M243.1,398.1c-0.1-1.4-0.2-3.1-0.2-4.4h0c-0.3,1.2-0.8,2.5-1.3,3.9l-1.8,5h-1l-1.7-4.9c-0.5-1.4-0.9-2.8-1.2-4h0
					c0,1.3-0.1,3-0.2,4.5l-0.3,4.4h-1.3l0.7-10.2h1.7l1.7,4.9c0.4,1.3,0.8,2.4,1,3.4h0c0.3-1,0.6-2.2,1.1-3.4l1.8-4.9h1.7l0.6,10.2
					h-1.3L243.1,398.1z"/>
				<path d="M245.9,403.8c1.1-1.5,1.9-3.5,1.9-6.2c0-2.7-0.8-4.7-1.9-6.2h1c1,1.2,2,3.2,2,6.2s-1,4.9-2,6.2H245.9z"/>
			</g>
		</g>
		<g>
			<g>
				<path d="M40.8,272.6c-0.1-1.4-0.2-3.1-0.2-4.4h0c-0.3,1.2-0.8,2.5-1.3,3.9l-1.8,5h-1l-1.7-4.9c-0.5-1.4-0.9-2.8-1.2-4h0
					c0,1.3-0.1,3-0.2,4.5l-0.3,4.4h-1.3l0.7-10.2h1.7l1.7,4.9c0.4,1.3,0.8,2.4,1,3.4h0c0.3-1,0.6-2.2,1.1-3.4l1.8-4.9h1.7l0.6,10.2
					H41L40.8,272.6z"/>
				<path d="M45.9,273.9l-1.1,3.2h-1.4l3.5-10.2h1.6l3.5,10.2h-1.4l-1.1-3.2H45.9z M49.2,272.9l-1-2.9c-0.2-0.7-0.4-1.3-0.5-1.9h0
					c-0.2,0.6-0.3,1.2-0.5,1.8l-1,3H49.2z"/>
				<path d="M53.5,277.1v-10.2h1.4l3.3,5.2c0.8,1.2,1.3,2.3,1.8,3.3l0,0c-0.1-1.4-0.2-2.6-0.2-4.2v-4.3h1.2v10.2h-1.3l-3.2-5.2
					c-0.7-1.1-1.4-2.3-1.9-3.4l0,0c0.1,1.3,0.1,2.5,0.1,4.2v4.4H53.5z"/>
				<path d="M64.8,266.9v6c0,2.3,1,3.3,2.4,3.3c1.5,0,2.5-1,2.5-3.3v-6H71v6c0,3.1-1.7,4.4-3.9,4.4c-2.1,0-3.7-1.2-3.7-4.4v-6H64.8z
					"/>
				<path d="M73.3,266.9h5.5v1.1h-4.2v3.4h3.9v1.1h-3.9v4.6h-1.3V266.9z"/>
				<path d="M81.1,273.9l-1.1,3.2h-1.4l3.5-10.2h1.6l3.5,10.2h-1.4l-1.1-3.2H81.1z M84.5,272.9l-1-2.9c-0.2-0.7-0.4-1.3-0.5-1.9h0
					c-0.2,0.6-0.3,1.2-0.5,1.8l-1,3H84.5z"/>
				<path d="M95.6,276.8c-0.5,0.2-1.5,0.5-2.7,0.5c-2.9,0-5-1.8-5-5.2c0-3.2,2.2-5.4,5.3-5.4c1.3,0,2.1,0.3,2.4,0.5l-0.3,1.1
					c-0.5-0.2-1.2-0.4-2.1-0.4c-2.4,0-4,1.5-4,4.2c0,2.5,1.4,4.1,3.9,4.1c0.8,0,1.6-0.2,2.2-0.4L95.6,276.8z"/>
				<path d="M99.7,268h-3.1v-1.1h7.6v1.1H101v9.1h-1.3V268z"/>
				<path d="M106.6,266.9v6c0,2.3,1,3.3,2.4,3.3c1.5,0,2.5-1,2.5-3.3v-6h1.3v6c0,3.1-1.7,4.4-3.9,4.4c-2.1,0-3.7-1.2-3.7-4.4v-6
					H106.6z"/>
				<path d="M115.1,267c0.7-0.1,1.6-0.2,2.5-0.2c1.4,0,2.3,0.3,3,0.8c0.5,0.5,0.8,1.2,0.8,1.9c0,1.3-0.8,2.2-1.9,2.6v0
					c0.8,0.3,1.3,1,1.5,2.1c0.3,1.4,0.6,2.4,0.8,2.8h-1.4c-0.2-0.3-0.4-1.2-0.7-2.4c-0.3-1.4-0.8-1.9-2-2h-1.2v4.4h-1.3V267z
					 M116.4,271.7h1.3c1.4,0,2.3-0.8,2.3-1.9c0-1.3-1-1.9-2.3-1.9c-0.6,0-1.1,0.1-1.3,0.1V271.7z"/>
				<path d="M124.5,266.9v10.2h-1.3v-10.2H124.5z"/>
				<path d="M126.8,277.1v-10.2h1.4l3.3,5.2c0.8,1.2,1.3,2.3,1.8,3.3l0,0c-0.1-1.4-0.2-2.6-0.2-4.2v-4.3h1.2v10.2h-1.3l-3.2-5.2
					c-0.7-1.1-1.4-2.3-1.9-3.4l0,0c0.1,1.3,0.1,2.5,0.1,4.2v4.4H126.8z"/>
				<path d="M144.6,276.7c-0.6,0.2-1.8,0.6-3.1,0.6c-1.5,0-2.8-0.4-3.8-1.3c-0.9-0.8-1.4-2.2-1.4-3.8c0-3,2.1-5.3,5.5-5.3
					c1.2,0,2.1,0.3,2.5,0.5l-0.3,1.1c-0.5-0.2-1.2-0.4-2.3-0.4c-2.5,0-4.1,1.5-4.1,4.1c0,2.6,1.6,4.1,3.9,4.1c0.9,0,1.5-0.1,1.8-0.3
					v-3h-2.1v-1.1h3.4V276.7z"/>
			</g>
		</g>
		<g>
			<g>
				<path class="st18" d="M353.7,266.4V245h15.9v3.6H358v4.8h10.8v3.6H358v5.8h12v3.6H353.7z"/>
				<path class="st18" d="M373.7,266.4V245h9.1c2.3,0,4,0.2,5,0.6c1,0.4,1.9,1.1,2.5,2.1s0.9,2.1,0.9,3.4c0,1.6-0.5,2.9-1.4,4
					s-2.4,1.7-4.2,2c0.9,0.5,1.7,1.1,2.3,1.8c0.6,0.7,1.4,1.8,2.5,3.5l2.6,4.2h-5.2l-3.1-4.7c-1.1-1.7-1.9-2.7-2.3-3.2
					s-0.8-0.7-1.3-0.9s-1.2-0.2-2.2-0.2H378v9H373.7z M378,254h3.2c2.1,0,3.4-0.1,3.9-0.3s0.9-0.5,1.2-0.9s0.4-1,0.4-1.6
					c0-0.7-0.2-1.3-0.6-1.8c-0.4-0.4-0.9-0.7-1.6-0.8c-0.4,0-1.4-0.1-3.2-0.1H378V254z"/>
				<path class="st18" d="M395.3,266.4V245h7c2.6,0,4.4,0.1,5.2,0.3c1.2,0.3,2.3,1,3.1,2.1s1.2,2.5,1.2,4.2c0,1.3-0.2,2.4-0.7,3.3
					s-1.1,1.6-1.8,2.1c-0.7,0.5-1.5,0.9-2.2,1c-1,0.2-2.5,0.3-4.5,0.3h-2.8v8.1H395.3z M399.7,248.6v6.1h2.4c1.7,0,2.9-0.1,3.4-0.3
					s1-0.6,1.4-1.1s0.5-1,0.5-1.7c0-0.8-0.2-1.4-0.7-1.9s-1-0.8-1.7-1c-0.5-0.1-1.6-0.1-3.1-0.1H399.7z"/>
				<path class="st18" d="M327.9,273.8h4c0.9,0,1.6,0.1,2.1,0.2c0.6,0.2,1.2,0.5,1.6,1s0.8,1.1,1,1.8s0.4,1.5,0.4,2.6
					c0,0.9-0.1,1.7-0.3,2.3c-0.3,0.8-0.7,1.4-1.2,1.9c-0.4,0.4-0.9,0.7-1.5,0.9c-0.5,0.2-1.1,0.2-1.9,0.2h-4.1V273.8z M330,275.6
					v7.2h1.6c0.6,0,1.1,0,1.3-0.1c0.4-0.1,0.6-0.2,0.9-0.5s0.4-0.6,0.6-1c0.1-0.5,0.2-1.1,0.2-2s-0.1-1.5-0.2-1.9
					c-0.1-0.4-0.4-0.8-0.6-1.1c-0.3-0.3-0.6-0.4-1-0.5c-0.3-0.1-0.9-0.1-1.8-0.1H330z"/>
				<path class="st18" d="M338.8,284.6v-10.8h8v1.8H341v2.4h5.4v1.8H341v3h6.1v1.8H338.8z"/>
				<path class="st18" d="M351.7,284.6l-3.9-10.8h2.4l2.7,8l2.7-8h2.3l-3.9,10.8H351.7z"/>
				<path class="st18" d="M359,284.6v-10.8h8v1.8h-5.9v2.4h5.4v1.8h-5.4v3h6.1v1.8H359z"/>
				<path class="st18" d="M369.2,284.6v-10.8h2.2v8.9h5.4v1.8H369.2z"/>
				<path class="st18" d="M377.9,279.3c0-1.1,0.2-2,0.5-2.8c0.2-0.6,0.6-1,1-1.5c0.4-0.4,0.9-0.8,1.4-1c0.7-0.3,1.5-0.4,2.3-0.4
					c1.6,0,2.9,0.5,3.8,1.5c1,1,1.4,2.4,1.4,4.1c0,1.8-0.5,3.1-1.4,4.1s-2.2,1.5-3.8,1.5c-1.6,0-2.9-0.5-3.8-1.5
					S377.9,281,377.9,279.3z M380.2,279.2c0,1.2,0.3,2.2,0.9,2.8c0.6,0.6,1.3,1,2.2,1s1.6-0.3,2.1-0.9c0.6-0.6,0.8-1.6,0.8-2.8
					c0-1.2-0.3-2.2-0.8-2.8c-0.5-0.6-1.3-0.9-2.2-0.9s-1.6,0.3-2.2,0.9C380.5,277,380.2,277.9,380.2,279.2z"/>
				<path class="st18" d="M390.2,284.6v-10.8h3.5c1.3,0,2.2,0.1,2.6,0.2c0.6,0.2,1.1,0.5,1.6,1.1c0.4,0.5,0.6,1.3,0.6,2.1
					c0,0.7-0.1,1.2-0.4,1.7c-0.2,0.5-0.5,0.8-0.9,1.1s-0.8,0.4-1.1,0.5c-0.5,0.1-1.3,0.2-2.3,0.2h-1.4v4.1H390.2z M392.4,275.6v3.1
					h1.2c0.9,0,1.4-0.1,1.7-0.2c0.3-0.1,0.5-0.3,0.7-0.5c0.2-0.2,0.2-0.5,0.2-0.8c0-0.4-0.1-0.7-0.3-1c-0.2-0.3-0.5-0.4-0.9-0.5
					c-0.3,0-0.8-0.1-1.6-0.1H392.4z"/>
				<path class="st18" d="M400.3,284.6v-10.8h3.3l2,7.4l1.9-7.4h3.3v10.8h-2v-8.5l-2.2,8.5h-2.1l-2.1-8.5v8.5H400.3z"/>
				<path class="st18" d="M412.9,284.6v-10.8h8v1.8h-5.9v2.4h5.4v1.8h-5.4v3h6.1v1.8H412.9z"/>
				<path class="st18" d="M423,284.6v-10.8h2.1l4.4,7.2v-7.2h2v10.8h-2.2l-4.4-7.1v7.1H423z"/>
				<path class="st18" d="M436.4,284.6v-9h-3.2v-1.8h8.6v1.8h-3.2v9H436.4z"/>
				<path class="st18" d="M346.8,299.3l2.1-0.2c0.1,0.7,0.4,1.2,0.8,1.6c0.4,0.3,0.9,0.5,1.6,0.5c0.7,0,1.2-0.1,1.6-0.4
					c0.4-0.3,0.5-0.6,0.5-1c0-0.3-0.1-0.5-0.2-0.7c-0.2-0.2-0.4-0.3-0.8-0.5c-0.3-0.1-0.8-0.2-1.8-0.5c-1.2-0.3-2-0.6-2.5-1.1
					c-0.7-0.6-1-1.3-1-2.2c0-0.6,0.2-1.1,0.5-1.6c0.3-0.5,0.8-0.8,1.4-1.1s1.3-0.4,2.1-0.4c1.4,0,2.4,0.3,3.1,0.9
					c0.7,0.6,1,1.4,1.1,2.4l-2.2,0.1c-0.1-0.6-0.3-1-0.6-1.2s-0.8-0.4-1.4-0.4c-0.6,0-1.1,0.1-1.5,0.4c-0.2,0.2-0.3,0.4-0.3,0.7
					c0,0.3,0.1,0.5,0.3,0.7c0.3,0.2,0.9,0.5,2,0.7c1.1,0.3,1.9,0.5,2.4,0.8s0.9,0.6,1.2,1.1c0.3,0.5,0.4,1,0.4,1.7
					c0,0.6-0.2,1.2-0.5,1.7c-0.3,0.5-0.8,0.9-1.5,1.2c-0.6,0.3-1.4,0.4-2.4,0.4c-1.4,0-2.4-0.3-3.2-1
					C347.4,301.4,346.9,300.5,346.8,299.3z"/>
				<path class="st18" d="M357.5,302.8V292h8v1.8h-5.9v2.4h5.4v1.8h-5.4v3h6.1v1.8H357.5z"/>
				<path class="st18" d="M367.6,302.8V292h4.6c1.2,0,2,0.1,2.5,0.3c0.5,0.2,0.9,0.5,1.3,1s0.5,1.1,0.5,1.7c0,0.8-0.2,1.5-0.7,2
					c-0.5,0.5-1.2,0.9-2.1,1c0.5,0.3,0.9,0.6,1.2,0.9c0.3,0.3,0.7,0.9,1.2,1.8l1.3,2.1h-2.6l-1.6-2.4c-0.6-0.8-0.9-1.4-1.2-1.6
					c-0.2-0.2-0.4-0.4-0.7-0.5c-0.2-0.1-0.6-0.1-1.1-0.1h-0.4v4.5H367.6z M369.8,296.5h1.6c1.1,0,1.7,0,2-0.1
					c0.3-0.1,0.5-0.2,0.6-0.5c0.1-0.2,0.2-0.5,0.2-0.8c0-0.4-0.1-0.7-0.3-0.9c-0.2-0.2-0.5-0.4-0.8-0.4c-0.2,0-0.7,0-1.6,0h-1.7
					V296.5z"/>
				<path class="st18" d="M381,302.8l-3.9-10.8h2.4l2.7,8l2.7-8h2.3l-3.9,10.8H381z"/>
				<path class="st18" d="M388.3,302.8V292h2.2v10.8H388.3z"/>
				<path class="st18" d="M399.5,298.8l2.1,0.7c-0.3,1.2-0.9,2.1-1.6,2.6c-0.8,0.6-1.7,0.9-2.9,0.9c-1.4,0-2.6-0.5-3.6-1.5
					c-0.9-1-1.4-2.3-1.4-4c0-1.8,0.5-3.2,1.4-4.2s2.2-1.5,3.7-1.5c1.3,0,2.4,0.4,3.2,1.2c0.5,0.5,0.9,1.1,1.1,2l-2.2,0.5
					c-0.1-0.6-0.4-1-0.8-1.3s-0.9-0.5-1.5-0.5c-0.8,0-1.5,0.3-2,0.9c-0.5,0.6-0.8,1.5-0.8,2.8c0,1.4,0.2,2.3,0.7,2.9
					s1.1,0.9,1.9,0.9c0.6,0,1.1-0.2,1.5-0.6C399,300.2,399.3,299.6,399.5,298.8z"/>
				<path class="st18" d="M403.5,302.8V292h8v1.8h-5.9v2.4h5.4v1.8h-5.4v3h6.1v1.8H403.5z"/>
				<path class="st18" d="M413.1,299.3l2.1-0.2c0.1,0.7,0.4,1.2,0.8,1.6c0.4,0.3,0.9,0.5,1.6,0.5c0.7,0,1.2-0.1,1.6-0.4
					c0.4-0.3,0.5-0.6,0.5-1c0-0.3-0.1-0.5-0.2-0.7c-0.2-0.2-0.4-0.3-0.8-0.5c-0.3-0.1-0.8-0.2-1.8-0.5c-1.2-0.3-2-0.6-2.5-1.1
					c-0.7-0.6-1-1.3-1-2.2c0-0.6,0.2-1.1,0.5-1.6c0.3-0.5,0.8-0.8,1.4-1.1c0.6-0.3,1.3-0.4,2.1-0.4c1.4,0,2.4,0.3,3.1,0.9
					c0.7,0.6,1,1.4,1.1,2.4l-2.2,0.1c-0.1-0.6-0.3-1-0.6-1.2c-0.3-0.2-0.8-0.4-1.4-0.4c-0.6,0-1.1,0.1-1.5,0.4
					c-0.2,0.2-0.3,0.4-0.3,0.7c0,0.3,0.1,0.5,0.3,0.7c0.3,0.2,0.9,0.5,2,0.7c1.1,0.3,1.9,0.5,2.4,0.8c0.5,0.3,0.9,0.6,1.2,1.1
					c0.3,0.5,0.4,1,0.4,1.7c0,0.6-0.2,1.2-0.5,1.7c-0.3,0.5-0.8,0.9-1.5,1.2c-0.6,0.3-1.4,0.4-2.4,0.4c-1.4,0-2.4-0.3-3.2-1
					C413.6,301.4,413.2,300.5,413.1,299.3z"/>
			</g>
		</g>
	</g>
</g>
</svg>
