<?xml version="1.0" encoding="utf-8"?>
<!-- Generator: Adobe Illustrator 23.0.5, SVG Export Plug-In . SVG Version: 6.00 Build 0)  -->
<svg version="1.1" id="Background" xmlns="http://www.w3.org/2000/svg" xmlns:xlink="http://www.w3.org/1999/xlink" x="0px" y="0px"
	 viewBox="0 0 1920 1080" style="enable-background:new 0 0 1920 1080;" xml:space="preserve">
<style type="text/css">
	.st0{fill:url(#SVGID_1_);}
	.st1{fill:url(#SVGID_2_);}
	.st2{fill:url(#SVGID_3_);}
	.st3{fill:url(#SVGID_4_);}
	.st4{fill:url(#SVGID_5_);}
	.st5{fill:url(#SVGID_6_);}
	.st6{fill:url(#SVGID_7_);}
	.st7{fill:url(#SVGID_8_);}
	.st8{fill:url(#SVGID_9_);}
	.st9{fill:url(#SVGID_10_);}
	.st10{fill:url(#SVGID_11_);}
	.st11{fill:url(#SVGID_12_);}
	.st12{fill:url(#SVGID_13_);}
	.st13{fill:url(#SVGID_14_);}
	.st14{fill:url(#SVGID_15_);}
	.st15{fill:url(#SVGID_16_);}
	.st16{fill:url(#SVGID_17_);}
	.st17{fill:url(#SVGID_18_);}
	.st18{fill:url(#SVGID_19_);}
	.st19{fill:url(#SVGID_20_);}
	.st20{fill:url(#SVGID_21_);}
	.st21{fill:url(#SVGID_22_);}
	.st22{fill:url(#SVGID_23_);}
	.st23{fill:url(#SVGID_24_);}
	.st24{fill:url(#SVGID_25_);}
</style>
<g>
	<g>
		<linearGradient id="SVGID_1_" gradientUnits="userSpaceOnUse" x1="61.9682" y1="541" x2="879.5422" y2="541">
			<stop  offset="0" style="stop-color:#5C5A5C"/>
			<stop  offset="1" style="stop-color:#000000"/>
		</linearGradient>
		<path class="st0" d="M846.6,1081c-5.3-9.7-10-19.9-16-29.1c-23-35.4-53.2-64.8-82-95.3c-18.4-19.5-32.7-41.3-37.3-68.2
			c-4.7-27.5-8.5-55.2-13.4-82.7c-3.1-17.3-8.3-34.3-11.3-51.7c-2.6-15.5-5.9-30.7-11.6-45.3c-8-20.4-19.3-38.7-34.9-54.2
			c-11.5-11.4-24.2-21.3-37.8-30.1c-27.4-17.8-51-40.2-73.1-64.1c-17.9-19.3-37.3-36.5-58.7-51.7c-10.8-7.7-21-16.5-30.6-25.6
			C390.8,437,342,390.6,293,344.5c-23.7-22.2-43.1-47.4-58-76.4c-21.2-41.3-43-82.3-64.3-123.6c-15-29-31.7-56.5-55.2-79.7
			C95.7,45.3,78,23.8,62,1c16.3,0,32.6,0,49,0c3.1,5.6,5.7,11.6,9.3,16.8c12.2,17.9,25.5,35.1,37.1,53.3
			c11.9,18.8,22.3,38.6,33.4,57.9c17.7,30.7,35,61.7,53.4,92.1c16.5,27.3,36.5,51.7,62.2,71c16.2,12.2,33,23.7,49.3,35.9
			c34.7,25.9,69,52.3,103.7,78.2c38.1,28.4,74.1,58.8,99.9,99.6c12.1,19.2,28,35.1,47.8,46.8c9.8,5.8,18.5,13,25.3,22.3
			c0.5,0.6,1.3,1,2.6,2c-0.3-1.5-0.3-2.2-0.6-2.7c-8.2-19.5-14.9-39.7-25.1-58.1c-14.6-26.5-31.1-52-47.8-77.3
			c-14.8-22.4-31.5-43.4-46.3-65.8c-14-21.1-29.5-40.7-48.1-57.8c-9.5-8.8-19.2-17.6-27.6-27.5c-17.8-21.1-39.1-37.6-63.1-50.8
			c-26.3-14.5-49.1-33.6-67.3-57.2c-19.7-25.5-37.9-52.2-53-81c-13.2-25.3-30.7-47.5-51.6-67c-2-1.8-4.8-2.7-7.2-4
			c-0.3,0.4-0.7,0.9-1,1.3c0.8,1.4,1.5,2.8,2.4,4.1c14,22.4,25.8,45.7,35.2,70.5c5.9,15.5,12.9,30.8,21.5,44.9
			c21.7,35.3,48.9,66.4,79.9,93.5c25,21.9,52,41.6,78.6,61.7c15.7,11.9,30.9,24.2,43.9,39.2c7.4,8.5,14,17.5,18.2,28.2
			c-3-2.4-5.7-5-8.1-7.9c-10.1-12.1-21.9-22.4-34.8-31.3c-13-9-26.3-17.5-39.5-26.3c-21.3-14.2-42.6-28.5-64-42.7
			c-18.8-12.5-33.7-28.4-45.4-47.7c-12-19.8-24.5-39.3-37.9-58.1c-18.4-25.8-37.2-51.3-50.6-80.1c-8.4-18-19-34.2-33.4-48.1
			c-8.6-8.4-15.6-18.5-23.3-27.9c29,0,58,0,87,0c5.6,6.1,11,12.4,16.8,18.3c15.4,15.6,29,32.6,40.2,51.4c13,21.7,22.3,45.5,38.9,65
			c14.4,17,28.4,34.3,42.7,51.5c1.2,1.4,2.6,2.5,4,3.8c0.6-1.3,0.5-2,0.2-2.5c-7.7-12.7-14.7-25.8-23.3-37.8
			c-18.7-26.4-36.5-53.2-50.8-82.4c-4.4-8.9-10.3-17.1-15.8-25.4c-9.5-14.1-19.2-28-28.8-42c21.3,0,42.6,0,64,0
			c6.8,15.3,13.7,30.6,20.5,45.9c5.7,12.9,10.7,26.1,16.9,38.8c4.9,10,11.4,19.2,16.9,28.8c15.2,26.6,29.9,53.5,45.6,79.8
			c6.4,10.8,14.1,21.1,22.3,30.7c12.7,15,26.6,28.9,39.4,43.7c23.2,26.9,45.9,54.1,64.8,84.3c10.6,16.9,21.9,33.4,32.5,50.3
			c9,14.4,17.9,28.8,26,43.7c8.6,15.8,16.2,32.1,24.2,48.2c0.8,1.6,1.7,3.1,2.6,4.6c0.7-1,0.6-1.8,0.5-2.6
			c-3-27.1-5.4-54.3-5.5-81.6c-0.1-23-4.7-45.6-14.7-66.3c-6.9-14.3-16.3-27.4-25.1-40.7c-24.4-36.9-53.2-70.8-74.9-109.7
			c-15.6-27.9-33.9-54.3-48.6-82.6C436.5,76.5,412.5,38.6,387.8,1c10.3,0,20.7,0,31,0c7.7,11.2,15.6,22.3,23.1,33.7
			c13.8,21.2,27.3,42.6,41.2,63.8c16.8,25.6,35.6,50.1,50.4,76.8c18.1,32.5,39,62.7,63.9,90.2c24.1,26.6,40.8,57.7,52.5,91.7
			c12.2,35.5,25.8,70.6,38.4,106.1c7.6,21.5,15.4,42.9,21.4,64.9c7.7,28.5,10.5,57.7,9.1,87.5c-1.1,23.7-0.3,47.6,0.9,71.4
			c0.8,16.4,4.2,32.7,5.6,49.1c1.9,23.1,8.1,45.2,18.3,65.5c17.5,34.8,37.3,68.4,56.4,102.3c12.2,21.6,25.3,42.7,37.3,64.4
			c4.4,7.9,7.8,16.7,9.7,25.5c3.8,17.9,7,35.7,16.3,52c6.4,11.2,10.9,23.5,16.2,35.3C868.5,1081,857.6,1081,846.6,1081z"/>
		<linearGradient id="SVGID_2_" gradientUnits="userSpaceOnUse" x1="1077.8043" y1="585.7022" x2="1812.0563" y2="585.7022">
			<stop  offset="0" style="stop-color:#5C5A5C"/>
			<stop  offset="1" style="stop-color:#000000"/>
		</linearGradient>
		<path class="st1" d="M1492.2,1081c-13.7-39.9-22-81.2-31.9-122.1c-2.3-9.3-5.8-18.5-10.3-26.9c-15.5-28.9-31.8-57.4-47.6-86.1
			c-11.8-21.6-22.6-43.9-35.2-65c-11.8-19.9-26.1-38.3-38.2-57.9c-26.5-42.9-52.7-86.2-71.6-133.1c-8.2-20.3-14.5-41.4-20.7-62.4
			c-3.9-13.2-0.5-26.7,1-40.1c3-25.9,1.6-51.2-8.8-75.9c-12.6-29.7-23.5-60.1-35.3-90.1c-1.6-3.9-3.8-7.8-6.5-11.1
			c-18.1-21.2-29.6-46.2-41.2-71c-5.3-11.3-11.2-22.1-18.9-32.2c-22-29.1-37.3-61.4-45.2-97c-1.2-5.5-2.6-11-3.9-16.5
			c-0.1-0.4,0.1-0.9,0.5-3.1c2,4,3.6,6.8,4.9,9.7c6.8,15,12.8,30.4,20.4,44.9c14.2,27.3,36.2,47.8,60.5,66.1c1.5,1.1,3,2.1,4.3,3.4
			c23.3,20.6,46.1,41.7,64.9,66.9c10.5,14.1,23,26.8,35.1,39.6c28.5,30.2,57.2,60.1,85.9,90c27.5,28.5,55.4,56.7,82.8,85.4
			c41.3,43.3,76.5,91.4,110.2,140.7c14.7,21.4,29.3,43,45.3,63.4c13.1,16.7,28.3,31.9,42.7,47.5c31.7,34.4,62.9,69.4,89.6,107.9
			c21.3,30.7,36.5,65,51.7,99.1c11.4,25.5,23,51.1,28.4,78.7c3.1,15.6,4.7,31.6,6.9,47.4c-25,0-50,0-75,0c-0.6-1.7-1.5-3.3-1.9-5.1
			c-5.7-24.6-11.1-49.3-16.9-73.9c-4.4-18.8-7.6-38.1-14.4-56c-18.7-49.3-41.7-96.8-72.7-139.7c-24.5-33.9-50.9-66.3-77-99
			c-22.5-28.2-46.5-55.3-66.7-85.5c-18.4-27.6-37.7-54.5-56.8-81.6c-23.8-33.8-53.7-62.2-82.6-91.5c-22.2-22.5-46.7-42.8-65.4-68.7
			c-5.1-7-10.8-13.5-16.2-20.3c-1.1-1.3-1.9-2.8-2.9-4.2c-0.5,0.4-1.1,0.9-1.6,1.3c0.9,2.4,1.6,5,2.8,7.3
			c6.7,12.1,13.3,24.3,20.5,36c29.4,47.6,62.5,92.5,97.4,136c25.5,31.6,46.4,65.7,63.1,102.7c5.1,11.4,11,22.4,16.4,33.7
			c13.8,28.8,34.2,53.1,52.5,78.9c31,43.7,61.8,87.7,93,131.3c23.5,32.8,44.8,66.9,57.5,105.3c10.1,30.6,17.9,62,26.7,93.1
			c-27,0-54,0-81,0c-0.5-1.9-0.9-3.9-1.5-5.8c-14.1-41.8-27.8-83.7-42.7-125.2c-12-33.4-26.2-65.9-44.8-96.3
			c-20.2-33-41.6-65.1-66.8-94.6c-10.8-12.6-21.1-25.8-30.5-39.5c-20.8-30.2-30.5-65.2-41.2-99.7c-4.2-13.6-6.2-27.9-9.6-41.8
			c-6.2-25.6-20.9-47-34.9-68.6c-16.1-24.8-33.8-48.7-50.4-73.2c-17.3-25.7-33.8-51.9-45.2-80.9c-0.7-1.7-1.7-3.3-2.6-4.8
			c-9.4-16.5-18.9-32.9-28.3-49.4c-0.8-1.4-1.7-2.9-2.6-4.3c-0.4,0.2-0.8,0.4-1.1,0.6c3.2,7.9,6.2,16,9.8,23.8
			c14.1,30.7,28.5,61.3,42.7,91.9c14.6,31.5,24.7,64.1,25.9,99.3c0.6,17.4,1.4,35.1,7.5,51.7c9.1,24.8,18.3,49.7,28.9,73.9
			c10.7,24.5,21.8,49,35.3,72.1c12.6,21.6,28.7,41.2,43,61.9c24.4,35.6,47.5,72,68.6,109.7c14.2,25.4,28.6,50.7,38.9,78.2
			c15.1,40.4,30.5,80.6,45.8,120.9C1534.2,1081,1513.2,1081,1492.2,1081z"/>
		<linearGradient id="SVGID_3_" gradientUnits="userSpaceOnUse" x1="1208.3708" y1="541" x2="1920.9995" y2="541">
			<stop  offset="0" style="stop-color:#5C5A5C"/>
			<stop  offset="1" style="stop-color:#000000"/>
		</linearGradient>
		<path class="st2" d="M1886,1081c-34.8-101.2-79.9-197.7-131.7-291.3c-26-47-50.4-95-74.3-143.2c-16.5-33.4-27.1-69.1-31.4-106.3
			c-1.3-11.2-2.1-22.5-3.2-33.8c-0.2-1.8-0.4-3.7-1.1-5.3c-6.9-15-13.9-30-25.7-41.9c-4.3-4.3-9.4-7.8-14.4-11.3
			c-6.3-4.3-13.2-7.8-19.5-12.2c-20.1-13.9-40.1-28.1-60.1-42.2c-22.6-16-41.4-35.5-56-59.1c-14.5-23.5-33.2-43.6-52.5-63.2
			c-19.1-19.3-38.6-38.4-55.8-59.3c-11.8-14.4-20.3-31.5-29.9-47.7c-11.3-19.2-22.4-38.6-33.2-58.1c-10.8-19.5-26.1-35.3-40.9-51.5
			c-14.6-16-29.2-32-43.8-48c-1.6-1.7-2.8-3.7-4.1-5.6c25.7,0,51.3,0,77,0c5.1,6,10.4,11.7,15.1,17.9
			c28.4,36.7,49.8,77.5,69.9,119.1c7.5,15.6,14.5,31.7,24.1,45.9c24,35.2,49.2,69.6,74.3,104.1c11.3,15.5,22.9,30.7,35.3,45.3
			c22.1,26,49.2,46.3,77,65.6c2.2,1.5,4.7,2.7,7.1,4c0.4-0.3,0.8-0.6,1.2-0.9c-0.4-1.6-0.4-3.4-1.2-4.8c-1.6-2.9-3.5-5.7-5.5-8.3
			c-11.7-14.7-23.9-29.1-35.1-44.2c-12.1-16.1-24.7-32.1-34.6-49.5c-11.8-20.8-20.7-43.1-31.2-64.6c-4.2-8.6-9.1-17-14.1-25.2
			c-4.1-6.8-8.7-13.7-7-21.8c3.3-14.9-2.1-27.9-7.4-41c-3.8-9.4-9.7-17.3-17.1-24.3c-4.4-4.1-8.2-8.7-12.1-13.2
			c-1-1.2-1.5-2.8-2.3-4.3c0.4-0.3,0.7-0.5,1.1-0.8c1.8,1.4,3.5,2.9,5.3,4.2c3.6,2.7,6.9,5.9,10.8,8c17.8,9.3,33.9,21.1,48.8,34.5
			c18.7,16.8,37.1,33.9,56,50.4c24.3,21.1,47.9,42.8,69.1,67.1c21.9,25.1,44.6,49.5,71.4,69.7c31,23.5,55.5,52.6,73.6,87.1
			c5.3,10.2,11.2,20.1,17.2,29.8c14.1,23,32.7,42.4,50.8,62.2c23.9,26,47.8,52,70.9,78.7c9.1,10.5,16.2,22.7,24.1,34.2
			c0,35,0,70,0,105c-2.7-2.7-5.5-5.3-8.1-8.2c-48.2-52.6-93.4-107.7-133.5-166.8c-15.3-22.6-28-46.4-33.9-73.4
			c-5.9-26.9-19.4-49.3-40.6-67.1c-4.2-3.5-7.8-7.8-11.2-12c-17.7-21.8-34.6-44.5-53.2-65.6c-43.1-48.9-88.7-95.4-137.1-139.1
			c-1-0.9-3-1.4-4.2-1c-0.8,0.2-1.3,2.4-1.4,3.7c0,1.4,0.5,3,1,4.3c9.6,25.3,21,49.6,35.4,72.5c22.1,35.1,49.5,66.1,75.5,98.1
			c23.1,28.5,44.3,57.8,57.5,92.4c12.6,32.9,25.4,65.8,39.7,98.1c16.5,37.3,34.5,73.9,52.1,110.7c8.2,17.1,19.1,32.7,32.6,45.8
			c23.8,23,48.3,45.4,72.8,67.7c18.6,16.9,37.6,33.3,56.5,49.9c0,29.7,0,59.3,0,89c-6-7.5-11.4-15.7-18.2-22.4
			c-23.2-22.8-41.9-49.1-60.3-75.7c-14.2-20.4-29.3-40-46.1-58.2c-5.9-6.4-12.6-12.1-19-18.1c-0.5,0.4-1,0.7-1.5,1.1
			c2.8,4.5,5.1,9.3,8.4,13.3c15.4,18.5,28.5,38.5,40.2,59.5c18.9,33.9,41.1,65.3,68.8,92.7c7.2,7.1,12.4,16.4,18.3,24.8
			c3.4,4.8,6.2,10,9.3,15c0,39.7,0,79.3,0,119C1909.3,1081,1897.7,1081,1886,1081z"/>
		<linearGradient id="SVGID_4_" gradientUnits="userSpaceOnUse" x1="501.7391" y1="541" x2="1033.462" y2="541">
			<stop  offset="0" style="stop-color:#5C5A5C"/>
			<stop  offset="1" style="stop-color:#000000"/>
		</linearGradient>
		<path class="st3" d="M731.6,1c2.6,11.5,5.3,22.9,7.7,34.4c4.7,23.1,8.5,46.4,13.8,69.4c7.2,31.2,21,60,34.9,88.6
			c12,24.5,24.8,48.6,38,72.5c13.6,24.7,25.2,50.2,33.6,77.2c8.9,28.9,19.7,57.4,26.8,86.7c10.2,42.2,18.8,84.8,26.2,127.5
			c4.6,26.2,9.1,52.1,20.9,76.2c5.3,10.8,10.1,21.7,14.9,32.7c16.2,36.6,26.7,74.8,31,114.7c1.5,13.9,3.6,27.6-0.1,41.6
			c-4,14.8-12.9,20-27.7,15.8c-9.2-2.6-17-7.3-22.6-14.8c-7.9-10.7-15-22-22.3-33c-3.9-5.8-7.6-11.7-11.4-17.6
			c-3.9-6-8-11.9-11.5-18.1c-19.5-34.7-38.8-69.4-58.3-104.1c-0.4-0.7-0.9-1.2-2.4-1.5c0.7,4.5,1.7,9,2,13.5
			c1.7,19.9,4.3,39.8,4.5,59.7c0.5,38.6,12.3,73.7,30.1,107.1c22.3,41.5,45.4,82.6,68.2,123.8c7.5,13.7,17,25.8,28.2,36.7
			c26,25.1,47.1,54.4,70.1,82c2.4,2.9,4.7,6.1,7,9.1c-25,0-50,0-75,0c-1.2-1.4-2.3-2.8-3.6-4.1c-8-8.3-16.4-16.1-23.9-24.8
			c-18.2-21-30-45.8-41.1-71c-7.1-16.1-14.4-32.2-22.6-47.8c-14.9-28.1-29.8-56.1-42.9-85.1c-16.8-37.3-24.6-76.1-25.5-116.6
			c-0.4-17.1,0.7-34.5-1.6-51.4c-3.9-29.4-6.7-58.8-7.7-88.5c-0.8-24.2-5.4-47.8-12.6-71c-8.2-26.4-15.7-53-22.2-79.8
			c-4.5-18.3-10.3-35.6-21.4-51.1c-8.6-12-16.3-24.7-23.4-37.7c-11.2-20.8-24.4-40-39.6-58.1c-33.7-40.4-59.2-85.4-71.5-136.9
			c-8.7-36.5-25.7-68.2-49.8-96.7C532.8,41,517.5,20.8,501.7,1c24,0,48,0,72,0c1.1,1.6,2.1,3.3,3.3,4.8
			c13.5,16.2,27.8,31.9,40.5,48.8c15.8,20.8,25.3,44.9,33.8,69.3c10.4,29.8,25.3,57.2,40.9,84.3c13.9,24.2,29.1,47.8,43.7,71.6
			c12.3,20,22.2,40.9,27.2,64c2.7,12.5,4.9,25.2,8.9,37.3c19,57.7,37,115.7,52.5,174.4c5.5,20.9,10.1,42.1,20.8,61.3
			c5.2,9.3,9.6,19,13.8,28.8c16.7,39.6,37.2,76.9,61.7,112.2c6.8,9.7,14.4,18.9,24.5,25.4c2,1.3,4.5,2.2,6.9,2.4
			c4.2,0.4,6.1-2,5.4-6.3c-1.7-9.8-3.4-19.7-5.5-29.4c-6.8-31-17.7-60.7-30.9-89.4c-9-19.6-19.7-38.6-25.1-59.7
			c-4.2-16.6-7-33.5-11.1-50.1c-6.5-26-14.9-51.6-20-77.8c-9.6-50.1-26.4-98-43.7-145.7c-12.6-34.7-33-65.6-51.8-97.2
			c-0.3-0.4-0.6-0.8-0.9-1.2c-27.2-33.5-43.5-72.6-58.4-112.5c-5.6-15-8.1-30.8-4.1-46.6C712,47,715.5,24.3,713.6,1
			C719.6,1,725.6,1,731.6,1z"/>
		<linearGradient id="SVGID_5_" gradientUnits="userSpaceOnUse" x1="14.158" y1="597.9713" x2="759.6047" y2="597.9713">
			<stop  offset="0" style="stop-color:#5C5A5C"/>
			<stop  offset="1" style="stop-color:#000000"/>
		</linearGradient>
		<path class="st4" d="M730.6,1081c-4.8-9.8-10.1-19.5-14.3-29.6c-7.8-18.3-19.9-33.4-33.6-47.3c-12.4-12.6-25.5-24.4-38.4-36.5
			c-2.2-2-4.5-4.1-7.2-5.3c-18.7-8.3-33.1-22.9-49.2-34.9c-20.3-15.1-40.3-30.6-60.5-45.9c-13.5-10.2-28.7-17.4-44.3-23.8
			c-63.2-25.9-109.6-70.4-142.3-129.5c-16.5-29.8-31.4-60.6-46.2-91.3c-11.8-24.4-18.9-50.3-23.5-77.1c-3.4-19.6-9.8-38.3-18.4-56.2
			c-6.7-13.9-13-28.1-18.8-42.5c-10.4-25.7-24.1-49.7-39-73c-2.7-4.2-4.4-9-7-13.2c-10-16.3-19.7-32.8-30.4-48.6
			c-10.4-15.3-22.3-29.5-32.8-44.7C111,262,98.5,241.7,85.3,221.9c-6-9-13.2-17.2-19.3-26.1c-6.8-9.9-12.8-20.3-19.3-30.3
			c-8-12.4-16.3-24.7-24.4-37c-2.7-4.1-5.4-8.2-8.1-12.2c0.5-0.4,0.9-0.9,1.4-1.3c1.9,1.6,4,2.9,5.6,4.7
			c14.6,17.3,28.9,34.9,43.8,51.9c7.2,8.2,15,16,23.3,23.1c20.2,17.3,41.1,34,59.2,53.6c2.1,2.3,4.5,4.6,6.2,7.2
			c11.4,17.5,26.4,31.7,40.7,46.6c30.7,32,61.6,63.7,92.4,95.6c20.2,21,40.4,42,60.3,63.3c10.8,11.5,21.6,23.2,31.3,35.6
			c24.8,31.4,54.1,57.3,89.1,76.7c14.3,7.9,28,16.7,42,25.1c15.9,9.4,26.8,23.8,37.4,38.4c11.2,15.3,19.1,32.4,26.4,49.7
			c6.6,15.6,16.2,29.4,26.6,42.7c11.7,15,22.6,30.5,33.8,45.8c8.4,11.4,16.9,22.7,24.8,34.4c12.5,18.6,22.6,38.4,29.9,59.6
			c2.7,7.8,6.2,15.4,9.2,23.2c0.7,1.7,1.1,3.6,1.6,5.4c-0.4,0.2-0.8,0.4-1.3,0.5c-1-1.6-2.1-3.2-2.9-4.9
			c-13.4-29-31.6-54.6-54.1-77.4c-31-31.4-61.3-63.5-91.9-95.3c-3.1-3.2-6.1-6.6-9-10.1c-17.3-21-37.5-38.7-61.2-52.3
			c-14.5-8.4-27.2-19.4-38.2-31.9c-19.7-22.3-40.7-43.5-57.3-68.6c-10.2-15.5-21.1-30.8-33.1-45.1c-13.5-16-27.8-31.5-42.9-45.9
			c-31.5-29.8-59.4-62.5-84.1-98c-6.1-8.8-13.4-16.9-20.2-25.3c-0.4,0.2-0.7,0.5-1.1,0.7c0.4,0.8,0.7,1.6,1.2,2.3
			c30.2,41,53.1,86,72.8,132.8c9.5,22.5,20.1,44.8,33.2,65.3c22.2,34.8,51.6,63.5,83.6,89.4c10.9,8.8,21.9,17.4,33,26
			c19.2,14.9,35,32.9,46.8,54.1c29,51.8,70.1,92.8,115.1,130.3c18.3,15.3,36.5,30.8,51.1,49.8c16.9,21.9,33.8,43.8,49.1,66.8
			c12.9,19.5,23.3,40.7,35.3,60.9c10.8,18.3,22.3,36.3,33.4,54.4c1,1.6,1.8,3.1,2.8,4.7C749.9,1081,740.3,1081,730.6,1081z
			 M560.8,869.2c0.5-0.5,1-0.9,1.5-1.4c-1.2-2.8-1.8-6-3.6-8.2c-10.2-12-20.4-24.1-31.3-35.4c-17.1-17.6-36.9-31.9-57.3-45.6
			c-33.2-22.3-64-47.4-87.5-80.3c-8.4-11.8-17.3-23.2-26.2-34.7c-2.1-2.7-4.7-5.1-7.4-7.3c-0.8-0.6-2.9-0.3-4,0.3
			c-0.6,0.3-0.5,2.4-0.1,3.5c2.3,6.4,4.8,12.7,7.3,19c10,25.9,23.8,49.6,41.7,70.7c16.1,19,36.8,32.7,57.6,46
			c13.1,8.4,27.6,14.8,41,22.7c18.7,11,36.9,22.7,51.2,39.5c2.4,2.8,5.1,5.4,8.2,7.3C554.3,867.1,557.7,868,560.8,869.2z"/>
		<linearGradient id="SVGID_6_" gradientUnits="userSpaceOnUse" x1="1.9995" y1="672" x2="609.6828" y2="672">
			<stop  offset="0" style="stop-color:#5C5A5C"/>
			<stop  offset="1" style="stop-color:#000000"/>
		</linearGradient>
		<path class="st5" d="M2,263c13.6,20.5,30.1,38.5,48.2,55.2c27,25,47.9,54.9,66.2,86.6c9.2,15.8,18.5,31.6,27.1,47.8
			c11.6,21.7,18,45.4,25.1,68.8c10.7,35,21.2,70.1,32.6,104.8c11.4,34.7,30.9,65.3,51.4,95c17,24.6,36.3,47.7,54.5,71.5
			c13.1,17.1,28.7,31.4,47.6,42c28.3,16,53,36.9,76.8,58.8c39.1,36,77.8,72.4,116.7,108.6c21.5,20,39.3,43,55.3,67.5
			c2.4,3.6,4.2,7.6,6.2,11.4c-13.7,0-27.3,0-41,0c-0.5-1-0.8-2.2-1.5-3c-21.9-26.4-45.4-51-73-71.5c-32.2-24-63.7-48.9-91.5-78.1
			C390,915,377.4,901.4,364.7,888c-1.4-1.5-3.1-2.6-4.6-4c-0.3,0.3-0.6,0.6-1,0.9c0.7,1.4,1.3,2.9,2.2,4.2
			c8.5,10.6,16.9,21.3,25.8,31.7c8.3,9.7,18.3,18.2,25.6,28.6c13.7,19.7,26.4,40,38.5,60.7c10.3,17.4,22.1,33.2,38.4,45.4
			c10.9,8.2,21.4,17,32.1,25.5c-23,0-46,0-69,0c-0.3-0.6-0.4-1.3-0.8-1.7c-12.4-13.5-24.9-26.9-37.3-40.4
			c-5.7-6.3-11.9-12.2-16.9-19c-20.4-27.3-35.8-57.7-50.6-88.2c-5.8-11.9-12.2-23.2-20.3-33.7c-20.9-27-41.5-54.2-62.4-81.2
			c-14.4-18.6-29.6-36.5-43.4-55.5c-10.4-14.4-18.6-30.4-28.6-45.1c-14.9-22.1-30.5-43.7-45.9-65.5c-4-5.7-7.7-11.9-12.5-16.8
			c-13.1-13.1-26.4-25.8-40.2-38.2c-18.8-16.9-38.6-32.8-57-50.1C24.4,534,13.6,520.6,2,508c0-29,0-58,0-87
			c3.2,4.3,6.5,8.4,9.6,12.8c23.2,32.9,51.6,60.5,84.9,83c1.6,1.1,3.2,2.1,5.6,3.6c0-2.4,0.1-3.9,0-5.3c-2.7-23.4-7.5-46.4-16.8-68
			c-6.8-15.7-14.3-31.1-21.6-46.6c-3.9-8.3-7.3-16.9-12.3-24.5c-10.5-16-21.6-31.6-33-47c-4.8-6.5-10.9-12-16.3-18
			C2,295,2,279,2,263z"/>
		<linearGradient id="SVGID_7_" gradientUnits="userSpaceOnUse" x1="894.5344" y1="541" x2="1428.2563" y2="541">
			<stop  offset="0" style="stop-color:#5C5A5C"/>
			<stop  offset="1" style="stop-color:#000000"/>
		</linearGradient>
		<path class="st6" d="M1252.3,1081c-3.1-12.8-6.1-25.5-9.2-38.3c-12-48.9-24.6-97.7-35.7-146.9c-6-26.6-10.7-53.5-20.8-79
			c-9.7-24.3-20.4-48.1-30-72.4c-7.4-18.7-12.5-38.1-14.2-58.4c-1-11.5-5.4-22.6-7.5-34c-3-16.3-5.4-32.8-8.1-49.2
			c-0.3-2.1-0.5-4.3-1.3-6.3c-9.7-25.2-12.5-52-17.8-78.2c-1.8-8.9-4.2-17.8-7.7-26.2c-12.6-30.9-27.9-60.4-45.1-89
			c-5.8-9.7-11.5-19.6-16.1-29.9c-13.5-30-31.9-57.3-48.3-85.7c-30.6-53.1-56.2-108.5-74.9-166.8c-8.9-27.7-16.4-55.9-19.3-84.9
			c-1.2-11.5-1.1-23.2-1.5-34.8c5.3,0,10.7,0,16,0c-1.9,16,1.7,31.4,5.3,46.8c6.9,29.3,17.4,57.3,30.2,84.4
			c10.8,23.1,22.2,45.8,32.7,69.1c10.9,24.3,26.2,46,41.4,67.6c7.7,10.8,16.6,20.9,25.6,30.6c22.1,23.9,40.6,49.9,52.3,80.7
			c7,18.5,16.7,35.9,25.2,53.8c10.7,22.7,16.6,46.7,19.8,71.4c0.7,5.3-0.2,10.7,0.3,16c1.7,15.9,3,31.8,5.7,47.5
			c3.4,20,12.8,37.9,24,54.5c26.7,39.5,53.5,78.8,81.5,117.3c14.8,20.3,32.3,38.6,48.1,58.1c19.7,24.3,36.9,50.1,49.9,78.7
			c7.4,16.3,11.5,33.3,13.5,50.9c2.2,19.8,9.3,38,19.6,54.6c17.8,28.5,31.4,58.6,40.8,90.8c0.7,2.4,1.3,4.8,1.9,7.2
			c-13.7,0-27.3,0-41,0c-0.8-2.5-1.4-5-2.5-7.4c-13-30.1-26.6-59.9-34.9-91.9c-5.7-21.9-10.6-44-17.6-65.5c-8.6-26-18-52-35.1-74.1
			c-10.8-14-21.8-27.8-32.8-41.6c-17.9-22.5-36.5-44.6-53.7-67.7c-10.7-14.4-20.5-29.5-33-42.6c-0.9-1-1.9-1.9-3.3-3.3
			c-1.1,10.5,0.3,19.7,3.9,28.4c11.8,28.1,23.3,56.3,36.2,83.9c10.9,23.4,21.1,47,28,72c5.1,18.4,10,37,16.3,55
			c11.3,32.1,24.1,63.8,35.5,95.9c6.9,19.4,12.7,39.2,19,58.9C1293,1081,1272.7,1081,1252.3,1081z"/>
		<linearGradient id="SVGID_8_" gradientUnits="userSpaceOnUse" x1="774.5969" y1="489.9448" x2="1194.0947" y2="489.9448">
			<stop  offset="0" style="stop-color:#5C5A5C"/>
			<stop  offset="1" style="stop-color:#000000"/>
		</linearGradient>
		<path class="st7" d="M838.6,1c8.5,52.3,18.7,104.2,36.7,154.2c5.5,15.2,11.7,30.1,20.6,43.7c10.6,16.3,18,34.1,22.3,53.1
			c5.9,26,18.1,49.5,34.3,69.8c19.4,24.3,35.1,50.6,50.3,77.3c22.7,39.9,39.5,82,49.6,126.9c8.2,36.3,22.5,70.7,36.6,105
			c11.2,27.2,18.7,55.1,23,84c8.9,59.2,26.8,115.9,46.9,172c9,25.2,20.1,49.6,30.2,74.4c2.2,5.5,4,11.2,4.9,17.4
			c-0.6-0.8-1.2-1.5-1.6-2.4c-13.9-27.1-26.8-54.7-42.9-80.7c-11.3-18.2-17.7-38.8-23.8-59.1c-12-40.7-25.5-80.8-39.4-120.9
			c-8.4-24-14.9-48.7-25.9-71.7c-3.7-7.8-8.6-15-12.8-22.6c-12.8-23.4-24.5-47.3-33.6-72.4c-8.5-23.6-20.5-45.5-35.4-65.8
			c-22.8-31.2-38.2-65.7-48.1-103c-2.8-10.4-6.8-20.6-11.6-30.2c-11.3-22.6-23.3-44.9-35.1-67.3c-10.7-20.4-20.5-41.1-27.6-63.1
			c-10.8-33.4-26.4-64.4-46.2-93.2c-19.8-28.8-29.8-60.7-32.4-95.3c-0.8-10.1-2.1-20.2-3.2-30.3C795.9,1,817.2,1,838.6,1z"/>
		<linearGradient id="SVGID_9_" gradientUnits="userSpaceOnUse" x1="1071.4423" y1="400.2339" x2="1719.7876" y2="400.2339">
			<stop  offset="0" style="stop-color:#5C5A5C"/>
			<stop  offset="1" style="stop-color:#000000"/>
		</linearGradient>
		<path class="st8" d="M1129.4,1c1.4,2.4,2.6,5,4.3,7.2c9.9,13,19,26.7,30.2,38.5c23.8,25.2,42.8,53.7,58.8,84.1
			c19.4,36.8,43.5,69.7,74,98c16.6,15.4,29.5,33.9,43.6,51.3c16.9,20.8,34.3,41.2,51.6,61.7c7.7,9.1,17.9,15.3,27.8,21.8
			c25.5,16.6,51.7,32.5,72.9,54.8c19.1,20,38.5,39.8,56.1,61c13.7,16.4,25.7,34.5,37.2,52.6c16.6,26.1,33.1,52.4,47.6,79.7
			c9.3,17.5,15.1,36.9,22.5,55.4c7.6,18.8,14.4,38,23.2,56.3c9.7,20.2,21.3,39.5,32.1,59.3c2.9,5.3,5.6,10.7,8.4,16.1
			c-0.5,0.3-1,0.6-1.5,0.9c-2.8-4-5.8-7.9-8.3-12.1c-21.3-34.2-42.8-68.3-61.7-103.9c-12.1-22.8-23.8-45.8-36.2-68.4
			c-4.8-8.7-10.1-17.3-16.2-25.1c-19-23.9-37.8-47.9-57.9-70.7c-26.8-30.4-56.5-58-87.4-84.2c-28.2-23.9-55.4-48.7-80.1-76.5
			c-44.4-49.9-93.8-94.6-146.3-135.9c-19.6-15.5-38.8-31.5-58.8-46.5c-26.4-20-46.4-44.7-58.7-75.5c-10-24.9-20.7-49.4-30.2-74.5
			c-3-7.9-3.4-16.8-5-25.2C1090.8,1,1110.1,1,1129.4,1z"/>
		<linearGradient id="SVGID_10_" gradientUnits="userSpaceOnUse" x1="907.7571" y1="732.3781" x2="1205.3724" y2="732.3781">
			<stop  offset="0" style="stop-color:#5C5A5C"/>
			<stop  offset="1" style="stop-color:#000000"/>
		</linearGradient>
		<path class="st9" d="M1138.4,1081c0-0.6,0.2-1.4-0.1-1.9c-13.7-30.2-21.9-62.1-30.3-93.9c-5.1-19.4-13-37.7-22.3-55.5
			c-13.3-25.4-21.1-52.8-28.1-80.4c-0.6-2.6-1.1-5.3-2.3-7.6c-11.9-23-21.2-47-29.5-71.5c-4-11.8-9.4-23.1-14.5-34.5
			c-7.8-17.5-15.4-35.1-23.8-52.3c-12.4-25.3-17-52.3-20-79.9c-4.8-45-10.5-89.9-28-132.3c-4.8-11.7-10.2-23.2-15.8-34.5
			c-7.8-15.7-11.6-32.5-15.9-49.3c-0.2-0.9,0-2,0-3.8c0.9,1,1.4,1.4,1.6,1.9c10.5,28.4,25.9,54.3,40.3,80.7
			c20.9,38.4,35.4,79.2,42.5,122.5c1.7,10.5,3.4,21.1,6.2,31.3c3.8,13.7,7.8,27.6,13.5,40.6c12,27.8,25.7,54.9,37.7,82.7
			c8.1,18.8,13.5,38.7,21.9,57.3c17.7,39.6,38.6,77.5,64.7,112.3c15.6,20.7,25.4,44.4,35,68.2c12.6,31.2,23,63.1,32.5,95.4
			c0.4,1.4,1.1,2.8,1.6,4.2C1183.1,1081,1160.7,1081,1138.4,1081z"/>
		<linearGradient id="SVGID_11_" gradientUnits="userSpaceOnUse" x1="1544.1958" y1="226" x2="1920.9995" y2="226">
			<stop  offset="0" style="stop-color:#5C5A5C"/>
			<stop  offset="1" style="stop-color:#000000"/>
		</linearGradient>
		<path class="st10" d="M1557.2,1c8.8,18.3,22.8,32.4,38.4,44.6c14.7,11.5,30.2,21.9,45.5,32.6c28.1,19.6,56.8,38.5,84.5,58.6
			c16.7,12.1,32.2,25.8,47.9,39.2c50,42.9,96.4,89.5,143.3,135.6c1.3,1.2,2.8,2.2,4.2,3.3c0,45.3,0,90.7,0,136c-0.5-1-1.2-2-1.6-3.1
			c-6.3-18.1-16.9-33.5-29.8-47.4c-22.9-24.8-45.8-49.8-68.5-74.8c-28.1-30.9-52.6-64.5-76.6-98.6c-22.4-31.7-44.5-63.7-72-91.2
			c-9.5-9.5-20-18.1-30-27.1c-16.9-15.3-33.9-30.6-50.8-45.8c-12.5-11.2-23.6-23.4-31.9-38.1c-4.6-8.2-10.3-15.9-15.5-23.9
			C1548.5,1,1552.9,1,1557.2,1z"/>
		<linearGradient id="SVGID_12_" gradientUnits="userSpaceOnUse" x1="958.501" y1="383.2464" x2="1323.4442" y2="383.2464">
			<stop  offset="0" style="stop-color:#5C5A5C"/>
			<stop  offset="1" style="stop-color:#000000"/>
		</linearGradient>
		<path class="st11" d="M1013.5,1c2.9,8.5,6.4,16.8,8.5,25.5c6.7,28,13,56,19.1,84.1c6.2,28.2,14.5,55.6,26,82.2
			c11.4,26.4,21,53.6,32.1,80.1c6.6,15.8,13,32,22.4,46.1c22.3,33.8,37.9,70.6,52.8,107.9c14.6,36.7,23.5,75.2,35,112.9
			c9.7,31.8,21.8,62.8,33.2,94c5.4,14.9,15.4,27.1,25.3,39.3c22,27.3,40.5,57,55.1,88.9c0.5,1,0.7,2.1,0.5,3.5
			c-7.2-10.7-14.8-21.1-21.6-32c-13.1-21-27.9-40.6-45.3-58.2c-3.7-3.8-7.1-8-10-12.4c-14.4-22-28-44.5-38-69
			c-10-24.5-21-48.5-31-73c-18.4-45.1-35.9-90.7-55-135.5c-7.1-16.6-16.9-32.1-26.9-47.2c-15.4-23.2-27.4-47.9-37-73.9
			c-11.2-30.1-22.4-60.3-39.3-87.8c-18.4-29.7-32.2-61.4-39.5-95.5c-5.8-27-12.1-53.8-21.1-80C976.8,1,995.1,1,1013.5,1z"/>
		<linearGradient id="SVGID_13_" gradientUnits="userSpaceOnUse" x1="1350.2969" y1="265.1542" x2="1913.3062" y2="265.1542">
			<stop  offset="0" style="stop-color:#5C5A5C"/>
			<stop  offset="1" style="stop-color:#000000"/>
		</linearGradient>
		<path class="st12" d="M1449.2,1c6.2,5.8,12.8,11.2,18.6,17.4c9.8,10.6,20.6,20.7,28.4,32.6c19.1,29.2,43.1,53.3,70.1,74.7
			c18.5,14.7,37.8,28.4,56.4,43c17.4,13.7,33.2,29.1,47.1,46.6c20.3,25.5,42.1,49.9,62.3,75.6c19.7,25.1,43.6,46.3,64.9,69.8
			c26.8,29.7,51.6,60.9,71.1,96.2c10.7,19.5,23.8,37.7,35.8,56.4c3.1,4.8,6.2,9.5,9.3,14.3c-0.7,0.6-1.3,1.1-2,1.7
			c-1.6-2-3.3-3.8-4.7-5.9c-20.2-27.9-42.4-54.2-61.5-83c-12.1-18.3-27.2-35-42.5-50.8c-19.6-20.2-41.4-38.1-61.1-58.1
			c-26.2-26.5-51.1-54.4-77.1-81.1c-24.1-24.7-49.1-48.6-77.1-68.8c-23.8-17.3-49.1-32.6-73.5-49.1c-25.1-17-49.8-34.5-74.7-51.7
			c-16.3-11.2-33.3-21.6-48.8-33.8c-16.1-12.7-30.6-27.3-40-46.1C1383.3,1,1416.3,1,1449.2,1z"/>
		<linearGradient id="SVGID_14_" gradientUnits="userSpaceOnUse" x1="1.9995" y1="845.5" x2="395.7943" y2="845.5">
			<stop  offset="0" style="stop-color:#5C5A5C"/>
			<stop  offset="1" style="stop-color:#000000"/>
		</linearGradient>
		<path class="st13" d="M389.8,1081c-3.6-4.6-6.9-9.6-11-13.8c-23.1-23-46.8-45.4-69.7-68.7c-27.5-27.9-49.1-60.5-71-92.7
			c-26.6-39.2-59.7-71.3-98.6-97.9c-16.9-11.6-33-24.1-47.9-38.3c-11-10.5-23.5-19.5-35.6-28.9C38.2,727.1,20,713.6,2,700
			c0-30,0-60,0-90c4.9,6.1,9.9,12.1,14.7,18.3c13.2,16.9,28.5,31.6,45.9,44.2c20.2,14.7,39.1,31,57,48.5
			c15.8,15.5,32.5,30,48.7,45.2c16.6,15.6,30.1,33.7,41.9,53.2c11.4,18.8,24.5,36.5,35.8,55.4c12.2,20.4,23.7,41.3,34.6,62.4
			c11.9,23,25.7,44.7,42.6,64.4c19.5,22.8,39.4,45.1,61.2,65.8c4.3,4.1,7.7,9.1,11.6,13.7C393.8,1081,391.8,1081,389.8,1081z"/>
		<linearGradient id="SVGID_15_" gradientUnits="userSpaceOnUse" x1="1.9995" y1="923" x2="266.8615" y2="923">
			<stop  offset="0" style="stop-color:#5C5A5C"/>
			<stop  offset="1" style="stop-color:#000000"/>
		</linearGradient>
		<path class="st14" d="M2,765c24.2,26.3,53.4,47.2,79.1,71.9c37.4,35.8,76.8,69.7,108.9,110.6c18.8,23.9,34.2,50,47.9,77.1
			c9.5,18.9,19.3,37.6,29,56.4c-8,0-16,0-24,0c-1-1.9-1.9-3.9-3.2-5.6c-12.4-16.1-24.8-32.2-37.2-48.3c-9.9-12.8-20-25.4-29.8-38.2
			c-7.8-10.1-14.2-21.7-23.4-30.4c-25-23.8-51.8-45.4-81.8-62.8c-16.7-9.7-32.8-20.3-49.1-30.7C12.7,861.4,7.4,857,2,853
			C2,823.7,2,794.3,2,765z"/>
		<linearGradient id="SVGID_16_" gradientUnits="userSpaceOnUse" x1="1.9995" y1="996" x2="202.8948" y2="996">
			<stop  offset="0" style="stop-color:#5C5A5C"/>
			<stop  offset="1" style="stop-color:#000000"/>
		</linearGradient>
		<path class="st15" d="M2,911c7,6.8,14.8,13,21,20.4c18,21.7,39.2,39.9,61.6,56.6c25.3,19,51.8,36.3,76.8,55.6
			c14.7,11.3,27.7,24.8,41.5,37.4c-39,0-78,0-116.9,0c-1-1.9-1.9-3.8-3-5.5c-4.4-6.6-9.3-13-13.4-19.8
			c-14.1-23.7-27.4-47.9-41.9-71.4c-7.5-12.1-17-22.9-25.6-34.3C2,937,2,924,2,911z"/>
		<linearGradient id="SVGID_17_" gradientUnits="userSpaceOnUse" x1="888.5792" y1="937.4076" x2="1120.4167" y2="937.4076">
			<stop  offset="0" style="stop-color:#5C5A5C"/>
			<stop  offset="1" style="stop-color:#000000"/>
		</linearGradient>
		<path class="st16" d="M1063.4,1081c-0.4-1.1-0.6-2.2-1.1-3.2c-9.5-20.5-19.6-40.8-28.5-61.6c-11.2-26.3-26.3-49.4-48-68.5
			c-9.8-8.6-18.6-18.7-26.4-29.2c-14-18.8-27-38.4-40.1-57.9c-3.9-5.8-6.6-12.3-9.7-18.5c-6.2-12.7-12.3-25.5-18.3-38.2
			c-1.5-3.1-2.6-6.3-2.9-10c0.5,0.5,1.1,0.9,1.5,1.5c10.6,15.3,20.7,31,31.7,46c21.4,29.2,47.4,54.2,75.6,76.5
			c25.7,20.2,46,44.7,64.2,71.3c6.7,9.8,13.5,19.4,20.7,28.8c12.3,15.9,23.2,32.5,31.8,50.7c2,4.2,4.2,8.3,6.3,12.5
			C1101.4,1081,1082.4,1081,1063.4,1081z"/>
		<linearGradient id="SVGID_18_" gradientUnits="userSpaceOnUse" x1="1652.1396" y1="106.6011" x2="1893.8618" y2="106.6011">
			<stop  offset="0" style="stop-color:#5C5A5C"/>
			<stop  offset="1" style="stop-color:#000000"/>
		</linearGradient>
		<path class="st17" d="M1723.1,1c6.5,8.4,13.1,16.7,19.6,25.1c24.5,32.2,48.1,65.1,73.6,96.5c17.8,21.9,38.2,41.7,57.2,62.6
			c6.4,7,12.3,14.4,18.3,21.7c1.1,1.4,1.8,3.1,2.1,5.2c-2.8-2.2-5.5-4.5-8.4-6.5c-17.6-12-35.4-23.6-52.9-35.8
			c-19.6-13.7-39.2-27.6-58.4-42c-21.6-16.2-38.6-37.1-56.6-56.9c-21.2-23.3-43-45.9-64.6-68.8c-0.3-0.4-0.6-0.8-0.9-1.2
			C1675.8,1,1699.4,1,1723.1,1z"/>
		<linearGradient id="SVGID_19_" gradientUnits="userSpaceOnUse" x1="1.9995" y1="146.8164" x2="219.8576" y2="146.8164">
			<stop  offset="0" style="stop-color:#5C5A5C"/>
			<stop  offset="1" style="stop-color:#000000"/>
		</linearGradient>
		<path class="st18" d="M29,1c15.1,25.5,30.9,50.6,45.2,76.5c8.8,15.9,16.5,32.3,27.1,47.1c11.2,15.7,23.2,30.9,34.1,46.8
			c12.2,17.8,23.5,36.3,35.4,54.4c5.4,8.2,11,16.2,17,24c10.8,14.1,21.9,28,32.1,42.9c-1.2-0.9-2.5-1.7-3.4-2.7
			c-26.9-29.1-55.1-57-79.1-88.6c-9.5-12.4-18.9-25-29.4-36.5c-15-16.3-30.7-31.7-49.3-44.2c-19-12.8-38.8-24.6-55.3-41
			C3,79.3,2.4,79.2,2,79C2,53.1,2,27.2,2,1C11,1,20,1,29,1z"/>
		<linearGradient id="SVGID_20_" gradientUnits="userSpaceOnUse" x1="1796.0646" y1="94" x2="1920.9995" y2="94">
			<stop  offset="0" style="stop-color:#5C5A5C"/>
			<stop  offset="1" style="stop-color:#000000"/>
		</linearGradient>
		<path class="st19" d="M1921,187c-9-17.4-17.1-35.4-27.2-52.1c-28-46.1-56.8-91.7-95-130.3c-1-1-1.8-2.4-2.7-3.5
			c22.7,0,45.3,0,68,0c0.9,1.2,1.7,2.4,2.7,3.5c13.4,15,26.8,29.9,40.1,44.9c4.8,5.4,9.4,11.1,14.2,16.6
			C1921,106.3,1921,146.7,1921,187z"/>
		<linearGradient id="SVGID_21_" gradientUnits="userSpaceOnUse" x1="1750.3285" y1="696.8646" x2="1920.9995" y2="696.8646">
			<stop  offset="0" style="stop-color:#5C5A5C"/>
			<stop  offset="1" style="stop-color:#000000"/>
		</linearGradient>
		<path class="st20" d="M1921,811c-6.7-8.1-13.2-16.3-20.1-24.1c-10.2-11.4-20.2-23.1-31.2-33.6c-23.7-22.8-46.6-46.4-66.2-72.7
			c-17.5-23.5-32.8-48.6-43.1-76.3c-1.8-5-4.6-9.6-6.9-14.4c-1-2.1-2.1-4.3-3.1-6.4c0.4-0.2,0.8-0.4,1.3-0.6c1.4,2.4,2.6,4.8,4.1,7
			c16.7,25.6,31.3,52.9,53.6,74.4c13,12.4,26.9,23.8,40.4,35.8c23.2,20.7,46.4,41.5,69.6,62.3c0.5,0.4,1.1,0.5,1.7,0.8
			C1921,779,1921,795,1921,811z"/>
		<linearGradient id="SVGID_22_" gradientUnits="userSpaceOnUse" x1="503.3999" y1="995.2633" x2="693.6391" y2="995.2633">
			<stop  offset="0" style="stop-color:#5C5A5C"/>
			<stop  offset="1" style="stop-color:#000000"/>
		</linearGradient>
		<path class="st21" d="M667.7,1081c-1.8-3.3-2.9-7.2-5.4-9.8c-27.8-27.9-56-55.5-83.8-83.5c-12-12.2-23-25.4-34.8-37.8
			c-9.4-9.9-19.3-19.3-29-28.8c-3.6-3.5-7.5-6.9-11.2-10.3c0.4-0.4,0.8-0.9,1.2-1.3c3.5,2.4,7.1,4.7,10.5,7.3
			c5.3,4.1,10.5,8.2,15.5,12.5c27.1,23.3,57.6,41.8,87.4,61.3c24.7,16.2,44.1,36.7,58.4,62.3c5.4,9.6,11.5,18.7,17.3,28
			C685,1081,676.3,1081,667.7,1081z"/>
		<linearGradient id="SVGID_23_" gradientUnits="userSpaceOnUse" x1="1275.5717" y1="975.1074" x2="1370.2865" y2="975.1074">
			<stop  offset="0" style="stop-color:#5C5A5C"/>
			<stop  offset="1" style="stop-color:#000000"/>
		</linearGradient>
		<path class="st22" d="M1341.3,1081c-7.7-20.2-15.7-40.3-23-60.6c-3.8-10.6-6-21.8-9.2-32.6c-5.2-17.5-11.6-34.7-15.8-52.5
			c-5-21.2-9.9-42.4-17.6-62.8c-0.3-0.9-0.3-1.8,0.6-3.3c1.9,3.2,4.2,6.2,5.5,9.7c5.7,14.5,12.3,28.8,16.4,43.8
			c6.7,24.6,18.1,46.7,30.7,68.5c4.2,7.3,9.2,14.3,13.1,21.8c5.5,10.8,10.6,21.8,15.2,32.9c4.8,11.5,8.8,23.3,13.1,35
			C1360.6,1081,1351,1081,1341.3,1081z"/>
		<linearGradient id="SVGID_24_" gradientUnits="userSpaceOnUse" x1="213.2758" y1="1003.475" x2="350.8177" y2="1003.475">
			<stop  offset="0" style="stop-color:#5C5A5C"/>
			<stop  offset="1" style="stop-color:#000000"/>
		</linearGradient>
		<path class="st23" d="M318.8,1081c-1.7-2-3.2-4.2-5.1-5.9c-25.3-21.8-45-47.9-60.9-77.3c-12.2-22.7-25.5-44.8-38.3-67.2
			c-0.8-1.4-1.4-2.8-1.3-4.7c5.5,7.3,11.6,14.2,16.2,22c8.2,14.1,18.7,25.7,31,36.2c29,24.6,55.4,52,79.8,81.1
			c4,4.8,7,10.5,10.5,15.8C340.2,1081,329.5,1081,318.8,1081z"/>
		<linearGradient id="SVGID_25_" gradientUnits="userSpaceOnUse" x1="1.9995" y1="1053" x2="42.9781" y2="1053">
			<stop  offset="0" style="stop-color:#5C5A5C"/>
			<stop  offset="1" style="stop-color:#000000"/>
		</linearGradient>
		<path class="st24" d="M2,1025c8.5,12.2,16.9,24.5,25.6,36.6c4.8,6.7,10.3,12.9,15.4,19.4c-13.6,0-27.2,0-41,0
			C2,1062.3,2,1043.7,2,1025z"/>
	</g>
</g>
</svg>
