<?xml version="1.0" encoding="utf-8"?>
<!-- Generator: Adobe Illustrator 23.0.5, SVG Export Plug-In . SVG Version: 6.00 Build 0)  -->
<svg version="1.1" id="Layer_1" xmlns="http://www.w3.org/2000/svg" xmlns:xlink="http://www.w3.org/1999/xlink" x="0px" y="0px"
	 viewBox="0 0 60 60" style="enable-background:new 0 0 60 60;" xml:space="preserve">
<style type="text/css">
	.st0{fill:#FFFFFF;}
</style>
<g>
	<path class="st0" d="M1,16.5c-0.6,0-1-0.4-1-1V1c0-0.6,0.4-1,1-1s1,0.4,1,1v14.5C2,16,1.5,16.5,1,16.5z"/>
	<path class="st0" d="M5.5,9.2c-0.6,0-1-0.4-1-1V1c0-0.6,0.4-1,1-1c0.6,0,1,0.4,1,1v7.2C6.5,8.8,6.1,9.2,5.5,9.2z"/>
	<path class="st0" d="M19.3,2c-0.5,0-1-0.4-1-1s0.4-1,1-1h0.8c0.5,0,1,0.4,1,1s-0.4,1-1,1H19.3z"/>
	<path class="st0" d="M5.2,34.5c-0.6,0-1-0.4-1-1c0-0.5,0.4-1,1-1h11.4c0.6,0,1,0.4,1,1c0,0.6-0.4,1-1,1H5.2z"/>
	<path class="st0" d="M5.2,41.2c-0.6,0-1-0.4-1-1c0-0.6,0.4-1,1-1h5.4c0.6,0,1,0.4,1,1c0,0.5-0.4,1-1,1H5.2z"/>
	<path class="st0" d="M55,52.2c-0.6,0-1-0.4-1-1v-7c0-0.5,0.4-1,1-1c0.5,0,1,0.4,1,1v7C56,51.8,55.5,52.2,55,52.2z"/>
	<path class="st0" d="M40.2,60c-0.6,0-1-0.4-1-1c0-0.5,0.4-1,1-1h0.8c0.5,0,1,0.4,1,1c0,0.6-0.4,1-1,1H40.2z"/>
	<path class="st0" d="M59,60c-0.5,0-1-0.4-1-1l0-14.8c0-0.5,0.4-1,1-1c0.5,0,1,0.4,1,1L60,59C60,59.5,59.5,60,59,60z"/>
	<path class="st0" d="M5.2,26.5c-0.6,0-1-0.4-1-1c0-0.5,0.4-1,1-1h14.2c0.5,0,1,0.4,1,1s-0.4,1-1,1H5.2z"/>
	<path class="st0" d="M5.2,37.9c-0.6,0-1-0.4-1-1c0-0.6,0.4-1,1-1h8.9c0.6,0,1,0.4,1,1c0,0.5-0.4,1-1,1H5.2z"/>
	<ellipse class="st0" cx="49.5" cy="11.6" rx="1" ry="1.1"/>
	<ellipse class="st0" cx="53.3" cy="11.6" rx="1" ry="1.1"/>
	<ellipse class="st0" cx="30.2" cy="53.8" rx="2.1" ry="2.2"/>
	<path class="st0" d="M27.3,5.7c-0.5,0-1-0.4-1-1c0-0.6,0.4-1,1-1H33c0.3,0,0.5,0.1,0.7,0.3C33.9,4.2,34,4.4,34,4.7c0,0.6-0.4,1-1,1
		L27.3,5.7L27.3,5.7z"/>
	<path class="st0" d="M45.6,60c-0.6,0-1-0.4-1-1v-9L22,50l5,4.9c0.2,0.2,0.3,0.5,0.3,0.8l0,2.4h8.3c0.5,0,1,0.4,1,1c0,0.5-0.4,1-1,1
		l-20.9,0c-0.5,0-1-0.4-1-1l0-13.7H1c-0.6,0-1-0.4-1-1V21.6c0-0.5,0.4-1,1-1h12.8V1c0-0.6,0.4-1,1-1c0.6,0,1,0.4,1,1v6.3l28.8,0V2
		H24.7c-0.5,0-1-0.4-1-1c0-0.6,0.4-1,1-1h20.9c0.5,0,1,0.4,1,1v6.3H59c0.6,0,1,0.4,1,1v7.1c0,0.6-0.4,1-1,1l-12.4,0v1.7H59
		c0.6,0,1,0.4,1,1v20.8c0,0.6-0.4,1-1,1H46.6V59C46.6,59.6,46.1,60,45.6,60z M15.8,58h9.6l0-2l-6.2-6h-3.4C15.8,50,15.8,58,15.8,58z
		 M15.8,48.1h2.5l0-2.8h-2.5V48.1z M20.2,48l24.3,0l0-7.2H32.1c-0.5,0-1-0.4-1-1V19c0-0.5,0.4-1,1-1h12.4v-1.7H21.7l0,0.1
		c-0.4,0.6-1,0.9-1.6,0.9c-1.1,0-1.9-0.9-1.9-2s0.9-2,1.9-2c0.6,0,1.2,0.3,1.6,0.9l0,0.1h9.4V9.2H15.7v11.3h12.1c0.5,0,1,0.4,1,1
		v22.7c0,0.6-0.4,1-1,1h-7.6L20.2,48z M19.1,36.4c1.1,0,2,0.9,2,1.9c0,0.6-0.3,1.2-0.9,1.6L20.1,40l0.1,3.3h6.7V30.5H2v12.8h16.2
		L18.1,40l-0.1,0c-0.6-0.4-0.9-1-0.9-1.6C17.1,37.3,18,36.4,19.1,36.4z M33.2,38.9H58v-2.7H33.2V38.9z M33.2,34.2H58V20.1H33.2V34.2
		z M2,28.5h24.8v-5.9H2V28.5z M33.2,14.4H58V9.3l-24.8,0V14.4z"/>
	<path class="st0" d="M50.1,30.4c-0.4,0-0.7-0.2-0.9-0.5c-0.1-0.2-0.2-0.5-0.1-0.8c0.1-0.3,0.2-0.5,0.5-0.6l2.7-1.5l-3-2
		c-0.5-0.3-0.6-0.9-0.3-1.4c0.2-0.3,0.5-0.4,0.8-0.4c0.2,0,0.4,0.1,0.6,0.2l4.3,2.9c0.3,0.2,0.5,0.5,0.5,0.9c0,0.4-0.2,0.7-0.5,0.9
		l-4.1,2.3C50.5,30.4,50.3,30.4,50.1,30.4L50.1,30.4z"/>
	<ellipse class="st0" cx="45.7" cy="11.6" rx="1" ry="1.1"/>
	<path class="st0" d="M44.1,31.4c-0.1,0-0.3,0-0.4-0.1c-0.5-0.2-0.7-0.8-0.5-1.3l3-6.5c0.2-0.3,0.5-0.6,0.9-0.6c0.1,0,0.3,0,0.4,0.1
		c0.2,0.1,0.4,0.3,0.5,0.6c0.1,0.3,0.1,0.5,0,0.8l-3,6.5C44.8,31.1,44.5,31.4,44.1,31.4L44.1,31.4z"/>
	<path class="st0" d="M41,30.4c-0.2,0-0.3,0-0.5-0.1L36.4,28c-0.3-0.2-0.5-0.5-0.5-0.9c0-0.4,0.2-0.7,0.5-0.9l4.3-2.9
		c0.2-0.1,0.4-0.2,0.6-0.2c0.3,0,0.6,0.2,0.8,0.4c0.3,0.5,0.2,1.1-0.3,1.4l-3,2l2.7,1.5c0.5,0.3,0.7,0.9,0.4,1.4
		C41.7,30.2,41.4,30.4,41,30.4L41,30.4z"/>
</g>
</svg>
