<?xml version="1.0" encoding="utf-8"?>
<!-- Generator: Adobe Illustrator 23.0.5, SVG Export Plug-In . SVG Version: 6.00 Build 0)  -->
<svg version="1.1" id="Layer_1" xmlns="http://www.w3.org/2000/svg" xmlns:xlink="http://www.w3.org/1999/xlink" x="0px" y="0px"
	 viewBox="0 0 60 60" style="enable-background:new 0 0 60 60;" xml:space="preserve">
<style type="text/css">
	.st0{fill:#FFFFFF;}
</style>
<g>
	<path class="st0" d="M30,48.4c-10.1,0-18.4-8.3-18.4-18.4c0-10.1,8.3-18.4,18.4-18.4c10.1,0,18.4,8.2,18.4,18.4
		C48.4,40.1,40.1,48.4,30,48.4z M30,13.5c-9.1,0-16.5,7.4-16.5,16.5c0,9.1,7.4,16.5,16.5,16.5c9.1,0,16.5-7.4,16.5-16.5
		C46.5,20.9,39.1,13.5,30,13.5z"/>
	<path class="st0" d="M30.4,43c-4.7,0-8.2-1.9-8.2-4.3V20.4c0-2.5,3.5-4.3,8.2-4.3c4.7,0,8.2,1.9,8.2,4.3v18.3
		C38.7,41.2,35.1,43,30.4,43z M24.1,38.7c0,1,2.5,2.5,6.4,2.5c3.9,0,6.4-1.5,6.4-2.5v-3.3c-1.5,1-3.8,1.5-6.4,1.5s-4.9-0.6-6.4-1.5
		C24.1,35.4,24.1,38.7,24.1,38.7z M24.1,32.6c0,1,2.5,2.5,6.4,2.5c3.9,0,6.4-1.5,6.4-2.5v-3.3c-1.5,1-3.8,1.5-6.4,1.5
		s-4.9-0.6-6.4-1.5C24.1,29.3,24.1,32.6,24.1,32.6z M24.1,26.5c0,1,2.5,2.5,6.4,2.5c3.9,0,6.4-1.5,6.4-2.5v-3.3
		c-2.2,1.4-5.4,1.5-6.4,1.5c-2.5,0-4.9-0.6-6.4-1.5C24.1,23.2,24.1,26.5,24.1,26.5z M30.4,17.9c-3.9,0-6.4,1.5-6.4,2.5
		s2.5,2.5,6.4,2.5c3.9,0,6.4-1.5,6.4-2.5S34.3,17.9,30.4,17.9z"/>
	<path class="st0" d="M26.1,60c-0.4,0-0.8-0.3-0.9-0.7l-1.4-6.9c-1.9-0.5-3.6-1.2-5.2-2.2l-5.9,3.9c-0.2,0.1-0.3,0.2-0.5,0.2
		c-0.2,0-0.5-0.1-0.7-0.3L6,48.5c-0.3-0.3-0.4-0.8-0.1-1.2l3.9-5.9c-0.9-1.7-1.7-3.4-2.2-5.2l-6.9-1.4C0.3,34.7,0,34.3,0,33.9v-7.8
		c0-0.4,0.3-0.8,0.7-0.9l6.9-1.4c0.5-1.8,1.2-3.6,2.2-5.2l-3.9-5.9c-0.2-0.4-0.2-0.9,0.1-1.2L11.6,6c0.2-0.2,0.4-0.3,0.7-0.3
		c0.2,0,0.4,0.1,0.5,0.2l5.9,3.9c1.6-0.9,3.3-1.6,5.2-2.2l1.4-6.9C25.3,0.3,25.7,0,26.1,0h7.8c0.4,0,0.8,0.3,0.9,0.7l1.4,6.9
		c1.8,0.5,3.6,1.2,5.2,2.2l5.9-3.9c0.2-0.1,0.3-0.2,0.5-0.2c0.2,0,0.5,0.1,0.7,0.3l5.5,5.5c0.3,0.3,0.4,0.8,0.1,1.2l-3.9,5.9
		c0.9,1.6,1.6,3.3,2.2,5.2l6.9,1.4c0.4,0.1,0.7,0.5,0.7,0.9v7.8c0,0.4-0.3,0.8-0.7,0.9l-6.9,1.4c-0.5,1.8-1.2,3.6-2.2,5.2l3.9,5.9
		c0.2,0.4,0.2,0.9-0.1,1.2L48.5,54c-0.2,0.2-0.4,0.3-0.7,0.3l0,0c-0.2,0-0.4-0.1-0.5-0.2l-5.9-3.9c-1.6,0.9-3.4,1.7-5.2,2.2
		l-1.4,6.9c-0.1,0.4-0.5,0.7-0.9,0.7H26.1z M33.2,58.2l1.4-6.7c0.1-0.3,0.3-0.6,0.7-0.7c2.1-0.5,4-1.3,5.8-2.4
		c0.1-0.1,0.3-0.1,0.5-0.1c0.2,0,0.4,0.1,0.5,0.2l5.7,3.8l4.5-4.5L48.3,42c-0.2-0.3-0.2-0.7,0-1c1.1-1.8,1.9-3.7,2.4-5.8
		c0.1-0.3,0.4-0.6,0.7-0.7l6.8-1.4v-6.3l-6.8-1.3c-0.3-0.1-0.6-0.3-0.7-0.7c-0.5-2.1-1.3-4-2.4-5.8c-0.2-0.3-0.2-0.7,0-1l3.8-5.8
		l-4.5-4.5L42,11.7c-0.2,0.1-0.3,0.2-0.5,0.2c-0.2,0-0.3,0-0.5-0.1c-1.8-1.1-3.7-1.9-5.8-2.4c-0.3-0.1-0.6-0.4-0.7-0.7l-1.4-6.7
		h-6.3l-1.3,6.7c-0.1,0.3-0.3,0.6-0.7,0.7c-2.1,0.5-4,1.3-5.8,2.4c-0.1,0.1-0.3,0.1-0.5,0.1c-0.2,0-0.4-0.1-0.5-0.2l-5.7-3.8
		l-4.5,4.5l3.8,5.7c0.2,0.3,0.2,0.7,0,1c-1.1,1.8-1.9,3.8-2.4,5.8c-0.1,0.3-0.4,0.6-0.7,0.7l-6.7,1.3v6.3l6.7,1.4
		c0.3,0.1,0.6,0.3,0.7,0.7c0.5,2,1.3,4,2.4,5.8c0.2,0.3,0.2,0.7,0,1l-3.8,5.7l4.5,4.5l5.7-3.8c0.2-0.1,0.3-0.2,0.5-0.2
		c0.2,0,0.3,0,0.5,0.1c1.7,1.1,3.7,1.9,5.8,2.4c0.3,0.1,0.6,0.4,0.7,0.7l1.3,6.7L33.2,58.2L33.2,58.2z"/>
</g>
</svg>
