<?xml version="1.0" encoding="utf-8"?>
<!-- Generator: Adobe Illustrator 23.0.5, SVG Export Plug-In . SVG Version: 6.00 Build 0)  -->
<svg version="1.1" id="Layer_1" xmlns="http://www.w3.org/2000/svg" xmlns:xlink="http://www.w3.org/1999/xlink" x="0px" y="0px"
	 viewBox="0 0 60 60" style="enable-background:new 0 0 60 60;" xml:space="preserve">
<style type="text/css">
	.st0{fill:#FFFFFF;}
</style>
<g>
	<path class="st0" d="M24.8,0c0.7,0,1.4,0.3,1.9,0.8l3.1,3.3c0.1,0.1,0.2,0.2,0.4,0.2h12.7c1.4,0,2.6,1.2,2.6,2.6v14.4
		c0,1.4-1.2,2.6-2.6,2.6H17.1c-1.4,0-2.6-1.2-2.6-2.6V2.6c0-1.4,1.2-2.6,2.6-2.6H24.8z M43.5,6.3H30.2c-0.7,0-1.4-0.3-1.9-0.8
		l-3.1-3.3C25.1,2,24.9,2,24.8,2h-7.7c-0.3,0-0.6,0.3-0.6,0.6v19.3h26.9C43.5,21.8,43.5,6.3,43.5,6.3z"/>
	<path class="st0" d="M53.3,11.9c0.7,0,1.4,0.6,1.4,1.4v2.1H59c0.6,0,1,0.5,1,1v18.1c0,0.6-0.5,1-1,1H44.7l-14.3,6.4
		c-0.1,0.1-0.3,0.1-0.4,0.1s-0.3,0-0.4-0.1l-14.2-6.3L2,35.5v16.1h3.4v-2.1c0-0.8,0.6-1.4,1.4-1.4c0.3,0,0.6,0.1,0.8,0.3l4.3,3.1
		c0.3,0.3,0.6,0.7,0.6,1.1c0,0.4-0.2,0.8-0.5,1.1l-4.3,3.1C7.3,56.9,7,57,6.7,57c-0.7,0-1.4-0.6-1.4-1.4v-2.1H1c-0.6,0-1-0.5-1-1
		V34.5c0-0.6,0.5-1,1-1h14.3l14.3-6.4c0.1-0.1,0.3-0.1,0.4-0.1s0.3,0,0.4,0.1l14.2,6.3l13.3,0V17.4h-3.4v2.1c0,0.8-0.6,1.4-1.4,1.4
		c-0.3,0-0.6-0.1-0.8-0.3l-4.3-3.1c-0.3-0.3-0.6-0.7-0.6-1.1c0-0.4,0.2-0.8,0.5-1.1l4.3-3.1C52.7,12,53,11.9,53.3,11.9z M52.6,14.6
		l-2.5,1.8l2.5,1.8V14.6z M42,34.5l-12-5.3l-12,5.3l12,5.3L42,34.5z M9.9,52.6l-2.5-1.8v3.6L9.9,52.6z"/>
	<polygon class="st0" points="26.7,33.8 26.6,35.2 25.2,35.2 25.2,33.8 	"/>
	<polygon class="st0" points="30.8,33.8 30.7,35.2 29.3,35.2 29.3,33.8 	"/>
	<polygon class="st0" points="34.8,33.8 34.8,35.2 33.3,35.2 33.4,33.8 	"/>
	<path class="st0" d="M44.5,45.1c0.6,0,1,0.5,1,1V59c0,0.6-0.5,1-1,1h-29c-0.6,0-1-0.5-1-1V46.1c0-0.6,0.5-1,1-1H44.5z M43.5,47.1
		H16.5V58h26.9L43.5,47.1L43.5,47.1z"/>
	<polygon class="st0" points="24.3,51.2 24.4,53.8 21.8,53.9 21.7,51.3 21.8,51.2 	"/>
	<polygon class="st0" points="31.3,51.2 31.3,53.8 28.7,53.9 28.7,51.3 28.7,51.2 	"/>
	<polygon class="st0" points="38.2,51.2 38.3,53.8 35.7,53.9 35.6,51.3 35.7,51.2 	"/>
	<polygon class="st0" points="24.3,12.8 24.4,15.4 21.8,15.4 21.7,12.8 21.8,12.8 	"/>
	<polygon class="st0" points="31.3,12.8 31.3,15.4 28.7,15.4 28.7,12.8 28.7,12.8 	"/>
	<polygon class="st0" points="38.2,12.8 38.3,15.4 35.7,15.4 35.6,12.8 35.7,12.8 	"/>
</g>
</svg>
