<?xml version="1.0" encoding="utf-8"?>
<!-- Generator: Adobe Illustrator 23.0.5, SVG Export Plug-In . SVG Version: 6.00 Build 0)  -->
<svg version="1.1" id="Layer_1" xmlns="http://www.w3.org/2000/svg" xmlns:xlink="http://www.w3.org/1999/xlink" x="0px" y="0px"
	 viewBox="0 0 64.1 60" style="enable-background:new 0 0 64.1 60;" xml:space="preserve">
<style type="text/css">
	.st0{fill:#FFFFFF;}
</style>
<g>
	<path class="st0" d="M12.4,17.2v2H8.6c-1.8,0.2-3.2,1.7-3.2,3.6v28.9H6V22.7c0-1.5,1.1-2.8,2.6-3l0.1,0h3.8v2H8.8
		c-0.5,0.1-0.8,0.5-0.8,1v28.9h48.3V22.7c0-0.5-0.4-1-0.9-1l-3.7,0v-2h3.8l0.1,0c1.5,0.2,2.6,1.5,2.6,3v28.9h0.6V22.7
		c0-1.9-1.4-3.4-3.3-3.6l-3.7,0v-2h3.8c2.9,0.3,5.1,2.7,5.1,5.5v29c0.2,0,0.3,0,0.4,0c0.4,0,0.7,0,1,0c0.2,0,0.4,0,0.6,0
		c0.4,0,0.8,0,1.1,0.3c0.2,0.2,0.2,0.4,0.2,0.7c0,4-3.3,7.3-7.4,7.3H7.4C3.3,60,0,56.7,0,52.6c0-0.6,0.4-1,1-1h2.5V22.7
		c0-2.9,2.2-5.3,5.1-5.5l0,0H12.4z M2.1,53.6C2.5,56.1,4.8,58,7.4,58h49.3c2.7,0,4.9-1.9,5.4-4.5H2.1z"/>
	<path class="st0" d="M9.8,53.6c1.2,0,2.2,1,2.2,2.2c0,1.2-1,2.2-2.2,2.2s-2.2-1-2.2-2.2C7.5,54.6,8.6,53.6,9.8,53.6z M9.8,56.1
		c0.1,0,0.3-0.1,0.3-0.3s-0.1-0.3-0.3-0.3s-0.3,0.1-0.3,0.3S9.6,56.1,9.8,56.1z"/>
	<path class="st0" d="M14.8,53.6c1.2,0,2.2,1,2.2,2.2c0,1.2-1,2.2-2.2,2.2c-1.2,0-2.2-1-2.2-2.2C12.6,54.6,13.6,53.6,14.8,53.6z
		 M14.8,56.1c0.1,0,0.3-0.1,0.3-0.3s-0.1-0.3-0.3-0.3c-0.1,0-0.3,0.1-0.3,0.3S14.7,56.1,14.8,56.1z"/>
	<path class="st0" d="M19.8,53.6c1.2,0,2.2,1,2.2,2.2c0,1.2-1,2.2-2.2,2.2c-1.2,0-2.2-1-2.2-2.2C17.6,54.6,18.6,53.6,19.8,53.6z
		 M19.8,56.1c0.1,0,0.3-0.1,0.3-0.3s-0.1-0.3-0.3-0.3c-0.1,0-0.3,0.1-0.3,0.3S19.7,56.1,19.8,56.1z"/>
	<path class="st0" d="M32.1,0c1.8,0,3.2,1.3,3.5,3C42,4.3,46.9,9.3,48.3,15.7c1.7,0.3,3,1.8,3,3.5c0,1.8-1.3,3.2-3,3.5
		C46.9,29,42,34,35.6,35.4c-0.3,1.7-1.8,3-3.5,3c-1.8,0-3.2-1.3-3.5-3c-6.4-1.4-11.3-6.3-12.7-12.7c-1.7-0.3-3-1.7-3-3.5
		c0-1.8,1.3-3.2,3-3.5C17.3,9.3,22.2,4.4,28.6,3C28.9,1.3,30.3,0,32.1,0z M32.1,5.2c0.9,0,1.6-0.7,1.6-1.6S33,2,32.1,2
		s-1.6,0.7-1.6,1.6C30.5,4.5,31.2,5.2,32.1,5.2z M32.1,7.2c-1.5,0-2.8-0.9-3.3-2.2c-5.4,1.2-9.7,5.5-11,11c1.3,0.5,2.2,1.8,2.2,3.3
		s-0.9,2.8-2.2,3.3c1.3,5.5,5.5,9.7,11,11c0.5-1.3,1.8-2.2,3.3-2.2c1.5,0,2.8,0.9,3.3,2.2c5.5-1.3,9.7-5.5,11-11
		c-1.3-0.5-2.2-1.8-2.2-3.3s0.9-2.8,2.2-3.3c-1.3-5.5-5.5-9.7-11-11C34.8,6.3,33.6,7.2,32.1,7.2z M16.5,20.8c0.9,0,1.6-0.7,1.6-1.6
		s-0.7-1.6-1.6-1.6c-0.9,0-1.6,0.7-1.6,1.6C14.9,20.1,15.6,20.8,16.5,20.8z M47.7,20.8c0.9,0,1.6-0.7,1.6-1.6c0-0.9-0.7-1.6-1.5-1.6
		c-1,0-1.7,0.7-1.7,1.6S46.8,20.8,47.7,20.8z M32.1,36.4c0.9,0,1.6-0.7,1.6-1.6c0-0.9-0.7-1.6-1.6-1.6s-1.6,0.7-1.6,1.6
		S31.2,36.4,32.1,36.4z"/>
	<rect x="10.1" y="42.4" class="st0" width="8.1" height="2"/>
	<rect x="10.1" y="45.5" class="st0" width="8.1" height="2"/>
	<rect x="10.1" y="48.6" class="st0" width="8.1" height="2"/>
	<rect x="46.1" y="42.4" class="st0" width="8.1" height="2"/>
	<rect x="46.1" y="45.5" class="st0" width="8.1" height="2"/>
	<rect x="46.1" y="48.6" class="st0" width="8.1" height="2"/>
	<path class="st0" d="M33.6,8.2c0.5,0,0.9,0.3,1,0.8l0.4,1.9c0.4,0.1,0.8,0.3,1.1,0.5l1.6-1.1c0.1-0.1,0.3-0.2,0.5-0.2
		c0.3,0,0.5,0.1,0.7,0.3l1.9,1.8c0.3,0.4,0.4,0.9,0.1,1.3l-1.1,1.6c0.2,0.4,0.3,0.7,0.5,1.1l1.9,0.4c0.5,0.1,0.8,0.5,0.8,1v2.6
		c0,0.5-0.3,0.9-0.8,1l-1.9,0.4c-0.1,0.4-0.3,0.8-0.5,1.1l1.1,1.6c0.3,0.4,0.2,0.9-0.1,1.3L39,27.5c-0.3,0.2-0.5,0.3-0.7,0.3
		c-0.2,0-0.4-0.1-0.6-0.2l-1.6-1.1c-0.4,0.2-0.7,0.3-1.1,0.5L34.6,29c-0.1,0.5-0.5,0.8-1,0.8h-2.5c-0.5,0-0.9-0.3-1-0.8L29.7,27
		c-0.4-0.1-0.8-0.3-1.1-0.5L27,27.6c-0.1,0.1-0.3,0.2-0.6,0.2c-0.3,0-0.5-0.1-0.7-0.3l-1.9-1.9c-0.3-0.4-0.4-0.9-0.1-1.3l1.1-1.6
		c-0.2-0.4-0.3-0.7-0.5-1.1l-1.9-0.4c-0.5-0.1-0.8-0.5-0.8-1v-2.6c0-0.5,0.3-0.9,0.8-1l1.9-0.4c0.1-0.4,0.3-0.8,0.5-1.1l-1.1-1.6
		c-0.3-0.4-0.2-0.9,0.1-1.3l1.9-1.9c0.3-0.2,0.5-0.3,0.7-0.3l0,0c0.2,0,0.4,0.1,0.6,0.2l1.6,1.1c0.4-0.2,0.7-0.3,1.1-0.5L30,9
		c0.1-0.5,0.5-0.8,1-0.8L33.6,8.2L33.6,8.2z M31.8,10.2L31.5,12c0,0.3-0.3,0.7-0.7,0.8c-0.7,0.1-1.2,0.4-1.7,0.7
		c-0.2,0.1-0.4,0.1-0.5,0.1c-0.2,0-0.4-0.1-0.5-0.2l-1.5-1l-0.7,0.7l1,1.4c0.2,0.4,0.2,0.8,0,1.1c-0.3,0.5-0.5,1.1-0.7,1.7
		c-0.1,0.4-0.4,0.6-0.7,0.7l-1.7,0.3v1c0,0,1.7,0.3,1.8,0.3c0.3,0,0.7,0.3,0.8,0.7c0.1,0.6,0.4,1.2,0.7,1.7c0.2,0.4,0.2,0.8,0,1.1
		l-0.9,1.4l0.7,0.7l1.4-1c0.2-0.1,0.3-0.2,0.5-0.2c0.2,0,0.4,0.1,0.5,0.2c0.6,0.3,1.2,0.6,1.7,0.7c0.4,0.1,0.6,0.4,0.7,0.8l0.3,1.8
		h1l0.3-1.7c0-0.3,0.3-0.7,0.7-0.8c0.7-0.1,1.2-0.4,1.7-0.7c0.2-0.1,0.4-0.1,0.5-0.1c0.2,0,0.4,0.1,0.5,0.2l1.4,1l0.7-0.7l-1-1.4
		c-0.2-0.3-0.2-0.8,0-1.1c0.3-0.5,0.5-1.1,0.7-1.7c0.1-0.4,0.4-0.6,0.8-0.7l1.8-0.3v-1c0,0-1.7-0.3-1.8-0.3c-0.3,0-0.7-0.3-0.8-0.7
		c-0.1-0.7-0.4-1.2-0.7-1.7c-0.2-0.4-0.2-0.8,0-1.1l0.9-1.4l-0.7-0.7l-1.4,1c-0.2,0.1-0.3,0.2-0.5,0.2c-0.2,0-0.4-0.1-0.5-0.2
		c-0.5-0.3-1.1-0.5-1.7-0.7c-0.4-0.1-0.6-0.4-0.7-0.7l-0.3-1.8L31.8,10.2L31.8,10.2z"/>
	<path class="st0" d="M32.3,13.9c2.8,0,5,2.3,5,5s-2.3,5-5,5c-2.8,0-5-2.3-5-5S29.5,13.9,32.3,13.9z M32.3,22c1.7,0,3.1-1.3,3.1-3.1
		s-1.3-3.1-3.1-3.1c-1.7,0-3.1,1.4-3.1,3.1C29.2,20.7,30.6,22,32.3,22z"/>
</g>
</svg>
