<?xml version="1.0" encoding="utf-8"?>
<!-- Generator: Adobe Illustrator 23.0.5, SVG Export Plug-In . SVG Version: 6.00 Build 0)  -->
<svg version="1.1" id="Layer_1" xmlns="http://www.w3.org/2000/svg" xmlns:xlink="http://www.w3.org/1999/xlink" x="0px" y="0px"
	 viewBox="0 0 62 60" style="enable-background:new 0 0 62 60;" xml:space="preserve">
<style type="text/css">
	.st0{fill:#FFFFFF;}
</style>
<path class="st0" d="M9.2,60c-1.8,0-3.1-1.9-3.1-3.5V28.1H1.7c-0.7,0-1.3-0.6-1.5-1.2c-0.2-0.6-0.2-1.4,0.3-1.9l11.9-10.6V2.6
	c0-0.6,0.2-2.6,3-2.6h4.3c1.7,0,2.6,0.8,2.6,2.6v3.8l7.7-6.1C30.2,0.1,30.7,0,30.9,0c0.3,0,0.7,0,1.1,0.3L61.4,25
	c0.5,0.4,0.6,1.1,0.6,1.4c0,0.8-0.6,1.7-1.5,1.7h-5.4v28.3c0,1.7-1.1,3.5-2.8,3.5H9.2z M14.2,14.9c0,0.3-0.1,0.5-0.3,0.7L1.8,26.3H7
	c0.5,0,0.9,0.4,0.9,0.9v29.3c0,0.9,1,1.7,2,1.7h41.6c0.9,0,1.7-0.8,1.7-1.7V27.2c0-0.5,0.4-0.9,0.9-0.9h5.9L30.9,1.8L21.9,9
	c-0.2,0.1-0.4,0.2-0.6,0.2c-0.1,0-0.3,0-0.4-0.1c-0.3-0.1-0.5-0.5-0.5-0.8V2.6C20.4,2,20.2,2,18.3,2c-0.4,0-2.5,0-3.3,0l0,0h-0.7
	L14.2,14.9z M17.4,52.2c-0.4,0-0.8-0.4-0.8-0.8v-7.6c0-0.4,0.4-0.8,0.8-0.8h1.5v-2.6h-1.5c-0.4,0-0.8-0.4-0.8-0.8V32
	c0-0.4,0.4-0.8,0.8-0.8h1.5v-2.6h-1.5c-0.4,0-0.8-0.4-0.8-0.8v-7.6c0-0.4,0.4-0.8,0.8-0.8h27.1c0.4,0,0.8,0.4,0.8,0.8v7.6
	c0,0.4-0.4,0.8-0.8,0.8h-1.4v2.6h1.4c0.4,0,0.8,0.4,0.8,0.8v7.6c0,0.4-0.4,0.8-0.8,0.8h-1.4V43h1.4c0.4,0,0.8,0.4,0.8,0.8v7.6
	c0,0.4-0.4,0.8-0.8,0.8C44.6,52.2,17.4,52.2,17.4,52.2z M43.7,50.6v-6H18.2v6C18.2,50.6,43.7,50.6,43.7,50.6z M41.4,43v-2.6H20.6V43
	H41.4z M43.7,38.8v-6H18.2v6C18.2,38.8,43.7,38.8,43.7,38.8z M41.4,31.2v-2.6H20.6v2.6H41.4z M43.7,27v-6H18.2v6H43.7z M39,48.4
	c-0.4,0-0.8-0.4-0.8-0.8c0-0.4,0.4-0.8,0.8-0.8h2.5c0.4,0,0.8,0.4,0.8,0.8c0,0.4-0.4,0.8-0.8,0.8H39z M34.3,48.4
	c-0.4,0-0.8-0.4-0.8-0.8c0-0.4,0.4-0.8,0.8-0.8h2.5c0.4,0,0.8,0.4,0.8,0.8c0,0.4-0.4,0.8-0.8,0.8H34.3z M29.6,48.4
	c-0.4,0-0.8-0.4-0.8-0.8c0-0.4,0.4-0.8,0.8-0.8h2.5c0.4,0,0.8,0.4,0.8,0.8c0,0.4-0.4,0.8-0.8,0.8H29.6z M39,36.6
	c-0.4,0-0.8-0.4-0.8-0.8S38.5,35,39,35h2.5c0.4,0,0.8,0.4,0.8,0.8s-0.4,0.8-0.8,0.8H39z M34.3,36.6c-0.4,0-0.8-0.4-0.8-0.8
	s0.4-0.8,0.8-0.8h2.5c0.4,0,0.8,0.4,0.8,0.8s-0.4,0.8-0.8,0.8H34.3z M29.6,36.6c-0.4,0-0.8-0.4-0.8-0.8s0.4-0.8,0.8-0.8h2.5
	c0.4,0,0.8,0.4,0.8,0.8s-0.4,0.8-0.8,0.8H29.6z M39,24.8c-0.4,0-0.8-0.4-0.8-0.8c0-0.4,0.4-0.8,0.8-0.8h2.5c0.4,0,0.8,0.4,0.8,0.8
	c0,0.4-0.4,0.8-0.8,0.8H39z M34.3,24.8c-0.4,0-0.8-0.4-0.8-0.8c0-0.4,0.4-0.8,0.8-0.8h2.5c0.4,0,0.8,0.4,0.8,0.8
	c0,0.4-0.4,0.8-0.8,0.8H34.3z M29.6,24.8c-0.4,0-0.8-0.4-0.8-0.8c0-0.4,0.4-0.8,0.8-0.8h2.5c0.4,0,0.8,0.4,0.8,0.8
	c0,0.4-0.4,0.8-0.8,0.8H29.6z"/>
</svg>
