<?xml version="1.0" encoding="utf-8"?>
<!-- Generator: Adobe Illustrator 23.0.5, SVG Export Plug-In . SVG Version: 6.00 Build 0)  -->
<svg version="1.1" id="Layer_1" xmlns="http://www.w3.org/2000/svg" xmlns:xlink="http://www.w3.org/1999/xlink" x="0px" y="0px"
	 viewBox="0 0 60 60" style="enable-background:new 0 0 60 60;" xml:space="preserve">
<style type="text/css">
	.st0{fill:#FFFFFF;}
</style>
<g>
	<g>
		<path class="st0" d="M54.2,32.4v-19C57.5,13,60,10.2,60,6.8C60,3,57,0,53.2,0c-3.7,0-6.8,3-6.8,6.8H0v38.7h29.1
			C29.6,53.6,36.3,60,44.5,60C53.1,60,60,53.1,60,44.5C60,39.6,57.7,35.3,54.2,32.4z M53.2,1.9c2.7,0,4.8,2.2,4.8,4.8
			s-2.2,4.8-4.8,4.8c-2.7,0-4.8-2.2-4.8-4.8S50.6,1.9,53.2,1.9z M1.9,8.7h44.8c0.2,0.8,0.6,1.5,1.1,2.1l-5.9,5.9
			c-0.4-0.2-0.8-0.3-1.2-0.3c-0.4,0-0.9,0.1-1.2,0.3l-2-1.9c0.2-0.4,0.3-0.8,0.3-1.2c0-1.6-1.3-2.9-2.9-2.9s-2.9,1.3-2.9,2.9
			c0,0.4,0.1,0.9,0.3,1.2l-4.9,4.9c-0.4-0.2-0.8-0.3-1.2-0.3c-1.6,0-2.9,1.3-2.9,2.9s1.3,2.9,2.9,2.9s2.9-1.3,2.9-2.9
			c0-0.4-0.1-0.9-0.3-1.2l4.9-4.9c0.4,0.2,0.8,0.3,1.2,0.3c0.4,0,0.9-0.1,1.2-0.3l2,2c-0.2,0.4-0.3,0.8-0.3,1.2
			c0,1.6,1.3,2.9,2.9,2.9s2.9-1.3,2.9-2.9c0-0.4-0.1-0.9-0.3-1.2l5.9-5.9c0.9,0.7,1.9,1.1,3.1,1.3v17.7C50,29.8,47.3,29,44.5,29
			c-4.6,0-8.8,2-11.6,5.3V30h-5.8v11.6h2.2c-0.1,0.6-0.2,1.3-0.2,1.9H1.9V8.7z M40.6,18.4c0.5,0,1,0.4,1,1s-0.4,1-1,1s-1-0.4-1-1
			S40.1,18.4,40.6,18.4z M33.9,13.5c0-0.5,0.4-1,1-1s1,0.4,1,1c0,0.5-0.4,1-1,1S33.9,14.1,33.9,13.5z M27.1,22.3c0,0.5-0.4,1-1,1
			s-1-0.4-1-1s0.4-1,1-1S27.1,21.7,27.1,22.3z M44.5,52.3c-4.3,0-7.7-3.5-7.7-7.7c0-4.3,3.5-7.7,7.7-7.7s7.7,3.5,7.7,7.7
			C52.3,48.8,48.8,52.3,44.5,52.3z M31,37c-0.5,0.8-0.8,1.7-1.2,2.6H29v-7.7H31C31,31.9,31,37,31,37z M43.5,31v3.9
			c-4.9,0.5-8.7,4.6-8.7,9.6c0,1.4,0.3,2.8,0.9,4l-3.4,1.9c-0.9-1.8-1.4-3.8-1.4-5.9C31,37.4,36.5,31.5,43.5,31z M44.5,58.1
			c-4.7,0-8.8-2.4-11.2-6l3.4-1.9c1.8,2.4,4.6,4,7.8,4s6.1-1.6,7.8-4l3.4,1.9C53.3,55.7,49.2,58.1,44.5,58.1z M56.7,50.4l-3.4-1.9
			c0.5-1.2,0.9-2.6,0.9-4c0-5-3.8-9.1-8.7-9.6V31c7,0.5,12.6,6.4,12.6,13.5C58.1,46.6,57.6,48.6,56.7,50.4z"/>
		<path class="st0" d="M44.5,38.7c-3.2,0-5.8,2.6-5.8,5.8c0,3.2,2.6,5.8,5.8,5.8s5.8-2.6,5.8-5.8C50.3,41.3,47.7,38.7,44.5,38.7z
			 M44.5,48.4c-2.1,0-3.9-1.7-3.9-3.9c0-2.1,1.7-3.9,3.9-3.9s3.9,1.7,3.9,3.9C48.4,46.7,46.7,48.4,44.5,48.4z"/>
		<rect x="3.9" y="10.6" class="st0" width="1.9" height="1.9"/>
		<rect x="7.7" y="10.6" class="st0" width="13.5" height="1.9"/>
		<rect x="3.9" y="14.5" class="st0" width="1.9" height="1.9"/>
		<rect x="7.7" y="14.5" class="st0" width="13.5" height="1.9"/>
		<rect x="3.9" y="18.4" class="st0" width="1.9" height="1.9"/>
		<rect x="7.7" y="18.4" class="st0" width="13.5" height="1.9"/>
		<rect x="3.9" y="22.3" class="st0" width="1.9" height="1.9"/>
		<rect x="7.7" y="22.3" class="st0" width="13.5" height="1.9"/>
		<path class="st0" d="M3.9,41.6h5.8v-9.7H3.9V41.6z M5.8,33.9h1.9v5.8H5.8V33.9z"/>
		<path class="st0" d="M11.6,41.6h5.8v-7.7h-5.8V41.6z M13.5,35.8h1.9v3.9h-1.9V35.8z"/>
		<path class="st0" d="M19.4,41.6h5.8V26.1h-5.8V41.6z M21.3,28.1h1.9v11.6h-1.9V28.1z"/>
	</g>
</g>
</svg>
