<?xml version="1.0" encoding="utf-8"?>
<!-- Generator: Adobe Illustrator 23.0.5, SVG Export Plug-In . SVG Version: 6.00 Build 0)  -->
<svg version="1.1" id="Layer_1" xmlns="http://www.w3.org/2000/svg" xmlns:xlink="http://www.w3.org/1999/xlink" x="0px" y="0px"
	 viewBox="0 0 63.9 60" style="enable-background:new 0 0 63.9 60;" xml:space="preserve">
<style type="text/css">
	.st0{fill:#FFFFFF;}
</style>
<g>
	<path class="st0" d="M3.9,60C1.7,60,0,58.3,0,56.1v-3.6c0-0.5,0.4-1,1-1h3.8V18.8c0-2.1,1.7-3.9,3.9-3.9h4.6V7.6
		c0-0.2,0.1-0.5,0.3-0.7l6.6-6.6l0,0C20.5,0.1,20.8,0,20.9,0h28.6c0.5,0,1,0.4,1,1v13.9h4.6c2.1,0,3.9,1.7,3.9,3.9v32.7h3.8
		c0.5,0,1,0.4,1,1v3.6c0,2.1-1.7,3.9-3.9,3.9C60,60,3.9,60,3.9,60z M2,56.1c0,1,0.9,1.9,1.9,1.9H60c1,0,1.9-0.9,1.9-1.9v-2.6H39.3
		l-0.5,1.9c-0.1,0.4-0.5,0.7-1,0.7H26.1c-0.4,0-0.8-0.3-1-0.7l-0.5-1.9H2V56.1z M37.1,54.2l0.2-0.7H26.6l0.2,0.7H37.1z M57.1,51.5
		V18.8c0-1.1-0.9-1.9-1.9-1.9h-4.6v0.5h4.6c0.8,0,1.4,0.6,1.4,1.4V50c0,0.5-0.4,1-1,1H8.3c-0.5,0-1-0.4-1-1V18.8
		c0-0.8,0.6-1.4,1.4-1.4h4.7v-0.5H8.7c-1,0-1.9,0.9-1.9,1.9v32.7C6.8,51.5,57.1,51.5,57.1,51.5z M54.7,49V19.4h-4.1V49L54.7,49
		L54.7,49z M48.6,49V2H21.9v5.6c0,0.5-0.4,1-1,1h-5.6V49L48.6,49L48.6,49z M13.3,49V19.4H9.3V49L13.3,49L13.3,49z M20,6.6V3.4
		l-3.3,3.3H20z"/>
	<path class="st0" d="M17,46.2v-2h1.3V34.1c0-0.5,0.4-1,1-1h3.9c0.5,0,1,0.4,1,1v10.2h1.3V31.7c0-0.5,0.4-1,1-1h3.9c0.5,0,1,0.4,1,1
		v12.6h1.3V33.1c0-0.5,0.4-1,1-1h3.9c0.5,0,1,0.4,1,1v11.2h1.3V29.8c0-0.5,0.4-1,1-1h3.9c0.5,0,1,0.4,1,1v14.5h1.3v2L17,46.2
		L17,46.2z M43.6,44.3V30.8h-1.9v13.5L43.6,44.3L43.6,44.3z M36.4,44.3V34.1h-1.9v10.2L36.4,44.3L36.4,44.3z M29.3,44.3V32.6h-1.9
		v11.6H29.3z M22.2,44.3v-9.2h-1.9v9.2H22.2z"/>
	<path class="st0" d="M21.7,32c-0.7,0-1.4-0.3-1.9-0.8c-1.1-1.1-1.1-2.8,0-3.9c0.5-0.5,1.2-0.8,1.9-0.8c0.7,0,1.4,0.3,1.9,0.8
		c0,0,0.1,0.1,0.1,0.1l2.1-0.8c0-0.7,0.3-1.4,0.8-1.9c0.5-0.5,1.2-0.8,1.9-0.8s1.4,0.3,1.9,0.8c0.4,0.4,0.7,0.9,0.8,1.5l1.9,0.4
		c0.5-0.8,1.3-1.2,2.3-1.2c0.7,0,1.3,0.2,1.8,0.7l2.4-1.3c-0.1-0.8,0.2-1.6,0.8-2.2c0.5-0.5,1.2-0.8,1.9-0.8c0.7,0,1.4,0.3,1.9,0.8
		c1.1,1.1,1.1,2.8,0,3.9c-0.5,0.5-1.2,0.8-1.9,0.8c-0.7,0-1.3-0.2-1.8-0.7l-2.4,1.3c0.1,0.8-0.2,1.6-0.8,2.2
		c-0.5,0.5-1.2,0.8-1.9,0.8c-0.7,0-1.4-0.3-1.9-0.8c-0.4-0.4-0.7-0.9-0.8-1.5l-1.9-0.4c-0.1,0.2-0.2,0.3-0.3,0.4
		c-0.5,0.5-1.2,0.8-1.9,0.8s-1.4-0.3-1.9-0.8c0,0-0.1-0.1-0.1-0.1l-2.1,0.8c0,0.7-0.3,1.4-0.8,1.9C23.2,31.7,22.5,32,21.7,32
		L21.7,32z M21.7,28.5c-0.2,0-0.4,0.1-0.5,0.2C21.1,28.9,21,29,21,29.2s0.1,0.4,0.2,0.5c0.1,0.1,0.3,0.2,0.5,0.2s0.4-0.1,0.5-0.2
		c0.3-0.3,0.3-0.8,0-1.1C22.1,28.6,22,28.5,21.7,28.5z M35.5,27.4c-0.3,0-0.6,0.2-0.7,0.5c-0.1,0.2-0.1,0.5,0.2,0.8
		c0.1,0.1,0.3,0.2,0.5,0.2s0.4-0.1,0.5-0.2c0.1-0.1,0.2-0.3,0.2-0.5s-0.1-0.4-0.2-0.5C35.9,27.5,35.7,27.4,35.5,27.4z M28.6,25.9
		c-0.2,0-0.4,0.1-0.5,0.2c-0.1,0.1-0.2,0.3-0.2,0.5c0,0.2,0.1,0.4,0.2,0.5c0.1,0.1,0.3,0.2,0.5,0.2s0.4-0.1,0.5-0.2
		c0.3-0.3,0.3-0.8,0-1.1C29,26,28.8,25.9,28.6,25.9z M42.4,23.8c-0.2,0-0.4,0.1-0.5,0.2c-0.3,0.3-0.3,0.8,0,1.1
		c0.1,0.1,0.3,0.2,0.5,0.2s0.4-0.1,0.5-0.2c0.3-0.3,0.3-0.6,0.2-0.8C43,24,42.7,23.8,42.4,23.8z"/>
	<path class="st0" d="M6.3,57.5c-1,0-1.8-0.8-1.8-1.8S5.3,54,6.3,54s1.8,0.8,1.8,1.8S7.3,57.5,6.3,57.5z M6.3,55.6
		c-0.1,0-0.2,0.1-0.2,0.2S6.2,56,6.3,56c0.1,0,0.2-0.1,0.2-0.2S6.4,55.6,6.3,55.6z"/>
	<path class="st0" d="M12.3,57.5c-1,0-1.8-0.8-1.8-1.8s0.8-1.8,1.8-1.8s1.8,0.8,1.8,1.8S13.3,57.5,12.3,57.5z M12.3,55.6
		c-0.1,0-0.2,0.1-0.2,0.2s0.1,0.2,0.2,0.2c0.1,0,0.2-0.1,0.2-0.2S12.4,55.6,12.3,55.6z"/>
	<path class="st0" d="M31,21.5c-5.1,0-9.3-4-9.4-9.1c-0.1-2.6,0.9-5,2.7-6.9C26,3.7,28.4,2.7,31,2.7h0l0,0c0.1,0,0.3,0,0.6,0.3
		C32,3.3,32,3.3,32,5.1c0,0.9,0,2.2,0,4.3L35.6,5c0.2-0.2,0.4-0.3,0.7-0.4c0,0,0,0,0,0c0.3,0,0.5,0.1,0.7,0.2
		c0.2,0.2,0.3,0.3,0.4,0.4c1.9,1.8,3,4.3,3,6.9c0,2.5-1,4.9-2.8,6.7C35.8,20.6,33.5,21.5,31,21.5z M30,4.7c-3.8,0.5-6.6,3.7-6.5,7.6
		c0.1,4.1,3.4,7.2,7.5,7.2c3.8,0,6.9-2.8,7.4-6.5H31c-0.1,0-0.2,0-0.3-0.1l-0.1,0c-0.1,0-0.1-0.1-0.2-0.1c-0.1-0.1-0.2-0.2-0.2-0.3
		l0,0l0-0.1c0-0.1,0-0.1,0-0.2l0,0L30,4.7z M38.4,11.1c-0.2-1.5-0.9-3-1.9-4.1l-3.4,4.1H38.4z"/>
</g>
</svg>
