<?xml version="1.0" encoding="utf-8"?>
<!-- Generator: Adobe Illustrator 23.0.5, SVG Export Plug-In . SVG Version: 6.00 Build 0)  -->
<svg version="1.1" id="Layer_1" xmlns="http://www.w3.org/2000/svg" xmlns:xlink="http://www.w3.org/1999/xlink" x="0px" y="0px"
	 viewBox="0 0 288 228.86" enable-background="new 0 0 288 228.86" xml:space="preserve">
<g>
	<g>
		
			<radialGradient id="SVGID_1_" cx="71.9956" cy="1247.1259" r="95.3009" gradientTransform="matrix(1.164 0 0 0.6353 62.5245 -627.5382)" gradientUnits="userSpaceOnUse">
			<stop  offset="0" style="stop-color:#FF4A00"/>
			<stop  offset="0.0165" style="stop-color:#FF5009"/>
			<stop  offset="0.1328" style="stop-color:#FF7942"/>
			<stop  offset="0.2524" style="stop-color:#FF9C74"/>
			<stop  offset="0.3728" style="stop-color:#FFBB9F"/>
			<stop  offset="0.494" style="stop-color:#FFD3C2"/>
			<stop  offset="0.6162" style="stop-color:#FFE7DD"/>
			<stop  offset="0.7402" style="stop-color:#FFF4F0"/>
			<stop  offset="0.8667" style="stop-color:#FFFCFB"/>
			<stop  offset="1" style="stop-color:#FFFFFF"/>
		</radialGradient>
		<ellipse fill="url(#SVGID_1_)" cx="146.33" cy="164.76" rx="110.93" ry="60.54"/>
	</g>
	<g>
		<path fill="#00CCBA" d="M250.84,193.02L33.87,160.04L71.02,45.36l164.48-6.33L250.84,193.02z M39.61,156.49l206.33,31.37
			l-14.37-144.3L74.24,49.61L39.61,156.49z"/>
	</g>
	<g>
		<polygon fill="#00214D" points="245.91,41.61 50.53,63.59 50.53,168.69 50.01,192.3 75.54,169.81 233.63,176.87 		"/>
		<g>
			<path fill="#FF4A00" d="M48.3,196l0.59-27.34l0-106.53l198.84-22.37l-12.61,138.82l-158.99-7.1L48.3,196z M52.16,65.06V168.7
				l-0.43,19.91l23.22-20.46l157.19,7.02l11.96-131.7L52.16,65.06z"/>
		</g>
	</g>
	<g>
		<path fill="#FFFFFF" d="M101.65,95.56c0.35,9.5-3.19,14.38-10.6,14.65l-8.95,0.33l-1-27.31l9.13-0.33
			c3.97-0.14,6.83,0.87,8.57,3.06C100.54,88.14,101.49,91.34,101.65,95.56z M93.6,102.13c0.41-1.11,0.57-2.97,0.47-5.57
			c-0.09-2.59-0.4-4.42-0.92-5.49c-0.52-1.07-1.56-1.57-3.12-1.52l-1.3,0.05l0.52,14.34l1.43-0.05
			C92.22,103.83,93.19,103.24,93.6,102.13z"/>
		<path fill="#FFFFFF" d="M112.77,109.42l-7.39,0.27l-1-27.31l7.39-0.27L112.77,109.42z"/>
		<path fill="#FFFFFF" d="M136.58,94.28c0.35,9.5-3.19,14.38-10.6,14.65l-8.95,0.33l-1-27.31l9.12-0.33
			c3.97-0.14,6.83,0.87,8.57,3.06C135.48,86.86,136.43,90.06,136.58,94.28z M128.53,100.85c0.41-1.12,0.57-2.97,0.47-5.57
			c-0.09-2.59-0.4-4.42-0.92-5.49c-0.52-1.07-1.56-1.57-3.12-1.52l-1.3,0.05l0.52,14.34l1.43-0.05
			C127.15,102.55,128.12,101.97,128.53,100.85z"/>
		<path fill="#FFFFFF" d="M166.26,80.12l-5.74,19.1l0.31,8.44l-7.39,0.27l-0.31-8.44l-7.03-18.63l8.17-0.3l2.28,8.81l0.35-0.01
			l1.54-8.95L166.26,80.12z"/>
		<path fill="#FFFFFF" d="M169.9,82.85c1.59-2.26,4.27-3.46,8.07-3.6c3.79-0.14,6.55,0.85,8.27,2.96c1.72,2.11,2.66,5.61,2.84,10.49
			c0.18,4.88-0.53,8.52-2.12,10.93c-1.59,2.41-4.27,3.68-8.04,3.82c-3.77,0.14-6.52-0.92-8.25-3.18c-1.74-2.26-2.69-5.82-2.87-10.71
			C167.62,88.68,168.32,85.11,169.9,82.85z M180.78,87.54c-0.45-0.94-1.33-1.38-2.62-1.34c-1.29,0.05-2.1,0.55-2.45,1.52
			c-0.34,0.97-0.46,2.78-0.37,5.45l0.04,1.06c0.1,2.84,0.38,4.7,0.83,5.58c0.45,0.88,1.32,1.3,2.61,1.25
			c1.29-0.05,2.11-0.5,2.45-1.37c0.34-0.86,0.47-2.63,0.37-5.3l-0.05-1.41C181.51,90.29,181.23,88.48,180.78,87.54z"/>
		<path fill="#FFFFFF" d="M200.46,99.26c0.39,0.43,1.02,0.62,1.87,0.59c0.85-0.03,1.44-0.27,1.76-0.7c0.32-0.44,0.46-1.14,0.42-2.11
			l-0.67-18.29l7.47-0.27L212,97.21c0.11,3.14-0.65,5.46-2.29,6.95c-1.64,1.5-4.11,2.31-7.39,2.43c-3.29,0.12-5.76-0.5-7.42-1.87
			c-1.66-1.36-2.55-3.6-2.66-6.71l-0.69-18.82l7.6-0.28l0.67,18.34C199.85,98.17,200.07,98.83,200.46,99.26z"/>
	</g>
	<g>
		<path fill="#FF4A00" d="M106.06,148.01l-9.66,0.35l-4.28-11.97l-0.51,0.02l0.44,12.11l-8.49,0.31l-1.17-32.14l8.49-0.31
			l0.49,13.45l0.51-0.02l4.11-13.62l9.41-0.34l-5.58,16.84L106.06,148.01z"/>
		<path fill="#FF4A00" d="M131.52,147.08l-8.39,0.31L116,132.67l-0.41,0.01l0.55,14.96l-7.77,0.28l-1.17-32.14l8.64-0.32l6.85,15.19
			l0.41-0.02l-0.56-15.42l7.82-0.29L131.52,147.08z"/>
		<path fill="#FF4A00" d="M136.89,118.07c1.86-2.66,5.03-4.07,9.5-4.23c4.46-0.16,7.71,1,9.73,3.48c2.02,2.48,3.13,6.6,3.34,12.34
			c0.21,5.74-0.62,10.03-2.5,12.86c-1.88,2.83-5.03,4.33-9.46,4.49c-4.43,0.16-7.67-1.08-9.71-3.74c-2.04-2.65-3.17-6.85-3.38-12.6
			C134.2,124.93,135.02,120.73,136.89,118.07z M149.69,123.59c-0.54-1.1-1.56-1.63-3.08-1.57c-1.52,0.06-2.48,0.65-2.88,1.79
			c-0.4,1.14-0.55,3.28-0.43,6.42l0.05,1.24c0.12,3.35,0.45,5.54,0.98,6.57c0.53,1.03,1.56,1.52,3.07,1.47
			c1.52-0.06,2.48-0.59,2.89-1.61c0.41-1.02,0.55-3.1,0.44-6.24l-0.06-1.65C150.55,126.83,150.22,124.69,149.69,123.59z"/>
		<path fill="#FF4A00" d="M193.91,112.62l-1.69,32.24l-10.53,0.38l-3.28-14.13l-0.41,0.02l-1.78,14.31l-10.58,0.39l-4.5-32.01
			l8.39-0.31l1.95,16.98l0.51-0.02l1.53-17.1l8.54-0.31l2.97,16.94l0.51-0.02l0.3-17.06L193.91,112.62z"/>
		<path fill="#FF4A00" d="M211.33,113.02c1.38,1.43,2.13,3.62,2.24,6.55c0.11,2.93-0.32,5.15-1.29,6.65
			c-0.97,1.5-2.42,2.9-4.35,4.17l-0.5,0.33l0.12,3.16l-6.7,0.24l-0.18-4.92c-0.04-1.1,0.11-1.98,0.44-2.63
			c0.33-0.65,0.92-1.21,1.76-1.67c0.84-0.46,1.44-0.8,1.81-1.03c0.37-0.22,0.72-0.57,1.06-1.05c0.34-0.48,0.5-1.09,0.47-1.83
			c-0.03-0.74-0.24-1.3-0.63-1.69c-0.39-0.38-1.01-0.56-1.86-0.53c-0.85,0.03-2.76,0.5-5.73,1.4l-0.29-7.81
			c2.84-0.83,5.24-1.28,7.22-1.35C207.8,110.92,209.94,111.59,211.33,113.02z M200.17,141.25c-0.1-2.72,1.32-4.14,4.25-4.25
			c2.93-0.11,4.45,1.2,4.55,3.93c0.05,1.31-0.25,2.3-0.89,2.96c-0.64,0.66-1.71,1.02-3.21,1.08
			C201.83,145.08,200.27,143.84,200.17,141.25z"/>
	</g>
	
		<ellipse transform="matrix(0.2298 -0.9732 0.9732 0.2298 129.2403 245.4875)" fill="#FF4A00" cx="219.71" cy="41.09" rx="35.89" ry="35.89"/>
	<g>
		<path fill="#FFFFFF" d="M60.56,76.74c-0.55,0-1.03-0.42-1.09-0.98c-0.06-0.6,0.38-1.14,0.98-1.2L176.18,62.8
			c0.61-0.06,1.14,0.38,1.2,0.98c0.06,0.6-0.38,1.14-0.98,1.2L60.67,76.73C60.64,76.74,60.6,76.74,60.56,76.74z"/>
	</g>
	<g>
		<path fill="#FFFFFF" d="M216.52,162.45c-0.01,0-0.01,0-0.02,0l-114.49-1.55c-0.6-0.01-1.08-0.5-1.08-1.11
			c0.01-0.6,0.46-1.08,1.11-1.08l114.49,1.55c0.6,0.01,1.08,0.5,1.08,1.11C217.6,161.97,217.11,162.45,216.52,162.45z"/>
	</g>
	<polygon fill="#FF4A00" points="32.82,28.1 50.56,54.09 19.62,33.05 	"/>
	<polygon fill="#FF4A00" points="48.91,30.98 58.19,54.91 57.99,32.63 	"/>
	<polygon fill="#FF4A00" points="1.88,44.81 47.67,58.83 10.13,61.31 	"/>
	<polygon fill="#FF4A00" points="247.73,212.17 235.33,182.74 265.93,216.44 	"/>
	<path fill="#FF4A00" d="M285.77,207.57c-1.74-0.85-41.94-25.99-41.94-25.99l35.52,2.37L285.77,207.57z"/>
</g>
<g>
	<path fill="#F6CA10" d="M230.68,45.34c0-2.42-1.25-4.55-3.13-5.88c1.92-2,1.96-4.3,1.96-4.8c0-3.34-1.96-5.42-4.3-6.51v-3.8h-4.38
		v2.79h-4.88v-2.79h-4.38v2.79h-2.42v4.13h2.42v8.93v8.22h-3.17v4.13h3.17v4.51h4.38v-4.42h4.88v4.42h4.38v-4.71
		C228.39,51.43,230.68,48.64,230.68,45.34z M220.88,31.29c0.75,0.04,4.21,0.33,4.21,3.42c0,0.04,0,0.08,0,0.13c0,0,0,1.04-0.88,1.92
		c-0.71,0.71-1.84,1.13-3.34,1.29h-4.96v-6.76H220.88z M223.01,48.51h-7.09v-6.26h3.42c0.63,0,1.21-0.04,1.75-0.08h1.88
		c1.79,0,3.25,1.42,3.25,3.17C226.3,47.09,224.8,48.51,223.01,48.51z"/>
</g>
</svg>
