<?xml version="1.0" encoding="utf-8"?>
<!-- Generator: Adobe Illustrator 23.0.5, SVG Export Plug-In . SVG Version: 6.00 Build 0)  -->
<svg version="1.1" xmlns="http://www.w3.org/2000/svg" xmlns:xlink="http://www.w3.org/1999/xlink" x="0px" y="0px"
	 viewBox="0 0 727.68 494.5" enable-background="new 0 0 727.68 494.5" xml:space="preserve">
<g id="Background_Complete">
	<g>
		<g>
			<g>
				<g>
					<g>
						<g>
							<g>
								<g>
									<path fill-rule="evenodd" clip-rule="evenodd" fill="#E0E0E0" d="M268.7,371.6c3.67,0.46,7.22,1.41,10.56,2.79l7.76-6.5
										l13.33,10.15l-4.2,9.21c2.22,2.85,4.08,6.02,5.5,9.44l10.08,0.89l2.25,16.6l-9.48,3.54c-0.46,3.67-1.41,7.22-2.79,10.56
										l6.5,7.76l-10.15,13.33l-9.21-4.2c-2.85,2.22-6.02,4.08-9.44,5.5l-0.89,10.08l-16.6,2.25l-3.54-9.48
										c-3.67-0.46-7.22-1.41-10.56-2.79l-7.76,6.51l-13.33-10.15l4.2-9.21c-2.22-2.85-4.08-6.02-5.5-9.44l-10.08-0.89l-2.25-16.6
										l9.48-3.54c0.46-3.67,1.41-7.22,2.79-10.56l-6.5-7.76l10.15-13.33l9.22,4.2c2.85-2.22,6.02-4.08,9.44-5.5l0.89-10.08
										l16.6-2.25L268.7,371.6L268.7,371.6z M263.72,394.5c-11.42,0.41-19.54,11.07-16.89,22.19c1.96,8.22,9.62,14.05,18.06,13.74
										c11.41-0.42,19.52-11.07,16.88-22.18C279.82,400.02,272.17,394.19,263.72,394.5z"/>
								</g>
							</g>
						</g>
					</g>
				</g>
			</g>
		</g>
	</g>
	<g>
		<g>
			<path fill="#E0E0E0" d="M101.85,142.24V97.82c24.37,0,44.42,20.05,44.42,44.42c0,24.37-20.05,44.42-44.42,44.42
				c-23.98,0-43.86-19.42-44.41-43.4L101.85,142.24z"/>
		</g>
		<g>
			<path fill="#F5F5F5" d="M91.02,130.26l-44.42,1c0-11.57,4.52-23.69,12.59-31.98c8.07-8.29,19.58-13.11,31.15-13.43L91.02,130.26z
				"/>
		</g>
	</g>
	<g>
		<g>
			<g>
				<g>
					<g>
						<g>
							<g>
								<g>
									<path fill-rule="evenodd" clip-rule="evenodd" fill="#E0E0E0" d="M623.2,14.17c3.67,0.46,7.22,1.41,10.56,2.79l7.76-6.5
										l13.33,10.15l-4.2,9.21c2.22,2.85,4.08,6.02,5.5,9.44l10.08,0.89l2.25,16.6l-9.48,3.54c-0.46,3.67-1.41,7.22-2.79,10.56
										l6.5,7.76l-10.15,13.33l-9.21-4.2c-2.85,2.22-6.02,4.08-9.44,5.5l-0.89,10.08l-16.6,2.25l-3.54-9.48
										c-3.67-0.46-7.22-1.41-10.56-2.79l-7.76,6.51l-13.33-10.15l4.2-9.21c-2.22-2.85-4.08-6.02-5.5-9.44l-10.08-0.89l-2.25-16.6
										l9.48-3.54c0.46-3.67,1.41-7.22,2.79-10.56l-6.51-7.76l10.15-13.33l9.22,4.2c2.85-2.22,6.02-4.08,9.44-5.5l0.89-10.08
										l16.6-2.25L623.2,14.17L623.2,14.17z M618.22,37.06c-11.42,0.41-19.54,11.07-16.89,22.19c1.96,8.22,9.62,14.05,18.06,13.74
										c11.41-0.42,19.52-11.07,16.88-22.18C634.32,42.59,626.67,36.76,618.22,37.06z"/>
								</g>
							</g>
						</g>
					</g>
				</g>
			</g>
		</g>
	</g>
</g>
<g id="Background_Simple" display="none">
	<path display="inline" fill="#EBEBEB" d="M656.04,92.9c-25.48-32.24-65.97-53.41-107-51.27c-41.04,2.14-80.8,29.67-93.18,68.85
		c-4.78,15.13-5.57,31.2-8.79,46.73c-3.22,15.53-9.53,31.41-22.29,40.83c-11.78,8.69-27.27,10.56-41.89,9.89s-29.13-3.59-43.76-3.25
		c-35.55,0.82-69.86,22.5-85.85,54.26c-16,31.76-12.99,72.23,7.52,101.28l3.55,5.36c37.98,59.64,107.34,75.25,150.68,74.15
		c43.95-1.11,93.08-8.83,133.76-25.5c40.68-16.66,73.96-48.16,100.33-83.33c26.36-35.15,41.3-78.65,42.51-122.57
		C692.75,167.27,681.52,125.15,656.04,92.9z"/>
	<path display="inline" fill="#EBEBEB" d="M217.2,100.95c-0.43-14.75-7.68-28.95-16.55-40.74c-17.76-23.61-49.95-26.64-75.41-25.7
		l1.53,0.07C87.94,32.77,63.66,65.82,57.63,92.2c-6.03,26.38,5.47,54.61,24.54,73.8c14.73,14.82,34.53,25.33,55.41,25.95
		c22.57,0.67,44.76-10.56,59.13-27.97C211.08,146.57,217.86,123.51,217.2,100.95z"/>
</g>
<g id="Floor">
	<g>
		<g>
			<path fill="#263238" d="M729.31,477.71c0,0.16-163.27,0.28-364.64,0.28C163.24,477.99,0,477.87,0,477.71
				c0-0.16,163.24-0.28,364.67-0.28C566.03,477.43,729.31,477.56,729.31,477.71z"/>
		</g>
	</g>
</g>
<g id="Nuts">
	<g>
		<g>
			<g>
				<g>
					<g>
						<g>
							<path fill-rule="evenodd" clip-rule="evenodd" fill="#E8505B" d="M119.79,244.87c3.06,1.6,5.86,3.58,8.34,5.87l8.91-3.17
								l8.38,13.22l-6.67,6.7c1.02,3.22,1.62,6.6,1.75,10.05l8.54,4.06l-3.43,15.27l-9.45,0.02c-1.6,3.07-3.58,5.86-5.88,8.34
								l3.17,8.91l-13.22,8.38l-6.7-6.67c-3.22,1.02-6.6,1.61-10.05,1.75l-4.06,8.54l-15.27-3.42l-0.02-9.46
								c-3.07-1.6-5.86-3.58-8.34-5.88l-8.91,3.17l-8.38-13.22l6.68-6.7c-1.02-3.22-1.61-6.6-1.75-10.05l-8.54-4.06l3.43-15.27
								l9.45-0.02c1.6-3.07,3.58-5.86,5.88-8.34l-3.17-8.91l13.22-8.38l6.7,6.67c3.22-1.02,6.6-1.62,10.05-1.75l4.06-8.54
								l15.27,3.43L119.79,244.87L119.79,244.87z M106.32,262.84c-9.05-2.03-18.03,3.66-20.06,12.71
								c-2.03,9.05,3.66,18.03,12.71,20.06c9.05,2.03,18.03-3.66,20.06-12.71C121.06,273.84,115.37,264.86,106.32,262.84z"/>
						</g>
					</g>
				</g>
			</g>
			<g opacity="0.8">
				<g>
					<g>
						<g>
							<path fill-rule="evenodd" clip-rule="evenodd" fill="#FFFFFF" d="M119.79,244.87c3.06,1.6,5.86,3.58,8.34,5.87l8.91-3.17
								l8.38,13.22l-6.67,6.7c1.02,3.22,1.62,6.6,1.75,10.05l8.54,4.06l-3.43,15.27l-9.45,0.02c-1.6,3.07-3.58,5.86-5.88,8.34
								l3.17,8.91l-13.22,8.38l-6.7-6.67c-3.22,1.02-6.6,1.61-10.05,1.75l-4.06,8.54l-15.27-3.42l-0.02-9.46
								c-3.07-1.6-5.86-3.58-8.34-5.88l-8.91,3.17l-8.38-13.22l6.68-6.7c-1.02-3.22-1.61-6.6-1.75-10.05l-8.54-4.06l3.43-15.27
								l9.45-0.02c1.6-3.07,3.58-5.86,5.88-8.34l-3.17-8.91l13.22-8.38l6.7,6.67c3.22-1.02,6.6-1.62,10.05-1.75l4.06-8.54
								l15.27,3.43L119.79,244.87L119.79,244.87z M106.32,262.84c-9.05-2.03-18.03,3.66-20.06,12.71
								c-2.03,9.05,3.66,18.03,12.71,20.06c9.05,2.03,18.03-3.66,20.06-12.71C121.06,273.84,115.37,264.86,106.32,262.84z"/>
						</g>
					</g>
				</g>
			</g>
		</g>
		<g>
			<g>
				<g>
					<g>
						<g>
							<g>
								<path fill="#263238" d="M133.36,382.14c0,0,1.37,0.1,3.59,1.12c2.17,1.01,5.25,3.22,7.16,7.24c0.92,1.99,1.56,4.39,1.46,7
									c-0.11,2.58-0.8,5.38-2.41,7.84c-0.77,1.25-1.76,2.4-2.92,3.4c-1.15,1.02-2.48,1.88-3.95,2.51
									c-2.91,1.32-6.36,1.67-9.67,0.96c-3.3-0.77-6.27-2.56-8.34-4.99c-1.06-1.19-1.9-2.54-2.5-3.95
									c-0.62-1.4-1.03-2.86-1.19-4.32c-0.4-2.91,0.17-5.74,1.17-8.12c1.02-2.4,2.62-4.3,4.31-5.7c3.44-2.82,7.16-3.5,9.56-3.49
									C132.08,381.64,133.36,382.14,133.36,382.14c-0.02,0.11-1.33-0.26-3.72-0.18c-2.34,0.09-5.92,0.85-9.17,3.62
									c-1.59,1.38-3.09,3.22-4.04,5.51c-0.93,2.28-1.45,4.97-1.04,7.73c0.16,1.38,0.56,2.76,1.16,4.09
									c0.58,1.33,1.38,2.6,2.38,3.73c1.96,2.3,4.77,3.98,7.89,4.7c3.13,0.67,6.38,0.35,9.14-0.89c1.39-0.59,2.66-1.39,3.75-2.35
									c1.1-0.94,2.05-2.02,2.79-3.2c1.54-2.32,2.23-4.98,2.36-7.44c0.12-2.48-0.45-4.79-1.3-6.71c-1.75-3.89-4.67-6.11-6.75-7.2
									C134.68,382.47,133.33,382.24,133.36,382.14z"/>
							</g>
						</g>
					</g>
				</g>
			</g>
			<g>
				<g>
					<g>
						<g>
							<g>
								<path fill="#263238" d="M145.54,365.89c-0.01,0.01-0.02-0.17-0.03-0.53c-0.01-0.4-0.02-0.93-0.04-1.62
									c-0.02-1.48-0.05-3.62-0.09-6.4l0.11,0.14c-3.54-0.77-8.2-1.79-13.83-3.02l0.25-0.12c-1.1,2.35-2.33,4.95-3.64,7.74
									l-0.07,0.14l-0.16,0.01c-2.87,0.12-5.93,0.62-9.02,1.6l-0.16,0.05l-0.12-0.12c-1.9-1.88-3.95-3.91-6.08-6.02l0.39,0.04
									c-3.76,2.39-7.75,4.94-11.94,7.6l0.14-0.4c0.89,2.49,1.88,5.24,2.89,8.06l0.07,0.2l-0.15,0.16
									c-1.93,2.09-3.78,4.63-5.25,7.47l-0.1,0.2l-0.23,0c-2.65,0.01-5.57,0.02-8.55,0.03l0.38-0.3
									c-0.97,4.34-2.01,9.02-3.08,13.82L87,394.15c2.41,1.14,5.05,2.39,7.73,3.66l0.23,0.11l0.01,0.25
									c0.11,2.86,0.61,5.97,1.57,8.98l0.08,0.24l-0.18,0.18c-1.89,1.9-3.95,3.97-6.03,6.07l0.06-0.53
									c2.4,3.79,4.97,7.84,7.58,11.95l-0.51-0.18c2.55-0.91,5.29-1.89,8.06-2.87l0.25-0.09l0.19,0.18
									c2.12,1.97,4.67,3.8,7.44,5.24l0,0l0,0c0.11,0.17-0.23-0.38,0.24,0.39v0.01v0.02l0,0.03v0.07l0,0.13l0,0.27l0,0.54l0,1.08
									l0,2.14c0,1.43,0.01,2.85,0.01,4.26l-0.34-0.42c4.67,1.05,9.27,2.08,13.81,3.1l-0.48,0.24c1.24-2.6,2.46-5.18,3.67-7.72
									l0.11-0.23l0.26-0.01c3.08-0.12,6.11-0.65,8.98-1.56l0.24-0.08l0.18,0.18c2.05,2.04,4.07,4.05,6.06,6.04l-0.51-0.06
									c4.08-2.58,8.07-5.1,11.96-7.56l-0.16,0.47c-0.97-2.74-1.92-5.42-2.86-8.06l-0.08-0.22l0.16-0.17
									c2.12-2.28,3.89-4.81,5.27-7.45l0.11-0.2l0.23,0c2.93,0,5.78,0,8.55,0l-0.35,0.28c1.1-4.86,2.14-9.44,3.13-13.81l0.18,0.37
									c-2.71-1.3-5.26-2.51-7.72-3.69l-0.17-0.08l-0.01-0.19c-0.12-3.26-0.69-6.27-1.54-9.02l-0.05-0.17l0.12-0.12
									c2.2-2.2,4.18-4.17,6.06-6.04l-0.04,0.32c-2.91-4.65-5.4-8.6-7.52-11.99l0.23,0.08c-3.23,1.13-5.87,2.05-8.08,2.82
									l-0.08,0.03l-0.06-0.06c-2.27-2.12-4.2-3.41-5.49-4.23c-0.63-0.38-1.12-0.67-1.47-0.89
									C145.68,365.99,145.53,365.89,145.54,365.89c0.01-0.01,0.19,0.07,0.52,0.24c0.34,0.17,0.85,0.44,1.51,0.83
									c1.32,0.78,3.29,2.04,5.61,4.15l-0.14-0.03c2.19-0.8,4.83-1.75,8.04-2.92l0.15-0.05l0.08,0.13
									c2.16,3.37,4.67,7.31,7.63,11.92l0.11,0.17l-0.15,0.15c-1.86,1.88-3.83,3.87-6.02,6.08l0.07-0.29
									c0.89,2.79,1.48,5.84,1.62,9.17l-0.18-0.27c2.46,1.16,5.01,2.37,7.73,3.65l0.24,0.11l-0.06,0.26
									c-0.97,4.37-1.99,8.96-3.07,13.82l-0.06,0.28l-0.29,0c-2.78,0.01-5.62,0.02-8.55,0.03l0.33-0.2
									c-1.4,2.71-3.2,5.29-5.36,7.64l0.08-0.4c0.94,2.64,1.9,5.32,2.88,8.06l0.11,0.3l-0.27,0.17c-3.88,2.47-7.87,5-11.95,7.59
									l-0.28,0.18l-0.24-0.23c-2-1.98-4.02-3.99-6.07-6.03l0.42,0.1c-2.94,0.93-6.04,1.48-9.2,1.61l0.37-0.24
									c-1.21,2.55-2.43,5.13-3.66,7.73l-0.15,0.31l-0.34-0.08c-4.54-1.02-9.15-2.05-13.81-3.09l-0.34-0.08l0-0.35
									c0-1.42-0.01-2.84-0.01-4.26l0-2.15l0-1.08l0-0.54l0-0.27l0-0.13l0-0.07v-0.03v-0.02v-0.01c0.47,0.77,0.13,0.21,0.23,0.38
									l0,0l0,0c-2.85-1.48-5.46-3.36-7.63-5.38l0.44,0.09c-2.77,0.98-5.52,1.96-8.06,2.87l-0.33,0.12l-0.19-0.29
									c-2.6-4.12-5.17-8.17-7.57-11.96l-0.18-0.29l0.24-0.24c2.09-2.09,4.15-4.16,6.04-6.06l-0.1,0.42
									c-0.98-3.09-1.49-6.28-1.6-9.2l0.24,0.36c-2.68-1.27-5.32-2.53-7.72-3.68l-0.29-0.14l0.07-0.32
									c1.08-4.79,2.14-9.47,3.11-13.81l0.07-0.3l0.31,0c2.98,0,5.9,0,8.55-0.01l-0.33,0.2c1.51-2.9,3.41-5.49,5.39-7.62
									l-0.07,0.37c-1-2.82-1.97-5.57-2.85-8.07l-0.09-0.26l0.23-0.15c4.2-2.65,8.2-5.17,11.97-7.55l0.21-0.13l0.17,0.17
									c2.12,2.12,4.16,4.17,6.05,6.05l-0.29-0.07c3.14-0.98,6.25-1.46,9.17-1.57l-0.22,0.15c1.33-2.78,2.58-5.37,3.7-7.71
									l0.08-0.16l0.17,0.04c5.62,1.29,10.26,2.36,13.79,3.18l0.11,0.03l0,0.11c-0.03,2.75-0.04,4.87-0.06,6.34
									c-0.01,0.7-0.02,1.24-0.03,1.64C145.56,365.69,145.55,365.88,145.54,365.89z"/>
							</g>
						</g>
					</g>
				</g>
			</g>
		</g>
		<g>
			<g>
				<g>
					<g>
						<g>
							<path fill-rule="evenodd" clip-rule="evenodd" fill="#E8505B" d="M64.57,334.82c1.78,0.93,3.41,2.08,4.85,3.42l5.19-1.85
								l4.88,7.7l-3.89,3.9c0.59,1.87,0.94,3.84,1.02,5.85l4.97,2.36l-1.99,8.89l-5.5,0.01c-0.93,1.79-2.09,3.41-3.42,4.86
								l1.85,5.19l-7.69,4.88l-3.9-3.88c-1.87,0.59-3.84,0.94-5.85,1.02l-2.36,4.97l-8.89-1.99l-0.01-5.5
								c-1.79-0.93-3.41-2.08-4.86-3.42l-5.19,1.85l-4.88-7.7l3.89-3.9c-0.59-1.87-0.94-3.84-1.02-5.85l-4.97-2.36l1.99-8.89
								l5.5-0.01c0.93-1.79,2.09-3.41,3.42-4.86l-1.85-5.19l7.69-4.88l3.9,3.89c1.87-0.59,3.84-0.94,5.85-1.02l2.36-4.97l8.89,1.99
								L64.57,334.82L64.57,334.82z M56.73,345.28c-5.27-1.18-10.49,2.13-11.68,7.4c-1.18,5.27,2.13,10.49,7.4,11.68
								c5.27,1.18,10.49-2.13,11.68-7.4C65.31,351.69,62,346.47,56.73,345.28z"/>
						</g>
					</g>
				</g>
			</g>
			<g opacity="0.4">
				<g>
					<g>
						<g>
							<path fill-rule="evenodd" clip-rule="evenodd" fill="#FFFFFF" d="M64.57,334.82c1.78,0.93,3.41,2.08,4.85,3.42l5.19-1.85
								l4.88,7.7l-3.89,3.9c0.59,1.87,0.94,3.84,1.02,5.85l4.97,2.36l-1.99,8.89l-5.5,0.01c-0.93,1.79-2.09,3.41-3.42,4.86
								l1.85,5.19l-7.69,4.88l-3.9-3.88c-1.87,0.59-3.84,0.94-5.85,1.02l-2.36,4.97l-8.89-1.99l-0.01-5.5
								c-1.79-0.93-3.41-2.08-4.86-3.42l-5.19,1.85l-4.88-7.7l3.89-3.9c-0.59-1.87-0.94-3.84-1.02-5.85l-4.97-2.36l1.99-8.89
								l5.5-0.01c0.93-1.79,2.09-3.41,3.42-4.86l-1.85-5.19l7.69-4.88l3.9,3.89c1.87-0.59,3.84-0.94,5.85-1.02l2.36-4.97l8.89,1.99
								L64.57,334.82L64.57,334.82z M56.73,345.28c-5.27-1.18-10.49,2.13-11.68,7.4c-1.18,5.27,2.13,10.49,7.4,11.68
								c5.27,1.18,10.49-2.13,11.68-7.4C65.31,351.69,62,346.47,56.73,345.28z"/>
						</g>
					</g>
				</g>
			</g>
		</g>
	</g>
	<g>
		<g>
			<g>
				<g>
					<g>
						<g>
							<g>
								<g>
									<path fill-rule="evenodd" clip-rule="evenodd" fill="#263238" d="M635.94,180.96c2.52,0.32,4.95,0.97,7.25,1.91l5.33-4.46
										l9.15,6.96l-2.88,6.32c1.52,1.96,2.8,4.13,3.78,6.48l6.92,0.61l1.54,11.39l-6.51,2.43c-0.31,2.52-0.97,4.95-1.91,7.25
										l4.46,5.33l-6.96,9.15l-6.32-2.88c-1.96,1.52-4.13,2.8-6.48,3.78l-0.61,6.92l-11.39,1.55l-2.43-6.51
										c-2.52-0.31-4.95-0.97-7.25-1.91l-5.33,4.46l-9.15-6.96l2.88-6.32c-1.52-1.96-2.8-4.13-3.78-6.48l-6.92-0.61l-1.55-11.39
										l6.51-2.43c0.31-2.52,0.97-4.95,1.91-7.25l-4.46-5.33l6.96-9.15l6.32,2.88c1.96-1.52,4.13-2.8,6.48-3.78l0.61-6.92
										l11.39-1.55L635.94,180.96L635.94,180.96z M632.52,196.68c-7.84,0.28-13.41,7.6-11.59,15.23c1.34,5.64,6.6,9.64,12.4,9.43
										c7.83-0.29,13.4-7.6,11.59-15.22C643.57,200.47,638.32,196.47,632.52,196.68z"/>
								</g>
							</g>
						</g>
					</g>
				</g>
			</g>
		</g>
	</g>
	<g>
		<g>
			<g>
				<g>
					<g>
						<g>
							<g>
								<g>
									<g>
										<g>
											<path fill="#263238" d="M680.56,112.79c0,0,1.29-0.38,3.68-0.19c2.34,0.19,5.93,1.17,9.05,4.22
												c1.53,1.51,2.93,3.51,3.73,5.93c0.78,2.41,1.1,5.22,0.46,8.03c-0.28,1.41-0.8,2.8-1.53,4.12
												c-0.71,1.33-1.64,2.57-2.77,3.65c-2.22,2.21-5.28,3.7-8.56,4.18c-3.3,0.42-6.64-0.21-9.37-1.74
												c-1.38-0.74-2.61-1.69-3.65-2.78c-1.05-1.08-1.93-2.28-2.57-3.57c-1.36-2.54-1.8-5.33-1.69-7.86
												c0.12-2.55,0.95-4.85,2.02-6.71c2.2-3.77,5.39-5.67,7.6-6.47C679.22,112.77,680.56,112.79,680.56,112.79
												c0.02,0.1-1.31,0.21-3.48,1.1c-2.12,0.88-5.16,2.81-7.2,6.46c-0.99,1.81-1.75,4.01-1.83,6.45
												c-0.07,2.42,0.37,5.07,1.68,7.46c0.62,1.21,1.46,2.35,2.46,3.36c0.98,1.03,2.16,1.92,3.46,2.61
												c2.59,1.44,5.74,2.03,8.85,1.63c3.1-0.45,5.99-1.85,8.1-3.93c1.08-1.01,1.97-2.19,2.64-3.44
												c0.69-1.24,1.2-2.56,1.47-3.89c0.63-2.66,0.35-5.33-0.37-7.64c-0.73-2.32-2.04-4.25-3.48-5.73
												c-2.94-2.98-6.38-4.03-8.66-4.31C681.88,112.65,680.57,112.9,680.56,112.79z"/>
										</g>
									</g>
								</g>
							</g>
						</g>
					</g>
				</g>
			</g>
			<g>
				<g>
					<g>
						<g>
							<g>
								<g>
									<g>
										<g>
											<path fill="#263238" d="M686.21,93.69c-0.01,0.01-0.08-0.15-0.21-0.48c-0.14-0.36-0.34-0.85-0.59-1.48
												c-0.53-1.36-1.28-3.31-2.27-5.85l0.15,0.09c-3.52,0.5-8.15,1.15-13.74,1.95l0.19-0.2c-0.21,2.53-0.45,5.35-0.7,8.36
												l-0.01,0.15l-0.14,0.06c-2.6,1.09-5.24,2.59-7.74,4.55l-0.13,0.1l-0.16-0.07c-2.38-1.08-4.96-2.25-7.64-3.46l0.37-0.09
												c-2.64,3.48-5.44,7.18-8.38,11.06l-0.01-0.42c1.67,1.99,3.51,4.18,5.4,6.42l0.14,0.16l-0.08,0.2
												c-1.06,2.58-1.89,5.55-2.27,8.66l-0.03,0.22l-0.21,0.08c-2.43,0.91-5.12,1.92-7.85,2.95l0.24-0.41
												c0.59,4.32,1.23,8.98,1.88,13.75l-0.36-0.34c2.6,0.23,5.46,0.48,8.35,0.73l0.24,0.02l0.09,0.23
												c1.08,2.59,2.6,5.27,4.51,7.72l0.15,0.2l-0.1,0.23c-1.09,2.39-2.28,5-3.48,7.64l-0.13-0.51c3.5,2.66,7.25,5.51,11.05,8.4
												l-0.53,0.01c2.03-1.7,4.22-3.54,6.43-5.39l0.2-0.17l0.24,0.1c2.62,1.09,5.59,1.9,8.63,2.28l0,0l0,0
												c0.16,0.12-0.35-0.27,0.35,0.27l0,0.01l0.01,0.02l0.01,0.03l0.02,0.06l0.05,0.12l0.09,0.25l0.18,0.49l0.37,0.99
												l0.74,1.97c0.49,1.31,0.98,2.62,1.46,3.92l-0.46-0.27c4.65-0.63,9.24-1.25,13.76-1.86l-0.36,0.38
												c0.25-2.81,0.49-5.6,0.74-8.35l0.02-0.25l0.23-0.1c2.79-1.16,5.39-2.69,7.73-4.5l0.2-0.15l0.23,0.1
												c2.58,1.18,5.12,2.34,7.63,3.49l-0.49,0.12c2.87-3.77,5.68-7.45,8.42-11.04l0.01,0.49c-1.83-2.18-3.62-4.33-5.38-6.44
												l-0.15-0.18l0.09-0.21c1.17-2.82,1.93-5.75,2.3-8.65l0.03-0.22l0.21-0.08c2.7-1,5.31-1.97,7.86-2.92l-0.23,0.38
												c-0.65-4.84-1.26-9.41-1.84-13.76l0.3,0.28c-2.94-0.27-5.69-0.52-8.35-0.76l-0.19-0.02l-0.07-0.17
												c-1.23-2.96-2.77-5.53-4.5-7.76l-0.1-0.14l0.07-0.15c1.27-2.77,2.42-5.26,3.51-7.62l0.08,0.31
												c-4.26-3.28-7.9-6.07-11.01-8.46l0.24-0.01c-2.58,2.14-4.7,3.89-6.46,5.35l-0.06,0.05l-0.08-0.03
												c-2.81-1.18-5.03-1.7-6.49-2.02c-0.71-0.13-1.26-0.24-1.65-0.31C686.38,93.74,686.2,93.7,686.21,93.69
												c0.01-0.01,0.2,0,0.56,0.04c0.37,0.04,0.93,0.11,1.67,0.24c1.48,0.27,3.72,0.75,6.57,1.9l-0.14,0.02
												c1.75-1.48,3.84-3.26,6.4-5.43l0.12-0.1l0.12,0.09c3.13,2.36,6.79,5.12,11.08,8.36l0.16,0.12l-0.08,0.19
												c-1.07,2.36-2.2,4.87-3.45,7.65l-0.03-0.29c1.77,2.26,3.36,4.86,4.62,7.87l-0.26-0.19c2.66,0.23,5.42,0.46,8.36,0.72
												l0.26,0.02l0.04,0.26c0.6,4.35,1.23,8.91,1.89,13.75l0.04,0.28l-0.27,0.1c-2.55,0.96-5.16,1.94-7.85,2.95l0.24-0.3
												c-0.37,2.97-1.14,5.96-2.32,8.85l-0.06-0.39c1.77,2.1,3.57,4.24,5.4,6.42l0.2,0.24l-0.19,0.25
												c-2.73,3.59-5.53,7.28-8.39,11.05l-0.2,0.26l-0.3-0.13c-2.51-1.14-5.05-2.3-7.64-3.47l0.43-0.05
												c-2.39,1.86-5.05,3.43-7.91,4.62l0.26-0.35c-0.24,2.76-0.49,5.54-0.73,8.35l-0.03,0.34l-0.34,0.05
												c-4.52,0.61-9.11,1.24-13.75,1.87l-0.34,0.05l-0.12-0.32c-0.49-1.3-0.97-2.61-1.46-3.92l-0.74-1.97l-0.37-0.99
												l-0.18-0.49l-0.09-0.25l-0.05-0.12l-0.02-0.06l-0.01-0.03l-0.01-0.02l0-0.01c0.69,0.55,0.19,0.15,0.35,0.27l0,0l0,0
												c-3.12-0.39-6.16-1.23-8.85-2.34l0.44-0.07c-2.21,1.85-4.4,3.69-6.43,5.39l-0.26,0.22l-0.27-0.21
												c-3.8-2.89-7.55-5.75-11.04-8.41l-0.27-0.2l0.14-0.3c1.2-2.63,2.39-5.24,3.49-7.63l0.05,0.42
												c-1.95-2.51-3.51-5.26-4.61-7.91l0.34,0.25c-2.89-0.26-5.75-0.51-8.35-0.74l-0.32-0.03l-0.04-0.31
												c-0.64-4.78-1.27-9.44-1.85-13.76l-0.04-0.3l0.29-0.11c2.74-1.02,5.42-2.02,7.86-2.92l-0.24,0.3
												c0.4-3.18,1.26-6.21,2.35-8.84l0.06,0.36c-1.88-2.25-3.71-4.45-5.38-6.44l-0.17-0.21l0.16-0.21
												c2.96-3.87,5.78-7.55,8.43-11.03l0.15-0.19l0.22,0.1c2.68,1.23,5.25,2.41,7.62,3.5l-0.29,0.03
												c2.55-1.97,5.25-3.48,7.89-4.57l-0.15,0.21c0.28-3.01,0.54-5.82,0.77-8.35l0.02-0.17l0.17-0.02
												c5.61-0.73,10.24-1.33,13.76-1.79l0.11-0.01l0.04,0.1c0.92,2.54,1.62,4.49,2.11,5.85c0.23,0.65,0.4,1.15,0.53,1.52
												C686.16,93.51,686.22,93.69,686.21,93.69z"/>
										</g>
									</g>
								</g>
							</g>
						</g>
					</g>
				</g>
			</g>
		</g>
	</g>
</g>
<g id="Screen">
	<g>
		<g>
			<g>
				<g>
					<rect x="127.89" y="51.77" fill="#FAFAFA" width="499.62" height="345.38"/>
				</g>
				<g>
					<g>
						<path fill="#263238" d="M627.51,397.15c0-1.87-0.09-135.27-0.23-345.38l0.23,0.23c-138.55,0.02-311.92,0.03-499.58,0.06h-0.04
							l0.28-0.28c-0.01,123.37-0.02,240.56-0.02,345.38l-0.26-0.26C422.75,397.05,625.21,397.15,627.51,397.15
							c-2.3,0-204.76,0.11-499.62,0.26l-0.26,0v-0.26c-0.01-104.82-0.02-222.01-0.02-345.38v-0.28h0.28h0.04
							c187.65,0.02,361.03,0.04,499.58,0.06h0.23l0,0.23C627.6,261.89,627.51,395.29,627.51,397.15z"/>
					</g>
				</g>
			</g>
			<g>
				<rect x="127.89" y="51.77" fill="#263238" width="499.62" height="20.04"/>
			</g>
			<g>
				<path fill="#FFFFFF" d="M142.15,61.41c0,1.7-1.38,3.08-3.08,3.08c-1.7,0-3.08-1.38-3.08-3.08c0-1.7,1.38-3.08,3.08-3.08
					C140.77,58.33,142.15,59.71,142.15,61.41z"/>
			</g>
			<g>
				<path fill="#FFFFFF" d="M153.25,61.41c0,1.7-1.38,3.08-3.08,3.08c-1.7,0-3.08-1.38-3.08-3.08c0-1.7,1.38-3.08,3.08-3.08
					C151.87,58.33,153.25,59.71,153.25,61.41z"/>
			</g>
			<g>
				<path fill="#FFFFFF" d="M164.35,61.41c0,1.7-1.38,3.08-3.08,3.08s-3.08-1.38-3.08-3.08c0-1.7,1.38-3.08,3.08-3.08
					S164.35,59.71,164.35,61.41z"/>
			</g>
		</g>
		<g>
			<g>
				<g>
					<path fill="#E0E0E0" d="M609.64,375.45c0-1.25-0.06-41.23-0.17-112.19l0.17,0.17c-103.06,0.03-271.38,0.07-461.23,0.12h-0.03
						l0.28-0.28c0,38.43,0,75.98-0.01,112.19l-0.28-0.28C411.4,375.33,606.89,375.44,609.64,375.45c-2.74,0-198.24,0.12-461.26,0.28
						l-0.28,0v-0.28c0-36.21,0-73.76-0.01-112.19v-0.28h0.28h0.03c189.86,0.05,358.18,0.09,461.23,0.12h0.17l0,0.17
						C609.7,334.21,609.64,374.2,609.64,375.45z"/>
				</g>
			</g>
			<g>
				<g>
					<g>
						<path fill="#E0E0E0" d="M372.42,253.84c0,0-0.02-0.98-0.02-2.86c-0.01-1.88-0.01-4.67-0.03-8.3
							c-0.01-7.28-0.03-17.97-0.06-31.64c-0.03-27.32-0.07-66.55-0.12-114.25l0.23,0.23c-62.08,0.01-139.39,0.03-223,0.05h-0.02
							l0.28-0.28c-0.01,56.18-0.02,109.51-0.03,157.05l-0.26-0.26c65.84,0.05,121.56,0.1,160.83,0.13
							c19.65,0.03,35.18,0.05,45.81,0.07c5.31,0.01,9.4,0.02,12.16,0.03c1.38,0.01,2.42,0.01,3.14,0.02
							C372.05,253.83,372.42,253.84,372.42,253.84s-0.35,0.01-1.04,0.02c-0.7,0-1.74,0.01-3.11,0.02
							c-2.75,0.01-6.82,0.02-12.11,0.03c-10.61,0.02-26.13,0.04-45.75,0.07c-39.31,0.03-95.09,0.08-161,0.13l-0.26,0l0-0.26
							c-0.01-47.54-0.02-100.87-0.03-157.05v-0.28h0.28h0.02c83.61,0.02,160.91,0.04,223,0.05h0.23l0,0.23
							c-0.05,47.75-0.09,87.04-0.12,114.39c-0.03,13.65-0.04,24.32-0.06,31.59c-0.01,3.62-0.02,6.39-0.03,8.26
							C372.43,252.9,372.42,253.84,372.42,253.84z"/>
					</g>
				</g>
				<g>
					<path fill="#E8505B" d="M173.51,224.14l16.06-23.23c3.27-4.73,9.77-5.86,14.45-2.52l2.26,1.61c5.61,4.01,13.49,1.48,15.72-5.04
						l7.8-22.82c3.17-9.28,16.3-9.28,19.47,0l3.77,11.04c3.03,8.86,15.35,9.4,19.14,0.84l3.27-7.39c3.26-7.37,13.35-8.29,17.9-1.64
						v0c4.78,6.99,15.49,5.54,18.23-2.48l3.65-10.67c3.35-9.81,17.46-9.06,19.76,1.04l13.96,61.25
						C348.94,224.14,174,223.65,173.51,224.14z"/>
				</g>
				<g opacity="0.3">
					<path d="M173.51,224.14l16.06-23.23c3.27-4.73,9.77-5.86,14.45-2.52l2.26,1.61c5.61,4.01,13.49,1.48,15.72-5.04l7.8-22.82
						c3.17-9.28,16.3-9.28,19.47,0l3.77,11.04c3.03,8.86,15.35,9.4,19.14,0.84l3.27-7.39c3.26-7.37,13.35-8.29,17.9-1.64v0
						c4.78,6.99,15.49,5.54,18.23-2.48l3.65-10.67c3.35-9.81,17.46-9.06,19.76,1.04l13.96,61.25
						C348.94,224.14,174,223.65,173.51,224.14z"/>
				</g>
				<g>
					<g>
						<g>
							<g>
								<path fill="#E8505B" d="M173.06,224.74l13.05-38.18c3.06-8.95,15.66-9.1,18.93-0.23l6.25,16.92
									c2.71,7.32,12.36,8.9,17.26,2.81l5.06-6.3c3.37-4.18,9.43-4.98,13.76-1.81l11.79,8.63c1.72,1.26,3.8,1.94,5.93,1.94h15.01
									c2.13,0,4.21,0.68,5.93,1.94l11.17,8.17c4.58,3.35,11.02,2.25,14.23-2.44l10.48-15.33c0.13-0.2,0.27-0.38,0.42-0.57
									c4.21-5.33,12.64-4.2,15.69,1.86l11.21,22.24C349.24,224.38,173.06,224.02,173.06,224.74z"/>
							</g>
						</g>
					</g>
				</g>
				<g>
					<path fill="#E8505B" d="M349.18,224.38l-13.64-11.1c-18.7-13.76-27.57,12.43-42.28-7.22l-5.06-6.3
						c-3.37-4.18-9.43-4.98-13.76-1.81l-5.86,4.29c-5.58,4.08-12.31,6.28-19.21,6.28h-7.66c-2.13,0-4.21,0.68-5.93,1.94l-11.17,8.17
						c-4.58,3.35-7.77,3.8-15.11-2.35c0,0-7.96-6.47-8.15-6.7c-3.9-4.75-12.05-4.75-15.57,0c-0.84,1.14-1.73,2.16-2.68,3.21
						l-10.53,11.61C172.58,224.38,349.18,223.66,349.18,224.38z"/>
				</g>
				<g opacity="0.3">
					<path fill="#FFFFFF" d="M349.18,224.38l-13.64-11.1c-18.7-13.76-27.57,12.43-42.28-7.22l-5.06-6.3
						c-3.37-4.18-9.43-4.98-13.76-1.81l-5.86,4.29c-5.58,4.08-12.31,6.28-19.21,6.28h-7.66c-2.13,0-4.21,0.68-5.93,1.94l-11.17,8.17
						c-4.58,3.35-7.77,3.8-15.11-2.35c0,0-7.96-6.47-8.15-6.7c-3.9-4.75-12.05-4.75-15.57,0c-0.84,1.14-1.73,2.16-2.68,3.21
						l-10.53,11.61C172.58,224.38,349.18,223.66,349.18,224.38z"/>
				</g>
				<g>
					<g>
						<path fill="#263238" d="M221.5,136.22c0,0.16-6.24,0.28-13.94,0.28c-7.7,0-13.94-0.13-13.94-0.28c0-0.16,6.24-0.28,13.94-0.28
							C215.26,135.94,221.5,136.06,221.5,136.22z"/>
					</g>
				</g>
				<g>
					<rect x="185.81" y="133.83" fill="#E8505B" width="4.77" height="4.77"/>
				</g>
				<g>
					<g>
						<path fill="#263238" d="M274.08,136.22c0,0.16-6.24,0.28-13.94,0.28c-7.7,0-13.94-0.13-13.94-0.28
							c0-0.16,6.24-0.28,13.94-0.28C267.84,135.94,274.08,136.06,274.08,136.22z"/>
					</g>
				</g>
				<g>
					<rect x="238.39" y="133.83" fill="#E8505B" width="4.77" height="4.77"/>
				</g>
				<g>
					<g>
						<path fill="#263238" d="M326.66,136.22c0,0.16-6.24,0.28-13.94,0.28c-7.7,0-13.94-0.13-13.94-0.28
							c0-0.16,6.24-0.28,13.94-0.28C320.42,135.94,326.66,136.06,326.66,136.22z"/>
					</g>
				</g>
				<g>
					<rect x="290.98" y="133.83" fill="#E8505B" width="4.77" height="4.77"/>
				</g>
			</g>
			<g>
				<g>
					<g>
						<g>
							<path fill="#E8505B" d="M327.36,356.27l11.48-16.37c1.34-1.91,3.99-2.32,5.85-0.92l6.04,4.56c1.97,1.49,4.8,0.91,6.04-1.23
								l17.42-30.17c1.45-2.52,4.99-2.77,6.79-0.49l10.88,13.79c1.75,2.22,5.18,2.05,6.7-0.34l7.95-12.49
								c1.66-2.61,5.49-2.52,7.03,0.15l6.56,11.37c1.54,2.67,5.37,2.76,7.03,0.16l22.44-35.17c1.6-2.5,5.24-2.54,6.89-0.07
								l37.07,55.45c1.49,2.22,4.67,2.46,6.46,0.48l22.52-24.79c1.58-1.74,4.3-1.8,5.96-0.14l17.91,17.98
								c1.91,1.92,5.12,1.5,6.48-0.85l32.05-55.51c2.1-3.64,7.67-2.15,7.67,2.06v72.54H327.36z"/>
						</g>
						<g>
							<g>
								<path fill="#263238" d="M591.89,365.33c-0.01,0-0.01-0.1-0.02-0.32c0-0.23-0.01-0.55-0.02-0.98
									c-0.01-0.9-0.02-2.23-0.04-4.05l0.07,0.07c-15.31,0.12-68.6,0.21-131.87,0.21c-63.3,0-116.57-0.09-131.89-0.21l0.07-0.07
									c-0.02,1.82-0.03,3.15-0.04,4.05c-0.01,0.43-0.01,0.74-0.02,0.98c-0.01,0.21-0.01,0.32-0.02,0.32s-0.01-0.1-0.02-0.32
									c0-0.23-0.01-0.55-0.02-0.98c-0.01-0.9-0.02-2.23-0.04-4.05l0-0.07l0.08,0c15.31-0.12,68.59-0.21,131.89-0.21
									c63.28,0,116.56,0.09,131.87,0.21l0.08,0l0,0.07c-0.02,1.82-0.03,3.15-0.04,4.05c-0.01,0.43-0.01,0.74-0.02,0.98
									C591.9,365.23,591.89,365.33,591.89,365.33z"/>
							</g>
						</g>
						<g>
							<g>
								<path fill="#263238" d="M357.44,364.91c-0.16,0-0.28-0.5-0.28-1.12c0-0.62,0.13-1.12,0.28-1.12c0.16,0,0.28,0.5,0.28,1.12
									C357.72,364.41,357.59,364.91,357.44,364.91z"/>
							</g>
						</g>
						<g>
							<g>
								<path fill="#263238" d="M386.74,364.91c-0.16,0-0.28-0.5-0.28-1.12c0-0.62,0.13-1.12,0.28-1.12c0.16,0,0.28,0.5,0.28,1.12
									C387.03,364.41,386.9,364.91,386.74,364.91z"/>
							</g>
						</g>
						<g>
							<g>
								<path fill="#263238" d="M416.05,364.91c-0.16,0-0.28-0.5-0.28-1.12c0-0.62,0.13-1.12,0.28-1.12c0.16,0,0.28,0.5,0.28,1.12
									C416.33,364.41,416.21,364.91,416.05,364.91z"/>
							</g>
						</g>
						<g>
							<g>
								<path fill="#263238" d="M445.36,364.91c-0.16,0-0.28-0.5-0.28-1.12c0-0.62,0.13-1.12,0.28-1.12c0.16,0,0.28,0.5,0.28,1.12
									C445.64,364.41,445.51,364.91,445.36,364.91z"/>
							</g>
						</g>
						<g>
							<g>
								<path fill="#263238" d="M474.66,364.91c-0.16,0-0.28-0.5-0.28-1.12c0-0.62,0.13-1.12,0.28-1.12c0.16,0,0.28,0.5,0.28,1.12
									C474.94,364.41,474.82,364.91,474.66,364.91z"/>
							</g>
						</g>
						<g>
							<g>
								<path fill="#263238" d="M503.97,364.91c-0.16,0-0.28-0.5-0.28-1.12c0-0.62,0.13-1.12,0.28-1.12c0.16,0,0.28,0.5,0.28,1.12
									C504.25,364.41,504.12,364.91,503.97,364.91z"/>
							</g>
						</g>
						<g>
							<g>
								<path fill="#263238" d="M533.27,364.91c-0.16,0-0.28-0.5-0.28-1.12c0-0.62,0.13-1.12,0.28-1.12c0.16,0,0.28,0.5,0.28,1.12
									C533.56,364.41,533.43,364.91,533.27,364.91z"/>
							</g>
						</g>
						<g>
							<g>
								<path fill="#263238" d="M562.58,364.91c-0.16,0-0.28-0.5-0.28-1.12c0-0.62,0.13-1.12,0.28-1.12s0.28,0.5,0.28,1.12
									C562.86,364.41,562.74,364.91,562.58,364.91z"/>
							</g>
						</g>
					</g>
				</g>
			</g>
			<g>
				<g>
					<g>
						<path fill="#E0E0E0" d="M611.09,217.86c0,0-0.01-0.65-0.02-1.9c-0.01-1.26-0.01-3.11-0.02-5.54
							c-0.01-4.87-0.03-12.03-0.05-21.25c-0.03-18.42-0.06-45.05-0.11-77.92l0.21,0.21c-58.12,0.02-136.69,0.05-223,0.08h-0.02
							l0.28-0.28c-0.01,37.54-0.01,73.6-0.02,106.61l-0.27-0.27c64.97,0.05,120.69,0.1,160.18,0.13
							c19.76,0.03,35.45,0.06,46.22,0.07c5.38,0.01,9.53,0.03,12.34,0.03c1.4,0.01,2.46,0.01,3.19,0.02
							C610.72,217.85,611.09,217.86,611.09,217.86s-0.35,0.01-1.06,0.02c-0.72,0-1.77,0.01-3.16,0.02
							c-2.8,0.01-6.93,0.02-12.28,0.03c-10.75,0.02-26.42,0.04-46.16,0.07c-39.53,0.03-95.31,0.08-160.36,0.13l-0.27,0v-0.27
							c0-33.01-0.01-69.08-0.02-106.61v-0.28h0.28h0.02c86.32,0.03,164.89,0.06,223,0.08l0.21,0l0,0.21
							c-0.05,32.93-0.09,59.6-0.11,78.05c-0.02,9.2-0.04,16.34-0.05,21.2c-0.01,2.41-0.02,4.25-0.02,5.5
							C611.1,217.24,611.09,217.86,611.09,217.86z"/>
					</g>
				</g>
				<g>
					<g>
						<g>
							<g>
								<path fill="#E0E0E0" d="M560.61,157.74H406.99c-1.41,0-2.56-1.15-2.56-2.56c0-1.41,1.15-2.56,2.56-2.56h153.63
									c1.41,0,2.56,1.15,2.56,2.56C563.17,156.59,562.03,157.74,560.61,157.74z"/>
							</g>
							<g>
								<path fill="#E0E0E0" d="M560.61,137.46H406.99c-1.41,0-2.56-1.15-2.56-2.56c0-1.41,1.15-2.56,2.56-2.56h153.63
									c1.41,0,2.56,1.15,2.56,2.56C563.17,136.32,562.03,137.46,560.61,137.46z"/>
							</g>
							<g>
								<path fill="#455A64" d="M476.4,157.74h-69.42c-1.41,0-2.56-1.15-2.56-2.56c0-1.41,1.15-2.56,2.56-2.56h69.42
									c1.41,0,2.56,1.15,2.56,2.56C478.96,156.59,477.82,157.74,476.4,157.74z"/>
							</g>
						</g>
						<g>
							<path fill="#263238" d="M580.09,156.27h-1.13v1.47h-0.83v-1.47h-3.32v-0.6l3.06-3.91h0.92l-2.93,3.77h2.3v-1.3h0.8v1.3h1.13
								V156.27z"/>
							<path fill="#263238" d="M584.77,155.95c0,1.03-0.73,1.86-2.26,1.86c-0.85,0-1.68-0.27-2.19-0.73l0.39-0.67
								c0.4,0.38,1.07,0.64,1.79,0.64c0.9,0,1.42-0.42,1.42-1.07c0-0.67-0.43-1.09-1.81-1.09h-1.36l0.32-3.12h3.37v0.74h-2.65
								l-0.16,1.64h0.67C584.07,154.15,584.77,154.89,584.77,155.95z"/>
							<path fill="#263238" d="M585.3,153.34c0-0.97,0.56-1.63,1.39-1.63c0.83,0,1.38,0.65,1.38,1.63s-0.55,1.63-1.38,1.63
								C585.86,154.97,585.3,154.32,585.3,153.34z M587.52,153.34c0-0.72-0.32-1.14-0.84-1.14c-0.51,0-0.84,0.44-0.84,1.14
								c0,0.71,0.32,1.14,0.84,1.14C587.21,154.49,587.52,154.06,587.52,153.34z M590.29,151.76h0.66l-4.08,5.97h-0.66
								L590.29,151.76z M589.09,156.16c0-0.97,0.55-1.63,1.38-1.63c0.83,0,1.39,0.66,1.39,1.63c0,0.97-0.56,1.63-1.39,1.63
								C589.64,157.79,589.09,157.13,589.09,156.16z M591.3,156.16c0-0.71-0.32-1.14-0.84-1.14c-0.52,0-0.84,0.43-0.84,1.14
								s0.31,1.14,0.84,1.14C590.98,157.3,591.3,156.87,591.3,156.16z"/>
						</g>
					</g>
				</g>
				<g>
					<g>
						<g>
							<g>
								<path fill="#E0E0E0" d="M560.61,176.51H406.99c-1.41,0-2.56-1.15-2.56-2.56c0-1.41,1.15-2.56,2.56-2.56h153.63
									c1.41,0,2.56,1.15,2.56,2.56C563.17,175.37,562.03,176.51,560.61,176.51z"/>
							</g>
							<g>
								<path fill="#455A64" d="M499.02,176.51h-91.88c-1.91,0-2.72-1.15-2.72-2.56c0-1.41,0.81-2.56,1.81-2.56h91.88
									c1.8,0,2.94,1.15,2.94,2.56C501.05,176.05,499.11,176.51,499.02,176.51z"/>
							</g>
						</g>
						<g>
							<path fill="#263238" d="M579.24,170.54v0.58l-2.41,5.39h-0.9l2.36-5.23h-2.73v1.07h-0.82v-1.81H579.24z"/>
							<path fill="#263238" d="M579.82,173.53c0-1.95,1.04-3.06,2.44-3.06c1.39,0,2.43,1.11,2.43,3.06c0,1.95-1.04,3.06-2.43,3.06
								C580.87,176.58,579.82,175.47,579.82,173.53z M583.84,173.53c0-1.53-0.65-2.3-1.58-2.3c-0.94,0-1.59,0.77-1.59,2.3
								c0,1.53,0.65,2.3,1.59,2.3C583.2,175.82,583.84,175.06,583.84,173.53z"/>
							<path fill="#263238" d="M585.42,172.12c0-0.97,0.56-1.63,1.39-1.63c0.83,0,1.38,0.65,1.38,1.63c0,0.98-0.55,1.63-1.38,1.63
								C585.99,173.75,585.42,173.09,585.42,172.12z M587.65,172.12c0-0.72-0.32-1.14-0.84-1.14c-0.51,0-0.84,0.44-0.84,1.14
								c0,0.71,0.32,1.14,0.84,1.14C587.34,173.26,587.65,172.84,587.65,172.12z M590.42,170.54h0.66l-4.08,5.97h-0.66
								L590.42,170.54z M589.21,174.94c0-0.97,0.55-1.63,1.38-1.63c0.83,0,1.39,0.66,1.39,1.63c0,0.97-0.56,1.63-1.39,1.63
								C589.77,176.57,589.21,175.91,589.21,174.94z M591.43,174.94c0-0.71-0.32-1.14-0.84-1.14c-0.52,0-0.84,0.43-0.84,1.14
								c0,0.72,0.32,1.14,0.84,1.14C591.11,176.08,591.43,175.64,591.43,174.94z"/>
						</g>
					</g>
				</g>
				<g>
					<g>
						<g>
							<g>
								<path fill="#E0E0E0" d="M560.61,194.85H406.99c-1.41,0-2.56-1.15-2.56-2.56s1.15-2.56,2.56-2.56h153.63
									c1.41,0,2.56,1.15,2.56,2.56S562.03,194.85,560.61,194.85z"/>
							</g>
							<g>
								<path fill="#455A64" d="M464.05,194.85h-57.06c-1.41,0-2.56-1.15-2.56-2.56s1.15-2.56,2.56-2.56h57.06
									c1.41,0,2.56,1.15,2.56,2.56S465.46,194.85,464.05,194.85z"/>
							</g>
						</g>
						<g>
							<path fill="#263238" d="M579.08,193.05c0,1.03-0.73,1.86-2.26,1.86c-0.85,0-1.68-0.27-2.19-0.73l0.39-0.67
								c0.4,0.38,1.07,0.64,1.79,0.64c0.9,0,1.42-0.42,1.42-1.07c0-0.67-0.43-1.09-1.81-1.09h-1.36l0.32-3.12h3.37v0.74h-2.65
								l-0.16,1.64h0.67C578.38,191.25,579.08,192,579.08,193.05z"/>
							<path fill="#263238" d="M579.79,191.86c0-1.95,1.04-3.06,2.44-3.06c1.39,0,2.43,1.11,2.43,3.06c0,1.95-1.04,3.06-2.43,3.06
								C580.83,194.91,579.79,193.8,579.79,191.86z M583.81,191.86c0-1.53-0.65-2.3-1.58-2.3c-0.94,0-1.59,0.77-1.59,2.3
								c0,1.53,0.65,2.3,1.59,2.3C583.16,194.15,583.81,193.39,583.81,191.86z"/>
							<path fill="#263238" d="M585.39,190.45c0-0.97,0.56-1.63,1.39-1.63c0.83,0,1.38,0.65,1.38,1.63c0,0.98-0.55,1.63-1.38,1.63
								C585.95,192.08,585.39,191.42,585.39,190.45z M587.62,190.45c0-0.72-0.32-1.14-0.84-1.14c-0.51,0-0.84,0.44-0.84,1.14
								s0.32,1.14,0.84,1.14C587.3,191.59,587.62,191.17,587.62,190.45z M590.38,188.87h0.66l-4.08,5.97h-0.66L590.38,188.87z
								 M589.18,193.27c0-0.97,0.55-1.63,1.38-1.63c0.83,0,1.39,0.66,1.39,1.63c0,0.97-0.56,1.63-1.39,1.63
								C589.73,194.9,589.18,194.24,589.18,193.27z M591.4,193.27c0-0.71-0.32-1.14-0.84-1.14c-0.52,0-0.84,0.43-0.84,1.14
								c0,0.72,0.32,1.14,0.84,1.14C591.07,194.41,591.4,193.98,591.4,193.27z"/>
						</g>
					</g>
				</g>
				<g>
					<g>
						<g>
							<g>
								<path fill="#E8505B" d="M508.69,137.46H406.99c-1.41,0-2.56-1.15-2.56-2.56s1.15-2.56,2.56-2.56h101.71
									c1.41,0,2.56,1.15,2.56,2.56S510.11,137.46,508.69,137.46z"/>
							</g>
						</g>
						<g>
							<path fill="#263238" d="M579.52,135.64c0,1.15-0.93,1.89-2.12,1.89c-1.6,0-2.51-1.08-2.51-2.98c0-2.04,1.15-3.13,2.83-3.13
								c0.56,0,1.1,0.11,1.48,0.35l-0.32,0.67c-0.31-0.2-0.72-0.28-1.14-0.28c-1.21,0-1.99,0.76-1.99,2.25c0,0.07,0,0.14,0.01,0.21
								c0.34-0.51,0.97-0.79,1.71-0.79C578.66,133.83,579.52,134.54,579.52,135.64z M578.69,135.68c0-0.7-0.53-1.15-1.36-1.15
								c-0.81,0-1.37,0.5-1.37,1.16c0,0.61,0.5,1.15,1.42,1.15C578.14,136.84,578.69,136.39,578.69,135.68z"/>
							<path fill="#263238" d="M580.16,134.47c0-1.95,1.04-3.06,2.44-3.06c1.39,0,2.43,1.11,2.43,3.06c0,1.95-1.04,3.06-2.43,3.06
								C581.2,137.53,580.16,136.42,580.16,134.47z M584.18,134.47c0-1.53-0.65-2.3-1.58-2.3c-0.94,0-1.59,0.77-1.59,2.3
								s0.65,2.3,1.59,2.3C583.53,136.77,584.18,136,584.18,134.47z"/>
							<path fill="#263238" d="M585.76,133.07c0-0.97,0.56-1.63,1.39-1.63c0.83,0,1.38,0.65,1.38,1.63c0,0.98-0.55,1.63-1.38,1.63
								C586.32,134.7,585.76,134.04,585.76,133.07z M587.98,133.07c0-0.72-0.32-1.14-0.84-1.14c-0.51,0-0.84,0.44-0.84,1.14
								c0,0.71,0.32,1.14,0.84,1.14C587.67,134.21,587.98,133.78,587.98,133.07z M590.75,131.49h0.66l-4.08,5.97h-0.66
								L590.75,131.49z M589.55,135.88c0-0.97,0.55-1.63,1.38-1.63c0.83,0,1.39,0.66,1.39,1.63c0,0.97-0.56,1.63-1.39,1.63
								C590.1,137.51,589.55,136.86,589.55,135.88z M591.77,135.88c0-0.71-0.32-1.14-0.84-1.14c-0.52,0-0.84,0.43-0.84,1.14
								c0,0.72,0.31,1.14,0.84,1.14C591.44,137.03,591.77,136.59,591.77,135.88z"/>
						</g>
					</g>
				</g>
			</g>
			<g>
				<g>
					<path fill="#E0E0E0" d="M557.03,228.79c0,0.16-37.6,0.28-83.98,0.28c-46.39,0-83.98-0.13-83.98-0.28
						c0-0.16,37.59-0.28,83.98-0.28C519.43,228.5,557.03,228.63,557.03,228.79z"/>
				</g>
			</g>
			<g>
				<g>
					<path fill="#E0E0E0" d="M557.03,238.74c0,0.16-37.6,0.28-83.98,0.28c-46.39,0-83.98-0.13-83.98-0.28
						c0-0.16,37.59-0.28,83.98-0.28C519.43,238.46,557.03,238.59,557.03,238.74z"/>
				</g>
			</g>
			<g>
				<g>
					<path fill="#E0E0E0" d="M557.03,247.75c0,0.16-37.6,0.28-83.98,0.28c-46.39,0-83.98-0.13-83.98-0.28s37.59-0.28,83.98-0.28
						C519.43,247.47,557.03,247.6,557.03,247.75z"/>
				</g>
			</g>
			<g>
				<g>
					<g>
						<g>
							<g>
								<path fill="#E0E0E0" d="M179.07,349.76L179.07,349.76c-1.67,0-3.02-1.35-3.02-3.02v-56.63c0-1.67,1.35-3.02,3.02-3.02l0,0
									c1.67,0,3.02,1.35,3.02,3.02v56.63C182.09,348.41,180.74,349.76,179.07,349.76z"/>
							</g>
							<g>
								<path fill="#E8505B" d="M179.07,350.03L179.07,350.03c-1.67,0-3.02-1.35-3.02-3.02V310.5c0-1.67,1.35-3.02,3.02-3.02l0,0
									c1.67,0,3.02,1.35,3.02,3.02v36.51C182.09,348.68,180.74,350.03,179.07,350.03z"/>
							</g>
						</g>
						<g>
							<path fill="#263238" d="M177.17,352.39v5.03h-0.52v-4.57h-1.19v-0.46H177.17z"/>
							<path fill="#263238" d="M178.37,354.91c0-1.6,0.84-2.56,2.01-2.56c1.17,0,2.01,0.96,2.01,2.56c0,1.6-0.85,2.56-2.01,2.56
								C179.22,357.47,178.37,356.51,178.37,354.91z M181.86,354.91c0-1.35-0.6-2.09-1.48-2.09c-0.88,0-1.48,0.74-1.48,2.09
								c0,1.34,0.6,2.09,1.48,2.09C181.26,356.99,181.86,356.25,181.86,354.91z"/>
						</g>
					</g>
					<g>
						<g>
							<g>
								<path fill="#E0E0E0" d="M191.14,349.76L191.14,349.76c-1.67,0-3.02-1.35-3.02-3.02v-56.63c0-1.67,1.35-3.02,3.02-3.02l0,0
									c1.67,0,3.02,1.35,3.02,3.02v56.63C194.16,348.41,192.81,349.76,191.14,349.76z"/>
							</g>
							<g>
								<path fill="#E8505B" d="M191.14,350.03L191.14,350.03c-1.67,0-3.02-1.35-3.02-3.02V299c0-1.67,1.35-3.02,3.02-3.02l0,0
									c1.67,0,3.02,1.35,3.02,3.02v48.01C194.16,348.68,192.81,350.03,191.14,350.03z"/>
							</g>
						</g>
						<g>
							<path fill="#263238" d="M190.42,356.97v0.46h-3.53v-0.37l2.09-2.05c0.57-0.56,0.68-0.9,0.68-1.24c0-0.58-0.41-0.94-1.18-0.94
								c-0.59,0-1.04,0.18-1.37,0.56l-0.37-0.32c0.39-0.46,1.01-0.72,1.78-0.72c1.02,0,1.67,0.52,1.67,1.36
								c0,0.48-0.15,0.91-0.83,1.57l-1.71,1.68H190.42z"/>
							<path fill="#263238" d="M191.04,354.91c0-1.6,0.84-2.56,2.01-2.56c1.16,0,2.01,0.96,2.01,2.56c0,1.6-0.85,2.56-2.01,2.56
								C191.88,357.47,191.04,356.51,191.04,354.91z M194.53,354.91c0-1.35-0.6-2.09-1.48-2.09c-0.88,0-1.48,0.74-1.48,2.09
								c0,1.34,0.6,2.09,1.48,2.09C193.92,356.99,194.53,356.25,194.53,354.91z"/>
						</g>
					</g>
					<g>
						<g>
							<g>
								<path fill="#E0E0E0" d="M203.21,349.76L203.21,349.76c-1.67,0-3.02-1.35-3.02-3.02v-56.63c0-1.67,1.35-3.02,3.02-3.02l0,0
									c1.67,0,3.02,1.35,3.02,3.02v56.63C206.23,348.41,204.88,349.76,203.21,349.76z"/>
							</g>
							<g>
								<path fill="#E8505B" d="M203.21,350.03L203.21,350.03c-1.67,0-3.02-1.35-3.02-3.02v-27.89c0-1.67,1.35-3.02,3.02-3.02l0,0
									c1.67,0,3.02,1.35,3.02,3.02v27.89C206.23,348.68,204.88,350.03,203.21,350.03z"/>
							</g>
						</g>
						<g>
							<path fill="#263238" d="M202.43,355.98c0,0.84-0.61,1.49-1.83,1.49c-0.73,0-1.42-0.25-1.81-0.65l0.25-0.41
								c0.32,0.34,0.91,0.58,1.56,0.58c0.83,0,1.29-0.39,1.29-1.01c0-0.6-0.42-1-1.36-1h-0.36v-0.38l1.4-1.75h-2.58v-0.46h3.24v0.37
								l-1.42,1.79C201.89,354.61,202.43,355.17,202.43,355.98z"/>
							<path fill="#263238" d="M203.15,354.91c0-1.6,0.84-2.56,2.01-2.56c1.16,0,2.01,0.96,2.01,2.56c0,1.6-0.85,2.56-2.01,2.56
								C203.99,357.47,203.15,356.51,203.15,354.91z M206.64,354.91c0-1.35-0.6-2.09-1.48-2.09c-0.88,0-1.48,0.74-1.48,2.09
								c0,1.34,0.6,2.09,1.48,2.09C206.03,356.99,206.64,356.25,206.64,354.91z"/>
						</g>
					</g>
					<g>
						<g>
							<g>
								<path fill="#E0E0E0" d="M215.28,349.76L215.28,349.76c-1.67,0-3.02-1.35-3.02-3.02v-56.63c0-1.67,1.35-3.02,3.02-3.02l0,0
									c1.67,0,3.02,1.35,3.02,3.02v56.63C218.29,348.41,216.94,349.76,215.28,349.76z"/>
							</g>
							<g>
								<path fill="#E8505B" d="M215.28,350.03L215.28,350.03c-1.67,0-3.02-1.35-3.02-3.02V299c0-1.67,1.35-3.02,3.02-3.02l0,0
									c1.67,0,3.02,1.35,3.02,3.02v48.01C218.29,348.68,216.94,350.03,215.28,350.03z"/>
							</g>
						</g>
						<g>
							<path fill="#263238" d="M215.3,356.1h-1.01v1.32h-0.52v-1.32h-2.84v-0.37l2.67-3.34h0.58l-2.57,3.25h2.19v-1.16h0.5v1.16
								h1.01V356.1z"/>
							<path fill="#263238" d="M215.77,354.91c0-1.6,0.84-2.56,2.01-2.56c1.16,0,2.01,0.96,2.01,2.56c0,1.6-0.85,2.56-2.01,2.56
								C216.61,357.47,215.77,356.51,215.77,354.91z M219.26,354.91c0-1.35-0.6-2.09-1.48-2.09c-0.88,0-1.48,0.74-1.48,2.09
								c0,1.34,0.6,2.09,1.48,2.09C218.66,356.99,219.26,356.25,219.26,354.91z"/>
						</g>
					</g>
					<g>
						<g>
							<g>
								<path fill="#E0E0E0" d="M227.34,349.76L227.34,349.76c-1.67,0-3.02-1.35-3.02-3.02v-56.63c0-1.67,1.35-3.02,3.02-3.02l0,0
									c1.67,0,3.02,1.35,3.02,3.02v56.63C230.36,348.41,229.01,349.76,227.34,349.76z"/>
							</g>
							<g>
								<path fill="#E8505B" d="M227.34,350.03L227.34,350.03c-1.67,0-3.02-1.35-3.02-3.02V308.2c0-1.67,1.35-3.02,3.02-3.02l0,0
									c1.67,0,3.02,1.35,3.02,3.02v38.81C230.36,348.68,229.01,350.03,227.34,350.03z"/>
							</g>
						</g>
						<g>
							<path fill="#263238" d="M227.07,355.94c0,0.86-0.6,1.53-1.83,1.53c-0.73,0-1.42-0.25-1.81-0.65l0.25-0.41
								c0.32,0.34,0.9,0.58,1.55,0.58c0.86,0,1.31-0.42,1.31-1.03c0-0.65-0.4-1.05-1.68-1.05h-1.07l0.26-2.52h2.75v0.46h-2.3
								l-0.17,1.6h0.65C226.5,354.46,227.07,355.05,227.07,355.94z"/>
							<path fill="#263238" d="M227.73,354.91c0-1.6,0.84-2.56,2.01-2.56c1.17,0,2.01,0.96,2.01,2.56c0,1.6-0.85,2.56-2.01,2.56
								C228.57,357.47,227.73,356.51,227.73,354.91z M231.21,354.91c0-1.35-0.6-2.09-1.48-2.09c-0.88,0-1.48,0.74-1.48,2.09
								c0,1.34,0.6,2.09,1.48,2.09C230.61,356.99,231.21,356.25,231.21,354.91z"/>
						</g>
					</g>
					<g>
						<g>
							<g>
								<path fill="#E0E0E0" d="M239.41,349.76L239.41,349.76c-1.67,0-3.02-1.35-3.02-3.02v-56.63c0-1.67,1.35-3.02,3.02-3.02l0,0
									c1.67,0,3.02,1.35,3.02,3.02v56.63C242.43,348.41,241.08,349.76,239.41,349.76z"/>
							</g>
							<g>
								<path fill="#E8505B" d="M239.41,349.76L239.41,349.76c-1.67,0-3.02-1.35-3.02-2.75v-27.89c0-1.93,1.35-3.29,3.02-3.29l0,0
									c1.67,0,3.02,1.35,3.02,3.02v27.89C242.43,348.41,241.08,349.76,239.41,349.76z"/>
							</g>
						</g>
						<g>
							<path fill="#263238" d="M239.02,355.92c0,0.94-0.74,1.55-1.72,1.55c-1.34,0-2.06-0.93-2.06-2.52c0-1.71,0.93-2.6,2.3-2.6
								c0.45,0,0.88,0.08,1.19,0.27l-0.21,0.42c-0.26-0.17-0.6-0.24-0.98-0.24c-1.09,0-1.78,0.7-1.78,2.06
								c0,0.11,0.01,0.26,0.02,0.41c0.25-0.55,0.84-0.86,1.54-0.86C238.32,354.41,239.02,355,239.02,355.92z M238.5,355.94
								c0-0.66-0.49-1.09-1.27-1.09c-0.77,0-1.29,0.48-1.29,1.1c0,0.55,0.46,1.08,1.33,1.08C238,357.03,238.5,356.61,238.5,355.94z"
								/>
							<path fill="#263238" d="M239.61,354.91c0-1.6,0.84-2.56,2.01-2.56c1.17,0,2.01,0.96,2.01,2.56c0,1.6-0.85,2.56-2.01,2.56
								C240.45,357.47,239.61,356.51,239.61,354.91z M243.1,354.91c0-1.35-0.6-2.09-1.48-2.09c-0.88,0-1.48,0.74-1.48,2.09
								c0,1.34,0.6,2.09,1.48,2.09C242.49,356.99,243.1,356.25,243.1,354.91z"/>
						</g>
					</g>
					<g>
						<g>
							<g>
								<path fill="#E0E0E0" d="M251.48,349.76L251.48,349.76c-1.67,0-3.02-1.35-3.02-3.02v-56.63c0-1.67,1.35-3.02,3.02-3.02l0,0
									c1.67,0,3.02,1.35,3.02,3.02v56.63C254.5,348.41,253.15,349.76,251.48,349.76z"/>
							</g>
							<g>
								<path fill="#E8505B" d="M251.48,350.03L251.48,350.03c-1.67,0-3.02-1.35-3.02-3.02v-50.89c0-1.67,1.35-3.02,3.02-3.02l0,0
									c1.67,0,3.02,1.35,3.02,3.02v50.89C254.5,348.68,253.15,350.03,251.48,350.03z"/>
							</g>
						</g>
						<g>
							<path fill="#263238" d="M250.83,352.39v0.37l-2.11,4.67h-0.56l2.07-4.57h-2.59v0.94h-0.51v-1.4H250.83z"/>
							<path fill="#263238" d="M251.37,354.91c0-1.6,0.84-2.56,2.01-2.56c1.16,0,2.01,0.96,2.01,2.56c0,1.6-0.85,2.56-2.01,2.56
								C252.21,357.47,251.37,356.51,251.37,354.91z M254.86,354.91c0-1.35-0.6-2.09-1.48-2.09c-0.88,0-1.48,0.74-1.48,2.09
								c0,1.34,0.6,2.09,1.48,2.09C254.26,356.99,254.86,356.25,254.86,354.91z"/>
						</g>
					</g>
					<g>
						<g>
							<g>
								<path fill="#E0E0E0" d="M263.55,349.76L263.55,349.76c-1.67,0-3.02-1.35-3.02-3.02v-56.63c0-1.67,1.35-3.02,3.02-3.02l0,0
									c1.67,0,3.02,1.35,3.02,3.02v56.63C266.56,348.41,265.21,349.76,263.55,349.76z"/>
							</g>
							<g>
								<path fill="#E8505B" d="M263.55,350.03L263.55,350.03c-1.67,0-3.02-1.35-3.02-3.02v-22.14c0-1.67,1.35-3.02,3.02-3.02l0,0
									c1.67,0,3.02,1.35,3.02,3.02v22.14C266.56,348.68,265.21,350.03,263.55,350.03z"/>
							</g>
						</g>
						<g>
							<path fill="#263238" d="M262.94,356.02c0,0.89-0.76,1.45-1.96,1.45c-1.21,0-1.94-0.55-1.94-1.45c0-0.6,0.35-1.03,0.97-1.24
								c-0.51-0.2-0.79-0.58-0.79-1.11c0-0.82,0.7-1.33,1.76-1.33c1.06,0,1.78,0.51,1.78,1.33c0,0.52-0.29,0.91-0.81,1.11
								C262.59,354.99,262.94,355.43,262.94,356.02z M262.41,356.02c0-0.62-0.53-1.01-1.42-1.01c-0.89,0-1.42,0.39-1.42,1.01
								c0,0.63,0.52,1.01,1.42,1.01C261.88,357.03,262.41,356.64,262.41,356.02z M260.99,354.6c0.78,0,1.25-0.35,1.25-0.9
								c0-0.57-0.5-0.91-1.25-0.91c-0.76,0-1.24,0.35-1.24,0.91C259.74,354.25,260.2,354.6,260.99,354.6z"/>
							<path fill="#263238" d="M263.66,354.91c0-1.6,0.84-2.56,2.01-2.56c1.17,0,2.01,0.96,2.01,2.56c0,1.6-0.85,2.56-2.01,2.56
								C264.5,357.47,263.66,356.51,263.66,354.91z M267.15,354.91c0-1.35-0.6-2.09-1.48-2.09c-0.88,0-1.48,0.74-1.48,2.09
								c0,1.34,0.6,2.09,1.48,2.09C266.54,356.99,267.15,356.25,267.15,354.91z"/>
						</g>
					</g>
					<g>
						<g>
							<g>
								<path fill="#E0E0E0" d="M275.61,349.76L275.61,349.76c-1.67,0-3.02-1.35-3.02-3.02v-56.63c0-1.67,1.35-3.02,3.02-3.02l0,0
									c1.67,0,3.02,1.35,3.02,3.02v56.63C278.63,348.41,277.28,349.76,275.61,349.76z"/>
							</g>
							<g>
								<path fill="#E8505B" d="M275.61,349.76L275.61,349.76c-1.67,0-3.02-1.35-3.02-2.75v-7.76c0-1.93,1.35-3.29,3.02-3.29l0,0
									c1.67,0,3.02,1.35,3.02,3.02v7.76C278.63,348.41,277.28,349.76,275.61,349.76z"/>
							</g>
						</g>
						<g>
							<path fill="#263238" d="M274.7,354.87c0,1.71-0.93,2.6-2.3,2.6c-0.45,0-0.88-0.08-1.19-0.27l0.21-0.42
								c0.26,0.17,0.6,0.24,0.98,0.24c1.09,0,1.78-0.7,1.78-2.06c0-0.11-0.01-0.26-0.02-0.41c-0.25,0.55-0.84,0.86-1.54,0.86
								c-1,0-1.7-0.59-1.7-1.51c0-0.94,0.74-1.55,1.72-1.55C273.98,352.35,274.7,353.28,274.7,354.87z M273.99,353.87
								c0-0.55-0.46-1.08-1.33-1.08c-0.73,0-1.23,0.42-1.23,1.09c0,0.66,0.49,1.09,1.27,1.09
								C273.47,354.97,273.99,354.49,273.99,353.87z"/>
							<path fill="#263238" d="M275.45,354.91c0-1.6,0.84-2.56,2.01-2.56s2.01,0.96,2.01,2.56c0,1.6-0.85,2.56-2.01,2.56
								S275.45,356.51,275.45,354.91z M278.94,354.91c0-1.35-0.6-2.09-1.48-2.09c-0.88,0-1.48,0.74-1.48,2.09
								c0,1.34,0.6,2.09,1.48,2.09C278.33,356.99,278.94,356.25,278.94,354.91z"/>
						</g>
					</g>
					<g>
						<g>
							<g>
								<path fill="#E0E0E0" d="M287.68,349.76L287.68,349.76c-1.67,0-3.02-1.35-3.02-3.02v-56.63c0-1.67,1.35-3.02,3.02-3.02l0,0
									c1.67,0,3.02,1.35,3.02,3.02v56.63C290.7,348.41,289.35,349.76,287.68,349.76z"/>
							</g>
							<g>
								<path fill="#E8505B" d="M287.68,349.76L287.68,349.76c-1.67,0-3.02-1.35-3.02-2.75v-27.89c0-1.93,1.35-3.29,3.02-3.29l0,0
									c1.67,0,3.02,1.35,3.02,3.02v27.89C290.7,348.41,289.35,349.76,287.68,349.76z"/>
							</g>
						</g>
						<g>
							<path fill="#263238" d="M283.36,352.39v5.03h-0.52v-4.57h-1.19v-0.46H283.36z"/>
							<path fill="#263238" d="M284.55,354.91c0-1.6,0.84-2.56,2.01-2.56c1.17,0,2.01,0.96,2.01,2.56c0,1.6-0.85,2.56-2.01,2.56
								C285.4,357.47,284.55,356.51,284.55,354.91z M288.04,354.91c0-1.35-0.6-2.09-1.48-2.09c-0.88,0-1.48,0.74-1.48,2.09
								c0,1.34,0.6,2.09,1.48,2.09C287.44,356.99,288.04,356.25,288.04,354.91z"/>
							<path fill="#263238" d="M289.31,354.91c0-1.6,0.84-2.56,2.01-2.56c1.17,0,2.01,0.96,2.01,2.56c0,1.6-0.85,2.56-2.01,2.56
								C290.15,357.47,289.31,356.51,289.31,354.91z M292.8,354.91c0-1.35-0.6-2.09-1.48-2.09c-0.88,0-1.48,0.74-1.48,2.09
								c0,1.34,0.6,2.09,1.48,2.09C292.2,356.99,292.8,356.25,292.8,354.91z"/>
						</g>
					</g>
				</g>
			</g>
			<g>
				<g>
					<path fill="#E0E0E0" d="M312.68,361.6c-0.16,0-0.28-18.64-0.28-41.63c0-23,0.13-41.63,0.28-41.63c0.16,0,0.28,18.64,0.28,41.63
						C312.97,342.96,312.84,361.6,312.68,361.6z"/>
				</g>
			</g>
			<g>
				<g>
					<path fill="#263238" d="M382.91,283.77c0,0.16-11.49,0.28-25.67,0.28c-14.18,0-25.67-0.13-25.67-0.28
						c0-0.16,11.49-0.28,25.67-0.28C371.42,283.49,382.91,283.62,382.91,283.77z"/>
				</g>
			</g>
			<g opacity="0.5">
				<path fill="#FFFFFF" d="M327.36,356.27l11.48-16.37c1.34-1.91,3.99-2.32,5.85-0.92l6.04,4.56c1.97,1.49,4.8,0.91,6.04-1.23
					l17.42-30.17c1.45-2.52,4.99-2.77,6.79-0.49l10.88,13.79c1.75,2.22,5.18,2.05,6.7-0.34l7.95-12.49
					c1.66-2.61,5.49-2.52,7.03,0.15l6.56,11.37c1.54,2.67,5.37,2.76,7.03,0.16l22.44-35.17c1.6-2.5,5.24-2.54,6.89-0.07l37.07,55.45
					c1.49,2.22,4.67,2.46,6.46,0.48l22.52-24.79c1.58-1.74,4.3-1.8,5.96-0.14l17.91,17.98c1.91,1.92,5.12,1.5,6.48-0.85l32.05-55.51
					c2.1-3.64,7.67-2.15,7.67,2.06v72.54H327.36z"/>
			</g>
		</g>
	</g>
</g>
<g id="Magnifying_Glass">
	<g>
		<g>
			<path fill="#455A64" d="M121.83,363.27c-25.6,0-47.67-19.37-50.45-45.38c-2.97-27.84,17.25-52.9,45.09-55.88
				c13.49-1.44,26.72,2.46,37.28,10.97c10.55,8.52,17.16,20.63,18.6,34.12l0,0c2.97,27.84-17.25,52.9-45.09,55.88
				C125.44,363.18,123.63,363.27,121.83,363.27z M121.95,269.33c-1.55,0-3.11,0.08-4.67,0.25c-23.67,2.53-40.87,23.84-38.34,47.51
				c2.53,23.67,23.85,40.87,47.51,38.34c23.67-2.53,40.87-23.84,38.34-47.51c-1.23-11.47-6.84-21.77-15.82-29.01
				C141.23,272.65,131.77,269.33,121.95,269.33z"/>
		</g>
		<g>
			<path fill="#455A64" d="M197.09,410.2c-1.07,0-2.14-0.45-2.89-1.34l-48.01-56.34c-1.36-1.6-1.17-4,0.43-5.36
				c1.6-1.36,4-1.17,5.36,0.43l48.01,56.34c1.36,1.6,1.17,4-0.43,5.36C198.84,409.9,197.96,410.2,197.09,410.2z"/>
		</g>
	</g>
</g>
<g id="Plant">
	<g>
		<g>
			<g>
				<g>
					<g>
						<g>
							<path fill="#E8505B" d="M657.02,407.03c7.82,2.73,18.01,0.29,24.7-4.59c6.69-4.88,11.5-11.88,15.76-18.97
								c1.82-3.03,3.6-6.18,4.17-9.67c0.57-3.49-0.27-7.41-2.97-9.68c-4.2-3.54-10.64-1.74-15.41,0.98
								C668.33,373.6,658.14,389.89,657.02,407.03"/>
						</g>
					</g>
				</g>
			</g>
			<g>
				<g>
					<g>
						<g>
							<path fill="#E8505B" d="M665.41,425.74c4.69,6.19,12.76,8.95,20.52,9.31c7.76,0.36,15.43-1.79,22.68-4.57
								c2.63-1.01,5.51-2.39,6.41-5.06c0.68-2.02-0.02-4.33-1.37-5.97c-1.35-1.65-3.27-2.73-5.24-3.57
								c-7.14-3.04-15.32-3.18-22.83-1.24C678.07,416.58,671.51,420.93,665.41,425.74"/>
						</g>
					</g>
				</g>
			</g>
			<g>
				<g>
					<g>
						<g>
							<path fill="#E8505B" d="M656.9,373.55c6.47,0.13,11.37-5.54,14.3-11.31c4.06-7.99,5.43-17.31,3.85-26.13
								c-0.59-3.31-1.84-6.87-4.8-8.46c-3.01-1.62-6.92-0.55-9.44,1.75c-2.52,2.3-3.9,5.58-4.91,8.85
								C652.43,349.48,653.18,362.39,656.9,373.55"/>
						</g>
					</g>
				</g>
			</g>
			<g>
				<g>
					<g>
						<g>
							<path fill="#E8505B" d="M635.65,409.33c11.03-18.77,12.87-41.74,6.35-62.52c-1.06-3.37-3.05-7.23-6.58-7.45
								c-3.9-0.25-6.35,4.11-7.43,7.87c-3.78,13.19-2.98,27.21-2.14,40.9C626.38,396.57,629.28,403.79,635.65,409.33"/>
						</g>
					</g>
				</g>
			</g>
			<g>
				<g>
					<g>
						<g>
							<path fill="#E8505B" d="M624.18,417.05c-4-12.86-14.17-23.64-26.77-28.38c-2.93-1.1-6.65-1.73-8.84,0.51
								c-2.14,2.2-1.48,5.87-0.11,8.62c2.22,4.43,5.83,8,9.42,11.41c3.27,3.11,6.66,6.23,10.79,8.04
								C612.82,419.06,620.41,419.52,624.18,417.05"/>
						</g>
					</g>
				</g>
			</g>
			<g>
				<g>
					<g>
						<g>
							<g>
								<path fill="#263238" d="M692.57,368.83c0.01,0.01-0.06,0.07-0.19,0.17c-0.16,0.12-0.35,0.27-0.59,0.46
									c-0.56,0.42-1.33,1-2.31,1.73c-0.51,0.37-1.07,0.79-1.68,1.24c-0.6,0.47-1.23,1.01-1.92,1.57c-1.37,1.14-2.98,2.37-4.6,3.91
									c-0.83,0.75-1.7,1.54-2.6,2.36c-0.9,0.83-1.77,1.76-2.7,2.68c-1.9,1.83-3.74,3.96-5.71,6.16
									c-3.83,4.51-7.76,9.71-11.37,15.51c-3.57,5.83-6.46,11.67-8.79,17.11c-1.08,2.75-2.17,5.35-2.95,7.87
									c-0.41,1.25-0.86,2.44-1.19,3.62c-0.33,1.18-0.65,2.3-0.95,3.38c-0.66,2.14-1.03,4.14-1.44,5.87
									c-0.19,0.87-0.39,1.67-0.54,2.42c-0.13,0.75-0.25,1.43-0.36,2.05c-0.22,1.2-0.39,2.15-0.51,2.84
									c-0.06,0.3-0.11,0.54-0.15,0.74c-0.04,0.17-0.06,0.25-0.07,0.25c-0.01,0,0-0.09,0.01-0.26c0.03-0.2,0.06-0.44,0.1-0.74
									c0.1-0.69,0.24-1.65,0.42-2.86c0.09-0.62,0.2-1.31,0.31-2.07c0.13-0.75,0.32-1.56,0.5-2.43c0.38-1.74,0.74-3.75,1.37-5.9
									c0.29-1.09,0.6-2.22,0.92-3.4c0.33-1.18,0.77-2.38,1.17-3.64c0.77-2.53,1.84-5.14,2.92-7.91c2.31-5.47,5.21-11.35,8.79-17.2
									c3.63-5.82,7.59-11.03,11.45-15.55c2-2.2,3.85-4.33,5.77-6.15c0.95-0.92,1.82-1.85,2.73-2.67c0.91-0.82,1.79-1.6,2.63-2.35
									c1.64-1.53,3.28-2.74,4.67-3.87c0.7-0.55,1.34-1.08,1.95-1.54c0.62-0.44,1.19-0.84,1.71-1.2c1-0.7,1.8-1.25,2.37-1.65
									c0.25-0.17,0.46-0.31,0.62-0.42C692.49,368.86,692.57,368.82,692.57,368.83z"/>
							</g>
						</g>
					</g>
				</g>
			</g>
			<g>
				<g>
					<g>
						<g>
							<g>
								<path fill="#263238" d="M707.18,420.86c0,0.02-0.27-0.03-0.76-0.13c-0.49-0.09-1.21-0.28-2.15-0.44
									c-1.87-0.37-4.59-0.78-7.99-0.98c-6.75-0.43-16.34,0.37-25.94,4.36c-9.6,3.99-16.93,10.23-21.38,15.33
									c-2.25,2.55-3.88,4.77-4.94,6.35c-0.55,0.78-0.92,1.42-1.21,1.83c-0.28,0.42-0.43,0.63-0.44,0.63
									c-0.02-0.01,0.11-0.24,0.35-0.68c0.26-0.43,0.6-1.09,1.13-1.89c1.01-1.62,2.6-3.89,4.83-6.48
									c4.41-5.18,11.76-11.53,21.46-15.56c9.69-4.03,19.38-4.78,26.16-4.25c3.41,0.25,6.14,0.72,8,1.15
									c0.94,0.19,1.65,0.41,2.13,0.53C706.93,420.77,707.18,420.85,707.18,420.86z"/>
							</g>
						</g>
					</g>
				</g>
			</g>
			<g>
				<g>
					<g>
						<g>
							<g>
								<path fill="#263238" d="M666.44,335.14c0.01,0-0.01,0.1-0.04,0.29c-0.05,0.22-0.1,0.5-0.18,0.84
									c-0.17,0.77-0.42,1.86-0.73,3.23c-0.64,2.81-1.6,6.85-2.82,11.85c-2.43,9.99-5.96,23.75-9.64,39
									c-1.83,7.63-3.48,14.92-4.91,21.56c-1.4,6.65-2.59,12.65-3.48,17.72c-0.48,2.53-0.83,4.82-1.17,6.84
									c-0.35,2.01-0.61,3.75-0.82,5.17c-0.22,1.39-0.39,2.49-0.51,3.27c-0.06,0.35-0.11,0.63-0.15,0.85
									c-0.04,0.19-0.06,0.29-0.07,0.29c-0.01,0,0-0.1,0.01-0.29c0.02-0.22,0.06-0.5,0.09-0.86c0.1-0.79,0.24-1.89,0.41-3.29
									c0.18-1.43,0.41-3.17,0.74-5.19c0.31-2.02,0.65-4.32,1.1-6.85c0.84-5.07,2-11.09,3.37-17.75c1.4-6.66,3.04-13.95,4.87-21.59
									c3.68-15.26,7.27-29,9.79-38.97c1.25-4.96,2.27-8.98,2.98-11.81c0.35-1.37,0.62-2.44,0.82-3.21
									c0.09-0.34,0.17-0.62,0.23-0.83C666.4,335.24,666.43,335.14,666.44,335.14z"/>
							</g>
						</g>
					</g>
				</g>
			</g>
			<g>
				<g>
					<g>
						<g>
							<g>
								<path fill="#263238" d="M641.11,444.55c-0.01,0-0.03-0.08-0.07-0.23c-0.04-0.18-0.09-0.41-0.15-0.68
									c-0.13-0.64-0.31-1.51-0.54-2.61c-0.47-2.27-1.09-5.57-1.79-9.65c-1.41-8.17-3.09-19.51-4.12-32.13
									c-0.5-6.31-0.78-12.33-0.9-17.82c-0.09-5.48-0.04-10.42,0.13-14.57c0.05-2.07,0.19-3.94,0.28-5.59
									c0.08-1.64,0.2-3.06,0.31-4.21c0.1-1.12,0.19-2.01,0.25-2.66c0.03-0.28,0.06-0.5,0.08-0.69c0.02-0.16,0.03-0.23,0.04-0.23
									c0.01,0,0.01,0.08,0.01,0.24c-0.01,0.19-0.02,0.42-0.03,0.69c-0.04,0.65-0.09,1.54-0.15,2.66
									c-0.08,1.16-0.16,2.57-0.22,4.21c-0.06,1.64-0.17,3.51-0.2,5.58c-0.12,4.14-0.13,9.07-0.02,14.54
									c0.15,5.47,0.44,11.49,0.94,17.79c1.03,12.59,2.65,23.93,3.97,32.11c0.66,4.09,1.22,7.39,1.63,9.68
									c0.19,1.11,0.34,1.99,0.45,2.63c0.04,0.28,0.08,0.5,0.1,0.69C641.11,444.47,641.12,444.55,641.11,444.55z"/>
							</g>
						</g>
					</g>
				</g>
			</g>
			<g>
				<g>
					<g>
						<g>
							<g>
								<path fill="#263238" d="M641.93,446.93c-0.02,0.01-0.12-0.22-0.29-0.65c-0.18-0.48-0.43-1.11-0.73-1.89
									c-0.16-0.42-0.33-0.87-0.52-1.37c-0.22-0.49-0.46-1.02-0.71-1.59c-0.25-0.57-0.52-1.18-0.81-1.82c-0.29-0.65-0.65-1.3-1-2
									c-0.36-0.7-0.74-1.43-1.13-2.19c-0.43-0.74-0.88-1.51-1.34-2.31c-0.89-1.62-2.03-3.23-3.14-4.98
									c-2.37-3.41-5.14-7.03-8.31-10.62c-3.2-3.57-6.46-6.76-9.53-9.54c-1.59-1.34-3.04-2.67-4.5-3.8
									c-0.72-0.57-1.42-1.13-2.09-1.66c-0.69-0.51-1.35-1-1.98-1.46c-1.25-0.95-2.43-1.74-3.46-2.44
									c-1.03-0.71-1.92-1.3-2.67-1.75c-0.71-0.45-1.27-0.81-1.71-1.08c-0.39-0.25-0.59-0.39-0.58-0.41
									c0.01-0.02,0.23,0.09,0.63,0.32c0.45,0.25,1.03,0.59,1.76,1c0.77,0.43,1.69,0.99,2.73,1.68c1.05,0.67,2.25,1.45,3.52,2.38
									c0.64,0.46,1.31,0.94,2.01,1.44c0.68,0.53,1.38,1.08,2.11,1.65c1.48,1.11,2.95,2.44,4.55,3.77c3.1,2.78,6.39,5.97,9.6,9.56
									c3.18,3.61,5.96,7.26,8.32,10.69c1.1,1.77,2.24,3.39,3.11,5.03c0.46,0.81,0.9,1.58,1.32,2.33c0.38,0.77,0.75,1.51,1.1,2.21
									c0.34,0.71,0.7,1.37,0.98,2.02c0.27,0.65,0.53,1.27,0.78,1.85c0.24,0.57,0.46,1.11,0.67,1.61c0.17,0.5,0.33,0.96,0.48,1.39
									c0.26,0.8,0.47,1.44,0.64,1.93C641.88,446.69,641.94,446.93,641.93,446.93z"/>
							</g>
						</g>
					</g>
				</g>
			</g>
			<g>
				<g>
					<g>
						<g>
							<g>
								<path fill="#263238" d="M688.48,390.6c0,0.08-1.34,0.08-3.48,0.2c-2.15,0.12-5.11,0.4-8.33,1.01
									c-3.22,0.61-6.08,1.44-8.12,2.12c-2.04,0.68-3.28,1.16-3.32,1.09c-0.01-0.03,0.28-0.19,0.83-0.45
									c0.55-0.26,1.35-0.6,2.36-0.99c2.02-0.77,4.89-1.66,8.14-2.28c3.25-0.61,6.25-0.84,8.41-0.86c1.08-0.01,1.96,0.01,2.56,0.05
									C688.15,390.52,688.48,390.56,688.48,390.6z"/>
							</g>
						</g>
					</g>
				</g>
			</g>
			<g>
				<g>
					<g>
						<g>
							<g>
								<path fill="#263238" d="M696.8,431.24c-0.16,0.08-1.4-3.51-4.54-6.85c-3.09-3.37-6.59-4.88-6.49-5.03
									c0.02-0.05,0.92,0.24,2.24,0.99c1.32,0.74,3.05,1.99,4.63,3.69c1.58,1.71,2.69,3.52,3.34,4.89
									C696.63,430.31,696.86,431.22,696.8,431.24z"/>
							</g>
						</g>
					</g>
				</g>
			</g>
			<g>
				<g>
					<g>
						<g>
							<g>
								<path fill="#263238" d="M668.43,350.38c0.11,0.11-1.93,2.13-4.14,4.85c-2.23,2.72-3.79,5.11-3.92,5.03
									c-0.12-0.07,1.26-2.61,3.52-5.36C666.12,352.15,668.34,350.28,668.43,350.38z"/>
							</g>
						</g>
					</g>
				</g>
			</g>
			<g>
				<g>
					<g>
						<g>
							<g>
								<path fill="#263238" d="M661.76,338.87c0.14-0.02,0.59,1.93,1.01,4.35c0.41,2.43,0.63,4.42,0.49,4.44
									c-0.14,0.02-0.59-1.92-1-4.35C661.84,340.89,661.62,338.9,661.76,338.87z"/>
							</g>
						</g>
					</g>
				</g>
			</g>
			<g>
				<g>
					<g>
						<g>
							<g>
								<path fill="#263238" d="M641.13,374.99c0.13,0.07-1.32,3.11-3.23,6.79c-1.91,3.69-3.56,6.62-3.69,6.56
									c-0.13-0.07,1.32-3.11,3.23-6.8C639.35,377.86,641,374.92,641.13,374.99z"/>
							</g>
						</g>
					</g>
				</g>
			</g>
			<g>
				<g>
					<g>
						<g>
							<g>
								<path fill="#263238" d="M628.84,362.73c0.13-0.06,1.35,2.14,2.74,4.91c1.38,2.78,2.4,5.08,2.27,5.15
									c-0.13,0.06-1.35-2.14-2.74-4.92C629.73,365.1,628.72,362.79,628.84,362.73z"/>
							</g>
						</g>
					</g>
				</g>
			</g>
			<g>
				<g>
					<g>
						<g>
							<g>
								<path fill="#263238" d="M610.79,404.66c-0.03,0.15-2.22-0.28-4.95-0.46c-2.73-0.2-4.96-0.09-4.97-0.24
									c-0.02-0.13,2.23-0.48,5.01-0.28C608.66,403.87,610.83,404.53,610.79,404.66z"/>
							</g>
						</g>
					</g>
				</g>
			</g>
		</g>
		<g>
			<g>
				<g>
					<g>
						<g>
							<path fill="#263238" d="M623.12,441.74l6.14,32.29c0.41,2.14,2.27,3.68,4.45,3.68h18.14c2.21,0,4.1-1.6,4.47-3.79l5.34-32.19
								H623.12z"/>
						</g>
					</g>
				</g>
			</g>
			<g>
				<g>
					<g>
						<g>
							<polygon fill="#455A64" points="625.12,452.23 659.81,452.23 661.65,441.74 623.12,441.74 							"/>
						</g>
					</g>
				</g>
			</g>
			<g>
				<g>
					<g>
						<g>
							<polygon fill="#FAFAFA" points="625.12,452.23 625.84,456.06 659.28,456.06 659.81,452.23 							"/>
						</g>
					</g>
				</g>
			</g>
		</g>
	</g>
</g>
<g id="Character">
	<g>
		<g>
			<g>
				<g>
					<g>
						<g>
							<g>
								<path fill="#E8505B" d="M511.02,446.9l0.55,19.74c0,0,20.25,6.07,20.71,9.71l-38.24,2.44l-2.12-30.72L511.02,446.9z"/>
							</g>
						</g>
					</g>
					<g>
						<g>
							<g>
								<g>
									<path fill="#E0E0E0" d="M499.64,465.74c-0.73,0.25-1.19,1.11-0.97,1.85c0.22,0.74,1.1,1.21,1.83,0.97
										c0.73-0.24,1.31-1.26,1.01-1.97c-0.3-0.71-1.36-1.21-2.01-0.8"/>
								</g>
							</g>
						</g>
					</g>
					<g opacity="0.6">
						<g>
							<g>
								<path fill="#FFFFFF" d="M494.04,478.8l-0.09-3.11l36.7-1.18c0,0,1.75,0.63,1.63,1.84L494.04,478.8z"/>
							</g>
						</g>
					</g>
					<g>
						<g>
							<g>
								<g>
									<path fill="#263238" d="M512.18,466.41c0.01,0.19-0.92,0.33-1.8,0.99c-0.9,0.64-1.32,1.48-1.5,1.41
										c-0.17-0.03,0.03-1.16,1.11-1.94C511.07,466.09,512.21,466.24,512.18,466.41z"/>
								</g>
							</g>
						</g>
					</g>
					<g>
						<g>
							<g>
								<g>
									<path fill="#263238" d="M516.3,467.81c0.05,0.18-0.73,0.55-1.32,1.38c-0.61,0.81-0.71,1.68-0.9,1.68
										c-0.17,0.04-0.37-1.04,0.37-2.06C515.19,467.79,516.28,467.64,516.3,467.81z"/>
								</g>
							</g>
						</g>
					</g>
					<g>
						<g>
							<g>
								<g>
									<path fill="#263238" d="M518.88,472.47c-0.17,0.05-0.49-0.87-0.07-1.92c0.41-1.06,1.26-1.52,1.35-1.37
										c0.12,0.15-0.42,0.73-0.74,1.6C519.07,471.65,519.07,472.44,518.88,472.47z"/>
								</g>
							</g>
						</g>
					</g>
					<g>
						<g>
							<g>
								<g>
									<path fill="#263238" d="M511.56,461.93c-0.07,0.18-0.94-0.03-1.99,0.11c-1.05,0.12-1.85,0.52-1.96,0.37
										c-0.12-0.13,0.64-0.87,1.88-1.02C510.72,461.24,511.64,461.77,511.56,461.93z"/>
								</g>
							</g>
						</g>
					</g>
				</g>
				<g>
					<g>
						<g>
							<g>
								<path fill="#263238" d="M511.37,457.95c0.01,0.08-0.72,0.24-1.92,0.11c-0.59-0.06-1.3-0.21-2.04-0.49
									c-0.37-0.14-0.76-0.31-1.14-0.51c-0.18-0.1-0.4-0.2-0.61-0.41c-0.22-0.18-0.37-0.67-0.15-0.99
									c0.18-0.31,0.52-0.46,0.79-0.48c0.28-0.03,0.51,0.02,0.72,0.05c0.43,0.08,0.84,0.19,1.22,0.33
									c0.75,0.29,1.37,0.67,1.84,1.05c0.94,0.76,1.29,1.44,1.23,1.48c-0.08,0.07-0.55-0.49-1.5-1.11
									c-0.47-0.31-1.07-0.62-1.77-0.85c-0.35-0.11-0.73-0.21-1.12-0.27c-0.41-0.08-0.76-0.06-0.85,0.13
									c-0.03,0.07-0.04,0.1,0.06,0.21c0.09,0.1,0.27,0.2,0.45,0.3c0.35,0.2,0.7,0.37,1.05,0.51c0.69,0.29,1.34,0.47,1.9,0.59
									C510.64,457.84,511.37,457.84,511.37,457.95z"/>
							</g>
						</g>
					</g>
				</g>
				<g>
					<g>
						<g>
							<g>
								<path fill="#263238" d="M511.15,458.23c-0.06,0.03-0.48-0.61-0.62-1.82c-0.07-0.6-0.05-1.33,0.13-2.11
									c0.09-0.39,0.23-0.79,0.41-1.19c0.2-0.39,0.44-0.92,1.16-1.04c0.38-0.04,0.71,0.24,0.83,0.48c0.14,0.25,0.18,0.47,0.24,0.69
									c0.1,0.44,0.12,0.88,0.08,1.29c-0.07,0.82-0.36,1.52-0.69,2.03c-0.68,1.04-1.45,1.31-1.47,1.25
									c-0.07-0.09,0.56-0.49,1.07-1.48c0.25-0.49,0.46-1.12,0.49-1.84c0.01-0.36-0.01-0.73-0.11-1.1
									c-0.09-0.4-0.26-0.72-0.41-0.67c-0.19,0.01-0.49,0.34-0.63,0.67c-0.17,0.36-0.31,0.72-0.41,1.07
									c-0.2,0.71-0.26,1.37-0.25,1.93C511,457.51,511.25,458.19,511.15,458.23z"/>
							</g>
						</g>
					</g>
				</g>
			</g>
		</g>
		<g>
			<g>
				<g>
					<g>
						<path fill="#E8505B" d="M430.1,446.04l-2.3,25.36l-7.61,19.54c-0.55,1.41,0.21,2.99,1.65,3.44l0,0
							c0.81,0.25,1.68,0.1,2.35-0.41c4.28-3.26,19.98-15.35,20.05-17.21c0.07-2.16,4.21-26.59,4.21-26.59L430.1,446.04z"/>
					</g>
				</g>
			</g>
			<g opacity="0.6">
				<g>
					<g>
						<path fill="#FFFFFF" d="M421.84,494.38l22.59-19.33l-0.12,1.07c-0.11,0.93-0.53,1.79-1.21,2.42
							c-1.82,1.7-6.96,6.3-18.83,15.43C423.58,494.51,422.66,494.66,421.84,494.38L421.84,494.38z"/>
					</g>
				</g>
			</g>
			<g opacity="0.6">
				<g>
					<g>
						<g>
							<path fill="#FFFFFF" d="M440.17,466.3c-0.68,0.37-1,1.3-0.66,2c0.34,0.7,1.29,1.03,1.98,0.67c0.69-0.35,1.1-1.47,0.69-2.12
								c-0.41-0.66-1.55-0.98-2.13-0.47"/>
						</g>
					</g>
				</g>
			</g>
			<g>
				<g>
					<g>
						<g>
							<path fill="#263238" d="M428.88,483.98c-0.15,0.05-0.57-1.34-1.99-2.22c-1.4-0.93-2.84-0.73-2.85-0.89
								c-0.01-0.06,0.33-0.22,0.93-0.24c0.6-0.02,1.44,0.16,2.22,0.66c0.78,0.5,1.29,1.2,1.52,1.75
								C428.95,483.59,428.95,483.97,428.88,483.98z"/>
						</g>
					</g>
				</g>
			</g>
			<g>
				<g>
					<g>
						<g>
							<path fill="#263238" d="M426.69,487.17c-0.13,0.1-0.85-0.82-2.12-1.34c-1.25-0.55-2.41-0.44-2.43-0.6
								c-0.06-0.14,1.22-0.54,2.65,0.09C426.24,485.91,426.83,487.11,426.69,487.17z"/>
						</g>
					</g>
				</g>
			</g>
			<g>
				<g>
					<g>
						<g>
							<path fill="#263238" d="M432.73,480.02c-0.13,0.11-1.23-1.31-3.13-2.29c-1.88-1.02-3.67-1.13-3.65-1.3
								c-0.03-0.14,1.89-0.28,3.92,0.81C431.9,478.3,432.86,479.96,432.73,480.02z"/>
						</g>
					</g>
				</g>
			</g>
			<g>
				<g>
					<g>
						<g>
							<path fill="#263238" d="M434.08,472.37c-0.08,0.14-1.42-0.6-3.23-0.87c-1.81-0.3-3.3,0-3.34-0.16
								c-0.06-0.13,1.48-0.7,3.43-0.39C432.88,471.24,434.17,472.26,434.08,472.37z"/>
						</g>
					</g>
				</g>
			</g>
			<g>
				<g>
					<g>
						<g>
							<path fill="#263238" d="M434.94,464.94c-0.1,0.14-1.4-0.87-3.34-1c-1.93-0.17-3.38,0.61-3.45,0.46
								c-0.04-0.06,0.28-0.34,0.9-0.61c0.62-0.27,1.56-0.48,2.6-0.4c1.04,0.08,1.93,0.44,2.5,0.81
								C434.72,464.56,434.98,464.89,434.94,464.94z"/>
						</g>
					</g>
				</g>
			</g>
			<g>
				<g>
					<g>
						<g>
							<path fill="#263238" d="M431.81,462.54c-0.03,0-0.05-0.35,0.07-0.96c0.13-0.61,0.41-1.49,1.05-2.42
								c0.33-0.44,0.68-1.01,1.42-1.26c0.37-0.13,0.89,0,1.15,0.37c0.26,0.36,0.31,0.79,0.27,1.19c-0.21,1.6-1.77,3-3.6,3.02
								c-1.84-0.01-3.36-1.23-3.92-2.7c-0.12-0.38-0.17-0.83,0.07-1.23c0.24-0.41,0.78-0.52,1.13-0.42c0.74,0.2,1.16,0.68,1.57,1.06
								c0.79,0.8,1.25,1.6,1.5,2.16c0.26,0.57,0.32,0.91,0.29,0.92c-0.1,0.06-0.5-1.32-2.07-2.8c-0.4-0.34-0.85-0.78-1.39-0.89
								c-0.26-0.06-0.5,0.02-0.62,0.22c-0.12,0.19-0.1,0.52,0,0.81c0.48,1.2,1.87,2.32,3.43,2.3c1.54-0.01,2.91-1.24,3.09-2.52
								c0.04-0.31-0.01-0.63-0.15-0.84c-0.14-0.2-0.39-0.28-0.63-0.21c-0.51,0.14-0.91,0.64-1.23,1.05
								C431.97,461.12,431.92,462.57,431.81,462.54z"/>
						</g>
					</g>
				</g>
			</g>
		</g>
		<g>
			<polygon fill="#263238" points="424.32,264.81 422.81,462.62 450.63,464.39 456.49,299.16 489.83,463.46 515.11,460.8 
				488.22,264.78 			"/>
		</g>
		<g>
			<g>
				<g>
					<g>
						<g>
							<g>
								<g>
									<g>
										<g>
											<g>
												<g>
													<g>
														<g>
															<g>
																<g>
																	<g>
																		<g>
																			<path fill="#B78876" d="M458.14,104.2c-9.4-0.73-17.57,6.38-18.14,15.78c-0.47,7.83-0.9,16.3-0.85,20.56
																				c0.11,9.16,9.27,10.58,9.27,10.58s-0.22,2.71-0.48,6.08c-0.51,6.78,4.68,12.64,11.47,12.96l0,0
																				c6.66,0.31,12.3-4.85,12.6-11.51l1.66-36.89C474.09,112.68,467.21,104.91,458.14,104.2L458.14,104.2z"/>
																		</g>
																	</g>
																</g>
															</g>
														</g>
													</g>
												</g>
											</g>
											<g>
												<g>
													<g>
														<g>
															<g>
																<g>
																	<g>
																		<g>
																			<path fill="#AA6550" d="M448.41,151c0,0,5.79,0.47,11.94-3.39c0,0-2.82,6.59-11.96,5.76L448.41,151z"/>
																		</g>
																	</g>
																</g>
															</g>
														</g>
													</g>
												</g>
											</g>
										</g>
									</g>
								</g>
								<g>
									<g>
										<g>
											<g>
												<g>
													<g>
														<g>
															<g>
																<g>
																	<path fill="#B78876" d="M472.84,124.92c0.16-0.07,6.29-1.86,6.09,4.4c-0.2,6.26-6.44,4.77-6.45,4.59
																		C472.47,133.72,472.84,124.92,472.84,124.92z"/>
																</g>
															</g>
														</g>
													</g>
												</g>
											</g>
										</g>
									</g>
									<g>
										<g>
											<g>
												<g>
													<g>
														<g>
															<g>
																<g>
																	<g>
																		<path fill="#AA6550" d="M474.47,131.59c0.03-0.02,0.11,0.08,0.29,0.17c0.18,0.09,0.48,0.15,0.81,0.04
																			c0.67-0.22,1.26-1.25,1.33-2.38c0.03-0.57-0.07-1.12-0.26-1.57c-0.18-0.46-0.46-0.79-0.79-0.86
																			c-0.33-0.09-0.57,0.1-0.65,0.28c-0.09,0.17-0.05,0.3-0.09,0.31c-0.02,0.02-0.13-0.11-0.07-0.37
																			c0.03-0.12,0.11-0.27,0.26-0.38c0.15-0.12,0.38-0.17,0.61-0.14c0.48,0.05,0.9,0.51,1.11,1.01
																			c0.23,0.5,0.36,1.12,0.32,1.76c-0.08,1.26-0.76,2.42-1.68,2.65c-0.44,0.1-0.81-0.04-0.99-0.2
																			C474.47,131.74,474.44,131.6,474.47,131.59z"/>
																	</g>
																</g>
															</g>
														</g>
													</g>
												</g>
											</g>
										</g>
									</g>
								</g>
								<g>
									<g>
										<g>
											<g>
												<g>
													<g>
														<g>
															<g>
																<g>
																	<g>
																		<g>
																			<g>
																				<g>
																					<g>
																						<path fill="#263238" d="M442.33,125.81c-0.02,0.69,0.54,1.28,1.26,1.32c0.72,0.04,1.32-0.49,1.35-1.18
																							c0.02-0.69-0.54-1.28-1.26-1.32C442.96,124.59,442.35,125.12,442.33,125.81z"/>
																					</g>
																				</g>
																			</g>
																		</g>
																	</g>
																</g>
															</g>
														</g>
														<g>
															<g>
																<g>
																	<g>
																		<g>
																			<g>
																				<g>
																					<g>
																						<g>
																							<path fill="#263238" d="M442.36,123.25c0.16,0.17,1.15-0.56,2.56-0.56c1.41-0.02,2.44,0.71,2.59,0.54
																								c0.07-0.08-0.09-0.38-0.54-0.71c-0.44-0.33-1.2-0.64-2.07-0.64c-0.88,0-1.61,0.33-2.04,0.66
																								C442.43,122.86,442.28,123.17,442.36,123.25z"/>
																						</g>
																					</g>
																				</g>
																			</g>
																		</g>
																	</g>
																</g>
															</g>
														</g>
													</g>
													<g>
														<g>
															<g>
																<g>
																	<g>
																		<g>
																			<g>
																				<g>
																					<g>
																						<path fill="#263238" d="M456.16,125.81c-0.02,0.69,0.54,1.28,1.26,1.32c0.72,0.04,1.32-0.49,1.35-1.18
																							c0.02-0.69-0.54-1.28-1.26-1.32C456.79,124.59,456.18,125.12,456.16,125.81z"/>
																					</g>
																				</g>
																			</g>
																		</g>
																	</g>
																</g>
															</g>
														</g>
														<g>
															<g>
																<g>
																	<g>
																		<g>
																			<g>
																				<g>
																					<g>
																						<g>
																							<path fill="#263238" d="M456.19,123.51c0.16,0.17,1.15-0.56,2.56-0.56c1.41-0.02,2.44,0.71,2.59,0.54
																								c0.07-0.08-0.09-0.38-0.54-0.71c-0.44-0.33-1.2-0.64-2.07-0.64c-0.88,0-1.61,0.33-2.04,0.66
																								C456.26,123.13,456.11,123.43,456.19,123.51z"/>
																						</g>
																					</g>
																				</g>
																			</g>
																		</g>
																	</g>
																</g>
															</g>
														</g>
													</g>
													<g>
														<g>
															<g>
																<g>
																	<g>
																		<g>
																			<g>
																				<g>
																					<g>
																						<path fill="#263238" d="M451.09,133.95c0.01-0.08-0.87-0.23-2.29-0.41c-0.36-0.04-0.7-0.11-0.76-0.35
																							c-0.08-0.26,0.07-0.65,0.24-1.07c0.34-0.87,0.69-1.78,1.06-2.74c1.48-3.9,2.54-7.1,2.39-7.16
																							c-0.16-0.06-1.48,3.05-2.96,6.95c-0.36,0.96-0.69,1.88-1.02,2.75c-0.14,0.41-0.37,0.87-0.19,1.41
																							c0.1,0.27,0.36,0.46,0.59,0.53c0.23,0.07,0.43,0.07,0.61,0.08C450.2,134.02,451.08,134.03,451.09,133.95z"/>
																					</g>
																				</g>
																			</g>
																		</g>
																	</g>
																</g>
															</g>
														</g>
													</g>
													<g>
														<g>
															<g>
																<g>
																	<g>
																		<g>
																			<g>
																				<g>
																					<g>
																						<path fill="#263238" d="M455.23,134.92c-0.23-0.01-0.23,1.51-1.54,2.6c-1.31,1.09-2.93,0.92-2.95,1.13
																							c-0.02,0.1,0.36,0.3,1.05,0.32c0.67,0.02,1.66-0.19,2.46-0.86c0.8-0.66,1.14-1.55,1.19-2.18
																							C455.5,135.29,455.33,134.91,455.23,134.92z"/>
																					</g>
																				</g>
																			</g>
																		</g>
																	</g>
																</g>
															</g>
														</g>
													</g>
												</g>
											</g>
										</g>
										<g>
											<g>
												<g>
													<g>
														<g>
															<g>
																<g>
																	<g>
																		<path fill="#263238" d="M455.83,118c0.14,0.38,1.54,0.2,3.19,0.4c1.66,0.17,2.99,0.65,3.21,0.31
																			c0.1-0.16-0.13-0.52-0.67-0.89c-0.53-0.37-1.38-0.72-2.38-0.83c-0.99-0.11-1.9,0.05-2.5,0.29
																			C456.08,117.51,455.77,117.81,455.83,118z"/>
																	</g>
																</g>
															</g>
														</g>
													</g>
												</g>
											</g>
										</g>
										<g>
											<g>
												<g>
													<g>
														<g>
															<g>
																<g>
																	<g>
																		<path fill="#263238" d="M442.88,119.18c0.25,0.32,1.22-0.01,2.38-0.03c1.17-0.06,2.15,0.21,2.38-0.12
																			c0.1-0.16-0.06-0.48-0.49-0.79c-0.42-0.3-1.14-0.55-1.94-0.52c-0.8,0.03-1.5,0.32-1.9,0.64
																			C442.91,118.69,442.77,119.02,442.88,119.18z"/>
																	</g>
																</g>
															</g>
														</g>
													</g>
												</g>
											</g>
										</g>
									</g>
								</g>
							</g>
						</g>
					</g>
				</g>
			</g>
			<g>
				<g>
					<path fill="#263238" d="M473.55,124.63c0.08,0.96,0.05,2.07-0.16,3.01c-0.2,0.94-0.74,1.86-1.6,2.29
						c-1.57,0.78-3.55-0.42-4.25-2.03c-0.7-1.61-0.51-3.45-0.35-5.2c0.22-2.39,0.35-4.81-0.11-7.16c-0.46-2.35-1.56-4.65-3.44-6.14
						c-1.88-1.49-4.59-2.03-6.74-0.97c-1.33,0.65-2.33,1.82-3.56,2.63c-1.11,0.73-2.47,1.16-3.78,0.95
						c-1.31-0.21-2.55-1.13-2.9-2.42c-0.38-1.4,0.35-2.93,1.48-3.84c1.13-0.92,2.57-1.33,4-1.6c3.96-0.75,8.14-0.56,11.88,0.92
						c3.74,1.49,7.05,4.32,8.62,8.02c1.82,4.28,1.58,6.9,1.06,11.55"/>
				</g>
			</g>
		</g>
		<g>
			<g>
				<path fill="#B78876" d="M346.01,172.58l13.35,2.69l18.37,11.7l-6.26,11.92c0,0-6.46-1.8-8.34-3.47
					c-1.89-1.67-3.97-1.85-3.97-1.85s0.13,2.95-2.11,2.44c-2.24-0.51-5.97-1.14-5.33-4.29c0,0-1.66-0.45-1.57-2.65
					c0,0-1.84-0.14-1.34-3.19c0.5-3.06,2.71-7,8.8-5.89c0.32,0.06,0.73-0.54,0.18-0.75l-9.42-2.22
					C348.36,177.01,342.47,174.69,346.01,172.58z"/>
			</g>
			<g>
				<g>
					<path fill="#AA6550" d="M352.6,185.73c0.03-0.07,0.88,0.14,2.24,0.54c0.68,0.23,1.47,0.39,2.4,0.81
						c0.45,0.23,0.92,0.63,1.08,1.24c0.17,0.63-0.16,1.3-0.64,1.67c-1.03,0.78-2.27,0.54-3.15,0.41c-0.93-0.14-1.77-0.31-2.46-0.51
						c-1.38-0.39-2.17-0.8-2.14-0.87c0.03-0.08,0.86,0.2,2.24,0.48c0.69,0.14,1.51,0.27,2.44,0.38c0.47,0.05,0.95,0.13,1.41,0.1
						c0.46-0.03,0.96-0.15,1.31-0.44c0.36-0.29,0.56-0.72,0.46-1.1c-0.1-0.39-0.42-0.71-0.79-0.92c-0.77-0.39-1.63-0.62-2.28-0.89
						C353.39,186.15,352.58,185.8,352.6,185.73z"/>
				</g>
			</g>
			<g>
				<g>
					<path fill="#AA6550" d="M355.86,184c-0.02,0.16-0.82,0.18-1.59,0.69c-0.79,0.48-1.16,1.2-1.31,1.14
						c-0.16-0.02,0.03-1.01,1.01-1.62C354.94,183.59,355.92,183.86,355.86,184z"/>
				</g>
			</g>
			<g>
				<g>
					<path fill="#AA6550" d="M357.27,189.86c0.03-0.02,0.14,0.02,0.31,0.18c0.2,0.17,0.24,0.58,0.29,0.91
						c0.07,0.41,0,0.96-0.38,1.43c-0.39,0.5-1.16,0.61-1.73,0.51c-1.15-0.17-2.18-0.34-2.92-0.59c-0.74-0.24-1.14-0.5-1.12-0.57
						c0.03-0.08,0.48,0.05,1.21,0.18c0.73,0.14,1.77,0.24,2.9,0.42c0.55,0.08,1,0.01,1.27-0.29c0.28-0.3,0.38-0.71,0.37-1.04
						c-0.01-0.41,0.03-0.65-0.07-0.82C357.31,189.99,357.24,189.89,357.27,189.86z"/>
				</g>
			</g>
			<g>
				<g>
					<path fill="#AA6550" d="M357.17,192.31c-0.01-0.07,0.24-0.19,0.65-0.07c0.4,0.11,0.86,0.47,1.2,0.95
						c0.4,0.6,0.26,1.23,0.14,1.57c-0.13,0.37-0.29,0.55-0.36,0.52c-0.08-0.03-0.05-0.26-0.03-0.6c0.02-0.34,0.03-0.82-0.21-1.16
						c-0.3-0.42-0.62-0.75-0.89-0.91C357.4,192.44,357.18,192.4,357.17,192.31z"/>
				</g>
			</g>
			<g>
				<g>
					<path fill="#B78876" d="M367.44,185.4l-6.45-0.27l-6.77,1.32c0,0-0.56,1.23,2.58,2.07c3.13,0.84,6.03,0.29,6.03,0.29
						s2.79,4.07,6.42,5.01"/>
				</g>
				<g>
					<g>
						<path fill="#AA6550" d="M369.25,193.82c-0.01,0.03-0.21-0.01-0.6-0.11c-0.38-0.11-0.93-0.31-1.57-0.67
							c-1.3-0.71-2.95-2.06-4.46-4.09l0.25,0.1c-2.19,0.34-4.82,0.34-7.42-0.7c-0.38-0.17-0.75-0.37-1.07-0.68
							c-0.3-0.3-0.62-0.75-0.42-1.34l0.04-0.13l0.16-0.03c2.49-0.47,4.79-0.9,6.78-1.27l0.03-0.01l0.02,0
							c1.96,0.11,3.57,0.21,4.69,0.29c1.12,0.09,1.75,0.16,1.75,0.2c0,0.05-0.64,0.06-1.76,0.06c-1.12-0.01-2.74-0.04-4.7-0.1
							l0.05,0c-1.98,0.4-4.27,0.87-6.76,1.37l0.2-0.16c-0.06,0.16,0.06,0.49,0.31,0.71c0.24,0.23,0.57,0.41,0.91,0.56
							c2.41,0.97,5.02,1.01,7.09,0.72l0.16-0.02l0.09,0.13c1.41,1.98,2.99,3.36,4.2,4.12C368.44,193.57,369.28,193.74,369.25,193.82
							z"/>
					</g>
				</g>
			</g>
			<g>
				<g>
					<path fill="#AA6550" d="M359.57,181.63c-0.08,0.13-0.7-0.15-1.17-0.82c-0.47-0.66-0.53-1.34-0.38-1.38
						c0.15-0.04,0.43,0.48,0.84,1.05C359.27,181.06,359.66,181.5,359.57,181.63z"/>
				</g>
			</g>
		</g>
		<g>
			<g>
				<path fill="#F5F5F5" d="M430.32,266.34c11.09,4.79,24.06,6.21,38.7,4.66l10.72-109.21l-7.6-5.84l-17.52,13.02l-6-12.55
					l-14.06,20.21L430.32,266.34z"/>
			</g>
			<g>
				<g>
					<path fill="#263238" d="M448.73,271.6c-0.01,0-0.03-0.09-0.06-0.26c-0.03-0.21-0.07-0.46-0.12-0.77
						c-0.1-0.73-0.24-1.72-0.41-2.98c-0.11-1.3-0.19-2.89-0.31-4.74c-0.09-1.85-0.09-3.96-0.14-6.29c-0.07-9.33,0.56-22.2,1.6-36.38
						c1.04-14.19,2.32-27,3.36-36.26c0.51-4.63,0.98-8.37,1.34-10.95c0.17-1.29,0.33-2.29,0.44-2.97c0.05-0.31,0.1-0.56,0.13-0.77
						c0.03-0.17,0.06-0.26,0.06-0.26c0.01,0,0.01,0.09-0.01,0.27c-0.02,0.21-0.05,0.46-0.08,0.78c-0.08,0.73-0.2,1.72-0.34,2.98
						c-0.28,2.64-0.67,6.37-1.16,10.97c-0.93,9.27-2.15,22.08-3.19,36.26c-1.04,14.17-1.72,27.02-1.76,36.33
						c0.03,2.33-0.01,4.43,0.06,6.28c0.08,1.83,0.15,3.42,0.21,4.74c0.13,1.26,0.23,2.25,0.31,2.98c0.03,0.31,0.05,0.57,0.07,0.78
						C448.74,271.51,448.74,271.6,448.73,271.6z"/>
				</g>
			</g>
			<g>
				<path fill="#E8505B" d="M463.48,287.69c0,0-8.17-85.37-3.1-94.91c3.92-7.38,9.99-22.8,12.53-29.39c0.76-1.97,0.7-4.16-0.16-6.09
					l-0.6-1.35l7.6,5.84l15.61,8.39l-9.42,72.32l10.67,36.69L463.48,287.69z"/>
			</g>
			<g opacity="0.3">
				<g>
					<path d="M461.37,262.97c6.64-1.39,3.77,2.47,10.48,1.49c3.63-0.53,3.81-2.65,6.79-4.77c2.98-2.12,7.51-3.9,11.17-3.82
						l-1.49-5.11l-27.76,1.03L461.37,262.97z"/>
				</g>
			</g>
			<g>
				<path fill="#E8505B" d="M423.13,174.3l2.7,68.2l-5.47,38.17l13.67,5.05l5.98-105.48c0.07-3.92,0.95-7.79,2.58-11.35l5.36-11.69
					l-18.14,6.18L423.13,174.3z"/>
			</g>
			<g>
				<g>
					<path fill="#E8505B" d="M495.36,170.18c0,0,8.56,7.41,10.49,17.36c1.41,7.26,5.54,32.75,6.69,45.83
						c0.71,8.13-4.99,15.47-13.07,16.66c-0.12,0.02-0.25,0.04-0.37,0.05c-12.42,1.69-33.26-0.65-33.26-0.65l3.64-15.86
						c0,0,18.44-2.66,21.75-4.89l-4.4-29.42C486.82,199.28,490.43,171.03,495.36,170.18z"/>
				</g>
			</g>
			<g>
				<path fill="#E8505B" d="M378.93,184.68l30.19,19.13c0,0,10.87-31.95,17.86-39.46l8.41-2.86l-7.67,61.3
					c-0.58,3.47-2.59,6.53-5.54,8.43l0,0c-4.53,2.92-10.41,2.59-14.6-0.8l-36.94-29.96L378.93,184.68z"/>
			</g>
			<g>
				<g>
					<path fill="#263238" d="M496.73,238.64c-0.09-0.01-0.05-0.7-0.18-1.78c-0.13-1.08-0.52-2.55-1.34-3.99
						c-0.83-1.44-1.89-2.52-2.75-3.18c-0.86-0.67-1.48-0.98-1.44-1.06c0.02-0.06,0.71,0.12,1.67,0.74c0.96,0.6,2.14,1.71,3.01,3.23
						c0.86,1.52,1.21,3.1,1.25,4.23C496.98,237.97,496.79,238.65,496.73,238.64z"/>
				</g>
			</g>
			<g>
				<g>
					<path fill="#263238" d="M493.49,240.74c-0.18-0.03,0.64-2.91-0.08-6.41c-0.67-3.51-2.53-5.86-2.37-5.96
						c0.05-0.04,0.58,0.48,1.22,1.5c0.64,1.01,1.34,2.54,1.7,4.35c0.36,1.81,0.29,3.49,0.09,4.67
						C493.85,240.07,493.56,240.75,493.49,240.74z"/>
				</g>
			</g>
			<g>
				<g>
					<path fill="#263238" d="M493.25,173.17c0.08,0.1-1.53,1.01-3.29,3.28c-1.78,2.23-3.51,5.94-4.03,10.3
						c-0.51,4.36,0,8.36,0.4,11.22c0.2,1.34,0.37,2.47,0.51,3.39c0.12,0.8,0.17,1.25,0.13,1.26c-0.04,0.01-0.16-0.43-0.35-1.22
						c-0.19-0.79-0.43-1.94-0.69-3.37c-0.5-2.85-1.09-6.89-0.57-11.35c0.53-4.46,2.37-8.25,4.28-10.48
						c0.94-1.12,1.85-1.91,2.52-2.38C492.83,173.34,493.23,173.14,493.25,173.17z"/>
				</g>
			</g>
			<g opacity="0.3">
				<g>
					<path d="M491.45,228.44c1.43,1.67,2.11,3.89,2.2,6.09c0.09,2.2-0.38,4.38-1.05,6.48c-0.12,0.39-0.25,0.84-0.03,1.18
						c0.28,0.44,0.98,0.39,1.37,0.05c0.39-0.35,0.54-0.88,0.68-1.38c-0.26,0.29,0.12,0.79,0.51,0.77c0.39-0.03,0.69-0.36,0.9-0.69
						c1.21-1.89,1.11-4.39,0.26-6.46c-0.86-2.07-2.37-3.8-3.91-5.42"/>
				</g>
			</g>
			<g>
				<g>
					<path fill="#263238" d="M415.28,215.76c-0.12,0.09-1.99-2.34-3.7-5.7c-1.72-3.35-2.59-6.29-2.45-6.34
						c0.16-0.06,1.26,2.77,2.96,6.08C413.78,213.12,415.42,215.67,415.28,215.76z"/>
				</g>
			</g>
			<g>
				<g>
					<path fill="#263238" d="M411.05,218.06c-0.07,0.02-0.37-0.75-0.76-2.04c-0.38-1.29-0.83-3.09-1.2-5.1
						c-0.37-2.02-0.59-3.86-0.69-5.2c-0.1-1.34-0.09-2.17-0.02-2.18c0.16-0.01,0.52,3.27,1.27,7.27
						C410.37,214.82,411.21,218.02,411.05,218.06z"/>
				</g>
			</g>
			<g>
				<g>
					<path fill="#263238" d="M425.83,182.88c0.16,0,0.28,13.35,0.28,29.81c0,16.47-0.13,29.81-0.28,29.81
						c-0.16,0-0.28-13.34-0.28-29.81C425.55,196.23,425.68,182.88,425.83,182.88z"/>
				</g>
			</g>
			<g>
				<g>
					<path fill="#263238" d="M444.22,158.48c0.01,0.01-0.11,0.19-0.36,0.53c-0.28,0.38-0.64,0.87-1.08,1.48
						c-0.92,1.3-2.24,3.19-3.65,5.67c-1.39,2.48-3.02,5.53-3.87,9.21c-0.34,1.82-0.55,3.85-0.86,5.91c-0.9,2.17,1.24,3.58,2.98,4.76
						l0.44,0.29l-0.49,0.21c-0.58,0.24-1.18,0.69-1.77,1.13c-0.78,0.6-1.53,1.25-2.2,1.87l0.09-0.23c0.34,4.32,1.08,8.39,1.57,12.08
						c0.52,3.68,0.98,6.98,1.38,9.77c0.36,2.72,0.66,4.93,0.87,6.54c0.09,0.72,0.15,1.31,0.21,1.77c0.04,0.4,0.06,0.62,0.04,0.62
						c-0.02,0-0.07-0.21-0.14-0.61c-0.08-0.46-0.18-1.04-0.31-1.76c-0.26-1.6-0.61-3.8-1.05-6.51c-0.43-2.78-0.93-6.08-1.5-9.75
						c-0.52-3.7-1.28-7.74-1.63-12.11l-0.01-0.14l0.1-0.09c0.69-0.64,1.44-1.28,2.24-1.9c0.61-0.46,1.2-0.91,1.91-1.21l-0.05,0.5
						c-0.94-0.61-1.86-1.27-2.6-2.12c-0.36-0.43-0.71-0.93-0.79-1.55c-0.03-0.15-0.01-0.33,0-0.47l0.06-0.39l0.11-0.78
						c0.32-2.06,0.53-4.02,0.9-5.95c0.43-1.89,1.11-3.59,1.82-5.13c0.72-1.54,1.47-2.93,2.21-4.16c1.47-2.47,2.84-4.34,3.82-5.6
						c0.49-0.63,0.89-1.11,1.17-1.42C444.05,158.63,444.2,158.47,444.22,158.48z"/>
				</g>
			</g>
			<g>
				<g>
					<path fill="#263238" d="M477.68,160.48c0.02,0,0.07,0.15,0.15,0.46c0.09,0.3,0.18,0.76,0.27,1.35
						c0.18,1.18,0.24,2.92-0.02,5.04c-0.26,2.12-0.84,4.6-1.63,7.29c-0.74,2.7-1.77,5.64-3.1,8.6c-1.18,2.67-2.45,5.16-3.6,7.44
						l-0.06,0.12l-0.12,0.03c-0.9,0.18-1.78,0.36-2.62,0.53l0.14-0.41c0.59,0.7,1.15,1.37,1.69,2.01l0.11,0.13l-0.09,0.14
						c-1.54,2.48-2.83,4.55-3.79,6.09c-0.43,0.67-0.79,1.22-1.08,1.67c-0.26,0.38-0.4,0.58-0.42,0.56c-0.02-0.01,0.09-0.23,0.3-0.63
						c0.26-0.47,0.58-1.04,0.97-1.73c0.92-1.57,2.15-3.67,3.62-6.19l0.02,0.27c-0.55-0.63-1.12-1.29-1.72-1.98l-0.28-0.32l0.42-0.09
						c0.84-0.18,1.71-0.36,2.61-0.56l-0.18,0.14c1.13-2.29,2.38-4.78,3.56-7.43c1.32-2.94,2.35-5.82,3.12-8.51
						c0.81-2.68,1.43-5.11,1.73-7.19c0.3-2.08,0.3-3.79,0.19-4.96C477.78,161.13,477.63,160.49,477.68,160.48z"/>
				</g>
			</g>
			<g opacity="0.3">
				<g>
					<path d="M413.98,215.26c-1.35-3.85-3.21-7.73-4.86-11.46l-1.37-0.87c-1.12,3.42-0.69,7.16,0.52,10.55
						c0.11,0.31,0.26,0.64,0.57,0.75c0.4,0.14,0.83-0.24,0.92-0.66c0.08-0.42-0.07-0.84-0.23-1.24c0.89,1.58,1.91,3.09,3.05,4.5
						c0.18,0.22,0.38,0.45,0.65,0.51c0.45,0.1,0.88-0.31,0.97-0.76C414.28,216.16,414.13,215.7,413.98,215.26z"/>
				</g>
			</g>
			<g opacity="0.3">
				<g>
					<path d="M436.8,218.52c-2.6-7.37-5.22-14.81-6.26-22.55c-0.23-1.71-0.37-3.47,0.07-5.14c0.44-1.67,1.58-3.24,3.22-3.78
						c-0.92-1-0.94-2.7-0.04-3.72c1.06,1.13,2.12,2.25,3.18,3.38c-1.65-0.02-3.03,1.41-3.51,2.98c-0.48,1.58-0.27,3.27-0.05,4.9
						c1.08,8.07,2.17,16.14,3.25,24.21"/>
				</g>
			</g>
			<g opacity="0.3">
				<g>
					<path d="M471.46,192.66c1.58-5.52,3.16-11.04,4.73-16.56c-1.33,3.17-2.65,6.33-3.98,9.5c-0.56,1.33-1.13,2.68-2.08,3.75
						s-2.38,1.84-3.8,1.63c0.82,0.56,1.65,1.12,2.47,1.68c-1.77,2.85-3.51,5.98-5.29,8.84l3.81,0.32c1.45-2.3,2.73-4.34,4.18-6.64
						c-0.42-0.76-0.85-1.53-1.28-2.29C470.63,192.82,471.04,192.74,471.46,192.66z"/>
				</g>
			</g>
			<g>
				<polygon fill="#F5F5F5" points="447.95,157.21 448.15,154.56 453.06,161.49 454.62,168.97 458.64,161.49 472.48,153.44 
					472.48,160.48 469.83,167.32 464.68,171.3 458.77,173.89 451.75,172.58 447.5,170.18 446.56,165.21 				"/>
			</g>
			<g>
				<g>
					<path fill="#263238" d="M452.71,161.39c0.08,0.03-0.29,0.96-0.72,2.52c-0.42,1.55-0.93,3.78-0.82,6.25l0.05,1.07l-0.57-0.9
						c-0.11-0.17-0.23-0.36-0.35-0.55c-1.38-2.36-2.03-4.72-2.73-6.31c-0.66-1.61-1.24-2.53-1.16-2.58
						c0.05-0.04,0.76,0.81,1.53,2.41c0.81,1.57,1.52,3.92,2.85,6.18c0.11,0.18,0.23,0.36,0.33,0.53l-0.52,0.17
						c-0.11-2.6,0.49-4.85,1.01-6.4C452.16,162.24,452.65,161.36,452.71,161.39z"/>
				</g>
			</g>
			<g>
				<g>
					<path fill="#263238" d="M472.48,158.02c0.02,0,0.03,0.1,0.04,0.28c0.02,0.19-0.02,0.46-0.08,0.82
						c-0.16,0.7-0.63,1.66-1.47,2.62c-0.83,0.97-2.01,1.93-3.39,2.87c-1.41,0.88-2.82,1.97-4.31,3.17
						c-1.33,1.06-2.62,2.08-3.91,2.88l-0.51,0.31l0.11-0.59c0.22-1.24,0.16-2.48,0.12-3.55c-0.06-1.08-0.15-2.04-0.23-2.83
						c-0.16-1.58-0.27-2.51-0.21-2.52c0.06-0.01,0.28,0.9,0.53,2.48c0.12,0.79,0.26,1.74,0.35,2.84c0.08,1.09,0.18,2.32-0.04,3.68
						l-0.4-0.28c1.24-0.79,2.5-1.81,3.83-2.87c1.48-1.19,2.97-2.31,4.38-3.16c1.37-0.9,2.54-1.8,3.38-2.7
						c0.85-0.89,1.34-1.77,1.55-2.41C472.42,158.41,472.42,158.02,472.48,158.02z"/>
				</g>
			</g>
			<g>
				<g>
					<path fill="#263238" d="M489.21,250.7c0,0.01-0.15,0.03-0.44,0.06c-0.34,0.02-0.77,0.05-1.29,0.08
						c-1.12,0.06-2.77,0.11-4.85,0.15c-2.08,0.04-4.58,0.05-7.44,0.02c-1.43-0.02-2.94-0.04-4.52-0.09
						c-0.79-0.03-1.61-0.07-2.44-0.1c-0.42-0.03-0.84-0.06-1.26-0.09l-0.64-0.07c-0.11-0.02-0.22-0.03-0.33-0.05
						c-0.06-0.01-0.11-0.02-0.18-0.04l-0.11-0.04c-0.02,0.01-0.2-0.14-0.21-0.24l-0.01-0.06l0.01-0.04
						c0.95-4.29,1.99-8.99,3.08-13.92c0.21-0.93,0.41-1.84,0.61-2.74l0.04-0.19l0.19-0.03c8.49-1.25,16.23-2.52,21.71-4.8
						l-0.12,0.22c-0.53-3.8-0.96-6.9-1.27-9.12c-0.13-1.03-0.24-1.86-0.32-2.49c-0.07-0.57-0.09-0.87-0.07-0.88
						c0.02,0,0.09,0.29,0.19,0.86c0.11,0.62,0.25,1.45,0.43,2.47c0.35,2.22,0.85,5.31,1.45,9.1l0.03,0.16l-0.15,0.06
						c-5.53,2.39-13.29,3.72-21.79,4.98l0.23-0.22c-0.2,0.9-0.4,1.82-0.61,2.75c-1.11,4.92-2.16,9.62-3.12,13.91l-0.23-0.06
						c6.79,0.31,12.73,0.43,16.86,0.44c2.03,0,3.65,0,4.84,0c0.52,0,0.95,0,1.29,0C489.06,250.68,489.21,250.69,489.21,250.7z"/>
				</g>
			</g>
		</g>
		<g>
			<g>
				<g>
					<polygon fill="#455A64" points="492.7,208.33 483.3,231.13 469.47,233.58 465.76,250.24 474.9,250.77 474.83,251.38 
						438.97,252.4 454.14,208.33 					"/>
				</g>
				<g>
					<polygon fill="#455A64" points="449.09,200.78 454.14,208.33 438.97,252.4 434.03,243.95 					"/>
				</g>
				<g>
					<polygon fill="#EBEBEB" points="492.7,208.33 487.16,202.96 449.09,200.78 454.14,208.33 					"/>
				</g>
				<g>
					<g>
						<path fill="#263238" d="M454.14,208.33c0.15,0.05-3.13,9.96-7.32,22.12c-4.19,12.17-7.71,21.99-7.85,21.94
							s3.13-9.95,7.32-22.13C450.48,218.11,454,208.28,454.14,208.33z"/>
					</g>
				</g>
			</g>
			<g>
				<g>
					<path fill="#B78876" d="M468.95,234.84l-6.57-0.57c0,0-2.54-4.22-4.22-5.69c-1.67-1.47-10.31-5.61-10.31-5.61
						s-1.26,1.51,0,3.03c0.57,0.68,4.65,2.98,4.65,2.98l0,0c0.49,1.68-0.97,3.29-2.69,2.97c-2.53-0.46-5.48-0.99-5.86-0.99
						c-0.43,0-2.96-2.39-4.81-4.2c-1.11-1.09-3.09-0.05-2.65,1.44c0.05,0.15,0.12,0.28,0.22,0.37c0,0-2.66-0.09-0.29,3.49
						c0,0-0.55,3.31,1.4,4.82c0,0,0.84,4,2.1,5.37c1.25,1.38,13.5,4,13.5,4l12.76,1.24L468.95,234.84z"/>
				</g>
				<g>
					<g>
						<path fill="#AA6550" d="M448.73,235.75c0,0.07-0.84,0.12-2.19,0.05c-1.34-0.09-3.29-0.27-5.15-1.35
							c-1.85-1.12-2.91-2.79-3.59-3.94c-0.67-1.18-1-1.95-0.93-1.98c0.07-0.04,0.53,0.66,1.27,1.77c0.75,1.08,1.83,2.64,3.54,3.66
							c1.72,1,3.59,1.26,4.9,1.44C447.9,235.57,448.74,235.67,448.73,235.75z"/>
					</g>
				</g>
				<g>
					<g>
						<path fill="#AA6550" d="M447.47,238.59c0.01,0.07-0.76,0.25-2,0.16c-0.62-0.04-1.35-0.13-2.16-0.31
							c-0.79-0.2-1.7-0.42-2.52-1.03c-0.78-0.6-1.36-1.3-1.88-1.93c-0.47-0.58-0.91-1.14-1.35-1.68c-0.76-0.96-1.2-1.59-1.14-1.64
							c0.06-0.05,0.61,0.48,1.44,1.38c0.42,0.45,0.91,0.99,1.44,1.6c0.53,0.6,1.11,1.28,1.82,1.81c0.69,0.52,1.55,0.76,2.31,0.98
							c0.77,0.2,1.48,0.33,2.08,0.42C446.71,238.53,447.46,238.51,447.47,238.59z"/>
					</g>
				</g>
				<g>
					<g>
						<path fill="#AA6550" d="M445.75,241.74c-0.04,0.23-2.23-0.23-4.81-0.96c-0.43-0.09-0.7-0.37-0.95-0.57
							c-0.25-0.22-0.47-0.45-0.67-0.68c-0.4-0.45-0.71-0.89-0.95-1.28c-0.47-0.78-0.61-1.34-0.54-1.36
							c0.08-0.03,0.33,0.45,0.87,1.14c0.27,0.34,0.6,0.74,1,1.15c0.2,0.21,0.41,0.42,0.65,0.61c0.24,0.19,0.47,0.4,0.72,0.44
							c1.32,0.36,2.48,0.73,3.33,1C445.24,241.52,445.75,241.68,445.75,241.74z"/>
					</g>
				</g>
			</g>
		</g>
	</g>
</g>
</svg>
