<?xml version="1.0" encoding="utf-8"?>
<!-- Generator: Adobe Illustrator 23.0.5, SVG Export Plug-In . SVG Version: 6.00 Build 0)  -->
<svg version="1.1" xmlns="http://www.w3.org/2000/svg" xmlns:xlink="http://www.w3.org/1999/xlink" x="0px" y="0px"
	 viewBox="0 0 750 500" enable-background="new 0 0 750 500" xml:space="preserve">
<g id="BACKGROUND">
	<rect fill="#FFFFFF" width="750" height="500"/>
</g>
<g id="OBJECTS">
	<g>
		<path fill="#EDF5F7" d="M105.84,455.07c0,0-57.84-35.59-51.33-107.07c5.9-64.82,48.16-76.17,75.36-154.08
			c27.2-77.92-0.22-143.07,73.94-165.73c56.15-17.16,114.4,62.87,234.23,59.9s177.72-41.72,221.29,12.24
			c38.27,47.4-21.33,88.55-16.67,151.09c2.6,34.85,27.18,53.84,34.33,107.41c3.26,24.42-1.67,70.51-25.06,96.26H143.61"/>
		<line fill="none" stroke="#C3DBE6" stroke-miterlimit="10" x1="73" y1="455.07" x2="677" y2="455.07"/>
	</g>
	<g>
		
			<ellipse transform="matrix(0.9287 -0.3708 0.3708 0.9287 -37.6627 55.9323)" fill="#C3DBE6" cx="126.63" cy="125.91" rx="52.09" ry="52.09"/>
		
			<ellipse transform="matrix(0.1624 -0.9867 0.9867 0.1624 -18.1774 230.4157)" fill="#FFFFFF" cx="126.63" cy="125.91" rx="43.87" ry="43.87"/>
		
			<ellipse transform="matrix(0.7071 -0.7071 0.7071 0.7071 -51.9459 126.4208)" fill="#C3DBE6" cx="126.63" cy="125.91" rx="35.93" ry="35.93"/>
		
			<ellipse transform="matrix(0.161 -0.987 0.987 0.161 -18.0277 230.6228)" fill="#FFFFFF" cx="126.63" cy="125.91" rx="16.06" ry="16.06"/>
		
			<ellipse transform="matrix(0.9247 -0.3807 0.3807 0.9247 -38.4006 57.6906)" fill="#C3DBE6" cx="126.63" cy="125.91" rx="8.52" ry="8.52"/>
		<g>
			<g>
				<g>
					<polygon fill="#A2C5D2" points="62.28,165.6 54.66,169.92 61.17,171.94 68.79,167.62 					"/>
				</g>
				<g>
					<polygon fill="#A2C5D2" points="67.18,174.25 59.56,178.56 61.17,171.94 68.79,167.62 					"/>
				</g>
			</g>
			<g>
				<path fill="#A2C5D2" d="M63.92,170.38c-0.68-1.19,6.67-6.64,18.13-13.13c11.46-6.49,28.17-13.11,28.17-13.11
					s-14.26,10.93-25.72,17.43C73.04,168.07,64.6,171.57,63.92,170.38z"/>
			</g>
			<g>
				<path fill="#C3DBE6" d="M61.17,171.94c3.99-2.49,8.03-4.89,12.08-7.27c4.05-2.39,8.14-4.69,12.21-7.05
					c4.11-2.28,8.19-4.6,12.32-6.85c4.13-2.25,8.26-4.48,12.45-6.62c-3.99,2.49-8.03,4.89-12.08,7.27
					c-4.05,2.38-8.14,4.7-12.21,7.04c-4.11,2.28-8.19,4.6-12.32,6.85C69.49,167.56,65.36,169.79,61.17,171.94z"/>
			</g>
		</g>
		<g>
			<g>
				<g>
					<polygon fill="#A2C5D2" points="90.08,88.78 83.41,83.11 83.76,89.92 90.42,95.58 					"/>
				</g>
				<g>
					<polygon fill="#A2C5D2" points="83.65,96.35 76.98,90.68 83.76,89.92 90.42,95.58 					"/>
				</g>
			</g>
			<g>
				<path fill="#A2C5D2" d="M86.16,91.96c0.89-1.05,8.53,3.98,18.57,12.51c10.04,8.53,22,21.94,22,21.94s-15.17-9.63-25.21-18.16
					C91.47,99.73,85.27,93.01,86.16,91.96z"/>
			</g>
			<g>
				<path fill="#C3DBE6" d="M83.76,89.92c3.71,2.89,7.35,5.86,10.98,8.84c3.63,2.98,7.21,6.03,10.82,9.04
					c3.56,3.07,7.14,6.11,10.67,9.21c3.53,3.1,7.05,6.21,10.5,9.41c-3.71-2.89-7.35-5.86-10.98-8.84
					c-3.63-2.98-7.21-6.03-10.81-9.04c-3.55-3.07-7.14-6.11-10.67-9.21C90.73,96.23,87.21,93.11,83.76,89.92z"/>
			</g>
		</g>
	</g>
	<g>
		<g>
			<path fill="#C3DBE6" d="M189.93,284V92.89c0-10.32,8.36-18.68,18.68-18.68h332.79c10.32,0,18.68,8.36,18.68,18.68V284
				c0,10.32-8.36,18.68-18.68,18.68H208.61C198.29,302.68,189.93,294.32,189.93,284z"/>
			<path fill="#FFFFFF" d="M209.61,298.68c-8.66,0-15.68-7.02-15.68-15.68V93.21c0-8.28,6.72-15,15-15h332.14c8.28,0,15,6.72,15,15
				V283c0,8.66-7.02,15.68-15.68,15.68H209.61z"/>
			<path fill="#A2C5D2" d="M208.15,78.21h332.93c8.28,0,15,6.72,15,15v12.08H193.15V93.21C193.15,84.93,199.86,78.21,208.15,78.21z"
				/>
			<g>
				<circle fill="#DCECF0" cx="213.55" cy="91.75" r="3.46"/>
				<circle fill="#DCECF0" cx="234.16" cy="91.75" r="3.46"/>
				<path fill="#DCECF0" d="M258.24,91.75c0,1.91-1.55,3.46-3.46,3.46c-1.91,0-3.46-1.55-3.46-3.46c0-1.91,1.55-3.46,3.46-3.46
					C256.69,88.29,258.24,89.84,258.24,91.75z"/>
			</g>
		</g>
		<g>
			
				<line fill="none" stroke="#C3DBE6" stroke-width="3" stroke-linecap="round" stroke-linejoin="round" stroke-miterlimit="10" x1="212.64" y1="262.4" x2="419.14" y2="262.4"/>
			
				<line fill="none" stroke="#C3DBE6" stroke-width="3" stroke-linecap="round" stroke-linejoin="round" stroke-miterlimit="10" x1="212.64" y1="274.3" x2="373.95" y2="274.3"/>
			
				<line fill="none" stroke="#C3DBE6" stroke-width="3" stroke-linecap="round" stroke-linejoin="round" stroke-miterlimit="10" x1="212.64" y1="286.21" x2="313.08" y2="286.21"/>
			<g>
				
					<line fill="none" stroke="#C3DBE6" stroke-width="3" stroke-linecap="round" stroke-linejoin="round" stroke-miterlimit="10" x1="448.18" y1="262.4" x2="467.27" y2="262.4"/>
				
					<line fill="none" stroke="#C3DBE6" stroke-width="3" stroke-linecap="round" stroke-linejoin="round" stroke-miterlimit="10" x1="448.18" y1="274.3" x2="467.27" y2="274.3"/>
				
					<line fill="none" stroke="#C3DBE6" stroke-width="3" stroke-linecap="round" stroke-linejoin="round" stroke-miterlimit="10" x1="448.18" y1="286.21" x2="467.27" y2="286.21"/>
				
					<line fill="none" stroke="#C3DBE6" stroke-width="3" stroke-linecap="round" stroke-linejoin="round" stroke-miterlimit="10" x1="483.22" y1="262.4" x2="502.31" y2="262.4"/>
				
					<line fill="none" stroke="#C3DBE6" stroke-width="3" stroke-linecap="round" stroke-linejoin="round" stroke-miterlimit="10" x1="483.22" y1="274.3" x2="502.31" y2="274.3"/>
				
					<line fill="none" stroke="#C3DBE6" stroke-width="3" stroke-linecap="round" stroke-linejoin="round" stroke-miterlimit="10" x1="483.22" y1="286.21" x2="502.31" y2="286.21"/>
				
					<line fill="none" stroke="#C3DBE6" stroke-width="3" stroke-linecap="round" stroke-linejoin="round" stroke-miterlimit="10" x1="518.27" y1="262.4" x2="537.36" y2="262.4"/>
				
					<line fill="none" stroke="#C3DBE6" stroke-width="3" stroke-linecap="round" stroke-linejoin="round" stroke-miterlimit="10" x1="518.27" y1="274.3" x2="537.36" y2="274.3"/>
				
					<line fill="none" stroke="#C3DBE6" stroke-width="3" stroke-linecap="round" stroke-linejoin="round" stroke-miterlimit="10" x1="518.27" y1="286.21" x2="537.36" y2="286.21"/>
			</g>
			<g>
				
					<line fill="none" stroke="#C3DBE6" stroke-width="0.7903" stroke-miterlimit="10" x1="535.96" y1="111.97" x2="535.96" y2="157.81"/>
				
					<line fill="none" stroke="#C3DBE6" stroke-width="6.3222" stroke-miterlimit="10" x1="535.96" y1="126.19" x2="535.96" y2="147.06"/>
				
					<line fill="none" stroke="#C3DBE6" stroke-width="0.7903" stroke-miterlimit="10" x1="525.78" y1="119.73" x2="525.78" y2="165.57"/>
				
					<line fill="none" stroke="#C3DBE6" stroke-width="6.3222" stroke-miterlimit="10" x1="525.78" y1="141.06" x2="525.78" y2="154.81"/>
				
					<line fill="none" stroke="#C3DBE6" stroke-width="0.7903" stroke-miterlimit="10" x1="515.6" y1="123.75" x2="515.6" y2="169.6"/>
				
					<line fill="none" stroke="#C3DBE6" stroke-width="6.3222" stroke-miterlimit="10" x1="515.6" y1="147.12" x2="515.6" y2="168.63"/>
				
					<line fill="none" stroke="#C3DBE6" stroke-width="0.7903" stroke-miterlimit="10" x1="505.41" y1="121.49" x2="505.41" y2="167.33"/>
				
					<line fill="none" stroke="#C3DBE6" stroke-width="6.3222" stroke-miterlimit="10" x1="505.41" y1="128.19" x2="505.41" y2="156.58"/>
				
					<line fill="none" stroke="#C3DBE6" stroke-width="0.7903" stroke-miterlimit="10" x1="495.23" y1="137.18" x2="495.23" y2="171.56"/>
				
					<line fill="none" stroke="#C3DBE6" stroke-width="6.3222" stroke-miterlimit="10" x1="495.23" y1="146.05" x2="495.23" y2="161.21"/>
				
					<line fill="none" stroke="#C3DBE6" stroke-width="0.7903" stroke-miterlimit="10" x1="485.05" y1="142.11" x2="485.05" y2="183.02"/>
				
					<line fill="none" stroke="#C3DBE6" stroke-width="6.3222" stroke-miterlimit="10" x1="485.05" y1="152.87" x2="485.05" y2="177.2"/>
				
					<line fill="none" stroke="#C3DBE6" stroke-width="0.7903" stroke-miterlimit="10" x1="474.86" y1="134.88" x2="474.86" y2="170.5"/>
				
					<line fill="none" stroke="#C3DBE6" stroke-width="6.3222" stroke-miterlimit="10" x1="474.86" y1="143.23" x2="474.86" y2="163.45"/>
				
					<line fill="none" stroke="#C3DBE6" stroke-width="0.7903" stroke-miterlimit="10" x1="464.68" y1="120.6" x2="464.68" y2="163.27"/>
				
					<line fill="none" stroke="#C3DBE6" stroke-width="6.3222" stroke-miterlimit="10" x1="464.68" y1="128.89" x2="464.68" y2="155.69"/>
				
					<line fill="none" stroke="#C3DBE6" stroke-width="0.7903" stroke-miterlimit="10" x1="454.5" y1="140.78" x2="454.5" y2="174.63"/>
				
					<line fill="none" stroke="#C3DBE6" stroke-width="6.3222" stroke-miterlimit="10" x1="454.5" y1="148.89" x2="454.5" y2="165.29"/>
				
					<line fill="none" stroke="#C3DBE6" stroke-width="0.7903" stroke-miterlimit="10" x1="444.31" y1="154.64" x2="444.31" y2="188.67"/>
				
					<line fill="none" stroke="#C3DBE6" stroke-width="6.3222" stroke-miterlimit="10" x1="444.31" y1="165.39" x2="444.31" y2="177.91"/>
				
					<line fill="none" stroke="#C3DBE6" stroke-width="0.7903" stroke-miterlimit="10" x1="434.13" y1="145.82" x2="434.13" y2="180.56"/>
				
					<line fill="none" stroke="#C3DBE6" stroke-width="6.3222" stroke-miterlimit="10" x1="434.13" y1="156.58" x2="434.13" y2="169.68"/>
				
					<line fill="none" stroke="#C3DBE6" stroke-width="0.7903" stroke-miterlimit="10" x1="423.94" y1="154.64" x2="423.94" y2="196.78"/>
				
					<line fill="none" stroke="#C3DBE6" stroke-width="6.3222" stroke-miterlimit="10" x1="423.94" y1="165.39" x2="423.94" y2="189.72"/>
				
					<line fill="none" stroke="#C3DBE6" stroke-width="0.7903" stroke-miterlimit="10" x1="413.76" y1="154.64" x2="413.76" y2="183.82"/>
				
					<line fill="none" stroke="#C3DBE6" stroke-width="6.3222" stroke-miterlimit="10" x1="413.76" y1="165.39" x2="413.76" y2="177.26"/>
				
					<line fill="none" stroke="#C3DBE6" stroke-width="0.7903" stroke-miterlimit="10" x1="403.58" y1="150.05" x2="403.58" y2="180.56"/>
				
					<line fill="none" stroke="#C3DBE6" stroke-width="6.3222" stroke-miterlimit="10" x1="403.58" y1="160.81" x2="403.58" y2="169.68"/>
				
					<line fill="none" stroke="#C3DBE6" stroke-width="0.7903" stroke-miterlimit="10" x1="393.39" y1="154.64" x2="393.39" y2="213"/>
				
					<line fill="none" stroke="#C3DBE6" stroke-width="6.3222" stroke-miterlimit="10" x1="393.39" y1="165.39" x2="393.39" y2="206.65"/>
				
					<line fill="none" stroke="#C3DBE6" stroke-width="0.7903" stroke-miterlimit="10" x1="383.21" y1="171.03" x2="383.21" y2="216.88"/>
				
					<line fill="none" stroke="#C3DBE6" stroke-width="6.3222" stroke-miterlimit="10" x1="383.21" y1="181.79" x2="383.21" y2="206.12"/>
				
					<line fill="none" stroke="#C3DBE6" stroke-width="0.7903" stroke-miterlimit="10" x1="373.03" y1="172.97" x2="373.03" y2="225.16"/>
				
					<line fill="none" stroke="#C3DBE6" stroke-width="6.3222" stroke-miterlimit="10" x1="373.03" y1="182.85" x2="373.03" y2="214.41"/>
				
					<line fill="none" stroke="#C3DBE6" stroke-width="0.7903" stroke-miterlimit="10" x1="362.84" y1="202.95" x2="362.84" y2="245.27"/>
				
					<line fill="none" stroke="#C3DBE6" stroke-width="6.3222" stroke-miterlimit="10" x1="362.84" y1="210.18" x2="362.84" y2="234.51"/>
				
					<line fill="none" stroke="#C3DBE6" stroke-width="0.7903" stroke-miterlimit="10" x1="352.66" y1="162.17" x2="352.66" y2="208.02"/>
				
					<line fill="none" stroke="#C3DBE6" stroke-width="6.3222" stroke-miterlimit="10" x1="352.66" y1="172.93" x2="352.66" y2="202.9"/>
				
					<line fill="none" stroke="#C3DBE6" stroke-width="0.7903" stroke-miterlimit="10" x1="342.48" y1="165.92" x2="342.48" y2="211.76"/>
				
					<line fill="none" stroke="#C3DBE6" stroke-width="6.3222" stroke-miterlimit="10" x1="342.48" y1="183.2" x2="342.48" y2="201.01"/>
				
					<line fill="none" stroke="#C3DBE6" stroke-width="0.7903" stroke-miterlimit="10" x1="332.29" y1="183.2" x2="332.29" y2="229.04"/>
				
					<line fill="none" stroke="#C3DBE6" stroke-width="6.3222" stroke-miterlimit="10" x1="332.29" y1="202.77" x2="332.29" y2="218.29"/>
				
					<line fill="none" stroke="#C3DBE6" stroke-width="0.7903" stroke-miterlimit="10" x1="322.11" y1="193.96" x2="322.11" y2="239.8"/>
				
					<line fill="none" stroke="#C3DBE6" stroke-width="6.3222" stroke-miterlimit="10" x1="322.11" y1="216.88" x2="322.11" y2="229.04"/>
				
					<line fill="none" stroke="#C3DBE6" stroke-width="0.7903" stroke-miterlimit="10" x1="311.93" y1="187.61" x2="311.93" y2="233.45"/>
				
					<line fill="none" stroke="#C3DBE6" stroke-width="6.3222" stroke-miterlimit="10" x1="311.93" y1="207.88" x2="311.93" y2="222.7"/>
				
					<line fill="none" stroke="#C3DBE6" stroke-width="0.7903" stroke-miterlimit="10" x1="301.74" y1="183.2" x2="301.74" y2="229.04"/>
				
					<line fill="none" stroke="#C3DBE6" stroke-width="6.3222" stroke-miterlimit="10" x1="301.74" y1="199.77" x2="301.74" y2="218.29"/>
				
					<line fill="none" stroke="#C3DBE6" stroke-width="0.7903" stroke-miterlimit="10" x1="291.56" y1="194.5" x2="291.56" y2="240.34"/>
				
					<line fill="none" stroke="#C3DBE6" stroke-width="6.3222" stroke-miterlimit="10" x1="291.56" y1="201.02" x2="291.56" y2="229.58"/>
				
					<line fill="none" stroke="#C3DBE6" stroke-width="0.7903" stroke-miterlimit="10" x1="281.37" y1="175.43" x2="281.37" y2="221.27"/>
				
					<line fill="none" stroke="#C3DBE6" stroke-width="6.3222" stroke-miterlimit="10" x1="281.37" y1="186.18" x2="281.37" y2="213.87"/>
				
					<line fill="none" stroke="#C3DBE6" stroke-width="0.7903" stroke-miterlimit="10" x1="271.19" y1="156.57" x2="271.19" y2="202.41"/>
				
					<line fill="none" stroke="#C3DBE6" stroke-width="6.3222" stroke-miterlimit="10" x1="271.19" y1="167.33" x2="271.19" y2="195.36"/>
				
					<line fill="none" stroke="#C3DBE6" stroke-width="0.7903" stroke-miterlimit="10" x1="261.01" y1="164.33" x2="261.01" y2="210.17"/>
				
					<line fill="none" stroke="#C3DBE6" stroke-width="6.3222" stroke-miterlimit="10" x1="261.01" y1="172.09" x2="261.01" y2="199.42"/>
				
					<line fill="none" stroke="#C3DBE6" stroke-width="0.7903" stroke-miterlimit="10" x1="250.82" y1="154.81" x2="250.82" y2="200.66"/>
				
					<line fill="none" stroke="#C3DBE6" stroke-width="6.3222" stroke-miterlimit="10" x1="250.82" y1="165.57" x2="250.82" y2="173.15"/>
				
					<line fill="none" stroke="#C3DBE6" stroke-width="0.7903" stroke-miterlimit="10" x1="240.64" y1="144.41" x2="240.64" y2="190.25"/>
				
					<line fill="none" stroke="#C3DBE6" stroke-width="6.3222" stroke-miterlimit="10" x1="240.64" y1="155.17" x2="240.64" y2="167.33"/>
				
					<line fill="none" stroke="#C3DBE6" stroke-width="0.7903" stroke-miterlimit="10" x1="230.46" y1="166.54" x2="230.46" y2="220.93"/>
				
					<line fill="none" stroke="#C3DBE6" stroke-width="6.3222" stroke-miterlimit="10" x1="230.46" y1="172.18" x2="230.46" y2="210.18"/>
				
					<line fill="none" stroke="#C3DBE6" stroke-width="0.7903" stroke-miterlimit="10" x1="220.27" y1="197.66" x2="220.27" y2="243.5"/>
				
					<line fill="none" stroke="#C3DBE6" stroke-width="6.3222" stroke-miterlimit="10" x1="220.27" y1="186.03" x2="220.27" y2="206.66"/>
				
					<line fill="none" stroke="#C3DBE6" stroke-width="0.7903" stroke-miterlimit="10" x1="210.09" y1="194.49" x2="210.09" y2="240.33"/>
				
					<line fill="none" stroke="#C3DBE6" stroke-width="6.3222" stroke-miterlimit="10" x1="210.09" y1="202.78" x2="210.09" y2="229.58"/>
			</g>
		</g>
	</g>
	<g>
		<path fill="#DCECF0" d="M645.62,220.01l-13.53,20.8h-24.82c0.78-13.48,11.96-24.18,25.64-24.18
			C637.53,216.63,641.87,217.86,645.62,220.01z"/>
		<path fill="#C3DBE6" d="M658.58,242.3c0,4.87-1.35,9.41-3.71,13.29l-19.91-13.69l13.17-20.26
			C654.47,226.31,658.58,233.83,658.58,242.3z"/>
		<path fill="#A2C5D2" d="M653.16,258.07c-4.7,6.03-12.02,9.91-20.25,9.91c-13.67,0-24.85-10.69-25.64-24.17h25.17L653.16,258.07z"
			/>
	</g>
	<g>
		<g>
			<path fill="#FF9014" d="M648.88,429.97c0,0,18.55-5.22,17.32-16.96c-1.23-11.74-15.36-14.1-7.16-24.5
				c8.19-10.4,10.45-15.78,4.73-21.27c-5.72-5.49,4.74-9.25,4.3-19.41c-0.44-10.16-10.59-12.22-16.95-7.71
				c-6.36,4.51-1.86,12.41-4.4,18.62c-2.54,6.21-11.72,8.27-13.29,15.99c-1.56,7.71,6.73,14.13,6.84,19.75
				c0.1,5.62-10.58,11.85-10.57,20.12C629.7,422.86,645.38,429.86,648.88,429.97z"/>
			<g>
				<path fill="#FF7800" d="M650.58,433.4c-1.12-6.98-1.71-14.14-1.98-21.26c-0.25-7.14-0.09-14.29,0.47-21.41
					c0.55-7.13,1.73-14.19,3.33-21.17c1.66-6.96,4.1-13.72,7.11-20.23c-3.18,6.43-5.81,13.14-7.67,20.09
					c-1.79,6.96-3.17,14.04-3.92,21.2c-0.76,7.16-1.11,14.36-1.05,21.56c0.08,7.21,0.47,14.39,1.43,21.6L650.58,433.4z"/>
			</g>
		</g>
		<g>
			<path fill="#FF7800" d="M645.65,446.71c0,0-12.2-8.38-8.87-17.27c3.32-8.88,6.25-6.95,6.03-19.24
				c-0.22-12.29,4.22-19.41,17.6-20.74c13.38-1.33,18.84-6.17,25.62-8.3c6.79-2.13,11.49-0.94,13.28,3.47s0.02,11.25-8.67,12.48
				c-8.69,1.23-13.29,3.83-14.14,12.84c-0.85,9.02-5.05,11.28-13,12.8C655.55,424.27,665.07,444.24,645.65,446.71z"/>
			<g>
				<path fill="#FF9014" d="M645.32,444.92c0.66-12.26,4.53-24.34,11.39-34.47c6.84-10.11,16.73-18.12,28.08-22.38
					c-11.23,4.58-20.78,12.82-27.22,22.94c-6.45,10.14-9.88,22.07-10.19,33.98L645.32,444.92z"/>
			</g>
		</g>
		<g>
			<path fill="#FF9407" d="M640.51,433.76c0,0-14.22-1.94-16.59-10.24c-2.37-8.3,3.3-11.35-4.72-14.38
				c-8.03-3.04-13.91-1.97-15.51-9.95c-1.6-7.98-4.12-13.52-10.42-16.87c-6.3-3.36-1.01-12.4,5.74-9.6
				c6.75,2.81,8.94,8.15,18.5,7.33c10.78-0.92,17.02,1.79,15.97,10.21c-0.82,6.55,0.79,7.44,7.83,10.35
				c12.01,4.96,9.7,17.33,5.85,25.56S640.51,433.76,640.51,433.76z"/>
			<g>
				<path fill="#FF7800" d="M637.76,431.46c0.43-5.63-0.76-11.35-2.94-16.64c-2.18-5.3-5.31-10.22-8.97-14.68
					c-3.67-4.47-7.88-8.49-12.44-12.07c-4.57-3.57-9.49-6.7-14.68-9.33c5.25,2.5,10.28,5.5,14.96,8.97
					c4.68,3.47,9.04,7.41,12.87,11.84c3.83,4.42,7.15,9.34,9.54,14.74c2.38,5.38,3.81,11.31,3.51,17.32L637.76,431.46z"/>
			</g>
		</g>
		<g>
			<path fill="#304A5F" d="M660.32,429h-15.44h-15.44c0,0-2.53,13.41,4.56,26.07h10.88h10.88C662.85,442.42,660.32,429,660.32,429z"
				/>
			<path fill="#2C4C6A" d="M662.41,434.5c-0.13-3.41-0.43-5.49-0.43-5.49h-17.09h-17.09c0,0-0.31,2.08-0.43,5.49H662.41z"/>
		</g>
	</g>
	<g>
		<g>
			<path fill="#FF7800" d="M101.4,435.48c0.05-4.91,9.53-18.72,8.08-24.23c-2.91-11.04-13.4-7.76-12.38-20.13
				c0.59-7.11-3.91-13.7-17.44-12.75c-13.68,0.96-16.66-4.31-23.65-5.96c-6.99-1.65-11.63-0.11-13.12,4.45
				c-1.49,4.56,0.79,11.33,9.63,11.94c8.83,0.61,12.07,2.18,13.59,11.2s9.12,3.72,15.75,8.5c5.38,3.88-2.98,7.53,2.38,14.5
				C87.49,427.24,98.78,428.19,101.4,435.48z"/>
			<g>
				<path fill="#FF9014" d="M99.58,433.89c-1.18-11.98-5.5-23.74-12.74-33.48c-7.22-9.72-17.44-17.33-29.08-21.12
					c11.74,3.47,22.26,10.83,29.87,20.51c7.62,9.69,12.38,21.57,13.92,33.86L99.58,433.89z"/>
			</g>
		</g>
		<g>
			<path fill="#FF9014" d="M113.47,433.45c0,0-19.93-2.9-20.24-15.24c-0.31-12.34,10.85-16.36,0.96-26.03
				c-9.9-9.67-9.81-15.28-4.62-21.74c5.19-6.47-6.16-8.95-7.08-19.54c-0.91-10.59,9.32-14.1,16.52-10.28
				c7.2,3.82,3.61,12.61,7.08,18.7c3.47,6.09,13.27,6.99,15.93,14.77c2.66,7.78-0.39,14.37,0.26,20.21c0.65,5.84,7.89,12.03,9,20.61
				C132.4,423.49,117.1,432.87,113.47,433.45z"/>
			<g>
				<path fill="#FF7800" d="M112.39,437.24c0.2-7.4-0.17-14.9-0.88-22.33c-0.72-7.43-1.87-14.83-3.43-22.13
					c-1.56-7.31-3.75-14.48-6.36-21.48c-2.68-6.99-6.14-13.65-10.16-19.99c4.15,6.24,7.77,12.85,10.62,19.8
					c2.78,6.97,5.14,14.13,6.87,21.44c1.73,7.31,3.05,14.73,3.95,22.2c0.87,7.48,1.42,14.97,1.38,22.55L112.39,437.24z"/>
			</g>
		</g>
		<g>
			<path fill="#FF7800" d="M138.72,423.29c1.99-9.05-5.16-6.63,3.25-10.41c8.41-3.79,10.82-4.01,12.01-12.68
				c1.19-8.67,3.52-14.76,10.06-18.78c6.54-4.02,0.26-13.37-6.79-9.91c-7.06,3.46-9.04,9.32-19.34,9.08
				c-11.62-0.27-18.13,3.04-16.45,12c1.31,6.97-1.01,12.93-8.37,16.52c-12.54,6.11,0.56,17.48,4.41,29.93
				C124.12,421.94,136.73,432.34,138.72,423.29z"/>
			<g>
				<path fill="#FF9014" d="M117.61,437.31c-0.72-6.42,0.42-12.87,2.61-18.8c2.2-5.95,5.44-11.43,9.25-16.43
					c3.82-5,8.22-9.51,13.01-13.54c4.79-4.03,9.98-7.58,15.45-10.6c-5.39,3.17-10.46,6.85-15.12,10.98
					c-4.66,4.14-8.9,8.73-12.54,13.76c-3.63,5.03-6.66,10.5-8.64,16.34c-1.98,5.81-2.88,12.02-2.05,18.03L117.61,437.31z"/>
			</g>
		</g>
		<g>
			<path fill="#304A5F" d="M95.89,429h15.44h15.44c0,0,2.53,13.41-4.56,26.07h-10.88h-10.88C93.36,442.42,95.89,429,95.89,429z"/>
			<path fill="#2C4C6A" d="M93.8,434.5c0.13-3.41,0.43-5.49,0.43-5.49h17.09h17.09c0,0,0.31,2.08,0.43,5.49H93.8z"/>
		</g>
	</g>
	<g>
		<path fill="#FFFFFF" stroke="#C3DBE6" stroke-width="2.7309" stroke-miterlimit="10" d="M586.52,228.3h-58.04
			c-1.88,0-3.4-1.52-3.4-3.4v-39.78c0-1.88,1.52-3.4,3.4-3.4h58.04c1.88,0,3.4,1.52,3.4,3.4v39.78
			C589.92,226.78,588.39,228.3,586.52,228.3z"/>
		<path fill="none" stroke="#C3DBE6" stroke-width="2" stroke-linecap="round" stroke-linejoin="round" stroke-miterlimit="10" d="
			M529.79,222.46c4.62,0,4.62-6.31,9.23-6.31c4.62,0,4.62-11.14,9.23-11.14c4.62,0,3.34,7.26,7.96,7.26
			c4.62,0,5.9-19.01,10.51-19.01c4.62,0,4.62,8.34,9.24,8.34c4.62,0,4.62-8.34,9.24-8.34"/>
	</g>
	<g>
		<path fill="#C3DBE6" d="M617.8,139.83h-3.92c-0.7,0-1.34-0.44-1.55-1.11c-0.25-0.78-0.56-1.53-0.93-2.24
			c-0.32-0.63-0.19-1.39,0.31-1.89l2.78-2.78c0.64-0.64,0.64-1.69,0-2.33l-2.79-2.79c-0.64-0.64-1.69-0.64-2.33,0l-2.78,2.78
			c-0.5,0.5-1.26,0.63-1.89,0.31c-0.72-0.37-1.47-0.68-2.24-0.93c-0.67-0.22-1.11-0.85-1.11-1.55v-3.92c0-0.91-0.74-1.65-1.65-1.65
			h-3.95c-0.91,0-1.65,0.74-1.65,1.65v3.92c0,0.7-0.44,1.34-1.11,1.55c-0.78,0.25-1.53,0.56-2.24,0.93
			c-0.63,0.32-1.39,0.19-1.89-0.31l-2.77-2.77c-0.64-0.64-1.69-0.64-2.33,0l-2.79,2.79c-0.64,0.64-0.64,1.69,0,2.33l2.78,2.77
			c0.5,0.5,0.63,1.26,0.31,1.89c-0.37,0.72-0.68,1.47-0.93,2.24c-0.22,0.67-0.85,1.11-1.55,1.11h-3.92c-0.91,0-1.65,0.74-1.65,1.65
			v3.95c0,0.91,0.74,1.65,1.65,1.65h3.92c0.7,0,1.34,0.44,1.55,1.11c0.25,0.78,0.56,1.53,0.93,2.24c0.32,0.63,0.19,1.39-0.31,1.89
			l-2.78,2.78c-0.64,0.64-0.64,1.69,0,2.33l2.79,2.79c0.64,0.64,1.69,0.64,2.33,0l2.77-2.77c0.5-0.5,1.26-0.63,1.89-0.31
			c0.72,0.37,1.47,0.68,2.24,0.93c0.67,0.22,1.11,0.85,1.11,1.55v3.92c0,0.91,0.74,1.65,1.65,1.65h3.95c0.91,0,1.65-0.74,1.65-1.65
			v-3.92c0-0.7,0.44-1.34,1.11-1.55c0.78-0.25,1.53-0.56,2.24-0.93c0.63-0.32,1.39-0.19,1.89,0.31l2.78,2.78
			c0.64,0.64,1.69,0.64,2.33,0l2.79-2.79c0.64-0.64,0.64-1.69,0-2.33l-2.78-2.78c-0.5-0.5-0.63-1.26-0.31-1.89
			c0.37-0.72,0.68-1.47,0.93-2.24c0.22-0.67,0.85-1.11,1.55-1.11h3.92c0.91,0,1.65-0.74,1.65-1.65v-3.95
			C619.45,140.57,618.71,139.83,617.8,139.83z M597.72,151.65c-4.53,0-8.2-3.67-8.2-8.2c0-4.53,3.67-8.2,8.2-8.2
			c4.53,0,8.2,3.67,8.2,8.2C605.92,147.99,602.25,151.65,597.72,151.65z"/>
		<path fill="#C3DBE6" d="M645.77,157.67h-2.47c-0.44,0-0.84-0.28-0.98-0.7c-0.16-0.49-0.35-0.96-0.58-1.41
			c-0.2-0.39-0.12-0.87,0.2-1.19l1.75-1.75c0.41-0.4,0.41-1.06,0-1.47l-1.76-1.76c-0.41-0.41-1.06-0.41-1.47,0l-1.75,1.75
			c-0.31,0.31-0.79,0.4-1.19,0.2c-0.45-0.23-0.92-0.43-1.41-0.58c-0.42-0.14-0.7-0.54-0.7-0.98v-2.47c0-0.57-0.46-1.04-1.04-1.04
			h-2.49c-0.57,0-1.04,0.46-1.04,1.04v2.47c0,0.44-0.28,0.84-0.7,0.98c-0.49,0.16-0.96,0.35-1.41,0.58c-0.39,0.2-0.87,0.12-1.19-0.2
			l-1.75-1.75c-0.4-0.41-1.06-0.41-1.47,0l-1.76,1.76c-0.4,0.4-0.4,1.06,0,1.47l1.75,1.75c0.31,0.31,0.4,0.79,0.19,1.19
			c-0.23,0.45-0.43,0.92-0.58,1.41c-0.14,0.42-0.54,0.7-0.98,0.7h-2.47c-0.57,0-1.04,0.46-1.04,1.04v2.49
			c0,0.57,0.46,1.04,1.04,1.04h2.47c0.44,0,0.84,0.28,0.98,0.7c0.16,0.49,0.35,0.96,0.58,1.41c0.2,0.39,0.12,0.87-0.19,1.19
			l-1.75,1.75c-0.41,0.41-0.41,1.06,0,1.47l1.76,1.76c0.4,0.41,1.06,0.41,1.47,0l1.75-1.75c0.31-0.31,0.79-0.4,1.19-0.2
			c0.45,0.23,0.92,0.43,1.41,0.58c0.42,0.14,0.7,0.54,0.7,0.98v2.47c0,0.57,0.46,1.04,1.04,1.04h2.49c0.57,0,1.04-0.46,1.04-1.04
			v-2.47c0-0.44,0.28-0.84,0.7-0.98c0.49-0.16,0.96-0.35,1.41-0.58c0.39-0.2,0.87-0.12,1.19,0.19l1.75,1.75
			c0.4,0.41,1.06,0.41,1.47,0l1.76-1.76c0.4-0.4,0.4-1.06,0-1.47l-1.75-1.75c-0.31-0.31-0.4-0.79-0.2-1.19
			c0.23-0.45,0.43-0.92,0.58-1.41c0.14-0.42,0.53-0.7,0.98-0.7h2.47c0.57,0,1.04-0.46,1.04-1.04v-2.49
			C646.81,158.14,646.35,157.67,645.77,157.67z M633.13,165.12c-2.85,0-5.16-2.31-5.16-5.16c0-2.85,2.31-5.16,5.16-5.16
			c2.85,0,5.16,2.31,5.16,5.16C638.29,162.81,635.98,165.12,633.13,165.12z"/>
		<path fill="#C3DBE6" d="M621.83,113.72h-1.53c-0.27,0-0.52-0.17-0.6-0.43c-0.1-0.3-0.22-0.59-0.36-0.87
			c-0.12-0.24-0.07-0.54,0.12-0.73l1.08-1.08c0.25-0.25,0.25-0.66,0-0.91l-1.09-1.09c-0.25-0.25-0.66-0.25-0.91,0l-1.08,1.08
			c-0.19,0.19-0.49,0.25-0.73,0.12c-0.28-0.14-0.57-0.26-0.87-0.36c-0.26-0.08-0.43-0.33-0.43-0.6v-1.53c0-0.35-0.29-0.64-0.64-0.64
			h-1.54c-0.35,0-0.64,0.29-0.64,0.64v1.53c0,0.27-0.17,0.52-0.43,0.6c-0.3,0.1-0.59,0.22-0.87,0.36c-0.24,0.12-0.54,0.07-0.73-0.12
			l-1.08-1.08c-0.25-0.25-0.66-0.25-0.91,0l-1.09,1.09c-0.25,0.25-0.25,0.66,0,0.91l1.08,1.08c0.19,0.19,0.24,0.49,0.12,0.73
			c-0.14,0.28-0.26,0.57-0.36,0.87c-0.08,0.26-0.33,0.43-0.6,0.43h-1.53c-0.35,0-0.64,0.29-0.64,0.64v1.54
			c0,0.35,0.29,0.64,0.64,0.64h1.53c0.27,0,0.52,0.17,0.6,0.43c0.1,0.3,0.22,0.59,0.36,0.87c0.12,0.24,0.07,0.54-0.12,0.73
			l-1.08,1.08c-0.25,0.25-0.25,0.66,0,0.91l1.09,1.09c0.25,0.25,0.66,0.25,0.91,0l1.08-1.08c0.19-0.19,0.49-0.25,0.73-0.12
			c0.28,0.14,0.57,0.26,0.87,0.36c0.26,0.08,0.43,0.33,0.43,0.6v1.53c0,0.35,0.29,0.64,0.64,0.64h1.54c0.35,0,0.64-0.29,0.64-0.64
			v-1.53c0-0.27,0.17-0.52,0.43-0.6c0.3-0.1,0.59-0.22,0.87-0.36c0.24-0.12,0.54-0.07,0.73,0.12l1.08,1.08
			c0.25,0.25,0.66,0.25,0.91,0l1.09-1.09c0.25-0.25,0.25-0.66,0-0.91l-1.08-1.08c-0.19-0.19-0.25-0.49-0.12-0.73
			c0.14-0.28,0.26-0.57,0.36-0.87c0.08-0.26,0.33-0.43,0.6-0.43h1.53c0.35,0,0.64-0.29,0.64-0.64v-1.54
			C622.47,114.01,622.18,113.72,621.83,113.72z M614.02,118.32c-1.76,0-3.19-1.43-3.19-3.19c0-1.76,1.43-3.19,3.19-3.19
			c1.76,0,3.19,1.43,3.19,3.19C617.2,116.89,615.78,118.32,614.02,118.32z"/>
	</g>
	<g>
		<g>
			<path fill="#FF9407" d="M395.17,380.82c-0.44-3.44-2.19-6.61-4.46-9.23c-2.27-2.62-5.05-4.74-7.87-6.76
				c-3.59-2.58-7.47-5.1-11.87-5.6c-2.09-0.24-4.29,0.02-6.11,1.08c-1.82,1.06-3.18,3-3.22,5.1c-0.04,2.57,1.8,4.79,3.81,6.39
				c2.01,1.6,4.33,2.9,5.9,4.93c2.04,2.63,2.56,6.12,4.22,9c1.59,2.75,4.23,4.87,7.26,5.83c2.71,0.85,7.41,1.2,9.48-1.16
				C394.59,387.84,395.6,384.18,395.17,380.82z"/>
			<path fill="#FF9014" d="M395.9,381.07c-0.96-2.44-1.4-5.15-0.81-7.7c0.69-2.95,2.67-5.42,3.7-8.27c1.05-2.89,1.11-6.16,2.75-8.76
				c1.9-3,5.93-4.48,9.3-3.37c3.37,1.12,5.73,4.77,5.29,8.29c-0.31,2.45-1.77,4.6-2.43,6.98c-0.94,3.41-0.19,7.13-1.24,10.51
				c-0.87,2.83-3.03,5.23-5.74,6.4c-1.28,0.55-2.65,0.88-3.96,1.37c-0.86,0.33-1.86,0.92-2.82,0.66
				C397.97,386.64,396.57,382.77,395.9,381.07z"/>
			<path fill="#FF7800" d="M402.46,402.79c1.33-2.44,3.98-4.1,6.75-4.24c1.98-0.1,3.91,0.52,5.88,0.68c2.19,0.19,4.43-0.18,6.57,0.3
				c2.14,0.48,4.27,2.24,4.1,4.43c-0.12,1.59-1.46,2.89-2.96,3.44c-1.5,0.55-3.15,0.5-4.74,0.4c-1.6-0.09-3.23-0.22-4.77,0.19
				c-1.85,0.5-3.4,1.72-5.1,2.59c-1.8,0.92-4.7,1.72-5.92-0.34C400.99,408.11,401.31,404.9,402.46,402.79z"/>
			<path fill="none" stroke="#FF7800" stroke-width="0.724" stroke-miterlimit="10" d="M396.74,430.31c0,0,2.11-26.3,15.86-27.75"/>
			<path fill="none" stroke="#FF7800" stroke-width="0.724" stroke-miterlimit="10" d="M396.92,436.34c0,0-2.17-41.03,8.69-70.47"/>
			<path fill="none" stroke="#FF7800" stroke-width="0.724" stroke-miterlimit="10" d="M397.2,411.95c0,0,0.44-28.22-23.45-43.91"/>
		</g>
		<g>
			<path fill="#304A5F" d="M411.99,429.31h-15.26h-15.26c0,0-2.5,13.26,4.5,25.77h10.76h10.76
				C414.49,442.57,411.99,429.31,411.99,429.31z"/>
			<path fill="#2C4C6A" d="M414.05,434.74c-0.12-3.37-0.43-5.43-0.43-5.43h-16.89h-16.89c0,0-0.3,2.05-0.43,5.43H414.05z"/>
		</g>
	</g>
	<g>
		<rect x="455.64" y="35.87" fill="#C3DBE6" width="18.76" height="28.89"/>
		<polygon fill="#C3DBE6" points="465.02,17.67 447.92,38.94 482.12,38.94 		"/>
	</g>
	<g>
		<rect x="306.71" y="115.35" fill="#C3DBE6" width="18.76" height="28.89"/>
		<polygon fill="#C3DBE6" points="316.09,162.43 333.19,141.16 298.99,141.16 		"/>
	</g>
	<g>
		
			<ellipse transform="matrix(0.1602 -0.9871 0.9871 0.1602 433.998 630.5902)" fill="none" stroke="#A2C5D2" stroke-width="8.5831" stroke-miterlimit="10" cx="587.58" cy="60.24" rx="17.97" ry="17.97"/>
		<path fill="none" stroke="#C3DBE6" stroke-width="8.5831" stroke-miterlimit="10" d="M578.59,75.81
			c-5.37-3.11-8.98-8.91-8.98-15.56"/>
		<path fill="none" stroke="#DCECF0" stroke-width="8.5831" stroke-miterlimit="10" d="M569.61,60.24c0-9.92,8.05-17.97,17.97-17.97
			"/>
	</g>
	<g>
		<path fill="#C3DBE6" d="M198.48,62.56h-11.66c-1.27,0-2.3-1.03-2.3-2.3V48.61c0-1.27,1.03-2.3,2.3-2.3h11.66
			c1.27,0,2.3,1.03,2.3,2.3v11.66C200.78,61.53,199.75,62.56,198.48,62.56z"/>
		<g>
			
				<polyline fill="none" stroke="#FFFFFF" stroke-width="2.2181" stroke-linecap="round" stroke-linejoin="round" stroke-miterlimit="10" points="
				188.77,55.28 190.62,57.33 196.54,51.53 			"/>
		</g>
	</g>
	<g>
		<path fill="#C3DBE6" d="M628.24,306.95h-11.66c-1.27,0-2.3-1.03-2.3-2.3V293c0-1.27,1.03-2.3,2.3-2.3h11.66
			c1.27,0,2.3,1.03,2.3,2.3v11.66C630.54,305.92,629.51,306.95,628.24,306.95z"/>
		<g>
			
				<polyline fill="none" stroke="#FFFFFF" stroke-width="2.2181" stroke-linecap="round" stroke-linejoin="round" stroke-miterlimit="10" points="
				618.53,299.67 620.38,301.73 626.29,295.93 			"/>
		</g>
	</g>
	<g>
		<path fill="#C3DBE6" d="M126.03,219.3h-17.37c-1.89,0-3.42-1.53-3.42-3.42v-17.37c0-1.89,1.53-3.42,3.42-3.42h17.37
			c1.89,0,3.42,1.53,3.42,3.42v17.37C129.46,217.77,127.92,219.3,126.03,219.3z"/>
		
			<polyline fill="none" stroke="#FFFFFF" stroke-width="3.3059" stroke-linecap="round" stroke-linejoin="round" stroke-miterlimit="10" points="
			111.56,208.45 114.32,211.52 123.13,202.87 		"/>
	</g>
	<g>
		<rect x="281.91" y="60.99" fill="#C3DBE6" width="6.45" height="6.86"/>
		<rect x="291.15" y="56.84" fill="#C3DBE6" width="6.45" height="11"/>
		<rect x="300.39" y="51.58" fill="#C3DBE6" width="6.45" height="16.26"/>
		<rect x="309.64" y="44.91" fill="#C3DBE6" width="6.45" height="22.94"/>
	</g>
	<g>
		<polygon fill="#FFC29F" points="216.67,445.84 206.65,445.84 205.67,429.62 215.44,429 		"/>
		<polygon fill="#FFC29F" points="163.36,445.48 153.59,445.18 155.34,430.96 164.38,432.35 		"/>
		<g>
			<polygon fill="#2C4C6A" points="172.15,276.94 152.54,439.42 164.55,439.42 193.02,321.19 205.15,439.42 217.01,439.42 
				214.09,276.94 			"/>
		</g>
		<path fill="#FFC29F" d="M243.56,217.15c0,0,1.99-3.82,1.83-5.57c-0.15-1.76-0.5-4.27,1.28-6.97c0.42-0.63,1.58-2.3,1.58-2.3
			s0.95,1.01,0.46,2.1c-0.5,1.09-0.83,2.25-0.83,2.25s0.87-1.58,4.16-2.53c1.54-0.45,7.61-1.99,7.61-1.99
			c0.86,0.01,0.74,1.24-0.95,2.04c0,0,0.75,0.78-0.63,1.56c0,0,0.97,0.73-0.95,1.8c0,0,0.76,0.61-1.22,1.8
			c-1.77,1.06-4.63,2.6-5.27,3.6c-0.85,1.35-2.21,5.97-2.21,5.97L243.56,217.15z"/>
		<g>
			<path fill="#FF9014" d="M180.64,199.72c0,0-12.2,3.57-14.97,4.3c-2.77,0.73,0,18.38,3.79,38.65c3.79,20.27,2.68,34.28,2.68,34.28
				h41.95c0,0,1.74-65.46,0.78-67.68c-1.75-4.02-19.34-9.6-19.34-9.6L180.64,199.72z"/>
		</g>
		<path fill="#FFA980" d="M183.1,185.22c0,0,0.42,10.05-1.33,14.08l2.14,4.06l5.64,3.43l3.57-2.68l1.05-3.06v-15.83H183.1z"/>
		<g>
			<path fill="#2B2F3A" d="M178.63,177.8c-0.49-1.29-0.45-2.77,0.12-4.03c0.47-1.03,1.25-1.88,1.75-2.89
				c0.44-0.88,0.67-1.9,1.37-2.6c0.71-0.7,1.8-0.94,2.77-0.74c0.98,0.19,1.85,0.77,2.55,1.48c0.96,0.97,1.64,2.22,1.95,3.56
				c0.37,1.62,0.18,3.32-0.14,4.95c-0.29,1.48-0.72,3-1.74,4.11c-0.8,0.88-1.94,1.44-3.13,1.53c-1.17,0.1-2.86-0.23-3.52-1.33
				c-0.32-0.54-0.48-1.17-0.76-1.73C179.46,179.34,178.95,178.62,178.63,177.8z"/>
		</g>
		<path fill="#FFC29F" d="M200.09,169.21c0,0,2.43,22.27-4.08,25.48c-4.21,2.08-10.94-0.15-11.96-10.06
			c-1.02-9.92,3.45-14.75,8.65-15.41C197.27,168.62,200.09,169.21,200.09,169.21z"/>
		<path fill="#FFC29F" d="M183.9,180.29c0,0-1.51-1.65-2.96,0c-1.46,1.65,1.21,5.11,3.23,5.28L183.9,180.29z"/>
		<g>
			<path fill="#2B2F3A" d="M187.31,172.39c1.2,0.16,2.43,0.01,3.64,0.17c1.41,0.19,2.73,0.79,4.07,1.28
				c1.99,0.72,4.12,1.19,6.23,0.97c2.11-0.22,4.2-1.2,5.44-2.92c1.26-1.75,1.5-4.19,0.59-6.15c-0.9-1.96-2.91-3.37-5.06-3.55
				c-2.41-0.2-4.67,1.01-6.94,1.84c-2.42,0.89-4.99,1.37-7.57,1.41c-1.06,0.02-2.14-0.03-3.17,0.22c-1.03,0.25-2.03,0.88-2.43,1.87
				c-0.51,1.27,0.32,2.25,1.25,2.96C184.59,171.42,185.76,172.18,187.31,172.39z"/>
		</g>
		<path fill="#FF7800" d="M182.18,198.09c0,0,1.4,4.86,7.36,8.7c-0.19,1.82-5.3,5.52-7.48-0.57c-1.08-3.01-1.42-6.5-1.42-6.5
			L182.18,198.09z"/>
		<path fill="#FF7800" d="M189.54,206.79c4.5-3.09,4.62-8.54,4.62-8.54l1.37,1.42c0,0,1.01,6.07-1.13,8.87
			C192.93,210.46,189.74,207.96,189.54,206.79z"/>
		<path fill="#FFC29F" d="M169.27,277.58c0,0,4.23,6.42,6.05,7.88c1.82,1.46,3.22,4.54,3.22,4.54l-5.38,7.31
			c0,0-3.23-1.07-4.25-4.94c-1.02-3.87-1.99-4.29-3.66-8.01c-1.68-3.72-1.68-3.72-1.68-3.72L169.27,277.58z"/>
		<g>
			<path fill="#FF9014" d="M165.03,204.66c0,0-6.22,0.38-9.14,11.76c-2.92,11.38-6.55,30.09-7.52,38.06
				c-0.41,3.38,17.55,32.97,17.55,32.97s3.57-3.24,6.74-5.95c0,0-9.93-20.74-9.93-28.33c0,0,8.91-24.75,9.2-32.23
				C172.23,213.35,172.27,205.44,165.03,204.66z"/>
		</g>
		<g>
			<path fill="#FF9014" d="M214.87,209.27c2.33,0.35,9.43,16.19,13.95,24.36c4.52,8.17,4.52,8.17,4.52,8.17l10.94-28
				c0,0,3.65-0.58,5.83,2.63c0,0-5.83,37.78-7.29,42.01c-1.46,4.23-5.98,7.29-14-2.77c-8.02-10.06-21.88-29.61-23.04-31.8
				C204.61,221.67,201.4,207.23,214.87,209.27z"/>
		</g>
		<path fill="#21323F" d="M206.65,444.67h9.33c0,0,1.02,0,4.08,3.21c3.06,3.21,11.96,0.15,15.31,6.56h-29.46
			C205.93,454.45,203.15,449.34,206.65,444.67z"/>
		<g>
			<path fill="#21323F" d="M150.21,454.45c-1.12-3.74,1.51-6.47,2.33-9.77c0.51-2.04,10.75-3.3,11.77,1.17
				c0.97,4.28,0.19,8.61,0.19,8.61H150.21z"/>
		</g>
		
			<rect x="168.82" y="291.77" transform="matrix(0.564 -0.8258 0.8258 0.564 -165.0842 273.1973)" fill="#203B53" width="14.73" height="2.33"/>
		<rect x="172.15" y="276.94" fill="#203B53" width="42" height="3.01"/>
		<polygon fill="#203B53" points="193.02,321.19 198.85,299.38 195.01,340.61 		"/>
		<polygon fill="#FF7800" points="214.96,237.12 215.16,221.13 218.87,242.51 		"/>
		<path fill="#FF7800" d="M168.31,236.4l2.72-9.91l-1,19.35C170.03,245.85,168.38,237.39,168.31,236.4z"/>
	</g>
	<g>
		<g>
			<g>
				<g>
					<path fill="#2C4C6A" d="M571.26,453.08l-19.42-85h7.26l15.04,85C574.04,454.9,571.35,454.9,571.26,453.08z"/>
				</g>
				<g>
					<path fill="#2C4C6A" d="M522.19,453.08l-19.42-85h7.26l15.04,85C524.98,454.9,522.28,454.9,522.19,453.08z"/>
				</g>
				<g>
					<path fill="#A2C5D2" d="M454.98,453.08l19.42-85h-7.26l-15.04,85C452.2,454.9,454.89,454.9,454.98,453.08z"/>
				</g>
				<g>
					<path fill="#A2C5D2" d="M578.64,300.78h-39.5c-2.55,0-4.82,1.59-5.69,3.98l-19.31,53.06c-1.44,3.95,1.49,8.13,5.69,8.13h39.5
						c2.55,0,4.82-1.59,5.69-3.98l19.31-53.06C585.77,304.96,582.84,300.78,578.64,300.78z"/>
				</g>
				<g>
					<path fill="#A2C5D2" d="M563.14,370.19H461.65c-1.17,0-2.11-0.95-2.11-2.11l0,0c0-1.17,0.95-2.11,2.11-2.11h101.49
						c1.17,0,2.11,0.95,2.11,2.11l0,0C565.26,369.24,564.31,370.19,563.14,370.19z"/>
				</g>
				<g>
					<path fill="#91B9C4" d="M563.14,370.19h-40.94c-1.17,0-2.11-0.95-2.11-2.11l0,0c0-1.17,0.95-2.11,2.11-2.11h40.94
						c1.17,0,2.11,0.95,2.11,2.11l0,0C565.26,369.24,564.31,370.19,563.14,370.19z"/>
				</g>
				<g>
					<path fill="#A2C5D2" d="M500.84,453.08l19.42-85H513l-15.04,85C498.05,454.9,500.75,454.9,500.84,453.08z"/>
				</g>
			</g>
			<g>
				<path fill="#21323F" d="M533.2,246.05c0,0-5.83,0.31-6.32,6.63c-0.49,6.32,0.65,9.6-2.07,15.92c-2.72,6.32-4.93,14.8,6.45,15.58
					c11.38,0.78,14.87,0.29,18.38,3.01c3.5,2.72,15.44-5.54,11.16-12.83c-4.28-7.29-5.91-11.47-4.16-17.11
					c1.75-5.64-1.93-11.82-8.75-14.49C542.16,240.53,537.47,240.87,533.2,246.05z"/>
			</g>
			<g>
				<path fill="#FF9014" d="M530.24,282.24c0,0,1.59,4.96-2.33,19.25c-3.91,14.27-5.19,19.01-8.88,21.68
					c-2.28,1.65-28.14,1.65-28.14,1.65v-7.29l22.76-2.77c0,0,2.88-14.12,5.79-22.98c1.01-3.07,2.7-11.02,6.29-12.59
					C529.33,277.62,530.24,282.24,530.24,282.24z"/>
			</g>
			<g>
				<g>
					<path fill="#FF9014" d="M559.46,306.65c-1.07,8.06-3.99,27.81-3.99,27.81h-30.24c0,0,0.91-12.08-0.57-18.63
						c-0.27-1.2-0.62-2.23-1.07-2.95c-2.35-3.75-4.45-7.25-4.47-11.11c0-0.93,0.12-1.9,0.39-2.89c1.35-5.05,3.4-16.24,5.93-19.35
						c2.53-3.12,15.14-2.72,15.14-2.72s16.48,0.05,21.42,2.81c1.32,0.74,1.82,2.39,1.93,4.38
						C564.24,290.16,560.26,300.55,559.46,306.65z"/>
				</g>
				<path fill="#FF7800" d="M554.58,309.28c0,0-23.06,1.86-29.93,6.55c-0.27-1.2-0.62-2.23-1.07-2.95
					c-2.35-3.75-4.45-7.25-4.47-11.11c1.53,3.17,5.43,7.39,15.34,7.51C550.4,309.46,554.58,309.28,554.58,309.28z"/>
				<path fill="#FF7800" d="M559.46,306.65c-1.07,8.06-3.99,27.81-3.99,27.81l1.45-46.66l6.99-3.8
					C564.24,290.16,560.26,300.55,559.46,306.65z"/>
			</g>
			<g>
				<path fill="#FFC29F" d="M547.83,318.46c0,0-14.43,0.53-18.95,0.82c0,0-4.12-1.56-6.67-1.75c-3.86-0.29-7.27,3.57-8.29,7.29
					h33.43L547.83,318.46z"/>
				<g>
					<path fill="#FF9014" d="M563.27,281.16c0,0,4.25,7.93,7.02,18.44c2.77,10.5,6.56,21.15,3.06,24.07
						c-3.5,2.92-25.96,1.75-25.96,1.75l-0.58-7.88l17.11-2.77c0,0-6.46-16.19-7.48-19.11c-1.02-2.92-1.79-11.88,1.8-13.45
						C561.83,280.64,563.27,281.16,563.27,281.16z"/>
				</g>
			</g>
			<g>
				<g>
					<polygon fill="#FFC29F" points="480.85,446.15 475.7,446.15 475.02,438.54 481.31,437.92 					"/>
					<g>
						<path fill="#192730" d="M480.85,446.15c0,0,1.9,1.98,1.27,6.36c-0.3,2.07-4.82,1.94-12.45,1.94h-7.59
							c-1.29,0-1.86-1.6-0.88-2.44c0.46-0.39,1.11-0.76,2.02-1.04c8.58-2.66,12.47-4.82,12.47-4.82H480.85z"/>
					</g>
				</g>
				<path fill="#203B53" d="M541.87,334.46c-0.05,2.63,5.98,11.53,4.78,20.2c-0.78,5.69-5.67,11.3-17.06,11.3
					c-15.56,0-40.36-0.17-44.41,0c-3.22,0.13-4.75,0.2-2.86,6.27c4.47,14.37,0.69,38.83-0.48,71.94h-6.8c0,0-6.03-34.36-8.53-50.98
					c-3.89-25.86-9.8-36.01,1.46-41.37c11.9-5.67,57.3-17.36,57.3-17.36H541.87z"/>
				<g>
					<polygon fill="#FFC29F" points="495.51,446.15 490.36,446.15 489.69,438.54 495.98,437.92 					"/>
					<g>
						<path fill="#21323F" d="M495.51,446.15c0,0,1.9,1.98,1.27,6.36c-0.3,2.07-4.82,1.94-12.45,1.94h-7.59
							c-1.29,0-1.86-1.6-0.88-2.44c0.46-0.39,1.11-0.76,2.02-1.04c8.58-2.66,12.47-4.82,12.47-4.82H495.51z"/>
					</g>
				</g>
				<g>
					<path fill="#2C4C6A" d="M555.46,334.46c-0.05,2.63,5.98,11.53,4.78,20.2c-0.78,5.69-5.67,11.3-17.06,11.3
						c-15.56,0-40.26,0-44.41,0c-3.22,0-4.75,0.2-2.86,6.27c4.47,14.37,2.47,39.12,0.24,71.94h-6.81c0,0-6.73-34.36-9.23-50.98
						c-3.89-25.86-9.8-36.01,1.46-41.37c11.9-5.67,53.83-17.36,53.83-17.36H555.46z"/>
				</g>
			</g>
			<g>
				<g>
					<path fill="#FFC29F" d="M532.32,277.16c0,0-0.09,6.44,4.28,10.14c0,0,9.28-4.33,12.63-10.12
						C549.23,277.17,540.52,276.22,532.32,277.16z"/>
					<path fill="#FFC29F" d="M534.21,276.97c0,0,2.29-0.23,2.29-2.92c0-2.68,0.27-7.79,0.27-7.79l8.61,0.73c0,0-0.73,8.43,0.66,9.98
						c1.39,1.55,1.39,1.55,1.39,1.55S535.59,280.53,534.21,276.97z"/>
				</g>
				<path fill="#FFA980" d="M536.5,272.98c0,0,5.66,0.88,8.68-1.53l0.19-4.45l-8.87,1.92V272.98z"/>
				<path fill="#FFC29F" d="M531.49,249.2c0,0-7.58,20.79,3.06,23.13c10.65,2.33,12.84-8.75,12.84-8.75s2.75-0.65,3.18-3.04
					c0.41-2.31-2.79-1.43-2.79-1.43s2.83-8.55-3.6-11.42C537.43,244.65,532.81,246.23,531.49,249.2z"/>
				<g>
					<path fill="#21323F" d="M532.51,246.65c0,0,2.44,11.67,15.27,12.45c0,0,3.31-8.26,1.07-11.77
						C546.61,243.83,536.3,241.64,532.51,246.65z"/>
				</g>
			</g>
		</g>
		<g>
			<g>
				<path fill="#21323F" d="M520.79,322.49h-50.68l-12.14-33.36c-0.52-1.42,0.53-2.91,2.04-2.91h46.06c0.91,0,1.73,0.57,2.04,1.43
					L520.79,322.49z"/>
			</g>
			<g>
				<path fill="#21323F" d="M550.92,325.64h-50.37c-0.87,0-1.58-0.71-1.58-1.58l0,0c0-0.87,0.71-1.58,1.58-1.58h50.37
					c0.87,0,1.58,0.71,1.58,1.58l0,0C552.49,324.94,551.79,325.64,550.92,325.64z"/>
			</g>
			<g>
				<path fill="#21323F" d="M520.63,325.64h-50.37c-0.87,0-1.58-0.71-1.58-1.58l0,0c0-0.87,0.71-1.58,1.58-1.58h50.37
					c0.87,0,1.58,0.71,1.58,1.58l0,0C522.21,324.94,521.5,325.64,520.63,325.64z"/>
			</g>
		</g>
	</g>
	<g>
		<path fill="#2C4C6A" d="M640.31,452.45l-28.3-123.86h10.58l21.91,123.86C644.37,455.11,640.44,455.11,640.31,452.45z"/>
		<path fill="#2C4C6A" d="M354.63,452.45l-28.3-123.86h10.58l21.91,123.86C358.69,455.11,354.76,455.11,354.63,452.45z"/>
		<path fill="#C3DBE6" d="M242.73,452.45l28.3-123.86h-10.58l-21.91,123.86C238.67,455.11,242.6,455.11,242.73,452.45z"/>
		<path fill="#C3DBE6" d="M514.54,452.45l28.3-123.86h-10.58l-21.91,123.86C510.48,455.11,514.41,455.11,514.54,452.45z"/>
		<path fill="#A2C5D2" d="M241.09,331.54h403.68c1.41,0,2.55-1.14,2.55-2.55v-0.8c0-1.41-1.14-2.55-2.55-2.55H241.09
			c-1.41,0-2.55,1.14-2.55,2.55v0.8C238.54,330.4,239.68,331.54,241.09,331.54z"/>
		<path fill="#91B9C4" d="M554.55,331.54h89.81c1.63,0,2.95-1.32,2.95-2.95l0,0c0-1.63-1.32-2.95-2.95-2.95h-89.81
			c-1.63,0-2.95,1.32-2.95,2.95l0,0C551.6,330.22,552.92,331.54,554.55,331.54z"/>
	</g>
	<g>
		<g>
			<path fill="#21323F" d="M326.95,322.49h50.68l12.14-33.36c0.52-1.42-0.53-2.91-2.04-2.91h-46.06c-0.91,0-1.73,0.57-2.04,1.43
				L326.95,322.49z"/>
		</g>
		<g>
			<path fill="#21323F" d="M296.82,325.64h50.37c0.87,0,1.58-0.71,1.58-1.58l0,0c0-0.87-0.71-1.58-1.58-1.58h-50.37
				c-0.87,0-1.58,0.71-1.58,1.58l0,0C295.25,324.94,295.95,325.64,296.82,325.64z"/>
		</g>
		<g>
			<path fill="#21323F" d="M327.1,325.64h50.37c0.87,0,1.58-0.71,1.58-1.58l0,0c0-0.87-0.71-1.58-1.58-1.58H327.1
				c-0.87,0-1.58,0.71-1.58,1.58l0,0C325.53,324.94,326.23,325.64,327.1,325.64z"/>
		</g>
	</g>
</g>
</svg>
