<?xml version="1.0" encoding="utf-8"?>
<!-- Generator: Adobe Illustrator 23.0.5, SVG Export Plug-In . SVG Version: 6.00 Build 0)  -->
<svg version="1.1" id="Layer_1" xmlns="http://www.w3.org/2000/svg" xmlns:xlink="http://www.w3.org/1999/xlink" x="0px" y="0px"
	 viewBox="0 0 750 500" enable-background="new 0 0 750 500" xml:space="preserve">
<g id="OBJECTS">
	<g>
		<g>
			<defs>
				<rect id="SVGID_1_" width="750" height="500"/>
			</defs>
			<clipPath id="SVGID_2_">
				<use xlink:href="#SVGID_1_"  overflow="visible"/>
			</clipPath>
			<g opacity="0.4" clip-path="url(#SVGID_2_)">
				<g>
					<path fill="#6666CC" d="M71.95,413.92c0,0-19.69-12.2-34.03-28.67c-14.33-16.47-42.75-43.67-58.22-50.42
						c-5.51,14.48-13.38,31.48,3.24,49.61c16.63,18.13,25.3,13.92,34,30.63c8.7,16.72,37.21,39.12,51.35,46.64l33.92-11.08
						L71.95,413.92z"/>
					<path fill="#7C7CF7" d="M-5.48,352.29c2.88,6.69,4.16,18.14,9.6,23.03c14.47,13.01,40.12,17.5,48.12,23.94l0,0
						c-4.78-4.08-9.81-8.83-14.31-14c-14.33-16.47-42.75-43.67-58.22-50.42C-14.86,337.7-8.36,345.59-5.48,352.29z"/>
					<path fill="none" stroke="#263631" stroke-width="0.5391" stroke-miterlimit="10" d="M-15.79,343.95
						c6.11,6.71,11.26,28.19,22,40.84s14.19,15.02,26.98,23.43s35.12,27.65,40.87,42"/>
					<path fill="#6666CC" d="M81.67,272.1c0,0,6.01,13.37,7.96,32.85c1.8,18.05-1.31,21.65,2.36,42.16
						c3.67,20.5,7.23,26.4,11.01,50.31c3.79,23.91,6.33,53.33,6.33,53.33l39.1,0.58c0,0-2.89-7.91-3.02-27.31s3.33-44.45-3.07-68.68
						C135.95,331.09,119.23,285.73,81.67,272.1z"/>
					<path fill="none" stroke="#263631" stroke-width="0.5391" stroke-miterlimit="10" d="M93.9,284.93c0,0,20.57,20.37,24.6,50.25
						s-0.77,85.61,2.98,100.71"/>
					<g>
						<path fill="#7C7CF7" d="M-2.88,277.63c0,0,18.46,6.42,30.69,8.01s27.12,3.21,34.62,10.63c7.51,7.42,7.25,25.13,17.43,30.9
							s27.8,23.84,33.55,38.21c5.75,14.38,8.99,41.98,9.15,52.94c0.17,10.97,6.22,27.64,9.12,32.75l-38.42-0.57
							c0,0-27.47-24.02-34.48-42.68s-4.73-38.58-12.18-49.66s-20.76-25.97-31.22-39.27C1.08,300.7-2.88,277.63-2.88,277.63z"/>
						<path fill="#6666CC" d="M46.61,358.17c1.77,2.63,2.98,5.77,3.91,9.26l0.01,0.01c-2.36-25.27-7.11-39.99-16.26-48.27
							c-9.15-8.27-34.34-29.66-37.15-41.55c0,0,3.96,23.08,18.27,41.27C25.85,332.19,39.15,347.09,46.61,358.17z"/>
						<path fill="none" stroke="#263631" stroke-width="0.5391" stroke-miterlimit="10" d="M9.57,286.77
							c12.44,10.02,27.58,16.66,38.01,28.08c10.43,11.43,24.23,34.74,32.7,50.87c15.4,29.29,26.44,71.48,36.5,85.13"/>
					</g>
				</g>
				<g>
					<path fill="#6666CC" d="M688.09,412.71c0,0,19.62-11.45,34.09-27.21c14.47-15.77,43.02-41.7,58.36-47.91
						c5.03,14.34,12.3,31.19-4.46,48.53s-25.15,12.99-34.11,29.14c-8.95,16.16-18.57,26.24-32.61,33.25l-51.87-0.6L688.09,412.71z"
						/>
					<path fill="#7C7CF7" d="M765.56,354.3c-3,6.49-4.54,17.67-10,22.32c-14.51,12.37-39.77,16.11-47.78,22.22l0,0
						c4.79-3.88,9.84-8.4,14.39-13.36c14.47-15.77,43.02-41.7,58.36-47.91C775.13,340.25,768.56,347.82,765.56,354.3z"/>
					<path fill="none" stroke="#263631" stroke-width="0.671" stroke-miterlimit="10" d="M775.88,346.4
						c-6.16,6.41-11.76,27.33-22.62,39.45c-10.86,12.12-14.29,14.35-27.05,22.27s-35.13,26.19-41.14,40.11"/>
					<path fill="#6666CC" d="M682.22,273.46c0,0-6.24,12.95-8.65,31.99c-2.24,17.64,0.73,21.26-3.4,41.25
						c-4.13,20-7.77,25.69-12.09,49.02c-4.33,23.34-7.58,52.1-7.58,52.1l-38.34-0.44c0,0,3.04-7.68,3.66-26.69
						s-2.12-43.65,4.78-67.23C627.5,329.88,645.06,285.85,682.22,273.46z"/>
					<path fill="none" stroke="#263631" stroke-width="0.671" stroke-miterlimit="10" d="M669.91,285.72c0,0-20.68,19.43-25.4,48.61
						c-4.72,29.18-1.46,83.92-5.52,98.62"/>
					<g>
						<path fill="#7C7CF7" d="M764.94,281.07c0,0-18.25,5.82-30.28,7.06s-26.66,2.45-34.21,9.53c-7.55,7.08-7.75,24.44-17.88,29.83
							c-10.13,5.39-27.86,22.64-33.87,36.58s-9.89,40.91-10.34,51.65s-6.81,26.93-9.78,31.86l37.66,0.43
							c0,0,27.54-22.83,34.89-40.94c7.35-18.1,5.63-37.69,13.22-48.35c7.59-10.66,21.01-24.92,31.61-37.68
							C760.46,303.58,764.94,281.07,764.94,281.07z"/>
						<path fill="#6666CC" d="M714.36,358.72c-1.8,2.53-3.07,5.58-4.07,8.98l-0.01,0.01c2.96-24.71,8-39.01,17.18-46.88
							s34.42-28.18,37.48-39.76c0,0-4.48,22.51-18.97,39.97C735.37,333.8,721.96,348.06,714.36,358.72z"/>
						<path fill="none" stroke="#263631" stroke-width="0.671" stroke-miterlimit="10" d="M752.5,289.71
							c-12.45,9.5-27.46,15.61-37.98,26.54c-10.52,10.93-24.64,33.42-33.36,49.01c-15.85,28.31-27.75,69.37-37.97,82.48"/>
					</g>
				</g>
				<rect x="-7.6" y="433.37" fill="#7C7CF7" width="757.6" height="66.63"/>
			</g>
		</g>
		<g>
			<defs>
				<rect id="SVGID_3_" width="750" height="500"/>
			</defs>
			<clipPath id="SVGID_4_">
				<use xlink:href="#SVGID_3_"  overflow="visible"/>
			</clipPath>
			<g clip-path="url(#SVGID_4_)">
				<g>
					<rect x="315.87" y="327.48" fill="#6666CC" width="124.75" height="125.77"/>
					<rect x="301.29" y="327.48" fill="#4545A0" width="14.59" height="125.77"/>
					<g>
						<rect x="156.99" y="268.72" fill="#6666CC" width="124.75" height="184.53"/>
						<rect x="141.88" y="268.72" fill="#4545A0" width="15.12" height="184.53"/>
						<g>
							<polygon fill="#EDBC9C" points="246.99,262.43 261.01,273.36 254.42,282.09 237.53,273.21 							"/>
							<path fill="#37316E" d="M194.16,231.73c0.79,0.31,52.98-11.65,74.08-16.51c5.54-1.28,11.37-0.11,15.99,3.21l0.24,0.17
								c6.78,4.87,9.79,13.47,7.5,21.5l0,0c-1.45,5.1-4.88,9.4-9.52,11.95c-14.14,7.75-44.05,24.06-44.92,23.67
								c-1.14-0.51-37.39-3.19-37.39-3.19l23.76-16.88L194.16,231.73L194.16,231.73z"/>
							<path fill="#37316E" d="M203.35,250.43l4.56,18.03l-0.93,5.38l0,0c-10.33,9.46-26.09,9.77-36.79,0.71l0,0
								c-6.5-5.51-10.05-13.73-9.61-22.24l0.97-18.56L203.35,250.43z"/>
							<g>
								<path fill="#EDBC9C" d="M268.09,164.93c0,0,9.9,25.16,12.42,32.69c2.52,7.53,2.28,21.09-16.88,17.29
									c-19.15-3.8-14.77-52.14-14.77-52.14L268.09,164.93z"/>
								<g>
									<path fill="#37316E" d="M226.2,93.45c-9.89-1.26-19.41,4.41-26.58,11.34c-7.17,6.92-12.93,15.29-20.67,21.57
										c-10.88,8.84-25.45,13-39.36,11.22c-0.92,12.51,0.72,26.2,9.35,35.31c7.54,7.96,18.92,10.86,29.78,12.31
										c6.88,0.91,13.95,1.38,20.68-0.32c10.6-2.68,19.37-10.69,24.57-20.31c5.2-9.62,7.13-20.73,7.29-31.66
										c0.04-3-0.04-5.99-0.25-8.98"/>
									<path fill="#37316E" d="M236.54,96.48c-0.95,0.09-3.89-2.17-4.89-2.55c-3.99-1.48-8.33-1.83-12.43-0.57
										c-10.88,3.33-17.59,14.6-15.94,25.49c0.72,4.75,3.08,9.42,7.08,12.07c3.5,2.32,7.86,2.88,12.05,3.08
										c2.8,0.13,5.63,0.13,8.38-0.43c8.26-1.69,15.27-9.25,16.38-17.63C247.97,110.07,244.61,95.72,236.54,96.48z"/>
									<path fill="#EDBC9C" d="M237.47,144.93c-4.32-1.07-7.86-4.78-8.75-9.14c4.16,0.01,7.97-2.92,9.78-6.66
										c1.81-3.75,1.84-8.15,0.92-12.21c-0.92-4.05-2.74-7.84-4.55-11.59c-6.14,1.27-12.28,4.15-16.22,9.03
										c-3.94,4.87-3.28,11.63-6.1,17.39c-0.19,0.4-2.9,6.4-4.54,8.91c-1.64,2.51-3.96,4.71-6.83,5.57
										c5.15,4.18,11.84,6.43,18.46,6.18C226.27,152.17,232.65,149.49,237.47,144.93z"/>
									<path fill="#FEFDFF" d="M168.83,161.1l15.55,18l0.53,46.02l64.57,1.46l7.69-43.89l13.08-18.43c0,0-6.93-19.55-40.01-20.22
										C199.98,143.43,175.64,143.26,168.83,161.1z"/>
									<path fill="#EDBC9C" d="M169.89,162.86c0,0-11.48,36.61-14.27,47.15c-2.79,10.54-1.13,19.58,21.8,18.39
										s27.09-4.42,37.81-1.42c10.72,2.99,14.23-2.56,14.45-7.12s-0.11-5.24-0.11-5.24s-9.53-0.37-22.7-0.05
										c-13.17,0.32-30.98-1.87-30.98-1.87l8.34-33.46L169.89,162.86z"/>
									<path fill="#EDBC9C" d="M216.94,119.56c-0.47,2.1-2.08,3.52-3.61,3.18s-2.39-2.31-1.92-4.41s2.08-3.52,3.61-3.18
										C216.54,115.49,217.4,117.46,216.94,119.56z"/>
									<path fill="#7C7CF7" d="M190.1,220.29l28.12,1.35l11.14-43.3l58.22,2.8l-11.5,50.84l-81.98-3.94l-5.03-5.58
										C188.3,221.6,188.94,220.23,190.1,220.29z"/>
									<ellipse fill="#ADB9BE" cx="259.94" cy="196.72" rx="7.47" ry="7.47"/>
								</g>
							</g>
							<g>
								<path fill="#37316E" d="M246.55,284.7l10.76-17.3l-56.95-48.32c-3.49-3.16-7.85-5.19-12.52-5.85l0,0
									c-14.48-2.02-27.27,9.51-26.76,24.12l0.4,11.22l38.2,14.33L246.55,284.7z"/>
							</g>
							<g>
								<g>
									<path fill="#656AC9" d="M206.79,224.82c6.3,5.7,12.84,11.12,19.4,16.53c6.76,5.58,13.53,11.16,20.24,16.81
										c1.81,1.53,3.61,3.06,5.41,4.61c1.75,1.51,3.45,3.1,5.25,4.55c0.14,0.11,0.33-0.07,0.2-0.2c-1.44-1.43-3.03-2.72-4.56-4.05
										c-1.59-1.38-3.19-2.75-4.8-4.11c-3.32-2.82-6.67-5.6-10.04-8.37c-6.77-5.57-13.57-11.11-20.27-16.77
										c-3.58-3.02-7.13-6.07-10.65-9.16C206.85,224.55,206.68,224.72,206.79,224.82L206.79,224.82z"/>
								</g>
							</g>
							<g>
								<g>
									<path fill="#656AC9" d="M203.94,263.22c-8.12-3.21-16.46-6.38-23.32-11.92c-1.88-1.52-3.6-3.21-5.18-5.03
										c-0.07-0.08-0.17,0.03-0.11,0.11c5.42,6.88,13.59,11.03,21.5,14.36c2.32,0.98,4.67,1.88,7.03,2.76
										C204.03,263.55,204.1,263.28,203.94,263.22L203.94,263.22z"/>
								</g>
							</g>
							<g>
								<g>
									<path fill="#656AC9" d="M259.8,231.15c-3.74,3.1-7.47,6.22-11.19,9.35c-1.85,1.56-3.7,3.11-5.55,4.66
										c-1.87,1.57-3.81,3.07-5.62,4.71c-0.12,0.11,0.04,0.34,0.18,0.23c1.89-1.43,3.66-3.03,5.48-4.56
										c1.88-1.58,3.76-3.16,5.64-4.74c3.75-3.15,7.49-6.32,11.25-9.46C260.13,231.23,259.94,231.04,259.8,231.15L259.8,231.15z"
										/>
								</g>
							</g>
							<path fill="#FDFBF2" d="M214.48,282.33c3.42,2.29,6.99,4.64,11.07,5.23c4.07,0.59,11.59-0.03,13.1-3.86
								c0.98-2.48,0.44-5.33-0.74-7.72c-1.63-3.31-7.45-7.2-11.09-7.81c-3.37-0.56-6.79,0.74-10.2,0.55
								c-3.89-0.22-7.45-2.36-11.32-2.84c-0.58-0.07-1.19-0.11-1.75,0.07c-0.67,0.21-1.22,0.69-1.65,1.24
								c-1.82,2.38-1.25,5.99,0.65,8.31C205.45,279.04,210.74,279.83,214.48,282.33z"/>
							<path fill="#FDFBF2" d="M260.45,272.05c0,0-5.39,7.22-7.61,9.74c0,0,3.89,2.01,6.76,3.56s10.84,15.78,21.71,16.91
								s8.52,0.91,11.18-1.99s-8.49-15.76-15.5-18.53C269.99,278.97,263.02,275.41,260.45,272.05z"/>
						</g>
					</g>
					<g>
						<rect x="475.3" y="309.92" fill="#6666CC" width="124.75" height="143.33"/>
						<rect x="456.22" y="309.92" fill="#4545A0" width="19.08" height="143.33"/>
						<g>
							<path fill="#EDBC9C" d="M517.05,221.37c3.91-1.39,7.83,2.03,6.97,6.09c-2.35,11.08-6.18,28.95-7.8,35.44
								c-2.41,9.7-7.73,16.22-25.62,5.15c-17.89-11.07-19.8-15.5-29.73-17.83c-3.56-0.84-7.75-2.58-8.99-6.37
								c-0.4-1.22-0.42-2.53-0.15-3.77c0.12-0.55,0.57-1.23,0.62-1.75c0.1-1.15-0.98-2.08-1.78-2.76c-2.14-1.84-4.29-3.68-6.43-5.51
								c-0.89-0.77-1.37-2.08,0.25-1.9c1.4,0.15,3.21,1.48,4.43,2.15c2.76,1.52,5.4,3.24,8.16,4.74c4.1,2.23,10.81,5.89,14.86,8.21
								c0.4,0.23,0.81,0.47,1.21,0.7c10.43,6.07,25.7,12.17,25.7,12.17l5.25-20.47C505.71,229.02,510.6,223.67,517.05,221.37
								L517.05,221.37z"/>
							<g>
								<polygon fill="#EDBC9C" points="540.33,379.09 538.56,412.11 534.08,420.88 525,412.11 523.43,374.96 								"/>
								<path fill="#37316E" d="M538.5,412.21c0,0,3.02,9.67,2.42,11.48c-0.6,1.81-28.6,19.13-28.6,19.13s-2.01-3.22-1.41-6.85
									s12.81-9.48,13.7-23.77c0.43-6.93,8.85-4.21,7.91,1.21C531.78,417.68,538.5,412.21,538.5,412.21z"/>
							</g>
							<g>
								<polygon fill="#EDBC9C" points="509.24,374.34 507.48,407.36 502.99,416.13 493.91,407.36 492.34,370.21 								"/>
								<path fill="#37316E" d="M507.42,407.46c0,0,3.02,9.67,2.42,11.48c-0.6,1.81-28.6,19.13-28.6,19.13s-2.01-3.22-1.41-6.85
									s12.81-9.48,13.7-23.77c0.43-6.93,8.85-4.21,7.91,1.21C500.7,412.92,507.42,407.46,507.42,407.46z"/>
							</g>
							<path fill="#393985" d="M566.29,279.66c0,0,11.15,30.86-0.38,37.33c-11.53,6.48-40.75,3.43-40.75,3.43l-1.15,66.82
								l-34.71,1.16l-2.2-73.69c0,0-1.67-19.23,17.3-23.24c27.16-5.75,24.75-12.72,24.75-12.72L566.29,279.66z"/>
							<path fill="#4545A0" d="M589.52,279.67c0,0,11.15,31.14-0.38,37.67c-11.53,6.54-40.75,3.46-40.75,3.46l-4.31,70.79
								l-26.45,0.58l-7.3-77.14c0,0-2.05-22.12,17.3-23.45c23-1.58,24.4-11.43,24.4-11.43L589.52,279.67z"/>
							<path fill="#EDBC9C" d="M537.43,205.44c0.85,0.88,4.77-3.1,5.36-3.67c1.41-1.39,2.94-3.5,3.09-5.53
								c-4.3,0.48-6.5-3.45-7.31-7c-0.36-1.58-0.68-3.17-0.89-4.78c-0.52-4.07-0.2-7.93,0.74-11.86c0.18-0.74,1.05-7.55,2.29-7.23
								c5.93,1.53,12.42,5.65,16.04,10.59s2.66,11.5,5.13,17.26c0.17,0.39,2.53,6.38,4.01,8.91s3.64,4.78,6.4,5.76
								c-5.22,3.84-11.85,5.72-18.3,5.17C547.54,212.49,541.91,210.11,537.43,205.44z"/>
							<path fill="#FEFDFF" d="M502.23,233.06l16,6.29l5.11,40.5l67.77,1.51l-6.09-42.09l15.02-15.8
								c-3.63-11.05-14.71-15.17-29.9-16.89h-0.02c-4.97-0.58-10.39-0.9-16.13-1.12c-0.15,0-0.33,0.03-0.54,0.09
								c0,0.01-0.01,0.01-0.03,0.01c-0.91,0.27-2.31,1.09-3.72,1.94c-1.58,0.94-3.17,1.91-4.15,2.15c-0.01,0-0.03,0.01-0.04,0.01
								c-0.9,0.46-1.42,0.73-1.42,0.73c-0.39-1.28-0.49-3.33-0.48-5.24c-1.12,0-2.96,0.01-4,0.03c-0.39,0.01-0.78,0.03-1.16,0.04
								C509.6,206.6,502.23,233.06,502.23,233.06z"/>
							<path fill="#F2D25E" d="M586.53,266.38h-25.35l-8.15-39.42h-52.48l8.15,46.23h73.91l4.76-4.81
								C588.1,267.64,587.58,266.38,586.53,266.38z"/>
							<path fill="#EDBC9C" d="M599.11,224.38c0,0,8.77,34.68,10.87,44.45c2.09,9.77,0.17,17.97-20.76,15.87
								c-20.93-2.09-24.59-5.23-34.54-2.97c-9.94,2.27-12.91-2.97-12.91-7.15c0-4.19,0.33-4.79,0.33-4.79s8.74,0.08,20.78,0.95
								c12.04,0.87,28.43-0.35,28.43-0.35l-6.48-31.42L599.11,224.38z"/>
							<path opacity="0.7" fill="#FF903E" stroke="#F2D25E" stroke-miterlimit="10" enable-background="new    " d="M521.71,248.23
								c0,2.38,3.01,4.3,6.73,4.3s6.73-1.93,6.73-4.3c0-2.38-3.01-4.3-6.73-4.3C524.72,243.93,521.71,245.86,521.71,248.23z"/>
							<path fill="#EDBC9C" d="M558.17,181.11c0.36,2.07,1.87,3.53,3.37,3.27c1.51-0.26,2.44-2.15,2.08-4.21
								c-0.36-2.07-1.87-3.53-3.37-3.27C558.75,177.16,557.81,179.05,558.17,181.11z"/>
							<path id="XMLID_29_" fill="#37316E" d="M559.09,182.33c0,0-5.29,6.79-5.12-4.05c0.01-0.36-0.36-0.64-0.74-0.68
								c-1.43-0.18-4.74-1.3-4.54-7.84c0.02-0.55-0.46-1-1.04-0.98c-2.01,0.07-6.14,0.24-7.02,0.48c0,0-0.65,0.11-1.29,0.34
								c-0.21,0.08-0.87,2.89-0.98,3.24c-0.14,0.45-0.63,3.26-0.63,3.26s-1.82-0.56-1.83-1.73s0.49-3.73,0.25-4.31
								s-2.02-1-2.31-2.34c-0.66-3.05-1.97-14.93,8.41-9.31c1.36,0.73,6.49,0.91,9.46,0.61c4.14-0.42,22.57,0.77,20.36,18.04
								c-1.31,10.25-2.96,13.64-5.69,15.65c-0.46,0.34-2.72,2.53-3.12,2.74c-1.2,0.64-2.23,0.34-2.23,0.34s-0.57-1.22-0.61-2.8
								C560.33,189.51,560.59,183.54,559.09,182.33z"/>
							<path id="XMLID_2_" fill="#EDBC9C" d="M557.26,181.67c0,0,0.4-4.16,3.79-3.58c4.56,0.78,4.54,11.96-5,12.13
								C556.05,190.22,556.05,185.79,557.26,181.67z"/>
							<path fill="#6666CC" d="M544.1,210.4l3.02,7.48c0,0,12.05-6.57,14.65-7.93c2.49-1.3,7.23-2.97,8.36-3.38h0.02
								c0.15-0.06,0.24-0.09,0.24-0.09c-2.05-3.6-4.99-7.42-4.99-7.42c-2.72,1.61-7.56,4.2-11.93,6.48c0,0.01-0.01,0.01-0.03,0.01
								c-1.3,0.69-2.57,1.34-3.72,1.94c-1.69,0.88-3.14,1.63-4.15,2.15c-0.01,0-0.03,0.01-0.04,0.01
								C544.62,210.14,544.1,210.4,544.1,210.4z"/>
							<path fill="#6666CC" d="M538.44,216.45c1.51-3.05,3.55-4.36,5.66-6.05c-0.39-1.28-0.49-3.33-0.48-5.24
								c0.02-2.48,0.21-4.72,0.21-4.72c-1.84,0.64-5.3,4.54-5.3,4.54c-0.03,0.09-0.04,0.16-0.07,0.25
								C536.97,210.33,538.44,216.45,538.44,216.45z"/>
							<polygon fill="#FEFDFF" points="600.04,223.48 605.41,244.11 586.81,251.81 584.84,238.98 598.14,219.26 							"/>
						</g>
					</g>
				</g>
				
					<path fill="none" stroke="#EFC27A" stroke-width="4" stroke-linecap="round" stroke-linejoin="round" stroke-miterlimit="10" stroke-dasharray="0.3,10" d="
					M373.94,218.34"/>
				
					<path fill="none" stroke="#EFC27A" stroke-width="4" stroke-linecap="round" stroke-linejoin="round" stroke-miterlimit="10" stroke-dasharray="0.3,10" d="
					M373.94,188.04"/>
			</g>
		</g>
		<g>
			<defs>
				<rect id="SVGID_5_" width="750" height="500"/>
			</defs>
			<clipPath id="SVGID_6_">
				<use xlink:href="#SVGID_5_"  overflow="visible"/>
			</clipPath>
			<g clip-path="url(#SVGID_6_)">
				<path opacity="0.45" fill="#A0AFF7" enable-background="new    " d="M130.35,75.21c0,0,0.14-7.16,6.43-8.37
					c6.29-1.22,12.99-0.64,14.95-9.1c1.96-8.46,11.41-11.4,14.87-5.07c3.45,6.33,10.48,12.74,16.85,7.49
					c6.37-5.24,13.13-7.79,17.5-2.34c4.37,5.46,11.34,14.54,18.13,10.65s16.06,2.56,16.89,5.71L130.35,75.21z"/>
				<path opacity="0.45" fill="#A0AFF7" enable-background="new    " d="M614.62,192.87c0,0,0.2-6.29,5.74-7.3
					c5.54-1.01,11.43-0.43,13.24-7.85c1.81-7.42,10.15-9.91,13.12-4.31s9.09,11.31,14.74,6.76c5.65-4.54,11.63-6.72,15.41-1.87
					c3.78,4.84,9.82,12.91,15.83,9.55c6.01-3.35,14.09,2.41,14.79,5.19L614.62,192.87z"/>
				<path opacity="0.45" fill="#A0AFF7" enable-background="new    " d="M42.5,231.44c0,0,0-6.17,5.4-7.32
					c5.4-1.16,11.18-0.77,12.72-8.1c1.54-7.32,9.64-10.02,12.72-4.63c3.08,5.4,9.25,10.79,14.65,6.17
					c5.4-4.63,11.18-6.94,15.03-2.31s10.02,12.34,15.8,8.87s13.88,1.93,14.65,4.63L42.5,231.44z"/>
			</g>
		</g>
		<g>
			<defs>
				<rect id="SVGID_7_" width="750" height="500"/>
			</defs>
			<clipPath id="SVGID_8_">
				<use xlink:href="#SVGID_7_"  overflow="visible"/>
			</clipPath>
			<g clip-path="url(#SVGID_8_)">
				
					<path opacity="0.7" fill="none" stroke="#FFFFFF" stroke-width="2.5433" stroke-linecap="round" stroke-linejoin="round" stroke-miterlimit="10" enable-background="new    " d="
					M471.01,43.93c0,3.1-2.51,5.62-5.62,5.62c-3.1,0-5.62-2.51-5.62-5.62c0-3.1,2.51-5.62,5.62-5.62
					C468.49,38.32,471.01,40.83,471.01,43.93z"/>
				
					<path opacity="0.7" fill="none" stroke="#FFFFFF" stroke-width="2.5433" stroke-linecap="round" stroke-linejoin="round" stroke-miterlimit="10" enable-background="new    " d="
					M57.85,92.46c0,3.1-2.51,5.62-5.62,5.62c-3.1,0-5.62-2.51-5.62-5.62c0-3.1,2.51-5.62,5.62-5.62
					C55.34,86.85,57.85,89.36,57.85,92.46z"/>
				
					<path opacity="0.7" fill="none" stroke="#FFFFFF" stroke-width="2.5433" stroke-linecap="round" stroke-linejoin="round" stroke-miterlimit="10" enable-background="new    " d="
					M323.46,238.64c0,3.1-2.51,5.62-5.62,5.62c-3.1,0-5.62-2.51-5.62-5.62c0-3.1,2.51-5.62,5.62-5.62
					C320.94,233.02,323.46,235.53,323.46,238.64z"/>
				
					<path opacity="0.7" fill="none" stroke="#FFFFFF" stroke-width="2.5433" stroke-linecap="round" stroke-linejoin="round" stroke-miterlimit="10" enable-background="new    " d="
					M663.11,80.5c0,3.1-2.51,5.62-5.62,5.62c-3.1,0-5.62-2.51-5.62-5.62c0-3.1,2.51-5.62,5.62-5.62
					C660.6,74.89,663.11,77.4,663.11,80.5z"/>
				
					<path fill="none" stroke="#FFFFFF" stroke-width="0.6447" stroke-linecap="round" stroke-linejoin="round" stroke-miterlimit="10" d="
					M599.5,146.72c0,3.38-2.74,6.13-6.13,6.13c-3.38,0-6.13-2.74-6.13-6.13c0-3.38,2.74-6.13,6.13-6.13S599.5,143.34,599.5,146.72z"
					/>
				
					<path fill="none" stroke="#FFFFFF" stroke-width="0.7449" stroke-linecap="round" stroke-linejoin="round" stroke-miterlimit="10" d="
					M95.76,181.85c0,2.45-1.99,4.44-4.44,4.44c-2.45,0-4.44-1.99-4.44-4.44s1.99-4.44,4.44-4.44
					C93.77,177.41,95.76,179.4,95.76,181.85z"/>
				
					<path fill="none" stroke="#FFFFFF" stroke-width="0.7449" stroke-linecap="round" stroke-linejoin="round" stroke-miterlimit="10" d="
					M332.41,84.51c0,2.45-1.99,4.44-4.44,4.44s-4.44-1.99-4.44-4.44c0-2.45,1.99-4.44,4.44-4.44
					C330.42,80.08,332.41,82.06,332.41,84.51z"/>
				
					<path fill="none" stroke="#FFFFFF" stroke-width="0.7449" stroke-linecap="round" stroke-linejoin="round" stroke-miterlimit="10" d="
					M686.66,254.76c0,2.45-1.99,4.44-4.44,4.44s-4.44-1.99-4.44-4.44c0-2.45,1.99-4.44,4.44-4.44
					C684.68,250.32,686.66,252.31,686.66,254.76z"/>
			</g>
		</g>
	</g>
	<g>
		
			<ellipse transform="matrix(0.7071 -0.7071 0.7071 0.7071 -113.2951 211.8619)" opacity="0.08" fill="#232020" enable-background="new    " cx="199.09" cy="242.69" rx="81.45" ry="81.45"/>
	</g>
	<g>
		<g>
			<g>
				
					<ellipse transform="matrix(0.7071 -0.7071 0.7071 0.7071 3.9164 331.1852)" fill="#FFA134" cx="401.73" cy="160.87" rx="45.98" ry="45.98"/>
				<path opacity="0.1" fill="#232020" enable-background="new    " d="M401.44,110.75c-27.68,0.17-49.98,22.74-49.81,50.42
					s22.74,49.98,50.42,49.81s49.98-22.74,49.81-50.42C451.69,132.88,429.12,110.58,401.44,110.75z M402,202.56
					c-23.03,0.14-41.81-18.42-41.95-41.45s18.42-41.81,41.45-41.95s41.81,18.42,41.95,41.45C443.58,183.64,425.03,202.42,402,202.56
					z"/>
				<path fill="#FFD22C" d="M401.41,105.61c-30.52,0.19-55.11,25.08-54.92,55.59c0.19,30.52,25.08,55.11,55.59,54.92
					c30.52-0.19,55.11-25.08,54.92-55.59C456.82,130.01,431.93,105.42,401.41,105.61z M402.02,206.84
					c-25.39,0.15-46.1-20.31-46.26-45.7c-0.15-25.39,20.31-46.1,45.7-46.26c25.39-0.15,46.1,20.31,46.26,45.7
					C447.87,185.98,427.41,206.69,402.02,206.84z"/>
			</g>
		</g>
		<g>
			<g>
				<path fill="#FFD22C" d="M386.73,174.8c-1.16-1.94-1.39-5.15,1.98-5.56c2.81-0.34,5.69,1.8,8.24,3.01c2.1,1,4.41,1.5,6.94,1.5
					c2.71,0,4.88-0.66,6.52-1.98c1.64-1.32,2.45-3.05,2.45-5.2c0-2.18-0.66-3.73-1.97-4.65c-1.32-0.92-3.57-1.38-6.77-1.38h-2.11
					c-5.21,0-9.19-1.09-11.92-3.27c-2.73-2.18-4.1-5.34-4.1-9.48c0-4.05,1.34-7.19,4.01-9.43c2.67-2.24,6.42-3.36,11.25-3.36
					c1.97,0,3.97,0.33,6.02,0.99c4.25,1.37,10.98,4.71,9.8,9.04c-1.86,6.82-9.14-2.16-11.76-3.29c-1.53-0.66-3.33-0.99-5.4-0.99
					c-2.4,0-4.34,0.64-5.81,1.91s-2.2,2.89-2.2,4.85c0,1.93,0.75,3.31,2.26,4.14s4.75,1.3,9.74,1.43c5.32,0.15,9.2,1.27,11.65,3.34
					c2.45,2.07,3.68,5.27,3.68,9.59c0,4.14-1.35,7.45-4.06,9.94c-2.71,2.48-6.36,3.73-10.96,3.73c-1.46,0-3.08-0.16-4.87-0.48
					c-3.72-0.67-9.3-0.64-11.99-3.58C387.11,175.37,386.91,175.09,386.73,174.8z"/>
			</g>
			<path fill="#FFD22C" d="M402.69,190.59h-0.06c-1.59,0-2.87-1.49-2.87-3.32v-56.68c0-1.84,1.29-3.33,2.87-3.33h0.06
				c1.59,0,2.87,1.49,2.87,3.33v56.68C405.57,189.11,404.28,190.59,402.69,190.59z"/>
		</g>
	</g>
	<g>
		<ellipse opacity="0.08" fill="#232020" enable-background="new    " cx="336.57" cy="90.37" rx="55.26" ry="55.26"/>
		<g>
			<g>
				
					<ellipse transform="matrix(0.7071 -0.7071 0.7071 0.7071 36.1328 262.1982)" fill="#FFA134" cx="334.57" cy="87.48" rx="45.98" ry="45.98"/>
				<path opacity="0.1" fill="#232020" enable-background="new    " d="M334.27,37.36c-27.68,0.17-49.98,22.74-49.81,50.42
					s22.74,49.98,50.42,49.81c27.68-0.17,49.98-22.74,49.81-50.42C384.52,59.5,361.95,37.19,334.27,37.36z M334.83,129.18
					c-23.03,0.14-41.81-18.42-41.95-41.45s18.42-41.81,41.45-41.95s41.81,18.42,41.95,41.45
					C376.41,110.26,357.85,129.04,334.83,129.18z"/>
				<path fill="#FFD22C" d="M334.24,32.22c-30.52,0.19-55.11,25.08-54.92,55.59c0.19,30.52,25.08,55.11,55.59,54.92
					c30.52-0.19,55.11-25.08,54.92-55.59S364.75,32.04,334.24,32.22z M334.85,133.46c-25.39,0.15-46.1-20.31-46.26-45.7
					c-0.15-25.39,20.31-46.1,45.7-46.26c25.39-0.15,46.1,20.31,46.26,45.7C380.7,112.59,360.24,133.3,334.85,133.46z"/>
			</g>
			<path fill="#FFD22C" d="M352.95,90.15c-1.36-1.79-3.44-3.18-6.22-4.17c1.72-0.99,3.01-2.24,3.88-3.77
				c0.87-1.52,1.29-3.3,1.28-5.33c-0.02-4.04-1.47-7.11-4.34-9.22s-7.03-3.14-12.49-3.11l-1.97,0.01c-0.01-1.83-0.02-3.66-0.03-5.49
				c-0.01-1.68-3.05-1.66-3.04,0.02c0.01,1.83,0.02,3.66,0.03,5.49l-1.98,0.01c-0.01-1.83-0.02-3.66-0.03-5.49
				c-0.01-1.68-3.05-1.66-3.04,0.02c0.01,1.83,0.02,3.66,0.03,5.49l-7.99,0.05c-0.88,0.01-1.54,0.25-2,0.73s-0.69,1.17-0.68,2.07
				c0.01,1.06,0.29,1.78,0.86,2.18c0.57,0.4,1.84,0.59,3.83,0.57l1.27-0.01l0.21,34.78l-1.27,0.01c-2.14,0.01-3.49,0.21-4.05,0.58
				c-0.56,0.38-0.84,1.08-0.84,2.11c0.01,0.93,0.23,1.62,0.69,2.08c0.45,0.46,1.13,0.69,2.03,0.68l8.22-0.05
				c0.01,1.83,0.02,3.66,0.03,5.49c0.01,1.68,3.05,1.66,3.04-0.02c-0.01-1.83-0.02-3.66-0.03-5.49l1.98-0.01
				c0.01,1.83,0.02,3.66,0.03,5.49c0.01,1.68,3.05,1.66,3.04-0.02c-0.01-1.83-0.02-3.66-0.03-5.49l1-0.01l3.32-0.02
				c2.83-0.02,5.02-0.19,6.56-0.52c1.54-0.33,2.94-0.86,4.2-1.59c2.1-1.25,3.73-2.84,4.87-4.78c1.15-1.94,1.71-4.08,1.7-6.42
				C355,94.23,354.31,91.95,352.95,90.15z M335.94,70.11c2.99-0.02,5.28,0.58,6.88,1.79s2.41,2.96,2.43,5.25
				c0.01,2.42-0.86,4.21-2.61,5.38c-1.76,1.17-4.46,1.76-8.12,1.79l-1.31,0.01c-0.03-4.74-0.06-9.47-0.09-14.21L335.94,70.11z
				 M330.08,70.14c0.03,4.74,0.06,9.47,0.09,14.21l-1.98,0.01c-0.03-4.74-0.06-9.47-0.09-14.21L330.08,70.14z M328.31,104.93
				c-0.03-5.28-0.06-10.55-0.1-15.83l1.98-0.01c0.03,5.28,0.06,10.55,0.1,15.83L328.31,104.93z M345.37,103
				c-1.97,1.24-5.38,1.87-10.22,1.9l-1.81,0.01c-0.03-5.28-0.06-10.55-0.1-15.83l2.2-0.01c4.76-0.03,8.09,0.56,9.99,1.75
				s2.86,3.22,2.87,6.08C348.32,99.73,347.34,101.76,345.37,103z"/>
		</g>
	</g>
	<path fill="#35B293" d="M338.8,199.62l-11.62-12.77c-0.37-0.41-1.04-0.12-1.01,0.42l0.39,7.23c-10.15-2.91-18.8-9.14-24.57-17.77
		c-6.14-9.18-8.3-19.99-6.11-30.52c0.07-0.31-0.13-0.62-0.44-0.69l-3.35-0.75c-0.32-0.07-0.63,0.13-0.7,0.45
		c-2.47,11.76-0.07,23.84,6.78,34.07c6.44,9.62,16.1,16.54,27.42,19.71l-3.69,7.5c-0.24,0.48,0.25,1.01,0.75,0.79l15.96-6.75
		C338.97,200.4,339.07,199.92,338.8,199.62z"/>
	<path fill="#449BC8" d="M437.91,75.94c-7.2-9.06-17.4-15.16-28.94-17.4l3.08-7.81c0.19-0.49-0.33-0.96-0.79-0.71l-15.4,8.07
		c-0.35,0.18-0.41,0.65-0.12,0.92l12.67,11.82c0.39,0.36,1.02,0.04,0.95-0.49l-0.99-7.22c10.35,2.07,19.49,7.57,25.95,15.69
		c6.88,8.65,9.92,19.25,8.59,29.93c-0.04,0.31,0.18,0.59,0.49,0.64l3.43,0.48c0.31,0.04,0.6-0.18,0.64-0.49
		C448.95,97.43,445.57,85.58,437.91,75.94z"/>
	<g>
		<path fill="#FAB217" d="M377.33,90.23c0,22.81-18.49,41.3-41.3,41.3s-41.3-18.49-41.3-41.3s18.49-41.3,41.3-41.3
			C358.84,48.93,377.33,67.42,377.33,90.23z"/>
		<path fill="#F6CA10" d="M343.88,96.75c0,0-2.59-4.95,1.79-7.41l0.02-0.05c0.35,0.03,0.71,0.05,1.07,0.05
			c6.55,0,11.86-5.31,11.86-11.86s-5.31-11.86-11.86-11.86s-11.86,5.31-11.86,11.86c0,1.85,0.42,3.6,1.18,5.16
			c0,0-3.03,6.26-9.02,2.81c-1.93-3.92-5.97-6.62-10.64-6.62c-6.55,0-11.86,5.31-11.86,11.86s5.31,11.86,11.86,11.86
			c4.09,0,7.7-2.07,9.83-5.23c0,0,5.89-2.65,8.65,3.55l0,0c-1.79,2.08-2.88,4.78-2.88,7.74c0,6.55,5.31,11.86,11.86,11.86
			s11.86-5.31,11.86-11.86C355.73,102.06,350.42,96.75,343.88,96.75z"/>
		<path fill="#D78E1C" d="M343.88,92.92c0,0-2.59-4.95,1.79-7.41l0.02-0.05c0.35,0.03,0.71,0.05,1.07,0.05
			c6.55,0,11.86-5.31,11.86-11.86s-5.31-11.86-11.86-11.86S334.9,67.1,334.9,73.65c0,1.85,0.42,3.6,1.18,5.16
			c0,0-3.03,6.26-9.02,2.81c-1.93-3.92-5.97-6.62-10.64-6.62c-6.55,0-11.86,5.31-11.86,11.86s5.31,11.86,11.86,11.86
			c4.09,0,7.7-2.07,9.83-5.23c0,0,5.89-2.65,8.65,3.55l0,0c-1.79,2.08-2.88,4.78-2.88,7.74c0,6.55,5.31,11.86,11.86,11.86
			s11.86-5.31,11.86-11.86S350.42,92.92,343.88,92.92z"/>
	</g>
	<g>
		<path fill="#FAB217" d="M444.96,162.93c0,22.81-18.49,41.3-41.3,41.3s-41.3-18.49-41.3-41.3s18.49-41.3,41.3-41.3
			C426.47,121.63,444.96,140.12,444.96,162.93z"/>
	</g>
	<g>
		<g>
			<polygon fill="#F6CA10" points="422.51,190.77 382.71,190.77 400.34,137.42 414.73,137.42 401.87,179.4 427.99,179.4 			"/>
			<polygon fill="#F6CA10" points="374.9,179.99 377.28,170.47 425.1,145.56 420.87,156.11 			"/>
		</g>
		<g>
			<polygon fill="#D78E1C" points="421.46,188.93 381.97,188.93 399.6,135.57 413.99,135.57 401.13,177.56 426.69,177.56 			"/>
			<polygon fill="#D78E1C" points="374.17,178.15 376.54,168.63 424.36,143.72 420.13,154.26 			"/>
		</g>
	</g>
</g>
</svg>
