<?xml version="1.0" encoding="utf-8"?>
<!-- Generator: Adobe Illustrator 20.0.0, SVG Export Plug-In . SVG Version: 6.00 Build 0)  -->
<svg version="1.1" id="Layer_1" xmlns="http://www.w3.org/2000/svg" xmlns:xlink="http://www.w3.org/1999/xlink" x="0px" y="0px"
	 viewBox="0 0 502.8 395.9" style="enable-background:new 0 0 502.8 395.9;" xml:space="preserve">
<style type="text/css">
	.st0{fill:#F26622;}
	.st1{fill:#182D41;}
</style>
<g id="Layer_2">
</g>
<g>
	<path class="st0" d="M234.6,51.9l-2.3,1c-31.3,13.9-60.8,31.7-87,50.3c-2.1,1.5-4.1,3-6.1,4.5H47.3L5.3,51.9H234.6z"/>
	<path class="st0" d="M116.4,107.7h22.8c-23.6,17.4-44.3,35.4-61.2,52c-18.4,18-32.4,34.3-41.8,46c-4.7,5.9-8.3,10.6-10.7,13.8
		s-3.7,5-3.7,5l-1.4-1c0,0,1.1-1.9,3.1-5.4s4.9-8.8,9.1-15.2c4.1-6.4,9.3-14.2,15.7-22.6c6.4-8.6,13.8-18,22.6-27.8
		c8.8-9.9,18.4-20.1,29.7-30.5C105.6,117.3,110.8,112.5,116.4,107.7z"/>
	<path class="st0" d="M478,84.2l-1.6,0.7c0,0-0.8-2-2.7-5.5s-4.8-8.6-9.3-14.6c-4.5-5.9-10.8-12.5-19.1-18.8
		c-8.2-6.3-18.6-12-30.7-16.3c-12-4.3-25.8-6.9-40.4-7.9c-14.7-1-30.2-0.3-46.1,2c-31,4.3-63.1,14.4-93.6,28.1h-37.7
		c9.3-5.1,18.8-9.9,28.6-14.3c16.3-7.2,33-13.4,49.9-18.3c16.9-5.1,34.1-8.2,50.9-10.1c16.8-2,33.4-1.8,49,0
		c15.6,1.7,30.2,5.6,42.9,11c12.8,5.3,23.5,12.5,31.7,20c8.3,7.5,14.2,15.2,18.3,21.8c4.2,6.7,6.4,12.4,7.8,16.2
		C477.5,82.1,478,84.2,478,84.2z"/>
	<path class="st1" d="M497.5,169.6l-1.6,0.5c0,0-0.6-2-2.2-5.7c-1.5-3.7-4-9-8-15.3s-9.7-13.4-17.4-20.4c-7.6-7-17.4-13.6-29.1-18.9
		c-4.2-1.9-8.7-3.6-13.3-5.1c-8.2-2.7-17-4.8-26.3-6.3c-14.5-2.3-30-2.9-46-2.1c-22.5,1.1-45.7,5.2-68.7,11.5h-11.5v280.4h-73.6
		v-248c-12.3,6-24.1,12.5-35.4,19.1c-27.6,16.4-52.1,34-72,50.3s-35.3,31.3-45.7,42.2c-5.2,5.4-9.2,9.8-11.9,12.8s-4.1,4.6-4.1,4.6
		l-1.3-1.1c0,0,1.2-1.8,3.5-5.1c2.4-3.3,5.7-8.3,10.4-14.3s10.4-13.3,17.6-21.1c7.1-7.9,15.3-16.7,24.9-25.7
		c9.6-9.1,20-18.4,32.2-27.8c11.5-9,24.7-18.7,38.6-27.5c13.6-8.4,27.8-17,43-24.3c0.5-0.3,1-0.5,1.5-0.7
		c15.6-7.6,32-14.6,48.7-20.6c16.8-5.6,34.1-10.4,51.3-13.9c17.3-3.6,34.7-5.1,51.6-5.6s33.4,1.1,48.8,4.3c8.5,1.7,16.6,4,24.3,6.9
		c6.2,2.3,12,5,17.5,7.9c12.3,6.4,22.2,14.5,29.8,22.7c7.6,8.1,12.8,16.3,16.3,23.3c3.6,7,5.3,12.9,6.4,16.8
		C497.3,167.4,497.5,169.6,497.5,169.6z"/>
	<path class="st1" d="M285,107.7c-3.8,1-7.6,2.1-11.5,3.3v-3.3H285z"/>
</g>
</svg>
