<?xml version="1.0" encoding="utf-8"?>
<!-- Generator: Adobe Illustrator 23.0.5, SVG Export Plug-In . SVG Version: 6.00 Build 0)  -->
<svg version="1.1" id="Layer_1" xmlns="http://www.w3.org/2000/svg" xmlns:xlink="http://www.w3.org/1999/xlink" x="0px" y="0px"
	 viewBox="0 0 34.8 34.5" style="enable-background:new 0 0 34.8 34.5;" xml:space="preserve">
<style type="text/css">
	.st0{fill:#F26622;}
</style>
<g>
	<g>
		<g>
			<path class="st0" d="M32.1,6.1c-5-1.3-10-3.3-14.5-5.8c-0.2-0.1-0.4-0.1-0.6,0C12.2,2.8,7.5,4.7,2.3,6.1C2,6.2,1.8,6.4,1.8,6.7
				v7.4c0,7.6,3.7,12.6,6.8,15.5c3.3,3.1,7.2,4.8,8.6,4.8c1.4,0,5.2-1.7,8.6-4.8c3.1-2.9,6.8-7.9,6.8-15.5V6.7
				C32.6,6.4,32.4,6.1,32.1,6.1z M24.9,28.6C23,30.3,21.2,31.4,20,32c-1.5,0.8-2.5,1-2.9,1c-0.3,0-1.4-0.3-2.9-1
				c-1.2-0.6-3-1.7-4.8-3.4c-2.9-2.7-6.4-7.4-6.4-14.5V7.2c4.9-1.3,9.5-3.2,14-5.6c4.4,2.4,9.2,4.4,14,5.6v6.9l0,0
				C31.2,21.2,27.8,25.9,24.9,28.6z"/>
		</g>
	</g>
	<g>
		<g>
			<path class="st0" d="M29.7,7.9c-4.2-1.2-8.3-2.9-12.2-5c-0.2-0.1-0.4-0.1-0.6,0C13,5,8.9,6.6,4.7,7.9C4.4,7.9,4.2,8.2,4.2,8.5
				v5.6c0,2.6,0.5,5.1,1.5,7.4c1,2.3,2.4,4.3,4.3,6.1c1.3,1.3,2.9,2.4,4.5,3.3c0.3,0.2,1.8,0.9,2.6,1.1c0,0,0.1,0,0.1,0
				c0,0,0.1,0,0.1,0c0.9-0.2,2.3-0.9,2.6-1.1c1.6-0.9,3.2-2,4.5-3.3c1.9-1.8,3.3-3.9,4.3-6.1c1-2.3,1.5-4.7,1.5-7.4V8.5
				C30.2,8.2,30,7.9,29.7,7.9z M28.9,14.1c0,4.9-1.8,9.1-5.4,12.5c-1.3,1.2-2.7,2.3-4.2,3.1c-0.7,0.4-1.6,0.8-2.1,0.9
				c-0.5-0.1-1.4-0.6-2.1-0.9c-1.5-0.8-3-1.9-4.2-3.1C7.3,23.2,5.5,19,5.5,14.1V9c4-1.2,8-2.8,11.7-4.8c3.7,2,7.6,3.6,11.7,4.8
				L28.9,14.1L28.9,14.1z"/>
		</g>
	</g>
	<g>
		<g>
			<path class="st0" d="M11.7,24.1L11.7,24.1c-0.3-0.3-0.7-0.3-0.9-0.1c-0.3,0.3-0.3,0.7-0.1,0.9l0,0c0.1,0.1,0.3,0.2,0.5,0.2
				c0.2,0,0.3-0.1,0.4-0.2C11.9,24.8,11.9,24.4,11.7,24.1z"/>
		</g>
	</g>
	<g>
		<g>
			<path class="st0" d="M15.3,27.1c-0.8-0.5-1.6-1.1-2.3-1.7c-0.3-0.3-0.7-0.2-0.9,0.1c-0.3,0.3-0.2,0.7,0.1,0.9
				c0.8,0.7,1.6,1.3,2.5,1.9c0.1,0.1,0.2,0.1,0.4,0.1c0.2,0,0.4-0.1,0.6-0.3C15.7,27.7,15.6,27.3,15.3,27.1z"/>
		</g>
	</g>
	<g>
		<g>
			<path class="st0" d="M20.7,14.1v-2.2c0-2-1.6-3.5-3.5-3.5s-3.5,1.6-3.5,3.5v2.2c-0.8,0-1.4,0.7-1.4,1.5v5.1
				c0,0.8,0.7,1.5,1.5,1.5h7c0.8,0,1.5-0.7,1.5-1.5v-5.1C22.2,14.8,21.5,14.1,20.7,14.1z M15,11.9c0-1.2,1-2.2,2.2-2.2
				c1.2,0,2.2,1,2.2,2.2v2.2H15L15,11.9L15,11.9z M20.8,20.7c0,0.1-0.1,0.1-0.1,0.1h-7c-0.1,0-0.1-0.1-0.1-0.1v-5.1l0,0
				c0-0.1,0.1-0.1,0.1-0.1h0.6h5.7h0.6c0.1,0,0.1,0.1,0.1,0.1V20.7z"/>
		</g>
	</g>
	<g>
		<g>
			<path class="st0" d="M17.2,16.8c-0.5,0-0.9,0.4-0.9,0.9c0,0.3,0.1,0.5,0.3,0.6v0.7c0,0.4,0.3,0.7,0.7,0.7c0.4,0,0.7-0.3,0.7-0.7
				v-0.7c0.2-0.2,0.3-0.4,0.3-0.6C18.1,17.2,17.7,16.8,17.2,16.8z"/>
		</g>
	</g>
</g>
</svg>
