<?xml version="1.0" encoding="utf-8"?>
<!-- Generator: Adobe Illustrator 23.0.5, SVG Export Plug-In . SVG Version: 6.00 Build 0)  -->
<svg version="1.1" id="Layer_1" xmlns="http://www.w3.org/2000/svg" xmlns:xlink="http://www.w3.org/1999/xlink" x="0px" y="0px"
	 viewBox="0 0 100 100" style="enable-background:new 0 0 100 100;" xml:space="preserve">
<style type="text/css">
	.st0{clip-path:url(#SVGID_2_);}
	.st1{fill:none;stroke:#F26622;stroke-width:2;stroke-linecap:round;stroke-linejoin:round;stroke-miterlimit:10;}
</style>
<g>
	<g id="g2355" transform="matrix(1.3333333,0,0,-1.3333333,0,682.66667)">
		<g id="g2357">
			<g>
				<defs>
					<rect id="SVGID_1_" x="-12.5" y="424.5" width="100" height="100"/>
				</defs>
				<clipPath id="SVGID_2_">
					<use xlink:href="#SVGID_1_"  style="overflow:visible;"/>
				</clipPath>
				<g id="g2359" class="st0">
					<g id="g2365" transform="translate(55,80.7451)">
						<path id="path2367" class="st1" d="M-46.9,368.1h-2.6c-2.4,0-4.4,2-4.4,4.4v28.6c0,2.9,2.4,5.2,5.2,5.2h33.4"/>
					</g>
					<g id="g2369" transform="translate(359.6709,80.7451)">
						<path id="path2371" class="st1" d="M-307,368.1h-38.4"/>
					</g>
					<g id="g2373" transform="translate(398.5,220.9644)">
						<path id="path2375" class="st1" d="M-340.1,248.4v-11.3"/>
					</g>
					<g id="g2377" transform="translate(254.5439,7.5)">
						<path id="path2379" class="st1" d="M-217.3,430.6h-15.1l2.5,10.7h10L-217.3,430.6z"/>
					</g>
					<g id="g2381" transform="translate(398.5,143.7773)">
						<path id="path2383" class="st1" d="M-340.1,314.3h-57.3"/>
					</g>
					<g id="g2385" transform="translate(119,7.5)">
						<path id="path2387" class="st1" d="M-101.6,430.6H-77"/>
					</g>
					<g id="g2389" transform="translate(166.8145,253.2339)">
						<path id="path2391" class="st1" d="M-142.4,220.9l1.2,6.8c0,0.2,0.3,0.2,0.3,0l2-6.7c0-0.1,0.3-0.1,0.3,0l1.9,6.7
							c0,0.2,0.3,0.1,0.3,0l1.3-6.8"/>
					</g>
					<g id="g2393" transform="translate(86.3682,296.2603)">
						<path id="path2395" class="st1" d="M-73.7,184.1c-0.6,0.4-1.2,0.6-1.9,0.6c-1.9,0-3.5-1.6-3.5-3.5c0-1.9,1.6-3.5,3.5-3.5
							c0.8,0,1.4,0.3,1.9,0.7c0.1,0.1,0.2,0.2,0.3,0.3"/>
					</g>
					<g id="g2397" transform="translate(120.3271,275.5098)">
						<path id="path2399" class="st1" d="M-102.7,201.8l2.9-3.3"/>
					</g>
					<g id="g2401" transform="translate(114.6055,300.312)">
						<path id="path2403" class="st1" d="M-97.8,180.7v-7"/>
					</g>
					<g id="g2405" transform="translate(140.2588,287.981)">
						<path id="path2407" class="st1" d="M-119.7,191.2c0-1-0.9-1.8-1.9-1.8c-0.5,0-1.8,0-1.8,0s0,1.3,0,1.8c0,0.4,0,1.8,0,1.8h1.8
							C-120.6,193-119.7,192.2-119.7,191.2z"/>
					</g>
					<g id="g2409" transform="translate(464.3867,347.9805)">
						<path id="path2411" class="st1" d="M-396.4,140v9.5c0,2.2-1.8,3.9-3.9,3.9h-20.5c-2.2,0-3.9-1.8-3.9-3.9v-24
							c0-2.2,1.8-3.9,3.9-3.9h4.6v-4.8l6.4,4.8h9.4c2.2,0,3.9,1.8,3.9,3.9v8.6"/>
					</g>
					<g id="g2413" transform="translate(324.2461,312.6519)">
						<path id="path2415" class="st1" d="M-276.7,170.1v5"/>
					</g>
					<g id="g2417" transform="translate(411.4336,312.6519)">
						<path id="path2419" class="st1" d="M-351.2,170.1v5"/>
					</g>
					<g id="g2421" transform="translate(377.6533,337.4663)">
						<path id="path2423" class="st1" d="M-322.3,149c0,0.8-0.6,1.4-1.4,1.4c-0.8,0-1.4-0.6-1.4-1.4v-2.3c0-0.8,0.6-1.4,1.4-1.4
							c0.8,0,1.4,0.6,1.4,1.4V149z"/>
					</g>
					<g id="g2425" transform="translate(367.8398,370.2949)">
						<path id="path2427" class="st1" d="M-314,120.9v5"/>
					</g>
					<g id="g2429" transform="translate(334.0596,395.1094)">
						<path id="path2431" class="st1" d="M-285.1,99.8c0,0.8-0.6,1.4-1.4,1.4s-1.4-0.6-1.4-1.4v-2.3c0-0.8,0.6-1.4,1.4-1.4
							s1.4,0.6,1.4,1.4V99.8z"/>
					</g>
					<g id="g2433" transform="translate(421.2471,395.1094)">
						<path id="path2435" class="st1" d="M-359.5,99.8c0,0.8-0.6,1.4-1.4,1.4s-1.4-0.6-1.4-1.4v-2.3c0-0.8,0.6-1.4,1.4-1.4
							s1.4,0.6,1.4,1.4V99.8z"/>
					</g>
					<g id="g2437" transform="translate(367.8398,255.0083)">
						<path id="path2439" class="st1" d="M-314,219.3v5"/>
					</g>
					<g id="g2441" transform="translate(334.0596,279.8228)">
						<path id="path2443" class="st1" d="M-285.1,198.2c0,0.8-0.6,1.4-1.4,1.4s-1.4-0.6-1.4-1.4v-2.3c0-0.8,0.6-1.4,1.4-1.4
							s1.4,0.6,1.4,1.4V198.2z"/>
					</g>
					<g id="g2445" transform="translate(421.2471,279.8228)">
						<path id="path2447" class="st1" d="M-359.5,198.2c0,0.8-0.6,1.4-1.4,1.4s-1.4-0.6-1.4-1.4v-2.3c0-0.8,0.6-1.4,1.4-1.4
							s1.4,0.6,1.4,1.4V198.2z"/>
					</g>
					<g id="g2449" transform="translate(467.4355,96.9741)">
						<path id="path2451" class="st1" d="M-399,354.2c0.4-0.8,0.6-1.7,0.6-2.6c0-3.2-2.6-5.7-5.7-5.7c-2.2,0-4.1,1.3-5.1,3.1
							l-4.3-2.2c1.7-3.4,5.3-5.7,9.4-5.7c5.8,0,10.5,4.7,10.5,10.5c0,1.7-0.4,3.3-1.1,4.8L-399,354.2z"/>
					</g>
					<g id="g2453" transform="translate(393.7383,79.29)">
						<path id="path2455" class="st1" d="M-336.1,369.3c0,3.2,2.6,5.7,5.7,5.7v4.8c-5.8,0-10.5-4.7-10.5-10.5c0-1.7,0.4-3.3,1.1-4.8
							l4.3,2.2C-335.8,367.5-336.1,368.4-336.1,369.3z"/>
					</g>
					<g id="g2457" transform="translate(467.4355,96.9741)">
						<path id="path2459" class="st1" d="M-399,354.2l4.3,2.2c-1.7,3.4-5.3,5.7-9.4,5.7v-4.8C-401.8,357.3-399.9,356.1-399,354.2z"
							/>
					</g>
					<g id="g2461" transform="translate(41.3447,380.0708)">
						<path id="path2463" class="st1" d="M-35.3,112.6v6.8h6.5v-6.8"/>
					</g>
					<g id="g2465" transform="translate(177.1006,380.0708)">
						<path id="path2467" class="st1" d="M-151.2,112.6v11h6.5v-11"/>
					</g>
					<g id="g2469" transform="translate(109.2227,380.0708)">
						<path id="path2471" class="st1" d="M-93.2,112.6v18.2h6.5v-18.2"/>
					</g>
					<g id="g2473" transform="translate(49.6152,219.3501)">
						<path id="path2475" class="st1" d="M-42.3,249.8h25.7"/>
					</g>
					<g id="g2477" transform="translate(49.6152,186.8418)">
						<path id="path2479" class="st1" d="M-42.3,277.5h14"/>
					</g>
				</g>
			</g>
		</g>
	</g>
</g>
</svg>
