<?xml version="1.0" encoding="utf-8"?>
<!-- Generator: Adobe Illustrator 23.0.5, SVG Export Plug-In . SVG Version: 6.00 Build 0)  -->
<svg version="1.1" id="Layer_1" xmlns="http://www.w3.org/2000/svg" xmlns:xlink="http://www.w3.org/1999/xlink" x="0px" y="0px"
	 viewBox="0 0 100 100" style="enable-background:new 0 0 100 100;" xml:space="preserve">
<style type="text/css">
	.st0{fill:#0B3351;}
</style>
<g>
	<g>
		<g>
			<path class="st0" d="M34.6,70.8h-5.2v3.4h5.2c1,0,1.7-0.8,1.7-1.7S35.5,70.8,34.6,70.8z"/>
			<path class="st0" d="M31.1,55.3c-7.6,0-13.8,6.2-13.8,13.8s6.2,13.8,13.8,13.8s13.8-6.2,13.8-13.8S38.7,55.3,31.1,55.3z
				 M39.8,72.5c0,2.2-1.4,4.1-3.4,4.9v3.7H33v-3.4h-1.9v3.4h-3.4v-3.4h-3.4v-3.4H26V63.9h-1.7v-3.4h3.4v-3.4h3.4v3.4h1.7v-3.4h3.4
				v3.8c2,0.7,3.4,2.6,3.4,4.9c0,1.3-0.5,2.5-1.3,3.4C39.2,70,39.8,71.2,39.8,72.5z"/>
			<path class="st0" d="M34.6,63.9h-5.2v3.4h5.2c1,0,1.7-0.8,1.7-1.7S35.5,63.9,34.6,63.9z"/>
			<path class="st0" d="M72.5,70.8h-5.2v3.4h5.2c1,0,1.7-0.8,1.7-1.7S73.5,70.8,72.5,70.8z"/>
			<path class="st0" d="M72.5,63.9h-5.2v3.4h5.2c1,0,1.7-0.8,1.7-1.7S73.5,63.9,72.5,63.9z"/>
			<path class="st0" d="M69.1,55.3c-7.6,0-13.8,6.2-13.8,13.8s6.2,13.8,13.8,13.8s13.8-6.2,13.8-13.8S76.7,55.3,69.1,55.3z
				 M77.7,72.5c0,2.2-1.4,4.1-3.4,4.9v3.7h-3.4v-3.4h-1.8v3.4h-3.4v-3.4h-3.4v-3.4H64V63.9h-1.7v-3.4h3.4v-3.4h3.4v3.4h1.7v-3.4h3.4
				v3.8c2,0.7,3.4,2.6,3.4,4.9c0,1.3-0.5,2.5-1.3,3.4C77.2,70,77.7,71.2,77.7,72.5z"/>
			<path class="st0" d="M63.9,34.6c0-7.6-6.2-13.8-13.8-13.8S36.3,27,36.3,34.6s6.2,13.8,13.8,13.8S63.9,42.2,63.9,34.6z M58.7,38
				c0,2.2-1.4,4.1-3.4,4.9v3.8h-3.4v-3.4h-1.8v3.4h-3.4v-3.4h-3.4v-3.4H45V29.4h-1.7V26h3.4v-3.4h3.4V26h1.7v-3.4h3.4v3.8
				c2,0.7,3.4,2.6,3.4,4.9c0,1.3-0.5,2.5-1.3,3.4C58.2,35.5,58.7,36.7,58.7,38z"/>
			<path class="st0" d="M53.5,29.4h-5.2v3.4h5.2c1,0,1.7-0.8,1.7-1.7C55.2,30.2,54.5,29.4,53.5,29.4z"/>
			<path class="st0" d="M53.5,36.3h-5.2v3.4h5.2c1,0,1.7-0.8,1.7-1.7S54.5,36.3,53.5,36.3z"/>
			<circle class="st0" cx="50.1" cy="3.5" r="3.4"/>
			<circle class="st0" cx="67.3" cy="3.5" r="3.4"/>
			<circle class="st0" cx="32.9" cy="3.5" r="3.4"/>
			<circle class="st0" cx="3.5" cy="96.7" r="3.4"/>
			<circle class="st0" cx="20.8" cy="96.7" r="3.4"/>
			<circle class="st0" cx="3.5" cy="79.4" r="3.4"/>
			<circle class="st0" cx="96.7" cy="96.7" r="3.4"/>
			<circle class="st0" cx="79.4" cy="96.7" r="3.4"/>
			<circle class="st0" cx="96.7" cy="79.4" r="3.4"/>
		</g>
		<path class="st0" d="M58.4,19.5l7-9.3c-1.1-0.3-2.2-0.9-3-1.8l-7.3,9.7C56.3,18.4,57.4,18.9,58.4,19.5L58.4,19.5z"/>
		<path class="st0" d="M51.8,17.4v-7.2c-0.6,0.1-1.1,0.2-1.7,0.2s-1.2-0.1-1.7-0.2v7.2c0.6-0.1,1.1-0.1,1.7-0.1S51.3,17.4,51.8,17.4
			z"/>
		<path class="st0" d="M34.8,10.1l7,9.3c1-0.6,2.1-1,3.3-1.4l-7.3-9.7C37,9.2,35.9,9.8,34.8,10.1z"/>
		<path class="st0" d="M14.9,74.7l-5.5,1.1c0.6,1,1,2.1,1,3.3l6-1.2C15.8,76.9,15.3,75.8,14.9,74.7z"/>
		<path class="st0" d="M17.8,80L7,90.7c1,0.6,1.8,1.4,2.4,2.4l10.8-10.8C19.3,81.7,18.5,80.9,17.8,80L17.8,80z"/>
		<path class="st0" d="M21.1,89.8c1.2,0.1,2.3,0.4,3.3,1l1.1-5.5c-1.1-0.4-2.2-0.9-3.2-1.5L21.1,89.8z"/>
		<path class="st0" d="M79.1,89.8l-1.2-6c-1,0.6-2.1,1.1-3.2,1.5l1.1,5.5C76.8,90.2,77.9,89.8,79.1,89.8z"/>
		<path class="st0" d="M93.2,90.7L82.4,80c-0.7,0.9-1.5,1.7-2.4,2.4l10.8,10.8C91.3,92.2,92.2,91.3,93.2,90.7L93.2,90.7z"/>
		<path class="st0" d="M90.8,75.8l-5.5-1.1c-0.4,1.1-0.9,2.2-1.5,3.2l6,1.2C89.8,77.9,90.2,76.8,90.8,75.8z"/>
	</g>
</g>
<rect x="34.6" y="51.1" transform="matrix(0.5457 -0.838 0.838 0.5457 -24.8903 57.7102)" class="st0" width="12.4" height="1.5"/>
<rect x="59" y="45.6" transform="matrix(0.866 -0.5 0.5 0.866 -17.9024 36.8017)" class="st0" width="1.5" height="12.4"/>
<rect x="44.6" y="67.1" class="st0" width="12.4" height="1.5"/>
</svg>
