<?xml version="1.0" encoding="utf-8"?>
<!-- Generator: Adobe Illustrator 23.0.5, SVG Export Plug-In . SVG Version: 6.00 Build 0)  -->
<svg version="1.1" id="Layer_1" xmlns="http://www.w3.org/2000/svg" xmlns:xlink="http://www.w3.org/1999/xlink" x="0px" y="0px"
	 viewBox="0 0 100 100" style="enable-background:new 0 0 100 100;" xml:space="preserve">
<style type="text/css">
	.st0{fill:#0B3351;}
</style>
<g>
	<path class="st0" d="M95.2,83.9h-1.6V27.4c0-2.7-2.2-4.8-4.8-4.8H77.4c0-0.9-0.7-1.6-1.6-1.6h-2.5c-0.5-1.9-1.3-3.7-2.3-5.5
		l1.8-1.8c0.6-0.6,0.6-1.7,0-2.3L66,4.6c-0.6-0.6-1.7-0.6-2.3,0l-1.8,1.8c-1.7-1-3.6-1.7-5.5-2.3V1.6c0-0.9-0.7-1.6-1.6-1.6h-9.7
		c-0.9,0-1.6,0.7-1.6,1.6v2.5c-1.9,0.5-3.7,1.3-5.5,2.3l-1.8-1.8C35.7,4,34.7,4,34,4.6l-6.8,6.8c-0.6,0.6-0.6,1.7,0,2.3l1.8,1.8
		c-1,1.7-1.7,3.6-2.3,5.5h-2.5c-0.9,0-1.6,0.7-1.6,1.6H11.3c-2.7,0-4.8,2.2-4.8,4.8v56.5H4.8C2.2,83.9,0,86,0,88.7v3.2
		c0,4.5,3.6,8.1,8.1,8.1H92c4.5,0,8.1-3.6,8.1-8.1v-3.2C100,86,97.8,83.9,95.2,83.9z M25.8,24.2H28c0.8,0,1.4-0.5,1.6-1.3
		c0.5-2.4,1.5-4.7,2.8-6.8c0.4-0.6,0.3-1.5-0.2-2l-1.5-1.5L35.2,8l1.5,1.5c0.5,0.5,1.4,0.6,2,0.2c2.1-1.3,4.4-2.3,6.8-2.8
		c0.7-0.2,1.3-0.8,1.3-1.6V3.2h6.5v2.1c0,0.8,0.5,1.4,1.3,1.6c2.4,0.5,4.7,1.5,6.8,2.8c0.6,0.4,1.5,0.3,2-0.2L64.8,8l4.6,4.6
		l-1.5,1.5c-0.5,0.5-0.6,1.4-0.2,2c1.3,2.1,2.3,4.4,2.8,6.8c0.2,0.7,0.8,1.3,1.6,1.3h2.1v6.5H72c-0.8,0-1.4,0.5-1.6,1.3
		c-0.5,2.4-1.5,4.7-2.8,6.8c-0.4,0.6-0.3,1.5,0.2,2l1.5,1.5l-4.6,4.6l-1.5-1.5c-0.5-0.5-1.4-0.6-2-0.2c-2.1,1.3-4.4,2.3-6.8,2.8
		c-0.7,0.2-1.3,0.8-1.3,1.6v2.1h-6.5v-2.1c0-0.8-0.5-1.4-1.3-1.6c-2.4-0.5-4.7-1.5-6.8-2.8c-0.6-0.4-1.5-0.3-2,0.2L35,46.9l-4.6-4.6
		l1.5-1.5c0.5-0.5,0.6-1.4,0.2-2c-1.3-2.1-2.3-4.4-2.8-6.8c-0.2-0.7-0.8-1.3-1.6-1.3h-2.1v-6.5H25.8z M24.2,33.9h2.5
		c0.5,1.9,1.3,3.7,2.3,5.5l-1.8,1.8c-0.6,0.6-0.6,1.7,0,2.3l6.8,6.8c0.6,0.6,1.7,0.6,2.3,0l1.8-1.8c1.7,1,3.6,1.7,5.5,2.3v2.5
		c0,0.9,0.7,1.6,1.6,1.6h9.7c0.9,0,1.6-0.7,1.6-1.6v-2.5c1.9-0.5,3.7-1.3,5.5-2.3l1.8,1.8c0.6,0.6,1.7,0.6,2.3,0l6.8-6.8
		c0.6-0.6,0.6-1.7,0-2.3L71,39.3c1-1.7,1.7-3.6,2.3-5.5h2.5c0.9,0,1.6-0.7,1.6-1.6h6.5v45.2H16.1V32.3h6.5
		C22.6,33.1,23.3,33.9,24.2,33.9z M9.7,27.4c0-0.9,0.7-1.6,1.6-1.6h11.3V29h-8.1c-0.9,0-1.6,0.7-1.6,1.6V79c0,0.9,0.7,1.6,1.6,1.6
		h71c0.9,0,1.6-0.7,1.6-1.6V30.6c0-0.9-0.7-1.6-1.6-1.6h-8.1v-3.2h11.3c0.9,0,1.6,0.7,1.6,1.6v56.5H9.7V27.4z M58.1,87.1v1.6
		c0,0.9-0.7,1.6-1.6,1.6h-13c-0.9,0-1.6-0.7-1.6-1.6v-1.6H58.1z M96.8,91.9c0,2.7-2.2,4.8-4.8,4.8l0,0H8.1c-2.7,0-4.8-2.2-4.8-4.8
		l0,0v-3.2c0-0.9,0.7-1.6,1.6-1.6h33.9v1.6c0,2.7,2.2,4.8,4.8,4.8h12.9c2.7,0,4.8-2.2,4.8-4.8v-1.6h33.9c0.9,0,1.6,0.7,1.6,1.6
		C96.8,88.7,96.8,91.9,96.8,91.9z"/>
	<path class="st0" d="M50,45.2c9.8,0,17.7-7.9,17.7-17.7S59.8,9.7,50,9.7s-17.7,7.9-17.7,17.7S40.2,45.1,50,45.2z M58.1,39.5
		c-4.9,3.3-11.3,3.3-16.1,0v-2.4c0-2.5,1.2-4.9,3.3-6.5c2.8,2.2,6.8,2.2,9.6,0c2,1.5,3.3,3.9,3.3,6.5v2.4H58.1z M45.2,24.2
		c0-2.7,2.2-4.8,4.8-4.8c2.7,0,4.8,2.2,4.8,4.8S52.7,29,50,29S45.2,26.9,45.2,24.2z M50,12.9c8,0,14.5,6.5,14.5,14.5
		c0,3.3-1.1,6.6-3.3,9.2c-0.2-3.3-1.7-6.3-4.3-8.4c0.7-1.2,1.1-2.6,1.1-4c0-4.5-3.6-8.1-8.1-8.1s-8.1,3.6-8.1,8.1
		c0,1.4,0.4,2.8,1.1,4c-2.6,2-4.2,5.1-4.3,8.4c-5.1-6.2-4.1-15.3,2.1-20.4C43.4,14.1,46.7,12.9,50,12.9z"/>
	<path class="st0" d="M32.3,74.2h3.2c2.7,0,4.8-2.2,4.8-4.8h-3.2c0,0.9-0.7,1.6-1.6,1.6h-3.2c-0.9,0-1.6-0.7-1.6-1.6v-6.5
		c0-0.9,0.7-1.6,1.6-1.6h3.2c0.9,0,1.6,0.7,1.6,1.6h3.2c0-2.7-2.2-4.8-4.8-4.8h-3.2c-2.7,0-4.8,2.2-4.8,4.8v6.5
		C27.4,72,29.6,74.2,32.3,74.2z"/>
	<path class="st0" d="M45.2,67.7h2.7l0.4,0.3c2.1,1.4,3.3,3.7,3.3,6.2h3.2c0-2.6-0.9-5.1-2.6-7c2.4-1.2,3.3-4.1,2.1-6.5
		c-0.8-1.6-2.5-2.6-4.3-2.6h-6.5c-0.9,0-1.6,0.7-1.6,1.6v14.5h3.2L45.2,67.7L45.2,67.7z M45.2,61.3H50c0.9,0,1.6,0.7,1.6,1.6
		s-0.7,1.6-1.6,1.6h-4.8V61.3z"/>
	<path class="st0" d="M59.7,66.5l3.4,6.8c0.5,0.8,1.5,1.1,2.3,0.6c0.2-0.1,0.4-0.3,0.6-0.6l3.4-6.8v7.7h3.2V59.7
		c0-0.9-0.7-1.6-1.6-1.6c-0.6,0-1.2,0.3-1.5,0.9l-5,10l-5-10c-0.4-0.8-1.4-1.1-2.2-0.7c-0.6,0.3-0.9,0.8-0.9,1.5v14.5h3.2v-7.8H59.7
		z"/>
	<path class="st0" d="M1.6,16.1h11.3v1.6c0,0.9,0.7,1.6,1.6,1.6c0.4,0,0.8-0.2,1.1-0.5l8.1-8.1c0.6-0.6,0.6-1.7,0-2.3l-8.1-8.1
		c-0.6-0.6-1.7-0.6-2.3,0C13,0.6,12.8,1,12.8,1.4V3H1.6C0.7,3.2,0,3.9,0,4.8v9.7C0,15.4,0.7,16.1,1.6,16.1z M3.2,6.5h11.3
		c0.7,0,1.3-0.4,1.5-1l4.3,4.3L16,13.9c-0.2-0.6-0.8-1-1.5-1H3.2V6.5z"/>
	<path class="st0" d="M98.4,3.2H87.1V1.6c0-0.9-0.7-1.6-1.6-1.6c-0.4,0-0.8,0.2-1.1,0.5l-8.1,8.1c-0.6,0.6-0.6,1.7,0,2.3l8.1,8.1
		c0.6,0.6,1.7,0.6,2.3,0c0.3-0.3,0.5-0.7,0.5-1.1v-1.6h11.3c0.9,0,1.6-0.7,1.6-1.6V4.8C100,3.9,99.3,3.2,98.4,3.2z M96.8,12.9H85.5
		c-0.7,0-1.3,0.4-1.5,1l-4.3-4.3L84,5.4c0.2,0.6,0.8,1,1.5,1h11.3V12.9z"/>
</g>
</svg>
