<?xml version="1.0" encoding="utf-8"?>
<!-- Generator: Adobe Illustrator 23.0.5, SVG Export Plug-In . SVG Version: 6.00 Build 0)  -->
<svg version="1.1" id="Layer_1" xmlns="http://www.w3.org/2000/svg" xmlns:xlink="http://www.w3.org/1999/xlink" x="0px" y="0px"
	 viewBox="0 0 100 100" style="enable-background:new 0 0 100 100;" xml:space="preserve">
<style type="text/css">
	.st0{fill:#F26622;}
</style>
<g>
	<g id="Online_Shopping">
		<path class="st0" d="M96.7,25.6H45.9c-1.1,0-2,0.9-2,2s0.9,2,2,2h48l-9,30.4H49.5L37.7,17c-0.2-0.9-1-1.5-2-1.5H19.6
			c-1.1,0-2,0.9-2,2s0.9,2,2,2h14.7l11.1,40.6H33.8c-3.4,0-6.1,2.7-6.1,6.1c0,3.4,2.7,6.1,6.1,6.1H43c-0.7,1.2-1.1,2.6-1.1,4.1
			c0,4.5,3.6,8.1,8.1,8.1s8.1-3.6,8.1-8.1c0-1.4-0.4-2.8-1.1-4.1h14.4c-0.7,1.2-1.1,2.6-1.1,4.1c0,4.5,3.6,8.1,8.1,8.1
			s8.1-3.6,8.1-8.1c0-1.4-0.4-2.8-1.1-4.1h9.2c1.1,0,2-0.9,2-2s-0.9-2-2-2H33.8c-1.1,0-2-0.9-2-2s0.9-2,2-2h52.8
			c0.9,0,1.7-0.6,1.9-1.5l10.1-34.5c0.3-1.1-0.3-2.2-1.4-2.5C97.1,25.7,96.9,25.6,96.7,25.6z M54.1,76.4c0,2.2-1.8,4.1-4.1,4.1
			c-2.2,0-4.1-1.8-4.1-4.1c0-2.2,1.8-4.1,4.1-4.1C52.2,72.3,54.1,74.1,54.1,76.4z M82.5,76.4c0,2.2-1.8,4.1-4.1,4.1
			c-2.2,0-4.1-1.8-4.1-4.1c0-2.2,1.8-4.1,4.1-4.1S82.5,74.1,82.5,76.4z"/>
		<path class="st0" d="M25.6,29.7c0-1.1-0.9-2-2-2H3.3c-1.1,0-2,0.9-2,2s0.9,2,2,2h20.3C24.7,31.7,25.6,30.8,25.6,29.7z"/>
		<path class="st0" d="M31.7,39.9c0-1.1-0.9-2-2-2H11.4c-1.1,0-2,0.9-2,2s0.9,2,2,2h18.3C30.8,41.9,31.7,41,31.7,39.9z"/>
		<path class="st0" d="M37.8,50c0-1.1-0.9-2-2-2H19.6c-1.1,0-2,0.9-2,2s0.9,2,2,2h16.2C36.9,52,37.8,51.1,37.8,50z"/>
	</g>
</g>
</svg>
