<?xml version="1.0" encoding="utf-8"?>
<!-- Generator: Adobe Illustrator 23.0.5, SVG Export Plug-In . SVG Version: 6.00 Build 0)  -->
<svg version="1.1" id="Layer_1" xmlns="http://www.w3.org/2000/svg" xmlns:xlink="http://www.w3.org/1999/xlink" x="0px" y="0px"
	 viewBox="0 0 40 40" style="enable-background:new 0 0 40 40;" xml:space="preserve">
<style type="text/css">
	.st0{fill:#FF6922;}
</style>
<g>
	<path class="st0" d="M27,13.8c0-0.3-0.3-0.6-0.6-0.6h-0.8c-0.1-0.3-0.2-0.6-0.4-0.9l0.6-0.6c0.2-0.2,0.2-0.6,0-0.9c0,0,0,0,0,0
		l-1.6-1.6c-0.2-0.2-0.6-0.2-0.9,0c0,0,0,0,0,0l-0.6,0.6c-0.3-0.1-0.6-0.3-0.9-0.4V8.6c0-0.3-0.3-0.6-0.6-0.6h-2.3
		c-0.3,0-0.6,0.3-0.6,0.6v0.8c-0.3,0.1-0.6,0.2-0.9,0.4l-0.6-0.6c-0.2-0.2-0.6-0.2-0.9,0c0,0,0,0,0,0l-1.6,1.6
		c-0.2,0.2-0.2,0.6,0,0.9c0,0,0,0,0,0l0.6,0.6c-0.1,0.3-0.3,0.6-0.4,0.9h-0.8c-0.3,0-0.6,0.3-0.6,0.6v2.3c0,0.3,0.3,0.6,0.6,0.6h0.8
		c0.1,0.3,0.2,0.6,0.4,0.9l-0.6,0.6c-0.2,0.2-0.2,0.6,0,0.9c0,0,0,0,0,0l1.6,1.6c0.2,0.2,0.6,0.2,0.9,0c0,0,0,0,0,0l0.6-0.6
		c0.3,0.1,0.6,0.3,0.9,0.4v0.8c0,0.3,0.3,0.6,0.6,0.6h2.3c0.3,0,0.6-0.3,0.6-0.6v-0.8c0.3-0.1,0.6-0.2,0.9-0.4l0.6,0.6
		c0.2,0.2,0.6,0.2,0.9,0c0,0,0,0,0,0l1.6-1.6c0.2-0.2,0.2-0.6,0-0.9c0,0,0,0,0,0l-0.6-0.6c0.1-0.3,0.3-0.6,0.4-0.9h0.8
		c0.3,0,0.6-0.3,0.6-0.6L27,13.8z M25.7,15.5h-0.2c-0.5,0-1,0.4-1.1,0.9c-0.1,0.2-0.2,0.5-0.3,0.7c-0.3,0.5-0.2,1,0.2,1.4l0.2,0.2
		l-0.7,0.7l-0.2-0.2c-0.4-0.4-1-0.5-1.4-0.2c-0.2,0.1-0.5,0.2-0.7,0.3c-0.5,0.2-0.9,0.6-0.9,1.1v0.2h-1v-0.2c0-0.5-0.4-1-0.9-1.1
		c-0.2-0.1-0.5-0.2-0.7-0.3c-0.5-0.3-1-0.2-1.4,0.2l-0.2,0.2l-0.7-0.7l0.2-0.2c0.4-0.4,0.5-1,0.2-1.4c-0.1-0.2-0.2-0.5-0.3-0.7
		c-0.2-0.5-0.6-0.9-1.1-0.9h-0.2v-1h0.2c0.5,0,1-0.4,1.1-0.9c0.1-0.2,0.2-0.5,0.3-0.7c0.3-0.5,0.2-1-0.2-1.4l-0.2-0.2l0.7-0.7
		l0.2,0.2c0.4,0.4,1,0.5,1.4,0.2c0.2-0.1,0.5-0.2,0.7-0.3c0.5-0.2,0.9-0.6,0.9-1.1V9.2h1v0.2c0,0.5,0.4,1,0.9,1.1
		c0.2,0.1,0.5,0.2,0.7,0.3c0.5,0.3,1,0.2,1.4-0.2l0.2-0.2l0.7,0.7l-0.2,0.2c-0.4,0.4-0.5,1-0.2,1.4c0.1,0.2,0.2,0.5,0.3,0.7
		c0.2,0.5,0.6,0.9,1.1,0.9h0.2V15.5z"/>
	<path class="st0" d="M20,11.1c-2.1,0-3.8,1.7-3.8,3.8s1.7,3.8,3.8,3.8s3.8-1.7,3.8-3.8C23.8,12.8,22.1,11.1,20,11.1z M20,17.5
		c-1.4,0-2.5-1.1-2.5-2.5s1.1-2.5,2.5-2.5c1.4,0,2.5,1.1,2.5,2.5C22.5,16.3,21.4,17.5,20,17.5z"/>
	<path class="st0" d="M1.6,39.6h36.7c0.3,0,0.6-0.3,0.6-0.6c0-0.1,0-0.2-0.1-0.2l-3.8-8.9c-0.1-0.2-0.3-0.4-0.6-0.4H27v1.3h7.2
		l3.3,7.6H2.6l3.3-7.6H13v-1.3H5.4c-0.3,0-0.5,0.2-0.6,0.4L1,38.8c-0.1,0.3,0,0.7,0.3,0.8C1.5,39.6,1.5,39.6,1.6,39.6L1.6,39.6z"/>
	<path class="st0" d="M18.1,23.8h1.3v3.8h-1.3V23.8z"/>
	<path class="st0" d="M18.1,28.9h1.3v1.3h-1.3V28.9z"/>
	<path class="st0" d="M18.1,31.4h1.3v3.2h-1.3V31.4z"/>
	<path class="st0" d="M20.6,23.8h1.3v4.4h-1.3V23.8z"/>
	<path class="st0" d="M20.6,29.5h1.3v5.1h-1.3V29.5z"/>
	<path class="st0" d="M23.2,25.1h1.3v5.7h-1.3V25.1z"/>
	<path class="st0" d="M15.6,32h1.3v1.3h-1.3V32z"/>
	<path class="st0" d="M15.6,24.4h1.3v6.3h-1.3V24.4z"/>
	<path class="st0" d="M23.2,32h1.3v1.3h-1.3V32z"/>
	<path class="st0" d="M30.1,2.3c-0.3,0-0.6,0.3-0.6,0.6v3.8c0,0.3,0.3,0.6,0.6,0.6H32v1.3h-1.3c-0.3,0-0.6,0.3-0.6,0.6v3.2
		c0,0.3,0.3,0.6,0.6,0.6h3.2c0.3,0,0.6-0.3,0.6-0.6v-1.3h3.2c0.3,0,0.6-0.3,0.6-0.6V5.4c0-0.3-0.3-0.6-0.6-0.6h-3.2V2.9
		c0-0.3-0.3-0.6-0.6-0.6H30.1z M30.8,6.1V3.5h2.5v1.3h-0.6c-0.3,0-0.6,0.3-0.6,0.6v0.6H30.8z M33.3,11.8h-1.9V9.9H32v0.6
		c0,0.3,0.3,0.6,0.6,0.6h0.6V11.8z M37.1,6.1v3.8h-3.8V6.1H37.1z"/>
	<path class="st0" d="M21.9,5.4c0.3,0,0.6-0.3,0.6-0.6V1c0-0.3-0.3-0.6-0.6-0.6h-3.8c-0.3,0-0.6,0.3-0.6,0.6v3.8
		c0,0.3,0.3,0.6,0.6,0.6H21.9z M18.7,1.6h2.5v2.5h-2.5V1.6z"/>
	<path class="st0" d="M2.3,19.4h3.8c0.3,0,0.6-0.3,0.6-0.6v-1.9h3.2c0.3,0,0.6-0.3,0.6-0.6v-5.1c0-0.3-0.3-0.6-0.6-0.6H4.8
		c-0.3,0-0.6,0.3-0.6,0.6v3.2H2.3c-0.3,0-0.6,0.3-0.6,0.6v3.8C1.6,19.1,1.9,19.4,2.3,19.4z M5.4,11.8h3.8v3.8H5.4V11.8z M2.9,15.6
		h1.3v0.6c0,0.3,0.3,0.6,0.6,0.6h0.6v1.3H2.9V15.6z"/>
	<path class="st0" d="M6.1,8.6h3.2c0.3,0,0.6-0.3,0.6-0.6V4.8c0-0.3-0.3-0.6-0.6-0.6H6.1c-0.3,0-0.6,0.3-0.6,0.6V8
		C5.4,8.3,5.7,8.6,6.1,8.6z M6.7,5.4h1.9v1.9H6.7V5.4z"/>
	<path class="st0" d="M29.5,19.4c-0.3,0-0.6,0.3-0.6,0.6v2.5c0,0.3,0.3,0.6,0.6,0.6H32c0.3,0,0.6-0.3,0.6-0.6V20
		c0-0.3-0.3-0.6-0.6-0.6H29.5z M31.4,21.9h-1.3v-1.3h1.3V21.9z"/>
	<path class="st0" d="M7.1,32.7h4.6v-1.3H6.7c-0.3,0-0.5,0.2-0.6,0.4l-1.9,5.1c-0.1,0.3,0,0.7,0.4,0.8c0.1,0,0.1,0,0.2,0h30.4
		c0.3,0,0.6-0.3,0.6-0.6c0-0.1,0-0.2,0-0.2l-1.9-5.1c-0.1-0.2-0.3-0.4-0.6-0.4h-5.1v1.3h4.6l1.4,3.8H5.7L7.1,32.7z"/>
</g>
</svg>
