<?xml version="1.0" encoding="utf-8"?>
<!-- Generator: Adobe Illustrator 23.0.5, SVG Export Plug-In . SVG Version: 6.00 Build 0)  -->
<svg version="1.1" id="Layer_1" xmlns="http://www.w3.org/2000/svg" xmlns:xlink="http://www.w3.org/1999/xlink" x="0px" y="0px"
	 viewBox="0 0 100 100" style="enable-background:new 0 0 100 100;" xml:space="preserve">
<style type="text/css">
	.st0{fill-rule:evenodd;clip-rule:evenodd;fill:#051D33;}
</style>
<g>
	<path class="st0" d="M15.5,10.3h6.9c1,0,1.7-0.8,1.7-1.7c0-1-0.8-1.7-1.7-1.7h-6.9c-1,0-1.7,0.8-1.7,1.7
		C13.8,9.6,14.6,10.3,15.5,10.3L15.5,10.3z"/>
	<path class="st0" d="M29.3,10.3h13.8c1,0,1.7-0.8,1.7-1.7c0-1-0.8-1.7-1.7-1.7H29.3c-1,0-1.7,0.8-1.7,1.7
		C27.6,9.6,28.4,10.3,29.3,10.3z"/>
	<path class="st0" d="M15.5,17.2h27.6c1,0,1.7-0.8,1.7-1.7c0-1-0.8-1.7-1.7-1.7H15.5c-1,0-1.7,0.8-1.7,1.7
		C13.8,16.5,14.6,17.2,15.5,17.2z"/>
	<path class="st0" d="M89.8,60.1c1.1-0.7,1.7-1.9,1.7-3.2s-0.6-2.5-1.7-3.2l-4.5-3c-1.2-0.8-2.7-0.8-3.9-0.2c-1.2,0.7-2,1.9-2,3.3
		v6.1c0,1.4,0.8,2.7,2,3.3c1.2,0.7,2.7,0.6,3.9-0.2L89.8,60.1z M87.8,57.2l-4.5,3c-0.1,0.1-0.2,0.1-0.4,0c-0.1-0.1-0.2-0.2-0.2-0.3
		v-6.1c0-0.1,0.1-0.2,0.2-0.3s0.2-0.1,0.4,0l4.5,3c0.1,0.1,0.2,0.2,0.2,0.3C88,57,87.9,57.1,87.8,57.2L87.8,57.2z"/>
	<path class="st0" d="M12.1,48.3c-2.9,0-5.2,2.3-5.2,5.2s2.3,5.2,5.2,5.2s5.2-2.3,5.2-5.2S14.9,48.3,12.1,48.3z M12.1,51.7
		c1,0,1.7,0.8,1.7,1.7c0,1-0.8,1.7-1.7,1.7c-1,0-1.7-0.8-1.7-1.7C10.4,52.5,11.1,51.7,12.1,51.7z"/>
	<path class="st0" d="M24.2,27.6l-2.6-3.4h-9.5c-1.4,0-2.7-0.5-3.7-1.5S6.9,20.4,6.9,19V5.2c0-1.4,0.5-2.7,1.5-3.7S10.7,0,12.1,0
		h34.5c1.4,0,2.7,0.5,3.7,1.5s1.5,2.3,1.5,3.7V19c0,1.4-0.5,2.7-1.5,3.7s-2.3,1.5-3.7,1.5h-9.5l-2.6,3.4h20.7V12.1
		c0-1.4,0.5-2.7,1.5-3.7s2.3-1.5,3.7-1.5H88c1.4,0,2.7,0.5,3.7,1.5s1.5,2.3,1.5,3.7V44c4.2,2.8,6.9,7.5,6.9,12.9S97.4,67,93.2,69.8
		v13h1.7c2.9,0,5.2,2.3,5.2,5.2v3.4c0,2.3-0.9,4.5-2.5,6.1s-3.8,2.5-6.1,2.5H8.6c-2.3,0-4.5-0.9-6.1-2.5S0,93.7,0,91.4V88
		c0-2.9,2.3-5.2,5.2-5.2h1.7V72.2C3,71.4,0,68,0,63.8V50c0-4.2,3-7.6,6.9-8.4v-5.3c0-4.8,3.9-8.6,8.6-8.6L24.2,27.6z M65.5,86.2v1.7
		c0,2.9-2.3,5.2-5.2,5.2H39.7c-2.9,0-5.2-2.3-5.2-5.2v-1.7H5.2c-1,0-1.7,0.8-1.7,1.7v3.4C3.5,92.7,4,94.1,5,95c1,1,2.3,1.5,3.7,1.5
		h82.7c1.4,0,2.7-0.5,3.7-1.5s1.5-2.3,1.5-3.7v-3.4c0-1-0.8-1.7-1.7-1.7C94.9,86.2,65.5,86.2,65.5,86.2z M62.1,86.2v1.7
		c0,1-0.8,1.7-1.7,1.7H39.7c-1,0-1.7-0.8-1.7-1.7v-1.7H62.1z M89.7,71.5c-1.1,0.4-2.3,0.7-3.4,0.8v1.8c0,1.4-0.5,2.7-1.5,3.7
		s-2.3,1.5-3.7,1.5H19c-1.4,0-2.7-0.5-3.7-1.5s-1.5-2.3-1.5-3.7v-1.7h-3.4v10.3h79.3L89.7,71.5z M82.8,37.9H19
		c-0.5,0-0.9,0.2-1.2,0.5c-0.3,0.3-0.5,0.8-0.5,1.2v1.7h5.2c4.8,0,8.6,3.9,8.6,8.6v13.8c0,4.8-3.9,8.6-8.6,8.6h-5.2V74
		c0,0.5,0.2,0.9,0.5,1.2c0.3,0.3,0.8,0.5,1.2,0.5h62c0.5,0,0.9-0.2,1.2-0.5c0.3-0.3,0.5-0.8,0.5-1.2v-1.8C75,71.5,69,64.9,69,56.9
		s6-14.6,13.8-15.4V37.9z M84.5,44.8c6.7,0,12.1,5.4,12.1,12.1S91.2,69,84.5,69s-12.1-5.4-12.1-12.1S77.8,44.8,84.5,44.8z
		 M27.5,64.5l-3.9-3.9c-0.3-0.3-0.8-0.5-1.2-0.5c-0.5,0-0.9,0.2-1.2,0.5L12.8,69h9.6C25,69,27.2,67,27.5,64.5L27.5,64.5z M27.6,59.6
		V50c0-2.9-2.3-5.2-5.2-5.2H8.6c-2.9,0-5.2,2.3-5.2,5.2v13.8c0,2.6,2,4.8,4.5,5.1l10.8-10.8c1-1,2.3-1.5,3.7-1.5
		c1.4,0,2.7,0.5,3.7,1.5L27.6,59.6z M89.7,37.6c-0.5,0.2-1.1,0.3-1.7,0.3h-1.7v3.5c1.2,0.1,2.3,0.4,3.4,0.8L89.7,37.6z M55.2,31
		H15.5c-2.9,0-5.2,2.3-5.2,5.2v5.2h3.4v-1.7c0-1.4,0.5-2.7,1.5-3.7s2.3-1.5,3.7-1.5h36.5c-0.2-0.5-0.3-1.1-0.3-1.7L55.2,31z
		 M89.7,32.7c0-0.5-0.3-1-0.7-1.4l-9.1-6.8l-2.6,2c-1.8,1.4-4.4,1.4-6.2,0l-2.6-2l-9.1,6.8c-0.4,0.3-0.7,0.8-0.7,1.4l0,0
		c0,0.5,0.2,0.9,0.5,1.2s0.8,0.5,1.2,0.5H88c0.5,0,0.9-0.2,1.2-0.5C89.5,33.7,89.6,33.2,89.7,32.7L89.7,32.7z M89.7,17.2l-6.9,5.2
		l6.9,5.2V17.2z M58.6,27.6l6.9-5.2l-6.9-5.2V27.6z M23.8,21.4c-0.3-0.4-0.8-0.7-1.4-0.7H12.1c-0.5,0-0.9-0.2-1.2-0.5
		s-0.5-0.8-0.5-1.2V5.2c0-0.5,0.2-0.9,0.5-1.2s0.8-0.5,1.2-0.5h34.5c0.5,0,0.9,0.2,1.2,0.5s0.5,0.8,0.5,1.2V19
		c0,0.5-0.2,0.9-0.5,1.2c-0.3,0.3-0.8,0.5-1.2,0.5H36.2c-0.5,0-1.1,0.3-1.4,0.7c0,0-2.2,2.9-4.1,5.5c-0.3,0.4-0.8,0.7-1.4,0.7
		c-0.5,0-1-0.3-1.4-0.7L23.8,21.4z M89.7,12.1L89.7,12.1c0-0.5-0.2-0.9-0.5-1.2s-0.8-0.5-1.2-0.5H60.3c-0.5,0-0.9,0.2-1.2,0.5
		s-0.5,0.8-0.5,1.2l0,0c0,0.5,0.3,1,0.7,1.4l13.8,10.3c0.6,0.5,1.5,0.5,2.1,0L89,13.5C89.4,13.1,89.6,12.6,89.7,12.1L89.7,12.1z"/>
	<path class="st0" d="M41.4,65.5v1.7c0,1.4,0.5,2.7,1.5,3.7s2.3,1.5,3.7,1.5c2.9,0,5.2-2.3,5.2-5.2v-1.7c1.4,0.1,2.7,0.9,3.5,2.2
		c0.2,2.6,2.5,4.7,5.1,4.7c2.9,0,5.2-2.3,5.2-5.2V46.6c0-2.9-2.3-5.2-5.2-5.2c-2.7,0-4.9,2.1-5.1,4.7c-0.8,1.4-2.3,2.2-3.9,2.2H39.7
		c-1.4,0-2.7,0.5-3.7,1.5s-1.5,2.3-1.5,3.7v6.9c0,1.4,0.5,2.7,1.5,3.7c1,1,2.3,1.5,3.7,1.5L41.4,65.5z M44.8,65.5v1.7
		c0,0.5,0.2,0.9,0.5,1.2c0.3,0.3,0.8,0.5,1.2,0.5c1,0,1.7-0.8,1.7-1.7v-1.7H44.8z M60.3,44.8c-1,0-1.7,0.8-1.7,1.7v20.7
		c0,1,0.8,1.7,1.7,1.7c1,0,1.7-0.8,1.7-1.7V46.6C62.1,45.6,61.3,44.8,60.3,44.8z M44.8,62.1h6.5c1.4,0,2.7,0.4,3.9,1V50.7
		c-1.2,0.6-2.5,1-3.9,1h-6.5V62.1z M41.4,51.7h-1.7c-0.5,0-0.9,0.2-1.2,0.5S38,53,38,53.4v6.9c0,0.5,0.2,0.9,0.5,1.2
		s0.8,0.5,1.2,0.5h1.7V51.7z"/>
</g>
</svg>
