<?xml version="1.0" encoding="utf-8"?>
<!-- Generator: Adobe Illustrator 23.0.5, SVG Export Plug-In . SVG Version: 6.00 Build 0)  -->
<svg version="1.1" id="Layer_1" xmlns="http://www.w3.org/2000/svg" xmlns:xlink="http://www.w3.org/1999/xlink" x="0px" y="0px"
	 viewBox="0 0 100 100" style="enable-background:new 0 0 100 100;" xml:space="preserve">
<style type="text/css">
	.st0{fill:none;stroke:#F26622;stroke-width:3;stroke-miterlimit:22.9256;}
</style>
<g>
	<g>
		<polyline class="st0" points="35.2,48.5 35.2,41.5 50,32.8 64.8,41.5 64.8,58.5 50,67.2 35.2,58.5 35.2,51.5 		"/>
		<polyline class="st0" points="35.2,41.5 50,50 64.8,41.5 		"/>
		<line class="st0" x1="50" y1="67.2" x2="50" y2="50"/>
		<path class="st0" d="M51.5,41.5h2.8 M45.7,41.5h2.8"/>
		<path class="st0" d="M87.7,2.2c5.6,0,10.1,4.5,10.1,10.1s-4.5,10.1-10.1,10.1s-10.1-4.5-10.1-10.1S82.1,2.2,87.7,2.2L87.7,2.2z
			 M92.1,50c0-3.1-2.6-5.8-5.8-5.8c-3.1,0-5.8,2.6-5.8,5.8c0,3.2,2.6,5.8,5.8,5.8C89.5,55.8,92.1,53.1,92.1,50L92.1,50z M7.9,50
			c0-3.1,2.6-5.8,5.8-5.8s5.8,2.6,5.8,5.8c0,3.2-2.6,5.8-5.8,5.8S7.9,53.1,7.9,50L7.9,50z M87.7,97.8c5.6,0,10.1-4.5,10.1-10.1
			s-4.5-10.1-10.1-10.1s-10.1,4.5-10.1,10.1C77.6,93.3,82.1,97.8,87.7,97.8L87.7,97.8z M12.3,97.8c5.6,0,10.1-4.5,10.1-10.1
			s-4.5-10.1-10.1-10.1S2.2,82.1,2.2,87.7C2.2,93.3,6.7,97.8,12.3,97.8L12.3,97.8z M50,92.1c3.1,0,5.8-2.6,5.8-5.8
			c0-3.1-2.6-5.8-5.8-5.8s-5.8,2.6-5.8,5.8C44.2,89.5,46.9,92.1,50,92.1L50,92.1z M12.3,2.2c5.6,0,10.1,4.5,10.1,10.1
			s-4.5,10.1-10.1,10.1S2.2,17.9,2.2,12.3S6.7,2.2,12.3,2.2L12.3,2.2z M50,7.9c3.1,0,5.8,2.6,5.8,5.8s-2.6,5.8-5.8,5.8
			s-5.8-2.6-5.8-5.8S46.9,7.9,50,7.9z"/>
		<path class="st0" d="M80.6,19.4L65.1,34.9 M34.9,65.1L19.4,80.6"/>
		<path class="st0" d="M19.4,50h9.8 M19.4,19.4l15.4,15.4 M65.1,65.1l4.7,4.7 M71.8,71.8l2.1,2.1 M75.9,75.9l4.7,4.7 M70.6,50h9.8
			 M50,19.4v6.7 M50,73.9v6.7"/>
	</g>
</g>
</svg>
