<?xml version="1.0" encoding="utf-8"?>
<!-- Generator: Adobe Illustrator 23.0.5, SVG Export Plug-In . SVG Version: 6.00 Build 0)  -->
<svg version="1.1" id="Layer_1" xmlns="http://www.w3.org/2000/svg" xmlns:xlink="http://www.w3.org/1999/xlink" x="0px" y="0px"
	 viewBox="0 0 40 40" style="enable-background:new 0 0 40 40;" xml:space="preserve">
<style type="text/css">
	.st0{fill:#FF6922;}
</style>
<g>
	<g id="make_a_choice_x2C__choose_x2C__tick_x2C__mark_x2C__touchscreen_x2C__check">
		<g>
			<g id="XMLID_325_">
				<path class="st0" d="M23.9,39.5c-0.3,0-0.5-0.2-0.6-0.5c0-0.1-0.3-0.3-0.4-0.4c-1.9-1.1-4.1-6.2-4.4-6.7L16.4,24
					c-0.1-0.3,0-0.6,0.3-0.7c1.3-0.7,2.2-0.7,2.8-0.5c0.8,0.3,1.5,0.9,2,1.9l1,2.1V14.8c0-1.4,1.2-2.6,2.6-2.6s2.6,1.2,2.6,2.6v6.9
					c0.4-0.2,0.8-0.4,1.3-0.4c0.9,0,1.8,0.5,2.2,1.3c0.5-0.4,1-0.6,1.7-0.6c1.1,0,2.1,0.7,2.5,1.7c0.4-0.3,0.9-0.4,1.4-0.4
					c1.4,0,2.6,1.2,2.6,2.6v10.4c0,1.8-1.5,3.3-3.3,3.3h-6.5c-0.4,0-0.7-0.3-0.7-0.7c0-0.4,0.3-0.7,0.7-0.7h6.5c1.1,0,2-0.9,2-2
					V25.9c0-0.7-0.6-1.3-1.3-1.3s-1.3,0.6-1.3,1.3c0,0.4-0.3,0.7-0.7,0.7s-0.7-0.3-0.7-0.7v-1.3c0-0.7-0.6-1.3-1.3-1.3
					s-1.3,0.6-1.3,1.3c0,0.4-0.3,0.7-0.7,0.7c-0.4,0-0.7-0.3-0.7-0.7v-0.7c0-0.7-0.6-1.3-1.3-1.3c-0.7,0-1.3,0.6-1.3,1.3
					c0,0.4-0.3,0.7-0.7,0.7s-0.7-0.3-0.7-0.7v-9.1c0-0.7-0.6-1.3-1.3-1.3c-0.7,0-1.3,0.6-1.3,1.3v15c0,0.3-0.2,0.6-0.5,0.6
					c-0.3,0.1-0.6-0.1-0.7-0.4l-2.3-4.7c-0.2-0.5-0.6-1.1-1.2-1.2c-0.4-0.1-0.9-0.1-1.4,0.2l1.9,7.4c0.6,1.3,2.5,5.2,3.8,6
					c0.2,0.1,0.8,0.5,1,1.1c0.1,0.3-0.1,0.7-0.4,0.8C24,39.5,24,39.5,23.9,39.5L23.9,39.5z"/>
			</g>
			<g id="XMLID_345_">
				<path class="st0" d="M24.6,10.2c-0.2,0-0.3-0.1-0.5-0.2l-3.3-3.3c-0.3-0.3-0.3-0.7,0-0.9s0.7-0.3,0.9,0l2.8,2.8l7.4-7.4
					c0.3-0.3,0.7-0.3,0.9,0c0.3,0.3,0.3,0.7,0,0.9L25,10C24.9,10.2,24.7,10.2,24.6,10.2z"/>
			</g>
			<g>
				<path class="st0" d="M12.8,14.8H2.4c-1.1,0-2-0.9-2-2V2.4c0-1.1,0.9-2,2-2h10.4c1.1,0,2,0.9,2,2v10.4
					C14.8,13.9,13.9,14.8,12.8,14.8z M2.4,1.8c-0.4,0-0.7,0.3-0.7,0.7v10.4c0,0.4,0.3,0.7,0.7,0.7h10.4c0.4,0,0.7-0.3,0.7-0.7V2.4
					c0-0.4-0.3-0.7-0.7-0.7H2.4z"/>
			</g>
			<g>
				<path class="st0" d="M12.8,31.7H2.4c-1.1,0-2-0.9-2-2V19.3c0-1.1,0.9-2,2-2h10.4c1.1,0,2,0.9,2,2v10.4
					C14.8,30.8,13.9,31.7,12.8,31.7z M2.4,18.7c-0.4,0-0.7,0.3-0.7,0.7v10.4c0,0.4,0.3,0.7,0.7,0.7h10.4c0.4,0,0.7-0.3,0.7-0.7V19.3
					c0-0.4-0.3-0.7-0.7-0.7H2.4z"/>
			</g>
			<g>
				<path class="st0" d="M20.7,14.8h-1.3c-1.1,0-2-0.9-2-2V2.4c0-1.1,0.9-2,2-2h10.4c0.4,0,0.7,0.3,0.7,0.7s-0.3,0.7-0.7,0.7H19.3
					c-0.4,0-0.7,0.3-0.7,0.7v10.4c0,0.4,0.3,0.7,0.7,0.7h1.3c0.4,0,0.7,0.3,0.7,0.7C21.3,14.5,21,14.8,20.7,14.8z"/>
			</g>
			<g>
				<path class="st0" d="M29.8,14.8h-2.6c-0.4,0-0.7-0.3-0.7-0.7c0-0.4,0.3-0.7,0.7-0.7h2.6c0.4,0,0.7-0.3,0.7-0.7V6.3
					c0-0.4,0.3-0.7,0.7-0.7c0.4,0,0.7,0.3,0.7,0.7v6.5C31.7,13.9,30.8,14.8,29.8,14.8z"/>
			</g>
		</g>
	</g>
</g>
</svg>
