<?xml version="1.0" encoding="utf-8"?>
<!-- Generator: Adobe Illustrator 23.0.5, SVG Export Plug-In . SVG Version: 6.00 Build 0)  -->
<svg version="1.1" id="Layer_1" xmlns="http://www.w3.org/2000/svg" xmlns:xlink="http://www.w3.org/1999/xlink" x="0px" y="0px"
	 viewBox="0 0 100 100" style="enable-background:new 0 0 100 100;" xml:space="preserve">
<style type="text/css">
	.st0{fill:#F26622;}
</style>
<g>
	<path class="st0" d="M98.3,83.3h-1.7V40c0-2.2-0.9-4.3-2.4-5.9c-1.6-1.6-3.7-2.4-5.9-2.4h-2c-0.6-4.1-1.8-8-3.7-11.7h7.7
		c0.5,1.5,1.7,2.6,3.2,3.1s3.2,0.2,4.4-0.8c1.3-0.9,2-2.4,2-4s-0.8-3.1-2-4c-1.3-0.9-2.9-1.2-4.4-0.8c-1.5,0.5-2.7,1.6-3.2,3.1h-8.6
		c-0.3,0-0.6,0.1-0.8,0.3c-1.2-1.9-2.6-3.7-4.2-5.3l5.6-4.9h3c0.5,1.5,1.7,2.6,3.2,3.1C90.1,10.3,91.7,10,93,9c1.3-0.9,2-2.4,2-4
		s-0.8-3.1-2-4c-1.3-0.9-2.9-1.2-4.4-0.8c-1.5,0.5-2.7,1.6-3.2,3.1h-3.6c-0.4,0-0.8,0.1-1.1,0.4l-6.3,5.5c-1-0.9-2-1.7-3-2.4
		c-0.4-0.3-0.8-0.4-1.3-0.4c-0.5,0.1-0.9,0.3-1.1,0.7c-0.3,0.4-0.4,0.8-0.3,1.3s0.4,0.8,0.8,1.1c8.7,6.2,13.9,16.2,13.9,26.9
		c0.1,10.7-5,20.7-13.6,27s-19.7,8.1-29.9,4.9C29.6,65.1,21.7,57.1,18.3,47C15,36.8,16.8,25.7,23,17.1C29.3,8.5,39.3,3.3,50,3.4
		c4.8,0,9.5,1,13.8,3c0.4,0.2,0.9,0.2,1.3,0.1c0.4-0.2,0.8-0.5,1-0.9s0.2-0.9,0-1.3c-0.2-0.4-0.5-0.8-0.9-0.9
		c-6.3-2.9-13.4-3.9-20.3-3c-6.9,1-13.4,3.9-18.7,8.5l-5-5c-0.3-0.3-0.7-0.5-1.2-0.5H9.7C9.2,1.9,8,0.7,6.5,0.2C4.9-0.2,3.3,0.1,2,1
		S0,3.4,0,5s0.8,3.1,2,4c1.3,0.9,2.9,1.2,4.4,0.8C8,9.3,9.2,8.2,9.7,6.7h9.6l4.4,4.4c-1.7,1.7-3.2,3.6-4.5,5.6h-4.6
		c-0.5-1.5-1.7-2.6-3.2-3.1S8.2,13.4,7,14.4c-1.3,0.9-2,2.4-2,4s0.8,3.1,2,4c1.3,0.9,2.9,1.2,4.4,0.8c1.5-0.5,2.7-1.6,3.2-3.1h2.7
		c-1.9,3.7-3.1,7.6-3.7,11.7h-2c-2.2,0-4.3,0.9-5.9,2.4c-1.6,1.6-2.4,3.7-2.4,5.9v43.3H1.7C0.8,83.3,0,84.1,0,85v6.7
		c0,2.2,0.9,4.3,2.4,5.9C4,99.1,6.1,100,8.3,100H60c0.9,0,1.7-0.7,1.7-1.7c0-0.9-0.7-1.7-1.7-1.7H8.3c-1.3,0-2.6-0.5-3.5-1.5
		c-0.9-0.9-1.5-2.2-1.5-3.5v-5h35v1.7c0,0.4,0.2,0.9,0.5,1.2c0.3,0.3,0.7,0.5,1.2,0.5h20c0.4,0,0.9-0.2,1.2-0.5s0.5-0.7,0.5-1.2
		v-1.7h35v5c0,1.3-0.5,2.6-1.5,3.5c-0.9,0.9-2.2,1.5-3.5,1.5h-25c-0.9,0-1.7,0.7-1.7,1.7c0,0.9,0.7,1.7,1.7,1.7h25
		c2.2,0,4.3-0.9,5.9-2.4c1.6-1.6,2.4-3.7,2.4-5.9V85c0-0.4-0.2-0.9-0.5-1.2C99.2,83.5,98.8,83.3,98.3,83.3L98.3,83.3z M95,16.7
		c0.7,0,1.3,0.4,1.5,1c0.3,0.6,0.1,1.3-0.4,1.8s-1.2,0.6-1.8,0.4c-0.6-0.3-1-0.9-1-1.5C93.3,17.4,94.1,16.7,95,16.7L95,16.7z
		 M90,3.4c0.7,0,1.3,0.4,1.5,1s0.1,1.3-0.4,1.8s-1.2,0.6-1.8,0.4c-0.6-0.3-1-0.9-1-1.5C88.3,4.1,89.1,3.4,90,3.4L90,3.4z M5,6.7
		c-0.7,0-1.3-0.4-1.5-1C3.2,5,3.4,4.3,3.8,3.8C4.3,3.4,5,3.2,5.7,3.5c0.6,0.3,1,0.9,1,1.5c0,0.4-0.2,0.9-0.5,1.2
		C5.9,6.5,5.5,6.7,5,6.7L5,6.7z M10,20c-0.7,0-1.3-0.4-1.5-1c-0.3-0.6-0.1-1.3,0.4-1.8s1.2-0.6,1.8-0.4c0.6,0.3,1,0.9,1,1.5
		c0,0.4-0.2,0.9-0.5,1.2C10.9,19.8,10.5,20,10,20L10,20z M28.7,78.3l1.3-2l1.3,2l-1.3,2L28.7,78.3z M60,83.3c-0.9,0-1.7,0.7-1.7,1.7
		v1.7H41.7V85c0-0.4-0.2-0.9-0.5-1.2c-0.3-0.3-0.7-0.5-1.2-0.5h-8l2.7-4.1l0,0c0.4-0.6,0.4-1.3,0-1.8l-3.3-5l0,0
		c-0.3-0.4-0.8-0.7-1.4-0.7c-0.5,0-1.1,0.3-1.4,0.7l-3.3,5c-0.4,0.6-0.4,1.3,0,1.8l2.7,4.1H6.7V40c0-1.3,0.5-2.6,1.5-3.5
		c0.9-0.9,2.2-1.5,3.5-1.5h1.7c0,0.6,0,1.1,0,1.7l0,0c0,13.1,7,25.2,18.3,31.7C43,75,57,75,68.3,68.4c11.3-6.5,18.3-18.6,18.3-31.7
		c0-0.6,0-1.1-0.1-1.7h1.7c1.3,0,2.6,0.5,3.5,1.5c0.9,0.9,1.5,2.2,1.5,3.5v43.3H73.1l1.6-2.4c0.4-0.6,0.4-1.3,0-1.8l-3.3-5
		c-0.3-0.4-0.8-0.7-1.4-0.7c-0.5,0-1.1,0.3-1.4,0.7l-3.3,5l0,0c-0.4,0.6-0.4,1.3,0,1.8l1.6,2.4H60z M68.7,80l1.3-2l1.3,2L70,82
		L68.7,80z"/>
	<path class="st0" d="M86.7,91.7c0,0.9-0.7,1.7-1.7,1.7c-0.9,0-1.7-0.7-1.7-1.7c0-0.9,0.7-1.7,1.7-1.7C85.9,90,86.7,90.7,86.7,91.7"
		/>
	<path class="st0" d="M93.3,91.7c0,0.9-0.7,1.7-1.7,1.7c-0.9,0-1.7-0.7-1.7-1.7c0-0.9,0.7-1.7,1.7-1.7C92.6,90,93.3,90.7,93.3,91.7"
		/>
	<path class="st0" d="M10,91.7c0,0.9-0.7,1.7-1.7,1.7c-0.9,0-1.7-0.7-1.7-1.7c0-0.9,0.7-1.7,1.7-1.7S10,90.7,10,91.7"/>
	<path class="st0" d="M16.7,91.7c0,0.9-0.7,1.7-1.7,1.7c-0.9,0-1.7-0.7-1.7-1.7c0-0.9,0.7-1.7,1.7-1.7C15.9,90,16.7,90.7,16.7,91.7"
		/>
	<path class="st0" d="M30,36.7c0,0.9-0.7,1.7-1.7,1.7c-0.9,0-1.7-0.7-1.7-1.7s0.7-1.7,1.7-1.7S30,35.8,30,36.7"/>
	<path class="st0" d="M73.3,36.7c0,0.9-0.7,1.7-1.7,1.7c-0.9,0-1.7-0.7-1.7-1.7s0.7-1.7,1.7-1.7C72.6,35,73.3,35.8,73.3,36.7"/>
	<path class="st0" d="M31.2,57.9c-0.6,0.7-0.4,1.8,0.3,2.3c5.3,4.2,11.8,6.5,18.5,6.5c8,0,15.6-3.2,21.2-8.8S80,44.6,80,36.7
		c0-8-3.2-15.6-8.8-21.2C65.6,9.8,58,6.7,50,6.7s-15.6,3.2-21.2,8.8S20,28.7,20,36.7c0,6.7,2.3,13.3,6.5,18.5
		c0.6,0.7,1.6,0.8,2.3,0.3c0.7-0.6,0.8-1.6,0.3-2.3c-3.7-4.7-5.8-10.5-5.7-16.5c0-7.1,2.8-13.9,7.8-18.8c5-5,11.8-7.8,18.8-7.8
		c7.1,0,13.9,2.8,18.8,7.8s7.8,11.8,7.8,18.8c0,7.1-2.8,13.9-7.8,18.8S57.1,63.3,50,63.3c-6,0-11.8-2-16.5-5.7
		c-0.3-0.3-0.8-0.4-1.2-0.3C31.8,57.3,31.4,57.5,31.2,57.9L31.2,57.9z"/>
	<path class="st0" d="M82,79.3c0.3,0.4,0.8,0.7,1.3,0.7s1-0.2,1.3-0.7l5-6.7c0.4-0.6,0.4-1.4,0-2l-5-6.7c-0.3-0.4-0.8-0.6-1.3-0.6
		s-1,0.2-1.3,0.6l-5,6.7c-0.4,0.6-0.4,1.4,0,2L82,79.3z M83.3,67.8l2.9,3.9l-2.9,3.9l-2.9-3.9L83.3,67.8z"/>
	<path class="st0" d="M18,64c-0.3-0.4-0.8-0.6-1.3-0.6s-1,0.2-1.3,0.6l-5,6.7c-0.4,0.6-0.4,1.4,0,2l5,6.7c0.3,0.4,0.8,0.7,1.3,0.7
		s1-0.2,1.3-0.7l5-6.7c0.4-0.6,0.4-1.4,0-2L18,64z M16.7,75.6l-2.9-3.9l2.9-3.9l2.9,3.9L16.7,75.6z"/>
</g>
<path class="st0" d="M48.9,52.4h4.5v-4.6c3.8,0,6.9-3.1,6.9-6.9c0-1.7-0.7-3.3-1.7-4.5c1.1-1.2,1.7-2.8,1.7-4.5
	c0-3.8-3.1-6.9-6.9-6.9v-4.5h-4.5V25H42v22.8h6.9V52.4z M46.7,29.4h6.9c1.3,0,2.3,1.1,2.3,2.3c0,1.2-1.1,2.3-2.3,2.3h-6.9
	C46.7,34,46.7,29.4,46.7,29.4z M46.7,43.2v-4.5h6.9c1.3,0,2.3,1.1,2.3,2.3c0,1.3-1.1,2.3-2.3,2.3C53.6,43.2,46.7,43.2,46.7,43.2z"/>
</svg>
