<?xml version="1.0" encoding="utf-8"?>
<!-- Generator: Adobe Illustrator 23.0.5, SVG Export Plug-In . SVG Version: 6.00 Build 0)  -->
<svg version="1.1" id="Layer_1" xmlns="http://www.w3.org/2000/svg" xmlns:xlink="http://www.w3.org/1999/xlink" x="0px" y="0px"
	 viewBox="0 0 100 100" style="enable-background:new 0 0 100 100;" xml:space="preserve">
<style type="text/css">
	.st0{fill:#F26622;}
</style>
<g>
	<g>
		<g>
			<path class="st0" d="M39.6,7.8H26c-1,0-1.9,0.8-1.9,1.9s0.8,1.9,1.9,1.9h13.6c1,0,1.9-0.8,1.9-1.9S40.6,7.8,39.6,7.8z"/>
		</g>
	</g>
	<g>
		<g>
			<path class="st0" d="M34.1,88.2c-0.4-0.4-0.8-0.6-1.3-0.6c-0.5,0-1,0.2-1.3,0.6s-0.6,0.8-0.6,1.3c0,0.5,0.2,1,0.6,1.3
				s0.8,0.6,1.3,0.6c0.5,0,1-0.2,1.3-0.6c0.4-0.4,0.6-0.8,0.6-1.3C34.7,89,34.5,88.5,34.1,88.2z"/>
		</g>
	</g>
	<g>
		<g>
			<path class="st0" d="M86.8,61.9l-7-12.1c2.9-2.6,3.6-7,1.6-10.5c-1.1-2-3-3.4-5.2-4c-1.6-0.4-3.2-0.4-4.7,0.1l-7-12.1
				c-0.3-0.5-0.9-0.9-1.5-0.9c-0.6,0-1.2,0.2-1.6,0.7L39.8,50.8l-9.1,5.3c-5.2,3-7,9.7-4,14.8c1.5,2.5,3.8,4.3,6.6,5.1
				c0.9,0.3,1.9,0.4,2.8,0.4c1.9,0,3.7-0.5,5.4-1.5l1.1-0.6l3.8,6.5H5.9V17.6h53.7v0.6c0,1,0.8,1.9,1.9,1.9c1,0,1.9-0.8,1.9-1.9v-9
				c0-4.1-3.3-7.4-7.4-7.4H9.5c-4.1,0-7.4,3.3-7.4,7.4v82c0,4.1,3.3,7.4,7.4,7.4H56c4.1,0,7.4-3.3,7.4-7.4V67.8l22-3.1
				c0.6-0.1,1.2-0.5,1.4-1C87.2,63.1,87.2,62.4,86.8,61.9z M5.9,9.2c0-2,1.6-3.6,3.6-3.6H56c2,0,3.6,1.6,3.6,3.6v4.7H5.9V9.2z
				 M75.3,39c1.2,0.3,2.2,1.1,2.9,2.2c1,1.7,0.8,3.7-0.3,5.2l-4.4-7.5C74.1,38.8,74.7,38.8,75.3,39z M39.7,71.6
				c-1.6,0.9-3.5,1.2-5.4,0.7c-1.8-0.5-3.4-1.7-4.3-3.3c-2-3.4-0.8-7.7,2.6-9.7l7.8-4.5l7.1,12.3L39.7,71.6z M45.9,72.4l3.4-2
				l4.5,7.7l-3.4,2L45.9,72.4z M59.6,91.2c0,2-1.6,3.6-3.6,3.6H9.5c-2,0-3.6-1.6-3.6-3.6v-6.6h53.7L59.6,91.2L59.6,91.2z M59.6,80.8
				h-2.9l0.6-0.3c0.9-0.5,1.2-1.7,0.7-2.6l-5-8.6l6.6-0.9V80.8z M51,65.8l-7.7-13.3l13.8-17.6l16,27.8L51,65.8z M77.2,62.1
				L59.6,31.6l3.1-4l19.4,33.7L77.2,62.1z"/>
		</g>
	</g>
	<g>
		<g>
			<path class="st0" d="M98.8,29.4c-0.5-0.9-1.7-1.2-2.6-0.7L86.9,34c-0.9,0.5-1.2,1.7-0.7,2.6c0.4,0.6,1,0.9,1.6,0.9
				c0.3,0,0.6-0.1,0.9-0.3l9.3-5.4C99,31.4,99.3,30.3,98.8,29.4z"/>
		</g>
	</g>
	<g>
		<g>
			<path class="st0" d="M81.6,21.1c-1-0.3-2,0.3-2.3,1.3l-1.4,5c-0.3,1,0.3,2,1.3,2.3c0.2,0,0.3,0.1,0.5,0.1c0.8,0,1.6-0.6,1.8-1.4
				l1.4-5C83.2,22.4,82.7,21.3,81.6,21.1z"/>
		</g>
	</g>
	<g>
		<g>
			<path class="st0" d="M96.1,45.8l-5.2-1.4c-1-0.3-2,0.3-2.3,1.3c-0.3,1,0.3,2,1.3,2.3l5.2,1.4c0.2,0,0.3,0.1,0.5,0.1
				c0.8,0,1.6-0.6,1.8-1.4C97.7,47.1,97.1,46.1,96.1,45.8z"/>
		</g>
	</g>
	<g>
		<g>
			<path class="st0" d="M38,23.1H11.9c-1,0-1.9,0.8-1.9,1.9s0.8,1.9,1.9,1.9H38c1,0,1.9-0.8,1.9-1.9S39.1,23.1,38,23.1z"/>
		</g>
	</g>
	<g>
		<g>
			<path class="st0" d="M39.3,32.8c-0.4-0.4-0.8-0.6-1.3-0.6c-0.5,0-1,0.2-1.3,0.6c-0.4,0.4-0.6,0.8-0.6,1.3c0,0.5,0.2,1,0.6,1.3
				C37,35.8,37.5,36,38,36c0.5,0,1-0.2,1.3-0.6c0.4-0.4,0.6-0.8,0.6-1.3C39.9,33.6,39.7,33.1,39.3,32.8z"/>
		</g>
	</g>
	<g>
		<g>
			<path class="st0" d="M30.2,32.2H11.9c-1,0-1.9,0.8-1.9,1.9c0,1,0.8,1.9,1.9,1.9h18.3c1,0,1.9-0.8,1.9-1.9
				C32.1,33.1,31.2,32.2,30.2,32.2z"/>
		</g>
	</g>
	<g>
		<g>
			<path class="st0" d="M33.5,41.3H19.2c-1,0-1.9,0.8-1.9,1.9c0,1,0.8,1.9,1.9,1.9h14.3c1,0,1.9-0.8,1.9-1.9
				C35.4,42.2,34.6,41.3,33.5,41.3z"/>
		</g>
	</g>
	<g>
		<g>
			<path class="st0" d="M12,41.3L12,41.3c-1.1,0-2,0.8-2,1.9c0,1,0.8,1.9,1.9,1.9H12c1,0,1.9-0.8,1.9-1.9C13.9,42.2,13,41.3,12,41.3
				z"/>
		</g>
	</g>
	<g>
	</g>
	<g>
	</g>
	<g>
	</g>
	<g>
	</g>
	<g>
	</g>
	<g>
	</g>
	<g>
	</g>
	<g>
	</g>
	<g>
	</g>
	<g>
	</g>
	<g>
	</g>
	<g>
	</g>
	<g>
	</g>
	<g>
	</g>
	<g>
	</g>
</g>
</svg>
