<?xml version="1.0" encoding="utf-8"?>
<!-- Generator: Adobe Illustrator 23.0.5, SVG Export Plug-In . SVG Version: 6.00 Build 0)  -->
<svg version="1.1" id="Layer_1" xmlns="http://www.w3.org/2000/svg" xmlns:xlink="http://www.w3.org/1999/xlink" x="0px" y="0px"
	 viewBox="0 0 40 40" style="enable-background:new 0 0 40 40;" xml:space="preserve">
<style type="text/css">
	.st0{fill:#FF6922;}
</style>
<g>
	<path class="st0" d="M23.6,36l-1.2,3.2c-0.1,0.2-0.3,0.3-0.5,0.3h-3.8c-0.2,0-0.4-0.1-0.5-0.3l-1.1-2.9c-2-0.4-3.8-1.2-5.5-2.3
		l-2.9,1.3c-0.2,0.1-0.4,0-0.6-0.1l-2.7-2.7c-0.2-0.2-0.2-0.4-0.1-0.6L6,29c-1.1-1.7-1.9-3.6-2.3-5.5l-2.9-1.1
		c-0.2-0.1-0.3-0.3-0.3-0.5v-3.8c0-0.2,0.1-0.4,0.3-0.5l2.9-1.1c0.4-2,1.2-3.8,2.3-5.5L4.7,8.1c-0.1-0.2,0-0.4,0.1-0.6l2.7-2.7
		c0.2-0.2,0.4-0.2,0.6-0.1L11,6c1.7-1.1,3.6-1.9,5.5-2.3l1.1-2.9c0.1-0.2,0.3-0.3,0.5-0.3h3.8c0.2,0,0.4,0.1,0.5,0.3L23.6,4
		c0.1,0.3,0,0.6-0.3,0.7c-0.3,0.1-0.6,0-0.7-0.3l-1.1-2.9h-3.1l-1.1,2.9c-0.1,0.2-0.2,0.3-0.4,0.3c-2,0.4-3.9,1.2-5.7,2.3
		c-0.2,0.1-0.3,0.1-0.5,0L8,5.8L5.8,8l1.2,2.8c0.1,0.2,0.1,0.4,0,0.5C5.9,13,5.1,14.9,4.7,17c0,0.2-0.2,0.3-0.3,0.4l-2.8,1.1v3.1
		l2.8,1.1c0.2,0.1,0.3,0.2,0.3,0.4c0.4,2,1.2,3.9,2.3,5.7c0.1,0.2,0.1,0.3,0,0.5L5.8,32L8,34.2l2.8-1.2c0.2-0.1,0.4-0.1,0.5,0
		c1.7,1.2,3.6,1.9,5.7,2.3c0.2,0,0.3,0.2,0.4,0.3l1.1,2.9h3.1l1.1-2.8c0.1-0.3,0.4-0.4,0.7-0.3C23.6,35.5,23.7,35.8,23.6,36L23.6,36
		z M15.9,26.8c0.1,0.1,0.2,0.1,0.3,0.1c0.2,0,0.4-0.1,0.5-0.3c0.2-0.2,0.1-0.6-0.2-0.7c-2.1-1.3-3.3-3.5-3.3-5.9s1.2-4.6,3.3-5.9
		c0.2-0.2,0.3-0.5,0.2-0.7c-0.2-0.2-0.5-0.3-0.7-0.2c-2.4,1.5-3.8,4-3.8,6.8S13.5,25.3,15.9,26.8z M39.6,20c0,1.4-1.1,2.5-2.5,2.5
		c-1.2,0-2.2-0.8-2.4-1.9H20.5v2.4h5.4c0.1,0,0.3,0.1,0.4,0.2l1.9,1.9h1.3c0.2-1.1,1.2-1.9,2.4-1.9c1.4,0,2.5,1.1,2.5,2.5
		c0,1.4-1.1,2.5-2.5,2.5c-1.2,0-2.2-0.8-2.4-1.9H28c-0.1,0-0.3-0.1-0.4-0.2L25.7,24h-5.1v2.4h4.3c0.1,0,0.3,0.1,0.4,0.2l3.8,3.8
		c0.1,0.1,0.2,0.2,0.2,0.4v1.9c0.7,0.1,1.2,0.5,1.6,1.2c0.3,0.6,0.4,1.2,0.2,1.9c-0.2,0.6-0.6,1.2-1.1,1.5c-0.4,0.2-0.8,0.3-1.2,0.3
		c-0.2,0-0.4,0-0.6-0.1c-0.6-0.2-1.2-0.6-1.5-1.1c-0.7-1.2-0.3-2.7,0.9-3.4c0.2-0.1,0.5-0.2,0.7-0.3v-1.7l-3.5-3.5h-4.1v3.8
		c0,0.3-0.2,0.5-0.5,0.5c-6.5,0-11.8-5.3-11.8-11.8S13.5,8.2,20,8.2c0.3,0,0.5,0.2,0.5,0.5v3.8h4.1l3.5-3.5V7.4
		c-0.2-0.1-0.5-0.1-0.7-0.3c-1.2-0.7-1.6-2.2-0.9-3.4c0.3-0.6,0.9-1,1.5-1.1c0.6-0.2,1.3-0.1,1.9,0.2c0.6,0.3,1,0.9,1.1,1.5
		c0.2,0.6,0.1,1.3-0.2,1.9c-0.3,0.6-0.9,1-1.5,1.1c0,0-0.1,0-0.1,0v1.9c0,0.1-0.1,0.3-0.2,0.4l-3.8,3.8c-0.1,0.1-0.2,0.2-0.4,0.2
		h-4.3V16h5l2.3-2.3c0.1-0.1,0.2-0.2,0.4-0.2h1.3c0.2-1.1,1.2-1.9,2.4-1.9c1.4,0,2.5,1.1,2.5,2.5s-1.1,2.5-2.5,2.5
		c-1.2,0-2.2-0.8-2.4-1.9h-1.1l-2.3,2.3c-0.1,0.1-0.2,0.2-0.4,0.2h-5.2v2.4h14.2c0.2-1.1,1.2-1.9,2.4-1.9
		C38.5,17.5,39.6,18.6,39.6,20L39.6,20z M30.5,14.1c0,0.8,0.6,1.4,1.4,1.4c0.8,0,1.4-0.6,1.4-1.4s-0.6-1.4-1.4-1.4
		C31.2,12.7,30.5,13.3,30.5,14.1z M27.9,6.2c0.3,0.2,0.7,0.2,1.1,0.1c0.4-0.1,0.7-0.3,0.9-0.7C30,5.4,30.1,5,30,4.7
		c-0.1-0.4-0.3-0.7-0.7-0.9c-0.2-0.1-0.5-0.2-0.7-0.2c-0.1,0-0.2,0-0.4,0c-0.4,0.1-0.7,0.3-0.9,0.7C27,5,27.3,5.9,27.9,6.2L27.9,6.2
		z M19.5,9.3C13.8,9.6,9.3,14.3,9.3,20s4.5,10.4,10.2,10.7V9.3z M28.6,33.6c-0.2,0-0.5,0.1-0.7,0.2c-0.7,0.4-0.9,1.2-0.5,1.9
		c0.2,0.3,0.5,0.6,0.9,0.7c0.4,0.1,0.7,0,1.1-0.1c0.3-0.2,0.6-0.5,0.7-0.9c0.1-0.4,0-0.7-0.1-1.1C29.6,33.8,29.1,33.6,28.6,33.6
		L28.6,33.6z M30.5,25.6c0,0.8,0.6,1.4,1.4,1.4c0.8,0,1.4-0.6,1.4-1.4s-0.6-1.4-1.4-1.4C31.2,24.2,30.5,24.8,30.5,25.6z M38.5,20
		c0-0.8-0.6-1.4-1.4-1.4c-0.8,0-1.4,0.6-1.4,1.4c0,0.8,0.6,1.4,1.4,1.4C37.9,21.4,38.5,20.8,38.5,20L38.5,20z"/>
</g>
</svg>
