<?xml version="1.0" encoding="utf-8"?>
<!-- Generator: Adobe Illustrator 23.0.5, SVG Export Plug-In . SVG Version: 6.00 Build 0)  -->
<svg version="1.1" id="Layer_1" xmlns="http://www.w3.org/2000/svg" xmlns:xlink="http://www.w3.org/1999/xlink" x="0px" y="0px"
	 viewBox="0 0 100 100" style="enable-background:new 0 0 100 100;" xml:space="preserve">
<style type="text/css">
	.st0{fill:#051D33;}
</style>
<g>
	<path class="st0" d="M71.8,92.9h-2.7C68.4,90.1,66,88,63,88s-5.4,2.1-6,4.8h-3.5c-0.6-2.8-3.1-4.8-6-4.8c-3,0-5.4,2.1-6,4.8h-2.1
		l-1.9-6.7h33.7c0.6,0,1.2-0.4,1.3-1l6.9-26.8c0.1-0.4,0-0.8-0.3-1.2c-0.3-0.3-0.7-0.5-1.1-0.5h-5.7v-0.5c0-2.6-2.1-4.7-4.7-4.7
		h-3.2V50c0-2.5-2-4.5-4.5-4.5h-0.6V44c0-1.6-1.3-2.9-2.9-2.9h-4.1c-1.6,0-2.9,1.3-2.9,2.9v1.4h-0.6c-2.4,0-4.4,1.9-4.5,4.4H38
		c-2.6,0-4.7,2.1-4.7,4.7v2.1h-4l-2-7c-0.2-0.6-0.7-1-1.3-1h-7.1c-0.8,0-1.4,0.6-1.4,1.4c0,0.8,0.6,1.4,1.4,1.4H25l12.1,43.2
		c0.2,0.6,0.7,1,1.3,1h3.2c0.6,2.8,3.1,4.8,6,4.8c3,0,5.4-2.1,6-4.8H57c0.6,2.8,3.1,4.8,6,4.8c3,0,5.4-2.1,6-4.8h2.7
		c0.8,0,1.4-0.6,1.4-1.4C73.2,93.5,72.5,92.9,71.8,92.9L71.8,92.9z M59.8,59.4l-0.9,6.3H47.2l-0.9-6.3
		C46.3,59.4,59.8,59.4,59.8,59.4z M58.4,68.4l-0.9,5.9h-9l-0.9-5.9H58.4z M72.4,74.2H60.3l0.9-5.9h12.7L72.4,74.2z M48.9,77h8.2
		l-1,6.5h-6.3L48.9,77z M47.1,83.5H36.6L34.8,77h11.4L47.1,83.5z M45.7,74.2H34l-1.6-5.9h12.5L45.7,74.2z M70.1,83.5H58.9l1-6.5
		h11.8L70.1,83.5z M74.6,65.6h-13l0.9-6.3h13.7L74.6,65.6z M67.6,54.1c1.1,0,1.9,0.9,1.9,1.9v0.5h-5.1V54L67.6,54.1L67.6,54.1z
		 M52,44c0-0.1,0.1-0.2,0.2-0.2h4.1c0.1,0,0.2,0.1,0.2,0.2v1.4H52V44L52,44z M48.6,48.2h11.3c1,0,1.8,0.8,1.8,1.8v2.7c0,0,0,0,0,0.1
		v3.9H46.9v-5.4l0,0V50C46.9,49,47.7,48.2,48.6,48.2L48.6,48.2z M35.9,54.5c0-1.1,0.9-1.9,1.9-1.9h6.3v4.1h-8.3L35.9,54.5L35.9,54.5
		z M43.5,59.4l0.9,6.3H31.6l-1.8-6.3C29.8,59.4,43.5,59.4,43.5,59.4z M47.4,97.7c-1.9,0-3.5-1.5-3.5-3.5s1.5-3.5,3.5-3.5
		c1.9,0,3.5,1.5,3.5,3.5S49.3,97.7,47.4,97.7z M63,97.7c-1.9,0-3.5-1.5-3.5-3.5s1.5-3.5,3.5-3.5s3.5,1.5,3.5,3.5S64.9,97.7,63,97.7z
		"/>
	<g>
		<path class="st0" d="M90.8,0.7H8.7C3.9,0.7,0,4.5,0,9.3v77C0,91.1,3.9,95,8.7,95h18.1c0.8,0,1.5-0.7,1.5-1.5S27.6,92,26.8,92H8.7
			c-3.1,0-5.6-2.5-5.6-5.6V22.7h93.8v63.6c0,3.1-2.5,5.6-5.6,5.6H80.5c-0.8,0-1.5,0.7-1.5,1.5s0.7,1.5,1.5,1.5h10.7
			c4.8,0,8.6-3.9,8.6-8.6V21.1V9.8C99.9,4.8,95.8,0.7,90.8,0.7L90.8,0.7z M3.1,19.7V9.3c0-3.1,2.5-5.6,5.6-5.6h82.1
			c3.4,0,6.1,2.7,6.1,6.1v9.9H3.1z"/>
		<path class="st0" d="M14.1,6.6C11.3,6.6,9,8.9,9,11.7s2.3,5.1,5.1,5.1s5.1-2.3,5.1-5.1S16.9,6.6,14.1,6.6L14.1,6.6z M14.1,13.7
			c-1.1,0-2.1-0.9-2.1-2.1c0-1.1,0.9-2.1,2.1-2.1c1.1,0,2.1,0.9,2.1,2.1C16.1,12.8,15.2,13.7,14.1,13.7z"/>
		<path class="st0" d="M27.4,6.6c-2.8,0-5.1,2.3-5.1,5.1s2.3,5.1,5.1,5.1s5.1-2.3,5.1-5.1S30.2,6.6,27.4,6.6z M27.4,13.7
			c-1.1,0-2.1-0.9-2.1-2.1c0-1.1,0.9-2.1,2.1-2.1c1.1,0,2.1,0.9,2.1,2.1S28.5,13.7,27.4,13.7z"/>
		<path class="st0" d="M40.8,6.6c-2.8,0-5.1,2.3-5.1,5.1s2.3,5.1,5.1,5.1s5.1-2.3,5.1-5.1C45.9,8.9,43.6,6.6,40.8,6.6L40.8,6.6z
			 M40.8,13.7c-1.1,0-2.1-0.9-2.1-2.1c0-1.1,0.9-2.1,2.1-2.1c1.1,0,2.1,0.9,2.1,2.1C42.8,12.8,41.9,13.7,40.8,13.7z"/>
		<path class="st0" d="M91.3,10.2h-35c-0.8,0-1.5,0.7-1.5,1.5s0.7,1.5,1.5,1.5h35c0.8,0,1.5-0.7,1.5-1.5S92.1,10.2,91.3,10.2
			L91.3,10.2z"/>
		<path class="st0" d="M82.2,84.8c-0.8,0-1.5,0.7-1.5,1.5s0.7,1.5,1.5,1.5h9.1c0.8,0,1.5-0.7,1.5-1.5v-58c0-0.8-0.7-1.5-1.5-1.5H8.7
			c-0.8,0-1.5,0.7-1.5,1.5v58c0,0.8,0.7,1.5,1.5,1.5h16.1c0.8,0,1.5-0.7,1.5-1.5s-0.7-1.5-1.5-1.5H10.2v-55h79.5v55H82.2L82.2,84.8z
			"/>
	</g>
</g>
</svg>
