<svg xmlns="http://www.w3.org/2000/svg" version="1.1" xmlns:xlink="http://www.w3.org/1999/xlink" xmlns:svgjs="http://svgjs.com/svgjs" width="512" height="512" x="0" y="0" viewBox="0 0 496 496" style="enable-background:new 0 0 512 512" xml:space="preserve" class=""><g><path xmlns="http://www.w3.org/2000/svg" d="m480 40v304h-464v-304c0-8.878906 7.121094-16 16-16h432c8.878906 0 16 7.121094 16 16zm0 0" fill="#48cfad" data-original="#48cfad" class=""></path><path xmlns="http://www.w3.org/2000/svg" d="m464 24h-32c8.878906 0 16 7.121094 16 16v304h32v-304c0-8.878906-7.121094-16-16-16zm0 0" fill="#37bc9b" data-original="#37bc9b"></path><path xmlns="http://www.w3.org/2000/svg" d="m182.878906 416h130.242188l8.558594 24h-147.359376zm0 0" fill="#f7c292" data-original="#f7c292"></path><path xmlns="http://www.w3.org/2000/svg" d="m200 368-17.121094 48-8.558594 24-14.320312 40h-40l40-112zm0 0" fill="#ffd2a6" data-original="#ffd2a6"></path><path xmlns="http://www.w3.org/2000/svg" d="m336 368 40 112h-40l-14.320312-40-8.558594-24-17.121094-48zm0 0" fill="#ffd2a6" data-original="#ffd2a6"></path><path xmlns="http://www.w3.org/2000/svg" d="m496 344v24h-496v-24zm0 0" fill="#656d78" data-original="#656d78"></path><path xmlns="http://www.w3.org/2000/svg" d="m480 344h-16v24h32v-24zm0 0" fill="#434a54" data-original="#434a54"></path><path xmlns="http://www.w3.org/2000/svg" d="m216 0h64v24h-64zm0 0" fill="#ffd2a6" data-original="#ffd2a6"></path><path xmlns="http://www.w3.org/2000/svg" d="m440 80-16 20 16 20h-64v-40zm0 0" fill="#ed5565" data-original="#ed5565"></path><path xmlns="http://www.w3.org/2000/svg" d="m408 152c0 17.703125-14.296875 32-32 32s-32-14.296875-32-32 14.296875-32 32-32 32 14.296875 32 32zm0 0" fill="#f5f7fa" data-original="#f5f7fa"></path><path xmlns="http://www.w3.org/2000/svg" d="m96 232c17.703125 0 32 14.296875 32 32s-14.296875 32-32 32-32-14.296875-32-32 14.296875-32 32-32zm0 0" fill="#f5f7fa" data-original="#f5f7fa"></path><path xmlns="http://www.w3.org/2000/svg" d="m376 160c-4.425781 0-8-3.574219-8-8v-72c0-4.425781 3.574219-8 8-8s8 3.574219 8 8v72c0 4.425781-3.574219 8-8 8zm0 0" fill="#656d78" data-original="#656d78"></path><path xmlns="http://www.w3.org/2000/svg" d="m327.382812 155.054688c.808594-1.949219.808594-4.160157 0-6.109376-.40625-.984374-.992187-1.875-1.734374-2.609374l-15.992188-15.992188c-3.128906-3.128906-8.183594-3.128906-11.3125 0s-3.128906 8.183594 0 11.3125l3.015625 3.015625c-110.101563 6.753906-168.765625 71.128906-171.335937 74.015625-2.933594 3.296875-2.640626 8.359375.664062 11.289062 1.519531 1.359376 3.425781 2.023438 5.3125 2.023438 2.199219 0 4.398438-.902344 5.976562-2.6875.574219-.648438 55.734376-61.320312 157.976563-68.578125l-1.609375 1.609375c-3.128906 3.128906-3.128906 8.183594 0 11.3125 1.558594 1.558594 3.609375 2.34375 5.65625 2.34375s4.097656-.785156 5.65625-2.34375l15.992188-15.992188c.742187-.734374 1.328124-1.625 1.734374-2.609374zm0 0" fill="#f5f7fa" data-original="#f5f7fa"></path><path xmlns="http://www.w3.org/2000/svg" d="m96.238281 272.007812c-4.421875 0-8.039062-3.574218-8.039062-8 0-4.421874 3.535156-8 7.953125-8h.085937c4.417969 0 8 3.578126 8 8 0 4.425782-3.582031 8-8 8zm0 0" fill="#ccd1d9" data-original="#ccd1d9"></path><g xmlns="http://www.w3.org/2000/svg" fill="#37bc9b"><path d="m117.65625 114.34375c-3.128906-3.128906-8.183594-3.128906-11.3125 0l-10.34375 10.34375-10.34375-10.34375c-3.128906-3.128906-8.183594-3.128906-11.3125 0s-3.128906 8.183594 0 11.3125l10.34375 10.34375-10.34375 10.34375c-3.128906 3.128906-3.128906 8.183594 0 11.3125 1.558594 1.558594 3.609375 2.34375 5.65625 2.34375s4.097656-.785156 5.65625-2.34375l10.34375-10.34375 10.34375 10.34375c1.558594 1.558594 3.609375 2.34375 5.65625 2.34375s4.097656-.785156 5.65625-2.34375c3.128906-3.128906 3.128906-8.183594 0-11.3125l-10.34375-10.34375 10.34375-10.34375c3.128906-3.128906 3.128906-8.183594 0-11.3125zm0 0" fill="#37bc9b" data-original="#37bc9b"></path><path d="m226.34375 101.65625c1.558594 1.558594 3.609375 2.34375 5.65625 2.34375s4.097656-.785156 5.65625-2.34375c3.128906-3.128906 3.128906-8.183594 0-11.3125l-10.34375-10.34375 10.34375-10.34375c3.128906-3.128906 3.128906-8.183594 0-11.3125s-8.183594-3.128906-11.3125 0l-10.34375 10.34375-10.34375-10.34375c-3.128906-3.128906-8.183594-3.128906-11.3125 0s-3.128906 8.183594 0 11.3125l10.34375 10.34375-10.34375 10.34375c-3.128906 3.128906-3.128906 8.183594 0 11.3125 1.558594 1.558594 3.609375 2.34375 5.65625 2.34375s4.097656-.785156 5.65625-2.34375l10.34375-10.34375zm0 0" fill="#37bc9b" data-original="#37bc9b"></path><path d="m253.65625 266.34375c-3.128906-3.128906-8.183594-3.128906-11.3125 0l-10.34375 10.34375-10.34375-10.34375c-3.128906-3.128906-8.183594-3.128906-11.3125 0s-3.128906 8.183594 0 11.3125l10.34375 10.34375-10.34375 10.34375c-3.128906 3.128906-3.128906 8.183594 0 11.3125 1.558594 1.558594 3.609375 2.34375 5.65625 2.34375s4.097656-.785156 5.65625-2.34375l10.34375-10.34375 10.34375 10.34375c1.558594 1.558594 3.609375 2.34375 5.65625 2.34375s4.097656-.785156 5.65625-2.34375c3.128906-3.128906 3.128906-8.183594 0-11.3125l-10.34375-10.34375 10.34375-10.34375c3.128906-3.128906 3.128906-8.183594 0-11.3125zm0 0" fill="#37bc9b" data-original="#37bc9b"></path><path d="m363.3125 248 10.34375-10.34375c3.128906-3.128906 3.128906-8.183594 0-11.3125s-8.183594-3.128906-11.3125 0l-10.34375 10.34375-10.34375-10.34375c-3.128906-3.128906-8.183594-3.128906-11.3125 0s-3.128906 8.183594 0 11.3125l10.34375 10.34375-10.34375 10.34375c-3.128906 3.128906-3.128906 8.183594 0 11.3125 1.558594 1.558594 3.609375 2.34375 5.65625 2.34375s4.097656-.785156 5.65625-2.34375l10.34375-10.34375 10.34375 10.34375c1.558594 1.558594 3.609375 2.34375 5.65625 2.34375s4.097656-.785156 5.65625-2.34375c3.128906-3.128906 3.128906-8.183594 0-11.3125zm0 0" fill="#37bc9b" data-original="#37bc9b"></path></g></g></svg>