<?xml version="1.0" encoding="utf-8"?>
<!-- Generator: Adobe Illustrator 23.0.5, SVG Export Plug-In . SVG Version: 6.00 Build 0)  -->
<svg version="1.1" id="Layer_1" xmlns:svgjs="http://svgjs.com/svgjs"
	 xmlns="http://www.w3.org/2000/svg" xmlns:xlink="http://www.w3.org/1999/xlink" x="0px" y="0px" viewBox="0 0 512 512"
	 style="enable-background:new 0 0 512 512;" xml:space="preserve">
<style type="text/css">
	.st0{fill:#FF757C;}
	.st1{fill:#F0B97D;}
	.st2{fill:#20D0C2;}
	.st3{fill:#FED198;}
	.st4{fill:#666666;}
	.st5{fill:#FFFFFF;}
	.st6{fill:#15BDB1;}
	.st7{fill:#FBB429;}
	.st8{fill:#0E7886;}
	.st9{fill:#FF5B61;}
</style>
<g>
	<path class="st0" d="M256,0c141.4,0,256,114.6,256,256S397.4,512,256,512S0,397.4,0,256S114.6,0,256,0z"/>
	<path class="st1" d="M217.5,257.2c22.5,0,45,0,67.5,0l5.5,56.9l16.5,12.1l98.3,31.2c0,0,12.9,7.1,16.7,26.9
		c0.8,4.1,1.5,36.7,2.1,64.8C379.1,488.3,320.3,512,256,512c-69,0-131.7-27.3-177.7-71.8c0.4-24,1-49,2.3-55.9
		c2.6-13.4,16.7-26.9,16.7-26.9l99-31.6l15.8-11.7L217.5,257.2L217.5,257.2L217.5,257.2z"/>
	<path class="st2" d="M196.2,325.8l-99,31.6c0,0-14.1,13.6-16.7,26.9c-1.3,6.9-1.9,31.9-2.3,55.9C124.3,484.7,187,512,256,512
		c64.3,0,123.1-23.7,168.1-62.9c-0.6-28.1-1.3-60.6-2.1-64.8c-3.8-19.8-16.7-26.9-16.7-26.9L307,326.2
		C290.7,374,211.7,372,196.2,325.8z"/>
	<path class="st3" d="M167,170.8c-21.2-3.8-3.1,59.5,12.3,50l8.3,24.4c7.5,22,26.3,41.9,40.7,57.8c5.6,6.2,39.9,6.1,45.5,0.2
		c15.9-16.7,34.8-35.5,41.9-58.1l7.6-24.2c15.5,9.4,33.5-53.8,12.3-50c1.5-49.2-33.3-97-84.3-97.2C200.3,73.9,165.5,121.6,167,170.8
		L167,170.8L167,170.8z"/>
	<path class="st4" d="M312,83.3c6-0.7,27.6,19,30.2,41.9c2.6,22.9-1.3,46.4-1.3,46.4c-10.6,2.3-12.8,26.4-12.8,26.4l-4.6,0.2
		l-3.3-16.5c-18.9-11.9,7.5-58.8-11.5-62.9c-32.4,26.7-80.5,36.6-122.5,29.7c-11.8,1.6,5.4,16.5,0.4,33.6
		c-3.7,6.4-1.5,16.5-1.5,16.5l-5.5,0.7c0,0-3.4-28.6-14-28.5c-4.9-13.2-3.9-21.6-3-33.3C167.8,72.2,250.8,31.2,312,83.3L312,83.3
		L312,83.3z"/>
	<path class="st5" d="M319.3,330.1c-21.2,61.3-115.1,61-136.1-0.2l13-4.2c15.5,46.2,94.5,48.2,110.8,0.4L319.3,330.1L319.3,330.1
		L319.3,330.1z"/>
	<path class="st6" d="M147.8,488.1l1.1-14.2l3.5,16.3C150.9,489.5,149.3,488.8,147.8,488.1z M355,492.1L355,492.1
		c-1.9,0.8-3.8,1.6-5.8,2.3l4.4-20.6L355,492.1L355,492.1L355,492.1z"/>
	<path class="st7" d="M426.2,0.8C473.6,0.8,512,40,512,88.4c0,32.8-17.6,61.3-43.6,76.4V205c0,4.8-3.8,8.7-8.5,8.7H397
		c-4.7,0-8.5-3.9-8.5-8.7v-37.8c-28.4-14.3-48-44.2-48-78.7C340.4,40,378.9,0.8,426.2,0.8z"/>
	<g>
		<path class="st5" d="M400.1,88.4l14.8,108.7h11.3h11.3l15.4-110.9l5.8-0.7l-15.9,114.9l-0.3,2.4h-2.5h-13.7h-13.7H410l-0.3-2.4
			L394.5,89.2L400.1,88.4L400.1,88.4z"/>
		<path class="st5" d="M434.4,72.1l-1.8,12.4l46.6-7L416,103.9l2.3-17.1l-41.4,7.9L434.4,72.1z"/>
	</g>
	<path class="st8" d="M422.2,267v1.6H417V267h-2c-2,0-3.7-1.2-4.5-3h-0.2c-2.8,0-5-2.4-5-5.4c0-1.9,0.9-3.5,2.3-4.5h-7.7
		c-2.8,0-5-2.4-5-5.4c0-1.9,1-3.6,2.4-4.6c-2.4-0.8-4.2-2.7-4.2-4.9c0-2.9,3.1-5.3,6.9-5.3c-3.8,0-6.9-2.4-6.9-5.3s3.1-5.3,6.9-5.3
		c-3.8,0-6.9-2.4-6.9-5.3c0-2.9,3.1-5.3,6.9-5.3h52.4c3.8,0,6.9,2.4,6.9,5.3c0,2.9-3.1,5.3-6.9,5.3c3.8,0,6.9,2.4,6.9,5.3
		c0,2.9-3.1,5.3-6.9,5.3c3.8,0,6.9,2.4,6.9,5.3c0,2.2-1.7,4.1-4.2,4.9c1.4,0.9,2.4,2.6,2.4,4.6c0,3-2.2,5.4-5,5.4h-7.7
		c1.4,1,2.3,2.6,2.3,4.5c0,3-2.2,5.4-5,5.4H442c-0.8,1.8-2.5,3-4.5,3h-2.1v1.6h-5.2V267H422.2L422.2,267z"/>
	<path class="st5" d="M319.7,408.9h13.3v3.9h-13.3V408.9z"/>
	<path class="st9" d="M326.3,408.9h6.6v3.9h-6.6V408.9z"/>
</g>
</svg>
