<svg xmlns="http://www.w3.org/2000/svg" version="1.1" xmlns:xlink="http://www.w3.org/1999/xlink" xmlns:svgjs="http://svgjs.com/svgjs" width="512" height="512" x="0" y="0" viewBox="0 0 176 176" style="enable-background:new 0 0 512 512" xml:space="preserve" class=""><g><g xmlns="http://www.w3.org/2000/svg" id="Layer_2" data-name="Layer 2"><g id="_26.quora" data-name="26.quora"><g id="background"><path d="m144.52 173a532.59 532.59 0 0 1 -113 0 32.07 32.07 0 0 1 -28.52-28.48 532.59 532.59 0 0 1 0-113 32.07 32.07 0 0 1 28.48-28.52 532.59 532.59 0 0 1 113 0 32.07 32.07 0 0 1 28.52 28.48 532.59 532.59 0 0 1 0 113 32.07 32.07 0 0 1 -28.48 28.52z" fill="#bd1c04" data-original="#bd1c04" class=""></path></g><g id="shadow"><path d="m175.62 108q-.68 18.27-2.63 36.52a32.07 32.07 0 0 1 -28.47 28.48q-17.36 1.86-34.73 2.56l-61.91-61.9c-6.4-112.78 67.12-66.28 67.12-66.28z" fill="#8f1704" data-original="#8f1704" class=""></path></g><path id="icon" d="m132.41 119.32s-.53 7.89-7.71 7.89c-5.55 0-9.33-4.22-12.88-9.72a48.41 48.41 0 0 0 16.47-36.58c0-24.29-17.55-44.37-40.29-47.49a46.74 46.74 0 0 0 -6.19-.42c-25.67 0-46.48 21.45-46.48 47.91s20.81 47.92 46.48 47.92a45.64 45.64 0 0 0 13.4-2c5.36 8.53 12.18 16.2 22.85 16.2 21.71 0 22.61-23.68 22.61-23.68zm-28.67-14.89c-3.68-5.25-8.09-9.71-14.39-11.14-.46-.1-.9-.19-1.35-.26-10.61-1.85-19.59 2.88-22.52 5.29l2.87 5.92s2.9-1.66 10.1 0c3.56.83 6.5 4.88 9.55 10.09.83 1.42 1.68 2.92 2.54 4.48a20 20 0 0 1 -2.54 1.06 18.56 18.56 0 0 1 -6.19 1.06c-15 0-27.1-17.92-27.1-40s12.13-40 27.1-40a18.8 18.8 0 0 1 6.19 1.07c12 4.13 20.91 20 20.91 39a53.79 53.79 0 0 1 -5.17 23.43z" fill="#ffffff" data-original="#ffffff" class=""></path></g></g></g></svg>