<svg xmlns="http://www.w3.org/2000/svg" version="1.1" xmlns:xlink="http://www.w3.org/1999/xlink" xmlns:svgjs="http://svgjs.com/svgjs" width="512" height="512" x="0" y="0" viewBox="0 0 512 512" style="enable-background:new 0 0 512 512" xml:space="preserve" class=""><g><path xmlns="http://www.w3.org/2000/svg" d="m245 0c-39.3125 0-76.453125 9.273438-109.378906 25.730469l-96.011719 85.679687c-25.042969 38.425782-39.609375 84.304688-39.609375 133.589844 0 106.34375 67.722656 196.414062 161.53125 230.40625l195.121094-12.792969s.085937.140625.242187.398438c79.039063-40.652344 133.109375-123.015625 133.109375-218.011719 0-135.308594-109.691406-245-245.003906-245zm0 0" fill="#fe4675" data-original="#fe4675"></path><path xmlns="http://www.w3.org/2000/svg" d="m478.164062 24.632812h-340.3125c-40.847656 19.898438-75.339843 50.808594-99.601562 88.882813v239.285156h473.75v-294.332031c0-18.6875-15.148438-33.835938-33.835938-33.835938zm0 0" fill="#6244bd" data-original="#6244bd"></path><path xmlns="http://www.w3.org/2000/svg" d="m95.835938 58.46875c0-3.003906.398437-5.917969 1.132812-8.691406-23.136719 17.574218-43.0625 39.164062-58.71875 63.738281v239.285156h57.585938zm0 0" fill="#4e2aa5" data-original="#4e2aa5"></path><path xmlns="http://www.w3.org/2000/svg" d="m65.640625 101.824219v214.164062c0 4.082031 3.308594 7.394531 7.394531 7.394531h404.179688c4.085937 0 7.394531-3.3125 7.394531-7.394531v-214.164062zm0 0" fill="#e6fcff" data-original="#e6fcff"></path><path xmlns="http://www.w3.org/2000/svg" d="m95.835938 101.824219h-30.195313v214.164062c0 4.082031 3.308594 7.394531 7.394531 7.394531h22.800782zm0 0" fill="#ccebff" data-original="#ccebff"></path><path xmlns="http://www.w3.org/2000/svg" d="m356.671875 463.128906-26.125-51.890625c-16.460937 0-103.402344 0-119.972656 0l-26.375 52.386719h171.480469c.328124-.164062.664062-.328125.992187-.496094zm0 0" fill="#d9f3ff" data-original="#d9f3ff"></path><path xmlns="http://www.w3.org/2000/svg" d="m210.574219 411.238281-26.375 52.386719h63.640625l16.65625-52.386719c-23.726563 0-46.289063 0-53.921875 0zm0 0" fill="#b8dff4" data-original="#b8dff4"></path><path xmlns="http://www.w3.org/2000/svg" d="m245 490.003906c40.621094 0 78.925781-9.898437 112.652344-27.390625h-182.308594c-7.28125 0-13.214844 5.679688-13.652344 12.847657 26.007813 9.40625 54.058594 14.542968 83.308594 14.542968zm0 0" fill="#e6fcff" data-original="#e6fcff"></path><path xmlns="http://www.w3.org/2000/svg" d="m236.210938 476.308594c0-7.566406 6.128906-13.695313 13.691406-13.695313h-74.558594c-7.28125 0-13.214844 5.679688-13.65625 12.847657 26.007812 9.40625 54.058594 14.542968 83.3125 14.542968 1.3125 0 2.613281-.03125 3.921875-.050781-7.105469-.507813-12.710937-6.414063-12.710937-13.644531zm0 0" fill="#ccebff" data-original="#ccebff"></path><path xmlns="http://www.w3.org/2000/svg" d="m478.164062 52.023438h-384.089843c-10.152344 7.949218-19.660157 16.679687-28.433594 26.105468v25.722656h418.96875v-45.382812c0-3.558594-2.886719-6.445312-6.445313-6.445312zm0 0" fill="#4e2aa5" data-original="#4e2aa5"></path><path xmlns="http://www.w3.org/2000/svg" d="m95.835938 58.46875c0-2.207031.21875-4.359375.621093-6.445312h-2.382812c-10.148438 7.949218-19.660157 16.679687-28.433594 26.105468v25.722656h30.199219v-45.382812zm0 0" fill="#3a0f8d" data-original="#3a0f8d"></path><path xmlns="http://www.w3.org/2000/svg" d="m38.25 376.496094c8.394531 13.171875 18.015625 25.484375 28.699219 36.785156 1.675781.253906 3.390625.386719 5.136719.386719h406.078124c18.6875 0 33.835938-15.148438 33.835938-33.835938v-29.058593h-473.75zm0 0" fill="#e6fcff" data-original="#e6fcff"></path><path xmlns="http://www.w3.org/2000/svg" d="m95.835938 379.835938v-29.0625h-57.585938v25.722656c8.394531 13.171875 18.015625 25.484375 28.699219 36.785156 1.675781.253906 3.390625.386719 5.136719.386719h57.585937c-18.6875 0-33.835937-15.148438-33.835937-33.832031zm0 0" fill="#ccebff" data-original="#ccebff"></path><path xmlns="http://www.w3.org/2000/svg" d="m284.253906 382.222656c0 7.5625-6.128906 13.691406-13.695312 13.691406-7.5625 0-13.695313-6.128906-13.695313-13.691406 0-7.566406 6.132813-13.695312 13.695313-13.695312 7.566406 0 13.695312 6.128906 13.695312 13.695312zm0 0" fill="#ccebff" data-original="#ccebff"></path><path xmlns="http://www.w3.org/2000/svg" d="m100.90625 87.625c-5.640625 0-10.144531-4.613281-10.144531-10.144531 0-6.488281 5.972656-11.179688 12.132812-9.953125 4.777344.972656 8.15625 5.132812 8.15625 9.953125 0 5.59375-4.542969 10.144531-10.144531 10.144531zm0 0" fill="#fe4675" data-original="#fe4675"></path><path xmlns="http://www.w3.org/2000/svg" d="m137.597656 87.625c-6.320312 0-11.21875-5.796875-9.949218-12.132812 1.167968-5.671876 6.613281-9.035157 11.929687-7.964844 4.847656.988281 8.15625 5.203125 8.15625 9.953125 0 5.6875-4.640625 10.144531-10.136719 10.144531zm0 0" fill="#ffe600" data-original="#ffe600"></path><path xmlns="http://www.w3.org/2000/svg" d="m174.28125 87.625c-5.585938 0-10.144531-4.558594-10.144531-10.144531 0-6.472657 5.964843-11.195313 12.121093-9.953125 4.890626.996094 8.167969 5.253906 8.167969 9.953125 0 5.578125-4.558593 10.144531-10.144531 10.144531zm0 0" fill="#a5c013" data-original="#a5c013"></path><path xmlns="http://www.w3.org/2000/svg" d="m362.5 298.828125h-183.878906c-6.695313 0-12.171875-5.480469-12.171875-12.175781v-145.066406c0-6.695313 5.476562-12.171876 12.171875-12.171876h183.878906c6.695312 0 12.171875 5.476563 12.171875 12.171876v145.066406c0 6.695312-5.476563 12.175781-12.171875 12.175781zm0 0" fill="#f4b500" data-original="#f4b500"></path><path xmlns="http://www.w3.org/2000/svg" d="m201.945312 286.652344v-145.066406c0-6.695313 5.480469-12.171876 12.175782-12.171876h-35.5c-6.695313 0-12.175782 5.476563-12.175782 12.171876v145.066406c0 6.695312 5.480469 12.175781 12.175782 12.175781h35.5c-6.695313 0-12.175782-5.480469-12.175782-12.175781zm0 0" fill="#ee9d00" data-original="#ee9d00"></path><path xmlns="http://www.w3.org/2000/svg" d="m284.441406 214.5625c-8.097656 6.546875-19.667968 6.546875-27.761718 0l-90.230469-72.976562c0-6.695313 5.476562-12.171876 12.171875-12.171876h183.878906c6.695312 0 12.171875 5.476563 12.171875 12.171876zm0 0" fill="#ffe600" data-original="#ffe600"></path><path xmlns="http://www.w3.org/2000/svg" d="m166.445312 141.585938 35.5 28.710937v-28.710937c0-6.695313 5.480469-12.171876 12.175782-12.171876h-35.5c-6.695313 0-12.175782 5.476563-12.175782 12.171876zm0 0" fill="#f9ce00" data-original="#f9ce00"></path><path xmlns="http://www.w3.org/2000/svg" d="m284.441406 214.5625c-8.097656 6.546875-19.667968 6.546875-27.761718 0l-.542969-.441406-89.691407 72.53125c0 6.695312 5.480469 12.171875 12.175782 12.171875h183.875c6.695312 0 12.175781-5.476563 12.175781-12.171875l-89.6875-72.53125zm0 0" fill="#f9ce00" data-original="#f9ce00"></path><path xmlns="http://www.w3.org/2000/svg" d="m201.945312 286.652344v-28.707032l-35.5 28.707032c0 6.738281 5.542969 12.175781 12.175782 12.175781h35.5c-6.695313 0-12.175782-5.480469-12.175782-12.175781zm0 0" fill="#f4b500" data-original="#f4b500"></path><path xmlns="http://www.w3.org/2000/svg" d="m437.296875 177.640625h-152.101563c-5.539062 0-10.070312-4.53125-10.070312-10.070313v-119.996093c0-5.535157 4.53125-10.066407 10.070312-10.066407h152.101563c5.535156 0 10.066406 4.527344 10.066406 10.066407v119.996093c0 5.539063-4.53125 10.070313-10.066406 10.070313zm0 0" fill="#f4b500" data-original="#f4b500"></path><path xmlns="http://www.w3.org/2000/svg" d="m310.625 167.574219v-120c0-5.535157 4.53125-10.066407 10.070312-10.066407h-35.5c-5.539062 0-10.070312 4.527344-10.070312 10.066407v119.996093c0 5.539063 4.53125 10.070313 10.070312 10.070313h35.5c-5.539062 0-10.070312-4.53125-10.070312-10.066406zm0 0" fill="#ee9d00" data-original="#ee9d00"></path><path xmlns="http://www.w3.org/2000/svg" d="m372.726562 107.9375c-6.695312 5.417969-16.265624 5.417969-22.960937 0l-74.640625-60.363281c0-5.535157 4.53125-10.066407 10.070312-10.066407h152.101563c5.539063 0 10.070313 4.527344 10.070313 10.066407zm0 0" fill="#ffe600" data-original="#ffe600"></path><path xmlns="http://www.w3.org/2000/svg" d="m275.125 47.574219 35.5 28.710937v-28.710937c0-5.535157 4.53125-10.066407 10.070312-10.066407h-35.5c-5.539062 0-10.070312 4.53125-10.070312 10.066407zm0 0" fill="#f9ce00" data-original="#f9ce00"></path><path xmlns="http://www.w3.org/2000/svg" d="m372.726562 107.9375c-6.695312 5.417969-16.265624 5.417969-22.960937 0l-.453125-.363281-74.1875 60c0 5.535156 4.53125 10.070312 10.070312 10.070312h152.101563c5.535156 0 10.066406-4.53125 10.066406-10.070312l-74.183593-60zm0 0" fill="#f9ce00" data-original="#f9ce00"></path><path xmlns="http://www.w3.org/2000/svg" d="m285.195312 177.640625h35.5c-5.539062 0-10.070312-4.53125-10.070312-10.070313v-28.707031l-35.5 28.707031c0 2.769532 1.132812 5.289063 2.960938 7.113282 1.820312 1.824218 4.339843 2.957031 7.109374 2.957031zm0 0" fill="#f4b500" data-original="#f4b500"></path></g></svg>