<?xml version="1.0" encoding="utf-8"?>
<!-- Generator: Adobe Illustrator 23.0.5, SVG Export Plug-In . SVG Version: 6.00 Build 0)  -->
<svg version="1.1" id="Layer_1" xmlns:svgjs="http://svgjs.com/svgjs"
	 xmlns="http://www.w3.org/2000/svg" xmlns:xlink="http://www.w3.org/1999/xlink" x="0px" y="0px" viewBox="0 0 512 512"
	 style="enable-background:new 0 0 512 512;" xml:space="preserve">
<style type="text/css">
	.st0{fill:#77ECF2;}
	.st1{fill:#FFFFFF;}
</style>
<g>
	<path class="st0" d="M416,512H96c-53,0-96-43-96-96V96C0,43,43,0,96,0h320c53,0,96,43,96,96v320C512,469,469,512,416,512z"/>
	<path class="st1" d="M256,52.8c-117.1,0-212,93.3-212,208.3c0,92.1,60.7,170.1,145,197.6c10.6,2,14.5-4.5,14.5-10
		c0-5-0.2-18-0.3-35.4c-59,12.6-71.4-28-71.4-28c-9.6-24-23.6-30.5-23.6-30.5c-19.2-12.9,1.5-12.7,1.5-12.7
		c21.3,1.5,32.5,21.5,32.5,21.5c18.9,31.9,49.6,22.7,61.7,17.3c1.9-13.5,7.4-22.7,13.4-27.9c-47.1-5.2-96.6-23.1-96.6-103
		c0-22.7,8.2-41.3,21.8-55.9c-2.4-5.2-9.5-26.4,1.9-55.1c0,0,17.8-5.6,58.3,21.4c17-4.6,35-6.9,53-7c18,0.1,36,2.4,53,7
		c40.3-27,58-21.4,58-21.4c11.4,28.7,4.2,49.9,2.1,55.1c13.5,14.6,21.7,33.2,21.7,55.9c0,80-49.6,97.7-96.7,102.8
		c7.4,6.3,14.3,19,14.3,38.5c0,27.9-0.3,50.3-0.3,57.1c0,5.5,3.7,12,14.6,9.9C407.3,431.2,468,353.1,468,261.2
		C468,146.1,373.1,52.8,256,52.8L256,52.8z"/>
</g>
</svg>
