<svg xmlns="http://www.w3.org/2000/svg" version="1.1" xmlns:xlink="http://www.w3.org/1999/xlink" xmlns:svgjs="http://svgjs.com/svgjs" width="512" height="512" x="0" y="0" viewBox="0 0 512 512" style="enable-background:new 0 0 512 512" xml:space="preserve" class=""><g>
<circle xmlns="http://www.w3.org/2000/svg" style="" cx="256" cy="267" r="245" fill="#a53535" data-original="#a53535"></circle>
<circle xmlns="http://www.w3.org/2000/svg" style="" cx="80.38" cy="257.24" r="34.503" fill="#ffd00d" data-original="#ffd00d"></circle>
<path xmlns="http://www.w3.org/2000/svg" style="" d="M65.723,257.242c0-15.606,10.364-28.786,24.582-33.048c-3.143-0.942-6.472-1.455-9.922-1.455  c-19.055,0-34.503,15.448-34.503,34.503s15.448,34.503,34.503,34.503c3.45,0,6.779-0.513,9.922-1.455  C76.087,286.027,65.723,272.848,65.723,257.242z" fill="#ffaf10" data-original="#ffaf10"></path>
<path xmlns="http://www.w3.org/2000/svg" style="" d="M407.896,185.208c-43.599,0-80.219-30.452-89.711-71.203H106.273c-5.5,0-10,4.5-10,10v116.976  c0,5.5,4.5,10,10,10h299.453c5.5,0,10-4.5,10-10v-56.109C413.145,185.09,410.533,185.208,407.896,185.208z" fill="#91e0e8" data-original="#91e0e8"></path>
<path xmlns="http://www.w3.org/2000/svg" style="" d="M116.116,240.981V124.005c0-5.5,4.5-10,10-10h-19.843c-5.5,0-10,4.5-10,10v116.976  c0,5.5,4.5,10,10,10h19.843C120.616,250.981,116.116,246.481,116.116,240.981z" fill="#5dc1d8" data-original="#5dc1d8"></path>
<path xmlns="http://www.w3.org/2000/svg" style="" d="M235.499,458.876v52.263C242.26,511.699,249.095,512,256,512c34.653,0,67.618-7.21,97.499-20.187  v-32.937L235.499,458.876L235.499,458.876z" fill="#37c47a" data-original="#37c47a"></path>
<path xmlns="http://www.w3.org/2000/svg" style="" d="M255.342,458.883h-19.843v52.263c6.546,0.542,13.162,0.835,19.843,0.854V458.883z" fill="#02af8e" data-original="#02af8e"></path>
<path xmlns="http://www.w3.org/2000/svg" style="" d="M355.547,410.039V284.467c0-8.25-6.75-15-15-15h-5.998c-5.931,0-11.071,3.497-13.501,8.523  c-2.43-5.026-7.57-8.523-13.501-8.523h-5.998c-5.931,0-11.071,3.497-13.501,8.523c-2.43-5.026-7.57-8.523-13.501-8.523h-5.998  c-4.901,0-9.261,2.393-12.002,6.058v-58.392c0-8.25-6.75-15-15-15h-5.998c-8.25,0-15,6.75-15,15v122.96l-16.686-16.686  c-5.834-5.833-15.379-5.833-21.213,0.001l-6.241,6.241c-5.833,5.834-5.833,15.38,0,21.213l59.177,59.177L355.547,410.039  L355.547,410.039z" fill="#ffe2b8" data-original="#ffe2b8"></path>
<path xmlns="http://www.w3.org/2000/svg" style="" d="M255.429,410.039l-59.177-59.177c-5.833-5.833-5.833-15.379,0-21.213l6.241-6.241  c0.22-0.22,0.455-0.415,0.686-0.619c-5.873-5.19-14.914-4.996-20.528,0.619l-6.241,6.241c-5.833,5.834-5.833,15.38,0,21.213  l59.177,59.177H255.429z" fill="#ffc987" data-original="#ffc987"></path>
<g xmlns="http://www.w3.org/2000/svg">
	<path style="" d="M365.499,454.876c0,2.75-2.25,5-5,5h-132c-2.75,0-5-2.25-5-5v-40.837c0-2.75,2.25-5,5-5h132   c2.75,0,5,2.25,5,5V454.876z" fill="#0f9390" data-original="#0f9390"></path>
	<path style="" d="M243.342,454.876v-40.837c0-2.75,2.25-5,5-5h-19.843c-2.75,0-5,2.25-5,5v40.837c0,2.75,2.25,5,5,5   h19.843C245.592,459.876,243.342,457.626,243.342,454.876z" fill="#0f9390" data-original="#0f9390"></path>
</g>
<g xmlns="http://www.w3.org/2000/svg">
	<circle style="" cx="339.5" cy="434.46" r="11" fill="#ffffff" data-original="#ffffff"></circle>
	<path style="" d="M237.499,188.5c-4.143,0-7.5-3.358-7.5-7.5v-15c0-4.142,3.357-7.5,7.5-7.5s7.5,3.358,7.5,7.5v15   C244.999,185.142,241.642,188.5,237.499,188.5z" fill="#ffffff" data-original="#ffffff"></path>
	<path style="" d="M262.248,198.751c-1.919,0-3.839-0.732-5.304-2.197c-2.929-2.929-2.929-7.678,0-10.606   l10.607-10.607c2.93-2.929,7.678-2.929,10.607,0s2.929,7.678,0,10.607l-10.606,10.606   C266.087,198.019,264.167,198.751,262.248,198.751z" fill="#ffffff" data-original="#ffffff"></path>
	<path style="" d="M287.499,223.5H272.5c-4.143,0-7.5-3.358-7.5-7.5s3.357-7.5,7.5-7.5h14.999   c4.143,0,7.5,3.358,7.5,7.5S291.642,223.5,287.499,223.5z" fill="#ffffff" data-original="#ffffff"></path>
	<path style="" d="M202.497,223.5h-14.998c-4.143,0-7.5-3.358-7.5-7.5s3.357-7.5,7.5-7.5h14.998   c4.143,0,7.5,3.358,7.5,7.5S206.64,223.5,202.497,223.5z" fill="#ffffff" data-original="#ffffff"></path>
	<path style="" d="M212.749,198.75c-1.919,0-3.839-0.732-5.304-2.197l-10.605-10.605   c-2.929-2.929-2.929-7.678,0-10.607c2.93-2.929,7.678-2.929,10.607,0l10.605,10.605c2.929,2.929,2.929,7.678,0,10.606   C216.588,198.018,214.668,198.75,212.749,198.75z" fill="#ffffff" data-original="#ffffff"></path>
</g>
<circle xmlns="http://www.w3.org/2000/svg" style="" cx="407.9" cy="93.1" r="93.1" fill="#ef9614" data-original="#ef9614"></circle>
<circle xmlns="http://www.w3.org/2000/svg" style="" cx="407.9" cy="93.1" r="66.17" fill="#ffd00d" data-original="#ffd00d"></circle>
<path xmlns="http://www.w3.org/2000/svg" style="" d="M361.569,93.104c0-33.171,24.41-60.639,56.247-65.426c-3.236-0.487-6.549-0.743-9.921-0.743  c-36.545,0-66.169,29.625-66.169,66.169s29.624,66.169,66.169,66.169c3.372,0,6.685-0.256,9.921-0.743  C385.979,153.743,361.569,126.276,361.569,93.104z" fill="#ffaf10" data-original="#ffaf10"></path>
<path xmlns="http://www.w3.org/2000/svg" style="" d="M420.896,85.937h-23.5V75.604h28.5c4.143,0,7.5-3.358,7.5-7.5s-3.357-7.5-7.5-7.5h-10.5v-6.5  c0-4.142-3.357-7.5-7.5-7.5s-7.5,3.358-7.5,7.5v6.5h-5.5c-6.893,0-12.5,5.607-12.5,12.5v15.333c0,6.893,5.607,12.5,12.5,12.5h23.5  v10.334h-28.5c-4.143,0-7.5,3.358-7.5,7.5s3.357,7.5,7.5,7.5h10.5v5.833c0,4.142,3.357,7.5,7.5,7.5s7.5-3.358,7.5-7.5v-5.833h5.5  c6.893,0,12.5-5.607,12.5-12.5V98.437C433.396,91.544,427.788,85.937,420.896,85.937z" fill="#db722c" data-original="#db722c"></path>
<circle xmlns="http://www.w3.org/2000/svg" style="" cx="92.1" cy="422.04" r="81.1" fill="#ef9614" data-original="#ef9614"></circle>
<circle xmlns="http://www.w3.org/2000/svg" style="" cx="92.1" cy="422.04" r="54.641" fill="#ffd00d" data-original="#ffd00d"></circle>
<path xmlns="http://www.w3.org/2000/svg" style="" d="M57.307,422.038c0-26.788,19.281-49.057,44.719-53.726c-3.219-0.591-6.531-0.915-9.921-0.915  c-30.178,0-54.641,24.464-54.641,54.641c0,30.178,24.463,54.641,54.641,54.641c3.39,0,6.702-0.325,9.921-0.915  C76.588,471.095,57.307,448.825,57.307,422.038z" fill="#ffaf10" data-original="#ffaf10"></path>
<path xmlns="http://www.w3.org/2000/svg" style="" d="M103.429,414.828H83.925v-7.068h23.86c4.142,0,7.5-3.358,7.5-7.5s-3.358-7.5-7.5-7.5h-8.181v-4.696  c0-4.142-3.357-7.5-7.5-7.5s-7.5,3.358-7.5,7.5v4.696H80.78c-6.537,0-11.855,5.318-11.855,11.855v13.357  c0,6.537,5.318,11.855,11.855,11.855h19.505v7.068h-23.86c-4.143,0-7.5,3.358-7.5,7.5s3.357,7.5,7.5,7.5h8.18v4.115  c0,4.142,3.357,7.5,7.5,7.5s7.5-3.358,7.5-7.5v-4.115h3.824c6.538,0,11.856-5.318,11.856-11.855v-13.357  C115.285,420.146,109.967,414.828,103.429,414.828z" fill="#db722c" data-original="#db722c"></path>
<circle xmlns="http://www.w3.org/2000/svg" style="" cx="424.39" cy="326.25" r="34.503" fill="#ffd00d" data-original="#ffd00d"></circle>
<path xmlns="http://www.w3.org/2000/svg" style="" d="M409.728,326.247c0-15.606,10.364-28.786,24.582-33.048c-3.142-0.942-6.472-1.455-9.922-1.455  c-19.055,0-34.503,15.448-34.503,34.503c0,19.056,15.448,34.503,34.503,34.503c3.45,0,6.779-0.513,9.922-1.455  C420.093,355.032,409.728,341.853,409.728,326.247z" fill="#ffaf10" data-original="#ffaf10"></path>
<g xmlns="http://www.w3.org/2000/svg">
</g>
<g xmlns="http://www.w3.org/2000/svg">
</g>
<g xmlns="http://www.w3.org/2000/svg">
</g>
<g xmlns="http://www.w3.org/2000/svg">
</g>
<g xmlns="http://www.w3.org/2000/svg">
</g>
<g xmlns="http://www.w3.org/2000/svg">
</g>
<g xmlns="http://www.w3.org/2000/svg">
</g>
<g xmlns="http://www.w3.org/2000/svg">
</g>
<g xmlns="http://www.w3.org/2000/svg">
</g>
<g xmlns="http://www.w3.org/2000/svg">
</g>
<g xmlns="http://www.w3.org/2000/svg">
</g>
<g xmlns="http://www.w3.org/2000/svg">
</g>
<g xmlns="http://www.w3.org/2000/svg">
</g>
<g xmlns="http://www.w3.org/2000/svg">
</g>
<g xmlns="http://www.w3.org/2000/svg">
</g>
</g></svg>