<svg xmlns="http://www.w3.org/2000/svg" version="1.1" xmlns:xlink="http://www.w3.org/1999/xlink" xmlns:svgjs="http://svgjs.com/svgjs" width="512" height="512" x="0" y="0" viewBox="0 0 512 512" style="enable-background:new 0 0 512 512" xml:space="preserve" class=""><g><g xmlns="http://www.w3.org/2000/svg"><g><path d="m53.374 282.6c-2.963 0-5.374-2.41-5.374-5.373v-84.853c0-2.963 2.411-5.374 5.374-5.374h43.054v-100.682l-1-4.363c-51.722 44.92-84.428 111.162-84.428 185.045s32.706 140.125 84.428 185.045l1-4.757v-164.688z" fill="#fed402" data-original="#fed402" class=""></path><g><path d="m137.9 479-3.028 1c35.726 20.36 77.066 32 121.128 32s85.402-11.64 121.128-32l-3.028-1z" fill="#fed402" data-original="#fed402" class=""></path></g><path d="m455 124.074v41.301c0 3.008-2.446 5.454-5.454 5.454h-33.974v276.829l1 4.387c51.721-44.92 84.428-111.162 84.428-185.045 0-53.343-17.055-102.698-46-142.926z" fill="#fed402" data-original="#fed402" class=""></path></g><path d="m363.625 170.829c-3.008 0-5.454-2.446-5.454-5.454v-27.012c0-1.506-.81-2.908-2.113-3.66l-17.944-10.36c-.697-.402-1.113-1.124-1.113-1.929s.416-1.525 1.113-1.928l17.944-10.36c1.304-.752 2.113-2.154 2.113-3.661v-27.011c0-3.008 2.446-5.454 5.454-5.454h52.947v-23l-5.352-1h-310.44l-5.352 1v136h42.799c2.963 0 5.373 2.411 5.373 5.374v26.675c0 1.491.803 2.88 2.094 3.626l17.721 10.231c.685.396 1.094 1.104 1.094 1.894s-.409 1.498-1.094 1.894l-17.721 10.231c-1.291.746-2.094 2.135-2.094 3.626v26.676c0 2.963-2.41 5.373-5.373 5.373h-42.799v169.446c12.156 10.557 25.365 19.931 39.444 27.955h242.256c14.079-8.024 27.288-17.397 39.444-27.955v-281.217z" fill="#f5f8f9" data-original="#f5f8f9"></path><g fill="#e8edf2"><path d="m125 187v-90c0-2.761 2.239-5 5-5h17.856v-41h-52.428v136z" fill="#e8edf2" data-original="#e8edf2" class=""></path><path d="m125 342v-59.4h-29.572v169.446c12.156 10.557 25.365 19.931 39.444 27.955h12.984v-133.001h-17.856c-2.761 0-5-2.239-5-5z" fill="#e8edf2" data-original="#e8edf2" class=""></path></g><g><path d="m416.572 51h-321.144v-36c0-8.284 6.716-15 15-15h291.144c8.284 0 15 6.716 15 15z" fill="#596ca9" data-original="#596ca9"></path></g><g><path d="m162.856 0h-52.428c-8.284 0-15 6.716-15 15v36h52.428v-36c0-8.284 6.716-15 15-15z" fill="#465a94" data-original="#465a94"></path></g><g><g><circle cx="339.5" cy="22.5" fill="#b6c4ff" r="7.5" data-original="#b6c4ff"></circle></g><g><circle cx="363.5" cy="22.5" fill="#b6c4ff" r="7.5" data-original="#b6c4ff"></circle></g><g><circle cx="387.5" cy="22.5" fill="#b6c4ff" r="7.5" data-original="#b6c4ff"></circle></g></g><path d="m363.625 170.829c-3.008 0-5.454-2.446-5.454-5.454v-27.012c0-1.506-.81-2.908-2.113-3.66l-17.944-10.36c-.697-.402-1.113-1.124-1.113-1.929s.416-1.525 1.113-1.928l17.944-10.36c1.304-.752 2.113-2.154 2.113-3.661v-14.465h-228.171c-2.761 0-5 2.239-5 5v90h13.227c2.963 0 5.373 2.411 5.373 5.374v26.675c0 1.491.803 2.88 2.094 3.626l17.721 10.231c.685.396 1.094 1.104 1.094 1.894s-.409 1.498-1.094 1.894l-17.721 10.231c-1.291.746-2.094 2.135-2.094 3.626v26.676c0 2.963-2.41 5.373-5.373 5.373h-13.227v59.4c0 2.761 2.239 5 5 5h186.461c-3.163-6.153-4.961-13.118-4.961-20.5 0-24.813 20.187-45 45-45 11.76 0 22.475 4.539 30.5 11.951v-122.622z" fill="#c4e2ff" data-original="#c4e2ff"></path><g fill="#b3dafe"><path d="m138.227 187c2.963 0 5.373 2.411 5.373 5.374v26.675c0 1.491.803 2.88 2.094 3.626l9.307 5.373v-131.048c0-2.761 2.239-5 5-5h-30c-2.761 0-5 2.239-5 5v90z" fill="#b3dafe" data-original="#b3dafe"></path><path d="m155 342v-100.449l-9.307 5.373c-1.291.746-2.094 2.135-2.094 3.626v26.676c0 2.963-2.41 5.373-5.373 5.373h-13.226v59.401c0 2.761 2.239 5 5 5h30c-2.761 0-5-2.239-5-5z" fill="#b3dafe" data-original="#b3dafe"></path></g><path d="m372.759 201.762-1.759-.345v61.687c0 2.761-2.239 5-5 5h-222.4v9.122c0 2.963-2.41 5.373-5.373 5.373h-13.227v28.401h49c2.761 0 5 2.239 5 5v31h137.461c-3.163-6.153-4.961-13.118-4.961-20.5 0-24.813 20.187-45 45-45 11.76 0 22.475 4.539 30.5 11.951v-76.728l-1-1.856z" fill="#8d9cdb" data-original="#8d9cdb"></path><g><g><path d="m199 347v-35.113c0-12.088-9.799-21.887-21.887-21.887h-52.113v21h49c2.761 0 5 2.239 5 5v31z" fill="#7a8ccb" data-original="#7a8ccb"></path></g></g><g><g><path d="m269.469 113h-9.893c-5.424-6.704-12.954-13.441-19.576-10.13-4.297 2.149-4.61 5.58-3.252 9.099-5.213-5.88-11.842-10.922-17.748-7.969-4.257 2.128-4.604 5.516-3.291 9h-5.028c-8.057 0-14.589 6.532-14.589 14.589v63.305c2.644-1.526 5.707-2.404 8.973-2.404h3.723v-8.197c0-14.099 11.429-25.528 25.528-25.528h43.368c14.099 0 25.528 11.429 25.528 25.528v8.197h3.723c3.266 0 6.329.878 8.973 2.404v-31.456c0-25.646-20.792-46.438-46.439-46.438z" fill="#814ba2" data-original="#814ba2"></path></g><g><g><path d="m217 127.589c0-8.057 6.532-14.589 14.589-14.589h5.028c-.219-.58-.386-1.156-.502-1.725-5.111-5.572-11.444-10.11-17.115-7.275-4.257 2.128-4.604 5.516-3.291 9h-5.028c-8.057 0-14.589 6.532-14.589 14.589v63.305c2.644-1.526 5.707-2.404 8.973-2.404h3.723v-8.197c0-7.415 3.164-14.088 8.212-18.752z" fill="#6f3f8a" data-original="#6f3f8a"></path></g></g><g><g><path d="m208.788 187.68h-3.723c-10.394 0-18.821 8.426-18.821 18.821v4.212c0 10.394 8.426 18.821 18.821 18.821h3.723z" fill="#f6a96c" data-original="#f6a96c"></path></g><g><path d="m306.935 187.68h-3.723v41.854h3.723c10.394 0 18.821-8.426 18.821-18.821v-4.212c0-10.395-8.426-18.821-18.821-18.821z" fill="#ffbd86" data-original="#ffbd86"></path></g></g><g><path d="m272.183 261.549h-32.366c-.629 0-1.252-.025-1.872-.062v14.823c0 9.971 8.083 18.054 18.054 18.054 9.971 0 18.054-8.083 18.054-18.054v-14.823c-.618.038-1.241.062-1.87.062z" fill="#ffbd86" data-original="#ffbd86"></path></g><g><g><path d="m253 276.311v-14.762h-13.183c-.629 0-1.252-.025-1.872-.062v14.823c0 9.971 8.083 18.054 18.054 18.054 2.69 0 5.234-.604 7.527-1.66-6.207-2.854-10.526-9.112-10.526-16.393z" fill="#f6a96c" data-original="#f6a96c"></path></g></g><g><path d="m272.183 262.36h-32.366c-17.584 0-31.839-14.255-31.839-31.839v-50.226c0-14.546 11.792-26.339 26.339-26.339h43.368c14.546 0 26.339 11.792 26.339 26.339v50.226c-.002 17.584-14.257 31.839-31.841 31.839z" fill="#fed2a4" data-original="#fed2a4"></path></g><g><path d="m228.955 230.52v-50.226c0-14.546 11.792-26.339 26.339-26.339h-20.978c-14.546 0-26.339 11.792-26.339 26.339v50.226c0 17.584 14.255 31.84 31.839 31.84h20.978c-17.584 0-31.839-14.255-31.839-31.84z" fill="#ffbd86" data-original="#ffbd86"></path></g><g><path d="m237.857 234.457v6.025c0 6.643 5.386 12.029 12.029 12.029h12.228c6.643 0 12.029-5.386 12.029-12.029v-6.025c0-2.266-1.837-4.103-4.103-4.103h-28.08c-2.266 0-4.103 1.837-4.103 4.103z" fill="#fd8087" data-original="#fd8087"></path></g><g><path d="m254 240.483v-6.025c0-2.266 1.837-4.103 4.103-4.103h-16.143c-2.266 0-4.103 1.837-4.103 4.103v6.025c0 6.643 5.386 12.029 12.029 12.029h12.228c.668 0 1.319-.068 1.958-.173-5.711-.937-10.072-5.881-10.072-11.856z" fill="#fe646f" data-original="#fe646f"></path></g><g><g><g><path d="m229.329 211.593c-4.143 0-7.5-3.357-7.5-7.5v-12.31c0-4.143 3.357-7.5 7.5-7.5s7.5 3.357 7.5 7.5v12.31c0 4.142-3.357 7.5-7.5 7.5z" fill="#d88a55" data-original="#d88a55"></path></g></g><g><g><path d="m282.671 211.593c-4.143 0-7.5-3.357-7.5-7.5v-12.31c0-4.143 3.357-7.5 7.5-7.5s7.5 3.357 7.5 7.5v12.31c0 4.142-3.358 7.5-7.5 7.5z" fill="#d88a55" data-original="#d88a55"></path></g></g></g><g><g><path d="m255.996 225c-1.706 0-3.421-.578-4.827-1.764l-7.796-6.565c-2.698-2.271-3.448-6.117-1.802-9.236l7.796-14.772c1.933-3.663 6.469-5.069 10.133-3.133 3.664 1.933 5.066 6.47 3.133 10.133l-4.976 9.429 3.174 2.673c3.168 2.668 3.574 7.399.905 10.567-1.483 1.761-3.604 2.668-5.74 2.668z" fill="#d88a55" data-original="#d88a55"></path></g></g></g><g><g><circle cx="356.5" cy="326.5" fill="#fed402" r="46" data-original="#fed402" class=""></circle></g><g><path d="m341 326.5c0-20.058 12.843-37.108 30.75-43.4-4.774-1.677-9.903-2.6-15.25-2.6-25.405 0-46 20.595-46 46s20.595 46 46 46c5.347 0 10.476-.922 15.25-2.6-17.907-6.292-30.75-23.342-30.75-43.4z" fill="#fac600" data-original="#fac600"></path></g><g><path d="m359.102 301.036 6.505 13.181c.423.857 1.24 1.45 2.185 1.588l14.546 2.114c2.38.346 3.331 3.271 1.608 4.95l-10.525 10.26c-.684.667-.996 1.627-.835 2.569l2.485 14.487c.407 2.371-2.082 4.179-4.211 3.059l-13.01-6.84c-.845-.444-1.855-.444-2.701 0l-13.01 6.84c-2.129 1.119-4.617-.689-4.211-3.059l2.485-14.487c.161-.941-.151-1.902-.835-2.569l-10.525-10.26c-1.722-1.679-.772-4.604 1.608-4.95l14.546-2.114c.945-.137 1.762-.731 2.185-1.588l6.505-13.181c1.065-2.157 4.141-2.157 5.205 0z" fill="#ffffff" data-original="#ffffff"></path></g><g><g><path d="m352.103 345.765 2.485-14.487c.161-.941-.151-1.902-.835-2.569l-10.525-10.26c-.651-.635-.919-1.447-.874-2.231l-11.692 1.699c-2.38.346-3.331 3.271-1.608 4.95l10.525 10.26c.684.667.996 1.627.835 2.569l-2.485 14.487c-.407 2.371 2.082 4.179 4.211 3.059l10.362-5.448c-.359-.566-.53-1.268-.399-2.029z" fill="#f5f8f9" data-original="#f5f8f9"></path></g></g></g><g><path d="m301 387.5h-166c-4.143 0-7.5-3.357-7.5-7.5s3.357-7.5 7.5-7.5h166c4.143 0 7.5 3.357 7.5 7.5s-3.357 7.5-7.5 7.5z" fill="#8d9cdb" data-original="#8d9cdb"></path></g><g><path d="m374 415.5h-239c-4.143 0-7.5-3.357-7.5-7.5s3.357-7.5 7.5-7.5h239c4.143 0 7.5 3.357 7.5 7.5s-3.357 7.5-7.5 7.5z" fill="#8d9cdb" data-original="#8d9cdb"></path></g><path d="m365.755 170.829-3.345 3.345c-5.13 5.13-5.13 13.524 0 18.653l21.762 21.762c.859.859 1.816 1.561 2.827 2.133v-45.894h-21.244z" fill="#fed2a4" data-original="#fed2a4"></path><g><g><g><g><circle cx="133.5" cy="445.5" fill="#fd4755" r="7.5" data-original="#fd4755"></circle></g><g><circle cx="157.5" cy="445.5" fill="#9faced" r="7.5" data-original="#9faced"></circle></g><g><circle cx="181.5" cy="445.5" fill="#9faced" r="7.5" data-original="#9faced"></circle></g></g></g><g><g><g><circle cx="378.5" cy="445.5" fill="#9faced" r="7.5" data-original="#9faced"></circle></g></g></g></g><g><g><g><path d="m456 165.375v-85.921c0-3.564-2.89-6.454-6.454-6.454h-85.921c-3.564 0-6.454 2.89-6.454 6.454v27.011c0 1.153-.615 2.218-1.613 2.795l-17.944 10.36c-2.151 1.242-2.151 4.347 0 5.589l17.944 10.36c.998.576 1.613 1.642 1.613 2.795v27.011c0 3.564 2.89 6.454 6.454 6.454h85.921c3.564 0 6.454-2.89 6.454-6.454z" fill="#fd4755" data-original="#fd4755"></path></g></g><g><path d="m387 165.375v-85.921c0-3.564 2.89-6.454 6.454-6.454h-29.829c-3.564 0-6.454 2.89-6.454 6.454v27.011c0 1.153-.615 2.218-1.614 2.795l-17.944 10.36c-2.151 1.242-2.151 4.347 0 5.589l17.944 10.36c.998.576 1.614 1.642 1.614 2.795v27.011c0 3.564 2.889 6.454 6.454 6.454h29.829c-3.564 0-6.454-2.89-6.454-6.454z" fill="#fb2b3a" data-original="#fb2b3a"></path></g><g><g><path d="m435.826 101.838c-5.728-5.728-15.014-5.728-20.742 0l-7.051 7.051-7.051-7.051c-5.728-5.728-15.014-5.728-20.742 0-5.728 5.728-5.728 15.014 0 20.742l27.793 27.793 27.793-27.793c5.727-5.728 5.727-15.015 0-20.742z" fill="#ffffff" data-original="#ffffff"></path></g></g><g><g><path d="m397.203 116.122c-4.857-4.857-5.579-12.265-2.199-17.9-5.043-1.579-10.769-.38-14.764 3.616-5.728 5.728-5.728 15.014 0 20.742l27.793 27.793 11.71-11.71z" fill="#f5f8f9" data-original="#f5f8f9"></path></g></g></g><g><g><g><path d="m47 277.226v-84.852c0-3.52 2.854-6.374 6.374-6.374h84.852c3.52 0 6.374 2.854 6.374 6.374v26.675c0 1.139.607 2.191 1.593 2.76l17.721 10.231c2.125 1.227 2.125 4.293 0 5.52l-17.721 10.231c-.986.569-1.593 1.621-1.593 2.76v26.675c0 3.52-2.854 6.374-6.374 6.374h-84.852c-3.52 0-6.374-2.854-6.374-6.374z" fill="#fd4755" data-original="#fd4755"></path></g></g><g><path d="m78.508 277.226v-84.852c0-3.52 2.854-6.374 6.374-6.374h-31.508c-3.52 0-6.374 2.854-6.374 6.374v84.852c0 3.52 2.854 6.374 6.374 6.374h31.508c-3.521 0-6.374-2.854-6.374-6.374z" fill="#fb2b3a" data-original="#fb2b3a"></path></g><g><g><path d="m66.923 214.479c5.657-5.657 14.828-5.657 20.484 0l6.963 6.963 6.963-6.963c5.657-5.656 14.827-5.656 20.484 0 5.657 5.656 5.657 14.827 0 20.484l-27.446 27.447-27.447-27.447c-5.657-5.656-5.657-14.827-.001-20.484z" fill="#ffffff" data-original="#ffffff"></path></g></g><g><g><path d="m83.561 228.916c-4.884-4.884-5.541-12.385-1.99-17.984-4.997-1.591-10.683-.416-14.647 3.547-5.656 5.656-5.656 14.827 0 20.484l27.447 27.447 11.342-11.342z" fill="#f5f8f9" data-original="#f5f8f9"></path></g></g></g><g><g><path d="m187.161 169.388c-10.234 3.189-13.584 6.539-16.773 16.773-.293.939-1.618.939-1.911 0-3.189-10.234-6.539-13.584-16.773-16.773-.939-.293-.939-1.618 0-1.911 10.234-3.189 13.584-6.539 16.773-16.773.293-.939 1.618-.939 1.911 0 3.189 10.234 6.539 13.584 16.773 16.773.939.293.939 1.618 0 1.911z" fill="#ffffff" data-original="#ffffff"></path></g></g><g><g><path d="m357.296 239.388c-10.234 3.189-13.584 6.539-16.773 16.773-.293.939-1.618.939-1.911 0-3.189-10.234-6.539-13.584-16.773-16.773-.939-.293-.939-1.618 0-1.911 10.234-3.189 13.584-6.539 16.773-16.773.293-.939 1.618-.939 1.911 0 3.189 10.234 6.539 13.584 16.773 16.773.939.293.939 1.618 0 1.911z" fill="#ffffff" data-original="#ffffff"></path></g></g></g></g></svg>