<svg xmlns="http://www.w3.org/2000/svg" version="1.1" xmlns:xlink="http://www.w3.org/1999/xlink" xmlns:svgjs="http://svgjs.com/svgjs" width="512" height="512" x="0" y="0" viewBox="0 0 512 512" style="enable-background:new 0 0 512 512" xml:space="preserve" class=""><g>
<path xmlns="http://www.w3.org/2000/svg" style="" d="M407,512H105C47.103,512,0,464.897,0,407V105C0,47.103,47.103,0,105,0h302  c57.897,0,105,47.103,105,105v302C512,464.897,464.897,512,407,512z" fill="#00c3ff" data-original="#00c3ff" class=""></path>
<path xmlns="http://www.w3.org/2000/svg" style="" d="M407,0H256v512h151c57.897,0,105-47.103,105-105V105C512,47.103,464.897,0,407,0z" fill="#00aaf0" data-original="#00aaf0"></path>
<path xmlns="http://www.w3.org/2000/svg" style="" d="M411,161v170c0,2.542-0.638,4.935-1.754,7.033l-92.075-92.074l92.047-92.048  C410.354,156.022,411,158.435,411,161z" fill="#f2f2f2" data-original="#f2f2f2"></path>
<g xmlns="http://www.w3.org/2000/svg">
	<path style="" d="M101,331V161c0-2.542,0.638-4.935,1.754-7.033L194.787,246l-92.033,92.033   C101.638,335.935,101,333.542,101,331z" fill="#ffffff" data-original="#ffffff"></path>
	<polygon style="" points="255.958,264.745 137.213,146 374.704,146  " fill="#ffffff" data-original="#ffffff"></polygon>
	<polygon style="" points="216,267.213 255.958,307.172 295.958,267.172 374.787,346 137.213,346  " fill="#ffffff" data-original="#ffffff"></polygon>
</g>
<g xmlns="http://www.w3.org/2000/svg">
	<polygon style="" points="295.958,267.172 256,307.13 256,346 374.787,346  " fill="#f2f2f2" data-original="#f2f2f2"></polygon>
	<polygon style="" points="256,264.704 374.704,146 256,146  " fill="#f2f2f2" data-original="#f2f2f2"></polygon>
</g>
<g xmlns="http://www.w3.org/2000/svg">
</g>
<g xmlns="http://www.w3.org/2000/svg">
</g>
<g xmlns="http://www.w3.org/2000/svg">
</g>
<g xmlns="http://www.w3.org/2000/svg">
</g>
<g xmlns="http://www.w3.org/2000/svg">
</g>
<g xmlns="http://www.w3.org/2000/svg">
</g>
<g xmlns="http://www.w3.org/2000/svg">
</g>
<g xmlns="http://www.w3.org/2000/svg">
</g>
<g xmlns="http://www.w3.org/2000/svg">
</g>
<g xmlns="http://www.w3.org/2000/svg">
</g>
<g xmlns="http://www.w3.org/2000/svg">
</g>
<g xmlns="http://www.w3.org/2000/svg">
</g>
<g xmlns="http://www.w3.org/2000/svg">
</g>
<g xmlns="http://www.w3.org/2000/svg">
</g>
<g xmlns="http://www.w3.org/2000/svg">
</g>
</g></svg>