<svg xmlns="http://www.w3.org/2000/svg" version="1.1" xmlns:xlink="http://www.w3.org/1999/xlink" xmlns:svgjs="http://svgjs.com/svgjs" width="512" height="512" x="0" y="0" viewBox="0 0 512 512" style="enable-background:new 0 0 512 512" xml:space="preserve" class=""><g><g xmlns="http://www.w3.org/2000/svg"><path d="m256 22c-135.31 0-245 109.69-245 245s109.69 245 245 245c69.421 0 132.091-28.88 176.671-75.272l-1.529-2.943-71.574-71.573c-3.509-3.509-3.509-9.219 0-12.728l28.819-28.819c1.7-1.7 3.96-2.636 6.364-2.636s4.664.937 6.364 2.636l66.367 66.367 1.873.459c20.138-35.58 31.645-76.689 31.645-120.491 0-135.31-109.69-245-245-245z" fill="#fed2a4" data-original="#fed2a4"></path><g><circle cx="256" cy="267" fill="#ffbd86" r="177" data-original="#ffbd86"></circle></g><g><g><path d="m262 475.18h-212.419c-5.523 0-10-4.477-10-10v-133.18c0-5.523 4.477-10 10-10h212.419c5.523 0 10 4.477 10 10v133.18c0 5.523-4.477 10-10 10z" fill="#fe5694" data-original="#fe5694"></path></g><path d="m73.581 465.18v-133.18c0-5.523 4.477-10 10-10h-34c-5.523 0-10 4.477-10 10v133.18c0 5.523 4.477 10 10 10h34c-5.523 0-10-4.477-10-10z" fill="#fd3581" data-original="#fd3581"></path><g><g><path d="m232.291 373.5h-153c-1.657 0-3-1.343-3-3v-9c0-1.657 1.343-3 3-3h153c1.657 0 3 1.343 3 3v9c0 1.657-1.344 3-3 3z" fill="#ffffff" data-original="#ffffff"></path></g><g><path d="m232.291 408.473h-49.946c-1.657 0-3-1.343-3-3v-4c0-1.657 1.343-3 3-3h49.946c1.657 0 3 1.343 3 3v4c0 1.657-1.344 3-3 3z" fill="#ffffff" data-original="#ffffff"></path></g><g><path d="m160.196 408.473h-80.905c-1.657 0-3-1.343-3-3v-4c0-1.657 1.343-3 3-3h80.906c1.657 0 3 1.343 3 3v4c-.001 1.657-1.344 3-3.001 3z" fill="#ffffff" data-original="#ffffff"></path></g><g><g><path d="m232.291 444.278h-153c-1.657 0-3-1.343-3-3v-4c0-1.657 1.343-3 3-3h153c1.657 0 3 1.343 3 3v4c0 1.657-1.344 3-3 3z" fill="#ffffff" data-original="#ffffff"></path></g></g></g></g><g><path d="m386.509 322.544-36.35-36.35c-7.134 9.483-15.578 17.927-25.061 25.061l36.35 36.35z" fill="#8d9ca8" data-original="#8d9ca8"></path><path d="m371.996 337.056-35.49-35.49c-3.605 3.449-7.414 6.684-11.408 9.688l36.35 36.35z" fill="#7a8c98" data-original="#7a8c98"></path><g><path d="m469.356 387.491-67.533-67.533c-3.905-3.905-10.237-3.905-14.142 0l-28.819 28.819c-3.905 3.905-3.905 10.237 0 14.142l73.81 73.81c14.183-14.761 26.53-31.296 36.684-49.238z" fill="#596c76" data-original="#596c76"></path></g><path d="m390.505 362.919c-3.905-3.905-3.905-10.237 0-14.142l20.068-20.068-8.751-8.751c-3.905-3.905-10.237-3.905-14.142 0l-28.819 28.819c-3.905 3.905-3.905 10.237 0 14.142l73.81 73.81c5.179-5.389 10.106-11.021 14.778-16.866z" fill="#465a61" data-original="#465a61"></path><g><g><circle cx="249.758" cy="210.854" fill="#af66da" r="126.576" data-original="#af66da"></circle></g><path d="m148.849 210.854c0-65.574 49.864-119.5 113.742-125.932-4.22-.425-8.501-.644-12.833-.644-69.906 0-126.576 56.67-126.576 126.576s56.67 126.576 126.576 126.576c4.332 0 8.613-.219 12.833-.644-63.878-6.433-113.742-60.359-113.742-125.932z" fill="#9857bd" data-original="#9857bd"></path><g><circle cx="249.758" cy="210.854" fill="#c8effe" r="88.603" data-original="#c8effe"></circle></g><g><path d="m203.794 210.854c0-41.583 28.648-76.47 67.283-86.014-6.83-1.687-13.969-2.588-21.32-2.588-48.934 0-88.603 39.669-88.603 88.603s39.669 88.603 88.603 88.603c7.351 0 14.49-.901 21.32-2.588-38.634-9.546-67.283-44.433-67.283-86.016z" fill="#99e6fc" data-original="#99e6fc"></path></g></g></g><g><g><circle cx="356.7" cy="102.518" fill="#0ed290" r="102.518" data-original="#0ed290"></circle></g><path d="m275.964 102.518c0-52.94 40.129-96.503 91.627-101.942-3.579-.378-7.212-.576-10.891-.576-56.619 0-102.518 45.899-102.518 102.518s45.899 102.518 102.518 102.518c3.679 0 7.312-.198 10.891-.576-51.498-5.439-91.627-49.002-91.627-101.942z" fill="#00c285" data-original="#00c285"></path><g><circle cx="356.7" cy="102.518" fill="#ffffff" r="72.481" data-original="#ffffff"></circle></g><path d="m310 102.518c0-35.628 25.714-65.23 59.59-71.315-4.186-.752-8.489-1.166-12.891-1.166-40.03 0-72.481 32.451-72.481 72.481s32.451 72.481 72.481 72.481c4.402 0 8.705-.414 12.891-1.166-33.876-6.085-59.59-35.687-59.59-71.315z" fill="#f2fbff" data-original="#f2fbff"></path><g><g><path d="m361.579 155.257h-14c-1.657 0-3-1.343-3-3v-14c0-1.657 1.343-3 3-3h14c1.657 0 3 1.343 3 3v14c0 1.657-1.343 3-3 3z" fill="#00c285" data-original="#00c285"></path></g><g><path d="m361.579 125.387h-14c-1.657 0-3-1.343-3-3v-14.16c0-7.127 5.668-13.222 12.794-13.161 7.002.059 12.721-5.603 12.753-12.584.032-7.069-5.962-12.702-13.031-12.702h-18.095c-1.657 0-3-1.343-3-3v-14c0-1.657 1.343-3 3-3h17.842c17.826 0 32.846 14.024 33.274 31.844.382 15.914-10.689 29.361-25.537 32.666v8.098c0 1.656-1.343 2.999-3 2.999z" fill="#00c285" data-original="#00c285"></path></g></g></g></g></g></svg>