<svg xmlns="http://www.w3.org/2000/svg" version="1.1" xmlns:xlink="http://www.w3.org/1999/xlink" xmlns:svgjs="http://svgjs.com/svgjs" width="512" height="512" x="0" y="0" viewBox="0 0 512 512" style="enable-background:new 0 0 512 512" xml:space="preserve" class=""><g><path xmlns="http://www.w3.org/2000/svg" d="m487 15v369.019531c0 15.25-8.941406 29.230469-22.761719 35.628907l-191.777343 88.722656c-5.230469 2.417968-10.839844 3.628906-16.460938 3.628906s-11.230469-1.210938-16.460938-3.628906l-191.777343-88.722656c-13.820313-6.398438-22.761719-20.378907-22.761719-35.628907v-369.019531zm0 0" fill="#d080ff" data-original="#d080ff" class=""></path><path xmlns="http://www.w3.org/2000/svg" d="m487 15v369.019531c0 15.25-8.941406 29.230469-22.761719 35.628907l-191.777343 88.722656c-5.230469 2.417968-10.839844 3.628906-16.460938 3.628906v-497zm0 0" fill="#ce57ea" data-original="#ce57ea"></path><path xmlns="http://www.w3.org/2000/svg" d="m512 15c0 8.28125-6.71875 15-15 15h-482c-8.28125 0-15-6.71875-15-15s6.71875-15 15-15h482c8.28125 0 15 6.71875 15 15zm0 0" fill="#15576a" data-original="#15576a"></path><path xmlns="http://www.w3.org/2000/svg" d="m385.800781 331.429688c0 8.289062-6.722656 15-15 15h-223.480469c-8.28125 0-15-6.710938-15-15 0-8.28125 6.71875-15 15-15h223.480469c8.277344 0 15 6.71875 15 15zm0 0" fill="#ffffff" data-original="#ffffff"></path><path xmlns="http://www.w3.org/2000/svg" d="m339.273438 139.722656c-25.65625 0-46.527344 20.871094-46.527344 46.523438v63.050781c0 25.652344 20.871094 46.523437 46.527344 46.523437 25.652343 0 46.523437-20.871093 46.523437-46.523437v-63.050781c0-25.652344-20.871094-46.523438-46.523437-46.523438zm16.523437 109.574219c0 9.109375-7.414063 16.523437-16.523437 16.523437-9.113282 0-16.527344-7.414062-16.527344-16.523437v-63.050781c0-9.109375 7.414062-16.523438 16.527344-16.523438 9.109374 0 16.523437 7.414063 16.523437 16.523438zm0 0" fill="#f7f2e7" data-original="#f7f2e7"></path><path xmlns="http://www.w3.org/2000/svg" d="m147.320312 295.820312c8.285157 0 15-6.714843 15-15v-126.097656c0-8.285156-6.714843-15-15-15-8.285156 0-15 6.714844-15 15v126.097656c0 8.285157 6.714844 15 15 15zm0 0" fill="#ffffff" data-original="#ffffff"></path><path xmlns="http://www.w3.org/2000/svg" d="m385.800781 331.429688c0 8.289062-6.722656 15-15 15h-114.800781v-30h114.800781c8.277344 0 15 6.71875 15 15zm0 0" fill="#f7f2e7" data-original="#f7f2e7"></path><path xmlns="http://www.w3.org/2000/svg" d="m512 15c0 8.28125-6.71875 15-15 15h-241v-30h241c8.28125 0 15 6.71875 15 15zm0 0" fill="#24416c" data-original="#24416c"></path><path xmlns="http://www.w3.org/2000/svg" d="m274.898438 249.300781c0 15.308594-7.4375 28.917969-18.898438 37.410157-7.730469 5.71875-17.289062 9.109374-27.628906 9.109374-25.652344 0-46.519532-20.871093-46.519532-46.519531v-63.050781c0-25.660156 20.867188-46.53125 46.519532-46.53125 10.339844 0 19.898437 3.390625 27.628906 9.109375 11.460938 8.492187 18.898438 22.101563 18.898438 37.421875 0 8.277344-6.71875 15-15 15-1.347657 0-2.660157-.179688-3.898438-.511719-6.398438-1.71875-11.101562-7.558593-11.101562-14.488281 0-9.109375-7.417969-16.53125-16.527344-16.53125s-16.519532 7.421875-16.519532 16.53125v63.050781c0 9.109375 7.410157 16.519531 16.519532 16.519531s16.527344-7.410156 16.527344-16.519531c0-6.941406 4.703124-12.773437 11.101562-14.492187 1.238281-.328125 2.550781-.507813 3.898438-.507813 8.28125 0 15 6.710938 15 15zm0 0" fill="#ffffff" data-original="#ffffff"></path><g xmlns="http://www.w3.org/2000/svg" fill="#f7f2e7"><path d="m274.898438 249.300781c0 15.308594-7.4375 28.917969-18.898438 37.410157v-51.902344c1.238281-.328125 2.550781-.507813 3.898438-.507813 8.28125 0 15 6.710938 15 15zm0 0" fill="#f7f2e7" data-original="#f7f2e7"></path><path d="m259.898438 201.25c-1.347657 0-2.660157-.179688-3.898438-.511719v-51.910156c11.460938 8.492187 18.898438 22.101563 18.898438 37.421875 0 8.277344-6.71875 15-15 15zm0 0" fill="#f7f2e7" data-original="#f7f2e7"></path></g></g></svg>