<?xml version="1.0" encoding="UTF-8"?>
<svg width="752pt" height="752pt" version="1.1" viewBox="0 0 752 752" xmlns="http://www.w3.org/2000/svg">
 <path d="m376.01 378.58c-29.207 0-58.746 9.8398-58.918 28.66h-0.019532v89.973c0 18.91 29.656 28.82 58.938 28.82s58.926-9.9102 58.926-28.82v-89.973h-0.007813c-0.17578-18.82-29.719-28.66-58.918-28.66zm44.719 118.62c0 5.1562-16.973 14.613-44.719 14.613-27.746 0-44.73-9.457-44.73-14.613v-10.547c11.371 6.2227 28.102 9.4258 44.73 9.4258 16.629 0 33.359-3.2031 44.719-9.4258zm0-29.93c0 5.1523-16.973 14.613-44.719 14.613-27.746 0-44.73-9.4609-44.73-14.613v-10.551c11.371 6.2148 28.102 9.4102 44.73 9.4102 16.629 0 33.359-3.2031 44.719-9.4102zm0-29.945c0 5.1523-16.973 14.613-44.719 14.613-27.746 0-44.73-9.4609-44.73-14.613v-10.539c11.371 6.2148 28.102 9.4141 44.73 9.4141 16.629 0 33.359-3.207 44.719-9.4141zm-44.719-15.324c-27.746 0-44.73-9.4531-44.73-14.605 0-5.1562 16.984-14.621 44.73-14.621 27.746 0 44.719 9.4609 44.719 14.621 0 5.1523-16.984 14.605-44.719 14.605zm188.33-74.484c0-18.918-29.652-28.82-58.926-28.82-29.297 0-58.938 9.9023-58.938 28.82v149.7c0 18.914 29.652 28.828 58.938 28.828 29.285 0 58.926-9.9102 58.926-28.828v-149.7zm-14.207 149.68c0 5.1562-16.984 14.613-44.719 14.613-27.746 0-44.73-9.457-44.73-14.613v-10.547c11.367 6.2227 28.102 9.4258 44.73 9.4258 16.629 0 33.355-3.2031 44.719-9.418zm0-29.93c0 5.1523-16.984 14.613-44.719 14.613-27.746 0-44.73-9.4609-44.73-14.613v-10.551c11.367 6.2148 28.102 9.4102 44.73 9.4102 16.629 0 33.355-3.2031 44.719-9.4102zm0-29.945c0 5.1523-16.984 14.613-44.719 14.613-27.746 0-44.73-9.4609-44.73-14.613v-10.543c11.367 6.2148 28.102 9.418 44.73 9.418 16.629 0 33.355-3.207 44.719-9.4141zm0-29.93c0 5.1523-16.984 14.613-44.719 14.613-27.746 0-44.73-9.4609-44.73-14.613v-10.555c11.367 6.2188 28.102 9.4258 44.73 9.4258 16.629 0 33.355-3.207 44.719-9.4258zm0-29.941c0 5.1523-16.984 14.613-44.719 14.613-27.746 0-44.73-9.4609-44.73-14.613v-10.551c11.367 6.2188 28.102 9.418 44.73 9.418 16.629 0 33.355-3.2031 44.719-9.4102zm-44.727-15.324c-27.746 0-44.73-9.4609-44.73-14.613 0-5.1523 16.984-14.613 44.73-14.613 27.738 0 44.719 9.4609 44.719 14.613 0.003906 5.1523-16.977 14.613-44.719 14.613zm-258.8 76.262c-29.289 0-58.934 9.8984-58.934 28.812v30.004c0 18.914 29.645 28.812 58.934 28.812 29.285 0 58.934-9.8984 58.934-28.812v-30.004c-0.003906-18.914-29.648-28.812-58.934-28.812zm44.723 58.816c0 5.1484-16.973 14.605-44.719 14.605-27.738 0-44.719-9.457-44.719-14.605v-10.609c11.359 6.2188 28.098 9.4258 44.719 9.4258 16.633 0 33.359-3.207 44.719-9.4258zm-44.723-15.391c-27.742 0-44.727-9.4609-44.727-14.613 0-5.1562 16.984-14.605 44.727-14.605 27.742 0 44.727 9.4492 44.727 14.605-0.003906 5.1523-16.984 14.613-44.727 14.613zm93.949-181.23 73.504 15.594 103.45-63.594 8.1484 13.262 21.578-39.871-45.312 1.2461 8.1484 13.27-98.621 60.629-73.504-15.594-136.88 84.145 7.4336 12.125z"/>
</svg>
