<?xml version="1.0" encoding="UTF-8"?>
<svg width="752pt" height="752pt" version="1.1" viewBox="0 0 752 752" xmlns="http://www.w3.org/2000/svg">
 <defs>
  <clipPath id="e">
   <path d="m583 372h29.793v30h-29.793z"/>
  </clipPath>
  <clipPath id="d">
   <path d="m583 424h29.793v30h-29.793z"/>
  </clipPath>
  <clipPath id="c">
   <path d="m597 387h15.793v52h-15.793z"/>
  </clipPath>
  <clipPath id="b">
   <path d="m139.21 327h89.789v164h-89.789z"/>
  </clipPath>
  <clipPath id="a">
   <path d="m139.21 401h52.789v16h-52.789z"/>
  </clipPath>
 </defs>
 <path d="m524 313.11c-1.9609 0-3.8477-0.77734-5.2305-2.168l-43.34-43.34c-6.8477-6.8242-10.629-15.926-10.629-25.613s3.7812-18.789 10.633-25.617c6.7852-6.8281 15.879-10.609 25.59-10.609 8.4805 0 16.508 2.8867 22.977 8.1758 6.4766-5.2969 14.512-8.1758 22.984-8.1758 9.707 0 18.801 3.7812 25.617 10.633 6.8281 6.8086 10.605 15.902 10.605 25.594 0 9.6953-3.7734 18.789-10.625 25.617l-2.6133 2.5664-40.742 40.773c-1.3789 1.3867-3.2578 2.1641-5.2266 2.1641zm-22.977-92.551c-5.7344 0-11.105 2.2266-15.117 6.2656-4.0703 4.0586-6.3047 9.4297-6.3047 15.164s2.2344 11.105 6.2812 15.141l38.117 38.117 38.168-38.152c4.0039-3.9961 6.2383-9.375 6.2383-15.102 0-5.7266-2.2344-11.105-6.2734-15.141-8.0859-8.125-22.234-8.1094-30.367 0l-2.5547 2.5391c-2.8945 2.8789-7.5469 2.8789-10.434 0l-2.5469-2.5312c-4.0625-4.0664-9.4648-6.3008-15.207-6.3008z"/>
 <g clip-path="url(#e)">
  <path d="m605.39 401.9c-4.0938 0-7.3984-3.3086-7.3984-7.3984 0-4.0859-3.3164-7.3984-7.3984-7.3984-4.0938 0-7.3984-3.3086-7.3984-7.3984 0-4.0938 3.3086-7.3984 7.3984-7.3984 12.238 0 22.199 9.9609 22.199 22.199 0 4.0898-3.3086 7.3945-7.4023 7.3945z"/>
 </g>
 <g clip-path="url(#d)">
  <path d="m590.59 453.7c-4.0938 0-7.3984-3.3086-7.3984-7.3984 0-4.0938 3.3086-7.3984 7.3984-7.3984 4.0859 0 7.3984-3.3164 7.3984-7.3984 0-4.0938 3.3086-7.3984 7.3984-7.3984 4.0938 0 7.3984 3.3086 7.3984 7.3984 0.003907 12.234-9.957 22.195-22.195 22.195z"/>
 </g>
 <g clip-path="url(#c)">
  <path d="m605.39 438.9c-4.0938 0-7.3984-3.3086-7.3984-7.3984v-37c0-4.0938 3.3086-7.3984 7.3984-7.3984 4.0938 0 7.3984 3.3086 7.3984 7.3984v37c0.003907 4.0898-3.3047 7.3984-7.3984 7.3984z"/>
 </g>
 <path d="m590.59 387.1h-14.801c-4.0938 0-7.3984-3.3086-7.3984-7.3984 0-4.0938 3.3086-7.3984 7.3984-7.3984h14.801c4.0938 0 7.3984 3.3086 7.3984 7.3984s-3.3086 7.3984-7.3984 7.3984z"/>
 <path d="m590.59 453.7h-44.398c-4.0938 0-7.3984-3.3086-7.3984-7.3984 0-4.0938 3.3086-7.3984 7.3984-7.3984h44.398c4.0938 0 7.3984 3.3086 7.3984 7.3984 0 4.0898-3.3086 7.3984-7.3984 7.3984z"/>
 <path d="m575.79 387.1c-4.0938 0-7.3984-3.3086-7.3984-7.3984v-25.902c0-4.0938 3.3086-7.3984 7.3984-7.3984 4.0938 0 7.3984 3.3086 7.3984 7.3984v25.898c0 4.0938-3.3047 7.4023-7.3984 7.4023z"/>
 <path d="m546.2 387.1c-0.67969 0-1.3633-0.097656-2.0352-0.28125-3.9297-1.125-6.207-5.2227-5.0898-9.1445l7.3984-25.898c1.125-3.9375 5.2617-6.1641 9.1445-5.0898 3.9297 1.125 6.207 5.2227 5.0898 9.1445l-7.3984 25.898c-0.93359 3.2539-3.8906 5.3711-7.1094 5.3711z"/>
 <path d="m553.59 361.2c-0.67188 0-1.3633-0.097656-2.0352-0.28906-3.9297-1.125-6.1992-5.2227-5.0781-9.1445 1.2891-4.5 4.7227-16.465 18.211-16.465 10.203 0 18.5 8.2969 18.5 18.5 0 4.0938-3.3086 7.3984-7.3984 7.3984-4.0938 0-7.3984-3.3086-7.3984-7.3984 0-2.0352-1.6641-3.6992-3.6992-3.6992-1.3633 0-2.3398 0-3.9883 5.7344-0.93359 3.2539-3.8867 5.3633-7.1133 5.3633z"/>
 <path d="m546.2 453.7c-1.8945 0-3.7891-0.72656-5.2305-2.168l-7.3984-7.3984c-2.8945-2.8945-2.8945-7.5703 0-10.465 2.8945-2.8945 7.5703-2.8945 10.465 0l7.3984 7.3984c2.8945 2.8945 2.8945 7.5703 0 10.465-1.4453 1.4414-3.3398 2.168-5.2344 2.168z"/>
 <path d="m546.2 387.1h-22.199c-4.0938 0-7.3984-3.3086-7.3984-7.3984 0-4.0938 3.3086-7.3984 7.3984-7.3984h22.199c4.0938 0 7.3984 3.3086 7.3984 7.3984s-3.3086 7.3984-7.3984 7.3984z"/>
 <path d="m538.79 446.3h-14.801c-4.0938 0-7.3984-3.3086-7.3984-7.3984 0-4.0938 3.3086-7.3984 7.3984-7.3984h14.801c4.0938 0 7.3984 3.3086 7.3984 7.3984 0.003906 4.0938-3.3047 7.3984-7.3984 7.3984z"/>
 <path d="m524 453.7h-29.598c-4.0938 0-7.3984-3.3086-7.3984-7.3984v-73.996c0-4.0938 3.3086-7.3984 7.3984-7.3984h29.598c4.0938 0 7.3984 3.3086 7.3984 7.3984v73.996c0 4.0898-3.3086 7.3984-7.3984 7.3984zm-22.199-14.801h14.801v-59.199h-14.801z"/>
 <path d="m531.39 594.29c-28.555 0-51.797-23.242-51.797-51.797 0-28.555 23.242-51.797 51.797-51.797 28.555 0 51.797 23.242 51.797 51.797 0 28.555-23.242 51.797-51.797 51.797zm0-88.797c-20.402 0-37 16.598-37 37s16.598 37 37 37c20.402 0 37-16.598 37-37s-16.598-37-37-37z"/>
 <path d="m531.39 564.7c-4.0938 0-7.3984-3.3086-7.3984-7.3984v-29.598c0-4.0938 3.3086-7.3984 7.3984-7.3984 4.0938 0 7.3984 3.3086 7.3984 7.3984v29.598c0 4.0898-3.3047 7.3984-7.3984 7.3984z"/>
 <path d="m546.2 549.89h-29.598c-4.0938 0-7.3984-3.3086-7.3984-7.3984 0-4.0938 3.3086-7.3984 7.3984-7.3984h29.598c4.0938 0 7.3984 3.3086 7.3984 7.3984s-3.3086 7.3984-7.3984 7.3984z"/>
 <path d="m339 224.31c-12.238 0-22.199-9.9609-22.199-22.199s9.9609-22.199 22.199-22.199c12.238 0 22.199 9.9609 22.199 22.199s-9.9609 22.199-22.199 22.199zm0-29.602c-4.0859 0-7.3984 3.3164-7.3984 7.3984 0 4.0859 3.3164 7.3984 7.3984 7.3984 4.0859 0 7.3984-3.3164 7.3984-7.3984s-3.3164-7.3984-7.3984-7.3984z"/>
 <path d="m405.6 187.31c-12.238 0-22.199-9.9609-22.199-22.199s9.9609-22.199 22.199-22.199c12.238 0 22.199 9.9609 22.199 22.199s-9.9609 22.199-22.199 22.199zm0-29.598c-4.0859 0-7.3984 3.3164-7.3984 7.3984 0 4.0859 3.3164 7.3984 7.3984 7.3984 4.0859 0 7.3984-3.3164 7.3984-7.3984 0-4.0859-3.3164-7.3984-7.3984-7.3984z"/>
 <path d="m405.6 261.3c-12.238 0-22.199-9.9609-22.199-22.199s9.9609-22.199 22.199-22.199c12.238 0 22.199 9.9609 22.199 22.199 0 12.242-9.9609 22.199-22.199 22.199zm0-29.598c-4.0859 0-7.3984 3.3164-7.3984 7.3984 0 4.0859 3.3164 7.3984 7.3984 7.3984 4.0859 0 7.3984-3.3164 7.3984-7.3984s-3.3164-7.3984-7.3984-7.3984z"/>
 <path d="m392.66 239.32c-1.2148 0-2.4492-0.29687-3.582-0.93359l-40.742-22.637c-3.5742-1.9844-4.8633-6.4883-2.8789-10.055 1.9844-3.5664 6.4961-4.8672 10.055-2.8789l40.742 22.637c3.5742 1.9844 4.8633 6.4883 2.8789 10.055-1.3516 2.4453-3.8672 3.8125-6.4727 3.8125z"/>
 <path d="m351.95 202.32c-2.6055 0-5.1211-1.375-6.4766-3.8125-1.9922-3.5664-0.70312-8.082 2.8789-10.055l40.742-22.637c3.5586-1.9961 8.0742-0.69531 10.055 2.8789 1.9844 3.5742 0.70312 8.082-2.8789 10.055l-40.742 22.637c-1.1289 0.63672-2.3633 0.93359-3.5781 0.93359z"/>
 <path d="m457.4 342.72c-4.0938 0-7.3984-3.3086-7.3984-7.3984 0-16.332-13.281-29.613-29.613-29.613-16.324 0-29.605 13.281-29.605 29.613 0 4.0938-3.3086 7.3984-7.3984 7.3984-4.0938 0-7.3984-3.3086-7.3984-7.3984 0-24.492 19.922-44.414 44.406-44.414 24.492 0 44.414 19.922 44.414 44.414-0.007813 4.0898-3.3164 7.3984-7.4062 7.3984z"/>
 <path d="m420.4 527.7c-24.484 0-44.398-19.914-44.398-44.398 0-4.0938 3.3086-7.3984 7.3984-7.3984 4.0938 0 7.3984 3.3086 7.3984 7.3984 0 16.324 13.273 29.598 29.598 29.598s29.598-13.273 29.598-29.598c0-4.0938 3.3086-7.3984 7.3984-7.3984 4.0938 0 7.3984 3.3086 7.3984 7.3984 0.007813 24.484-19.902 44.398-44.391 44.398z"/>
 <path d="m383.4 490.7c-4.0938 0-7.3984-3.3086-7.3984-7.3984v-147.99c0-4.0938 3.3086-7.3984 7.3984-7.3984 4.0938 0 7.3984 3.3086 7.3984 7.3984v147.99c0 4.0938-3.3086 7.3984-7.3984 7.3984z"/>
 <path d="m346.39 342.72c-4.0938 0-7.3984-3.3086-7.3984-7.3984 0-24.492 19.922-44.414 44.406-44.414 4.0938 0 7.3984 3.3086 7.3984 7.3984 0 4.0938-3.3086 7.3984-7.3984 7.3984-16.324 0-29.605 13.281-29.605 29.613-0.003906 4.0938-3.3086 7.4023-7.4023 7.4023z"/>
 <path d="m383.41 527.7c-24.484 0-44.398-19.914-44.398-44.398 0-4.0938 3.3086-7.3984 7.3984-7.3984 4.0938 0 7.3984 3.3086 7.3984 7.3984 0 16.324 13.273 29.598 29.598 29.598 4.0938 0 7.3984 3.3086 7.3984 7.3984 0.007812 4.0938-3.3008 7.4023-7.3945 7.4023z"/>
 <path d="m346.42 490.7c-4.0938 0-7.3984-3.3086-7.3984-7.3984v-147.99c0-4.0938 3.3086-7.3984 7.3984-7.3984 4.0938 0 7.3984 3.3086 7.3984 7.3984v147.99c0 4.0938-3.3086 7.3984-7.3984 7.3984z"/>
 <path d="m457.4 490.7c-4.0938 0-7.3984-3.3086-7.3984-7.3984v-147.99c0-4.0938 3.3086-7.3984 7.3984-7.3984 4.0938 0 7.3984 3.3086 7.3984 7.3984v147.99c0 4.0938-3.3086 7.3984-7.3984 7.3984z"/>
 <path d="m413 527.7h-29.598c-4.0938 0-7.3984-3.3086-7.3984-7.3984 0-4.0938 3.3086-7.3984 7.3984-7.3984h29.598c4.0938 0 7.3984 3.3086 7.3984 7.3984s-3.3047 7.3984-7.3984 7.3984z"/>
 <path d="m413 305.7h-29.598c-4.0938 0-7.3984-3.3086-7.3984-7.3984 0-4.0938 3.3086-7.3984 7.3984-7.3984h29.598c4.0938 0 7.3984 3.3086 7.3984 7.3984 0 4.0938-3.3047 7.3984-7.3984 7.3984z"/>
 <path d="m346.39 342.7h-125.79c-4.0938 0-7.3984-3.3086-7.3984-7.3984 0-4.0938 3.3086-7.3984 7.3984-7.3984h125.79c4.0938 0 7.3984 3.3086 7.3984 7.3984-0.003906 4.0898-3.3086 7.3984-7.4023 7.3984z"/>
 <path d="m346.42 490.7h-125.81c-4.0938 0-7.3984-3.3086-7.3984-7.3984 0-4.0938 3.3086-7.3984 7.3984-7.3984h125.81c4.0938 0 7.3984 3.3086 7.3984 7.3984 0 4.0938-3.3086 7.3984-7.3984 7.3984z"/>
 <g clip-path="url(#b)">
  <path d="m220.61 490.7c-44.879 0-81.398-36.516-81.398-81.402 0-44.879 36.516-81.398 81.398-81.398 4.0938 0 7.3984 3.3086 7.3984 7.3984 0 4.0938-3.3086 7.3984-7.3984 7.3984-36.727 0-66.598 29.871-66.598 66.598s29.871 66.605 66.598 66.605c4.0938 0 7.3984 3.3086 7.3984 7.3984 0 4.0977-3.3086 7.4023-7.3984 7.4023z"/>
 </g>
 <path d="m235.4 609.09c-3.6758 0-6.8672-2.7383-7.332-6.4805l-14.801-118.39c-0.50391-4.0547 2.3672-7.7539 6.4219-8.2578 4.0781-0.45703 7.7539 2.3672 8.2578 6.4219l14.801 118.39c0.50391 4.0547-2.3672 7.7539-6.4219 8.2578-0.30859 0.035156-0.62109 0.058594-0.92578 0.058594z"/>
 <path d="m294.6 609.09c-3.6758 0-6.8672-2.7383-7.332-6.4805l-14.801-118.39c-0.50391-4.0547 2.3672-7.7539 6.4219-8.2578 4.0781-0.45703 7.7539 2.3672 8.2578 6.4219l14.801 118.39c0.50391 4.0547-2.3672 7.7539-6.4219 8.2578-0.3125 0.035156-0.62109 0.058594-0.92578 0.058594z"/>
 <path d="m302 609.09h-66.598c-4.0938 0-7.3984-3.3086-7.3984-7.3984 0-4.0938 3.3086-7.3984 7.3984-7.3984h66.598c4.0938 0 7.3984 3.3086 7.3984 7.3984 0 4.0898-3.3047 7.3984-7.3984 7.3984z"/>
 <path d="m316.8 512.89c-3.1016 0-5.9883-1.9609-7.0156-5.0625l-7.3984-22.191c-1.2969-3.8789 0.80078-8.0742 4.6758-9.3594 3.9141-1.3008 8.0664 0.80078 9.3594 4.6758l7.3984 22.191c1.2969 3.8789-0.80078 8.0742-4.6758 9.3594-0.78516 0.26172-1.5742 0.38672-2.3438 0.38672z"/>
 <path d="m316.8 512.89h-34.223c-4.0938 0-7.3984-3.3086-7.3984-7.3984 0-4.0938 3.3086-7.3984 7.3984-7.3984h34.223c4.0938 0 7.3984 3.3086 7.3984 7.3984 0 4.0938-3.3086 7.3984-7.3984 7.3984z"/>
 <path d="m413 431.5c-4.0938 0-7.3984-3.3086-7.3984-7.3984 0-4.0938 3.3086-7.3984 7.3984-7.3984 4.0859 0 7.3984-3.3164 7.3984-7.3984 0-4.0859-3.3164-7.3984-7.3984-7.3984-4.0938 0-7.3984-3.3086-7.3984-7.3984 0-4.0938 3.3086-7.3984 7.3984-7.3984 12.238 0 22.199 9.9609 22.199 22.199 0 12.23-9.9609 22.191-22.199 22.191z"/>
 <path d="m413 431.5h-29.598c-4.0938 0-7.3984-3.3086-7.3984-7.3984 0-4.0938 3.3086-7.3984 7.3984-7.3984h29.598c4.0938 0 7.3984 3.3086 7.3984 7.3984 0 4.0898-3.3047 7.3984-7.3984 7.3984z"/>
 <path d="m413 401.9h-29.598c-4.0938 0-7.3984-3.3086-7.3984-7.3984 0-4.0938 3.3086-7.3984 7.3984-7.3984h29.598c4.0938 0 7.3984 3.3086 7.3984 7.3984 0 4.0938-3.3047 7.3984-7.3984 7.3984z"/>
 <g clip-path="url(#a)">
  <path d="m183.61 416.7h-37c-4.0938 0-7.3984-3.3086-7.3984-7.3984 0-4.0938 3.3086-7.3984 7.3984-7.3984h37c4.0938 0 7.3984 3.3086 7.3984 7.3984 0 4.0898-3.3047 7.3984-7.3984 7.3984z"/>
 </g>
 <path d="m183.61 379.7h-27.09c-4.0938 0-7.3984-3.3086-7.3984-7.3984 0-4.0938 3.3086-7.3984 7.3984-7.3984l27.09-0.003906c4.0938 0 7.3984 3.3086 7.3984 7.3984 0 4.0938-3.3047 7.4023-7.3984 7.4023z"/>
 <path d="m183.61 453.7h-27.09c-4.0938 0-7.3984-3.3086-7.3984-7.3984 0-4.0938 3.3086-7.3984 7.3984-7.3984l27.09-0.003906c4.0938 0 7.3984 3.3086 7.3984 7.3984 0 4.0938-3.3047 7.4023-7.3984 7.4023z"/>
</svg>
