<svg xmlns="http://www.w3.org/2000/svg" version="1.1" xmlns:xlink="http://www.w3.org/1999/xlink" xmlns:svgjs="http://svgjs.com/svgjs" width="512" height="512" x="0" y="0" viewBox="0 0 64 64" style="enable-background:new 0 0 512 512" xml:space="preserve" class=""><g><g xmlns="http://www.w3.org/2000/svg" clip-rule="evenodd" fill-rule="evenodd"><path d="m48 64h-32c-8.836 0-16-7.164-16-16v-32c0-8.836 7.164-16 16-16h32c8.837 0 16 7.163 16 16v32c0 8.837-7.163 16-16 16" fill="#ff4600" data-original="#ff4600"></path><path d="m30 18h18c4.971 0 9-4.03 9-9.001 0-4.614-3.49-8.481-8.08-8.953-.306-.017-.609-.046-.92-.046h-32c-8.836 0-16 7.164-16 16v32c0-16.568 13.432-30 30-30" fill="#ff7300" data-original="#ff7300"></path><path d="m48 32c-8.837 0-16 7.163-16 16s7.163 16 16 16 16-7.163 16-16v-32c0 8.837-7.163 16-16 16" fill="#fa0000" data-original="#fa0000"></path><path d="m40 30c2.209 0 4 1.791 4 4s-1.791 4-4 4-4-1.791-4-4c.001-2.209 1.791-3.999 4-4zm-16 0c2.209 0 4 1.791 4 4s-1.791 4-4 4-4-1.791-4-4c.001-2.209 1.791-3.999 4-4zm.578 12.616c4.84 2.379 10.142 2.275 14.752.042l.176-.074c.829-.241 1.696.235 1.937 1.063.027.092.045.187.055.283-.01.66-.41 1.251-1.019 1.506-5.335 2.57-11.548 2.582-16.893.032-.143-.066-.663-.27-.964-.876-.303-.802.101-1.699.904-2.002.097-.037.464-.194 1.052.026zm18.101-32.844c1.232-1.833 3.716-2.32 5.548-1.088s2.32 3.716 1.088 5.548-3.716 2.32-5.548 1.088c-.897-.603-1.512-1.544-1.704-2.607l-5.947-1.594-2.922 10.905c4.875.115 9.613 1.632 13.649 4.369 2.268-2.021 5.745-1.82 7.765.448 2.021 2.268 1.82 5.745-.448 7.765-.382.34-.809.626-1.27.848.073.512.11 1.029.11 1.546 0 8.279-9.41 15-21 15s-21-6.721-21-15c0-.517.037-1.034.11-1.546-2.736-1.319-3.885-4.607-2.566-7.343s4.607-3.885 7.343-2.566c.461.222.888.507 1.27.848 3.827-2.604 8.298-4.103 12.921-4.331l3.14-11.72c.429-1.6 2.074-2.55 3.674-2.121z" fill="#ffffff" data-original="#ffffff"></path></g></g></svg>