<?xml version="1.0" encoding="UTF-8"?>
<svg width="752pt" height="752pt" version="1.1" viewBox="0 0 752 752" xmlns="http://www.w3.org/2000/svg">
 <g>
  <path d="m541.75 153.42h-236.79c-15.074 0-29.527 5.9883-40.184 16.645-10.66 10.66-16.648 25.113-16.648 40.188v274.68h-66.301c-7.5352 0-14.762 2.9922-20.09 8.3203-5.332 5.332-8.3242 12.559-8.3242 20.094v28.414c0 15.074 5.9883 29.527 16.645 40.184 10.66 10.66 25.113 16.648 40.188 16.648h236.79c15.07 0 29.527-5.9883 40.184-16.648 10.66-10.656 16.645-25.109 16.645-40.184v-274.68h66.301c7.5391 0 14.766-2.9922 20.094-8.3242 5.3281-5.3281 8.3242-12.555 8.3242-20.09v-28.414c0-15.074-5.9883-29.527-16.648-40.188-10.656-10.656-25.109-16.645-40.184-16.645zm-284.15 426.22h-47.355c-10.051 0-19.688-3.9922-26.793-11.098s-11.094-16.738-11.094-26.789v-28.414c0-5.2305 4.2383-9.4727 9.4688-9.4727h198.91c2.5117 0 4.9219 1 6.6953 2.7734 1.7773 1.7773 2.7734 4.1875 2.7734 6.6992v28.414c0.035157 13.996 5.2266 27.484 14.59 37.887zm189.43 0c-10.047 0-19.684-3.9922-26.789-11.098s-11.098-16.738-11.098-26.789v-28.414c0-7.5352-2.9922-14.762-8.3242-20.094-5.3281-5.3281-12.555-8.3203-20.09-8.3203h-113.66v-274.68c0-10.051 3.9922-19.688 11.098-26.793s16.742-11.094 26.789-11.094h194.55c-9.3594 10.402-14.555 23.891-14.586 37.887v331.5c0 10.051-3.9922 19.684-11.098 26.789s-16.742 11.098-26.789 11.098zm132.6-340.98c0 2.5117-0.99609 4.9219-2.7734 6.6953-1.7773 1.7773-4.1875 2.7734-6.6992 2.7734h-66.301v-37.883c0-13.539 7.2227-26.043 18.945-32.812s26.164-6.7695 37.887 0c11.723 6.7695 18.941 19.273 18.941 32.812z"/>
  <path d="m447.04 200.78h-142.07c-5.2305 0-9.4727 4.2383-9.4727 9.4727 0 5.2305 4.2422 9.4688 9.4727 9.4688h142.07c5.2305 0 9.4727-4.2383 9.4727-9.4688 0-5.2344-4.2422-9.4727-9.4727-9.4727z"/>
  <path d="m447.04 248.13h-142.07c-5.2305 0-9.4727 4.2422-9.4727 9.4727s4.2422 9.4727 9.4727 9.4727h142.07c5.2305 0 9.4727-4.2422 9.4727-9.4727s-4.2422-9.4727-9.4727-9.4727z"/>
  <path d="m447.04 295.49h-142.07c-5.2305 0-9.4727 4.2422-9.4727 9.4727 0 5.2305 4.2422 9.4727 9.4727 9.4727h142.07c5.2305 0 9.4727-4.2422 9.4727-9.4727 0-5.2305-4.2422-9.4727-9.4727-9.4727z"/>
  <path d="m447.04 342.85h-142.07c-5.2305 0-9.4727 4.2383-9.4727 9.4727 0 5.2305 4.2422 9.4688 9.4727 9.4688h142.07c5.2305 0 9.4727-4.2383 9.4727-9.4688 0-5.2344-4.2422-9.4727-9.4727-9.4727z"/>
  <path d="m447.04 390.21h-142.07c-5.2305 0-9.4727 4.2422-9.4727 9.4727 0 5.2305 4.2422 9.4727 9.4727 9.4727h142.07c5.2305 0 9.4727-4.2422 9.4727-9.4727 0-5.2305-4.2422-9.4727-9.4727-9.4727z"/>
  <path d="m447.04 437.57h-142.07c-5.2305 0-9.4727 4.2422-9.4727 9.4727 0 5.2305 4.2422 9.4727 9.4727 9.4727h142.07c5.2305 0 9.4727-4.2422 9.4727-9.4727 0-5.2305-4.2422-9.4727-9.4727-9.4727z"/>
 </g>
</svg>
