<svg xmlns="http://www.w3.org/2000/svg" version="1.1" xmlns:xlink="http://www.w3.org/1999/xlink" xmlns:svgjs="http://svgjs.com/svgjs" width="512" height="512" x="0" y="0" viewBox="0 0 64 64" style="enable-background:new 0 0 512 512" xml:space="preserve" class=""><g><g xmlns="http://www.w3.org/2000/svg" fill-rule="evenodd"><path d="m48 64h-32a16.0007 16.0007 0 0 1 -16-16v-32a16.0007 16.0007 0 0 1 16-16h32a16 16 0 0 1 16 16v32a16 16 0 0 1 -16 16" fill="#2d2d2d" data-original="#2d2d2d" class=""></path><path d="m30 18h18a9.0006 9.0006 0 0 0 .92-17.954c-.306-.017-.609-.046-.92-.046h-32a16.0007 16.0007 0 0 0 -16 16v32a30.0007 30.0007 0 0 1 30-30" fill="#464646" data-original="#464646" class=""></path><path d="m48 32a16 16 0 1 0 16 16v-32a16 16 0 0 1 -16 16" fill="#141414" data-original="#141414"></path><path d="m33.729 37.403s5.615-15.429 7.311-20.087a1.9989 1.9989 0 0 1 1.879-1.316h6.667a1 1 0 0 1 .707 1.707l-2.293 2.293v24l2.293 2.293a1 1 0 0 1 -.707 1.707h-11.172a1 1 0 0 1 -.707-1.707l2.293-2.293v-17.98s-6.136 16.859-7.66 21.047a1.4191 1.4191 0 0 1 -1.333.933h-.001a1.5607 1.5607 0 0 1 -1.422-.916l-9.584-21.084v14s2.592 4.148 4.044 6.47a1 1 0 0 1 -.848 1.53h-9.196a1 1 0 0 1 -.8-1.6c1.751-2.335 4.8-6.4 4.8-6.4v-18s-2.153-2.583-3.633-4.36a1 1 0 0 1 .768-1.64h7.577a2.0008 2.0008 0 0 1 1.821 1.172c2.034 4.475 9.196 20.231 9.196 20.231z" fill="#ffffff" data-original="#ffffff" class=""></path></g></g></svg>