<svg xmlns="http://www.w3.org/2000/svg" version="1.1" xmlns:xlink="http://www.w3.org/1999/xlink" xmlns:svgjs="http://svgjs.com/svgjs" width="512" height="512" x="0" y="0" viewBox="0 0 512 512" style="enable-background:new 0 0 512 512" xml:space="preserve" class=""><g>
<circle xmlns="http://www.w3.org/2000/svg" style="" cx="256" cy="256" r="256" fill="#ffaa20" data-original="#ffaa20"></circle>
<path xmlns="http://www.w3.org/2000/svg" style="" d="M512,256c0-19.809-2.252-39.092-6.51-57.609L388.08,80.982H109.457v335.576l88.93,88.93  C216.906,509.747,236.189,512,256,512C397.385,512,512,397.385,512,256z" fill="#ff8a00" data-original="#ff8a00"></path>
<rect xmlns="http://www.w3.org/2000/svg" x="123.92" y="95.44" style="" width="278.62" height="335.58" fill="#00efd1" data-original="#00efd1"></rect>
<rect xmlns="http://www.w3.org/2000/svg" x="248.77" y="95.44" style="" width="153.77" height="335.57" fill="#00cfb4" data-original="#00cfb4"></rect>
<rect xmlns="http://www.w3.org/2000/svg" x="109.46" y="80.982" style="" width="278.62" height="335.58" fill="#ffffff" data-original="#ffffff"></rect>
<rect xmlns="http://www.w3.org/2000/svg" x="248.77" y="80.986" style="" width="139.32" height="335.57" fill="#fff5ca" data-original="#fff5ca"></rect>
<rect xmlns="http://www.w3.org/2000/svg" x="149.62" y="178.82" style="" width="89.42" height="93.75" fill="#00efd1" data-original="#00efd1"></rect>
<g xmlns="http://www.w3.org/2000/svg">
	<rect x="257.57" y="178.82" style="" width="90.35" height="16.05" fill="#005ed2" data-original="#005ed2"></rect>
	<rect x="257.57" y="217.67" style="" width="90.35" height="16.05" fill="#005ed2" data-original="#005ed2"></rect>
	<rect x="257.57" y="256.52" style="" width="90.35" height="16.05" fill="#005ed2" data-original="#005ed2"></rect>
</g>
<rect xmlns="http://www.w3.org/2000/svg" x="149.62" y="295.37" style="" width="198.29" height="16.05" fill="#0089ff" data-original="#0089ff"></rect>
<rect xmlns="http://www.w3.org/2000/svg" x="248.77" y="295.38" style="" width="99.14" height="16.05" fill="#005ed2" data-original="#005ed2"></rect>
<rect xmlns="http://www.w3.org/2000/svg" x="149.62" y="116.52" style="" width="198.29" height="44.825" fill="#ff7b50" data-original="#ff7b50"></rect>
<rect xmlns="http://www.w3.org/2000/svg" x="248.77" y="116.52" style="" width="99.14" height="44.826" fill="#ff4f19" data-original="#ff4f19"></rect>
<rect xmlns="http://www.w3.org/2000/svg" x="149.62" y="330.68" style="" width="198.29" height="50.34" fill="#ffed97" data-original="#ffed97"></rect>
<rect xmlns="http://www.w3.org/2000/svg" x="248.77" y="330.68" style="" width="99.14" height="50.34" fill="#ffd000" data-original="#ffd000"></rect>
<g xmlns="http://www.w3.org/2000/svg">
</g>
<g xmlns="http://www.w3.org/2000/svg">
</g>
<g xmlns="http://www.w3.org/2000/svg">
</g>
<g xmlns="http://www.w3.org/2000/svg">
</g>
<g xmlns="http://www.w3.org/2000/svg">
</g>
<g xmlns="http://www.w3.org/2000/svg">
</g>
<g xmlns="http://www.w3.org/2000/svg">
</g>
<g xmlns="http://www.w3.org/2000/svg">
</g>
<g xmlns="http://www.w3.org/2000/svg">
</g>
<g xmlns="http://www.w3.org/2000/svg">
</g>
<g xmlns="http://www.w3.org/2000/svg">
</g>
<g xmlns="http://www.w3.org/2000/svg">
</g>
<g xmlns="http://www.w3.org/2000/svg">
</g>
<g xmlns="http://www.w3.org/2000/svg">
</g>
<g xmlns="http://www.w3.org/2000/svg">
</g>
</g></svg>