<?xml version="1.0" encoding="UTF-8"?>
<svg width="752pt" height="752pt" version="1.1" viewBox="0 0 752 752" xmlns="http://www.w3.org/2000/svg">
 <defs>
  <clipPath id="a">
   <path d="m146 140h460v472.79h-460z"/>
  </clipPath>
 </defs>
 <g clip-path="url(#a)">
  <path d="m605.63 248.59c-0.035156-0.19922-0.027344-0.41016-0.078125-0.60547-0.14453-0.54297-0.35547-1.0586-0.63281-1.543-0.09375-0.16797-0.23438-0.30078-0.34375-0.45703-0.19922-0.3125-0.42188-0.60547-0.67188-0.87891-0.15234-0.15625-0.34375-0.26172-0.51172-0.40234v-0.003906c-0.24609-0.22656-0.51172-0.43359-0.79297-0.62109l-0.046875-0.019531-0.039062-0.03125-54.098-30.988c-1.9922-1.1445-4.4414-1.1445-6.4375 0l-54.125 30.988-0.039062 0.03125-0.046875 0.019531-0.003906-0.003906c-0.28125 0.1875-0.54688 0.39844-0.79297 0.625-0.16797 0.13672-0.37109 0.24609-0.50781 0.39844v0.003907c-0.25391 0.27734-0.48047 0.57422-0.67969 0.89062-0.10547 0.15625-0.24609 0.28516-0.33594 0.44922h-0.003906c-0.27344 0.48438-0.48828 1-0.63281 1.543-0.050782 0.1875-0.042969 0.39062-0.078125 0.58594l0.003906-0.003907c-0.078125 0.35547-0.125 0.71484-0.14062 1.0781v13.191l-48.141-30.148c0.070313-0.32422 0.11328-0.65234 0.13281-0.98438v-54.113c-0.015626-0.35547-0.0625-0.71094-0.14063-1.0586-0.035156-0.19922-0.027343-0.41016-0.078124-0.60547-0.14453-0.53906-0.35547-1.0586-0.63281-1.5391-0.12891-0.19531-0.26953-0.37891-0.41797-0.55469-0.17578-0.27734-0.375-0.53906-0.59375-0.78125-0.19531-0.17188-0.40234-0.33594-0.61328-0.48047-0.22266-0.19922-0.45312-0.37891-0.69922-0.54688h-0.035156l-0.027344-0.054688-54.129-30.988c-1.9922-1.1445-4.4414-1.1445-6.4375 0l-54.129 30.988-0.042969 0.035156h-0.035156c-0.24609 0.16406-0.48047 0.34766-0.69922 0.54688-0.21484 0.14453-0.41797 0.30469-0.61328 0.47656-0.21875 0.24609-0.42188 0.51172-0.60156 0.79297-0.14844 0.17188-0.28516 0.35547-0.41016 0.54297-0.27734 0.48437-0.49219 1.0039-0.63281 1.543-0.050782 0.1875-0.042969 0.39062-0.078126 0.58594-0.078124 0.35156-0.125 0.71094-0.14062 1.0742v54.137c0.019531 0.33203 0.0625 0.66406 0.13281 0.98828l-48.129 30.141v-13.184c-0.015625-0.35547-0.0625-0.71094-0.14062-1.0586-0.035157-0.19922-0.027344-0.41016-0.078125-0.60547-0.14062-0.54297-0.35547-1.0586-0.63281-1.543-0.09375-0.16797-0.23438-0.30078-0.34375-0.45703-0.19922-0.3125-0.42188-0.60547-0.67188-0.87891-0.15234-0.15625-0.34375-0.26172-0.51172-0.40234v-0.003906c-0.24609-0.22656-0.51172-0.43359-0.78906-0.62109l-0.046875-0.019531-0.039062-0.03125-54.109-30.988c-1.9922-1.1445-4.4414-1.1445-6.4375 0l-54.113 30.988-0.039062 0.03125-0.046875 0.019531-0.003906-0.003906c-0.28125 0.1875-0.54688 0.39844-0.79297 0.625-0.16797 0.13672-0.37109 0.24609-0.50781 0.39844v0.003907c-0.25391 0.27734-0.48047 0.57422-0.67969 0.89062-0.10547 0.15625-0.24609 0.28516-0.33594 0.44922-0.27734 0.48438-0.49219 1-0.63281 1.543-0.050781 0.1875-0.042969 0.39062-0.078125 0.58594v-0.003907c-0.078125 0.35547-0.125 0.71484-0.14062 1.0781v54.113c0 2.3672 1.293 4.5469 3.3711 5.6836l50.742 27.707v74.137l-50.855 29.125-0.039062 0.03125-0.046875 0.019532h-0.003906c-0.28125 0.1875-0.54688 0.39453-0.79297 0.625-0.16797 0.13672-0.37109 0.24609-0.50781 0.39844-0.25391 0.27734-0.48047 0.57422-0.67969 0.89062-0.10547 0.15625-0.24609 0.28516-0.33594 0.44922-0.27734 0.48438-0.49219 1.0039-0.63281 1.543-0.050781 0.1875-0.042969 0.39062-0.078125 0.58594-0.078125 0.35156-0.125 0.71484-0.14062 1.0742v54.113c0 2.3711 1.2969 4.5508 3.3789 5.6836l54.109 29.535c0.30469 0.14844 0.61719 0.27344 0.94141 0.37109 0.17578 0.0625 0.33594 0.15625 0.51562 0.19922 1.0781 0.29297 2.2109 0.29297 3.2891 0 0.17578-0.046875 0.33984-0.14062 0.51562-0.19922 0.32422-0.097656 0.63672-0.22266 0.94141-0.37109l45.945-25.082 59.566 39.66v26.836c0 2.3672 1.293 4.5469 3.3711 5.6836l54.109 29.535c0.30469 0.14844 0.62109 0.27344 0.94531 0.37109 0.17578 0.0625 0.33594 0.15625 0.51562 0.19922 1.0742 0.29297 2.2109 0.29297 3.2891 0 0.17578-0.046875 0.33984-0.14062 0.51563-0.19922h-0.003907c0.32422-0.097657 0.64062-0.22266 0.94531-0.37109l54.094-29.543c2.0781-1.1367 3.3711-3.3164 3.3711-5.6836v-26.836l59.566-39.66 45.945 25.082v0.003906c0.30469 0.14844 0.62109 0.26953 0.94531 0.36719 0.17578 0.0625 0.33594 0.15625 0.51562 0.19922h-0.003906c1.0781 0.29297 2.2148 0.29297 3.293 0 0.17578-0.046875 0.33984-0.14062 0.51562-0.19922h-0.003906c0.32422-0.097656 0.64062-0.21875 0.94531-0.36719l54.09-29.531c2.0781-1.1328 3.3711-3.3125 3.3711-5.6836v-54.109c-0.015625-0.35547-0.0625-0.71094-0.14062-1.0586-0.035156-0.19922-0.027344-0.41016-0.078125-0.60547-0.14453-0.53906-0.35547-1.0586-0.63281-1.543-0.09375-0.16797-0.23437-0.30078-0.34375-0.45703-0.19922-0.30859-0.42187-0.60547-0.67187-0.87891-0.15234-0.15625-0.34375-0.26172-0.51172-0.40234-0.24609-0.22656-0.51172-0.4375-0.79297-0.62109l-0.046875-0.019531-0.039063-0.03125-50.855-29.125v-74.141l50.738-27.695c2.0781-1.1367 3.3711-3.3164 3.3711-5.6836v-54.121c-0.015625-0.35547-0.058594-0.71094-0.13281-1.0586zm-190.44 274.84-39.191 21.391-39.188-21.391-1.6562-0.90625 40.844-23.391 40.848 23.375zm-160.74-223.52-41.16 22.465v-39.355l41.16-22.465zm-47.637 122.58 40.848 23.391-1.6562 0.90625-39.191 21.395-39.188-21.395-1.6562-0.90625zm53.566 15.754-47.09-26.973v-74.133l42.895-23.418 59.23 38.539v47.242zm67.984-210.39v-39.355l41.16 22.48v39.344zm95.27 0-41.16 22.469v-39.344l41.16-22.473zm-47.637 97.367 40.848 23.391-1.6562 0.90625-39.191 21.395-39.188-21.395-1.6562-0.90625zm-47.633 34.445 41.16 22.469v39.363l-41.16-22.477zm54.109 22.469 41.16-22.469v39.355l-41.16 22.477zm54.109-29.867 59.227-38.551 42.898 23.426v74.137l-47.09 26.973-55.035-38.746zm102.12-69.242v39.352l-41.152-22.465v-39.355zm-41.152 213.27v-39.359l41.16 22.469v39.355zm86.824-49.504-39.188 21.391-39.195-21.391-1.6562-0.90625 40.848-23.391 40.848 23.391zm-39.191-220.68 40.848 23.391-1.6562 0.90625-39.188 21.391-39.195-21.391-1.6562-0.90625zm-60.359 79.301-54.926 35.754-47.422-27.156v-48.934l43.438-23.715 58.684 36.746v25.641c0 0.5625 0.078125 1.1211 0.22656 1.6641zm-108.82-151.36 40.844 23.395-39.051 21.316-1.793 0.97656-1.7891-0.97656-39.051-21.32zm-49.91 87.316 43.438 23.715v48.922l-47.422 27.156-54.93-35.754c0.14844-0.54297 0.22656-1.1016 0.22656-1.6641v-25.641zm-119.27-15.262 40.848 23.391-1.6562 0.90625-39.191 21.391-39.188-21.391-1.6562-0.90625zm-47.625 34.445 41.16 22.469v39.352l-41.16-22.465zm0 196.38 41.16 22.469v39.355l-41.16-22.469zm54.109 22.469 41.16-22.469v39.355l-41.16 22.465zm53.742 22.75c0.23438-0.65234 0.35938-1.3359 0.37109-2.0273v-50.98l54.91-38.672 47.203 25.766v51.672l-50.875 29.125-0.039063 0.03125-0.046875 0.019531v-0.003906c-0.28125 0.1875-0.54688 0.39844-0.79688 0.625-0.16797 0.13672-0.37109 0.24609-0.50781 0.39844v0.003906c-0.25 0.27734-0.48047 0.57422-0.67969 0.89062-0.10547 0.15625-0.24609 0.28516-0.33594 0.44922-0.27734 0.48438-0.48828 1-0.63281 1.543-0.050781 0.1875-0.042969 0.39063-0.078125 0.58594v-0.003906c-0.078125 0.35547-0.125 0.71484-0.14062 1.0781v11.715zm61.32 44.277v-12.863l41.16 22.469 0.003906 39.352-41.16-22.465zm54.113 48.957v-39.352l41.16-22.469v39.359zm54.109-72.734c-0.015626-0.35547-0.0625-0.71094-0.14063-1.0586-0.035156-0.19922-0.027343-0.41016-0.078124-0.60547-0.14063-0.54297-0.35547-1.0586-0.63281-1.543-0.09375-0.16797-0.23438-0.30078-0.34375-0.45703-0.19922-0.3125-0.42188-0.60547-0.67188-0.87891-0.15234-0.15625-0.34375-0.26172-0.51172-0.40234v-0.003906c-0.24609-0.22656-0.51172-0.43359-0.79297-0.62109l-0.046874-0.019531-0.039063-0.03125-50.852-29.121v-51.672l47.203-25.766 54.918 38.672v50.984c0.015625 0.69141 0.14062 1.375 0.37109 2.0273l-48.371 32.215zm115.07-3.8984v-39.355l41.16-22.469v39.359zm0-196.38v-39.355l41.16-22.465v39.355z"/>
 </g>
</svg>
