<?xml version="1.0" encoding="UTF-8"?>
<svg width="752pt" height="752pt" version="1.1" viewBox="0 0 752 752" xmlns="http://www.w3.org/2000/svg">
 <defs>
  <clipPath id="c">
   <path d="m418 476h189v136.79h-189z"/>
  </clipPath>
  <clipPath id="b">
   <path d="m145 476h188v136.79h-188z"/>
  </clipPath>
  <clipPath id="a">
   <path d="m203 139.21h346v306.79h-346z"/>
  </clipPath>
 </defs>
 <g>
  <g clip-path="url(#c)">
   <path d="m603.31 561.69c-42.398-41.156-94.137-70.18-149.8-84.066-1.3984-0.78125-2.9922-1.1758-4.6289-1.1758h-5.043c-0.12891 0-0.26562 0.023437-0.40234 0.039062l22.855 49.523-47.656 86.859h177.94c5.3438 0 9.6719-4.3203 9.6719-9.6758v-34.551c0-2.6211-1.0664-5.1289-2.9375-6.9531z"/>
  </g>
  <g clip-path="url(#b)">
   <path d="m308.77 476.48c-0.19922 0-0.36328-0.050781-0.55078-0.050781h-3.6719c-0.74219 0-1.4844 0.085937-2.2148 0.25391-57.121 13.516-110.22 42.914-153.56 85.004-1.8867 1.8359-2.9414 4.332-2.9414 6.9531v34.551c0 5.3555 4.332 9.6758 9.6719 9.6758h176.75l-46.785-85.773z"/>
  </g>
  <g clip-path="url(#a)">
   <path d="m372.94 394.96c-5.4336 0-10.102 3.0586-12.527 7.5312-56.891-5.8711-75.055-55.297-75.055-55.297 0.074219 1 0.074219 1 0 0h-0.3125c-9.8281 0-17.789-8.4414-17.789-18.844 0-7.6953 4.3398-14.289 10.543-17.23 0 0 26.906-53.25 40.211-115.66 0 0 12.551 98.062 156.43 115.11-0.058594 0.17969-0.09375 0.375-0.15234 0.55859 6.1992 2.9414 10.527 9.5352 10.527 17.23 0 10.406-7.9648 18.844-17.789 18.844h-0.30859c-2.0703 27.867-15.293 55.758-34.957 74.891v23.848c69.363-3.1914 116.65-34.75 116.65-34.75-65.32-39.914-9.2344-174.15-81.273-236.92-72.043-62.773-91.102-22.105-91.102-22.105s-19.055-40.664-91.094 22.105c-72.039 62.773-15.957 197-81.273 236.91 0 0 46.945 31.316 115.88 34.711v-24.629c-10.656-10.586-19.285-23.793-25.285-38.117 12.914 14.047 33.621 28.441 65.465 31.609 2.1562 5.1875 7.2578 8.8242 13.215 8.8242 7.8984 0 14.309-6.4062 14.309-14.309-0.003906-7.8984-6.4141-14.305-14.316-14.305z"/>
  </g>
 </g>
</svg>
