<?xml version="1.0" encoding="utf-8"?>
<!-- Generator: Adobe Illustrator 23.0.5, SVG Export Plug-In . SVG Version: 6.00 Build 0)  -->
<svg version="1.1" id="Layer_1" xmlns:svgjs="http://svgjs.com/svgjs"
	 xmlns="http://www.w3.org/2000/svg" xmlns:xlink="http://www.w3.org/1999/xlink" x="0px" y="0px" viewBox="0 0 512 512"
	 style="enable-background:new 0 0 512 512;" xml:space="preserve">
<style type="text/css">
	.st0{fill:#DEEF78;}
	.st1{fill:#ED6C0C;}
	.st2{fill:#E05A00;}
	.st3{fill:#FFB600;}
	.st4{fill:#F6921E;}
	.st5{fill:#D85107;}
	.st6{fill:#E26600;}
</style>
<g>
	<path class="st0" d="M414,510H94c-53,0-96-43-96-96V94C-2,41,41-2,94-2h320c53,0,96,43,96,96v320C510,467,467,510,414,510z"/>
</g>
<g>
	<path class="st1" d="M234.9,263.2l-12.1,50c15.5,3.4,62.9,19,69.8-9.5C299.5,274.4,250.4,267.5,234.9,263.2z"/>
	<path class="st2" d="M292.6,304.6c7.8-29.3-42.2-37.1-57.7-40.5l-12.1,49.1"/>
	<path class="st1" d="M252.1,195.1l-11.2,45.7c12.9,3.4,52.6,16.4,58.6-9.5C305.6,204.6,265.1,198.6,252.1,195.1z"/>
	<path class="st2" d="M299.5,231.3c6.9-26.7-34.5-32.8-47.4-36.2l-11.2,45.7"/>
	<path class="st3" d="M303,59.8C191.8,32.2,79.8,100.3,52.2,210.6C24.6,321.8,91.8,433.8,203,461.4s223.2-39.6,250.8-150.8
		C481.4,200.3,414.2,88.2,303,59.8z M344.4,231.3c-2.6,19.8-13.8,30.2-29.3,33.6c20.7,10.3,31,26.7,20.7,55.2
		c-12.1,35.3-41.4,37.9-80.2,31l-9.5,37.9l-22.4-6.9l9.5-37.1c-6-1.7-12.1-3.4-18.1-4.3l-9.5,37.1l-22.4-6l9.5-37.9
		c-5.2-1.7-10.3-2.6-16.4-4.3l-29.3-7.8l11.2-25.9l16.4,4.3c6,1.7,9.5-2.6,10.3-5.2l14.7-59.5c0.9,0,1.7,0,2.6,0.9
		c-0.9,0-1.7-0.9-2.6-0.9l10.3-42.2c0-5.2-1.7-11.2-10.3-12.9l-16.4-4.3l6-24.1l31,7.8l0,0c4.3,0.9,9.5,2.6,14.7,3.4l9.5-37.1
		l22.4,6l-9.5,36.2c6,1.7,12.1,2.6,18.1,4.3l8.6-36.2l22.4,6l-9.5,37.1C327.1,189.1,348.7,203.7,344.4,231.3z"/>
	<path class="st4" d="M52.2,210.6C24.6,321.8,91.8,433.8,203,461.4s223.2-39.6,250.8-150.8C481.4,199.4,414.2,87.4,303,59.8
		 M344.4,231.3c-2.6,19.8-13.8,30.2-29.3,33.6c20.7,10.3,31,26.7,20.7,55.2c-12.1,35.3-41.4,37.9-80.2,31l-9.5,37.9l-22.4-6.9
		l9.5-37.1c-6-1.7-12.1-3.4-18.1-4.3l-9.5,37.1l-22.4-6l9.5-37.9c-5.2-1.7-10.3-2.6-16.4-4.3l-29.3-7.8l11.2-25.9l16.4,4.3
		c6,1.7,9.5-2.6,10.3-5.2l14.7-59.5c0.9,0,1.7,0,2.6,0.9c-0.9,0-1.7-0.9-2.6-0.9l10.3-42.2c0-5.2-1.7-11.2-10.3-12.9l-16.4-4.3
		l6-24.1l31,7.8l0,0c4.3,0.9,9.5,2.6,14.7,3.4l9.5-37.1l22.4,6l-9.5,36.2c6,1.7,12.1,2.6,18.1,4.3l8.6-36.2l22.4,6l-9.5,37.1
		C327.1,189.1,348.7,203.7,344.4,231.3z"/>
	<path class="st5" d="M452.1,318.4l-112-112c4.3,6.9,6.9,15.5,5.2,25.9c-2.6,19.8-13.8,30.2-29.3,33.6c20.7,10.3,31,26.7,20.7,55.2
		c-12.1,35.3-41.4,37.9-80.2,31l-9.5,37.9l-23.3-7.8l9.5-37.1c-6-1.7-12.1-3.4-18.1-4.3l-9.5,37.1l-5.2-1.7l87.9,87.9
		C364.2,451.1,429.7,395.9,452.1,318.4z"/>
	<g>
		<path class="st6" d="M147,322.7L147,322.7l38.8,38.8l6.9-27.6c-5.2-1.7-10.3-2.6-16.4-4.3L147,322.7z"/>
		<path class="st6" d="M302.1,168.4L302.1,168.4l-3.4,11.2c10.3,3.4,19.8,7.8,27.6,12.9L302.1,168.4z"/>
	</g>
	<g>
		<path class="st1" d="M267.7,132.2L267.7,132.2l-9.5,36.2c6,1.7,12.1,2.6,18.1,4.3l6-25.9L267.7,132.2z"/>
		<path class="st1" d="M308.2,141.7L308.2,141.7l-9.5,37.1l0.9,0.9c25.9,8.6,45.7,22.4,45.7,45.7l103.4,103.4
			c1.7-6,3.4-12.1,5.2-17.2c1.7-6.9,2.6-12.9,3.4-19.8L308.2,141.7z"/>
		<path class="st1" d="M328,453.7l-78.4-78.4l-3.4,12.9l-22.4-6l6.9-26.7l-15.5-15.5l0,0l-9.5,37.1l-22.4-6v-0.9l-0.9,0.9l93.9,93.9
			C294.4,464,311.6,459.7,328,453.7z"/>
	</g>
	<path class="st2" d="M349.5,443.3l-93.1-93.1c0,0,0,0-0.9,0l-9.5,37.9l-21.5-5.2l78.4,78.4C319.4,457.1,334.9,451.1,349.5,443.3z"
		/>
</g>
</svg>
