<?xml version="1.0" encoding="UTF-8"?>
<svg width="752pt" height="752pt" version="1.1" viewBox="0 0 752 752" xmlns="http://www.w3.org/2000/svg">
 <g>
  <path d="m159.56 173.9h27.75v152.62h-27.75z"/>
  <path d="m173.43 250.67v-76.77l98.973 38.383z"/>
  <path d="m173.43 264.54c-2.7617 0-5.4961-0.82422-7.8398-2.4258-3.7773-2.5859-6.0352-6.8711-6.0352-11.449v-76.773c0-4.5781 2.2578-8.8594 6.0352-11.449 3.7773-2.5859 8.5898-3.1406 12.855-1.4883l98.973 38.387c5.3398 2.0742 8.8594 7.2109 8.8594 12.938s-3.5195 10.863-8.8594 12.938l-98.973 38.387c-1.6211 0.62891-3.3203 0.9375-5.0156 0.9375zm13.875-70.383v36.246l46.73-18.125z"/>
  <path d="m465.72 439.36h27.75v152.62h-27.75z"/>
  <path d="m479.6 516.13v-76.77l98.969 38.383z"/>
  <path d="m479.6 530.01c-2.7617 0-5.4961-0.82422-7.8398-2.4258-3.7773-2.5859-6.0352-6.8711-6.0352-11.449v-76.773c0-4.5781 2.2578-8.8594 6.0352-11.449 3.7773-2.5859 8.5898-3.1406 12.855-1.4883l98.973 38.387c5.3398 2.0742 8.8555 7.2109 8.8555 12.938 0 5.7266-3.5195 10.863-8.8594 12.938l-98.973 38.387c-1.6172 0.62891-3.3203 0.9375-5.0117 0.9375zm13.875-70.383v36.246l46.727-18.125z"/>
  <path d="m444.45 517.98h-184.07c-36.211 0-65.672-29.461-65.672-65.672s29.461-65.672 65.672-65.672h207.19c20.91 0 37.922-17.012 37.922-37.922s-17.012-37.922-37.922-37.922l-176.67-0.003906v-27.75h176.67c36.211 0 65.672 29.461 65.672 65.672 0 36.211-29.461 65.672-65.672 65.672h-207.19c-20.91 0-37.922 17.012-37.922 37.922s17.012 37.922 37.922 37.922h184.07z"/>
  <path d="m227.08 283.04h32.027v27.75h-32.027z"/>
  <path d="m415.8 553.29-20.391-18.82 28.242-30.598-28.172-30.051 20.242-18.977 37 39.465c4.9766 5.3047 5.0078 13.555 0.074219 18.898z"/>
 </g>
</svg>
