<svg xmlns="http://www.w3.org/2000/svg" version="1.1" xmlns:xlink="http://www.w3.org/1999/xlink" xmlns:svgjs="http://svgjs.com/svgjs" width="512" height="512" x="0" y="0" viewBox="0 0 512 512" style="enable-background:new 0 0 512 512" xml:space="preserve" class=""><g><g xmlns="http://www.w3.org/2000/svg"><path d="m16.502 200.499c-5.403 0-9.34-5.124-7.954-10.346 29.056-109.476 128.833-190.153 247.452-190.153 119.005 0 219.045 81.202 247.733 191.222 1.223 4.689-2.284 9.277-7.13 9.277z" fill="#3342ae" data-original="#3342ae" class=""></path><path d="m8.589 190h494.822c5.603 21.056 8.589 43.179 8.589 66 0 67.188-25.883 128.33-68.222 174h-363.463c-7.953 0-15.482-3.544-20.591-9.639-37.279-44.47-59.724-101.794-59.724-164.361 0-22.821 2.986-44.944 8.589-66z" fill="#3d4ec6" data-original="#3d4ec6" class=""></path><path d="m407.5 78.75c0 2.761-2.239 5-5 5h-8.75v8.75c0 2.761-2.239 5-5 5s-5-2.239-5-5v-8.75h-8.75c-2.761 0-5-2.239-5-5s2.239-5 5-5h8.75v-8.75c0-2.761 2.239-5 5-5s5 2.239 5 5v8.75h8.75c2.761 0 5 2.239 5 5zm-266.709 36.25h-8.75v-8.75c0-2.761-2.239-5-5-5-2.761 0-5 2.239-5 5v8.75h-8.75c-2.761 0-5 2.239-5 5s2.239 5 5 5h8.75v8.75c0 2.761 2.239 5 5 5 2.761 0 5-2.239 5-5v-8.75h8.75c2.761 0 5-2.239 5-5s-2.238-5-5-5zm242.959 37.5h-8.75v-8.75c0-2.761-2.239-5-5-5s-5 2.239-5 5v8.75h-8.75c-2.761 0-5 2.239-5 5s2.239 5 5 5h8.75v8.75c0 2.761 2.239 5 5 5s5-2.239 5-5v-8.75h8.75c2.761 0 5-2.239 5-5s-2.239-5-5-5z" fill="#fff68e" data-original="#fff68e"></path><path d="m108.291 189.541c0 2.761-2.239 5-5 5h-27.5c-2.761 0-5-2.239-5-5s2.239-5 5-5h27.5c2.762 0 5 2.239 5 5zm336.459 43.333h-27.5c-2.761 0-5 2.239-5 5s2.239 5 5 5h27.5c2.761 0 5-2.239 5-5s-2.239-5-5-5z" fill="#93dcfc" data-original="#93dcfc"></path><path d="m341.63 411.646h-30.522c-5.523 0-10-4.477-10-10v-180c0-5.523 4.477-10 10-10h30.522c5.523 0 10 4.477 10 10v180c0 5.523-4.477 10-10 10z" fill="#07a9f0" data-original="#07a9f0"></path><path d="m341.63 411.646h-16.809c-5.523 0-10-4.477-10-10v-180c0-5.523 4.477-10 10-10h16.809c5.523 0 10 4.477 10 10v180c0 5.523-4.477 10-10 10z" fill="#72d1fb" data-original="#72d1fb"></path><path d="m271.261 424.553h-30.522c-5.523 0-10-4.477-10-10v-370c0-5.523 4.477-10 10-10h30.522c5.523 0 10 4.477 10 10v370c0 5.523-4.477 10-10 10zm-130.739-10v-160c0-5.523-4.477-10-10-10h-30.522c-5.523 0-10 4.477-10 10v160c0 5.523 4.477 10 10 10h30.522c5.523 0 10-4.477 10-10z" fill="#eac23f" data-original="#eac23f"></path><path d="m271.261 424.553h-16.809c-5.523 0-10-4.477-10-10v-370c0-5.523 4.477-10 10-10h16.809c5.523 0 10 4.477 10 10v370c0 5.523-4.477 10-10 10zm-130.739-10v-160c0-5.523-4.477-10-10-10h-16.809c-5.523 0-10 4.477-10 10v160c0 5.523 4.477 10 10 10h16.809c5.523 0 10-4.477 10-10z" fill="#e9cc5a" data-original="#e9cc5a"></path><path d="m200.891 440h-30.521c-5.523 0-10-4.477-10-10v-270c0-5.523 4.477-10 10-10h30.522c5.523 0 10 4.477 10 10v270c-.001 5.523-4.478 10-10.001 10zm221.109-10v-160c0-5.523-4.477-10-10-10h-30.522c-5.523 0-10 4.477-10 10v160c0 5.523 4.477 10 10 10h30.522c5.523 0 10-4.477 10-10z" fill="#1ab975" data-original="#1ab975"></path><path d="m200.891 440h-16.809c-5.523 0-10-4.477-10-10v-270c0-5.523 4.477-10 10-10h16.809c5.523 0 10 4.477 10 10v270c0 5.523-4.477 10-10 10zm221.109-10v-160c0-5.523-4.477-10-10-10h-16.809c-5.523 0-10 4.477-10 10v160c0 5.523 4.477 10 10 10h16.809c5.523 0 10-4.477 10-10z" fill="#1ed688" data-original="#1ed688"></path><path d="m431 405v20c0 2.761-2.239 5-5 5h-340c-2.761 0-5-2.239-5-5v-20c0-2.761 2.239-5 5-5h340c2.761 0 5 2.239 5 5z" fill="#e5554e" data-original="#e5554e"></path><path d="m266.025 420c59.472 0 61.997 88.811 2.595 91.694-4.181.203-8.389.306-12.62.306-78.987 0-149.619-35.772-196.579-92z" fill="#f76c57" data-original="#f76c57"></path><path d="m218.42 420h234.158c-46.96 56.228-117.592 92-196.579 92-15.412 0-30.506-1.362-45.168-3.972-21.227-3.779-36.75-22.13-36.75-43.69.002-24.487 19.852-44.338 44.339-44.338z" fill="#f87b67" data-original="#f87b67"></path><path d="m445.657 502.007c1.229 6.515-5.714 11.497-11.492 8.246l-45.681-25.708c-2.347-1.321-5.209-1.338-7.571-.045l-45.984 25.162c-5.816 3.183-12.7-1.882-11.393-8.382l10.333-51.39c.531-2.64-.337-5.367-2.297-7.215l-38.141-35.958c-4.824-4.548-2.135-12.66 4.451-13.426l52.068-6.053c2.675-.311 5-1.979 6.151-4.414l1.454-3.075c19.321 42.368 87.306 118.042 87.306 118.042z" fill="#eac23f" data-original="#eac23f"></path><path d="m476.885 407.81-38.566 35.501c-1.981 1.824-2.882 4.54-2.382 7.187l8.926 47.295c-44.204-22.725-77.996-62.846-92.331-111.321 1.543-.77 2.812-2.041 3.571-3.646l22.412-47.386c2.835-5.994 11.381-5.943 14.144.084l21.846 47.649c1.122 2.448 3.428 4.144 6.099 4.487l51.992 6.672c6.574.844 9.167 8.987 4.289 13.478z" fill="#e9cc5a" data-original="#e9cc5a"></path></g></g></svg>