<svg xmlns="http://www.w3.org/2000/svg" version="1.1" xmlns:xlink="http://www.w3.org/1999/xlink" xmlns:svgjs="http://svgjs.com/svgjs" width="512" height="512" x="0" y="0" viewBox="0 0 512 512" style="enable-background:new 0 0 512 512" xml:space="preserve" class=""><g><title xmlns="http://www.w3.org/2000/svg">user security 2</title><path xmlns="http://www.w3.org/2000/svg" d="M475.179,316l-86.194-45.93a7,7,0,0,0-6.656.039l-83.807,45.93a7,7,0,0,0-3.635,6.139v4.228L264.6,316.143a68.041,68.041,0,0,0,40.5-76.555L297.034,200.5a29.287,29.287,0,0,0,12.687-31.644,23.52,23.52,0,0,0-14.775-16.633l.14-38.506a105.068,105.068,0,1,0-210.135-.627l.1,33.575c0,.054,0,.108,0,.163l.122,5.434a23.518,23.518,0,0,0-14.668,16.593,29.3,29.3,0,0,0,15.422,33.2l-9.574,35.974a68.01,68.01,0,0,0,36.636,79.011L69.695,331.711a53.85,53.85,0,0,0-36.582,51.024v70.6a7,7,0,0,0,7,7H321.934a127.109,127.109,0,0,0,49.033,38.015l11.632,5.07a7,7,0,0,0,5.572.01l13.1-5.656a126.689,126.689,0,0,0,77.619-116.789v-58.8A7,7,0,0,0,475.179,316Zm-326.288,3.65,34.129,34.036v26.605l-55.064-53.545Zm32.687-21.69h17.07a85.005,85.005,0,0,0,23.822-3.407v14.168l-32.356,32.269-32.356-32.269V294.555A84.992,84.992,0,0,0,181.578,297.962Zm15.442,55.915,34.317-34.225,20.935,7.1-55.252,53.73Zm83.67-66.836a53.878,53.878,0,0,1-41.154,20.305l.006.305-3.072-1.042V289.123a95.715,95.715,0,0,0,28.735-21.89,105.331,105.331,0,0,0,22.833-41.046l3.347,16.229A53.877,53.877,0,0,1,280.69,287.041ZM190.021,22a91.068,91.068,0,0,1,91.065,91.647l-.117,32.169a111.991,111.991,0,0,1-68.873-28.74c12.87-10.3,25.414-24.437,36.416-43.91a7,7,0,0,0-12.19-6.887c-34.547,61.149-84.339,63.93-108.267,65.266l-.354.019c-6.078.34-11.8,4.595-14.939,11.105a7.826,7.826,0,0,1-3.7,3.63,7.979,7.979,0,0,1-9.045-1.564l-.976-.974-.09-30.693A91.173,91.173,0,0,1,190.021,22ZM84.1,172.186a9.752,9.752,0,0,1,8.838-7.46,7,7,0,0,0,5.987-4.719,21.933,21.933,0,0,0,26.444-11.26c.967-2.006,2.452-3.168,3.109-3.2l.353-.02c15.257-.852,43.34-2.423,71.611-20.159a126.039,126.039,0,0,0,80.8,34.479,7,7,0,0,0,6.034,4.883,9.753,9.753,0,0,1,8.84,7.461,15.281,15.281,0,0,1-12.172,18.674,7,7,0,0,0-5.793,6.9v.133a90.542,90.542,0,0,1-23.335,59.95c-15.24,16.845-35.19,26.122-56.175,26.122h-17.07c-20.984,0-40.934-9.277-56.175-26.122a90.542,90.542,0,0,1-23.335-59.95v-.133a7,7,0,0,0-5.793-6.9A15.282,15.282,0,0,1,84.1,172.186ZM97.888,286.627a53.986,53.986,0,0,1-8.005-45l3.267-12.278a105.278,105.278,0,0,0,21.871,37.884,95.714,95.714,0,0,0,28.737,21.891v17.485l-7.645,2.591A53.65,53.65,0,0,1,97.888,286.627ZM47.113,382.735a39.855,39.855,0,0,1,27.076-37.764L113.064,331.8l69.956,68.026v46.511H47.113Zm149.907,63.6V400.005l70.143-68.21,27.724,9.4v40.985a126.4,126.4,0,0,0,17.5,64.156Zm267.867-65.35a112.709,112.709,0,0,1-69.1,103.9l-.05.02-10.334,4.463-8.834-3.85a112.925,112.925,0,0,1-67.687-103.343v-55.85l76.853-42.119,79.147,42.175Z" fill="#f26622" data-original="#000000" class=""></path><path xmlns="http://www.w3.org/2000/svg" d="M356.122,377.63a7,7,0,1,0-10.646,9.092l22.666,26.544a7,7,0,0,0,9.741.883l52.79-42.948a7,7,0,1,0-8.836-10.859L374.35,398.976Z" fill="#f26622" data-original="#000000" class=""></path><path xmlns="http://www.w3.org/2000/svg" d="M230.6,402.265h-9.726a7,7,0,0,0,0,14H230.6a7,7,0,1,0,0-14Z" fill="#f26622" data-original="#000000" class=""></path></g></svg>