<?xml version="1.0" encoding="utf-8"?>
<!-- Generator: Adobe Illustrator 23.0.5, SVG Export Plug-In . SVG Version: 6.00 Build 0)  -->
<svg version="1.1" id="Layer_1" xmlns="http://www.w3.org/2000/svg" xmlns:xlink="http://www.w3.org/1999/xlink" x="0px" y="0px"
	 viewBox="0 0 100 100" style="enable-background:new 0 0 100 100;" xml:space="preserve">
<style type="text/css">
	.st0{fill:#CDE2FF;}
	.st1{fill:#9EC8FC;}
	.st2{fill:#EDF6FF;}
	.st3{fill:#7E8B96;}
	.st4{fill:#5F6C75;}
	.st5{fill:#E0BBA4;}
	.st6{fill:#D8AB8C;}
	.st7{fill:#FFD064;}
	.st8{fill:#EBB044;}
</style>
<g>
	<g>
		<path class="st0" d="M75.8,6.9H13.3l-1,90.1l66.5-1v-11l-1.3-11.5l1.3-8.4V9.9C78.8,8.2,77.5,6.9,75.8,6.9z"/>
		<path class="st1" d="M72.9,93.1l0-3L13.3,6.9c-1.6,0-3,1.3-3,3V96c0,1.6,1.3,3,3,3h62.5c1.6,0,3-1.3,3-3h-8.8
			C71.6,96,72.9,94.7,72.9,93.1z"/>
		<path class="st1" d="M78.8,65.2l-5.9-17l-8.1-3.5l14,40.3V65.2z"/>
		<path class="st2" d="M69.9,1H7.4l-1,90.1l66.5-1V68.1l-2.5-21l2.5-8V4C72.9,2.3,71.5,1,69.9,1z"/>
		<path class="st0" d="M72.9,39l-6.1-7.6c-0.8-1-2.3-0.4-2.3,0.8v11.1c0,0.5,0.1,1,0.2,1.4l8.1,23.3V39z"/>
		<g>
			<path class="st3" d="M61,82.7H16.3c-0.8,0-1.5-0.7-1.5-1.5s0.7-1.5,1.5-1.5H61c0.8,0,1.5,0.7,1.5,1.5S61.8,82.7,61,82.7z"/>
			<path class="st3" d="M61,73.9H16.3c-0.8,0-1.5-0.7-1.5-1.5c0-0.8,0.7-1.5,1.5-1.5H61c0.8,0,1.5,0.7,1.5,1.5
				C62.5,73.2,61.8,73.9,61,73.9z"/>
			<path class="st3" d="M61,65H16.3c-0.8,0-1.5-0.7-1.5-1.5s0.7-1.5,1.5-1.5H61c0.8,0,1.5,0.7,1.5,1.5S61.8,65,61,65z"/>
			<path class="st3" d="M57.1,56.1H16.3c-0.8,0-1.5-0.7-1.5-1.5s0.7-1.5,1.5-1.5h40.8c0.8,0,1.5,0.7,1.5,1.5S57.9,56.1,57.1,56.1z"
				/>
			<path class="st3" d="M61,47.2H16.3c-0.8,0-1.5-0.7-1.5-1.5s0.7-1.5,1.5-1.5H61c0.8,0,1.5,0.7,1.5,1.5S61.8,47.2,61,47.2z"/>
			<path class="st3" d="M61,38.4H16.3c-0.8,0-1.5-0.7-1.5-1.5c0-0.8,0.7-1.5,1.5-1.5H61c0.8,0,1.5,0.7,1.5,1.5
				C62.5,37.7,61.8,38.4,61,38.4z"/>
			<path class="st3" d="M16.3,29.5c-0.8,0-1.5-0.7-1.5-1.5c0-0.8,0.7-1.5,1.5-1.5l29.4-0.1c0.8,0,1.5,0.7,1.5,1.5
				c0,0.8-0.7,1.5-1.5,1.5L16.3,29.5C16.3,29.5,16.3,29.5,16.3,29.5z"/>
			<path class="st3" d="M53.2,14.7H24.1c-0.8,0-1.5-0.7-1.5-1.5c0-0.8,0.7-1.5,1.5-1.5h29.2c0.8,0,1.5,0.7,1.5,1.5
				C54.7,14,54.1,14.7,53.2,14.7z"/>
		</g>
		<path class="st0" d="M7.4,87.2V1c-1.6,0-3,1.3-3,3v86.2c0,1.6,1.3,3,3,3h62.5c1.6,0,3-1.3,3-3H10.4C8.7,90.1,7.4,88.8,7.4,87.2z"
			/>
		<path class="st3" d="M69.8,28.5l-1,3.7l1,4.3l4.1-2.8L69.8,28.5z"/>
		<path class="st4" d="M67.4,29.3v6.6l2.3,0.6v-8C69,27.5,67.4,28.1,67.4,29.3z"/>
		<path class="st5" d="M73.8,33.6L69.8,35l-1.6,4.7c0,0.7,2.6,2.4,2.6,2.4l6.6-3.8c-0.2-0.5-0.4-0.9-0.7-1.3L73.8,33.6z"/>
		<path class="st6" d="M70.3,40.9c-0.2-0.6-0.5-1.4-0.5-2.1V35l-2.3,0.8v4.5c0,0.5,0.1,1,0.2,1.4l3.1,0.4L70.3,40.9z"/>
		<path class="st7" d="M70.3,40.9l14.9,46.8c0.3,0.9,1.8,0.9,4,0.2c3.2-1.1,4.3-3.1,4.3-3.1L77.3,38.4L70.3,40.9z"/>
		<path class="st8" d="M86.2,86.5L70.3,40.9l-2.6,0.9l16.1,46.4c0.5,1.5,3.1,2,5.8,1.1c2.7-0.9,4.4-2.9,3.9-4.4c0,0-0.9,0.8-3.1,1.6
			C88.3,87.1,86.5,87.4,86.2,86.5L86.2,86.5z"/>
	</g>
</g>
</svg>
