<svg xmlns="http://www.w3.org/2000/svg" version="1.1" xmlns:xlink="http://www.w3.org/1999/xlink" xmlns:svgjs="http://svgjs.com/svgjs" width="512" height="512" x="0" y="0" viewBox="0 0 64 64" style="enable-background:new 0 0 512 512" xml:space="preserve" class=""><g><path xmlns="http://www.w3.org/2000/svg" d="m54 35.051v-9.051c0-2.757-2.243-5-5-5h-2.855c.229-.649.399-1.319.537-2h9.318c2.757 0 5-2.243 5-5v-3.184c1.161-.414 2-1.514 2-2.816 0-1.654-1.346-3-3-3s-3 1.346-3 3c0 1.302.839 2.402 2 2.816v3.184c0 1.654-1.346 3-3 3h-9.057c.022-.333.057-.663.057-1 0-.336-.031-.667-.053-1h3.053c2.757 0 5-2.243 5-5v-3.184c1.161-.414 2-1.514 2-2.816 0-1.654-1.346-3-3-3s-3 1.346-3 3c0 1.302.839 2.402 2 2.816v3.184c0 1.654-1.346 3-3 3h-3.311c-.642-3.133-2.269-6.015-4.689-8.181-3.222-2.882-7.383-4.202-11.715-3.724-6.432.715-11.717 5.636-12.986 11.905h-3.299c-1.654 0-3-1.346-3-3v-3.184c1.161-.414 2-1.514 2-2.816 0-1.654-1.346-3-3-3s-3 1.346-3 3c0 1.302.839 2.402 2 2.816v3.184c0 2.757 2.243 5 5 5h3.037c-.044.672-.044 1.34 0 2h-9.037c-1.654 0-3-1.346-3-3v-3.184c1.161-.414 2-1.514 2-2.816 0-1.654-1.346-3-3-3s-3 1.346-3 3c0 1.302.839 2.402 2 2.816v3.184c0 2.757 2.243 5 5 5h9.302c.138.681.326 1.349.556 2h-2.858c-2.757 0-5 2.243-5 5v9.051c-5.046.503-9 4.773-9 9.949 0 5.514 4.486 10 10 10s10-4.486 10-10c0-5.176-3.954-9.446-9-9.949v-9.051c0-1.654 1.346-3 3-3h3.739c.824 1.555 1.921 2.973 3.277 4.179-1.17.41-2.016 1.513-2.016 2.821 0 1.654 1.346 3 3 3h1.08c.488 3.386 3.401 6 6.92 6v4.051c-5.046.504-9 4.773-9 9.949 0 5.514 4.486 10 10 10s10-4.486 10-10c0-5.176-3.954-9.446-9-9.949v-4.051c3.519 0 6.432-2.614 6.92-6h1.08c1.654 0 3-1.346 3-3 0-1.317-.858-2.426-2.041-2.828 1.357-1.205 2.467-2.613 3.294-4.172h3.747c1.654 0 3 1.346 3 3v9.051c-5.046.504-9 4.773-9 9.949 0 5.514 4.486 10 10 10s10-4.486 10-10c0-5.176-3.954-9.446-9-9.949zm6-28.051c.551 0 1 .448 1 1s-.449 1-1 1-1-.448-1-1 .449-1 1-1zm-6-4c.551 0 1 .448 1 1s-.449 1-1 1-1-.448-1-1 .449-1 1-1zm-44 0c.551 0 1 .448 1 1s-.449 1-1 1-1-.448-1-1 .449-1 1-1zm-6 4c.551 0 1 .448 1 1s-.449 1-1 1-1-.448-1-1 .449-1 1-1zm2.208 44.391c1.125-1.491 2.896-2.391 4.792-2.391s3.667.9 4.792 2.391c-1.338 1.005-2.994 1.609-4.792 1.609s-3.454-.604-4.792-1.609zm1.792-7.391c0-1.654 1.346-3 3-3s3 1.346 3 3-1.346 3-3 3-3-1.346-3-3zm11 1c0 1.893-.664 3.633-1.768 5.004-.792-.986-1.796-1.763-2.931-2.278 1.034-.917 1.699-2.239 1.699-3.726 0-2.757-2.243-5-5-5s-5 2.243-5 5c0 1.487.665 2.809 1.699 3.726-1.135.516-2.139 1.292-2.931 2.278-1.104-1.371-1.768-3.111-1.768-5.004 0-4.411 3.589-8 8-8s8 3.589 8 8zm8.208 14.391c1.125-1.491 2.896-2.391 4.792-2.391s3.667.9 4.792 2.391c-1.338 1.005-2.994 1.609-4.792 1.609s-3.454-.604-4.792-1.609zm1.792-7.391c0-1.654 1.346-3 3-3s3 1.346 3 3-1.346 3-3 3-3-1.346-3-3zm11 1c0 1.893-.664 3.633-1.768 5.004-.792-.986-1.796-1.763-2.931-2.278 1.034-.917 1.699-2.239 1.699-3.726 0-2.757-2.243-5-5-5s-5 2.243-5 5c0 1.487.665 2.809 1.699 3.726-1.135.516-2.139 1.292-2.931 2.278-1.104-1.371-1.768-3.111-1.768-5.004 0-4.411 3.589-8 8-8s8 3.589 8 8zm-20.908-38.568c.692-5.918 5.493-10.69 11.415-11.348 3.762-.419 7.369.728 10.16 3.226 2.753 2.464 4.333 5.997 4.333 9.69 0 2.949-.988 5.727-2.76 7.982-1.16-2.948-3.549-5.24-6.479-6.313 1.363-1.101 2.239-2.784 2.239-4.669 0-3.309-2.691-6-6-6s-6 2.691-6 6c0 1.885.876 3.568 2.24 4.669-2.93 1.074-5.32 3.366-6.48 6.314-2.092-2.668-3.076-6.062-2.668-9.551zm16.755 12.568-1.269-7.612c2.928.883 5.279 3.224 6.101 6.251-.257.23-.509.464-.787.676-.245.188-.466.423-.682.686h-3.363zm-11.07 0c-.237-.28-.493-.546-.786-.775-.237-.186-.446-.396-.668-.596.825-3.022 3.174-5.36 6.099-6.242l-1.269 7.613zm3.223-14c0-2.206 1.794-4 4-4s4 1.794 4 4-1.794 4-4 4-4-1.794-4-4zm3.51 6.022c.163-.009.325-.022.49-.022s.327.013.49.022l1.33 7.978h-3.64zm1.49 17.978h-2c-2.414 0-4.434-1.721-4.899-4h11.798c-.465 2.279-2.485 4-4.899 4zm8-6h-18c-.551 0-1-.448-1-1s.449-1 1-1h18c.551 0 1 .448 1 1s-.449 1-1 1zm7.208 20.391c1.125-1.491 2.896-2.391 4.792-2.391s3.667.9 4.792 2.391c-1.338 1.005-2.994 1.609-4.792 1.609s-3.454-.604-4.792-1.609zm1.792-7.391c0-1.654 1.346-3 3-3s3 1.346 3 3-1.346 3-3 3-3-1.346-3-3zm9.232 6.004c-.792-.986-1.796-1.763-2.931-2.278 1.034-.917 1.699-2.239 1.699-3.726 0-2.757-2.243-5-5-5s-5 2.243-5 5c0 1.487.665 2.809 1.699 3.726-1.135.516-2.139 1.292-2.931 2.278-1.104-1.371-1.768-3.111-1.768-5.004 0-4.411 3.589-8 8-8s8 3.589 8 8c0 1.893-.664 3.633-1.768 5.004z" fill="#f26622" data-original="#000000" class=""></path><path xmlns="http://www.w3.org/2000/svg" d="m40.588 18.7 1.908.6c.219-.695.369-1.419.445-2.151l-1.989-.207c-.063.598-.185 1.19-.364 1.758z" fill="#f26622" data-original="#000000" class=""></path><path xmlns="http://www.w3.org/2000/svg" d="m41.68 10.771c-.35-.645-.764-1.257-1.233-1.817l-1.534 1.283c.383.458.723.959 1.009 1.487z" fill="#f26622" data-original="#000000" class=""></path><path xmlns="http://www.w3.org/2000/svg" d="m40.959 15.143 1.991-.188c-.069-.729-.211-1.455-.424-2.155l-1.914.58c.175.573.291 1.166.347 1.763z" fill="#f26622" data-original="#000000" class=""></path></g></svg>