<?xml version="1.0" encoding="utf-8"?>
<!-- Generator: Adobe Illustrator 23.0.5, SVG Export Plug-In . SVG Version: 6.00 Build 0)  -->
<svg version="1.1" id="Layer_1" xmlns="http://www.w3.org/2000/svg" xmlns:xlink="http://www.w3.org/1999/xlink" x="0px" y="0px"
	 viewBox="0 0 100 100" style="enable-background:new 0 0 100 100;" xml:space="preserve">
<style type="text/css">
	.st0{fill:#FFC119;}
	.st1{fill:#EA732D;}
	.st2{fill:#FAAC2B;}
	.st3{fill:#047FA7;}
	.st4{fill:#06687F;}
	.st5{fill:#0093BA;}
</style>
<g>
	<path class="st0" d="M58.3,86.6l20,11.7l20-11.7v-25L78.3,50l-20,11.7V86.6z"/>
	<path class="st1" d="M98.3,86.6l-20,11.7v-25l20-11.7V86.6z"/>
	<path class="st2" d="M58.3,86.6l20,11.7v-25l-20-11.7V86.6z"/>
	<path class="st0" d="M1.7,86.6l20,11.7l20-11.7v-25L21.7,50l-20,11.7V86.6z"/>
	<path class="st1" d="M41.7,86.6l-20,11.7v-25l20-11.7V86.6z"/>
	<path class="st2" d="M1.7,86.6l20,11.7v-25l-20-11.7V86.6z"/>
	<path class="st0" d="M30,38.3L50,50l20-11.7v-25L50,1.7L30,13.4V38.3z"/>
	<path class="st3" d="M8.4,82.8v-9.6l6.7,3.9v9.6L8.4,82.8z"/>
	<path class="st4" d="M91.6,82.8v-9.6L85,77.1v9.6L91.6,82.8z"/>
	<path class="st1" d="M70,38.3L50,50V25l20-11.7V38.3z"/>
	<path class="st2" d="M30,38.3L50,50V25L30,13.4V38.3z"/>
	<g>
		<path class="st5" d="M43.2,13.4L50,9.4l6.8,3.9L50,17.3L43.2,13.4z"/>
		<path class="st5" d="M58.6,32.6l2.8-1.7l1.6,2.7l-2.8,1.7L58.6,32.6z"/>
		<path class="st5" d="M61.7,37.7l2.8-1.7l12.1,19.8l-2.8,1.7L61.7,37.7z"/>
		<path class="st5" d="M75.2,59.8l2.8-1.7l1.7,2.7l-2.8,1.7L75.2,59.8z"/>
		<path class="st5" d="M37,33.5l1.6-2.7l2.8,1.7l-1.6,2.7L37,33.5z"/>
		<path class="st5" d="M23.3,55.8L35.4,36l2.8,1.7L26.2,57.5L23.3,55.8z"/>
		<path class="st5" d="M20.3,60.8l1.7-2.7l2.8,1.7l-1.7,2.7L20.3,60.8z"/>
		<path class="st5" d="M68.3,78.3h3.3v3.3h-3.3V78.3z"/>
		<path class="st5" d="M35,78.3h30v3.3H35V78.3z"/>
		<path class="st5" d="M28.4,78.3h3.3v3.3h-3.3V78.3z"/>
	</g>
</g>
</svg>
