<?xml version="1.0" encoding="utf-8"?>
<!-- Generator: Adobe Illustrator 23.0.5, SVG Export Plug-In . SVG Version: 6.00 Build 0)  -->
<svg version="1.1" id="Layer_1" xmlns="http://www.w3.org/2000/svg" xmlns:xlink="http://www.w3.org/1999/xlink" x="0px" y="0px"
	 viewBox="0 0 100 100" style="enable-background:new 0 0 100 100;" xml:space="preserve">
<style type="text/css">
	.st0{fill:url(#SVGID_1_);}
	.st1{fill:url(#SVGID_2_);}
	.st2{fill:url(#SVGID_3_);}
	.st3{fill:url(#SVGID_4_);}
	.st4{fill:url(#SVGID_5_);}
	.st5{fill:url(#SVGID_6_);}
	.st6{fill:url(#SVGID_7_);}
	.st7{fill:url(#SVGID_8_);}
	.st8{fill:url(#SVGID_9_);}
	.st9{fill:url(#SVGID_10_);}
	.st10{fill:url(#SVGID_11_);}
	.st11{fill:url(#SVGID_12_);}
	.st12{fill:url(#SVGID_13_);}
	.st13{fill:url(#SVGID_14_);}
	.st14{fill:url(#SVGID_15_);}
	.st15{fill:url(#SVGID_16_);}
	.st16{fill:url(#SVGID_17_);}
</style>
<g>
	
		<linearGradient id="SVGID_1_" gradientUnits="userSpaceOnUse" x1="294.8609" y1="-279.0671" x2="294.8609" y2="-324.8874" gradientTransform="matrix(1 0 0 -1 -256 -244)">
		<stop  offset="0" style="stop-color:#FFFCF8"/>
		<stop  offset="0.1875" style="stop-color:#FAF8F6"/>
		<stop  offset="0.4041" style="stop-color:#ECEEF2"/>
		<stop  offset="0.6353" style="stop-color:#D5DCEA"/>
		<stop  offset="0.875" style="stop-color:#B5C4DF"/>
		<stop  offset="1" style="stop-color:#A1B5D8"/>
	</linearGradient>
	<path class="st0" d="M24.3,26.8c-9.3,0-16.9,7.6-16.9,16.9v8.4c0,9.3,7.6,16.9,16.9,16.9c14.8,0,29.3,4.5,41.4,13l4.7,3.3V10.5
		l-4.7,3.3C53.6,22.2,39.1,26.8,24.3,26.8z"/>
	
		<linearGradient id="SVGID_2_" gradientUnits="userSpaceOnUse" x1="273.0783" y1="-320.0287" x2="291.3856" y2="-325.559" gradientTransform="matrix(1 0 0 -1 -256 -244)">
		<stop  offset="0" style="stop-color:#FF4974"/>
		<stop  offset="0.2277" style="stop-color:#FD4571"/>
		<stop  offset="0.4662" style="stop-color:#F93867"/>
		<stop  offset="0.7098" style="stop-color:#F12358"/>
		<stop  offset="0.9554" style="stop-color:#E60642"/>
		<stop  offset="1" style="stop-color:#E4003D"/>
	</linearGradient>
	<path class="st1" d="M27.1,63.3H12l2.4,5.6c1.6,3.7,2.4,7.7,2.4,11.7V86c0,4.2,3.4,7.6,7.6,7.6c4.2,0,7.6-3.4,7.6-7.6v-5.3
		c0-4-0.8-8-2.4-11.7L27.1,63.3z"/>
	
		<linearGradient id="SVGID_3_" gradientUnits="userSpaceOnUse" x1="284.0041" y1="-326.2953" x2="277.2185" y2="-314.3845" gradientTransform="matrix(1 0 0 -1 -256 -244)">
		<stop  offset="0" style="stop-color:#E4003D;stop-opacity:0"/>
		<stop  offset="0.2234" style="stop-color:#CD1845;stop-opacity:0.2235"/>
		<stop  offset="0.5034" style="stop-color:#B82E4D;stop-opacity:0.502"/>
		<stop  offset="0.7682" style="stop-color:#AB3C51;stop-opacity:0.7686"/>
		<stop  offset="1" style="stop-color:#A64153"/>
	</linearGradient>
	<path class="st2" d="M26.1,73.1h-4.9c-1.5,0-2.8,1.2-2.8,2.8v0c0,0.8,0.4,1.6,1,2.1l11.6,11.6c0.6-1.1,0.9-2.3,0.9-3.6v-5.3
		c0-1-0.1-2.1-0.2-3.1l-3.5-3.5C27.7,73.5,26.9,73.1,26.1,73.1z"/>
	
		<linearGradient id="SVGID_4_" gradientUnits="userSpaceOnUse" x1="277.9782" y1="-319.4009" x2="285.2314" y2="-321.592" gradientTransform="matrix(1 0 0 -1 -256 -244)">
		<stop  offset="0" style="stop-color:#FFD00D"/>
		<stop  offset="0.2378" style="stop-color:#FFCB0E"/>
		<stop  offset="0.5353" style="stop-color:#FFBB11"/>
		<stop  offset="0.8632" style="stop-color:#FFA215"/>
		<stop  offset="1" style="stop-color:#FF9517"/>
	</linearGradient>
	<path class="st3" d="M26.1,78.7h-4.9c-1.5,0-2.8-1.2-2.8-2.8v0c0-1.5,1.2-2.8,2.8-2.8h4.9c1.5,0,2.8,1.2,2.8,2.8v0
		C28.9,77.5,27.6,78.7,26.1,78.7z"/>
	
		<linearGradient id="SVGID_5_" gradientUnits="userSpaceOnUse" x1="282.8834" y1="-334.0111" x2="278.0468" y2="-323.1108" gradientTransform="matrix(1 0 0 -1 -256 -244)">
		<stop  offset="0" style="stop-color:#E4003D;stop-opacity:0"/>
		<stop  offset="0.2234" style="stop-color:#CD1845;stop-opacity:0.2235"/>
		<stop  offset="0.5034" style="stop-color:#B82E4D;stop-opacity:0.502"/>
		<stop  offset="0.7682" style="stop-color:#AB3C51;stop-opacity:0.7686"/>
		<stop  offset="1" style="stop-color:#A64153"/>
	</linearGradient>
	<path class="st4" d="M28.2,83c-0.5-0.6-1.3-1-2.1-1h-4.9c-1.5,0-2.8,1.2-2.8,2.8v0c0,0.8,0.4,1.6,1,2.1l6.5,6.5
		c3.2-0.7,5.7-3.4,6-6.8L28.2,83z"/>
	
		<linearGradient id="SVGID_6_" gradientUnits="userSpaceOnUse" x1="277.9782" y1="-328.3274" x2="285.2314" y2="-330.5185" gradientTransform="matrix(1 0 0 -1 -256 -244)">
		<stop  offset="0" style="stop-color:#FFD00D"/>
		<stop  offset="0.2378" style="stop-color:#FFCB0E"/>
		<stop  offset="0.5353" style="stop-color:#FFBB11"/>
		<stop  offset="0.8632" style="stop-color:#FFA215"/>
		<stop  offset="1" style="stop-color:#FF9517"/>
	</linearGradient>
	<path class="st5" d="M26.1,87.6h-4.9c-1.5,0-2.8-1.2-2.8-2.8v0c0-1.5,1.2-2.8,2.8-2.8h4.9c1.5,0,2.8,1.2,2.8,2.8v0
		C28.9,86.4,27.6,87.6,26.1,87.6z"/>
	
		<linearGradient id="SVGID_7_" gradientUnits="userSpaceOnUse" x1="279.1419" y1="-321.1561" x2="274.5253" y2="-296.6643" gradientTransform="matrix(1 0 0 -1 -256 -244)">
		<stop  offset="0" style="stop-color:#E4003D;stop-opacity:0"/>
		<stop  offset="0.2234" style="stop-color:#CD1845;stop-opacity:0.2235"/>
		<stop  offset="0.5034" style="stop-color:#B82E4D;stop-opacity:0.502"/>
		<stop  offset="0.7682" style="stop-color:#AB3C51;stop-opacity:0.7686"/>
		<stop  offset="1" style="stop-color:#A64153"/>
	</linearGradient>
	<path class="st6" d="M31.8,83.7v-3c0-4-0.8-8-2.4-11.7l-2.4-5.6H12l0.4,0.8L31.8,83.7z"/>
	
		<linearGradient id="SVGID_8_" gradientUnits="userSpaceOnUse" x1="262.8495" y1="-287.8308" x2="267.5782" y2="-300.5982" gradientTransform="matrix(1 0 0 -1 -256 -244)">
		<stop  offset="0" style="stop-color:#FFD00D"/>
		<stop  offset="0.2378" style="stop-color:#FFCB0E"/>
		<stop  offset="0.5353" style="stop-color:#FFBB11"/>
		<stop  offset="0.8632" style="stop-color:#FFA215"/>
		<stop  offset="1" style="stop-color:#FF9517"/>
	</linearGradient>
	<path class="st7" d="M16.3,47.9c0,4.4-3.5,7.9-7.9,7.9c-4.4,0-7.9-3.5-7.9-7.9S4,40,8.3,40C12.7,40,16.3,43.5,16.3,47.9z"/>
	
		<linearGradient id="SVGID_9_" gradientUnits="userSpaceOnUse" x1="277.5763" y1="-284.3257" x2="277.5763" y2="-311.3256" gradientTransform="matrix(1 0 0 -1 -256 -244)">
		<stop  offset="0" style="stop-color:#FF4974"/>
		<stop  offset="0.2277" style="stop-color:#FD4571"/>
		<stop  offset="0.4662" style="stop-color:#F93867"/>
		<stop  offset="0.7098" style="stop-color:#F12358"/>
		<stop  offset="0.9554" style="stop-color:#E60642"/>
		<stop  offset="1" style="stop-color:#E4003D"/>
	</linearGradient>
	<path class="st8" d="M27.9,53.2V42.5c0-6.7,3.1-12.7,7.9-16.7c-3.8,0.6-7.7,0.9-11.5,0.9c-9.3,0-16.9,7.6-16.9,16.9v8.4
		c0,9.3,7.6,16.9,16.9,16.9c3.9,0,7.7,0.3,11.5,0.9C31,66,27.9,59.9,27.9,53.2z"/>
	
		<linearGradient id="SVGID_10_" gradientUnits="userSpaceOnUse" x1="320.9363" y1="-279.6771" x2="387.6992" y2="-336.7708" gradientTransform="matrix(1 0 0 -1 -256 -244)">
		<stop  offset="0" style="stop-color:#FFD00D"/>
		<stop  offset="0.2378" style="stop-color:#FFCB0E"/>
		<stop  offset="0.5353" style="stop-color:#FFBB11"/>
		<stop  offset="0.8632" style="stop-color:#FFA215"/>
		<stop  offset="1" style="stop-color:#FF9517"/>
	</linearGradient>
	<path class="st9" d="M99.6,48c0-23.3-9.1-42.2-20.2-42.2C68.2,5.8,59.1,24.7,59.1,48s9.1,42.2,20.2,42.2
		C90.5,90.2,99.6,71.3,99.6,48z"/>
	
		<linearGradient id="SVGID_11_" gradientUnits="userSpaceOnUse" x1="342.621" y1="-291.9916" x2="305.8417" y2="-291.9916" gradientTransform="matrix(1 0 0 -1 -256 -244)">
		<stop  offset="0" style="stop-color:#FFFCF8"/>
		<stop  offset="0.1875" style="stop-color:#FAF8F6"/>
		<stop  offset="0.4041" style="stop-color:#ECEEF2"/>
		<stop  offset="0.6353" style="stop-color:#D5DCEA"/>
		<stop  offset="0.875" style="stop-color:#B5C4DF"/>
		<stop  offset="1" style="stop-color:#A1B5D8"/>
	</linearGradient>
	<path class="st10" d="M93.9,48c0-18.7-5.9-33.8-13.2-33.8c-7.3,0-13.2,15.1-13.2,33.8s5.9,33.8,13.2,33.8
		C88,81.8,93.9,66.7,93.9,48z"/>
	
		<linearGradient id="SVGID_12_" gradientUnits="userSpaceOnUse" x1="336.7844" y1="-308.9004" x2="288.2362" y2="-274.0155" gradientTransform="matrix(1 0 0 -1 -256 -244)">
		<stop  offset="0" style="stop-color:#A1B5D8;stop-opacity:0"/>
		<stop  offset="0.6699" style="stop-color:#8190A4;stop-opacity:0.6706"/>
		<stop  offset="1" style="stop-color:#748290"/>
	</linearGradient>
	<path class="st11" d="M92.9,60.7c0,0.2,0,0.3-0.1,0.5c-0.1,0.5-0.2,1.1-0.3,1.6c0,0.2-0.1,0.4-0.1,0.6c-0.3,1.5-0.6,2.9-1,4.2
		c-0.1,0.2-0.1,0.4-0.2,0.6c0,0,0,0,0,0.1c-0.1,0.2-0.1,0.4-0.2,0.6c-0.1,0.2-0.1,0.4-0.2,0.6c-0.1,0.2-0.1,0.3-0.2,0.5
		c0,0.1,0,0.1-0.1,0.2c-0.1,0.2-0.1,0.3-0.2,0.5c-0.1,0.2-0.1,0.4-0.2,0.6c-0.1,0.2-0.1,0.4-0.2,0.5c0,0.1-0.1,0.2-0.1,0.3
		c0,0.1-0.1,0.2-0.1,0.3c-0.1,0.2-0.2,0.4-0.2,0.6c0,0.1-0.1,0.2-0.1,0.3c-0.1,0.1-0.1,0.2-0.2,0.3c-0.1,0.1-0.1,0.3-0.2,0.4
		c-0.3,0.7-0.6,1.3-1,1.9c-2.1,3.7-4.7,5.9-7.4,5.9c-6.2,0-11.5-11.1-12.8-26.1c0-0.2,0-0.4-0.1-0.6c0-0.4-0.1-0.7-0.1-1.1
		c0-0.1,0-0.1,0-0.2c0-0.4,0-0.7-0.1-1.1c0-0.2,0-0.5,0-0.7c0-0.1,0-0.1,0-0.2l0-0.9c0,0,0-0.1,0-0.1c0-0.3,0-0.6,0-0.8
		c0-0.1,0-0.1,0-0.1v0c0-0.2,0-0.4,0-0.6c0-0.1,0-0.3,0-0.4c0-0.3,0-0.6,0-0.9c0-0.3,0-0.6,0-0.9c0-0.1,0-0.3,0-0.4
		c0-0.2,0-0.5,0-0.7c0,0,0-0.1,0-0.1c0-0.2,0-0.3,0-0.5c0-0.2,0-0.4,0-0.6c0-0.2,0-0.5,0-0.7c0,0,0-0.1,0-0.1c0-0.1,0-0.2,0-0.2
		c0-1,0.1-1.9,0.2-2.9c0-0.3,0-0.6,0.1-0.8c0.3,0,0.7-0.1,1-0.1c2.3,0,4.4,1,5.8,2.6L92.9,60.7z"/>
	
		<linearGradient id="SVGID_13_" gradientUnits="userSpaceOnUse" x1="291.4612" y1="-290.3572" x2="284.3356" y2="-290.3572" gradientTransform="matrix(1 0 0 -1 -256 -244)">
		<stop  offset="0" style="stop-color:#FFFCF8"/>
		<stop  offset="0.1875" style="stop-color:#FAF8F6"/>
		<stop  offset="0.4041" style="stop-color:#ECEEF2"/>
		<stop  offset="0.6353" style="stop-color:#D5DCEA"/>
		<stop  offset="0.875" style="stop-color:#B5C4DF"/>
		<stop  offset="1" style="stop-color:#A1B5D8"/>
	</linearGradient>
	<path class="st12" d="M34.5,51.7h-0.3c-1.3,0-2.4-1.1-2.4-2.4v-5.9c0-1.3,1.1-2.4,2.4-2.4h0.3c1.3,0,2.4,1.1,2.4,2.4v5.9
		C36.9,50.6,35.8,51.7,34.5,51.7z"/>
	
		<linearGradient id="SVGID_14_" gradientUnits="userSpaceOnUse" x1="298.5532" y1="-290.3572" x2="291.4276" y2="-290.3572" gradientTransform="matrix(1 0 0 -1 -256 -244)">
		<stop  offset="0" style="stop-color:#FFFCF8"/>
		<stop  offset="0.1875" style="stop-color:#FAF8F6"/>
		<stop  offset="0.4041" style="stop-color:#ECEEF2"/>
		<stop  offset="0.6353" style="stop-color:#D5DCEA"/>
		<stop  offset="0.875" style="stop-color:#B5C4DF"/>
		<stop  offset="1" style="stop-color:#A1B5D8"/>
	</linearGradient>
	<path class="st13" d="M41.6,51.7h-0.3c-1.3,0-2.4-1.1-2.4-2.4v-5.9c0-1.3,1.1-2.4,2.4-2.4h0.3c1.3,0,2.4,1.1,2.4,2.4v5.9
		C44,50.6,42.9,51.7,41.6,51.7z"/>
	
		<linearGradient id="SVGID_15_" gradientUnits="userSpaceOnUse" x1="284.9778" y1="-295.5702" x2="279.9437" y2="-288.6748" gradientTransform="matrix(1 0 0 -1 -256 -244)">
		<stop  offset="0" style="stop-color:#E4003D;stop-opacity:0"/>
		<stop  offset="0.2234" style="stop-color:#CD1845;stop-opacity:0.2235"/>
		<stop  offset="0.5034" style="stop-color:#B82E4D;stop-opacity:0.502"/>
		<stop  offset="0.7682" style="stop-color:#AB3C51;stop-opacity:0.7686"/>
		<stop  offset="1" style="stop-color:#A64153"/>
	</linearGradient>
	<path class="st14" d="M27.9,53.2v-9.4h-4.4c-1.1,0-2,0.9-2,2v1.1c0,0.6,0.3,1.1,0.7,1.5l5.8,5.8C27.9,53.9,27.9,53.5,27.9,53.2z"/>
	
		<linearGradient id="SVGID_16_" gradientUnits="userSpaceOnUse" x1="280.6707" y1="-289.3241" x2="280.6707" y2="-296.0738" gradientTransform="matrix(1 0 0 -1 -256 -244)">
		<stop  offset="0" style="stop-color:#FFD00D"/>
		<stop  offset="0.2378" style="stop-color:#FFCB0E"/>
		<stop  offset="0.5353" style="stop-color:#FFBB11"/>
		<stop  offset="0.8632" style="stop-color:#FFA215"/>
		<stop  offset="1" style="stop-color:#FF9517"/>
	</linearGradient>
	<path class="st15" d="M27.9,43.8h-4.4c-1.1,0-2,0.9-2,2v1.1c0,1.1,0.9,2,2,2h4.4V43.8z"/>
	
		<linearGradient id="SVGID_17_" gradientUnits="userSpaceOnUse" x1="325.4673" y1="-287.2473" x2="330.1332" y2="-299.8454" gradientTransform="matrix(1 0 0 -1 -256 -244)">
		<stop  offset="0" style="stop-color:#FF4974"/>
		<stop  offset="0.2277" style="stop-color:#FD4571"/>
		<stop  offset="0.4662" style="stop-color:#F93867"/>
		<stop  offset="0.7098" style="stop-color:#F12358"/>
		<stop  offset="0.9554" style="stop-color:#E60642"/>
		<stop  offset="1" style="stop-color:#E4003D"/>
	</linearGradient>
	<path class="st16" d="M68.9,40c-0.3,0-0.7,0-1,0.1c-0.2,2.6-0.4,5.2-0.4,8c0,2.7,0.1,5.2,0.3,7.7c0.3,0,0.7,0.1,1,0.1
		c4.4,0,7.9-3.5,7.9-7.9C76.8,43.5,73.3,40,68.9,40z"/>
</g>
</svg>
