<svg xmlns="http://www.w3.org/2000/svg" version="1.1" xmlns:xlink="http://www.w3.org/1999/xlink" xmlns:svgjs="http://svgjs.com/svgjs" width="512" height="512" x="0" y="0" viewBox="0 0 64 64" style="enable-background:new 0 0 512 512" xml:space="preserve" class=""><g><g xmlns="http://www.w3.org/2000/svg" id="Layer_36" data-name="Layer 36"><path d="m32 57a25 25 0 1 0 -25-25 25.028 25.028 0 0 0 25 25zm-9-37h23l-5 6h-23zm18 9 5 6h-23l-5-6zm-18 9h23l-5 6h-23z" fill="#9bc9ff" data-original="#9bc9ff" class=""></path><g fill="#1e81ce"><path d="m32 62a30 30 0 1 1 30-30 30.034 30.034 0 0 1 -30 30zm0-58a28 28 0 1 0 28 28 28.032 28.032 0 0 0 -28-28z" fill="#1e81ce" data-original="#1e81ce"></path><path d="m32 58a26 26 0 1 1 26-26 26.03 26.03 0 0 1 -26 26zm0-50a24 24 0 1 0 24 24 24.028 24.028 0 0 0 -24-24z" fill="#1e81ce" data-original="#1e81ce"></path><path d="m41 45h-23a1 1 0 0 1 -.768-1.64l5-6a1 1 0 0 1 .768-.36h23a1 1 0 0 1 .769 1.64l-5 6a1 1 0 0 1 -.769.36zm-20.865-2h20.4l3.334-4h-20.4z" fill="#1e81ce" data-original="#1e81ce"></path><path d="m46 36h-23a1 1 0 0 1 -.768-.36l-5-6a1 1 0 0 1 .768-1.64h23a1 1 0 0 1 .769.36l5 6a1 1 0 0 1 -.769 1.64zm-22.532-2h20.4l-3.334-4h-20.4z" fill="#1e81ce" data-original="#1e81ce"></path><path d="m41 27h-23a1 1 0 0 1 -.768-1.64l5-6a1 1 0 0 1 .768-.36h23a1 1 0 0 1 .769 1.64l-5 6a1 1 0 0 1 -.769.36zm-20.865-2h20.4l3.334-4h-20.4z" fill="#1e81ce" data-original="#1e81ce"></path></g></g></g></svg>