<svg xmlns="http://www.w3.org/2000/svg" version="1.1" xmlns:xlink="http://www.w3.org/1999/xlink" xmlns:svgjs="http://svgjs.com/svgjs" width="512" height="512" x="0" y="0" viewBox="0 0 512 512" style="enable-background:new 0 0 512 512" xml:space="preserve" class=""><g><linearGradient xmlns="http://www.w3.org/2000/svg" id="linear-gradient" gradientUnits="userSpaceOnUse" x1="256" x2="256" y1="490.121" y2="87.132"><stop stop-opacity="1" stop-color="#f26622" offset="0"></stop><stop stop-opacity="1" stop-color="#f26622" offset="1"></stop></linearGradient><linearGradient xmlns="http://www.w3.org/2000/svg" id="linear-gradient-2" x1="256.285" x2="256.285" xmlns:xlink="http://www.w3.org/1999/xlink" xlink:href="#linear-gradient" y1="490.121" y2="87.132"></linearGradient><linearGradient xmlns="http://www.w3.org/2000/svg" id="linear-gradient-4" x1="256.5" x2="256.5" xmlns:xlink="http://www.w3.org/1999/xlink" xlink:href="#linear-gradient" y1="490.121" y2="87.132"></linearGradient><linearGradient xmlns="http://www.w3.org/2000/svg" id="linear-gradient-5" x1="237.602" x2="237.602" xmlns:xlink="http://www.w3.org/1999/xlink" xlink:href="#linear-gradient" y1="490.121" y2="87.132"></linearGradient><linearGradient xmlns="http://www.w3.org/2000/svg" id="linear-gradient-6" x1="193.954" x2="193.954" xmlns:xlink="http://www.w3.org/1999/xlink" xlink:href="#linear-gradient" y1="490.121" y2="87.132"></linearGradient><path xmlns="http://www.w3.org/2000/svg" d="m475.052 224.052a31.957 31.957 0 0 0 -31.384 25.948h-60.691a125.775 125.775 0 0 0 -6.617-35h1.8a32.474 32.474 0 0 0 32.429-32.44 20.444 20.444 0 0 1 19.9-20.407 31.945 31.945 0 1 0 -.008-12.018 32.469 32.469 0 0 0 -31.893 32.425 20.461 20.461 0 0 1 -20.428 20.44h-6.6a127.844 127.844 0 0 0 -62.56-62.514v-6.646a20.461 20.461 0 0 1 20.44-20.429 32.465 32.465 0 0 0 32.42-31.893 31.928 31.928 0 1 0 -12.008-.007 20.448 20.448 0 0 1 -20.412 19.9 32.474 32.474 0 0 0 -32.44 32.429v1.891a127.939 127.939 0 0 0 -28.431-6.109q-3.291-.326-6.569-.478v-60.812a31.952 31.952 0 0 0 16.591-53.975 31.948 31.948 0 0 0 -45.182 45.182 31.718 31.718 0 0 0 16.591 8.793v60.8a125.765 125.765 0 0 0 -35 6.651v-1.943a32.474 32.474 0 0 0 -32.44-32.429 20.445 20.445 0 0 1 -20.407-19.9 31.95 31.95 0 1 0 -12.018.007 32.469 32.469 0 0 0 32.425 31.893 20.461 20.461 0 0 1 20.44 20.429v6.76a127.788 127.788 0 0 0 -27.444 17.228 126.5 126.5 0 0 0 -34.913 45.172h-6.8a20.461 20.461 0 0 1 -20.429-20.44 32.465 32.465 0 0 0 -31.893-32.42 31.936 31.936 0 1 0 -.008 12.008 20.449 20.449 0 0 1 19.9 20.412 32.474 32.474 0 0 0 32.427 32.44h2.035a127.948 127.948 0 0 0 -6.146 28.538q-.32 3.237-.474 6.462h-60.923a31.952 31.952 0 0 0 -53.975-16.591 31.948 31.948 0 0 0 45.182 45.182 31.721 31.721 0 0 0 8.793-16.591h60.905a125.776 125.776 0 0 0 6.618 35h-2.015a32.474 32.474 0 0 0 -32.429 32.44 20.444 20.444 0 0 1 -19.9 20.407 31.945 31.945 0 1 0 .008 12.018 32.469 32.469 0 0 0 31.893-32.425 20.461 20.461 0 0 1 20.428-20.44h6.816a127.846 127.846 0 0 0 62.344 62.415v6.745a20.461 20.461 0 0 1 -20.44 20.429 32.465 32.465 0 0 0 -32.42 31.893 31.921 31.921 0 1 0 12.013.007 20.445 20.445 0 0 1 20.407-19.9 32.474 32.474 0 0 0 32.44-32.429v-1.96a127.969 127.969 0 0 0 28.646 6.183q3.183.315 6.354.47v60.82a31.938 31.938 0 1 0 12 0v-60.796a125.8 125.8 0 0 0 35-6.585v1.868a32.474 32.474 0 0 0 32.44 32.429 20.445 20.445 0 0 1 20.407 19.9 31.95 31.95 0 1 0 12.018-.007 32.469 32.469 0 0 0 -32.425-31.893 20.461 20.461 0 0 1 -20.44-20.429v-6.651a127.923 127.923 0 0 0 62.572-62.509h6.588a20.461 20.461 0 0 1 20.429 20.44 32.465 32.465 0 0 0 31.893 32.42 31.936 31.936 0 1 0 .008-12.008 20.449 20.449 0 0 1 -19.9-20.412 32.474 32.474 0 0 0 -32.43-32.44h-1.821a127.948 127.948 0 0 0 6.146-28.538q.319-3.237.474-6.462h60.709a31.951 31.951 0 1 0 31.384-37.948zm-27.289-82.036a19.948 19.948 0 1 1 0 28.211 19.88 19.88 0 0 1 0-28.211zm-105.99-77.779a19.948 19.948 0 1 1 28.211 0 19.972 19.972 0 0 1 -28.211 0zm-199.757 0a19.948 19.948 0 1 1 28.211 0 19.97 19.97 0 0 1 -28.211 0zm-77.779 105.99a19.94 19.94 0 1 1 0-28.211 19.97 19.97 0 0 1 0 28.211zm-13.183 99.878a19.939 19.939 0 1 1 0-28.21 19.969 19.969 0 0 1 0 28.21zm13.183 99.879a19.939 19.939 0 1 1 0-28.211 19.969 19.969 0 0 1 0 28.211zm105.99 77.779a19.969 19.969 0 1 1 -14.106-5.834 19.972 19.972 0 0 1 14.106 5.834zm185.652-5.834a19.94 19.94 0 1 1 -14.106 5.834 19.884 19.884 0 0 1 14.106-5.834zm-113.979-390.875a19.948 19.948 0 1 1 28.21 0 19.97 19.97 0 0 1 -28.21 0zm28.21 409.892a19.97 19.97 0 1 1 -14.11-5.833 19.97 19.97 0 0 1 14.105 5.833zm100.433-193.662a114.982 114.982 0 1 1 -114.643-126.284q5.721 0 11.5.567a114.991 114.991 0 0 1 103.152 125.72zm77.22 74.489a19.948 19.948 0 1 1 0 28.211 19.883 19.883 0 0 1 0-28.211zm41.394-71.668a19.939 19.939 0 1 1 0-28.21 19.969 19.969 0 0 1 0 28.21z" fill="url(#linear-gradient)" data-original="url(#linear-gradient)" class=""></path><path xmlns="http://www.w3.org/2000/svg" d="m335.5 232a6 6 0 0 0 0-12h-17.5v-4.185a21.471 21.471 0 0 0 -21.531-21.815h-4.469v-17.214a6 6 0 0 0 -12 0v17.214h-18v-17.214a6 6 0 0 0 -12 0v17.214h-18v-17.214a6 6 0 0 0 -12 0v17.214h-3.9a21.954 21.954 0 0 0 -22.1 21.815v4.185h-16.93a6 6 0 0 0 0 12h16.93v18h-16.93a6 6 0 0 0 0 12h16.93v18h-16.93a6 6 0 0 0 0 12h16.93v4.185a21.954 21.954 0 0 0 22.1 21.815h3.9v17.214a6 6 0 0 0 12 0v-17.214h18v17.214a6 6 0 0 0 12 0v-17.214h18v17.214a6 6 0 0 0 12 0v-17.214h4.469a21.471 21.471 0 0 0 21.531-21.815v-4.185h17.5a6 6 0 0 0 0-12h-17.5v-18h17.5a6 6 0 0 0 0-12h-17.5v-18zm-29.5 64a10 10 0 0 1 -10 10h-80a10 10 0 0 1 -10-10v-80a10 10 0 0 1 10-10h80a10 10 0 0 1 10 10z" fill="url(#linear-gradient-2)" data-original="url(#linear-gradient-2)" class=""></path><path xmlns="http://www.w3.org/2000/svg" d="m293 213h-74a6 6 0 0 0 -6 6v74a6 6 0 0 0 6 6h74a6 6 0 0 0 6-6v-74a6 6 0 0 0 -6-6zm-6 74h-62v-62h62z" fill="url(#linear-gradient)" data-original="url(#linear-gradient)" class=""></path><path xmlns="http://www.w3.org/2000/svg" d="m238 280h37a6 6 0 0 0 6-6v-37a6 6 0 0 0 -6-6h-37a6 6 0 0 0 -6 6v37a6 6 0 0 0 6 6zm6-37h25v26h-25z" fill="url(#linear-gradient-4)" data-original="url(#linear-gradient-4)" class=""></path><path xmlns="http://www.w3.org/2000/svg" d="m235 162.924a6.052 6.052 0 0 0 1.2-.12c1.615-.327 3.259-.616 4.886-.859a6 6 0 1 0 -1.769-11.869c-1.832.274-3.682.6-5.5.967a6 6 0 0 0 1.183 11.881z" fill="url(#linear-gradient-5)" data-original="url(#linear-gradient-5)"></path><path xmlns="http://www.w3.org/2000/svg" d="m177.34 200.9a96.369 96.369 0 0 1 40.445-32.377 6 6 0 1 0 -4.7-11.042 108.364 108.364 0 0 0 -45.485 36.404 6 6 0 1 0 9.737 7.013z" fill="url(#linear-gradient-6)" data-original="url(#linear-gradient-6)" class=""></path></g></svg>