<?xml version="1.0" encoding="utf-8"?>
<!-- Generator: Adobe Illustrator 23.0.5, SVG Export Plug-In . SVG Version: 6.00 Build 0)  -->
<svg version="1.1" id="Layer_1" xmlns:svgjs="http://svgjs.com/svgjs"
	 xmlns="http://www.w3.org/2000/svg" xmlns:xlink="http://www.w3.org/1999/xlink" x="0px" y="0px" viewBox="0 0 512 512"
	 style="enable-background:new 0 0 512 512;" xml:space="preserve">
<style type="text/css">
	.st0{fill:#FFFFFF;}
</style>
<g>
	<path class="st0" d="M256,432.8c56.6,0,102.7-46,102.7-102.7S312.6,227.3,256,227.3s-102.7,46-102.7,102.7
		C153.3,386.8,199.4,432.8,256,432.8z M278.7,340.2h-45.2c-13.5,0-24.6-11.1-24.6-24.6v-22.6c0-13.5,11.1-24.6,24.6-24.6h12.4V261
		c0-5.6,4.6-10.2,10.2-10.2c5.6,0,10.2,4.6,10.2,10.2v7.5h12.5c13.6,0,24.6,11.1,24.6,24.6c0,5.6-4.6,10.2-10.2,10.2
		s-10.2-4.6-10.2-10.2c0-2.3-1.9-4.3-4.3-4.3h-45.2c-2.3,0-4.3,1.9-4.3,4.3v22.6c0,2.3,1.9,4.3,4.3,4.3h45.2
		c13.6,0,24.6,11.1,24.6,24.6V367c0,13.5-11.1,24.6-24.6,24.6h-12.5v7.5c0,5.6-4.6,10.2-10.2,10.2c-5.6,0-10.2-4.6-10.2-10.2v-7.5
		h-12.5c-13.5,0-24.6-11.1-24.6-24.6c0-5.6,4.6-10.2,10.2-10.2c5.6,0,10.2,4.6,10.2,10.2c0,2.3,1.9,4.3,4.3,4.3h45.2
		c2.3,0,4.3-1.9,4.3-4.3v-22.6C282.9,342.2,281,340.2,278.7,340.2L278.7,340.2z"/>
	<path class="st0" d="M76.1,330.1c0,99.2,80.7,179.9,179.8,179.9c99.3,0,179.9-80.8,179.9-179.9c0-79.5-52-149-127.5-171.9V70.1h6.2
		c18.8,0,34-15.2,34-34s-15.2-34-34-34H197.4c-18.8,0-34,15.2-34,34s15.2,34,34,34h6.2v88.1C128.1,181,76.1,250.6,76.1,330.1
		L76.1,330.1z M255.9,207c67.9,0,123,55.2,123,123s-55.2,123-123,123c-67.8,0-122.9-55.2-122.9-123C133.1,262.2,188.2,207,255.9,207
		z"/>
</g>
</svg>
