<?xml version="1.0" encoding="utf-8"?>
<!-- Generator: Adobe Illustrator 23.0.5, SVG Export Plug-In . SVG Version: 6.00 Build 0)  -->
<svg version="1.1" id="Layer_1" xmlns="http://www.w3.org/2000/svg" xmlns:xlink="http://www.w3.org/1999/xlink" x="0px" y="0px"
	 viewBox="0 0 100 100" style="enable-background:new 0 0 100 100;" xml:space="preserve">
<style type="text/css">
	.st0{fill:#FCD249;}
	.st1{fill:#F9B938;}
	.st2{fill:#E59C1C;}
	.st3{fill:#D88D16;}
	.st4{fill:#F2F0F0;}
</style>
<g>
	<path class="st0" d="M83.9,89.2c-14.2,8.2-32.5,3.3-40.7-10.9s-3.3-32.5,10.9-40.7s32.5-3.3,40.7,10.9
		C103.1,62.7,98.2,81,83.9,89.2z"/>
	<g>
		<path class="st1" d="M48,75.5c-7.8-13.4-3.8-30.5,8.6-39.3c-0.8,0.4-1.6,0.8-2.5,1.3C39.9,45.8,35,64,43.2,78.3
			c8.2,14.2,26.5,19.1,40.7,10.9c0.8-0.5,1.6-1,2.3-1.5C72.4,94.1,55.7,89,48,75.5z"/>
		<path class="st1" d="M56.9,42.3C45.3,49,41.3,63.9,48,75.5c6.7,11.6,21.6,15.6,33.2,8.9c11.6-6.7,15.6-21.6,8.9-33.2
			C83.4,39.6,68.5,35.6,56.9,42.3z"/>
	</g>
	<g>
		<path class="st2" d="M52.4,73c-6.3-10.9-3.2-24.6,6.7-31.8c-0.8,0.3-1.5,0.7-2.3,1.2C45.3,49,41.3,63.9,48,75.5
			s21.6,15.6,33.2,8.9c0.7-0.4,1.5-0.9,2.2-1.4C72.1,88,58.7,83.8,52.4,73z"/>
		<path class="st2" d="M61.1,21.2H3.7c-1.4,0-2.6,1.2-2.6,2.6v2.1c0,1.4,1.2,2.6,2.6,2.6h57.4c1.4,0,2.6-1.2,2.6-2.6v-2.1
			C63.7,22.4,62.5,21.2,61.1,21.2z"/>
	</g>
	<path class="st1" d="M66.2,14H8.9c-1.4,0-2.6,1.2-2.6,2.6v2.1c0,1.4,1.2,2.6,2.6,2.6h57.4c1.4,0,2.6-1.2,2.6-2.6v-2.1
		C68.8,15.2,67.7,14,66.2,14z"/>
	<path class="st2" d="M61.1,6.8H3.7c-1.4,0-2.6,1.2-2.6,2.6v2.1c0,1.4,1.2,2.6,2.6,2.6h57.4c1.4,0,2.6-1.2,2.6-2.6V9.4
		C63.7,7.9,62.5,6.8,61.1,6.8z"/>
	<path class="st1" d="M8.9,86c-1.4,0-2.6,1.2-2.6,2.6v2.1c0,1.4,1.2,2.6,2.6,2.6H52c-7.4,0-11.6-2.7-16.9-7.2H8.9z"/>
	<path class="st2" d="M29,78.8H3.7c-1.4,0-2.6,1.2-2.6,2.6v2.1c0,1.4,1.2,2.6,2.6,2.6h31.4C32.7,83.9,30.7,81.5,29,78.8z"/>
	<path class="st1" d="M25.9,71.6h-17c-1.4,0-2.6,1.2-2.6,2.6v2.1c0,1.4,1.2,2.6,2.6,2.6H29C27.7,76.6,26.6,74.2,25.9,71.6z"/>
	<path class="st2" d="M24.7,64.4H13.6c-1.4,0-2.6,1.2-2.6,2.6V69c0,1.4,1.2,2.6,2.6,2.6h12.3C25.2,69.3,24.8,66.9,24.7,64.4z"/>
	<path class="st1" d="M25.4,57.2H3.7c-1.4,0-2.6,1.2-2.6,2.6v2.1c0,1.4,1.2,2.6,2.6,2.6h21C24.7,62,24.9,59.6,25.4,57.2z"/>
	<path class="st2" d="M27.9,50h-19c-1.4,0-2.6,1.2-2.6,2.6v2.1c0,1.4,1.2,2.6,2.6,2.6h16.5C25.9,54.7,26.8,52.3,27.9,50z"/>
	<g>
		<path class="st1" d="M33,42.8H8.9c-1.4,0-2.6,1.2-2.6,2.6v2.1c0,1.4,1.2,2.6,2.6,2.6h19C29.2,47.4,31,44.9,33,42.8z"/>
		<path class="st1" d="M63.7,33c0-1.9,0.1-2.5-0.3-3.3c-0.4-0.8-1.3-1.3-2.3-1.3c-7.1,0-50.3,0-57.4,0c-1.4,0-2.6,1.2-2.6,2.6
			c0.1,1.5-0.2,2.2,0.2,3.1l0,0l0,0c0.4,0.9,1.3,1.5,2.3,1.5c2.2,0,55.1,0,57.4,0c1,0,1.9-0.6,2.3-1.5l0,0l0,0
			c0.1-0.2,0.1-0.3,0.2-0.5C63.6,33.4,63.7,33.2,63.7,33z"/>
	</g>
	<path class="st2" d="M43.7,35.6H13.6c-1.4,0-2.6,1.2-2.6,2.6v2.1c0,1.4,1.2,2.6,2.6,2.6H33C36,39.7,39.6,37.2,43.7,35.6z"/>
	<path class="st3" d="M11.2,25.8v-2.1c0-1.4,1.2-2.6,2.6-2.6H3.7c-1.4,0-2.6,1.2-2.6,2.6v2.1c0,1.4,1.2,2.6,2.6,2.6h10.1
		C12.4,28.4,11.2,27.2,11.2,25.8z"/>
	<path class="st2" d="M16.4,18.6v-2.1c0-1.4,1.2-2.6,2.6-2.6H8.9c-1.4,0-2.6,1.2-2.6,2.6v2.1c0,1.4,1.2,2.6,2.6,2.6h10.1
		C17.5,21.2,16.4,20,16.4,18.6z"/>
	<path class="st3" d="M11.2,11.4V9.4c0-1.4,1.2-2.6,2.6-2.6H3.7c-1.4,0-2.6,1.2-2.6,2.6v2.1c0,1.4,1.2,2.6,2.6,2.6h10.1
		C12.4,14,11.2,12.8,11.2,11.4z"/>
	<path class="st2" d="M16.4,90.6v-2.1c0-1.4,1.2-2.6,2.6-2.6H8.9c-1.4,0-2.6,1.2-2.6,2.6v2.1c0,1.4,1.2,2.6,2.6,2.6h10.1
		C17.5,93.2,16.4,92.1,16.4,90.6z"/>
	<path class="st3" d="M11.2,83.4v-2.1c0-1.4,1.2-2.6,2.6-2.6H3.7c-1.4,0-2.6,1.2-2.6,2.6v2.1c0,1.4,1.2,2.6,2.6,2.6h10.1
		C12.4,86,11.2,84.8,11.2,83.4z"/>
	<path class="st2" d="M16.4,76.2v-2.1c0-1.4,1.2-2.6,2.6-2.6H8.9c-1.4,0-2.6,1.2-2.6,2.6v2.1c0,1.4,1.2,2.6,2.6,2.6h10.1
		C17.5,78.8,16.4,77.6,16.4,76.2z"/>
	<path class="st3" d="M21.1,69V67c0-1.4,1.2-2.6,2.6-2.6H13.6c-1.4,0-2.6,1.2-2.6,2.6V69c0,1.4,1.2,2.6,2.6,2.6h10.1
		C22.2,71.6,21.1,70.4,21.1,69z"/>
	<path class="st2" d="M11.2,61.8v-2.1c0-1.4,1.2-2.6,2.6-2.6H3.7c-1.4,0-2.6,1.2-2.6,2.6v2.1c0,1.4,1.2,2.6,2.6,2.6h10.1
		C12.4,64.4,11.2,63.2,11.2,61.8z"/>
	<path class="st3" d="M16.4,54.6v-2.1c0-1.4,1.2-2.6,2.6-2.6H8.9c-1.4,0-2.6,1.2-2.6,2.6v2.1c0,1.4,1.2,2.6,2.6,2.6h10.1
		C17.5,57.2,16.4,56,16.4,54.6z"/>
	<g>
		<path class="st2" d="M16.4,47.4v-2.1c0-1.4,1.2-2.6,2.6-2.6H8.9c-1.4,0-2.6,1.2-2.6,2.6v2.1c0,1.4,1.2,2.6,2.6,2.6h10.1
			C17.5,50,16.4,48.8,16.4,47.4z"/>
		<path class="st2" d="M11.4,34.1L11.4,34.1c-0.4-0.9-0.2-1.6-0.2-3.1c0-1.4,1.2-2.6,2.6-2.6c-4.7,0-8.4,0-10.1,0
			c-1.4,0-2.6,1.2-2.6,2.6c0.1,1.5-0.2,2.2,0.2,3.1l0,0c0.4,0.9,1.3,1.5,2.3,1.5c0.6,0,4.5,0,10.1,0C12.8,35.6,11.9,35,11.4,34.1z"
			/>
	</g>
	<path class="st3" d="M21.1,40.2v-2.1c0-1.4,1.2-2.6,2.6-2.6H13.6c-1.4,0-2.6,1.2-2.6,2.6v2.1c0,1.4,1.2,2.6,2.6,2.6h10.1
		C22.2,42.8,21.1,41.6,21.1,40.2z"/>
	<path class="st0" d="M66.9,89.2c-14.2,8.2-32.5,3.3-40.7-10.9C17.9,64,22.8,45.8,37.1,37.5s32.5-3.3,40.7,10.9
		C86.1,62.7,81.2,81,66.9,89.2z"/>
	<g>
		<path class="st1" d="M30.9,75.5c-7.8-13.4-3.8-30.5,8.6-39.3c-0.8,0.4-1.6,0.8-2.5,1.3C22.8,45.8,17.9,64,26.2,78.3
			s26.5,19.1,40.7,10.9c0.8-0.5,1.6-1,2.3-1.5C55.4,94.1,38.7,89,30.9,75.5z"/>
		<path class="st1" d="M39.8,42.3C28.2,49,24.2,63.9,30.9,75.5c6.7,11.6,21.6,15.6,33.2,8.9c11.6-6.7,15.6-21.6,8.9-33.2
			C66.4,39.6,51.5,35.6,39.8,42.3z"/>
	</g>
	<path class="st2" d="M35.4,73c-6.3-10.9-3.2-24.6,6.7-31.8c-0.8,0.3-1.5,0.7-2.3,1.2C28.2,49,24.2,63.9,30.9,75.5
		s21.6,15.6,33.2,8.9c0.7-0.4,1.5-0.9,2.2-1.4C55.1,88,41.7,83.8,35.4,73z"/>
	<path class="st4" d="M53.5,62.2v-6.1c1.9,0.4,3.3,1.4,3.3,1.4c0.7,0.5,1.6,0.3,2.1-0.3c0.5-0.7,0.3-1.6-0.3-2.1
		c-0.1-0.1-2.2-1.6-5.1-2v-1.5c0-0.8-0.7-1.5-1.5-1.5c-0.8,0-1.5,0.7-1.5,1.5v1.6c-7.5,1.2-8.4,9.5,0,11.5v6.1
		c-1.9-0.4-3.3-1.3-3.3-1.4c-0.7-0.5-1.6-0.3-2.1,0.3c-0.5,0.7-0.3,1.6,0.3,2.1c0.1,0.1,2.2,1.6,5.1,2v1.5c0,0.8,0.7,1.5,1.5,1.5
		c0.8,0,1.5-0.7,1.5-1.5v-1.6C61,72.5,61.8,64.1,53.5,62.2z M50.5,56.1v5.4C46.2,60.2,46.9,57,50.5,56.1z M53.5,70.7v-5.4
		C57.8,66.6,57.1,69.8,53.5,70.7z"/>
	<g>
	</g>
	<g>
	</g>
	<g>
	</g>
	<g>
	</g>
	<g>
	</g>
	<g>
	</g>
	<g>
	</g>
	<g>
	</g>
	<g>
	</g>
	<g>
	</g>
	<g>
	</g>
	<g>
	</g>
	<g>
	</g>
	<g>
	</g>
	<g>
	</g>
</g>
</svg>
