<svg xmlns="http://www.w3.org/2000/svg" xmlns:xlink="http://www.w3.org/1999/xlink" xmlns:svgjs="http://svgjs.com/svgjs" version="1.1" width="512" height="512" x="0" y="0" viewBox="0 0 464 464" style="enable-background:new 0 0 512 512" xml:space="preserve" class=""><g><circle xmlns="http://www.w3.org/2000/svg" cx="232" cy="232" fill="#42434d" r="232" data-original="#42434d" class=""/><path xmlns="http://www.w3.org/2000/svg" d="m26 248c0 28.943 5.3 56.649 14.982 82.198 3.875 10.226-10.886 16.684-15.848 6.94-15.752-30.933-24.77-65.871-25.123-102.881-1.236-129.704 102.941-234.619 232.652-234.256 10.962.031 11.844 16.068.949 17.271-110.876 12.249-207.612 104.281-207.612 230.728z" fill="#585966" data-original="#585966" class=""/><circle xmlns="http://www.w3.org/2000/svg" cx="232" cy="232" fill="#585966" r="190" data-original="#585966" class=""/><path xmlns="http://www.w3.org/2000/svg" d="m61.163 315.245c-13.028-26.683-19.989-56.871-19.085-88.766 2.936-103.544 89.512-186.515 193.773-184.441 12.036.239 13.054 17.79 1.12 19.373-111.852 14.831-190.35 138.454-157.759 246.773 3.416 11.353-12.847 17.716-18.049 7.061z" fill="#6e6f80" data-original="#6e6f80" class=""/><g xmlns="http://www.w3.org/2000/svg" fill="#2c2c33"><path d="m233.196 376.998c-3.09 0-5.742-.02-9.478-.229-4.401-.256-8.188 3.127-8.436 7.539-.248 4.411 3.128 8.188 7.539 8.436 3.57.2 7.181.281 10.505.251 4.418-.036 7.971-3.646 7.935-8.064-.034-4.294-3.477-7.933-8.065-7.933z" fill="#ffffff" data-original="#2c2c33" class=""/><path d="m152.554 353.33c-3.692-2.423-8.652-1.396-11.078 2.298-2.424 3.693-1.396 8.653 2.298 11.078 2.924 1.919 5.946 3.765 8.983 5.486 3.845 2.178 8.726.827 10.904-3.017s.828-8.726-3.017-10.904c-2.733-1.55-5.456-3.213-8.09-4.941z" fill="#ffffff" data-original="#2c2c33" class=""/><path d="m155.296 107.678c3.255 0 3.646-1.244 12.356-5.583 3.955-1.97 5.563-6.773 3.593-10.728-1.97-3.954-6.772-5.563-10.728-3.593-3.12 1.555-6.232 3.232-9.25 4.988-3.819 2.221-5.115 7.118-2.894 10.937 1.486 2.553 4.167 3.979 6.923 3.979z" fill="#ffffff" data-original="#2c2c33" class=""/><path d="m305.409 357.072c-2.707 1.593-5.502 3.117-8.309 4.529-3.946 1.987-5.535 6.796-3.548 10.743 1.977 3.927 6.777 5.545 10.743 3.548 3.116-1.569 6.221-3.261 9.227-5.029 3.808-2.241 5.079-7.144 2.839-10.952-2.24-3.807-7.141-5.078-10.952-2.839z" fill="#ffffff" data-original="#2c2c33" class=""/><path d="m91.839 293.938c-3.941 1.998-5.516 6.812-3.519 10.753 1.577 3.11 3.277 6.209 5.055 9.213 2.262 3.822 7.175 5.049 10.959 2.81 3.802-2.25 5.06-7.157 2.81-10.959-1.601-2.705-3.133-5.497-4.553-8.298-1.998-3.942-6.812-5.517-10.752-3.519z" fill="#ffffff" data-original="#2c2c33" class=""/><path d="m376.091 160.101c-1.559-3.119-3.244-6.231-5.009-9.25-2.23-3.813-7.128-5.099-10.944-2.868-3.814 2.23-5.099 7.13-2.868 10.944 1.589 2.718 3.106 5.519 4.509 8.326 1.975 3.952 6.781 5.556 10.732 3.58 3.952-1.975 5.555-6.78 3.58-10.732z" fill="#ffffff" data-original="#2c2c33" class=""/><path d="m384.998 223.165c-4.45 0-8.015 3.624-8 8.056.011 3.089-.042 5.865-.253 9.465-.268 4.575 3.362 8.469 7.994 8.469 4.203 0 7.729-3.28 7.979-7.531.231-3.941.293-6.997.281-10.515-.016-4.4-3.608-7.944-8.001-7.944z" fill="#ffffff" data-original="#2c2c33" class=""/><path d="m368.972 300.716c-3.837-2.188-8.724-.85-10.912 2.988-1.559 2.735-3.229 5.453-4.961 8.078-3.536 5.355.379 12.409 6.668 12.409 2.598 0 5.146-1.263 6.684-3.593 1.925-2.915 3.778-5.933 5.51-8.969 2.187-3.839.85-8.724-2.989-10.913z" fill="#ffffff" data-original="#2c2c33" class=""/><path d="m79.822 214.028c-4.424-.29-8.21 3.068-8.49 7.478-.25 3.934-.367 8.06-.321 12.262.046 4.39 3.618 7.917 7.998 7.917 4.453 0 8.048-3.633 8.001-8.083-.037-3.7.052-7.334.29-11.082.279-4.411-3.069-8.212-7.478-8.492z" fill="#ffffff" data-original="#2c2c33" class=""/><path d="m320.95 97.782c-2.911-1.933-5.923-3.793-8.951-5.531-3.833-2.199-8.722-.874-10.92 2.958-2.198 3.833-.874 8.722 2.959 10.92 2.728 1.564 5.44 3.241 8.063 4.982 3.674 2.44 8.642 1.447 11.09-2.24 2.443-3.68 1.44-8.645-2.241-11.089z" fill="#ffffff" data-original="#2c2c33" class=""/><path d="m231.606 86.888c3.176 0 6.156.081 9.448.292 4.449.275 8.214-3.094 8.494-7.473.282-4.41-3.063-8.212-7.473-8.495-3.368-.215-6.784-.324-10.153-.324-5.139 0-8.368 3.846-8.351 8.034.019 4.347 3.524 7.966 8.035 7.966z" fill="#ffffff" data-original="#2c2c33" class=""/><path d="m109.095 140.466c-3.67-2.46-8.64-1.479-11.1 2.19-1.95 2.909-3.825 5.916-5.575 8.937-3.104 5.361.821 12.01 6.916 12.01 2.761 0 5.448-1.432 6.931-3.993 1.574-2.719 3.263-5.425 5.018-8.043 2.461-3.671 1.48-8.641-2.19-11.101z" fill="#ffffff" data-original="#2c2c33" class=""/></g><path xmlns="http://www.w3.org/2000/svg" d="m321.975 198.835c-1.125-47.783-39.998-86.684-87.809-87.809-50.543-1.206-92.166 39.328-92.166 89.974 0 4.418 3.582 8 8 8s8-3.582 8-8c0-41.468 33.993-74.929 75.789-73.979 39.55.931 71.259 32.64 72.189 72.19.956 40.602-31.253 74.587-71.799 75.757-13.145.379-24.847 4.024-34.239 10.237l15.6-83.232c.814-4.343-2.047-8.523-6.39-9.337-4.345-.813-8.523 2.047-9.337 6.39l-25.677 137c-.814 4.343 2.047 8.523 6.39 9.337 4.332.811 8.521-2.037 9.337-6.39l3.097-16.524c4.208-22.45 24.29-30.985 41.68-31.487 49.319-1.423 88.497-42.752 87.335-92.127z" fill="#eef7ff" data-original="#eef7ff"/><circle xmlns="http://www.w3.org/2000/svg" cx="238" cy="329" fill="#ff8c95" r="16" data-original="#ff8c95"/></g></svg>