<?xml version="1.0" encoding="utf-8"?>
<!-- Generator: Adobe Illustrator 23.0.5, SVG Export Plug-In . SVG Version: 6.00 Build 0)  -->
<svg version="1.1" id="Layer_1" xmlns:svgjs="http://svgjs.com/svgjs"
	 xmlns="http://www.w3.org/2000/svg" xmlns:xlink="http://www.w3.org/1999/xlink" x="0px" y="0px" viewBox="0 0 512 512"
	 style="enable-background:new 0 0 512 512;" xml:space="preserve">
<style type="text/css">
	.st0{fill:#FFFFFF;}
</style>
<g>
	<g>
		<path class="st0" d="M413.4,233.2c0,25.8,21,46.8,46.8,46.8h13.7v-59.7h-60.5V233.2z"/>
		
			<ellipse transform="matrix(0.3829 -0.9238 0.9238 0.3829 -151.9624 443.699)" class="st0" cx="256.1" cy="335.6" rx="38.5" ry="38.5"/>
		<path class="st0" d="M387.8,233.2v-12.9H124.2v12.9c0,39.9-32.4,72.3-72.3,72.3H38.2v59.6h13.7c39.9,0,72.3,32.4,72.3,72.3V451
			h263.6v-13.6c0-39.9,32.4-72.3,72.3-72.3h13.7v-59.6h-13.7C420.3,305.5,387.8,273.1,387.8,233.2L387.8,233.2z M153.9,348.3h-25.5
			c-7,0-12.8-5.7-12.8-12.8s5.7-12.8,12.8-12.8h25.5c7,0,12.8,5.7,12.8,12.8S160.9,348.3,153.9,348.3z M256,399.6
			c-35.3,0-64-28.7-64-64s28.7-64,64-64c35.3,0,64,28.7,64,64S291.3,399.6,256,399.6z M384.5,348.3h-26.3c-7,0-12.8-5.7-12.8-12.8
			s5.7-12.8,12.8-12.8h26.3c7,0,12.8,5.7,12.8,12.8S391.5,348.3,384.5,348.3z"/>
		<path class="st0" d="M413.4,437.4V451h47.7c7,0,12.8-5.7,12.8-12.8v-47.6h-13.7C434.4,390.6,413.4,411.6,413.4,437.4z"/>
		<path class="st0" d="M51.9,390.6H38.2v47.6c0,7,5.7,12.8,12.8,12.8h47.7v-13.6C98.7,411.6,77.7,390.6,51.9,390.6z"/>
		<path class="st0" d="M98.7,233.2v-12.9H38.2V280h13.7C77.7,280,98.7,259,98.7,233.2L98.7,233.2z"/>
		<path class="st0" d="M213.3,83.5h17.3v59.8h51.2l-0.2-59.8h17.2c3.5,0,5.5-4,3.4-6.8l-39.4-52.2c-3.4-4.5-10.2-4.5-13.6,0
			l-39.3,52.3C207.8,79.4,209.8,83.5,213.3,83.5L213.3,83.5z"/>
		<path class="st0" d="M85,118.3h16.7v24.9H153v-24.9H170c3.5,0,5.5-4,3.4-6.8l-39.2-52.2c-3.4-4.5-10.2-4.5-13.6,0l-39.1,52.2
			C79.5,114.3,81.5,118.3,85,118.3z"/>
		<path class="st0" d="M342,118.3h17.1v24.9h51.3v-24.9h16.7c3.5,0,5.5-4,3.4-6.8l-39.1-52.2c-3.4-4.5-10.2-4.5-13.6,0l-39.2,52.2
			C336.5,114.3,338.5,118.3,342,118.3L342,118.3z"/>
		<path class="st0" d="M124.2,168.4h263.6v27.5H124.2L124.2,168.4z"/>
		<path class="st0" d="M461.1,168.4h-47.7v27.5h60.5v-14.7C473.8,174.1,468.1,168.4,461.1,168.4z"/>
		<path class="st0" d="M98.7,168.4H50.9c-7,0-12.8,5.7-12.8,12.8v14.7h60.5V168.4z"/>
	</g>
</g>
</svg>
