<svg xmlns="http://www.w3.org/2000/svg" version="1.1" xmlns:xlink="http://www.w3.org/1999/xlink" xmlns:svgjs="http://svgjs.com/svgjs" width="512" height="512" x="0" y="0" viewBox="0 0 512 512" style="enable-background:new 0 0 512 512" xml:space="preserve" class=""><g><g xmlns="http://www.w3.org/2000/svg"><circle cx="256" cy="256" fill="#fca5cd" r="256" data-original="#fca5cd" class=""></circle><path d="m512 256c0 141.382-114.618 256-256 256-6.779 0-13.506-.268-20.15-.783 131.956-10.281 235.839-120.624 235.839-255.217s-103.883-244.936-235.839-255.217c6.644-.515 13.371-.783 20.15-.783 141.382 0 256 114.618 256 256z" fill="#fc7cb6" data-original="#fc7cb6"></path><circle cx="256" cy="256" fill="#ffdaea" r="223.783" data-original="#ffdaea" class=""></circle><path d="m479.781 256c0 123.589-100.192 223.781-223.781 223.781-7.45 0-14.814-.363-22.071-1.08 113.221-11.083 201.699-106.562 201.699-222.701s-88.478-211.618-201.699-222.702c7.257-.716 14.622-1.08 22.071-1.08 123.589.001 223.781 100.193 223.781 223.782z" fill="#fdc1dd" data-original="#fdc1dd"></path><g><circle cx="256" cy="256" fill="#fb4297" r="187.727" data-original="#fb4297"></circle></g><g><path d="m443.73 256c0 103.513-84.217 187.73-187.73 187.73-9.127 0-18.1-.659-26.878-1.916 90.821-13.084 160.843-91.429 160.843-185.814s-70.022-172.73-160.843-185.814c8.777-1.257 17.75-1.916 26.878-1.916 103.513 0 187.73 84.217 187.73 187.73z" fill="#e2267f" data-original="#e2267f"></path></g><path d="m148.354 161.071 186.582 31.452c1.794.302 3.455 1.137 4.768 2.396l59.868 57.399c3.505 3.36 3.741 8.885.535 12.532l-145.492 165.52c-4.472 5.088-12.74 3.654-15.239-2.642l-100.957-254.37c-2.607-6.568 2.967-13.462 9.935-12.287z" fill="#e2267f" data-original="#e2267f"></path><path d="m152.251 152.08 95.382 240.323c1.419 3.576 6.116 4.39 8.656 1.5l138.801-157.908c1.821-2.072 1.687-5.21-.304-7.119l-54.341-52.1c-.746-.715-1.69-1.189-2.709-1.361l-179.841-30.315c-3.958-.667-7.125 3.249-5.644 6.98z" fill="#fdc1dd" data-original="#fdc1dd"></path><path d="m395.095 235.994-3.946 4.481-111.27 6.943-19.862 142.247-3.729 4.234c-2.534 2.895-7.232 2.081-8.654-1.494l-2.668-6.727 19.862-142.216-110.332-85.721-2.246-5.666c-1.483-3.729 1.69-7.644 5.645-6.974l7.067 1.195 107.571 83.579 57.319-55.784 7.881 1.329c1.02.165 1.968.639 2.709 1.36l4.44 4.255-51.447 50.057 97.332-6.068 4.018 3.853c1.989 1.904 2.123 5.046.31 7.117z" fill="#fca5cd" data-original="#fca5cd" class=""></path><path d="m395.095 235.997-138.807 157.906c-2.54 2.89-7.237 2.076-8.656-1.501l-6.908-17.408 123.702-137.038c1.884-2.087 1.746-5.299-.309-7.217l-66.537-62.096 40.158 6.773c1.019.172 1.962.646 2.708 1.361l54.345 52.1c1.991 1.909 2.125 5.048.304 7.12z" fill="#fca5cd" data-original="#fca5cd" class=""></path><g fill="#fc7cb6"><path d="m265.972 347.027-5.954 42.639-3.729 4.234c-2.545 2.895-7.242 2.081-8.654-1.494l-2.668-6.727 2.534-18.193z" fill="#fc7cb6" data-original="#fc7cb6"></path><path d="m344.884 181.034-16.658 16.205-11.311-10.549 12.949-12.599 7.871 1.329c1.02.165 1.968.639 2.709 1.36z" fill="#fc7cb6" data-original="#fc7cb6"></path><path d="m395.087 236.003-3.938 4.472-30.741 1.916 4.009-4.438c1.886-2.087 1.748-5.302-.31-7.22l-4.07-3.795 30.73-1.916 4.018 3.853c1.994 1.912 2.127 5.055.302 7.128z" fill="#fc7cb6" data-original="#fc7cb6"></path></g><g><g><path d="m398.348 249.957h.009z" fill="#26d192" data-original="#26d192"></path></g></g></g></g></svg>