<?xml version="1.0" encoding="utf-8"?>
<!-- Generator: Adobe Illustrator 23.0.5, SVG Export Plug-In . SVG Version: 6.00 Build 0)  -->
<svg version="1.1" id="Layer_1" xmlns="http://www.w3.org/2000/svg" xmlns:xlink="http://www.w3.org/1999/xlink" x="0px" y="0px"
	 viewBox="0 0 100 100" style="enable-background:new 0 0 100 100;" xml:space="preserve">
<style type="text/css">
	.st0{fill:#E34E4B;}
	.st1{fill:#DE4542;}
	.st2{fill:#50B6CF;}
	.st3{fill:#3CADC9;}
	.st4{fill:#DED8D0;}
	.st5{fill:#F5A947;}
	.st6{fill:#FFFFFF;}
	.st7{fill:#D43A37;}
</style>
<g>
	<path class="st0" d="M0.9,61.5l4.9,11.5l-4.9,6.5L5.8,86L0.9,97.4l34.4-18L0.9,61.5z"/>
	<path class="st1" d="M5.8,86l29.4-6.5L5.8,72.9l-4.9,6.5L5.8,86z"/>
	<circle class="st2" cx="74.5" cy="27.1" r="24.5"/>
	<path class="st3" d="M93.6,11.6c1.5,3.2,2.4,6.8,2.4,10.6c0,13.6-11,24.5-24.5,24.5c-7.7,0-14.5-3.5-19-9.1c4,8.3,12.4,14,22.1,14
		c13.6,0,24.5-11,24.5-24.5C99.1,21.2,97,15.9,93.6,11.6z"/>
	<circle class="st4" cx="74.5" cy="27.1" r="16.4"/>
	<circle class="st5" cx="74.5" cy="27.1" r="8.2"/>
	<g>
		<path class="st6" d="M85.2,81.1H38.5v-3.3h46.6c5,0,9-4,9-9s-4-9-9-9h-54c-9.5,0-17.2-7.7-17.2-17.2s7.7-17.2,17.2-17.2h43.3v3.3
			H31.2c-7.7,0-13.9,6.2-13.9,13.9s6.2,13.9,13.9,13.9h54c6.8,0,12.3,5.5,12.3,12.3S91.9,81.1,85.2,81.1z"/>
		<path class="st6" d="M38.1,33.2l-2.3-2.3l3.8-3.8l-3.8-3.8l2.3-2.3l6.1,6.1L38.1,33.2z"/>
		<path class="st6" d="M70.8,33.2l-2.3-2.3l3.8-3.8l-3.8-3.8l2.3-2.3l6.1,6.1L70.8,33.2z"/>
		<path class="st6" d="M53.8,64.2l-6.1-6.1l6.1-6.1l2.3,2.3l-3.8,3.8l3.8,3.8L53.8,64.2z"/>
		<path class="st6" d="M65.9,85.5l-2.3-2.3l3.8-3.8l-3.8-3.8l2.3-2.3l6.1,6.1L65.9,85.5z"/>
	</g>
	<path class="st7" d="M0.9,79.4h34.4L5.8,86L0.9,79.4z"/>
</g>
</svg>
