<?xml version="1.0" encoding="utf-8"?>
<!-- Generator: Adobe Illustrator 23.0.5, SVG Export Plug-In . SVG Version: 6.00 Build 0)  -->
<svg version="1.1" id="Layer_1" xmlns:svgjs="http://svgjs.com/svgjs"
	 xmlns="http://www.w3.org/2000/svg" xmlns:xlink="http://www.w3.org/1999/xlink" x="0px" y="0px" viewBox="0 0 512 512"
	 style="enable-background:new 0 0 512 512;" xml:space="preserve">
<style type="text/css">
	.st0{fill:#FFFFFF;}
</style>
<g>
	<g>
		<path class="st0" d="M122.6,292.4v-24.3h24.3v-97h-24.3v-24.3H98.3v24.3H74.1v97h24.3v24.3H122.6z"/>
		<path class="st0" d="M219.6,243.9v-24.3h24.3v-97h-24.3V98.3h-24.3v24.3h-24.3v97h24.3v24.3H219.6z"/>
		<path class="st0" d="M316.6,219.6v-24.3h24.3v-97h-24.3V74.1h-24.3v24.3h-24.3v97h24.3v24.3H316.6z"/>
		<path class="st0" d="M413.7,49h-24.3v24.3h-24.3v97.8h24.3v24.3h24.3v-24.3h24.3V73.3h-24.3V49z"/>
		<path class="st0" d="M440.6,285.8l13.1-55.9l-52.5-23.1l-9.8,22.2l19.7,8.6l-60.9,30.4h-97l-97,48.5h-95v24.3h100.7l97-48.5h97
			l66-33l-4.9,20.9L440.6,285.8z"/>
		<path class="st0" d="M438.7,316.6h-73.6v122.1h-24.3V316.6h-72.8v122.1h-24.3V333.4l-72.8,36.4v69h-24.3v-73.6H73.3v73.6H49V463
			h414v-24.3h-24.3V316.6z"/>
	</g>
</g>
</svg>
