<?xml version="1.0" encoding="utf-8"?>
<!-- Generator: Adobe Illustrator 23.0.5, SVG Export Plug-In . SVG Version: 6.00 Build 0)  -->
<svg version="1.1" id="Layer_1" xmlns:svgjs="http://svgjs.com/svgjs"
	 xmlns="http://www.w3.org/2000/svg" xmlns:xlink="http://www.w3.org/1999/xlink" x="0px" y="0px" viewBox="0 0 512 512"
	 style="enable-background:new 0 0 512 512;" xml:space="preserve">
<style type="text/css">
	.st0{fill:#FFFFFF;}
</style>
<g>
	<g>
		<path class="st0" d="M383.2,131.7H263.1c-10.3,0-18.6,8.3-18.6,18.6s8.3,18.6,18.6,18.6h120.1c10.3,0,18.6-8.3,18.6-18.6
			S393.5,131.7,383.2,131.7z"/>
		<path class="st0" d="M77,429.9v16.8c0,6.8,5.5,12.3,12.3,12.3h149.4c6.8,0,12.3-5.5,12.3-12.3v-16.8c0-6.8-5.5-12.3-12.3-12.3
			H89.3C82.5,417.6,77,423.1,77,429.9z"/>
		<path class="st0" d="M43.9,363.6v16.8c0,6.8,5.5,12.3,12.3,12.3h149.4c6.8,0,12.3-5.5,12.3-12.3v-16.8c0-6.8-5.5-12.3-12.3-12.3
			H56.2C49.4,351.3,43.9,356.8,43.9,363.6z"/>
		<path class="st0" d="M238.7,285H89.3c-6.8,0-12.3,5.5-12.3,12.3v16.8c0,6.8,5.5,12.3,12.3,12.3h149.4c6.8,0,12.3-5.5,12.3-12.3
			v-16.8C251,290.5,245.5,285,238.7,285z"/>
		<g>
			<path class="st0" d="M305.8,262.1c-0.9,4.6,0.2,8.9,2.9,11c1,0.8,2.2,1.6,3.4,2.3V252C308.4,254.5,306.4,258.6,305.8,262.1z"/>
			<path class="st0" d="M332.7,306.9v35.2c6.3-3.4,10.1-9.8,11.1-15.8C344.6,322.1,344.9,311.8,332.7,306.9z"/>
			<path class="st0" d="M467.6,338.8c-3.7-33.2-14.6-65.9-31.5-94.5c-11.2-19-24.7-35.8-40.3-50.4H250.5
				c-20,18.8-36.6,41.3-48.9,66.3h37c20.6,0,37.3,16.7,37.3,37.3V314c0,19.2-14.5,35-33.1,37.1V393c17.3,1.9,31,15.7,32.9,32.9
				h113.7c22.4,0,43.9-9.6,58.9-26.3C463,382.9,470.1,360.8,467.6,338.8z M364.3,329.8c-1.6,9.4-6.3,18.1-13.3,24.6
				c-5.2,4.8-11.4,8.1-18.2,9.8v7.9c0,5.7-4.6,10.4-10.4,10.4S312,377.7,312,372v-6.9c-8.7-0.7-15.8-3-26-9.6
				c-4.8-3.1-6.1-9.6-3-14.3c3.1-4.8,9.6-6.1,14.3-3c5.9,3.8,9.6,5.5,14.6,6.1v-45.5c-6.9-3.1-12-6.1-16.2-9.4
				c-8.8-6.9-12.7-18.8-10.4-31.1c2.5-13.4,11.9-24.1,24.4-27.9c0.7-0.2,1.5-0.4,2.2-0.6v-6.9c0-5.7,4.6-10.4,10.4-10.4
				c5.7,0,10.4,4.6,10.4,10.4v5.7c10.4,1.7,17.7,6.8,21.3,10.9c3.8,4.3,3.3,10.9-1,14.6c-4.3,3.7-10.8,3.3-14.6-0.9
				c-0.2-0.3-2.1-2.1-5.7-3.3v35c2,0.7,3.9,1.4,5.8,2.1C357.4,293.7,367.5,310.5,364.3,329.8L364.3,329.8z"/>
		</g>
		<path class="st0" d="M272.5,106.9h101.3c9.1-8.7,15.9-19.4,19.9-31.2c3.2-9.4-5.6-18.5-15.2-15.8c-16.4,4.6-34.2,2.8-49.6-5.4
			c-3.6-1.9-7.9-1.9-11.5,0c-15.4,8.2-33.1,10-49.6,5.4c-9.6-2.7-18.4,6.4-15.2,15.8C256.6,87.4,263.4,98.2,272.5,106.9L272.5,106.9
			z"/>
	</g>
</g>
</svg>
