<svg xmlns="http://www.w3.org/2000/svg" version="1.1" xmlns:xlink="http://www.w3.org/1999/xlink" xmlns:svgjs="http://svgjs.com/svgjs" width="512" height="512" x="0" y="0" viewBox="0 0 62 62" style="enable-background:new 0 0 512 512" xml:space="preserve" class=""><g><linearGradient xmlns="http://www.w3.org/2000/svg" id="SVGID_1_" gradientUnits="userSpaceOnUse" x1="31" x2="31" y1="62" y2="0"><stop offset="0" stop-color="#9f2fff"></stop><stop offset="1" stop-color="#0bb1d3"></stop></linearGradient><path xmlns="http://www.w3.org/2000/svg" d="m57.614 40h-.184c4.365-7.654 3.138-17.355-3.214-23.707l-.707-.707-8.216 8.216.547-2.872c.106-.551.16-1.118.16-1.685v-.245c0-2.579-1.097-4.902-2.841-6.545l4.24-5.653c.482-.641.685-1.431.572-2.227-.114-.793-.53-1.495-1.17-1.974-1.275-.958-3.244-.676-4.2.599l-2.601 3.467v-3.667c0-1.654-1.346-3-3-3s-3 1.346-3 3v3.668l-2.602-3.468c-.956-1.275-2.927-1.556-4.199-.6-.641.48-1.057 1.182-1.171 1.977-.112.794.09 1.584.571 2.224l4.241 5.655c-1.743 1.642-2.84 3.965-2.84 6.544v.245c0 .567.054 1.134.159 1.684l1.364 7.161c-1.234.14-2.417.45-3.523.913v-5.598c0-1.19-.524-2.311-1.438-3.073l-4.562-3.801v-5.531c0-1.654-1.346-3-3-3h-8c-1.654 0-3 1.346-3 3v5.531l-4.562 3.801c-.914.763-1.438 1.883-1.438 3.073v4.595c0 1.2.542 2.266 1.382 3-.84.734-1.382 1.8-1.382 3v6c0 1.201.542 2.266 1.382 3-.84.734-1.382 1.799-1.382 3v12c0 2.206 1.794 4 4 4h27.474 1.526 5.526c10.268 0 19.589-6.46 23.194-16.074.186-.495.28-1.013.28-1.54 0-2.418-1.968-4.386-4.386-4.386zm2.347 4h-49.922c.186-1.132 1.163-2 2.347-2h45.229c1.183 0 2.16.868 2.346 2zm-47.961-11c0 1.029-.521 1.938-1.313 2.478-.004.003-.007.006-.011.009-.152.103-.316.19-.486.264-.008.004-.016.009-.024.013-.152.064-.313.11-.477.148-.03.007-.058.021-.089.027-.194.04-.394.061-.6.061-1.654 0-3-1.346-3-3 0-1.137.643-2.162 1.677-2.676l.756-.375-.243-.808c-.129-.432-.19-.795-.19-1.141 0-2.206 1.794-4 4-4 .852 0 1.67.283 2.347.779-1.405.886-2.347 2.441-2.347 4.221h2c0-1.405.974-2.578 2.28-2.903l.027-.006c.085-.02.161-.031.238-.045.149-.023.299-.046.455-.046 1.654 0 3 1.346 3 3 0 .802-.313 1.555-.879 2.121l-.708.708 1.853 1.852c-1.25 1.827-2.036 3.989-2.215 6.32h-.637l-4.247-4.248c.524-.791.833-1.736.833-2.753zm29.949 7h-21.898c.507-5.598 5.221-10 10.949-10s10.442 4.402 10.949 10zm-1.025-9h13.024c-.246 3.395-1.729 6.61-4.17 9h-5.828c-.246-3.204-1.647-6.088-3.801-8.224zm2-2 7.874-7.874c1.853 2.248 2.948 4.982 3.154 7.874zm12.148 11h-2.611c2.259-2.822 3.539-6.35 3.539-10 0-3.791-1.347-7.402-3.786-10.29l1.276-1.276c5.364 5.993 6.027 14.83 1.582 21.566zm-10.872-35.6c.319-.425.974-.519 1.4-.199.213.16.352.394.39.657.038.269-.027.525-.19.743l-4.24 5.653c-.492-.291-1.013-.535-1.56-.729v-.525zm-7.2-2.4c.552 0 1 .449 1 1v7.059c-.329-.037-.662-.059-1-.059s-.671.022-1 .059v-7.059c0-.551.448-1 1-1zm-8.802 3.6c-.162-.216-.228-.473-.189-.74.038-.265.177-.5.391-.66.424-.319 1.08-.225 1.399.2l4.201 5.601v.524c-.546.194-1.068.438-1.56.729zm1.802 13.4c0-3.86 3.141-7 7-7s7 3.14 7 7v.245c0 .441-.042.881-.124 1.31l-1.098 5.762-4.167 4.167c-2.003-1.454-4.432-2.346-7.064-2.456l-1.423-7.474c-.082-.428-.124-.868-.124-1.309zm-22-5h10v2h-10zm1-4h8c.552 0 1 .449 1 1v1h-10v-1c0-.551.448-1 1-1zm-7 18v-4.595c0-.595.263-1.155.72-1.537l4.642-3.868h11.275l4.643 3.869c.457.381.72.941.72 1.536v6.658c-.906.582-1.733 1.274-2.467 2.056l-.361-.361c.539-.811.828-1.762.828-2.758 0-2.757-2.243-5-5-5-.168 0-.339.01-.514.03-1.133-1.281-2.768-2.03-4.486-2.03-3.309 0-6 2.691-6 6 0 .308.029.623.089.952-.415.295-.771.653-1.072 1.048h-1.017c-1.103 0-2-.897-2-2zm0 12v-6c0-1.103.897-2 2-2h.108c-.066.325-.108.659-.108 1 0 2.757 2.243 5 5 5 .309 0 .612-.037.91-.092.078-.014.153-.033.229-.051.235-.055.465-.126.688-.214.056-.022.114-.041.17-.065.263-.115.52-.246.761-.406l2.828 2.828h-2.2c-1.537 0-2.887.799-3.671 2h-4.715c-1.103 0-2-.897-2-2zm2 20c-1.103 0-2-.897-2-2v-12c0-1.103.897-2 2-2h4.039c-.011.129-.039.254-.039.386 0 .527.094 1.045.279 1.541 2.417 6.444 7.409 11.459 13.526 14.073zm34.526 0h-5.526-1.526c-9.156 0-17.479-5.598-20.995-14h49.043c-3.517 8.403-11.839 14-20.996 14zm-7.502-4.006-.049 2c-6.834-.166-13.156-3.697-16.912-9.447l1.674-1.094c3.397 5.198 9.111 8.392 15.287 8.541zm-.024-21.994v-2c3.687 0 6.962 2.208 8.345 5.625l-1.854.75c-1.076-2.657-3.624-4.375-6.491-4.375zm11-16h-10v-2h10zm-8 2h6v2h-6zm0 4h6v2h-6zm-1 32h2v2h-2z" fill="url(#SVGID_1_)" data-original="url(#SVGID_1_)"></path></g></svg>