<svg xmlns="http://www.w3.org/2000/svg" version="1.1" xmlns:xlink="http://www.w3.org/1999/xlink" xmlns:svgjs="http://svgjs.com/svgjs" width="512" height="512" x="0" y="0" viewBox="0 0 511.5 511.5" style="enable-background:new 0 0 512 512" xml:space="preserve" class=""><g><linearGradient xmlns="http://www.w3.org/2000/svg" id="SVGID_1_" gradientUnits="userSpaceOnUse" x1="403.933" x2="403.933" y1="255.5" y2="455.5"><stop offset=".00000036422" stop-color="#a7acff"></stop><stop offset="1" stop-color="#ffc8ff"></stop></linearGradient><linearGradient xmlns="http://www.w3.org/2000/svg" id="SVGID_2_" gradientUnits="userSpaceOnUse" x1="107.933" x2="107.933" y1="227.5" y2="449.5"><stop offset=".00000083866" stop-color="#75d1f4"></stop><stop offset="1" stop-color="#b3fff3"></stop></linearGradient><linearGradient xmlns="http://www.w3.org/2000/svg" id="SVGID_3_" gradientUnits="userSpaceOnUse" x1="255.75" x2="255.75" y1="0" y2="511.5"><stop offset="0" stop-color="#004ea6"></stop><stop offset="1" stop-color="#ca42b2"></stop></linearGradient><g xmlns="http://www.w3.org/2000/svg"><path d="m345.933 511.5h-180v-213h-61v-75.248c0-17.179 10.969-32.44 27.253-37.915l88.747-29.837h70l88.747 29.837c16.284 5.475 27.253 20.735 27.253 37.915v51.248h-61z" fill="#ffffff" data-original="#ffffff" class=""></path><circle cx="403.933" cy="355.5" fill="url(#SVGID_1_)" r="100" data-original="url(#SVGID_1_)"></circle><path d="m107.933 227.5-92 112h22v110h140v-110h22z" fill="url(#SVGID_2_)" data-original="url(#SVGID_2_)"></path><g fill="#fff"><path d="m288.933 157.5-17 47 14 118-30 46-30-46 14-118-17-47z" fill="#ffffff" data-original="#ffffff" class=""></path><path d="m110.933 433.5h-30c-13.807 0-25 11.193-25 25 0 13.807 11.193 25 25 25h30c13.807 0 25-11.193 25-25 0-13.807-11.193-25-25-25z" fill="#ffffff" data-original="#ffffff" class=""></path><path d="m430.933 433.5h-30c-13.807 0-25 11.193-25 25 0 13.807 11.193 25 25 25h30c13.807 0 25-11.193 25-25 0-13.807-11.193-25-25-25z" fill="#ffffff" data-original="#ffffff" class=""></path><path d="m195.933 107.5c0 33.137 26.863 60 60 60 33.137 0 60-26.863 60-60v-47h-120z" fill="#ffffff" data-original="#ffffff" class=""></path><path d="m285.933 7.5h-120l30 53h120v-23c0-16.569-13.431-30-30-30z" fill="#ffffff" data-original="#ffffff" class=""></path></g><path d="m353.433 511.5h-15v-70.793c-5.325-4.114-10.239-8.707-14.686-13.707h-138.314v30h-12v54.5h-15v-54.5h-15.034c.023.498.034.997.034 1.5 0 17.92-14.58 32.5-32.5 32.5h-30c-17.92 0-32.5-14.58-32.5-32.5 0-.503.011-1.002.034-1.5h-18.034v-110h-30.366l97.367-118.533v-5.215c0-20.422 13.006-38.516 32.363-45.023l76.02-25.559c-10.799-11.971-17.382-27.816-17.382-45.17v-45.024l-35.365-62.476h132.863c20.678 0 37.5 16.822 37.5 37.5v70c0 17.354-6.583 33.199-17.383 45.17l76.02 25.559c19.357 6.508 32.363 24.602 32.363 45.023v25.257c54.367 5.294 97 51.257 97 106.991 0 37.188-19.086 71.411-50.284 91.029 1.474 3.707 2.284 7.746 2.284 11.971 0 17.92-14.579 32.5-32.5 32.5h-30c-17.921 0-32.5-14.58-32.5-32.5 0-.5.012-.996.034-1.491-5.223-1.825-10.242-4.036-15.034-6.596zm47.5-70.5c-9.649 0-17.5 7.851-17.5 17.5s7.851 17.5 17.5 17.5h30c9.649 0 17.5-7.851 17.5-17.5s-7.851-17.5-17.5-17.5zm-320 0c-9.649 0-17.5 7.851-17.5 17.5s7.851 17.5 17.5 17.5h30c9.649 0 17.5-7.851 17.5-17.5s-7.851-17.5-17.5-17.5zm323-178c-51.005 0-92.5 41.495-92.5 92.5 0 39.087 24.848 73.991 61.181 87.065 5.582-9.88 16.185-16.565 28.319-16.565h30c8.28 0 15.847 3.112 21.592 8.229 27.225-16.817 43.908-46.478 43.908-78.729 0-51.005-41.495-92.5-92.5-92.5zm-265.007 179h31.508v-95h-125v95h7.508c5.583-9.435 15.799-15.818 27.492-15.996v-26.504c0-15.164 12.336-27.5 27.5-27.5s27.5 12.336 27.5 27.5v37.668c1.305 1.497 2.474 3.114 3.492 4.832zm-43.493-16h15.5c3.303 0 6.494.496 9.5 1.416v-27.916c0-6.893-5.607-12.5-12.5-12.5s-12.5 5.607-12.5 12.5zm90-14h127.13c-10.282-16.604-16.13-36.059-16.13-56.5 0-34.645 16.475-65.515 42-85.188v-25.812h15v16.117c13.819-7.385 29.433-11.838 46-12.524v-24.841c0-13.973-8.898-26.353-22.144-30.806l-82.936-27.884-14.764 40.818 14.111 118.938-37.769 57.912-37.769-57.912 14.111-118.938-14.764-40.818-82.936 27.884c-12.604 4.238-21.272 15.655-22.081 28.792l45.938 55.925v-32.663h15v50.923l42.37 51.577h-30.367zm48.268-91.318 22.232 34.089 22.231-34.089-12.894-108.682h-18.674zm-201.901 11.318h152.267l-76.133-92.684zm213.396-135h21.475l9.024-24.951c-6.252 1.917-12.89 2.951-19.762 2.951s-13.51-1.033-19.762-2.951zm-41.763-129v39.5c0 28.949 23.551 52.5 52.5 52.5 28.948 0 52.5-23.551 52.5-52.5v-39.5zm-3.127-15h108.127v-15.5c0-12.407-10.094-22.5-22.5-22.5h-107.136zm63.127 458.5h-15v-30h15zm148-102h-15v-14.5h-17.5v-15h34c4.687 0 8.5-3.813 8.5-8.5s-3.813-8.5-8.5-8.5h-18c-12.958 0-23.5-10.542-23.5-23.5s10.542-23.5 23.5-23.5h1.5v-14.5h15v14.5h17.5v15h-34c-4.687 0-8.5 3.813-8.5 8.5s3.813 8.5 8.5 8.5h18c12.958 0 23.5 10.542 23.5 23.5s-10.542 23.5-23.5 23.5h-1.5z" fill="url(#SVGID_3_)" data-original="url(#SVGID_3_)"></path></g></g></svg>