<svg xmlns="http://www.w3.org/2000/svg" version="1.1" xmlns:xlink="http://www.w3.org/1999/xlink" xmlns:svgjs="http://svgjs.com/svgjs" width="512" height="512" x="0" y="0" viewBox="0 0 64 64" style="enable-background:new 0 0 512 512" xml:space="preserve" class=""><g><linearGradient xmlns="http://www.w3.org/2000/svg" id="SVGID_1_" gradientUnits="userSpaceOnUse" x1="32" x2="32" y1="63" y2="1"><stop offset="0" stop-color="#9f2fff"></stop><stop offset="1" stop-color="#0bb1d3"></stop></linearGradient><path xmlns="http://www.w3.org/2000/svg" d="m32 22c4.411 0 8-3.589 8-8s-3.589-8-8-8-8 3.589-8 8 3.589 8 8 8zm0-14c3.309 0 6 2.691 6 6s-2.691 6-6 6-6-2.691-6-6 2.691-6 6-6zm0 10c2.206 0 4-1.794 4-4s-1.794-4-4-4-4 1.794-4 4 1.794 4 4 4zm0-6c1.103 0 2 .897 2 2s-.897 2-2 2-2-.897-2-2 .897-2 2-2zm-13-1.708v7.416l1.826.644c.062.158.127.315.196.471l-.836 1.749 5.244 5.242 1.748-.836c.157.069.314.135.471.196l.643 1.826h7.415l.645-1.826c.157-.062.314-.127.471-.196l1.748.836 5.244-5.242-.836-1.749c.069-.155.134-.313.196-.471l1.825-.644v-7.416l-1.826-.644c-.062-.158-.127-.315-.196-.471l.836-1.749-5.244-5.241-1.748.836c-.157-.069-.314-.135-.471-.196l-.643-1.827h-7.415l-.645 1.826c-.157.062-.314.127-.471.196l-1.747-.835-5.244 5.242.836 1.749c-.069.155-.134.313-.196.471zm2 1.416 1.392-.491.157-.458c.132-.385.292-.771.477-1.146l.214-.436-.638-1.335 3.242-3.242 1.334.639.435-.214c.381-.187.766-.347 1.146-.477l.458-.156.491-1.392h4.585l.491 1.393.458.156c.38.13.765.29 1.146.477l.435.214 1.334-.639 3.242 3.242-.638 1.335.214.436c.185.375.345.761.477 1.146l.157.458 1.391.49v4.584l-1.392.491-.157.458c-.132.385-.292.771-.477 1.146l-.214.436.638 1.335-3.242 3.242-1.334-.639-.435.214c-.381.187-.766.347-1.146.477l-.458.156-.491 1.392h-4.585l-.491-1.393-.458-.156c-.38-.13-.765-.29-1.146-.477l-.435-.214-1.334.639-3.242-3.242.638-1.335-.214-.436c-.185-.375-.345-.761-.477-1.146l-.157-.458-1.391-.49zm40 17.292h-8v32h-2v-20h-8v20h-2v-26h-8v26h-2.556c.344-.591.556-1.268.556-2 0-2.206-1.794-4-4-4h-19c-.551 0-1-.448-1-1v-1h21c1.654 0 3-1.346 3-3v-10.92l-24-2v-5.08c0-1.654-1.346-3-3-3h-3v2h3c.551 0 1 .448 1 1v22c0 1.199.712 2.228 1.731 2.708-.457.65-.731 1.438-.731 2.292 0 2.206 1.794 4 4 4s4-1.794 4-4c0-.732-.212-1.409-.556-2h10.113c-.345.591-.557 1.268-.557 2 0 2.206 1.794 4 4 4h36v-2h-2zm-6 2h4v30h-4zm-10 12h4v18h-4zm-10-6h4v24h-4zm-10.914 5.5-3.086 3.086-3.086-3.086 2.312-2.312 1.69.141zm.915-1.913.921.077-.422.422zm-8.501 9.499-3.086-3.086 3.086-3.086 3.086 3.086zm-1.914.914h-5.172l2.586-2.586zm6.414-2.586 2.586 2.586h-5.172zm4.5 1.672-3.086-3.086 3.086-3.086 3.086 3.086zm-9-9-1.318-1.318 2.433.203zm-4.403-1.575 2.989 2.989-3.086 3.086-3.086-3.086 3.004-3.004zm-1.511 7.489-3.586 3.586v-6.172l.5-.5zm17.414 4h-.586l1.586-1.586v.586c0 .552-.449 1-1 1zm1-6.414-2.086-2.086 1.619-1.619.467.039zm-19.692-5.307-1.808 1.807-.5-.5v-1.5zm2.692 19.721c0 1.103-.897 2-2 2s-2-.897-2-2 .897-2 2-2 2 .897 2 2zm13 0c0-1.103.897-2 2-2s2 .897 2 2-.897 2-2 2-2-.897-2-2zm30-34h2v2h-2zm2-9c0-1.654-1.346-3-3-3h-1.184c-.414-1.161-1.514-2-2.816-2-1.654 0-3 1.346-3 3s1.346 3 3 3c1.302 0 2.402-.839 2.816-2h1.184c.551 0 1 .448 1 1v7h2zm-7-1c-.551 0-1-.448-1-1s.449-1 1-1 1 .448 1 1-.449 1-1 1zm-43 10h2v2h-2zm2-9c0-.552.449-1 1-1h1.184c.414 1.161 1.514 2 2.816 2 1.654 0 3-1.346 3-3s-1.346-3-3-3c-1.302 0-2.402.839-2.816 2h-1.184c-1.654 0-3 1.346-3 3v7h2zm5-3c.551 0 1 .448 1 1s-.449 1-1 1-1-.448-1-1 .449-1 1-1z" fill="url(#SVGID_1_)" data-original="url(#SVGID_1_)"></path></g></svg>