<?xml version="1.0" encoding="utf-8"?>
<!-- Generator: Adobe Illustrator 23.0.5, SVG Export Plug-In . SVG Version: 6.00 Build 0)  -->
<svg version="1.1" id="Layer_1" xmlns="http://www.w3.org/2000/svg" xmlns:xlink="http://www.w3.org/1999/xlink" x="0px" y="0px"
	 viewBox="0 0 523 349" style="enable-background:new 0 0 523 349;" xml:space="preserve">
<rect x="-12.57" y="0.47" style="fill:#2EAEB7;" width="536.14" height="357.67"/>
<circle style="fill:#008A94;" cx="265.13" cy="173.98" r="75"/>
<g>
	<g>
		<path style="fill:#FFEABF;" d="M317.54,173.3c-0.64,0-1.15-0.52-1.16-1.15c0-0.64,0.51-1.16,1.15-1.16l8.91-0.03c0,0,0,0,0,0
			c0.64,0,1.15,0.52,1.16,1.15c0,0.64-0.51,1.16-1.15,1.16L317.54,173.3C317.54,173.3,317.54,173.3,317.54,173.3z"/>
		<g>
			<polygon style="fill:#FFEABF;" points="323.26,176.83 340.79,172.06 323.22,167.42 			"/>
		</g>
	</g>
	<g>
		<path style="fill:#FFEABF;" d="M303.69,139.59c-0.32,0-0.65-0.14-0.87-0.4c-0.42-0.48-0.37-1.21,0.12-1.63l6.73-5.83
			c0.48-0.42,1.21-0.37,1.63,0.12c0.42,0.48,0.37,1.21-0.12,1.63l-6.73,5.83C304.22,139.5,303.95,139.59,303.69,139.59z"/>
		<g>
			<polygon style="fill:#FFEABF;" points="311.07,138.26 321.26,123.22 304.91,131.15 			"/>
		</g>
	</g>
	<g>
		<path style="fill:#FFEABF;" d="M262.9,122.75c-0.63,0-1.15-0.51-1.16-1.14l-0.1-8.91c-0.01-0.64,0.5-1.16,1.14-1.17
			c0,0,0.01,0,0.01,0c0.63,0,1.15,0.51,1.16,1.14l0.1,8.91c0.01,0.64-0.5,1.16-1.14,1.17C262.91,122.75,262.9,122.75,262.9,122.75z"
			/>
		<g>
			<polygon style="fill:#FFEABF;" points="267.54,115.84 262.64,98.34 258.13,115.95 			"/>
		</g>
	</g>
	<g>
		<path style="fill:#FFEABF;" d="M226.37,139.82c-0.29,0-0.58-0.11-0.81-0.33l-6.39-6.2c-0.46-0.45-0.47-1.18-0.02-1.64
			c0.45-0.46,1.18-0.47,1.64-0.02l6.39,6.2c0.46,0.45,0.47,1.18,0.02,1.64C226.98,139.7,226.68,139.82,226.37,139.82z"/>
		<g>
			<polygon style="fill:#FFEABF;" points="225.56,131.32 209.68,122.47 219.01,138.07 			"/>
		</g>
	</g>
	<g>
		<path style="fill:#FFEABF;" d="M212.82,174.67c-0.02,0-0.03,0-0.05,0l-8.9-0.36c-0.64-0.03-1.14-0.56-1.11-1.2
			c0.03-0.64,0.54-1.13,1.2-1.11l8.9,0.36c0.64,0.03,1.14,0.56,1.11,1.2C213.95,174.18,213.44,174.67,212.82,174.67z"/>
		<g>
			<polygon style="fill:#FFEABF;" points="207.31,168.58 189.58,172.58 206.94,177.98 			"/>
		</g>
	</g>
</g>
<g>
	<g>
		<g>
			<g>
				<g>
					<path style="fill:#F7BE89;" d="M249.93,212.06c0.04,0.32,0.1,0.7,0.14,1.01c0,0.02,0.01,0.04,0.01,0.06
						C250.02,212.67,249.97,212.32,249.93,212.06z"/>
					<path style="fill:#F7BE89;" d="M249.93,212.06C249.84,211.39,249.78,211,249.93,212.06L249.93,212.06z"/>
					<path style="fill:#F7BE89;" d="M250.15,213.66c-0.01-0.07-0.03-0.23-0.07-0.51c0-0.01,0-0.01,0-0.02
						C250.11,213.38,250.14,213.58,250.15,213.66z"/>
					<path style="fill:#F7BE89;" d="M250.08,213.15c0-0.01,0-0.01,0-0.02v0C250.08,213.14,250.08,213.15,250.08,213.15z"/>
					<path style="fill:#F7BE89;" d="M250.08,213.13c0-0.02-0.01-0.04-0.01-0.06C250.07,213.09,250.08,213.11,250.08,213.13
						L250.08,213.13z"/>
					<path style="fill:#F7BE89;" d="M245.81,260.5c-4.54,0-8.26-4.31-8.26-9.57v-52.25c-4.4,2.29-8.42,4.75-8.42,4.75v-26
						c0,0,6.07-8.94,8.42-16.4v-9.52c-0.7-3.31-2.13-6.57-4.65-8.51c-0.87-0.67-1.76-0.58-2.62,0.03c1.57,1.17,3.58,4.04,3.58,4.04
						s-3.69,6.42-4.74,7.48c-1.05,1.05-2.9,0-2.9,0l-1.8-0.83c-0.96,2.64-0.72,2.15-0.96,2.64c-3.48,7.23-10.57,6.29-11.08,14.16
						c-0.64,9.89-11.17,26.53-8.64,35.08c2.35,7.95,0.61,16.58,0.52,24.77c-0.02,2.22-1.73,5.43-1.68,7.03
						c-3.94,4.44-25.79,18.1-25.79,18.1l25.48,40.37c0,0,25.71-19.6,38.01-22.01c18.69-3.66,23.31-9.27,28.01-13.36H245.81z"/>
					<path style="fill:#DF3F18;" d="M229.11,154.53c1.05-1.06,4.74-7.48,4.74-7.48s0.36-7.72-3.58-4.04
						c-2.27,1.58-4.4,6.64-5.87,10.68l1.8,0.83C226.21,154.53,228.06,155.58,229.11,154.53z"/>
				</g>
				<g>
					<path style="fill:#F7BE89;" d="M304.68,228.66c-0.56,0-1.04,0.11-1.49,0.26v13.54c0.45,0.15,0.93,0.26,1.49,0.26
						c3.47,0,7.86-3.15,7.86-7.03C312.54,231.81,308.15,228.66,304.68,228.66z"/>
					<path style="fill:#F7BE89;" d="M305.21,211.23c-0.79,0-1.45,0.21-2.01,0.55v5.66v9.34c0.57,0.34,1.22,0.55,2.01,0.55
						c3.46,0,7.85-3.6,7.85-8.05C313.06,214.83,308.67,211.23,305.21,211.23z"/>
					<path style="fill:#F7BE89;" d="M310.29,164.61c-2.24-0.45-4.93-0.05-7.1,0.9v15.9c6.12,0.17,10.13-5.97,11.71-11.31
						C316.19,165.77,310.29,164.61,310.29,164.61z"/>
					<path style="fill:#F7BE89;" d="M312.01,194.35c-2.98-3.15-7.65-0.85-8.82-0.2v16.76c0.76-0.34,1.59-0.71,2.54-1.13
						C314.49,205.9,318.34,201.04,312.01,194.35z"/>
				</g>
				<g>
					<g>
						<path style="fill:#161616;" d="M303.2,250.93c0,5.26-3.71,9.57-8.26,9.57h-49.13c-4.54,0-8.26-4.31-8.26-9.57V150.02
							c0-5.26,3.72-9.57,8.26-9.57h49.13c4.54,0,8.26,4.3,8.26,9.57V250.93z"/>
						
							<linearGradient id="SVGID_1_" gradientUnits="userSpaceOnUse" x1="286.9545" y1="137.7793" x2="314.3103" y2="195.0722" gradientTransform="matrix(1 0 0 1 -6.4453 0)">
							<stop  offset="0" style="stop-color:#535353"/>
							<stop  offset="1" style="stop-color:#161616"/>
						</linearGradient>
						<path style="fill:url(#SVGID_1_);" d="M294.94,140.45h-29.11l3.86,12.39h28.08v47.16l5.43,17.43v-67.42
							C303.2,144.76,299.48,140.45,294.94,140.45z"/>
						<rect x="242.98" y="152.84" style="fill:#D1E9ED;" width="54.79" height="95.26"/>
					</g>
					<g>
						<path d="M278.87,147.03h-15.29c-0.94,0-1.71-0.86-1.71-1.92c0-1.06,0.77-1.92,1.71-1.92h15.29c0.94,0,1.71,0.86,1.71,1.92
							C280.58,146.17,279.81,147.03,278.87,147.03z M263.57,144.02c-0.49,0-0.89,0.49-0.89,1.1c0,0.61,0.4,1.1,0.89,1.1h15.29
							c0.49,0,0.89-0.49,0.89-1.1c0-0.61-0.4-1.1-0.89-1.1H263.57z"/>
					</g>
				</g>
			</g>
			<g>
				<path style="fill:#FFFFFF;" d="M92.98,298.57v48.92h56.98c0,0,54.67-20.74,58.31-37.72c3.78-17.61-21.51-56.7-39.11-60.48
					C146.98,244.55,92.98,298.57,92.98,298.57z"/>
				
					<rect x="186.46" y="244.08" transform="matrix(0.8397 -0.5431 0.5431 0.8397 -115.5218 152.48)" style="fill:#FFFFFF;" width="28.1" height="55.65"/>
			</g>
		</g>
	</g>
	<g>
		<g>
			<defs>
				<path id="SVGID_2_" d="M284.26,174.35c0,0.83-0.67,1.5-1.5,1.5h-26.17c-0.83,0-1.5-0.67-1.5-1.5v-9.31c0-0.83,0.67-1.5,1.5-1.5
					h26.17c0.83,0,1.5,0.67,1.5,1.5V174.35z"/>
			</defs>
			<use xlink:href="#SVGID_2_"  style="overflow:visible;fill:#FDC00F;"/>
			<clipPath id="SVGID_3_">
				<use xlink:href="#SVGID_2_"  style="overflow:visible;"/>
			</clipPath>
			<g style="clip-path:url(#SVGID_3_);">
				<rect x="255.09" y="169.7" style="fill:#FB9F1B;" width="30.53" height="6.86"/>
			</g>
		</g>
		<g>
			<path style="fill:#103754;" d="M266.55,167.68c0,0.18-0.02,0.35-0.06,0.52c-0.04,0.17-0.1,0.34-0.18,0.49
				c-0.08,0.15-0.19,0.29-0.32,0.4c-0.13,0.12-0.29,0.2-0.47,0.26v0.06c0.16,0.04,0.32,0.1,0.46,0.18c0.15,0.08,0.27,0.19,0.38,0.33
				c0.11,0.14,0.19,0.31,0.26,0.51c0.06,0.2,0.1,0.44,0.1,0.71c0,0.37-0.06,0.68-0.19,0.95c-0.13,0.27-0.29,0.49-0.51,0.66
				c-0.21,0.17-0.46,0.29-0.75,0.38c-0.29,0.08-0.59,0.12-0.91,0.12c-0.1,0-0.22,0-0.37,0c-0.15,0-0.31-0.01-0.48-0.02
				c-0.17-0.01-0.35-0.03-0.54-0.05c-0.18-0.02-0.35-0.05-0.51-0.09v-7.02c0.22-0.04,0.5-0.08,0.83-0.11
				c0.33-0.03,0.66-0.05,0.98-0.05c0.3,0,0.59,0.02,0.86,0.07c0.27,0.05,0.52,0.14,0.72,0.26c0.21,0.13,0.37,0.31,0.49,0.53
				C266.49,167.02,266.55,167.32,266.55,167.68z M264.06,169.05c0.07,0,0.16,0,0.26-0.01c0.1-0.01,0.18-0.02,0.24-0.04
				c0.2-0.08,0.37-0.2,0.5-0.37c0.14-0.17,0.21-0.39,0.21-0.66c0-0.18-0.02-0.33-0.07-0.45c-0.05-0.12-0.11-0.22-0.19-0.29
				c-0.08-0.07-0.18-0.12-0.29-0.15c-0.11-0.03-0.23-0.05-0.36-0.05c-0.28,0-0.48,0.01-0.59,0.04v1.97H264.06z M264.4,172.15
				c0.28,0,0.52-0.09,0.7-0.28c0.18-0.18,0.28-0.45,0.28-0.8c0-0.22-0.03-0.4-0.09-0.53c-0.06-0.13-0.14-0.23-0.25-0.31
				c-0.1-0.07-0.22-0.12-0.35-0.14c-0.13-0.02-0.27-0.03-0.41-0.03h-0.52v2.03c0.05,0.02,0.15,0.04,0.28,0.05
				C264.17,172.14,264.29,172.15,264.4,172.15z"/>
			<path style="fill:#103754;" d="M270.61,166.03h1.21v4.62c0,0.92-0.19,1.59-0.56,2c-0.38,0.41-0.9,0.62-1.56,0.62
				c-0.78,0-1.35-0.2-1.71-0.61c-0.36-0.4-0.54-1.02-0.54-1.85v-4.79h1.28v4.57c0,0.56,0.08,0.95,0.22,1.17
				c0.15,0.22,0.4,0.33,0.74,0.33c0.33,0,0.57-0.12,0.71-0.35c0.14-0.23,0.21-0.62,0.21-1.15V166.03z"/>
			<path style="fill:#103754;" d="M274.13,170.51l-1.92-4.48h1.53l0.99,2.7l0.1,0.77h0.05l0.11-0.79l0.97-2.68h1.37l-1.92,4.47v2.66
				h-1.28V170.51z"/>
		</g>
	</g>
	<g>
		<g>
			<g>
				<g>
					<path style="fill:#F4AA6E;" d="M323.64,278.38c-3.54-7.91-7.08-15.83-10.62-23.74c-3.31-7.4-6.4-14.81-9.35-22.28l-0.04-0.06
						c0,0,5.07,31.56,5.76,35.1c1.71,8.76,10.83,15.47,16.69,21.38c1.13,1.13,17.66,16.69,17.66,16.69v-0.01
						c-1.1-1.16-2.25-2.49-3.55-4.11C334.36,294.12,327.5,286.99,323.64,278.38z"/>
					<path style="fill:#F7BE89;" d="M401.43,285.37c-7.55-8.29-0.97-26.72-5.7-36.68c-3.44-7.24-9.36-26.9-18.18-28.86
						c-4.11-0.91-6.74,1.5-10.44-2.23c-4.15-4.19-6.93,0.37-11.11-0.81c-4.01-1.13-5.57-7.26-10.57-3.36
						c-3.01,1.42-4.95,4.06-8.65,1.79c-3.2-1.97-5.68-5.1-9.69-2.21c-2.5,1.02-3.85,3.58-7.01,2.17c-2.86-1.27-4.45-6.28-5.76-8.85
						c-5.34-10.44-10.68-20.88-16.02-31.31c-1.52-2.96-3.24-8.1-6.11-9.63c-9.62-5.15-8.41,11.57-6.82,16.09
						c3.52,10.02,7.04,20.03,10.56,30.05c2.47,7.03,5.05,13.95,7.76,20.82c2.95,7.47,6.05,14.88,9.35,22.28
						c3.54,7.91,7.08,15.83,10.62,23.74c3.86,8.61,10.71,15.75,16.55,22.97c1.31,1.62,2.46,2.95,3.55,4.11
						c3.39,3.59,6.27,5.48,11.62,8.78c6.4,3.94,17.77,18.42,17.77,18.42l42.13-25.05C415.27,307.61,404.43,288.67,401.43,285.37z"/>
				</g>
				<g>
					<path style="fill:#DF3F18;" d="M286.47,166.79c0,0,0.87,5.88,3.3,7.13c3.72,1.91,7.1-1.41,7.08-1.94
						c-1.27-2.69-2.58-5.2-4.52-6.94C291.1,163.94,285.62,159.61,286.47,166.79z"/>
				</g>
			</g>
		</g>
		<path style="fill:#FFFFFF;" d="M440,322.22c0,0-7.78-18.42-13.63-19.45c-17.73-3.12-55.86,23.6-58.98,41.34
			c-0.18,1.02,2.38,3.39,2.38,3.39H440V322.22z"/>
		
			<rect x="360.99" y="297.88" transform="matrix(0.8189 -0.5739 0.5739 0.8189 -108.61 279.6062)" style="fill:#FFFFFF;" width="55.65" height="28.1"/>
	</g>
	<g>
		<path style="fill:#00B09F;" d="M257.76,183.04c0,0-6.18,2.69-4.94,10.35c1.23,7.66,2.39,21.98,2.39,21.98h2.55v-19.27
			c0,0,9.88,16.08,11.77,18.07c0.53,0.56,0.97,1.16,1.66,1.35c2.2,0.61,11.45,0.43,14.97-0.15c1.09-0.18,1.35-0.63,1.56-0.82
			c0.71-0.65,3.97-6.32,0.41-7.82c-4.94-2.08-7.84-2.57-7.84-2.57S270.94,212.49,257.76,183.04z"/>
		<path style="fill:#FFFFFF;" d="M252.68,191.78c-0.01-0.28-0.01-0.56,0-0.82c0-0.12,0.01-0.23,0.02-0.35
			c0.02-0.31,0.06-0.61,0.11-0.9c0.01-0.05,0.01-0.09,0.02-0.14c0.06-0.32,0.14-0.63,0.22-0.92c0.03-0.11,0.07-0.21,0.1-0.31
			c0.06-0.19,0.13-0.38,0.21-0.56c0.04-0.11,0.09-0.21,0.13-0.31c0.08-0.18,0.17-0.35,0.26-0.52c0.04-0.08,0.08-0.16,0.12-0.23l0,0
			c1.66,2.7,4.56,7.38,5.54,8.82c1.4,2.06,9.17,15.54,13.17,16.72c3.17,0.94,13.11,0.04,16.62-0.31c-0.49,1.28-1.18,2.34-1.47,2.61
			c-0.21,0.19-0.47,0.64-1.56,0.82c-3.52,0.58-12.77,0.76-14.97,0.15c-0.68-0.19-1.12-0.79-1.66-1.35
			c-1.89-1.99-11.77-18.07-11.77-18.07v19.27h-0.3l-2.68-4.84c-0.17-1.81-0.37-3.99-0.61-6.25c0-0.03-0.01-0.06-0.01-0.09
			c-0.03-0.33-0.07-0.67-0.11-1c-0.01-0.05-0.01-0.1-0.01-0.15c-0.08-0.74-0.16-1.48-0.25-2.22c0-0.04-0.01-0.07-0.01-0.11
			c-0.03-0.31-0.07-0.62-0.11-0.93c-0.01-0.09-0.02-0.18-0.03-0.27c-0.03-0.28-0.07-0.55-0.1-0.82c-0.01-0.08-0.02-0.17-0.03-0.25
			c-0.09-0.7-0.17-1.38-0.26-2.04c-0.01-0.06-0.02-0.13-0.03-0.19c-0.03-0.26-0.07-0.51-0.1-0.76c-0.01-0.09-0.03-0.19-0.04-0.28
			c-0.03-0.22-0.07-0.45-0.1-0.66c-0.01-0.09-0.03-0.18-0.04-0.26c-0.04-0.29-0.09-0.58-0.13-0.85c-0.07-0.43-0.11-0.84-0.13-1.25
			C252.68,192.02,252.68,191.9,252.68,191.78z"/>
		<path style="fill:#FF910A;" d="M252.82,193.39c-0.29-1.78-0.16-3.28,0.18-4.56c1.21,3.26,4.76,7.27,4.76,7.27v19.27h-2.55
			C255.21,215.37,254.06,201.05,252.82,193.39z"/>
	</g>
	<rect x="265.83" y="226.26" style="fill:#C1C9D9;" width="20.17" height="2.22"/>
	<rect x="265.83" y="230.69" style="fill:#C1C9D9;" width="20.17" height="2.22"/>
	<rect x="256.44" y="235.11" style="fill:#C1C9D9;" width="29.56" height="2.22"/>
	<rect x="256.44" y="239.53" style="fill:#C1C9D9;" width="29.56" height="2.22"/>
	<rect x="256.99" y="226.26" style="fill:#6583BF;" width="6.64" height="6.64"/>
</g>
<g>
	<g>
		
			<ellipse transform="matrix(0.7071 -0.7071 0.7071 0.7071 -9.3929 322.7256)" style="fill:#FFD761;" cx="384.87" cy="172.7" rx="37.34" ry="37.34"/>
		<path style="fill:#FFEABF;" d="M384.87,211.77c-21.54,0-39.07-17.53-39.07-39.07c0-21.54,17.53-39.07,39.07-39.07
			c21.54,0,39.07,17.53,39.07,39.07C423.94,194.24,406.41,211.77,384.87,211.77z M384.87,137.1c-19.63,0-35.61,15.97-35.61,35.6
			c0,19.63,15.97,35.6,35.61,35.6c19.63,0,35.6-15.97,35.6-35.6C420.47,153.07,404.5,137.1,384.87,137.1z"/>
	</g>
	<g>
		<path style="fill:#FF910A;" d="M416.52,192.83c0,0-9.01-36.22-10.2-40.45c-1.19-4.22-5.33-2.98-5.33-2.98h-16.01h-16.01
			c0,0-4.15-1.24-5.33,2.98c-1.19,4.22-10.2,40.45-10.2,40.45s-1.43,2.49,4.03,4.11c13.77,4.08,41.26,4.08,55.03,0
			C417.96,195.32,416.52,192.83,416.52,192.83z"/>
		<path style="fill:#D30A01;" d="M406.33,152.38c-1.19-4.22-5.33-2.98-5.33-2.98h-2.15c-0.44,2.59,0.03,5.72,1.53,8.73
			c2.2,4.41,5.95,7.24,9.33,7.43C408.1,159.2,406.74,153.85,406.33,152.38z"/>
		<path style="fill:#D30A01;" d="M363.63,152.38c1.19-4.22,5.33-2.98,5.33-2.98h2.15c0.44,2.59-0.03,5.72-1.53,8.73
			c-2.2,4.41-5.94,7.24-9.33,7.43C361.86,159.2,363.22,153.85,363.63,152.38z"/>
		<rect x="366.35" y="143.94" style="fill:#00B09F;" width="37.25" height="5.46"/>
		<path style="fill:#FFFFFF;" d="M355.69,183.78c-0.15,0.61-0.3,1.21-0.44,1.78c19.61,4.09,39.86,4.09,59.47,0
			c-0.14-0.57-0.29-1.16-0.44-1.78C394.95,187.8,375.01,187.8,355.69,183.78z"/>
		<path style="fill:#D30A01;" d="M355.11,186.09c-0.37,1.48-0.69,2.78-0.96,3.83c20.32,4.34,41.32,4.34,61.64,0
			c-0.26-1.05-0.59-2.35-0.95-3.83C395.15,190.27,374.8,190.27,355.11,186.09z"/>
		<path style="fill:#FFFFFF;" d="M354.03,190.43c-0.19,0.76-0.34,1.37-0.44,1.78c20.68,4.57,42.1,4.57,62.78,0
			c-0.1-0.41-0.25-1.01-0.44-1.78C395.54,194.92,374.42,194.92,354.03,190.43z"/>
		<g>
			<defs>
				<path id="SVGID_4_" d="M416.52,192.83c0,0-9.01-36.22-10.2-40.45c-0.53-1.88-1.65-2.68-2.72-2.98v-5.46h-37.25v5.46
					c-1.08,0.3-2.19,1.1-2.72,2.98c-1.19,4.22-10.2,40.45-10.2,40.45s-1.43,2.49,4.03,4.11c13.77,4.08,41.26,4.08,55.03,0
					C417.96,195.32,416.52,192.83,416.52,192.83z"/>
			</defs>
			<clipPath id="SVGID_5_">
				<use xlink:href="#SVGID_4_"  style="overflow:visible;"/>
			</clipPath>
		</g>
	</g>
</g>
<g>
	<g>
		
			<ellipse transform="matrix(0.1617 -0.9868 0.9868 0.1617 -49.7099 295.3884)" style="fill:#FFD761;" cx="149.01" cy="176.95" rx="37.34" ry="37.34"/>
		<path style="fill:#FFEABF;" d="M149.01,216.02c-21.54,0-39.07-17.53-39.07-39.07s17.53-39.07,39.07-39.07
			c21.54,0,39.07,17.53,39.07,39.07S170.55,216.02,149.01,216.02z M149.01,141.35c-19.63,0-35.6,15.97-35.6,35.6
			s15.97,35.6,35.6,35.6c19.63,0,35.61-15.97,35.61-35.6S168.64,141.35,149.01,141.35z"/>
	</g>
	<g>
		<g>
			<g>
				<path style="fill:#D30A01;" d="M168.42,188.82l-3.61-0.72c0.08-0.36,7.83-36.02-4.12-49.9c-3.09-3.59-7.16-5.34-12.45-5.34
					c-0.03,0-0.05,0-0.08,0c-4.75,0.01-8.42,1.62-11.23,4.91c-11.49,13.48-3.57,49.37-3.49,49.73l-3.61,0.73
					c-0.35-1.54-8.36-37.88,4.23-52.65c3.5-4.11,8.24-6.2,14.09-6.22c0.03,0,0.06,0,0.09,0c6.37,0,11.53,2.23,15.31,6.63
					C176.61,151.17,168.76,187.3,168.42,188.82z"/>
			</g>
			<path style="fill:#FF910A;" d="M175.56,205.09c0,1.79-1.45,3.23-3.23,3.23h-46.54c-1.78,0-3.23-1.45-3.23-3.23v-32.67
				c0-1.78,1.45-3.23,3.23-3.23h46.54c1.79,0,3.23,1.45,3.23,3.23V205.09z"/>
			<g>
				<polygon style="fill:#00B09F;" points="149.06,197.22 149.06,197.22 149.06,197.22 				"/>
				<path style="fill:#00B09F;" d="M122.67,171.62c1.77,1.83,24.66,25.58,26.39,25.6c1.73-0.02,24.62-23.77,26.39-25.6
					c-0.36-1.4-1.61-2.43-3.12-2.43h-46.54C124.29,169.19,123.03,170.22,122.67,171.62z"/>
			</g>
			<g>
				<defs>
					<path id="SVGID_6_" d="M122.67,171.62c1.77,1.83,24.66,25.58,26.39,25.6c1.73-0.02,24.62-23.77,26.39-25.6
						c-0.36-1.4-1.61-2.43-3.12-2.43h-46.54C124.29,169.19,123.03,170.22,122.67,171.62z"/>
				</defs>
				<clipPath id="SVGID_7_">
					<use xlink:href="#SVGID_6_"  style="overflow:visible;"/>
				</clipPath>
				<rect x="118.04" y="170.61" style="clip-path:url(#SVGID_7_);fill:#FFFFFF;" width="62.05" height="1.76"/>
				<rect x="118.04" y="175.24" style="clip-path:url(#SVGID_7_);fill:#FFFFFF;" width="62.05" height="1.76"/>
				<rect x="118.04" y="179.86" style="clip-path:url(#SVGID_7_);fill:#FFFFFF;" width="62.05" height="1.76"/>
				<rect x="118.04" y="184.48" style="clip-path:url(#SVGID_7_);fill:#FFFFFF;" width="62.05" height="1.76"/>
				<rect x="118.04" y="189.11" style="clip-path:url(#SVGID_7_);fill:#FFFFFF;" width="62.05" height="1.76"/>
				<rect x="118.04" y="193.73" style="clip-path:url(#SVGID_7_);fill:#FFFFFF;" width="62.05" height="1.76"/>
			</g>
			<path style="fill:#00B09F;" d="M152.9,197.22c0,2.12-1.72,3.84-3.84,3.84c-2.12,0-3.84-1.72-3.84-3.84
				c0-2.12,1.72-3.84,3.84-3.84C151.18,193.39,152.9,195.11,152.9,197.22z"/>
			<path style="fill:#FF910A;" d="M151.46,197.22c0,1.33-1.08,2.4-2.4,2.4c-1.33,0-2.4-1.08-2.4-2.4s1.08-2.4,2.4-2.4
				C150.39,194.82,151.46,195.9,151.46,197.22z"/>
			<g>
				<defs>
					<path id="SVGID_8_" d="M172.33,169.19h-1.39c0.56-11.48-0.53-25.22-7.38-33.18c-3.79-4.4-8.94-6.63-15.31-6.63
						c-0.03,0-0.06,0-0.09,0c-5.85,0.02-10.59,2.11-14.09,6.22c-6.73,7.9-7.57,21.98-6.84,33.59h-1.43c-1.78,0-3.23,1.45-3.23,3.23
						v32.67c0,1.79,1.45,3.23,3.23,3.23h46.54c1.79,0,3.23-1.45,3.23-3.23v-32.67C175.56,170.64,174.11,169.19,172.33,169.19z
						 M136.94,137.78c2.81-3.29,6.48-4.9,11.23-4.91c0.03,0,0.05,0,0.08,0c5.28,0,9.35,1.75,12.45,5.34
						c6.15,7.15,7.08,20.07,6.52,30.98h-36.26C130.23,158.14,130.9,144.87,136.94,137.78z"/>
				</defs>
				<clipPath id="SVGID_9_">
					<use xlink:href="#SVGID_8_"  style="overflow:visible;"/>
				</clipPath>
			</g>
		</g>
		<g>
			<path style="fill:#D30A01;" d="M140.71,201.31c-16.38,0-20.58-2.1-20.58-2.1s1.12,3.56,15.68,3.56c11.26,0,21.77,0.43,23.63-2.37
				C156.12,200.45,151.14,201.31,140.71,201.31z"/>
			<path style="fill:#00B09F;" d="M120.13,199.21c0,0,4.2,2.1,20.58,2.1c11.52,0,15.91-0.64,19.25-0.57
				c1.41,0.03,3.03,0.2,4.27,0.57c4.2,1.26,14.28,0,14.28,0s2.38-6.79-2.1-12.39c0,0-33.33,13.88-41.31,2.03
				C135.11,190.95,118.58,193.19,120.13,199.21z"/>
			<path style="fill:#00B09F;" d="M120.13,199.21c0,0,4.2,2.1,20.58,2.1c11.52,0,15.91-0.64,19.25-0.57
				c1.41,0.03,3.03,0.2,4.27,0.57c4.2,1.26,14.28,0,14.28,0s2.38-6.79-2.1-12.39c0,0-33.33,13.88-41.31,2.03
				C135.11,190.95,118.58,193.19,120.13,199.21z"/>
			<path style="fill:#D30A01;" d="M178.52,201.48c0,0,0.23-0.82,0.41-1.87c-0.02,0-0.04,0-0.07,0.01c-11.22,1.4-16.5,1.31-16.5,1.31
				v0.01c0.67,0.09,1.32,0.18,1.88,0.38C168.2,202.8,178.52,201.48,178.52,201.48z"/>
			<path style="fill:#FFFFFF;" d="M147.5,197.79C147.5,197.79,147.51,197.79,147.5,197.79c10.67,0,23.7-4.64,28.15-6.36
				c0,0,0.7-0.3,1.82-0.94c-0.3-0.53-0.64-1.06-1.06-1.58c0,0-33.33,13.88-41.31,2.03c0,0-0.8,0.11-2.04,0.34
				c0.54,1.2,1.15,1.88,1.15,1.88C136.91,196.24,141.37,197.79,147.5,197.79z"/>
		</g>
	</g>
</g>
<g>
	<g>
		
			<ellipse transform="matrix(0.1622 -0.9868 0.9868 0.1622 64.3972 252.6778)" style="fill:#FFD761;" cx="181.01" cy="88.41" rx="37.34" ry="37.34"/>
		<path style="fill:#FFEABF;" d="M181.01,127.48c-21.54,0-39.07-17.53-39.07-39.07c0-21.54,17.53-39.07,39.07-39.07
			c21.54,0,39.07,17.53,39.07,39.07C220.08,109.96,202.55,127.48,181.01,127.48z M181.01,52.81c-19.63,0-35.61,15.97-35.61,35.61
			c0,19.63,15.97,35.6,35.61,35.6c19.63,0,35.6-15.97,35.6-35.6C216.61,68.78,200.64,52.81,181.01,52.81z"/>
	</g>
	<g>
		<g>
			<g>
				<rect x="165.63" y="70.87" style="fill:#FFFFFF;" width="9.68" height="6.98"/>
				<path style="fill:#FF910A;" d="M187.16,108.86c0,2.3-2.18,4.16-4.86,4.16h-23.66c-2.69,0-4.86-1.86-4.86-4.16V79.94
					c0-2.3,2.17-4.16,4.86-4.16h23.66c2.68,0,4.86,1.86,4.86,4.16V108.86z"/>
				<rect x="159.64" y="83.15" style="fill:#FFFFFF;" width="21.66" height="20.9"/>
				<path style="fill:#D30A01;" d="M179.34,67.83c0,2.21-1.79,4-4,4h-9.74c-2.21,0-4-1.79-4-4v-1.62c0-2.21,1.79-4,4-4h9.74
					c2.21,0,4,1.79,4,4V67.83z"/>
			</g>
			<g>
				<defs>
					<path id="SVGID_10_" d="M182.3,75.78h-6.99v-3.95h0.03c2.21,0,4-1.79,4-4v-1.62c0-2.21-1.79-4-4-4h-9.74c-2.21,0-4,1.79-4,4
						v1.62c0,2.21,1.79,4,4,4h0.03v3.95h-6.99c-2.69,0-4.86,1.86-4.86,4.16v28.92c0,2.3,2.17,4.16,4.86,4.16h23.66
						c2.68,0,4.86-1.86,4.86-4.16V79.94C187.16,77.64,184.98,75.78,182.3,75.78z"/>
				</defs>
				<clipPath id="SVGID_11_">
					<use xlink:href="#SVGID_10_"  style="overflow:visible;"/>
				</clipPath>
			</g>
		</g>
		<g>
			<path style="fill:#D30A01;" d="M204.55,82.14c0,1.5-1.18,2.72-2.63,2.72h-2.1c-1.45,0-2.63-1.22-2.63-2.72v-7.69
				c0-2.51,0-1.98,1.75-3.47l2.98-2.4c2.63-2.07,2.63,1.21,2.63,2.71V82.14z"/>
			<path style="fill:#F1F2F2;" d="M206.66,96.6c0,1.82-1.85,3.29-4.13,3.29h-3.3c-2.28,0-4.13-1.47-4.13-3.29V83.46
				c0-1.82,1.85-3.29,4.13-3.29h3.3c2.28,0,4.13,1.47,4.13,3.29V96.6z"/>
			<path style="fill:#00B09F;" d="M208.23,108.83c0,2.31-2.35,4.18-5.26,4.18h-4.2c-2.9,0-5.25-1.88-5.25-4.18V92.11
				c0-2.31,2.35-4.19,5.25-4.19h4.2c2.9,0,5.26,1.87,5.26,4.19V108.83z"/>
			<g>
				<defs>
					<path id="SVGID_12_" d="M206.66,89.13v-5.67c0-1.23-0.86-2.28-2.1-2.85v-9.31c0-1.5,0-4.78-2.63-2.71l-2.98,2.4
						c-1.75,1.49-1.75,0.96-1.75,3.47v6.16c-1.25,0.57-2.1,1.62-2.1,2.85v5.67c-0.97,0.76-1.58,1.81-1.58,2.98v16.72
						c0,2.31,2.35,4.18,5.25,4.18h4.2c2.9,0,5.26-1.88,5.26-4.18V92.11C208.23,90.94,207.62,89.88,206.66,89.13z"/>
				</defs>
				<clipPath id="SVGID_13_">
					<use xlink:href="#SVGID_12_"  style="overflow:visible;"/>
				</clipPath>
			</g>
		</g>
	</g>
</g>
<g>
	<g>
		
			<ellipse transform="matrix(0.2251 -0.9743 0.9743 0.2251 152.1682 296.8124)" style="fill:#FFD761;" cx="262.68" cy="52.74" rx="37.34" ry="37.34"/>
		<path style="fill:#FFEABF;" d="M262.68,91.81c-21.54,0-39.07-17.53-39.07-39.07c0-21.54,17.53-39.07,39.07-39.07
			c21.54,0,39.07,17.53,39.07,39.07C301.75,74.29,284.23,91.81,262.68,91.81z M262.68,17.14c-19.63,0-35.61,15.97-35.61,35.6
			c0,19.63,15.97,35.6,35.61,35.6c19.63,0,35.6-15.97,35.6-35.6C298.29,33.11,282.31,17.14,262.68,17.14z"/>
	</g>
	<g>
		<g>
			<path style="fill:#D30A01;" d="M251.46,39.42c0,0-8.47,22.3-8.47,42.42c0,0,4.14,2.73,11.29,1.6c7.15-1.13,11.29-1.52,17.31,0.18
				c6.02,1.7,12.79-0.18,15.05-3.94c0,0-3.39-25.58-12.6-40.26C274.03,39.42,261.42,40.42,251.46,39.42z"/>
			<path style="fill:#FF910A;" d="M251.46,36.03c0,0-2.07-5.08-2.63-12.42c0,0,0.62-4.73,12.23-3.3
				c12.98,1.6,12.98-13.44,12.98-13.44s1.61-0.08,4.81,1.61c0,0-3.17,7.96-2.97,13.44c0.23,6.26-0.2,9.12-1.83,14.11
				C274.03,36.03,258.98,39.23,251.46,36.03z"/>
			<path style="fill:#00B09F;" d="M251.46,39.42v-3.39c0,0,7.9,0.75,11.29,0.75v3.57C262.74,40.36,255.59,40.36,251.46,39.42z"/>
			<path style="fill:#00B09F;" d="M274.03,39.42v-3.39c0,0-7.9,0.75-11.29,0.75v3.57C262.74,40.36,269.89,40.36,274.03,39.42z"/>
			<g>
				<defs>
					<path id="SVGID_14_" d="M274.03,39.42v-3.39c1.64-4.99,2.06-7.85,1.83-14.11c-0.2-5.48,2.97-13.44,2.97-13.44
						c-3.2-1.69-4.81-1.61-4.81-1.61s0,15.05-12.98,13.44c-11.61-1.43-12.23,3.3-12.23,3.3c0.56,7.34,2.63,12.42,2.63,12.42v3.39
						c0,0-8.47,22.3-8.47,42.42c0,0,4.14,2.73,11.29,1.6c7.15-1.13,11.29-1.52,17.31,0.18c6.02,1.7,12.79-0.18,15.05-3.94
						C286.64,79.68,283.25,54.09,274.03,39.42z"/>
				</defs>
				<clipPath id="SVGID_15_">
					<use xlink:href="#SVGID_14_"  style="overflow:visible;"/>
				</clipPath>
			</g>
		</g>
		<g>
			<path style="fill:#FF910A;" d="M284.76,68.3c0,0.7-0.57,1.27-1.27,1.27h-20.98c-0.7,0-1.27-0.57-1.27-1.27V54.67
				c0-0.7,0.57-1.27,1.27-1.27h20.98c0.7,0,1.27,0.57,1.27,1.27V68.3z"/>
			<path style="fill:#00B09F;" d="M283.49,53.4h-20.98c-0.7,0-1.27,0.57-1.27,1.27v3.31c0,0,3.85,1.63,7.3,3.13
				c3.04,1.33,5.91,1.24,8.92,0c3.48-1.43,7.3-3.13,7.3-3.13v-3.31C284.76,53.97,284.19,53.4,283.49,53.4z M273,60.64
				c-2.06,0-3.47-0.96-3.47-1.51c0-0.56,1.41-1.51,3.47-1.51c2.05,0,3.47,0.96,3.47,1.51C276.47,59.68,275.05,60.64,273,60.64z"/>
		</g>
	</g>
</g>
<g>
	<g>
		
			<ellipse transform="matrix(0.2346 -0.9721 0.9721 0.2346 183.3728 409.7217)" style="fill:#FFD761;" cx="351.87" cy="88.41" rx="37.34" ry="37.34"/>
		<path style="fill:#FFEABF;" d="M351.87,127.48c-21.54,0-39.07-17.53-39.07-39.07c0-21.54,17.53-39.07,39.07-39.07
			c21.54,0,39.07,17.53,39.07,39.07C390.94,109.96,373.41,127.48,351.87,127.48z M351.87,52.81c-19.63,0-35.61,15.97-35.61,35.61
			c0,19.63,15.97,35.6,35.61,35.6c19.63,0,35.6-15.97,35.6-35.6C387.48,68.78,371.5,52.81,351.87,52.81z"/>
	</g>
	<g>
		<g>
			<g>
				<path style="fill:#FFFFFF;" d="M335.61,83.28c0,0,0-20.55,16.5-20.55c18.43,0,18.43,20.55,18.43,20.55
					S355.18,99.62,335.61,83.28z"/>
				<g>
					<defs>
						<path id="SVGID_16_" d="M407.81,98.42c-45.29,14.42-52.93,16.39-112.88,1.71c17.33-5.77,28.98-12.12,40.68-16.84
							c12,1.1,22.93,1,34.93,0C385.71,91.02,387.24,90.54,407.81,98.42z"/>
					</defs>
					<clipPath id="SVGID_17_">
						<use xlink:href="#SVGID_16_"  style="overflow:visible;"/>
					</clipPath>
					<g style="clip-path:url(#SVGID_17_);">
						<defs>
							<path id="SVGID_18_" d="M422.29,95.57c-45.29,14.41-93.2,14.26-138.43-0.47c18.01-1.87,35.11-6.02,51.02-12.01
								c12,1.1,24.05,1.16,36.06,0.15C386.95,89.37,404.16,93.62,422.29,95.57z"/>
						</defs>
						<use xlink:href="#SVGID_18_"  style="overflow:visible;fill:#F1F2F2;"/>
						<clipPath id="SVGID_19_">
							<use xlink:href="#SVGID_18_"  style="overflow:visible;"/>
						</clipPath>
					</g>
					<g style="clip-path:url(#SVGID_17_);">
						<defs>
							<path id="SVGID_20_" d="M422.29,95.57c-45.29,14.41-93.2,14.26-138.43-0.47c18.01-1.87,35.11-6.02,51.02-12.01
								c12,1.1,24.05,1.16,36.06,0.15C386.95,89.37,404.16,93.62,422.29,95.57z"/>
						</defs>
						<clipPath id="SVGID_21_">
							<use xlink:href="#SVGID_20_"  style="overflow:visible;"/>
						</clipPath>
						<path style="clip-path:url(#SVGID_21_);fill:#00B09F;" d="M422.02,75.49c-45.1,15.4-93.2,15.19-138.21-0.62
							c0.21-0.79,0.43-1.59,0.64-2.38c44.61,15.66,92.27,15.87,136.95,0.62C421.6,73.9,421.81,74.7,422.02,75.49z"/>
						<path style="clip-path:url(#SVGID_21_);fill:#00B09F;" d="M424.07,80.78c-46.02,15.86-95.14,15.79-141.13-0.21
							c0.21-0.79,0.42-1.59,0.63-2.38c45.58,15.86,94.26,15.93,139.87,0.21C423.65,79.19,423.86,79.98,424.07,80.78z"/>
						<path style="clip-path:url(#SVGID_21_);fill:#00B09F;" d="M426.14,86.05c-46.94,16.33-97.07,16.41-144.05,0.22
							c0.21-0.79,0.42-1.59,0.63-2.38c46.56,16.05,96.25,15.98,142.78-0.21C425.72,84.47,425.93,85.26,426.14,86.05z"/>
						<path style="clip-path:url(#SVGID_21_);fill:#00B09F;" d="M428.25,91.32c-47.87,16.81-99.01,17.03-146.97,0.66
							c0.21-0.79,0.42-1.59,0.62-2.38c47.54,16.23,98.25,16.01,145.7-0.65C427.82,89.73,428.03,90.52,428.25,91.32z"/>
					</g>
				</g>
				<g>
					<defs>
						<path id="SVGID_22_" d="M335.61,83.28c0,0,0-20.55,16.5-20.55c18.43,0,18.43,20.55,18.43,20.55S355.18,99.62,335.61,83.28z"/>
					</defs>
					<clipPath id="SVGID_23_">
						<use xlink:href="#SVGID_22_"  style="overflow:visible;"/>
					</clipPath>
					<g style="clip-path:url(#SVGID_23_);">
						<defs>
							<path id="SVGID_24_" d="M422.29,70.44c-45.29-14.41-93.2-14.26-138.43,0.47c18.01,1.87,35.11,6.02,51.02,12.01
								c12-1.1,24.05-1.15,36.06-0.15C386.95,76.64,404.16,72.39,422.29,70.44z"/>
						</defs>
						<clipPath id="SVGID_25_">
							<use xlink:href="#SVGID_24_"  style="overflow:visible;"/>
						</clipPath>
						<path style="clip-path:url(#SVGID_25_);fill:#00B09F;" d="M422.02,90.52c-45.1-15.4-93.2-15.19-138.21,0.62
							c0.21,0.79,0.43,1.58,0.64,2.38c44.61-15.67,92.27-15.87,136.95-0.62C421.6,92.11,421.81,91.31,422.02,90.52z"/>
						<path style="clip-path:url(#SVGID_25_);fill:#00B09F;" d="M424.07,85.23c-46.02-15.86-95.14-15.8-141.13,0.21
							c0.21,0.79,0.42,1.59,0.63,2.38c45.58-15.86,94.26-15.93,139.87-0.21C423.65,86.82,423.86,86.03,424.07,85.23z"/>
						<path style="clip-path:url(#SVGID_25_);fill:#00B09F;" d="M426.14,79.96c-46.94-16.33-97.07-16.4-144.05-0.21
							c0.21,0.79,0.42,1.59,0.63,2.38c46.56-16.05,96.25-15.97,142.78,0.22C425.72,81.54,425.93,80.75,426.14,79.96z"/>
						<path style="clip-path:url(#SVGID_25_);fill:#00B09F;" d="M428.25,74.69c-47.87-16.81-99.01-17.03-146.97-0.66
							c0.21,0.79,0.42,1.59,0.62,2.38c47.54-16.23,98.25-16.01,145.7,0.66C427.82,76.28,428.03,75.49,428.25,74.69z"/>
					</g>
				</g>
				<g>
					<defs>
						<path id="SVGID_26_" d="M335.61,83.28c0,0,0-20.55,16.5-20.55c18.43,0,18.43,20.55,18.43,20.55S355.18,99.62,335.61,83.28z"/>
					</defs>
					<clipPath id="SVGID_27_">
						<use xlink:href="#SVGID_26_"  style="overflow:visible;"/>
					</clipPath>
					<path style="clip-path:url(#SVGID_27_);fill:#FF910A;" d="M334.88,83.09c0,0,19.31,3.05,36.81,0.19l-0.6-5.66
						c0,0-18.28,3.11-36.83,0L334.88,83.09z"/>
				</g>
			</g>
			<g>
				<defs>
					<path id="SVGID_28_" d="M370.54,83.28c0,0,0-20.55-18.43-20.55c-16.5,0-16.5,20.55-16.5,20.55
						c-11.05,4.46-22.06,10.37-37.83,15.87c32,8.23,65.04,9.31,97.32,3.27c3.91-1.2,8.11-2.53,12.71-4
						C387.24,90.54,385.71,91.02,370.54,83.28z"/>
				</defs>
				<clipPath id="SVGID_29_">
					<use xlink:href="#SVGID_28_"  style="overflow:visible;"/>
				</clipPath>
			</g>
		</g>
		<g>
			<path style="fill:#F38000;" d="M356.18,94.94c0,3.99,3.66,7.23,8.17,7.23c4.51,0,8.17-3.24,8.17-7.23c0-3.99-3.66-7.23-8.17-7.23
				C359.84,87.71,356.18,90.95,356.18,94.94z"/>
			<path style="fill:#F38000;" d="M332.69,94.83c0,3.99,3.66,7.23,8.17,7.23c4.51,0,8.17-3.23,8.17-7.23c0-3.99-3.66-7.23-8.17-7.23
				C336.35,87.6,332.69,90.84,332.69,94.83z"/>
			<path style="fill:#733C0A;" d="M330.2,88.86c0,0-0.52,1.89,0.86,2.75c1.38,0.86,0.86,4.65,2.06,7.23
				c1.2,2.58,2.41,3.78,7.74,3.78c5.34,0,8.37-1.86,9.12-4.82c0.74-2.91,1.32-3.67,2.81-3.75c1.6,0.2,2.07,0.84,2.81,3.75
				c0.75,2.95,3.79,4.82,9.12,4.82c5.33,0,6.54-1.2,7.74-3.78c1.2-2.58,0.69-6.37,2.06-7.23c1.38-0.86,0.86-2.75,0.86-2.75
				c-7.34-2.98-15.91-1.04-18.59,0.92c-2.26,1.66-3.44,1.86-3.9,1.86v-0.03c0,0-1.42,0.17-4.13-1.84
				C346.12,87.81,337.54,85.88,330.2,88.86z M364.72,89.12c4.82-0.26,7.23,1.29,6.71,6.88c-0.52,5.59-6.88,5.16-6.88,5.16
				c-4.21,0.34-7.22-3.1-7.48-6.54C356.81,91.18,359.91,89.38,364.72,89.12z M348.52,94.63c-0.26,3.44-3.27,6.88-7.48,6.54
				c0,0-6.37,0.43-6.89-5.16c-0.51-5.59,1.9-7.14,6.71-6.88C345.68,89.38,348.78,91.18,348.52,94.63z"/>
		</g>
	</g>
</g>
</svg>
