<svg xmlns="http://www.w3.org/2000/svg" version="1.1" xmlns:xlink="http://www.w3.org/1999/xlink" xmlns:svgjs="http://svgjs.com/svgjs" width="512" height="512" x="0" y="0" viewBox="0 0 496 496" style="enable-background:new 0 0 512 512" xml:space="preserve" class=""><g><linearGradient xmlns="http://www.w3.org/2000/svg" id="a" gradientUnits="userSpaceOnUse" x1="248" x2="248" y1="496" y2="0"><stop offset="0" stop-color="#9f2fff"></stop><stop offset="1" stop-color="#0bb1d3"></stop></linearGradient><path xmlns="http://www.w3.org/2000/svg" d="m456 208h-56.023438c5.261719-14.398438 8.023438-29.71875 8.023438-45.03125 0-3.703125-.257812-7.34375-.550781-10.96875h16.894531c-.222656 2.648438-.34375 5.320312-.34375 8 0 13.230469 10.769531 24 24 24s24-10.769531 24-24-10.769531-24-24-24h-4.105469c4.53125-13.503906 12.867188-25.566406 24.335938-34.742188l8.769531-7.011718-9.992188-12.492188-8.769531 7.007813c-15.335937 12.269531-26.0625 28.789062-31.0625 47.230469h-22c-12.472656-59.3125-65.175781-103.992188-128.144531-103.992188h-48.085938l-10.210937-20.414062c-3.566406-7.144532-10.742187-11.585938-18.734375-11.585938s-15.167969 4.441406-18.734375 11.574219l-10.96875 21.9375c-31.527344 11.398437-57.039063 34.074219-72.089844 64.167969l-7.152343 14.320312h-19.054688c-8.824219 0-16 7.175781-16 16v48c0 8.824219 7.175781 16 16 16h12.257812l5.988282 7.191406c2.410156 2.886719 4.722656 5.824219 6.96875 8.808594h-57.214844c-22.054688 0-40 17.945312-40 40v208c0 22.054688 17.945312 40 40 40h416c22.054688 0 40-17.945312 40-40v-208c0-22.054688-17.945312-40-40-40zm-15.585938-56h7.585938c4.40625 0 8 3.59375 8 8s-3.59375 8-8 8-8-3.59375-8-8c0-2.6875.144531-5.359375.414062-8zm-368.414062 24v-48h28.945312l11.582032-23.167969c13.632812-27.273437 37.074218-47.601562 66-57.238281l3.144531-1.050781 13.902344-27.816407c1.691406-3.367187 7.160156-3.367187 8.839843 0l14.640626 29.273438h57.976562c63.394531 0 114.96875 51.574219 114.96875 114.96875 0 17.75-4.191406 35.535156-12.136719 51.414062l-32.808593 65.617188h-51.816407v.015625l-7.957031.785156 7.949219-.898437-3.703125-33c-2.496094-22.175782-21.207032-38.902344-43.527344-38.902344s-41.03125 16.726562-43.519531 38.902344l-3.71875 33.097656h-50.730469l-.785156-2.71875c-9.300782-32.578125-25.023438-62.296875-46.71875-88.328125l-10.785156-12.953125zm96.40625 184h55.59375v68.3125c-29.976562-9.449219-52.382812-36.089844-55.59375-68.3125zm71.59375 0h87.59375c-4.027344 40.367188-38.1875 72-79.59375 72-2.703125 0-5.367188-.144531-8-.40625zm-71.601562-16c1.777343-18.167969 9.671874-34.871094 22.601562-48h9.761719c8.253906 0 15.101562-6.191406 15.902343-14.3125l.375-3.375c19.664063-8.25 42.242188-8.25 61.90625 0l.375 3.328125c.847657 8.191406 7.679688 14.359375 15.917969 14.359375h9.761719c12.929688 13.128906 20.824219 29.832031 22.601562 48zm50.648437-83.464844 1.328125-11.839844c1.585938-14.078124 13.457031-24.695312 27.625-24.695312s26.039062 10.617188 27.625 24.695312l1.328125 11.839844c-18.769531-5.902344-39.136719-5.902344-57.90625 0zm-85.175781 21.136719.785156 2.71875c1.945312 6.832031 8.273438 11.609375 15.375 11.609375h20.015625c-11.695313 16.183594-18.046875 35.511719-18.046875 56 0 52.9375 43.0625 96 96 96s96-43.0625 96-96c0-20.488281-6.351562-39.816406-18.046875-56h21.101563c6.105468 0 11.585937-3.390625 14.3125-8.839844l31.578124-63.160156h23.054688v256h-336v-256h28.152344c11.199218 17.863281 19.855468 37.144531 25.71875 57.671875zm-117.871094 174.328125v-208c0-13.230469 10.769531-24 24-24h24v256h-24c-13.230469 0-24-10.769531-24-24zm464 0c0 13.230469-10.769531 24-24 24h-24v-256h24c13.230469 0 24 10.769531 24 24zm-32-160h16v112h-16zm-176 96h-16v-16h16zm32 0h-16v-16h16zm4.921875-305.632812 6.167969-14.765626c37 15.46875 60.910156 51.335938 60.910156 91.367188 0 7.664062-.902344 15.367188-2.695312 22.878906l-15.5625-3.703125c1.496093-6.304687 2.257812-12.753906 2.257812-19.175781 0-33.5625-20.046875-63.632812-51.078125-76.601562zm-14.585937-4.550782c-5.664063-1.207031-11.488282-1.816406-17.304688-1.816406v-16c6.9375 0 13.878906.726562 20.632812 2.167969zm-142.335938 14.183594c0-8.839844 7.160156-16 16-16s16 7.160156 16 16-7.160156 16-16 16-16-7.160156-16-16zm112 64c0-4.40625-3.59375-8-8-8h-16c-13.230469 0-24-10.769531-24-24s10.769531-24 24-24v-8h16v8c13.230469 0 24 10.769531 24 24h-16c0-4.40625-3.59375-8-8-8h-16c-4.40625 0-8 3.59375-8 8s3.59375 8 8 8h16c13.230469 0 24 10.769531 24 24s-10.769531 24-24 24v8h-16v-8c-13.230469 0-24-10.769531-24-24h16c0 4.40625 3.59375 8 8 8h16c4.40625 0 8-3.59375 8-8zm0 0" fill="url(#a)" data-original="url(#a)"></path></g></svg>