<?xml version="1.0" encoding="utf-8"?>
<!-- Generator: Adobe Illustrator 23.0.5, SVG Export Plug-In . SVG Version: 6.00 Build 0)  -->
<svg version="1.1" id="Layer_1" xmlns:svgjs="http://svgjs.com/svgjs"
	 xmlns="http://www.w3.org/2000/svg" xmlns:xlink="http://www.w3.org/1999/xlink" x="0px" y="0px" viewBox="0 0 512 512"
	 style="enable-background:new 0 0 512 512;" xml:space="preserve">
<style type="text/css">
	.st0{fill:#02A437;}
	.st1{fill:#027E2A;}
	.st2{fill:#65D3E0;}
	.st3{fill:#FBB540;}
	.st4{fill:#D18D28;}
	.st5{fill:#151130;}
</style>
<g>
	<g id="filled_outline">
		<circle class="st0" cx="256" cy="256" r="152"/>
		<path class="st1" d="M256,96c-88.2,0-160,71.8-160,160s71.8,160,160,160s160-71.8,160-160S344.2,96,256,96z M388.7,312h-80
			c1.9-15.9,3-32,3.2-48h87.8C398.9,280.5,395.1,296.8,388.7,312z M256,400c-6.8,0-17.2-10.2-26.3-38.9c-3.3-10.8-6-21.9-7.9-33.1
			h68.3c-1.9,11.2-4.5,22.2-7.9,33.1C273.2,389.8,262.8,400,256,400z M219.4,312c-2-15.9-3.1-32-3.3-48h79.9
			c-0.2,16-1.4,32.1-3.3,48H219.4z M112.2,264h87.8c0.2,16,1.3,32.1,3.2,48h-80C116.9,296.8,113.1,280.5,112.2,264z M127.1,191.9
			c0.3,0,0.6,0.1,0.9,0.1h76.4c-2.6,18.6-4,37.3-4.3,56h-87.8C113.3,228.5,118.3,209.4,127.1,191.9z M256,112
			c6.8,0,17.2,10.2,26.3,38.9c2.6,8.2,4.7,16.6,6.4,25.1h-65.3c1.7-8.5,3.8-16.8,6.4-25.1C238.8,122.2,249.2,112,256,112z
			 M291.5,192c2.7,18.5,4.2,37.3,4.5,56h-79.9c0.3-18.7,1.7-37.5,4.5-56H291.5z M311.9,248c-0.3-18.7-1.7-37.4-4.3-56H384
			c0.3,0,0.6,0,0.9-0.1c8.7,17.5,13.8,36.6,14.8,56.1H311.9z M375.7,176H305c-1.9-10.1-4.4-20.1-7.4-29.9
			c-4.1-12.9-8.8-23.5-14-31.5C321.2,122,354.3,144.1,375.7,176L375.7,176z M228.5,114.7c-5.2,8-10,18.5-14,31.5
			c-3,9.8-5.5,19.8-7.4,29.9h-70.7C157.7,144.1,190.8,122,228.5,114.7L228.5,114.7z M131.3,328h74.3c2.1,12.8,5,25.5,8.8,37.9
			c4.1,12.9,8.8,23.5,14,31.5C187.6,389.3,152.2,364,131.3,328z M283.5,397.4c5.2-8,10-18.5,14-31.5c3.8-12.4,6.8-25.1,8.8-37.9
			h74.3C359.8,364,324.4,389.3,283.5,397.4z"/>
		<path class="st2" d="M184,94.6c-4.4,0-8-3.6-8-8c0-3.2,1.9-6.1,4.9-7.4C204.6,69.1,230.2,63.9,256,64c4.4,0,8,3.6,8,8s-3.6,8-8,8
			c-23.7,0-47.1,4.7-68.9,14C186.1,94.4,185.1,94.6,184,94.6z"/>
		<path class="st2" d="M256,448c-4.4,0-8-3.6-8-8s3.6-8,8-8c26.5,0.1,52.7-5.9,76.5-17.5c3.9-2,8.8-0.4,10.8,3.5s0.4,8.8-3.5,10.8
			c-0.1,0.1-0.2,0.1-0.3,0.1C313.5,441.6,284.9,448.1,256,448z"/>
		<path class="st2" d="M471.9,272c-0.1,0-0.2,0-0.3,0c-4.4-0.2-7.9-3.9-7.7-8.3c0.1-2.6,0.1-5.1,0.1-7.7
			c0.1-32.1-7.3-63.7-21.6-92.4c-1.9-4-0.3-8.8,3.7-10.7c3.9-1.9,8.7-0.3,10.6,3.6c15.4,30.9,23.4,65,23.3,99.6
			c0,2.8-0.1,5.5-0.2,8.3C479.7,268.6,476.2,272,471.9,272z"/>
		<path class="st2" d="M55.3,344c-3.3,0-6.2-2-7.4-5C37.3,312.6,32,284.4,32,256c0-4.4,3.6-8,8-8s8,3.6,8,8c0,26.4,5,52.5,14.7,77
			c1.6,4.1-0.4,8.8-4.5,10.4C57.3,343.8,56.3,344,55.3,344z"/>
		<circle class="st3" cx="120" cy="120" r="72"/>
		<path class="st4" d="M120,160c-6,0-11.9-2.1-16.5-5.9c-4.7-3.9-7.4-9.7-7.5-15.8c0-4.4,3.6-8,8-8s8,3.6,8,8
			c0.1,1.4,0.8,2.7,1.9,3.6c3.6,2.8,8.6,2.8,12.2,0c1.1-0.9,1.8-2.2,1.9-3.6v-1.2c-0.1-1.8-1.2-3.4-2.7-4.2l-19.2-12.3
			c-6.2-3.8-10-10.5-10.1-17.7v-1.2c0.1-6.1,2.8-11.9,7.5-15.8c9.6-7.9,23.5-7.9,33,0c4.7,3.9,7.4,9.7,7.5,15.8c0,4.4-3.6,8-8,8
			s-8-3.6-8-8c-0.1-1.4-0.8-2.7-1.9-3.6c-3.6-2.8-8.6-2.8-12.2,0c-1.1,0.9-1.8,2.2-1.9,3.6v1.2c0.1,1.8,1.2,3.4,2.7,4.2l19.2,12.3
			c6.2,3.8,10,10.5,10.1,17.7v1.2c-0.1,6.1-2.8,11.9-7.5,15.8C131.9,157.9,126,160.1,120,160z"/>
		<path class="st4" d="M120,176c-4.4,0-8-3.6-8-8v-16c0-4.4,3.6-8,8-8s8,3.6,8,8v16C128,172.4,124.4,176,120,176z"/>
		<path class="st4" d="M120,96c-4.4,0-8-3.6-8-8V72c0-4.4,3.6-8,8-8s8,3.6,8,8v16C128,92.4,124.4,96,120,96z"/>
		<circle class="st3" cx="104" cy="384" r="72"/>
		<path class="st4" d="M141.7,394.3c-3.1-3.1-8.2-3.1-11.3,0c0,0,0,0,0,0l-7.9,7.9c-2,2-5.2,2.3-7.6,0.8l-4.9-3.3
			c-1.8-1.2-3.9-2.2-6-2.8V392h8c4.4,0,8-3.6,8-8s-3.6-8-8-8h-8v-16c0-4.4,3.6-8,8-8s8,3.6,8,8s3.6,8,8,8c4.4,0,8-3.6,8-8
			c0-13.3-10.7-24-24-24s-24,10.7-24,24v16h-8c-4.4,0-8,3.6-8,8s3.6,8,8,8h8v6.3c-2.1,1.1-4.1,2.4-5.8,4.1l-7.9,7.9
			c-3.1,3.1-3.1,8.2,0,11.3c3.1,3.1,8.2,3.1,11.3,0l7.9-7.9c2-2,5.2-2.3,7.6-0.8l4.9,3.3c8.7,5.8,20.3,4.6,27.8-2.7l7.9-7.9
			C144.8,402.5,144.8,397.5,141.7,394.3z"/>
		<circle class="st3" cx="400" cy="384" r="72"/>
		<path class="st4" d="M407,416c-8.2,0-15.7-4.1-20.2-11H397c4.4,0,8-3.6,8-8s-3.6-8-8-8h-14v-10h14c4.4,0,8-3.6,8-8s-3.6-8-8-8
			h-10.2c4.4-6.9,12-11,20.2-11c4.4,0,8-3.6,8-8s-3.6-8-8-8c-17.1,0-32.3,10.9-37.8,27H361c-4.4,0-8,3.6-8,8s3.6,8,8,8h6v10h-6
			c-4.4,0-8,3.6-8,8s3.6,8,8,8h8.2c5.6,16.1,20.7,27,37.8,27c4.4,0,8-3.6,8-8S411.4,416,407,416z"/>
		<circle class="st3" cx="392" cy="120" r="72"/>
		<path class="st4" d="M429.7,82.3c-3.1-3.1-8.2-3.1-11.3,0c0,0,0,0,0,0L392,108.7l-26.3-26.3c-3.1-3.1-8.2-3.1-11.3,0
			c-3.1,3.1-3.1,8.2,0,11.3l18.3,18.3H368c-4.4,0-8,3.6-8,8s3.6,8,8,8h16v8h-16c-4.4,0-8,3.6-8,8s3.6,8,8,8h16v8c0,4.4,3.6,8,8,8
			s8-3.6,8-8v-8h16c4.4,0,8-3.6,8-8s-3.6-8-8-8h-16v-8h16c4.4,0,8-3.6,8-8s-3.6-8-8-8h-4.7l18.3-18.3
			C432.8,90.5,432.8,85.5,429.7,82.3C429.7,82.3,429.7,82.3,429.7,82.3z"/>
		<path d="M127.7,168v-9.2c3.1-1,6-2.6,8.5-4.7c4.7-3.9,7.4-9.7,7.5-15.8v-1.2c-0.1-7.2-3.9-13.9-10.1-17.7l-19.2-12.3
			c-1.6-0.9-2.6-2.4-2.7-4.2v-1.2c0.1-1.4,0.8-2.7,1.9-3.6c1.7-1.4,3.9-2.1,6.1-2.1h0c2.2,0,4.4,0.7,6.1,2.1
			c1.1,0.9,1.8,2.2,1.9,3.6c0,4.4,3.6,8,8,8s8-3.6,8-8c-0.1-6.1-2.8-11.9-7.5-15.8c-2.5-2.1-5.4-3.7-8.5-4.7V72c0-4.4-3.6-8-8-8
			s-8,3.6-8,8v9.2c-3.1,1-6,2.6-8.5,4.7c-4.7,3.9-7.4,9.7-7.5,15.8v1.2c0.1,7.2,3.9,13.9,10.1,17.7l19.2,12.3
			c1.6,0.9,2.6,2.4,2.7,4.2v1.2c-0.1,1.4-0.8,2.7-1.9,3.6c-1.7,1.4-3.9,2.1-6.1,2.1h0c-2.2,0-4.4-0.7-6.1-2.1
			c-1.1-0.9-1.8-2.2-1.9-3.6c0-4.4-3.6-8-8-8s-8,3.6-8,8c0.1,6.1,2.8,11.9,7.5,15.8c2.5,2.1,5.4,3.7,8.5,4.7v9.2c0,4.4,3.6,8,8,8
			S127.7,172.4,127.7,168L127.7,168z"/>
		<path d="M130,394.3l-7.9,7.9c-2,2-5.2,2.3-7.6,0.7l-4.9-3.3c-1.8-1.2-3.9-2.2-6-2.8V392h8c4.4,0,8-3.6,8-8s-3.6-8-8-8h-8v-16
			c0-4.4,3.6-8,8-8s8,3.6,8,8c0,4.4,3.6,8,8,8c4.4,0,8-3.6,8-8c0-13.3-10.7-24-24-24s-24,10.7-24,24v16h-8c-4.4,0-8,3.6-8,8
			s3.6,8,8,8h8v6.3c-2.1,1.1-4.1,2.4-5.8,4.1l-7.9,7.9c-3.1,3.1-3.1,8.2,0,11.3c3.1,3.1,8.2,3.1,11.3,0l7.9-7.9c2-2,5.2-2.3,7.6-0.7
			l4.9,3.3c8.7,5.8,20.3,4.6,27.8-2.7l7.9-7.9c3.1-3.1,3.1-8.2,0-11.3S133.2,391.2,130,394.3L130,394.3z"/>
		<path d="M368.9,363h-8.2c-4.4,0-8,3.6-8,8s3.6,8,8,8h6v10h-6c-4.4,0-8,3.6-8,8s3.6,8,8,8h8.2c5.6,16.1,20.7,27,37.8,27
			c4.4,0,8-3.6,8-8s-3.6-8-8-8c-8.2,0-15.7-4.1-20.2-11h10.2c4.4,0,8-3.6,8-8s-3.6-8-8-8h-14v-10h14c4.4,0,8-3.6,8-8s-3.6-8-8-8
			h-10.2c4.4-6.9,12-11,20.2-11c4.4,0,8-3.6,8-8s-3.6-8-8-8C389.6,336,374.4,346.9,368.9,363z"/>
		<path d="M418,82.3l-26.3,26.3l-26.3-26.3c-3.1-3.1-8.2-3.1-11.3,0c-3.1,3.1-3.1,8.2,0,11.3l18.3,18.3h-4.7c-4.4,0-8,3.6-8,8
			s3.6,8,8,8h16v8h-16c-4.4,0-8,3.6-8,8s3.6,8,8,8h16v8c0,4.4,3.6,8,8,8s8-3.6,8-8v-8h16c4.4,0,8-3.6,8-8s-3.6-8-8-8h-16v-8h16
			c4.4,0,8-3.6,8-8s-3.6-8-8-8H411l18.3-18.3c3.1-3.1,3.1-8.2,0-11.3C426.2,79.2,421.2,79.2,418,82.3L418,82.3L418,82.3z"/>
		<path class="st5" d="M471.3,272c0.1,0,0.2,0,0.3,0c4.3,0,7.8-3.4,8-7.7c0.1-2.7,0.2-5.5,0.2-8.3c0.1-32.2-6.9-64.1-20.4-93.4
			c23.6-37.4,12.4-86.7-25-110.3S347.6,40,324,77.3c-5.6,8.9-9.4,18.8-11.2,29.2c-36.8-14-77.5-14-114.3,0
			c-0.9-5.3-2.3-10.5-4.3-15.5c19.7-7.3,40.5-11.1,61.5-11c4.4,0,8-3.6,8-8s-3.6-8-8-8c-23.5,0-46.8,4.3-68.8,12.7
			C163,39.6,113.5,28.8,76.4,52.8s-47.9,73.4-23.9,110.5c12.1,18.9,31.7,31.8,53.8,35.5c-12.8,33.7-14,70.8-3.2,105.2
			c-16.4,0.1-32.3,5.3-45.7,14.8c-6.4-20.3-9.7-41.5-9.7-62.8c0-4.4-3.6-8-8-8s-8,3.6-8,8c0,25.3,4.3,50.5,12.7,74.4
			c-29.6,32.8-27.1,83.3,5.7,113c32.8,29.6,83.3,27.1,113-5.7c10-11.1,16.7-24.7,19.4-39.4c43.5,22.4,94.8,23.7,139.3,3.5
			c1.2,5.2,2.9,10.4,5.1,15.2c-22.4,9.9-46.6,15-71.2,15c-4.4,0-8,3.6-8,8s3.6,8,8,8c27.3,0.1,54.4-5.8,79.3-17.1
			c25.9,35.8,75.9,43.7,111.7,17.8s43.7-75.9,17.8-111.7c-13.3-18.3-33.7-30.2-56.3-32.6c10.9-34.5,9.9-71.8-3-105.6
			c16.2-2.8,31.2-10.5,42.9-22.1c10.4,25.1,15.7,52.1,15.6,79.3c0,2.6,0,5.2-0.1,7.7C463.4,268.1,466.8,271.8,471.3,272
			C471.3,272,471.3,272,471.3,272z M388.4,199.9c6.5,15.3,10.2,31.5,11.1,48.1h-87.8c-0.3-18.7-1.7-37.4-4.3-56h49.5
			C366.7,196.8,377.4,199.5,388.4,199.9L388.4,199.9z M364.8,312h-56.5c1.9-15.9,3-32,3.2-48h87.8c-0.7,13.8-3.5,27.4-8.1,40.4
			C382.1,305.4,373.2,308,364.8,312z M255.7,400c-6.8,0-17.2-10.2-26.3-38.9c-3.3-10.8-6-21.9-7.9-33.1h68.3
			c-1.9,11.2-4.5,22.2-7.9,33.1C272.9,389.8,262.5,400,255.7,400z M160.8,328h44.5c2.1,12.8,5,25.5,8.8,37.9
			c4.1,12.9,8.8,23.4,14,31.4c-15.7-3-30.7-8.7-44.5-16.7C182.8,360.9,174.6,342.1,160.8,328L160.8,328z M154.5,192h49.5
			c-2.6,18.6-4,37.3-4.3,56h-87.9c0.9-16.6,4.6-32.8,11.1-48.1C134,199.5,144.7,196.8,154.5,192L154.5,192z M199.6,123.3
			c9.2-3.9,18.8-6.8,28.6-8.7c-5.3,8-10,18.5-14.1,31.5c-3,9.8-5.5,19.8-7.4,29.9h-30C190.6,161.9,198.8,143.1,199.6,123.3
			L199.6,123.3z M282,150.9c2.6,8.2,4.7,16.6,6.3,25.1H223c1.7-8.5,3.8-16.8,6.4-25.1c9.1-28.7,19.5-38.9,26.3-38.9
			C262.5,112,272.9,122.2,282,150.9L282,150.9z M291.2,192c2.7,18.5,4.2,37.3,4.5,56h-79.9c0.3-18.7,1.7-37.5,4.4-56H291.2z
			 M120.5,305.8c-4.9-13.4-7.9-27.5-8.6-41.8h87.8c0.2,16,1.3,32.1,3.2,48h-64.3c0,0-0.1,0-0.1,0
			C132.8,309.2,126.8,307.1,120.5,305.8z M219.1,312c-2-15.9-3.1-32-3.3-48h79.9c-0.2,16-1.4,32.1-3.3,48H219.1z M304.7,176
			c-1.9-10.1-4.4-20.1-7.4-29.9c-4.1-12.9-8.8-23.5-14.1-31.5c9.8,1.9,19.4,4.8,28.6,8.7c0.8,19.8,9,38.6,22.9,52.7H304.7z
			 M55.7,120c0-35.3,28.7-64,64-64s64,28.7,64,64s-28.7,64-64,64c0,0,0,0,0,0C84.4,184,55.7,155.3,55.7,120z M103.7,448
			c-35.3,0-64-28.7-64-64s28.7-64,64-64s64,28.7,64,64C167.7,419.3,139,448,103.7,448z M283.2,397.4c5.3-8,10-18.5,14.1-31.5
			c3.8-12.4,6.8-25.1,8.8-37.9h36.5c-14.7,14.9-22.9,35-22.9,56c0,0.3,0,0.7,0,1C308.2,390.8,295.9,394.9,283.2,397.4z M463.7,384
			c0,35.3-28.7,64-64,64s-64-28.7-64-64s28.7-64,64-64C435,320,463.7,348.7,463.7,384z M391.7,184c-35.3,0-64-28.7-64-64
			s28.7-64,64-64s64,28.7,64,64C455.7,155.3,427,184,391.7,184z"/>
	</g>
</g>
</svg>
