<svg xmlns="http://www.w3.org/2000/svg" version="1.1" xmlns:xlink="http://www.w3.org/1999/xlink" xmlns:svgjs="http://svgjs.com/svgjs" width="512" height="512" x="0" y="0" viewBox="0 0 48 48" style="enable-background:new 0 0 512 512" xml:space="preserve" class=""><g><g xmlns="http://www.w3.org/2000/svg" id="Line"><rect fill="#00b9e4" height="30" rx="3" width="44" x="2" y="9" data-original="#00b9e4" class=""></rect><path d="m2 14h44v8h-44z" fill="#008bad" data-original="#008bad" class=""></path><rect fill="#f5c12e" height="6.5" rx="2" width="8" x="6" y="24" data-original="#f5c12e"></rect><path d="m41 27h-7a1 1 0 0 1 0-2h7a1 1 0 0 1 0 2z" fill="#008bad" data-original="#008bad" class=""></path><path d="m41 31h-3a1 1 0 0 1 0-2h3a1 1 0 0 1 0 2z" fill="#008bad" data-original="#008bad" class=""></path><circle cx="37" cy="11" fill="#a30000" r="9" data-original="#a30000"></circle><path d="m38.41 11 2.13-2.12a1 1 0 1 0 -1.42-1.42l-2.12 2.13-2.12-2.13a1 1 0 1 0 -1.42 1.42l2.13 2.12-2.13 2.12a1 1 0 0 0 0 1.42 1 1 0 0 0 .71.29 1 1 0 0 0 .71-.29l2.12-2.13 2.12 2.13a1 1 0 0 0 .71.29 1 1 0 0 0 .71-.29 1 1 0 0 0 0-1.42z" fill="#f5c12e" data-original="#f5c12e"></path></g></g></svg>