<svg xmlns="http://www.w3.org/2000/svg" version="1.1" xmlns:xlink="http://www.w3.org/1999/xlink" xmlns:svgjs="http://svgjs.com/svgjs" width="512" height="512" x="0" y="0" viewBox="0 0 60 46" style="enable-background:new 0 0 512 512" xml:space="preserve" class=""><g><g xmlns="http://www.w3.org/2000/svg" id="Page-1" fill="none" fill-rule="evenodd"><g id="023---Mobile-to-Mobile-Transation" fill-rule="nonzero"><path id="Shape" d="m24.31 1.57c-7 1.77-21.76 9.1-23.19 39.51-.08049771-.35434-.1207524-.7166322-.12-1.08v-34c0-2.76142375 2.23857625-5 5-5h16c.8052344-.00349491 1.5988205.19232504 2.31.57z" fill="#81ccb8" data-original="#81ccb8"></path><path id="Shape" d="m27 6v34c0 2.7614237-2.2385763 5-5 5h-16c-1.32209394.0023754-2.59131392-.5189756-3.53-1.45-.67323787-.6800614-1.14113149-1.5361335-1.35-2.47 1.43-30.41 16.16-37.74 23.19-39.51.8936187.46586064 1.6256095 1.19088009 2.1 2.08.3898887.72174777.5927312 1.52967957.59 2.35z" fill="#26b99a" data-original="#26b99a" class=""></path><path id="Shape" d="m56.31 1.57c-7 1.77-21.76 9.1-23.19 39.51-.0804977-.35434-.1207524-.7166322-.12-1.08v-34c0-2.76142375 2.2385763-5 5-5h16c.8052344-.00349491 1.5988205.19232504 2.31.57z" fill="#67b9cc" data-original="#67b9cc"></path><path id="Shape" d="m59 6v34c0 2.7614237-2.2385763 5-5 5h-16c-1.3220939.0023754-2.5913139-.5189756-3.53-1.45-.6732379-.6800614-1.1411315-1.5361335-1.35-2.47 1.43-30.41 16.16-37.74 23.19-39.51.8936187.46586064 1.6256095 1.19088009 2.1 2.08.3898887.72174777.5927312 1.52967957.59 2.35z" fill="#2fa8cc" data-original="#2fa8cc" class=""></path><g fill="#2c2f38"><path id="Shape" d="m22 1-2.42 4c-.3532988.61203127-1.0033592.99218357-1.71 1h-7.74c-.70664079-.00781643-1.35670122-.38796873-1.71-1l-2.42-4z" fill="#2c2f38" data-original="#2c2f38"></path><path id="Shape" d="m20 41h-12c-.55228475 0-1-.4477153-1-1s.44771525-1 1-1h12c.5522847 0 1 .4477153 1 1s-.4477153 1-1 1z" fill="#2c2f38" data-original="#2c2f38"></path><path id="Shape" d="m54 1-2.42 4c-.3532988.61203127-1.0033592.99218357-1.71 1h-7.74c-.7066408-.00781643-1.3567012-.38796873-1.71-1l-2.42-4z" fill="#2c2f38" data-original="#2c2f38"></path><path id="Shape" d="m52 41h-12c-.5522847 0-1-.4477153-1-1s.4477153-1 1-1h12c.5522847 0 1 .4477153 1 1s-.4477153 1-1 1z" fill="#2c2f38" data-original="#2c2f38"></path></g><path id="Shape" d="m22 46h-16c-3.3137085 0-6-2.6862915-6-6v-34c0-3.3137085 2.6862915-6 6-6h16c3.3137085 0 6 2.6862915 6 6v34c0 3.3137085-2.6862915 6-6 6zm-16-44c-2.209139 0-4 1.790861-4 4v34c0 2.209139 1.790861 4 4 4h16c2.209139 0 4-1.790861 4-4v-34c0-2.209139-1.790861-4-4-4z" fill="#56595e" data-original="#56595e" class=""></path><path id="Shape" d="m54 46h-16c-3.3137085 0-6-2.6862915-6-6v-34c0-3.3137085 2.6862915-6 6-6h16c3.3137085 0 6 2.6862915 6 6v34c0 3.3137085-2.6862915 6-6 6zm-16-44c-2.209139 0-4 1.790861-4 4v34c0 2.209139 1.790861 4 4 4h16c2.209139 0 4-1.790861 4-4v-34c0-2.209139-1.790861-4-4-4z" fill="#56595e" data-original="#56595e" class=""></path><path id="Shape" d="m29 18h-15c-.5522847 0-1-.4477153-1-1s.4477153-1 1-1h15c.5522847 0 1 .4477153 1 1s-.4477153 1-1 1z" fill="#f0c419" data-original="#f0c419" class=""></path><path id="Shape" d="m25 22h-14c-.5522847 0-1-.4477153-1-1s.4477153-1 1-1h14c.5522847 0 1 .4477153 1 1s-.4477153 1-1 1z" fill="#f0c419" data-original="#f0c419" class=""></path><path id="Shape" d="m25 26h-18c-.55228475 0-1-.4477153-1-1s.44771525-1 1-1h18c.5522847 0 1 .4477153 1 1s-.4477153 1-1 1z" fill="#f0c419" data-original="#f0c419" class=""></path><path id="Shape" d="m29 30h-15c-.5522847 0-1-.4477153-1-1s.4477153-1 1-1h15c.5522847 0 1 .4477153 1 1s-.4477153 1-1 1z" fill="#f0c419" data-original="#f0c419" class=""></path><circle id="Oval" cx="42" cy="23" fill="#f9eab0" r="11" data-original="#f9eab0" class=""></circle><path id="Shape" d="m42 35c-6.627417 0-12-5.372583-12-12s5.372583-12 12-12 12 5.372583 12 12c0 3.1825979-1.2642821 6.2348448-3.5147186 8.4852814-2.2504366 2.2504365-5.3026835 3.5147186-8.4852814 3.5147186zm0-22c-5.5228475 0-10 4.4771525-10 10s4.4771525 10 10 10 10-4.4771525 10-10c0-2.6521649-1.0535684-5.195704-2.9289322-7.0710678s-4.4189029-2.9289322-7.0710678-2.9289322z" fill="#f3d55b" data-original="#f3d55b" class=""></path><path id="Shape" d="m43 22.08v-3.95c1.15.28 2 1 2 1.87 0 .5522847.4477153 1 1 1s1-.4477153 1-1c0-1.93-1.72-3.55-4-3.92v-.08c0-.5522847-.4477153-1-1-1s-1 .4477153-1 1v.08c-2.28.37-4 2-4 3.92s1.72 3.55 4 3.92v3.95c-1.15-.28-2-1-2-1.87 0-.5522847-.4477153-1-1-1s-1 .4477153-1 1c0 1.93 1.72 3.55 4 3.92v.08c0 .5522847.4477153 1 1 1s1-.4477153 1-1v-.08c2.28-.37 4-2 4-3.92s-1.72-3.55-4-3.92zm-4-2.08c0-.85.85-1.59 2-1.87v3.74c-1.15-.28-2-1.02-2-1.87zm4 7.87v-3.74c1.15.28 2 1 2 1.87s-.85 1.59-2 1.87z" fill="#4c8056" data-original="#4c8056" class=""></path></g></g></g></svg>