<svg xmlns="http://www.w3.org/2000/svg" version="1.1" xmlns:xlink="http://www.w3.org/1999/xlink" xmlns:svgjs="http://svgjs.com/svgjs" width="512" height="512" x="0" y="0" viewBox="0 0 464.076 464.076" style="enable-background:new 0 0 512 512" xml:space="preserve" class=""><g><path xmlns="http://www.w3.org/2000/svg" d="m232.076.026c-128.13 0-232 103.87-232 232 0 78.65 39.14 148.16 99 190.11v.01c79.69 55.841 186.224 55.902 266 0v-.01c59.86-41.95 99-111.46 99-190.11 0-128.129-103.87-232-232-232z" fill="#cbe3fa" data-original="#cbe3fa"></path><path xmlns="http://www.w3.org/2000/svg" d="m243.862 53.626c-102.057 23.229-180.829 118.861-184.728 223.512-1.192 31.991-46.733 36.23-53.624 4.967-32.425-147.128 82.504-286.16 233.111-281.988 31.623.876 36.087 46.488 5.241 53.509z" fill="#eef7ff" data-original="#eef7ff" class=""></path><path xmlns="http://www.w3.org/2000/svg" d="m333.236 367.086c-40.014-13.76-39.373-13.368-43.39-15.42-16.221-8.286-25.89-25.151-25.89-41.32 31.69-12.69 54.1-43.71 54.12-79.99v-3.33c12.51 0 23-10.12 23-22.6v-81.16c0-38.24-31-69.24-69.24-69.24h-59.87c-28.6 0-53.93 17.46-64.36 43.47-13.03 0-23.53 10.54-23.53 23.47v84.28c0 11.815 9.471 21.78 21.94 21.78v3.17c.03 36.27 22.36 67.38 54.01 80.12 0 18.683-12.085 37.129-31.75 43.92l-37.36 12.85c-19.05 6.55-31.84 24.47-31.84 44.62v10.44c79.69 55.841 186.224 55.902 266 0 0-6.108 0-4.359 0-10.44 0-20.15-12.791-38.069-31.84-44.62z" fill="#ffebd2" data-original="#ffebd2"></path><path xmlns="http://www.w3.org/2000/svg" d="m365.076 411.707v10.44c-79.688 55.841-186.224 55.902-266 0 0-6.11 0-4.356 0-10.44 0-20.15 12.79-38.069 31.84-44.62 41.256-14.187 39.652-13.461 43.69-15.56 22.53 49.88 92.62 49.88 115.23.15.101-.101 1.592 1.028 6.04 2.56l37.36 12.85c19.05 6.55 31.84 24.47 31.84 44.62z" fill="#80aaff" data-original="#80aaff"></path><path xmlns="http://www.w3.org/2000/svg" d="m341.076 123.267v81.16c0 12.48-10.49 22.6-23 22.6v-53.16c.02-23.08-18.62-41.82-41.65-41.84h-88.62c-23.03-.02-41.77 18.65-41.79 41.73v53.27c-12.468 0-21.94-9.965-21.94-21.78 0-11.801 0-75.558 0-84.28 0-12.93 10.5-23.47 23.53-23.47 10.43-26.01 35.76-43.47 64.36-43.47h59.87c38.24-.001 69.24 31 69.24 69.24z" fill="#42434d" data-original="#42434d"></path><path xmlns="http://www.w3.org/2000/svg" d="m458.966 61.106c6.75 6.98 6.75 18.05 0 25.03l-1.5 1.56c-3.86 3.99-5.67 9.53-4.89 15.03l.31 2.15c1.35 9.61-5.15 18.57-14.72 20.25l-2.13.37c-5.47.96-10.19 4.39-12.79 9.29l-1.01 1.91c-4.56 8.58-15.09 12-23.81 7.74l-1.94-.95c-4.99-2.44-10.83-2.44-15.82 0l-1.94.95c-8.72 4.26-19.25.84-23.81-7.74l-1.01-1.91c-2.6-4.9-7.32-8.33-12.79-9.29l-2.13-.37c-9.57-1.68-16.07-10.64-14.72-20.25l.31-2.15c.78-5.5-1.03-11.04-4.89-15.03l-1.5-1.56c-6.75-6.98-6.75-18.05 0-25.03l1.5-1.56c3.86-3.99 5.67-9.54 4.89-15.03l-.31-2.15c-1.35-9.61 5.15-18.57 14.72-20.25l2.13-.37c5.47-.96 10.19-4.39 12.79-9.29l1.01-1.92c4.56-8.57 15.09-11.99 23.81-7.73l1.94.95c4.99 2.44 10.83 2.44 15.82 0l1.94-.95c8.72-4.26 19.25-.84 23.81 7.73l1.01 1.92c2.6 4.9 7.32 8.33 12.79 9.29l2.13.37c9.57 1.68 16.07 10.64 14.72 20.25l-.31 2.15c-.78 5.49 1.03 11.04 4.89 15.03z" fill="#9cbcff" data-original="#9cbcff"></path><path xmlns="http://www.w3.org/2000/svg" d="m374.189 103.684-14.38-14.38c-3.125-3.125-3.125-8.189 0-11.314 3.124-3.123 8.189-3.123 11.313 0l8.363 8.363 33.375-37.773c2.926-3.312 7.982-3.624 11.292-.698 3.311 2.926 3.624 7.981.698 11.292l-39.01 44.15c-3.056 3.459-8.395 3.615-11.651.36z" fill="#ffffff" data-original="#ffffff"></path><path xmlns="http://www.w3.org/2000/svg" d="m221.4 286.222c15.531 8.398 6.528 31.979-10.582 27.623-37.503-9.546-64.786-43.633-64.802-83.649 0-.154.032-56.641.097-58.189.805-19.182 29.656-18.338 29.746.861.044 9.354.158 21.398.156 37.328-.003 33.809 18.929 61.722 45.385 76.026z" fill="#fff3e4" data-original="#fff3e4"></path><path xmlns="http://www.w3.org/2000/svg" d="m274.051 54.061c13.052.41 12.658 20.015-.4 20.113-8.521.064-18.854-.04-31.685-.147-27.109-.228-51.28 15.69-62.61 39.47-1.09 2.3-3.26 3.91-5.77 4.34-11.1 1.91-19.51 11.56-19.51 23.13v8.22c-5.03 6.89-8.05 15.38-8.06 24.57v53.27c-12.468 0-21.94-9.964-21.94-21.78v-84.28c0-12.93 10.5-23.47 23.53-23.47 10.43-26.01 35.76-43.47 64.36-43.47 65.514-.001 60.503-.016 62.085.034z" fill="#585966" data-original="#585966"></path><path xmlns="http://www.w3.org/2000/svg" d="m260.592 331.621c-17.871 6.302-38.27 6.66-57.081.02-3.983-1.406-6.164-5.632-5.075-9.713 1.663-6.235 1.496-10.808 1.589-11.611 20.458 8.241 43.505 8.208 63.93.03.037.296-.113 5.078 1.659 11.545 1.115 4.068-1.043 8.326-5.022 9.729z" fill="#ffdfba" data-original="#ffdfba"></path><path xmlns="http://www.w3.org/2000/svg" d="m187.367 370.339c2.601 2.654 1.614 7.092-1.9 8.301l-24.551 8.447c-19.05 6.55-31.84 24.47-31.84 44.62 0 3.814-4.081 6.218-7.435 4.399-7.802-4.23-15.337-8.893-22.565-13.96v-10.44c0-20.15 12.803-38.033 31.84-44.62 37.238-12.885 38.461-12.843 43.69-15.56 3.32 7.355 7.676 13.625 12.761 18.813z" fill="#9cbcff" data-original="#9cbcff"></path><path xmlns="http://www.w3.org/2000/svg" d="m458.966 86.136c-.441.683-7.844 6.335-6.39 16.59l.31 2.15c1.35 9.61-5.15 18.57-14.72 20.25l-2.13.37c-5.47.96-10.19 4.39-12.79 9.29l-1.01 1.91c-4.56 8.58-15.09 12-23.81 7.74l-1.94-.95c-4.99-2.443-10.83-2.443-15.82 0l-1.94.95c-8.72 4.26-19.25.84-23.81-7.74-.463-.569-3.557-9.402-13.8-11.2-.258-.112-2.412-.218-5.129-1.181-3.675-1.303-1.859-6.84 1.895-5.788 52.815 14.807 103.889-25.137 103.033-79.435-.121-7.691 11.48-8.353 12.092-.686.103 1.295.067 2.621-.121 3.96.039.708-2.666 9.691 4.58 17.18l1.5 1.56c6.75 6.98 6.75 18.05 0 25.03z" fill="#80aaff" data-original="#80aaff"></path></g></svg>