<svg xmlns="http://www.w3.org/2000/svg" version="1.1" xmlns:xlink="http://www.w3.org/1999/xlink" xmlns:svgjs="http://svgjs.com/svgjs" width="512" height="512" x="0" y="0" viewBox="0 0 60 60" style="enable-background:new 0 0 512 512" xml:space="preserve" class=""><g><path xmlns="http://www.w3.org/2000/svg" d="m47 6v50a3 3 0 0 1 -3 3h-28a3 3 0 0 1 -3-3v-50l1-1h32z" fill="#346d92" data-original="#346d92" class=""></path><path xmlns="http://www.w3.org/2000/svg" d="m47 4v2h-5.46a1.013 1.013 0 0 0 -.84.45l-1.11 1.66a1.981 1.981 0 0 1 -1.66.89h-15.86a1.981 1.981 0 0 1 -1.66-.89l-1.11-1.66a1.013 1.013 0 0 0 -.84-.45h-5.46v-2a3 3 0 0 1 3-3h28a3 3 0 0 1 3 3z" fill="#ccd0da" data-original="#ccd0da" class=""></path><circle xmlns="http://www.w3.org/2000/svg" cx="30" cy="32" fill="#fccb55" r="10" data-original="#fccb55" class=""></circle><path xmlns="http://www.w3.org/2000/svg" d="m27 6h-1a1 1 0 0 1 0-2h1a1 1 0 0 1 0 2z" fill="#8991a0" data-original="#8991a0" class=""></path><path xmlns="http://www.w3.org/2000/svg" d="m34 6h-3a1 1 0 0 1 0-2h3a1 1 0 0 1 0 2z" fill="#8991a0" data-original="#8991a0" class=""></path><path xmlns="http://www.w3.org/2000/svg" d="m36 56h-12a1 1 0 0 1 0-2h12a1 1 0 0 1 0 2z" fill="#295474" data-original="#295474"></path><path xmlns="http://www.w3.org/2000/svg" d="m34 30a2.985 2.985 0 0 0 -1-2.22v-.78a1 1 0 0 0 -2 0h-2a1 1 0 0 0 -2 0 1 1 0 0 0 0 2v2a1 1 0 0 0 0 2v2a1 1 0 0 0 0 2 1 1 0 0 0 2 0h2a1 1 0 0 0 2 0v-.78a2.96 2.96 0 0 0 .22-4.22 2.981 2.981 0 0 0 .78-2zm-5-1h2a1 1 0 0 1 0 2h-2zm0 6v-2h2a1 1 0 0 1 0 2z" fill="#e2af40" data-original="#e2af40"></path><path xmlns="http://www.w3.org/2000/svg" d="m21.293 19.707a1 1 0 0 0 1.414-1.414l-.293-.293h17.586a1 1 0 0 0 0-2h-17.586l.293-.293a1 1 0 0 0 -1.414-1.414l-2 2a1 1 0 0 0 0 1.414z" fill="#ffffff" data-original="#ffffff" class=""></path><path xmlns="http://www.w3.org/2000/svg" d="m38.707 44.293a1 1 0 0 0 -1.414 1.414l.293.293h-17.586a1 1 0 0 0 0 2h17.586l-.293.293a1 1 0 1 0 1.414 1.414l2-2a1 1 0 0 0 0-1.414z" fill="#ffffff" data-original="#ffffff" class=""></path><path xmlns="http://www.w3.org/2000/svg" d="m30 43a11 11 0 1 1 11-11 11.013 11.013 0 0 1 -11 11zm0-20a9 9 0 1 0 9 9 9.01 9.01 0 0 0 -9-9z" fill="#e2af40" data-original="#e2af40"></path></g></svg>