<svg xmlns="http://www.w3.org/2000/svg" version="1.1" xmlns:xlink="http://www.w3.org/1999/xlink" xmlns:svgjs="http://svgjs.com/svgjs" width="512" height="512" x="0" y="0" viewBox="0 0 64 64" style="enable-background:new 0 0 512 512" xml:space="preserve" class=""><g><path xmlns="http://www.w3.org/2000/svg" d="m51 35a1 1 0 0 1 -1-1v-12a1 1 0 0 1 .553-.895l5.447-2.723v-8.382a1 1 0 0 1 2 0v9a1 1 0 0 1 -.553.895l-5.447 2.723v11.382a1 1 0 0 1 -1 1z" fill="#4e5a82" data-original="#4e5a82"></path><path xmlns="http://www.w3.org/2000/svg" d="m13 35a1 1 0 0 1 -1-1v-11.382l-5.447-2.718a1 1 0 0 1 -.553-.9v-9a1 1 0 0 1 2 0v8.382l5.447 2.723a1 1 0 0 1 .553.895v12a1 1 0 0 1 -1 1z" fill="#4e5a82" data-original="#4e5a82"></path><circle xmlns="http://www.w3.org/2000/svg" cx="32" cy="15" fill="#fff6c2" r="14" data-original="#fff6c2"></circle><path xmlns="http://www.w3.org/2000/svg" d="m46 15a13.977 13.977 0 0 0 -6.8-11.992 13.988 13.988 0 0 0 -12.4 24.984 13.983 13.983 0 0 0 19.2-12.992z" fill="#fff08f" data-original="#fff08f"></path><circle xmlns="http://www.w3.org/2000/svg" cx="32" cy="15" fill="#ffc62c" r="10" data-original="#ffc62c"></circle><path xmlns="http://www.w3.org/2000/svg" d="m34 7a9.986 9.986 0 0 0 -7.992 15.992 9.986 9.986 0 0 0 13.984-13.984 9.941 9.941 0 0 0 -5.992-2.008z" fill="#ffdd32" data-original="#ffdd32"></path><path xmlns="http://www.w3.org/2000/svg" d="m36.5 17a2.994 2.994 0 0 0 -1.4-2.529 2.939 2.939 0 0 0 -.6-3.691v-1.78a1 1 0 0 0 -2 0v1h-1v-1a1 1 0 0 0 -2 0v1a1 1 0 0 0 0 2v6a1 1 0 0 0 0 2v1a1 1 0 0 0 2 0v-1h1v1a1 1 0 0 0 2 0v-1.184a3 3 0 0 0 2-2.816zm-3-4a1 1 0 0 1 -1 1h-1v-2h1a1 1 0 0 1 1 1zm0 5h-2v-2h2a1 1 0 0 1 0 2z" fill="#fff08f" data-original="#fff08f"></path><rect xmlns="http://www.w3.org/2000/svg" fill="#8487b2" height="30" rx="4" width="54" x="5" y="33" data-original="#8487b2"></rect><path xmlns="http://www.w3.org/2000/svg" d="m9 35a2 2 0 0 0 -2 2v24a3.961 3.961 0 0 0 .36 1.64 3.961 3.961 0 0 0 1.64.36h46a4 4 0 0 0 4-4v-22a3.961 3.961 0 0 0 -.36-1.64 3.961 3.961 0 0 0 -1.64-.36z" fill="#6971a0" data-original="#6971a0"></path><path xmlns="http://www.w3.org/2000/svg" d="m21 25h22v46h-22z" fill="#ff7759" transform="matrix(0 -1 1 0 -16 80)" data-original="#ff7759"></path><path xmlns="http://www.w3.org/2000/svg" d="m11 39h44v20h-44z" fill="#ff7759" data-original="#ff7759"></path><g xmlns="http://www.w3.org/2000/svg" fill="#f2fcff"><path d="m18 43a2 2 0 0 1 2 2 1 1 0 0 0 2 0 4 4 0 1 0 -4 4 2 2 0 1 1 -2 2 1 1 0 0 0 -2 0 4 4 0 1 0 4-4 2 2 0 0 1 0-4z" fill="#f2fcff" data-original="#f2fcff"></path><path d="m31 43a1 1 0 0 0 0-2h-6a1 1 0 0 0 -1 1v12a1 1 0 0 0 1 1h6a1 1 0 0 0 0-2h-5v-4h3a1 1 0 0 0 0-2h-3v-4z" fill="#f2fcff" data-original="#f2fcff"></path><path d="m40 53h-4v-11a1 1 0 0 0 -2 0v12a1 1 0 0 0 1 1h5a1 1 0 0 0 0-2z" fill="#f2fcff" data-original="#f2fcff"></path><path d="m49 53h-4v-11a1 1 0 0 0 -2 0v12a1 1 0 0 0 1 1h5a1 1 0 0 0 0-2z" fill="#f2fcff" data-original="#f2fcff"></path></g><circle xmlns="http://www.w3.org/2000/svg" cx="57" cy="8" fill="#ffdd32" r="3" data-original="#ffdd32"></circle><circle xmlns="http://www.w3.org/2000/svg" cx="7" cy="8" fill="#ffdd32" r="3" data-original="#ffdd32"></circle></g></svg>