<svg xmlns="http://www.w3.org/2000/svg" version="1.1" xmlns:xlink="http://www.w3.org/1999/xlink" xmlns:svgjs="http://svgjs.com/svgjs" width="512" height="512" x="0" y="0" viewBox="0 0 512 512" style="enable-background:new 0 0 512 512" xml:space="preserve" class=""><g><g xmlns="http://www.w3.org/2000/svg"><path d="m119.485 153.168h-87.485v-77.501h30v47.501h57.485z" fill="#f26622" data-original="#3c4a83" class=""></path><path d="m47 94c-25.916 0-47-21.084-47-47s21.084-47 47-47 47 21.084 47 47-21.084 47-47 47z" fill="#60e2f4" data-original="#60e2f4" class=""></path><path d="m480 153.168h-85.629v-30h55.629v-47.501h30z" fill="#f26622" data-original="#2a386b" class=""></path><path d="m465 94c-25.916 0-47-21.084-47-47s21.084-47 47-47 47 21.084 47 47-21.084 47-47 47z" fill="#29c5ec" data-original="#29c5ec" class=""></path><path d="m62 436.333h-30v-77.501h95.635v30h-65.635z" fill="#f26622" data-original="#3c4a83" class=""></path><path d="m47 512c-25.916 0-47-21.084-47-47s21.084-47 47-47 47 21.084 47 47-21.084 47-47 47z" fill="#60e2f4" data-original="#60e2f4" class=""></path><path d="m480 436.333h-30v-47.501h-65.635v-30h95.635z" fill="#f26622" data-original="#2a386b" class=""></path><path d="m465 512c-25.916 0-47-21.084-47-47s21.084-47 47-47 47 21.084 47 47-21.084 47-47 47z" fill="#29c5ec" data-original="#29c5ec" class=""></path><path d="m15 241h79v30h-79z" fill="#f26622" data-original="#3c4a83" class=""></path><path d="m418 241h79v30h-79z" fill="#f26622" data-original="#2a386b" class=""></path><path d="m256 34.159-169.67 89.01v140.58c0 48.48 16.56 96.13 46.61 134.17 30.06 38.03 72.59 65.16 119.75 76.37l3.31.78 3.31-.78c47.16-11.21 89.69-38.34 119.75-76.37 30.05-38.04 46.61-85.69 46.61-134.17v-140.58z" fill="#badb47" data-original="#badb47" class=""></path><path d="m425.67 123.169v140.58c0 48.48-16.56 96.13-46.61 134.17-30.06 38.03-72.59 65.16-119.75 76.37l-3.31.78v-440.91z" fill="#92ca32" data-original="#92ca32"></path><path d="m256 108.129-102.92 54v102.06c0 65.83 41.65 123.07 102.92 143.83 61.27-20.76 102.92-78 102.92-143.83v-102.06z" fill="#92ca32" data-original="#92ca32"></path><path d="m358.92 162.129v102.06c0 65.83-41.65 123.07-102.92 143.83v-299.89z" fill="#67b821" data-original="#67b821"></path><path d="m256 91.199-117.92 61.86v111.13c0 71.6 45.45 135.11 113.11 158.03l4.81 1.64 4.81-1.64c67.66-22.92 113.11-86.43 113.11-158.03v-111.13zm87.92 172.99c0 57.02-35.12 107.78-87.92 127.89-52.8-20.11-87.92-70.87-87.92-127.89v-93l87.92-46.12 87.92 46.12z" fill="#f3f6ff" data-original="#f3f6ff" class=""></path><path d="m373.92 153.059v111.13c0 71.6-45.45 135.11-113.11 158.03l-4.81 1.64v-31.78c52.8-20.11 87.92-70.87 87.92-127.89v-93l-87.92-46.12v-33.87z" fill="#cddbf9" data-original="#cddbf9" class=""></path><path d="m314.57 238.489-58.57 58.56-9.97 9.97-48.6-47.96 21.07-21.36 27.4 27.04 10.1-10.1 37.36-37.37z" fill="#f3f6ff" data-original="#f3f6ff" class=""></path><path d="m314.57 238.489-58.57 58.56v-42.41l37.36-37.37z" fill="#cddbf9" data-original="#cddbf9" class=""></path></g></g></svg>