<svg xmlns="http://www.w3.org/2000/svg" version="1.1" xmlns:xlink="http://www.w3.org/1999/xlink" xmlns:svgjs="http://svgjs.com/svgjs" width="512" height="512" x="0" y="0" viewBox="0 0 64 64" style="enable-background:new 0 0 512 512" xml:space="preserve" class=""><g><g xmlns="http://www.w3.org/2000/svg"><path d="m30 13v5h-26v-5c0-.55.45-1 1-1h24c.55 0 1 .45 1 1z" fill="#00325a" data-original="#00325a" class=""></path></g><g xmlns="http://www.w3.org/2000/svg"><circle cx="27" cy="15" fill="#c80a50" r="1" data-original="#c80a50"></circle></g><g xmlns="http://www.w3.org/2000/svg"><circle cx="23" cy="15" fill="#01a0c8" r="1" data-original="#01a0c8" class=""></circle></g><g xmlns="http://www.w3.org/2000/svg"><circle cx="19" cy="15" fill="#fab400" r="1" data-original="#fab400"></circle></g><g xmlns="http://www.w3.org/2000/svg"><path d="m14 16h-7c-.553 0-1-.448-1-1s.447-1 1-1h7c.553 0 1 .448 1 1s-.447 1-1 1z" fill="#f0f0f0" data-original="#f0f0f0" class=""></path></g><g xmlns="http://www.w3.org/2000/svg"><path d="m60 13v5h-26v-5c0-.55.45-1 1-1h24c.55 0 1 .45 1 1z" fill="#00325a" data-original="#00325a" class=""></path></g><g xmlns="http://www.w3.org/2000/svg"><circle cx="57" cy="15" fill="#c80a50" r="1" data-original="#c80a50"></circle></g><g xmlns="http://www.w3.org/2000/svg"><circle cx="53" cy="15" fill="#01a0c8" r="1" data-original="#01a0c8" class=""></circle></g><g xmlns="http://www.w3.org/2000/svg"><circle cx="49" cy="15" fill="#fab400" r="1" data-original="#fab400"></circle></g><g xmlns="http://www.w3.org/2000/svg"><path d="m44 16h-7c-.553 0-1-.448-1-1s.447-1 1-1h7c.553 0 1 .448 1 1s-.447 1-1 1z" fill="#f0f0f0" data-original="#f0f0f0" class=""></path></g><g xmlns="http://www.w3.org/2000/svg"><path d="m30 18v29c0 .55-.45 1-1 1h-24c-.55 0-1-.45-1-1v-29z" fill="#01a0c8" data-original="#01a0c8" class=""></path></g><g xmlns="http://www.w3.org/2000/svg"><path d="m30 18v29c0 .55-.45 1-1 1h-4.46c-1.12-.63-2.15-1.41-3.06-2.31l-2.2 1.27c-.48.28-1.09.12-1.37-.36l-3-5.2c-.27-.48-.11-1.09.37-1.36l2.21-1.28c-.19-.74-.32-1.49-.4-2.26h-3.51c-.52.89-1.47 1.5-2.58 1.5-1.66 0-3-1.34-3-3s1.34-3 3-3c1.11 0 2.06.61 2.58 1.5h3.51c.08-.77.21-1.52.4-2.26l-2.21-1.28c-.48-.27-.64-.88-.37-1.36l3-5.2c.28-.48.89-.64 1.37-.36l2.2 1.27c1.79-1.76 4.03-3.07 6.52-3.76v-2.55z" fill="#0082aa" data-original="#0082aa"></path></g><g xmlns="http://www.w3.org/2000/svg"><path d="m60 18v29c0 .55-.45 1-1 1h-24c-.55 0-1-.45-1-1v-29z" fill="#c80a50" data-original="#c80a50"></path></g><g xmlns="http://www.w3.org/2000/svg"><path d="m56 35c0 1.66-1.34 3-3 3-1.11 0-2.06-.61-2.58-1.5h-3.51c-.08.77-.21 1.53-.4 2.26l2.21 1.28c.48.27.64.88.37 1.36l-3 5.2c-.28.48-.89.64-1.37.36l-2.19-1.26c-.92.9-1.94 1.67-3.06 2.3h-4.47c-.55 0-1-.45-1-1v-29h2v2.55c2.49.69 4.73 2 6.52 3.76l2.2-1.27c.48-.28 1.09-.12 1.37.36l3 5.2c.27.48.11 1.09-.37 1.36l-2.21 1.28c.19.74.32 1.49.4 2.26h3.51c.52-.89 1.47-1.5 2.58-1.5 1.66 0 3 1.34 3 3z" fill="#a00028" data-original="#a00028"></path></g><g xmlns="http://www.w3.org/2000/svg"><path d="m12 32.5h8v3h-8z" fill="#f0f0f0" data-original="#f0f0f0" class=""></path></g><g xmlns="http://www.w3.org/2000/svg"><path d="m44 32.5h8v3h-8z" fill="#f0f0f0" data-original="#f0f0f0" class=""></path></g><g xmlns="http://www.w3.org/2000/svg"><path d="m48.722 39.036-2.207-1.274c.305-1.197.485-2.45.485-3.762 0-1.3-.182-2.555-.492-3.757l2.215-1.279c.478-.276.642-.888.366-1.366l-3-5.196c-.276-.478-.888-.642-1.366-.366l-2.204 1.273c-1.791-1.762-4.025-3.065-6.518-3.754v-2.555c0-.552-.448-1-1-1h-6c-.552 0-1 .448-1 1v2.555c-2.493.688-4.728 1.992-6.518 3.754l-2.204-1.273c-.478-.276-1.09-.112-1.366.366l-3 5.196c-.276.478-.112 1.09.366 1.366l2.215 1.279c-.312 1.202-.494 2.457-.494 3.757s.182 2.555.492 3.757l-2.215 1.279c-.478.276-.642.888-.366 1.366l3 5.196c.276.478.888.642 1.366.366l2.204-1.273c1.791 1.762 4.025 3.065 6.518 3.753v2.556c0 .552.448 1 1 1h6c.552 0 1-.448 1-1v-2.556c2.474-.684 4.724-1.975 6.532-3.745l2.191 1.265c.478.276 1.09.112 1.366-.366l3-5.196c.277-.478.113-1.09-.366-1.366z" fill="#fab400" data-original="#fab400"></path></g><g xmlns="http://www.w3.org/2000/svg"><path d="m43.95 34h-.95c0 6.292-5.122 11-11 11-6.054 0-11-4.891-11-11h-.95c-.769 6.345 4.538 13 11.95 13 7.41 0 12.719-6.655 11.95-13z" fill="#dc9600" data-original="#dc9600"></path></g><g xmlns="http://www.w3.org/2000/svg"><g><path d="m43 34c0 6.09-4.79 10.7-10.45 10.99-.18 0-.36.01-.55.01-.38 0-.76-.02-1.13-.06-5.55-.56-9.87-5.24-9.87-10.94 0-5.8 4.47-10.54 10.15-10.96.28-.03.57-.04.85-.04s.57.01.85.04c5.68.42 10.15 5.16 10.15 10.96z" fill="#f0f0f0" data-original="#f0f0f0" class=""></path></g></g><g xmlns="http://www.w3.org/2000/svg"><path d="m32 23c-6.07 0-11 4.905-11 11 0 5.7 4.32 10.38 9.87 10.94-4.98-.57-8.87-4.81-8.87-9.94 0-5.51 4.49-10 10-10s10 4.49 10 10c0 5.32-4.19 9.7-9.45 9.99 5.66-.29 10.45-4.9 10.45-10.99 0-6.095-4.93-11-11-11z" fill="#d2d2d2" data-original="#d2d2d2"></path></g><g xmlns="http://www.w3.org/2000/svg"><g><path d="m27.33 30.793c-.935.192-1.58 1.06-1.58 2.014v3.943c0 .276.224.5.5.5.276 0 .5-.224.5-.5v-2h2v2c0 .276.224.5.5.5.276 0 .5-.224.5-.5v-4c0-1.241-1.135-2.22-2.42-1.957zm-.58 2.957v-1c0-.551.448-1 1-1s1 .449 1 1v1z" fill="#00325a" data-original="#00325a" class=""></path></g><g><path d="m32.693 30.75h-1.443c-.276 0-.5.224-.5.5v5.5c0 .276.224.5.5.5.276 0 .5-.224.5-.5v-2h1c1.24 0 2.22-1.134 1.957-2.419-.191-.936-1.06-1.581-2.014-1.581zm.057 3h-1v-2h1c.552 0 1 .449 1 1s-.448 1-1 1z" fill="#00325a" data-original="#00325a" class=""></path></g><g><path d="m38.25 31.25c0-.276-.224-.5-.5-.5h-2c-.276 0-.5.224-.5.5 0 .276.224.5.5.5h.5v4.5h-.5c-.276 0-.5.224-.5.5 0 .276.224.5.5.5h2c.276 0 .5-.224.5-.5 0-.276-.224-.5-.5-.5h-.5v-4.5h.5c.276 0 .5-.224.5-.5z" fill="#00325a" data-original="#00325a" class=""></path></g></g><g xmlns="http://www.w3.org/2000/svg"><path d="m52 32.5v3h-1.95c-.04-.16-.05-.33-.05-.5 0-1.05.53-1.96 1.34-2.5z" fill="#d2d2d2" data-original="#d2d2d2"></path></g><g xmlns="http://www.w3.org/2000/svg"><path d="m14 35c0 .17-.01.34-.05.5h-1.95v-3h.66c.81.54 1.34 1.45 1.34 2.5z" fill="#d2d2d2" data-original="#d2d2d2"></path></g><g xmlns="http://www.w3.org/2000/svg"><g><path d="m44 34h-2c0-5.514-4.486-10-10-10s-10 4.486-10 10h-2c0-6.617 5.383-12 12-12s12 5.383 12 12z" fill="#01a0c8" data-original="#01a0c8" class=""></path></g></g><g xmlns="http://www.w3.org/2000/svg"><g><path d="m32 46c-6.617 0-12-5.383-12-12h2c0 5.514 4.486 10 10 10s10-4.486 10-10h2c0 6.617-5.383 12-12 12z" fill="#c80a50" data-original="#c80a50"></path></g></g><g xmlns="http://www.w3.org/2000/svg"><g><path d="m36 28.5h-8c-.276 0-.5-.224-.5-.5s.224-.5.5-.5h8c.276 0 .5.224.5.5s-.224.5-.5.5z" fill="#c80a50" data-original="#c80a50"></path></g><g><path d="m30 30.5c-.128 0-.256-.049-.354-.146l-2-2c-.195-.195-.195-.512 0-.707l2-2c.195-.195.512-.195.707 0s.195.512 0 .707l-1.646 1.646 1.646 1.646c.195.195.195.512 0 .707-.097.098-.225.147-.353.147z" fill="#c80a50" data-original="#c80a50"></path></g></g><g xmlns="http://www.w3.org/2000/svg"><g><path d="m36 40.5h-8c-.276 0-.5-.224-.5-.5s.224-.5.5-.5h8c.276 0 .5.224.5.5s-.224.5-.5.5z" fill="#01a0c8" data-original="#01a0c8" class=""></path></g><g><path d="m34 42.5c-.128 0-.256-.049-.354-.146-.195-.195-.195-.512 0-.707l1.647-1.647-1.646-1.646c-.195-.195-.195-.512 0-.707s.512-.195.707 0l2 2c.195.195.195.512 0 .707l-2 2c-.098.097-.226.146-.354.146z" fill="#01a0c8" data-original="#01a0c8" class=""></path></g></g><g xmlns="http://www.w3.org/2000/svg"><g><path d="m58 22.5h-6c-.276 0-.5-.224-.5-.5s.224-.5.5-.5h6c.276 0 .5.224.5.5s-.224.5-.5.5z" fill="#f0f0f0" data-original="#f0f0f0" class=""></path></g><g><path d="m58 24.5h-6c-.276 0-.5-.224-.5-.5s.224-.5.5-.5h6c.276 0 .5.224.5.5s-.224.5-.5.5z" fill="#f0f0f0" data-original="#f0f0f0" class=""></path></g><g><path d="m58 26.5h-6c-.276 0-.5-.224-.5-.5s.224-.5.5-.5h6c.276 0 .5.224.5.5s-.224.5-.5.5z" fill="#f0f0f0" data-original="#f0f0f0" class=""></path></g></g><g xmlns="http://www.w3.org/2000/svg"><g><path d="m58 40.5h-6c-.276 0-.5-.224-.5-.5s.224-.5.5-.5h6c.276 0 .5.224.5.5s-.224.5-.5.5z" fill="#f0f0f0" data-original="#f0f0f0" class=""></path></g><g><path d="m58 42.5h-6c-.276 0-.5-.224-.5-.5s.224-.5.5-.5h6c.276 0 .5.224.5.5s-.224.5-.5.5z" fill="#f0f0f0" data-original="#f0f0f0" class=""></path></g><g><path d="m58 44.5h-6c-.276 0-.5-.224-.5-.5s.224-.5.5-.5h6c.276 0 .5.224.5.5s-.224.5-.5.5z" fill="#f0f0f0" data-original="#f0f0f0" class=""></path></g></g><g xmlns="http://www.w3.org/2000/svg"><g><path d="m12 22.5h-6c-.276 0-.5-.224-.5-.5s.224-.5.5-.5h6c.276 0 .5.224.5.5s-.224.5-.5.5z" fill="#f0f0f0" data-original="#f0f0f0" class=""></path></g><g><path d="m12 24.5h-6c-.276 0-.5-.224-.5-.5s.224-.5.5-.5h6c.276 0 .5.224.5.5s-.224.5-.5.5z" fill="#f0f0f0" data-original="#f0f0f0" class=""></path></g><g><path d="m12 26.5h-6c-.276 0-.5-.224-.5-.5s.224-.5.5-.5h6c.276 0 .5.224.5.5s-.224.5-.5.5z" fill="#f0f0f0" data-original="#f0f0f0" class=""></path></g></g><g xmlns="http://www.w3.org/2000/svg"><g><path d="m12 40.5h-6c-.276 0-.5-.224-.5-.5s.224-.5.5-.5h6c.276 0 .5.224.5.5s-.224.5-.5.5z" fill="#f0f0f0" data-original="#f0f0f0" class=""></path></g><g><path d="m12 42.5h-6c-.276 0-.5-.224-.5-.5s.224-.5.5-.5h6c.276 0 .5.224.5.5s-.224.5-.5.5z" fill="#f0f0f0" data-original="#f0f0f0" class=""></path></g><g><path d="m12 44.5h-6c-.276 0-.5-.224-.5-.5s.224-.5.5-.5h6c.276 0 .5.224.5.5s-.224.5-.5.5z" fill="#f0f0f0" data-original="#f0f0f0" class=""></path></g></g><g xmlns="http://www.w3.org/2000/svg"><circle cx="53" cy="34" fill="#00325a" r="3" data-original="#00325a" class=""></circle></g><g xmlns="http://www.w3.org/2000/svg"><circle cx="53" cy="34" fill="#f0f0f0" r="1" data-original="#f0f0f0" class=""></circle></g><g xmlns="http://www.w3.org/2000/svg"><circle cx="11" cy="34" fill="#00325a" r="3" data-original="#00325a" class=""></circle></g><g xmlns="http://www.w3.org/2000/svg"><circle cx="11" cy="34" fill="#f0f0f0" r="1" data-original="#f0f0f0" class=""></circle></g></g></svg>