<?xml version="1.0" encoding="utf-8"?>
<!-- Generator: Adobe Illustrator 23.0.5, SVG Export Plug-In . SVG Version: 6.00 Build 0)  -->
<svg version="1.1" id="Layer_1" xmlns="http://www.w3.org/2000/svg" xmlns:xlink="http://www.w3.org/1999/xlink" x="0px" y="0px"
	 viewBox="0 0 1849.6 5734.6" style="enable-background:new 0 0 1849.6 5734.6;" xml:space="preserve">
<style type="text/css">
	.st0{fill:none;stroke:url(#SVGID_1_);stroke-width:49;stroke-miterlimit:10;stroke-dasharray:51,51;}
	.st1{fill:url(#SVGID_2_);}
	.st2{fill:#FFFFFF;stroke:url(#SVGID_3_);stroke-miterlimit:10;}
</style>
<g>
	<g>
		<linearGradient id="SVGID_1_" gradientUnits="userSpaceOnUse" x1="911.9478" y1="5636.5288" x2="911.9478" y2="71.0151">
			<stop  offset="0" style="stop-color:#F26622"/>
			<stop  offset="1" style="stop-color:#182D41"/>
		</linearGradient>
		<path class="st0" d="M1757.8,96.3c0,0-1377.9-71.7-1186.2,1155.5c0,53.7,465.7,1515.2-456.6,1635.4
			c-63.9-23.1-1.5-232,109.6-148.5c111,83.5,403.4,249.9,447.4,559.5S421.6,5045.9,843.6,5329.9c267.4,179.9,430.6,253,598.2,282.5"
			/>
		<g>
			<linearGradient id="SVGID_2_" gradientUnits="userSpaceOnUse" x1="1470.2" y1="5735.6001" x2="1470.2" y2="5411.3999">
				<stop  offset="0" style="stop-color:#F26622"/>
				<stop  offset="1" style="stop-color:#182D41"/>
			</linearGradient>
			<polygon class="st1" points="1216.5,5411.4 1391.7,5593.6 1182.6,5735.6 1757.8,5631.8 			"/>
			<linearGradient id="SVGID_3_" gradientUnits="userSpaceOnUse" x1="1494.2863" y1="5626.2808" x2="1494.2863" y2="5465.46">
				<stop  offset="0" style="stop-color:#F26622"/>
				<stop  offset="1" style="stop-color:#182D41"/>
			</linearGradient>
			<polygon class="st2" points="1290.6,5466.8 1696.4,5625.4 1421.1,5596.7 			"/>
		</g>
	</g>
</g>
</svg>
