<svg xmlns="http://www.w3.org/2000/svg" version="1.1" xmlns:xlink="http://www.w3.org/1999/xlink" xmlns:svgjs="http://svgjs.com/svgjs" width="512" height="512" x="0" y="0" viewBox="0 0 512 512" style="enable-background:new 0 0 512 512" xml:space="preserve" class=""><g><g xmlns="http://www.w3.org/2000/svg"><g><path d="m387.09 458.204h-257.242c-11.046 0-20-8.954-20-20v-369.346h-33.148c-12.103 0-21.914 9.811-21.914 21.914v391.815c0 12.103 9.811 21.914 21.914 21.914h288.477c12.103 0 21.914-9.811 21.914-21.914v-24.383z" fill="#8ac9fe" data-original="#8ac9fe" class=""></path><path d="m109.848 68.858v369.346c0 11.046 8.954 20 20 20h257.242v24.383c0 4.268-1.225 8.249-3.336 11.617h-271.992c-12.102 0-21.913-9.811-21.913-21.914v-16l10-375.815z" fill="#60b7ff" data-original="#60b7ff" class=""></path><path d="m422.152 423.142h-257.242c-11.046 0-20-8.954-20-20v-360.58h-33.148c-12.102 0-21.913 9.811-21.913 21.914v391.814c0 12.103 9.811 21.914 21.913 21.914h288.477c12.103 0 21.914-9.811 21.914-21.914v-33.148z" fill="#fed402" data-original="#fed402" class=""></path><path d="m144.91 42.562v360.58c0 11.046 8.954 20 20 20h257.242v33.148c0 1.784-.218 3.515-.62 5.175h-274.709c-12.102 0-21.913-9.811-21.913-21.914v-18.323l10-27.665v-345.826z" fill="#fac600" data-original="#fac600"></path><path d="m433.3 443.142h-286.477c-12.102 0-21.913-9.811-21.913-21.914v-391.814c0-12.103 9.811-21.914 21.913-21.914h221.616l86.774 88.774v324.954c.001 12.103-9.81 21.914-21.913 21.914z" fill="#efedef" data-original="#efedef" class=""></path><path d="m427.214 66.274v354.954c0 12.103-9.811 21.914-21.913 21.914h30c12.103 0 21.913-9.811 21.913-21.914v-324.954z" fill="#d7d0d6" data-original="#d7d0d6"></path><path d="m457.214 96.274h-66.864c-12.1 0-21.91-9.809-21.91-21.91v-66.864z" fill="#b5adb6" data-original="#b5adb6"></path></g><g id="_x32_2_documents_1_"><path d="m190.984 177.233h200.156c4.142 0 7.5-3.358 7.5-7.5s-3.358-7.5-7.5-7.5h-200.156c-4.142 0-7.5 3.358-7.5 7.5s3.358 7.5 7.5 7.5z" fill="#000000" data-original="#000000" class=""></path><path d="m190.984 232.821h200.156c4.142 0 7.5-3.358 7.5-7.5s-3.358-7.5-7.5-7.5h-200.156c-4.142 0-7.5 3.358-7.5 7.5s3.358 7.5 7.5 7.5z" fill="#000000" data-original="#000000" class=""></path><path d="m190.984 288.409h200.156c4.142 0 7.5-3.358 7.5-7.5s-3.358-7.5-7.5-7.5h-200.156c-4.142 0-7.5 3.358-7.5 7.5s3.358 7.5 7.5 7.5z" fill="#000000" data-original="#000000" class=""></path><path d="m464.701 96.022c-.065-1.88-.85-3.718-2.184-5.051l-88.774-88.774c-1.388-1.388-3.342-2.197-5.304-2.197h-221.616c-16.219 0-29.413 13.195-29.413 29.414v5.648h-5.648c-15.166 0-27.685 11.538-29.247 26.296h-5.815c-16.219 0-29.414 13.195-29.414 29.414v252.111c0 4.142 3.358 7.5 7.5 7.5s7.5-3.358 7.5-7.5v-252.112c0-7.948 6.466-14.414 14.414-14.414h5.648v379.933c0 16.219 13.195 29.414 29.414 29.414h190.794c4.142 0 7.5-3.358 7.5-7.5s-3.358-7.5-7.5-7.5h-190.794c-7.948 0-14.414-6.466-14.414-14.414v-391.815c0-7.948 6.466-14.414 14.414-14.414h5.648v40.854c0 4.142 3.358 7.5 7.5 7.5s7.5-3.358 7.5-7.5v-61.501c0-7.948 6.466-14.414 14.413-14.414h214.116v59.364c0 16.217 13.193 29.41 29.41 29.41h59.364v317.454c0 7.948-6.466 14.414-14.414 14.414h-288.476c-7.948 0-14.413-6.466-14.413-14.414v-297.627c0-4.142-3.358-7.5-7.5-7.5s-7.5 3.358-7.5 7.5v297.627c0 16.219 13.195 29.414 29.413 29.414h267.829v5.648c0 7.948-6.466 14.414-14.414 14.414h-64.997c-4.142 0-7.5 3.358-7.5 7.5s3.358 7.5 7.5 7.5h44c-1.43 6.453-7.188 11.296-14.065 11.296h-288.476c-7.948 0-14.414-6.466-14.414-14.414v-107.018c0-4.142-3.358-7.5-7.5-7.5s-7.5 3.358-7.5 7.5v107.018c0 16.219 13.195 29.414 29.414 29.414h288.477c15.166 0 27.685-11.538 29.247-26.296h5.815c16.219 0 29.414-13.195 29.414-29.414v-5.648h5.648c16.219 0 29.414-13.195 29.414-29.414v-324.954c-.001-.084-.011-.168-.014-.252zm-74.351-7.248c-7.946 0-14.41-6.464-14.41-14.41v-48.758l63.168 63.168z" fill="#000000" data-original="#000000" class=""></path></g></g></g></svg>