<?xml version="1.0" encoding="utf-8"?>
<!-- Generator: Adobe Illustrator 23.0.5, SVG Export Plug-In . SVG Version: 6.00 Build 0)  -->
<svg version="1.1" id="Layer_1" xmlns="http://www.w3.org/2000/svg" xmlns:xlink="http://www.w3.org/1999/xlink" x="0px" y="0px"
	 viewBox="0 0 2098 395.9" style="enable-background:new 0 0 2098 395.9;" xml:space="preserve">
<style type="text/css">
	.st0{fill:#FFFFFF;stroke:#FFFFFF;stroke-width:15;stroke-miterlimit:10;}
	.st1{fill:#F26622;}
	.st2{fill:#FFFFFF;}
	.st3{fill:#FDFEFF;}
</style>
<g id="Layer_1_1_">
	<g>
		<g>
			<path class="st0" d="M783.2,253H585.9c-31,0-52.8,10.3-65.4,30.9c-5.2,8.6-8.3,18.9-9.2,30.9c1,9.3,4.1,17.4,9.2,24.3
				c12.6,16.2,34.4,24.3,65.4,24.3h73.5c24.1-1.5,44.8-6,62.1-13.6C762.7,331.4,783.2,299.1,783.2,253v-25.9
				c-1.7-21.4-6.9-39.8-15.5-55.2c-20.4-36.8-56.5-55.2-108.3-55.2h-73.5c-7.9,0-12.2-4.4-12.9-13.1c0.7-8.7,5-12.6,12.9-11.6h73.5
				c62.3,0,105.9,24.6,130.8,73.9c10.6,20.7,16.9,45.4,18.8,74.3c-2,28.8-8.3,53.6-18.8,74.3c-24.9,49.3-68.5,73.9-130.8,73.9h-73.5
				c-41.4,0-70.3-12.2-86.8-36.6c-6.9-10.1-11.1-22.3-12.6-36.6c1.5-17.2,5.7-31.9,12.6-44c16.5-29.3,45.4-44,86.8-44h197.3V253z"/>
			<path class="st0" d="M1236.6,373.4c0,2.5-0.6,4.9-1.8,7.4c-3,4.7-6.5,7-10.7,7c-2.2,0-4.2-0.5-5.9-1.5L989.5,254.4L929.3,293
				v82.9c0,7.2-4.2,11.1-12.6,11.9c-8.6-0.7-12.9-4.7-12.9-11.9V103.7c0-7.2,4.3-11,12.9-11.5c8.4,0.5,12.6,4.3,12.6,11.5v158.9
				l263.4-168.5c2-1.2,3.8-1.8,5.5-1.8c4.2,0,7.8,2.3,10.7,7c1.2,2.5,1.8,4.9,1.8,7.4c0,3.9-1.8,7.1-5.5,9.6l-191.4,122.6
				l217.3,124.9C1234.7,366,1236.6,369.2,1236.6,373.4z"/>
			<path class="st0" d="M1439.2,252.6c-46.6,0-79.3-14.5-98-43.6c-7.9-12.3-12.6-27-14.1-44c1.5-14,6.2-26.2,14-36.6
				c18.7-24.4,51.4-36.6,97.9-36.6h209.5c7.9,0,12.2,3.9,12.9,11.6c-0.7,8-5.1,12.4-12.9,13.1h-209.7c-36,0-61.2,8.1-75.5,24.3
				c-6.2,6.9-9.7,15-10.7,24.3c1,11.8,4.6,22.1,10.7,30.9c14.5,20.6,39.7,30.9,75.5,30.9h110.6c46.6,0,79.3,14.5,98,43.5
				c7.9,12.3,12.6,26.9,14.1,43.9c-1.5,14-6.2,26.2-14,36.5c-18.7,24.3-51.4,36.5-97.9,36.5h-209.5c-8.1,0-12.4-3.9-12.9-11.6
				c0.7-8,5.1-12.4,12.9-13.1h209.7c53.3,0,82-16.1,86.2-48.4c-2.2-21.5-11.8-37.6-28.9-48.1c-14.6-9.1-33.7-13.6-57.3-13.6h-110.6
				L1439.2,252.6L1439.2,252.6z"/>
			<path class="st0" d="M1777.9,102.6v112.3c0.5,8.6,4.3,12.6,11.5,11.8h185.8c21.9,1.2,40.6,4.8,56.2,10.7
				c37.4,14.8,56.2,40.4,56.2,76.9v62.1c0,7.1-4.3,11-12.9,11.5c-8.6-0.5-12.9-4.3-12.9-11.5v-62.1c-1.2-12.1-4.8-22.4-10.7-31
				c-14.5-20.7-39.8-31-75.7-31h-186.1c-8.4,0.7-12.2,4.7-11.5,11.8v112.3c0,7.1-4.3,11-12.9,11.5c-8.6-0.5-12.9-4.3-12.9-11.5
				V102.6c0-7.1,4.3-11,12.9-11.5C1773.5,91.6,1777.9,95.4,1777.9,102.6z"/>
		</g>
		<path class="st1" d="M239.9,51.6l-2.3,1c-31.3,13.9-60.8,31.7-87,50.3c-2.1,1.5-4.1,3-6.1,4.5H52.6L10.5,51.6H239.9z"/>
		<path class="st1" d="M121.7,107.4h22.8c-23.6,17.4-44.3,35.4-61.2,52c-18.4,18-32.4,34.3-41.8,46c-4.7,5.9-8.3,10.6-10.7,13.8
			s-3.7,5-3.7,5l-1.4-1c0,0,1.1-1.9,3.1-5.4s4.9-8.8,9.1-15.2c4.1-6.4,9.3-14.2,15.7-22.6c6.4-8.6,13.8-18,22.6-27.8
			c8.8-9.9,18.4-20.1,29.7-30.5C110.8,117,116.1,112.2,121.7,107.4z"/>
		<path class="st1" d="M483.3,83.9l-1.6,0.7c0,0-0.8-2-2.7-5.5s-4.8-8.6-9.3-14.6c-4.5-5.9-10.8-12.5-19.1-18.8
			c-8.2-6.3-18.6-12-30.7-16.3c-12-4.3-25.8-6.9-40.4-7.9c-14.7-1-30.2-0.3-46.1,2c-31,4.3-63.1,14.4-93.6,28.1h-37.7
			c9.3-5.1,18.8-9.9,28.6-14.3c16.3-7.2,33-13.4,49.9-18.3c16.9-5.1,34.1-8.2,50.9-10.1c16.8-2,33.4-1.8,49,0
			c15.6,1.7,30.2,5.6,42.9,11c12.8,5.3,23.5,12.5,31.7,20c8.3,7.5,14.2,15.2,18.3,21.8c4.2,6.7,6.4,12.4,7.8,16.2
			C482.7,81.8,483.3,83.9,483.3,83.9z"/>
		<path class="st2" d="M502.8,169.3l-1.6,0.5c0,0-0.6-2-2.2-5.7c-1.5-3.7-4-9-8-15.3s-9.7-13.4-17.4-20.4
			c-7.6-7-17.4-13.6-29.1-18.9c-4.2-1.9-8.7-3.6-13.3-5.1c-8.2-2.7-17-4.8-26.3-6.3c-14.5-2.3-30-2.9-46-2.1
			c-22.5,1.1-45.7,5.2-68.7,11.5h-11.5v280.4h-73.6v-248c-12.3,6-24.1,12.5-35.4,19.1c-27.6,16.4-52.1,34-72,50.3
			S62.4,240.6,52,251.5c-5.2,5.4-9.2,9.8-11.9,12.8s-4.1,4.6-4.1,4.6l-1.3-1.1c0,0,1.2-1.8,3.5-5.1c2.4-3.3,5.7-8.3,10.4-14.3
			s10.4-13.3,17.6-21.1c7.1-7.9,15.3-16.7,24.9-25.7c9.6-9.1,20-18.4,32.2-27.8c11.5-9,24.7-18.7,38.6-27.5
			c13.6-8.4,27.8-17,43-24.3c0.5-0.3,1-0.5,1.5-0.7c15.6-7.6,32-14.6,48.7-20.6c16.8-5.6,34.1-10.4,51.3-13.9
			c17.3-3.6,34.7-5.1,51.6-5.6s33.4,1.1,48.8,4.3c8.5,1.7,16.6,4,24.3,6.9c6.2,2.3,12,5,17.5,7.9c12.3,6.4,22.2,14.5,29.8,22.7
			c7.6,8.1,12.8,16.3,16.3,23.3c3.6,7,5.3,12.9,6.4,16.8C502.5,167.1,502.8,169.3,502.8,169.3z"/>
		<path class="st3" d="M290.3,107.4c-3.8,1-7.6,2.1-11.5,3.3v-3.3H290.3z"/>
	</g>
</g>
</svg>
