<svg id="Group_4948" data-name="Group 4948" xmlns="http://www.w3.org/2000/svg" xmlns:xlink="http://www.w3.org/1999/xlink" width="145" height="33" viewBox="0 0 145 33">
  <defs>
    <clipPath id="clip-path">
      <rect id="Rectangle_1709" data-name="Rectangle 1709" width="145" height="33" fill="none"/>
    </clipPath>
  </defs>
  <g id="Group_4948-2" data-name="Group 4948" clip-path="url(#clip-path)">
    <path id="Path_2506" data-name="Path 2506" d="M134.3,50.855c0-5.24,2.937-7.94,7.313-7.94s7.313,2.667,7.313,7.94v8.162h-2.458V50.855c0-3.62-1.918-5.526-4.855-5.526s-4.855,1.906-4.855,5.526v8.162H134.3Z" transform="translate(-85.614 -26.43)" fill="#1e0a3c"/>
    <path id="Path_2507" data-name="Path 2507" d="M183.175,51.172c0-4.764,3.3-8.257,7.972-8.257s7.912,3.493,7.912,8.257v.921H185.752a5.207,5.207,0,0,0,5.395,4.923,4.956,4.956,0,0,0,4.586-2.382h2.7a7.524,7.524,0,0,1-7.283,4.8c-4.676,0-7.972-3.494-7.972-8.257m13.307-1.4a5.424,5.424,0,0,0-10.669,0Z" transform="translate(-116.774 -26.43)" fill="#1e0a3c"/>
    <path id="Path_2508" data-name="Path 2508" d="M237.307,50.835l-5.814-7.921h3.057l4.586,6.487,4.615-6.487h2.937l-5.845,7.921,6.084,8.182H243.9l-4.855-6.78-4.826,6.78h-2.967Z" transform="translate(-147.424 -26.43)" fill="#1e0a3c"/>
    <path id="Path_2509" data-name="Path 2509" d="M278.9,51.3c0-4.922,3.3-8.384,8-8.384,4.645,0,7.883,3.366,7.883,8.384v7.718H292.54V55.364a6.19,6.19,0,0,1-6.054,4.065c-3.986,0-7.583-3.049-7.583-8.131m13.457-.127c0-3.4-2.217-5.844-5.485-5.844s-5.484,2.445-5.484,5.844c0,3.367,2.218,5.843,5.484,5.843s5.485-2.477,5.485-5.843" transform="translate(-177.801 -26.43)" fill="#1e0a3c"/>
    <path id="Path_2510" data-name="Path 2510" d="M340.031,45.4a5.122,5.122,0,0,0-.888-.074c-2.338,0-3.866,1.3-3.866,4.383v9.305h-2.457V49.712c0-4.574,2.578-6.8,6.324-6.8a8.687,8.687,0,0,1,.888.045Z" transform="translate(-212.172 -26.43)" fill="#1e0a3c"/>
    <path id="Path_2511" data-name="Path 2511" d="M356.925,51.172c0-4.764,3.3-8.257,7.972-8.257a7.569,7.569,0,0,1,7.643,5.971h-2.487a5.272,5.272,0,0,0-5.155-3.557c-3.266,0-5.484,2.445-5.484,5.844,0,3.367,2.218,5.843,5.484,5.843a5.272,5.272,0,0,0,5.155-3.557h2.487A7.569,7.569,0,0,1,364.9,59.43c-4.675,0-7.972-3.494-7.972-8.257" transform="translate(-227.54 -26.43)" fill="#1e0a3c"/>
    <path id="Path_2512" data-name="Path 2512" d="M80.041,0,68.831,32.6,58.746,16.3,63.388,2.8A47.063,47.063,0,0,1,80.041,0" transform="translate(-37.451 0)" fill="#28ffc8"/>
    <path id="Path_2513" data-name="Path 2513" d="M16.258,21.22,21.3,29.365l-5.6,16.3H0c3.445-10.015,8.622-18.6,16.258-24.448" transform="translate(0 -13.069)" fill="#823cff"/>
    <path id="Path_2514" data-name="Path 2514" d="M134.295,0h10.371V3.344h-2.975v8.038H137.37V3.344h-3.075Z" transform="translate(-85.613)" fill="#1e0a3c" fill-rule="evenodd"/>
    <path id="Path_2515" data-name="Path 2515" d="M166.257,4.6l-2.183,6.783h-4.151L163.994,0H168.5l4.168,11.382h-4.2Z" transform="translate(-101.951 0)" fill="#1e0a3c" fill-rule="evenodd"/>
    <path id="Path_2516" data-name="Path 2516" d="M192.353,0h10.371V3.344H199.75v8.038h-4.322V3.344h-3.074Z" transform="translate(-122.625)" fill="#1e0a3c" fill-rule="evenodd"/>
    <path id="Path_2517" data-name="Path 2517" d="M224.315,4.6l-2.183,6.783h-4.151L222.052,0h4.506l4.168,11.382h-4.2Z" transform="translate(-138.963 0)" fill="#1e0a3c" fill-rule="evenodd"/>
  </g>
</svg>
