<svg xmlns="http://www.w3.org/2000/svg" version="1.1" xmlns:xlink="http://www.w3.org/1999/xlink" xmlns:svgjs="http://svgjs.com/svgjs" width="512" height="512" x="0" y="0" viewBox="0 0 512 512" style="enable-background:new 0 0 512 512" xml:space="preserve" class=""><g><g xmlns="http://www.w3.org/2000/svg"><path d="m436.282 512h-360.564c-5.69 0-10.302-4.612-10.302-10.302v-491.396c0-5.69 4.613-10.302 10.302-10.302h360.563c5.69 0 10.302 4.612 10.302 10.302v491.396c0 5.69-4.612 10.302-10.301 10.302z" fill="#f9f3f1" data-original="#f9f3f1" class=""></path><path d="m436.282 0h-30.905c5.69 0 10.302 4.612 10.302 10.302v491.396c0 5.69-4.612 10.302-10.302 10.302h30.905c5.69 0 10.302-4.612 10.302-10.302v-491.396c-.001-5.69-4.613-10.302-10.302-10.302z" fill="#f3eae6" data-original="#f3eae6" class=""></path><path d="m436.282 512h-360.564c-5.69 0-10.302-4.612-10.302-10.302v-38.603h381.167v38.603c0 5.69-4.612 10.302-10.301 10.302z" fill="#75cdd5" data-original="#75cdd5"></path><path d="m415.678 463.095v38.603c0 5.69-4.612 10.302-10.302 10.302h30.905c5.69 0 10.302-4.612 10.302-10.302v-38.603z" fill="#2abcc8" data-original="#2abcc8"></path><path d="m236.427-134.038h39.147v381.167h-39.147z" fill="#75cdd5" transform="matrix(0 1 -1 0 312.546 -199.455)" data-original="#75cdd5"></path><path d="m415.678 36.972h30.905v39.147h-30.905z" fill="#2abcc8" data-original="#2abcc8"></path><g fill="#7ca1b1"><path d="m309.913 119.16h14.251c4.142 0 7.5-3.357 7.5-7.5s-3.358-7.5-7.5-7.5h-14.251c-4.142 0-7.5 3.357-7.5 7.5s3.358 7.5 7.5 7.5z" fill="#7ca1b1" data-original="#7ca1b1" class=""></path><path d="m362.452 119.16h28.501c4.142 0 7.5-3.357 7.5-7.5s-3.358-7.5-7.5-7.5h-28.501c-4.142 0-7.5 3.357-7.5 7.5s3.358 7.5 7.5 7.5z" fill="#7ca1b1" data-original="#7ca1b1" class=""></path><path d="m121.046 152.584h47.731c4.142 0 7.5-3.357 7.5-7.5s-3.358-7.5-7.5-7.5h-47.731c-4.142 0-7.5 3.357-7.5 7.5s3.358 7.5 7.5 7.5z" fill="#7ca1b1" data-original="#7ca1b1" class=""></path><path d="m390.954 165.514h-269.908c-4.142 0-7.5 3.357-7.5 7.5s3.358 7.5 7.5 7.5h269.907c4.142 0 7.5-3.357 7.5-7.5s-3.357-7.5-7.499-7.5z" fill="#7ca1b1" data-original="#7ca1b1" class=""></path><path d="m390.954 193.442h-269.908c-4.142 0-7.5 3.357-7.5 7.5s3.358 7.5 7.5 7.5h269.907c4.142 0 7.5-3.357 7.5-7.5s-3.357-7.5-7.499-7.5z" fill="#7ca1b1" data-original="#7ca1b1" class=""></path><path d="m201.057 221.372h-80.011c-4.142 0-7.5 3.357-7.5 7.5s3.358 7.5 7.5 7.5h80.011c4.142 0 7.5-3.357 7.5-7.5s-3.358-7.5-7.5-7.5z" fill="#7ca1b1" data-original="#7ca1b1" class=""></path></g><path d="m354.446 489.425-30.643-25.95c-1.458-1.234-3.314-1.234-4.772 0l-30.643 25.95c-2.209 1.871-5.088-.26-5.088-3.766v-112.342h76.233v112.342c0 3.506-2.878 5.637-5.087 3.766z" fill="#fea95c" data-original="#fea95c" class=""></path><g><path d="m328.628 373.317v94.245l25.818 21.864c2.209 1.871 5.088-.26 5.088-3.766v-112.343z" fill="#fe9738" data-original="#fe9738" class=""></path></g><path d="m412.588 327.054c0 7.702-11.129 13.839-13.028 20.943-1.965 7.35 4.547 18.218.824 24.653-3.777 6.528-16.479 6.297-21.777 11.595s-5.067 18-11.595 21.777c-6.435 3.723-17.303-2.789-24.653-.825-7.103 1.899-13.24 13.028-20.942 13.028s-13.839-11.129-20.943-13.028c-7.35-1.965-18.218 4.547-24.653.824-6.528-3.777-6.297-16.479-11.595-21.777s-18-5.067-21.777-11.595c-3.723-6.435 2.789-17.303.825-24.653-1.899-7.103-13.028-13.24-13.028-20.942s11.129-13.839 13.028-20.943c1.965-7.35-4.547-18.218-.824-24.653 3.777-6.528 16.479-6.297 21.777-11.595s5.067-18 11.595-21.777c6.435-3.723 17.303 2.789 24.653.825 7.103-1.899 13.24-13.028 20.942-13.028s13.839 11.129 20.943 13.028c7.35 1.965 18.218-4.547 24.653-.824 6.528 3.777 6.297 16.479 11.595 21.777s18 5.067 21.777 11.595c3.723 6.435-2.789 17.303-.825 24.653 1.898 7.103 13.028 13.24 13.028 20.942z" fill="#f26622" data-original="#fedba6" class=""></path><path d="m399.559 347.997c1.899-7.104 13.028-13.241 13.028-20.943s-11.129-13.839-13.028-20.942c-1.965-7.35 4.548-18.218.824-24.653-3.776-6.528-16.479-6.297-21.777-11.595s-5.067-18-11.595-21.777c-6.435-3.723-17.303 2.789-24.653.824-7.104-1.899-13.241-13.028-20.943-13.028-5.656 0-10.467 5.998-15.438 9.939 1.799 1.426 3.618 2.585 5.505 3.09 7.35 1.965 18.218-4.547 24.653-.824 6.528 3.777 6.297 16.479 11.595 21.777s18 5.067 21.777 11.595c3.723 6.435-2.789 17.303-.824 24.653 1.899 7.103 13.028 13.24 13.028 20.942s-11.129 13.839-13.028 20.943c-1.965 7.35 4.547 18.218.824 24.653-3.777 6.528-16.479 6.297-21.777 11.595s-5.067 18-11.595 21.777c-6.435 3.723-17.303-2.789-24.653-.825-1.888.504-3.706 1.663-5.505 3.089 4.97 3.941 9.782 9.939 15.438 9.939 7.702 0 13.839-11.129 20.942-13.028 7.35-1.964 18.218 4.548 24.653.825 6.528-3.777 6.297-16.479 11.595-21.777s18-5.067 21.777-11.595c3.725-6.437-2.787-17.305-.823-24.654z" fill="#d45517" data-original="#fece85" class=""></path><path d="m364.786 299.792c-2.957-2.901-7.705-2.854-10.606.101l-42.859 43.676-22.806-22.065c-2.977-2.879-7.725-2.801-10.605.176s-2.802 7.725.175 10.605l28.158 27.243c1.456 1.408 3.335 2.109 5.214 2.109 1.943 0 3.886-.751 5.354-2.247l48.075-48.991c2.902-2.957 2.857-7.706-.1-10.607z" fill="#f9f3f1" data-original="#f9f3f1" class=""></path><path d="m187.346 421.098h-62.179c-2.276 0-4.121-1.845-4.121-4.121v-125.681c0-2.276 1.845-4.121 4.121-4.121h62.179c2.276 0 4.121 1.845 4.121 4.121v125.682c0 2.275-1.845 4.12-4.121 4.12z" fill="#fea95c" data-original="#fea95c" class=""></path><path d="m187.346 287.175h-30.905c2.276 0 4.121 1.845 4.121 4.121v125.682c0 2.276-1.845 4.121-4.121 4.121h30.905c2.276 0 4.121-1.845 4.121-4.121v-125.682c0-2.276-1.845-4.121-4.121-4.121z" fill="#fe9738" data-original="#fe9738" class=""></path></g></g></svg>