<svg xmlns="http://www.w3.org/2000/svg" version="1.1" xmlns:xlink="http://www.w3.org/1999/xlink" xmlns:svgjs="http://svgjs.com/svgjs" width="512" height="512" x="0" y="0" viewBox="0 0 512 512" style="enable-background:new 0 0 512 512" xml:space="preserve" class=""><g><circle xmlns="http://www.w3.org/2000/svg" cx="256" cy="256" fill="#f8a01a" r="256" data-original="#f8a01a"></circle><path xmlns="http://www.w3.org/2000/svg" d="m19.555 157.732c-7.886 18.953-13.564 39.053-16.703 59.987 161.168 100.867 321.498-107.368 482.704-2.816 0-23.122 0-46.243 0-69.365-155.637-100.94-310.457 89.669-466.001 12.194z" fill="#fae17c" data-original="#fae17c"></path><path xmlns="http://www.w3.org/2000/svg" d="m485.555 284.267c0-23.122 0-46.243 0-69.365-161.206-104.552-321.536 103.683-482.704 2.816-1.873 12.489-2.851 25.271-2.851 38.282 0 10.296.626 20.444 1.807 30.422 161.519 102.425 322.194-106.932 483.748-2.155z" fill="#f8c14c" data-original="#f8c14c"></path><path xmlns="http://www.w3.org/2000/svg" d="m1.807 286.422c3.474 29.333 11.905 57.143 24.436 82.575 153.295 68.902 305.906-114.857 459.311-15.365 0-23.122 0-46.243 0-69.365-161.553-104.777-322.228 104.58-483.747 2.155z" fill="#fae17c" data-original="#fae17c"></path><path xmlns="http://www.w3.org/2000/svg" d="m159.782.263-38.711 9.733c-3.814.959-6.487 4.388-6.487 8.32v117.74c-6.687-4.127-14.696-6.316-23.248-5.766-19.526 1.256-35.384 17.054-36.697 36.577-1.547 23.002 16.664 42.131 39.33 42.11 21.752-.02 39.369-17.669 39.349-39.421v-111.928l30.648-7.706c3.814-.959 6.487-4.388 6.487-8.32v-33.019c0-5.586-5.253-9.682-10.671-8.32z" fill="#623a6c" data-original="#623a6c"></path><path xmlns="http://www.w3.org/2000/svg" d="m79.639 166.867c1.082-16.096 12.057-29.652 26.819-34.622-4.707-1.58-9.809-2.297-15.122-1.955-19.526 1.256-35.384 17.054-36.697 36.577-1.547 23.002 16.664 42.131 39.33 42.11 4.356-.004 8.542-.726 12.458-2.035-16.428-5.499-28.036-21.523-26.788-40.075z" fill="#441c4e" data-original="#441c4e"></path><path xmlns="http://www.w3.org/2000/svg" d="m485.749 31.838-235.364 59.177c-9.382 2.359-15.958 10.794-15.958 20.467v207.826c-10.842-6.691-23.613-10.556-37.289-10.544-39.208.036-70.963 31.849-70.927 71.056.036 39.208 31.849 70.963 71.056 70.927 39.208-.036 70.963-31.849 70.927-71.057v-166.33l210.039-52.809v88.969c-10.842-6.691-23.613-10.556-37.289-10.544-39.208.036-70.963 31.849-70.927 71.056.036 39.208 31.849 70.963 71.056 70.927 39.186-.036 70.926-31.814 70.925-70.992h.002v-257.662c0-13.741-12.924-23.818-26.251-20.467z" fill="#623a6c" data-original="#623a6c"></path><g xmlns="http://www.w3.org/2000/svg" fill="#441c4e"><path d="m156.21 379.821c-.031-34.088 23.974-62.575 56.009-69.459-4.861-1.049-9.906-1.602-15.082-1.597-39.208.036-70.963 31.849-70.927 71.056.036 39.208 31.849 70.963 71.056 70.927 5.127-.005 10.122-.565 14.939-1.602-31.977-6.879-55.964-35.287-55.995-69.325z" fill="#441c4e" data-original="#441c4e"></path><path d="m400.016 310.032c-.031-34.088 23.974-62.575 56.009-69.459-4.861-1.049-9.906-1.602-15.082-1.597-39.208.036-70.963 31.849-70.927 71.056.036 39.208 31.849 70.963 71.056 70.927 5.127-.005 10.121-.565 14.939-1.602-31.977-6.88-55.964-35.287-55.995-69.325z" fill="#441c4e" data-original="#441c4e"></path></g></g></svg>