<svg xmlns="http://www.w3.org/2000/svg" version="1.1" xmlns:xlink="http://www.w3.org/1999/xlink" xmlns:svgjs="http://svgjs.com/svgjs" width="512" height="512" x="0" y="0" viewBox="0 0 512 512" style="enable-background:new 0 0 512 512" xml:space="preserve" class=""><g><g xmlns="http://www.w3.org/2000/svg" clip-rule="evenodd" fill-rule="evenodd"><circle cx="256" cy="256" fill="#e04f5f" r="256" data-original="#e04f5f"></circle><path d="m86 182.808v146.388c0 4.318 3.652 7.966 7.977 7.966h324.074c4.297 0 7.949-3.648 7.949-7.966v-146.388c0-4.322-3.652-7.97-7.949-7.97h-5.514c-.036 0-.036 0-.072 0 0 0-.036 0-.072 0h-318.415c-4.326 0-7.978 3.648-7.978 7.97zm66.021 106.061h-22.009v-65.734h22.009c12.127 0 22.002 9.868 22.002 22.002v21.73c0 12.13-9.875 22.002-22.002 22.002zm53.51 129.37c-10.147-14.652-18.819-34.083-25.386-56.79h-57.456c21.362 26.875 50.421 46.621 82.842 56.79zm50.471 7.763c-18.701 0-37.831-24.859-50.485-64.553h100.977c-12.653 39.693-31.784 64.553-50.492 64.553zm133.323-64.553h-57.46c-6.566 22.707-15.238 42.139-25.386 56.79 32.422-10.169 61.482-29.915 82.846-56.79zm-82.845-267.688c10.147 14.651 18.819 34.083 25.386 56.79h57.46c-21.365-26.875-50.425-46.622-82.846-56.79zm-50.478-7.763c18.708 0 37.839 24.863 50.492 64.553h-100.977c12.654-39.69 31.784-64.553 50.485-64.553zm-133.313 64.553h57.456c6.566-22.708 15.238-42.139 25.386-56.79-32.421 10.168-61.48 29.915-82.842 56.79zm-4.819 48.297h34.151c25.522 0 46.289 20.763 46.289 46.289v21.73c0 25.521-20.767 46.288-46.289 46.288h-34.151c-6.703 0-12.145-5.439-12.145-12.145v-90.021c0-6.706 5.443-12.141 12.145-12.141zm91.843 102.162v-90.021c0-5.213 3.334-9.846 8.275-11.508 4.948-1.665 10.398.014 13.548 4.171l46.475 61.259v-53.922c0-6.706 5.435-12.141 12.141-12.141 6.703 0 12.145 5.435 12.145 12.141v90.021c0 5.213-3.333 9.846-8.271 11.508-1.278.43-2.582.637-3.874.637-3.724 0-7.336-1.718-9.674-4.805l-46.478-61.262v53.922c0 6.706-5.432 12.145-12.142 12.145-6.702 0-12.145-5.439-12.145-12.145zm161.921-12.141c5.714 0 10.365-4.651 10.365-10.365 0-5.711-4.651-10.362-10.365-10.362h-23.277c-19.109 0-34.652-15.539-34.652-34.645s15.543-34.648 34.652-34.648h23.277c12.925 0 24.688 7.139 30.699 18.633 3.115 5.94.824 13.28-5.109 16.392-5.94 3.111-13.28.82-16.392-5.12-1.815-3.466-5.342-5.618-9.198-5.618h-23.277c-5.714 0-10.366 4.647-10.366 10.362 0 5.711 4.651 10.358 10.366 10.358h23.277c19.109 0 34.638 15.543 34.638 34.648s-15.529 34.652-34.638 34.652h-23.277c-11.246 0-21.841-5.517-28.347-14.759-3.863-5.485-2.542-13.058 2.936-16.922 5.489-3.86 13.062-2.542 16.925 2.94 1.958 2.789 5.131 4.454 8.486 4.454z" fill="#ffffff" data-original="#ffffff"></path></g></g></svg>