<svg xmlns="http://www.w3.org/2000/svg" version="1.1" xmlns:xlink="http://www.w3.org/1999/xlink" xmlns:svgjs="http://svgjs.com/svgjs" width="512" height="512" x="0" y="0" viewBox="0 0 64 64" style="enable-background:new 0 0 512 512" xml:space="preserve" class=""><g><g xmlns="http://www.w3.org/2000/svg" id="Liquidity"><path d="m61 32-6 6v-3h-8v-6h8v-3z" fill="#ff7956" data-original="#ff7956"></path><path d="m53 11v8.49l-2.12-2.13-5.66 5.66-4.24-4.24 5.66-5.66-2.13-2.12z" fill="#00d7df" data-original="#00d7df"></path><path d="m38 9h-3v8h-6v-8h-3l6-6z" fill="#e0e0e2" data-original="#e0e0e2"></path><path d="m23.02 18.78-4.24 4.24-5.66-5.66-2.12 2.13v-8.49h8.49l-2.13 2.12z" fill="#00d7df" data-original="#00d7df"></path><path d="m17 29v6h-8v3l-6-6 6-6v3z" fill="#ff7956" data-original="#ff7956"></path><path d="m45 48v4c0 4.63-3.52 9-8 9h-10c-4.48 0-8-4.37-8-9v-4a15.252 15.252 0 0 1 .32-3c.98-4.82 4.05-10.24 7.68-13h10c4.41 3.36 8 10.63 8 16z" fill="#ffe477" data-original="#ffe477"></path><path d="m45 48v4c0 4.63-3.52 9-8 9h-10a7.811 7.811 0 0 1 -6.56-3.98 7.076 7.076 0 0 0 3.56.98h10c4.48 0 8-4.37 8-9v-4c0-4.09-2.08-9.27-5.02-13h.02c4.41 3.36 8 10.63 8 16z" fill="#ebbf00" data-original="#ebbf00"></path><path d="m39 21-1.88 7v.01a.487.487 0 0 0 -.12-.01h-10a.487.487 0 0 0 -.12.01v-.01l-1.88-7 .42.06 6.58.94z" fill="#ffe477" data-original="#ffe477"></path><path d="m39 21-1.88 7v.01a.487.487 0 0 0 -.12-.01h-2.88l1.88-7z" fill="#ebbf00" data-original="#ebbf00"></path><path d="m34.12 28v.01a.487.487 0 0 0 -.12-.01z" fill="#ebbf00" data-original="#ebbf00"></path><path d="m37.12 28.01a2 2 0 0 1 1.88 1.99 2.015 2.015 0 0 1 -2 2h-10a2.006 2.006 0 0 1 -2-2 1.955 1.955 0 0 1 .59-1.41 1.912 1.912 0 0 1 1.29-.58.487.487 0 0 1 .12-.01h10a.487.487 0 0 1 .12.01z" fill="#ff7956" data-original="#ff7956"></path><path d="m39 30a2.015 2.015 0 0 1 -2 2h-3a2.015 2.015 0 0 0 2-2 2 2 0 0 0 -1.88-1.99.487.487 0 0 0 -.12-.01h3a.487.487 0 0 1 .12.01 2 2 0 0 1 1.88 1.99z" fill="#ff5023" data-original="#ff5023"></path><path d="m38.89 32.31a2.969 2.969 0 0 0 -.55-4.98l1.63-6.07a1.019 1.019 0 0 0 -.22-.92 1 1 0 0 0 -.89-.33l-6.86.98-6.86-.98a1 1 0 0 0 -.89.33 1.019 1.019 0 0 0 -.22.92l1.63 6.07a2.969 2.969 0 0 0 -.55 4.98c-4.02 3.84-7.11 10.5-7.11 15.69v4c0 5.42 4.12 10 9 10h10c4.88 0 9-4.58 9-10v-4c0-5.19-3.09-11.85-7.11-15.69zm-7.03-9.32a1.31 1.31 0 0 0 .28 0l5.5-.79-1.29 4.8h-8.7l-1.29-4.8zm-4.86 6.01h10a1 1 0 0 1 0 2h-10a1 1 0 0 1 0-2zm17 23c0 4.26-3.27 8-7 8h-10c-3.73 0-7-3.74-7-8v-4c0-5 3.35-11.77 7.36-15h9.28c4.01 3.23 7.36 10 7.36 15z" fill="#000000" data-original="#000000"></path><path d="m33 45h-2a3 3 0 0 1 0-6h6v-2h-4v-2h-2v2a5 5 0 0 0 0 10h2a3 3 0 0 1 0 6h-6v2h4v2h2v-2a5 5 0 0 0 0-10z" fill="#000000" data-original="#000000"></path><path d="m26 10h2v7a1 1 0 0 0 1 1h6a1 1 0 0 0 1-1v-7h2a1 1 0 0 0 .707-1.707l-6-6a1 1 0 0 0 -1.414 0l-6 6a1 1 0 0 0 .707 1.707zm6-5.586 3.586 3.586h-.586a1 1 0 0 0 -1 1v7h-4v-7a1 1 0 0 0 -1-1h-.586z" fill="#000000" data-original="#000000"></path><path d="m23.73 18.07-4.95-4.95 1.41-1.41a1 1 0 0 0 -.7-1.71h-8.49a1 1 0 0 0 -1 1v8.49a1 1 0 0 0 1.71.7l1.41-1.41 4.95 4.95a1.024 1.024 0 0 0 .71.29 1.042 1.042 0 0 0 .71-.29l4.24-4.24a1.007 1.007 0 0 0 .29-.71.99.99 0 0 0 -.29-.71zm-4.95 3.54-4.95-4.95a.992.992 0 0 0 -.71-.3 1.01 1.01 0 0 0 -.71.3l-.41.41v-5.07h5.07l-.41.41a1.017 1.017 0 0 0 -.3.71 1 1 0 0 0 .3.71l4.95 4.95z" fill="#000000" data-original="#000000"></path><path d="m18 29a1 1 0 0 0 -1-1h-7v-2a1 1 0 0 0 -1.707-.707l-6 6a1 1 0 0 0 0 1.414l6 6a1 1 0 0 0 .707.293.987.987 0 0 0 .383-.076 1 1 0 0 0 .617-.924v-2h7a1 1 0 0 0 1-1zm-2 5h-7a1 1 0 0 0 -1 1v.586l-3.586-3.586 3.586-3.586v.586a1 1 0 0 0 1 1h7z" fill="#000000" data-original="#000000"></path><path d="m44.515 23.728a1 1 0 0 0 1.414 0l4.95-4.95 1.414 1.414a1 1 0 0 0 1.707-.707v-8.485a1 1 0 0 0 -1-1h-8.485a1 1 0 0 0 -.707 1.707l1.414 1.414-4.95 4.95a1 1 0 0 0 0 1.414zm2.828-9.9a1 1 0 0 0 0-1.414l-.414-.414h5.071v5.071l-.414-.414a1 1 0 0 0 -1.414 0l-4.95 4.949-2.829-2.828z" fill="#000000" data-original="#000000"></path><path d="m61.707 31.293-6-6a1 1 0 0 0 -1.707.707v2h-7a1 1 0 0 0 -1 1v6a1 1 0 0 0 1 1h7v2a1 1 0 0 0 .617.924.987.987 0 0 0 .383.076 1 1 0 0 0 .707-.293l6-6a1 1 0 0 0 0-1.414zm-5.707 4.293v-.586a1 1 0 0 0 -1-1h-7v-4h7a1 1 0 0 0 1-1v-.586l3.586 3.586z" fill="#000000" data-original="#000000"></path></g></g></svg>