<svg xmlns="http://www.w3.org/2000/svg" version="1.1" xmlns:xlink="http://www.w3.org/1999/xlink" xmlns:svgjs="http://svgjs.com/svgjs" width="512" height="512" x="0" y="0" viewBox="0 0 512 512" style="enable-background:new 0 0 512 512" xml:space="preserve" class=""><circle r="256" cx="256" cy="256" fill="#b64b17" shape="circle"></circle><g transform="matrix(1,0,0,1,-5.684341886080802e-14,0)"><g xmlns="http://www.w3.org/2000/svg"><path d="m256 54.763-174.277 100.618v201.238l174.277 100.618 174.277-100.618v-201.238zm8 23.093 142.277 82.144-142.277 82.145zm-16 164.289-142.277-82.145 142.277-82.144zm-7.999 13.855-142.278 82.145v-164.29zm7.999 13.855v164.288l-142.277-82.143zm16 0 142.277 82.145-142.277 82.144zm7.999-13.855 142.278-82.145v164.289z" fill="#5faa46" data-original="#5faa46"></path><g><g><circle cx="256" cy="64" fill="#faa019" r="32" data-original="#faa019" class=""></circle><path d="m256 112c-26.467 0-48-21.532-48-48s21.533-48 48-48 48 21.532 48 48-21.533 48-48 48zm0-64c-8.822 0-16 7.178-16 16s7.178 16 16 16 16-7.178 16-16-7.178-16-16-16z" fill="#4182c3" data-original="#4182c3" class=""></path></g><g><path d="m224 80c-8.836 0-16-7.163-16-16 0-26.467 21.533-48 48-48 8.836 0 16 7.163 16 16s-7.164 16-16 16c-8.822 0-16 7.178-16 16 0 8.837-7.164 16-16 16z" fill="#64afe1" data-original="#64afe1" class=""></path></g></g><g><g><circle cx="256" cy="448" fill="#faa019" r="32" data-original="#faa019" class=""></circle><path d="m256 496c-26.467 0-48-21.532-48-48s21.533-48 48-48 48 21.532 48 48-21.533 48-48 48zm0-64c-8.822 0-16 7.178-16 16s7.178 16 16 16 16-7.178 16-16-7.178-16-16-16z" fill="#4182c3" data-original="#4182c3" class=""></path></g><g><path d="m224 464c-8.836 0-16-7.163-16-16 0-26.467 21.533-48 48-48 8.836 0 16 7.163 16 16s-7.164 16-16 16c-8.822 0-16 7.178-16 16 0 8.837-7.164 16-16 16z" fill="#64afe1" data-original="#64afe1" class=""></path></g></g><g><g><circle cx="89.723" cy="352" fill="#faa019" r="32" data-original="#faa019" class=""></circle><path d="m89.808 400.02c-3.906 0-7.838-.48-11.726-1.452-25.678-6.421-41.344-32.533-34.925-58.209 3.109-12.438 10.876-22.921 21.871-29.518s23.9-8.516 36.337-5.408c25.678 6.421 41.344 32.533 34.925 58.209v-.001.001c-3.109 12.438-10.876 22.921-21.871 29.518-7.558 4.534-16.02 6.86-24.611 6.86zm-.113-64.027c-2.864 0-5.684.775-8.204 2.287-3.665 2.198-6.254 5.693-7.29 9.839-2.14 8.56 3.083 17.264 11.642 19.403 4.144 1.037 8.446.396 12.112-1.803 3.665-2.198 6.254-5.693 7.29-9.839v-.001c2.14-8.559-3.083-17.263-11.642-19.402-1.295-.324-2.606-.484-3.908-.484z" fill="#4182c3" data-original="#4182c3" class=""></path></g><g><path d="m58.691 360.243c-1.285 0-2.59-.156-3.893-.481-8.573-2.144-13.785-10.83-11.642-19.403 3.109-12.438 10.877-22.921 21.871-29.518 10.995-6.597 23.9-8.516 36.337-5.408 8.573 2.144 13.785 10.83 11.642 19.402-2.143 8.573-10.831 13.786-19.403 11.643-8.561-2.138-17.263 3.082-19.403 11.642-1.816 7.27-8.34 12.123-15.509 12.123z" fill="#64afe1" data-original="#64afe1" class=""></path></g></g><g><g><circle cx="422.277" cy="160" fill="#faa019" r="32" data-original="#faa019" class=""></circle><path d="m422.277 208c-26.467 0-48-21.532-48-48s21.533-48 48-48 48 21.532 48 48-21.533 48-48 48zm0-64c-8.822 0-16 7.178-16 16s7.178 16 16 16 16-7.178 16-16-7.178-16-16-16z" fill="#4182c3" data-original="#4182c3" class=""></path></g><g><path d="m390.277 176c-8.836 0-16-7.163-16-16 0-26.467 21.533-48 48-48 8.836 0 16 7.163 16 16s-7.164 16-16 16c-8.822 0-16 7.178-16 16 0 8.837-7.164 16-16 16z" fill="#64afe1" data-original="#64afe1" class=""></path></g></g><g><g><circle cx="422.277" cy="352" fill="#faa019" r="32" data-original="#faa019" class=""></circle><path d="m422.361 400.02c-3.906 0-7.838-.48-11.726-1.452-25.678-6.421-41.344-32.533-34.925-58.209 3.109-12.438 10.876-22.921 21.871-29.518s23.899-8.516 36.337-5.408c25.678 6.421 41.344 32.533 34.925 58.209v-.001.001c-3.109 12.438-10.876 22.921-21.871 29.518-7.557 4.534-16.019 6.86-24.611 6.86zm-.112-64.027c-2.864 0-5.684.775-8.204 2.287-3.665 2.198-6.254 5.693-7.29 9.839-2.14 8.56 3.083 17.264 11.642 19.403 4.143 1.037 8.446.396 12.112-1.803 3.665-2.198 6.254-5.693 7.29-9.839v-.001c2.14-8.559-3.083-17.263-11.642-19.402-1.295-.324-2.606-.484-3.908-.484z" fill="#4182c3" data-original="#4182c3" class=""></path></g><g><path d="m391.245 360.243c-1.285 0-2.59-.156-3.893-.481-8.573-2.144-13.785-10.83-11.642-19.403 3.109-12.438 10.877-22.921 21.871-29.518s23.899-8.516 36.337-5.408c8.573 2.144 13.785 10.83 11.642 19.402-2.143 8.573-10.83 13.786-19.403 11.643-8.56-2.138-17.263 3.082-19.403 11.642-1.816 7.27-8.34 12.123-15.509 12.123z" fill="#64afe1" data-original="#64afe1" class=""></path></g></g><g><g><circle cx="89.723" cy="160" fill="#faa019" r="32" data-original="#faa019" class=""></circle><path d="m89.723 208c-26.467 0-48-21.532-48-48s21.533-48 48-48 48 21.532 48 48-21.533 48-48 48zm0-64c-8.822 0-16 7.178-16 16s7.178 16 16 16 16-7.178 16-16-7.178-16-16-16z" fill="#4182c3" data-original="#4182c3" class=""></path></g><g><path d="m57.723 176c-8.836 0-16-7.163-16-16 0-26.467 21.533-48 48-48 8.836 0 16 7.163 16 16s-7.164 16-16 16c-8.822 0-16 7.178-16 16 0 8.837-7.163 16-16 16z" fill="#64afe1" data-original="#64afe1" class=""></path></g></g><g><g><path d="m272 368h-32c-61.856 0-112-50.144-112-112 0-61.856 50.144-112 112-112h32c61.856 0 112 50.144 112 112 0 61.856-50.144 112-112 112z" fill="#faa019" data-original="#faa019" class=""></path></g><g><circle cx="240" cy="256" fill="#ffd205" r="112" data-original="#ffd205"></circle></g><g><circle cx="240" cy="256" fill="#faa019" r="80" data-original="#faa019" class=""></circle></g><path d="m252 248h-24c-6.617 0-12-5.383-12-12s5.383-12 12-12h24c6.617 0 12 5.383 12 12 0 4.418 3.582 8 8 8s8-3.582 8-8c0-15.439-12.561-28-28-28h-4v-8c0-4.418-3.582-8-8-8s-8 3.582-8 8v8h-4c-15.439 0-28 12.561-28 28s12.561 28 28 28h24c6.617 0 12 5.383 12 12s-5.383 12-12 12h-24c-6.617 0-12-5.383-12-12 0-4.418-3.582-8-8-8s-8 3.582-8 8c0 15.439 12.561 28 28 28h4v8c0 4.418 3.582 8 8 8s8-3.582 8-8v-8h4c15.439 0 28-12.561 28-28s-12.561-28-28-28z" fill="#ffd205" data-original="#ffd205"></path></g></g></g></svg>