<svg xmlns="http://www.w3.org/2000/svg" version="1.1" xmlns:xlink="http://www.w3.org/1999/xlink" xmlns:svgjs="http://svgjs.com/svgjs" width="512" height="512" x="0" y="0" viewBox="0 0 512 512" style="enable-background:new 0 0 512 512" xml:space="preserve" class=""><g><g xmlns="http://www.w3.org/2000/svg"><circle cx="256" cy="256" fill="#9dd7f5" r="256" data-original="#9dd7f5" class=""></circle><path d="m510.072 287.483c-40.717-40.717-85.868-85.868-85.868-85.868l-40.458-10.783-73.951-73.953s-195.416 190.421-192.918 192.919l73.952 73.95 10.783 40.46s45.158 45.158 85.865 85.865c116.214-14.251 208.341-106.375 222.595-222.59z" fill="#6694fc" data-original="#6694fc"></path><g><path d="m183.199 168.366c-2.141 2.735-4.456 5.373-6.96 7.877s-5.142 4.82-7.877 6.961c-24.632 19.298-62.726 27.012-91.297 25.806.21-7.017.972-14.026 2.266-20.944 8.863.119 47.52-.546 74.046-19.846 2.826-2.05 5.519-4.323 8.017-6.821 2.497-2.497 4.771-5.19 6.821-8.017 19.293-26.52 19.965-65.155 19.846-74.046 6.918-1.294 13.928-2.057 20.944-2.266.252 6.742 1.147 56.871-25.806 91.296z" fill="#000000" data-original="#000000"></path><path d="m349.451 204.399-72.528 72.528-72.528 72.528c-29.507-1.924-57.481-13.382-79.81-32.522l9.353-18.866-24.197 4.022c-22.833-26.604-33.725-59.999-32.675-93.08l9.479-8.262-7.212-12.682c4.274-22.868 14.418-44.84 30.409-63.483 0 0 13.081 2.525 18.377 3.54 4.976.924 1.45 1.33-3.54-18.377 18.629-15.978 40.587-26.121 63.434-30.402.035-.007.049-.007.049-.007l12.508 11.934 8.437-14.2c33.081-1.049 66.477 9.842 93.08 32.675l-3.757 17.201 18.601-2.357c19.138 22.329 30.596 50.303 32.52 79.81z" fill="#e06426" data-original="#e06426"></path><path d="m349.451 204.399-72.528 72.528-148.806-148.806c4.976.924 1.45 1.33-3.54-18.377 18.629-15.978 40.587-26.121 63.434-30.402.035-.007.049-.007.049-.007l12.508 11.934 8.437-14.2c33.081-1.049 66.477 9.842 93.08 32.675l-3.757 17.201 18.601-2.357c19.14 22.33 30.598 50.304 32.522 79.811z" fill="#cf3b0e" data-original="#cf3b0e"></path><path d="m228.179 213.346 31.388 31.388-7.415 7.422-7.422 7.415-31.388-31.388-88.757 88.75c-2.651-2.273-5.226-4.652-7.709-7.135-2.497-2.498-4.876-5.065-7.135-7.709l88.757-88.75-30.136-30.136c-24.632 19.298-62.726 27.012-91.297 25.806.21-7.017.972-14.026 2.266-20.944 8.863.119 47.52-.546 74.046-19.846l-43.637-43.637c2.26-2.637 4.638-5.205 7.135-7.702s5.065-4.876 7.702-7.135l43.637 43.637c19.293-26.52 19.965-65.155 19.846-74.046 6.918-1.294 13.928-2.057 20.944-2.266.028.804.07 2.224.07 4.162 0 14.32-2.14 56.817-25.876 87.134l30.136 30.136 88.75-88.757c2.644 2.259 5.212 4.638 7.709 7.135 2.483 2.484 4.862 5.058 7.135 7.709z" fill="#eabd3e" data-original="#eabd3e"></path><path d="m228.179 213.346 31.388 31.388-7.415 7.422-135.276-135.276c2.497-2.497 5.065-4.876 7.702-7.135l43.637 43.637c19.293-26.52 19.965-65.155 19.846-74.046 6.918-1.294 13.928-2.057 20.944-2.266.028.804.07 2.224.07 4.162 0 14.32-2.14 56.817-25.876 87.134l30.136 30.136 88.75-88.757c2.644 2.259 5.212 4.638 7.709 7.135 2.483 2.484 4.862 5.058 7.135 7.709z" fill="#e69022" data-original="#e69022"></path><path d="m435.004 244.161c0-20.098-4.015-35.76-10.801-42.546-8.324-8.325-30.031-12.48-56.886-10.165l-14.075 13.963-8.534-10.647c-33.081 6.793-69.996 22.784-98.579 51.367-28.59 28.59-44.588 65.519-51.374 98.607l11.584 8.856-14.893 13.718c-2.316 26.862 1.833 48.562 10.164 56.893 8.331 8.332 30.038 12.48 56.901 10.15l13.354-15.586 9.22 12.277c33.088-6.785 70.017-22.784 98.6-51.36 28.597-28.597 44.589-65.526 51.374-98.614l-12.529-10.843 15.837-11.724c.427-4.98.637-9.779.637-14.346z" fill="#eabd3e" data-original="#eabd3e"></path><path d="m434.368 258.508-15.837 11.724 12.529 10.843c-6.785 33.088-22.777 70.017-51.374 98.614l-133.557-133.556c28.583-28.583 65.498-44.574 98.579-51.367l8.534 10.647 14.075-13.963c26.855-2.316 48.562 1.84 56.886 10.165 6.786 6.785 10.801 22.448 10.801 42.546 0 4.567-.21 9.366-.636 14.347z" fill="#e69022" data-original="#e69022"></path><path d="m434.368 258.508c-.623 7.205-1.707 14.774-3.309 22.567-23.825 4.798-48.799-2.685-66.218-20.105-16.787-16.795-24.965-41.446-20.133-66.204 7.807-1.602 15.397-2.693 22.609-3.316-6.39 17.995-2.814 39.501 12.368 54.683 14.643 14.644 36.066 18.946 54.683 12.375z" fill="#e0e6f3" data-original="#e0e6f3"></path><path d="m281.085 431.049c-7.793 1.602-15.369 2.693-22.574 3.309 6.671-18.984 2.048-40.239-12.382-54.669-14.569-14.569-36.007-18.985-54.683-12.375.623-7.205 1.714-14.781 3.309-22.574 23.748-4.769 48.778 2.671 66.211 20.105 17.611 17.61 24.862 42.621 20.119 66.204z" fill="#f2f7ff" data-original="#f2f7ff"></path><path d="m357.426 283.23-37.097 37.103-37.103 37.097-14.838-14.845 37.097-37.096 37.096-37.096z" fill="#4e5a61" data-original="#4e5a61"></path><path d="m305.223 283.866h52.465v20.99h-52.465z" fill="#424b52" transform="matrix(.707 -.707 .707 .707 -111.061 320.632)" data-original="#424b52"></path><path d="m287.574 296.27h20.986v62.958h-20.986z" fill="#4e5a61" transform="matrix(.707 -.707 .707 .707 -144.452 306.76)" data-original="#4e5a61"></path><path d="m317.252 266.591h20.986v62.958h-20.986z" fill="#424b52" transform="matrix(.707 -.707 .707 .707 -114.773 319.054)" data-original="#424b52"></path></g></g></g></svg>