<svg xmlns="http://www.w3.org/2000/svg" version="1.1" xmlns:xlink="http://www.w3.org/1999/xlink" xmlns:svgjs="http://svgjs.com/svgjs" width="512" height="512" x="0" y="0" viewBox="0 0 512 512" style="enable-background:new 0 0 512 512" xml:space="preserve" class=""><g>
<g xmlns="http://www.w3.org/2000/svg">
	<g>
		<g>
			<polygon style="" points="200.617,402.848 218.204,343.498 232.573,347.802 214.986,407.152    " fill="#857e87" data-original="#857e87" class=""></polygon>
		</g>
		<g>
			
				<rect x="223.541" y="56.205" transform="matrix(0.9853 -0.171 0.171 0.9853 -15.4447 41.1283)" style="" width="15" height="108.042" fill="#857e87" data-original="#857e87" class=""></rect>
		</g>
		<g>
			
				<rect x="294.146" y="129.766" transform="matrix(0.674 -0.7388 0.7388 0.674 14.4719 307.3239)" style="" width="122.545" height="15" fill="#857e87" data-original="#857e87" class=""></rect>
		</g>
		<g>
			<path style="" d="M348.127,241.896l84.187-7.72l1.373,14.938l-84.187,7.72     C349.267,256.854,348.127,241.896,348.127,241.896z" fill="#857e87" data-original="#857e87" class=""></path>
		</g>
		<g>
			<path style="" d="M462.001,468.92c-1.96,0-3.917-0.763-5.389-2.282L319.319,324.992l10.775-10.436l137.294,141.646     c2.882,2.975,2.806,7.724-0.17,10.605C465.762,468.218,463.88,468.92,462.001,468.92z" fill="#857e87" data-original="#857e87" class=""></path>
		</g>
		<g>
			<polygon style="" points="50.579,343.961 165.491,284.819 172.333,298.167 57.421,357.309    " fill="#857e87" data-original="#857e87" class=""></polygon>
		</g>
		<g>
			<polygon style="" points="173.395,214.542 92.605,173.635 99.395,160.26 180.185,201.167    " fill="#857e87" data-original="#857e87" class=""></polygon>
		</g>
		<path style="" d="M479.888,447.777c-17.707,0-32.112,14.405-32.112,32.111c0,17.707,14.405,32.112,32.112,32.112    S512,497.595,512,479.888C512,462.182,497.595,447.777,479.888,447.777z" fill="#c3ddff" data-original="#c3ddff" class=""></path>
		<path style="" d="M479.888,447.777c-3.491,0-6.851,0.568-10,1.602C482.712,453.593,492,465.673,492,479.888    c0,14.215-9.288,26.295-22.112,30.509c3.149,1.035,6.509,1.602,10,1.602C497.595,512,512,497.595,512,479.888    C512,462.182,497.595,447.777,479.888,447.777z" fill="#a4ccff" data-original="#a4ccff"></path>
		<path style="" d="M73.742,123.538c-17.707,0-32.112,14.405-32.112,32.111c0,17.707,14.405,32.112,32.112,32.112    s32.112-14.405,32.112-32.112C105.855,137.943,91.449,123.538,73.742,123.538z" fill="#ff8086" data-original="#ff8086"></path>
		<path style="" d="M73.742,123.538c-3.491,0-6.851,0.568-10,1.602c12.824,4.214,22.112,16.294,22.112,30.509    c0,14.215-9.288,26.295-22.112,30.509c3.149,1.035,6.509,1.602,10,1.602c17.707,0,32.112-14.405,32.112-32.112    C105.855,137.943,91.45,123.538,73.742,123.538z" fill="#e5646e" data-original="#e5646e"></path>
		<path style="" d="M217.479,0c-17.707,0-32.112,14.405-32.112,32.111c0,17.707,14.405,32.112,32.112,32.112    s32.112-14.405,32.112-32.112C249.591,14.405,235.186,0,217.479,0z" fill="#ffe07d" data-original="#ffe07d" class=""></path>
		<path style="" d="M217.478,0c-3.491,0-6.851,0.568-10,1.602c12.824,4.214,22.112,16.294,22.112,30.509    c0,14.215-9.288,26.295-22.112,30.509c3.149,1.035,6.509,1.602,10,1.602c17.707,0,32.112-14.405,32.112-32.112    C249.591,14.405,235.186,0,217.478,0z" fill="#ffd064" data-original="#ffd064"></path>
		<path style="" d="M457.554,207.277c-17.707,0-32.112,14.405-32.112,32.111c0,17.707,14.405,32.112,32.112,32.112    s32.112-14.405,32.112-32.112C489.666,221.682,475.261,207.277,457.554,207.277z" fill="#b3e59f" data-original="#b3e59f" class=""></path>
		<path style="" d="M457.554,207.277c-3.491,0-6.851,0.568-10,1.602c12.824,4.214,22.112,16.294,22.112,30.509    c0,14.215-9.288,26.295-22.112,30.509c3.149,1.035,6.509,1.602,10,1.602c17.707,0,32.112-14.405,32.112-32.112    C489.666,221.682,475.261,207.277,457.554,207.277z" fill="#95d6a4" data-original="#95d6a4"></path>
		<path style="" d="M413.508,41.042c-17.707,0-32.112,14.405-32.112,32.111c0,17.707,14.405,32.112,32.112,32.112    s32.112-14.405,32.112-32.112C445.621,55.447,431.215,41.042,413.508,41.042z" fill="#ff8086" data-original="#ff8086"></path>
		<path style="" d="M413.508,41.042c-3.491,0-6.851,0.568-10,1.602c12.824,4.214,22.112,16.294,22.112,30.509    c0,14.215-9.288,26.295-22.112,30.509c3.149,1.035,6.509,1.602,10,1.602c17.707,0,32.112-14.405,32.112-32.112    C445.621,55.447,431.215,41.042,413.508,41.042z" fill="#e5646e" data-original="#e5646e"></path>
		<path style="" d="M200.461,397.4c-17.707,0-32.112,14.405-32.112,32.111c0,17.707,14.405,32.112,32.112,32.112    s32.112-14.405,32.112-32.112C232.573,411.805,218.168,397.4,200.461,397.4z" fill="#ffe07d" data-original="#ffe07d" class=""></path>
		<path style="" d="M200.461,397.4c-3.491,0-6.851,0.568-10,1.602c12.824,4.214,22.112,16.294,22.112,30.509    c0,14.215-9.288,26.295-22.112,30.509c3.149,1.035,6.509,1.602,10,1.602c17.707,0,32.112-14.405,32.112-32.112    C232.573,411.805,218.168,397.4,200.461,397.4z" fill="#ffd064" data-original="#ffd064"></path>
		<path style="" d="M32.112,329.745C14.405,329.745,0,344.15,0,361.856c0,17.707,14.405,32.112,32.112,32.112    s32.112-14.405,32.112-32.112C64.225,344.15,49.819,329.745,32.112,329.745z" fill="#b3e59f" data-original="#b3e59f" class=""></path>
		<path style="" d="M32.112,329.745c-3.491,0-6.851,0.568-10,1.602c12.824,4.214,22.112,16.294,22.112,30.509    c0,14.215-9.288,26.295-22.112,30.509c3.149,1.035,6.509,1.602,10,1.602c17.707,0,32.112-14.405,32.112-32.112    C64.225,344.15,49.819,329.745,32.112,329.745z" fill="#95d6a4" data-original="#95d6a4"></path>
	</g>
	<g>
		<g>
			<circle style="" cx="254.929" cy="255.749" r="98.825" fill="#c3ddff" data-original="#c3ddff" class=""></circle>
		</g>
		<path style="" d="M254.929,156.924c-6.852,0-13.541,0.698-20,2.026c44.991,9.247,78.825,49.071,78.825,96.799    c0,47.727-33.834,87.551-78.825,96.799c6.459,1.328,13.148,2.026,20,2.026c54.579,0,98.825-44.245,98.825-98.824    C353.754,201.169,309.509,156.924,254.929,156.924z" fill="#a4ccff" data-original="#a4ccff"></path>
		<g>
			<g>
				<g>
					<path style="" d="M296.347,234.104c0,22.705-18.41,41.109-41.107,41.109c-22.708,0-41.116-18.404-41.116-41.109       c0-22.703,18.408-41.104,41.116-41.104C277.937,193,296.347,211.401,296.347,234.104z" fill="#ffe4c2" data-original="#ffe4c2"></path>
				</g>
			</g>
			<g>
				<path style="" d="M196.934,335.775c1.302-34.547,25.536-60.586,58.454-60.586      c33.058,0,58.454,27.709,58.454,59.911c0,0-22.077,19.473-58.912,19.473C219.113,354.573,196.934,335.775,196.934,335.775z" fill="#ff8086" data-original="#ff8086"></path>
			</g>
			<path style="" d="M255.388,275.189c-3.435,0-6.764,0.306-9.986,0.86c24.475,4.207,42.197,23.653,47.157,47.709     c1.31,6.355-1.299,12.897-6.607,16.629c-7.556,5.312-20.824,12.04-41.011,13.769c3.158,0.271,6.475,0.431,9.991,0.431     c36,0,58.911-19.487,58.911-19.487C313.842,303.594,288.445,275.189,255.388,275.189z" fill="#e5646e" data-original="#e5646e"></path>
			<g>
				<g>
					<path style="" d="M255.24,193c-22.708,0-41.116,18.401-41.116,41.104c0,3.178,0.373,6.268,1.056,9.239       l54.74-17.959l25.404,17.819c0.662-2.928,1.023-5.97,1.023-9.099C296.347,211.401,277.936,193,255.24,193z" fill="#e2a975" data-original="#e2a975" class=""></path>
				</g>
			</g>
		</g>
	</g>
</g>















</g></svg>