<svg xmlns="http://www.w3.org/2000/svg" version="1.1" xmlns:xlink="http://www.w3.org/1999/xlink" xmlns:svgjs="http://svgjs.com/svgjs" width="512" height="512" x="0" y="0" viewBox="0 0 16.933333 16.933334" style="enable-background:new 0 0 512 512" xml:space="preserve" class=""><g><g xmlns="http://www.w3.org/2000/svg" id="layer1"><path id="path11735" d="m2.1166666 0c-.4397374 0-.79375.354013-.79375.79374997v8.99583373c0 .4397353.3540126.7937503.79375.7937503h13.7583334c.439737 0 .79375-.354015.79375-.7937503v-8.99583373c0-.43973697-.354013-.79374997-.79375-.79374997z" fill="#549ad4" data-original="#549ad4" class=""></path><path id="path12053" d="m2.1177002 6.4326822c-.0902 0-.1742866.016376-.2464966.048576.39323.1308799.7928203.5278586.8128702 1.1916585v1.2221477c0 .4709099 1.0200928.8468251 1.0200928 1.3037966 0 .168049.011596.292144.03514.384472h.5281332v-.03462c0-1.288201-1.054716-1.3794614-1.054716-1.8954915h.0005168v-.9803049c-.025-.82682-.6386403-1.2402344-1.0955404-1.2402344z" fill="#3588cb" data-original="#3588cb" class=""></path><path id="path11737" d="m15.43575 0c.813789 10.082179-13.3190834 10.31875-13.3190834 10.31875s-.091499.138655-.1632975.24753c.052767.01097.107181.01705.1632975.01705h13.7583334c.439737 0 .79375-.354015.79375-.7937503v-8.99582973c0-.43973697-.354013-.79374997-.79375-.79374997z" fill="#3588cb" data-original="#3588cb" class=""></path><path id="path11739" d="m3.0107759 1.0948277c-.3487573 0-.6295259.2807689-.6295259.6295258v7.1346262c0 .3487561.2807686.6295259.6295259.6295259h11.9701141c.348757 0 .629526-.2807698.629526-.6295259v-7.1346262c0-.3487569-.280769-.6295258-.629526-.6295258z" fill="#e4eff8" data-original="#e4eff8" class=""></path><path id="path11741" d="m14.838887 1.0950236c-.294856 6.3412772-8.3783413 7.7598013-12.3734044 8.0744425.1081471.1899234.3101389.3188435.5451862.3188435h11.9703292c.348756 0 .629418-.2806628.629418-.6294189v-7.1344482c0-.3487568-.280662-.6294189-.629418-.6294189z" fill="#c4dcf0" data-original="#c4dcf0"></path><path id="path12067" d="m9.7895831 6.3498694c-.3528647 0-.3528647.5292972 0 .5292972h4.7624999c.352865 0 .352865-.5292972 0-.5292972z" fill="#ecb200" font-variant-ligatures="normal" font-variant-position="normal" font-variant-caps="normal" font-variant-numeric="normal" font-variant-alternates="normal" font-feature-settings="normal" text-indent="0" text-align="start" text-decoration-line="none" text-decoration-style="solid" text-decoration-color="#000000" text-transform="none" text-orientation="mixed" white-space="normal" shape-padding="0" isolation="auto" mix-blend-mode="normal" solid-color="#000000" solid-opacity="1" vector-effect="none" data-original="#ecb200" class=""></path><path id="path11743" d="m12.435414 13.493746-1.951836-3.9098465c-.163676-.327869-.07524-.7203496.242111-.9035696.317353-.18323.720347-.0752.903569.24211l.806157 1.3963111.000001-3.9687511c.000001-.29316.236008-.52917.529166-.52917.29316 0 .529168.23601.529168.52917l-.000001 3.4395798-.000001-1.0583267c0-.29316.236008-.52917.529166-.52917.29316 0 .529168.23601.529168.52917l-.000001 1.0583267v-.7937472c0-.2931595.236008-.5291595.529166-.5291595.293159 0 .529168.236.529168.5291595v.7937472l.000002-.5291542c.000001-.29316.236007-.5291695.529165-.5291695.29316 0 .529168.2360095.529168.5291695v2.3812375c0 .79375-.529169 1.322917-.529169 1.852083z" fill="#ffd1b5" data-original="#ffd1b5"></path><path id="path11745" d="m16.17524 8.7348673c.09902 3.9358887-2.727461 4.6838307-3.062862 4.7588827h3.027205c0-.529166.529167-1.058333.529167-1.852083v-2.3812504c0-.2809449-.217427-.5069988-.49351-.5255493z" fill="#ffb98d" data-original="#ffb98d"></path><path id="path11789" d="m3.4395835 5.5562498c0-1.4612533 1.18458-2.6458332 2.6458333-2.6458332 1.4612533.0000001 2.6458331 1.1845799 2.6458332 2.6458332l-.0000002.79375h-5.2916663z" fill="#ff5151" data-original="#ff5151"></path><path id="path11831" d="m7.1386719 4.7608073c-.068645.00211-.1337797.030825-.1816407.080078l-1.0585937 1.0566408c-.2499999.2499999.1250001.6249999.375.375l1.0566406-1.0585938c.1707234-.1680494.0480926-.4583591-.1914062-.453125z" fill="#ecb200" font-variant-ligatures="normal" font-variant-position="normal" font-variant-caps="normal" font-variant-numeric="normal" font-variant-alternates="normal" font-feature-settings="normal" text-indent="0" text-align="start" text-decoration-line="none" text-decoration-style="solid" text-decoration-color="#000000" text-transform="none" text-orientation="mixed" white-space="normal" shape-padding="0" isolation="auto" mix-blend-mode="normal" solid-color="#000000" solid-opacity="1" vector-effect="none" data-original="#ecb200" class=""></path><path id="path11791" d="m6.0854168 5.5562499c.4383758 0 .7937497.3553739.7937497.7937498h-1.5874995c0-.438376.3553739-.7937498.7937498-.7937498z" fill="#ffca28" data-original="#ffca28"></path><path id="path12063" d="m9.7895831 2.6458333c-.3528647 0-.3528647.5292972 0 .5292972h4.7624999c.352865 0 .352865-.5292972 0-.5292972z" fill="#ecb200" font-variant-ligatures="normal" font-variant-position="normal" font-variant-caps="normal" font-variant-numeric="normal" font-variant-alternates="normal" font-feature-settings="normal" text-indent="0" text-align="start" text-decoration-line="none" text-decoration-style="solid" text-decoration-color="#000000" text-transform="none" text-orientation="mixed" white-space="normal" shape-padding="0" isolation="auto" mix-blend-mode="normal" solid-color="#000000" solid-opacity="1" vector-effect="none" data-original="#ecb200" class=""></path><path id="rect11797" d="m-12.964583 2.1166666c.293159 0 .529167.2360083.529167.5291667v.5291665c0 .2931584-.236008.5291667-.529167.5291667-.293158 0-.529167-.2360083-.529167-.5291667v-.5291665c0-.2931584.236009-.5291667.529167-.5291667z" fill="#ffca28" transform="scale(-1 1)" data-original="#ffca28"></path><path id="path12065" d="m9.7895831 4.4977861c-.3528647 0-.3528647.5292972 0 .5292972h4.7624999c.352865 0 .352865-.5292972 0-.5292972z" fill="#ecb200" font-variant-ligatures="normal" font-variant-position="normal" font-variant-caps="normal" font-variant-numeric="normal" font-variant-alternates="normal" font-feature-settings="normal" text-indent="0" text-align="start" text-decoration-line="none" text-decoration-style="solid" text-decoration-color="#000000" text-transform="none" text-orientation="mixed" white-space="normal" shape-padding="0" isolation="auto" mix-blend-mode="normal" solid-color="#000000" solid-opacity="1" vector-effect="none" data-original="#ecb200" class=""></path><path id="rect11801" d="m10.847917 3.9687498c.293158 0 .529166.236008.529166.5291659v.5291681c0 .2931579-.236008.5291659-.529166.5291659s-.529166-.236008-.529166-.5291659v-.5291681c0-.2931579.236008-.5291659.529166-.5291659z" fill="#ffca28" data-original="#ffca28"></path><path id="path11813" d="m6.0854166 2.9104167c-.1812274 0-.3581826.018518-.5291667.053227 1.2076771.2451537 2.1166667 1.3125805 2.1166667 2.5926066v.7937496h1.0583333v-.7937499c0-1.4612533-1.1845801-2.6458333-2.6458333-2.6458333z" fill="#ff2929" data-original="#ff2929"></path><path id="path11819" d="m6.0820312 2.9072917c-.1461742.0015879-.2633672.1214046-.2617187.2675781v.265625c0 .3528644.5292969.3528644.5292969 0v-.265625c.001675-.1484676-.1191106-.2692532-.2675782-.2675781z" fill="#e4eff8" font-variant-ligatures="normal" font-variant-position="normal" font-variant-caps="normal" font-variant-numeric="normal" font-variant-alternates="normal" font-feature-settings="normal" text-indent="0" text-align="start" text-decoration-line="none" text-decoration-style="solid" text-decoration-color="#000000" text-transform="none" text-orientation="mixed" white-space="normal" shape-padding="0" isolation="auto" mix-blend-mode="normal" solid-color="#000000" solid-opacity="1" vector-effect="none" data-original="#e4eff8" class=""></path><path id="path11823" d="m7.7636719 3.6045573c-.068645.00211-.1337797.030825-.1816407.080078l-.1875.1875c-.2499999.2499999.1250001.6249999.375.375l.1875-.1875c.175089-.1685152.0494811-.4641379-.1933593-.455078z" fill="#c4dcf0" font-variant-ligatures="normal" font-variant-position="normal" font-variant-caps="normal" font-variant-numeric="normal" font-variant-alternates="normal" font-feature-settings="normal" text-indent="0" text-align="start" text-decoration-line="none" text-decoration-style="solid" text-decoration-color="#000000" text-transform="none" text-orientation="mixed" white-space="normal" shape-padding="0" isolation="auto" mix-blend-mode="normal" solid-color="#000000" solid-opacity="1" vector-effect="none" data-original="#c4dcf0"></path><path id="path11825" d="m8.1757812 5.2920573c-.3528354.018256-.3254914.5475524.027344.5292969h.2636719c.3528644 0 .3528644-.5292969 0-.5292969h-.2636721c-.00911-.0004712-.018235-.0004712-.027344 0z" fill="#c4dcf0" font-variant-ligatures="normal" font-variant-position="normal" font-variant-caps="normal" font-variant-numeric="normal" font-variant-alternates="normal" font-feature-settings="normal" text-indent="0" text-align="start" text-decoration-line="none" text-decoration-style="solid" text-decoration-color="#000000" text-transform="none" text-orientation="mixed" white-space="normal" shape-padding="0" isolation="auto" mix-blend-mode="normal" solid-color="#000000" solid-opacity="1" vector-effect="none" data-original="#c4dcf0"></path><path id="path11827" d="m4.3984375 3.6045573c-.2380179.000082-.354921.2898528-.1835937.4550782l.1875.1875c.2499116.2649827.639331-.1264756.3730468-.375l-.1875-.1875c-.0497685-.0511485-.1180873-.0800256-.1894531-.0800782z" fill="#e4eff8" font-variant-ligatures="normal" font-variant-position="normal" font-variant-caps="normal" font-variant-numeric="normal" font-variant-alternates="normal" font-feature-settings="normal" text-indent="0" text-align="start" text-decoration-line="none" text-decoration-style="solid" text-decoration-color="#000000" text-transform="none" text-orientation="mixed" white-space="normal" shape-padding="0" isolation="auto" mix-blend-mode="normal" solid-color="#000000" solid-opacity="1" vector-effect="none" data-original="#e4eff8" class=""></path><path id="path11829" d="m3.6777344 5.2920573c-.3528644.0169271-.3274738.546224.0253906.5292969h.265625c.3528644 0 .3528644-.5292969 0-.5292969h-.265625c-.00846-.0004063-.016932-.0004063-.025391 0z" fill="#e4eff8" font-variant-ligatures="normal" font-variant-position="normal" font-variant-caps="normal" font-variant-numeric="normal" font-variant-alternates="normal" font-feature-settings="normal" text-indent="0" text-align="start" text-decoration-line="none" text-decoration-style="solid" text-decoration-color="#000000" text-transform="none" text-orientation="mixed" white-space="normal" shape-padding="0" isolation="auto" mix-blend-mode="normal" solid-color="#000000" solid-opacity="1" vector-effect="none" data-original="#e4eff8" class=""></path><path id="path12036" d="m1.3125833 5.406382c-.81790997.16448-1.04799997.88289-1.04799997 1.38183v2.2510297c0 .7503.79374997 2.3378513.79374997 2.8670113v1.05833h4.0157806c0-.392.68109-1.66645.68109-2.38125h-1.7864504l-.26459-.26458c-.28355-.28355-.7937502-1.3229213-.7937502-1.6655313v-.9803097c-.04-1.32291-1.5875-1.5875-1.5875-.79375v-1.47278z" fill="#ffd1b5" data-original="#ffd1b5"></path><path id="path12058" d="m2.38125 6.4797077v.3565675c.1700691.2027164.2920505.4799621.3028238.8366414v1.2221477c0 .2115724.2072838.4040571.434082.5932453h.7870322c-.305363-.3624464-.6924643-.5220489-.6924643-.8350912h.0005168v-.9803018c-.0204002-.674697-.4326785-1.0690733-.8319905-1.1932089z" fill="#c4dcf0" data-original="#c4dcf0"></path><path id="path12041" d="m2.9104133 8.6532217v-.9803097c-.025-.82682-.63864-1.24023-1.09554-1.24023-.0902 0-.17428.0164-.24649.0486.39323.13088.79282.52786.81287 1.19166v1.2220397c0 .47091 1.0200902.84684 1.0200902 1.3038113 0 .6634.18039.64915.56534.64915l-.002-.2993c0-1.2882013-1.0547102-1.3793613-1.0547102-1.8953913z" fill="#ffb98d" data-original="#ffb98d"></path><path id="path11753" d="m5.0482706 10.583334c-.912849 1.83643-3.9899373 2.38125-3.9899373 2.38125h4.0157754c0-.527756.7467245-1.587501.7467245-2.38125z" fill="#ffb98d" data-original="#ffb98d"></path><path id="rect11761" d="m.79374999 12.964583h4.76249981v3.96875h-4.76249981z" fill="#427096" data-original="#427096"></path><path id="path12043" d="m5.2622111 12.964583c-.3635002 2.87438-3.540534 3.536901-4.46846111 3.67006v.29869h4.76249991v-3.96875z" fill="#365b7a" data-original="#365b7a"></path><path id="rect12048" d="m11.906249 13.229166h4.497917v3.704167h-4.497917z" fill="#427096" data-original="#427096"></path><path id="path12050" d="m16.110127 13.229166c-.3635 2.87438-3.275951 3.272318-4.203878 3.405477v.29869h4.497917v-3.704167z" fill="#365b7a" data-original="#365b7a"></path></g></g></svg>