<svg xmlns="http://www.w3.org/2000/svg" version="1.1" xmlns:xlink="http://www.w3.org/1999/xlink" xmlns:svgjs="http://svgjs.com/svgjs" width="512" height="512" x="0" y="0" viewBox="0 0 511.99992 511" style="enable-background:new 0 0 512 512" xml:space="preserve" class=""><g><path xmlns="http://www.w3.org/2000/svg" d="m245 .5c-96.742188 0-180.378906 56.082031-220.203125 137.5l-2.578125 209.558594c38.707031 84.351562 123.898438 142.941406 222.78125 142.941406 135.3125 0 245.003906-109.691406 245.003906-245-.003906-135.308594-109.691406-245-245.003906-245zm0 0" fill="#31a7ed" data-original="#31a7ed" class=""></path><path xmlns="http://www.w3.org/2000/svg" d="m180.253906 139.476562c.050782-.621093.085938-1.253906.085938-1.890624 0-12.546876-10.171875-22.71875-22.71875-22.71875-12.550782 0-22.71875 10.171874-22.71875 22.71875 0 .640624.03125 1.269531.082031 1.890624zm0 0" fill="#5766ce" data-original="#5766ce"></path><path xmlns="http://www.w3.org/2000/svg" d="m167.214844 116.992188c-2.914063-1.359376-6.164063-2.125-9.59375-2.125-12.550782 0-22.71875 10.171874-22.71875 22.71875 0 .636718.03125 1.269531.082031 1.890624h19.1875c-.050781-.621093-.082031-1.253906-.082031-1.890624 0-9.117188 5.371094-16.976563 13.125-20.59375zm0 0" fill="#3d4ec6" data-original="#3d4ec6" class=""></path><path xmlns="http://www.w3.org/2000/svg" d="m22.332031 143.199219c30.328125 17.859375 52.839844 51.574219 52.839844 88.355469 0 12.261718-2.179687 24.011718-6.164063 34.890624-2.234374 6.085938 2.355469 12.421876 8.835938 12.402344h.167969c30.445312 0 55.128906 24.683594 55.128906 55.132813 0 7.246093-1.410156 14.160156-3.953125 20.5h56.867188c-2.542969-6.339844-3.957032-13.253907-3.957032-20.5 0-30.449219 24.683594-55.132813 55.132813-55.132813h.164062c6.484375.019532 11.070313-6.316406 8.839844-12.402344-3.988281-10.878906-6.167969-22.628906-6.167969-34.890624 0-37.691407 20.582032-70.332032 50.480469-87.742188l.878906-7.875h-265.605469c-1.199218 2.398438-2.363281 4.820312-3.488281 7.261719zm0 0" fill="#3d4ec6" data-original="#3d4ec6" class=""></path><path xmlns="http://www.w3.org/2000/svg" d="m25.820312 135.9375c-1.199218 2.398438-2.363281 4.820312-3.488281 7.261719 30.328125 17.859375 52.839844 51.574219 52.839844 88.355469 0 12.261718-2.179687 24.011718-6.164063 34.890624-2.234374 6.085938 2.355469 12.421876 8.835938 12.402344h.167969c30.445312 0 55.128906 24.683594 55.128906 55.132813 0 7.246093-1.410156 14.160156-3.953125 20.5h56.867188c-2.542969-6.339844-3.957032-13.253907-3.957032-20.5 0-17.488281 8.152344-33.058594 20.847656-43.160157.199219-2.421874.6875-4.15625.6875-4.15625-13.476562 0-18.507812-6.796874-20.316406-12.835937-1.617187-5.390625-6.429687-9.179687-12.054687-9.179687h-4.636719c-24.632812 0-44.601562-19.96875-44.601562-44.601563v-84.109375zm0 0" fill="#3342ae" data-original="#3342ae" class=""></path><path xmlns="http://www.w3.org/2000/svg" d="m336.253906 136.878906c18.457032 0 35.757813 4.9375 50.671875 13.554688l-3.503906-28.574219c-.777344-6.355469-5.289063-11.613281-11.441406-13.390625-10.980469-3.167969-22.578125-4.871094-34.578125-4.871094-12.53125 0-24.628906 1.851563-36.035156 5.292969-7.300782 2.203125-12.613282 8.5-13.460938 16.074219l-2.878906 25.78125c15.039062-8.808594 32.539062-13.867188 51.226562-13.867188zm0 0" fill="#3d4ec6" data-original="#3d4ec6" class=""></path><path xmlns="http://www.w3.org/2000/svg" d="m337.40625 103.597656c-12.53125 0-24.628906 1.851563-36.039062 5.292969-7.296876 2.203125-12.613282 8.5-13.460938 16.078125l-2.878906 25.777344c15.035156-8.808594 32.539062-13.863282 51.226562-13.863282 1.390625 0 2.773438.035157 4.152344.089844-.851562-1.140625-1.839844-2.296875-3.003906-3.460937-17.492188-17.496094.003906-29.914063.003906-29.914063zm0 0" fill="#3342ae" data-original="#3342ae" class=""></path><path xmlns="http://www.w3.org/2000/svg" d="m323.03125 345.175781c63.863281 7.308594 119.980469-39.886719 125.214844-102.464843l-15.710938-43.285157c-13.441406-40.296875-51.46875-69.347656-96.28125-69.347656-56.042968 0-101.476562 45.433594-101.476562 101.476563 0 12.261718 2.179687 24.011718 6.167968 34.890624 2.230469 6.085938-2.355468 12.421876-8.839843 12.402344-.054688 0-.109375 0-.164063 0-30.449218 0-55.132812 24.683594-55.132812 55.132813s24.683594 55.128906 55.132812 55.128906c22.878906 0 42.5-13.933594 50.84375-33.78125 2.816406-6.699219 11.839844-7.773437 16.070313-1.867187l2.089843 2.921874c4.421876-7.796874 13.101563-12.234374 22.085938-11.207031zm0 0" fill="#8c96dd" data-original="#8c96dd"></path><path xmlns="http://www.w3.org/2000/svg" d="m323.03125 345.175781c17.632812 2.019531 34.671875-.121093 50.214844-5.589843l-.953125-1.695313c-34.101563-9.875-19.535157-39.90625-19.535157-39.90625-29.140624-10.773437-17.410156-37.820313-17.410156-37.820313-39.546875-13.59375-29.300781-52.007812-29.300781-52.007812-49.019531-7.609375-33.617187-55.484375-33.617187-55.488281-22.96875 18.605469-37.652344 47.03125-37.652344 78.890625 0 12.257812 2.179687 24.007812 6.164062 34.886718 2.234375 6.085938-2.355468 12.421876-8.835937 12.402344-.054688 0-.113281 0-.164063 0-30.449218 0-55.132812 24.683594-55.132812 55.132813s24.683594 55.128906 55.132812 55.128906c22.875 0 42.5-13.933594 50.839844-33.78125 2.816406-6.695313 11.839844-7.773437 16.074219-1.863281l2.089843 2.917968c4.421876-7.796874 13.101563-12.234374 22.085938-11.207031zm0 0" fill="#5766ce" data-original="#5766ce"></path><g xmlns="http://www.w3.org/2000/svg" fill="#3d4ec6"><path d="m252.492188 358.433594-36.09375-52.421875c-18.195313 0-12.800782-19.226563-12.765626-19.34375-16.066406 9.632812-26.824218 27.214843-26.824218 47.3125 0 30.449219 24.683594 55.128906 55.132812 55.128906 13.1875 0 25.289063-4.636719 34.777344-12.363281-20.679688 0-14.226562-18.3125-14.226562-18.3125zm0 0" fill="#3d4ec6" data-original="#3d4ec6" class=""></path><path d="m83.300781 278.847656c-.054687 0-.109375 0-.164062 0-6.484375.019532-11.070313-6.316406-8.839844-12.402344 3.988281-10.878906 6.167969-22.628906 6.167969-34.890624 0-40.023438-23.171875-74.625-56.832032-91.144532-15.144531 31.847656-23.632812 67.476563-23.632812 105.089844 0 37.242188 8.324219 72.539062 23.191406 104.148438 3.742188-.265626 7.59375 1.707031 9.265625 5.679687 8.34375 19.847656 27.964844 33.78125 50.84375 33.78125 30.445313 0 55.128907-24.679687 55.128907-55.128906s-24.683594-55.132813-55.128907-55.132813zm0 0" fill="#3d4ec6" data-original="#3d4ec6" class=""></path><path d="m507.738281 406.578125-61.507812-169.425781c-2.238281 64.28125-58.863281 113.714844-123.554688 106.3125-9.25-1.0625-18.179687 3.753906-22.324219 12.089844l83.335938 116.375c19.933594 27.835937 56.941406 37.410156 87.875 22.730468 32.960938-15.644531 48.628906-53.785156 36.175781-88.082031zm0 0" fill="#3d4ec6" data-original="#3d4ec6" class=""></path></g><path xmlns="http://www.w3.org/2000/svg" d="m471.5625 494.660156c6.945312-3.296875 13.109375-7.601562 18.417969-12.648437-35.378907 10.558593-49.917969-23.25-49.917969-23.25l-67.769531-120.871094h-.003907c-15.351562 5.433594-32.1875 7.566406-49.617187 5.574219-9.25-1.058594-18.175781 3.753906-22.320313 12.09375l83.332032 116.371094c19.9375 27.839843 56.945312 37.410156 87.878906 22.730468zm0 0" fill="#3342ae" data-original="#3342ae" class=""></path><path xmlns="http://www.w3.org/2000/svg" d="m164.945312 272.582031h-14.65625c-4.382812 0-7.933593-3.550781-7.933593-7.933593 0-4.382813 3.550781-7.9375 7.933593-7.9375h14.65625c4.382813 0 7.9375 3.554687 7.9375 7.9375 0 4.382812-3.550781 7.933593-7.9375 7.933593zm0 0" fill="#31a7ed" data-original="#31a7ed" class=""></path><path xmlns="http://www.w3.org/2000/svg" d="m126.28125 202.335938h-8.515625c-6.1875 0-11.203125 5.015624-11.203125 11.203124s5.015625 11.203126 11.203125 11.203126h8.515625c6.1875 0 11.203125-5.015626 11.203125-11.203126s-5.015625-11.203124-11.203125-11.203124zm0 0" fill="#5766ce" data-original="#5766ce"></path><path xmlns="http://www.w3.org/2000/svg" d="m205.933594 210.132812-18.214844-8.085937c-2.464844-1.09375-5.238281.710937-5.238281 3.40625v16.167969c0 2.695312 2.773437 4.5 5.238281 3.40625l18.214844-8.085938c2.953125-1.308594 2.953125-5.5 0-6.808594zm0 0" fill="#5766ce" data-original="#5766ce"></path><path xmlns="http://www.w3.org/2000/svg" d="m46.378906 232.457031c-.40625-11.433593-10.152344-20.332031-21.59375-20.332031h-18.078125c-1.546875 0-3.003906-.359375-4.3125-.984375-1.574219 11.226563-2.394531 22.699219-2.394531 34.359375 0 3.730469.105469 7.4375.273438 11.128906 1.75-1.4375 3.992187-2.300781 6.433593-2.300781h18.582031c11.910157 0 21.515626-9.867187 21.089844-21.871094zm0 0" fill="#3342ae" data-original="#3342ae" class=""></path><path xmlns="http://www.w3.org/2000/svg" d="m83.300781 302.03125c-17.644531 0-31.949219 14.300781-31.949219 31.949219 0 17.644531 14.300782 31.949219 31.949219 31.949219 17.644531 0 31.949219-14.304688 31.949219-31.949219 0-17.648438-14.304688-31.949219-31.949219-31.949219zm0 0" fill="#3d4ec6" data-original="#3d4ec6" class=""></path><path xmlns="http://www.w3.org/2000/svg" d="m114.683594 328.003906c-2.175782 9.378906-10.566406 16.378906-20.609375 16.378906-11.695313 0-21.175781-9.480468-21.175781-21.175781 0-10.042969 6.996093-18.433593 16.378906-20.609375-1.9375-.367187-3.933594-.566406-5.976563-.566406-17.644531 0-31.949219 14.300781-31.949219 31.949219 0 17.644531 14.304688 31.949219 31.949219 31.949219s31.949219-14.304688 31.949219-31.949219c0-2.042969-.199219-4.039063-.566406-5.976563zm0 0" fill="#3342ae" data-original="#3342ae" class=""></path><path xmlns="http://www.w3.org/2000/svg" d="m231.9375 302.03125c17.648438 0 31.953125 14.300781 31.953125 31.949219 0 17.644531-14.304687 31.949219-31.949219 31.949219-17.644531 0-31.949218-14.304688-31.949218-31.949219-.003907-17.648438 14.300781-31.949219 31.945312-31.949219zm0 0" fill="#3d4ec6" data-original="#3d4ec6" class=""></path><path xmlns="http://www.w3.org/2000/svg" d="m407.121094 232.316406c-.472656-13.324218-11.925782-24.160156-25.527344-24.160156h-16.945312c-2.332032 0-4.230469-1.898438-4.230469-4.234375v-16.945313c0-13.601562-10.839844-25.054687-24.160157-25.527343-14.386718-.503907-25.980468 11.011719-25.980468 25.054687v17.417969c0 2.335937-1.898438 4.234375-4.230469 4.234375h-16.945313c-13.601562 0-25.054687 10.835938-25.527343 24.160156-.507813 14.234375 10.855469 25.980469 25.054687 25.980469h17.417969c2.332031 0 4.230469 1.894531 4.230469 4.230469v16.945312c0 22.191406 26.433594 33.996094 42.480468 18.511719 4.9375-4.765625 7.660157-11.171875 7.660157-18.039063v-17.417968c0-2.335938 1.898437-4.230469 4.230469-4.230469h17.417968c14.1875 0 25.5625-11.730469 25.054688-25.980469zm0 0" fill="#3d4ec6" data-original="#3d4ec6" class=""></path><path xmlns="http://www.w3.org/2000/svg" d="m289.101562 208.15625c-13.601562 0-25.054687 10.835938-25.527343 24.160156-.507813 14.234375 10.855469 25.980469 25.054687 25.980469h17.417969c2.332031 0 4.230469 1.894531 4.230469 4.230469v16.945312c0 22.191406 26.433594 33.996094 42.480468 18.511719-29.140624-10.773437-17.410156-37.820313-17.410156-37.820313-39.546875-13.59375-29.300781-52.007812-29.300781-52.007812zm0 0" fill="#3342ae" data-original="#3342ae" class=""></path><path xmlns="http://www.w3.org/2000/svg" d="m401.847656 233.226562c0 10.921876-8.855468 19.777344-19.78125 19.777344-10.921875 0-19.777344-8.855468-19.777344-19.777344 0-10.925781 8.855469-19.78125 19.777344-19.78125 10.925782 0 19.78125 8.855469 19.78125 19.78125zm0 0" fill="#eb5793" data-original="#eb5793"></path><path xmlns="http://www.w3.org/2000/svg" d="m388.042969 241.054688c-7.625 0-13.804688-6.179688-13.804688-13.804688 0-6.671875 4.730469-12.234375 11.023438-13.523438-1.042969-.167968-2.101563-.28125-3.191407-.28125-10.925781 0-19.78125 8.855469-19.78125 19.78125 0 10.921876 8.855469 19.777344 19.78125 19.777344 10.921876 0 19.777344-8.855468 19.777344-19.777344 0-1.089843-.109375-2.152343-.28125-3.195312-1.285156 6.292969-6.851562 11.023438-13.523437 11.023438zm0 0" fill="#e7387f" data-original="#e7387f"></path><path xmlns="http://www.w3.org/2000/svg" d="m263.324219 328.003906c-2.175781 9.378906-10.566407 16.378906-20.609375 16.378906-11.695313 0-21.179688-9.480468-21.179688-21.175781 0-10.042969 7-18.433593 16.378906-20.609375-1.933593-.367187-3.929687-.566406-5.972656-.566406-17.644531 0-31.953125 14.300781-31.953125 31.949219 0 17.644531 14.304688 31.949219 31.953125 31.949219 17.644532 0 31.949219-14.304688 31.949219-31.949219 0-2.042969-.203125-4.039063-.566406-5.976563zm0 0" fill="#3342ae" data-original="#3342ae" class=""></path><path xmlns="http://www.w3.org/2000/svg" d="m308.40625 233.226562c0 10.921876-8.855469 19.777344-19.777344 19.777344-10.925781 0-19.78125-8.855468-19.78125-19.777344 0-10.925781 8.855469-19.78125 19.78125-19.78125 10.921875 0 19.777344 8.855469 19.777344 19.78125zm0 0" fill="#31a7ed" data-original="#31a7ed" class=""></path><path xmlns="http://www.w3.org/2000/svg" d="m294.601562 241.054688c-7.625 0-13.804687-6.179688-13.804687-13.804688 0-6.671875 4.730469-12.234375 11.023437-13.523438-1.042968-.167968-2.101562-.28125-3.191406-.28125-10.925781 0-19.78125 8.855469-19.78125 19.78125 0 10.921876 8.855469 19.777344 19.78125 19.777344 10.921875 0 19.777344-8.855468 19.777344-19.777344 0-1.089843-.109375-2.152343-.28125-3.195312-1.285156 6.292969-6.851562 11.023438-13.523438 11.023438zm0 0" fill="#1296d8" data-original="#1296d8"></path><path xmlns="http://www.w3.org/2000/svg" d="m355.128906 186.503906c0 10.925782-8.855468 19.78125-19.78125 19.78125-10.925781 0-19.78125-8.855468-19.78125-19.78125 0-10.921875 8.855469-19.777344 19.78125-19.777344 10.925782 0 19.78125 8.855469 19.78125 19.777344zm0 0" fill="#f6d100" data-original="#f6d100"></path><path xmlns="http://www.w3.org/2000/svg" d="m341.320312 194.335938c-7.625 0-13.804687-6.183594-13.804687-13.804688 0-6.671875 4.734375-12.238281 11.023437-13.527344-1.039062-.167968-2.101562-.28125-3.191406-.28125-10.921875 0-19.78125 8.855469-19.78125 19.78125 0 10.925782 8.859375 19.78125 19.78125 19.78125 10.925782 0 19.78125-8.855468 19.78125-19.78125 0-1.089844-.113281-2.148437-.28125-3.191406-1.289062 6.289062-6.855468 11.023438-13.527344 11.023438zm0 0" fill="#f2ba00" data-original="#f2ba00"></path><path xmlns="http://www.w3.org/2000/svg" d="m355.128906 279.945312c0 10.925782-8.855468 19.78125-19.78125 19.78125-10.925781 0-19.78125-8.855468-19.78125-19.78125 0-10.921874 8.855469-19.78125 19.78125-19.78125 10.925782 0 19.78125 8.859376 19.78125 19.78125zm0 0" fill="#9ed369" data-original="#9ed369"></path><path xmlns="http://www.w3.org/2000/svg" d="m341.324219 287.777344c-7.625 0-13.804688-6.179688-13.804688-13.804688 0-6.671875 4.730469-12.238281 11.019531-13.527344-1.039062-.167968-2.101562-.28125-3.191406-.28125-10.921875 0-19.777344 8.859376-19.777344 19.78125 0 10.925782 8.855469 19.78125 19.777344 19.78125 10.925782 0 19.78125-8.855468 19.78125-19.78125 0-1.089843-.109375-2.148437-.28125-3.191406-1.289062 6.292969-6.855468 11.023438-13.523437 11.023438zm0 0" fill="#82cd64" data-original="#82cd64"></path></g></svg>