<svg xmlns="http://www.w3.org/2000/svg" version="1.1" xmlns:xlink="http://www.w3.org/1999/xlink" xmlns:svgjs="http://svgjs.com/svgjs" width="512" height="512" x="0" y="0" viewBox="0 0 512 512" style="enable-background:new 0 0 512 512" xml:space="preserve" class=""><g><path xmlns="http://www.w3.org/2000/svg" d="m256.829 11.001c1.892.006 3.78.034 5.662.083 6.334.165 46.447 16.127 46.508 31.922.002.665-21.999 246.994-245.642 245.957-11.735-.054-23.276-.885-34.568-2.511-9.657-1.39-17.087-9.361-17.531-19.108-.189-4.144-.275-8.315-.255-12.51.631-135.623 110.202-244.282 245.826-243.833z" fill="#012d4e" data-original="#012d4e"></path><path xmlns="http://www.w3.org/2000/svg" d="m256 501c-133.653 0-242.31-107.021-244.951-240.042.018-.92.04-1.838.068-2.756 1.263-42.046 43.272-70.022 83.061-56.374 11.36 3.897 23.565 5.974 36.267 5.884 59.071-.419 107.534-48.428 108.479-107.493.232-14.471-2.35-28.312-7.234-41.01-8.641-22.466 7.208-46.546 30.8-48.124 132.31 3.44 238.51 111.775 238.51 244.915 0 135.31-109.69 245-245 245z" fill="#ade8f0" data-original="#ade8f0"></path><path xmlns="http://www.w3.org/2000/svg" d="m500.952 251.113c.032 1.625.048 3.254.048 4.887 0 135.31-109.69 245-245 245-133.653 0-242.31-107.021-244.951-240.042.018-.92.04-1.838.068-2.756.397-13.208 4.814-25.026 11.92-34.604 18.547 116.93 119.816 219.402 241.963 219.402 112.371 0 223-77.853 235.952-191.887z" fill="#acd1fd" data-original="#acd1fd"></path><path xmlns="http://www.w3.org/2000/svg" d="m170 395c0 30.507-18.215 56.76-44.362 68.477-41.189-25.935-74.114-63.795-93.927-108.736 13.314-20.887 36.684-34.741 63.289-34.741 41.421 0 75 33.579 75 75z" fill="#fde803" data-original="#fde803"></path><path xmlns="http://www.w3.org/2000/svg" d="m65.679 410.294c-13.651-16.817-25.117-35.479-33.968-55.554 13.314-20.886 36.684-34.74 63.289-34.74 7.677 0 15.084 1.154 22.059 3.297-30.656 9.42-52.941 37.959-52.941 71.703 0 5.241.538 10.356 1.561 15.294zm-10.131 4.148c-16.764-2.679-22.121-14.442-37.27-14.442-.232 0-.463.002-.694.007-23.445.51-23.445 35.813 0 36.323.231.005.462.008.694.008 12.993 0 35.6-11.639 37.27-21.896zm-4.97 72.699c0 .316.003.63.01.944.694 31.887 48.708 31.887 49.401 0 .007-.313.01-.628.01-.944 0-20.603-15.999-27.889-19.642-50.689-13.949 2.272-29.779 33.018-29.779 50.689z" fill="#f5c02c" data-original="#f5c02c"></path><path xmlns="http://www.w3.org/2000/svg" d="m79 476c8.284 0 15 6.716 15 15s-6.716 15-15 15-15-6.716-15-15 6.716-15 15-15zm-73.667-61.5c0 5.523 4.477 10 10 10s10-4.477 10-10-4.477-10-10-10-10 4.477-10 10z" fill="#fde803" data-original="#fde803"></path><path xmlns="http://www.w3.org/2000/svg" d="m400 430c0 9.752-1.745 19.096-4.94 27.738-33.099 22.859-72.099 37.782-114.25 42.021-24.358-13.714-40.81-39.815-40.81-69.759 0-44.183 35.817-80 80-80s80 35.817 80 80z" fill="#fd4343" data-original="#fd4343"></path><path xmlns="http://www.w3.org/2000/svg" d="m287.059 430c0 25.646 12.069 48.474 30.836 63.114-12.027 3.131-24.414 5.371-37.085 6.645-24.358-13.713-40.81-39.815-40.81-69.759 0-44.183 35.817-80 80-80 8.189 0 16.09 1.23 23.529 3.517-32.699 10.047-56.47 40.489-56.47 76.483z" fill="#e43950" data-original="#e43950"></path><path xmlns="http://www.w3.org/2000/svg" d="m420 230c33.137 0 60 26.863 60 60s-26.863 60-60 60-60-26.863-60-60 26.863-60 60-60z" fill="#0ab59e" data-original="#0ab59e"></path><path xmlns="http://www.w3.org/2000/svg" d="m437.647 347.363c-5.579 1.714-11.505 2.637-17.647 2.637-33.137 0-60-26.863-60-60s26.863-60 60-60c6.142 0 12.068.923 17.647 2.637-24.525 7.536-42.353 30.367-42.353 57.363s17.828 49.827 42.353 57.363z" fill="#01988c" data-original="#01988c"></path><path xmlns="http://www.w3.org/2000/svg" d="m410 120c22.091 0 40 17.909 40 40s-17.909 40-40 40-40-17.909-40-40 17.909-40 40-40z" fill="#00429a" data-original="#00429a"></path><path xmlns="http://www.w3.org/2000/svg" d="m421.765 198.242c-3.72 1.143-7.67 1.758-11.765 1.758-22.091 0-40-17.909-40-40s17.909-40 40-40c4.094 0 8.045.615 11.765 1.758-16.35 5.024-28.235 20.245-28.235 38.242s11.885 33.218 28.235 38.242z" fill="#012d4e" data-original="#012d4e"></path><path xmlns="http://www.w3.org/2000/svg" d="m249.945 289.383-27.328-27.328 185.338-239.512c21.421-27.683 62.277-30.277 87.028-5.526 24.751 24.751 22.156 65.607-5.526 87.028z" fill="#d98800" data-original="#d98800"></path><path xmlns="http://www.w3.org/2000/svg" d="m489.457 104.045-238.969 184.918-13.496-16.422 207.774-220.331c16.975-18.001 42.394-22.58 63.687-14.167 8.416 22.936 1.766 49.935-18.996 66.002z" fill="#f4aa39" data-original="#f4aa39"></path><path xmlns="http://www.w3.org/2000/svg" d="m87.101 410.295c-2.076-1.114-2.676-3.816-1.345-5.761 35.969-52.571 19.802-98.986 60.971-140.155.644-.644 1.293-1.279 1.947-1.906 66.512-63.68 164.532 34.34 100.852 100.852-.626.654-1.261 1.303-1.906 1.947-34.793 34.795-124.481 64.358-160.519 45.023z" fill="#d63d24" data-original="#d63d24"></path><path xmlns="http://www.w3.org/2000/svg" d="m100.455 414.891c19.93-34.503 24.7-68.457 61.282-93.192.755-.51 1.513-1.011 2.274-1.501 40.165-25.902 80.399-7.425 99.305 23.783-3.286 6.619-7.829 13.12-13.789 19.345-.626.654-1.262 1.303-1.906 1.948-31.053 31.051-105.826 57.936-147.166 49.617z" fill="#ef5300" data-original="#ef5300"></path><path xmlns="http://www.w3.org/2000/svg" d="m278.967 269.251c5.358 5.358 5.358 14.045 0 19.403s-14.045 5.358-19.403 0l-36.218-36.218c-5.358-5.358-5.358-14.045 0-19.403s14.045-5.358 19.403 0l1.311 1.312 44.014-56.879 46.461 46.46-56.88 44.015z" fill="#3180c2" data-original="#3180c2"></path><path xmlns="http://www.w3.org/2000/svg" d="m278.486 289.112c-5.464 4.972-13.973 4.492-19.196-.732l-18.204-18.204c-5.154-5.154-5.716-13.525-.91-19.005 4.882-5.567 13.09-6.182 18.707-1.844l1.328 1.169c5.358 5.358 14.045 5.358 19.403 0 5.358-5.358 5.358-14.045 0-19.403-1.014-1.014-1.038-2.649-.054-3.692l28.368-30.082 26.608 26.608-56.88 44.014 1.311 1.311c5.513 5.513 5.353 14.552-.481 19.86z" fill="#75a5d3" data-original="#75a5d3"></path></g></svg>