<svg xmlns="http://www.w3.org/2000/svg" xmlns:xlink="http://www.w3.org/1999/xlink" xmlns:svgjs="http://svgjs.com/svgjs" version="1.1" width="512" height="512" x="0" y="0" viewBox="0 0 512 512" style="enable-background:new 0 0 512 512" xml:space="preserve" class=""><g><g xmlns="http://www.w3.org/2000/svg"><path d="m511.998 256c0 74.845-32.118 142.187-83.324 188.997-1.781 1.629-10.444-1.363-12.271.216-44.864 38.754-98.446 61.021-162.382 61.021-4.25 0-6.497 5.662-10.696 5.458-135.497-6.607-243.325-118.557-243.325-255.692 0-141.385 114.615-256 255.999-256s255.999 114.615 255.999 256z" fill="#fbc56d" data-original="#fbc56d" class=""/><path d="m488.498 256c0 128.406-104.093 232.5-232.499 232.5s-232.499-104.094-232.499-232.5 104.093-232.5 232.499-232.5 232.499 104.094 232.499 232.5z" fill="#ffdf8e" data-original="#ffdf8e" class=""/><path d="m501.166 152.021-81.955 298.17c-2.572 2.116-5.186 4.184-7.84 6.2-.66.501-1.975 4.58-2.64 5.075-33.517 24.955-73.348 41.903-116.661 48.012-1.771.25-6.918-1.748-8.7-1.534-4.975.595-9.993 1.048-15.052 1.354l-68.381-16.997c-8.002-2.144-12.751-10.369-10.607-18.371l101.086-377.258c2.144-8.002 10.369-12.751 18.371-10.607l183.473 48.553c6.03 10.861 4.484 5.647 8.906 17.403z" fill="#0571b5" data-original="#0571b5"/><path d="m345.135 95.805c-6.868-1.84-13.928 2.235-15.768 9.104l-102.186 381.364c-1.84 6.868 2.236 13.928 9.104 15.768l-38.401-10.29c-6.868-1.84-10.944-8.9-9.104-15.768l102.186-381.364c1.84-6.868 8.9-10.944 15.768-9.104z" fill="#05609b" data-original="#05609b"/><path d="m408.474 148.062c-.898 3.351-3.929 5.561-7.24 5.561-.643 0-1.295-.083-1.946-.258l-24.871-6.664c-4.001-1.071-6.375-5.185-5.304-9.186 1.073-4.001 5.187-6.377 9.186-5.303l24.871 6.664c4.001 1.072 6.376 5.185 5.304 9.186z" fill="#012d4e" data-original="#012d4e"/><path d="m392.162 106.287c0 4.931-4.677 8.521-9.441 7.244l-75.875-20.221c-.646-.173-1.303-.259-1.954-.259-1.299 0-2.582.341-3.737 1.008-1.735 1.002-2.976 2.619-3.494 4.555l-101.086 377.258c-1.07 3.994 1.309 8.115 5.303 9.186l90.811 24.333c-11.982 1.72-24.233 2.61-36.691 2.61-4.25 0-8.476-.104-12.675-.309l-45.328-12.146c-11.984-3.211-19.121-15.573-15.91-27.557l101.087-377.259c1.556-5.805 5.279-10.657 10.483-13.662 5.206-3.005 11.27-3.802 17.074-2.247l75.874 20.221c3.279.879 5.559 3.85 5.559 7.245zm87.025 113.713c-3.395 0-6.366 2.28-7.245 5.559l-63.211 235.908c6.925-5.156 13.581-10.654 19.943-16.47l57.758-215.556c1.276-4.763-2.313-9.441-7.245-9.441z" fill="#d93131" data-original="#d93131"/><path d="m512 164.719c0 .641-.083 1.293-.257 1.941l-6.665 24.872c-.898 3.351-3.929 5.561-7.24 5.561-.643 0-1.296-.083-1.946-.258-.228-.061-.45-.132-.667-.212l-3.021 11.275c.228.039.456.088.684.149 3.352.898 5.563 3.931 5.561 7.244 0 .641-.083 1.293-.257 1.941l-6.665 24.872c-.898 3.351-3.929 5.561-7.24 5.561-.643 0-1.296-.083-1.946-.258-.228-.061-.449-.132-.666-.212l-5.129 19.143c-.879 3.279-3.85 5.559-7.245 5.559-4.931 0-8.521-4.678-7.244-9.441l29.948-111.768c1.072-4.001-1.302-8.114-5.304-9.187l-107.234-28.799c-3.279-.878-5.559-3.85-5.559-7.244 0-4.931 4.677-8.521 9.441-7.244l107.234 28.799c11.984 3.211 19.121 15.573 15.911 27.557l-.738 2.756c.228.039.456.088.684.149 3.352.898 5.562 3.93 5.56 7.244z" fill="#f72c2c" data-original="#f72c2c" class=""/><path d="m295.569 61.757v25.749c0 3.556-2.882 6.438-6.437 6.438-.611 0-1.202-.085-1.762-.244v350.43c0 10.648-8.663 19.312-19.312 19.312h-190.451c-10.649 0-19.312-8.664-19.312-19.312v-298.075c-.56.159-1.151.245-1.762.245-3.555 0-6.437-2.882-6.437-6.438v-25.749c0-3.556 2.882-6.437 6.437-6.437.611 0 1.202.085 1.762.244v-14.221c-.56.159-1.151.244-1.762.244-3.555 0-6.437-2.882-6.437-6.438v-25.748c0-3.555 2.882-6.437 6.437-6.437.611 0 1.202.085 1.762.244v-6.252c0-10.648 8.663-19.312 19.312-19.312h190.45c10.649 0 19.312 8.664 19.312 19.312v6.252c.56-.159 1.151-.244 1.762-.244 3.556 0 6.438 2.882 6.438 6.437z" fill="#ff4343" data-original="#ff4343" class=""/><path d="m129.105 463.441h-51.498c-10.649 0-19.312-8.664-19.312-19.312v-298.074c-.56.159-1.151.245-1.762.245-3.555 0-6.437-2.882-6.437-6.438v-25.749c0-3.556 2.882-6.437 6.437-6.437.611 0 1.202.085 1.762.244v-14.221c-.56.159-1.151.244-1.762.244-3.555 0-6.437-2.882-6.437-6.438v-25.748c0-3.555 2.882-6.437 6.437-6.437.611 0 1.202.085 1.762.244v-6.252c0-10.648 8.663-19.312 19.312-19.312h51.498c-10.649 0-19.312 8.664-19.312 19.312v394.818c0 10.648 8.663 19.311 19.312 19.311z" fill="#f72c2c" data-original="#f72c2c" class=""/><path d="m123.093 188.785h-.084c-11.827 0-21.415-9.588-21.415-21.415v-77.331c0-11.827 9.588-21.415 21.415-21.415h.084c11.827 0 21.416 9.588 21.416 21.416v77.331c-.001 11.826-9.589 21.414-21.416 21.414z" fill="#012d4e" data-original="#012d4e"/><path d="m135.551 92.191c0 6.904-5.596 12.5-12.5 12.5s-12.5-5.596-12.5-12.5 5.596-12.5 12.5-12.5 12.5 5.597 12.5 12.5zm-12.5 24.013c-6.904 0-12.5 5.596-12.5 12.5s5.596 12.5 12.5 12.5 12.5-5.596 12.5-12.5c0-6.903-5.596-12.5-12.5-12.5zm0 41.513c-4.142 0-7.5 3.358-7.5 7.5s3.358 7.5 7.5 7.5 7.5-3.358 7.5-7.5-3.358-7.5-7.5-7.5z" fill="#013f69" data-original="#013f69"/><path d="m261.17 317.84c-1.389 2.406-3.91 3.751-6.502 3.751-1.272 0-2.562-.324-3.743-1.006l-33.978-19.617 5.797 16.333c1.386 3.904-.656 8.191-4.559 9.577-.83.294-1.676.434-2.509.434-3.086 0-5.977-1.919-7.068-4.993l-11.68-32.908-16.645-9.61v19.796l22.265 26.106c2.688 3.152 2.312 7.886-.84 10.573-1.412 1.205-3.142 1.794-4.863 1.794-2.12 0-4.227-.894-5.71-2.633l-10.852-12.725v38.771c0 4.143-3.358 7.5-7.5 7.5s-7.5-3.357-7.5-7.5v-39.233l-11.247 13.187c-2.688 3.151-7.423 3.528-10.573.839-3.152-2.688-3.528-7.421-.84-10.573l22.66-26.569v-19.277l-16.547 9.554-11.68 32.908c-1.091 3.074-3.982 4.993-7.068 4.993-.833 0-1.679-.14-2.509-.434-3.903-1.386-5.945-5.673-4.559-9.577l5.797-16.333-33.977 19.617c-1.181.682-2.471 1.006-3.743 1.006-2.592 0-5.113-1.345-6.502-3.751-2.071-3.587-.842-8.174 2.745-10.245l33.578-19.386-16.446-3.037c-4.073-.752-6.766-4.663-6.014-8.736.751-4.073 4.662-6.769 8.737-6.014l33.741 6.229 16.997-9.813-16.498-9.525-34.339 6.339c-.46.085-.918.126-1.37.126-3.547.001-6.7-2.526-7.367-6.14-.752-4.073 1.941-7.984 6.014-8.736l17.043-3.146-33.978-19.617c-3.587-2.071-4.816-6.658-2.745-10.245 2.071-3.588 6.657-4.816 10.245-2.745l33.577 19.386-5.594-15.76c-1.386-3.904.656-8.191 4.559-9.577 3.905-1.385 8.191.656 9.577 4.56l11.476 32.335 16.849 9.728v-18.878l-22.66-26.57c-2.688-3.152-2.312-7.886.84-10.574 3.15-2.688 7.885-2.312 10.573.84l11.247 13.188v-39.237c0-4.143 3.358-7.5 7.5-7.5s7.5 3.357 7.5 7.5v38.772l10.852-12.725c2.688-3.152 7.422-3.526 10.573-.84 3.152 2.688 3.528 7.422.84 10.574l-22.265 26.107v19.397l16.947-9.785 11.476-32.335c1.385-3.903 5.672-5.942 9.577-4.56 3.903 1.386 5.945 5.673 4.559 9.577l-5.594 15.76 33.577-19.386c3.586-2.07 8.174-.843 10.245 2.745 2.071 3.587.842 8.174-2.745 10.245l-33.978 19.617 17.043 3.146c4.073.752 6.766 4.663 6.014 8.736-.667 3.613-3.82 6.14-7.367 6.14-.452 0-.91-.041-1.37-.126l-34.339-6.339-16.498 9.525 16.997 9.813 33.741-6.229c4.078-.755 7.985 1.94 8.737 6.014s-1.94 7.984-6.014 8.736l-16.446 3.037 33.578 19.386c3.59 2.074 4.819 6.661 2.748 10.248zm-37.343-136.447-9.538-9.538c-1.953-1.953-1.953-5.118 0-7.071l9.538-9.538c1.953-1.953 5.118-1.953 7.071 0l9.538 9.538c1.953 1.953 1.953 5.118 0 7.071l-9.538 9.538c-1.952 1.953-5.118 1.953-7.071 0zm-104.74 204.579 9.538-9.538c1.953-1.953 1.953-5.118 0-7.071l-9.538-9.538c-1.953-1.953-5.118-1.953-7.071 0l-9.538 9.538c-1.953 1.953-1.953 5.118 0 7.071l9.538 9.538c1.952 1.953 5.118 1.953 7.071 0z" fill="#f39d0a" data-original="#f39d0a"/><path d="m241.294 285.172-16.533 3.052 6.709 3.874c3.587 2.071 4.816 6.658 2.745 10.245-1.389 2.406-3.91 3.751-6.502 3.751-1.272 0-2.562-.324-3.743-1.006l-23.221-13.407c-.923-.316-1.775-.81-2.506-1.447l-17.944-10.36v19.74l22.249 26.087c2.688 3.152 2.312 7.886-.84 10.573-1.412 1.205-3.142 1.794-4.863 1.794-2.12 0-4.227-.894-5.71-2.633l-10.836-12.705v7.646c0 4.143-3.358 7.5-7.5 7.5s-7.5-3.357-7.5-7.5v-26.467c-.286-1.172-.283-2.395 0-3.559v-20.439l-17.877 10.322c-.732.637-1.583 1.131-2.507 1.447l-23.221 13.407c-1.181.682-2.471 1.006-3.743 1.006-2.592 0-5.113-1.345-6.502-3.751-2.071-3.587-.842-8.174 2.745-10.245l6.709-3.874-16.533-3.052c-4.073-.752-6.766-4.663-6.014-8.736.751-4.073 4.662-6.769 8.737-6.014l33.827 6.245 16.911-9.764-17.868-10.316c-.919-.315-1.773-.806-2.509-1.449l-23.195-13.392c-3.587-2.071-4.816-6.658-2.745-10.245 2.071-3.588 6.658-4.815 10.245-2.745l6.685 3.859-5.623-15.843c-1.386-3.903.656-8.191 4.559-9.577 3.905-1.385 8.191.656 9.577 4.56l11.506 32.418 16.836 9.72v-20.172c-.283-1.164-.286-2.386 0-3.559v-26.468c0-4.143 3.358-7.5 7.5-7.5s7.5 3.357 7.5 7.5v7.647l10.836-12.706c2.688-3.152 7.422-3.526 10.573-.84 3.152 2.688 3.528 7.422.84 10.574l-22.249 26.088v19.473l16.902-9.758 11.506-32.418c1.385-3.903 5.672-5.942 9.577-4.56 3.903 1.386 5.945 5.674 4.559 9.577l-5.623 15.843 6.684-3.859c3.586-2.069 8.174-.843 10.245 2.745 2.071 3.587.842 8.174-2.745 10.245l-23.194 13.391c-.737.643-1.591 1.134-2.511 1.45l-17.867 10.315 16.911 9.764 33.827-6.245c4.078-.755 7.985 1.94 8.737 6.014s-1.94 7.987-6.013 8.739zm-48.943-150.347 15.085-15.085c1.953-1.953 1.953-5.118 0-7.071l-15.085-15.085c-1.953-1.953-5.118-1.953-7.071 0l-15.085 15.085c-1.953 1.953-1.953 5.118 0 7.071l15.085 15.085c1.953 1.952 5.119 1.952 7.071 0z" fill="#ffb509" data-original="#ffb509"/><path d="m235.218 94.419-9.538-9.538c-1.953-1.953-1.953-5.118 0-7.071l9.538-9.538c1.953-1.953 5.118-1.953 7.071 0l9.538 9.538c1.953 1.953 1.953 5.118 0 7.071l-9.538 9.538c-1.952 1.952-5.118 1.952-7.071 0zm-4.32 326.124 9.538-9.538c1.953-1.953 1.953-5.118 0-7.071l-9.538-9.538c-1.953-1.953-5.118-1.953-7.071 0l-9.538 9.538c-1.953 1.953-1.953 5.118 0 7.071l9.538 9.538c1.953 1.953 5.119 1.953 7.071 0z" fill="#ffc143" data-original="#ffc143"/><path d="m357.893 243.304c0 5.523-4.477 10-10 10s-10-4.477-10-10 4.477-10 10-10 10 4.477 10 10zm-287.724-58.379c0 5.523-4.477 10-10 10s-10-4.477-10-10 4.477-10 10-10 10 4.477 10 10zm248.914 102.848c-4.142 0-7.5 3.358-7.5 7.5s3.358 7.5 7.5 7.5 7.5-3.358 7.5-7.5-3.357-7.5-7.5-7.5zm-283.7-59.469c-4.142 0-7.5 3.358-7.5 7.5s3.358 7.5 7.5 7.5 7.5-3.358 7.5-7.5-3.358-7.5-7.5-7.5zm297.51-31.426c-8.284 0-15 6.716-15 15s6.716 15 15 15 15-6.716 15-15-6.715-15-15-15z" fill="#fff5f5" data-original="#fff5f5"/></g></g></svg>