<svg xmlns="http://www.w3.org/2000/svg" version="1.1" xmlns:xlink="http://www.w3.org/1999/xlink" xmlns:svgjs="http://svgjs.com/svgjs" width="512" height="512" x="0" y="0" viewBox="0 0 512 512" style="enable-background:new 0 0 512 512" xml:space="preserve" class=""><g transform="matrix(1.12,0,0,1.12,-30.720000000000027,-33.60000000000008)"><path xmlns="http://www.w3.org/2000/svg" d="m304 472h-96l16-88h64z" fill="#5a9ec4" data-original="#5a9ec4"></path><path xmlns="http://www.w3.org/2000/svg" d="m470 392h-428c-5.523 0-10-4.477-10-10v-300c0-5.523 4.477-10 10-10h428c5.523 0 10 4.477 10 10v300c0 5.523-4.477 10-10 10z" fill="#6cbdea" data-original="#6cbdea" class=""></path><path xmlns="http://www.w3.org/2000/svg" d="m392 488h-272c9.806-19.612 29.85-32 51.777-32h168.446c21.926 0 41.971 12.388 51.777 32z" fill="#457895" data-original="#457895" class=""></path><g xmlns="http://www.w3.org/2000/svg"><path d="m304 216c-4.418 0-8-3.582-8-8v-16c0-4.418 3.582-8 8-8s8 3.582 8 8v16c0 4.418-3.582 8-8 8z" fill="#2e5064" data-original="#2e5064" class=""></path></g><g xmlns="http://www.w3.org/2000/svg"><path d="m304 296c-4.418 0-8-3.582-8-8v-16c0-4.418 3.582-8 8-8s8 3.582 8 8v16c0 4.418-3.582 8-8 8z" fill="#2e5064" data-original="#2e5064" class=""></path></g><g xmlns="http://www.w3.org/2000/svg"><path d="m368 168c-4.418 0-8-3.582-8-8v-16c0-4.418 3.582-8 8-8s8 3.582 8 8v16c0 4.418-3.582 8-8 8z" fill="#99433e" data-original="#99433e"></path></g><g xmlns="http://www.w3.org/2000/svg"><path d="m368 248c-4.418 0-8-3.582-8-8v-16c0-4.418 3.582-8 8-8s8 3.582 8 8v16c0 4.418-3.582 8-8 8z" fill="#99433e" data-original="#99433e"></path></g><g xmlns="http://www.w3.org/2000/svg"><path d="m432 152c-4.418 0-8-3.582-8-8v-16c0-4.418 3.582-8 8-8s8 3.582 8 8v16c0 4.418-3.582 8-8 8z" fill="#97824a" data-original="#97824a" class=""></path></g><g xmlns="http://www.w3.org/2000/svg"><path d="m432 232c-4.418 0-8-3.582-8-8v-16c0-4.418 3.582-8 8-8s8 3.582 8 8v16c0 4.418-3.582 8-8 8z" fill="#97824a" data-original="#97824a" class=""></path></g><g xmlns="http://www.w3.org/2000/svg"><path d="m240 200c-4.418 0-8-3.582-8-8v-16c0-4.418 3.582-8 8-8s8 3.582 8 8v16c0 4.418-3.582 8-8 8z" fill="#99433e" data-original="#99433e"></path></g><g xmlns="http://www.w3.org/2000/svg"><path d="m240 280c-4.418 0-8-3.582-8-8v-16c0-4.418 3.582-8 8-8s8 3.582 8 8v16c0 4.418-3.582 8-8 8z" fill="#99433e" data-original="#99433e"></path></g><g xmlns="http://www.w3.org/2000/svg"><path d="m176 232c-4.418 0-8-3.582-8-8v-16c0-4.418 3.582-8 8-8s8 3.582 8 8v16c0 4.418-3.582 8-8 8z" fill="#97824a" data-original="#97824a" class=""></path></g><g xmlns="http://www.w3.org/2000/svg"><path d="m176 312c-4.418 0-8-3.582-8-8v-16c0-4.418 3.582-8 8-8s8 3.582 8 8v16c0 4.418-3.582 8-8 8z" fill="#97824a" data-original="#97824a" class=""></path></g><g xmlns="http://www.w3.org/2000/svg"><path d="m176.006 192.002c-2.935 0-5.76-1.621-7.162-4.424-1.976-3.952-.374-8.757 3.578-10.733l64-32c1.708-.854 3.665-1.069 5.518-.606l60.306 15.077 60.954-45.716c.853-.64 1.825-1.103 2.859-1.361l64-16c4.287-1.073 8.63 1.534 9.702 5.821s-1.535 8.63-5.821 9.702l-62.433 15.608-62.707 47.03c-1.926 1.445-4.403 1.945-6.74 1.361l-61.129-15.282-61.353 30.676c-1.149.574-2.37.847-3.572.847z" fill="#2e5064" data-original="#2e5064" class=""></path></g><path xmlns="http://www.w3.org/2000/svg" d="m32 184h96v80h-96z" fill="#457895" data-original="#457895" class=""></path><path xmlns="http://www.w3.org/2000/svg" d="m32 264h96v80h-96z" fill="#cf5a54" data-original="#cf5a54" class=""></path><g xmlns="http://www.w3.org/2000/svg"><path d="m79.998 240c-1.214 0-2.438-.276-3.575-.845l-10.843-5.421-3.923 3.923c-3.124 3.124-8.189 3.124-11.313 0-3.125-3.124-3.125-8.189 0-11.313l8-8c2.435-2.435 6.155-3.04 9.234-1.499l10.843 5.421 19.923-19.923c3.124-3.124 8.189-3.124 11.313 0 3.125 3.124 3.125 8.189 0 11.313l-24 24c-1.536 1.537-3.584 2.344-5.659 2.344z" fill="#6cbdea" data-original="#6cbdea" class=""></path></g><path xmlns="http://www.w3.org/2000/svg" d="m32 104h96v80h-96z" fill="#e6c670" data-original="#e6c670" class=""></path><g xmlns="http://www.w3.org/2000/svg"><path d="m56.001 160.002c-.838 0-1.691-.133-2.531-.413-4.191-1.397-6.457-5.928-5.06-10.119l8-24c.966-2.899 3.499-4.994 6.527-5.399 3.033-.407 6.024.95 7.718 3.492l11.562 17.343 17.344-11.562c3.676-2.451 8.643-1.458 11.094 2.219s1.458 8.643-2.219 11.094l-24 16c-3.676 2.45-8.643 1.458-11.094-2.219l-6.927-10.39-2.828 8.482c-1.115 3.352-4.236 5.472-7.586 5.472z" fill="#97824a" data-original="#97824a" class=""></path></g><g xmlns="http://www.w3.org/2000/svg"><path d="m104.007 328.001c-2.585 0-5.122-1.251-6.664-3.563l-12.611-18.916-18.203 6.067c-3.776 1.258-7.905-.451-9.685-4.012l-8-16c-1.976-3.952-.374-8.757 3.578-10.733 3.954-1.976 8.758-.374 10.733 3.578l4.897 9.794 17.418-5.806c3.421-1.14 7.185.15 9.186 3.152l16 24c2.451 3.676 1.458 8.643-2.219 11.094-1.363.909-2.905 1.345-4.43 1.345z" fill="#99433e" data-original="#99433e"></path></g><g xmlns="http://www.w3.org/2000/svg"><path d="m176 352c-4.418 0-8-3.582-8-8v-16c0-4.418 3.582-8 8-8s8 3.582 8 8v16c0 4.418-3.582 8-8 8z" fill="#99433e" data-original="#99433e"></path></g><g xmlns="http://www.w3.org/2000/svg"><path d="m200 352c-4.418 0-8-3.582-8-8v-24c0-4.418 3.582-8 8-8s8 3.582 8 8v24c0 4.418-3.582 8-8 8z" fill="#99433e" data-original="#99433e"></path></g><g xmlns="http://www.w3.org/2000/svg"><path d="m224 352c-4.418 0-8-3.582-8-8v-40c0-4.418 3.582-8 8-8s8 3.582 8 8v40c0 4.418-3.582 8-8 8z" fill="#99433e" data-original="#99433e"></path></g><g xmlns="http://www.w3.org/2000/svg"><path d="m248 352c-4.418 0-8-3.582-8-8v-32c0-4.418 3.582-8 8-8s8 3.582 8 8v32c0 4.418-3.582 8-8 8z" fill="#99433e" data-original="#99433e"></path></g><g xmlns="http://www.w3.org/2000/svg"><path d="m272 352c-4.418 0-8-3.582-8-8v-24c0-4.418 3.582-8 8-8s8 3.582 8 8v24c0 4.418-3.582 8-8 8z" fill="#99433e" data-original="#99433e"></path></g><g xmlns="http://www.w3.org/2000/svg"><path d="m296 352c-4.418 0-8-3.582-8-8v-24c0-4.418 3.582-8 8-8s8 3.582 8 8v24c0 4.418-3.582 8-8 8z" fill="#99433e" data-original="#99433e"></path></g><g xmlns="http://www.w3.org/2000/svg"><path d="m320 352c-4.418 0-8-3.582-8-8v-24c0-4.418 3.582-8 8-8s8 3.582 8 8v24c0 4.418-3.582 8-8 8z" fill="#99433e" data-original="#99433e"></path></g><g xmlns="http://www.w3.org/2000/svg"><path d="m344 352c-4.418 0-8-3.582-8-8v-40c0-4.418 3.582-8 8-8s8 3.582 8 8v40c0 4.418-3.582 8-8 8z" fill="#99433e" data-original="#99433e"></path></g><g xmlns="http://www.w3.org/2000/svg"><path d="m368 352c-4.418 0-8-3.582-8-8v-56c0-4.418 3.582-8 8-8s8 3.582 8 8v56c0 4.418-3.582 8-8 8z" fill="#99433e" data-original="#99433e"></path></g><g xmlns="http://www.w3.org/2000/svg"><path d="m392 352c-4.418 0-8-3.582-8-8v-64c0-4.418 3.582-8 8-8s8 3.582 8 8v64c0 4.418-3.582 8-8 8z" fill="#99433e" data-original="#99433e"></path></g><g xmlns="http://www.w3.org/2000/svg"><path d="m416 352c-4.418 0-8-3.582-8-8v-56c0-4.418 3.582-8 8-8s8 3.582 8 8v56c0 4.418-3.582 8-8 8z" fill="#99433e" data-original="#99433e"></path></g><g xmlns="http://www.w3.org/2000/svg"><path d="m440 352c-4.418 0-8-3.582-8-8v-88c0-4.418 3.582-8 8-8s8 3.582 8 8v88c0 4.418-3.582 8-8 8z" fill="#99433e" data-original="#99433e"></path></g><g xmlns="http://www.w3.org/2000/svg"><path d="m152 352c-4.418 0-8-3.582-8-8v-16c0-4.418 3.582-8 8-8s8 3.582 8 8v16c0 4.418-3.582 8-8 8z" fill="#99433e" data-original="#99433e"></path></g><path xmlns="http://www.w3.org/2000/svg" d="m470 392h-428c-5.523 0-10-4.477-10-10v-38h448v38c0 5.523-4.477 10-10 10z" fill="#457895" data-original="#457895" class=""></path><g xmlns="http://www.w3.org/2000/svg"><path d="m296 376h-80c-4.418 0-8-3.582-8-8s3.582-8 8-8h80c4.418 0 8 3.582 8 8s-3.582 8-8 8z" fill="#e6c670" data-original="#e6c670" class=""></path></g><g xmlns="http://www.w3.org/2000/svg"><path d="m344 376h-16c-4.418 0-8-3.582-8-8s3.582-8 8-8h16c4.418 0 8 3.582 8 8s-3.582 8-8 8z" fill="#e6c670" data-original="#e6c670" class=""></path></g><g xmlns="http://www.w3.org/2000/svg"><path d="m184 376h-16c-4.418 0-8-3.582-8-8s3.582-8 8-8h16c4.418 0 8 3.582 8 8s-3.582 8-8 8z" fill="#e6c670" data-original="#e6c670" class=""></path></g><path xmlns="http://www.w3.org/2000/svg" d="m160 224h32v64h-32z" fill="#e6c670" data-original="#e6c670" class=""></path><path xmlns="http://www.w3.org/2000/svg" d="m224 192h32v64h-32z" fill="#cf5a54" data-original="#cf5a54" class=""></path><path xmlns="http://www.w3.org/2000/svg" d="m288 208h32v64h-32z" fill="#457895" data-original="#457895" class=""></path><path xmlns="http://www.w3.org/2000/svg" d="m352 160h32v64h-32z" fill="#cf5a54" data-original="#cf5a54" class=""></path><path xmlns="http://www.w3.org/2000/svg" d="m416 144h32v64h-32z" fill="#e6c670" data-original="#e6c670" class=""></path></g></svg>