<svg xmlns="http://www.w3.org/2000/svg" version="1.1" xmlns:xlink="http://www.w3.org/1999/xlink" xmlns:svgjs="http://svgjs.com/svgjs" width="512" height="512" x="0" y="0" viewBox="0 0 512 512" style="enable-background:new 0 0 512 512" xml:space="preserve" class=""><g><g xmlns="http://www.w3.org/2000/svg"><path d="m28.049 351.475c-11.317-28.648-17.39-59.941-17.035-92.695 1.454-133.971 111.341-242.459 245.32-242.28 135.156.181 244.666 109.802 244.666 245 0 58.546-20.535 112.296-54.796 154.439-4.916 6.047-12.294 9.561-20.088 9.561h-288.615c-48.18 0-91.75-29.215-109.452-74.025z" fill="#f5c02c" data-original="#f5c02c"></path><path d="m395 115.5h57.765c7.057 9.495 13.443 19.519 19.087 30h-76.852c-8.284 0-15-6.716-15-15s6.716-15 15-15zm-70-10h50c8.284 0 15-6.716 15-15s-6.716-15-15-15h-50c-8.284 0-15 6.716-15 15s6.716 15 15 15zm119.576 110h-9.576c-8.284 0-15-6.716-15-15s-6.716-15-15-15h-129.576c-8.077 0-15.027 6.207-15.407 14.274-.406 8.614 6.458 15.726 14.983 15.726h90c8.284 0 15 6.716 15 15s6.716 15 15 15h50c8.525 0 15.389-7.111 14.983-15.726-.38-8.067-7.33-14.274-15.407-14.274zm-9.576 100h-120c-8.284 0-15 6.716-15 15s6.716 15 15 15h120c8.284 0 15-6.716 15-15s-6.716-15-15-15z" fill="#f3d373" data-original="#f3d373"></path><path d="m510.505 316.524c-2.903 4.699-9.066 6.153-13.764 3.25l-14.241-8.801v44.09c-4.318 10.442-9.338 20.521-15 30.178v-83.539l-135.047-83.463c-4.698-2.903-6.153-9.066-3.249-13.763 2.232-3.612 6.389-5.307 10.326-4.58 1.186.219 2.351.658 3.438 1.33l164.288 101.535c4.698 2.904 6.153 9.066 3.249 13.763z" fill="#174550" data-original="#174550"></path><path d="m510.505 316.524c-2.903 4.699-9.066 6.153-13.764 3.25l-81.998-50.677c-2.948-1.822-4.743-5.041-4.743-8.507 0-7.832 8.595-12.624 15.258-8.507l81.998 50.677c4.698 2.905 6.153 9.067 3.249 13.764z" fill="#235967" data-original="#235967"></path><path d="m345 165.5h-40c-2.761 0-5-2.239-5-5v-150c0-2.761 2.239-5 5-5h40c2.761 0 5 2.239 5 5v150c0 2.761-2.239 5-5 5z" fill="#d73131" data-original="#d73131"></path><path d="m345 165.5h-20c-2.761 0-5-2.239-5-5v-150c0-2.761 2.239-5 5-5h20c2.761 0 5 2.239 5 5v150c0 2.761-2.239 5-5 5z" fill="#e84444" data-original="#e84444"></path><path d="m355 45.5h-60c-2.761 0-5-2.239-5-5v-10c0-2.761 2.239-5 5-5h60c2.761 0 5 2.239 5 5v10c0 2.761-2.239 5-5 5z" fill="#f37c7c" data-original="#f37c7c"></path><path d="m206.001 15.5 176 125v285h-247.708c-45.223 0-104.185-75.369-104.292-75.625v-209.375z" fill="#fff5f5" data-original="#fff5f5"></path><path d="m232.316 37.927-173.155 124.58c-2.612 1.879-4.16 4.9-4.16 8.117v224c-9.852-14.106-18.257-29.297-25-45.358v-208.766l176-125z" fill="#e3f0fb" data-original="#e3f0fb"></path><path d="m190 85.5c0 5.523-4.477 10-10 10h-70c-5.523 0-10-4.477-10-10s4.477-10 10-10h70c5.523 0 10 4.477 10 10zm16.001-64.5c-5.523 0-10 4.477-10 10v34.5c0 5.523 4.477 10 10 10s10-4.477 10-10v-34.5c0-5.523-4.477-10-10-10z" fill="#649eb0" data-original="#649eb0"></path><path d="m310 85.5c0 5.523-4.477 10-10 10h-83.999v10c0 5.523-4.477 10-10 10s-10-4.477-10-10v-10h-26.001c-5.523 0-10-4.477-10-10s4.477-10 10-10h26.001v-10c0-5.523 4.477-10 10-10s10 4.477 10 10v10h83.999c5.523 0 10 4.477 10 10z" fill="#95bcc9" data-original="#95bcc9"></path><path d="m410.154 160.496c-1.95 2.746-5.032 4.211-8.162 4.211-2.002 0-4.024-.6-5.782-1.848l-190.209-135.093-190.21 135.093c-4.504 3.195-10.746 2.139-13.943-2.363-3.198-4.502-2.141-10.745 2.362-13.943l196-139.205c3.468-2.463 8.113-2.463 11.581 0l196 139.205c4.503 3.197 5.561 9.441 2.363 13.943z" fill="#174550" data-original="#174550"></path><path d="m410.154 160.496c-1.95 2.746-5.032 4.211-8.162 4.211-2.002 0-4.024-.6-5.782-1.848l-190.209-135.093-130.21 92.479c-6.622 4.703-15.791-.031-15.791-8.153 0-3.239 1.569-6.277 4.21-8.153l136-96.592c3.468-2.463 8.113-2.463 11.581 0l196 139.205c4.503 3.198 5.561 9.442 2.363 13.944z" fill="#235967" data-original="#235967"></path><path d="m60 366.055v25.381c0 5.371-6.988 7.401-9.903 2.891-8.982-13.895-16.596-28.757-22.651-44.397 3.463-2.796 7.877-4.46 12.681-4.43 11.088.069 19.873 9.467 19.873 20.555z" fill="#058b1c" data-original="#058b1c"></path><path d="m397.514 461.521c-39.968 28.329-88.797 44.979-141.514 44.979-76.882 0-145.603-35.346-190.521-90.75-.005-.006-2.53-2.914-5.635-7.094-1.58-2.126-3.181-4.656-4.843-7.032-1.898-2.714-3.675-5.392-5.001-7.446v-28.182c0-11.228 9.189-20.72 20.415-20.492 5.806.118 11.005 2.711 14.585 6.767 3.665-4.152 9.026-6.771 15-6.771s11.335 2.619 15 6.771c3.665-4.152 9.026-6.771 15-6.771s11.335 2.619 15 6.771c3.665-4.152 9.026-6.771 15-6.771s11.335 2.619 15 6.771c3.58-4.056 8.778-6.649 14.585-6.767 11.226-.228 20.415 9.264 20.415 20.492v49.504h172.799c24.689 0 34.857 31.745 14.715 46.021z" fill="#0ca12d" data-original="#0ca12d"></path><path d="m155 445.5h-60.773c-10.418-9.167-20.052-19.205-28.787-30h89.56c8.284 0 15 6.716 15 15s-6.716 15-15 15zm120 31h-136.569c34.9 19.125 74.965 30 117.569 30 8.452 0 16.803-.428 25.034-1.263 5.279-2.323 8.966-7.599 8.966-13.737 0-8.284-6.716-15-15-15z" fill="#058b1c" data-original="#058b1c"></path><path d="m382.001 415.5h64.558c-18.026 22.277-39.879 41.33-64.558 56.159z" fill="#31662b" data-original="#31662b"></path><path d="m305 388h-62c-2.761 0-5-2.239-5-5v-140c0-2.761 2.239-5 5-5h62c2.761 0 5 2.239 5 5v140c0 2.761-2.239 5-5 5z" fill="#e84444" data-original="#e84444"></path><path d="m258 388h-15c-2.761 0-5-2.239-5-5v-140c0-2.761 2.239-5 5-5h15z" fill="#d73131" data-original="#d73131"></path><path d="m268 324c0 2.761-2.239 5-5 5h-10c-2.761 0-5-2.239-5-5 0-2.761 2.239-5 5-5h10c2.761 0 5 2.239 5 5z" fill="#f37c7c" data-original="#f37c7c"></path><path d="m195 315.5h-80c-2.761 0-5-2.239-5-5v-60c0-2.761 2.239-5 5-5h80c2.761 0 5 2.239 5 5v60c0 2.761-2.239 5-5 5zm30-112.5v-60c0-2.761-2.239-5-5-5h-30c-2.761 0-5 2.239-5 5v60c0 2.761 2.239 5 5 5h30c2.761 0 5-2.239 5-5zm-76.875 0v-60c0-2.761-2.239-5-5-5h-30c-2.761 0-5 2.239-5 5v60c0 2.761 2.239 5 5 5h30c2.761 0 5-2.239 5-5zm153.75 0v-60c0-2.761-2.239-5-5-5h-30c-2.761 0-5 2.239-5 5v60c0 2.761 2.239 5 5 5h30c2.761 0 5-2.239 5-5z" fill="#54469b" data-original="#54469b"></path><path d="m195 315.5h-10c-2.761 0-5-2.239-5-5v-60c0-2.761 2.239-5 5-5h10c2.761 0 5 2.239 5 5v60c0 2.761-2.239 5-5 5zm-35-5v-60c0-2.761-2.239-5-5-5h-20c-2.761 0-5 2.239-5 5v60c0 2.761 2.239 5 5 5h20c2.761 0 5-2.239 5-5zm-11.875-107.5v-60c0-2.761-2.239-5-5-5h-8.125c-2.761 0-5 2.239-5 5v60c0 2.761 2.239 5 5 5h8.125c2.761 0 5-2.239 5-5zm153.75 0v-60c0-2.761-2.239-5-5-5h-8.125c-2.761 0-5 2.239-5 5v60c0 2.761 2.239 5 5 5h8.125c2.761 0 5-2.239 5-5zm-76.875 0v-60c0-2.761-2.239-5-5-5h-8.125c-2.761 0-5 2.239-5 5v60c0 2.761 2.239 5 5 5h8.125c2.761 0 5-2.239 5-5z" fill="#4f66cf" data-original="#4f66cf"></path><path d="m195 238h-82.5c-6.893 0-12.5 5.607-12.5 12.5v60c0 6.893 5.607 12.5 12.5 12.5h82.5c6.893 0 12.5-5.607 12.5-12.5v-60c0-6.893-5.607-12.5-12.5-12.5zm-80 15h31.25v55h-31.25zm77.5 55h-31.25v-55h31.25zm-79.375-92.5h30c6.893 0 12.5-5.607 12.5-12.5v-60c0-6.893-5.607-12.5-12.5-12.5h-30c-6.893 0-12.5 5.607-12.5 12.5v60c0 6.893 5.607 12.5 12.5 12.5zm2.5-70h25v55h-25zm181.25-15h-30c-6.893 0-12.5 5.607-12.5 12.5v60c0 6.893 5.607 12.5 12.5 12.5h30c6.893 0 12.5-5.607 12.5-12.5v-60c0-6.893-5.607-12.5-12.5-12.5zm-2.5 70h-25v-55h25zm-74.375-70h-30c-6.893 0-12.5 5.607-12.5 12.5v60c0 6.893 5.607 12.5 12.5 12.5h30c6.893 0 12.5-5.607 12.5-12.5v-60c0-6.893-5.607-12.5-12.5-12.5zm-2.5 70h-25v-55h25z" fill="#95bcc9" data-original="#95bcc9"></path><path d="m260 405.5h-40c-5.523 0-10-4.477-10-10v-10c0-5.523 4.477-10 10-10h40c5.523 0 10 4.477 10 10v10c0 5.523-4.477 10-10 10z" fill="#7daebd" data-original="#7daebd"></path><path d="m330 405.5h-80c-5.523 0-10-4.477-10-10v-10c0-5.523 4.477-10 10-10h80c5.523 0 10 4.477 10 10v10c0 5.523-4.477 10-10 10z" fill="#95bcc9" data-original="#95bcc9"></path><path d="m250 425.5h-50c-5.523 0-10-4.477-10-10v-10c0-5.523 4.477-10 10-10h50c5.523 0 10 4.477 10 10v10c0 5.523-4.477 10-10 10z" fill="#649eb0" data-original="#649eb0"></path><path d="m350 425.5h-110c-5.523 0-10-4.477-10-10v-10c0-5.523 4.477-10 10-10h110c5.523 0 10 4.477 10 10v10c0 5.523-4.477 10-10 10z" fill="#7daebd" data-original="#7daebd"></path></g></g></svg>