<svg xmlns="http://www.w3.org/2000/svg" version="1.1" xmlns:xlink="http://www.w3.org/1999/xlink" xmlns:svgjs="http://svgjs.com/svgjs" width="512" height="512" x="0" y="0" viewBox="0 0 512 512" style="enable-background:new 0 0 512 512" xml:space="preserve" class=""><g transform="matrix(1.01,0,0,1.01,-2.559999952316275,-7.560000000000002)"><g xmlns="http://www.w3.org/2000/svg"><path d="m124.25 473.591c3.042 1.944 6.131 3.821 9.263 5.632h244.976c3.131-1.811 6.221-3.688 9.262-5.631l61.343-55.786c32.519-41.579 51.905-93.926 51.905-150.803 0-135.309-109.689-244.998-244.998-244.998s-244.999 109.69-244.999 244.998c0 56.877 19.386 109.224 51.906 150.804z" fill="#142766" data-original="#142766" class=""></path><path d="m449.093 417.805c-1.059-5.183-2.328-10.514-3.846-15.971 0 0 10.993-102.115-66.28-108.432-5.684-.465-8.707-2.67-15.405-6.447-8.918-5.029-17.919-9.353-27.212-12.956-8.381 36.622-41.225 64.026-80.35 64.026-39.126 0-71.97-27.404-80.35-64.026-9.293 3.604-18.294 7.928-27.212 12.956-6.698 3.777-9.721 5.982-15.405 6.447-77.273 6.317-66.28 108.432-66.28 108.432-1.519 5.457-2.788 10.788-3.847 15.971 17.114 21.881 37.863 40.781 61.343 55.786.73-8.773 1.156-17.555 1.4-25.279.02-.624.53-1.113 1.154-1.113.573 0 1.056.421 1.138.988 1.541 10.61 3.709 20.926 5.57 31.035 36.035 20.843 77.867 32.778 122.489 32.778s86.454-11.935 122.488-32.778c1.861-10.109 4.029-20.425 5.57-31.035.082-.567.566-.988 1.138-.988.624 0 1.134.489 1.154 1.113.244 7.724.67 16.506 1.4 25.279 23.48-15.005 44.23-33.905 61.343-55.786z" fill="#4fabf7" data-original="#4fabf7" class=""></path><path d="m191.327 306.616c-7.455-9.432-12.909-20.516-15.678-32.617-9.293 3.604-18.294 7.928-27.212 12.956-6.698 3.777-9.722 5.982-15.405 6.447-77.273 6.317-66.28 108.432-66.28 108.432-1.519 5.457-2.788 10.788-3.847 15.971 9.037 11.554 19.096 22.267 30.027 32.024 1.43-11.961 6.675-26.292 12.499-68.023 6.758-48.408 55.879-67.8 85.896-75.19z" fill="#2e8be6" data-original="#2e8be6"></path><path d="m256 318.08c30.303 0 55.627-21.689 61.287-50.356-5.646-1.874-10.296-6.07-12.544-11.608-3.351-8.252-4.435-18.191-4.7-25.884-4.448 5.182-9.117 9.515-13.578 12.98-8.691 6.749-19.417 10.416-30.464 10.416-11.046 0-21.772-3.666-30.464-10.416-4.461-3.464-9.13-7.798-13.579-12.98-.265 7.692-1.35 17.631-4.701 25.884-2.249 5.538-6.898 9.734-12.544 11.608 5.66 28.668 30.984 50.356 61.287 50.356z" fill="#ffba87" data-original="#ffba87" class=""></path><path d="m225.536 243.212c-4.461-3.464-9.13-7.798-13.579-12.98-.265 7.692-1.35 17.631-4.701 25.884-2.249 5.538-6.898 9.734-12.544 11.608 2.7 13.674 9.881 25.752 19.935 34.654 30.48 1.746 38.604-33.685 40.675-48.764-10.806-.147-21.272-3.79-29.786-10.402z" fill="#ffa270" data-original="#ffa270" class=""></path><path d="m256 339.272c39.648 0 72.945-27.722 81.523-64.8-6.239-2.467-12.601-4.624-19.165-6.421-.771-.211-1.525-.465-2.26-.759-5.473 28.189-30.333 49.542-60.098 49.542s-54.626-21.353-60.098-49.543c-.735.294-1.489.548-2.26.759-6.565 1.798-12.926 3.954-19.165 6.421 8.578 37.079 41.874 64.801 81.523 64.801z" fill="#73c3f9" data-original="#73c3f9"></path><path d="m215.043 301.068c-9.675-8.729-16.563-20.492-19.142-33.777-.734.294-1.489.548-2.26.759-6.564 1.798-12.926 3.954-19.165 6.421 2.781 12.021 8.174 23.049 15.525 32.477 14.318-3.628 24.646-4.571 24.646-4.571z" fill="#4fabf7" data-original="#4fabf7" class=""></path><path d="m262.562 400.669h-13.123c-3.691 0-6.684 2.992-6.684 6.684v44.234c0 3.691 2.992 6.684 6.684 6.684h13.123c3.691 0 6.684-2.992 6.684-6.684v-44.234c-.001-3.692-2.993-6.684-6.684-6.684z" fill="#ffdd40" data-original="#ffdd40" class=""></path><path d="m256 451.586v-44.234c0-3.671 2.959-6.647 6.623-6.681-.021 0-.04-.003-.061-.003h-13.124c-3.691 0-6.684 2.992-6.684 6.684v44.234c0 3.691 2.992 6.684 6.684 6.684h13.124c.021 0 .04-.003.061-.003-3.663-.033-6.623-3.01-6.623-6.681z" fill="#ffb332" data-original="#ffb332"></path><path d="m350.193 374.025h-43.568c-2.911 0-5.27 2.359-5.27 5.27v25.137c0 1.398.555 2.738 1.543 3.726l18.691 18.691c3.766 3.766 9.872 3.766 13.638 0l18.691-18.691c.988-.988 1.543-2.329 1.543-3.726v-25.137c.002-2.911-2.357-5.27-5.268-5.27z" fill="#2e8be6" data-original="#2e8be6"></path><path d="m329.953 405.519c-.988-.988-1.544-2.328-1.544-3.726v-25.137c0-.963.277-1.854.729-2.631h-22.513c-2.911 0-5.27 2.359-5.27 5.27v25.137c0 1.398.555 2.738 1.543 3.726l18.691 18.691c3.766 3.766 9.872 3.766 13.638 0l8.027-8.027z" fill="#1d78db" data-original="#1d78db" class=""></path><g><path d="m256 394.987c-5.543 0-10.458-3.113-12.827-8.125l-55.346-117.086c-1.471-3.112-.141-6.828 2.972-8.298 3.111-1.472 6.827-.142 8.299 2.971l55.346 117.086c.385.815 1.059.986 1.557.986.498 0 1.172-.171 1.557-.986l55.345-117.086c1.472-3.112 5.189-4.443 8.299-2.971 3.112 1.471 4.443 5.186 2.972 8.298l-55.345 117.086c-2.371 5.012-7.286 8.125-12.829 8.125z" fill="#bec8f7" data-original="#bec8f7"></path></g><g><path d="m256 407.169c-3.442 0-6.233-2.79-6.233-6.233v-17.521c0-3.443 2.791-6.233 6.233-6.233s6.233 2.79 6.233 6.233v17.521c0 3.443-2.791 6.233-6.233 6.233z" fill="#e9efff" data-original="#e9efff" class=""></path></g><g><path d="m260.077 427.034h-8.153c-3.442 0-6.233-2.79-6.233-6.233s2.791-6.233 6.233-6.233h8.153c3.442 0 6.233 2.79 6.233 6.233-.001 3.443-2.791 6.233-6.233 6.233z" fill="#ff9100" data-original="#ff9100"></path></g><g><path d="m189.153 381.806h-20.181c-3.442 0-6.233-2.79-6.233-6.233s2.791-6.233 6.233-6.233h20.181c3.442 0 6.233 2.79 6.233 6.233s-2.791 6.233-6.233 6.233z" fill="#73c3f9" data-original="#73c3f9"></path></g><path d="m338.241 132.944c-1.003-.919-2.298-1.426-3.699-1.647-.448 5.001-1.126 9.476-2.035 13.173-1.043 4.244-4.469 6.979-8.303 7.594l-2.614 19.038c0 2.056-.065 4.072-.184 6.054 8.538 2.575 12.779-5.09 13.494-10.35.308-2.264.81-4.496 1.508-6.674 2.271-7.094 10.464-19.278 1.833-27.188z" fill="#ffba87" data-original="#ffba87" class=""></path><path d="m187.796 152.063c-3.832-.612-7.259-3.34-8.304-7.594-1.118-4.547-1.754-8.963-2.111-13.159-1.371.229-2.638.732-3.622 1.634-8.632 7.91-.438 20.094 1.833 27.187.697 2.178 1.2 4.41 1.508 6.674.715 5.26 4.956 12.926 13.494 10.35-.119-1.982-.184-3.999-.184-6.054z" fill="#ffa270" data-original="#ffa270" class=""></path><path d="m316 149.831c-25.195-20.743-55.556-21.464-59.53-21.464-20.091 0-43.472 7.468-60.471 21.464-2.968 2.443-6.71 2.904-9.914 1.815l2.675 19.454c0 42.118 25.483 66.453 36.438 74.96 18.004 13.979 43.47 14.081 61.602 0 10.957-8.506 36.439-32.841 36.434-74.885l2.682-19.531c-3.201 1.092-6.942.635-9.916-1.813z" fill="#ffd19e" data-original="#ffd19e" class=""></path><path d="m266.656 243.271c-10.955-10.764-36.438-41.55-36.438-94.837l-1.706-15.693c-11.7 3.586-23.088 9.33-32.513 17.09-2.968 2.442-6.71 2.904-9.914 1.815l2.675 19.454c0 42.119 25.483 66.453 36.438 74.96 15.214 11.813 35.756 13.714 52.7 5.523-3.956-2.107-7.741-4.873-11.242-8.312z" fill="#ffba87" data-original="#ffba87" class=""></path><path d="m400.575 69.209c-14.177 8.38-32.599 24.758-29.334 52.326 7.667 64.743-43.333 110.74 6 127.658s79.667 32.727 91.167 64.155c4.885 13.349 14.46 17.871 23.86 18.656 5.684-20.702 8.731-42.496 8.731-65.003-.001-81.232-39.546-153.218-100.424-197.792z" fill="#2a428c" data-original="#2a428c" class=""></path><path d="m111.425 69.209c14.177 8.38 32.599 24.758 29.334 52.326-7.667 64.743 43.333 110.74-6 127.658-49.334 16.918-79.667 32.727-91.167 64.155-4.885 13.349-14.46 17.871-23.86 18.656-5.684-20.702-8.731-42.496-8.731-65.003.001-81.232 39.546-153.218 100.424-197.792z" fill="#2a428c" data-original="#2a428c" class=""></path><path d="m265.987 11.651c.937-6.111-3.775-11.651-9.987-11.651-6.205 0-10.926 5.53-9.987 11.651 1.253-.01 19.067-.007 19.974 0z" fill="#e9efff" data-original="#e9efff" class=""></path><path d="m259.03.472c-.954-.299-1.968-.472-3.03-.472-6.205 0-10.926 5.53-9.987 11.651.722-.006 6.946-.007 12.264-.006-3.978-2.518-3.907-9.332.753-11.173z" fill="#bec8f7" data-original="#bec8f7"></path><path d="m206.109 45.51c8.922-20.897 23.742-33.665 39.911-34.533-.288 0-.546 0-.766 0-22.12 0-42.769 11.124-54.896 29.622-5.519 8.418-14.638 35.943-14.638 66.967v13.822l.578.331c1.9-1.081 8.446-4.616 18.837-8.316 1.122-31.343 6.922-58.402 10.974-67.893z" fill="#e80054" data-original="#e80054" class=""></path><path d="m321.641 40.6c-12.128-18.499-32.777-29.622-54.896-29.622-.243 0-.501 0-.766 0 16.168.868 30.989 13.636 39.911 34.533 4.053 9.492 9.853 36.551 10.975 67.894 10.391 3.7 16.937 7.236 18.837 8.316l.578-.331v-13.822c0-31.025-9.12-58.55-14.639-66.968z" fill="#ff4155" data-original="#ff4155" class=""></path><path d="m256 103.154c26.168 0 47.228 5.359 61.202 10.37-1.141-32.011-7.195-59.221-11.005-68.144-8.269-19.367-21.718-31.85-36.525-34.329-.973-.043-1.948-.073-2.927-.073-5.824 0-18.059 0-21.49 0-.979 0-1.954.03-2.927.073-14.807 2.479-28.256 14.962-36.525 34.329-3.81 8.924-9.863 36.134-11.005 68.144 13.974-5.011 35.034-10.37 61.202-10.37z" fill="#e80054" data-original="#e80054" class=""></path><path d="m228.999 102.385c-3.468-2.932-3.516-8.015-3.516-8.015 0-59.894 16.993-77.938 22.549-82.237.413-.319.745-.715.989-1.155-1.617 0-2.947 0-3.767 0-.979 0-1.954.03-2.927.073-14.807 2.479-28.256 14.962-36.525 34.329-3.81 8.924-9.864 36.134-11.005 68.144 9.033-3.239 21.042-6.614 35.461-8.603-.061-.954-.48-1.877-1.259-2.536z" fill="#cc0053" data-original="#cc0053" class=""></path><path d="m262.233 34.327v-23.349c-4.014 0-8.838 0-12.466 0v23.349c0 3.442 2.791 6.233 6.233 6.233 3.443 0 6.233-2.791 6.233-6.233z" fill="#ff4155" data-original="#ff4155" class=""></path><g><path d="m256 108.72c-3.442 0-6.233-2.79-6.233-6.233v-16.234c0-3.443 2.791-6.233 6.233-6.233s6.233 2.79 6.233 6.233v16.234c0 3.443-2.791 6.233-6.233 6.233z" fill="#ff4155" data-original="#ff4155" class=""></path></g><path d="m256 102.487c-49.146 0-80.28 18.902-80.28 18.902 0 9.712 1.096 17.417 2.562 23.378 2.024 8.231 11.966 11.414 18.51 6.027 26.858-22.113 59.208-21.176 59.208-21.176s32.35-.936 59.208 21.176c6.544 5.387 16.486 2.204 18.51-6.027 1.466-5.961 2.562-13.665 2.562-23.378 0 .001-31.134-18.902-80.28-18.902z" fill="#e9efff" data-original="#e9efff" class=""></path><path d="m228.982 132.107c-7.726-9.204-2.716-19.738.686-24.905.591-.897.735-1.967.488-2.943-33.956 4.7-54.435 17.13-54.435 17.13 0 9.712 1.095 17.417 2.561 23.378 2.024 8.231 11.966 11.414 18.51 6.027 10.932-9.001 22.773-14.181 32.973-17.162-.139-.553-.406-1.075-.783-1.525z" fill="#d3dcfb" data-original="#d3dcfb" class=""></path><path d="m268.524 46.64c-1.436-3.59-1.059-6.542-.49-8.387.144-.467.307-.889.473-1.261.42-.943-.009-2.042-.952-2.461-3.531-1.571-7.441-2.446-11.556-2.446-4.114 0-8.024.874-11.555 2.446-.943.42-1.372 1.518-.952 2.461.166.372.329.794.473 1.261 1.031 3.342.302 6.405-.491 8.387-2.531 6.328-11.168 20.765-8.149 33.456 5.187 5.482 12.531 8.903 20.674 8.903s15.487-3.421 20.674-8.904c3.02-12.686-5.612-27.114-8.149-33.455z" fill="#e9efff" data-original="#e9efff" class=""></path><path d="m276.674 80.095c2.052-8.621-1.276-18.042-4.416-25.187-.68.055-1.334.309-1.856.776-12.93 11.606-25.196 3.132-29.015-.108-.467-.396-1.036-.631-1.627-.711-3.144 7.148-6.489 16.592-4.434 25.229 5.187 5.482 12.531 8.903 20.674 8.903 8.143.002 15.487-3.419 20.674-8.902z" fill="#d3dcfb" data-original="#d3dcfb" class=""></path><path d="m284.457 60.542c0-10.256-5.427-19.244-13.564-24.251-.97-.597-2.25-.187-2.688.865-.852 2.046-1.546 5.393.122 9.564 2.568 6.42 11.306 20.989 8.056 33.678 4.995-5.128 8.074-12.132 8.074-19.856z" fill="#bec8f7" data-original="#bec8f7"></path><path d="m276.383 80.397c4.995-5.127 8.074-12.131 8.074-19.855 0-4.04-.853-7.878-2.371-11.359-2.052 6.341-6.5 6.306-8.857 5.776-.397-.089-.798-.081-1.189-.022 3.182 7.228 6.565 16.783 4.343 25.46z" fill="#a6b7f4" data-original="#a6b7f4"></path><path d="m241.107 36.291c-8.138 5.008-13.564 13.995-13.564 24.251 0 7.724 3.079 14.728 8.074 19.855-3.25-12.689 5.488-27.259 8.056-33.678 1.668-4.171.974-7.517.122-9.564-.438-1.052-1.718-1.461-2.688-.864z" fill="#bec8f7" data-original="#bec8f7"></path><path d="m235.617 80.397c-2.227-8.693 1.173-18.268 4.361-25.501-.415-.087-.845-.1-1.269-.001-5.395 1.271-7.554-2.081-8.359-4.176-.151-.391-.388-.728-.665-1.025-1.38 3.343-2.142 7.006-2.142 10.848 0 7.724 3.078 14.728 8.074 19.855z" fill="#a6b7f4" data-original="#a6b7f4"></path><path d="m413.933 400.669c-1.033-4.267-2.494-7.533-4.161-10.029-4.348-6.51-14.585-3.059-14.168 4.758 1.459 27.382-10.407 51.801-10.407 51.801.624 0 1.134.489 1.154 1.113.244 7.724.671 16.506 1.4 25.279 12.403-7.927 24.036-16.95 34.782-26.915-2.863-17.19-6.219-36.175-8.6-46.007z" fill="#2e8be6" data-original="#2e8be6"></path></g></g></svg>