<svg xmlns="http://www.w3.org/2000/svg" version="1.1" xmlns:xlink="http://www.w3.org/1999/xlink" xmlns:svgjs="http://svgjs.com/svgjs" width="512" height="512" x="0" y="0" viewBox="0 0 512 512" style="enable-background:new 0 0 512 512" xml:space="preserve" class=""><g><path xmlns="http://www.w3.org/2000/svg" d="m512 256c0 141.386719-114.613281 256-256 256s-256-114.613281-256-256 114.613281-256 256-256 256 114.613281 256 256zm0 0" fill="#025f80" data-original="#025f80"></path><path xmlns="http://www.w3.org/2000/svg" d="m183.679688 381.4375 34.640624 20-54.050781 93.617188c-12.578125-4.828126-24.679687-10.609376-36.210937-17.277344zm52.320312 129.789062c6.601562.511719 13.269531.773438 20 .773438s13.398438-.261719 20-.773438v-121.226562h-40zm92.320312-129.789062-34.640624 20 54.050781 93.617188c12.578125-4.828126 24.683593-10.609376 36.214843-17.277344zm-62.320312-339.335938h-20c-5.523438 0-10 4.476563-10 10v101.789063c0 5.371094 4.242188 9.785156 9.609375 10 3.445313.140625 6.910156.210937 10.390625.210937s6.945312-.070312 10.390625-.210937c5.367187-.214844 9.609375-4.628906 9.609375-10v-101.789063c0-5.523437-4.476562-10-10-10zm0 0" fill="#dca050" data-original="#dca050"></path><path xmlns="http://www.w3.org/2000/svg" d="m276 52.101562v101.789063c0 5.371094-4.242188 9.785156-9.609375 10-1.042969.042969-2.09375.066406-3.140625.09375-1.046875-.027344-2.097656-.050781-3.140625-.09375-5.367187-.214844-9.609375-4.628906-9.609375-10v-101.789063c0-5.523437 4.476562-10 10-10h5.5c5.523438 0 10 4.476563 10 10zm-102.046875 382.898438-29.664063 51.382812c6.511719 3.15625 13.175782 6.058594 19.980469 8.671876l37.558594-65.054688h-19.214844c-3.570312 0-6.871093 1.90625-8.660156 5zm182.40625-5h-9.039063c-7.699218 0-12.507812 8.332031-8.660156 15l25 43.300781c6.933594-3.214843 13.703125-6.71875 20.285156-10.523437zm-103.359375 15v66.972656c1 .011719 1.996094.027344 3 .027344 6.730469 0 13.398438-.261719 20-.773438v-81.226562h-8c-8.285156 0-15 6.714844-15 15zm0 0" fill="#f8bb5e" data-original="#f8bb5e"></path><path xmlns="http://www.w3.org/2000/svg" d="m38.183594 94.777344h435.632812v275.222656c0 11.046875-8.953125 20-20 20h-395.632812c-11.046875 0-20-8.953125-20-20zm0 0" fill="#e31e7f" data-original="#e31e7f"></path><path xmlns="http://www.w3.org/2000/svg" d="m473.816406 94.777344v285.222656c-5.75 8.425781-12.074218-.488281-18.929687 7.175781-.355469.015625-.707031.046875-1.070313.046875h-373.816406c-11.046875 0-20-8.121094-20-18.136718v-274.308594zm0 0" fill="#fd3d96" data-original="#fd3d96"></path><path xmlns="http://www.w3.org/2000/svg" d="m350.875 234.875c0 52.398438-42.476562 94.875-94.875 94.875s-94.875-42.476562-94.875-94.875 42.476562-94.875 94.875-94.875 94.875 42.476562 94.875 94.875zm0 0" fill="#fd7ab5" data-original="#fd7ab5"></path><path xmlns="http://www.w3.org/2000/svg" d="m220 280.605469v-91.460938c0-6.617187 7.328125-10.605469 12.882812-7.011719l70.742188 45.730469c5.089844 3.289063 5.089844 10.734375 0 14.023438l-70.742188 45.730469c-5.554687 3.59375-12.882812-.394532-12.882812-7.011719zm0 0" fill="#fff5f5" data-original="#fff5f5"></path><path xmlns="http://www.w3.org/2000/svg" d="m480 80v20c0 5.523438-4.476562 10-10 10h-430c-5.523438 0-10-4.476562-10-10v-20c0-5.523438 4.476562-10 10-10h430c5.523438 0 10 4.476562 10 10zm-10 290h-430c-5.523438 0-10 4.476562-10 10v20c0 5.523438 4.476562 10 10 10h430c5.523438 0 10-4.476562 10-10v-20c0-5.523438-4.476562-10-10-10zm0 0" fill="#fbc56d" data-original="#fbc56d"></path><path xmlns="http://www.w3.org/2000/svg" d="m481 380v20c0 5.523438-4.476562 10-10 10h-411c-5.523438 0-10-4.476562-10-10v-20c0-5.523438 4.476562-10 10-10h411c5.523438 0 10 4.476562 10 10zm-10-310h-411c-5.523438 0-10 4.476562-10 10v20c0 5.523438 4.476562 10 10 10h411c5.523438 0 10-4.476562 10-10v-20c0-5.523438-4.476562-10-10-10zm0 0" fill="#ffdf8e" data-original="#ffdf8e"></path></g></svg>