<?xml version="1.0" encoding="utf-8"?>
<!-- Generator: Adobe Illustrator 23.0.5, SVG Export Plug-In . SVG Version: 6.00 Build 0)  -->
<svg version="1.1" id="Layer_1" xmlns="http://www.w3.org/2000/svg" xmlns:xlink="http://www.w3.org/1999/xlink" x="0px" y="0px"
	 viewBox="0 0 34.8 34.5" style="enable-background:new 0 0 34.8 34.5;" xml:space="preserve">
<style type="text/css">
	.st0{fill:#F26622;}
</style>
<g>
	<g id="_11_time">
		<path class="st0" d="M18.2,26.9H6.7v-4.8c0-0.3-0.2-0.6-0.6-0.6H1.4V9.2h3.2C5,9.2,5.2,9,5.2,8.7c0-0.3-0.3-0.4-0.6-0.4H1.4V3.4
			h5.9v2.1c0,0.3,0.2,0.6,0.6,0.6H10c0.3,0,0.6-0.2,0.6-0.6V3.4h3.2v2.1c0,0.3,0.2,0.6,0.6,0.6h2.1c0.3,0,0.6-0.2,0.6-0.6V3.4h3.2
			v2.1c0,0.3,0.2,0.6,0.6,0.6H23c0.3,0,0.6-0.2,0.6-0.6V3.4h5.9v4.8H8.3C8,8.2,7.8,8.4,7.8,8.8c0,0.3,0.2,0.6,0.6,0.6h21.1v6.2
			c0,0.3,0.2,0.6,0.6,0.6s0.6-0.2,0.6-0.6V2.9c0-0.3-0.2-0.6-0.6-0.6h-6.5V0.8c0-0.3-0.2-0.6-0.6-0.6h-2.1c-0.3,0-0.6,0.2-0.6,0.6
			v1.6h-3.2V0.8c0-0.3-0.2-0.6-0.6-0.6h-2.1c-0.3,0-0.6,0.2-0.6,0.6v1.6h-3.2V0.8c0-0.3-0.2-0.6-0.6-0.6H7.8c-0.3,0-0.6,0.2-0.6,0.6
			v1.6H0.8c-0.3,0-0.6,0.2-0.6,0.6v19.3c0,0.1,0.1,0.2,0.1,0.3l5.4,5.4C5.8,28,6,28,6.1,28h12c0.3,0,0.6-0.2,0.6-0.6
			S18.5,26.9,18.2,26.9z M21.3,1.3h1.1V5h-1.1V1.3z M14.8,1.3h1.1V5h-1.1V1.3z M8.3,1.3h1.1V5H8.3V1.3z M5.6,26.3L2,22.8h3.6V26.3z"
			/>
		<path class="st0" d="M7.3,8.8c0-0.3-0.2-0.6-0.6-0.6H6.2c-0.3,0-0.6,0.2-0.6,0.6c0,0.3,0.2,0.6,0.6,0.6h0.7
			C7.1,9.3,7.3,9.1,7.3,8.8z"/>
		<path class="st0" d="M11.6,12.5c0-0.3-0.2-0.6-0.6-0.6H6.7c-0.3,0-0.6,0.2-0.6,0.6v4.3c0,0.3,0.2,0.6,0.6,0.6h4.4
			c0.3,0,0.6-0.2,0.6-0.6v-4.3H11.6z M10.4,16.3H7.3V13h3.2v3.2H10.4z"/>
		<path class="st0" d="M18.1,12.5c0-0.3-0.2-0.6-0.6-0.6h-4.4c-0.3,0-0.6,0.2-0.6,0.6v4.3c0,0.3,0.2,0.6,0.6,0.6h4.4
			c0.3,0,0.6-0.2,0.6-0.6V12.5z M16.9,16.3h-3.2V13h3.2V16.3z"/>
		<path class="st0" d="M7.8,23.2c-0.3,0-0.6,0.2-0.6,0.6c0,0.3,0.2,0.6,0.6,0.6H11c0.3,0,0.6-0.2,0.6-0.6v-4.3
			c0-0.3-0.2-0.6-0.6-0.6H6.7c-0.3,0-0.6,0.2-0.6,0.6v1.1c0,0.3,0.2,0.6,0.6,0.6c0.3,0,0.6-0.2,0.6-0.6v-0.6h3.2v3.2H7.8V23.2z"/>
		<path class="st0" d="M17.5,19h-4.4c-0.3,0-0.6,0.2-0.6,0.6v4.3c0,0.3,0.2,0.6,0.6,0.6h4.4c0.3,0,0.6-0.2,0.6-0.6v-4.3
			C18.1,19.2,17.8,19,17.5,19z M16.9,23.2h-3.2V20h3.2V23.2z"/>
		<path class="st0" d="M24,12h-4.4c-0.3,0-0.6,0.2-0.6,0.6v4.3c0,0.3,0.2,0.6,0.6,0.6H24c0.3,0,0.6-0.2,0.6-0.6v-4.4
			C24.6,12.2,24.2,12,24,12z M23.4,16.3h-3.2V13h3.2V16.3z"/>
		<path class="st0" d="M20.2,23.2V20h3.2c0.3,0,0.6-0.2,0.6-0.6s-0.2-0.6-0.6-0.6h-3.8c-0.3,0-0.6,0.2-0.6,0.6v3.7
			c0,0.3,0.2,0.6,0.6,0.6C20,23.8,20.2,23.6,20.2,23.2z"/>
		<path class="st0" d="M28.8,19.6V19h0.6c0.3,0,0.6-0.2,0.6-0.6v-1.6c0-0.3-0.2-0.6-0.6-0.6H25c-0.3,0-0.6,0.2-0.6,0.6v1.6
			c0,0.3,0.2,0.6,0.6,0.6h0.6v0.7c-4,0.9-6.6,4.9-5.7,9c0.9,4,4.9,6.6,9,5.7s6.6-4.9,5.7-9C34,22.6,31.7,20.3,28.8,19.6z M25.6,17.3
			h3.2v0.6h-3.2V17.3z M26.7,19h1.1v0.6c-0.2,0-0.3,0-0.6,0c-0.2,0-0.3,0-0.6,0V19z M27.3,33.4c-3.6,0-6.5-2.9-6.5-6.4
			s2.9-6.4,6.5-6.4s6.5,2.9,6.5,6.4C33.6,30.5,30.8,33.3,27.3,33.4z"/>
		<path class="st0" d="M27.3,21.7c-3,0-5.4,2.4-5.4,5.4s2.5,5.4,5.4,5.4s5.4-2.4,5.4-5.4S30.2,21.7,27.3,21.7z M27.7,31.2v-0.4
			c0-0.3-0.2-0.6-0.6-0.6s-0.6,0.2-0.6,0.6v0.4C24.8,31,23.3,29.7,23,28h0.4c0.3,0,0.6-0.2,0.6-0.6c0-0.3-0.2-0.6-0.6-0.6h-0.6
			c0-2.1,1.6-3.9,3.8-4.3v0.4c0,0.3,0.2,0.6,0.6,0.6c0.3,0,0.6-0.2,0.6-0.6v-0.4c2.1,0.2,3.8,2.1,3.8,4.3h-0.6
			c-0.3,0-0.6,0.2-0.6,0.6c0,0.3,0.2,0.6,0.6,0.6h0.4C30.9,29.7,29.5,31,27.7,31.2L27.7,31.2z"/>
		<path class="st0" d="M28.5,26l-1.2,0.8L25.5,25c-0.2-0.2-0.6-0.2-0.8,0c-0.2,0.2-0.2,0.6,0,0.8l2.1,2.1c0.2,0.2,0.4,0.2,0.7,0.1
			l1.6-1.1c0.2-0.1,0.3-0.4,0.2-0.8C29.2,25.9,28.8,25.8,28.5,26C28.6,25.9,28.6,25.9,28.5,26L28.5,26z"/>
	</g>
</g>
</svg>
