<?xml version="1.0" encoding="utf-8"?>
<!-- Generator: Adobe Illustrator 23.0.5, SVG Export Plug-In . SVG Version: 6.00 Build 0)  -->
<svg version="1.1" id="Layer_1" xmlns="http://www.w3.org/2000/svg" xmlns:xlink="http://www.w3.org/1999/xlink" x="0px" y="0px"
	 viewBox="0 0 193.53 196.71" style="enable-background:new 0 0 193.53 196.71;" xml:space="preserve">
<style type="text/css">
	.st0{fill:#F26622;}
	.st1{fill:#003360;}
	.st2{fill:#00325D;}
	.st3{fill:none;}
</style>
<g>
	<path class="st0" d="M179.28,20.06c-4,4.06-7.45,7.84-11.22,11.27c-1.38,1.25-2.05,2.34-2.09,3.45l-19.98,19.76
		c-0.11-0.12-0.23-0.23-0.34-0.34c-2.96,3.13-6.09,6.16-8.87,9.45l-14.56,14.4c-0.06-0.08-0.11-0.16-0.17-0.25
		c-1.55,1.73-3.05,3.28-4.42,4.79l-0.06,0.06l-15.89,15.71c0.75-0.98,1.5-1.97,2.18-3c17.88-27.32,35.83-54.6,53.52-82.06
		c2.69-4.17,4.72-5.2,8.83-1.9C170.07,14.49,174.47,16.92,179.28,20.06z"/>
	<path class="st0" d="M113.77,87.29c-0.76,1.08-0.16,3.38,0.31,4.99c2.74,9.31-1.28,18.87-9.69,22.7
		c-8.2,3.74-17.99,0.95-22.99-6.57c-4.12-6.17-3.85-15.07,0.62-21.16c4.32-5.86,12.57-8.51,19.63-6.57c3.39,0.93,4.28,2.5,2.82,5.78
		c-1.87,4.22-3.4,8.59-4.07,13.58c0.42-0.56,0.85-1.12,1.28-1.68l15.89-15.71C116.17,84.19,114.89,85.68,113.77,87.29z"/>
	<path class="st1" d="M135.37,65.36c-0.68,0.87,0.27,3.63,1.18,5.05c9.44,14.59,11.53,29.98,5.03,46.21
		c-8.44,21.1-30.16,33.15-52.9,29.59c-21.45-3.36-37.92-21.17-40.16-43.17c-3.55-34.89,29.9-61.65,63.34-50.81
		c1.7,0.54,3.31,1.33,5.06,2.04c-0.23,1.06-0.28,1.73-0.52,2.32c-1.44,3.54-2.03,8.42-4.68,10.19c-2.29,1.53-6.97-0.33-10.56-0.93
		C84.15,63.02,66.38,76.3,64.37,93.41c-2.28,19.47,11.1,36.33,29.51,37.41c12.95,0.77,23.25-3.99,30.28-14.81
		c6.79-10.46,7.11-21.59,1.5-32.78c-0.75-1.52-1.86-2.85-3.44-5.18l14.56-14.4C136.29,64.21,135.83,64.78,135.37,65.36z"/>
	<path class="st2" d="M127.64,185.62C66.61,206.94,9.68,163.74,4.39,107.29C-0.16,58.81,33.15,15.85,78.92,7.26
		c17.22-3.23,34.13-1.88,50.64,4.2c3.14,1.16,4.28,2.43,2.78,5.83c-2.89,6.52-5.39,13.2-8.17,20.08
		c-21.06-7.78-41.29-7.76-60.65,3.37c-14.43,8.3-24.46,20.49-29.81,36.27c-10.76,31.77,3.67,66.18,33.83,81.05
		c29.7,14.66,65.83,4.77,84.44-22.77c17.79-26.33,12.65-62.31-5.99-80.75l19.98-19.76c-0.06,1.2,0.6,2.44,1.86,3.98
		C209.17,89.45,189.18,164.12,127.64,185.62z"/>
	<line class="st3" x1="122.22" y1="78.05" x2="117.63" y2="82.59"/>
	<line class="st3" x1="145.99" y1="54.54" x2="136.78" y2="63.65"/>
</g>
<line class="st3" x1="495.96" y1="-172.82" x2="480.32" y2="-157.35"/>
</svg>
