<?xml version="1.0" encoding="utf-8"?>
<!-- Generator: Adobe Illustrator 23.0.5, SVG Export Plug-In . SVG Version: 6.00 Build 0)  -->
<svg version="1.1" id="Layer_1" xmlns:svgjs="http://svgjs.com/svgjs"
	 xmlns="http://www.w3.org/2000/svg" xmlns:xlink="http://www.w3.org/1999/xlink" x="0px" y="0px" viewBox="0 0 512 512"
	 style="enable-background:new 0 0 512 512;" xml:space="preserve">
<style type="text/css">
	.st0{fill:#01213B;}
	.st1{fill:#F26622;}
</style>
<g>
	<g>
		<g>
			<g>
				<path class="st0" d="M484.5,89c-1.2-13-11.9-22.8-24.9-22.8h-64.7v-9.5h1.3c9.2,0,16.7-7.5,16.7-16.7V16.7
					c0-9.2-7.5-16.7-16.7-16.7H205.8c-4.1,0-7.5,3.4-7.5,7.5s3.4,7.5,7.5,7.5h190.4c1,0,1.7,0.8,1.7,1.7V40c0,1-0.8,1.7-1.7,1.7
					H115.8c-1,0-1.7-0.8-1.7-1.7V16.7c0-1,0.8-1.7,1.7-1.7h54.9c4.1,0,7.5-3.4,7.5-7.5S174.8,0,170.7,0h-54.9
					c-9.2,0-16.7,7.5-16.7,16.7V40c0,9.2,7.5,16.7,16.7,16.7h1.3v9.5H52.4c-13,0-23.7,9.8-24.9,22.8c-0.2,1.7-3.5,42.1,13,86.9
					c15.1,41,49.9,93.3,129.5,113.8c12.8,10.1,27.4,18,43.3,23.2l3.8,6.2c7.1,11.8,10.9,25.7,10.9,40.3c0,8.9-1.4,17.6-4.2,25.8
					l-5.2,15.4h-17.4c-17.9,0-32.5,14.6-32.5,32.5v15.7h-27.3c-7.7,0-14,6.3-14,14V498c0,7.7,6.3,14,14,14h229.3c7.7,0,14-6.3,14-14
					v-35.2c0-7.7-6.3-14-14-14h-27.3v-15.7c0-17.9-14.6-32.5-32.5-32.5h-17.4l-5.2-15.4c-2.8-8.2-4.2-16.9-4.2-25.8
					c0-14.6,3.8-28.5,10.9-40.3l3.8-6.2c15.9-5.1,30.5-13.1,43.3-23.2c79.6-20.5,114.4-72.8,129.5-113.8
					C488,131.1,484.7,90.7,484.5,89L484.5,89z M119.8,208.3c-14-13.1-24.7-29.3-32-48.7c-5.1-13.4-8.4-28.1-9.9-43.4h39.2v64.4
					C117.1,190.1,118,199.4,119.8,208.3z M54.6,170.7c-15.4-41.6-12.3-78.8-12.2-80.4c0.5-5.2,4.7-9.1,10-9.1h64.7v20H77.3
					c-4.1,0-7.9,1.7-10.7,4.7c-2.7,3-4.1,7-3.7,11.1c1.6,16.9,5.2,33.1,10.9,47.9c11.1,29.4,29.1,52.4,53.8,68.7
					c4.9,11.7,11.3,22.6,19,32.5C92.2,243.6,66.6,203.3,54.6,170.7L54.6,170.7z M369.6,463.8V497H142.4v-33.2H369.6z M310.9,415.7
					c9.6,0,17.5,7.8,17.5,17.5v15.7H183.7v-15.7c0-9.6,7.8-17.5,17.5-17.5H310.9z M274,390l3.6,10.6h-43.2L238,390
					c3.3-9.8,5-20.1,5-30.6c0-14.8-3.3-29-9.6-41.6c7.3,1.2,14.9,1.8,22.6,1.8s15.2-0.6,22.6-1.8c-6.3,12.6-9.6,26.9-9.6,41.6
					C269,369.9,270.7,380.2,274,390L274,390z M256,304.6c-68.3,0-123.9-55.6-123.9-123.9v-124H380v123.9
					C379.9,249,324.3,304.6,256,304.6z M457.4,170.7c-12,32.5-37.6,72.9-92,95.4c7.7-9.9,14.1-20.8,19-32.5
					c21.2-14.1,37.5-33,48.7-56.7c1.8-3.7,0.2-8.2-3.6-10c-3.7-1.8-8.2-0.2-10,3.6c-6.9,14.7-16.1,27.3-27.4,37.9
					c1.8-9,2.8-18.2,2.8-27.7v-64.4h39.2c-0.7,7.7-2,15.4-3.7,22.8c-0.9,4,1.6,8.1,5.6,9s8.1-1.6,9-5.6c1.9-8.2,3.3-16.8,4.1-25.3
					c0.4-4-1-8.1-3.7-11.1s-6.6-4.7-10.7-4.7h-39.8v-20h64.7c5.2,0,9.5,3.9,10,9.1C469.7,91.9,472.8,129.1,457.4,170.7L457.4,170.7z
					"/>
				<path class="st1" d="M305.3,145.7l-21.5-3.1c-0.9-0.1-1.7-0.7-2.2-1.6l-9.6-19.5c-3-6.1-9.2-10-16-10c-6.9,0-13,3.8-16,10
					l-9.6,19.5c-0.4,0.8-1.2,1.4-2.2,1.6l-21.5,3.1c-6.8,1-12.3,5.6-14.4,12.2c-2.1,6.5-0.4,13.5,4.5,18.3l15.6,15.2
					c0.7,0.7,1,1.6,0.8,2.5l-3.7,21.4c-1.2,6.8,1.6,13.5,7.1,17.5s12.8,4.5,18.8,1.4l19.2-10.1c0.8-0.4,1.8-0.4,2.7,0l19.2,10.1
					c2.6,1.4,5.5,2.1,8.3,2.1c3.7,0,7.4-1.2,10.5-3.4c5.5-4,8.3-10.7,7.1-17.5l-3.7-21.4c-0.2-0.9,0.1-1.9,0.8-2.5l15.6-15.2
					c4.9-4.8,6.6-11.8,4.5-18.3C317.6,151.3,312.1,146.6,305.3,145.7L305.3,145.7z M304.8,165.4l-15.6,15.2
					c-4.2,4.1-6.1,10-5.1,15.8l3.7,21.4c0.3,1.5-0.6,2.4-1.1,2.8c-0.5,0.4-1.7,0.9-3,0.2l-19.2-10.1c-2.6-1.4-5.5-2.1-8.3-2.1
					c-2.9,0-5.7,0.7-8.3,2.1l-19.2,10.1c-1.4,0.7-2.5,0.2-3-0.2s-1.4-1.3-1.1-2.8l3.7-21.4c1-5.8-0.9-11.7-5.1-15.8l-15.6-15.2
					c-1.1-1.1-0.9-2.3-0.7-2.9c0.2-0.6,0.8-1.7,2.3-2l21.5-3.1c5.8-0.8,10.9-4.5,13.5-9.8l9.6-19.5c0.7-1.4,1.9-1.6,2.6-1.6
					c0.7,0,1.9,0.2,2.6,1.6l9.6,19.5c2.6,5.3,7.6,8.9,13.5,9.8l21.5,3.1c1.5,0.2,2.1,1.3,2.3,2C305.7,163.1,305.9,164.3,304.8,165.4
					z"/>
			</g>
		</g>
	</g>
</g>
</svg>
