<?xml version="1.0" encoding="utf-8"?>
<!-- Generator: Adobe Illustrator 23.0.5, SVG Export Plug-In . SVG Version: 6.00 Build 0)  -->
<svg version="1.1" xmlns="http://www.w3.org/2000/svg" xmlns:xlink="http://www.w3.org/1999/xlink" x="0px" y="0px"
	 viewBox="0 0 750 500" enable-background="new 0 0 750 500" xml:space="preserve">
<g id="BACKGROUND">
	<rect fill="#476B9E" width="750" height="500"/>
</g>
<g id="OBJECTS">
	<g>
		<g>
			<path fill="#5982B2" d="M6.29,385.89h15.97c0.32-0.33,0.65-0.65,0.97-1H6.29v-53.16h43.4c0.13-0.33,0.25-0.67,0.38-1H6.29v-53.16
				h51.74v33.05c0.33-0.78,0.66-1.55,1-2.32v-30.73h17.52c0.27-0.33,0.53-0.67,0.8-1H59.04v-53.16h51.74v34.25
				c0.33-0.03,0.67-0.06,1-0.09v-34.16h51.74v53.16h-5.07c0.37,0.33,0.74,0.66,1.11,1h3.96v3.76c0.33,0.33,0.67,0.66,1,1v-4.76
				h51.74v53.16h-14.44c0.22,0.33,0.44,0.67,0.66,1h13.78v21.4c0.33,0.52,0.67,1.05,1,1.57v-22.97H269v53.16h-31.91
				c0.23,0.33,0.47,0.67,0.7,1H269v34.57c0.33,0.23,0.67,0.45,1,0.66v-35.23h51.74v29.48c0.34-0.25,0.67-0.49,1-0.75v-28.73h29.79
				c0.38-0.34,0.77-0.67,1.16-1h-30.95v-53.16h51.74v41.38c0.33-0.1,0.66-0.2,1-0.29v-41.09h51.74v53.16h-0.45
				c0.49,0.4,0.97,0.8,1.45,1.21v-0.21H480v45.52c0.33,0.11,0.66,0.22,1,0.32v-45.84h51.74v5.39c0.33-0.58,0.67-1.17,1-1.76v-3.63
				h2.04c0.18-0.33,0.37-0.67,0.56-1h-2.6v-53.16h31.52c0.19-0.33,0.39-0.67,0.58-1h-32.1v-53.16h51.74v23.36
				c0.33-0.43,0.67-0.85,1-1.27v-22.09h25.04c0.72-0.36,1.45-0.69,2.18-1h-27.22v-53.16h51.74v52.36c0.33,0.11,0.67,0.22,1,0.34
				v-52.7h51.74v53.16h-50.62c0.75,0.31,1.5,0.64,2.23,1h48.38v53.16h-5.63c0.18,0.33,0.35,0.67,0.53,1h5.1v9.86
				c0.33,0.65,0.67,1.3,1,1.96v-11.82h51.74v53.16h-28.69c0.23,0.33,0.46,0.67,0.68,1h28.01v23.26c0.33,0.08,0.67,0.14,1,0.21V6.3
				h-0.5V5.8H5.79v0.5h-0.5v389.13c0.34-0.06,0.67-0.14,1-0.21V385.89z M691.96,6.8h51.74v53.16h-51.74V6.8z M691.96,60.96h51.74
				v53.16h-51.74V60.96z M691.96,115.11h51.74v53.16h-51.74V115.11z M691.96,169.27h51.74v53.16h-51.74V169.27z M691.96,223.42
				h51.74v53.16h-51.74V223.42z M691.96,277.58h51.74v53.16h-51.74V277.58z M639.22,6.8h51.74v53.16h-51.74V6.8z M639.22,60.96
				h51.74v53.16h-51.74V60.96z M639.22,115.11h51.74v53.16h-51.74V115.11z M639.22,169.27h51.74v53.16h-51.74V169.27z M586.48,6.8
				h51.74v53.16h-51.74V6.8z M586.48,60.96h51.74v53.16h-51.74V60.96z M586.48,115.11h51.74v53.16h-51.74V115.11z M586.48,169.27
				h51.74v53.16h-51.74V169.27z M533.74,6.8h51.74v53.16h-51.74V6.8z M533.74,60.96h51.74v53.16h-51.74V60.96z M533.74,115.11h51.74
				v53.16h-51.74V115.11z M533.74,169.27h51.74v53.16h-51.74V169.27z M533.74,223.42h51.74v53.16h-51.74V223.42z M481,6.8h51.74
				v53.16H481V6.8z M481,60.96h51.74v53.16H481V60.96z M481,115.11h51.74v53.16H481V115.11z M481,169.27h51.74v53.16H481V169.27z
				 M481,223.42h51.74v53.16H481V223.42z M481,277.58h51.74v53.16H481V277.58z M481,331.73h51.74v53.16H481V331.73z M428.22,6.8H480
				v53.16h-51.78V6.8z M428.22,60.96H480v53.16h-51.78V60.96z M428.22,115.11H480v53.16h-51.78V115.11z M428.22,169.27H480v53.16
				h-51.78V169.27z M428.22,223.42H480v53.16h-51.78V223.42z M428.22,277.58H480v53.16h-51.78V277.58z M428.22,331.73H480v53.16
				h-51.78V331.73z M375.48,6.8h51.74v53.16h-51.74V6.8z M375.48,60.96h51.74v53.16h-51.74V60.96z M375.48,115.11h51.74v53.16
				h-51.74V115.11z M375.48,169.27h51.74v53.16h-51.74V169.27z M375.48,223.42h51.74v53.16h-51.74V223.42z M375.48,277.58h51.74
				v53.16h-51.74V277.58z M322.74,6.8h51.74v53.16h-51.74V6.8z M322.74,60.96h51.74v53.16h-51.74V60.96z M322.74,115.11h51.74v53.16
				h-51.74V115.11z M322.74,169.27h51.74v53.16h-51.74V169.27z M322.74,223.42h51.74v53.16h-51.74V223.42z M322.74,277.58h51.74
				v53.16h-51.74V277.58z M270,6.8h51.74v53.16H270V6.8z M270,60.96h51.74v53.16H270V60.96z M270,115.11h51.74v53.16H270V115.11z
				 M270,169.27h51.74v53.16H270V169.27z M270,223.42h51.74v53.16H270V223.42z M270,277.58h51.74v53.16H270V277.58z M270,331.73
				h51.74v53.16H270V331.73z M217.26,6.8H269v53.16h-51.74V6.8z M217.26,60.96H269v53.16h-51.74V60.96z M217.26,115.11H269v53.16
				h-51.74V115.11z M217.26,169.27H269v53.16h-51.74V169.27z M217.26,223.42H269v53.16h-51.74V223.42z M217.26,277.58H269v53.16
				h-51.74V277.58z M164.52,6.8h51.74v53.16h-51.74V6.8z M164.52,60.96h51.74v53.16h-51.74V60.96z M164.52,115.11h51.74v53.16
				h-51.74V115.11z M164.52,169.27h51.74v53.16h-51.74V169.27z M164.52,223.42h51.74v53.16h-51.74V223.42z M111.78,6.8h51.74v53.16
				h-51.74V6.8z M111.78,60.96h51.74v53.16h-51.74V60.96z M111.78,115.11h51.74v53.16h-51.74V115.11z M111.78,169.27h51.74v53.16
				h-51.74V169.27z M59.04,6.8h51.74v53.16H59.04V6.8z M59.04,60.96h51.74v53.16H59.04V60.96z M59.04,115.11h51.74v53.16H59.04
				V115.11z M59.04,169.27h51.74v53.16H59.04V169.27z M6.29,6.8h51.74v53.16H6.29V6.8z M6.29,60.96h51.74v53.16H6.29V60.96z
				 M6.29,115.11h51.74v53.16H6.29V115.11z M6.29,169.27h51.74v53.16H6.29V169.27z M6.29,223.42h51.74v53.16H6.29V223.42z"/>
			<path fill="#2F4A7F" d="M111.78,257.58v19h46.68c-13.1-11.69-27.02-19.12-42.03-19.19C114.83,257.38,113.29,257.46,111.78,257.58
				z"/>
			<rect x="59.04" y="440.04" fill="#2F4A7F" width="51.74" height="53.15"/>
			<path fill="#2F4A7F" d="M77.36,276.58h33.41v-18.91C96.69,259.11,85.99,266.24,77.36,276.58z"/>
			<rect x="6.29" y="440.04" fill="#2F4A7F" width="51.74" height="53.15"/>
			<path fill="#2F4A7F" d="M744.71,409.35v84.34h-0.5v0.5H5.79v-0.5h-0.5v-98.27c-1.7,0.31-3.46,0.49-5.29,0.49V500h750v-90.15
				C748.19,409.87,746.43,409.69,744.71,409.35z"/>
			<path fill="#2F4A7F" d="M164.52,282.34v48.39h37.3C190.01,312.82,177.67,295.59,164.52,282.34z"/>
			<path fill="#2F4A7F" d="M6.29,395.22v43.82h51.74v-53.16H22.26C17.65,390.59,12.42,393.87,6.29,395.22z"/>
			<rect x="111.78" y="385.89" fill="#2F4A7F" width="51.74" height="53.16"/>
			<rect x="59.04" y="331.73" fill="#2F4A7F" width="51.74" height="53.16"/>
			<rect x="59.04" y="385.89" fill="#2F4A7F" width="51.74" height="53.16"/>
			<rect x="111.78" y="440.04" fill="#2F4A7F" width="51.74" height="53.15"/>
			<path fill="#2F4A7F" d="M58.04,330.73v-20.11c-2.8,6.58-5.41,13.37-7.96,20.11H58.04z"/>
			<path fill="#2F4A7F" d="M585.48,384.89v-53.16h-20.22c-10.09,17.44-19.63,36.39-28.92,53.16H585.48z"/>
			<path fill="#2F4A7F" d="M585.48,330.73v-29.8c-6.81,8.72-13.33,18.95-19.64,29.8H585.48z"/>
			<path fill="#2F4A7F" d="M533.74,439.04h51.74v-53.16h-49.7c-0.68,1.22-1.36,2.44-2.04,3.63V439.04z"/>
			<path fill="#2F4A7F" d="M639.22,331.73v53.16h51.74V341.6c-1.69-3.3-3.38-6.6-5.1-9.86H639.22z"/>
			<path fill="#2F4A7F" d="M374.48,384.89v-11.78c-8.15,2.44-14.8,6.69-20.79,11.78H374.48z"/>
			<path fill="#2F4A7F" d="M691.96,384.89h23.05c-8.05-11.79-15.48-26.5-23.05-41.34V384.89z"/>
			<path fill="#2F4A7F" d="M217.26,384.89h19.83c-6.51-9.34-13.1-19.63-19.83-30.19V384.89z"/>
			<path fill="#2F4A7F" d="M58.04,384.89v-53.16h-8.34c-7.91,20.89-15.38,41.16-26.46,53.16H58.04z"/>
			<path fill="#2F4A7F" d="M59.04,330.73h51.74v-53.16H76.56c-6.95,8.62-12.55,19.31-17.52,30.73V330.73z"/>
			<rect x="111.78" y="331.73" fill="#2F4A7F" width="51.74" height="53.16"/>
			<path fill="#2F4A7F" d="M111.78,277.58v53.16h51.74v-49.39c-1.31-1.3-2.63-2.55-3.96-3.76H111.78z"/>
			<path fill="#2F4A7F" d="M164.52,331.73v53.16h51.74v-31.75c-4.52-7.1-9.11-14.3-13.78-21.4H164.52z"/>
			<path fill="#2F4A7F" d="M639.22,276.58h1.12c-0.37-0.15-0.75-0.31-1.12-0.46V276.58z"/>
			<rect x="586.48" y="440.04" fill="#2F4A7F" width="51.74" height="53.15"/>
			<path fill="#2F4A7F" d="M613.7,276.58h24.52v-0.8c-3.65-1.25-7.47-1.95-11.49-1.95C622.26,273.83,617.93,274.8,613.7,276.58z"/>
			<rect x="586.48" y="385.89" fill="#2F4A7F" width="51.74" height="53.16"/>
			<path fill="#2F4A7F" d="M586.48,299.67v31.07h51.74v-53.16h-26.7C602.71,281.91,594.4,289.74,586.48,299.67z"/>
			<rect x="481" y="440.04" fill="#2F4A7F" width="51.74" height="53.15"/>
			<rect x="533.74" y="440.04" fill="#2F4A7F" width="51.74" height="53.15"/>
			<rect x="586.48" y="331.73" fill="#2F4A7F" width="51.74" height="53.16"/>
			<rect x="691.96" y="440.04" fill="#2F4A7F" width="51.74" height="53.15"/>
			<rect x="639.22" y="385.89" fill="#2F4A7F" width="51.74" height="53.16"/>
			<path fill="#2F4A7F" d="M715.7,385.89h-23.73v53.16h51.74v-29.9C733.11,406.69,724.06,397.9,715.7,385.89z"/>
			<rect x="428.22" y="440.04" fill="#2F4A7F" width="51.78" height="53.15"/>
			<rect x="639.22" y="440.04" fill="#2F4A7F" width="51.74" height="53.15"/>
			<path fill="#2F4A7F" d="M642.58,277.58h-3.36v53.16h46.12C673.07,307.46,659.85,285.98,642.58,277.58z"/>
			<rect x="375.48" y="440.04" fill="#2F4A7F" width="51.74" height="53.15"/>
			<rect x="164.52" y="385.89" fill="#2F4A7F" width="51.74" height="53.16"/>
			<rect x="270" y="440.04" fill="#2F4A7F" width="51.74" height="53.15"/>
			<rect x="217.26" y="440.04" fill="#2F4A7F" width="51.74" height="53.15"/>
			<path fill="#2F4A7F" d="M322.74,414.62v24.42h51.74v-53.16h-21.95C342.28,394.89,333.82,406.18,322.74,414.62z"/>
			<rect x="164.52" y="440.04" fill="#2F4A7F" width="51.74" height="53.15"/>
			<path fill="#2F4A7F" d="M270,421.12v17.92h51.74v-23.68c-9.04,6.65-19.87,11.36-34.78,11.43
				C281.26,426.82,275.62,424.78,270,421.12z"/>
			<rect x="322.74" y="440.04" fill="#2F4A7F" width="51.74" height="53.15"/>
			<path fill="#2F4A7F" d="M375.48,372.82v12.07h51.29c-9.94-8.13-21.47-14-36.47-14C384.83,370.89,379.93,371.59,375.48,372.82z"/>
			<path fill="#2F4A7F" d="M237.79,385.89h-20.53v53.16H269v-18.58C258.63,413.37,248.31,400.9,237.79,385.89z"/>
			<path fill="#2F4A7F" d="M428.22,386.1v52.95H480v-7.63C459.67,424.7,446.56,401.73,428.22,386.1z"/>
			<path fill="#2F4A7F" d="M492.06,433.32c-3.94,0.02-7.61-0.56-11.06-1.6v7.32h51.74v-47.77
				C519.04,415.21,505.8,433.26,492.06,433.32z"/>
			<rect x="375.48" y="385.89" fill="#2F4A7F" width="51.74" height="53.16"/>
			<path fill="#476B9E" d="M5.79,493.7v0.5H744.2v-0.5h0.5v-84.34c-0.33-0.06-0.67-0.13-1-0.21v29.9h-51.74v-53.16h23.73
				c-0.23-0.33-0.46-0.67-0.68-1h-23.05v-41.34c-0.33-0.65-0.67-1.3-1-1.96v43.29h-51.74v-53.16h46.64c-0.17-0.33-0.35-0.67-0.53-1
				h-46.12v-53.16h3.36c-0.74-0.36-1.48-0.69-2.23-1h-1.12v-0.46c-0.33-0.12-0.67-0.23-1-0.34v0.8H613.7
				c-0.73,0.31-1.46,0.64-2.18,1h26.7v53.16h-51.74v-31.07c-0.33,0.42-0.67,0.84-1,1.27v29.8h-19.64c-0.19,0.33-0.39,0.67-0.58,1
				h20.22v53.16h-49.14c-0.18,0.33-0.37,0.67-0.56,1h49.7v53.16h-51.74v-49.52c-0.33,0.59-0.67,1.17-1,1.76v47.77H481v-7.32
				c-0.34-0.1-0.67-0.21-1-0.32v7.63h-51.78V386.1c-0.48-0.41-0.96-0.81-1.45-1.21h-51.29v-12.07c-0.34,0.09-0.67,0.19-1,0.29v11.78
				h-20.79c-0.39,0.33-0.77,0.66-1.16,1h21.95v53.16h-51.74v-24.42c-0.33,0.25-0.66,0.5-1,0.75v23.68H270v-17.92
				c-0.33-0.22-0.67-0.44-1-0.66v18.58h-51.74v-53.16h20.53c-0.23-0.33-0.46-0.67-0.7-1h-19.83V354.7c-0.33-0.52-0.67-1.05-1-1.57
				v31.75h-51.74v-53.16h37.96c-0.22-0.33-0.44-0.67-0.66-1h-37.3v-48.39c-0.33-0.34-0.67-0.67-1-1v49.39h-51.74v-53.16h47.78
				c-0.37-0.34-0.74-0.67-1.11-1h-46.68v-19c-0.33,0.03-0.67,0.05-1,0.09v18.91H77.36c-0.27,0.33-0.54,0.67-0.8,1h34.22v53.16H59.04
				v-22.43c-0.34,0.77-0.67,1.54-1,2.32v20.11h-7.96c-0.13,0.33-0.25,0.67-0.38,1h8.34v53.16h-34.8c-0.32,0.35-0.65,0.67-0.97,1
				h35.77v53.16H6.29v-43.82c-0.33,0.07-0.66,0.15-1,0.21v98.27H5.79z M691.96,440.04h51.74v53.15h-51.74V440.04z M639.22,385.89
				h51.74v53.16h-51.74V385.89z M639.22,440.04h51.74v53.15h-51.74V440.04z M586.48,331.73h51.74v53.16h-51.74V331.73z
				 M586.48,385.89h51.74v53.16h-51.74V385.89z M586.48,440.04h51.74v53.15h-51.74V440.04z M533.74,440.04h51.74v53.15h-51.74
				V440.04z M481,440.04h51.74v53.15H481V440.04z M428.22,440.04H480v53.15h-51.78V440.04z M375.48,385.89h51.74v53.16h-51.74
				V385.89z M375.48,440.04h51.74v53.15h-51.74V440.04z M322.74,440.04h51.74v53.15h-51.74V440.04z M270,440.04h51.74v53.15H270
				V440.04z M217.26,440.04H269v53.15h-51.74V440.04z M164.52,385.89h51.74v53.16h-51.74V385.89z M164.52,440.04h51.74v53.15h-51.74
				V440.04z M111.78,331.73h51.74v53.16h-51.74V331.73z M111.78,385.89h51.74v53.16h-51.74V385.89z M111.78,440.04h51.74v53.15
				h-51.74V440.04z M59.04,331.73h51.74v53.16H59.04V331.73z M59.04,385.89h51.74v53.16H59.04V385.89z M59.04,440.04h51.74v53.15
				H59.04V440.04z M6.29,440.04h51.74v53.15H6.29V440.04z"/>
		</g>
		<g>
			<g>
				<g>
					<path fill="#E8615B" d="M78.79,45.95l-3.07,1.62c-23.86,12.56-39.41,35.1-41.59,60.31c-1.45,16.81,3.49,37.84,12.01,51.14
						l1.98,3.1l35.07-22.58l-1.97-3.08c-4.12-6.43-6.6-17.06-5.89-25.26c1.06-12.25,8.69-23.25,20.42-29.43l3.43-1.81L78.79,45.95z"
						/>
					<polygon fill="#EFAC37" points="168.15,103.78 200.85,93.2 200.85,93.2 168.15,103.78 					"/>
					<path fill="#EFAC37" d="M90.67,141.58c-21.36-25.88-2.03-63.36,33.84-65.35l-1.01-31.86c-63.59,3.53-97.86,69.97-59.99,115.84
						c22.56,26.77,54.92,34.83,82.85,28.43l-8.96-31.03C121.65,161.22,103.4,156.68,90.67,141.58z"/>
					<path fill="#E8615B" d="M161.91,50.28l-15.74,29.3c9.36,3.85,16.18,10.94,21.06,21.75c0.34,0.76,0.64,1.59,0.92,2.45
						l32.71-10.58c-0.49-1.53-1.02-3-1.63-4.35C190.58,69.68,178.5,57.09,161.91,50.28z"/>
					<path fill="#7DB6F9" d="M199.39,143.35c5.46-15.19,5.98-36.07,1.46-50.15l-32.71,10.58c2.55,7.94,2.26,19.72-0.83,28.29
						c-4.85,13.47-16.48,22.46-29.92,25.54l8.96,31.03C170.19,183.19,190.8,167.22,199.39,143.35z"/>
					<path fill="#FFFFFF" d="M132.91,76.4c4.91,0.49,9.31,1.55,13.26,3.17l15.74-29.3c-7.01-2.88-14.81-4.74-23.51-5.61
						c-5.12-0.49-10.09-0.57-14.89-0.3l1.01,31.86C127.22,76.08,130.02,76.12,132.91,76.4z"/>
				</g>
				<g>
					<path fill="#162E4C" d="M143.27,39.95l-3.87-3.87l1.41-1.41l3.87,3.87L143.27,39.95z M135.86,32.54l-4.24-4.24l1.41-1.41
						l4.24,4.24L135.86,32.54z M128.51,25.73h-6v-2h6V25.73z M117.51,25.73h-6v-2h6V25.73z M106.51,25.73h-6v-2h6V25.73z
						 M95.51,25.73h-6v-2h6V25.73z M84.51,25.73h-6v-2h6V25.73z M73.51,25.73h-6v-2h6V25.73z M62.51,25.73h-6v-2h6V25.73z
						 M51.51,25.73h-6v-2h6V25.73z"/>
					<path fill="#162E4C" d="M46.83,24.73c0,2.78-2.25,5.04-5.04,5.04c-2.78,0-5.04-2.25-5.04-5.04s2.25-5.04,5.04-5.04
						C44.58,19.69,46.83,21.95,46.83,24.73z"/>
				</g>
				<g>
					<path fill="#162E4C" d="M190.58,58.33l-1.4-1.43l4.29-4.19l1.4,1.43L190.58,58.33z M198.45,50.65l-1.4-1.43l4.29-4.19l1.4,1.43
						L198.45,50.65z M206.32,42.96l-1.4-1.43l4.29-4.19l1.4,1.43L206.32,42.96z M214.19,35.28l-1.4-1.43l4.29-4.19l1.4,1.43
						L214.19,35.28z M222.06,27.59l-1.4-1.43l2.49-2.43h3.33v2h-2.52L222.06,27.59z M266.14,25.73h-1.65v-2h1.65V25.73z
						 M259.48,25.73h-6v-2h6V25.73z M248.48,25.73h-6v-2h6V25.73z M237.48,25.73h-6v-2h6V25.73z"/>
					<path fill="#162E4C" d="M268.49,24.73c0,2.78-2.25,5.04-5.04,5.04c-2.78,0-5.04-2.25-5.04-5.04s2.25-5.04,5.04-5.04
						C266.24,19.69,268.49,21.95,268.49,24.73z"/>
				</g>
				<g>
					<path fill="#162E4C" d="M49.81,215.4h-6v-2h6V215.4z M38.81,215.4h-6v-2h6V215.4z M27.81,215.4h-6v-2h6V215.4z M55.16,214.25
						l-1.41-1.41l4.24-4.24l1.41,1.41L55.16,214.25z M62.94,206.47l-1.41-1.41l4.24-4.24l1.41,1.41L62.94,206.47z M70.72,198.69
						l-1.41-1.41l4.24-4.24l1.41,1.41L70.72,198.69z M78.49,190.91l-1.41-1.41l4.24-4.24l1.41,1.41L78.49,190.91z"/>
					<path fill="#162E4C" d="M22.55,214.09c0,2.78-2.25,5.04-5.04,5.04c-2.78,0-5.04-2.25-5.04-5.04s2.25-5.04,5.04-5.04
						C20.29,209.05,22.55,211.31,22.55,214.09z"/>
				</g>
			</g>
			<g>
				<rect x="231.2" y="38.97" fill="#162E4C" width="486.63" height="321.47"/>
				<rect x="244.42" y="52.38" fill="#FFFFFF" width="460.19" height="294.66"/>
				<g>
					<rect x="289.35" fill="#162E4C" width="3" height="38.97"/>
					<rect x="656.69" fill="#162E4C" width="3" height="38.97"/>
				</g>
			</g>
			<g>
				<g>
					<rect x="263.28" y="307.19" fill="#E8615B" width="34.11" height="26.76"/>
					<rect x="302.82" y="261.68" fill="#476B9E" width="34.11" height="72.27"/>
					<rect x="342.36" y="293.83" fill="#E8615B" width="34.11" height="40.12"/>
					<rect x="381.89" y="309.6" fill="#476B9E" width="34.11" height="24.35"/>
					<rect x="421.43" y="280.43" fill="#E8615B" width="34.11" height="53.52"/>
					<rect x="263.28" y="333.45" fill="#162E4C" width="192.26" height="1"/>
				</g>
				<g>
					<g>
						<g>
							<path fill="#162E4C" d="M453.47,246.64H268.13c-2.95,0-5.35-2.4-5.35-5.35s2.4-5.35,5.35-5.35h185.34
								c2.95,0,5.35,2.4,5.35,5.35S456.42,246.64,453.47,246.64z M268.13,236.94c-2.4,0-4.35,1.95-4.35,4.35
								c0,2.4,1.95,4.35,4.35,4.35h185.34c2.4,0,4.35-1.95,4.35-4.35c0-2.4-1.95-4.35-4.35-4.35H268.13z"/>
							<path fill="#E8615B" d="M330.34,244.34h-62c-1.68,0-3.05-1.37-3.05-3.05l0,0c0-1.68,1.37-3.05,3.05-3.05h62
								c1.68,0,3.05,1.37,3.05,3.05l0,0C333.39,242.98,332.02,244.34,330.34,244.34z"/>
						</g>
						<text transform="matrix(1 0 0 1 265.2849 232.3185)" fill="#E8615B" font-family="'BowlbyOneSC-Regular'" font-size="12px">SELL</text>
					</g>
					<g>
						<g>
							<path fill="#162E4C" d="M453.47,213.22H268.13c-2.95,0-5.35-2.4-5.35-5.35c0-2.95,2.4-5.35,5.35-5.35h185.34
								c2.95,0,5.35,2.4,5.35,5.35C458.82,210.83,456.42,213.22,453.47,213.22z M268.13,203.53c-2.4,0-4.35,1.95-4.35,4.35
								c0,2.4,1.95,4.35,4.35,4.35h185.34c2.4,0,4.35-1.95,4.35-4.35c0-2.4-1.95-4.35-4.35-4.35H268.13z"/>
							<path fill="#476B9E" d="M370.17,210.93H268.34c-1.68,0-3.05-1.37-3.05-3.05l0,0c0-1.68,1.37-3.05,3.05-3.05h101.84
								c1.68,0,3.05,1.37,3.05,3.05l0,0C373.22,209.56,371.86,210.93,370.17,210.93z"/>
						</g>
						<text transform="matrix(1 0 0 1 265.2845 199.0227)" fill="#476B9E" font-family="'BowlbyOneSC-Regular'" font-size="12px">BUY</text>
					</g>
				</g>
				<g>
					<g>
						<rect x="629.55" y="220.03" fill="#7DB6F9" width="75.07" height="13.02"/>
						<rect x="555.12" y="220.03" fill="#D9EBFF" width="75.07" height="13.02"/>
					</g>
					<g>
						<rect x="494.82" y="243.84" fill="#D9EBFF" width="22.04" height="13.02"/>
						<rect x="516.86" y="243.84" fill="#7DB6F9" width="187.76" height="13.02"/>
					</g>
					<g>
						<rect x="525.64" y="267.65" fill="#D9EBFF" width="48.08" height="13.02"/>
						<rect x="573.72" y="267.65" fill="#7DB6F9" width="130.89" height="13.02"/>
					</g>
					<g>
						<rect x="485.92" y="291.46" fill="#D9EBFF" width="48.08" height="13.02"/>
						<rect x="534" y="291.46" fill="#7DB6F9" width="170.62" height="13.02"/>
					</g>
					<g>
						<rect x="525.64" y="315.26" fill="#D9EBFF" width="73.36" height="13.02"/>
						<rect x="599" y="315.26" fill="#7DB6F9" width="105.61" height="13.02"/>
					</g>
				</g>
				<g>
					<polygon fill="#DAE9F7" points="492.83,221.33 471.13,156.41 450.14,178.78 419.55,185.13 411.88,142.01 375.89,122.53 
						345.72,176.81 309.94,181.25 289.65,162.23 244.57,176.26 244.27,175.31 289.91,161.1 310.28,180.2 345.1,175.88 375.5,121.18 
						412.78,141.37 420.35,183.94 449.62,177.87 471.55,154.5 493.45,220.03 530.04,206.16 547,175.67 574.4,181.98 574.51,182.16 
						590.88,208.74 643.53,201.1 666.86,167.69 704.71,174.93 704.52,175.92 667.31,168.79 644.11,202.03 643.89,202.06 
						590.38,209.82 573.77,182.86 547.51,176.81 530.73,206.96 					"/>
					<g>
						<path fill="#DAE9F7" d="M418.33,139.8c-0.36-1.02-1.04-1.92-2-2.5c-3.09-1.86-7.98-1.05-9.12,2.74c-1,3.31,1.42,6.83,4.88,7
							c1.9,0.09,4-0.5,5.3-1.95C418.67,143.65,418.96,141.55,418.33,139.8z"/>
						<path fill="#FFFFFF" d="M415.25,140.86c-0.16-0.45-0.46-0.84-0.88-1.1c-1.36-0.82-3.51-0.46-4.01,1.21
							c-0.44,1.46,0.63,3.01,2.15,3.08c0.84,0.04,1.76-0.22,2.33-0.86C415.39,142.55,415.52,141.63,415.25,140.86z"/>
					</g>
					<g>
						<path fill="#DAE9F7" d="M381,120.15c-0.36-1.02-1.04-1.92-2-2.5c-3.09-1.86-7.98-1.05-9.12,2.74c-1,3.31,1.42,6.83,4.88,7
							c1.9,0.09,4-0.5,5.3-1.95C381.33,124,381.63,121.9,381,120.15z"/>
						<path fill="#FFFFFF" d="M377.91,121.21c-0.16-0.45-0.46-0.84-0.88-1.1c-1.36-0.82-3.51-0.46-4.01,1.21
							c-0.44,1.46,0.63,3.01,2.15,3.08c0.84,0.04,1.76-0.22,2.33-0.86C378.06,122.9,378.19,121.98,377.91,121.21z"/>
					</g>
					<g>
						<path fill="#DAE9F7" d="M351.82,173.88c-0.36-1.02-1.04-1.92-2-2.5c-3.09-1.86-7.98-1.05-9.12,2.74c-1,3.31,1.42,6.83,4.88,7
							c1.9,0.09,4-0.5,5.3-1.95C352.16,177.74,352.45,175.64,351.82,173.88z"/>
						<path fill="#FFFFFF" d="M348.73,174.94c-0.16-0.45-0.46-0.84-0.88-1.1c-1.36-0.82-3.51-0.46-4.01,1.21
							c-0.44,1.46,0.63,3.01,2.15,3.08c0.84,0.04,1.76-0.22,2.33-0.86C348.88,176.64,349.01,175.71,348.73,174.94z"/>
					</g>
					<g>
						<path fill="#DAE9F7" d="M316.07,178.6c-0.36-1.02-1.04-1.92-2-2.5c-3.09-1.86-7.98-1.05-9.12,2.74c-1,3.31,1.42,6.83,4.88,7
							c1.9,0.09,4-0.5,5.3-1.95C316.4,182.45,316.69,180.35,316.07,178.6z"/>
						<path fill="#FFFFFF" d="M312.98,179.66c-0.16-0.45-0.46-0.84-0.88-1.1c-1.36-0.82-3.51-0.46-4.01,1.21
							c-0.44,1.46,0.63,3.01,2.15,3.08c0.84,0.04,1.76-0.22,2.33-0.86C313.13,181.35,313.25,180.43,312.98,179.66z"/>
					</g>
					<g>
						<path fill="#DAE9F7" d="M295.13,161c-0.36-1.02-1.04-1.92-2-2.5c-3.09-1.86-7.98-1.05-9.12,2.74c-1,3.31,1.42,6.83,4.88,7
							c1.9,0.09,4-0.5,5.3-1.95C295.46,164.85,295.75,162.75,295.13,161z"/>
						<path fill="#FFFFFF" d="M292.04,162.06c-0.16-0.45-0.46-0.84-0.88-1.1c-1.36-0.82-3.51-0.46-4.01,1.21
							c-0.44,1.46,0.63,3.01,2.15,3.08c0.84,0.04,1.76-0.22,2.33-0.86C292.19,163.76,292.31,162.83,292.04,162.06z"/>
					</g>
					<g>
						<path fill="#DAE9F7" d="M455.58,176.24c-0.36-1.02-1.04-1.92-2-2.5c-3.09-1.86-7.98-1.05-9.12,2.74c-1,3.31,1.42,6.83,4.88,7
							c1.9,0.09,4-0.5,5.3-1.95C455.91,180.09,456.2,177.99,455.58,176.24z"/>
						<path fill="#FFFFFF" d="M452.49,177.3c-0.16-0.45-0.46-0.84-0.88-1.1c-1.36-0.82-3.51-0.46-4.01,1.21
							c-0.44,1.46,0.63,3.01,2.15,3.08c0.84,0.04,1.76-0.22,2.33-0.86C452.64,179,452.76,178.07,452.49,177.3z"/>
					</g>
					<g>
						<path fill="#DAE9F7" d="M475.51,154.04c-0.36-1.02-1.04-1.92-2-2.5c-3.09-1.86-7.98-1.05-9.12,2.74c-1,3.31,1.42,6.83,4.88,7
							c1.9,0.09,4-0.5,5.3-1.95C475.84,157.9,476.14,155.8,475.51,154.04z"/>
						<path fill="#FFFFFF" d="M472.42,155.1c-0.16-0.45-0.46-0.84-0.88-1.1c-1.36-0.82-3.51-0.46-4.01,1.21
							c-0.44,1.46,0.63,3.01,2.15,3.08c0.84,0.04,1.76-0.22,2.33-0.86C472.57,156.8,472.7,155.88,472.42,155.1z"/>
					</g>
					<g>
						<path fill="#DAE9F7" d="M498.66,217.89c-0.36-1.02-1.04-1.92-2-2.5c-3.09-1.86-7.98-1.05-9.12,2.74c-1,3.31,1.42,6.83,4.88,7
							c1.9,0.09,4-0.5,5.3-1.95C498.99,221.75,499.28,219.65,498.66,217.89z"/>
						<path fill="#FFFFFF" d="M495.57,218.95c-0.16-0.45-0.46-0.84-0.88-1.1c-1.36-0.82-3.51-0.46-4.01,1.21
							c-0.44,1.46,0.63,3.01,2.15,3.08c0.84,0.04,1.76-0.22,2.33-0.86C495.72,220.65,495.84,219.73,495.57,218.95z"/>
					</g>
					<g>
						<path fill="#DAE9F7" d="M535.32,205.03c-0.36-1.02-1.04-1.92-2-2.5c-3.09-1.86-7.98-1.05-9.12,2.74c-1,3.31,1.42,6.83,4.88,7
							c1.9,0.09,4-0.5,5.3-1.95C535.66,208.88,535.95,206.78,535.32,205.03z"/>
						<path fill="#FFFFFF" d="M532.23,206.09c-0.16-0.45-0.46-0.84-0.88-1.1c-1.36-0.82-3.51-0.46-4.01,1.21
							c-0.44,1.46,0.63,3.01,2.15,3.08c0.84,0.04,1.76-0.22,2.33-0.86C532.38,207.79,532.51,206.86,532.23,206.09z"/>
					</g>
					<g>
						<path fill="#DAE9F7" d="M552.45,173.88c-0.36-1.02-1.04-1.92-2-2.5c-3.09-1.86-7.98-1.05-9.12,2.74c-1,3.31,1.42,6.83,4.88,7
							c1.9,0.09,4-0.5,5.3-1.95C552.78,177.74,553.08,175.64,552.45,173.88z"/>
						<path fill="#FFFFFF" d="M549.36,174.94c-0.16-0.45-0.46-0.84-0.88-1.1c-1.36-0.82-3.51-0.46-4.01,1.21
							c-0.44,1.46,0.63,3.01,2.15,3.08c0.84,0.04,1.76-0.22,2.33-0.86C549.51,176.64,549.64,175.71,549.36,174.94z"/>
					</g>
					<g>
						<path fill="#DAE9F7" d="M579.6,180.41c-0.36-1.02-1.04-1.92-2-2.5c-3.09-1.86-7.98-1.05-9.12,2.74c-1,3.31,1.42,6.83,4.88,7
							c1.9,0.09,4-0.5,5.3-1.95C579.94,184.27,580.23,182.16,579.6,180.41z"/>
						<path fill="#FFFFFF" d="M576.51,181.47c-0.16-0.45-0.46-0.84-0.88-1.1c-1.36-0.82-3.51-0.46-4.01,1.21
							c-0.44,1.46,0.63,3.01,2.15,3.08c0.84,0.04,1.76-0.22,2.33-0.86C576.66,183.17,576.79,182.24,576.51,181.47z"/>
					</g>
					<g>
						<path fill="#DAE9F7" d="M596.29,207.39c-0.36-1.02-1.04-1.92-2-2.5c-3.09-1.86-7.98-1.05-9.12,2.74c-1,3.31,1.42,6.83,4.88,7
							c1.9,0.09,4-0.5,5.3-1.95C596.63,211.24,596.92,209.14,596.29,207.39z"/>
						<path fill="#FFFFFF" d="M593.2,208.45c-0.16-0.45-0.46-0.84-0.88-1.1c-1.36-0.82-3.51-0.46-4.01,1.21
							c-0.44,1.46,0.63,3.01,2.15,3.08c0.84,0.04,1.76-0.22,2.33-0.86C593.35,210.14,593.48,209.22,593.2,208.45z"/>
					</g>
					<g>
						<path fill="#DAE9F7" d="M649.58,199.67c-0.36-1.02-1.04-1.92-2-2.5c-3.09-1.86-7.98-1.05-9.12,2.74c-1,3.31,1.42,6.83,4.88,7
							c1.9,0.09,4-0.5,5.3-1.95C649.91,203.53,650.2,201.43,649.58,199.67z"/>
						<path fill="#FFFFFF" d="M646.49,200.74c-0.16-0.45-0.46-0.84-0.88-1.1c-1.36-0.82-3.51-0.46-4.01,1.21
							c-0.44,1.46,0.63,3.01,2.15,3.08c0.84,0.04,1.76-0.22,2.33-0.86C646.63,202.43,646.76,201.51,646.49,200.74z"/>
					</g>
					<g>
						<path fill="#DAE9F7" d="M672.6,166.37c-0.36-1.02-1.04-1.92-2-2.5c-3.09-1.86-7.98-1.05-9.12,2.74c-1,3.31,1.42,6.83,4.88,7
							c1.9,0.09,4-0.5,5.3-1.95C672.93,170.23,673.23,168.13,672.6,166.37z"/>
						<path fill="#FFFFFF" d="M669.51,167.43c-0.16-0.45-0.46-0.84-0.88-1.1c-1.36-0.82-3.51-0.46-4.01,1.21
							c-0.44,1.46,0.63,3.01,2.15,3.08c0.84,0.04,1.76-0.22,2.33-0.86C669.66,169.13,669.79,168.21,669.51,167.43z"/>
					</g>
					<g>
						<path fill="#DAE9F7" d="M425.96,181.59c-0.36-1.02-1.04-1.92-2-2.5c-3.09-1.86-7.98-1.05-9.12,2.74c-1,3.31,1.42,6.83,4.88,7
							c1.9,0.09,4-0.5,5.3-1.95C426.29,185.45,426.58,183.35,425.96,181.59z"/>
						<path fill="#FFFFFF" d="M422.87,182.65c-0.16-0.45-0.46-0.84-0.88-1.1c-1.36-0.82-3.51-0.46-4.01,1.21
							c-0.44,1.46,0.63,3.01,2.15,3.08c0.84,0.04,1.76-0.22,2.33-0.86C423.01,184.35,423.14,183.43,422.87,182.65z"/>
					</g>
				</g>
				<g>
					<g>
						<rect x="566.63" y="97.48" fill="#162E4C" width="2" height="68.16"/>
						<path fill="#EFAC37" d="M580.47,146c-1.67,1.46-24.42,1.63-25.98,0c-1.55-1.63-1-26.69,0-28.09c1-1.4,24.31-1.52,25.98,0
							C582.14,119.43,582.14,144.54,580.47,146z"/>
					</g>
					<g>
						<rect x="417.65" y="41.32" fill="#162E4C" width="2" height="92.04"/>
						<path fill="#EFAC37" d="M431.5,56.8c-1.67-1.52-24.98-1.4-25.98,0c-0.75,1.05-1.03,42.36,0,43.43
							c1.55,1.63,24.31,1.46,25.98,0C432.67,99.21,432.67,57.87,431.5,56.8z"/>
					</g>
					<g>
						<rect x="641.11" y="67.75" fill="#162E4C" width="2" height="114.55"/>
						<path fill="#EFAC37" d="M654.96,162.67c-1.67,1.46-24.42,1.63-25.98,0c-1.55-1.63-1-73.08,0-74.48c1-1.4,24.31-1.52,25.98,0
							C656.63,89.71,656.63,161.21,654.96,162.67z"/>
					</g>
					<g>
						<rect x="343.16" y="70.88" fill="#162E4C" width="2" height="86.66"/>
						<path fill="#EFAC37" d="M357.01,96.12c-1.67,1.46-24.42,1.63-25.98,0s-1-14.58,0-15.98c1-1.4,24.31-1.52,25.98,0
							C358.68,81.66,358.68,94.66,357.01,96.12z"/>
					</g>
					<g>
						<g>
							<rect x="305.92" y="69.73" fill="#162E4C" width="2" height="68.16"/>
							<path fill="#7DB6F9" d="M319.77,118.25c-1.67,1.46-24.42,1.63-25.98,0c-1.55-1.63-1-26.69,0-28.09c1-1.4,24.31-1.52,25.98,0
								C321.43,91.68,321.43,116.79,319.77,118.25z"/>
						</g>
						<g>
							<rect x="380.41" y="19.52" fill="#162E4C" width="2" height="85.17"/>
							<path fill="#7DB6F9" d="M394.26,85.06c-1.67,1.46-24.42,1.63-25.98,0c-1.55-1.63-1-53.1,0-54.51c1-1.4,24.31-1.52,25.98,0
								C395.92,32.08,395.92,83.6,394.26,85.06z"/>
						</g>
						<g>
							<rect x="603.87" y="60.87" fill="#162E4C" width="2" height="138.35"/>
							<path fill="#7DB6F9" d="M617.72,187.29c-1.67,1.46-24.42,1.63-25.98,0c-1.55-1.63-1-44.1,0-45.5c1-1.4,24.31-1.52,25.98,0
								C619.38,143.31,619.38,185.82,617.72,187.29z"/>
						</g>
						<g>
							<rect x="678.36" y="23.31" fill="#162E4C" width="2" height="171.95"/>
							<path fill="#7DB6F9" d="M692.21,116.49c-1.67,1.46-24.42,1.63-25.98,0c-1.55-1.63-1-44.1,0-45.5c1-1.4,24.31-1.52,25.98,0
								C693.87,72.51,693.87,115.03,692.21,116.49z"/>
						</g>
						<g>
							<rect x="454.9" y="76.06" fill="#162E4C" width="2" height="55.5"/>
							<path fill="#7DB6F9" d="M468.74,101.3c-1.67,1.46-24.42,1.63-25.98,0s-1-14.58,0-15.98c1-1.4,24.31-1.52,25.98,0
								C470.41,86.84,470.41,99.84,468.74,101.3z"/>
						</g>
						<g>
							<rect x="529.38" y="72.22" fill="#162E4C" width="2" height="81.9"/>
							<path fill="#7DB6F9" d="M543.23,123.87c-1.67,1.46-24.42,1.63-25.98,0c-1.55-1.63-1-14.58,0-15.98c1-1.4,24.31-1.52,25.98,0
								S544.9,122.41,543.23,123.87z"/>
						</g>
					</g>
					<g>
						<rect x="268.68" y="90.27" fill="#162E4C" width="2" height="90.46"/>
						<path fill="#EFAC37" d="M282.52,154.84c-1.67,1.46-24.42,1.63-25.98,0c-1.55-1.63-1-50.5,0-51.9c1-1.4,24.31-1.52,25.98,0
							C284.19,104.46,284.19,153.38,282.52,154.84z"/>
					</g>
					<g>
						<rect x="492.14" y="66.12" fill="#162E4C" width="2" height="102.12"/>
						<path fill="#EFAC37" d="M505.99,142.36c-1.67,1.46-24.42,1.63-25.98,0c-1.55-1.63-1-67.63,0-69.04c1-1.4,24.31-1.52,25.98,0
							C507.65,74.84,507.65,140.89,505.99,142.36z"/>
					</g>
				</g>
			</g>
			<g>
				<g>
					<g>
						
							<rect x="337.51" y="448.53" transform="matrix(0.9159 -0.4014 0.4014 0.9159 -151.9189 173.8642)" fill="#162E4C" width="3" height="2"/>
						<path fill="#162E4C" d="M345.26,447.88l-0.8-1.83l5.37-2.35l0.8,1.83L345.26,447.88z M355.11,443.57l-0.8-1.83l5.37-2.35
							l0.8,1.83L355.11,443.57z M364.96,439.26l-0.8-1.83l5.37-2.35l0.8,1.83L364.96,439.26z M374.8,434.96l-0.8-1.83l5.37-2.35
							l0.8,1.83L374.8,434.96z M384.65,430.65l-0.8-1.83l1.28-0.56l2.14-3.23l1.67,1.1l-2.47,3.72L384.65,430.65z M391.64,422.05
							l-1.67-1.1l3.24-4.89l1.67,1.1L391.64,422.05z M397.57,413.09l-1.67-1.1l3.24-4.89l1.67,1.1L397.57,413.09z M403.51,404.13
							l-1.67-1.1l3.24-4.89l1.67,1.1L403.51,404.13z M409.44,395.17l-1.67-1.1l3.24-4.89l1.67,1.1L409.44,395.17z M415.38,386.21
							l-1.67-1.1l1.58-2.38l3.71-0.86l0.45,1.95l-2.93,0.68L415.38,386.21z M424.21,382.72l-0.45-1.95l5.71-1.32l0.45,1.95
							L424.21,382.72z M434.68,380.3l-0.45-1.95l5.71-1.32l0.45,1.95L434.68,380.3z M445.15,377.89l-0.45-1.95l5.71-1.32l0.45,1.95
							L445.15,377.89z M455.63,375.47l-0.45-1.95l5.71-1.32l0.45,1.95L455.63,375.47z"/>
						<polygon fill="#162E4C" points="466.1,373.05 465.65,371.1 468.12,370.53 469.28,368.28 471.06,369.19 469.47,372.27 						
							"/>
						<path fill="#162E4C" d="M473.44,364.59l-1.78-0.92l2.85-5.52l1.78,0.92L473.44,364.59z M478.66,354.47l-1.78-0.92l2.85-5.52
							l1.78,0.92L478.66,354.47z M483.88,344.35l-1.78-0.92l2.85-5.52l1.78,0.92L483.88,344.35z M489.11,334.23l-1.78-0.92
							l2.85-5.52l1.78,0.92L489.11,334.23z"/>
						<polygon fill="#162E4C" points="494.33,324.11 492.56,323.19 494.18,320.05 497.7,319.68 497.91,321.66 495.46,321.92 						
							"/>
						<path fill="#162E4C" d="M502.81,321.14l-0.21-1.99l5.88-0.63l0.21,1.99L502.81,321.14z M513.59,319.99l-0.21-1.99l5.88-0.63
							l0.21,1.99L513.59,319.99z M524.38,318.84l-0.21-1.99l5.88-0.63l0.21,1.99L524.38,318.84z M535.16,317.7l-0.21-1.99l5.88-0.63
							l0.21,1.99L535.16,317.7z M545.95,316.55l-0.21-1.99l5.88-0.63l0.21,1.99L545.95,316.55z"/>
						<polygon fill="#162E4C" points="559.75,317.25 558.95,315.16 556.73,315.4 556.52,313.41 560.27,313.01 561.62,316.53 						
							"/>
						<path fill="#162E4C" d="M607.24,412.55l-3.17-4.89l1.68-1.09l3.17,4.89L607.24,412.55z M601.44,403.58l-3.17-4.89l1.68-1.09
							l3.17,4.89L601.44,403.58z M595.63,394.61l-3.17-4.89l1.68-1.09l3.17,4.89L595.63,394.61z M589.83,385.64l-3.17-4.89
							l1.68-1.09l3.17,4.89L589.83,385.64z M584.02,376.67l-3.17-4.89l1.68-1.09l3.17,4.89L584.02,376.67z M578.88,367.13
							l-2.09-5.44l1.87-0.72l2.09,5.44L578.88,367.13z M575.06,357.15l-2.09-5.44l1.87-0.72l2.09,5.44L575.06,357.15z
							 M571.23,347.18l-2.09-5.44l1.87-0.72l2.09,5.44L571.23,347.18z M567.4,337.2l-2.09-5.44l1.87-0.72l2.09,5.44L567.4,337.2z
							 M563.58,327.22l-2.09-5.44l1.87-0.72l2.09,5.44L563.58,327.22z"/>
						<polygon fill="#162E4C" points="612.11,420.07 609.88,416.63 611.56,415.54 612.6,417.15 614.11,415.98 615.33,417.55 						
							"/>
						<path fill="#162E4C" d="M619.31,414.46l-1.23-1.58l4.77-3.71l1.23,1.58L619.31,414.46z M628.05,407.66l-1.23-1.58l4.77-3.71
							l1.23,1.58L628.05,407.66z M636.79,400.86l-1.23-1.58l4.77-3.71l1.23,1.58L636.79,400.86z M645.54,394.06l-1.23-1.58
							l4.77-3.71l1.23,1.58L645.54,394.06z M653.81,387.57l-0.19-1.99l6.01-0.58l0.19,1.99L653.81,387.57z M664.83,386.51
							l-0.19-1.99l6.01-0.58l0.19,1.99L664.83,386.51z M675.85,385.44l-0.19-1.99l6.01-0.58l0.19,1.99L675.85,385.44z
							 M686.88,384.37l-0.19-1.99l6.01-0.58l0.19,1.99L686.88,384.37z M697.9,383.31l-0.19-1.99l6.01-0.58l0.19,1.99L697.9,383.31z"
							/>
						
							<rect x="708.83" y="380.1" transform="matrix(0.9954 -0.0957 0.0957 0.9954 -33.2041 69.7103)" fill="#162E4C" width="3" height="2"/>
					</g>
					<path fill="#162E4C" d="M338.32,451.53c0,2.48-2.01,4.49-4.49,4.49c-2.48,0-4.49-2.01-4.49-4.49c0-2.48,2.01-4.49,4.49-4.49
						C336.31,447.04,338.32,449.05,338.32,451.53z"/>
					<circle fill="#162E4C" cx="385.41" cy="428.19" r="4.49"/>
					<circle fill="#162E4C" cx="415.9" cy="383.61" r="4.49"/>
					<circle fill="#162E4C" cx="468.8" cy="371.4" r="4.49"/>
					<path fill="#162E4C" d="M499.31,320.99c0,2.48-2.01,4.49-4.49,4.49c-2.48,0-4.49-2.01-4.49-4.49c0-2.48,2.01-4.49,4.49-4.49
						C497.3,316.5,499.31,318.51,499.31,320.99z"/>
					<circle fill="#162E4C" cx="559.61" cy="314.09" r="4.49"/>
					<circle fill="#162E4C" cx="581.99" cy="370.06" r="4.49"/>
					<path fill="#162E4C" d="M616.84,417.37c0,2.48-2.01,4.49-4.49,4.49c-2.48,0-4.49-2.01-4.49-4.49c0-2.48,2.01-4.49,4.49-4.49
						C614.83,412.88,616.84,414.89,616.84,417.37z"/>
					<circle fill="#162E4C" cx="653.5" cy="386.6" r="4.49"/>
					<polygon fill="#162E4C" points="710.58,371.17 712.95,389.86 736.27,377.17 					"/>
				</g>
				<g>
					<rect x="418.85" y="400.25" fill="#E8615B" width="53.65" height="99.75"/>
					<rect x="581.28" y="433.32" fill="#E8615B" width="53.65" height="66.68"/>
					<g>
						<rect x="500.07" y="331.73" fill="#EFAC37" width="53.65" height="168.27"/>
						<g>
							<polygon fill="#D16D00" points="500.07,353.32 553.72,419.54 553.72,417.95 500.07,351.73 							"/>
							<polygon fill="#D16D00" points="516.86,331.73 553.72,377.23 553.72,375.64 518.14,331.73 							"/>
							<polygon fill="#D16D00" points="517.36,500 500.07,478.66 500.07,480.24 516.08,500 							"/>
							<polygon fill="#D16D00" points="500.07,395.63 553.72,461.85 553.72,460.26 500.07,394.04 							"/>
							<polygon fill="#D16D00" points="551.64,500 500.07,436.35 500.07,437.93 550.36,500 							"/>
							<polygon fill="#D16D00" points="500.07,374.47 553.72,440.69 553.72,439.11 500.07,372.89 							"/>
							<polygon fill="#D16D00" points="500.07,331.73 500.07,332.17 553.72,398.38 553.72,396.8 501,331.73 							"/>
							<polygon fill="#D16D00" points="500.07,416.78 553.72,483 553.72,481.41 500.07,415.19 							"/>
							<polygon fill="#D16D00" points="534.5,500 500.07,457.5 500.07,459.09 533.22,500 							"/>
							<polygon fill="#D16D00" points="525.43,331.73 553.72,366.65 553.72,365.07 526.71,331.73 							"/>
							<polygon fill="#D16D00" points="553.72,343.91 543.85,331.73 542.57,331.73 553.72,345.5 							"/>
							<polygon fill="#D16D00" points="500.07,427.36 553.72,493.58 553.72,491.99 500.07,425.77 							"/>
							<polygon fill="#D16D00" points="500.07,342.74 553.72,408.96 553.72,407.38 500.07,341.16 							"/>
							<polygon fill="#D16D00" points="543.07,500 500.07,446.93 500.07,448.51 541.79,500 							"/>
							<polygon fill="#D16D00" points="500.07,385.05 553.72,451.27 553.72,449.68 500.07,383.46 							"/>
							<polygon fill="#D16D00" points="508.29,331.73 553.72,387.81 553.72,386.22 509.57,331.73 							"/>
							<polygon fill="#D16D00" points="553.72,354.49 535.28,331.73 534,331.73 553.72,356.08 							"/>
							<polygon fill="#D16D00" points="500.07,363.9 553.72,430.12 553.72,428.53 500.07,362.31 							"/>
							<polygon fill="#D16D00" points="500.07,406.2 553.72,472.42 553.72,470.84 500.07,404.62 							"/>
							<polygon fill="#D16D00" points="508.79,500 500.07,489.23 500.07,490.82 507.51,500 							"/>
							<polygon fill="#D16D00" points="525.93,500 500.07,468.08 500.07,469.67 524.65,500 							"/>
						</g>
					</g>
					<g>
						<rect x="662.5" y="400.25" fill="#EFAC37" width="53.65" height="99.75"/>
						<g>
							<polygon fill="#D16D00" points="662.5,421.67 716.15,487.89 716.15,486.31 662.5,420.09 							"/>
							<polygon fill="#D16D00" points="679.29,400.09 716.15,445.59 716.15,444 680.57,400.09 							"/>
							<polygon fill="#D16D00" points="692.97,500 662.5,462.4 662.5,463.98 691.68,500 							"/>
							<polygon fill="#D16D00" points="710.11,500 662.5,441.24 662.5,442.83 708.82,500 							"/>
							<polygon fill="#D16D00" points="662.5,400.09 662.5,400.52 716.15,466.74 716.15,465.15 663.44,400.09 							"/>
							<polygon fill="#D16D00" points="675.83,500 662.5,483.55 662.5,485.14 674.54,500 							"/>
							<polygon fill="#D16D00" points="687.86,400.09 716.15,435.01 716.15,433.42 689.14,400.09 							"/>
							<polygon fill="#D16D00" points="716.15,412.27 706.28,400.09 705,400.09 716.15,413.86 							"/>
							<polygon fill="#D16D00" points="667.26,500 662.5,494.13 662.5,495.71 665.97,500 							"/>
							<polygon fill="#D16D00" points="662.5,411.1 716.15,477.32 716.15,475.73 662.5,409.51 							"/>
							<polygon fill="#D16D00" points="701.54,500 662.5,451.82 662.5,453.41 700.25,500 							"/>
							<polygon fill="#D16D00" points="670.72,400.09 716.15,456.16 716.15,454.58 672.01,400.09 							"/>
							<polygon fill="#D16D00" points="716.15,422.85 697.71,400.09 696.43,400.09 716.15,424.43 							"/>
							<polygon fill="#D16D00" points="662.5,432.25 716.15,498.47 716.15,496.88 662.5,430.67 							"/>
							<polygon fill="#D16D00" points="684.4,500 662.5,472.97 662.5,474.56 683.11,500 							"/>
						</g>
					</g>
					<g>
						<rect x="337.64" y="464.55" fill="#EFAC37" width="53.65" height="35.45"/>
						<g>
							<polygon fill="#D16D00" points="350.42,500 337.64,484.37 337.64,485.94 349.13,500 							"/>
							<polygon fill="#D16D00" points="384.7,500 355.71,464.55 354.43,464.55 383.41,500 							"/>
							<polygon fill="#D16D00" points="367.56,500 338.57,464.55 337.64,464.55 337.64,464.98 366.27,500 							"/>
							<polygon fill="#D16D00" points="363,464.55 391.29,499.16 391.29,497.58 364.28,464.55 							"/>
							<polygon fill="#D16D00" points="391.29,476.62 381.42,464.55 380.14,464.55 391.29,478.19 							"/>
							<polygon fill="#D16D00" points="358.99,500 337.64,473.89 337.64,475.46 357.7,500 							"/>
							<polygon fill="#D16D00" points="376.13,500 347.14,464.55 345.86,464.55 374.84,500 							"/>
							<polygon fill="#D16D00" points="391.29,487.1 372.85,464.55 371.57,464.55 391.29,488.67 							"/>
							<polygon fill="#D16D00" points="341.85,500 337.64,494.85 337.64,496.42 340.56,500 							"/>
						</g>
					</g>
				</g>
			</g>
			<g>
				<path fill="#FFFFFF" d="M220.48,215.61c-1.24,0-2.68-1.01-4.11-2.92c-1.59-2.12-3.05-5.13-4.11-8.48
					c-1.06-3.35-1.59-6.65-1.51-9.3c0.09-2.82,0.9-4.61,2.28-5.05c1.37-0.44,3.07,0.57,4.76,2.82c1.59,2.12,3.05,5.13,4.11,8.48
					c2.31,7.31,1.98,13.48-0.77,14.34C220.92,215.58,220.7,215.61,220.48,215.61z M213.68,190.77c-0.12,0-0.24,0.02-0.35,0.05
					c-0.92,0.29-1.5,1.83-1.58,4.13c-0.08,2.54,0.44,5.72,1.46,8.96c1.03,3.25,2.43,6.15,3.95,8.18c1.38,1.83,2.74,2.76,3.66,2.47
					c1.83-0.58,2.33-6.1,0.12-13.09c-1.03-3.24-2.43-6.15-3.95-8.18C215.78,191.68,214.58,190.77,213.68,190.77z"/>
				<g>
					<path fill="#EFAB8B" d="M134.48,274.87l1.87-19.29l5.93-17.64l58.41-69.35c0,0,7.23,11.34,12.61,31.42
						c1.49,5.55,8.94,17.05,9.56,20.82c0.61,3.77-4.09,4.87-3.87,7.12c2.57,26.2,0.8,30.39-6.13,34.03
						c-5.8,2.73-26.55,1.19-26.55,1.19l-0.69,18.68c0,0,5.25,13.29,3.57,13.08c-1.68-0.22-30.2-3.55-30.2-3.55l-16.09-11.19
						L134.48,274.87z"/>
					<path fill="#162E4C" d="M180.39,235.47c-11.97,21.88-28.37,22.7-44.68,22.18c-28.06-27.81-44.36-50.06-30.07-70.32
						c-0.2-26.38,26.41-47.28,65.9-43.04c15.4-11.81,46.05,0.89,33.09,31.74c0,0-15.2,17.19-2.08,44.24
						c-2.42,3.27-4.62,2.3-6.69-1.03c0,0-5.99-13.52-15.09-5.56C171.67,221.62,180.39,235.47,180.39,235.47z"/>
					<path fill="#162E4C" d="M189.87,240.42c-6.88,0-9.77-4.48-9.9-4.68l0.85-0.53c0.12,0.2,3.13,4.81,10.49,4.14l0.09,1
						C190.86,240.39,190.35,240.42,189.87,240.42z"/>
					
						<rect x="185.47" y="253.22" transform="matrix(0.9976 -0.0695 0.0695 0.9976 -17.4968 13.5506)" fill="#162E4C" width="1" height="9.96"/>
					<path fill="#162E4C" d="M188.08,231.32c-4.34-0.65-6.96-5.22-6.88-9.09c0.05-2.87,1.66-6.11,5.98-6.58l0.11,0.99
						c-3.13,0.34-5.03,2.44-5.09,5.61c-0.07,3.44,2.22,7.51,6.03,8.08L188.08,231.32z"/>
					<path fill="#162E4C" d="M191.96,228.33c-1.59-1.38-3.16-2-4.68-1.86c-2.05,0.2-3.3,1.77-3.31,1.79l-0.79-0.62
						c0.06-0.08,1.53-1.92,4.01-2.17c1.79-0.18,3.62,0.53,5.43,2.1L191.96,228.33z"/>
				</g>
				<path fill="#7DB6F9" d="M168.75,395.31c-21.32-0.46-44.92-0.22-67.08,1.47c16.22-24.7,33.92-54.66,36.65-71.44
					c4.32-27.31-64.14-18.7-64.14-18.7S19.69,418.33,44.83,443.89c25.14,25.57,90.85-4.21,128.64-14.07
					C175.15,421.26,171.45,401.45,168.75,395.31z"/>
				<g>
					<path fill="#EFAB8B" d="M306.01,282.56l15.27-38.04c2.72-6.62,10.33-2.86,7.92,3.2l-4.69,13.7c5.9-1.14,6.83,1.11,6.37,6.82
						c4.85-0.38,6.93,2.63,6,9.33c3.36-0.6,5.34,1.22,5.58,6.09c0,0,0.82,5.77-2.01,14.44c-2.83,8.67-9.88,20.31-9.88,20.31
						l-26.09-5.44c0,0-8.32-18.75-8.81-22.16c-0.49-3.4-0.04-15.29,0.99-17.21c1.03-1.93,8.38-11.44,8.38-11.44s4.19,1.91,2.87,6.24
						c-1.32,4.33-2.82,7.93-2.82,7.93L306.01,282.56z"/>
					
						<rect x="300.75" y="285.66" transform="matrix(0.3633 -0.9317 0.9317 0.3633 -72.6586 465.9979)" fill="#162E4C" width="7.72" height="1"/>
					
						<rect x="314.41" y="268.13" transform="matrix(0.3262 -0.9453 0.9453 0.3262 -36.9471 485.4216)" fill="#162E4C" width="15.24" height="1"/>
					
						<rect x="324.39" y="272.8" transform="matrix(0.2444 -0.9697 0.9697 0.2444 -15.9709 526.0975)" fill="#162E4C" width="10.43" height="1"/>
					
						<rect x="334.58" y="279" transform="matrix(0.171 -0.9853 0.9853 0.171 3.5996 563.273)" fill="#162E4C" width="3.92" height="1"/>
				</g>
				<path fill="#FFFFFF" d="M297.34,316.73c0,0,2.24-8.7,3.77-10.46c4.91-1.86,27.87,2.32,32.53,6.76
					c0.83,1.37-0.45,11.09-0.45,11.09L297.34,316.73z"/>
				<path fill="#7DB6F9" d="M134.65,271.88c27.06-0.62,50.76,3.36,50.76,3.36s38.73,14.07,55.16,30.01
					c11.74,11.38,1.12,63.67-3.37,107.33c-1.8,17.47,8.71,87.42,8.71,87.42H91.65c0,0-30.42-168.35-17.47-193.25
					C87.13,281.84,134.65,271.88,134.65,271.88z"/>
				<path fill="#162E4C" d="M83.53,454.09c-4.7-30.32-10.69-73.19-12.5-105.2l1-0.06c1.82,31.98,7.8,74.81,12.49,105.11
					L83.53,454.09z"/>
				<path fill="#7DB6F9" d="M334.46,320.69c-8.3-4.57-29.91-7.91-37.11-7.47c-5.52,15.27-11.05,31.95-15.72,48.57
					c-13.59-23.46-29.03-46.97-41.06-56.54c-23.58-18.59-26.9,79.52-26.9,79.52s56.47,74.99,88.41,71.15
					C334.02,452.08,332.55,361.26,334.46,320.69z"/>
				
					<rect x="227.15" y="386.49" transform="matrix(0.7633 -0.646 0.646 0.7633 -205.3526 242.0285)" fill="#162E4C" width="1" height="29.59"/>
				
					<rect x="290.61" y="359.11" transform="matrix(0.8649 -0.5019 0.5019 0.8649 -150.4616 197.1836)" fill="#162E4C" width="1" height="38.03"/>
				<path fill="#FFFFFF" d="M135.62,263.17l-5.29,9.76c11.54,5.49,32.78,6.14,59.54,4.02l-3.55-10.05
					C163.68,262.58,145.54,260.67,135.62,263.17z"/>
				
					<rect x="191.78" y="206.57" transform="matrix(0.9075 -0.42 0.42 0.9075 -67.814 106.183)" fill="#FFFFFF" width="30.84" height="1"/>
				<circle fill="#B3D6FF" cx="331.08" cy="315.55" r="1.35"/>
			</g>
		</g>
	</g>
</g>
</svg>
