<?xml version="1.0" encoding="utf-8"?>
<!-- Generator: Adobe Illustrator 23.0.5, SVG Export Plug-In . SVG Version: 6.00 Build 0)  -->
<svg version="1.1" id="Capa_1" xmlns="http://www.w3.org/2000/svg" xmlns:xlink="http://www.w3.org/1999/xlink" x="0px" y="0px"
	 viewBox="0 0 425.2 374.98" style="enable-background:new 0 0 425.2 374.98;" xml:space="preserve">
<style type="text/css">
	.st0{fill:#1F95C5;}
	.st1{fill:#007FAD;}
	.st2{fill:#AAAAA9;}
	.st3{fill:#C6C6C6;}
	.st4{fill:#DADADA;}
	.st5{fill:#A1D2D9;}
	.st6{fill:#C1CED5;}
	.st7{opacity:0.5;}
	.st8{fill:#FFFFFF;}
	.st9{fill:#E4B500;}
	.st10{fill:#FFF04A;}
	.st11{fill:#FFDE00;}
	.st12{fill:#FEC900;}
	.st13{fill:#F6A30D;}
	.st14{fill:none;stroke:#F49512;stroke-width:4.6536;stroke-miterlimit:10;}
	.st15{fill:none;stroke:#F49512;stroke-width:3.7359;stroke-miterlimit:10;}
	.st16{fill:none;stroke:#F49512;stroke-width:3.4997;stroke-miterlimit:10;}
	.st17{fill:none;stroke:#F49512;stroke-width:2.6859;stroke-miterlimit:10;}
	.st18{fill:none;stroke:#F49512;stroke-width:3.8133;stroke-miterlimit:10;}
	.st19{fill:#462703;}
	.st20{fill:#683C11;}
	.st21{fill:none;stroke:#936037;stroke-width:1.4161;stroke-linecap:round;stroke-miterlimit:10;stroke-dasharray:3.7763;}
	.st22{fill:#8B4F1C;}
	.st23{fill:#F39200;}
	.st24{fill:#CC7D00;}
	.st25{fill:#E1930D;}
	.st26{fill:none;stroke:#F49512;stroke-width:3.1356;stroke-miterlimit:10;}
</style>
<g>
	<rect class="st0" width="425.2" height="374.98"/>
	<ellipse class="st1" cx="155.29" cy="303.13" rx="86.18" ry="12.18"/>
	<ellipse class="st1" cx="216.86" cy="321.98" rx="47.76" ry="12.18"/>
	<ellipse class="st1" cx="300.48" cy="317.88" rx="79.6" ry="12.18"/>
	<g>
		<g>
			<g>
				<rect x="138.65" y="256.23" class="st2" width="40.66" height="26.37"/>
				<rect x="108.98" y="295.79" class="st2" width="97.25" height="8.24"/>
				<polygon class="st3" points="206.23,295.79 108.98,295.79 138.65,282.6 179.31,282.6 				"/>
				<path class="st4" d="M277.66,256.72c0,6.1-5.9,11.04-13.19,11.04H55.68c-7.28,0-13.19-4.94-13.19-11.04V127.89
					c0-6.1,5.9-11.04,13.19-11.04h208.79c7.28,0,13.19,4.94,13.19,11.04V256.72z"/>
				<rect x="51.29" y="127.66" class="st5" width="217.58" height="127.47"/>
				<polygon class="st6" points="55.28,251.14 55.28,127.66 51.29,127.66 51.29,255.13 268.87,255.13 268.87,251.14 				"/>
			</g>
			<g class="st7">
				<polygon class="st8" points="217.51,127.66 51.29,246.25 51.29,211.61 169.09,127.66 				"/>
				<polygon class="st8" points="261.79,127.66 83.09,255.13 58.91,255.13 237.57,127.66 				"/>
				<polygon class="st8" points="268.87,140.71 268.87,150.18 121.53,255.13 108.32,255.13 				"/>
			</g>
		</g>
		<g>
			<g>
				<ellipse class="st9" cx="288.12" cy="192.46" rx="34.35" ry="34.35"/>
				<path class="st10" d="M319.7,192.47c0,18.97-15.38,34.35-34.35,34.35S251,211.44,251,192.47s15.38-34.35,34.35-34.35
					S319.7,173.5,319.7,192.47z"/>
				<ellipse class="st11" cx="283.04" cy="192.46" rx="34.35" ry="34.35"/>
				<path class="st12" d="M312.32,192.47c0,16.17-13.11,29.27-29.27,29.27c-16.17,0-29.27-13.1-29.27-29.27s13.1-29.27,29.27-29.27
					C299.21,163.2,312.32,176.3,312.32,192.47z"/>
				<path class="st13" d="M286.09,218.69c-16.17,0-29.27-13.1-29.27-29.27c0-7.31,2.68-13.98,7.11-19.11
					c-6.22,5.37-10.16,13.3-10.16,22.16c0,16.17,13.1,29.27,29.27,29.27c8.86,0,16.79-3.94,22.16-10.16
					C300.07,216.01,293.4,218.69,286.09,218.69z"/>
			</g>
			<g>
				<polyline class="st14" points="268.81,176.39 283.57,190.73 283.57,213.84 				"/>
				<line class="st14" x1="283.57" y1="190.94" x2="297.91" y2="176.18"/>
				<line class="st14" x1="272.19" y1="194.11" x2="296.09" y2="194.11"/>
				<line class="st14" x1="272.19" y1="203.11" x2="296.09" y2="203.11"/>
			</g>
		</g>
		<g>
			<g>
				<path class="st9" d="M366.85,199.64c0,15.23-12.34,27.57-27.57,27.57s-27.57-12.34-27.57-27.57c0-15.23,12.35-27.57,27.57-27.57
					C354.51,172.07,366.85,184.41,366.85,199.64z"/>
				<path class="st10" d="M364.63,199.64c0,15.23-12.35,27.57-27.57,27.57c-15.23,0-27.57-12.34-27.57-27.57
					c0-15.23,12.34-27.57,27.57-27.57C352.28,172.07,364.63,184.41,364.63,199.64z"/>
				<path class="st11" d="M362.78,199.64c0,15.23-12.35,27.57-27.57,27.57c-15.23,0-27.57-12.34-27.57-27.57
					c0-15.23,12.35-27.57,27.57-27.57C350.43,172.07,362.78,184.41,362.78,199.64z"/>
				<path class="st12" d="M358.7,199.64c0,12.98-10.52,23.5-23.5,23.5s-23.5-10.52-23.5-23.5s10.52-23.5,23.5-23.5
					C348.18,176.14,358.7,186.66,358.7,199.64z"/>
				<path class="st13" d="M337.65,220.7c-12.98,0-23.5-10.52-23.5-23.5c0-5.87,2.15-11.23,5.71-15.34
					c-4.99,4.31-8.15,10.68-8.15,17.79c0,12.98,10.52,23.5,23.5,23.5c7.11,0,13.48-3.16,17.79-8.15
					C348.88,218.54,343.51,220.7,337.65,220.7z"/>
			</g>
			<g>
				<path class="st15" d="M345.24,188.26c0,0-12.51-6.08-15.42,0.95c-3.35,8.09,14.72,8.79,15.39,16.74c0.69,8.1-13,7.7-18.3,2.43"
					/>
				<line class="st15" x1="336.08" y1="185.82" x2="336.08" y2="180.56"/>
				<line class="st15" x1="336.08" y1="217.47" x2="336.08" y2="212.21"/>
			</g>
		</g>
		<g>
			<g>
				<path class="st9" d="M328.23,138.48c0,14.27-11.56,25.83-25.83,25.83s-25.83-11.56-25.83-25.83s11.57-25.83,25.83-25.83
					C316.67,112.65,328.23,124.21,328.23,138.48z"/>
				<path class="st10" d="M326.15,138.48c0,14.27-11.56,25.83-25.83,25.83s-25.83-11.56-25.83-25.83s11.56-25.83,25.83-25.83
					C314.58,112.65,326.15,124.21,326.15,138.48z"/>
				<path class="st11" d="M324.41,138.48c0,14.27-11.56,25.83-25.83,25.83c-14.26,0-25.83-11.56-25.83-25.83
					s11.57-25.83,25.83-25.83C312.85,112.65,324.41,124.21,324.41,138.48z"/>
				<path class="st12" d="M320.6,138.48c0,12.16-9.86,22.01-22.01,22.01c-12.16,0-22.01-9.85-22.01-22.01
					c0-12.16,9.86-22.01,22.01-22.01C310.74,116.46,320.6,126.32,320.6,138.48z"/>
				<path class="st13" d="M300.88,158.2c-12.16,0-22.01-9.85-22.01-22.01c0-5.5,2.02-10.52,5.35-14.37
					c-4.68,4.04-7.64,10-7.64,16.66c0,12.16,9.86,22.01,22.01,22.01c6.66,0,12.63-2.96,16.66-7.64
					C311.39,156.18,306.37,158.2,300.88,158.2z"/>
			</g>
			<g>
				<line class="st16" x1="290.93" y1="151.01" x2="308.47" y2="151.01"/>
				<line class="st16" x1="290.93" y1="137.63" x2="306.5" y2="137.63"/>
				<path class="st16" d="M294.66,151.01c0,0,0-3.95,0-19.51s13.81-8.33,13.81-5.7s0,5.92,0,5.92"/>
			</g>
		</g>
		<g>
			<g>
				<path class="st9" d="M322.86,52.68c0,10.95-8.88,19.82-19.82,19.82c-10.95,0-19.82-8.88-19.82-19.82
					c0-10.95,8.88-19.82,19.82-19.82C313.98,32.85,322.86,41.73,322.86,52.68z"/>
				<path class="st10" d="M321.26,52.68c0,10.95-8.88,19.82-19.82,19.82c-10.95,0-19.82-8.88-19.82-19.82
					c0-10.95,8.88-19.82,19.82-19.82C312.38,32.85,321.26,41.73,321.26,52.68z"/>
				<path class="st11" d="M319.93,52.68c0,10.95-8.88,19.82-19.82,19.82c-10.95,0-19.82-8.88-19.82-19.82
					c0-10.95,8.88-19.82,19.82-19.82C311.05,32.85,319.93,41.73,319.93,52.68z"/>
				<path class="st12" d="M317,52.68c0,9.33-7.56,16.89-16.89,16.89c-9.33,0-16.89-7.56-16.89-16.89s7.56-16.89,16.89-16.89
					C309.43,35.78,317,43.35,317,52.68z"/>
				<path class="st13" d="M301.86,67.81c-9.33,0-16.89-7.56-16.89-16.89c0-4.22,1.55-8.07,4.1-11.03c-3.59,3.1-5.86,7.68-5.86,12.79
					c0,9.33,7.56,16.89,16.89,16.89c5.11,0,9.69-2.27,12.79-5.86C309.93,66.26,306.08,67.81,301.86,67.81z"/>
			</g>
			<g>
				<path class="st17" d="M294.23,62.29c0,0,7.03,0,10.32,0c5.01,0,5.56-10.26,0-10.26c-2.83,0-10.32,0-10.32,0"/>
				<path class="st17" d="M297.09,62.29V43.45h-3.2c0,0,7.17,0,9.14,0c5.35,0,5.75,8.6-0.95,8.6"/>
				<line class="st17" x1="297.09" y1="43.45" x2="297.09" y2="40.37"/>
				<line class="st17" x1="300.48" y1="43.45" x2="300.48" y2="40.37"/>
				<line class="st17" x1="297.09" y1="65.36" x2="297.09" y2="62.29"/>
				<line class="st17" x1="300.48" y1="65.36" x2="300.48" y2="62.29"/>
			</g>
		</g>
		<g>
			<g>
				<path class="st9" d="M367.27,124.25c0,15.54-12.6,28.15-28.14,28.15c-15.54,0-28.14-12.6-28.14-28.15
					c0-15.54,12.6-28.14,28.14-28.14C354.67,96.11,367.27,108.71,367.27,124.25z"/>
				<path class="st10" d="M365,124.25c0,15.54-12.6,28.15-28.14,28.15s-28.14-12.6-28.14-28.15c0-15.54,12.6-28.14,28.14-28.14
					C352.4,96.11,365,108.71,365,124.25z"/>
				<path class="st11" d="M363.11,124.25c0,15.54-12.6,28.15-28.14,28.15s-28.14-12.6-28.14-28.15c0-15.54,12.6-28.14,28.14-28.14
					C350.51,96.11,363.11,108.71,363.11,124.25z"/>
				<path class="st12" d="M358.95,124.25c0,13.25-10.74,23.99-23.99,23.99s-23.99-10.74-23.99-23.99s10.74-23.98,23.99-23.98
					C348.21,100.27,358.95,111.01,358.95,124.25z"/>
				<path class="st13" d="M337.46,145.74c-13.25,0-23.98-10.74-23.98-23.99c0-5.99,2.2-11.46,5.83-15.66
					c-5.1,4.4-8.32,10.9-8.32,18.16c0,13.25,10.74,23.99,23.99,23.99c7.26,0,13.76-3.23,18.16-8.32
					C348.92,143.54,343.45,145.74,337.46,145.74z"/>
			</g>
			<g>
				<line class="st18" x1="324.89" y1="126.2" x2="340.57" y2="126.2"/>
				<line class="st18" x1="324.89" y1="120.4" x2="340.57" y2="120.4"/>
				<path class="st18" d="M341.97,131.99c0,0,0,2.62,0,4.13c0,1.5-13.33,1.5-13.33-13.56c0-15.67,13.33-14.57,13.33-11.92v2.15"/>
			</g>
		</g>
		<g>
			<path class="st19" d="M372.53,300.5c0,6.26-5.07,11.33-11.33,11.33H237.21c-6.26,0-11.33-5.07-11.33-11.33v-86.86
				c0-6.26,5.07-11.33,11.33-11.33H361.2c6.26,0,11.33,5.07,11.33,11.33V300.5z"/>
			<path class="st20" d="M372.53,308.06c0,6.26-5.07,11.33-11.33,11.33H237.21c-6.26,0-11.33-5.07-11.33-11.33V221.2
				c0-6.26,5.07-11.33,11.33-11.33H361.2c6.26,0,11.33,5.07,11.33,11.33V308.06z"/>
			<path class="st21" d="M364.13,303.08c0,5.54-4.49,10.03-10.03,10.03H244.31c-5.54,0-10.03-4.49-10.03-10.03v-76.91
				c0-5.54,4.49-10.03,10.03-10.03H354.1c5.54,0,10.03,4.49,10.03,10.03V303.08z"/>
			<path class="st19" d="M380.71,272.91c0,0-3.99,7.29-8.92,7.29h-41.63c-4.93,0-8.92-4-8.92-8.93v-19.11
				c0-4.93,3.46-8.93,3.46-8.93h47.09c4.93,0,8.92,4,8.92,8.93L380.71,272.91L380.71,272.91z"/>
			<path class="st22" d="M382.48,267.57c0,4.93-3.99,8.93-8.92,8.93h-41.63c-4.93,0-8.92-4-8.92-8.93v-19.11
				c0-4.93,3.99-8.93,8.92-8.93h41.63c4.93,0,8.92,4,8.92,8.93V267.57z"/>
			<path class="st23" d="M348.14,258.02c0,6.13-4.97,11.09-11.09,11.09c-6.13,0-11.09-4.97-11.09-11.09
				c0-6.13,4.97-11.09,11.09-11.09S348.14,251.89,348.14,258.02z"/>
			<path class="st24" d="M341.56,247.9c1.53,1.9,2.45,4.31,2.45,6.94c0,6.13-4.97,11.09-11.09,11.09c-1.61,0-3.14-0.35-4.52-0.97
				c2.03,2.53,5.15,4.15,8.65,4.15c6.13,0,11.09-4.97,11.09-11.09C348.14,253.5,345.44,249.63,341.56,247.9z"/>
		</g>
		<g>
			<g>
				<g>
					<path class="st9" d="M217.85,327.76c-18.97,0-34.35-5.52-34.35-12.32c0-1.68,0-8.77,0-8.77l68.69-0.72v9.48
						C252.2,322.25,236.82,327.76,217.85,327.76z"/>
					<g>
						<path class="st25" d="M217.38,319.63v8.13c-0.34,0.01-0.69,0-1.02-0.01v-8.12H217.38z"/>
						<path class="st25" d="M221.56,319.63v8.06c-0.34,0.02-0.68,0.02-1.02,0.03v-8.1h1.02V319.63z"/>
						<path class="st25" d="M213.78,319.13v8.55c-0.34-0.01-0.68-0.02-1.02-0.04v-8.51L213.78,319.13L213.78,319.13z"/>
						<path class="st25" d="M209.91,318.19v9.24c-0.34-0.02-0.69-0.06-1.02-0.09v-9.15H209.91z"/>
						<path class="st25" d="M202.04,317v9.37c-0.34-0.06-0.68-0.12-1.02-0.2V317H202.04z"/>
						<path class="st25" d="M198.15,315.96v9.57c-0.34-0.08-0.69-0.17-1.02-0.26v-9.31H198.15z"/>
						<path class="st25" d="M194.57,315.31v9.19c-0.35-0.11-0.7-0.23-1.02-0.35v-8.84H194.57z"/>
						<polygon class="st25" points="189.61,322.46 189.61,313.66 188.59,313.66 188.59,321.89 						"/>
						<polygon class="st25" points="186.07,320.13 186.07,311.37 185.06,311.37 185.06,319.12 						"/>
						<path class="st25" d="M205.61,317v9.96c-0.34-0.04-0.69-0.09-1.02-0.15V317H205.61z"/>
						<path class="st25" d="M225.86,318.7v8.73c-0.34,0.02-0.68,0.06-1.02,0.07v-8.81L225.86,318.7L225.86,318.7z"/>
						<path class="st25" d="M229.45,318.19v8.85c-0.34,0.05-0.68,0.09-1.02,0.13v-8.98H229.45z"/>
						<path class="st25" d="M233.64,317v9.38c-0.34,0.07-0.67,0.13-1.01,0.18V317H233.64z"/>
						<path class="st25" d="M237.28,316.84v8.77c-0.34,0.08-0.68,0.16-1.02,0.24v-9.01L237.28,316.84L237.28,316.84z"/>
						<path class="st25" d="M241.47,315.31v9.08c-0.34,0.11-0.67,0.23-1.02,0.33v-9.41L241.47,315.31L241.47,315.31z"/>
						<polygon class="st25" points="246.35,322.33 246.35,313.66 245.33,313.66 245.33,322.84 						"/>
						<path class="st25" d="M250.34,311.07v8.39c-0.29,0.32-0.64,0.63-1.02,0.93v-9.32H250.34z"/>
					</g>
					<ellipse class="st12" cx="217.85" cy="305.68" rx="29.27" ry="10.5"/>
					<path class="st13" d="M191.63,306.78c0-5.8,13.1-10.5,29.27-10.5c7.31,0,13.98,0.96,19.11,2.55
						c-5.37-2.23-13.3-3.64-22.16-3.64c-16.17,0-29.27,4.7-29.27,10.5c0,3.18,3.94,6.02,10.16,7.95
						C194.31,311.79,191.63,309.4,191.63,306.78z"/>
				</g>
				<g>
					<line class="st26" x1="224.1" y1="311.41" x2="224.1" y2="302.72"/>
					<line class="st26" x1="217.02" y1="311.41" x2="217.02" y2="302.72"/>
					<path class="st26" d="M231.17,301.94c0,0,3.2,0,5.04,0s1.84,7.38-16.55,7.38c-19.13,0-17.78-7.38-14.55-7.38h2.63"/>
				</g>
			</g>
			<g>
				<g>
					<path class="st9" d="M212.93,316.77c-18.97,0-34.35-5.52-34.35-12.32c0-1.68,0-8.77,0-8.77l68.69-0.72v9.48
						C247.28,311.25,231.9,316.77,212.93,316.77z"/>
					<g>
						<path class="st25" d="M212.46,308.64v8.13c-0.34,0.01-0.69,0-1.02-0.01v-8.12H212.46z"/>
						<path class="st25" d="M216.63,308.64v8.06c-0.34,0.02-0.68,0.02-1.02,0.03v-8.1h1.02V308.64z"/>
						<path class="st25" d="M208.86,308.14v8.55c-0.34-0.01-0.68-0.02-1.02-0.04v-8.51L208.86,308.14L208.86,308.14z"/>
						<path class="st25" d="M204.99,307.19v9.24c-0.34-0.02-0.69-0.06-1.02-0.09v-9.15H204.99z"/>
						<path class="st25" d="M197.11,306.01v9.37c-0.34-0.06-0.68-0.12-1.02-0.2V306h1.02V306.01z"/>
						<path class="st25" d="M193.23,304.97v9.57c-0.34-0.08-0.69-0.17-1.02-0.26v-9.31H193.23z"/>
						<path class="st25" d="M189.64,304.31v9.19c-0.35-0.11-0.7-0.23-1.02-0.35v-8.84H189.64z"/>
						<polygon class="st25" points="184.68,311.47 184.68,302.67 183.66,302.67 183.66,310.9 						"/>
						<polygon class="st25" points="181.15,309.14 181.15,300.38 180.13,300.38 180.13,308.13 						"/>
						<path class="st25" d="M200.69,306.01v9.96c-0.34-0.04-0.69-0.09-1.02-0.15v-9.81H200.69z"/>
						<path class="st25" d="M220.93,307.7v8.74c-0.33,0.02-0.68,0.06-1.02,0.07v-8.81H220.93z"/>
						<path class="st25" d="M224.53,307.19v8.85c-0.34,0.05-0.68,0.09-1.02,0.13v-8.98H224.53z"/>
						<path class="st25" d="M228.72,306.01v9.38c-0.34,0.07-0.67,0.13-1.02,0.18v-9.56H228.72z"/>
						<path class="st25" d="M232.35,305.84v8.77c-0.33,0.08-0.68,0.16-1.02,0.24v-9L232.35,305.84L232.35,305.84z"/>
						<path class="st25" d="M236.54,304.31v9.08c-0.34,0.11-0.67,0.23-1.02,0.34v-9.41L236.54,304.31L236.54,304.31z"/>
						<polygon class="st25" points="241.42,311.34 241.42,302.67 240.4,302.67 240.4,311.85 						"/>
						<path class="st25" d="M245.41,300.07v8.39c-0.29,0.32-0.64,0.63-1.01,0.93v-9.32H245.41z"/>
					</g>
					<path class="st10" d="M212.93,309.62c-18.97,0-34.35-5.69-34.35-12.71s15.38-12.72,34.35-12.72s34.35,5.69,34.35,12.72
						C247.28,303.93,231.9,309.62,212.93,309.62z"/>
					<path class="st11" d="M212.93,308c-18.97,0-34.35-5.52-34.35-12.32c0-6.8,15.38-12.32,34.35-12.32s34.35,5.52,34.35,12.32
						C247.28,302.49,231.9,308,212.93,308z"/>
					<ellipse class="st12" cx="212.93" cy="294.69" rx="29.27" ry="10.5"/>
					<path class="st13" d="M186.7,295.78c0-5.8,13.1-10.5,29.27-10.5c7.31,0,13.98,0.96,19.11,2.55c-5.37-2.23-13.3-3.64-22.16-3.64
						c-16.16,0-29.27,4.7-29.27,10.5c0,3.18,3.94,6.02,10.16,7.95C189.39,300.8,186.7,298.4,186.7,295.78z"/>
				</g>
				<g>
					<line class="st26" x1="219.17" y1="300.42" x2="219.17" y2="291.73"/>
					<line class="st26" x1="212.1" y1="300.42" x2="212.1" y2="291.73"/>
					<path class="st26" d="M226.24,290.95c0,0,3.2,0,5.04,0s1.84,7.38-16.55,7.38c-19.13,0-17.78-7.38-14.55-7.38h2.63"/>
				</g>
			</g>
		</g>
	</g>
</g>
</svg>
