<?xml version="1.0" encoding="utf-8"?>
<!-- Generator: Adobe Illustrator 23.0.5, SVG Export Plug-In . SVG Version: 6.00 Build 0)  -->
<svg version="1.1" id="Layer_1" xmlns="http://www.w3.org/2000/svg" xmlns:xlink="http://www.w3.org/1999/xlink" x="0px" y="0px"
	 viewBox="0 0 97.5 110" style="enable-background:new 0 0 97.5 110;" xml:space="preserve">
<style type="text/css">
	.st0{fill:#FFFFFF;stroke:#F26622;stroke-width:3;stroke-miterlimit:10;}
	.st1{fill:url(#SVGID_1_);}
	.st2{fill:url(#SVGID_2_);}
	.st3{fill:url(#SVGID_3_);}
	.st4{fill:url(#SVGID_4_);}
	.st5{fill:url(#SVGID_5_);}
	.st6{fill:url(#SVGID_6_);}
	.st7{fill:url(#SVGID_7_);}
	.st8{fill:url(#SVGID_8_);}
	.st9{fill:url(#SVGID_9_);}
</style>
<path class="st0" d="M95.6,80.1V30.3c0-1.3-0.7-2.5-1.8-3.1l-43.2-25c-1.1-0.6-2.5-0.6-3.6,0l-43.2,25C2.7,27.8,2,29,2,30.3v49.9
	c0,1.3,0.7,2.5,1.8,3.1L47,108.2c1.1,0.6,2.5,0.6,3.6,0l43.2-24.9C94.9,82.6,95.6,81.4,95.6,80.1z"/>
<g>
	
		<linearGradient id="SVGID_1_" gradientUnits="userSpaceOnUse" x1="25.2" y1="73.1" x2="33.8" y2="73.1" gradientTransform="matrix(1 0 0 -1 0 110)">
		<stop  offset="0" style="stop-color:#F26622"/>
		<stop  offset="1" style="stop-color:#182D41"/>
	</linearGradient>
	<path class="st1" d="M29.5,32.6c-2.4,0-4.3,1.9-4.3,4.3s1.9,4.3,4.3,4.3s4.3-1.9,4.3-4.3S31.8,32.6,29.5,32.6z M29.5,38.6
		c-1,0-1.7-0.8-1.7-1.7s0.8-1.7,1.7-1.7c1,0,1.7,0.8,1.7,1.7S30.4,38.6,29.5,38.6z"/>
	
		<linearGradient id="SVGID_2_" gradientUnits="userSpaceOnUse" x1="51.3" y1="73.1" x2="71.2" y2="73.1" gradientTransform="matrix(1 0 0 -1 0 110)">
		<stop  offset="0" style="stop-color:#F26622"/>
		<stop  offset="1" style="stop-color:#182D41"/>
	</linearGradient>
	<path class="st2" d="M66.9,32.6H55.6c-2.4,0-4.3,1.9-4.3,4.3s1.9,4.3,4.3,4.3h11.3c2.4,0,4.3-1.9,4.3-4.3S69.2,32.6,66.9,32.6z
		 M66.9,38.6H55.6c-1,0-1.7-0.8-1.7-1.7s0.8-1.7,1.7-1.7h11.3c1,0,1.7,0.8,1.7,1.7S67.8,38.6,66.9,38.6z"/>
	
		<linearGradient id="SVGID_3_" gradientUnits="userSpaceOnUse" x1="36.2" y1="73.1" x2="44.8" y2="73.1" gradientTransform="matrix(1 0 0 -1 0 110)">
		<stop  offset="0" style="stop-color:#F26622"/>
		<stop  offset="1" style="stop-color:#182D41"/>
	</linearGradient>
	<path class="st3" d="M40.5,32.6c-2.4,0-4.3,1.9-4.3,4.3s1.9,4.3,4.3,4.3c2.4,0,4.3-1.9,4.3-4.3S42.9,32.6,40.5,32.6z M40.5,38.6
		c-1,0-1.7-0.8-1.7-1.7s0.8-1.7,1.7-1.7c1,0,1.7,0.8,1.7,1.7S41.5,38.6,40.5,38.6z"/>
	
		<linearGradient id="SVGID_4_" gradientUnits="userSpaceOnUse" x1="34.4552" y1="49.7224" x2="39.4448" y2="49.7224" gradientTransform="matrix(1 0 0 -1 0 110)">
		<stop  offset="0" style="stop-color:#F26622"/>
		<stop  offset="1" style="stop-color:#182D41"/>
	</linearGradient>
	<path class="st4" d="M38.5,53.8c-0.7-0.2-1.4,0.3-1.5,0.9l-2.5,10.6c-0.2,0.7,0.3,1.4,0.9,1.5c0.1,0,0.2,0,0.3,0
		c0.6,0,1.1-0.4,1.2-1l2.5-10.6C39.6,54.6,39.1,53.9,38.5,53.8z"/>
	
		<linearGradient id="SVGID_5_" gradientUnits="userSpaceOnUse" x1="42.6713" y1="49.6644" x2="48.95" y2="49.6644" gradientTransform="matrix(1 0 0 -1 0 110)">
		<stop  offset="0" style="stop-color:#F26622"/>
		<stop  offset="1" style="stop-color:#182D41"/>
	</linearGradient>
	<path class="st5" d="M43.1,65.6c0.2,0.2,0.5,0.3,0.8,0.3c0.4,0,0.7-0.1,1-0.4l3.6-4c0.6-0.7,0.6-1.7,0-2.3l-3.6-4
		c-0.5-0.5-1.3-0.6-1.8-0.1s-0.6,1.3-0.1,1.8l3.1,3.5L43,63.8C42.6,64.3,42.6,65.1,43.1,65.6L43.1,65.6z"/>
	
		<linearGradient id="SVGID_6_" gradientUnits="userSpaceOnUse" x1="24.85" y1="49.7644" x2="31.1287" y2="49.7644" gradientTransform="matrix(1 0 0 -1 0 110)">
		<stop  offset="0" style="stop-color:#F26622"/>
		<stop  offset="1" style="stop-color:#182D41"/>
	</linearGradient>
	<path class="st6" d="M30.7,55c-0.5-0.5-1.3-0.4-1.8,0.1l-3.6,4c-0.6,0.7-0.6,1.7,0,2.3l3.6,4c0.3,0.3,0.6,0.4,1,0.4
		c0.3,0,0.6-0.1,0.8-0.3c0.5-0.5,0.6-1.3,0.1-1.8l-3.1-3.5l3.1-3.5C31.2,56.3,31.2,55.5,30.7,55L30.7,55z"/>
	
		<linearGradient id="SVGID_7_" gradientUnits="userSpaceOnUse" x1="17.6" y1="52" x2="82.6" y2="52" gradientTransform="matrix(1 0 0 -1 0 110)">
		<stop  offset="0" style="stop-color:#F26622"/>
		<stop  offset="1" style="stop-color:#182D41"/>
	</linearGradient>
	<path class="st7" d="M79.5,68.6H79c-0.2-0.8-0.6-1.6-1-2.3l0.3-0.3c0.5-0.5,0.8-1.3,0.8-2c0-0.8-0.3-1.5-0.8-2l-0.7-0.7V34
		c0-3.8-2.7-6.9-6-6.9h-48c-3.3,0-6,3.1-6,6.9v35.6c0,3.8,2.7,6.9,6,6.9h7.5c0.7,0,1.3-0.6,1.3-1.3c0-0.7-0.6-1.3-1.3-1.3h-7.5
		c-1.9,0-3.4-2-3.4-4.3V46.5h55v12.9c-0.1,0-0.3,0-0.4,0l0,0c-0.8,0-1.5,0.3-2,0.8l-0.3,0.3c-0.8-0.4-1.5-0.7-2.4-1V59
		c0-1.6-1.3-2.9-2.9-2.9h-2.3c-1.6,0-2.9,1.3-2.9,2.9v0.5c-0.8,0.3-1.6,0.6-2.3,1l-0.3-0.3c-0.5-0.5-1.3-0.8-2-0.8l0,0
		c-0.8,0-1.5,0.3-2,0.8l-1.6,1.6c-0.5,0.5-0.8,1.3-0.8,2c0,0.8,0.3,1.5,0.8,2l0.4,0.4c-0.4,0.7-0.7,1.5-0.9,2.3h-0.5
		c-1.6,0-2.9,1.3-2.9,2.9v2.3c0,0.1,0,0.2,0,0.3h-7.4c-0.7,0-1.3,0.6-1.3,1.3c0,0.7,0.6,1.3,1.3,1.3h10.3h0.5c0.2,0.8,0.6,1.6,1,2.3
		L54,79.2c-1.1,1.1-1.1,2.9,0,4l1.6,1.6c0.5,0.5,1.3,0.8,2,0.8l0,0c0.8,0,1.5-0.3,2-0.8l0.3-0.3c0.7,0.4,1.5,0.7,2.3,1V86
		c0,1.6,1.3,2.9,2.9,2.9h2.3c1.6,0,2.9-1.3,2.9-2.9v-0.5c0.8-0.2,1.6-0.6,2.3-1l0.3,0.3c0.5,0.5,1.3,0.8,2,0.8l0,0
		c0.8,0,1.5-0.3,2-0.8l1.6-1.6c0.5-0.5,0.8-1.3,0.8-2c0-0.8-0.3-1.5-0.8-2l-0.3-0.3c0.4-0.7,0.7-1.5,1-2.3h0.5
		c1.6,0,2.9-1.3,2.9-2.9v-2.3C82.4,69.8,81.1,68.6,79.5,68.6L79.5,68.6z M20.2,44V34c0-2.4,1.6-4.3,3.4-4.3h48.2
		c1.9,0,3.4,2,3.4,4.3v10H20.2L20.2,44z M79.8,73.7c0,0.2-0.1,0.3-0.3,0.3H78c-0.6,0-1.1,0.4-1.2,1c-0.3,1.2-0.7,2.3-1.4,3.4
		c-0.3,0.5-0.2,1.2,0.2,1.6l1,1c0.1,0.1,0.1,0.2,0.1,0.2c0,0.1,0,0.1-0.1,0.2L75,83.1c-0.1,0.1-0.2,0.1-0.2,0.1l0,0
		c-0.1,0-0.1,0-0.2-0.1l-1-1c-0.4-0.4-1.1-0.5-1.6-0.2c-1,0.7-2.2,1.1-3.4,1.4c-0.6,0.1-1,0.6-1,1.2V86c0,0.2-0.1,0.3-0.3,0.3H65
		c-0.2,0-0.3-0.1-0.3-0.3v-1.5c0-0.6-0.4-1.1-1-1.2c-1.2-0.3-2.3-0.7-3.4-1.4c-0.2-0.1-0.4-0.2-0.7-0.2s-0.7,0.1-0.9,0.4l-1,1
		c-0.1,0.1-0.2,0.1-0.2,0.1l0,0c-0.1,0-0.1,0-0.2-0.1l-1.6-1.6c-0.1-0.1-0.1-0.3,0-0.4l1-1c0.4-0.4,0.5-1.1,0.2-1.6
		c-0.7-1-1.1-2.2-1.4-3.4c-0.1-0.6-0.6-1-1.2-1h-1.5c-0.2,0-0.3-0.1-0.3-0.3v-2.3c0-0.2,0.1-0.3,0.3-0.3h1.5c0.6,0,1.1-0.4,1.2-1
		c0.3-1.2,0.7-2.3,1.4-3.4c0.3-0.5,0.2-1.2-0.2-1.6l-1-1c-0.1-0.1-0.1-0.2-0.1-0.2s0-0.1,0.1-0.2l1.6-1.6c0.1-0.1,0.2-0.1,0.2-0.1
		l0,0c0.1,0,0.1,0,0.2,0.1l1,1c0.4,0.4,1.1,0.5,1.6,0.2c1-0.7,2.2-1.1,3.4-1.4c0.6-0.1,1-0.6,1-1.2v-1.5c0-0.2,0.1-0.3,0.3-0.3h2.3
		c0.2,0,0.3,0.1,0.3,0.3v1.4c0,0.6,0.4,1.1,1,1.2c1.2,0.3,2.4,0.7,3.4,1.4c0.5,0.3,1.2,0.2,1.6-0.2l1-1c0.1-0.1,0.2-0.1,0.2-0.1l0,0
		c0,0,0.1,0,0.2,0.1l1.6,1.6c0.1,0.1,0.1,0.2,0.1,0.2c0,0.1,0,0.1-0.1,0.2l-1,1c-0.4,0.4-0.5,1.1-0.2,1.6c0.7,1,1.1,2.2,1.4,3.4
		c0.1,0.6,0.6,1,1.2,1h1.5c0.2,0,0.3,0.1,0.3,0.3V73.7z"/>
	
		<linearGradient id="SVGID_8_" gradientUnits="userSpaceOnUse" x1="58.3" y1="37.4" x2="73.9" y2="37.4" gradientTransform="matrix(1 0 0 -1 0 110)">
		<stop  offset="0" style="stop-color:#F26622"/>
		<stop  offset="1" style="stop-color:#182D41"/>
	</linearGradient>
	<path class="st8" d="M66.1,64.8c-4.3,0-7.8,3.5-7.8,7.8s3.5,7.8,7.8,7.8s7.8-3.5,7.8-7.8S70.4,64.8,66.1,64.8z M66.1,77.8
		c-2.9,0-5.2-2.3-5.2-5.2c0-2.9,2.4-5.2,5.2-5.2c2.9,0,5.2,2.4,5.2,5.2C71.3,75.5,69,77.8,66.1,77.8z"/>
	
		<linearGradient id="SVGID_9_" gradientUnits="userSpaceOnUse" x1="35.5" y1="34.7" x2="38.1" y2="34.7" gradientTransform="matrix(1 0 0 -1 0 110)">
		<stop  offset="0" style="stop-color:#F26622"/>
		<stop  offset="1" style="stop-color:#182D41"/>
	</linearGradient>
	<path class="st9" d="M36.8,74L36.8,74c-0.7,0-1.3,0.6-1.3,1.3c0,0.7,0.6,1.3,1.3,1.3l0,0c0.7,0,1.3-0.6,1.3-1.3S37.5,74,36.8,74z"
		/>
</g>
</svg>
