<?xml version="1.0" encoding="utf-8"?>
<!-- Generator: Adobe Illustrator 23.0.5, SVG Export Plug-In . SVG Version: 6.00 Build 0)  -->
<svg version="1.1" id="Layer_1" xmlns="http://www.w3.org/2000/svg" xmlns:xlink="http://www.w3.org/1999/xlink" x="0px" y="0px"
	 viewBox="0 0 97.5 110" style="enable-background:new 0 0 97.5 110;" xml:space="preserve">
<style type="text/css">
	.st0{fill:#FFFFFF;stroke:#182D41;stroke-width:3;stroke-miterlimit:10;}
	.st1{fill:url(#SVGID_1_);}
	.st2{fill:url(#SVGID_2_);}
	.st3{fill:url(#SVGID_3_);}
	.st4{fill:url(#SVGID_4_);}
	.st5{fill:url(#SVGID_5_);}
	.st6{fill:url(#SVGID_6_);}
	.st7{fill:url(#SVGID_7_);}
	.st8{fill:url(#SVGID_8_);}
	.st9{fill:url(#SVGID_9_);}
	.st10{fill:url(#SVGID_10_);}
	.st11{fill:url(#SVGID_11_);}
	.st12{fill:url(#SVGID_12_);}
</style>
<path class="st0" d="M95.6,80.1V30.3c0-1.3-0.7-2.5-1.8-3.1l-43.2-25c-1.1-0.6-2.5-0.6-3.6,0l-43.2,25C2.7,27.8,2,29,2,30.3v49.9
	c0,1.3,0.7,2.5,1.8,3.1L47,108.2c1.1,0.6,2.5,0.6,3.6,0l43.2-24.9C94.9,82.6,95.6,81.4,95.6,80.1z"/>
<g>
	<g>
		<g>
			<linearGradient id="SVGID_1_" gradientUnits="userSpaceOnUse" x1="34.3" y1="71.2" x2="38.7" y2="71.2">
				<stop  offset="0" style="stop-color:#F26622"/>
				<stop  offset="1" style="stop-color:#182D41"/>
			</linearGradient>
			<path class="st1" d="M37.6,70.1h-2.2c-0.6,0-1.1,0.5-1.1,1.1s0.5,1.1,1.1,1.1h2.2c0.6,0,1.1-0.5,1.1-1.1S38.2,70.1,37.6,70.1z"/>
		</g>
	</g>
	<g>
		<g>
			<linearGradient id="SVGID_2_" gradientUnits="userSpaceOnUse" x1="40.9" y1="71.2" x2="69.2" y2="71.2">
				<stop  offset="0" style="stop-color:#F26622"/>
				<stop  offset="1" style="stop-color:#182D41"/>
			</linearGradient>
			<path class="st2" d="M68.1,70.1H42c-0.6,0-1.1,0.5-1.1,1.1s0.5,1.1,1.1,1.1h26.1c0.6,0,1.1-0.5,1.1-1.1S68.7,70.1,68.1,70.1z"/>
		</g>
	</g>
	<g>
		<g>
			<linearGradient id="SVGID_3_" gradientUnits="userSpaceOnUse" x1="34.3" y1="64.7" x2="38.7" y2="64.7">
				<stop  offset="0" style="stop-color:#F26622"/>
				<stop  offset="1" style="stop-color:#182D41"/>
			</linearGradient>
			<path class="st3" d="M37.6,63.6h-2.2c-0.6,0-1.1,0.5-1.1,1.1s0.5,1.1,1.1,1.1h2.2c0.6,0,1.1-0.5,1.1-1.1S38.2,63.6,37.6,63.6z"/>
		</g>
	</g>
	<g>
		<g>
			<linearGradient id="SVGID_4_" gradientUnits="userSpaceOnUse" x1="40.9" y1="64.7" x2="69.2" y2="64.7">
				<stop  offset="0" style="stop-color:#F26622"/>
				<stop  offset="1" style="stop-color:#182D41"/>
			</linearGradient>
			<path class="st4" d="M68.1,63.6H42c-0.6,0-1.1,0.5-1.1,1.1s0.5,1.1,1.1,1.1h26.1c0.6,0,1.1-0.5,1.1-1.1S68.7,63.6,68.1,63.6z"/>
		</g>
	</g>
	<g>
		<g>
			<linearGradient id="SVGID_5_" gradientUnits="userSpaceOnUse" x1="34.3" y1="58.2" x2="38.7" y2="58.2">
				<stop  offset="0" style="stop-color:#F26622"/>
				<stop  offset="1" style="stop-color:#182D41"/>
			</linearGradient>
			<path class="st5" d="M37.6,57.1h-2.2c-0.6,0-1.1,0.5-1.1,1.1s0.5,1.1,1.1,1.1h2.2c0.6,0,1.1-0.5,1.1-1.1
				C38.7,57.6,38.2,57.1,37.6,57.1z"/>
		</g>
	</g>
	<g>
		<g>
			<linearGradient id="SVGID_6_" gradientUnits="userSpaceOnUse" x1="40.9" y1="58.2" x2="69.2" y2="58.2">
				<stop  offset="0" style="stop-color:#F26622"/>
				<stop  offset="1" style="stop-color:#182D41"/>
			</linearGradient>
			<path class="st6" d="M68.1,57.1H42c-0.6,0-1.1,0.5-1.1,1.1s0.5,1.1,1.1,1.1h26.1c0.6,0,1.1-0.5,1.1-1.1S68.7,57.1,68.1,57.1z"/>
		</g>
	</g>
	<g>
		<g>
			<linearGradient id="SVGID_7_" gradientUnits="userSpaceOnUse" x1="34.3" y1="51.7" x2="38.7" y2="51.7">
				<stop  offset="0" style="stop-color:#F26622"/>
				<stop  offset="1" style="stop-color:#182D41"/>
			</linearGradient>
			<path class="st7" d="M37.6,50.6h-2.2c-0.6,0-1.1,0.5-1.1,1.1s0.5,1.1,1.1,1.1h2.2c0.6,0,1.1-0.5,1.1-1.1S38.2,50.6,37.6,50.6z"/>
		</g>
	</g>
	<g>
		<g>
			<linearGradient id="SVGID_8_" gradientUnits="userSpaceOnUse" x1="40.9" y1="51.7" x2="69.2" y2="51.7">
				<stop  offset="0" style="stop-color:#F26622"/>
				<stop  offset="1" style="stop-color:#182D41"/>
			</linearGradient>
			<path class="st8" d="M68.1,50.6H42c-0.6,0-1.1,0.5-1.1,1.1s0.5,1.1,1.1,1.1h26.1c0.6,0,1.1-0.5,1.1-1.1S68.7,50.6,68.1,50.6z"/>
		</g>
	</g>
	<g>
		<g>
			<linearGradient id="SVGID_9_" gradientUnits="userSpaceOnUse" x1="34.3" y1="45.1" x2="38.7" y2="45.1">
				<stop  offset="0" style="stop-color:#F26622"/>
				<stop  offset="1" style="stop-color:#182D41"/>
			</linearGradient>
			<path class="st9" d="M37.6,44h-2.2c-0.6,0-1.1,0.5-1.1,1.1s0.5,1.1,1.1,1.1h2.2c0.6,0,1.1-0.5,1.1-1.1S38.2,44,37.6,44z"/>
		</g>
	</g>
	<g>
		<g>
			<linearGradient id="SVGID_10_" gradientUnits="userSpaceOnUse" x1="40.9" y1="45.1" x2="69.2" y2="45.1">
				<stop  offset="0" style="stop-color:#F26622"/>
				<stop  offset="1" style="stop-color:#182D41"/>
			</linearGradient>
			<path class="st10" d="M68.1,44H42c-0.6,0-1.1,0.5-1.1,1.1s0.5,1.1,1.1,1.1h26.1c0.6,0,1.1-0.5,1.1-1.1S68.7,44,68.1,44z"/>
		</g>
	</g>
	<g>
		<g>
			<linearGradient id="SVGID_11_" gradientUnits="userSpaceOnUse" x1="21.3" y1="56.05" x2="75.7" y2="56.05">
				<stop  offset="0" style="stop-color:#F26622"/>
				<stop  offset="1" style="stop-color:#182D41"/>
			</linearGradient>
			<path class="st11" d="M75.7,39.6c0-0.1,0-0.2-0.1-0.3v-0.1c-0.1-0.1-0.1-0.2-0.2-0.3L60.1,23.7c-0.1-0.1-0.2-0.2-0.3-0.2h-0.1
				c-0.1,0-0.2-0.1-0.3-0.1c0,0,0,0-0.1,0H28.9c-0.6,0-1.1,0.5-1.1,1.1v3.3h-5.4c-0.6,0-1.1,0.5-1.1,1.1v58.7c0,0.6,0.5,1.1,1.1,1.1
				h45.7c0.6,0,1.1-0.5,1.1-1.1v-5.4h5.4c0.6,0,1.1-0.5,1.1-1.1V39.6C75.7,39.7,75.7,39.6,75.7,39.6z M60.5,27.1L72,38.6H60.5V27.1z
				 M67,86.4H23.5V29.9h4.3V81c0,0.6,0.5,1.1,1.1,1.1H67V86.4z M73.5,79.9H30V25.6h28.3v14.1c0,0.6,0.5,1.1,1.1,1.1h14.1V79.9z"/>
		</g>
	</g>
	<g>
		<g>
			<linearGradient id="SVGID_12_" gradientUnits="userSpaceOnUse" x1="34.4" y1="37.55" x2="43.1" y2="37.55">
				<stop  offset="0" style="stop-color:#F26622"/>
				<stop  offset="1" style="stop-color:#182D41"/>
			</linearGradient>
			<path class="st12" d="M42,33.2h-6.5c-0.6,0-1.1,0.5-1.1,1.1v6.5c0,0.6,0.5,1.1,1.1,1.1H42c0.6,0,1.1-0.5,1.1-1.1v-6.5
				C43.1,33.7,42.6,33.2,42,33.2z M40.9,39.7h-4.3v-4.3h4.3V39.7z"/>
		</g>
	</g>
</g>
</svg>
