<?xml version="1.0" encoding="utf-8"?>
<!-- Generator: Adobe Illustrator 23.0.5, SVG Export Plug-In . SVG Version: 6.00 Build 0)  -->
<svg version="1.1" id="Layer_1" xmlns="http://www.w3.org/2000/svg" xmlns:xlink="http://www.w3.org/1999/xlink" x="0px" y="0px"
	 viewBox="0 0 97.5 110" style="enable-background:new 0 0 97.5 110;" xml:space="preserve">
<style type="text/css">
	.st0{fill:#FFFFFF;stroke:#182D41;stroke-width:3;stroke-miterlimit:10;}
	.st1{fill:url(#SVGID_1_);}
	.st2{fill:url(#SVGID_2_);}
	.st3{fill:url(#SVGID_3_);}
	.st4{fill:url(#SVGID_4_);}
	.st5{fill:url(#SVGID_5_);}
	.st6{fill:url(#SVGID_6_);}
	.st7{fill:url(#SVGID_7_);}
	.st8{fill:url(#SVGID_8_);}
	.st9{fill:url(#SVGID_9_);}
	.st10{fill:url(#SVGID_10_);}
	.st11{fill:url(#SVGID_11_);}
	.st12{fill:url(#SVGID_12_);}
	.st13{fill:url(#SVGID_13_);}
	.st14{fill:url(#SVGID_14_);}
	.st15{fill:url(#SVGID_15_);}
	.st16{fill:url(#SVGID_16_);}
	.st17{fill:url(#SVGID_17_);}
</style>
<path class="st0" d="M95.5,79.8V29.9c0-1.3-0.7-2.5-1.8-3.1L50.6,1.9c-1.1-0.6-2.5-0.6-3.6,0L3.8,26.8C2.7,27.5,2,28.7,2,29.9v49.9
	c0,1.3,0.7,2.5,1.8,3.1L47,107.8c1.1,0.6,2.5,0.6,3.6,0l43.2-24.9C94.8,82.3,95.5,81.1,95.5,79.8z"/>
<g>
	<g id="Outline">
		<g>
			<linearGradient id="SVGID_1_" gradientUnits="userSpaceOnUse" x1="54.3" y1="49.7" x2="61.8" y2="49.7">
				<stop  offset="0" style="stop-color:#F26622"/>
				<stop  offset="1" style="stop-color:#182D41"/>
			</linearGradient>
			<path class="st1" d="M55.4,50.8h5.3c0.6,0,1.1-0.5,1.1-1.1s-0.5-1.1-1.1-1.1h-5.3c-0.6,0-1.1,0.5-1.1,1.1
				C54.4,50.3,54.9,50.8,55.4,50.8z"/>
			<linearGradient id="SVGID_2_" gradientUnits="userSpaceOnUse" x1="15.4" y1="62.3" x2="78.7" y2="62.3">
				<stop  offset="0" style="stop-color:#F26622"/>
				<stop  offset="1" style="stop-color:#182D41"/>
			</linearGradient>
			<path class="st2" d="M77.6,48.7c-0.6,0-1.1,0.5-1.1,1.1v34.8H22.7c-2.9,0-5.3-2.4-5.3-5.3s2.4-5.3,5.3-5.3s5.3,2.4,5.3,5.3
				c0,0.6,0.5,1.1,1.1,1.1s1.1-0.5,1.1-1.1V50.8h3.2c0.6,0,1.1-0.5,1.1-1.1s-0.5-1.1-1.1-1.1h-3.2v-3.2c0-4.1-3.3-7.4-7.4-7.4
				s-7.4,3.3-7.4,7.4v33.8c0,4.1,3.3,7.4,7.4,7.4h54.8c0.6,0,1.1-0.5,1.1-1.1V49.7C78.6,49.1,78.2,48.7,77.6,48.7z M17.5,45.5
				c0-2.9,2.4-5.3,5.3-5.3s5.3,2.4,5.3,5.3v28.6c-2.8-2.9-7.5-3-10.4-0.1l-0.1,0.1L17.5,45.5L17.5,45.5z"/>
			<linearGradient id="SVGID_3_" gradientUnits="userSpaceOnUse" x1="63.9" y1="48.0813" x2="74.5" y2="48.0813">
				<stop  offset="0" style="stop-color:#F26622"/>
				<stop  offset="1" style="stop-color:#182D41"/>
			</linearGradient>
			<path class="st3" d="M64,61.7l1.7,4.2l0,0l2.5,6.3c0.2,0.5,0.8,0.8,1.4,0.6c0.3-0.1,0.5-0.3,0.6-0.6l2.5-6.3l0,0l1.7-4.2
				c0-0.1,0.1-0.2,0.1-0.4l0,0V43.4c0-0.6-0.5-1.1-1.1-1.1s-1.1,0.5-1.1,1.1v16.9h-2.1V36h2.1v3.2c0,0.6,0.5,1.1,1.1,1.1
				s1.1-0.5,1.1-1.1V28.6c0-2.9-2.4-5.3-5.3-5.3s-5.3,2.4-5.3,5.3v32.7l0,0C63.9,61.5,63.9,61.6,64,61.7z M68.2,66.6h1.9l-1,2.4
				L68.2,66.6z M71,64.5h-3.6l-0.8-2.1h5.3L71,64.5z M68.1,60.3H66V36h2.1V60.3z M66,33.9v-2.1h6.3v2.1H66z M66,28.6
				c0-1.7,1.4-3.2,3.2-3.2c1.7,0,3.2,1.4,3.2,3.2v1.1H66V28.6z"/>
			<linearGradient id="SVGID_4_" gradientUnits="userSpaceOnUse" x1="33.3426" y1="48.6296" x2="54.4399" y2="48.6296">
				<stop  offset="0" style="stop-color:#F26622"/>
				<stop  offset="1" style="stop-color:#182D41"/>
			</linearGradient>
			<path class="st4" d="M38.6,44.1v0.5c-1.6,0.6-2.5,2.4-1.9,4c0.3,0.9,1,1.6,1.9,1.9v0.2c0,2.7,1.8,5.2,4.4,6
				c-1.1,1.1-2.5,1.9-4.1,2.3l-1.6,0.4c-2.8,0.7-4.5,3.5-3.8,6.3c0.6,2.3,2.7,4,5.1,4h2.2c0.6,0,1.1-0.5,1.1-1.1s-0.5-1.1-1.1-1.1
				h-2.2c-1.7,0-3.1-1.4-3.1-3.1c0-1.4,1-2.7,2.3-3l1.6-0.4c2.4-0.6,4.6-2.1,6.1-4.1c3.3-0.3,5.8-3,5.8-6.3v-0.2
				c1.6-0.6,2.5-2.4,1.9-4c-0.3-0.9-1-1.6-1.9-1.9V44c3.4-3,4.1-8,1.8-11.9c-0.3-0.5-0.9-0.7-1.4-0.4s-0.7,0.9-0.4,1.4
				c1.9,3.2,1.1,7.2-1.7,9.5c-0.2,0.2-0.4,0.5-0.4,0.8v0.8h-0.9l0.9-8.3c0.1-0.6-0.4-1.1-0.9-1.2c-0.2,0-0.3,0-0.4,0l-3,1.3l-2.8-1
				c-0.6-0.2-1.1,0.1-1.3,0.7c0,0.1-0.1,0.3,0,0.4l0.9,8.3h-0.9v-0.8c0-0.3-0.1-0.6-0.4-0.8c-3.2-2.5-3.7-7.2-1.2-10.4
				c2.3-2.9,6.4-3.6,9.5-1.7c0.5,0.3,1.1,0.1,1.4-0.4c0.3-0.5,0.1-1.1-0.4-1.4c-4.5-2.7-10.3-1.2-13,3.4
				C34.4,36.2,35.2,41.1,38.6,44.1z M44.9,55c-2.3,0-4.2-1.9-4.2-4.2h8.4C49.1,53.1,47.2,55,44.9,55z M43,37.5l1.6,0.5
				c0.2,0.1,0.5,0.1,0.7,0l1.6-0.5l-0.8,6.9h-2.3L43,37.5z M42.8,46.6h7.4c0.6,0,1.1,0.5,1.1,1.1s-0.5,1.1-1.1,1.1H39.6
				c-0.6,0-1.1-0.5-1.1-1.1s0.5-1.1,1.1-1.1H42.8z"/>
			<linearGradient id="SVGID_5_" gradientUnits="userSpaceOnUse" x1="31.1" y1="37.1" x2="33.3" y2="37.1">
				<stop  offset="0" style="stop-color:#F26622"/>
				<stop  offset="1" style="stop-color:#182D41"/>
			</linearGradient>
			<circle class="st5" cx="32.2" cy="37.1" r="1.1"/>
			<linearGradient id="SVGID_6_" gradientUnits="userSpaceOnUse" x1="56.4" y1="37.1" x2="58.6" y2="37.1">
				<stop  offset="0" style="stop-color:#F26622"/>
				<stop  offset="1" style="stop-color:#182D41"/>
			</linearGradient>
			<circle class="st6" cx="57.5" cy="37.1" r="1.1"/>
			<linearGradient id="SVGID_7_" gradientUnits="userSpaceOnUse" x1="43.8" y1="24.4" x2="46" y2="24.4">
				<stop  offset="0" style="stop-color:#F26622"/>
				<stop  offset="1" style="stop-color:#182D41"/>
			</linearGradient>
			<circle class="st7" cx="44.9" cy="24.4" r="1.1"/>
			<linearGradient id="SVGID_8_" gradientUnits="userSpaceOnUse" x1="32.859" y1="30.8" x2="34.941" y2="30.8">
				<stop  offset="0" style="stop-color:#F26622"/>
				<stop  offset="1" style="stop-color:#182D41"/>
			</linearGradient>
			<path class="st8" d="M33.4,31.7c0.5,0.3,1.1,0.1,1.4-0.4c0.3-0.5,0.1-1.1-0.4-1.4s-1.1-0.1-1.4,0.4l0,0
				C32.7,30.7,32.9,31.4,33.4,31.7z"/>
			<linearGradient id="SVGID_9_" gradientUnits="userSpaceOnUse" x1="54.759" y1="43.4" x2="56.841" y2="43.4">
				<stop  offset="0" style="stop-color:#F26622"/>
				<stop  offset="1" style="stop-color:#182D41"/>
			</linearGradient>
			<path class="st9" d="M55.3,44.3c0.5,0.3,1.1,0.1,1.4-0.4c0.3-0.5,0.1-1.1-0.4-1.4c-0.5-0.3-1.1-0.1-1.4,0.4l0,0
				C54.6,43.4,54.8,44,55.3,44.3z"/>
			<linearGradient id="SVGID_10_" gradientUnits="userSpaceOnUse" x1="50.1" y1="26.1" x2="52.3" y2="26.1">
				<stop  offset="0" style="stop-color:#F26622"/>
				<stop  offset="1" style="stop-color:#182D41"/>
			</linearGradient>
			<circle class="st10" cx="51.2" cy="26.1" r="1.1"/>
			<linearGradient id="SVGID_11_" gradientUnits="userSpaceOnUse" x1="54.859" y1="30.7778" x2="56.941" y2="30.7778">
				<stop  offset="0" style="stop-color:#F26622"/>
				<stop  offset="1" style="stop-color:#182D41"/>
			</linearGradient>
			<path class="st11" d="M56.4,31.7c0.5-0.3,0.7-0.9,0.4-1.4s-0.9-0.7-1.4-0.4c-0.5,0.3-0.7,0.9-0.4,1.4l0,0
				C55.2,31.8,55.9,31.9,56.4,31.7z"/>
			<linearGradient id="SVGID_12_" gradientUnits="userSpaceOnUse" x1="32.859" y1="43.4" x2="34.9638" y2="43.4">
				<stop  offset="0" style="stop-color:#F26622"/>
				<stop  offset="1" style="stop-color:#182D41"/>
			</linearGradient>
			<path class="st12" d="M34.8,42.9c-0.3-0.5-0.9-0.7-1.4-0.4s-0.7,0.9-0.4,1.4s0.9,0.7,1.4,0.4l0,0C35,44,35.1,43.4,34.8,42.9z"/>
			<linearGradient id="SVGID_13_" gradientUnits="userSpaceOnUse" x1="37.559" y1="26.1" x2="39.641" y2="26.1">
				<stop  offset="0" style="stop-color:#F26622"/>
				<stop  offset="1" style="stop-color:#182D41"/>
			</linearGradient>
			<path class="st13" d="M39.1,27c0.5-0.3,0.7-0.9,0.4-1.4s-0.9-0.7-1.4-0.4c-0.5,0.3-0.7,0.9-0.4,1.4l0,0
				C37.9,27.1,38.6,27.3,39.1,27z"/>
			<linearGradient id="SVGID_14_" gradientUnits="userSpaceOnUse" x1="42.859" y1="68.6" x2="61.641" y2="68.6">
				<stop  offset="0" style="stop-color:#F26622"/>
				<stop  offset="1" style="stop-color:#182D41"/>
			</linearGradient>
			<path class="st14" d="M50.2,78.2h4.2c0.6,0,1.1-0.5,1.1-1.1v-1.8c0.4-0.2,0.7-0.4,1-0.6l1.5,0.9c0.5,0.3,1.1,0.1,1.4-0.4l2.1-3.7
				c0.3-0.5,0.1-1.1-0.4-1.4l-1.5-0.9c0-0.2,0-0.4,0-0.6s0-0.4,0-0.6l1.5-0.9c0.5-0.3,0.7-0.9,0.4-1.4L59.4,62
				c-0.3-0.5-0.9-0.7-1.4-0.4l-1.5,0.9c-0.3-0.2-0.7-0.4-1-0.6v-1.8c0-0.6-0.5-1.1-1.1-1.1h-4.2c-0.6,0-1.1,0.5-1.1,1.1V62
				c-0.4,0.2-0.7,0.4-1,0.6l-1.5-0.9c-0.5-0.3-1.1-0.1-1.4,0.4L43,65.8c-0.3,0.5-0.1,1.1,0.4,1.4l1.5,0.9c0,0.2,0,0.4,0,0.6
				s0,0.4,0,0.6l-1.5,0.9c-0.5,0.3-0.7,0.9-0.4,1.4s0.9,0.7,1.4,0.4l0,0l2.1-1.2c0.4-0.2,0.6-0.7,0.5-1.1c-0.1-0.6-0.1-1.3,0-1.9
				c0.1-0.4-0.1-0.9-0.5-1.1L45.3,66l1.1-1.8l1.2,0.7c0.4,0.2,0.9,0.2,1.2-0.1c0.5-0.4,1.1-0.7,1.7-1c0.4-0.1,0.7-0.5,0.7-1v-1.4
				h2.1v1.4c0,0.4,0.3,0.8,0.7,1c0.6,0.2,1.2,0.5,1.7,1c0.3,0.3,0.8,0.3,1.2,0.1l1.2-0.7l1.1,1.8L58,66.6c-0.4,0.2-0.6,0.7-0.5,1.1
				c0.1,0.6,0.1,1.3,0,1.9c-0.1,0.4,0.1,0.9,0.5,1.1l1.2,0.7l-1.1,1.8l-1.2-0.7c-0.4-0.2-0.9-0.2-1.2,0.1c-0.5,0.4-1.1,0.7-1.7,1
				c-0.4,0.1-0.7,0.5-0.7,1V76h-2.1v-1.4c0-0.4-0.3-0.8-0.7-1c-0.6-0.2-1.2-0.5-1.7-1c-0.3-0.3-0.8-0.3-1.2-0.1l-2.1,1.2
				c-0.5,0.3-0.7,0.9-0.4,1.4s0.9,0.7,1.4,0.4l0,0l1.5-0.9c0.3,0.2,0.7,0.4,1,0.6V77C49.1,77.7,49.6,78.2,50.2,78.2L50.2,78.2z"/>
			<linearGradient id="SVGID_15_" gradientUnits="userSpaceOnUse" x1="49" y1="68.7" x2="55.4" y2="68.7">
				<stop  offset="0" style="stop-color:#F26622"/>
				<stop  offset="1" style="stop-color:#182D41"/>
			</linearGradient>
			<path class="st15" d="M55.4,68.7c0-1.7-1.4-3.2-3.2-3.2c-1.7,0-3.2,1.4-3.2,3.2c0,1.7,1.4,3.2,3.2,3.2
				C54,71.9,55.4,70.5,55.4,68.7z M51.2,68.7c0-0.6,0.5-1.1,1.1-1.1s1.1,0.5,1.1,1.1s-0.5,1.1-1.1,1.1
				C51.7,69.8,51.2,69.3,51.2,68.7z"/>
			<linearGradient id="SVGID_16_" gradientUnits="userSpaceOnUse" x1="52.2" y1="78.7" x2="70.2" y2="78.7">
				<stop  offset="0" style="stop-color:#F26622"/>
				<stop  offset="1" style="stop-color:#182D41"/>
			</linearGradient>
			<path class="st16" d="M53.3,82.4H66c2.3,0,4.2-1.9,4.2-4.2v-2.1c0-0.6-0.5-1.1-1.1-1.1S68,75.5,68,76.1v2.1
				c0,1.2-0.9,2.1-2.1,2.1H53.3c-0.6,0-1.1,0.5-1.1,1.1S52.7,82.4,53.3,82.4z"/>
			<linearGradient id="SVGID_17_" gradientUnits="userSpaceOnUse" x1="34.3" y1="78.2" x2="40.7" y2="78.2">
				<stop  offset="0" style="stop-color:#F26622"/>
				<stop  offset="1" style="stop-color:#182D41"/>
			</linearGradient>
			<path class="st17" d="M34.3,78.2c0,1.7,1.4,3.2,3.2,3.2c1.7,0,3.2-1.4,3.2-3.2c0-1.7-1.4-3.2-3.2-3.2
				C35.8,75,34.3,76.5,34.3,78.2z M38.6,78.2c0,0.6-0.5,1.1-1.1,1.1s-1.1-0.5-1.1-1.1s0.5-1.1,1.1-1.1
				C38.1,77.2,38.6,77.6,38.6,78.2z"/>
		</g>
	</g>
</g>
</svg>
