<?xml version="1.0" encoding="utf-8"?>
<!-- Generator: Adobe Illustrator 23.0.5, SVG Export Plug-In . SVG Version: 6.00 Build 0)  -->
<svg version="1.1" xmlns="http://www.w3.org/2000/svg" xmlns:xlink="http://www.w3.org/1999/xlink" x="0px" y="0px"
	 viewBox="0 0 3710 3710" style="enable-background:new 0 0 3710 3710;" xml:space="preserve">
<style type="text/css">
	.st0{fill:#FBED57;}
	.st1{fill:url(#SVGID_1_);}
	.st2{opacity:0.89;}
	.st3{fill:#BDD0FB;}
	.st4{opacity:0.43;fill:#FFFFFF;}
	.st5{fill:#91B3FA;}
	.st6{fill:url(#SVGID_2_);}
	.st7{fill:url(#SVGID_3_);}
	.st8{fill:url(#SVGID_4_);}
	.st9{fill:url(#SVGID_5_);}
	.st10{opacity:0.44;fill:#FFFFFF;}
	.st11{fill:url(#SVGID_6_);}
	.st12{opacity:0.7;fill:#FFFFFF;}
	.st13{fill:#7D97F4;}
	.st14{fill:url(#SVGID_7_);}
	.st15{fill:url(#SVGID_8_);}
	.st16{fill:url(#SVGID_9_);}
	.st17{fill:url(#SVGID_10_);}
	.st18{fill:url(#SVGID_11_);}
	.st19{fill:url(#SVGID_12_);}
	.st20{fill:url(#SVGID_13_);}
	.st21{fill:url(#SVGID_14_);}
	.st22{fill:url(#SVGID_15_);}
	.st23{fill:url(#SVGID_16_);}
	.st24{fill:url(#SVGID_17_);}
	.st25{fill:url(#SVGID_18_);}
	.st26{fill:url(#SVGID_19_);}
	.st27{fill:url(#SVGID_20_);}
	.st28{fill:url(#SVGID_21_);}
	.st29{fill:url(#SVGID_22_);}
	.st30{fill:url(#SVGID_23_);}
	.st31{fill:url(#SVGID_24_);}
	.st32{fill:url(#SVGID_25_);}
	.st33{fill:url(#SVGID_26_);}
	.st34{fill:url(#SVGID_27_);}
	.st35{fill:url(#SVGID_28_);}
	.st36{fill:url(#SVGID_29_);}
	.st37{fill:url(#SVGID_30_);}
	.st38{fill:url(#SVGID_31_);}
	.st39{fill:url(#SVGID_32_);}
	.st40{fill:url(#SVGID_33_);}
	.st41{fill:url(#SVGID_34_);}
	.st42{fill:url(#SVGID_35_);}
	.st43{fill:url(#SVGID_36_);}
	.st44{fill:url(#SVGID_37_);}
	.st45{fill:url(#SVGID_38_);}
	.st46{fill:url(#SVGID_39_);}
	.st47{fill:url(#SVGID_40_);}
	.st48{fill:url(#SVGID_41_);}
	.st49{fill:url(#SVGID_42_);}
	.st50{fill:#FFFFFF;}
	.st51{fill:url(#SVGID_43_);}
	.st52{fill:url(#SVGID_44_);}
	.st53{opacity:0.6;fill:#FFFFFF;}
	.st54{fill:#756E78;}
	.st55{fill:#B4ACB7;}
	.st56{fill:#A59DA5;}
	.st57{fill:#C3BEC6;}
	.st58{fill:#FCEE56;}
	.st59{fill:#62B4FD;}
	.st60{fill:#27A2FB;}
</style>
<g id="Illustration">
	<rect class="st0" width="3710" height="3710"/>
	<g>
		<linearGradient id="SVGID_1_" gradientUnits="userSpaceOnUse" x1="3503.2371" y1="3701.9021" x2="1558.7566" y2="1631.9718">
			<stop  offset="0" style="stop-color:#DAE3FE"/>
			<stop  offset="1" style="stop-color:#E9EFFD"/>
		</linearGradient>
		<path class="st1" d="M2919.41,2871.45c-71.78,73.99-136.01,117.49-185.19,150.32c-479.6,320.23-1027.83,227.93-1197.33,196.39
			c-273.47-50.9-504.31-86.8-702.65-265.99C383.56,2545,405.48,1695.6,749.86,1169.44c40.83-62.39,384.69-572.09,934.11-643.91
			c13.44-1.76,23.46-2.76,32.25-3.69c84.99-9,611.68-56.49,1041.15,303.31c61.48,51.5,160.41,144.4,252.15,286.09
			C3344.96,1629.33,3346.02,2431.72,2919.41,2871.45z"/>
		<g class="st2">
			<g>
				<path class="st3" d="M697.3,541.25c-77.6,239.53-472.3,1651.87,786.5,2260.3c0,0,499.19-862.91-750.34-2267.95
					C722.53,521.31,702.37,525.6,697.3,541.25z"/>
				<path class="st4" d="M785.03,786.51c3.46,84.44,10.46,168.88,19.11,253.03c8.73,84.17,19.49,168.12,32.33,251.75
					c25.74,167.22,59.4,333.31,103.83,496.5c44.58,163.05,99.73,323.54,171.72,476.35c17.87,38.25,37.18,75.79,57.43,112.79
					c20.2,37.03,41.82,73.28,64.78,108.62c45.64,70.86,97.39,137.75,155.21,198.83l0.05,0.05c3.01,3.18,2.87,8.2-0.31,11.21
					c-3.18,3.01-8.2,2.87-11.21-0.31l-0.02-0.03c-58.35-62.18-110.36-130.07-156.09-201.78c-23.01-35.77-44.64-72.41-64.82-109.81
					c-20.23-37.37-39.51-75.25-57.31-113.81c-71.73-154.07-126.34-315.43-170.32-479.17c-43.82-163.88-76.79-330.47-101.83-498.1
					c-12.49-83.83-22.89-167.97-31.25-252.3c-8.29-84.35-14.91-168.82-18.01-253.63c-0.07-1.85,1.38-3.41,3.23-3.48
					c1.85-0.07,3.41,1.38,3.48,3.23L785.03,786.51z"/>
			</g>
			<g>
				<path class="st5" d="M476.99,1449.96c-27,146.91-149.19,1008.27,638.5,1268.12c0,0,226.42-546.36-617.83-1275.44
					C490.28,1436.27,478.76,1440.37,476.99,1449.96z"/>
				<path class="st4" d="M548.68,1583.58c9.03,48.18,20,96.14,31.68,143.83c11.78,47.69,24.63,95.11,38.44,142.23
					c13.78,47.14,28.74,93.93,44.72,140.35c16.06,46.39,32.89,92.52,51.43,137.95c36.77,90.96,78.61,179.94,127.76,264.68
					c5.9,10.73,12.6,20.99,18.88,31.49l9.57,15.67c3.18,5.23,6.67,10.25,9.99,15.39c6.77,10.18,13.32,20.52,20.27,30.58l21.24,29.88
					c29.02,39.32,60.2,76.98,94.08,112.02l0.08,0.08c3.11,3.22,3.03,8.34-0.19,11.46c-3.22,3.11-8.35,3.02-11.46-0.19l-0.04-0.04
					c-34.23-35.96-65.57-74.45-94.63-114.49l-21.26-30.41c-6.94-10.23-13.48-20.72-20.24-31.07c-3.31-5.21-6.8-10.33-9.97-15.63
					l-9.53-15.89c-6.26-10.65-12.93-21.06-18.8-31.92c-48.89-85.85-90.24-175.67-126.45-267.33
					c-18.26-45.79-34.79-92.22-50.53-138.9c-15.66-46.7-30.3-93.75-43.74-141.12c-13.47-47.37-25.98-95-37.41-142.9
					c-11.34-47.93-21.93-95.98-30.64-144.55c-0.34-1.86,0.91-3.65,2.77-3.98c1.86-0.33,3.63,0.89,3.98,2.74L548.68,1583.58z"/>
			</g>
		</g>
		<g>
			<linearGradient id="SVGID_2_" gradientUnits="userSpaceOnUse" x1="1910.0251" y1="1281.4125" x2="1876.2662" y2="2841.0427">
				<stop  offset="0" style="stop-color:#09005D"/>
				<stop  offset="1" style="stop-color:#1A0F91"/>
			</linearGradient>
			<path class="st6" d="M668.74,2741.76c0,24.32,19.92,44.23,44.27,44.23H3106.9c24.35,0,44.27-19.9,44.27-44.23l19.92-1375.7
				c0-24.32-28.66-71.81-81.18-68.24l-2339.58-60.54c-30.55-0.79-60.09,10.97-81.72,32.53c-21.63,21.56-33.47,51.05-32.75,81.57
				L668.74,2741.76z"/>
			<path class="st5" d="M712.44,2699.33c0,23.03,18.85,41.88,41.88,41.88h2294.84c23.03,0,41.88-18.85,41.88-41.88l18.8-1248.88
				c-2.21-75.15-68.1-102.17-108.04-100.57l-2242.27-60.16c-21.46-0.58-42.21,7.69-57.41,22.86c-15.2,15.16-23.56,35.91-23.02,57.38
				L712.44,2699.33z"/>
			<g>
				<linearGradient id="SVGID_3_" gradientUnits="userSpaceOnUse" x1="3060.1133" y1="2049.2478" x2="3073.8716" y2="2049.2478">
					<stop  offset="0" style="stop-color:#DAE3FE"/>
					<stop  offset="1" style="stop-color:#E9EFFD"/>
				</linearGradient>
				<path class="st7" d="M3066.25,2106.03c-0.03,0-0.06,0-0.09,0c-3.39-0.05-6.1-2.84-6.05-6.23l1.49-101.28
					c0.05-3.36,2.79-6.05,6.13-6.05c0.03,0,0.06,0,0.09,0c3.39,0.05,6.1,2.84,6.05,6.23l-1.49,101.28
					C3072.34,2103.34,3069.6,2106.03,3066.25,2106.03z"/>
				<linearGradient id="SVGID_4_" gradientUnits="userSpaceOnUse" x1="2258.1809" y1="1606.1566" x2="3081.728" y2="1606.1566">
					<stop  offset="0" style="stop-color:#DAE3FE"/>
					<stop  offset="1" style="stop-color:#E9EFFD"/>
				</linearGradient>
				<path class="st8" d="M3069.9,1857.83c-0.03,0-0.06,0-0.09,0c-3.39-0.05-6.1-2.84-6.05-6.23l5.69-387.91
					c-0.11-23.04-7.1-41.44-20.79-54.56c-25.55-24.48-66.12-23.23-67.83-23.15l-716.68-19.22c-3.39-0.09-6.06-2.91-5.97-6.3
					c0.09-3.39,2.69-6.27,6.3-5.97l716.25,19.22c4.46-0.26,47.65-1.01,76.42,26.55c16.18,15.51,24.45,36.87,24.57,63.48l-5.7,388.03
					C3075.98,1855.14,3073.24,1857.83,3069.9,1857.83z"/>
			</g>
			<linearGradient id="SVGID_5_" gradientUnits="userSpaceOnUse" x1="1922.0754" y1="253.6079" x2="1908.5433" y2="1376.7388">
				<stop  offset="0" style="stop-color:#09005D"/>
				<stop  offset="1" style="stop-color:#1A0F91"/>
			</linearGradient>
			<path class="st9" d="M531.47,2900.19h2718.9c3.11,0,5.65-2.54,5.65-5.65v-109.57c0-3.11-2.54-5.65-5.65-5.65H531.47
				c-3.11,0-5.65,2.54-5.65,5.65v109.57C525.81,2897.64,528.36,2900.19,531.47,2900.19z"/>
			<path class="st10" d="M2945.26,1797.24H818.72c-33.69,0-61-26.26-61-58.65V1455.7c0-32.73,27.86-59.13,61.9-58.64l2126.54,30.19
				c33.33,0.47,60.1,26.59,60.1,58.64v252.7C3006.25,1770.98,2978.94,1797.24,2945.26,1797.24z"/>
			<path class="st10" d="M2989.5,2392.47H797.82c-9.25,0-16.75-7.5-16.75-16.75v-501.14c0-9.25,7.5-16.75,16.75-16.75H2989.5
				c9.25,0,16.75,7.5,16.75,16.75v501.14C3006.25,2384.97,2998.75,2392.47,2989.5,2392.47z"/>
			<path class="st10" d="M2997.9,2688.92H789.43c-4.61,0-8.36-3.74-8.36-8.36v-213.02c0-4.61,3.74-8.36,8.36-8.36H2997.9
				c4.61,0,8.36,3.74,8.36,8.36v213.02C3006.25,2685.18,3002.51,2688.92,2997.9,2688.92z"/>
		</g>
		<g>
			<g>
				<path class="st5" d="M1436.95,727.63c-36.05-1.6-66.05-34.08-66.87-72.47c-0.83-38.46,27.93-68.49,64.1-66.88
					c36.18,1.61,66.18,34.25,66.88,72.7C1501.76,699.37,1473,729.23,1436.95,727.63z M1434.77,618.26
					c-20.64-0.92-37.05,16.21-36.59,38.15c0.46,21.93,17.58,40.49,38.18,41.4c20.6,0.92,37.02-16.15,36.6-38.08
					C1472.54,637.79,1455.41,619.17,1434.77,618.26z"/>
				<path class="st5" d="M1756.9,811.16c-36-1.6-65.72-33.98-66.25-72.24c-0.53-38.34,28.42-68.27,64.54-66.66
					c36.12,1.61,65.84,34.15,66.25,72.48C1821.85,782.99,1792.9,812.76,1756.9,811.16z M1755.55,702.13
					c-20.61-0.92-37.14,16.15-36.85,38.03c0.29,21.85,17.26,40.36,37.83,41.27c20.57,0.91,37.09-16.1,36.84-37.95
					C1793.13,721.61,1776.16,703.05,1755.55,702.13z"/>
				<path class="st5" d="M2065.93,595.47c-36.2-1.61-65.85-34.33-66.1-73.01c-0.25-38.75,29.1-69.01,65.42-67.4
					c36.32,1.62,65.98,34.5,66.1,73.25C2131.48,566.98,2102.13,597.08,2065.93,595.47z M2065.4,485.26
					c-20.72-0.92-37.48,16.33-37.35,38.45c0.13,22.09,17.06,40.79,37.74,41.71c20.68,0.92,37.44-16.28,37.35-38.37
					C2103.05,504.94,2086.12,486.19,2065.4,485.26z"/>
				<path class="st5" d="M2159.28,889.87c-35.84-1.59-65.17-33.68-65.38-71.58c-0.22-37.98,28.86-67.62,64.82-66.02
					c35.96,1.6,65.29,33.84,65.39,71.82C2224.2,861.98,2195.12,891.47,2159.28,889.87z M2158.84,781.87
					c-20.51-0.91-37.11,15.99-37,37.67c0.11,21.65,16.85,39.98,37.33,40.89c20.48,0.91,37.08-15.94,37.01-37.59
					C2196.1,801.17,2179.35,782.78,2158.84,781.87z"/>
				<polygon class="st5" points="1619.25,1218.5 1591.52,1217.27 1587.6,980.28 1441.91,705.31 1466.18,691.92 1615.38,973.9 				
					"/>
				<polygon class="st5" points="1783.82,1225.82 1756.09,1224.59 1750.74,796.03 1778.76,797.28 				"/>
				<polygon class="st5" points="1948.4,1233.14 1920.66,1231.91 1918.28,950.82 2052.57,733.89 2051.77,579.82 2079.95,581.08 
					2080.68,743.92 1946.28,960.76 				"/>
				<polygon class="st5" points="2169.87,1212.95 2142.14,1211.72 2145.25,869.79 2173.15,871.03 				"/>
			</g>
			<g>
				<path class="st5" d="M2401.65,747.59c-24.48-23.14-26.32-62.82-4.14-88.43c22.15-25.56,59.98-27.55,84.39-4.49
					c24.41,23.07,26.33,62.65,4.27,88.28C2464.06,768.63,2426.13,770.73,2401.65,747.59z M2464.72,674.55
					c-13.94-13.18-35.56-12.02-48.19,2.58c-12.65,14.62-11.59,37.27,2.38,50.46c13.97,13.2,35.61,12.02,48.24-2.63
					C2479.76,710.34,2478.67,687.73,2464.72,674.55z"/>
				<path class="st5" d="M2582.12,998.19c-24.52-23.17-26.49-63.08-4.43-88.93c22.02-25.81,59.78-27.98,84.22-4.88
					c24.44,23.09,26.5,62.9,4.55,88.78C2644.49,1019.08,2606.64,1021.36,2582.12,998.19z M2644.84,924.45
					c-13.96-13.2-35.53-11.94-48.1,2.81c-12.58,14.76-11.44,37.53,2.55,50.75c13.98,13.22,35.58,11.93,48.14-2.85
					C2659.96,960.38,2658.8,937.64,2644.84,924.45z"/>
				<path class="st5" d="M2923.52,1042.36c-24.39-23.05-26.59-62.78-4.95-88.54c21.61-25.71,58.93-27.9,83.24-4.93
					c24.31,22.98,26.6,62.61,5.07,88.39C2985.33,1063.11,2947.91,1065.41,2923.52,1042.36z M2985.06,968.9
					c-13.89-13.13-35.21-11.86-47.54,2.83c-12.34,14.71-11.07,37.38,2.84,50.53c13.91,13.15,35.26,11.85,47.58-2.88
					C3000.25,1004.66,2998.95,982.02,2985.06,968.9z"/>
				<path class="st5" d="M2706.59,1345.75c-24.62-23.27-26.69-63.6-4.65-89.87c22.01-26.22,59.84-28.65,84.39-5.46
					c24.54,23.2,26.7,63.42,4.78,89.72C2769.14,1366.49,2731.21,1369.03,2706.59,1345.75z M2769.26,1270.83
					c-14.02-13.25-35.63-11.85-48.19,3.14c-12.57,15-11.38,38.01,2.67,51.29c14.05,13.28,35.69,11.84,48.23-3.18
					C2784.51,1307.06,2783.29,1284.08,2769.26,1270.83z"/>
				<g>
					<polygon class="st5" points="2239,1191.33 2219.73,1173.13 2361.31,1008.07 2422.22,734.88 2447.22,740.91 2384.96,1020.93 
											"/>
					<polygon class="st5" points="2353.3,1299.36 2334.04,1281.16 2586.64,984.25 2605.71,1002.27 					"/>
					<polygon class="st5" points="2467.61,1407.39 2448.35,1389.19 2614.46,1192.34 2835.45,1127.14 2922.46,1023.34 
						2941.43,1041.27 2849.49,1151.1 2628.53,1216.43 					"/>
					<polygon class="st5" points="2581.92,1515.43 2562.66,1497.22 2708.35,1323.15 2727.5,1341.25 					"/>
				</g>
			</g>
		</g>
		<g>
			<linearGradient id="SVGID_6_" gradientUnits="userSpaceOnUse" x1="767.7155" y1="3280.6191" x2="1889.4823" y2="1978.5701">
				<stop  offset="0" style="stop-color:#E1473D"/>
				<stop  offset="1" style="stop-color:#E9605A"/>
			</linearGradient>
			<circle class="st11" cx="1912.14" cy="1952.27" r="836.32"/>
			<path class="st12" d="M1245.45,1619.79c-0.51,0-1.03-0.12-1.52-0.36c-1.66-0.84-2.33-2.87-1.49-4.53
				c61.6-122.04,155.44-225.05,271.38-297.9c119.16-74.87,256.9-114.45,398.32-114.45c45.44,0,90.94,4.09,135.25,12.17
				c1.83,0.33,3.05,2.09,2.71,3.93c-0.33,1.84-2.08,3.08-3.93,2.71c-43.91-8-89-12.06-134.04-12.06
				c-282.14,0-536.45,156.58-663.67,408.63C1247.87,1619.11,1246.68,1619.79,1245.45,1619.79z"/>
		</g>
		<g>
			<g>
				<path class="st13" d="M536.02,3075.93c-1.62,0-3.24-0.4-4.69-1.15c-5-2.59-6.96-8.77-4.37-13.77l630.29-1270.6
					c2.59-5,8.77-6.96,13.77-4.37c5,2.59,6.96,8.77,4.37,13.77l-630.29,1270.6C543.33,3073.81,539.85,3075.93,536.02,3075.93z"/>
				<path class="st13" d="M788.8,3083.36c-1.41,0-2.78-0.29-4.07-0.85c-2.5-1.09-4.43-3.09-5.43-5.62c-1-2.54-0.95-5.31,0.14-7.82
					l563.22-1286.85c2.25-5.16,8.28-7.53,13.44-5.29c5.17,2.25,7.54,8.28,5.29,13.44L798.17,3077.22
					C796.55,3080.95,792.87,3083.36,788.8,3083.36z"/>
				<path class="st13" d="M1269.48,1962.97h-170.95c-3.77,0-6.82-2.86-6.82-6.38s3.05-6.38,6.82-6.38h170.95
					c3.77,0,6.82,2.86,6.82,6.38S1273.25,1962.97,1269.48,1962.97z"/>
				<path class="st13" d="M1240.68,2062.12h-170.96c-3.77,0-6.82-2.86-6.82-6.38s3.05-6.38,6.82-6.38h170.96
					c3.77,0,6.82,2.86,6.82,6.38S1244.44,2062.12,1240.68,2062.12z"/>
				<path class="st13" d="M1173.68,2180.86H991.84c-3.77,0-6.82-2.86-6.82-6.38s3.05-6.38,6.82-6.38h181.84
					c3.77,0,6.82,2.86,6.82,6.38S1177.44,2180.86,1173.68,2180.86z"/>
				<path class="st13" d="M1308.16,1866.78h-163.1c-3.77,0-6.82-2.86-6.82-6.38s3.05-6.38,6.82-6.38h163.1
					c3.77,0,6.82,2.86,6.82,6.38S1311.92,1866.78,1308.16,1866.78z"/>
				<path class="st13" d="M1132.14,2296.4H934.56c-3.77,0-6.82-2.86-6.82-6.38s3.05-6.38,6.82-6.38h197.58
					c3.77,0,6.82,2.86,6.82,6.38S1135.9,2296.4,1132.14,2296.4z"/>
				<path class="st13" d="M1070.63,2423.43H872.09c-3.77,0-6.82-2.86-6.82-6.38c0-3.53,3.05-6.38,6.82-6.38h198.55
					c3.77,0,6.82,2.86,6.82,6.38C1077.45,2420.58,1074.4,2423.43,1070.63,2423.43z"/>
				<path class="st13" d="M1007.75,2540.63H812.54c-3.77,0-6.82-2.86-6.82-6.38s3.05-6.38,6.82-6.38h195.21
					c3.77,0,6.82,2.86,6.82,6.38S1011.52,2540.63,1007.75,2540.63z"/>
				<path class="st13" d="M951.13,2677.24H740.18c-3.77,0-6.82-2.86-6.82-6.38s3.05-6.38,6.82-6.38h210.96
					c3.77,0,6.82,2.86,6.82,6.38S954.9,2677.24,951.13,2677.24z"/>
				<path class="st13" d="M904.71,2783.2H692.78c-3.77,0-6.82-2.86-6.82-6.38c0-3.53,3.05-6.38,6.82-6.38h211.92
					c3.77,0,6.82,2.86,6.82,6.38C911.53,2780.34,908.47,2783.2,904.71,2783.2z"/>
				<path class="st13" d="M851.21,2913.66H627.49c-3.97,0-7.2-2.86-7.2-6.38s3.22-6.38,7.2-6.38h223.72c3.97,0,7.2,2.86,7.2,6.38
					S855.18,2913.66,851.21,2913.66z"/>
			</g>
			<g>
				<g>
					<linearGradient id="SVGID_7_" gradientUnits="userSpaceOnUse" x1="1494.0913" y1="1508.676" x2="1316.2977" y2="1648.2103">
						<stop  offset="0" style="stop-color:#4F52FF"/>
						<stop  offset="1" style="stop-color:#4042E2"/>
					</linearGradient>
					<path class="st14" d="M1326.06,1705.54c0,0-143.5,46.64-210.05-17.63l-9.73,89.46c0,0,158.61,77.91,232.32-40.47
						L1326.06,1705.54z"/>
					<g>
						
							<linearGradient id="SVGID_8_" gradientUnits="userSpaceOnUse" x1="-7060.1094" y1="1305.3448" x2="-7102.7124" y2="1350.3733" gradientTransform="matrix(-0.9865 -0.1635 -0.2088 1.2596 -5389.312 -1140.5688)">
							<stop  offset="0" style="stop-color:#09005D"/>
							<stop  offset="1" style="stop-color:#1A0F91"/>
						</linearGradient>
						<path class="st15" d="M1369.5,1651.07l-48.16-6.35c-5.74-0.95-11.67,2.41-15.22,8.64l-31.68,70.03
							c-5.96,10.46-1.72,24.34,7.93,25.94l38.67,4.96c3.7,0.61,7.5-1.72,9.59-5.89l42.85-85.52
							C1375.96,1657.94,1373.89,1651.8,1369.5,1651.07z"/>
					</g>
					
						<linearGradient id="SVGID_9_" gradientUnits="userSpaceOnUse" x1="1150.2614" y1="1645.6915" x2="1119.2676" y2="1760.3687" gradientTransform="matrix(1 0 0 1 204.5823 0)">
						<stop  offset="0" style="stop-color:#FEBBBA"/>
						<stop  offset="1" style="stop-color:#FF928E"/>
					</linearGradient>
					<path class="st16" d="M1336.64,1745.53c0,0,32.38-47.13,28.62-52.93c-3.76-5.8-32.15-14.11-38.81-16.08
						C1319.79,1674.57,1307.24,1717.3,1336.64,1745.53z"/>
				</g>
				<g>
					<linearGradient id="SVGID_10_" gradientUnits="userSpaceOnUse" x1="1022.7296" y1="2236.7114" x2="964.2153" y2="2335.7358">
						<stop  offset="0" style="stop-color:#09005D"/>
						<stop  offset="1" style="stop-color:#1A0F91"/>
					</linearGradient>
					<path class="st17" d="M930.74,2507.79c-25.37-22.08-79.87-39.77-79.87-39.77l-32.79,0.72c-8.32,9.36-12.09,27.51-13.69,38.88
						c6.17,3.7,17.75,6.94,38.96,7.95C882.63,2517.44,914.34,2511.7,930.74,2507.79z"/>
					
						<linearGradient id="SVGID_11_" gradientUnits="userSpaceOnUse" x1="3753.9641" y1="2512.209" x2="3724.6418" y2="2698.4456" gradientTransform="matrix(1 0 0 1 -2882.2273 0)">
						<stop  offset="0" style="stop-color:#09005D"/>
						<stop  offset="1" style="stop-color:#1A0F91"/>
					</linearGradient>
					<path class="st18" d="M930.74,2507.79c-16.4,3.91-48.11,9.65-87.39,7.78c-21.22-1.01-32.79-4.25-38.96-7.95
						c-0.13,0.91-0.25,1.8-0.35,2.62c-0.58,4.66,2.3,9.05,6.8,10.43c29.96,9.18,95.84,6.23,121.53,4.64
						c5.49-0.34,8.36-6.78,4.84-11.02C935.37,2512.08,933.18,2509.92,930.74,2507.79z"/>
				</g>
				
					<linearGradient id="SVGID_12_" gradientUnits="userSpaceOnUse" x1="3702.9797" y1="2459.2334" x2="3740.6301" y2="2459.2334" gradientTransform="matrix(1 0 0 1 -2882.2273 0)">
					<stop  offset="0" style="stop-color:#FEBBBA"/>
					<stop  offset="1" style="stop-color:#FF928E"/>
				</linearGradient>
				<path class="st19" d="M820.75,2440.42v26.08c0,5.02,3.5,9.35,8.41,10.41c5.08,1.1,11.82,1.8,18.37,0.18
					c4.09-1.01,7.09-4.53,7.58-8.72l3.29-27.95H820.75z"/>
				<g>
					
						<linearGradient id="SVGID_13_" gradientUnits="userSpaceOnUse" x1="3864.2754" y1="2326.8511" x2="3777.2517" y2="2399.6348" gradientTransform="matrix(1 0 0 1 -2882.2273 0)">
						<stop  offset="0" style="stop-color:#09005D"/>
						<stop  offset="1" style="stop-color:#1A0F91"/>
					</linearGradient>
					<path class="st20" d="M986.58,2306.81c-10.17-22.65-7.26-32.83-27.4-30.58c-2.42,0.27-4.43,0.74-6.13,1.34
						c-1.27,3.74-1.35,7.87,0.01,11.8c5.09,14.65,15.73,39.68,35.26,64.33c4.1,5.18,10.38,8.18,16.99,8.29l22.21,0.37
						C1006.45,2345.53,995.02,2325.6,986.58,2306.81z"/>
					<linearGradient id="SVGID_14_" gradientUnits="userSpaceOnUse" x1="1455.2341" y1="2062.3606" x2="1272.9396" y2="2163.6353">
						<stop  offset="0" style="stop-color:#09005D"/>
						<stop  offset="1" style="stop-color:#1A0F91"/>
					</linearGradient>
					<path class="st21" d="M1028.91,2328.78c-17.04-12-23.4-61.01-23.4-61.01l-26.27-13.37l-19.81,14.35
						c-3.06,2.27-5.23,5.38-6.39,8.81c1.7-0.6,3.71-1.07,6.13-1.34c20.14-2.25,17.23,7.93,27.4,30.58
						c8.44,18.79,19.87,38.72,40.93,55.55l15.26,0.25c6.86,0.11,10.82-7.72,6.66-13.17
						C1044.21,2342.6,1037.08,2334.53,1028.91,2328.78z"/>
				</g>
				
					<linearGradient id="SVGID_15_" gradientUnits="userSpaceOnUse" x1="3860.3235" y1="2249.7439" x2="3913.2141" y2="2249.7439" gradientTransform="matrix(1 0 0 1 -2882.2273 0)">
					<stop  offset="0" style="stop-color:#FEBBBA"/>
					<stop  offset="1" style="stop-color:#FF928E"/>
				</linearGradient>
				<path class="st22" d="M995.1,2229.74l-15.86,24.67c-2,3.12-1.32,7.24,1.59,9.53c5.08,4,13.89,8.47,24.68,3.84l25.48-17.46
					L995.1,2229.74z"/>
				<linearGradient id="SVGID_16_" gradientUnits="userSpaceOnUse" x1="702.9186" y1="2448.1833" x2="1013.4942" y2="2070.0918">
					<stop  offset="0" style="stop-color:#09005D"/>
					<stop  offset="1" style="stop-color:#1A0F91"/>
				</linearGradient>
				<path class="st23" d="M876.06,1969.37c0,0-8.34,23.51-20.44,106.1c-12.1,82.59-20.06,142.65-26.66,175.41
					c-6.03,29.95-15.55,137.82-14.99,185c0.08,6.34,5.31,11.39,11.65,11.19l31.21-0.98c4.82-0.15,8.86-3.66,9.67-8.41
					c8.26-48.57,65.35-299.19,99.77-371.28c0,0,91.58,25.89,114.42,36.3c0,0-29.52,11.82-90.02,125.23c0,0,26.13,20.76,44.63,25.08
					c0,0,132.38-109.8,146.37-121.29c13.99-11.49,26.72-31.29-8.97-67.35c-35.69-36.06-125.3-98.8-125.3-98.8L876.06,1969.37z"/>
				
					<linearGradient id="SVGID_17_" gradientUnits="userSpaceOnUse" x1="3745.9214" y1="2192.928" x2="3816.7178" y2="2041.8254" gradientTransform="matrix(1 0 0 1 -2882.2273 0)">
					<stop  offset="0" style="stop-color:#4F52FF"/>
					<stop  offset="1" style="stop-color:#4042E2"/>
				</linearGradient>
				<path class="st24" d="M961.21,2068.96c-0.23,0-0.46-0.05-0.68-0.15l-32.66-12.59c-14.04-6.69-23.16-21.07-23.24-36.62
					c0-0.87,0.7-1.59,1.58-1.59c1.02,0.01,1.59,0.7,1.59,1.58c0.07,14.34,8.49,27.6,21.43,33.77l32.66,12.59
					c0.79,0.38,1.12,1.32,0.75,2.11C962.37,2068.62,961.8,2068.96,961.21,2068.96z"/>
				
					<linearGradient id="SVGID_18_" gradientUnits="userSpaceOnUse" x1="3932.439" y1="1661.2262" x2="3948.449" y2="1609.1942" gradientTransform="matrix(1 0 0 1 -2882.2273 0)">
					<stop  offset="0" style="stop-color:#FEBBBA"/>
					<stop  offset="1" style="stop-color:#FF928E"/>
				</linearGradient>
				<path class="st25" d="M1062.96,1564.92l-43.03,73.36h67.9c0,0,5.46-33.54,23.32-53.72L1062.96,1564.92z"/>
				<g>
					
						<linearGradient id="SVGID_19_" gradientUnits="userSpaceOnUse" x1="3160.5117" y1="4113.4717" x2="3118.3142" y2="4245.1284" gradientTransform="matrix(1 0 0 1 -2882.2273 0)">
						<stop  offset="0" style="stop-color:#FEBBBA"/>
						<stop  offset="1" style="stop-color:#FF928E"/>
					</linearGradient>
					<path class="st26" d="M1132.86,1476.72c0,0,22.86,52.52,24.4,80.09c1.54,27.57,7.48,45.46-24.4,51.01s-58.73-10.33-73.27-37.79
						c0,0-22.79-42.31-17.68-59.64S1132.86,1476.72,1132.86,1476.72z"/>
					
						<linearGradient id="SVGID_20_" gradientUnits="userSpaceOnUse" x1="3928.0491" y1="1444.001" x2="4046.4055" y2="1596.3845" gradientTransform="matrix(1 0 0 1 -2882.2273 0)">
						<stop  offset="0" style="stop-color:#09005D"/>
						<stop  offset="1" style="stop-color:#1A0F91"/>
					</linearGradient>
					<path class="st27" d="M1070.47,1550.28h4.03c0,0-16.6-34.06-2.01-40.04c14.59-5.98,72.38-17.77,84.84-38.27
						c12.02-19.77,1.3-45.3-14.74-52.45c-1.01-0.45-2.21,0.03-2.73,1.01l-1.33,2.51c-0.91,1.72-3.45,1.46-3.99-0.41
						c-0.51-1.77-2.91-2.16-3.88-0.59c-3.82,6.13-14.15,16.1-41.87,21.22c-39.33,7.26-65.33,23.18-65.97,50.36
						c-0.04,1.72-1.88,2.67-3.35,1.77c-2.9-1.77-7.55-2.6-13.76,2.62c-10.8,9.08-6.38,32.64,17.29,52.01
						c1.12,0.92,1.12,2.68-0.1,3.47c-4.29,2.79-10.69,9.44,5.89,18.3c16.96,9.06,26.99,8.08,30.78,7.11
						c1.02-0.26,1.7-1.19,1.64-2.24l-1.49-24.09c-0.08-1.25,0.91-2.3,2.16-2.3H1070.47z"/>
					
						<linearGradient id="SVGID_21_" gradientUnits="userSpaceOnUse" x1="3121.1565" y1="4100.8525" x2="3078.959" y2="4232.5093" gradientTransform="matrix(1 0 0 1 -2882.2273 0)">
						<stop  offset="0" style="stop-color:#FEBBBA"/>
						<stop  offset="1" style="stop-color:#FF928E"/>
					</linearGradient>
					<path class="st28" d="M1071.46,1555.32c0,0-8.72-33.55-23.76-24.14c-15.04,9.41,7.81,37.59,19.9,38.85L1071.46,1555.32z"/>
				</g>
				<linearGradient id="SVGID_22_" gradientUnits="userSpaceOnUse" x1="1407.1578" y1="1600.0824" x2="1236.1165" y2="1696.8557">
					<stop  offset="0" style="stop-color:#4F52FF"/>
					<stop  offset="1" style="stop-color:#4042E2"/>
				</linearGradient>
				<path class="st29" d="M1017.37,1626.72c1.03-1.41,3.02-1.74,4.37-0.64c4.45,3.6,19.23,5.86,67.65,4.83
					c28.2-0.6,33.5,104.93,33.5,104.93s-50.05,209.8-49.26,247.17c0,0-112.46,32.93-202.45,1.07c0,0-2.76-64.01,32.36-152.42
					C944.01,1729.77,1004.32,1644.6,1017.37,1626.72z"/>
				
					<linearGradient id="SVGID_23_" gradientUnits="userSpaceOnUse" x1="970.8876" y1="1744.9663" x2="1222.7347" y2="1744.9663" gradientTransform="matrix(1 0 0 1 204.5823 0)">
					<stop  offset="0" style="stop-color:#FEBBBA"/>
					<stop  offset="1" style="stop-color:#FF928E"/>
				</linearGradient>
				<path class="st30" d="M1080.78,1664.3c0,0-15.33,219.12,126.24,109.06c0,0,20.91-19.75,36-22.15c8.13-1.29,17.3-2.16,24.04-2.68
					c3.07-0.24,4.51,3.73,1.99,5.5c-4.86,3.42-11.24,7.09-16.76,7.67c-10.68,1.11,0.71,8.93-10.92,29.38
					c-11.63,20.45-28.24,12.74-28.24,12.74s-162.22,166.12-194.6-123.6C1017.37,1626.33,1069.24,1629.19,1080.78,1664.3z"/>
				<linearGradient id="SVGID_24_" gradientUnits="userSpaceOnUse" x1="1140.7494" y1="1639.004" x2="1260.0281" y2="1251.91">
					<stop  offset="0" style="stop-color:#4F52FF"/>
					<stop  offset="1" style="stop-color:#4042E2"/>
				</linearGradient>
				<path class="st31" d="M1004.9,1690.53c6.62-57.88,59.36-72.43,82.8-25.38c10.76,72.09,20.07,146.71,90.25,115.18
					c19.88,9.55,35.1,21.44,26.96,45.04C1094.07,1907.43,1035.76,1838.46,1004.9,1690.53z"/>
			</g>
		</g>
		<g>
			
				<linearGradient id="SVGID_25_" gradientUnits="userSpaceOnUse" x1="4335.9404" y1="2024.7867" x2="4409.0859" y2="2208.2708" gradientTransform="matrix(1 0 0 1 -1669.9181 0)">
				<stop  offset="0" style="stop-color:#09005D"/>
				<stop  offset="1" style="stop-color:#1A0F91"/>
			</linearGradient>
			<path class="st32" d="M2709.39,2123.49c0,0,24.66,11.99,29.19,25.77c3.64,11.06,30.9,12.48,33.6,34.22
				c1.39,11.23,9.7,20.22,20.88,21.93c27.85,4.27,70.76,18.73,77.63,67.08c5.24,36.91-13.57,50.9-33.32,55.74
				c-14.5,3.56-24.14,17.66-21.21,32.3c2.81,14.04-1.38,30.28-25.71,43.11c-54.52,28.77-108.96-68.15-108.96-68.15l-11.16-169.23
				L2709.39,2123.49z"/>
			
				<linearGradient id="SVGID_26_" gradientUnits="userSpaceOnUse" x1="3835.5007" y1="3156.6118" x2="3970.6311" y2="3464.0635" gradientTransform="matrix(0.9776 -0.2106 0.2106 0.9776 -1920.3381 -113.5247)">
				<stop  offset="0" style="stop-color:#FEBBBA"/>
				<stop  offset="1" style="stop-color:#FF928E"/>
			</linearGradient>
			<path class="st33" d="M2412.74,2083.37c0,0,108.85,172.17,238.29,205.43c0,0-25.22,71.84-44.69,80.06
				c0,0-159.25-132.87-200.17-261.02L2412.74,2083.37z"/>
			
				<linearGradient id="SVGID_27_" gradientUnits="userSpaceOnUse" x1="4603.3291" y1="3199.4707" x2="4665.3535" y2="3199.4707" gradientTransform="matrix(1 0 0 1 -1669.9181 0)">
				<stop  offset="0" style="stop-color:#09005D"/>
				<stop  offset="1" style="stop-color:#1A0F91"/>
			</linearGradient>
			<path class="st34" d="M2933.48,3184.6l3.53,29c0.67,5.5,5,9.85,10.51,10.48c9.3,1.06,24.22,2.15,38.81,0.61
				c6.41-0.68,10.57-7.17,8.62-13.31c-3.56-11.2-10.07-28-19.46-37.89h-32.17C2937.38,3173.49,2932.77,3178.69,2933.48,3184.6z"/>
			
				<linearGradient id="SVGID_28_" gradientUnits="userSpaceOnUse" x1="4341.2432" y1="3444.0618" x2="4430.501" y2="2400.8594" gradientTransform="matrix(1 0 0 1 -1669.9181 0)">
				<stop  offset="0" style="stop-color:#FEBBBA"/>
				<stop  offset="1" style="stop-color:#FF928E"/>
			</linearGradient>
			<path class="st35" d="M2681.5,2844.85l-5.43,31.94c0,0,18.18,184.2,21.42,257.87c0.51,11.55-2.48,22.97-8.54,32.81l-31.62,51.35
				l80.36-47.42l1.6-9.81l-13.16-18.09l17.23-206.35c1.01-12.12-1.49-24.28-7.2-35.02l-16.62-31.23L2681.5,2844.85z"/>
			
				<linearGradient id="SVGID_29_" gradientUnits="userSpaceOnUse" x1="4315.168" y1="3188.1467" x2="4415.5288" y2="3188.1467" gradientTransform="matrix(1 0 0 1 -1669.9181 0)">
				<stop  offset="0" style="stop-color:#09005D"/>
				<stop  offset="1" style="stop-color:#1A0F91"/>
			</linearGradient>
			<path class="st36" d="M2652.03,3226.27h25.65c4.8,0,9.33-2.2,12.25-6.01c7.99-10.39,24.56-30.66,32.48-31.18
				c10.66-0.71,9.3,37.19,9.3,37.19h5.98l7.57-47.1c1.9-11.85-3.99-23.59-14.63-29.14c0,0-2.44,18.02-15.65,26
				s-53.78,36.53-53.78,36.53s-4.97-0.71-10.42,0.28C2642.68,3214.29,2643.81,3226.27,2652.03,3226.27z"/>
			
				<linearGradient id="SVGID_30_" gradientUnits="userSpaceOnUse" x1="4520.791" y1="3459.584" x2="4610.0723" y2="2416.1074" gradientTransform="matrix(1 0 0 1 -1669.9181 0)">
				<stop  offset="0" style="stop-color:#FEBBBA"/>
				<stop  offset="1" style="stop-color:#FF928E"/>
			</linearGradient>
			<path class="st37" d="M2791.57,2860.02c0,0,106.53,202.08,123.47,248.22c16.93,46.14,22.87,84.63,23.09,88.27
				c0.35,5.7,7.44,11.16,26.96,11.16c10.08,0,15.01-4.04,17.43-7.95c2.06-3.34,2.17-7.51,0.43-11.03
				c-6.16-12.47-25.72-52.33-32.96-70.4c-8.65-21.58-27.25-119.39-37.45-153.4c-10.2-34.01-21.73-70.9-66.16-104.87
				C2846.39,2860.02,2815.89,2830.16,2791.57,2860.02z"/>
			
				<linearGradient id="SVGID_31_" gradientUnits="userSpaceOnUse" x1="4343.4482" y1="2392.0566" x2="4388.0791" y2="2806.1353" gradientTransform="matrix(1 0 0 1 -1669.9181 0)">
				<stop  offset="0" style="stop-color:#4F52FF"/>
				<stop  offset="1" style="stop-color:#4042E2"/>
			</linearGradient>
			<path class="st38" d="M2724.27,2528.91c-27.48-116.45,42.14-182.31,42.14-182.31c-43.93-42.16-123.96-61.35-123.96-61.35
				s-76.37,55.83-67.31,99.53c5.31,25.61,53.68,153.42,53.68,153.42S2673.54,2559.37,2724.27,2528.91z"/>
			<linearGradient id="SVGID_32_" gradientUnits="userSpaceOnUse" x1="3167.2515" y1="2076.417" x2="3005.2122" y2="2312.7244">
				<stop  offset="0" style="stop-color:#4F52FF"/>
				<stop  offset="1" style="stop-color:#4042E2"/>
			</linearGradient>
			<path class="st39" d="M2785.2,2586.55c-11.18-33.69-60.93-57.65-60.93-57.65c-50.73,30.47-95.45,9.3-95.45,9.3
				s-10.03,38.34-3.11,73.97c6.92,35.63,50.36,264.62,50.36,264.62c68.44,13.87,173.7-13.95,173.7-13.95
				C2806.17,2785.45,2796.38,2620.25,2785.2,2586.55z"/>
			<linearGradient id="SVGID_33_" gradientUnits="userSpaceOnUse" x1="2729.6824" y1="2365.9441" x2="2653.1638" y2="2201.6541">
				<stop  offset="0" style="stop-color:#FEBBBA"/>
				<stop  offset="1" style="stop-color:#FF928E"/>
			</linearGradient>
			<path class="st40" d="M2692.37,2208.3l22.34,100.36c2.14,8.84-5.92,7.39-14.86,5.71c-14.64-2.76-33.5-8.44-39.81-19.83
				c-0.64-1.16-0.96-2.47-1.14-3.78l-9.6-69.59c-0.76-5.52,2.22-10.88,7.32-13.14l18.52-8.21
				C2682.28,2196.65,2690.54,2200.72,2692.37,2208.3z"/>
			<g>
				<linearGradient id="SVGID_34_" gradientUnits="userSpaceOnUse" x1="2896.9302" y1="2056.1245" x2="3034.2136" y2="1990.8585">
					<stop  offset="0" style="stop-color:#FEBBBA"/>
					<stop  offset="1" style="stop-color:#FF928E"/>
				</linearGradient>
				<path class="st41" d="M2649.58,2116.81c0,0-23.79,16.1-34.01,57.1s6.39,55.71,23.41,54.81c17.03-0.9,41.71-6.17,63.1-35.58
					C2723.48,2163.73,2680.75,2097.14,2649.58,2116.81z"/>
				
					<linearGradient id="SVGID_35_" gradientUnits="userSpaceOnUse" x1="4015.9797" y1="2975.927" x2="4089.1282" y2="3159.4185" gradientTransform="matrix(0.9809 -0.1943 0.1943 0.9809 -1899.0082 -99.2406)">
					<stop  offset="0" style="stop-color:#09005D"/>
					<stop  offset="1" style="stop-color:#1A0F91"/>
				</linearGradient>
				<path class="st42" d="M2680.52,2176.61c0,0,8.72-58.75-40.07-49.77l-9.86,10.27c0,0-23.88-26.89,2.55-47.22
					c26.42-20.33,63.09-15.12,83.38,21.88s27.65,63.01,10.65,86c-17,22.99-29.79,3.27-29.79,3.27s7.8-19.9,1.33-28.44
					c-6.47-8.54-14.82,4.97-14.82,4.97L2680.52,2176.61z"/>
				
					<linearGradient id="SVGID_36_" gradientUnits="userSpaceOnUse" x1="4015.6577" y1="3220.1594" x2="4161.9551" y2="2959.7993" gradientTransform="matrix(0.9809 -0.1943 0.1943 0.9809 -1899.0082 -99.2406)">
					<stop  offset="0" style="stop-color:#FEBBBA"/>
					<stop  offset="1" style="stop-color:#FF928E"/>
				</linearGradient>
				<path class="st43" d="M2687.19,2181.64c0,0,4.3-30.23,19.74-21.59c15.44,8.64-5.56,28.24-13.98,34.91L2687.19,2181.64z"/>
			</g>
			<g>
				
					<linearGradient id="SVGID_37_" gradientUnits="userSpaceOnUse" x1="3808.7966" y1="3168.3491" x2="3943.9268" y2="3475.8008" gradientTransform="matrix(0.9776 -0.2106 0.2106 0.9776 -1920.3381 -113.5247)">
					<stop  offset="0" style="stop-color:#FEBBBA"/>
					<stop  offset="1" style="stop-color:#FF928E"/>
				</linearGradient>
				<path class="st44" d="M2413.49,2118.81c-0.33,3.55,12.88,6.01,17.08-9.13c-1.16-6.57-3.21-35.36-8.25-39.83
					c-26.84-23.82-74.71-50.61-74.71-50.61c-5.35,8.17,1.67,13.56,1.67,13.56l23.89,16.13c-2.49,8.26-6.13,15.55-6.54,24.98
					c-0.31,7.14,2.32,14.13,7.06,19.54c4.76,5.43,11.16,12.45,16.93,17.78C2401.55,2121.29,2413.49,2118.81,2413.49,2118.81z"/>
				
					<linearGradient id="SVGID_38_" gradientUnits="userSpaceOnUse" x1="-5251.417" y1="2082.4919" x2="-5215.0298" y2="2082.4919" gradientTransform="matrix(-1 0 0 1 -2835.3513 0)">
					<stop  offset="0" style="stop-color:#FEBBBA"/>
					<stop  offset="1" style="stop-color:#FF928E"/>
				</linearGradient>
				<path class="st45" d="M2400.51,2107.08l3.65-1.5c-0.49-1.18-11.95-29.05-17.5-34.84c-2.11-2.2-3.13-4.08-3.03-5.6
					c0.05-0.82,0.45-1.63,1.23-2.46l19.33,10.34l8.54,13.37l3.33-2.13l-9.09-14.24l-22.65-12.11l-1.02,0.83
					c-2.29,1.87-3.47,3.88-3.61,6.15c-0.17,2.7,1.18,5.51,4.12,8.58C2387.99,2077.83,2397.28,2099.21,2400.51,2107.08z"/>
			</g>
			<g>
				
					<linearGradient id="SVGID_39_" gradientUnits="userSpaceOnUse" x1="3055.2891" y1="2746.6638" x2="2894.4851" y2="2790.7358" gradientTransform="matrix(0.9988 -0.0494 0.0494 0.9988 -454.0844 -55.0328)">
					<stop  offset="0" style="stop-color:#09005D"/>
					<stop  offset="1" style="stop-color:#1A0F91"/>
				</linearGradient>
				<path class="st46" d="M2699.37,2590.34c-0.15,0.01-0.3,0.01-0.46,0.01l-199.6-0.22c-4.93,0-8.93-3.97-8.92-8.85
					c0-4.88,4.02-8.92,8.94-8.83l199.6,0.22c4.93,0,8.93,3.97,8.92,8.85C2707.85,2586.25,2704.09,2590.11,2699.37,2590.34z"/>
				
					<linearGradient id="SVGID_40_" gradientUnits="userSpaceOnUse" x1="2927.7739" y1="2434.7922" x2="2814.3472" y2="2554.6772" gradientTransform="matrix(1 0 0 1 -412.6154 0)">
					<stop  offset="0" style="stop-color:#09005D"/>
					<stop  offset="1" style="stop-color:#1A0F91"/>
				</linearGradient>
				<path class="st47" d="M2319.88,2411.03h166.23c12.26,0,23.42,7,28.65,17.98l76.85,161.23h-206.58c-7.9,0-15-4.78-17.91-12.05
					l-59.59-149.19C2304.09,2420.37,2310.51,2411.03,2319.88,2411.03z"/>
				
					<ellipse transform="matrix(0.9497 -0.313 0.313 0.9497 -660.001 884.4846)" class="st5" cx="2424.53" cy="2497.67" rx="13.08" ry="21.08"/>
			</g>
			
				<linearGradient id="SVGID_41_" gradientUnits="userSpaceOnUse" x1="-5804.9204" y1="2574.4275" x2="-5454.2583" y2="2427.7322" gradientTransform="matrix(-1 0 0 1 -2835.3513 0)">
				<stop  offset="0" style="stop-color:#FEBBBA"/>
				<stop  offset="1" style="stop-color:#FF928E"/>
			</linearGradient>
			<path class="st48" d="M2766.69,2346.84c27.23,27.48,61.79,149.29,44.64,169.64c-15.09,23.69-66.49,55.93-115.43,55.97h-72.21
				c30.34-32.24,51.23-40.42,76.12-17.87c19.74-8.44,45.34-41.12,62.43-55.71c6.71-5.73,8.29-15.5,3.81-23.1
				c-13.57-22.98-30.6-46.61-36.01-69.49C2728.88,2379.47,2748.72,2348.78,2766.69,2346.84z"/>
		</g>
		<g>
			<g>
				<linearGradient id="SVGID_42_" gradientUnits="userSpaceOnUse" x1="1195.0907" y1="1063.311" x2="1377.376" y2="592.4084">
					<stop  offset="0" style="stop-color:#FF928E"/>
					<stop  offset="1" style="stop-color:#FE7062"/>
				</linearGradient>
				<path class="st49" d="M1277.31,1138.18h-148.72c-11.37,0-20.59-9.22-20.59-20.6V968.46c0-10.73,8.24-19.66,18.93-20.53
					l158.45-12.83c12.48-1.01,22.97,9.26,22.22,21.76l-9.73,161.95C1297.21,1129.69,1288.2,1138.18,1277.31,1138.18z"/>
				<path class="st50" d="M1149.78,1109.15c-3.99,0-7.89-1.53-10.81-4.28c-3.15-2.96-4.95-7.14-4.95-11.46V997.8
					c0-2.7,2.19-4.88,4.88-4.88c2.7,0,4.88,2.19,4.88,4.88v95.61c0,1.67,0.67,3.21,1.88,4.36c1.21,1.14,2.8,1.71,4.46,1.62
					l113.3-6.74c3.16-0.19,5.63-2.82,5.63-5.98v-93.87c0-1.71-0.7-3.29-1.97-4.43c-1.27-1.15-2.91-1.7-4.61-1.52l-94.25,9.33
					c-3.11,0.31-4.44,2.55-4.87,3.5c-0.43,0.95-1.22,3.44,0.61,5.97l35.95,49.61c1.13,1.56,2.88,2.46,4.8,2.47c0.02,0,0.04,0,0.05,0
					c1.9,0,3.64-0.87,4.79-2.39l39.6-52.75c1.62-2.15,4.68-2.6,6.83-0.98c2.16,1.62,2.59,4.68,0.98,6.84l-39.6,52.76
					c-3.04,4.04-7.58,6.41-12.73,6.3c-5.06-0.04-9.66-2.42-12.62-6.51l-35.95-49.61c-3.35-4.62-3.96-10.49-1.61-15.7
					c2.34-5.21,7.13-8.65,12.81-9.22l94.25-9.33c4.42-0.43,8.84,1.02,12.13,4c3.29,2.98,5.18,7.23,5.18,11.67v93.87
					c0,8.32-6.51,15.23-14.81,15.72l-113.3,6.74C1150.4,1109.14,1150.09,1109.15,1149.78,1109.15z"/>
			</g>
			<g>
				<linearGradient id="SVGID_43_" gradientUnits="userSpaceOnUse" x1="1071.9821" y1="1015.6552" x2="1254.2673" y2="544.7523">
					<stop  offset="0" style="stop-color:#FF928E"/>
					<stop  offset="1" style="stop-color:#FE7062"/>
				</linearGradient>
				<path class="st51" d="M1094.79,1149.38l-230.8-12.01c-18.85-0.98-33.89,13.71-33.36,32.71l5.97,212.25
					c0.49,17.35,15.49,30.6,33.31,29.72l219.16-10.83c14.86-0.73,27.12-13.91,27.56-29.52l5.34-190.13
					C1122.45,1164.64,1110.36,1150.19,1094.79,1149.38z"/>
				<g>
					<path class="st50" d="M1053.22,1340.1h-123.1c-3.66,0-6.88-2.4-7.92-5.91l-35.19-118.45l-36.47-4.53
						c-4.53-0.56-7.74-4.69-7.18-9.21c0.56-4.52,4.69-7.73,9.21-7.18l41.84,5.19c3.25,0.4,5.96,2.7,6.9,5.85l34.97,117.73h110.1
						l16.1-84.85c0.85-4.48,5.17-7.43,9.65-6.57c4.48,0.85,7.42,5.17,6.57,9.65l-17.38,91.57
						C1060.59,1337.28,1057.19,1340.1,1053.22,1340.1z"/>
					<path class="st50" d="M1072.83,1246.47H906.12c-4.56,0-8.26-3.7-8.26-8.26c0-4.56,3.7-8.26,8.26-8.26h166.71
						c4.56,0,8.26,3.7,8.26,8.26C1081.09,1242.77,1077.39,1246.47,1072.83,1246.47z"/>
					<g>
						<path class="st50" d="M962.07,1332.1c-4.56,0-8.26-3.7-8.26-8.26v-84.5c0-4.56,3.7-8.26,8.26-8.26c4.56,0,8.26,3.7,8.26,8.26
							v84.5C970.33,1328.41,966.63,1332.1,962.07,1332.1z"/>
						<path class="st50" d="M1019.16,1332.1c-4.56,0-8.26-3.7-8.26-8.26v-84.5c0-4.56,3.7-8.26,8.26-8.26c4.56,0,8.26,3.7,8.26,8.26
							v84.5C1027.42,1328.41,1023.72,1332.1,1019.16,1332.1z"/>
					</g>
					<path class="st50" d="M1061.41,1294.42H919.82c-4.56,0-8.26-3.7-8.26-8.26c0-4.56,3.7-8.26,8.26-8.26h141.59
						c4.56,0,8.26,3.7,8.26,8.26C1069.67,1290.73,1065.97,1294.42,1061.41,1294.42z"/>
					<g>
						<circle class="st50" cx="950.1" cy="1367.46" r="14.55"/>
						<circle class="st50" cx="1038.79" cy="1367.46" r="14.55"/>
					</g>
				</g>
			</g>
			<g>
				<linearGradient id="SVGID_44_" gradientUnits="userSpaceOnUse" x1="834.8651" y1="923.8689" x2="1017.151" y2="452.9646">
					<stop  offset="0" style="stop-color:#FF928E"/>
					<stop  offset="1" style="stop-color:#FE7062"/>
				</linearGradient>
				<path class="st52" d="M928.7,862.32l-216.7-11.27c-17.7-0.92-31.82,12.88-31.32,30.71l5.6,199.28
					c0.46,16.29,14.55,28.73,31.27,27.9l205.77-10.16c13.95-0.69,25.47-13.06,25.88-27.71l5.02-178.51
					C954.67,876.65,943.32,863.08,928.7,862.32z"/>
				<path class="st50" d="M916.43,1044.03c-0.02,0-0.04,0-0.06,0l-205.73-0.69c-9.03-0.03-16.36-6.9-16.69-15.64l-3.88-100.68
					c-0.16-4.27,1.37-8.36,4.33-11.53c3.05-3.27,7.39-5.22,11.93-5.36c0,0,0,0,0,0l207.81-6.48c4.68-0.16,9.05,1.56,12.3,4.65
					c3.15,3.01,4.93,7.03,5,11.32l1.81,107.84c0.07,4.32-1.58,8.41-4.66,11.53C925.42,1042.2,921,1044.03,916.43,1044.03z
					 M710.43,1026.78c0.06,0.02,0.14,0.04,0.26,0.04l205.73,0.69c0,0,0,0,0,0c0.14,0,0.23-0.03,0.3-0.06l-1.8-107.26
					c-0.06-0.03-0.17-0.05-0.28-0.04l-207.81,6.48c-0.12,0-0.2,0.03-0.26,0.05L710.43,1026.78z"/>
				<path class="st50" d="M719.1,939.58L719.1,939.58c0.09,3.48,2.31,6.24,4.97,6.18l176.78-4.4c2.66-0.07,4.75-2.94,4.66-6.42l0,0
					c-0.09-3.48-2.31-6.24-4.97-6.18l-176.78,4.4C721.1,933.23,719.02,936.11,719.1,939.58z"/>
				<path class="st53" d="M724.73,968.37l125.14-4.02c2.72-0.09,4.98,1.53,5.05,3.62l0,0c0.07,2.08-2.09,3.85-4.81,3.93
					l-125.14,4.02c-2.72,0.09-4.98-1.53-5.05-3.62l0,0C719.85,970.22,722,968.45,724.73,968.37z"/>
				<path class="st53" d="M720.31,988.15L720.31,988.15c0.05,2.08,1.56,3.73,3.36,3.69l83.09-2.07c1.8-0.04,3.23-1.77,3.17-3.85
					l-0.06-2.33c-0.05-2.12-1.61-3.78-3.44-3.68l-83.03,4.4C721.63,984.39,720.26,986.1,720.31,988.15z"/>
			</g>
		</g>
	</g>
</g>
<g id="Background">
	<g>
		<g>
			<path class="st54" d="M1921.99,1676.61c-8.84,0-16-7.16-16-16V1510c0-8.84,7.16-16,16-16c8.84,0,16,7.16,16,16v150.62
				C1937.98,1669.45,1930.82,1676.61,1921.99,1676.61z"/>
			<path class="st54" d="M2113.97,1756.13c-4.09,0-8.19-1.56-11.31-4.69c-6.25-6.25-6.25-16.38,0-22.63l62.57-62.57
				c6.25-6.25,16.38-6.25,22.63,0c6.25,6.25,6.25,16.38,0,22.63l-62.57,62.57C2122.16,1754.57,2118.06,1756.13,2113.97,1756.13
				L2113.97,1756.13z"/>
			<path class="st54" d="M1730.01,1756.13c-4.1,0-8.19-1.56-11.31-4.69l-62.57-62.57c-6.25-6.25-6.25-16.38,0-22.63
				c6.25-6.25,16.38-6.25,22.63,0l62.57,62.57c6.25,6.25,6.25,16.38,0,22.63C1738.19,1754.57,1734.1,1756.13,1730.01,1756.13
				L1730.01,1756.13z"/>
			<path class="st54" d="M2174.76,2200.88c-4.09,0-8.19-1.56-11.31-4.69l-60.79-60.79c-6.25-6.25-6.25-16.38,0-22.63
				c6.25-6.25,16.38-6.25,22.63,0l60.79,60.79c6.25,6.25,6.25,16.38,0,22.63C2182.95,2199.32,2178.85,2200.88,2174.76,2200.88
				L2174.76,2200.88z"/>
			<path class="st54" d="M1670.81,2199.28c-4.09,0-8.19-1.56-11.31-4.69c-6.25-6.25-6.25-16.38,0-22.63l59.19-59.19
				c6.25-6.25,16.38-6.25,22.63,0c6.25,6.25,6.25,16.38,0,22.63l-59.19,59.19C1679,2197.72,1674.91,2199.28,1670.81,2199.28
				L1670.81,2199.28z"/>
			<path class="st54" d="M2322.77,1948.11h-129.29c-8.84,0-16-7.16-16-16s7.16-16,16-16h129.29c8.84,0,16,7.16,16,16
				C2338.77,1940.95,2331.61,1948.11,2322.77,1948.11z"/>
			<path class="st54" d="M1921.99,2370.23c-8.84,0-16-7.16-16-16v-150.62c0-8.84,7.16-16,16-16c8.84,0,16,7.16,16,16v150.62
				C1937.98,2363.07,1930.82,2370.23,1921.99,2370.23z"/>
			<path class="st54" d="M1650.49,1948.11H1521.2c-8.84,0-16-7.16-16-16s7.16-16,16-16h129.29c8.84,0,16,7.16,16,16
				C1666.49,1940.95,1659.32,1948.11,1650.49,1948.11z"/>
		</g>
		<path class="st55" d="M1921.99,1858.88v264.28c-4.86,0-9.77-0.85-14.42-2.54c-0.11-0.02-0.23-0.06-0.34-0.11
			c-0.06-0.04-0.15-0.06-0.21-0.08l-146.97-55.1c-0.17-0.06-0.34-0.13-0.51-0.21c-16.36-6.38-27.15-22.14-27.15-39.74v-186.52
			c0-9.7,3.29-18.88,9-26.2L1921.99,1858.88z"/>
		<path class="st56" d="M2111.6,1838.86v186.52c0,17.6-10.79,33.36-27.15,39.74c-0.17,0.08-0.34,0.15-0.51,0.21l-146.97,55.1
			c-0.06,0.02-0.15,0.04-0.21,0.08c-4.76,1.75-9.77,2.64-14.76,2.64v-264.28l180.61-46.22
			C2108.31,1819.98,2111.6,1829.15,2111.6,1838.86z"/>
		<path class="st57" d="M2102.59,1803.58l-173.12,58.22c-4.83,1.62-10.15,1.62-14.98,0l-173.12-58.22
			c4.61-5.34,10.81-9.58,18.15-12.15c0.17-0.08,0.34-0.13,0.51-0.19l146.97-49.4c0.06-0.02,0.15-0.04,0.21-0.08
			c9.54-3.16,19.99-3.16,29.52,0c0.06,0.04,0.15,0.06,0.21,0.08l146.97,49.4c0.17,0.06,0.34,0.12,0.51,0.19
			C2091.78,1794,2097.99,1798.25,2102.59,1803.58z"/>
		<circle class="st58" cx="1921.99" cy="1466.69" r="64.64"/>
		<circle class="st59" cx="1614.21" cy="2239.89" r="94.81"/>
		<path class="st60" d="M1681.25,2172.85c-5.32-5.32-11.12-9.85-17.25-13.64c22.6,36.55,18.07,85.12-13.64,116.83
			c-31.71,31.71-80.27,36.24-116.83,13.64c3.79,6.13,8.32,11.93,13.64,17.25c37.03,37.03,97.06,37.03,134.08,0
			C1718.27,2269.91,1718.27,2209.88,1681.25,2172.85z"/>
		<circle class="st59" cx="2229.76" cy="2239.89" r="94.81"/>
		<path class="st60" d="M2296.8,2172.85c-5.32-5.32-11.12-9.85-17.25-13.64c22.6,36.55,18.07,85.12-13.64,116.83
			s-80.27,36.24-116.83,13.64c3.79,6.13,8.32,11.93,13.64,17.25c37.03,37.03,97.06,37.03,134.08,0
			C2333.83,2269.91,2333.83,2209.88,2296.8,2172.85z"/>
		<circle class="st59" cx="1614.21" cy="1624.34" r="94.81"/>
		<path class="st60" d="M1681.25,1557.3c-5.32-5.32-11.12-9.85-17.25-13.64c22.6,36.55,18.07,85.12-13.64,116.83
			c-31.71,31.71-80.27,36.24-116.83,13.64c3.79,6.13,8.32,11.93,13.64,17.25c37.03,37.03,97.06,37.03,134.08,0
			C1718.27,1654.35,1718.27,1594.32,1681.25,1557.3z"/>
		<circle class="st59" cx="2229.76" cy="1624.34" r="94.81"/>
		<path class="st60" d="M2296.8,1557.3c-5.32-5.32-11.12-9.85-17.25-13.64c22.6,36.55,18.07,85.12-13.64,116.83
			c-31.71,31.71-80.27,36.24-116.83,13.64c3.79,6.13,8.32,11.93,13.64,17.25c37.03,37.03,97.06,37.03,134.08,0
			C2333.83,1654.35,2333.83,1594.32,2296.8,1557.3z"/>
		<circle class="st58" cx="1921.99" cy="2397.54" r="64.64"/>
		<circle class="st58" cx="2387.42" cy="1932.11" r="64.64"/>
		<circle class="st58" cx="1456.56" cy="1932.11" r="64.64"/>
	</g>
</g>
</svg>
