<?xml version="1.0" encoding="utf-8"?>
<!-- Generator: Adobe Illustrator 23.0.5, SVG Export Plug-In . SVG Version: 6.00 Build 0)  -->
<svg version="1.1" id="Layer_1" xmlns="http://www.w3.org/2000/svg" xmlns:xlink="http://www.w3.org/1999/xlink" x="0px" y="0px"
	 viewBox="0 0 750 500" style="enable-background:new 0 0 750 500;" xml:space="preserve">
<style type="text/css">
	.st0{fill:#FBFBFB;}
	.st1{fill:#171714;}
	.st2{fill:#FBFBFB;stroke:#000000;stroke-width:5.000000e-02;stroke-linecap:round;stroke-linejoin:round;stroke-miterlimit:10;}
	.st3{fill:#5599EE;}
	.st4{fill:#326FCD;}
	.st5{fill:#AF3E27;}
	.st6{fill:#498C8C;}
	.st7{fill:#3C6867;}
	.st8{fill:#FF8B00;}
	.st9{fill:#FFF0E9;}
	.st10{fill:none;stroke:#000000;stroke-linecap:round;stroke-linejoin:round;stroke-miterlimit:10;}
	.st11{fill:#FBFBFB;stroke:#171714;stroke-width:0.5;stroke-linecap:round;stroke-linejoin:round;stroke-miterlimit:10;}
	.st12{fill:#FFBC97;}
	.st13{fill:#F07B54;}
	.st14{fill:none;stroke:#000000;stroke-width:5.000000e-02;stroke-linecap:round;stroke-linejoin:round;stroke-miterlimit:10;}
	.st15{fill:none;stroke:#FBFBFB;stroke-width:5.000000e-02;stroke-linecap:round;stroke-linejoin:round;stroke-miterlimit:10;}
</style>
<g id="BACKGROUND_x0A_">
	<path class="st0" d="M0.2,0h750v500H0.2V0z"/>
</g>
<g id="OBJECTS_x0A_">
	<g>
		<g>
			<g>
				<path class="st1" d="M445.5,474H299.8c-9.6,0-17.4-7.8-17.4-17.4V158c0-9.6,7.8-17.4,17.4-17.4h145.8c9.6,0,17.4,7.8,17.4,17.4
					v298.7C462.9,466.3,455.1,474,445.5,474z"/>
				<path class="st2" d="M293.7,169.9h160.5v271.5H293.7V169.9z"/>
				<path class="st0" d="M406,157.8h-54.4c-1.3,0-2.3-1-2.3-2.3l0,0c0-1.3,1-2.3,2.3-2.3H406c1.3,0,2.3,1,2.3,2.3l0,0
					C408.3,156.8,407.3,157.8,406,157.8z"/>
				<path class="st0" d="M342.4,155c0,1.5-1.2,2.8-2.7,2.8s-2.7-1.2-2.7-2.8s1.2-2.8,2.7-2.8C341.2,152.2,342.4,153.5,342.4,155z"/>
				<g>
					<g>
						<g>
							<path class="st0" d="M384.5,456.9c-0.1,0,0-0.9-0.4-2.4c-0.4-1.5-1.3-3.6-3.5-5.3c-1.1-0.8-2.5-1.5-4-1.8
								c-1.6-0.3-3.3-0.2-5,0.5c-0.8,0.3-1.7,0.8-2.4,1.3c-0.8,0.6-1.4,1.3-2,2.1c-1.1,1.6-1.8,3.6-1.8,5.7c0,2.1,0.7,4.1,1.8,5.7
								c0.5,0.8,1.2,1.5,2,2.1c0.7,0.6,1.5,1,2.4,1.3c1.7,0.7,3.5,0.7,5,0.5c1.6-0.3,2.9-1,4-1.8c2.2-1.7,3.1-3.9,3.5-5.3
								C384.4,457.8,384.4,456.9,384.5,456.9c0,0,0.1,0.9-0.2,2.4c-0.3,1.5-1.2,3.8-3.5,5.6c-1.1,0.9-2.5,1.6-4.2,2
								c-1.6,0.3-3.5,0.3-5.3-0.4c-0.9-0.3-1.8-0.8-2.5-1.4c-0.8-0.6-1.5-1.3-2.1-2.2c-1.2-1.7-1.9-3.8-1.9-6c0-2.2,0.7-4.3,1.9-6
								c0.6-0.8,1.3-1.6,2.1-2.2c0.8-0.6,1.6-1.1,2.5-1.4c1.8-0.7,3.6-0.7,5.3-0.4c1.6,0.3,3.1,1.1,4.2,2c2.2,1.8,3.1,4.1,3.5,5.6
								C384.6,456,384.5,456.9,384.5,456.9z"/>
						</g>
					</g>
				</g>
			</g>
			<path class="st1" d="M462.9,233.5L462.9,233.5c-2,0-3.5-1.6-3.5-3.5v-44.5c0-1.9,1.6-3.5,3.5-3.5l0,0c2,0,3.5,1.6,3.5,3.5V230
				C466.4,232,464.8,233.5,462.9,233.5z"/>
			<path class="st1" d="M462.9,278.6L462.9,278.6c-2,0-3.5-1.6-3.5-3.5v-25c0-1.9,1.6-3.5,3.5-3.5l0,0c2,0,3.5,1.6,3.5,3.5v25
				C466.4,277,464.8,278.6,462.9,278.6z"/>
		</g>
		<g>
			<g>
				<path class="st0" d="M302.8,202.4h140.7v153.7H302.8V202.4z"/>
				<g>
					<g>
						<path class="st1" d="M443.5,356.1c0,0,0-0.3,0-0.7c0-0.5,0-1.2,0-2.1c0-1.9,0-4.7,0-8.3c0-7.2,0-17.9-0.1-31.3
							c0-26.9-0.1-65.3-0.1-111.2l0.2,0.2c-41.2,0-89.4,0-140.7,0h0l0.3-0.3c0,56.5,0,109.4,0,153.7l-0.2-0.2
							c42.3,0,77.4,0.1,102,0.1c12.3,0,22,0,28.5,0.1c3.3,0,5.8,0,7.5,0S443.5,356.1,443.5,356.1s-0.9,0-2.5,0c-1.7,0-4.2,0-7.5,0
							c-6.6,0-16.2,0-28.5,0.1c-24.6,0-59.8,0.1-102.1,0.1c-0.1,0-0.2-0.1-0.2-0.2l0,0c0-44.3,0-97.2,0-153.7c0-0.1,0.1-0.3,0.3-0.3
							l0,0h0c51.3,0,99.4,0,140.7,0c0.1,0,0.2,0.1,0.2,0.2l0,0c0,46-0.1,84.4-0.1,111.4c0,13.5,0,24-0.1,31.3c0,3.6,0,6.4,0,8.2
							c0,0.9,0,1.6,0,2.1C443.5,355.8,443.5,356.1,443.5,356.1z"/>
					</g>
				</g>
			</g>
			<g>
				<path class="st0" d="M334.9,338.1c1.2-1.4,2.9-1.8,4.7-1.9c1.4-0.1,2.9,0.1,4.1,0.8c1.7,1.1,2.4,3.4,1.9,5.3s-2.3,3.6-4.3,4
					h-0.2c0.3,1.1,1,2.1,1.9,2.9c-1.5,0.1-3-1.1-3.3-2.7c-2,0.4-4-0.5-5.3-2.1C333.1,342.9,333,340.4,334.9,338.1z"/>
				<g>
					<g>
						<path class="st1" d="M334.9,338.1c0,0-0.2,0.3-0.5,0.8s-0.7,1.3-0.8,2.5c-0.1,1.1,0.3,2.5,1.5,3.5c1.1,1,2.8,1.8,4.6,1.5
							c0.1,0,0.3,0.1,0.3,0.2v0c0.2,1.3,1.5,2.5,3,2.4l-0.1,0.5c-0.9-0.7-1.7-1.8-2-3c0-0.1,0-0.3,0.2-0.3c0,0,0,0,0.1,0
							c0,0,0.1,0,0.2,0l0,0c0.1,0,0.2,0,0.2-0.1c2.7-0.7,4.6-3.6,3.9-6c-0.3-1.2-1-2.2-1.9-2.8c-0.9-0.6-2-0.8-2.9-0.8
							c-1.9-0.1-3.5,0.2-4.4,0.7C335.3,337.7,334.9,338.2,334.9,338.1c0,0,0.1-0.1,0.3-0.4c0.2-0.2,0.5-0.5,1-0.8
							c0.9-0.6,2.5-1,4.5-0.9c1,0,2.1,0.2,3.1,0.8s1.8,1.8,2.1,3c0.3,1.3,0.1,2.8-0.7,4c-0.8,1.2-2,2.2-3.5,2.6
							c-0.1,0-0.2,0-0.3,0.1c0,0,0,0,0,0h0c-0.1,0-0.1,0-0.2,0l0.3-0.3c0.3,1.1,1,2.1,1.8,2.7c0.1,0.1,0.1,0.2,0,0.4
							c0,0.1-0.1,0.1-0.2,0.1c-1.8,0.1-3.3-1.3-3.5-2.9l0.3,0.2c-2,0.3-3.8-0.5-5-1.6c-1.2-1.1-1.6-2.6-1.5-3.8
							c0.1-1.2,0.6-2,0.9-2.5c0.2-0.3,0.3-0.4,0.4-0.5C334.8,338.2,334.9,338.1,334.9,338.1z"/>
					</g>
				</g>
			</g>
			<path class="st3" d="M302.8,229.5h140.7V309H302.8V229.5z"/>
			<path class="st4" d="M324.7,216.5c0,3.4-2.8,6.3-6.3,6.3s-6.3-2.8-6.3-6.3s2.8-6.3,6.3-6.3S324.7,213,324.7,216.5z"/>
			<g>
				<g>
					<g>
						<path class="st1" d="M403.4,214.6c0,0.1-14.9,0.3-33.4,0.3c-18.4,0-33.4-0.1-33.4-0.3s14.9-0.3,33.4-0.3
							C388.5,214.3,403.4,214.4,403.4,214.6z"/>
					</g>
				</g>
			</g>
			<g>
				<g>
					<g>
						<path class="st1" d="M433.7,317.6c0,0.1-27.6,0.3-61.7,0.3c-34.1,0-61.7-0.1-61.7-0.3s27.6-0.3,61.7-0.3
							C406,317.3,433.7,317.4,433.7,317.6z"/>
					</g>
				</g>
			</g>
			<g>
				<g>
					<g>
						<path class="st1" d="M382.8,325.7c0,0.1-16.3,0.3-36.3,0.3c-20,0-36.3-0.1-36.3-0.3s16.2-0.3,36.3-0.3
							C366.5,325.5,382.8,325.6,382.8,325.7z"/>
					</g>
				</g>
			</g>
			<g>
				<path class="st5" d="M317,337.1c1.3,0.2,2.3,1.5,2.4,2.7c0.1-1.1,0.9-2.1,2.2-2.6c1.6-0.6,3.6,1,3.7,2.9c0.1,1.5-0.7,3-1.5,4.2
					c-1.3,2-4.7,4.3-4.7,4.3c0.3,0-2.9-2.3-4.2-4.3c-0.8-1.2-1.6-2.7-1.5-4.2C313.6,338.2,315.4,336.8,317,337.1z"/>
			</g>
			<g>
				<path class="st4" d="M404.3,253.3c-12.9,1.7-20,7.7-27.6,18.9c-4.5,6.6-10.6,22.6-18.5,25c-6.6,2-15.8-7.6-23.5-10
					c-11-3.5-24.6,3.7-31.9,12.1l-0.1,9.7l140.7,1.2V263C433.4,255.3,417.2,251.6,404.3,253.3z"/>
			</g>
			<ellipse class="st4" cx="343.7" cy="256" rx="13.6" ry="13.6"/>
		</g>
		<g>
			<g>
				<g>
					<g>
						<path class="st1" d="M440.6,182.5c0,0.1-2.5,0.3-5.6,0.3s-5.6-0.1-5.6-0.3s2.5-0.3,5.6-0.3
							C438.1,182.3,440.6,182.4,440.6,182.5z"/>
					</g>
				</g>
			</g>
			<g>
				<g>
					<g>
						<path class="st1" d="M440.6,186.9c0,0.1-2.5,0.3-5.6,0.3s-5.6-0.1-5.6-0.3s2.5-0.3,5.6-0.3
							C438.1,186.6,440.6,186.7,440.6,186.9z"/>
					</g>
				</g>
			</g>
			<g>
				<g>
					<g>
						<path class="st1" d="M440.6,191.2c0,0.1-2.5,0.3-5.6,0.3s-5.6-0.1-5.6-0.3s2.5-0.3,5.6-0.3C438.1,191,440.6,191.1,440.6,191.2
							z"/>
					</g>
				</g>
			</g>
		</g>
		<g>
			<path class="st0" d="M302.9,365.9h140.7v58.2H302.9V365.9z"/>
			<g>
				<g>
					<path class="st1" d="M443.6,424.1c0,0,0-0.4,0-1c0-0.7,0-1.7,0-3c0-2.7,0-6.6,0-11.6c0-10-0.1-24.6-0.1-42.5l0.2,0.2
						c-36,0-85.7,0-140.7,0.1h0l0.3-0.3c0,20.4,0,40,0,58.2l-0.3-0.3c40.8,0,75.9,0.1,100.9,0.1c12.5,0,22.4,0,29.3,0.1
						c3.4,0,6,0,7.8,0c0.9,0,1.6,0,2,0C443.3,424.1,443.6,424.1,443.6,424.1s-0.2,0-0.7,0c-0.5,0-1.1,0-2,0c-1.8,0-4.4,0-7.8,0
						c-6.8,0-16.7,0-29.2,0.1c-25,0-60.2,0.1-101.1,0.1c-0.1,0-0.3-0.1-0.3-0.3l0,0c0-18.1,0-37.8,0-58.2c0-0.1,0.1-0.3,0.3-0.3l0,0
						h0c55,0,104.7,0.1,140.7,0.1c0.1,0,0.2,0.1,0.2,0.2l0,0c0,18-0.1,32.5-0.1,42.6c0,5,0,8.9,0,11.5c0,1.3,0,2.3,0,3
						C443.6,423.8,443.6,424.1,443.6,424.1z"/>
				</g>
			</g>
		</g>
		<g>
			<g>
				<path class="st6" d="M347.2,416.9H317c-3.8,0-6.8-3-6.8-6.8v-28.6c0-3.5,2.9-6.4,6.4-6.4h30.6c3.5,0,6.4,2.9,6.4,6.4v29
					C353.6,414,350.7,416.9,347.2,416.9z"/>
			</g>
			<g>
				<path class="st7" d="M353.6,392c-3.1-2.6-7.9-3.5-11.9-3s-6.2,2.6-8.6,6.3c-1.4,2.2-3.3,7.5-5.8,8.3c-2.1,0.7-4.9-2.5-7.3-3.3
					c-3.4-1.2-7.4,1-9.7,3.8v6c0,3.8,3.1,6.8,6.8,6.8h29.5c3.8,0,7.2-2.5,6.8-7L353.6,392z"/>
			</g>
			<path class="st7" d="M326.6,386.3c0,2.9-2.4,5.3-5.3,5.3s-5.3-2.4-5.3-5.3s2.4-5.3,5.3-5.3S326.6,383.4,326.6,386.3z"/>
		</g>
		<g>
			<g>
				<g>
					<path class="st1" d="M430.9,382c0,0.1-16,0.3-35.6,0.3c-19.7,0-35.6-0.1-35.6-0.3s16-0.3,35.6-0.3
						C415,381.8,430.9,381.9,430.9,382z"/>
				</g>
			</g>
		</g>
		<g>
			<g>
				<g>
					<path class="st1" d="M429.6,390.4c0,0.1-15.7,0.3-35,0.3c-19.3,0-35-0.1-35-0.3s15.7-0.3,35-0.3
						C414,390.1,429.6,390.3,429.6,390.4z"/>
				</g>
			</g>
		</g>
		<g>
			<path class="st0" d="M422.4,403.9c1.2-1.4,2.9-1.8,4.7-1.9c1.4-0.1,2.9,0.1,4.1,0.8c1.7,1.1,2.4,3.4,1.9,5.3s-2.3,3.5-4.3,4h-0.2
				c0.3,1.1,1,2.1,1.9,2.8c-1.5,0.1-3-1.1-3.3-2.6c-2,0.4-4-0.5-5.3-2.1C420.7,408.6,420.6,406.1,422.4,403.9z"/>
			<g>
				<g>
					<path class="st1" d="M422.4,403.9c0,0-0.2,0.3-0.5,0.8c-0.3,0.5-0.7,1.3-0.8,2.4c-0.1,1.1,0.3,2.5,1.5,3.5
						c1.1,1,2.8,1.8,4.6,1.5c0.1,0,0.3,0.1,0.3,0.2v0c0.2,1.3,1.5,2.5,3,2.4l-0.1,0.5c-0.9-0.7-1.7-1.8-2-3c0-0.1,0-0.3,0.2-0.3
						c0,0,0,0,0.1,0c0,0,0.1,0,0.2,0l0,0c0.1,0,0.2,0,0.2-0.1c2.7-0.7,4.5-3.6,3.9-6c-0.3-1.2-1-2.2-1.9-2.8c-0.9-0.6-2-0.8-2.9-0.8
						c-1.9-0.1-3.5,0.2-4.4,0.7C422.8,403.4,422.5,403.9,422.4,403.9c0,0,0.1-0.1,0.3-0.4c0.2-0.2,0.5-0.5,1-0.8
						c0.9-0.6,2.5-1,4.5-0.9c1,0,2.1,0.2,3.1,0.8s1.8,1.7,2.1,3c0.3,1.3,0.1,2.8-0.7,4c-0.8,1.2-2,2.2-3.5,2.6c-0.1,0-0.2,0-0.3,0.1
						c0,0,0,0,0,0h0c-0.1,0-0.1,0-0.2,0l0.3-0.3c0.3,1.1,1,2.1,1.8,2.7c0.1,0.1,0.1,0.2,0,0.4c0,0.1-0.1,0.1-0.2,0.1
						c-1.8,0.1-3.3-1.3-3.5-2.9l0.3,0.2c-2,0.3-3.8-0.5-4.9-1.6c-1.2-1.1-1.6-2.6-1.5-3.8c0.1-1.2,0.6-2,0.9-2.5
						c0.2-0.3,0.3-0.4,0.4-0.5C422.4,403.9,422.4,403.9,422.4,403.9z"/>
				</g>
			</g>
		</g>
		<g>
			<path class="st0" d="M404.7,402.9c1.3,0.2,2.2,1.5,2.4,2.7c0.1-1.1,0.9-2.1,2.2-2.6c1.6-0.6,3.5,1,3.7,2.9
				c0.1,1.5-0.7,2.9-1.5,4.2c-1.3,1.9-4.7,4.2-4.7,4.2c0.3,0-2.9-2.3-4.1-4.2c-0.8-1.2-1.6-2.6-1.5-4.2
				C401.3,403.9,403,402.6,404.7,402.9z"/>
			<g>
				<g>
					<path class="st1" d="M404.7,402.9c0,0-0.4-0.1-1.2,0.1c-0.7,0.2-1.7,0.9-2.1,2.2c-0.2,0.6-0.1,1.4,0.1,2.2
						c0.2,0.8,0.7,1.5,1.2,2.3c0.5,0.8,1.2,1.5,1.9,2.2c0.4,0.4,0.8,0.7,1.2,1.1c0.2,0.2,0.4,0.4,0.6,0.5l0.3,0.3l0.2,0.1l0.1,0.1
						c0,0,0,0,0.1,0.1c0-0.1,0.2,0.4-0.2,0.4c-0.1,0-0.3-0.1-0.3-0.2c0-0.1,0-0.2,0.1-0.2l0,0c1-0.7,2.1-1.5,3.1-2.5
						c0.6-0.5,1.1-1.1,1.5-1.8c0.4-0.7,0.8-1.3,1.1-2s0.4-1.4,0.4-2c-0.1-0.7-0.4-1.3-0.8-1.8c-0.4-0.5-0.9-0.8-1.5-1
						c-0.6-0.1-1.1,0-1.6,0.3c-1,0.5-1.6,1.4-1.7,2.2c0,0.1-0.1,0.1-0.2,0.1c-0.1,0-0.1-0.1-0.1-0.1c-0.1-1.1-0.8-1.9-1.3-2.2
						C405.1,402.9,404.7,402.9,404.7,402.9c0,0,0.1,0,0.3,0c0.2,0,0.4,0.1,0.7,0.3c0.5,0.3,1.4,1.1,1.5,2.4h-0.3
						c0.1-0.9,0.7-2,1.8-2.5c0.3-0.1,0.5-0.3,0.9-0.4c0.3-0.1,0.7-0.1,1,0c0.7,0.1,1.3,0.5,1.8,1.1c0.5,0.5,0.8,1.3,0.9,2
						c0.1,0.8-0.1,1.6-0.4,2.3c-0.3,0.7-0.7,1.4-1.1,2.1c-0.5,0.7-1,1.3-1.6,1.9c-1,0.9-2.1,1.8-3.1,2.5l-0.1-0.3c0,0,0,0,0,0
						c0,0-0.1,0-0.1,0.1c-0.1,0.1,0,0,0,0l-0.1-0.1l-0.1-0.1l-0.3-0.3c-0.2-0.2-0.4-0.4-0.6-0.5c-0.4-0.4-0.8-0.7-1.2-1.1
						c-0.8-0.7-1.4-1.5-2-2.3c-0.5-0.8-0.9-1.6-1.2-2.5c-0.2-0.8-0.2-1.7,0-2.4c0.5-1.4,1.6-2.1,2.4-2.3c0.4-0.1,0.7-0.1,0.9,0
						C404.6,402.8,404.7,402.9,404.7,402.9z"/>
				</g>
			</g>
		</g>
		<path class="st8" d="M304.5,178.6H316v11.5h-11.5V178.6z"/>
	</g>
	<g>
		<g>
			<g>
				<g>
					<path class="st9" d="M646.7,284.3c0,0,0-0.3,0.1-0.9c0-0.7,0-1.5,0.1-2.5c0-2.4,0.1-5.6,0.2-9.6c0.1-8.4,0.2-20.1,0.3-34.4
						l-0.5,0.6c4.5-1.1,9.7-2.1,14.4-4.9c2.3-1.4,4.6-3.6,5.2-6.7c0.6-3-0.1-5.9,0.1-8.6c0-1.4,0.3-2.7,1.2-3.6
						c0.8-0.9,2.1-1.6,3.4-1.8c2.7-0.5,5.5,1,7.2,3.3c1.7,2.3,2.3,5.4,2.5,8.4c0.2,3.1-0.1,6.3-0.5,9.4l-0.2,1.2l1.1-0.3
						c1.8-0.4,3.8-0.9,5.7-1.2c2.4-0.4,4.7-0.5,7-0.2c2.3,0.3,4.5,1.1,6.1,2.5c3.3,2.8,4.9,8.1,2,11.2l-0.6,0.7l0.8,0.5
						c4,2.6,4.1,9.4,0.6,12.1l-0.7,0.6l0.7,0.6c2.2,1.9,3.1,5.1,2.4,7.8c-0.7,2.7-3,4.8-5.6,5.4l-1.1,0.3l0.8,0.9
						c1.2,1.4,0.8,3.8-0.4,5.3c-1.2,1.5-3.2,2.3-5.1,2.7c-3.9,0.7-7.9,0.9-11.5,1c-7.3,0.3-13.7,0.3-19,0.3c-5.1,0-9.2,0-12.2,0
						C648.2,284.1,646.8,284.2,646.7,284.3c-0.1,0,1.5,0.2,4.3,0.3c2.8,0.1,7,0.3,12.2,0.4c5.3,0.1,11.7,0.2,19,0
						c3.7-0.1,7.6-0.2,11.7-0.9c2.1-0.4,4.3-1.2,5.9-3.1c1.4-1.8,2.2-4.8,0.4-7l-0.4,1.1c3.1-0.7,5.7-3.1,6.7-6.4
						c0.9-3.2-0.1-7-2.8-9.3l0,1.2c4.4-3.5,4.3-11.2-0.7-14.6l0.2,1.2c1.8-1.9,2.3-4.7,1.7-7.1c-0.6-2.4-1.9-4.6-3.8-6.3
						c-4-3.4-9.6-3.4-14.4-2.7c-2,0.3-4,0.8-5.9,1.2l1,0.9c0.4-3.3,0.7-6.5,0.5-9.8c-0.2-3.2-0.8-6.6-2.8-9.3
						c-2-2.6-5.3-4.4-8.7-3.8c-1.7,0.3-3.2,1.1-4.3,2.4c-1.1,1.3-1.4,3.1-1.5,4.6c-0.1,3,0.6,5.9,0,8.4c-0.5,2.5-2.4,4.4-4.5,5.8
						c-4.4,2.7-9.4,3.7-14,4.9l-0.5,0.1v0.5c0.1,14.4,0.3,26.3,0.3,34.8c0.1,4,0.1,7.1,0.2,9.4C646.6,283.2,646.7,284.3,646.7,284.3
						z"/>
				</g>
			</g>
			<path class="st9" d="M642.6,288.8h-17.4c-0.8,0-1.5-0.7-1.5-1.5v-55.6c0-0.9,0.7-1.5,1.5-1.5h17.4c0.8,0,1.5,0.7,1.5,1.5v55.6
				C644.1,288.1,643.4,288.8,642.6,288.8z"/>
			<path class="st0" d="M636.7,240.4c0,1.9-1.5,3.4-3.4,3.4c-1.9,0-3.4-1.5-3.4-3.4s1.5-3.4,3.4-3.4
				C635.2,237,636.7,238.6,636.7,240.4z"/>
			<g>
				<path class="st9" d="M703.2,247.6c0.3-0.3-2.5-2.7-6.8-3c-4.3-0.3-7.4,1.6-7.2,2c0.2,0.4,3.2-0.7,7.1-0.4
					C700.1,246.4,702.9,248,703.2,247.6z"/>
			</g>
			<g>
				<path class="st9" d="M703.9,260.4c0.2-0.4-2.1-1.6-5.2-1.5c-3.1,0.1-5.3,1.4-5.2,1.8c0.2,0.4,2.4-0.1,5.2-0.1
					C701.4,260.4,703.7,260.8,703.9,260.4z"/>
			</g>
			<g>
				<path class="st9" d="M702.2,274.5c0.2-0.4-1.9-1.8-4.9-1.7c-3,0-5,1.4-4.8,1.8c0.2,0.4,2.3-0.2,4.8-0.2
					C699.9,274.3,702,274.9,702.2,274.5z"/>
			</g>
		</g>
	</g>
	<g id="XMLID_13_">
		<path id="XMLID_20_" class="st5" d="M485.7,142.2L485.7,142.2c-17,0-30.7-13.8-30.7-30.7l0,0c0-17,13.8-30.7,30.7-30.7l0,0
			c17,0,30.7,13.8,30.7,30.7l0,0C516.4,128.5,502.7,142.2,485.7,142.2z"/>
		<path id="XMLID_15_" class="st0" d="M475.9,114.3c0.5,0.2,0.9,0,1-0.5c0.1-0.4,0.3-1.3,0.4-1.7c0.1-0.5,0.1-0.7-0.3-1.2
			c-0.8-1-1.4-2.3-1.4-4.1c0-5.3,4-10,10.3-10c5.6,0,8.7,3.4,8.7,8c0,6.1-2.7,11.2-6.6,11.2c-2.2,0-3.8-1.8-3.3-4
			c0.6-2.7,1.9-5.5,1.9-7.4c0-1.7-0.9-3.2-2.8-3.2c-2.2,0-4,2.3-4,5.4c0,2,0.7,3.3,0.7,3.3s-2.3,9.7-2.7,11.4
			c-0.8,3.4-0.1,7.6-0.1,8c0,0.3,0.4,0.3,0.5,0.1c0.2-0.3,2.9-3.6,3.8-6.9c0.3-0.9,1.5-5.8,1.5-5.8c0.7,1.4,2.9,2.6,5.1,2.6
			c6.7,0,11.3-6.2,11.3-14.4c0-6.2-5.3-12-13.3-12c-10,0-15,7.1-15,13.1C471.6,109.9,472.9,113.1,475.9,114.3z"/>
	</g>
	<g>
		<g>
			<path class="st10" d="M248.3,142.4"/>
		</g>
	</g>
	<g>
		<g>
			<path class="st0" d="M356.2,58.8c6.9-0.2,19.5,1.2,24.7,6.4s7.1,13.6,4.6,20.5s-9.2,12.2-16.6,13c1.4,4.4,4.4,8.3,8.2,11
				c-6.1,0.7-12.4-3.8-13.6-9.9c-9.4,0.5-19.1,1-27.8-2.8c-8.6-3.7-15.6-13-13.5-22.2c1.5-6.6,7.4-11.5,13.8-13.7
				C342.5,58.8,349.4,58.8,356.2,58.8"/>
			<g>
				<g>
					<path class="st1" d="M356.2,58.8c0,0-0.2,0-0.5,0c-0.4,0-0.8,0-1.5,0c-1.3,0-3.2,0.1-5.6,0.2c-2.4,0.2-5.4,0.4-8.8,1.2
						c-3.4,0.8-7.1,2.2-10.6,4.8c-1.7,1.3-3.3,2.9-4.6,4.9c-0.6,1-1.2,2.1-1.6,3.2c-0.2,0.6-0.4,1.2-0.5,1.8
						c-0.1,0.6-0.2,1.2-0.3,1.9c-0.2,2.5,0.2,5.2,1.2,7.7c1,2.5,2.7,4.8,4.6,6.9c2,2.1,4.4,3.8,7.1,5.1c2.7,1.3,5.7,2.1,8.8,2.7
						c6.2,1,12.8,0.8,19.5,0.4c0.1,0,0.2,0.1,0.3,0.2v0c0.2,0.9,0.5,1.8,0.9,2.7c2.3,4.6,7.5,7.5,12.4,7l-0.1,0.5
						c-4-2.8-6.9-6.8-8.3-11.1c0-0.1,0-0.3,0.2-0.3c0,0,0,0,0,0c5-0.5,9.6-3.1,12.6-6.6c3.1-3.5,4.8-7.9,4.8-12.1
						c0.2-8.5-4.9-15.7-10.8-17.7c-2.9-1.2-5.6-1.8-8-2.3c-2.4-0.4-4.5-0.7-6.2-0.8c-1.7-0.1-3-0.2-3.9-0.2c-0.4,0-0.8,0-1,0
						C356.3,58.8,356.2,58.8,356.2,58.8c0,0,1.9-0.2,5.3,0.1c1.7,0.1,3.8,0.3,6.2,0.7c2.4,0.4,5.2,1,8.1,2.2c6,2,11.2,9.4,11.1,18
						c0,4.3-1.7,8.9-4.9,12.4c-3.1,3.6-7.8,6.2-12.9,6.8l0.2-0.3c1.4,4.2,4.2,8.1,8.1,10.8c0.1,0.1,0.1,0.2,0.1,0.4
						c0,0.1-0.1,0.1-0.2,0.1c-5.1,0.6-10.5-2.4-12.9-7.2c-0.5-0.9-0.8-1.9-1-2.8l0.3,0.2c-6.7,0.4-13.3,0.7-19.6-0.4
						c-3.1-0.6-6.2-1.4-8.9-2.7c-2.8-1.3-5.2-3.1-7.3-5.2s-3.7-4.5-4.7-7.1c-1-2.6-1.5-5.3-1.2-7.9c0.1-0.7,0.2-1.3,0.3-1.9
						c0.2-0.6,0.3-1.2,0.5-1.8c0.4-1.2,1-2.3,1.7-3.3c1.3-2,3-3.7,4.7-5c3.5-2.7,7.4-4.1,10.7-4.8c3.4-0.8,6.4-1,8.8-1.1
						c2.4-0.1,4.3-0.1,5.6-0.1c0.6,0,1.1,0,1.5,0C356,58.7,356.2,58.8,356.2,58.8z"/>
				</g>
			</g>
		</g>
		<g>
			<g>
				<path class="st10" d="M360.5,81.3"/>
			</g>
		</g>
		<g>
			<path class="st5" d="M349,65.2c3.1,0.5,5.5,3.7,5.7,6.5c0.3-2.7,2.1-5.1,5.4-6.3c3.9-1.5,8.6,2.4,9,7.1c0.3,3.7-1.7,7.2-3.6,10.2
				c-3.1,4.7-11.4,10.3-11.4,10.3c0.7,0-7-5.6-10-10.3c-2-3-3.9-6.4-3.6-10.2C340.7,67.7,344.9,64.5,349,65.2z"/>
		</g>
		<g>
			<g>
				<path class="st10" d="M366.5,94.3"/>
			</g>
		</g>
	</g>
	<g id="XMLID_14_">
		<path id="XMLID_36_" class="st8" d="M577,275.6L577,275.6c-11.8,0-21.3-9.5-21.3-21.3l0,0c0-11.8,9.5-21.3,21.3-21.3l0,0
			c11.8,0,21.3,9.5,21.3,21.3l0,0C598.3,266.1,588.8,275.6,577,275.6z"/>
		<g id="XMLID_16_">
			<path id="XMLID_30_" class="st0" d="M577,244.7c3.1,0,3.5,0,4.7,0.1c1.1,0.1,1.8,0.2,2.2,0.4c0.5,0.2,0.9,0.5,1.3,0.9
				c0.4,0.4,0.7,0.8,0.9,1.3c0.2,0.4,0.3,1,0.4,2.2c0.1,1.2,0.1,1.6,0.1,4.7s0,3.5-0.1,4.7c0,1.1-0.2,1.8-0.4,2.2
				c-0.2,0.5-0.5,0.9-0.9,1.3c-0.4,0.4-0.8,0.7-1.3,0.9c-0.4,0.2-1,0.4-2.2,0.4c-1.2,0.1-1.6,0.1-4.7,0.1s-3.5,0-4.7-0.1
				c-1.1,0-1.8-0.2-2.2-0.4c-0.5-0.2-0.9-0.5-1.3-0.9c-0.4-0.4-0.7-0.8-0.9-1.3c-0.2-0.4-0.3-1-0.4-2.2c-0.1-1.2-0.1-1.6-0.1-4.7
				s0-3.5,0.1-4.7c0-1.1,0.2-1.8,0.4-2.2c0.2-0.6,0.5-0.9,0.9-1.3c0.4-0.4,0.8-0.7,1.3-0.9c0.4-0.2,1-0.4,2.2-0.4
				C573.5,244.7,573.9,244.7,577,244.7 M577,242.6c-3.2,0-3.6,0-4.8,0.1c-1.2,0.1-2.1,0.3-2.8,0.5c-0.8,0.3-1.4,0.7-2.1,1.4
				c-0.7,0.6-1,1.3-1.3,2.1c-0.3,0.7-0.5,1.6-0.5,2.8c-0.1,1.3-0.1,1.6-0.1,4.8c0,3.2,0,3.6,0.1,4.8c0.1,1.2,0.3,2.1,0.5,2.8
				c0.3,0.8,0.7,1.4,1.3,2.1c0.7,0.6,1.3,1,2.1,1.4c0.7,0.3,1.6,0.5,2.8,0.5c1.3,0.1,1.6,0.1,4.8,0.1c3.2,0,3.6,0,4.8-0.1
				c1.2-0.1,2.1-0.3,2.8-0.5c0.8-0.3,1.4-0.7,2.1-1.4s1-1.3,1.3-2.1c0.3-0.7,0.5-1.6,0.5-2.8c0.1-1.3,0.1-1.6,0.1-4.8s0-3.6-0.1-4.8
				c-0.1-1.2-0.3-2.1-0.5-2.8c-0.3-0.8-0.7-1.4-1.3-2.1c-0.7-0.6-1.3-1.1-2.1-1.4c-0.7-0.3-1.6-0.5-2.8-0.5
				C580.5,242.6,580.2,242.6,577,242.6"/>
			<path id="XMLID_18_" class="st0" d="M577,248.3c-3.3,0-6,2.7-6,6c0,3.3,2.7,6,6,6s6-2.7,6-6S580.3,248.3,577,248.3 M577,258.2
				c-2.2,0-3.9-1.7-3.9-3.9c0-2.1,1.7-3.9,3.9-3.9c2.2,0,3.9,1.7,3.9,3.9C580.9,256.5,579.1,258.2,577,258.2"/>
			<path id="XMLID_17_" class="st0" d="M584.6,248.1c0,0.8-0.6,1.4-1.4,1.4s-1.4-0.6-1.4-1.4c0-0.8,0.6-1.4,1.4-1.4
				C584,246.6,584.6,247.3,584.6,248.1"/>
		</g>
	</g>
	<g>
		<g>
			<path class="st0" d="M517.3,181.6c-7.9-0.2-22.4,1.4-28.5,7.4c-6,6-8.2,15.6-5.3,23.6c2.9,8,10.6,14.1,19.1,14.9
				c-1.7,5.1-5,9.6-9.5,12.6c7,0.8,14.2-4.4,15.6-11.3c10.8,0.6,22,1.1,31.9-3.2c9.9-4.3,18-15,15.5-25.5
				c-1.8-7.6-8.5-13.2-15.9-15.8S525,181.6,517.3,181.6"/>
			<g>
				<g>
					<path class="st1" d="M517.3,181.6c0,0,0.2,0,0.6,0c0.4,0,1,0,1.7,0c1.5,0,3.7,0,6.5,0.1c2.8,0.1,6.3,0.4,10.2,1.3
						c3.9,0.9,8.3,2.4,12.3,5.5c2,1.5,3.9,3.4,5.4,5.8c0.8,1.2,1.4,2.4,1.9,3.8c0.3,0.7,0.4,1.4,0.6,2.1c0.1,0.7,0.3,1.4,0.3,2.2
						c0.3,3-0.2,6.1-1.4,9.1c-1.2,3-3.1,5.7-5.4,8.1c-2.3,2.4-5.2,4.5-8.4,6c-3.2,1.5-6.7,2.5-10.3,3.1c-7.2,1.2-14.8,0.9-22.5,0.5
						l0.3-0.2c-0.3,1.1-0.6,2.2-1.1,3.2c-2.7,5.5-8.9,9-14.8,8.3l-0.7-0.1l0.6-0.4c4.5-3.1,7.8-7.6,9.4-12.5l0.2,0.3
						c-5.9-0.6-11.3-3.7-14.9-7.8c-3.7-4.1-5.6-9.3-5.6-14.3c-0.2-9.9,5.8-18.4,12.7-20.7c3.4-1.4,6.5-2.1,9.3-2.6
						c2.8-0.5,5.2-0.7,7.1-0.8C515.1,181.4,517.3,181.6,517.3,181.6s-0.1,0-0.4,0c-0.3,0-0.7,0-1.2,0c-1,0-2.5,0.1-4.5,0.2
						c-2,0.1-4.4,0.4-7.1,0.9c-2.8,0.5-5.9,1.3-9.2,2.6c-6.8,2.3-12.6,10.6-12.4,20.4c0,4.9,1.9,10,5.5,14c3.5,4,8.8,7,14.6,7.6
						l0.3,0l-0.1,0.3c-1.6,4.9-4.9,9.6-9.5,12.8l-0.1-0.5c5.6,0.6,11.7-2.7,14.3-8c0.5-1,0.8-2.1,1.1-3.1l0-0.2l0.2,0
						c7.7,0.4,15.3,0.8,22.4-0.4c3.6-0.6,7-1.6,10.2-3.1c3.1-1.5,5.9-3.5,8.2-5.9c2.3-2.4,4.2-5.1,5.3-7.9c1.2-2.9,1.7-5.9,1.4-8.9
						c-0.1-0.7-0.2-1.4-0.3-2.1c-0.2-0.7-0.3-1.4-0.6-2c-0.5-1.3-1.1-2.6-1.8-3.7c-1.5-2.3-3.3-4.2-5.3-5.7c-4-3.1-8.3-4.7-12.2-5.5
						c-3.9-0.9-7.3-1.1-10.1-1.3c-2.8-0.1-5-0.2-6.5-0.2c-0.7,0-1.3,0-1.7,0C517.5,181.6,517.3,181.6,517.3,181.6z"/>
				</g>
			</g>
		</g>
		<g>
			<g>
				<path class="st0" d="M523.1,212.2c-3.3,0.1-8.8,0.2-12.1-0.1c-0.8-0.1-1.5-0.2-2.1-0.6s-0.9-1.4-0.4-2c-0.8-0.2-1.5-0.9-1.7-1.7
					c-0.2-0.8,0.1-1.7,0.7-2.3c-1.1-0.9-1-2.9,0.2-3.7c-1.1-1.2-0.2-3.2,1.3-3.9c1.5-0.6,3.1-0.3,4.7,0.1c-0.2-1.4-0.3-3.4,0.3-4.6
					c0.6-1.3,2.1-1.9,3.3-1.1c1,0.7,0.5,2.2,0.6,3.5c0.3,2.4,4.1,2.9,5.3,3.3L523.1,212.2L523.1,212.2z"/>
				<g>
					<g>
						<path class="st4" d="M523.1,212.2c0,0,0-0.4,0-1c0-0.7,0-1.6,0-2.6c0-2.3-0.1-5.6-0.1-9.5l0.2,0.2c-1.3-0.3-2.7-0.6-4-1.4
							c-0.6-0.4-1.3-1-1.5-1.9c-0.2-0.8,0-1.6,0-2.4c0-0.4-0.1-0.7-0.3-1c-0.2-0.3-0.6-0.4-0.9-0.5c-0.7-0.1-1.5,0.3-1.9,0.9
							c-0.5,0.6-0.6,1.5-0.7,2.3c0,0.9,0,1.7,0.1,2.6l0,0.4l-0.4-0.1c-0.5-0.1-1-0.2-1.6-0.3c-1.3-0.2-2.7-0.2-3.6,0.6
							c-0.9,0.8-1.3,2.2-0.6,3l0.2,0.2l-0.3,0.2c-1.1,0.7-1.1,2.5-0.2,3.3l0.2,0.2l-0.2,0.2c-0.6,0.5-0.9,1.4-0.6,2.1
							c0.2,0.7,0.8,1.3,1.5,1.5l0.4,0.1l-0.3,0.3c-0.3,0.4-0.2,1,0.1,1.4c0.3,0.4,0.9,0.6,1.4,0.7c1.1,0.2,2.2,0.2,3.2,0.3
							c2,0.1,3.8,0.1,5.2,0.1c1.4,0,2.5,0,3.4,0C522.7,212.2,523.1,212.2,523.1,212.2s-0.4,0.1-1.2,0.1c-0.8,0-1.9,0.1-3.4,0.1
							c-1.5,0-3.2,0.1-5.2,0c-1,0-2.1-0.1-3.2-0.3c-0.6-0.1-1.2-0.3-1.6-0.9c-0.4-0.5-0.6-1.3-0.1-2l0.1,0.4
							c-0.9-0.2-1.6-0.9-1.9-1.8c-0.3-0.9,0-1.9,0.8-2.6l0,0.4c-1.2-1-1.2-3.1,0.2-4.1l0,0.4c-0.5-0.5-0.6-1.3-0.5-2
							c0.2-0.7,0.5-1.3,1.1-1.8c1.1-0.9,2.7-1,4-0.8c0.6,0.1,1.1,0.2,1.6,0.3l-0.3,0.3c-0.1-0.9-0.2-1.8-0.1-2.7
							c0.1-0.9,0.2-1.8,0.8-2.6c0.5-0.7,1.5-1.2,2.4-1.1c0.5,0.1,0.9,0.3,1.2,0.7s0.4,0.9,0.4,1.3c0,0.8-0.2,1.6,0,2.3
							c0.1,0.7,0.7,1.2,1.2,1.6c1.2,0.8,2.6,1,3.8,1.4l0.2,0v0.2c0,4-0.1,7.3-0.1,9.6c0,1.1,0,1.9,0,2.6
							C523.2,211.9,523.2,212.2,523.1,212.2z"/>
					</g>
				</g>
			</g>
			<path class="st4" d="M525.4,213.4h2.6c0.8,0,1.5-0.7,1.5-1.5v-13.1c0-0.9-0.7-1.5-1.5-1.5h-2.6c-0.8,0-1.5,0.7-1.5,1.5v13.1
				C523.9,212.8,524.5,213.4,525.4,213.4z"/>
			<circle class="st0" cx="526.8" cy="200.1" r="0.9"/>
			<g>
				<g>
					<g>
						<path class="st4" d="M507.6,202.1c-0.1-0.1,0.7-0.8,1.9-0.9c1.2-0.1,2.1,0.5,2,0.6c-0.1,0.1-0.9-0.1-2-0.1
							C508.4,201.8,507.6,202.2,507.6,202.1z"/>
					</g>
				</g>
			</g>
			<g>
				<g>
					<g>
						<path class="st4" d="M507.4,205.6c0-0.1,0.6-0.5,1.5-0.4c0.9,0,1.5,0.4,1.4,0.5c0,0.1-0.7,0-1.4,0
							C508.1,205.7,507.4,205.8,507.4,205.6z"/>
					</g>
				</g>
			</g>
			<g>
				<g>
					<g>
						<path class="st4" d="M508.5,209.5c0-0.1,0.3-0.5,1-0.5c0.7,0.1,1,0.4,1,0.5c0,0.1-0.5,0-1,0
							C509.1,209.5,508.6,209.6,508.5,209.5z"/>
					</g>
				</g>
			</g>
		</g>
	</g>
	<g>
		<g>
			<path class="st0" d="M228.3,179.5c6.9,0.2,19.4,2.3,24.3,7.8c4.9,5.5,6.4,13.9,3.5,20.8c-2.9,6.8-9.9,11.7-17.3,12
				c1.2,4.5,3.9,8.6,7.6,11.4c-6.1,0.4-12.1-4.5-13-10.6c-9.4,0-19.2-0.1-27.6-4.3c-8.4-4.2-14.9-13.9-12.2-22.9
				c1.9-6.5,8-11.1,14.5-13S221.5,179.1,228.3,179.5"/>
			<g>
				<g>
					<path class="st1" d="M228.3,179.5c0,0-0.2,0-0.5,0c-0.4,0-0.8,0-1.5-0.1c-1.3,0-3.2-0.1-5.6-0.1c-2.4,0-5.4,0.1-8.8,0.7
						c-3.4,0.6-7.2,1.8-10.8,4.2c-1.8,1.2-3.5,2.8-4.9,4.7c-0.7,0.9-1.3,2-1.8,3.1c-0.3,0.6-0.4,1.1-0.6,1.7
						c-0.1,0.6-0.3,1.2-0.4,1.8c-0.4,2.5-0.1,5.2,0.8,7.8c0.9,2.6,2.4,5,4.3,7.1c1.9,2.2,4.2,4.1,6.9,5.5c2.6,1.4,5.6,2.4,8.6,3.1
						c6.1,1.4,12.7,1.5,19.4,1.5h0.2l0,0.2c0.2,0.9,0.4,1.9,0.8,2.7c2,4.8,7.1,7.9,12,7.6l-0.1,0.5c-3.9-3-6.5-7.2-7.7-11.5
						l-0.1-0.3l0.3,0c5.1-0.3,9.7-2.6,13-5.9c3.3-3.3,5.2-7.6,5.5-11.8c0.6-8.4-4-15.9-9.8-18.3c-2.8-1.3-5.5-2.1-7.9-2.7
						c-2.4-0.6-4.4-0.9-6.1-1.1c-1.7-0.2-3-0.3-3.9-0.4c-0.4,0-0.8-0.1-1-0.1C228.4,179.5,228.3,179.5,228.3,179.5
						c0,0,1.9-0.1,5.2,0.4c1.7,0.2,3.8,0.5,6.2,1.1s5.1,1.3,7.9,2.7c5.9,2.3,10.7,10,10.1,18.6c-0.3,4.3-2.2,8.8-5.6,12.1
						c-3.3,3.4-8.1,5.8-13.3,6l0.2-0.3c1.1,4.3,3.8,8.4,7.5,11.3l0.6,0.4l-0.7,0c-5.1,0.3-10.4-3-12.5-7.9c-0.4-0.9-0.7-1.9-0.8-2.9
						l0.3,0.2c-6.7,0-13.3-0.1-19.6-1.5c-3.1-0.7-6.1-1.7-8.8-3.2c-2.7-1.5-5.1-3.4-7-5.6c-1.9-2.2-3.4-4.7-4.3-7.3
						c-0.9-2.6-1.2-5.4-0.8-8c0.1-0.6,0.3-1.3,0.4-1.9c0.2-0.6,0.4-1.2,0.6-1.8c0.5-1.2,1.1-2.2,1.8-3.2c1.4-2,3.2-3.5,5-4.8
						c3.7-2.5,7.6-3.6,11-4.2c3.4-0.6,6.4-0.6,8.9-0.6c2.4,0,4.3,0.1,5.6,0.2c0.6,0,1.1,0.1,1.5,0.1
						C228.1,179.5,228.3,179.5,228.3,179.5z"/>
				</g>
			</g>
		</g>
		<g>
			<path class="st8" d="M228.6,196.3c0,1.8-1.5,3.3-3.3,3.3s-3.3-1.5-3.3-3.3s1.5-3.3,3.3-3.3C227.1,192.9,228.6,194.4,228.6,196.3z
				"/>
			<path class="st8" d="M225.3,198.7c-2.8,0-5.1,2.3-5.1,5.1h10.2C230.4,201,228.1,198.7,225.3,198.7z"/>
		</g>
	</g>
	<g>
		<g>
			<path class="st0" d="M228.3,179.5c6.9,0.2,19.4,2.3,24.3,7.8c4.9,5.5,6.4,13.9,3.5,20.8c-2.9,6.8-9.9,11.7-17.3,12
				c1.2,4.5,3.9,8.6,7.6,11.4c-6.1,0.4-12.1-4.5-13-10.6c-9.4,0-19.2-0.1-27.6-4.3c-8.4-4.2-14.9-13.9-12.2-22.9
				c1.9-6.5,8-11.1,14.5-13S221.5,179.1,228.3,179.5"/>
			<g>
				<g>
					<path class="st1" d="M228.3,179.5c0,0-0.2,0-0.5,0c-0.4,0-0.8,0-1.5-0.1c-1.3,0-3.2-0.1-5.6-0.1c-2.4,0-5.4,0.1-8.8,0.7
						c-3.4,0.6-7.2,1.8-10.8,4.2c-1.8,1.2-3.5,2.8-4.9,4.7c-0.7,0.9-1.3,2-1.8,3.1c-0.3,0.6-0.4,1.1-0.6,1.7
						c-0.1,0.6-0.3,1.2-0.4,1.8c-0.4,2.5-0.1,5.2,0.8,7.8c0.9,2.6,2.4,5,4.3,7.1c1.9,2.2,4.2,4.1,6.9,5.5c2.6,1.4,5.6,2.4,8.6,3.1
						c6.1,1.4,12.7,1.5,19.4,1.5h0.2l0,0.2c0.2,0.9,0.4,1.9,0.8,2.7c2,4.8,7.1,7.9,12,7.6l-0.1,0.5c-3.9-3-6.5-7.2-7.7-11.5
						l-0.1-0.3l0.3,0c5.1-0.3,9.7-2.6,13-5.9c3.3-3.3,5.2-7.6,5.5-11.8c0.6-8.4-4-15.9-9.8-18.3c-2.8-1.3-5.5-2.1-7.9-2.7
						c-2.4-0.6-4.4-0.9-6.1-1.1c-1.7-0.2-3-0.3-3.9-0.4c-0.4,0-0.8-0.1-1-0.1C228.4,179.5,228.3,179.5,228.3,179.5
						c0,0,1.9-0.1,5.2,0.4c1.7,0.2,3.8,0.5,6.2,1.1s5.1,1.3,7.9,2.7c5.9,2.3,10.7,10,10.1,18.6c-0.3,4.3-2.2,8.8-5.6,12.1
						c-3.3,3.4-8.1,5.8-13.3,6l0.2-0.3c1.1,4.3,3.8,8.4,7.5,11.3l0.6,0.4l-0.7,0c-5.1,0.3-10.4-3-12.5-7.9c-0.4-0.9-0.7-1.9-0.8-2.9
						l0.3,0.2c-6.7,0-13.3-0.1-19.6-1.5c-3.1-0.7-6.1-1.7-8.8-3.2c-2.7-1.5-5.1-3.4-7-5.6c-1.9-2.2-3.4-4.7-4.3-7.3
						c-0.9-2.6-1.2-5.4-0.8-8c0.1-0.6,0.3-1.3,0.4-1.9c0.2-0.6,0.4-1.2,0.6-1.8c0.5-1.2,1.1-2.2,1.8-3.2c1.4-2,3.2-3.5,5-4.8
						c3.7-2.5,7.6-3.6,11-4.2c3.4-0.6,6.4-0.6,8.9-0.6c2.4,0,4.3,0.1,5.6,0.2c0.6,0,1.1,0.1,1.5,0.1
						C228.1,179.5,228.3,179.5,228.3,179.5z"/>
				</g>
			</g>
		</g>
		<g>
			<path class="st8" d="M233.4,193.2c0,4.5-3.6,8.2-8.2,8.2c-4.5,0-8.2-3.6-8.2-8.2c0-4.5,3.6-8.2,8.2-8.2
				C229.8,185,233.4,188.7,233.4,193.2z"/>
			<path class="st8" d="M225.3,199.2c-6.9,0-12.6,5.6-12.6,12.6h25.1C237.8,204.8,232.2,199.2,225.3,199.2z"/>
		</g>
	</g>
	<g>
		<g>
			<g>
				<path class="st1" d="M732.5,473.1c0,0-0.6,0-1.8,0c-1.2,0-3,0-5.4,0.1c-4.8,0-11.8,0.1-20.8,0.2c-18.1,0.1-44.3,0.3-76.6,0.4
					c-64.7,0.3-154.1,0.4-252.8,0.3c-98.8-0.2-188.1-0.5-252.8-0.6c-32.3-0.1-58.5-0.2-76.6-0.3c-9,0-16.1-0.1-20.8-0.1
					c-2.4,0-4.2,0-5.4,0c-1.2,0-1.9,0-1.9,0s0.6,0,1.9,0c1.2,0,3,0,5.4,0c4.8,0,11.8,0,20.8,0c18.1,0,44.3,0,76.6,0.1
					c64.7,0.1,154.1,0.3,252.8,0.5c98.7,0.1,188.1,0,252.8-0.1c32.3-0.1,58.5-0.2,76.6-0.3c9,0,16.1-0.1,20.8-0.1c2.4,0,4.2,0,5.4,0
					C731.9,473.1,732.5,473.1,732.5,473.1z"/>
			</g>
		</g>
	</g>
	<g>
		<path class="st9" d="M647.3,145.1c1-5.6-0.8-16-5.6-19.2s-11.4-3.3-16.2-0.2c-0.1-10-8.6-19.2-18.6-20s-19.9,6.9-21.6,16.8
			c-6.4-3.3-14.8-2.3-20.2,2.5c-5.4,4.7-7.6,12.8-5.2,19.6L647.3,145.1z"/>
	</g>
	<g>
		<path class="st9" d="M210.5,114.6c0.8-4-1.6-10.8-5.5-13.1c-3.9-2.3-9.2-2.3-13.1-0.2c-0.1-7.1-7-13.7-15.1-14.3
			c-8.1-0.6-16.1,4.9-17.5,12c-5.2-2.3-11.9-1.6-16.4,1.8c-4.4,3.4-6.1,9.2-4.2,14L210.5,114.6z"/>
	</g>
	<g>
		<path class="st9" d="M451.8,64c0.4-2-0.8-5.3-2.7-6.5c-1.9-1.1-4.5-1.2-6.5-0.1c0-3.5-3.5-6.8-7.4-7.1c-4-0.3-8,2.4-8.6,5.9
			c-2.6-1.2-5.9-0.8-8.1,0.9c-2.2,1.7-3,4.5-2.1,6.9L451.8,64z"/>
	</g>
	<g>
		<ellipse class="st9" cx="90.7" cy="183.3" rx="9.6" ry="9.6"/>
		<path class="st9" d="M90.7,190.4c-8.2,0-14.8,6.6-14.8,14.8h29.6C105.5,197,98.9,190.4,90.7,190.4z"/>
	</g>
	<g>
		<g>
			<path class="st11" d="M84.8,470.1c-0.2-0.3-17.6-1.1-17.6-1.1l-11.4-16.4l7.8-10.9l18.2-0.4l2.7,27.9"/>
			<g>
				<g>
					<path class="st7" d="M34.4,475.1c10.8,0,17.5-1.5,28.3-1.5c2,0,4.3-0.2,5.3-1.8c1-1.5,0.4-3.5-0.7-4.9
						c-1.1-1.4-2.6-2.4-3.8-3.7c-2.9-3-4-7.7-2.7-11.7c1.2-4,5.8-9,9.9-9.9c-7.5-12.2-16-22.5-23.6-34.7c-1.5-2.5-3.2-5.1-5.6-6.7
						c-2.5-1.6-6-1.9-8.2,0L34.4,475.1z"/>
					<g>
						<g>
							<g>
								<path class="st1" d="M40.2,472.9c0,0,0-0.3-0.1-0.7c0-0.5,0-1.3-0.1-2.1c-0.1-1.9-0.2-4.6-0.3-7.9
									c-0.2-6.6-0.7-15.8-0.8-25.9c-0.2-10.1-0.2-19.3-0.2-26c0-3.3,0-6,0.1-7.9c0-0.9,0-1.6,0-2.1c0-0.5,0-0.8,0-0.8s0,0.3,0,0.8
									c0,0.5,0,1.3,0,2.1c0,1.9,0.1,4.6,0.1,7.9c0.1,6.6,0.1,15.8,0.3,25.9c0.2,10.1,0.6,19.3,0.7,25.9c0.1,3.3,0.1,6,0.1,7.9
									c0,0.9,0,1.6,0,2.1C40.2,472.6,40.2,472.9,40.2,472.9z"/>
							</g>
						</g>
					</g>
					<g>
						<g>
							<g>
								<path class="st1" d="M39.6,420.3c0-0.1,0.9-0.1,2.2-0.4c1.4-0.2,3.3-0.7,5-1.8c1.7-1.1,2.8-2.8,3.2-4.1
									c0.4-1.3,0.3-2.2,0.4-2.2c0,0,0.1,0.2,0.1,0.6c0,0.4,0,1-0.2,1.7c-0.3,1.4-1.4,3.2-3.3,4.5c-1.9,1.2-3.9,1.6-5.3,1.8
									C40.5,420.5,39.6,420.4,39.6,420.3z"/>
							</g>
						</g>
					</g>
					<g>
						<g>
							<g>
								<path class="st1" d="M53.2,474c-0.1,0,0-1.3-0.3-3.4c-0.3-2.1-1.1-5-3-7.5c-1.9-2.5-4.6-4-6.5-4.9c-1.9-0.8-3.3-1-3.2-1.1
									c0,0,0.3,0,0.9,0.1c0.6,0.1,1.4,0.3,2.4,0.7c2,0.8,4.7,2.2,6.8,4.9c2,2.7,2.7,5.7,3,7.8c0.1,1.1,0.1,1.9,0.1,2.5
									C53.3,473.6,53.2,474,53.2,474z"/>
							</g>
						</g>
					</g>
					<g>
						<g>
							<g>
								<path class="st1" d="M51,425.6c0-0.1,1.4-0.5,2.8-1.6c1.4-1.1,2-2.5,2.2-2.4c0.1,0-0.3,1.6-1.9,2.8
									C52.6,425.7,51,425.8,51,425.6z"/>
							</g>
						</g>
					</g>
					<g>
						<g>
							<g>
								<path class="st1" d="M54.8,431.5c0-0.1,1.4-0.5,2.8-1.6c1.4-1.1,2-2.5,2.2-2.4c0.1,0-0.3,1.6-1.9,2.8
									C56.4,431.5,54.8,431.6,54.8,431.5z"/>
							</g>
						</g>
					</g>
					<g>
						<g>
							<g>
								<path class="st1" d="M58.1,437.3c0-0.1,1.4-0.5,2.8-1.6c1.4-1.1,2-2.5,2.2-2.4c0.1,0-0.3,1.6-1.9,2.8
									C59.8,437.4,58.1,437.5,58.1,437.3z"/>
							</g>
						</g>
					</g>
					<g>
						<g>
							<g>
								<path class="st1" d="M43.7,456c-0.1,0-0.5-7.7-0.7-17.3s-0.3-17.3-0.2-17.3c0.1,0,0.5,7.7,0.7,17.3
									C43.8,448.3,43.8,456,43.7,456z"/>
							</g>
						</g>
					</g>
				</g>
			</g>
			<path class="st1" d="M59.2,437.3c0,0.8-0.6,1.4-1.4,1.4c-0.8,0-1.4-0.6-1.4-1.4c0-0.8,0.6-1.4,1.4-1.4
				C58.5,435.9,59.2,436.5,59.2,437.3z"/>
			<path class="st1" d="M55.4,431.4c0,0.8-0.6,1.4-1.4,1.4c-0.8,0-1.4-0.6-1.4-1.4c0-0.8,0.6-1.4,1.4-1.4
				C54.8,430,55.4,430.6,55.4,431.4z"/>
			<path class="st1" d="M51.9,425.8c0,0.8-0.6,1.4-1.4,1.4c-0.8,0-1.4-0.6-1.4-1.4c0-0.8,0.6-1.4,1.4-1.4
				C51.3,424.4,51.9,425,51.9,425.8z"/>
		</g>
		<g>
			<g>
				
					<ellipse transform="matrix(0.9732 -0.2298 0.2298 0.9732 -53.0744 40.0637)" class="st8" cx="145.5" cy="247.9" rx="11.2" ry="11.2"/>
			</g>
			<g>
				<path class="st6" d="M158,224.2c8.2,19.9,36.8,33.7,36.8,33.7l-9.3,18.5c-19.1-8.4-53.2-4.3-53.2-4.3L158,224.2z"/>
			</g>
			<g>
				<path class="st5" d="M131.6,275.1L131.6,275.1c1.5,0.8,3.3,0.2,4.1-1.3l25-49c0.8-1.5,0.2-3.3-1.3-4.1l0,0
					c-1.5-0.8-3.3-0.2-4.1,1.3l-25,49C129.5,272.5,130.1,274.4,131.6,275.1z"/>
			</g>
			<g>
				<path class="st12" d="M177.5,340.6l-0.8-24.9c0,0-7.8-7.1-8.1-9.6c-0.3-2.5,1.8-3.2,1.8-3.2s-1.5-0.7-1.4-2.8
					c0.2-2,1.8-2.5,1.8-2.5s-0.8-1.5-0.2-3c0.7-1.9,3.4-2.1,3.4-2.1s-0.9-1.2,0.2-3.4c1.2-2.4,3.7-1.7,5.1-0.9
					c0.5,0.3,6.9,3.9,11.8,6.8c0.1-0.7,1.1-8.8,3.1-10.5c2.1-1.8,3.5-0.1,2.8,3.3s0.6,6.6,1.1,10.4s-3.9,13.8-3.9,13.9l-0.3,2.4
					l5.3,22.6l0.3,1.4l6.7,27.2l22.2-26l1.5,36.7c0,0-15.4,24-28.9,24c-18.3,0-21-18.2-21-18.2L177.5,340.6"/>
			</g>
			<g>
				<path class="st5" d="M184.7,278.1l10.1-20.2l11,6.5c4.2,2.2,5.1,9,2.9,13.3c-2.2,4.3-7.5,6-11.8,3.7l-0.8-0.3l-15.4,35.1
					c0,0-12.6-6.8-13.1-6.6C167.3,309.9,183.8,279.8,184.7,278.1z"/>
			</g>
			<g>
				<g>
					<g>
						<path class="st13" d="M185.7,314.1c0,0-0.2-0.2-0.4-0.8c-0.2-0.5-0.4-1.3-0.4-2.3c-0.1-1.9,0.4-4.7,1.9-7.2
							c0.6-1.2,1.2-2.3,2-3.3c0.7-1,1.5-1.7,2.2-2.3l-0.1,0.2c-0.1-1.1,0.1-2,0.2-2.6c0.1-0.6,0.1-1,0.1-1c0,0,0.1,0.3,0.1,1
							c0,0.6-0.1,1.5,0,2.6l0,0.1l-0.1,0.1c-0.7,0.6-1.4,1.4-2.1,2.3c-0.7,0.9-1.3,2-1.9,3.2c-1.4,2.5-2,5.1-2,7
							C185.2,313,185.8,314.1,185.7,314.1z"/>
					</g>
				</g>
			</g>
			<g>
				<path class="st12" d="M174,292.5c0,0,5.7,3.2,8.9,5.2c0.8,0.5,1.7,1.1,2.6,1.3s2.2-0.4,2.7-1.2c0.9-1.6-0.1-4-1.8-5l-9.1-5.2"/>
			</g>
			<g>
				<path class="st12" d="M170.6,297.5c0,0,5.7,3.2,8.9,5.2c0.8,0.5,1.7,1.1,2.6,1.3s2.2-0.4,2.7-1.2c0.9-1.6-0.1-4-1.8-5l-9.1-5.2"
					/>
			</g>
			<g>
				<path class="st12" d="M168.8,306.8c0.8,1,2.6,1.8,5.2,3.3c0.7,0.4,1.6,0.9,2.4,1c0.8,0.2,1.8,0.1,2.2-0.6c0.9-1.4-0.3-2.6-0.9-3
					l-8-4.7C169.6,302.9,166.8,304.6,168.8,306.8z"/>
			</g>
			<g>
				<path class="st12" d="M169.8,302.6c1,1.2,3.3,2.3,6.4,4.1c0.9,0.5,2,1.1,3,1.3c1,0.2,2.2,0.1,2.7-0.7c1.1-1.7-0.3-3.3-1.2-3.7
					l-10-5.9C170.8,297.6,167.3,299.8,169.8,302.6z"/>
			</g>
			<g>
				<g>
					<g>
						<path class="st1" d="M184.7,276.2c0.1-0.1,2.7,0.9,5.9,2.2c3.2,1.4,5.8,2.5,5.7,2.7s-2.7-0.9-5.9-2.2
							C187.2,277.5,184.6,276.3,184.7,276.2z"/>
					</g>
				</g>
			</g>
		</g>
		<g>
			<path class="st8" d="M117,442.1c0,0,12-69.6,12.2-71.3c0.6-7.1,9.2-24.4,30.3-20.2c21,4.2,72.3,76.1,72.3,76.1l-22.3,36.5h-7.1
				l-39.4-58.2l-7,35.2L117,442.1z"/>
			<path class="st8" d="M72.9,475.3l176.1-1.1c10.9,0.1,21-6,25.8-15.9c1.7-3.5,2.8-7.6,2.8-12.2c0-13.6-4.5-43.2-4.5-43.2
				l-45.5,1.9l-3.1,26.1c0,0-137.7,2.6-151.6,2.4"/>
			<g>
				<g>
					<g>
						<path class="st1" d="M161.9,376.7c0,0,0.1,0.4,0.3,1.1c0.2,0.7,0.4,1.8,0.6,3.2c0.5,2.7,0.9,6.5,1,10.6
							c0.1,4.2-0.1,8-0.3,10.7c-0.1,1.4-0.3,2.5-0.4,3.2c-0.1,0.8-0.2,1.2-0.2,1.2c0,0,0-0.4,0-1.2c0.1-0.9,0.1-2,0.2-3.2
							c0.1-2.7,0.3-6.5,0.2-10.6s-0.5-7.9-0.9-10.6c-0.2-1.3-0.3-2.3-0.4-3.2C161.9,377.1,161.9,376.7,161.9,376.7z"/>
					</g>
				</g>
			</g>
			<g>
				<g>
					<g>
						<path class="st1" d="M199.6,431.7c0,0-0.1,0-0.3,0c-0.2,0-0.6,0-0.9,0c-0.9,0-2.1,0-3.6,0.1c-3.2,0-7.8,0.1-13.4,0.2
							c-11.3,0.1-27,0.5-44.3,0.8c-17.3,0.4-33,0.6-44.3,0.6c-5.7,0-10.3,0-13.4,0c-1.6,0-2.8,0-3.7,0c-0.4,0-0.7,0-0.9,0
							c-0.2,0-0.3,0-0.3,0s0.1,0,0.3,0c0.2,0,0.6,0,0.9,0c0.9,0,2.1,0,3.7-0.1c3.2,0,7.8-0.1,13.4-0.2c11.3-0.1,27-0.5,44.3-0.8
							c17.3-0.4,33-0.6,44.3-0.6c5.7,0,10.3,0,13.4,0c1.6,0,2.8,0,3.6,0c0.4,0,0.7,0,0.9,0C199.5,431.7,199.6,431.7,199.6,431.7z"/>
					</g>
				</g>
			</g>
		</g>
		<path class="st5" d="M219.1,383.5l-19.5-23c0,0,21.3-28.8,25.9-33.2c4.6-4.5,10.6-7.4,10.6-7.4L219.1,383.5z"/>
		<g>
			<g>
				<g>
					<g>
						<path class="st12" d="M257.2,323l0.6-2.7l2.7-25.6l-0.1-21.6l-19.3-16.4l-17,2.8c0.1-0.3-0.1,1.5-1.2,5.6c0,0-5.6,31-2.8,37.4
							c2.7,6,10.6,7.5,11.9,11c1.7,4.3,0.8,14.5,0.8,14.5S252.4,331,257.2,323z"/>
					</g>
					<path class="st1" d="M227.3,279c0-0.7,0.2-1.5-0.2-2.1l-0.1-0.1c-0.5-0.2-1-0.4-1.5-0.2c-0.4,0.2-0.7,0.7-0.8,1.2
						c-0.1,0.7,0,1.3,0.1,2c0.1,0.4,0.1,0.7,0.3,1c0.1,0.3,0.4,0.6,0.7,0.7c0.5,0.2,1.1-0.3,1.4-0.8
						C227.3,280.2,227.3,279.6,227.3,279z"/>
					<path class="st1" d="M243,281.4c0-0.7,0.2-1.5-0.2-2.1l-0.1-0.1c-0.5-0.2-1-0.4-1.5-0.2c-0.4,0.2-0.7,0.7-0.8,1.2
						c-0.1,0.7,0,1.3,0.1,2c0.1,0.4,0.1,0.7,0.3,1c0.1,0.3,0.4,0.6,0.7,0.7c0.5,0.2,1.1-0.3,1.4-0.8C243,282.6,243,282,243,281.4z"
						/>
					<path class="st13" d="M228.1,309.9l2.6,1.5c0.7,1,2,2.6,1.9,3.8c5.7-0.6,10.3-3.3,14.6-7.2
						C240.2,309.9,235.2,310.4,228.1,309.9z"/>
					<g>
						<path class="st12" d="M258.4,302.9c2.8,0.5,5.8-0.8,7.2-2.1c2-1.8,3-3.8,3.1-6.4c0.1-2.7-1-5.5-3.3-6.9
							c-2.2-1.4-5.5-1.2-7.3,0.8"/>
						<path class="st13" d="M265.9,293.3c-0.2-1-0.8-2-1.7-2.5c-0.8-0.4-1.5,0.1-2.3,0.4c-1.5,0.5-2.8,1.4-3.5,2.8l-0.1,0.3
							c0.6-0.8,2-1.3,2.6-0.5s0.6,2.6,0.1,3.4c-0.3,0.4-0.6,0.9-0.4,1.4c0.2,0.3,0.5,0.4,0.9,0.4c1.4,0,2.7-0.6,3.6-1.8
							C265.9,296.1,266.2,294.7,265.9,293.3z"/>
						<g>
							<g>
								<g>
									<path class="st1" d="M259.5,298.7c0,0,0.3-0.1,0.6-0.3c0.4-0.2,0.8-0.7,1-1.5c0.2-0.7,0.4-1.8,0-2.7
										c-0.2-0.4-0.7-0.6-1.2-0.5c-0.5,0.1-1,0.4-1.4,0.9c-0.2,0.2-0.4,0.5-0.5,0.7l-0.5-0.3c1-2.2,2.9-3.4,4.3-3.9
										c0.7-0.3,1.3-0.4,1.7-0.4s0.6,0,0.6,0c0,0.1-0.9,0.1-2.2,0.7c-1.3,0.6-3,1.8-4,3.8l-0.5-0.3c0.2-0.2,0.4-0.5,0.6-0.8
										c0.4-0.5,1-1,1.7-1c0.7-0.1,1.4,0.3,1.7,0.8c0.3,0.6,0.3,1.1,0.2,1.6c-0.1,0.5-0.1,0.9-0.3,1.4c-0.3,0.8-0.8,1.4-1.2,1.6
										C259.8,298.8,259.5,298.7,259.5,298.7z"/>
								</g>
							</g>
						</g>
					</g>
					<g>
						<g>
							<g>
								<path class="st1" d="M235.7,290.7c0,0-0.9-0.1-2-1c-0.5-0.5-1.1-1.1-1.6-1.9c-0.2-0.4-0.4-0.9-0.5-1.4l-0.1-0.4
									c0-0.1,0-0.4,0.1-0.6c0.2-0.2,0.4-0.2,0.6-0.2c0.2,0,0.3,0.1,0.4,0.1c1,0.3,2,0.6,3,0.8l-0.3,0.2c0.3-2.6,0.6-4.5,0.7-4.5
									c0.1,0,0,1.9-0.2,4.5l0,0.3l-0.3-0.1c-0.9-0.3-1.9-0.5-3-0.8c-0.6-0.1-0.5-0.2-0.4,0.4c0.1,0.5,0.3,0.9,0.5,1.3
									c0.4,0.8,0.9,1.4,1.4,1.9C234.9,290.3,235.8,290.6,235.7,290.7z"/>
							</g>
						</g>
					</g>
				</g>
				<g>
					<path class="st1" d="M242.5,271.9c0.3-0.3,0.7-0.4,1.1-0.4c0.4,0,0.8,0,1.1,0.1c0,0,0.1,0,0.1,0c0.2,0,0.4,0.1,0.6,0.2
						c0.2,0.1,0.4,0.2,0.6,0.3c0,0,0,0,0.1,0c0.2,0.1,0.4,0.3,0.6,0.5c0,0,0.1,0,0.1,0h0c0,0,0.1,0,0.1,0.1c0.4,0.3,0.7,0.7,0.8,1.2
						c0.1,0.5-0.1,1.1-0.5,1.4c-0.3,0.2-0.6,0.1-0.9,0.1c-0.4,0-0.9-0.1-1.3-0.1c-0.6-0.1-1.1-0.1-1.6-0.4c-0.5-0.2-1-0.6-1.2-1.2
						C241.9,273.1,242,272.3,242.5,271.9z"/>
					<path class="st1" d="M226,269.7c0.3-0.3,0.7-0.4,1.1-0.4c0.4,0,0.8,0,1.1,0.1c0,0,0.1,0,0.1,0c0.2,0,0.4,0.1,0.6,0.2
						c0.2,0.1,0.4,0.2,0.6,0.3c0,0,0,0,0.1,0c0.2,0.1,0.4,0.3,0.6,0.5c0,0,0.1,0,0.1,0h0c0,0,0.1,0,0.1,0.1c0.4,0.3,0.7,0.7,0.8,1.2
						c0.1,0.5-0.1,1.1-0.5,1.4c-0.3,0.2-0.6,0.1-0.9,0.1c-0.4,0-0.9-0.1-1.3-0.1c-0.6-0.1-1.1-0.1-1.6-0.4c-0.5-0.2-1-0.6-1.2-1.2
						C225.4,270.9,225.6,270.1,226,269.7z"/>
				</g>
				<g>
					<g>
						<g>
							<path class="st1" d="M241.4,297.2c0-0.1,0.9,0.1,1.8-0.9c0.4-0.5,0.7-1.2,0.7-2s-0.3-1.7-0.7-2.6c-0.2-0.4-0.4-0.8-0.6-1.2
								l0.4,0.1c-1.2,1.2-2.6,2-3.5,2.4c-1,0.5-1.6,0.6-1.6,0.5c-0.1-0.1,2.4-1,4.8-3.3l0.2-0.2l0.2,0.3c0.2,0.4,0.4,0.8,0.6,1.2
								c0.4,0.9,0.7,1.9,0.7,2.9c0,0.9-0.4,1.8-0.9,2.2c-0.5,0.5-1.1,0.7-1.5,0.7C241.6,297.3,241.4,297.2,241.4,297.2z"/>
						</g>
					</g>
				</g>
			</g>
			<g>
				<path class="st1" d="M222.1,268.6l-1-1.4c-1.7-2.1-4.5-2.5-6.8-6.1c-3.1-5,0.1-8.3,0.1-8.3c3.8-4.8,11.4-3.8,16.5-1.2
					c-2.8-1.7-8.2-3.7-6.8-6.8c1.5-4.3,10.2-3,18.1,1.3c-4.5-3.1-3.7-6.7-0.1-5.3c5.9,2.9,11.9,5.9,17.8,8.8
					c2.3,1.1,4.7,2.3,6.5,4.2c4.1,4.4,5,11.6,4.6,17.6c-0.4,5-1.9,9.7-4,14.3c-0.4,0.8-0.8,1.5-1.2,2.2c-0.3-0.3-0.9-0.6-1.7-1
					c0,0-2.2-0.6-4.2,0c-1.8,0.6-2.3,1.8-2.3,1.8c-0.5,1-0.9,2.1-1.6,3c-0.7,0.9-2,1.5-3.1,1c-0.8-0.4-1.3-1.3-1.4-2.2
					c-0.1-0.9,0.1-1.8,0.4-2.7c1-4,2-7.9,3-11.9c-8.3-3-12.7-9.8-13-18.5l-0.1-0.1c-0.2,1-1,3.4-3.7,3.1c-3.4-0.3-6.6-1.4-6.6-1.4
					s-2.9,6-8.1,2.9L222.1,268.6z"/>
			</g>
		</g>
		<g>
			<path class="st5" d="M257.8,317.5c30.2,11.8,25.4,104.4,19.8,131.8c-33.6,7-58.2,4.9-78.6-19.4l11.5-9.6l5.4-48.7
				c0,0,3-37.2,15.8-50.5L257.8,317.5z"/>
		</g>
		<g>
			<g>
				<path class="st14" d="M238.6,353"/>
			</g>
		</g>
		<g>
			<path class="st12" d="M237.5,383.8l-12.6,77.5c0,0-12.8-0.9-17.4-0.9s-5.8,2.3-5.8,2.3c-3.3,0.5-7.7,4.9-10.1,7.7
				c-1.7,2-0.6,5.1,2.1,5.5c1,0.1,2.4-0.7,2.4-0.7c-0.5,0.9-0.4,2.3,0.5,3c1.5,1.2,4,0.9,5,0.1c1.2-0.9,7.5-5.5,7.5-5.5
				s11.7,1.9,16.3,2.9c6.6,1.4,16.1-1.3,18.8-9.5s19.8-77.2,19.8-78L237.5,383.8z"/>
			<g>
				<g>
					<g>
						<path class="st1" d="M228.3,382.2c0,0,0-0.2,0.1-0.4c0.1-0.3,0.2-0.7,0.3-1.3c0.3-1.1,0.6-2.8,1.2-5c1.1-4.3,2.7-10.5,4.9-18
							c1.1-3.8,2.5-7.9,4.1-12.3c0.8-2.2,1.7-4.4,2.7-6.7c1.1-2.2,2.2-4.6,3.8-6.6c0.8-1.1,1.9-1.9,3.1-2.6c1.1-0.8,2.4-1.4,3.6-1.9
							c2.6-1,5.6-1.3,8.4-0.4c2.8,0.8,5.2,2.8,7.1,5c0.9,1.1,1.8,2.4,2.5,3.8s1,2.9,1.3,4.4c0.4,2.3,0.5,4.5,0.6,6.7
							c0,2.2,0,4.4-0.1,6.6c-0.2,4.4-0.7,8.6-1.3,12.6c-1.1,8.1-2.6,15.7-4.2,22.5c0,0.1-0.1,0.2-0.3,0.2c-11.4-2-20.9-3.6-27.5-4.8
							c-3.3-0.6-5.8-1-7.6-1.4c-0.9-0.2-1.5-0.3-2-0.4C228.5,382.3,228.3,382.2,228.3,382.2s0.3,0,0.7,0.1c0.5,0.1,1.2,0.2,2,0.3
							c1.8,0.3,4.4,0.7,7.7,1.3c6.6,1.1,16.1,2.7,27.4,4.6l-0.3,0.2c1.5-6.8,3-14.4,4.1-22.5c0.5-4.1,1-8.3,1.2-12.6
							c0.1-2.2,0.2-4.4,0.1-6.6c-0.1-2.2-0.2-4.5-0.6-6.7c-0.3-1.5-0.6-2.9-1.2-4.3c-0.6-1.3-1.5-2.5-2.4-3.6
							c-1.8-2.2-4.1-4.1-6.8-4.9c-2.7-0.9-5.5-0.6-8,0.3c-1.2,0.5-2.5,1.1-3.5,1.8c-1.1,0.7-2.2,1.5-2.9,2.5c-1.6,2-2.7,4.3-3.8,6.5
							c-1,2.2-1.9,4.5-2.8,6.6c-1.6,4.3-3,8.5-4.1,12.2c-2.3,7.5-4,13.7-5.1,18c-0.6,2.1-1,3.8-1.3,4.9c-0.1,0.5-0.3,1-0.3,1.3
							C228.3,382.1,228.3,382.2,228.3,382.2z"/>
					</g>
				</g>
			</g>
			<g>
				<g>
					<g>
						<path class="st13" d="M214.3,468c0,0.1-1.2-0.2-3-0.4c-0.9-0.1-2.1-0.2-3.3-0.1c-1.2,0.1-2.5,0.5-3.7,1.3
							c-1.2,0.7-2.3,1.6-3.2,2.5s-1.8,1.6-2.5,2.2c-0.7,0.6-1.4,1.1-1.8,1.4c-0.5,0.3-0.7,0.4-0.7,0.4c0-0.1,0.9-0.7,2.3-2
							c0.7-0.7,1.5-1.5,2.4-2.3c0.9-0.9,2-1.8,3.2-2.6c1.3-0.8,2.7-1.2,3.9-1.3s2.4,0,3.4,0.2c0.9,0.2,1.7,0.4,2.2,0.5
							C214.1,467.9,214.3,468,214.3,468z"/>
					</g>
				</g>
			</g>
		</g>
	</g>
	<g>
		<ellipse class="st4" cx="273.1" cy="125.3" rx="35.5" ry="35.5"/>
		<g id="XMLID_11_">
			<path id="XMLID_12_" class="st0" d="M270.9,144.4l7.8-1.1l-2.8-19.6l5.5-0.8l-0.4-6.6l-6,0.9c0,0-0.4-2.4-0.5-3.7
				c-0.2-1.6,0-2.2,1.5-2.4c1.2-0.2,4.2-0.6,4.2-0.6l-1-6.8c0,0-4.5,0.6-5.4,0.8c-5.8,0.8-8.1,3.8-7.4,8.7c0.6,4.3,0.8,5.2,0.8,5.2
				l-4.1,0.6l1,6.6l4.1-0.6L270.9,144.4z"/>
		</g>
	</g>
	<g>
		<g>
			<g>
				<g>
					<g>
						<g>
							<path class="st8" d="M414.3,140.9c-0.1,0.1-0.5-0.4-1.2-0.8c-0.4-0.2-0.9-0.4-1.4-0.4c-0.5,0-1.1,0.4-1.2,1l-0.5,0
								c0-0.1,0-0.3,0-0.4c0-3.1,0-5.5,0.2-5.5c0.1,0,0.3,2.5,0.3,5.5c0,0.1,0,0.3,0,0.4l-0.5,0c0.1-0.9,1-1.4,1.6-1.4
								c0.7,0,1.2,0.3,1.6,0.5C414,140.4,414.4,140.9,414.3,140.9z"/>
						</g>
					</g>
				</g>
				<g>
					<g>
						<g>
							<path class="st8" d="M412.7,143.2c-0.2,0-0.3-1-0.9-1.8c-0.3-0.4-0.8-0.6-1.1-0.6c-0.3-0.1-0.5,0-0.6,0
								c0-0.1,0.1-0.3,0.6-0.3s1,0.1,1.5,0.6c0.4,0.5,0.5,1.1,0.6,1.5C412.8,143,412.8,143.2,412.7,143.2z"/>
						</g>
					</g>
				</g>
			</g>
			<g>
				<g>
					<g>
						<g>
							<path class="st8" d="M422.8,139.8c-0.1,0.1-0.5-0.4-1.2-0.8c-0.4-0.2-0.9-0.4-1.4-0.4c-0.5,0-1.1,0.4-1.2,1l-0.5,0
								c0-0.1,0-0.3,0-0.4c0-3.1,0-5.5,0.2-5.5c0.1,0,0.3,2.5,0.3,5.5c0,0.1,0,0.3,0,0.4l-0.5,0c0.1-0.9,1-1.4,1.6-1.4
								c0.7,0,1.2,0.3,1.6,0.5C422.5,139.3,422.8,139.7,422.8,139.8z"/>
						</g>
					</g>
				</g>
				<g>
					<g>
						<g>
							<path class="st8" d="M421.1,142.1c-0.2,0-0.3-1-0.9-1.8c-0.3-0.4-0.8-0.6-1.1-0.6c-0.3-0.1-0.5,0-0.6,0
								c0-0.1,0.1-0.3,0.6-0.3s1,0.1,1.5,0.6c0.4,0.5,0.5,1.1,0.6,1.5C421.3,141.8,421.2,142.1,421.1,142.1z"/>
						</g>
					</g>
				</g>
			</g>
			<g>
				<path class="st8" d="M425.9,111.5c0.2-0.1,2.4-1.7,2.4-1.7s-3.2-0.7-3.5-0.7c1-1.4,1.4-2.1,1.8-3.3l-3.8,1.4
					c-1.7-2.6-5.1-3.4-8.1-2.8c-2.6,0.4-5.6,3.3-6.6,5.6c-0.4,0.8-2.3,5.1-2.4,5.9l1.7,3.7l-14.9,5.8l0,0c4.6,4.8,9.3,6.6,11.5,7.7
					c3.5,1.8,8.3,2.5,10.2,2.3c4-0.5,8.6-2.4,11.3-6.2c2.2-3.2,2.6-6.1,2.6-10.6C428,116.3,427.1,112.9,425.9,111.5z"/>
			</g>
			<g>
				<path class="st8" d="M409.7,114.7c-6.9,0.6-13.8,1.1-20.7,1.7c-0.5,0-1.1,0.1-1.5,0.4c-0.7,0.6-0.5,1.6-0.3,2.5
					c1.6,5,6.5,8.8,11.7,9.2c5.3,0.4,14.7-1.8,16.7-10.3"/>
				<g>
					<g>
						<path class="st0" d="M415.6,118.1c0,0,0,0.2-0.1,0.6s-0.2,1-0.6,1.7c-0.6,1.4-1.9,3.5-4.3,5.1c-2.3,1.6-5.6,2.8-9.4,3.1
							c-1.9,0.1-3.9,0-5.8-0.7c-2-0.7-3.8-1.9-5.3-3.4c-1.5-1.6-2.6-3.4-3.3-5.4c-0.1-0.5-0.2-1.1-0.1-1.6c0.1-0.6,0.5-1.1,1.1-1.3
							c0.5-0.2,1-0.2,1.5-0.2c0.5,0,0.9-0.1,1.4-0.1c3.7-0.3,7-0.5,9.8-0.7c2.8-0.2,5-0.3,6.6-0.4c0.7,0,1.3-0.1,1.8-0.1
							c0.4,0,0.6,0,0.6,0s-0.2,0.1-0.6,0.1c-0.5,0.1-1.1,0.1-1.8,0.2c-1.6,0.2-3.9,0.4-6.6,0.6c-2.8,0.2-6.1,0.5-9.8,0.8
							c-0.5,0-0.9,0.1-1.4,0.1c-0.5,0.1-1,0.1-1.4,0.2c-0.4,0.1-0.7,0.5-0.8,0.9c-0.1,0.4,0,0.9,0.1,1.4c0.6,1.9,1.7,3.7,3.1,5.2
							c1.5,1.5,3.3,2.6,5.1,3.3c1.9,0.7,3.8,0.8,5.6,0.7c3.7-0.3,6.9-1.4,9.2-2.9c2.3-1.5,3.6-3.5,4.3-4.9c0.4-0.7,0.5-1.3,0.7-1.7
							C415.5,118.3,415.6,118.1,415.6,118.1z"/>
					</g>
				</g>
			</g>
			<path class="st1" d="M419.4,111.4c-0.6-0.2-1-0.8-0.8-1.5c0.2-0.6,0.9-1,1.5-0.8c0.6,0.2,1,0.8,0.8,1.5
				C420.7,111.2,420,111.6,419.4,111.4z"/>
		</g>
		<path class="st5" d="M422.7,107.1l3.1,4.4l2.4-1.7l-3.5-0.7l1.8-3.3L422.7,107.1z"/>
	</g>
	<g>
		<g>
			<g>
				<path class="st12" d="M665,468c0.2-0.3,17.6-1.1,17.6-1.1l11.4-16.4l-7.8-10.9l-18.2-0.4l-2.7,27.9"/>
			</g>
			<g>
				<g>
					<path class="st5" d="M714.6,472.8c-10.8,0-17.5-1.6-28.3-1.5c-2,0-4.3-0.2-5.3-1.8c-1-1.5-0.4-3.5,0.7-4.9
						c1.1-1.4,2.6-2.4,3.8-3.7c2.9-3,4-7.6,2.8-11.6s-5.7-9.1-9.8-9.9c7.5-12.2,16.1-22.5,23.6-34.6c1.5-2.5,3.2-5.1,5.6-6.7
						s6-1.9,8.2,0L714.6,472.8z"/>
					<g>
						<g>
							<g>
								<path class="st1" d="M708.9,472.6c-0.1,0,0.1-16.9,0.5-37.7s0.8-37.7,1-37.7c0.1,0-0.1,16.9-0.5,37.7
									C709.5,455.7,709.1,472.6,708.9,472.6z"/>
							</g>
						</g>
					</g>
					<g>
						<g>
							<g>
								<path class="st1" d="M709.6,418.6c0,0.1-0.9,0.1-2.3,0c-1.4-0.1-3.4-0.5-5.3-1.7c-1.9-1.2-3-3.1-3.3-4.5
									c-0.2-0.7-0.2-1.3-0.2-1.7c0-0.4,0.1-0.6,0.1-0.6c0.1,0,0,0.9,0.4,2.2c0.4,1.3,1.5,3,3.3,4.1c1.8,1.1,3.7,1.6,5.1,1.8
									C708.8,418.5,709.6,418.5,709.6,418.6z"/>
							</g>
						</g>
					</g>
					<g>
						<g>
							<g>
								<path class="st1" d="M696,471.6c0,0-0.1-0.3-0.1-0.9c0-0.6,0-1.5,0.1-2.5c0.2-2.1,1.1-5,3.2-7.5c2.1-2.5,4.7-4,6.7-4.8
									c1-0.4,1.8-0.6,2.4-0.7c0.6-0.1,0.9-0.1,0.9-0.1c0,0.1-1.3,0.3-3.2,1.1c-1.9,0.8-4.4,2.3-6.4,4.7c-2,2.5-2.9,5.3-3.2,7.3
									C696,470.3,696.1,471.6,696,471.6z"/>
							</g>
						</g>
					</g>
					<g>
						<g>
							<g>
								<path class="st1" d="M698.2,423.9c0,0.1-0.5,0.1-1.2-0.2c-0.7-0.2-1.6-0.7-2.5-1.4c-0.9-0.7-1.5-1.5-1.9-2.1
									c-0.4-0.6-0.5-1.1-0.4-1.1c0.1,0,0.3,0.4,0.7,0.9s1.1,1.2,2,1.9s1.7,1.2,2.3,1.5C697.8,423.7,698.3,423.8,698.2,423.9z"/>
							</g>
						</g>
					</g>
					<g>
						<g>
							<g>
								<path class="st1" d="M694.4,429.8c0,0.1-0.5,0.1-1.2-0.2c-0.7-0.3-1.7-0.8-2.6-1.5c-0.9-0.7-1.6-1.5-2-2.2
									c-0.4-0.6-0.5-1.1-0.5-1.1c0.1,0,0.3,0.4,0.8,0.9s1.2,1.3,2,2c0.9,0.7,1.7,1.2,2.4,1.5C694,429.5,694.4,429.7,694.4,429.8z"
									/>
							</g>
						</g>
					</g>
					<g>
						<g>
							<g>
								<path class="st1" d="M691,435.6c0,0.1-0.5,0.1-1.3-0.3c-0.8-0.3-1.7-0.9-2.7-1.8c-0.9-0.8-1.7-1.7-2.1-2.4
									c-0.4-0.7-0.6-1.2-0.5-1.2c0.1,0,0.3,0.4,0.8,1c0.5,0.6,1.2,1.4,2.1,2.2c0.9,0.8,1.8,1.4,2.5,1.8
									C690.6,435.4,691.1,435.5,691,435.6z"/>
							</g>
						</g>
					</g>
					<g>
						<g>
							<g>
								<path class="st1" d="M705.4,456.1c-0.1,0,0-8.5,0.2-18.9c0.3-10.4,0.6-18.9,0.7-18.9s0,8.5-0.2,18.9
									C705.9,447.6,705.5,456.1,705.4,456.1z"/>
							</g>
						</g>
					</g>
				</g>
			</g>
		</g>
		<g>
			<path class="st7" d="M498.9,473.5l175.1-0.9v-39.3l-166.7-2.8L482.6,452L498.9,473.5z"/>
			<g>
				<path class="st12" d="M590.2,429.2c0.3,0.1,6.7,16.3,6.7,16.3l15.4,10.8l11.6-16.2l-5.5-17.3l-27.3,6.5"/>
				<g>
					<g>
						<path class="st5" d="M589.6,472.7c0-10.8,1.5-17.5,1.5-28.3c0-2,0.2-4.3,1.8-5.3c1.5-1,3.5-0.4,4.9,0.6
							c1.4,1.1,2.4,2.6,3.7,3.8c3,2.9,7.7,4,11.7,2.7c4-1.2,9-5.8,9.9-9.9c12.2,7.5,22.5,16,34.7,23.6c2.5,1.5,5.1,3.2,6.7,5.6
							c1.6,2.5,1.9,6,0,8.2L589.6,472.7z"/>
						<g>
							<g>
								<g>
									<path class="st1" d="M589.7,467c0-0.1,16.9,0,37.7,0.4c20.8,0.4,37.7,0.8,37.7,0.9c0,0.1-16.9,0-37.7-0.4
										C606.6,467.5,589.7,467.1,589.7,467z"/>
								</g>
							</g>
						</g>
						<g>
							<g>
								<g>
									<path class="st1" d="M643.7,467.6c-0.1,0-0.1-0.9,0-2.3c0.2-1.4,0.5-3.4,1.7-5.3c1.2-1.9,3-3,4.5-3.4
										c0.7-0.2,1.3-0.2,1.7-0.2s0.6,0.1,0.6,0.1c0,0.1-0.9,0-2.2,0.4c-1.3,0.4-3,1.5-4.1,3.3c-1.1,1.8-1.6,3.7-1.8,5.1
										C643.9,466.7,643.8,467.6,643.7,467.6z"/>
								</g>
							</g>
						</g>
						<g>
							<g>
								<g>
									<path class="st1" d="M590.7,454.1c0,0,0.3-0.1,0.9-0.1c0.6,0,1.5,0,2.5,0.1c2.1,0.2,5,1.1,7.6,3.2c2.5,2.1,4,4.7,4.8,6.7
										c0.4,1,0.6,1.8,0.7,2.4c0.1,0.6,0.1,0.9,0.1,0.9c-0.1,0-0.3-1.3-1.2-3.2c-0.8-1.9-2.3-4.4-4.8-6.4c-2.5-2-5.3-2.9-7.3-3.2
										C592,454,590.7,454.2,590.7,454.1z"/>
								</g>
							</g>
						</g>
						<g>
							<g>
								<g>
									<path class="st1" d="M638.4,456.2c-0.1,0-0.1-0.5,0.2-1.2c0.2-0.7,0.7-1.6,1.4-2.5c0.7-0.9,1.5-1.5,2.1-1.9
										s1.1-0.5,1.1-0.4c0,0.1-0.3,0.3-0.9,0.7c-0.5,0.4-1.2,1.1-1.9,2c-0.7,0.8-1.2,1.7-1.5,2.3
										C638.6,455.8,638.5,456.2,638.4,456.2z"/>
								</g>
							</g>
						</g>
						<g>
							<g>
								<g>
									<path class="st1" d="M632.6,452.4c-0.1,0-0.1-0.5,0.2-1.2c0.3-0.7,0.8-1.6,1.5-2.6c0.7-0.9,1.5-1.6,2.2-2
										c0.7-0.4,1.1-0.5,1.1-0.5c0,0.1-0.4,0.3-0.9,0.8c-0.6,0.5-1.3,1.2-2,2c-0.7,0.9-1.2,1.7-1.5,2.4
										C632.8,452,632.7,452.4,632.6,452.4z"/>
								</g>
							</g>
						</g>
						<g>
							<g>
								<g>
									<path class="st1" d="M626.8,449c-0.1,0-0.1-0.5,0.3-1.3c0.3-0.8,0.9-1.7,1.8-2.6c0.8-0.9,1.7-1.7,2.4-2.1
										c0.7-0.4,1.2-0.6,1.2-0.5c0,0.1-0.4,0.3-1,0.8c-0.6,0.5-1.4,1.2-2.2,2.1c-0.8,0.9-1.4,1.8-1.8,2.5
										C627,448.6,626.8,449.1,626.8,449z"/>
								</g>
							</g>
						</g>
						<g>
							<g>
								<g>
									<path class="st1" d="M606.3,463.4c0-0.1,8.5-0.1,18.9,0.2c10.4,0.3,18.9,0.6,18.9,0.7c0,0.1-8.5,0.1-18.9-0.2
										C614.7,463.9,606.3,463.6,606.3,463.4z"/>
								</g>
							</g>
						</g>
					</g>
				</g>
			</g>
			<path class="st7" d="M466.5,417.4c0,0-11.1,49.1,24.2,55.1c14.2,2.4,49.7,0.5,49.7,0.5l41.6-69.6l6.7,36.7l38.8-2.1
				c0,0-10.5-63.4-14.4-77.6c-5.2-19-27.4-17.4-37.6-12.8c-8.7,3.9-31.1,24.3-45,39.9c-5.9,6.6-12.4,12.5-17.9,18.2
				c-7.3,7.5-13,13.8-13,13.8L466.5,417.4z"/>
			<g>
				<g>
					<g>
						<path class="st1" d="M581.9,403.4c0.1,0.1-9.1,15.7-20.6,35c-11.5,19.2-20.9,34.8-21,34.7c-0.1-0.1,9.1-15.7,20.6-35
							C572.4,418.8,581.8,403.3,581.9,403.4z"/>
					</g>
				</g>
			</g>
			<g>
				<g>
					<g>
						<path class="st1" d="M622.3,407.9c0,0,0.1,0.2,0.1,0.5c0.1,0.4,0.2,0.9,0.3,1.6c0.3,1.4,0.6,3.5,1.1,6.1
							c0.9,5.3,2.2,12.8,3.8,21.7c0,0.1-0.1,0.2-0.2,0.3h0c-8.2,0.5-17.7,1-27.9,1.6c-3.7,0.2-7.4,0.4-10.9,0.6
							c-0.1,0-0.2-0.1-0.3-0.2v0c-2.4-13.3-4.5-24.9-6-33.3c-0.7-4.1-1.3-7.5-1.7-9.8c-0.2-1.1-0.3-2-0.4-2.6c0-0.3-0.1-0.5-0.1-0.7
							c0-0.1,0-0.2,0-0.2c0,0,0,0.1,0.1,0.2c0,0.2,0.1,0.4,0.2,0.7c0.1,0.6,0.3,1.5,0.5,2.6c0.4,2.3,1.1,5.7,1.9,9.8
							c1.5,8.4,3.7,20,6.2,33.3l-0.3-0.2c3.5-0.2,7.2-0.4,10.9-0.6c10.2-0.5,19.7-1.1,27.9-1.5l-0.2,0.3c-1.5-9-2.7-16.4-3.6-21.7
							c-0.4-2.6-0.8-4.7-1-6.1c-0.1-0.7-0.2-1.2-0.2-1.6C622.3,408.1,622.3,407.9,622.3,407.9z"/>
					</g>
				</g>
			</g>
			<g>
				<g>
					<g>
						<path class="st1" d="M512.6,405.9c0,0-0.4,0.5-1.1,1.3c-0.8,0.9-1.9,2.1-3.2,3.5c-2.8,3-6.5,7.1-10.7,11.6
							c-4.2,4.5-8.1,8.6-11,11.4c-1.5,1.4-2.6,2.5-3.5,3.3c-0.8,0.8-1.3,1.2-1.3,1.1c0,0,0.4-0.5,1.2-1.3c0.9-0.9,2-2,3.4-3.4
							c2.8-2.9,6.7-7,10.9-11.5c4.2-4.5,8-8.6,10.8-11.5c1.4-1.5,2.5-2.6,3.4-3.4C512.1,406.3,512.5,405.8,512.6,405.9z"/>
					</g>
				</g>
			</g>
			<g>
				<g>
					<g>
						<path class="st1" d="M499.6,419.3c0,0-0.3,0.2-0.8,0.4s-1.3,0.6-2.3,1c-2,0.8-4.7,1.8-7.8,2.9s-5.8,2.1-7.8,2.9
							c-2,0.8-3.2,1.3-3.2,1.3c0,0,0.3-0.2,0.8-0.5c0.5-0.3,1.3-0.7,2.3-1.1c1.9-0.9,4.7-2,7.7-3.1c3-1,5.7-2,7.8-2.8
							C498.3,419.7,499.6,419.2,499.6,419.3z"/>
					</g>
				</g>
			</g>
		</g>
		<g>
			<path class="st12" d="M571.6,344.9l6.1-15.5c0.3-0.9,0.4-1.8,0.1-2.7c-1-2.5-3.6-0.8-3.6-0.8c-0.1-4.9-3.8-1.8-3.8-1.8
				c0.1-4.5-5.6-2.4-5.6-2.4l1.5-4.6c0,0,2-0.2,3.7-0.1c1.9,0.1,4-1.9,2.9-3.7c-1-1.7-7.2-3.3-11.3-0.6
				c-5.3,3.5-10.1,29.9-10.1,29.9l-7.3,30.4l18.8,3.3L571.6,344.9z"/>
			<g>
				<g>
					<g>
						<path class="st1" d="M570.3,323.4c0,0,0,0.3-0.1,0.8s-0.3,1.3-0.6,2.2c-0.3,0.9-0.8,2-1.6,3.1c-0.4,0.5-0.9,1-1.5,1.5
							c-0.6,0.4-1.3,0.8-2.2,0.7c-0.4-0.1-0.8-0.2-1.1-0.6c-0.3-0.3-0.4-0.7-0.5-1.1c-0.1-0.8,0-1.4,0.1-2.1
							c0.2-1.3,0.5-2.4,0.8-3.3c0.6-1.9,1.1-3,1.1-2.9c0.1,0-0.3,1.2-0.8,3c-0.2,0.9-0.5,2-0.7,3.3c-0.1,0.6-0.2,1.3-0.1,1.9
							c0.1,0.6,0.5,1.1,1.2,1.2c0.6,0.1,1.3-0.2,1.8-0.6c0.5-0.4,1-0.9,1.4-1.3c0.8-1,1.3-2,1.6-2.9
							C569.9,324.5,570.2,323.4,570.3,323.4z"/>
					</g>
				</g>
			</g>
			<g>
				<g>
					<g>
						<path class="st1" d="M574.1,325.4c0.1,0,0.2,0.7,0,1.9c-0.2,1.2-0.8,2.8-2.1,4.2c-0.6,0.7-1.4,1.2-2.2,1.4
							c-0.8,0.2-1.7-0.2-2.1-0.7c-0.4-0.5-0.6-1-0.7-1.3c-0.1-0.3-0.1-0.5-0.1-0.5c0.1,0,0.2,0.7,1,1.6c0.4,0.4,1,0.6,1.7,0.5
							c0.7-0.2,1.4-0.7,2-1.3c1.2-1.3,1.8-2.8,2.1-3.9C574,326.2,574,325.4,574.1,325.4z"/>
					</g>
				</g>
			</g>
			<g>
				<g>
					<g>
						<g>
							<path class="st1" d="M577.1,331.2c0,0-0.1,0.4-0.6,0.9c-0.5,0.5-1.3,1-2.3,1.2c-0.5,0.1-1,0.1-1.5,0
								c-0.5-0.1-0.9-0.4-1.1-0.7c-0.2-0.3-0.2-0.6-0.1-0.8c0.1-0.2,0.2-0.3,0.2-0.2c0.1,0-0.1,0.4,0.2,0.9c0.3,0.5,1.2,0.5,2.1,0.4
								C576,332.5,577,331.1,577.1,331.2z"/>
						</g>
					</g>
				</g>
			</g>
			<g>
				<g>
					<g>
						<path class="st1" d="M560.2,340.4c0,0,0.3-0.3,0.4-1c0.2-0.7,0-1.8-0.6-2.9c-0.3-0.6-0.7-1.2-1.1-1.9
							c-0.4-0.7-0.7-1.5-0.7-2.5c0-0.5,0.1-1,0.4-1.4c0.3-0.4,0.7-0.8,1-1.1c0.8-0.6,1.6-1.1,2.1-1.9c0.5-0.8,0.8-1.8,0.7-2.6
							c0-0.9-0.5-1.8-1.1-2.1c-0.7-0.4-1.5,0-2.1,0.4c-0.7,0.4-1.2,0.8-1.7,1.3c-1.9,1.8-2.6,3.4-2.7,3.3c0,0,0.1-0.4,0.5-1.1
							c0.4-0.6,1-1.6,1.9-2.5c0.5-0.5,1.1-0.9,1.7-1.4c0.3-0.2,0.7-0.4,1.1-0.6c0.4-0.1,1-0.1,1.4,0.1c0.9,0.5,1.3,1.5,1.4,2.5
							c0.1,1-0.2,2.1-0.8,3c-0.6,0.9-1.5,1.5-2.3,2c-0.8,0.5-1.3,1.3-1.3,2.1c0,1.7,1,3,1.6,4.2c0.6,1.2,0.7,2.4,0.5,3.1
							c-0.1,0.4-0.3,0.6-0.4,0.8C560.3,340.4,560.2,340.4,560.2,340.4z"/>
					</g>
				</g>
			</g>
		</g>
		<g>
			<path class="st1" d="M530.9,264.4c0,0,24,1.2,14.5,25.8c-6.3,16.2-32.9,25.1-32.9,25.1l-9.5-7l16.1-39.2L530.9,264.4z"/>
			<g>
				<path class="st12" d="M502.6,329.2L502.6,329.2l1.2-25.6l3.3-21.3l21.5-13.2l3.2,1c7.4,2.4,14.3,8.3,13.5,16.7l0,0.1
					c0,0-1.4,20-4.3,26.5c-3.5,8.1-9.6,7.7-11.4,10.9c-1.1,1.8-1.4,4.3-1.4,6.4c0,4-2.6,7.5-6.3,8.6
					C517,340.9,509.8,340.1,502.6,329.2z"/>
				<path d="M542.8,283.5c-0.2-0.4-0.6-0.5-0.9-0.7s-0.7-0.2-1.1-0.2c0,0-0.1,0-0.1,0c-0.2,0-0.4,0-0.6,0c-0.2,0-0.5,0-0.7,0.1
					c0,0,0,0-0.1,0c-0.3,0.1-0.5,0.1-0.7,0.3c0,0,0,0-0.1,0h0c0,0-0.1,0-0.1,0c-0.4,0.2-0.8,0.5-1.1,1c-0.2,0.5-0.3,1.1,0.1,1.5
					c0.2,0.2,0.5,0.3,0.8,0.3c0.4,0.1,0.8,0.1,1.3,0.2c0.5,0.1,1.1,0.2,1.7,0.1s1.1-0.3,1.5-0.8C543,284.8,543.1,284,542.8,283.5z"
					/>
				<path d="M527.8,282.5c-0.2-0.4-0.6-0.5-0.9-0.7s-0.7-0.2-1.1-0.2c0,0-0.1,0-0.1,0c-0.2,0-0.4,0-0.6,0c-0.2,0-0.5,0-0.7,0.1
					c0,0,0,0-0.1,0c-0.3,0.1-0.5,0.1-0.7,0.3c0,0-0.1,0-0.1,0h0c0,0-0.1,0-0.1,0c-0.4,0.2-0.8,0.5-1.1,1c-0.2,0.5-0.3,1.1,0.1,1.5
					c0.2,0.2,0.5,0.3,0.8,0.3c0.4,0.1,0.8,0.1,1.3,0.2c0.5,0.1,1.1,0.2,1.7,0.1s1.1-0.3,1.5-0.8C528,283.8,528.2,283,527.8,282.5z"
					/>
				<path d="M523.2,291.5c0.1-0.7,0-1.5,0.5-2.1l0.1-0.1c0.5-0.2,1.1-0.2,1.5,0c0.4,0.3,0.6,0.8,0.6,1.3c0,0.7-0.2,1.3-0.4,2
					c-0.1,0.3-0.2,0.7-0.4,1c-0.2,0.3-0.5,0.5-0.8,0.6c-0.5,0.1-1.1-0.4-1.2-1C523,292.7,523.1,292.1,523.2,291.5z"/>
				<path d="M537.3,293.8c0.1-0.7,0-1.5,0.5-2.1l0.1-0.1c0.5-0.2,1.1-0.2,1.5,0c0.4,0.3,0.6,0.8,0.6,1.3c0,0.7-0.2,1.3-0.4,2
					c-0.1,0.3-0.2,0.7-0.4,1c-0.2,0.3-0.5,0.5-0.8,0.6c-0.5,0.1-1.1-0.4-1.2-1C537.1,295,537.2,294.4,537.3,293.8z"/>
				<path class="st13" d="M534.3,321c-7.8,1.7-12.3,0.4-18.9-2.4c3.7,4.4,8.1,5.6,13.7,7.1c0,0,0.3-1.4,2-2.7
					C532.9,321.5,534.3,321,534.3,321z"/>
				<g>
					<g>
						<g>
							<path class="st1" d="M529.1,301.3c0-0.1,0.8-0.3,1.9-1c0.5-0.4,1.2-0.9,1.6-1.6c0.3-0.4,0.5-0.8,0.7-1.2
								c0.2-0.6,0.3-0.5-0.3-0.5c-1.1,0.1-2.1,0.2-3.1,0.3h0c-0.1,0-0.2-0.1-0.3-0.2v0c0.2-2.7,0.4-4.5,0.5-4.5c0.1,0,0.1,1.9,0,4.5
								l-0.3-0.3c1-0.1,2-0.3,3.1-0.4c0.1,0,0.3,0,0.4,0c0.2,0,0.4,0.1,0.5,0.3s0.1,0.5,0,0.6l-0.1,0.4c-0.2,0.5-0.5,0.9-0.7,1.3
								c-0.6,0.8-1.2,1.3-1.8,1.7C530,301.3,529.1,301.3,529.1,301.3z"/>
						</g>
					</g>
				</g>
				<path class="st1" d="M499.5,269.4c-1-2.8-2.9-5.3-5.3-7c-3.4-2.5-7.9-3.4-12-2.4c-1.7,0.4-3.3,1.1-4.6,2.3s-1.9,3-1.6,4.7
					c0.3,1.6,1.6,2.9,3.1,3.7c1.5,0.8,3.1,1.1,4.7,1.5c-2.9,1.7-5.1,4.5-5.9,7.8c-0.4,1.5-0.5,3.1,0.4,4.4c1,1.4,2.9,1.8,4.5,1.5
					s3.1-1.4,4.4-2.4c2-1.5,3.8-3.1,5.6-4.9c-5.8,12.5-0.1,27.1,11.1,35.2l2.7-19.5c12.5-5.8,20.7-17.4,24.2-29.8
					C518.7,258.6,507.1,262.1,499.5,269.4z"/>
				<g>
					<g>
						<path class="st12" d="M509,307.7c-2.8,0.1-6.4-1.8-7.7-3.3c-1.7-2-2.4-4.2-2.1-6.8c0.3-2.6,1.8-5.2,4.3-6.3
							c2.4-1.1,5.6-0.4,7.1,1.9"/>
					</g>
					<g>
						<path class="st13" d="M509,298c-0.3-1.5-1.4-2.7-2.8-3.1c-1.4-0.4-3,0.1-4,1.2c-1,1.1-1.2,2.8-0.6,4.1
							c0.4,0.9,1.2,1.6,1.9,2.3c0.5,0.5,1.2,1,1.9,0.7c0.6-0.2,0.9-0.9,1-1.6s-0.1-1.3,0-2s0.5-1.3,1.2-1.3c0.2,0,0.5,0.1,0.7,0.1
							c0.2,0,0.5,0,0.6-0.2c0.1-0.2,0.1-0.5-0.1-0.6"/>
					</g>
					<g>
						<g>
							<g>
								<path class="st1" d="M507.8,303.2c0,0-0.3,0-0.7-0.3c-0.4-0.3-0.8-0.9-1-1.7c-0.1-0.4-0.1-0.9-0.1-1.4
									c0-0.5,0.1-1.1,0.5-1.6c0.4-0.5,1.1-0.8,1.8-0.6c0.7,0.2,1.2,0.7,1.5,1.3c0.2,0.3,0.3,0.6,0.5,0.8l-0.5,0.2
									c-0.6-2.1-2.1-3.6-3.3-4.4c-1.2-0.8-2.1-0.9-2.1-1c0,0,0.2,0,0.6,0.1c0.4,0.1,1,0.3,1.6,0.6c1.3,0.7,3,2.2,3.6,4.5
									c0,0.1,0,0.3-0.2,0.3c-0.1,0-0.3,0-0.3-0.1c-0.1-0.3-0.3-0.5-0.4-0.8c-0.3-0.5-0.7-0.9-1.2-1.1c-0.5-0.2-1,0-1.3,0.4
									c-0.5,0.8-0.5,1.9-0.4,2.6c0.1,0.8,0.4,1.4,0.7,1.6C507.5,303.1,507.8,303.1,507.8,303.2z"/>
							</g>
						</g>
					</g>
				</g>
			</g>
			<g>
				<g>
					<g>
						<path class="st1" d="M526.9,307.5c0,0-0.8,0.3-2-0.3c-0.6-0.3-1.2-0.8-1.6-1.6c-0.4-0.8-0.6-1.8-0.2-2.8
							c0.1-0.3,0.3-0.5,0.6-0.6s0.6-0.1,0.8-0.1c0.5,0.1,0.9,0.3,1.3,0.5c0.7,0.3,1.4,0.6,2,0.9c1.1,0.5,1.8,0.9,1.8,0.9
							c0,0.1-0.8-0.2-1.9-0.6c-0.7-0.3-1.3-0.5-2-0.8c-0.4-0.1-0.8-0.3-1.2-0.4c-0.4-0.1-0.7,0.1-0.9,0.5c-0.3,0.8-0.1,1.7,0.2,2.4
							c0.3,0.7,0.8,1.2,1.4,1.5C526.1,307.5,526.9,307.4,526.9,307.5z"/>
					</g>
				</g>
			</g>
		</g>
		<g>
			<path class="st1" d="M615.1,344.3h-50.3c-1.8,0-3.3-1.5-3.3-3.3l0,0c0-1.8,1.5-3.3,3.3-3.3h50.3c1.8,0,3.3,1.5,3.3,3.3l0,0
				C618.3,342.8,616.9,344.3,615.1,344.3z"/>
			<path class="st1" d="M638.4,295.4l-20.1,46.1c-0.7,1.7-2.7,2.4-4.3,1.7l0,0c-1.7-0.7-2.4-2.6-1.7-4.3l20.1-46.1
				c0.7-1.7,2.7-2.4,4.3-1.7l0,0C638.4,291.8,639.2,293.7,638.4,295.4z"/>
			<path class="st15" d="M613.2,338.3c1.4,1.7,2.8,3.3,4.2,5"/>
		</g>
		<g>
			<g>
				<path class="st8" d="M503.7,323.8c0,0-10.4,8-15.8,18.9c-3.8,7.7-8.4,18.3-12.5,32.2c-4.5,15-12.3,42.8-12.3,42.8l36.2,2.1
					l43.7-45.8c0,0-0.6-14.5-3.8-22s-8.4-19.6-9.4-20.4C528.8,330.6,503.7,323.8,503.7,323.8z"/>
				<g>
					<g>
						<g>
							<path class="st1" d="M514.7,327.2c0,0,0.4,0,1.1,0c0.7,0,1.7,0.2,3,0.6s2.9,1,4.6,2c1.7,1,3.5,2.4,5,4.4c0.3,0.5,0.8,1,1,1.6
								c0.3,0.6,0.6,1.2,0.8,1.8c0.1,0.3,0.3,0.6,0.4,1c0.1,0.3,0.2,0.7,0.3,1c0.2,0.7,0.3,1.4,0.4,2.1c0.5,2.9,1,6.1,1.6,9.4
								c1.2,6.7,2.4,14.2,3.8,22.2c0,0.1-0.1,0.3-0.2,0.3l0,0c-8.1,1.3-16.9,2.8-26.1,4.3c-6.3,1-12.4,2-18.2,3
								c-0.1,0-0.3-0.1-0.3-0.2c0,0,0,0,0-0.1c0.9-9.1,2-17.7,3.1-25.3c0.6-3.8,1.2-7.4,1.8-10.8c0.6-3.3,1.4-6.4,2.8-9
								c1.3-2.5,3.1-4.6,4.9-5.9c1.8-1.4,3.7-2,5.2-2.4c1.5-0.3,2.8-0.4,3.6-0.3c0.4,0,0.7,0,0.9,0.1
								C514.6,327.1,514.7,327.2,514.7,327.2c0,0-0.1,0-0.3,0c-0.2,0-0.5,0-0.9,0c-0.8,0-2,0-3.5,0.4c-1.5,0.3-3.3,1.1-5.1,2.4
								c-1.8,1.3-3.5,3.3-4.8,5.8c-1.4,2.5-2.1,5.6-2.7,8.9c-0.6,3.3-1.2,6.9-1.8,10.8c-1.1,7.6-2.2,16.2-3.1,25.3l-0.3-0.3
								c5.8-1,11.9-2,18.2-3c9.2-1.5,18-3,26.1-4.3l-0.2,0.3c-1.4-8-2.6-15.5-3.8-22.2c-0.6-3.3-1.1-6.5-1.6-9.4
								c-0.1-0.7-0.2-1.5-0.4-2.1c-0.1-0.3-0.2-0.7-0.3-1c-0.1-0.3-0.2-0.6-0.3-1c-0.2-0.6-0.5-1.2-0.8-1.8c-0.3-0.6-0.7-1.1-1-1.6
								c-1.4-2-3.2-3.4-4.9-4.4c-1.7-1-3.2-1.6-4.5-2c-1.3-0.4-2.3-0.6-3-0.7C515.1,327.2,514.7,327.2,514.7,327.2z"/>
						</g>
					</g>
				</g>
				<path class="st12" d="M505.1,378.5c0,0,0.5,16.9,9.3,29.5c7.1,10.1,24.9,5.5,30.8-2.8c5.8-8.1,34.9-50.1,34.9-50.1l-14.8-11.9
					l-31.8,38l-0.4-7.1L505.1,378.5z"/>
				<path class="st12" d="M588.7,344.1c2.3-4.3-2.8-3.8-2.8-3.8c2.3-3.9-3.3-4.4-3.3-4.4l1-1.5c0,0,1.2-1.4,0-2.9
					c-0.9-1.1-3.4-0.9-3.4-0.9c-6.5,1.2-15.9,13.9-15.9,13.9l12.9,15l13.6-11.5C592.8,343.4,588.7,344.1,588.7,344.1z"/>
				<g>
					<g>
						<g>
							<path class="st1" d="M581.5,337.1c0,0,0-0.1,0.1-0.2c0.1-0.2,0.3-0.4,0.4-0.6c0.4-0.5,1-1.3,1.6-2.3c0.4-0.5,0.5-1.2,0.2-1.8
								c-0.3-0.7-1-1.1-1.9-1.2c-0.8-0.1-1.8-0.1-2.7,0.1c-1,0.2-1.8,0.8-2.7,1.4c-1.8,1.3-3.7,2.7-5.6,4.5c-1.5,2-3.4,4.2-5.3,6.3
								c-3.8,4.4-7.9,9.4-12.3,14.5c-7.3,8.7-14.1,16.6-19.3,22.9l0,0c-2.8,5-4.4,9.4-5.5,12.5c-0.5,1.5-0.9,2.8-1.1,3.6
								c-0.1,0.4-0.2,0.7-0.3,1c-0.1,0.2-0.1,0.3-0.1,0.3s0-0.1,0-0.3c0-0.3,0.1-0.6,0.2-1c0.2-0.8,0.5-2.1,1-3.6
								c1-3.1,2.6-7.6,5.3-12.6l0,0c5.3-6.3,12-14.3,19.3-22.9c4.4-5.1,8.4-10.1,12.3-14.5c2-2.2,3.7-4.2,5.4-6.3
								c1.9-1.8,3.8-3.3,5.7-4.5c0.9-0.6,1.8-1.2,2.9-1.4c1-0.2,2-0.3,2.8-0.1c0.4,0.1,0.9,0.2,1.2,0.4s0.6,0.6,0.8,0.9
								c0.4,0.7,0.1,1.6-0.3,2c-0.7,1-1.3,1.8-1.7,2.3c-0.2,0.2-0.3,0.4-0.5,0.6C581.5,337,581.5,337.1,581.5,337.1z"/>
						</g>
					</g>
				</g>
				<path class="st1" d="M492.2,380.7l9-0.6l7.5,16.8c0,0-4.4-16.3-3.7-18.4L492.2,380.7z"/>
			</g>
			<g>
				<g>
					<g>
						<path class="st1" d="M586.3,339.6c0.1,0.1-0.3,1.1-1.2,2c-0.9,1-1.8,1.5-1.9,1.4c-0.1-0.1,0.7-0.8,1.5-1.7
							C585.6,340.4,586.2,339.6,586.3,339.6z"/>
					</g>
				</g>
			</g>
			<g>
				<g>
					<g>
						<path class="st1" d="M589,343.6c0.1,0-0.1,0.9-0.9,1.7c-0.8,0.7-1.7,0.9-1.7,0.8c0-0.1,0.7-0.5,1.4-1.2
							C588.5,344.3,588.9,343.6,589,343.6z"/>
					</g>
				</g>
			</g>
		</g>
	</g>
	<g>
		<path class="st9" d="M122.9,317.6c0.6-3.6-0.5-10.3-3.6-12.3c-3-2-7.3-2.1-10.4-0.1c-0.1-6.4-5.5-12.3-11.9-12.8
			c-6.4-0.5-12.8,4.4-13.8,10.7c-4.1-2.1-9.4-1.5-12.9,1.6s-4.9,8.2-3.3,12.6L122.9,317.6z"/>
	</g>
	<g>
		<g>
			<g>
				<path class="st1" d="M220.3,337c0.1,0-1.5,14.1-3.6,31.4s-4,31.4-4.1,31.4c-0.1,0,1.5-14.1,3.6-31.4S220.1,337,220.3,337z"/>
			</g>
		</g>
	</g>
</g>
</svg>
