<?xml version="1.0" encoding="utf-8"?>
<!-- Generator: Adobe Illustrator 23.0.5, SVG Export Plug-In . SVG Version: 6.00 Build 0)  -->
<svg version="1.1" id="Layer_1" xmlns="http://www.w3.org/2000/svg" xmlns:xlink="http://www.w3.org/1999/xlink" x="0px" y="0px"
	 viewBox="0 0 97.5 110" style="enable-background:new 0 0 97.5 110;" xml:space="preserve">
<style type="text/css">
	.st0{fill:#FFFFFF;stroke:#1F2957;stroke-width:3;stroke-miterlimit:10;}
	.st1{fill:url(#SVGID_1_);}
</style>
<path class="st0" d="M95.5,79.8V29.9c0-1.3-0.7-2.5-1.8-3.1L50.6,1.9c-1.1-0.6-2.5-0.6-3.6,0L3.8,26.8C2.7,27.5,2,28.7,2,29.9v49.9
	c0,1.3,0.7,2.5,1.8,3.1L47,107.8c1.1,0.6,2.5,0.6,3.6,0l43.2-24.9C94.8,82.3,95.5,81.1,95.5,79.8z"/>
<g>
	<g id="_22_Customer_Survey_Customer_Report_Laptop_Online_Feedback">
		<linearGradient id="SVGID_1_" gradientUnits="userSpaceOnUse" x1="16.2" y1="53.95" x2="77.9" y2="53.95">
			<stop  offset="0" style="stop-color:#F26622"/>
			<stop  offset="1" style="stop-color:#182D41"/>
		</linearGradient>
		<path class="st1" d="M76.7,76h-2.2V39.6c0-2.6-1.8-4.9-4.4-5.4v-0.1c0-6.1-4.9-11-11-11s-11,4.9-11,11s4.9,11,11,11
			c5.2,0,9.7-3.6,10.8-8.7c1.4,0.4,2.5,1.7,2.5,3.2V76h-2.2V42.9H68V76H26.1V40.7h19.8v-2.2H25c-0.6,0-1.1,0.5-1.1,1.1V76h-2.2V39.6
			c0-1.8,1.5-3.3,3.3-3.3h20.9v-2.2H25c-3,0-5.5,2.5-5.5,5.5V76h-2.2c-0.6,0-1.1,0.5-1.1,1.1v2.2c0,3,2.5,5.5,5.5,5.5h50.7
			c3,0,5.5-2.5,5.5-5.5v-2.2C77.8,76.4,77.4,76,76.7,76z M59.1,42.9c-4.9,0-8.8-3.9-8.8-8.8s3.9-8.8,8.8-8.8s8.8,3.9,8.8,8.8
			S64,42.9,59.1,42.9z M75.6,79.3c0,1.8-1.5,3.3-3.3,3.3l0,0H21.7c-1.8,0-3.3-1.5-3.3-3.3l0,0v-1.1h57.3L75.6,79.3L75.6,79.3z
			 M50.3,53.9h-6.6c-0.6,0-1.1,0.5-1.1,1.1v14.3h-3.3v-9.9c0-0.6-0.5-1.1-1.1-1.1h-6.6c-0.6,0-1.1,0.5-1.1,1.1v9.9h-2.2v2.2h37.5
			v-2.2h-2.2V48.4c0-0.6-0.5-1.1-1.1-1.1h-6.6c-0.6,0-1.1,0.5-1.1,1.1v20.9h-3.3V55C51.4,54.4,50.9,53.9,50.3,53.9z M32.7,69.3v-8.8
			h4.4v8.8H32.7z M44.8,69.3V56.1h4.4v13.2C49.2,69.3,44.8,69.3,44.8,69.3z M56.9,49.5h4.4v19.8h-4.4V49.5z M63.5,31.9h-2.2v-3.3
			h2.2V31.9z M56.9,31.9h-2.2v-3.3h2.2V31.9z M63.5,35.2h2.2c0,4-3.3,6.1-6.6,6.1c-1.6,0-3.2-0.5-4.5-1.5c-1.4-1.1-2.2-2.8-2.1-4.6
			h2.2c0,2.7,2.2,3.9,4.4,3.9C61.3,39,63.5,37.9,63.5,35.2z"/>
	</g>
</g>
</svg>
