<?xml version="1.0" encoding="utf-8"?>
<!-- Generator: Adobe Illustrator 23.0.5, SVG Export Plug-In . SVG Version: 6.00 Build 0)  -->
<svg version="1.1" id="Layer_1" xmlns:svgjs="http://svgjs.com/svgjs"
	 xmlns="http://www.w3.org/2000/svg" xmlns:xlink="http://www.w3.org/1999/xlink" x="0px" y="0px" viewBox="0 0 512 512"
	 style="enable-background:new 0 0 512 512;" xml:space="preserve">
<style type="text/css">
	.st0{fill:#F26622;}
	.st1{fill:#01213B;}
</style>
<g>
	<g>
		<path class="st0" d="M328,120h-16V56h-32V8h-48v32h-32v80h-16v16h144V120z M232,120h-16V56h16V120z M264,56v64h-16V40V24h16V56z
			 M296,120h-16V72h16V120z"/>
		<path class="st0" d="M13.8,179.6l30.6,30.6l10.2-4.8l3.8,10.6h43.2l3.8-10.6l10.2,4.8l30.6-30.6l-4.8-10.2l10.6-3.8v-43.2
			l-10.6-3.8l4.8-10.2l-30.6-30.6l-10.2,4.8L101.6,72H58.4l-3.8,10.6l-10.2-4.8l-30.6,30.6l4.8,10.2L8,122.4v43.2l10.6,3.8
			L13.8,179.6z M24,133.6l6.6-2.4l3.6-1.7l3.4-8.2l-4.5-9.6L47.8,97l9.6,4.5L66,98l3.6-10h20.8l2.4,6.6l1.7,3.6l8.2,3.4l9.6-4.5
			l14.7,14.7l-4.5,9.6l3.6,8.6l10,3.6v20.8l-6.6,2.4l-3.6,1.7l-3.4,8.2l4.5,9.6L112.2,191l-9.6-4.5L94,190l-3.6,10H69.6l-2.4-6.6
			l-1.7-3.6l-8.2-3.4l-9.6,4.5L33,176.2l4.5-9.6L34,158l-10-3.6V133.6z"/>
		<path class="st0" d="M80,184c22.1,0,40-17.9,40-40s-17.9-40-40-40s-40,17.9-40,40S57.9,184,80,184z M80,120c13.2,0,24,10.8,24,24
			s-10.8,24-24,24s-24-10.8-24-24S66.8,120,80,120z"/>
		<path class="st0" d="M480,88H368c-13.2,0-24,10.8-24,24v64c0,13.2,10.8,24,24,24h24v12.7c0,10.6,8.7,19.3,19.3,19.3
			c5.2,0,10-2,13.7-5.7l26.3-26.3H480c13.2,0,24-10.8,24-24v-64C504,98.8,493.2,88,480,88z M488,176c0,4.4-3.6,8-8,8h-35.3l-31,31
			c-1.9,1.9-5.7,0.4-5.7-2.3V184h-40c-4.4,0-8-3.6-8-8v-64c0-4.4,3.6-8,8-8h112c4.4,0,8,3.6,8,8V176z"/>
		<path class="st0" d="M376,120h16v16h-16V120z"/>
		<path class="st0" d="M408,120h64v16h-64V120z"/>
		<path class="st0" d="M376,152h96v16h-96V152z"/>
		<path class="st1" d="M385.3,288l-27.8-9.3c1.7-7.4,2.5-15,2.5-22.7c0-57.3-46.7-104-104-104s-104,46.7-104,104
			c0,11,1.8,21.7,5.1,32h-44.5L8,270.6v130.9l102.5-17.1l33.8,19.3c-0.2,1.2-0.3,2.5-0.3,3.7c0,13.2,10.5,23.9,24,24.5
			c0.3,13,10.6,23.4,24,24c0.3,13,10.6,23.4,24,24c0.3,13.3,11.2,24.1,24.6,24.1h1.1c6,0,11.8-2.2,16.3-6.2l7-6.2
			c4.1,2.8,8.9,4.3,14,4.3c13.5,0,24.4-10.7,24.9-24.1c13.1-0.5,23.5-10.9,24-24c13.1-0.5,23.5-10.9,24-24c13.1-0.5,23.6-11,24-24.1
			l25.7-15.4L504,401.4V270.6L399.3,288H385.3z M104,369.2l-80,13.3v-93.1l80,13.3V369.2z M334.3,216c5,9.8,8.3,20.6,9.3,32h-39.8
			c-0.4-11.4-1.5-22.1-3.3-32H334.3z M343.6,264c-0.3,3.2-0.8,6.5-1.4,9.6l-16-5.3c-7.3-2.4-14.8-3.7-22.4-4.1c0-0.1,0-0.1,0-0.2
			H343.6L343.6,264z M323.8,200h-27c-2.9-10.4-6.7-19.4-11.1-26.7C300.7,178.7,313.9,187.9,323.8,200z M256,168
			c8.6,0,17.8,12.2,24.1,32H232C238.2,180.2,247.4,168,256,168z M284.2,216c2,9.7,3.3,20.4,3.7,32h-63.7c0.4-11.6,1.7-22.3,3.7-32
			H284.2z M287.7,264c0,0.3,0,0.6,0,0.9c-4.5,0.7-9,1.7-13.3,3.1l-37.8,12c-3.1,0-6.3,0.1-9.4,0.6l-1.6,0.2
			c-0.6-5.5-1.1-11.1-1.3-16.8L287.7,264z M226.3,173.3c-4.4,7.4-8.2,16.4-11.1,26.7h-27C198.1,187.9,211.3,178.7,226.3,173.3
			L226.3,173.3z M177.7,216h33.7c-1.8,9.9-2.9,20.6-3.3,32h-39.8C169.4,236.6,172.7,225.8,177.7,216L177.7,216z M209.7,283.1
			l-34.3,4.9h-1.3c-3-7.7-4.9-15.7-5.7-24h39.9C208.5,270.5,209,276.9,209.7,283.1z M151.7,389.5L120,371.4V304h56l53.5-7.6
			c8.8-1.2,18,0.2,26,4.2L298,322c3.7,1.8,6,5.5,6,9.7v1.6c0,6-4.8,10.8-10.8,10.8c-2,0-3.9-0.5-5.6-1.5l-29.8-17.9
			c-11.8-7.1-27.9-5.6-38.1,3.7l-67.6,60.8C152,389.2,151.9,389.4,151.7,389.5z M247.4,485.8c-1.6,1.4-3.6,2.2-5.7,2.2h-1.1
			c-4.7,0-8.6-3.9-8.6-9.1c0-2.3,0.9-4.5,2.3-5.8l7.5-6.9c1.2,3.1,3.1,6,5.5,8.5l6,6L247.4,485.8z M279,480c-2.4,0-4.6-0.9-6.3-2.6
			l-14.1-14.1c-1.7-1.7-2.6-3.9-2.6-6.3c0-4.9,4-9,9-9c2.4,0,4.6,0.9,6.3,2.6l14.1,14.1c1.7,1.7,2.6,3.9,2.6,6.3
			C288,476,284,480,279,480z M303,456c-2.4,0-4.6-0.9-6.3-2.6l-14.1-14.1c-1.7-1.7-2.6-3.9-2.6-6.3c0-4.9,4-9,9-9
			c2.4,0,4.6,0.9,6.3,2.6l14.1,14.1c1.7,1.7,2.6,3.9,2.6,6.3C312,452,308,456,303,456z M327,432c-2.4,0-4.6-0.9-6.3-2.6l-14.1-14.1
			c-1.7-1.7-2.6-3.9-2.6-6.3c0-4.9,4-9,9-9c2.4,0,4.6,0.9,6.3,2.6l14.1,14.1c1.7,1.7,2.6,3.9,2.6,6.3C336,428,332,432,327,432z
			 M351,408c-2.4,0-4.6-0.9-6.3-2.6l-14.1-14.1c-1.7-1.7-2.6-3.9-2.6-6.3c0-4.9,4-9,9-9c2.4,0,4.6,0.9,6.3,2.6l14.1,14.1
			c1.7,1.7,2.6,3.9,2.6,6.3C360,404,356,408,351,408z M392,371.5l-21.1,12.6c-0.7-0.9-1.4-1.9-2.2-2.7l-14.1-14.1
			c-4.7-4.7-11-7.3-17.7-7.3c-13.5,0-24.4,10.7-24.9,24.1c-13.1,0.5-23.5,10.9-24,24c-13.1,0.5-23.5,10.9-24,24
			c-6.7,0.2-12.7,3.1-17.1,7.6l0,0l-23.8,21.8c-1.6,1.6-3.8,2.5-6.6,2.5c-4.8,0-8.6-3.9-8.6-9.1c0-2.3,0.9-4.5,2.5-6.1l19.1-19.1
			l-11.3-11.3l-19.1,19.1c-1.6,1.6-3.8,2.5-6.6,2.5c-4.8,0-8.6-3.9-8.6-9.1c0-2.3,0.9-4.5,2.5-6.1l19.1-19.1l-11.3-11.3l-19.1,19.1
			c-1.6,1.6-3.8,2.5-6.6,2.5c-4.8,0-8.6-3.9-8.6-8.6c0-2.4,1-4.8,2.8-6.4l67.6-60.8c5.2-4.7,13.2-5.4,19.2-1.8l29.8,17.9
			c4.2,2.5,8.9,3.8,13.8,3.8c14.8,0,26.8-12,26.8-26.8v-1.6c0-10.2-5.7-19.4-14.8-24l-39.9-20l14-4.5c13.5-4.3,28.3-4.3,41.8,0.3
			l61.6,20.5h9.3L392,371.5z M408,302.8l80-13.3v93.1l-80-13.3V302.8z"/>
	</g>
</g>
</svg>
