<?xml version="1.0" encoding="utf-8"?>
<!-- Generator: Adobe Illustrator 23.0.5, SVG Export Plug-In . SVG Version: 6.00 Build 0)  -->
<svg version="1.1" id="Layer_1" xmlns="http://www.w3.org/2000/svg" xmlns:xlink="http://www.w3.org/1999/xlink" x="0px" y="0px"
	 viewBox="0 0 700 400" style="enable-background:new 0 0 700 400;" xml:space="preserve">
<style type="text/css">
	.st0{fill:#00BABA;}
	.st1{fill:#ABD8B3;}
	.st2{fill:#79B99E;}
	.st3{fill:#6A9C7D;}
	.st4{fill:#2F99FF;}
	.st5{fill:#55B3FF;}
	.st6{fill:#2883DA;}
	.st7{fill:#A9E7FF;}
	.st8{fill:#FFFFFF;}
	.st9{opacity:0.57;fill:#FFFFFF;}
	.st10{fill:#FFB728;}
	.st11{fill:#FF901A;}
	.st12{fill:#FFCA78;}
	.st13{fill:#6F3D47;}
	.st14{fill:#F8A085;}
	.st15{fill:#EA7D70;}
	.st16{fill:#2F66C7;}
	.st17{fill:#244F99;}
	.st18{fill:#3574E2;}
	.st19{fill:#1D407C;}
	.st20{fill:#172F51;}
	.st21{fill:#1A396E;}
	.st22{fill:#DC6E63;}
	.st23{fill:#C2E3FF;}
	.st24{fill:#2E66C6;}
	.st25{fill:#502C33;}
	.st26{opacity:0.48;}
	.st27{fill:#005467;}
</style>
<rect class="st0" width="700" height="400"/>
<g>
	<path class="st1" d="M173.6,187.09l9.17-2.49l-10.03-1.36c-5.65-26.86-3.61-53-3.61-53s8.94,6.17,20.2,16.17l-2.81,14.38
		l5.16-12.27c24,21.86,56.06,59.58,36.75,92.24C194.98,241.09,180.1,214.35,173.6,187.09z"/>
	<path class="st2" d="M173.6,187.09l9.17-2.49l-10.03-1.36c-5.65-26.86-3.61-53-3.61-53s20.34,64.1,59.3,110.53
		C194.98,241.09,180.1,214.35,173.6,187.09z"/>
	<path class="st3" d="M217.18,224.8c-4.83-7.49-9.58-15.03-14.17-22.67c-4.57-7.61-8.97-15.33-13.1-23.18
		c-4.12-7.83-7.96-15.8-11.43-23.94c-0.25-0.58-0.49-1.17-0.73-1.75c0-0.03-0.02-0.06-0.04-0.08c-3.1-7.43-5.87-15-8.24-22.69
		c-0.22-0.16-0.35-0.24-0.35-0.24s-0.01,0.11-0.02,0.32c2.23,7.26,4.82,14.4,7.7,21.43c0.13,0.32,0.27,0.64,0.4,0.95
		c-2.82-1.1-5.6-2.31-8.33-3.63c0,0.14,0.01,0.28,0.01,0.42c2.79,1.34,5.63,2.57,8.52,3.69c0.89,2.12,1.8,4.23,2.73,6.33
		c-3.7-0.86-7.35-1.95-10.92-3.24c0.01,0.14,0.02,0.27,0.03,0.41c3.56,1.29,7.2,2.37,10.9,3.22c0.07,0.02,0.12,0,0.16-0.04
		c2.4,5.37,4.96,10.66,7.64,15.89c4.07,7.92,8.43,15.7,12.97,23.36c4.56,7.7,9.3,15.29,14.12,22.82c3.99,6.23,8.04,12.41,12.09,18.6
		c0.15,0,0.3,0,0.45,0C224.1,235.46,220.62,230.14,217.18,224.8z"/>
	<path class="st1" d="M163.4,250.33l15.33-5.01l-17.26,1.57c-13.11-24.11-18.65-49.75-18.65-49.75s10.33,3.35,23.99,9.7l-0.48,14.72
		l3.34-13.36c29.26,14.06,70.79,41.02,61.64,77.84C199.36,295.93,177.43,274.58,163.4,250.33z"/>
	<path class="st2" d="M163.4,250.33l15.33-5.01l-17.26,1.57c-13.11-24.11-18.65-49.75-18.65-49.75s53.66,74.08,88.49,88.89
		C199.36,295.93,177.43,274.58,163.4,250.33z"/>
	<path class="st3" d="M218.85,279.58c-7.15-6-14.12-12.23-20.87-18.67c-6.73-6.42-13.26-13.06-19.58-19.9
		c-5.93-6.43-11.67-13.04-17.21-19.81c0-0.06-0.04-0.12-0.12-0.15c-0.31-0.38-0.63-0.77-0.94-1.15c-0.84-1.04-1.67-2.08-2.51-3.12
		c0-0.01,0-0.01,0.01-0.02c0.5-4.44,1.01-8.89,1.51-13.33c-0.12-0.05-0.24-0.1-0.36-0.15c-0.49,4.36-0.99,8.73-1.48,13.09
		c-0.69-0.87-1.38-1.74-2.07-2.62c0-0.01,0.01-0.02,0-0.03c-0.07-4-0.15-8.01-0.22-12.01c-0.13-0.05-0.25-0.1-0.38-0.15
		c0.07,3.9,0.15,7.8,0.22,11.7c-4.05-5.19-7.98-10.47-11.78-15.85c-0.06-0.08-0.11-0.16-0.17-0.24c-0.05-0.02-0.08-0.03-0.08-0.03
		s0.06,0.29,0.19,0.83c4.66,6.56,9.5,12.99,14.51,19.28c0.98,1.23,1.97,2.46,2.97,3.68c-3.61-0.75-7.28-1.15-10.97-1.19
		c0.04,0.12,0.09,0.25,0.13,0.38c3.77,0.05,7.52,0.47,11.21,1.27c4.81,5.88,9.76,11.64,14.87,17.26c3.42,3.77,6.91,7.47,10.46,11.11
		c-5.35,3.73-10.96,7.07-16.79,9.99c0.07,0.1,0.15,0.21,0.22,0.31c5.85-2.93,11.47-6.28,16.84-10.03c0.99,1.02,1.98,2.03,2.98,3.03
		c-5.28,4.14-10.86,7.88-16.69,11.19c0.08,0.1,0.16,0.2,0.23,0.3c5.84-3.33,11.43-7.08,16.72-11.23c1.86,1.87,3.74,3.73,5.63,5.56
		c6.73,6.52,13.67,12.82,20.8,18.89c3.72,3.17,7.49,6.27,11.32,9.31c0.15-0.04,0.31-0.07,0.46-0.11
		C224.86,284.56,221.84,282.09,218.85,279.58z"/>
	<path class="st1" d="M164.19,295.01l9.18-7.23L161.63,293c-17.63-14.26-29.96-32.08-29.96-32.08s8.95-0.71,21.38-0.18l5.25,10.64
		l-2.64-10.51c26.79,1.48,67.01,8.93,71.67,39.94C206.07,318.46,182.58,309.09,164.19,295.01z"/>
	<path class="st2" d="M164.19,295.01l9.18-7.23L161.63,293c-17.63-14.26-29.96-32.08-29.96-32.08s64.13,35.85,95.66,39.89
		C206.07,318.46,182.58,309.09,164.19,295.01z"/>
	<path class="st3" d="M214.51,298.09c-7.07-2.5-14.08-5.17-21.03-7.98c-7.03-2.85-14-5.84-20.9-8.97c-2.35-1.07-4.7-2.15-7.04-3.25
		c0.01-0.02,0.01-0.04,0.01-0.07c-0.43-5.43-0.85-10.86-1.28-16.28c-0.13-0.01-0.25-0.03-0.38-0.04c0.42,5.41,0.85,10.81,1.27,16.22
		c-0.97-0.46-1.95-0.91-2.92-1.38c0-0.02,0.01-0.04,0.01-0.07c-0.66-5.09-1.57-10.15-2.74-15.15c-0.13-0.01-0.26-0.02-0.39-0.03
		c1.17,4.97,2.08,10,2.74,15.06c-3.22-1.53-6.42-3.09-9.61-4.68c-6.75-3.36-13.45-6.84-20.09-10.42c-0.09-0.05-0.18-0.1-0.27-0.15
		c-0.14,0.01-0.22,0.02-0.22,0.02s0.11,0.16,0.33,0.46c5.82,3.13,11.67,6.19,17.57,9.16c0.79,0.4,1.58,0.79,2.37,1.18
		c-2.74,1.37-5.48,2.74-8.21,4.1c0.09,0.1,0.17,0.19,0.26,0.29c2.75-1.37,5.5-2.75,8.25-4.12c0.04-0.02,0.06-0.05,0.08-0.08
		c5.86,2.92,11.77,5.75,17.72,8.48c6.8,3.12,13.67,6.11,20.59,8.96c6.97,2.86,13.99,5.58,21.08,8.14c4.59,1.65,9.2,3.23,13.84,4.74
		c0.12-0.09,0.24-0.18,0.36-0.27C222.09,300.71,218.29,299.43,214.51,298.09z"/>
	<path class="st1" d="M509.28,179.76l-9.39-1.42l9.81-2.5c2.53-27.33-2.51-53.07-2.51-53.07s-8.17,7.15-18.21,18.38l4.9,7.7
		l-6.99-5.33c-21.33,24.47-48.85,65.63-25.91,95.85C494.24,235.86,505.95,207.58,509.28,179.76z"/>
	<path class="st2" d="M509.28,179.76l-9.39-1.42l9.81-2.5c2.53-27.33-2.51-53.07-2.51-53.07l-46.21,116.61
		C494.24,235.86,505.95,207.58,509.28,179.76z"/>
	<path class="st3" d="M510.4,159.13c-5.13,1.49-10.19,3.22-15.16,5.18c-1.67,0.66-3.32,1.34-4.97,2.05c0.25-0.64,0.5-1.28,0.75-1.92
		c0.38-0.99,0.76-1.97,1.15-2.96c0.02,0,0.05-0.01,0.07-0.02c5.89-3.01,11.92-5.73,18.07-8.15c0-0.13-0.01-0.26-0.01-0.4
		c-4.36,1.71-8.65,3.57-12.88,5.58c-1.69,0.8-3.37,1.63-5.04,2.48c3.07-7.9,6.13-15.8,9.2-23.7c1.88-4.83,3.75-9.67,5.63-14.5
		c-0.01,0.01-0.22,0.19-0.61,0.55c-3.34,8.61-6.68,17.21-10.02,25.82c-3.49,9-6.99,18-10.48,27c-2.91-6.97-5.83-13.95-8.75-20.92
		c-0.09,0.11-0.17,0.23-0.26,0.34c2.93,7.01,5.86,14.03,8.8,21.04c0.01,0.01,0.01,0.02,0.02,0.03c-1.93,4.98-3.87,9.96-5.8,14.94
		c-0.09,0.23,0.28,0.32,0.36,0.1c3.22-8.3,6.44-16.6,9.66-24.9c0.04,0.01,0.09,0.02,0.14-0.01c6.11-2.63,12.36-4.92,18.73-6.84
		c0.47-0.14,0.95-0.28,1.43-0.42C510.4,159.39,510.4,159.26,510.4,159.13z"/>
	<path class="st1" d="M539.36,219.45l-7.82-5.39l9.91,2.05c14.25-23.45,21.02-48.79,21.02-48.79s-10.48,2.85-24.43,8.53l1.02,9.07
		l-3.95-7.86c-29.9,12.64-72.68,37.56-65.31,74.79C501.25,263.27,524.18,243,539.36,219.45z"/>
	<path class="st2" d="M539.36,219.45l-7.82-5.39l9.91,2.05c14.25-23.45,21.02-48.79,21.02-48.79l-92.66,84.53
		C501.25,263.27,524.18,243,539.36,219.45z"/>
	<path class="st1" d="M545.99,261.72l-6.1-4.94l8.04,2.32c13.23-18.42,20.4-38.87,20.4-38.87s-8.82,1.68-20.67,5.49l0.27,7.54
		l-2.75-6.72c-25.44,8.52-62.26,26.35-58.54,57.49C511.82,295.42,531.99,280.16,545.99,261.72z"/>
	<path class="st2" d="M545.99,261.72l-6.1-4.94l8.04,2.32c13.23-18.42,20.4-38.87,20.4-38.87l-81.69,63.79
		C511.82,295.42,531.99,280.16,545.99,261.72z"/>
	<path class="st3" d="M561.91,167.48c-3.95,3.55-7.89,7.11-11.81,10.69c-5.62,5.15-11.2,10.33-16.75,15.56
		c-0.05,0.05-0.11,0.1-0.16,0.16c-1.36-4.73-2.72-9.45-4.08-14.18c-0.11,0.05-0.23,0.11-0.35,0.16c1.37,4.77,2.75,9.54,4.12,14.31
		c-1.25,1.18-2.49,2.37-3.73,3.55c-2.53-4.82-4.74-9.79-6.63-14.89c-0.11,0.06-0.23,0.11-0.34,0.17c1.9,5.14,4.13,10.15,6.68,15
		c-1.62,1.54-3.25,3.08-4.87,4.63c-0.17,0.17,0.09,0.43,0.27,0.27c4.28-4.11,8.6-8.18,12.93-12.24c0.02,0.04,0.06,0.07,0.12,0.08
		c5.32,0.79,10.66,1.5,16,2.12c0.05-0.12,0.1-0.24,0.15-0.36c-5.34-0.62-10.67-1.32-15.99-2.12c1.14-1.06,2.26-2.13,3.4-3.19
		c5.58-5.19,11.19-10.34,16.84-15.45c1.55-1.4,3.12-2.8,4.68-4.2c0.04-0.14,0.06-0.22,0.06-0.22S562.28,167.37,561.91,167.48z"/>
	<path class="st3" d="M567.72,220.35c-4.91,3.87-9.8,7.74-14.68,11.64c-3.79,3.03-7.58,6.07-11.36,9.12
		c-0.48-4.23-1.21-8.43-2.2-12.57c-0.12,0.04-0.24,0.09-0.36,0.13c1,4.19,1.74,8.44,2.21,12.72c-0.91,0.74-1.83,1.48-2.74,2.21
		c-1.45-4.38-2.61-8.86-3.48-13.39c-0.12,0.05-0.24,0.09-0.35,0.14c0.88,4.57,2.05,9.08,3.52,13.5c-1.56,1.26-3.13,2.53-4.69,3.79
		c-3.63,2.94-7.25,5.9-10.86,8.86c-0.19,0.15,0.08,0.42,0.27,0.27c6.19-5.07,12.39-10.11,18.62-15.13c0.04-0.01,0.07-0.04,0.09-0.07
		c0.2-0.16,0.4-0.32,0.6-0.49c1.31-1.05,2.62-2.1,3.93-3.15c0.02,0.02,0.05,0.03,0.09,0.03c4.48,0.54,8.95,1.09,13.43,1.63
		c0.06-0.12,0.12-0.24,0.18-0.35c-4.44-0.54-8.87-1.08-13.31-1.62c5.05-4.06,10.11-8.1,15.19-12.12c2.15-1.71,4.31-3.4,6.47-5.1
		c0.04-0.11,0.06-0.17,0.06-0.17S568.12,220.27,567.72,220.35z"/>
	<ellipse class="st1" cx="340.58" cy="313.56" rx="198.65" ry="8.51"/>
	<ellipse class="st2" cx="455" cy="309.3" rx="72.12" ry="4.25"/>
	<path class="st2" d="M288.19,310.88c0,6.7-28.62,5.83-63.93,5.83c-35.31,0-56.69-1.79-56.69-5.01c0-3.22,21.39-6.65,56.69-6.65
		C259.57,305.05,288.19,304.17,288.19,310.88z"/>
	<path class="st3" d="M169.38,309.52c9.35-1.13,18.73-2.03,28.13-2.69c9.4-0.66,18.81-1.08,28.23-1.26
		c5.33-0.1,10.66-0.13,15.99-0.08c0.24,0,0.24-0.37,0-0.38c-9.42-0.09-18.84,0.06-28.26,0.45c-9.41,0.39-18.82,1.01-28.2,1.88
		c-5.31,0.49-10.61,1.05-15.9,1.69C169.15,309.17,169.14,309.54,169.38,309.52L169.38,309.52z"/>
	<ellipse class="st2" cx="335.38" cy="306.84" rx="12.84" ry="2.49"/>
	<path class="st4" d="M225.63,192.89c0-63.49,51.47-114.95,114.95-114.95c63.49,0,114.95,51.47,114.95,114.95
		c0,35.07-0.27,114.24-0.27,114.24H225.63C225.63,307.13,225.63,228.91,225.63,192.89z"/>
	<path class="st5" d="M227.85,170.33c1.96,2.84,4.24,5.05,6.65,6.44c11.34,6.55,21.38-7.31,35.03-30.97
		c13.65-23.65,28.02-39.02,16.68-45.57c-2.47-1.42-5.94-2.31-10.02-2.59C251.63,114.29,233.85,140.19,227.85,170.33z"/>
	<path class="st6" d="M340.58,274.76c-46.74,0-84.62-28.92-84.62,3.03c0,8.66,2.79,18.94,7.77,29.33h153.7
		c4.99-10.39,7.77-20.67,7.77-29.33C425.2,245.84,387.32,274.76,340.58,274.76z"/>
	<path class="st6" d="M438.17,132.12c-3.78-2.35-7.24-3.65-9.87-3.65c-11.77,0-2.5,25.82-2.5,57.67c0,31.85-1.38,57.92,10.39,57.92
		c3.78,0,8.45-2.69,13.06-7.39c4.07-15.58,6.28-30.63,6.28-43.79C455.53,170.58,449.17,149.75,438.17,132.12z"/>
	<circle class="st7" cx="340.58" cy="192.89" r="99.35"/>
	<path class="st8" d="M340.58,299.89c-28.58,0-55.45-11.13-75.66-31.34c-20.21-20.21-31.34-47.08-31.34-75.66
		c0-28.58,11.13-55.45,31.34-75.66S312,85.88,340.58,85.88c28.58,0,55.45,11.13,75.66,31.34c20.21,20.21,31.34,47.08,31.34,75.66
		c0,28.58-11.13,55.45-31.34,75.66C396.03,288.76,369.16,299.89,340.58,299.89z M340.58,86.26c-28.48,0-55.26,11.09-75.4,31.23
		c-20.14,20.14-31.23,46.92-31.23,75.4s11.09,55.26,31.23,75.4c20.14,20.14,46.92,31.23,75.4,31.23s55.26-11.09,75.4-31.23
		c20.14-20.14,31.23-46.92,31.23-75.4s-11.09-55.26-31.23-75.4C395.84,97.35,369.06,86.26,340.58,86.26z"/>
	<path class="st1" d="M343.9,308.67c0,0,2.93-21.13,9.35-21.76c6.41-0.62,4.92,4.22,10.44,2.62c5.52-1.6,0.15-29.2,18.35-23.98
		c18.2,5.22,17.26,41.26,17.26,41.26L343.9,308.67z"/>
	<path class="st1" d="M328.86,309.33c0,0-11.02-18.13-22.15-18.02c-11.13,0.12-3.48,10.23-9.05,6.97
		c-5.57-3.26-10.21-16.48-18.55-15.61c-8.35,0.87-4.87,24.33-4.87,24.33L328.86,309.33z"/>
	<path class="st2" d="M433.21,307.19c0,0,3.13-23.42,9.55-24.24c6.41-0.82,4.92,5.53,10.44,3.43c5.52-2.1,0.15-38.28,18.35-31.43
		c18.2,6.84,17.26,54.1,17.26,54.1L433.21,307.19z"/>
	<path class="st8" d="M404.02,259.1c-0.48,0-0.96-0.18-1.33-0.55l-7.19-7.19c-0.73-0.73-0.73-1.92,0-2.66
		c0.73-0.73,1.92-0.73,2.66,0l7.19,7.19c0.73,0.73,0.73,1.92,0,2.66C404.98,258.92,404.5,259.1,404.02,259.1z"/>
	<path class="st2" d="M378.2,308.87c3.37-1.61,6.93-2.8,10.59-3.57c-0.54-0.01-1.07-0.01-1.61-0.02c-2.85,0.7-5.63,1.65-8.3,2.86
		c-1.4,0.63-3.15,1.3-3.88,2.76c-0.62,1.24-0.19,2.46,0.87,3.27c0.59,0.45,1.27,0.76,1.94,1.08c0.82,0.39,1.65,0.78,2.47,1.16
		c1.62,0.74,3.25,1.46,4.89,2.14c2.76,1.15,5.56,2.22,8.38,3.21c0.37,0,0.74-0.01,1.11-0.01c-2.28-0.78-4.54-1.61-6.78-2.49
		c-3.24-1.28-6.43-2.67-9.57-4.17c-1.18-0.57-3.09-1.24-3.24-2.78C374.9,310.49,376.84,309.52,378.2,308.87z"/>
	<path class="st9" d="M394.44,229.24c8.53-13.38,11.75-25.21,18.37-20.99c6.62,4.22,8.94,23.55,0.42,36.92
		c-8.53,13.38-24.67,15.74-31.29,11.52C375.31,252.47,385.91,242.61,394.44,229.24z"/>
	<path class="st2" d="M287.69,306.91c2.01,0.43,4.18,1.25,5.19,3.18c0.45,0.87,0.65,1.92,0.38,2.87c-0.28,0.99-1.07,1.66-1.97,2.09
		c-1.02,0.49-2.16,0.76-3.25,1.03c-1.14,0.28-2.28,0.5-3.44,0.68c-4.81,0.76-9.69,0.83-14.53,1.25c-4.81,0.41-9.54,1.31-14.21,2.55
		c-0.78,0.21-1.56,0.43-2.34,0.65c0.45,0.01,0.9,0.02,1.36,0.03c4.91-1.35,9.9-2.39,15.02-2.84c4.96-0.44,9.96-0.5,14.89-1.29
		c1.24-0.2,2.47-0.44,3.69-0.75c1.01-0.26,2.05-0.52,3-0.98c1.7-0.82,2.6-2.45,2.16-4.32c-0.52-2.21-2.46-3.52-4.51-4.16
		c-2.23-0.7-4.64-0.72-6.85-1.47c-0.33,0-0.65,0.01-0.98,0.01C283.32,306.32,285.54,306.45,287.69,306.91z"/>
	<path class="st8" d="M430.29,191.91c1.04,0,1.88,0.84,1.88,1.88c0,1.04-0.84,1.88-1.88,1.88"/>
	<g>
		<path class="st0" d="M274.67,237.55c11.8,15.59,29.22,25.42,49.07,27.69c2.87,0.33,5.8,0.5,8.68,0.5c7.67,0,15.3-1.16,22.67-3.44
			c6.83-2.11,13.38-5.17,19.47-9.1l5.5,12.67l1.55,3.56l1.16-3.7l9.22-29.46l0.61-1.95l-2.04,0.07l-30.86,1.06l-4.06,0.14l3.23,2.46
			l9.43,7.17c-10.91,6.83-23.28,10.43-35.89,10.43c-2.5,0-5.04-0.14-7.53-0.43c-17.09-1.95-32.07-10.4-42.18-23.77l-0.87-1.15
			l-1.15,0.87l-5.74,4.34l-0.49,0.37l-0.08,0.62l-0.08,0.62L274.67,237.55z"/>
	</g>
	<path class="st8" d="M408.08,193.79"/>
	<circle class="st7" cx="340.57" cy="191.91" r="16.07"/>
	<path class="st7" d="M336.46,190.24l40.66-28.69c0.66-0.47,1.58-0.31,2.05,0.35c0.4,0.56,0.34,1.31-0.09,1.81l-32.53,37.67
		c-2.73,3.16-7.51,3.51-10.67,0.78c-3.16-2.73-3.51-7.51-0.78-10.67C335.5,191.01,335.98,190.59,336.46,190.24z"/>
	<path class="st9" d="M285.39,165.05c-12.06,23.02-16.64,42.27-25.97,37.39c-9.33-4.89-12.54-34.4-0.47-57.42
		c12.06-23.02,34.82-30.82,44.15-25.93C312.43,123.97,297.45,142.03,285.39,165.05z"/>
	<g>
		
			<ellipse transform="matrix(0.3785 -0.9256 0.9256 0.3785 -69.2166 379.4799)" class="st10" cx="247.98" cy="241.28" rx="29.93" ry="29.93"/>
		<g>
			<path class="st11" d="M255.48,212.31l-3.18,58.61c2.44-0.36,4.88-1.03,7.27-2.03c0.92-0.39,1.81-0.81,2.67-1.28l2.77-50.94
				C262.1,214.67,258.88,213.19,255.48,212.31z"/>
			<path class="st11" d="M246.9,271.2l3.25-59.77c-4.55-0.33-9.25,0.36-13.75,2.25c-0.79,0.33-1.55,0.7-2.3,1.09l-2.79,51.37
				C235.92,269.22,241.32,270.99,246.9,271.2z"/>
		</g>
		
			<ellipse transform="matrix(0.8335 -0.5525 0.5525 0.8335 -92.0255 177.1922)" class="st11" cx="247.98" cy="241.28" rx="24" ry="24"/>
		
			<ellipse transform="matrix(0.3785 -0.9256 0.9256 0.3785 -69.2167 379.4797)" class="st12" cx="247.98" cy="241.28" rx="22.25" ry="22.25"/>
		<g>
			<path class="st10" d="M252.61,244.7c-0.33-0.79-0.81-1.32-1.44-1.61c-0.63-0.28-1.56-0.4-2.77-0.36
				c-1.21,0.05-2.28,0.03-3.2-0.04c-0.92-0.07-1.76-0.24-2.51-0.52c-0.75-0.28-1.43-0.69-2.01-1.25c-0.59-0.56-1.08-1.3-1.48-2.24
				c-0.68-1.62-0.72-3.17-0.12-4.64c0.6-1.47,1.73-2.66,3.37-3.55l-1.29-3.08l2.31-0.97l1.31,3.13c1.8-0.47,3.43-0.32,4.88,0.45
				c1.45,0.77,2.57,2.1,3.36,3.97l-4.16,1.75c-0.48-1.15-1.08-1.91-1.8-2.29c-0.72-0.37-1.47-0.39-2.27-0.06
				c-0.79,0.33-1.3,0.81-1.55,1.44c-0.24,0.63-0.2,1.34,0.13,2.12c0.31,0.73,0.76,1.23,1.37,1.49c0.61,0.26,1.58,0.39,2.92,0.37
				c1.34-0.02,2.47,0.02,3.38,0.12c0.91,0.1,1.73,0.3,2.45,0.6c0.72,0.3,1.36,0.72,1.9,1.27c0.54,0.55,1,1.26,1.37,2.13
				c0.69,1.63,0.73,3.17,0.14,4.62c-0.59,1.45-1.74,2.63-3.45,3.57l1.2,2.87l-2.29,0.96l-1.2-2.85c-2.06,0.61-3.88,0.56-5.45-0.18
				c-1.58-0.73-2.78-2.08-3.61-4.05l4.16-1.75c0.48,1.14,1.12,1.91,1.92,2.29c0.8,0.38,1.71,0.36,2.73-0.07
				c0.85-0.35,1.42-0.86,1.72-1.51C252.94,246.17,252.93,245.46,252.61,244.7z"/>
		</g>
	</g>
	<g>
		<path class="st10" d="M525.2,296.57h-55.41c-1.06,0-1.92,0.86-1.92,1.92v10.06c0,1.06,0.86,1.92,1.92,1.92h55.41
			c1.06,0,1.93-0.86,1.93-1.92V298.5C527.12,297.44,526.26,296.57,525.2,296.57z"/>
		<rect x="474.24" y="298.35" class="st12" width="7.95" height="12.13"/>
		<rect x="484.82" y="298.35" class="st12" width="4.38" height="12.13"/>
		<rect x="498.44" y="298.35" class="st11" width="23.26" height="12.13"/>
		<path class="st11" d="M525.6,310.67h-56.3c-0.1,0-0.19-0.08-0.19-0.19c0-0.1,0.08-0.19,0.19-0.19h56.3c0.1,0,0.19,0.08,0.19,0.19
			C525.79,310.58,525.71,310.67,525.6,310.67z"/>
	</g>
	<g>
		<circle class="st10" cx="399.3" cy="278.73" r="29.93"/>
		<g>
			<path class="st11" d="M423.53,261.15l-39.75,43.18c2.11,1.28,4.42,2.32,6.89,3.06c0.96,0.29,1.91,0.52,2.87,0.71l34.55-37.54
				C427.13,267.18,425.59,263.99,423.53,261.15z"/>
			<path class="st11" d="M379.43,301.12l40.54-44.04c-3.3-3.16-7.37-5.61-12.04-7.01c-0.82-0.25-1.64-0.45-2.47-0.62l-34.84,37.85
				C372.21,292.61,375.26,297.41,379.43,301.12z"/>
		</g>
		
			<ellipse transform="matrix(0.8868 -0.4622 0.4622 0.8868 -83.6224 216.1385)" class="st11" cx="399.3" cy="278.73" rx="24" ry="24"/>
		
			<ellipse transform="matrix(0.9374 -0.3484 0.3484 0.9374 -72.0893 156.5679)" class="st12" cx="399.3" cy="278.73" rx="22.25" ry="22.25"/>
		<g>
			<path class="st10" d="M400.7,284.31c0.25-0.82,0.22-1.54-0.09-2.16c-0.31-0.62-0.94-1.3-1.91-2.04
				c-0.96-0.74-1.78-1.43-2.45-2.07c-0.67-0.64-1.2-1.31-1.61-2c-0.41-0.69-0.66-1.44-0.76-2.24c-0.1-0.8,0-1.69,0.29-2.67
				c0.51-1.69,1.46-2.9,2.86-3.66c1.4-0.75,3.02-0.95,4.86-0.59l0.96-3.2l2.39,0.72l-0.98,3.25c1.69,0.78,2.85,1.93,3.48,3.45
				c0.63,1.52,0.65,3.26,0.07,5.2l-4.32-1.3c0.36-1.2,0.38-2.17,0.07-2.91c-0.32-0.74-0.89-1.24-1.71-1.49
				c-0.82-0.25-1.52-0.21-2.11,0.12c-0.59,0.33-1.01,0.9-1.25,1.72c-0.23,0.76-0.19,1.43,0.11,2.02c0.3,0.59,0.97,1.3,2.02,2.14
				c1.05,0.84,1.89,1.58,2.53,2.24c0.64,0.66,1.14,1.33,1.51,2.02c0.37,0.69,0.59,1.42,0.66,2.19c0.07,0.77-0.03,1.61-0.3,2.51
				c-0.51,1.7-1.45,2.91-2.83,3.65c-1.38,0.74-3.02,0.92-4.93,0.55l-0.9,2.98l-2.38-0.72l0.89-2.96c-1.98-0.84-3.34-2.04-4.09-3.61
				c-0.75-1.57-0.82-3.38-0.2-5.42l4.32,1.3c-0.36,1.19-0.35,2.18,0.02,2.98c0.37,0.8,1.09,1.36,2.15,1.68
				c0.88,0.26,1.64,0.24,2.29-0.07C400.02,285.65,400.46,285.1,400.7,284.31z"/>
		</g>
	</g>
	<g>
		<path class="st10" d="M525.2,282.67h-55.41c-1.06,0-1.92,0.86-1.92,1.92v10.06c0,1.06,0.86,1.92,1.92,1.92h55.41
			c1.06,0,1.93-0.86,1.93-1.92v-10.06C527.12,283.53,526.26,282.67,525.2,282.67z"/>
		<rect x="474.24" y="284.44" class="st12" width="7.95" height="12.13"/>
		<rect x="484.82" y="284.44" class="st12" width="4.38" height="12.13"/>
		<rect x="498.44" y="284.44" class="st11" width="23.26" height="12.13"/>
		<path class="st11" d="M525.6,296.76h-56.3c-0.1,0-0.19-0.08-0.19-0.19c0-0.1,0.08-0.19,0.19-0.19h56.3c0.1,0,0.19,0.08,0.19,0.19
			C525.79,296.68,525.71,296.76,525.6,296.76z"/>
	</g>
	<g>
		<path class="st10" d="M525.16,268.76h-55.41c-1.06,0-1.92,0.86-1.92,1.92v10.06c0,1.06,0.86,1.92,1.92,1.92h55.41
			c1.06,0,1.93-0.86,1.93-1.92v-10.06C527.09,269.62,526.23,268.76,525.16,268.76z"/>
		<rect x="474.2" y="270.54" class="st12" width="7.95" height="12.13"/>
		<rect x="484.79" y="270.54" class="st12" width="4.38" height="12.13"/>
		<rect x="498.4" y="270.54" class="st11" width="23.26" height="12.13"/>
		<path class="st11" d="M525.57,282.86h-56.3c-0.1,0-0.19-0.08-0.19-0.19c0-0.1,0.08-0.19,0.19-0.19h56.3c0.1,0,0.19,0.08,0.19,0.19
			C525.75,282.77,525.67,282.86,525.57,282.86z"/>
	</g>
	<g>
		<path class="st10" d="M525.16,254.86h-55.41c-1.06,0-1.92,0.86-1.92,1.92v10.06c0,1.06,0.86,1.92,1.92,1.92h55.41
			c1.06,0,1.93-0.86,1.93-1.92v-10.06C527.09,255.72,526.23,254.86,525.16,254.86z"/>
		<rect x="474.2" y="256.63" class="st12" width="7.95" height="12.13"/>
		<rect x="484.79" y="256.63" class="st12" width="4.38" height="12.13"/>
		<rect x="498.4" y="256.63" class="st11" width="23.26" height="12.13"/>
		<path class="st11" d="M525.57,268.95h-56.3c-0.1,0-0.19-0.08-0.19-0.19c0-0.1,0.08-0.19,0.19-0.19h56.3c0.1,0,0.19,0.08,0.19,0.19
			C525.75,268.87,525.67,268.95,525.57,268.95z"/>
	</g>
	<g>
		<path class="st10" d="M525.2,240.95h-55.41c-1.06,0-1.92,0.86-1.92,1.92v10.06c0,1.06,0.86,1.92,1.92,1.92h55.41
			c1.06,0,1.93-0.86,1.93-1.92v-10.06C527.12,241.81,526.26,240.95,525.2,240.95z"/>
		<rect x="474.24" y="242.73" class="st12" width="7.95" height="12.13"/>
		<rect x="484.82" y="242.73" class="st12" width="4.38" height="12.13"/>
		<rect x="498.44" y="242.73" class="st11" width="23.26" height="12.13"/>
		<path class="st11" d="M525.6,255.04h-56.3c-0.1,0-0.19-0.08-0.19-0.19c0-0.1,0.08-0.19,0.19-0.19h56.3c0.1,0,0.19,0.08,0.19,0.19
			C525.79,254.96,525.71,255.04,525.6,255.04z"/>
	</g>
	<path class="st13" d="M455.41,160.58c-1.45,0.01-2.88-0.57-3.88-1.62c-1-1.05-1.51-2.51-1.42-3.96c0.01-0.24-0.36-0.24-0.38,0
		c-0.09,1.54,0.46,3.11,1.53,4.23c1.07,1.12,2.6,1.75,4.15,1.73C455.65,160.95,455.66,160.58,455.41,160.58L455.41,160.58z"/>
	<g>
		<path class="st10" d="M530.85,227.04h-55.41c-1.06,0-1.92,0.86-1.92,1.92v10.06c0,1.06,0.86,1.92,1.92,1.92h55.41
			c1.06,0,1.93-0.86,1.93-1.92v-10.06C532.78,227.91,531.91,227.04,530.85,227.04z"/>
		<rect x="479.89" y="228.82" class="st12" width="7.95" height="12.13"/>
		<rect x="490.48" y="228.82" class="st12" width="4.38" height="12.13"/>
		<rect x="504.09" y="228.82" class="st11" width="23.26" height="12.13"/>
		<path class="st11" d="M531.26,241.14h-56.3c-0.1,0-0.19-0.08-0.19-0.19c0-0.1,0.08-0.19,0.19-0.19h56.3c0.1,0,0.19,0.08,0.19,0.19
			C531.44,241.05,531.36,241.14,531.26,241.14z"/>
	</g>
	<g>
		<path class="st10" d="M525.2,213.14h-55.41c-1.06,0-1.92,0.86-1.92,1.92v10.06c0,1.06,0.86,1.92,1.92,1.92h55.41
			c1.06,0,1.93-0.86,1.93-1.92v-10.06C527.12,214,526.26,213.14,525.2,213.14z"/>
		<rect x="474.24" y="214.91" class="st12" width="7.95" height="12.13"/>
		<rect x="484.82" y="214.91" class="st12" width="4.38" height="12.13"/>
		<rect x="498.44" y="214.91" class="st11" width="23.26" height="12.13"/>
		<path class="st11" d="M525.6,227.23h-56.3c-0.1,0-0.19-0.08-0.19-0.19c0-0.1,0.08-0.19,0.19-0.19h56.3c0.1,0,0.19,0.08,0.19,0.19
			C525.79,227.15,525.71,227.23,525.6,227.23z"/>
	</g>
	<g>
		<path class="st10" d="M525.2,199.23h-55.41c-1.06,0-1.92,0.86-1.92,1.92v10.06c0,1.06,0.86,1.92,1.92,1.92h55.41
			c1.06,0,1.93-0.86,1.93-1.92v-10.06C527.12,200.09,526.26,199.23,525.2,199.23z"/>
		<rect x="474.24" y="201.01" class="st12" width="7.95" height="12.13"/>
		<rect x="484.82" y="201.01" class="st12" width="4.38" height="12.13"/>
		<rect x="498.44" y="201.01" class="st11" width="23.26" height="12.13"/>
		<path class="st11" d="M525.6,213.33h-56.3c-0.1,0-0.19-0.08-0.19-0.19c0-0.1,0.08-0.19,0.19-0.19h56.3c0.1,0,0.19,0.08,0.19,0.19
			C525.79,213.24,525.71,213.33,525.6,213.33z"/>
	</g>
	<g>
		<path class="st10" d="M281.55,296.5h-55.41c-1.06,0-1.92,0.86-1.92,1.92v10.06c0,1.06,0.86,1.92,1.92,1.92h55.41
			c1.06,0,1.93-0.86,1.93-1.92v-10.06C283.47,297.36,282.61,296.5,281.55,296.5z"/>
		<rect x="230.59" y="298.28" class="st12" width="7.95" height="12.13"/>
		<rect x="241.17" y="298.28" class="st12" width="4.38" height="12.13"/>
		<rect x="254.78" y="298.28" class="st11" width="23.26" height="12.13"/>
		<path class="st11" d="M281.95,310.6h-56.3c-0.1,0-0.19-0.08-0.19-0.19s0.08-0.19,0.19-0.19h56.3c0.1,0,0.19,0.08,0.19,0.19
			S282.06,310.6,281.95,310.6z"/>
	</g>
	<g>
		<path class="st10" d="M275.89,282.6h-55.41c-1.06,0-1.92,0.86-1.92,1.92v10.06c0,1.06,0.86,1.92,1.92,1.92h55.41
			c1.06,0,1.93-0.86,1.93-1.92v-10.06C277.82,283.46,276.96,282.6,275.89,282.6z"/>
		<rect x="224.93" y="284.37" class="st12" width="7.95" height="12.13"/>
		<rect x="235.52" y="284.37" class="st12" width="4.38" height="12.13"/>
		<rect x="249.13" y="284.37" class="st11" width="23.26" height="12.13"/>
		<path class="st11" d="M276.3,296.69H220c-0.1,0-0.19-0.08-0.19-0.19s0.08-0.19,0.19-0.19h56.3c0.1,0,0.19,0.08,0.19,0.19
			S276.4,296.69,276.3,296.69z"/>
	</g>
	<g>
		<path class="st10" d="M275.89,268.69h-55.41c-1.06,0-1.92,0.86-1.92,1.92v10.06c0,1.06,0.86,1.92,1.92,1.92h55.41
			c1.06,0,1.93-0.86,1.93-1.92v-10.06C277.82,269.55,276.96,268.69,275.89,268.69z"/>
		<rect x="224.93" y="270.47" class="st12" width="7.95" height="12.13"/>
		<rect x="235.52" y="270.47" class="st12" width="4.38" height="12.13"/>
		<rect x="249.13" y="270.47" class="st11" width="23.26" height="12.13"/>
		<path class="st11" d="M276.3,282.78H220c-0.1,0-0.19-0.08-0.19-0.19s0.08-0.19,0.19-0.19h56.3c0.1,0,0.19,0.08,0.19,0.19
			S276.4,282.78,276.3,282.78z"/>
	</g>
	<g>
		<path class="st10" d="M545.92,308.22l-4.91-55.2c-0.09-1.06-1.03-1.84-2.09-1.75l-10.02,0.89c-1.06,0.09-1.84,1.03-1.75,2.09
			l4.91,55.2c0.09,1.06,1.03,1.84,2.09,1.75l10.02-0.89C545.24,310.21,546.02,309.28,545.92,308.22z"/>
		
			<rect x="529.98" y="256.04" transform="matrix(0.0886 0.9961 -0.9961 0.0886 747.7462 -292.9587)" class="st12" width="7.95" height="12.13"/>
		
			<rect x="532.54" y="264.81" transform="matrix(0.0886 0.9961 -0.9961 0.0886 757.182 -285.7478)" class="st12" width="4.38" height="12.13"/>
		
			<rect x="525.14" y="287.77" transform="matrix(0.0886 0.9961 -0.9961 0.0886 781.9237 -266.8482)" class="st11" width="23.26" height="12.13"/>
		<path class="st11" d="M532.11,310.04c-0.1,0-0.18-0.07-0.19-0.17l-4.99-56.07c-0.01-0.1,0.07-0.19,0.17-0.2
			c0.1,0,0.19,0.07,0.2,0.17l4.99,56.07c0.01,0.1-0.07,0.19-0.17,0.2C532.12,310.04,532.11,310.04,532.11,310.04z"/>
	</g>
	<g>
		<path class="st10" d="M434.31,303.98l25.73-49.08c0.49-0.94,1.66-1.3,2.6-0.81l8.91,4.67c0.94,0.49,1.3,1.66,0.81,2.6
			l-25.73,49.08c-0.49,0.94-1.66,1.3-2.6,0.81l-8.91-4.67C434.18,306.08,433.82,304.92,434.31,303.98z"/>
		
			<rect x="459.1" y="259.94" transform="matrix(-0.4643 0.8857 -0.8857 -0.4643 913.6777 -20.6179)" class="st12" width="7.95" height="12.13"/>
		
			<rect x="456.8" y="267.73" transform="matrix(-0.4643 0.8857 -0.8857 -0.4643 914.5966 -5.5871)" class="st12" width="4.38" height="12.13"/>
		
			<rect x="436.65" y="288.15" transform="matrix(-0.4643 0.8857 -0.8857 -0.4643 917.0064 33.7933)" class="st11" width="23.26" height="12.13"/>
		<path class="st11" d="M446.44,310.98c-0.03,0-0.06-0.01-0.09-0.02c-0.09-0.05-0.13-0.16-0.08-0.25l26.14-49.86
			c0.05-0.09,0.16-0.13,0.25-0.08c0.09,0.05,0.13,0.16,0.08,0.25l-26.14,49.86C446.57,310.95,446.51,310.98,446.44,310.98z"/>
	</g>
	<g>
		<path class="st10" d="M418.41,305.2l22.41-50.68c0.43-0.97,1.57-1.41,2.54-0.98l9.2,4.07c0.97,0.43,1.41,1.57,0.98,2.54
			l-22.41,50.68c-0.43,0.97-1.57,1.41-2.54,0.98l-9.2-4.07C418.42,307.31,417.98,306.17,418.41,305.2z"/>
		
			<rect x="440.6" y="259.33" transform="matrix(-0.4044 0.9146 -0.9146 -0.4044 867.0734 -33.902)" class="st12" width="7.95" height="12.13"/>
		
			<rect x="438.83" y="267.38" transform="matrix(-0.4044 0.9146 -0.9146 -0.4044 869.436 -19.3459)" class="st12" width="4.38" height="12.13"/>
		
			<rect x="420.06" y="288.46" transform="matrix(-0.4044 0.9146 -0.9146 -0.4044 875.6301 18.7935)" class="st11" width="23.26" height="12.13"/>
		<path class="st11" d="M430.96,311.38c-0.03,0-0.05-0.01-0.08-0.02c-0.09-0.04-0.14-0.15-0.1-0.25l22.76-51.49
			c0.04-0.1,0.15-0.14,0.25-0.1c0.09,0.04,0.14,0.15,0.1,0.25l-22.76,51.49C431.1,311.34,431.03,311.38,430.96,311.38z"/>
	</g>
	<g>
		<path class="st10" d="M182.27,306.22L208,257.14c0.49-0.94,1.66-1.3,2.6-0.81l8.91,4.67c0.94,0.49,1.3,1.66,0.81,2.6l-25.73,49.08
			c-0.49,0.94-1.66,1.3-2.6,0.81l-8.91-4.67C182.14,308.32,181.78,307.16,182.27,306.22z"/>
		
			<rect x="207.06" y="262.18" transform="matrix(-0.4643 0.8857 -0.8857 -0.4643 546.5939 205.8783)" class="st12" width="7.95" height="12.13"/>
		
			<rect x="204.76" y="269.97" transform="matrix(-0.4643 0.8857 -0.8857 -0.4643 547.5145 220.9143)" class="st12" width="4.38" height="12.13"/>
		
			<rect x="184.61" y="290.39" transform="matrix(-0.4643 0.8857 -0.8857 -0.4643 549.9239 260.2918)" class="st11" width="23.26" height="12.13"/>
		<path class="st11" d="M194.4,313.22c-0.03,0-0.06-0.01-0.09-0.02c-0.09-0.05-0.13-0.16-0.08-0.25l26.14-49.86
			c0.05-0.09,0.16-0.13,0.25-0.08c0.09,0.05,0.13,0.16,0.08,0.25l-26.14,49.86C194.54,313.18,194.47,313.22,194.4,313.22z"/>
	</g>
	<g>
		<path class="st10" d="M166.37,307.43l22.41-50.68c0.43-0.97,1.57-1.41,2.54-0.98l9.2,4.07c0.97,0.43,1.41,1.57,0.98,2.54
			l-22.41,50.68c-0.43,0.97-1.57,1.41-2.54,0.98l-9.2-4.07C166.38,309.54,165.94,308.41,166.37,307.43z"/>
		
			<rect x="188.56" y="261.56" transform="matrix(-0.4044 0.9146 -0.9146 -0.4044 515.1655 199.754)" class="st12" width="7.95" height="12.13"/>
		
			<rect x="186.79" y="269.61" transform="matrix(-0.4044 0.9146 -0.9146 -0.4044 517.5298 214.3134)" class="st12" width="4.38" height="12.13"/>
		
			<rect x="168.02" y="290.7" transform="matrix(-0.4044 0.9146 -0.9146 -0.4044 523.7228 252.4498)" class="st11" width="23.26" height="12.13"/>
		<path class="st11" d="M178.92,313.61c-0.03,0-0.05-0.01-0.08-0.02c-0.09-0.04-0.14-0.15-0.1-0.25l22.76-51.49
			c0.04-0.09,0.15-0.14,0.25-0.1c0.09,0.04,0.14,0.15,0.1,0.25l-22.76,51.49C179.06,313.57,178.99,313.61,178.92,313.61z"/>
	</g>
	<path class="st14" d="M485.23,299.63l1.74,14.73h-19.31v-2.32c0,0,4.42-0.25,5.98-4.35c1.57-4.09-0.46-7.56-0.46-7.56
		L485.23,299.63z"/>
	<path class="st14" d="M457.77,299.23l1.26,15.13h-21.52v-2.32c0,0,7.08-0.05,8.93-4.14c1.86-4.09-0.25-9.41-0.25-9.41
		L457.77,299.23z"/>
	<path class="st15" d="M457.77,299.23l-11.57-0.74c0,0,0.81,2.05,0.98,4.58l10.87-0.54L457.77,299.23z"/>
	<path class="st15" d="M485.23,299.63l-12.05,0.5c0,0,0.56,0.96,0.86,2.46l11.46-0.68l0,0L485.23,299.63z"/>
	<path class="st16" d="M464.47,256.68l-5.85,45.39h-14.81c0,0-1.31-54.34,0.96-64.5c2.27-10.15,13.87-15.05,13.87-15.05
		L464.47,256.68z"/>
	<path class="st17" d="M443.73,298.31c0,0.13,0.01,0.25,0.01,0.38h15.32l0.05-0.38h-3.68l4.96-45.37c0.01-0.1-0.06-0.2-0.17-0.21
		c-0.1-0.01-0.2,0.06-0.21,0.17l-4.97,45.41H443.73z"/>
	<path class="st18" d="M481.55,233.32l4.23,68.06c0,0-15.62-0.26-15.62,0c0,0.26-13.22-58.2-13.34-73.85
		C456.71,211.89,481.55,233.32,481.55,233.32z"/>
	<path class="st17" d="M477.02,244.7c-0.02,0-0.03,0-0.05-0.01c-6.8-1.77-7.37-10.03-7.38-10.12c-0.01-0.1,0.07-0.19,0.18-0.2
		c0.1-0.01,0.19,0.07,0.2,0.18c0,0.08,0.56,8.07,7.1,9.78c0.1,0.03,0.16,0.13,0.13,0.23C477.18,244.64,477.1,244.7,477.02,244.7z"/>
	<path class="st17" d="M445.29,182.78c11.09-4.92,25.77-4.86,39.7-2.94l-4.9,34.28l4.44,24.33l-20.7-1.91
		c-2.59-3.75-4.16-7.97-4.79-12.63l-4.04,13.85l-14.54,3.52l5.97-30.72L445.29,182.78z"/>
	<path class="st13" d="M467.4,170.13l2.7-0.31c0,0,2.74-11.06,2.05-13.17c-0.69-2.12-3.14-1.24-3.14-1.24s0.82-4.72-4.78-5.03
		c-5.6-0.31-5.56,2.79-9.38,3.27c-3.82,0.49-3.99-0.74-4.86-0.08c-0.87,0.66,0.52,7.56,7.77,7.43
		C465.01,160.86,467.4,170.13,467.4,170.13z"/>
	<path class="st15" d="M468.13,164.48l0.39,12.25c0,0-0.5,8.47-4.51,8.41c-4.01-0.06-4.68-7.91-4.68-7.91l-0.39-6.85L468.13,164.48z
		"/>
	<path class="st14" d="M454.78,158.99c0,0-0.29,1.34,0.11,6.61c0.4,5.27-1.54,9.47,5,9.47c6.54,0,8.07-11.47,8.07-11.47l-1.74-0.44
		l0.57-4.29c0,0-0.98-1.4-3.3-1.74C461.18,156.79,457.76,158.79,454.78,158.99z"/>
	<path class="st14" d="M467.46,163.53c0,0,2.8-2.81,3.28,0.23c0.49,3.04-4.01,3.91-4.01,3.91L467.46,163.53z"/>
	<path class="st19" d="M479.99,214.12l0.92-6.42l-18.29-5.22c0,0-2.89,4.83,1.14,9.24c4.04,4.41,11.22,4.5,11.22,4.5l3.48,21.69
		l5.96,0.55L479.99,214.12z"/>
	<path class="st19" d="M484.43,238.64c-0.01,0-0.01,0-0.02,0l-20.7-1.91c-0.06-0.01-0.11-0.04-0.14-0.09
		c-8.89-15.13-4.58-32.36-4.53-32.53c0.03-0.1,0.13-0.16,0.23-0.13c0.1,0.03,0.16,0.13,0.13,0.23c-0.04,0.17-4.31,17.19,4.44,32.16
		l20.61,1.9c0.1,0.01,0.18,0.1,0.17,0.2C484.61,238.57,484.53,238.64,484.43,238.64z"/>
	<path class="st20" d="M443.24,208.58c-1.88,1.88-4.02,2.8-4.77,2.04c-0.75-0.75,0.16-2.89,2.04-4.77s4.02-2.8,4.77-2.04
		C446.04,204.56,445.12,206.7,443.24,208.58z"/>
	<path class="st20" d="M473.2,208.81c0-2.9,0.63-5.24,2-5.24c1.36,0,2.95,2.34,2.95,5.24c0,2.9-1.11,5.25-2.47,5.25
		C474.31,214.06,473.2,211.71,473.2,208.81z"/>
	<path class="st19" d="M455.45,189.75l-4.16,1.81c-0.05,0.02-0.09,0.07-0.11,0.13c-0.01,0.06,0,0.12,0.03,0.16l8.62,11.16
		c0.04,0.05,0.09,0.07,0.15,0.07c0.04,0,0.08-0.01,0.11-0.04c0.08-0.06,0.1-0.18,0.03-0.26l-8.48-10.97l4.17-1.81
		c0.05-0.02,0.09-0.07,0.11-0.13c0.01-0.06,0-0.12-0.04-0.16l-6.82-8.37c-0.13,0.04-0.26,0.08-0.38,0.13L455.45,189.75z"/>
	<path class="st19" d="M446.98,222.22c-0.07,0-0.13-0.04-0.17-0.1c-0.05-0.09-0.01-0.21,0.08-0.25l8.68-4.56
		c0.09-0.05,0.21-0.01,0.25,0.08c0.05,0.09,0.01,0.21-0.08,0.25l-8.68,4.56C447.04,222.21,447.01,222.22,446.98,222.22z"/>
	<polygon class="st19" points="475.2,209.57 480.32,211.81 482.57,196.04 479.4,193.78 	"/>
	<path class="st19" d="M475.87,189.61c-0.02-0.07-0.06-0.12-0.13-0.14l-4.08-1.22l9.06-8.93c-0.16-0.02-0.32-0.03-0.48-0.05
		l-9.07,8.93c-0.05,0.05-0.07,0.11-0.05,0.18c0.02,0.06,0.06,0.12,0.13,0.13l4.07,1.22l-14.44,13.41c-0.08,0.07-0.08,0.19-0.01,0.27
		c0.04,0.04,0.09,0.06,0.14,0.06c0.05,0,0.09-0.02,0.13-0.05l14.68-13.63C475.86,189.74,475.89,189.67,475.87,189.61z"/>
	<path class="st14" d="M443.4,203.28c0,0,10.81,4.45,10.77,5.53c-0.03,1.08,0.28,6.8-0.71,7.3c-0.99,0.5-2.01,0.32-2.01,0.32
		s-4.56,2.28-6.49,1.47c-1.93-0.81-2.77-2.87-2.35-3.84c0.42-0.97,1.23-0.97,1.23-0.97c-1.33-0.79-2.35-2.27-2.46-3.22l-2.52-1.46
		C438.87,208.41,441.52,203.64,443.4,203.28z"/>
	<path class="st14" d="M443.4,203.28c0,0,10.81,4.45,10.77,5.53c-0.03,1.08,0.28,6.8-0.71,7.3c-0.99,0.5-2.01,0.32-2.01,0.32
		s-4.56,2.28-6.49,1.47c-1.93-0.81-2.77-2.87-2.35-3.84c0.42-0.97,1.23-0.97,1.23-0.97c-1.33-0.79-2.35-2.27-2.46-3.22l-2.52-1.46
		C438.87,208.41,441.52,203.64,443.4,203.28z"/>
	<path class="st21" d="M443.87,202.82c-3.22-0.14-5.41,5.33-5,5.6l2.52,1.46c0.54-2.78,4.41-4.62,6.48-4.67
		C445.55,204.15,443.87,202.82,443.87,202.82z"/>
	<path class="st17" d="M448.04,181.65c0,0-32.6,7.29-34.06,13.89c-1.46,6.6,24.8,15.28,24.8,15.28c-0.76-3,2.41-7.9,5.59-7.88
		l-8.74-5.62l10.59,1.22L448.04,181.65z"/>
	<path class="st14" d="M479.05,212.25l-6.26-1.18c0,0-1.21,0.84-2.94,0.4c-1.21-0.31-1.5-1.73-1.5-1.73s-1.4,1-2.37,0.31
		c-0.97-0.69-0.8-1.82-0.8-1.82s-0.79,0.52-1.39-0.25c-0.6-0.76-0.43-1.41-0.43-1.41s-0.97,0.4-1.24-0.27
		c-0.27-0.66-0.11-2.04-0.11-2.04s-5.51,1.97-6.1,0.55c-0.59-1.42,11.24-6.14,12.68-6.38c1.44-0.24,3.78,5.4,3.78,5.4l5.6,0.12
		L479.05,212.25z"/>
	<path class="st22" d="M459.65,169.65c-0.62,0-1.06-0.17-1.07-0.18c-0.1-0.04-0.14-0.15-0.1-0.24c0.04-0.1,0.15-0.14,0.24-0.1
		c0.08,0.03,2,0.78,3.4-1.26c0.06-0.09,0.18-0.11,0.26-0.05c0.09,0.06,0.11,0.18,0.05,0.26
		C461.54,169.37,460.45,169.65,459.65,169.65z"/>
	<polygon class="st8" points="456.86,180.22 460.55,198.78 472.36,178.74 463.38,181.75 	"/>
	<path class="st19" d="M477.47,222.66c-0.02,0-0.05,0-0.07-0.01l-10.24-4.24c-0.1-0.04-0.14-0.15-0.1-0.25
		c0.04-0.1,0.15-0.14,0.25-0.1l10.24,4.24c0.1,0.04,0.14,0.15,0.1,0.25C477.62,222.61,477.55,222.66,477.47,222.66z"/>
	<path class="st22" d="M465.18,208.24c0,0,0,0.01,0,0.01c0.52-1.99,3.08-1.97,3.2-1.97c0.1,0,0.19-0.08,0.19-0.18
		c0-0.1-0.08-0.19-0.18-0.19c-0.04,0-3.15-0.01-3.61,2.49C465.01,208.35,465.18,208.24,465.18,208.24z"/>
	<path class="st22" d="M466.61,203.96c-0.07,0-1.76-0.04-2.83,1c-0.46,0.45-0.73,1.03-0.82,1.72c0.19-0.03,0.35-0.09,0.39-0.1
		c0.09-0.54,0.32-1,0.69-1.35c0.96-0.93,2.54-0.9,2.56-0.89c0.1,0,0.19-0.08,0.19-0.18C466.8,204.05,466.71,203.97,466.61,203.96z"
		/>
	<path class="st22" d="M465.25,201.9c-0.03,0-2.93,0.27-3.63,2.51c0.25-0.08,0.39-0.13,0.39-0.13s-0.01,0.07-0.02,0.19
		c0.65-1.94,3.17-2.18,3.29-2.19c0.1-0.01,0.18-0.1,0.17-0.2C465.44,201.97,465.36,201.89,465.25,201.9z"/>
	<path class="st22" d="M467.35,209.21c-0.08,0-0.15-0.05-0.18-0.13c-0.03-0.1,0.02-0.2,0.12-0.24l2.58-0.8
		c0.1-0.03,0.2,0.02,0.24,0.12c0.03,0.1-0.02,0.2-0.12,0.24l-2.58,0.8C467.39,209.21,467.37,209.21,467.35,209.21z"/>
	<path class="st22" d="M469.07,208.44c-0.1,0-0.19,0.09-0.18,0.19c0.02,0.81-0.73,1.23-0.76,1.24c-0.02,0.01-0.04,0.03-0.05,0.05
		c0.17-0.09,0.28-0.17,0.28-0.17s0.03,0.15,0.11,0.35c0.28-0.2,0.81-0.68,0.8-1.48C469.26,208.52,469.17,208.45,469.07,208.44z"/>
	<polygon class="st8" points="459.28,176.35 463.51,181.21 468.45,174.59 472.36,178.74 467.33,185.26 463.51,181.9 459.32,185.82 
		456.86,180.22 	"/>
	<path class="st23" d="M446.32,204.84c0,1.04-1.22,1.89-2.73,1.89c-1.51,0-2.73-0.85-2.73-1.89c0-1.04,1.22-1.89,2.73-1.89
		C445.1,202.95,446.32,203.8,446.32,204.84z"/>
	<path class="st8" d="M445.97,204.84c0,0.91-1.07,1.65-2.38,1.65c-1.31,0-2.38-0.74-2.38-1.65s1.07-1.65,2.38-1.65
		C444.9,203.2,445.97,203.93,445.97,204.84z"/>
	<path class="st17" d="M443.99,205.19c-0.01,0-0.02,0-0.03,0l-1.95-0.32c-0.1-0.02-0.17-0.11-0.15-0.22
		c0.02-0.1,0.11-0.17,0.22-0.15l1.82,0.3l0.42-0.79c0.05-0.09,0.16-0.13,0.25-0.08c0.09,0.05,0.13,0.16,0.08,0.25l-0.49,0.91
		C444.13,205.15,444.06,205.19,443.99,205.19z"/>
	<path class="st24" d="M459.47,186.06c-0.01,0-0.02,0-0.03,0c-0.06-0.01-0.11-0.05-0.14-0.11l-2.72-5.94
		c-0.04-0.09,0-0.21,0.09-0.25c0.09-0.04,0.21,0,0.25,0.09l2.61,5.7l3.85-3.79c0.07-0.07,0.18-0.07,0.26-0.01l3.67,3.23l4.9-6.36
		c0.06-0.08,0.18-0.1,0.26-0.03c0.08,0.06,0.1,0.18,0.03,0.26l-5.03,6.52c-0.03,0.04-0.08,0.07-0.13,0.07
		c-0.05,0-0.1-0.01-0.14-0.05l-3.69-3.25l-3.92,3.85C459.56,186.04,459.51,186.06,459.47,186.06z"/>
	<path class="st8" d="M458.77,311.24l-0.5-5.96l-11.08-0.62c-0.06,1.09-0.28,2.2-0.75,3.24c-0.45,0.99-1.2,1.74-2.08,2.31
		L458.77,311.24z"/>
	<path class="st13" d="M446.44,307.9c-1.86,4.09-8.93,4.14-8.93,4.14v2.32h21.52l-0.61-7.37h-11.63
		C446.69,307.3,446.58,307.61,446.44,307.9z"/>
	<path class="st8" d="M486.49,310.37l-0.7-5.91l-11.59,0.55c-0.05,0.84-0.21,1.74-0.57,2.68c-0.36,0.93-0.86,1.66-1.42,2.24
		L486.49,310.37z"/>
	<path class="st13" d="M473.64,307.69c-1.57,4.09-5.98,4.35-5.98,4.35v2.32h19.31l-0.87-7.37h-12.23
		C473.8,307.23,473.72,307.46,473.64,307.69z"/>
	<path class="st10" d="M448.56,309.32c0.03,0.01,0.05,0.02,0.08,0.02c0.07,0,0.14-0.04,0.17-0.11c0.04-0.09,0-0.21-0.09-0.25
		l-2.28-1.09c0,0,0,0.01,0,0.01c-0.05,0.11-0.11,0.22-0.17,0.33L448.56,309.32z"/>
	<path class="st10" d="M445.2,309.57l2.06,0.98c0.03,0.01,0.05,0.02,0.08,0.02c0.07,0,0.14-0.04,0.17-0.11
		c0.04-0.09,0-0.21-0.09-0.25l-1.94-0.92C445.39,309.39,445.3,309.48,445.2,309.57z"/>
	<path class="st10" d="M443.66,310.61l1.75,0.84c0.03,0.01,0.05,0.02,0.08,0.02c0.07,0,0.14-0.04,0.17-0.11
		c0.04-0.09,0.01-0.21-0.09-0.25l-1.51-0.72C443.94,310.47,443.8,310.54,443.66,310.61z"/>
	<path class="st10" d="M473.34,308.35l2.29,1.09c0.03,0.01,0.05,0.02,0.08,0.02c0.07,0,0.14-0.04,0.17-0.11
		c0.04-0.09,0.01-0.21-0.09-0.25l-2.29-1.09C473.45,308.12,473.4,308.24,473.34,308.35z"/>
	<path class="st10" d="M472.52,309.59l2.21,1.05c0.03,0.01,0.05,0.02,0.08,0.02c0.07,0,0.14-0.04,0.17-0.11
		c0.04-0.09,0.01-0.21-0.09-0.25l-2.13-1.02C472.68,309.39,472.6,309.49,472.52,309.59z"/>
	<path class="st10" d="M471.68,310.41c-0.11,0.09-0.22,0.18-0.33,0.26l2.31,1.1c0.03,0.01,0.05,0.02,0.08,0.02
		c0.07,0,0.14-0.04,0.17-0.11c0.04-0.09,0-0.21-0.09-0.25L471.68,310.41z"/>
	<polygon class="st25" points="437.51,313.13 458.93,313.13 458.9,312.75 437.51,312.75 	"/>
	<polygon class="st25" points="467.65,313.13 486.82,313.13 486.77,312.75 467.65,312.75 	"/>
	<path class="st13" d="M469,156.04c0.44-1.49,0.46-3.15-0.32-4.54c-0.67-1.18-1.81-1.95-3.16-2.09c-1.52-0.16-3.09,0.36-4.47,0.96
		c-1.43,0.63-2.74,1.53-3.87,2.61c-0.17,0.17,0.09,0.43,0.27,0.27c0.98-0.94,2.08-1.72,3.3-2.32c1.25-0.62,2.69-1.13,4.11-1.16
		c1.42-0.04,2.68,0.59,3.43,1.81c0.8,1.32,0.78,2.92,0.36,4.36C468.57,156.17,468.93,156.27,469,156.04L469,156.04z"/>
	<path class="st13" d="M469.23,155.94c0.65-0.77,1.64-1.19,2.64-1.11c0.24,0.02,0.24-0.36,0-0.38c-1.09-0.09-2.2,0.38-2.91,1.22
		C468.81,155.86,469.08,156.12,469.23,155.94L469.23,155.94z"/>
	<path class="st22" d="M451.82,212.82c-0.25,1.27-0.5,2.53-0.75,3.8c0.24-0.11,0.39-0.18,0.39-0.18s0.01,0,0.03,0
		c0.23-1.17,0.46-2.34,0.69-3.52C452.23,212.68,451.86,212.58,451.82,212.82z"/>
	<path class="st22" d="M449.45,213.69c-0.03,1.3-0.17,2.56-0.57,3.8c0.15-0.05,0.3-0.1,0.44-0.15c0.35-1.19,0.48-2.41,0.5-3.65
		C449.83,213.45,449.45,213.45,449.45,213.69z"/>
	<path class="st22" d="M447.56,214.95c-0.12,1.04-0.36,2.07-0.7,3.06c0.14-0.02,0.28-0.05,0.42-0.07c0.32-0.97,0.54-1.97,0.66-2.99
		C447.96,214.71,447.59,214.71,447.56,214.95z"/>
	<path class="st22" d="M443.13,213.41c0.65-0.03,1.27,0.16,1.79,0.55c0.08,0.06,0.21,0.01,0.26-0.07c0.06-0.1,0.01-0.2-0.07-0.26
		c-0.57-0.42-1.28-0.63-1.98-0.6C442.89,213.05,442.89,213.42,443.13,213.41L443.13,213.41z"/>
	<path class="st22" d="M445.23,212.31c-0.35,1.24-0.54,2.52-0.57,3.81c0,0.24,0.37,0.24,0.38,0c0.02-1.26,0.21-2.5,0.55-3.71
		C445.66,212.18,445.3,212.08,445.23,212.31L445.23,212.31z"/>
	<path class="st22" d="M467.54,166.73c-0.03,0-0.06-0.01-0.09-0.02c-0.09-0.05-0.13-0.16-0.08-0.25l1.87-3.44
		c0.05-0.09,0.16-0.13,0.25-0.08c0.09,0.05,0.13,0.16,0.08,0.25l-1.87,3.44C467.67,166.69,467.61,166.73,467.54,166.73z"/>
	<path class="st22" d="M468.38,165.19c-0.08,0-0.16-0.06-0.18-0.14c-0.03-0.1,0.03-0.2,0.13-0.23l1.17-0.31
		c0.1-0.03,0.2,0.03,0.23,0.13c0.03,0.1-0.03,0.2-0.13,0.23l-1.17,0.31C468.41,165.19,468.39,165.19,468.38,165.19z"/>
	<polygon class="st15" points="460.34,161.25 460.75,163.52 464.55,163.02 463.95,160.77 	"/>
	<path class="st13" d="M464.06,160.69c-0.57-1.16-4-0.66-3.79,0.67c0.08,0.5,0.63,0.14,1.29-0.01
		C462.67,161.1,464.62,161.85,464.06,160.69z"/>
	<path class="st8" d="M460.6,163.41c-0.06,1.04,4.28,0.76,3.94-0.58C464.2,161.5,460.65,162.37,460.6,163.41z"/>
	<path class="st25" d="M463.37,163.89c0.21-0.18,0.35-0.45,0.35-0.76c0-0.47-0.33-0.86-0.76-0.97c-0.26,0.02-0.52,0.06-0.78,0.13
		c-0.28,0.18-0.46,0.49-0.46,0.84c0,0.4,0.24,0.74,0.58,0.9C462.65,164.03,463.03,163.98,463.37,163.89z"/>
	<path class="st25" d="M460.53,163.52c-0.05,0-0.1-0.02-0.13-0.06c-0.07-0.07-0.07-0.19,0-0.27c0.96-0.95,2.32-1.9,4.24-0.84
		c0.09,0.05,0.12,0.16,0.07,0.25c-0.05,0.09-0.16,0.12-0.25,0.07c-1.35-0.74-2.49-0.51-3.8,0.78
		C460.63,163.5,460.58,163.52,460.53,163.52z"/>
	<polygon class="st15" points="454.72,162.53 454.87,164.48 458.4,164.08 458.64,161.64 	"/>
	<path class="st8" d="M454.74,164.22c-0.05,0.98,4.03,0.72,3.71-0.54C458.13,162.42,454.79,163.24,454.74,164.22z"/>
	<path class="st13" d="M458.64,161.53c0.23,0.61-0.39,0.6-1.14,0.72c-1.18,0.19-2.79,0.98-2.79,0.28
		C454.72,161.82,458.05,159.97,458.64,161.53z"/>
	<path class="st25" d="M457.64,164.1c0-0.52-0.42-0.94-0.94-0.94c-0.52,0-0.94,0.42-0.94,0.94c0,0.29,0.13,0.55,0.34,0.72
		c0.45,0.01,0.95-0.05,1.37-0.17C457.57,164.49,457.64,164.3,457.64,164.1z"/>
	<path class="st25" d="M454.74,164.4c-0.04,0-0.08-0.01-0.11-0.04c-0.08-0.06-0.09-0.17-0.03-0.25c0.93-1.17,2.27-1.45,3.99-0.82
		c0.09,0.03,0.14,0.14,0.11,0.23c-0.03,0.09-0.13,0.14-0.23,0.11c-1.58-0.58-2.76-0.35-3.59,0.71
		C454.84,164.38,454.79,164.4,454.74,164.4z"/>
	<path class="st22" d="M460.83,167.45C460.82,167.45,460.82,167.45,460.83,167.45l-2.78-0.14c-0.05,0-0.1-0.03-0.13-0.07
		c-0.03-0.04-0.05-0.09-0.04-0.14l0.76-5.78c0.01-0.1,0.11-0.18,0.21-0.16c0.1,0.01,0.18,0.11,0.16,0.21l-0.73,5.58l2.57,0.13
		c0.1,0,0.18,0.09,0.18,0.2C461.01,167.37,460.93,167.45,460.83,167.45z"/>
	<path class="st15" d="M462.47,170.4c0.08,0.29-0.52,0.69-1.32,0.91c-0.81,0.21-1.52,0.15-1.6-0.14s0.52-0.69,1.32-0.91
		C461.68,170.05,462.39,170.11,462.47,170.4z"/>
	<path class="st15" d="M472.37,203.85c0,0,0.82,2.96,1.73,2.7c0.9-0.26-0.27-2.7-0.27-2.7H472.37z"/>
	<path class="st15" d="M475.15,211.52l3.9,0.73l-0.3-2.28c-0.12-2.74-1.24-4.9-3.06-6.04C477.09,205.95,477.73,210.61,475.15,211.52
		z"/>
	<path class="st17" d="M484.89,203.15c0,0-6.36-4.25-6.27-12.51c0.08-8.26,6.27-10.8,6.27-10.8s25.34,28.82,22.42,36.57
		c-2.92,7.76-32.11-2.42-32.11-2.42c3.31-0.94,3.76-7.72,0-10.43L484.89,203.15z"/>
	<path class="st19" d="M475.11,203.9c-0.1,0-0.18-0.08-0.19-0.18c-0.01-0.1,0.07-0.19,0.18-0.2l14.61-0.81
		c0.1-0.01,0.19,0.07,0.2,0.18c0.01,0.1-0.07,0.19-0.18,0.2l-14.61,0.81C475.12,203.9,475.12,203.9,475.11,203.9z"/>
	<path class="st19" d="M484.62,179.79c-6.99,6.16-7.91,13.48-2.66,21.21l0.08-0.56c-4.96-7.55-3.98-14.43,2.92-20.46l0.02-0.15
		C484.86,179.82,484.74,179.81,484.62,179.79z"/>
	<path class="st15" d="M472.79,211.08c0,0,0.77-0.85,0.94-0.79c0.17,0.06-0.14,0.94-0.14,0.94L472.79,211.08z"/>
	<path class="st22" d="M457.71,203.38c0.1,0.02,0.32,0.09,0.31,0.24c-0.01,0.14-0.24,0.26-0.34,0.34c-0.54,0.39-1.11,0.71-1.71,0.98
		c0.08,0.11,0.19,0.2,0.33,0.26c0.25-0.12,0.5-0.24,0.74-0.38c0.21-0.12,0.41-0.25,0.61-0.38c0.19-0.13,0.39-0.25,0.55-0.41
		c0.15-0.15,0.24-0.36,0.16-0.58c-0.07-0.21-0.27-0.33-0.47-0.4c-0.02-0.01-0.03-0.01-0.05-0.01c-0.2,0.11-0.38,0.23-0.55,0.34
		C457.43,203.35,457.57,203.35,457.71,203.38z"/>
	<path class="st17" d="M485.59,298.31h-3.21l-6.03-62.62c-0.01-0.1-0.1-0.17-0.21-0.17c-0.1,0.01-0.18,0.1-0.17,0.2l6.03,62.58
		h-12.55c0.03,0.13,0.06,0.25,0.08,0.38h12.63c0.01,0,0.03,0.01,0.04,0.01c0.01,0,0.01,0,0.02,0c0.01,0,0.01,0,0.02-0.01h3.36
		L485.59,298.31z"/>
	<path class="st19" d="M440.36,241.47c-0.08,0-0.16-0.06-0.18-0.14c-0.02-0.1,0.04-0.2,0.14-0.23l14.43-3.49l4.01-13.75
		c0.03-0.1,0.13-0.16,0.23-0.13c0.1,0.03,0.16,0.13,0.13,0.23l-4.04,13.85c-0.02,0.06-0.07,0.11-0.14,0.13l-14.54,3.52
		C440.39,241.47,440.37,241.47,440.36,241.47z"/>
	<path class="st19" d="M502.82,214.87c0,1.55,0.47,2.96,1.24,4.02c1.61-0.44,2.77-1.22,3.24-2.47c0.61-1.62-0.01-4.15-1.37-7.14
		C504.12,210.1,502.82,212.29,502.82,214.87z"/>
	<path class="st19" d="M417.41,196c0-1.33-0.35-2.54-0.94-3.47c-1.36,0.98-2.27,1.99-2.49,3.01c-0.3,1.38,0.6,2.85,2.23,4.31
		C416.94,198.89,417.41,197.52,417.41,196z"/>
	<path class="st24" d="M463.54,181.72c-0.02,0-0.04,0-0.06,0l-0.04,0.01c-0.06,0.02-0.1,0.07-0.11,0.14
		c-0.69,3.92-2.33,13.21-2.92,16.21l0.14,0.7l0.15-0.26c0.56-2.73,2.39-13.12,3-16.59C463.71,181.83,463.65,181.73,463.54,181.72z"
		/>
	<polygon class="st19" points="431.71,195.17 445.97,193.07 445.97,198.51 435.14,197.22 	"/>
	<path class="st19" d="M439.89,200.23c-0.03,0-0.07-0.01-0.1-0.03l-9.14-5.44c-0.09-0.05-0.12-0.17-0.07-0.26s0.17-0.12,0.26-0.07
		l9.14,5.44c0.09,0.05,0.12,0.17,0.07,0.26C440.01,200.2,439.95,200.23,439.89,200.23z"/>
	<path class="st19" d="M445.58,198.46l0.38,0.04l-0.08-16.3c0-0.01-0.01-0.03-0.01-0.04c-0.12,0.03-0.24,0.06-0.37,0.09
		L445.58,198.46z"/>
	<path class="st14" d="M189.79,211.34l1.48,1.57c3.24,1.61,7.89,3.97,7.88,4.62c-0.02,1.02-0.69,5.29-1.7,5.75
		c-1.01,0.46-1.4,0.49-1.4,0.49s-4.05,2.18-6.04,1.37c-1.99-0.8-2.89-2.76-2.48-3.67c0.42-0.91,1.25-0.89,1.25-0.89
		c-1.38-0.77-2.45-2.19-2.59-3.08l-1.44-2.65C184.75,214.86,187.86,211.65,189.79,211.34z"/>
	<path class="st22" d="M196.35,220.71c-0.21,1.08-0.42,2.16-0.64,3.24c0.21-0.1,0.33-0.17,0.33-0.17s0.03,0,0.09-0.02
		c0.19-0.98,0.39-1.97,0.58-2.95C196.76,220.57,196.4,220.47,196.35,220.71z"/>
	<path class="st22" d="M194.24,221.49c-0.01,1.11-0.11,2.19-0.41,3.25c0.15-0.05,0.29-0.11,0.43-0.16c0.26-1.01,0.35-2.04,0.36-3.09
		C194.62,221.25,194.24,221.25,194.24,221.49z"/>
	<path class="st22" d="M192.14,222.35c-0.11,1.01-0.35,2-0.7,2.96c0.14-0.01,0.27-0.03,0.41-0.05c0.33-0.94,0.56-1.92,0.66-2.91
		C192.54,222.11,192.16,222.11,192.14,222.35z"/>
	<path class="st22" d="M190.08,221.12c-0.4-0.27-0.85-0.46-1.33-0.54c0.01,0,0.02,0.01,0.02,0.01c0,0-0.4-0.01-0.79,0.3
		c0.02,0,0.03,0.01,0.05,0.01c0.66-0.02,1.31,0.17,1.85,0.55c0.08,0.06,0.21,0.02,0.26-0.07
		C190.2,221.28,190.16,221.17,190.08,221.12z"/>
	<path class="st22" d="M190.18,219.88c-0.34,1.16-0.51,2.37-0.51,3.59c0,0.24,0.37,0.24,0.38,0c0-1.18,0.17-2.35,0.5-3.49
		C190.61,219.75,190.25,219.65,190.18,219.88L190.18,219.88z"/>
	<path class="st14" d="M246.46,179.71c0,0-1.61-2.31-1.31-3.3c0.3-0.99,1.69,0.28,1.69,0.28L246.46,179.71z"/>
	<path class="st21" d="M254.65,185.51l-8.29-0.4c-0.21-0.01-0.38-0.19-0.36-0.4l0.76-14.66c0.01-0.21,0.19-0.37,0.4-0.36l8.29,0.4
		c0.21,0.01,0.38,0.19,0.36,0.4l-0.76,14.66C255.04,185.35,254.86,185.52,254.65,185.51z"/>
	<polygon class="st8" points="254.75,184 246.43,183.6 247.14,169.97 255.45,170.37 	"/>
	<path class="st14" d="M218.21,298.12l0.2,6.35c0,0,10.13,0.53,10.08-0.6c-0.17-3.39,0.9-6.53,0.9-6.53L218.21,298.12z"/>
	<path class="st15" d="M218.21,298.12l11.18-0.78c0,0-0.74,2.16-0.89,4.82l-10.18-0.57L218.21,298.12z"/>
	<polygon class="st16" points="207.9,230.36 218.12,301.13 229.94,301.13 226.15,222.59 210.61,217.47 	"/>
	<path class="st8" d="M218.39,310.75l0.01-6.27l10.08-0.65c0.05,1.14,0.25,2.32,0.68,3.41c0.41,1.04,1.09,1.83,1.89,2.43
		L218.39,310.75z"/>
	<path class="st13" d="M239.61,311.59v2.44h-21.32l-0.07-7.75l10.77-0.13C229.38,310.87,239.61,311.59,239.61,311.59z"/>
	<rect x="218.28" y="312.35" class="st25" width="21.33" height="0.38"/>
	<path class="st17" d="M229.75,297.18h-8.97l-6.5-66.56c-0.01-0.1-0.1-0.17-0.21-0.17c-0.1,0.01-0.18,0.1-0.17,0.21l6.5,66.52h-2.86
		l0.05,0.38h3.01c0,0,0,0,0.01,0c0.01,0,0.01,0,0.02,0c0,0,0,0,0,0h9.13L229.75,297.18z"/>
	<path class="st14" d="M189.24,298.58l-0.63,5.06l10.98,0.58c-0.05-3.42,1.03-5.13,1.03-5.13L189.24,298.58z"/>
	<path class="st17" d="M213.98,236.39c-0.08,0-0.15-0.05-0.18-0.12c-0.04-0.1,0.01-0.21,0.11-0.24c0.02-0.01,2.46-0.97,3.75-3.02
		c1.3-2.07,2.63-11.38,2.64-11.48c0.01-0.1,0.11-0.17,0.21-0.16c0.1,0.01,0.17,0.11,0.16,0.21c-0.05,0.39-1.35,9.48-2.69,11.62
		c-1.36,2.16-3.83,3.13-3.93,3.17C214.02,236.39,214,236.39,213.98,236.39z"/>
	<path class="st15" d="M189.19,298.47l11.43,0.62c0,0-0.54,1.01-0.84,2.59l-10.84-0.65L189.19,298.47z"/>
	<path class="st18" d="M196.47,222.56c-4.28,9-1.57,24.05-3.48,40.44c-1.91,16.39-4.36,37.42-4.36,37.42l12.29,0.18l16.9-78.26
		C217.81,222.33,200.75,213.55,196.47,222.56z"/>
	<path class="st8" d="M188.26,306.31l0.36-2.66l10.98,0.58c0.05,0.88,0.21,1.83,0.55,2.82c0.34,0.98,0.83,1.75,1.37,2.35
		L188.26,306.31z"/>
	<g>
		<path class="st13" d="M210.98,311.61v2.45h-23.79l1.07-7.75l11.71-0.15C200.25,310.47,210.98,311.61,210.98,311.61z"/>
	</g>
	<polygon class="st25" points="187.37,312.75 210.98,312.75 210.98,312.37 187.42,312.37 	"/>
	<path class="st17" d="M201.65,297.18h-8.45l6.55-65.44c6.31-0.51,7.37-9.12,7.38-9.2c0.01-0.1-0.06-0.2-0.17-0.21
		c-0.1-0.01-0.2,0.06-0.21,0.17c-0.01,0.08-1.03,8.32-6.97,8.86l0.89-8.94c0.01-0.1-0.06-0.2-0.17-0.21
		c-0.1-0.01-0.2,0.06-0.21,0.17l-7.48,74.8h-3.81c-0.01,0.13-0.03,0.25-0.04,0.38h3.99c0.01,0,0.01,0.01,0.02,0.01
		c0.01,0,0.01,0,0.02,0c0.01,0,0.03,0,0.04-0.01h8.54L201.65,297.18z"/>
	<path class="st15" d="M206.69,163.62l0.9,11.94c0,0,0.27,4,4.33,3.94c4.06-0.06,4.58-4.35,4.58-4.35l-0.58-6.14L206.69,163.62z"/>
	<path class="st14" d="M216.42,153.51c0,0,2.91,1.15,3.28,5.17c0.16,1.3,0.46,4.31,0.22,7.09c-0.23,2.78-0.83,8.37-3.82,8.48
		c-2.99,0.11-5.79-1.12-7.5-4s-1.6-4.68-2.75-7.54l1.31-0.72l-1.64-4.69c0,0,0.82-1.78,3.45-2.67
		C211.59,153.76,216.42,153.51,216.42,153.51z"/>
	<path class="st17" d="M249.07,190.15l-9.83,6.56c0,0-8.43-15.7-22.43-18.73c-2.18-0.47-2.45,1.27-4.89,1.51
		c-1.49-0.07-4.98-1.98-6.4-1.93c-22.4,0.86-34.5,16.88-35.37,22.01c-0.93,5.45,11.91,13.76,11.91,13.76l6.03-4.8l-5.26-6.76
		l9.83-6.07l4.46,23.15h28.88l2.46-17.56c0.59,1.34,3.64,7.65,11.1,8.71c8.13,1.16,14.63-16.65,14.63-16.65L249.07,190.15z"/>
	<polygon class="st15" points="214,160.84 214.04,163.48 209.91,163.24 209.7,161.09 	"/>
	<path class="st13" d="M209.56,160.83c0.61-1.14,4.71-0.88,4.53,0.4c-0.07,0.48-0.74,0.17-1.54,0.07
		C211.23,161.13,208.95,161.97,209.56,160.83z"/>
	<path class="st8" d="M214.05,163.35c0.25,0.97-3.8,0.83-4.13-0.12C209.58,162.29,213.79,162.38,214.05,163.35z"/>
	<path class="st25" d="M214.05,163.54c-0.04,0-0.08-0.01-0.12-0.04c-0.83-0.67-1.97-0.59-3.19-0.51c-0.3,0.02-0.61,0.04-0.9,0.05
		c-0.1,0.01-0.19-0.08-0.19-0.18c0-0.1,0.08-0.19,0.18-0.19c0.29-0.01,0.59-0.03,0.89-0.05c1.23-0.08,2.51-0.17,3.45,0.59
		c0.08,0.07,0.09,0.18,0.03,0.26C214.15,163.52,214.1,163.54,214.05,163.54z"/>
	<polygon class="st15" points="219.99,161.04 219.98,163.37 216.68,163.84 215.84,161.15 	"/>
	<path class="st13" d="M216.12,161.24c-0.12,0.6,0.5,0.48,1.28,0.45c1.22-0.05,2.99,0.37,2.86-0.27
		C220.13,160.77,216.42,159.69,216.12,161.24z"/>
	<path class="st15" d="M213.2,168.59c-0.1,0.39,0.64,1.71,2.21,1.71c1.57,0,1.83-0.73,1.93-1.12c0.23-0.63-0.69-1-1.94-0.54
		C214.48,167.76,213.3,168.21,213.2,168.59z"/>
	<path class="st24" d="M213.93,221.88c-0.1,0-0.18-0.08-0.19-0.18l-2.01-42.2c0-0.1,0.08-0.19,0.18-0.2c0.1-0.01,0.19,0.07,0.2,0.18
		l2.01,42.2C214.12,221.79,214.04,221.88,213.93,221.88C213.93,221.88,213.93,221.88,213.93,221.88z"/>
	<path class="st8" d="M216.42,163.54c-0.15,0.93,3.12,0.72,3.34-0.18C219.97,162.45,216.57,162.61,216.42,163.54z"/>
	<path class="st25" d="M216.54,163.71c-0.05,0-0.09-0.02-0.13-0.05c-0.07-0.07-0.08-0.19,0-0.27c0.73-0.75,1.71-0.68,2.65-0.62
		c0.25,0.02,0.5,0.03,0.74,0.03c0.1,0,0.19,0.09,0.19,0.19c0,0.1-0.09,0.18-0.19,0.19c-0.26,0-0.51-0.02-0.76-0.03
		c-0.9-0.06-1.75-0.11-2.36,0.51C216.63,163.69,216.59,163.71,216.54,163.71z"/>
	<path class="st22" d="M216.06,169.53c-0.95,0-2.2-0.31-3.67-1.41c-0.08-0.06-0.1-0.18-0.04-0.26c0.06-0.08,0.18-0.1,0.26-0.04
		c3.12,2.34,5.14,0.91,5.22,0.85c0.08-0.06,0.2-0.04,0.26,0.04c0.06,0.08,0.04,0.2-0.04,0.26
		C218.02,169,217.29,169.53,216.06,169.53z"/>
	<polygon class="st8" points="182.05,213.35 188.08,208.55 191.26,212.92 185.93,216.87 	"/>
	<path class="st13" d="M207.21,162.27c4.49-0.01,6.85-2.19,7.3-6.8c0.8,3.75,2.89,6.21,5.83,6.45c0,0,2.16-9.51-6.71-10.08
		c-8.87-0.57-10.3,1.74-11.97,5.45c-1.66,3.71,1.23,6.06,1.23,6.06s-0.15,2.05,1.08,3.81s3.14,1.96,3.14,1.96L207.21,162.27z"/>
	<path class="st14" d="M207.21,162.27c0,0-3.38-2.89-3.72,0.47c-0.34,3.36,4.84,4.01,4.84,4.01L207.21,162.27z"/>
	<path class="st22" d="M206.8,165.55c-0.1,0-0.18-0.08-0.19-0.18c-0.03-1.03-0.83-2.11-1.79-3.31c-0.06-0.08-0.05-0.2,0.03-0.26
		c0.08-0.06,0.2-0.05,0.26,0.03c1.01,1.26,1.84,2.39,1.88,3.54C206.99,165.46,206.91,165.54,206.8,165.55
		C206.8,165.55,206.8,165.55,206.8,165.55z"/>
	<path class="st22" d="M206.27,164.14c-0.01,0-0.02,0-0.04,0l-1.36-0.26c-0.1-0.02-0.17-0.12-0.15-0.22
		c0.02-0.1,0.12-0.17,0.22-0.15l1.36,0.26c0.1,0.02,0.17,0.12,0.15,0.22C206.44,164.08,206.36,164.14,206.27,164.14z"/>
	<path class="st13" d="M207.35,153.65c0,2.15-1.81,3.89-4.04,3.89s-4.04-1.74-4.04-3.89s1.81-3.89,4.04-3.89
		S207.35,151.51,207.35,153.65z"/>
	<path class="st25" d="M212.69,164.04c0.1-0.17,0.16-0.36,0.16-0.56c0-0.32-0.13-0.6-0.35-0.81c-0.55-0.08-1.17-0.09-1.66-0.02
		c-0.23,0.21-0.37,0.5-0.37,0.83c0,0.1,0.02,0.19,0.04,0.28C211.09,163.98,211.96,164.08,212.69,164.04z"/>
	<path class="st25" d="M216.75,163.13c-0.05,0.13-0.08,0.26-0.08,0.41c0,0.16,0.04,0.32,0.1,0.46c0.52,0.21,1.5,0.18,2.2-0.05
		c0.05-0.13,0.08-0.26,0.08-0.41c0-0.3-0.12-0.57-0.32-0.77C218.06,162.72,217.22,162.85,216.75,163.13z"/>
	<path class="st2" d="M161.9,309.83c-0.25,1.59,0.54,3.31,1.81,4.38c2.34,1.95,5.65,2.12,8.53,2.57c4.09,0.65,8.18,1.33,12.26,2.04
		c1.02,0.06,2.05,0.11,3.1,0.16c-0.91-0.16-1.81-0.32-2.72-0.48c-3.17-0.55-6.34-1.08-9.51-1.6c-1.59-0.26-3.17-0.51-4.76-0.76
		c-1.49-0.23-3.01-0.44-4.43-0.97c-1.4-0.52-2.73-1.42-3.46-2.75c-0.43-0.8-0.59-1.75-0.42-2.63
		C162.16,309.81,162.03,309.82,161.9,309.83z"/>
	<path class="st2" d="M532.99,311.43c-6.47,1-12.98,1.82-19.5,2.44c-8.02,0.76-16.07,1.22-24.12,1.39
		c-7.69,0.16-15.38-0.09-23.07-0.17c-7.25-0.08-14.55,0.09-21.7,1.45c-3.53,0.67-7,1.65-10.33,3.01c-1.16,0.48-2.32,1-3.43,1.59
		c0.29-0.01,0.58-0.01,0.86-0.02c0.33-0.16,0.66-0.32,1-0.48c3.3-1.52,6.79-2.62,10.34-3.4c7.09-1.56,14.39-1.83,21.62-1.79
		c7.57,0.04,15.13,0.33,22.7,0.22c7.98-0.12,15.96-0.53,23.91-1.22c7.65-0.67,15.28-1.61,22.86-2.81
		C533.77,311.57,533.39,311.5,532.99,311.43z"/>
	<path class="st2" d="M352.41,287.12c0.52,7.07,1.03,14.14,1.55,21.22l0.37-0.01c-0.52-7.11-1.04-14.21-1.55-21.32
		C352.66,287.04,352.54,287.08,352.41,287.12z"/>
	<path class="st2" d="M373.35,266.09c-2.55,11.02-4.3,22.21-5.23,33.48c-0.23,2.77-0.4,5.54-0.53,8.31l0.38-0.01
		c0.52-11.02,1.8-22.01,3.87-32.85c0.59-3.07,1.24-6.13,1.95-9.18C373.64,265.92,373.49,266,373.35,266.09z"/>
	<path class="st2" d="M317.42,308.84l0.42,0.02c-2.37-5.29-4.32-10.76-5.84-16.35c-0.15-0.06-0.29-0.13-0.44-0.19
		C313.07,297.97,315.04,303.49,317.42,308.84z"/>
	<path class="st2" d="M311.92,308.61c-2.94-5.55-6.62-10.68-10.93-15.25c-0.08,0.11-0.15,0.22-0.22,0.33
		c4.21,4.47,7.81,9.49,10.7,14.9L311.92,308.61z"/>
	<path class="st2" d="M280.21,284.42c-0.4-0.58-0.8-1.17-1.23-1.73c-0.14,0.02-0.28,0.05-0.41,0.08c0.4,0.51,0.77,1.04,1.13,1.57
		c1.41,2.05,2.81,4.1,4.22,6.16c2.86,4.18,5.72,8.35,8.59,12.53c1.12,1.63,2.24,3.27,3.36,4.9l0.47,0.02
		C290.95,300.1,285.58,292.26,280.21,284.42z"/>
	<path class="st18" d="M192.48,195.81l0.16-0.1l0.12,0.64c1.26-6.72,1.07-12.18-0.56-16.28c-0.12,0.04-0.24,0.09-0.35,0.13
		C193.42,184.13,193.63,189.37,192.48,195.81z"/>
	<path class="st18" d="M228.39,201.71l0.06-0.4c0.07,0.16,0.18,0.4,0.33,0.69c-0.18-9.55-1.08-15.99-2.8-19.97
		c-0.19-0.13-0.39-0.26-0.59-0.39C227.23,185.47,228.19,191.92,228.39,201.71z"/>
	<path class="st10" d="M250.61,183.17L250.61,183.17c-1.64-0.08-2.91-1.47-2.83-3.12l0.29-6.11c0.08-1.64,1.47-2.91,3.12-2.83l0,0
		c1.64,0.08,2.91,1.47,2.83,3.12l-0.29,6.11C253.65,181.98,252.25,183.25,250.61,183.17z"/>
	<g class="st26">
		<polygon class="st8" points="249.51,170.09 246.88,175.05 246.43,183.6 246.92,183.63 254,170.3 		"/>
		<polygon class="st8" points="255.17,175.78 255.42,170.98 248.66,183.71 250.9,183.82 		"/>
	</g>
	<path class="st8" d="M250.99,174.11c-0.01,0-0.02,0-0.03,0c-0.05-0.01-0.09-0.03-0.12-0.07l-0.6-0.81
		c-0.06-0.08-0.04-0.2,0.04-0.26c0.08-0.06,0.2-0.05,0.26,0.04l0.49,0.66l1.2-0.89c0.08-0.06,0.2-0.04,0.26,0.04
		c0.06,0.08,0.04,0.2-0.04,0.26l-1.35,1.01C251.07,174.09,251.03,174.11,250.99,174.11z"/>
	<g>
		<path class="st8" d="M250.86,180.71c0-0.06-0.01-0.11-0.05-0.15c-0.03-0.04-0.09-0.08-0.18-0.11c-0.08-0.03-0.16-0.07-0.22-0.1
			c-0.06-0.03-0.11-0.07-0.16-0.11c-0.04-0.04-0.08-0.09-0.1-0.15c-0.02-0.06-0.03-0.12-0.03-0.19c0.01-0.13,0.05-0.23,0.14-0.31
			c0.09-0.08,0.21-0.12,0.35-0.13l0.01-0.24l0.19,0.01l-0.01,0.25c0.14,0.03,0.25,0.09,0.32,0.18c0.07,0.1,0.11,0.22,0.1,0.37
			l-0.34-0.02c0-0.09-0.01-0.16-0.05-0.21c-0.04-0.05-0.09-0.07-0.15-0.08c-0.06,0-0.12,0.01-0.15,0.05
			c-0.04,0.03-0.06,0.08-0.06,0.14c0,0.06,0.01,0.1,0.05,0.14c0.03,0.04,0.1,0.08,0.19,0.12c0.09,0.04,0.17,0.08,0.23,0.11
			c0.06,0.04,0.11,0.07,0.15,0.12c0.04,0.04,0.07,0.09,0.09,0.14c0.02,0.05,0.03,0.11,0.02,0.18c-0.01,0.13-0.05,0.23-0.14,0.31
			c-0.09,0.08-0.21,0.12-0.35,0.13l-0.01,0.23l-0.19-0.01l0.01-0.23c-0.16-0.02-0.28-0.09-0.37-0.18c-0.08-0.1-0.12-0.23-0.11-0.38
			l0.34,0.02c0,0.09,0.01,0.16,0.06,0.21c0.04,0.05,0.11,0.08,0.19,0.08c0.07,0,0.13-0.01,0.17-0.05
			C250.83,180.82,250.85,180.77,250.86,180.71z"/>
	</g>
	
		<rect x="250.65" y="175.49" transform="matrix(0.9988 0.048 -0.048 0.9988 8.7624 -11.8422)" class="st8" width="0.53" height="2.03"/>
	<polygon class="st8" points="250.84,178.11 251.75,176.96 250.05,176.88 	"/>
	<path class="st21" d="M251.73,170.17c-0.01,0.21-0.25,0.38-0.54,0.36c-0.29-0.01-0.51-0.2-0.5-0.41c0.01-0.21,0.24-0.11,0.53-0.09
		C251.51,170.04,251.74,169.96,251.73,170.17z"/>
	<circle class="st8" cx="250.39" cy="184.54" r="0.49"/>
	<polygon class="st13" points="226.15,222.59 196.48,222.59 197.08,218.87 226.15,218.87 	"/>
	<rect x="201.56" y="218.73" class="st18" width="1.31" height="4.09"/>
	<rect x="208.15" y="218.73" class="st18" width="1.31" height="4.09"/>
	<rect x="216.2" y="218.73" class="st18" width="1.31" height="4.09"/>
	<rect x="222.4" y="218.73" class="st16" width="1.31" height="4.09"/>
	<path class="st10" d="M216.2,222.7h-4.89c-0.1,0-0.19-0.08-0.19-0.19v-3.78c0-0.1,0.08-0.19,0.19-0.19h4.89
		c0.1,0,0.19,0.08,0.19,0.19v3.78C216.39,222.62,216.31,222.7,216.2,222.7z M211.5,222.33h4.51v-3.41h-4.51V222.33z"/>
	<path class="st10" d="M213.67,220.91h-2.23c-0.1,0-0.19-0.08-0.19-0.19c0-0.1,0.08-0.19,0.19-0.19h2.23c0.1,0,0.19,0.08,0.19,0.19
		C213.86,220.83,213.78,220.91,213.67,220.91z"/>
	<polygon class="st8" points="216.49,175.15 211.84,178.94 207.52,175.15 203.99,177.65 208.25,184.07 211.75,179.7 215.88,183.77 
		219.33,178.69 	"/>
	<path class="st18" d="M185.18,214.77c-0.62,0-1.13-0.51-1.13-1.13c0-0.62,0.51-1.13,1.13-1.13c0.62,0,1.13,0.51,1.13,1.13
		C186.31,214.27,185.8,214.77,185.18,214.77z M185.18,212.9c-0.41,0-0.75,0.34-0.75,0.75c0,0.41,0.34,0.75,0.75,0.75
		s0.75-0.34,0.75-0.75C185.93,213.23,185.59,212.9,185.18,212.9z"/>
	<path class="st18" d="M215.01,188.22c-0.61,0-1.1-0.49-1.1-1.1c0-0.61,0.49-1.1,1.1-1.1c0.61,0,1.1,0.49,1.1,1.1
		C216.11,187.73,215.61,188.22,215.01,188.22z M215.01,186.39c-0.4,0-0.73,0.33-0.73,0.73s0.33,0.73,0.73,0.73
		c0.4,0,0.73-0.33,0.73-0.73S215.41,186.39,215.01,186.39z"/>
	<path class="st18" d="M215.58,196.48c-0.61,0-1.1-0.49-1.1-1.1c0-0.61,0.49-1.1,1.1-1.1c0.61,0,1.1,0.49,1.1,1.1
		C216.68,195.99,216.19,196.48,215.58,196.48z M215.58,194.65c-0.4,0-0.73,0.33-0.73,0.73c0,0.4,0.33,0.73,0.73,0.73
		s0.73-0.33,0.73-0.73C216.31,194.98,215.98,194.65,215.58,194.65z"/>
	<path class="st18" d="M216.16,204.08c-0.61,0-1.1-0.49-1.1-1.1c0-0.61,0.49-1.1,1.1-1.1c0.61,0,1.1,0.49,1.1,1.1
		C217.26,203.59,216.76,204.08,216.16,204.08z M216.16,202.26c-0.4,0-0.73,0.33-0.73,0.73c0,0.4,0.33,0.73,0.73,0.73
		c0.4,0,0.73-0.33,0.73-0.73C216.88,202.58,216.56,202.26,216.16,202.26z"/>
	<path class="st18" d="M216.73,212.44c-0.61,0-1.1-0.49-1.1-1.1c0-0.61,0.49-1.1,1.1-1.1c0.61,0,1.1,0.49,1.1,1.1
		C217.83,211.95,217.34,212.44,216.73,212.44z M216.73,210.62c-0.4,0-0.73,0.33-0.73,0.73c0,0.4,0.33,0.73,0.73,0.73
		c0.4,0,0.73-0.33,0.73-0.73C217.46,210.94,217.13,210.62,216.73,210.62z"/>
	<path class="st14" d="M254.83,190.58c0,0,0.48-1.71,1.84-5.95c1.36-4.24,0.76-8.75,0.76-8.75s-0.89-4.8-1.56-4.27
		c-0.67,0.52-0.32,3.59-0.32,3.59s-1.05-0.8-1.29,0.06c-0.24,0.87,1.15,2.04,1.15,2.04s-1.25-0.81-1.44,0.11
		c-0.19,0.92,1.29,1.71,1.29,1.71s-1.08-0.66-1.17,0.28c-0.09,0.94,1.09,1.87,1.09,1.87l-0.14,3.93c0,0-0.01,0.11-0.11,0.2
		c-0.1,0.09-0.23,0.11-0.23,0.11l-5.37-0.26c0.14,1.01,0.16,1.92,0.06,2.73C249.23,189.33,253.31,191.39,254.83,190.58z"/>
	<path class="st8" d="M247.83,190.98l1.62-3.77c1.97,0.92,3.73,1.58,5.88,1.7l-1.14,4.46C252.15,194.05,249.08,192.68,247.83,190.98
		z"/>
	<path class="st18" d="M252.23,191.94c-0.58,0-1.05-0.47-1.05-1.05c0-0.58,0.47-1.05,1.05-1.05c0.58,0,1.05,0.47,1.05,1.05
		C253.28,191.47,252.81,191.94,252.23,191.94z M252.23,190.22c-0.37,0-0.67,0.3-0.67,0.67c0,0.37,0.3,0.67,0.67,0.67
		c0.37,0,0.67-0.3,0.67-0.67C252.9,190.52,252.6,190.22,252.23,190.22z"/>
	<path class="st22" d="M214.59,167.29c-0.09,0-0.17-0.06-0.18-0.16c-0.02-0.1,0.05-0.2,0.15-0.22l2.57-0.43l-1.42-5.11
		c-0.03-0.1,0.03-0.2,0.13-0.23c0.1-0.03,0.2,0.03,0.23,0.13l1.47,5.31c0.01,0.05,0.01,0.11-0.02,0.15
		c-0.03,0.04-0.07,0.08-0.13,0.08l-2.78,0.47C214.61,167.29,214.6,167.29,214.59,167.29z"/>
	<g>
		<path class="st10" d="M198.68,308.74c0.03,0,0.06-0.01,0.08-0.02l1.87-0.95c-0.08-0.1-0.15-0.2-0.22-0.31l-1.82,0.92
			c-0.09,0.05-0.13,0.16-0.08,0.25C198.55,308.7,198.61,308.74,198.68,308.74z"/>
		<path class="st10" d="M199.55,309.8c0.03,0.07,0.1,0.1,0.17,0.1c0.03,0,0.06-0.01,0.08-0.02l2.04-1.03
			c-0.12-0.08-0.23-0.16-0.34-0.25l-1.86,0.94C199.54,309.59,199.5,309.71,199.55,309.8z"/>
		<path class="st10" d="M203.13,309.58l-2.02,1.02c-0.09,0.05-0.13,0.16-0.08,0.25c0.03,0.07,0.1,0.1,0.17,0.1
			c0.03,0,0.06-0.01,0.08-0.02l2.29-1.16C203.42,309.71,203.27,309.64,203.13,309.58z"/>
	</g>
	<g>
		<path class="st10" d="M227.71,309.15c0.03,0,0.06-0.01,0.09-0.02l2-1.07c-0.08-0.1-0.16-0.2-0.23-0.3l-1.95,1.05
			c-0.09,0.05-0.13,0.16-0.08,0.25C227.58,309.12,227.64,309.15,227.71,309.15z"/>
		<path class="st10" d="M228.87,310.03c0.03,0.06,0.1,0.1,0.17,0.1c0.03,0,0.06-0.01,0.09-0.02l1.86-1
			c-0.12-0.08-0.23-0.16-0.34-0.24l-1.7,0.91C228.86,309.83,228.82,309.94,228.87,310.03z"/>
		<path class="st10" d="M232.31,309.85l-1.73,0.93c-0.09,0.05-0.13,0.16-0.08,0.25c0.03,0.06,0.1,0.1,0.17,0.1
			c0.03,0,0.06-0.01,0.09-0.02l1.99-1.07C232.59,309.98,232.45,309.91,232.31,309.85z"/>
	</g>
	<g>
		<path class="st22" d="M255.55,175.2c0,0-0.02-0.02-0.06-0.04c0.68,0.62,1.36,1.23,2.04,1.85c-0.01-0.2-0.02-0.39-0.04-0.54
			c-0.66-0.6-1.32-1.2-1.99-1.8C255.52,174.98,255.55,175.2,255.55,175.2z"/>
		<path class="st22" d="M255.32,177.22c0.77,0.6,1.51,1.23,2.23,1.88c0.01-0.17,0.01-0.33,0.01-0.49c-0.94-0.83-1.9-1.62-2.91-2.37
			c-0.06-0.05-0.12-0.04-0.17-0.01C254.74,176.67,255.14,177.06,255.32,177.22z"/>
		<path class="st22" d="M257.09,183.06c-0.7-0.78-1.45-1.51-2.25-2.18c-0.03-0.03-0.06-0.04-0.09-0.04
			c0.24,0.26,0.45,0.43,0.45,0.43l-0.01,0.41c0.64,0.58,1.24,1.19,1.81,1.83C257.02,183.36,257.05,183.21,257.09,183.06z"/>
		<path class="st22" d="M255.21,179.1C255.21,179.1,255.21,179.09,255.21,179.1c0.8,0.5,1.54,1.09,2.22,1.75
			c0.02-0.16,0.03-0.32,0.05-0.48c-0.85-0.79-1.79-1.48-2.81-2.04c-0.13-0.07-0.24,0.02-0.27,0.13
			C254.7,178.78,255.08,179.02,255.21,179.1z"/>
	</g>
</g>
<g>
	<path class="st27" d="M397.86,142.88c-11.49-15.19-28.48-24.77-47.82-26.98c-2.8-0.32-5.65-0.48-8.46-0.48
		c-7.48,0-14.91,1.13-22.09,3.35c-6.66,2.06-13.04,5.04-18.98,8.87l-5.36-12.34l-1.51-3.47l-1.13,3.61l-8.98,28.71l-0.59,1.9
		l1.99-0.07l30.07-1.04l3.95-0.14l-3.15-2.39l-9.19-6.99c10.63-6.65,22.68-10.16,34.98-10.16c2.44,0,4.91,0.14,7.34,0.42
		c16.65,1.9,31.25,10.13,41.1,23.17l0.85,1.12l1.12-0.85l5.59-4.23l0.48-0.36l0.07-0.6l0.07-0.6L397.86,142.88z"/>
</g>
</svg>
