<?xml version="1.0" encoding="utf-8"?>
<!-- Generator: Adobe Illustrator 23.0.5, SVG Export Plug-In . SVG Version: 6.00 Build 0)  -->
<svg version="1.1" xmlns="http://www.w3.org/2000/svg" xmlns:xlink="http://www.w3.org/1999/xlink" x="0px" y="0px"
	 viewBox="0 0 500 500" style="enable-background:new 0 0 500 500;" xml:space="preserve">
<style type="text/css">
	.st0{fill:#49999D;}
	.st1{fill:#57ADAD;}
	.st2{fill:#408E8E;}
	.st3{fill:none;stroke:#57ADAD;stroke-width:5;stroke-linecap:round;stroke-miterlimit:10;stroke-dasharray:1.9974,19.9742;}
	.st4{fill:#FFFFFF;}
	.st5{fill:#177D74;}
	.st6{fill:#15635A;}
	.st7{fill:#FFDC8C;}
	.st8{fill:#FFEBB4;}
	.st9{fill:#FFBE82;}
	.st10{fill:#FFA50A;}
	.st11{fill:#FFC305;}
	.st12{fill:#FFD23C;}
	.st13{fill:#FFE65A;}
	.st14{opacity:0.7;clip-path:url(#SVGID_2_);fill:#FFA50A;}
	.st15{fill:#FAF58C;}
	.st16{opacity:0.2;fill:#FFFFFF;}
	.st17{fill:#FFE07D;}
	.st18{fill:#1C9585;}
	.st19{fill:#55C7A6;}
	.st20{fill:#96DBBF;}
	.st21{opacity:0.2;}
	.st22{fill:#0091C8;}
	.st23{fill:#0073AA;}
</style>
<g id="BACKGROUND">
	<rect class="st0" width="500" height="500"/>
</g>
<g id="OBJECTS">
	<g>
		<circle class="st1" cx="250" cy="263" r="83.37"/>
		<g>
			<path class="st2" d="M490.01,325.68h-3.87v-0.1h-32.08c-1.62,0-3.05,0.73-4.04,1.85c-3.46-3.58-8.3-5.82-13.68-5.82h-3.79
				l-7.32-5.76v-2.19c0-1.75-1.42-3.17-3.17-3.17h-3.65l-1.12-0.88c0.4-0.53,0.65-1.18,0.65-1.89v-9.78c0-1.75-1.42-3.17-3.17-3.17
				H395.3h-20.11v0h-15.17h-3.06c0.04-0.32,0.07-0.64,0.1-0.96h12.01c0.4-2.16,0.62-4.38,0.62-6.66c0-18.27-13.5-33.39-31.07-35.93
				l0,0c0,0,0,0,0,0c-0.77-0.11-1.55-0.19-2.34-0.26c-0.16-0.01-0.32-0.03-0.47-0.04c-0.8-0.05-1.61-0.09-2.42-0.09c0,0,0,0-0.01,0
				h0c-5.57,0-10.84,1.26-15.56,3.5c-4.5,0.38-8.77,1.57-12.66,3.44c-0.53,0.26-1.05,0.52-1.57,0.8
				c-11.32,6.15-19.01,18.14-19.01,31.93c0,0.62,0.02,1.25,0.05,1.86c0.02,0.31,0.05,0.61,0.07,0.92c0.02,0.31,0.04,0.61,0.07,0.92
				c0.04,0.44,0.11,0.88,0.17,1.31c0.02,0.16,0.04,0.33,0.06,0.49c0.08,0.53,0.18,1.05,0.28,1.58c0.01,0.07,0.02,0.13,0.04,0.2
				c0.12,0.58,0.25,1.16,0.4,1.73c0,0.01,0,0.01,0,0.02c2.4,9.4,8.47,17.32,16.59,22.17h-5.1c-1.75,0-3.17,1.42-3.17,3.17v0.19
				h-2.82h-6.49c-1.75,0-3.17,1.42-3.17,3.17v9.78c0,1.75,1.42,3.17,3.17,3.17h6.44c-0.29,0.14-0.56,0.32-0.8,0.53h-5.93
				c-5.49,0-9.95,4.45-9.95,9.95c0,0.24,0.02,0.48,0.04,0.72h-1.18c-5.49,0-9.95,4.45-9.95,9.95c0,6.23,5.05,11.27,11.27,11.27h4.53
				c2.05,2.82,5.36,4.66,9.12,4.66h11.04c1.96,1.66,4.5,2.66,7.27,2.66h57.73v0.11h64.53v0h19.77v1.04c0,2.98,2.42,5.39,5.39,5.39
				h26.69c2.65,0,4.85-1.92,5.3-4.44h3.97H500v-57.34H490.01z M404.81,331c0-0.01,0-0.02,0-0.04l0.05,0.04H404.81z"/>
			<path class="st2" d="M213.43,167.86h-87.5c0-0.02,0-0.04,0-0.07h-17.96v17.18H93.81v17.04H78.9v10.45L56.71,229.9h-3.79
				c-4.32,0-8.29,1.46-11.48,3.88h-6.06c-0.82-0.83-1.96-1.35-3.23-1.35h-7.29c-1.99-2-4.75-3.23-7.79-3.23H0v4.58v3.2v49.29v3.2
				v5.21h17.08c3.35,0,6.35-1.5,8.37-3.87h6.71c1.26,0,2.4-0.52,3.23-1.35h14.15v-0.15h10.84v0h64.53v-0.11h57.73
				c2.77,0,5.31-1,7.27-2.66h11.04c3.75,0,7.07-1.84,9.12-4.66h4.53c6.23,0,11.27-5.05,11.27-11.27c0-5.49-4.45-9.95-9.95-9.95
				h-1.18c0.02-0.24,0.04-0.48,0.04-0.72c0-5.49-4.45-9.95-9.95-9.95h-2.52v-2.28h14.91v-0.05v-17.13h14.17v-0.05v-17.91v-26.84
				v-17.89v-0.07h-17.96C213.43,167.82,213.43,167.84,213.43,167.86z"/>
		</g>
		<g>
			<circle class="st3" cx="250" cy="263" r="164.35"/>
		</g>
		<g>
			<g>
				<path class="st2" d="M266.96,386.53l-15.05-14.49c-2.02-1.94-5.39-0.51-5.39,2.29l0,0c0,1.84-1.56,3.3-3.4,3.18
					c-39-2.5-71.78-28.28-84.54-63.55c-0.46-1.27-1.65-2.13-3-2.13h-14.81c-2.14,0-3.68,2.08-3.04,4.12
					c14.27,45.78,55.98,79.56,105.8,82.02c1.68,0.08,2.99,1.49,2.99,3.17v2.16c0,2.8,3.37,4.24,5.39,2.29l15.05-14.49
					C268.26,389.86,268.26,387.78,266.96,386.53z"/>
				<path class="st2" d="M240.84,151.3l15.05,14.49c2.02,1.94,5.39,0.51,5.39-2.29l0,0c0-1.84,1.56-3.3,3.4-3.18
					c39,2.5,71.78,28.28,84.54,63.55c0.46,1.27,1.65,2.13,3,2.13h14.81c2.14,0,3.68-2.08,3.04-4.12
					c-14.27-45.78-55.98-79.56-105.8-82.02c-1.68-0.08-2.99-1.49-2.99-3.17v-2.16c0-2.8-3.37-4.24-5.39-2.29l-15.05,14.49
					C239.55,147.97,239.55,150.05,240.84,151.3z"/>
			</g>
			<g>
				<path class="st4" d="M266.96,380.7l-15.05-14.49c-2.02-1.94-5.39-0.51-5.39,2.29l0,0c0,1.84-1.56,3.3-3.4,3.18
					c-39-2.5-71.78-28.28-84.54-63.55c-0.46-1.27-1.65-2.13-3-2.13h-14.81c-2.14,0-3.68,2.08-3.04,4.12
					c14.27,45.78,55.98,79.56,105.8,82.02c1.68,0.08,2.99,1.49,2.99,3.17v2.16c0,2.8,3.37,4.24,5.39,2.29l15.05-14.49
					C268.26,384.03,268.26,381.95,266.96,380.7z"/>
				<path class="st4" d="M240.84,145.47l15.05,14.49c2.02,1.94,5.39,0.51,5.39-2.29l0,0c0-1.84,1.56-3.3,3.4-3.18
					c39,2.5,71.78,28.28,84.54,63.55c0.46,1.27,1.65,2.13,3,2.13h14.81c2.14,0,3.68-2.08,3.04-4.12
					c-14.27-45.78-55.98-79.56-105.8-82.02c-1.68-0.08-2.99-1.49-2.99-3.17v-2.16c0-2.8-3.37-4.24-5.39-2.29l-15.05,14.49
					C239.55,142.14,239.55,144.22,240.84,145.47z"/>
			</g>
		</g>
		<g>
			<rect x="485.81" y="318.68" class="st5" width="14.19" height="57.34"/>
			<rect x="485.81" y="318.68" class="st6" width="4.2" height="57.34"/>
			<path class="st7" d="M398.03,355.93H285.77c-6.23,0-11.27-5.05-11.27-11.27l0,0c0-5.49,4.45-9.95,9.95-9.95h113.59V355.93z"/>
			<path class="st8" d="M435.53,316.95l-31.62-24.86c-4.99-3.92-12.2-3.06-16.12,1.93c-4.44,5.65-3.46,13.83,2.19,18.28l32.21,25.32
				C427.41,331.13,432.29,324.48,435.53,316.95z"/>
			<rect x="374.92" y="324" class="st8" width="72.3" height="21.82"/>
			<path class="st9" d="M386.94,366.6H274.68c-6.23,0-11.27-5.05-11.27-11.27l0,0c0-5.49,4.45-9.95,9.95-9.95h113.59V366.6z"/>
			<path class="st7" d="M400.59,371.26H288.33c-6.23,0-11.27-5.05-11.27-11.27v0c0-5.49,4.45-9.95,9.95-9.95h113.59V371.26z"/>
			<g>
				<g>
					<g>
						<path class="st10" d="M397.6,339.65c0,1.75-1.42,3.17-3.17,3.17h-71.89c-1.75,0-3.17-1.42-3.17-3.17v-9.78
							c0-1.75,1.42-3.17,3.17-3.17h71.89c1.75,0,3.17,1.42,3.17,3.17V339.65z"/>
						<path class="st11" d="M383.02,334.76c0,4.45-3.61,8.06-8.06,8.06h-52.42c-1.75,0-3.17-1.42-3.17-3.17v-9.78
							c0-1.75,1.42-3.17,3.17-3.17h52.42C379.41,326.7,383.02,330.3,383.02,334.76L383.02,334.76z"/>
						<rect x="329.03" y="326.7" class="st12" width="25.82" height="16.12"/>
						<rect x="331.95" y="326.7" class="st13" width="7.74" height="16.12"/>
					</g>
					<g>
						<path class="st10" d="M404.81,323.92c0,1.75-1.42,3.17-3.17,3.17h-71.89c-1.75,0-3.17-1.42-3.17-3.17v-9.78
							c0-1.75,1.42-3.17,3.17-3.17h71.89c1.75,0,3.17,1.42,3.17,3.17V323.92z"/>
						<path class="st11" d="M390.23,319.03c0,4.45-3.61,8.06-8.06,8.06h-52.42c-1.75,0-3.17-1.42-3.17-3.17v-9.78
							c0-1.75,1.42-3.17,3.17-3.17h52.42C386.63,310.97,390.23,314.58,390.23,319.03L390.23,319.03z"/>
						<rect x="336.24" y="310.97" class="st12" width="25.82" height="16.12"/>
						<rect x="339.16" y="310.97" class="st13" width="7.74" height="16.12"/>
					</g>
					<g>
						<path class="st10" d="M397.05,308.1c0,1.75-1.42,3.17-3.17,3.17H322c-1.75,0-3.17-1.42-3.17-3.17v-9.78
							c0-1.75,1.42-3.17,3.17-3.17h71.89c1.75,0,3.17,1.42,3.17,3.17V308.1z"/>
						<path class="st11" d="M382.47,303.21c0,4.45-3.61,8.06-8.06,8.06H322c-1.75,0-3.17-1.42-3.17-3.17v-9.78
							c0-1.75,1.42-3.17,3.17-3.17h52.42C378.86,295.15,382.47,298.76,382.47,303.21L382.47,303.21z"/>
						<rect x="328.48" y="295.15" class="st12" width="25.82" height="16.12"/>
						<rect x="331.4" y="295.15" class="st13" width="7.74" height="16.12"/>
					</g>
				</g>
				<g>
					<defs>
						<path id="SVGID_1_" d="M422.06,303.5h-5.79c0.99-0.54,1.67-1.57,1.67-2.77v-9.78c0-1.75-1.42-3.17-3.17-3.17H395.3h-20.11v0
							h-15.17h-7.74h-2.92v0h-6.49c-1.75,0-3.17,1.42-3.17,3.17v4.21h-0.58h-7.74h-2.92v0H322c-1.75,0-3.17,1.42-3.17,3.17v9.78
							c0,1.75,1.42,3.17,3.17,3.17h6.44c-1.09,0.5-1.84,1.59-1.84,2.87v9.78c0,1.2,0.68,2.24,1.67,2.77h-5.72
							c-1.75,0-3.17,1.42-3.17,3.17v9.78c0,1.75,1.42,3.17,3.17,3.17h6.49h2.92h7.74h15.17h20.11h19.47c1.75,0,3.17-1.42,3.17-3.17
							v-9.78c0-1.2-0.68-2.24-1.67-2.77h5.72c1.75,0,3.17-1.42,3.17-3.17v-4.31h17.25c1.75,0,3.17-1.42,3.17-3.17v-9.78
							C425.23,304.91,423.81,303.5,422.06,303.5z"/>
					</defs>
					<clipPath id="SVGID_2_">
						<use xlink:href="#SVGID_1_"  style="overflow:visible;"/>
					</clipPath>
					<path class="st14" d="M376.86,330.52h-6.44c1.09-0.5,1.84-1.59,1.84-2.87v-9.78c0-1.75-1.42-3.17-3.17-3.17h-24.52
						c9.51-3.08,17.29-9.97,21.56-18.87h-22.01c-5.82,0-5.81-9.02,0-9.02h24.95c0.4-2.16,0.62-4.38,0.62-6.66
						c0-18.27-13.5-33.39-31.07-35.93l0,0c0,0,0,0,0,0c-0.77-0.11-1.55-0.19-2.34-0.26c-0.16-0.01-0.32-0.03-0.47-0.04
						c-0.8-0.05-1.61-0.09-2.42-0.09c0,0,0,0-0.01,0h0c-20.06,0-36.32,16.26-36.32,36.32v0c0,0,0,0.01,0,0.01
						c0,0.62,0.02,1.23,0.05,1.85c0.02,0.34,0.05,0.68,0.08,1.02c0.02,0.27,0.03,0.54,0.06,0.81c0.05,0.48,0.11,0.96,0.18,1.44
						c0.02,0.12,0.03,0.25,0.05,0.37c0.08,0.56,0.18,1.11,0.29,1.65c0.01,0.04,0.01,0.08,0.02,0.12c0.12,0.58,0.25,1.15,0.4,1.72
						c0,0.01,0,0.01,0,0.02c3.08,12.07,12.22,21.72,23.99,25.53h-24.98c-1.75,0-3.17,1.42-3.17,3.17v9.78
						c0,1.75,1.42,3.17,3.17,3.17h6.44c-1.09,0.5-1.84,1.59-1.84,2.87v9.78c0,1.75,1.42,3.17,3.17,3.17h71.89
						c1.75,0,3.17-1.42,3.17-3.17v-9.78C380.02,331.94,378.61,330.52,376.86,330.52z"/>
				</g>
				<g>
					<g>
						<circle class="st11" cx="317.04" cy="286.13" r="36.32"/>
						<path class="st10" d="M320.91,258.61c15.88,0,28.92,12.16,30.32,27.67c0.08-0.92,0.13-1.84,0.13-2.78
							c0-16.82-13.63-30.45-30.45-30.45c-16.82,0-30.45,13.63-30.45,30.45c0,0.94,0.05,1.86,0.13,2.78
							C291.99,270.77,305.03,258.61,320.91,258.61z"/>
						<path class="st13" d="M320.91,253.67c16.45,0,29.84,13.39,29.84,29.84s-13.39,29.84-29.84,29.84s-29.84-13.39-29.84-29.84
							S304.45,253.67,320.91,253.67 M320.91,247.19c-20.06,0-36.32,16.26-36.32,36.32c0,20.06,16.26,36.32,36.32,36.32
							c20.06,0,36.32-16.26,36.32-36.32C357.22,263.45,340.96,247.19,320.91,247.19L320.91,247.19z"/>
						<path class="st15" d="M320.91,253.67v-6.48c-20.06,0-36.32,16.26-36.32,36.32h6.48C291.07,267.06,304.45,253.67,320.91,253.67
							z"/>
						<path class="st16" d="M320.91,247.19c-20.06,0-36.32,16.26-36.32,36.32c0,4.98,1,9.72,2.82,14.05
							c2.57,0.6,5.24,0.93,7.99,0.93c19.19,0,34.75-15.56,34.75-34.75c0-5.84-1.45-11.34-3.99-16.16
							C324.44,247.33,322.69,247.19,320.91,247.19L320.91,247.19z"/>
						<g>
							<g>
								<path class="st17" d="M333.44,292.03c-1.57,7.68-11.93,5.89-18.76,5.67c-0.38,0-0.71,0.04-1.04-0.09
									c-0.3-9.4,0.2-18.55,0.09-27.99l0.05-0.04c7.56-1.73,18.73-1.43,18.65,7.68c-0.02,2.28-1.07,4.51-2.36,6.33
									c-0.24,0.36-0.1,0.53,0.23,0.86C332.26,286.57,334.22,288.54,333.44,292.03z M325.97,288.15c-0.37-0.65-1.22-1.23-2.02-1.4
									c-1.18-0.29-2.5-0.22-3.67-0.36c-0.49,1.58-0.93,4.39,0.09,5.7l0.09,0.04c1.74,0.01,4.05,0.32,5.33-0.98
									C326.52,290.35,326.39,289.09,325.97,288.15z M326.3,277.13c-0.51-0.86-1.31-1.31-2.3-1.52c-1.27-0.21-2.83-0.35-3.77,0.09
									c0.13,1.26-0.4,3.13,0.15,5.05c1.88,0.22,4.47,0.44,5.48-1.18C326.28,278.92,326.81,277.98,326.3,277.13z"/>
							</g>
							<path class="st17" d="M318.13,274.32c-0.31-0.27-0.13-12.31,0.1-12.51c0.23-0.2,2.78-0.24,3.08,0.03
								c0.31,0.27,0.17,12.28-0.1,12.51C320.94,274.58,318.44,274.59,318.13,274.32z"/>
							<path class="st17" d="M323.38,274.36c-0.31-0.27-0.13-12.31,0.1-12.51c0.23-0.2,2.78-0.24,3.08,0.03
								c0.31,0.27,0.17,12.28-0.1,12.51C326.19,274.62,323.68,274.63,323.38,274.36z"/>
							<path class="st17" d="M317.89,304.69c-0.31-0.27-0.13-12.31,0.1-12.51c0.23-0.2,2.78-0.24,3.08,0.02
								c0.31,0.27,0.17,12.28-0.1,12.51C320.7,304.94,318.19,304.96,317.89,304.69z"/>
							<path class="st17" d="M323.13,304.73c-0.31-0.27-0.13-12.31,0.1-12.51c0.23-0.2,2.78-0.24,3.08,0.03
								c0.31,0.27,0.17,12.28-0.1,12.51C325.94,304.98,323.43,305,323.13,304.73z"/>
						</g>
					</g>
					<g>
						<path class="st10" d="M367.55,346.83c0,1.75-1.42,3.17-3.17,3.17h-71.89c-1.75,0-3.17-1.42-3.17-3.17v-9.78
							c0-1.75,1.42-3.17,3.17-3.17h71.89c1.75,0,3.17,1.42,3.17,3.17V346.83z"/>
						<path class="st11" d="M352.97,341.94c0,4.45-3.61,8.06-8.06,8.06h-52.42c-1.75,0-3.17-1.42-3.17-3.17v-9.78
							c0-1.75,1.42-3.17,3.17-3.17h52.42C349.36,333.88,352.97,337.49,352.97,341.94L352.97,341.94z"/>
						<rect x="298.98" y="333.88" class="st12" width="25.82" height="16.12"/>
						<rect x="301.9" y="333.88" class="st13" width="7.74" height="16.12"/>
					</g>
					<g>
						<path class="st10" d="M359.79,331.01c0,1.75-1.42,3.17-3.17,3.17h-71.89c-1.75,0-3.17-1.42-3.17-3.17v-9.78
							c0-1.75,1.42-3.17,3.17-3.17h71.89c1.75,0,3.17,1.42,3.17,3.17V331.01z"/>
						<path class="st11" d="M345.21,326.12c0,4.45-3.61,8.06-8.06,8.06h-52.42c-1.75,0-3.17-1.42-3.17-3.17v-9.78
							c0-1.75,1.42-3.17,3.17-3.17h52.42C341.6,318.06,345.21,321.67,345.21,326.12L345.21,326.12z"/>
						<rect x="291.22" y="318.06" class="st12" width="25.82" height="16.12"/>
						<rect x="294.14" y="318.06" class="st13" width="7.74" height="16.12"/>
					</g>
				</g>
			</g>
			<path class="st8" d="M418.89,373.93H306.63c-6.23,0-11.27-5.05-11.27-11.27l0,0c0-5.49,4.45-9.95,9.95-9.95h113.59V373.93z"/>
			<rect x="364.36" y="342.08" class="st8" width="83.21" height="31.95"/>
			<polygon class="st7" points="405.89,352.44 364.36,352.44 364.36,342.08 428.69,342.08 			"/>
			<path class="st8" d="M455.37,374.04h-26.47v-59.42h7.45c10.51,0,19.03,8.52,19.03,19.03V374.04z"/>
			<path class="st4" d="M480.75,380.47h-26.69c-2.98,0-5.39-2.42-5.39-5.39v-51.1c0-2.98,2.42-5.39,5.39-5.39h32.08v56.5
				C486.14,378.05,483.73,380.47,480.75,380.47z"/>
			<ellipse class="st0" cx="466.83" cy="373.23" rx="7.1" ry="2.41"/>
		</g>
		<g>
			<g>
				<path class="st7" d="M91.23,264.22H203.5c6.23,0,11.27-5.05,11.27-11.27v0c0-5.49-4.45-9.95-9.95-9.95H91.23V264.22z"/>
				<path class="st8" d="M53.74,225.24l31.62-24.85c4.99-3.92,12.2-3.06,16.12,1.93c4.44,5.65,3.46,13.83-2.19,18.28l-32.21,25.32
					C61.86,239.42,56.98,232.76,53.74,225.24z"/>
				
					<rect x="42.05" y="232.29" transform="matrix(-1 -1.224647e-16 1.224647e-16 -1 156.4 486.4049)" class="st8" width="72.3" height="21.82"/>
				<path class="st9" d="M102.33,274.89h112.26c6.23,0,11.27-5.05,11.27-11.27v0c0-5.49-4.45-9.95-9.95-9.95H102.33V274.89z"/>
				<path class="st7" d="M88.68,279.55h112.26c6.23,0,11.27-5.05,11.27-11.27l0,0c0-5.49-4.45-9.95-9.95-9.95H88.68V279.55z"/>
				<path class="st8" d="M70.37,282.21h112.26c6.23,0,11.27-5.05,11.27-11.27l0,0c0-5.49-4.45-9.95-9.95-9.95H70.37V282.21z"/>
				
					<rect x="41.69" y="250.37" transform="matrix(-1 -1.224647e-16 1.224647e-16 -1 166.5912 532.696)" class="st8" width="83.21" height="31.95"/>
				<polygon class="st7" points="83.37,260.73 124.9,260.73 124.9,250.37 60.58,250.37 				"/>
				<path class="st8" d="M33.9,282.33h26.47V222.9h-7.45c-10.51,0-19.03,8.52-19.03,19.03V282.33z"/>
			</g>
			<g>
				<g>
					<g>
						<g>
							<rect x="108.02" y="160.86" class="st18" width="123.36" height="62.64"/>
							<g>
								<path class="st19" d="M223.08,169.17v46.03H116.33v-46.03H223.08 M231.38,160.86H108.02v62.64h123.36V160.86L231.38,160.86z
									"/>
							</g>
							<g>
								<path class="st20" d="M107.98,178.75L107.98,178.75V160.8h17.96v0C125.93,170.72,117.89,178.75,107.98,178.75z"/>
							</g>
							<g>
								<path class="st20" d="M231.38,178.75L231.38,178.75l0-17.96h-17.96v0C213.43,170.72,221.47,178.75,231.38,178.75z"/>
							</g>
							<g>
								<path class="st20" d="M231.38,205.59L231.38,205.59l0,17.96h-17.96l0,0C213.43,213.63,221.47,205.59,231.38,205.59z"/>
							</g>
							<g>
								<path class="st20" d="M107.98,205.59L107.98,205.59v17.96h17.96l0,0C125.93,213.63,117.89,205.59,107.98,205.59z"/>
							</g>
						</g>
						<g>
							
								<ellipse transform="matrix(0.7071 -0.7071 0.7071 0.7071 -86.1891 176.2679)" class="st20" cx="169.68" cy="192.17" rx="26.02" ry="26.02"/>
						</g>
						<g>
							<path class="st18" d="M168.13,205.55c-4.35-0.15-7.9-2.39-7.9-4.71c0-1.23,1.09-3.05,2.47-3.05c1.52,0,2.75,2.14,5.44,2.61
								v-5.87c-3.34-1.27-7.25-2.83-7.25-7.47c0-4.6,3.41-6.82,7.25-7.36v-1.02c0-0.51,0.58-0.98,1.38-0.98
								c0.69,0,1.38,0.47,1.38,0.98v0.91c2.25,0.07,6.49,0.65,6.49,3.15c0,0.98-0.65,2.97-2.25,2.97c-1.2,0-1.89-1.16-4.24-1.34
								v5.29c3.3,1.23,7.14,2.94,7.14,7.83c0,4.49-2.9,7.21-7.14,7.9v1.05c0,0.51-0.69,0.98-1.38,0.98c-0.8,0-1.38-0.47-1.38-0.98
								V205.55z M168.49,188.8v-4.31c-1.63,0.33-2.32,1.16-2.32,2.03C166.17,187.57,167.11,188.22,168.49,188.8z M170.52,195.51
								v4.86c1.23-0.29,2.21-0.98,2.21-2.28C172.73,196.89,171.83,196.13,170.52,195.51z"/>
						</g>
					</g>
					<g class="st21">
						<rect x="108.02" y="174.35" width="112.13" height="49.15"/>
					</g>
				</g>
				<g>
					<g>
						<g>
							<rect x="93.85" y="178.04" class="st18" width="123.36" height="62.64"/>
							<g>
								<path class="st19" d="M208.91,186.34v46.03H102.16v-46.03H208.91 M217.21,178.04H93.85v62.64h123.36V178.04L217.21,178.04z"
									/>
							</g>
							<g>
								<path class="st20" d="M93.81,195.93L93.81,195.93v-17.96h17.96v0C111.76,187.89,103.72,195.93,93.81,195.93z"/>
							</g>
							<g>
								<path class="st20" d="M217.21,195.93L217.21,195.93v-17.96h-17.96v0C199.26,187.89,207.3,195.93,217.21,195.93z"/>
							</g>
							<g>
								<path class="st20" d="M217.21,222.77L217.21,222.77v17.96h-17.96l0,0C199.26,230.81,207.3,222.77,217.21,222.77z"/>
							</g>
							<g>
								<path class="st20" d="M93.81,222.77L93.81,222.77v17.96h17.96l0,0C111.76,230.81,103.72,222.77,93.81,222.77z"/>
							</g>
						</g>
						<g>
							
								<ellipse transform="matrix(0.9213 -0.3888 0.3888 0.9213 -69.1634 76.94)" class="st20" cx="155.51" cy="209.35" rx="26.02" ry="26.02"/>
						</g>
						<g>
							<path class="st18" d="M153.96,222.73c-4.35-0.15-7.9-2.39-7.9-4.71c0-1.23,1.09-3.05,2.47-3.05c1.52,0,2.75,2.14,5.44,2.61
								v-5.87c-3.34-1.27-7.25-2.83-7.25-7.47c0-4.6,3.41-6.82,7.25-7.36v-1.02c0-0.51,0.58-0.98,1.38-0.98
								c0.69,0,1.38,0.47,1.38,0.98v0.91c2.25,0.07,6.49,0.65,6.49,3.15c0,0.98-0.65,2.97-2.25,2.97c-1.2,0-1.88-1.16-4.24-1.34
								v5.29c3.3,1.23,7.14,2.94,7.14,7.83c0,4.49-2.9,7.21-7.14,7.9v1.05c0,0.51-0.69,0.98-1.38,0.98c-0.8,0-1.38-0.47-1.38-0.98
								V222.73z M154.32,205.98v-4.31c-1.63,0.33-2.32,1.16-2.32,2.03C152,204.75,152.94,205.4,154.32,205.98z M156.35,212.69v4.86
								c1.23-0.29,2.21-0.98,2.21-2.28C158.56,214.06,157.66,213.3,156.35,212.69z"/>
						</g>
					</g>
					<g class="st21">
						<rect x="93.85" y="191.52" width="112.13" height="49.15"/>
					</g>
				</g>
				<g>
					<g>
						<rect x="78.95" y="195.07" class="st18" width="123.36" height="62.64"/>
						<g>
							<path class="st19" d="M194.01,203.38v46.03H87.25v-46.03H194.01 M202.31,195.07H78.95v62.64h123.36V195.07L202.31,195.07z"/>
						</g>
						<g>
							<path class="st20" d="M78.9,212.96L78.9,212.96v-17.96h17.96l0,0C96.86,204.93,88.82,212.96,78.9,212.96z"/>
						</g>
						<g>
							<path class="st20" d="M202.31,212.96L202.31,212.96v-17.96h-17.96l0,0C184.35,204.93,192.39,212.96,202.31,212.96z"/>
						</g>
						<g>
							<path class="st20" d="M202.31,239.8L202.31,239.8v17.96h-17.96l0,0C184.35,247.84,192.39,239.8,202.31,239.8z"/>
						</g>
						<g>
							<path class="st20" d="M78.9,239.8L78.9,239.8v17.96h17.96l0,0C96.86,247.84,88.82,239.8,78.9,239.8z"/>
						</g>
					</g>
					<g>
						<circle class="st20" cx="140.6" cy="226.38" r="26.02"/>
					</g>
					<g>
						<path class="st18" d="M139.05,239.76c-4.35-0.15-7.9-2.39-7.9-4.71c0-1.23,1.09-3.05,2.47-3.05c1.52,0,2.75,2.14,5.44,2.61
							v-5.87c-3.34-1.27-7.25-2.83-7.25-7.47c0-4.6,3.41-6.82,7.25-7.36v-1.02c0-0.51,0.58-0.98,1.38-0.98
							c0.69,0,1.38,0.47,1.38,0.98v0.91c2.25,0.07,6.49,0.65,6.49,3.15c0,0.98-0.65,2.97-2.25,2.97c-1.2,0-1.88-1.16-4.24-1.34v5.29
							c3.3,1.23,7.14,2.94,7.14,7.83c0,4.49-2.9,7.21-7.14,7.9v1.05c0,0.51-0.69,0.98-1.38,0.98c-0.8,0-1.38-0.47-1.38-0.98V239.76z
							 M139.42,223.01v-4.31c-1.63,0.33-2.32,1.16-2.32,2.03C137.1,221.78,138.04,222.43,139.42,223.01z M141.45,229.72v4.86
							c1.23-0.29,2.21-0.98,2.21-2.28C143.66,231.1,142.75,230.34,141.45,229.72z"/>
					</g>
				</g>
			</g>
			<rect y="226.78" class="st8" width="49.53" height="55.69"/>
			<path class="st22" d="M32.16,283.82H0c-2.51,0,0-2.03,0-4.54v-49.29c0-2.51-2.51-4.54,0-4.54h32.16c2.51,0,4.54,2.03,4.54,4.54
				v49.29C36.7,281.78,34.67,283.82,32.16,283.82z"/>
			<path class="st23" d="M17.08,287.69H0v-65.48h17.08c6.08,0,11.01,4.93,11.01,11.01v43.47C28.09,282.76,23.16,287.69,17.08,287.69
				z"/>
		</g>
	</g>
</g>
<g id="DESIGNED_BY_FREEPIK">
</g>
</svg>
