<?xml version="1.0" encoding="utf-8"?>
<!-- Generator: Adobe Illustrator 23.0.5, SVG Export Plug-In . SVG Version: 6.00 Build 0)  -->
<svg version="1.1" id="Layer_1" xmlns:svgjs="http://svgjs.com/svgjs"
	 xmlns="http://www.w3.org/2000/svg" xmlns:xlink="http://www.w3.org/1999/xlink" x="0px" y="0px" viewBox="0 0 512 512"
	 style="enable-background:new 0 0 512 512;" xml:space="preserve">
<style type="text/css">
	.st0{fill:#F26622;}
	.st1{fill:#01213B;}
	.st2{fill:#F26622;stroke:#F26622;stroke-miterlimit:10;}
</style>
<g>
	<g>
		<path class="st0" d="M405.7,434.3l-11.3,11.3l21.7,21.7l53.7-53.7l-11.3-11.3L416,444.7L405.7,434.3z"/>
		<path class="st0" d="M106.3,50.3L64,92.7L53.7,82.3L42.3,93.7L64,115.3l53.7-53.7L106.3,50.3z"/>
		<path class="st0" d="M256,160c-35.3,0-64,28.7-64,64s28.7,64,64,64s64-28.7,64-64S291.3,160,256,160z M256,272
			c-26.5,0-48-21.5-48-48s21.5-48,48-48s48,21.5,48,48S282.5,272,256,272z"/>
		<path class="st1" d="M256,192c-17.6,0-32,14.4-32,32s14.4,32,32,32s32-14.4,32-32S273.6,192,256,192z M256,240
			c-8.8,0-16-7.2-16-16s7.2-16,16-16c8.8,0,16,7.2,16,16S264.8,240,256,240z"/>
		<path class="st0" d="M343.8,185.4l6.7-14l-41.9-42l-14,6.7c-1.2-0.6-2.5-1.1-3.8-1.6l-5.2-14.6h-59.3l-5.2,14.6
			c-1.3,0.5-2.5,1-3.8,1.6l-14-6.7l-41.9,42l6.7,14c-0.6,1.3-1.1,2.5-1.6,3.8l-14.6,5.1v59.3l14.6,5.2c0.5,1.3,1,2.5,1.6,3.8
			l-6.7,14l41.9,41.9l14-6.7c1.2,0.6,2.5,1.1,3.8,1.6l5.2,14.6h59.3l5.2-14.6c1.3-0.5,2.5-1,3.8-1.6l14,6.7l41.9-41.9l-6.7-14
			c0.6-1.3,1.1-2.5,1.6-3.8l14.6-5.2v-59.3l-14.6-5.2C344.9,187.9,344.4,186.7,343.8,185.4L343.8,185.4z M344,242.3l-11.1,3.9
			l-1.2,3.7c-1,3-2.3,6.1-3.8,9.2l-1.7,3.5l5.1,10.7l-25.9,25.9l-10.7-5.1l-3.5,1.7c-3,1.5-6.1,2.8-9.2,3.8l-3.7,1.2l-3.9,11.2
			h-36.7l-3.9-11.1l-3.7-1.2c-3.1-1-6.1-2.3-9.2-3.8l-3.5-1.7l-10.7,5.1l-25.9-25.9l5.1-10.7l-1.7-3.5c-1.5-3-2.8-6.1-3.8-9.2
			l-1.2-3.7l-11.1-3.9v-36.7l11.1-3.9l1.2-3.7c1-3,2.3-6.1,3.8-9.2l1.7-3.5l-5.1-10.7l25.9-25.9l10.7,5.1l3.5-1.7
			c3-1.5,6.1-2.8,9.2-3.8l3.7-1.3l3.9-11.1h36.7l3.9,11.1l3.7,1.3c3.1,1.1,6.2,2.3,9.2,3.8l3.5,1.7l10.7-5.1l25.9,25.9l-5.1,10.7
			l1.7,3.5c1.5,3,2.8,6.1,3.8,9.2l1.2,3.7l11.1,3.9V242.3z"/>
		<path class="st2" d="M40,424h96v16H40V424z"/>
		<path class="st0" d="M120,456h16v16h-16V456z"/>
		<path class="st2" d="M40,456h64v16H40V456z"/>
		<path class="st1" d="M403.3,120H416h88V8h-48v16h-32v16h-32v68.7l-24.5,24.5c-4.8-5.8-9.8-11.5-15.5-16.6
			C321,89,281.1,76.2,239.4,80.9c-65.2,7.3-118.4,59.9-126.3,125c-0.4,3.4-0.7,6.7-0.9,10.1H96c-4.4,0-8-3.6-8-8v-56.5
			c35.9-4,64-34.5,64-71.5c0-39.7-32.3-72-72-72S8,40.3,8,80c0,37,28.1,67.5,64,71.5V208c0,13.2,10.8,24,24,24h16.3
			c0.9,16.8,4.7,33,11,48H88c-13.2,0-24,10.8-24,24v88H32c-13.2,0-24,10.8-24,24v64c0,13.2,10.8,24,24,24h112c13.2,0,24-10.8,24-24
			v-64c0-13.2-10.8-24-24-24v-14.1c0-9.9-8-17.9-17.9-17.9c-6.8,0-12.9,3.8-16,9.9l-11,22.1H80v-88c0-4.4,3.6-8,8-8h43.2
			c11.8,20.4,28.6,38,49.6,50.8c-7.6,4-12.8,12-12.8,21.2c0,11.1,7.6,20.3,17.8,23.1c-1.1,2.8-1.8,5.8-1.8,8.9
			c0,11.1,7.6,20.3,17.8,23.1c-1.1,2.8-1.8,5.8-1.8,8.9c0,10.4,6.7,19.2,16,22.5v9.5c0,22.1,17.9,40,40,40s40-17.9,40-40v-9.5
			c9.3-3.3,16-12.1,16-22.5c0-3.2-0.6-6.2-1.8-8.9c10.2-2.8,17.8-12,17.8-23.1c0-3.2-0.6-6.2-1.8-8.9c10.2-2.8,17.8-12,17.8-23.1
			c0-9.2-5.2-17.2-12.8-21.2c40.4-24.7,65.9-67.6,68.5-114.8H416c4.4,0,8,3.6,8,8v120.5c-35.9,4-64,34.5-64,71.5
			c0,39.7,32.3,72,72,72s72-32.3,72-72c0-37-28.1-67.5-64-71.5V240c0-13.2-10.8-24-24-24h-16.4c-1.4-25-9.2-48.9-22.6-69.7
			L403.3,120z M472,24h16v80h-16V24z M456,40v64h-16V40H456z M408,56h16v48h-8h-8V56z M24,80c0-30.9,25.1-56,56-56s56,25.1,56,56
			s-25.1,56-56,56S24,110.9,24,80z M108.9,408l15.5-30.9c0.8-1.6,3.6-0.9,3.6,0.8V408h16c4.4,0,8,3.6,8,8v64c0,4.4-3.6,8-8,8H32
			c-4.4,0-8-3.6-8-8v-64c0-4.4,3.6-8,8-8H108.9z M488,432c0,30.9-25.1,56-56,56s-56-25.1-56-56s25.1-56,56-56S488,401.1,488,432z
			 M256,488c-13.2,0-24-10.8-24-24v-8h48v8C280,477.2,269.2,488,256,488z M288,440h-64c-4.4,0-8-3.6-8-8s3.6-8,8-8h64
			c4.4,0,8,3.6,8,8S292.4,440,288,440z M304,408h-16h-64h-16c-4.4,0-8-3.6-8-8s3.6-8,8-8h96c4.4,0,8,3.6,8,8S308.4,408,304,408z
			 M316.2,336.9l-4.2,2.3V360h8c4.4,0,8,3.6,8,8s-3.6,8-8,8h-16h-96h-16c-4.4,0-8-3.6-8-8s3.6-8,8-8h8v-20.8l-4.2-2.3
			c-47.1-25.2-73.3-75.8-66.8-129.1c7.1-57.8,54.3-104.5,112.2-111c37.1-4.1,72.6,7.1,100.1,31.7c27.1,24.3,42.7,59.1,42.7,95.4
			C384,271.3,358,314.6,316.2,336.9L316.2,336.9z"/>
	</g>
</g>
</svg>
