<?xml version="1.0" encoding="utf-8"?>
<!-- Generator: Adobe Illustrator 23.0.5, SVG Export Plug-In . SVG Version: 6.00 Build 0)  -->
<svg version="1.1" id="Layer_1" xmlns="http://www.w3.org/2000/svg" xmlns:xlink="http://www.w3.org/1999/xlink" x="0px" y="0px"
	 viewBox="0 0 193.53 196.71" style="enable-background:new 0 0 193.53 196.71;" xml:space="preserve">
<style type="text/css">
	.st0{fill:none;}
	.st1{fill:#00325D;}
	.st2{fill:#F26622;}
</style>
<g>
	<line class="st0" x1="32.48" y1="96.7" x2="28.97" y2="100.17"/>
	<path class="st1" d="M146.09,39.12c-1.09,1.91-2.18,3.62-3.07,5.44c-1.56,3.19-2.28,6.62-2.83,10.13
		c-0.51,3.24-0.25,6.43,0.19,9.58c0.65,4.69,2.23,9.14,4.62,13.26c3.32,5.75,7.87,10.17,13.94,12.94c1.05,0.48,2.18,0.81,3.28,1.48
		c-0.64,0.2-1.27,0.44-1.91,0.61c-3.04,0.82-6.09,1.63-9.14,2.42c-3.37,0.88-6.75,1.73-10.12,2.6c-3.41,0.89-6.81,1.8-10.21,2.7
		c-2.36,0.63-4.69,1.37-7.08,1.84c-1.17,0.23-2.44-0.05-3.66-0.13c-2.7-0.19-5.2-1.03-7.63-2.22c-0.63-0.31-1.59-0.14-2.34,0.04
		c-3.35,0.78-6.67,1.71-10.03,2.46c-3.53,0.78-7.03,0.27-10.32-1.01c-4.85-1.89-8.53-5.18-10.99-9.85
		c-5.64-10.74-0.95-24.55,10.08-29.06c2.56-1.04,5.27-1.74,7.96-2.4c1.78-0.44,3.18-0.94,4.12-2.81c1.63-3.23,4.31-5.55,7.33-7.59
		c2.29-1.54,4.9-1.74,7.36-2.54c2.46-0.8,4.99-1.4,7.51-2.04c3.48-0.88,6.99-1.68,10.47-2.59c3.4-0.88,6.79-1.86,10.18-2.77
		C144.5,39.41,145.25,39.29,146.09,39.12z"/>
	<path class="st1" d="M46.36,139.01c10.92-5.73,21.97-5.15,33.18-0.55c0.63-1.63,1.23-3.09,1.76-4.58c1.6-4.46,3.16-8.94,4.75-13.4
		c1.32-3.72,2.64-7.44,4.02-11.14c0.15-0.39,0.62-0.82,1.02-0.93c3.5-0.97,7.02-1.88,10.53-2.8c3.01-0.79,6.03-1.54,9.03-2.35
		c0.96-0.26,1.49,0.05,1.81,0.94c1.5,4.26,3,8.52,4.53,12.77c1.74,4.84,3.52,9.66,5.26,14.5c1.86,5.19,3.7,10.39,5.53,15.59
		c0.25,0.72,0.63,1.07,1.41,0.88c1.8-0.43,3.6-0.86,5.4-1.29c2.02-0.48,4.04-1.01,6.07-1.43c3.6-0.74,7.19-1.64,10.9-1.35
		c2.31,0.18,4.6,0.63,6.68,1.86c-0.88-0.15-1.76-0.36-2.66-0.43c-4.38-0.35-8.57,0.62-12.72,1.85c-4.33,1.28-8.62,2.68-12.93,4
		c-3.84,1.18-7.72,2.19-11.74,2.47c-2.78,0.19-5.59,0.51-8.35,0.31c-3.58-0.26-7.09-1.08-10.54-2.18
		c-6.62-2.12-12.61-5.62-18.81-8.63c-4.08-1.98-8.17-3.88-12.56-5.08c-4.37-1.2-8.83-1.4-13.27-0.93c-2.66,0.28-5.25,1.22-7.87,1.86
		C46.65,139,46.5,139,46.36,139.01z M107.79,122.77c-0.1,0-0.2,0-0.31,0c-0.04,0.46-0.13,0.93-0.13,1.39c0,4.6,0.02,9.19,0.03,13.79
		c0.01,3.18,0.03,6.35,0.01,9.53c0,0.84,0.19,1.31,1.17,1.34c1.52,0.06,3.03,0.25,4.54,0.41c0.99,0.1,1.98,0.28,2.98,0.32
		c0.64,0.03,1.13-0.25,0.85-1.05c-0.57-1.61-1.14-3.22-1.72-4.83c-1.34-3.76-2.69-7.52-4.03-11.28
		C110.05,129.19,108.92,125.98,107.79,122.77z M96.59,145.62c0-7.62,0-14.84,0-22.05c-0.37,0.34-0.56,0.69-0.7,1.07
		c-2.06,5.74-4.12,11.48-6.15,17.23c-0.09,0.25,0,0.79,0.15,0.86C92.01,143.68,94.15,144.58,96.59,145.62z"/>
	<path class="st1" d="M77.85,64.4c-12.33,14.38-6.18,34.77,10.24,40.55c-0.45,0.21-0.75,0.41-1.06,0.49
		c-3.59,0.94-7.17,1.87-10.76,2.8c-4.6,1.18-9.21,2.3-13.79,3.54c-2.62,0.71-5.22,1.44-7.94,1.48c-8.72,0.14-16.78-5.44-19.65-13.84
		c-0.86-2.51-1.42-5.09-1.26-7.76c0.49-8,4.05-14.19,11.17-18.01c2.15-1.16,4.62-1.76,7-2.45c2.95-0.86,5.95-1.53,8.93-2.29
		c4.74-1.21,9.47-2.43,14.21-3.65C75.91,64.99,76.88,64.68,77.85,64.4z"/>
	<path class="st2" d="M190.18,63.46c-0.37,7.17-1.65,12.93-5.44,17.88c-4.21,5.49-9.76,8.13-16.67,7.44
		c-4.2-0.42-7.9-2.28-11.1-5.01c-5.63-4.8-8.97-10.95-10.46-18.16c-0.64-3.09-1.04-6.2-0.71-9.32c0.7-6.81,2.81-13.03,8.16-17.72
		c2.39-2.09,5.13-3.45,8.28-4.03c7.63-1.4,13.62,1.63,18.8,6.87c3.92,3.96,6.45,8.75,7.75,14.13
		C189.49,58.47,189.84,61.5,190.18,63.46z M182.4,64.16c-0.35-2.05-0.59-4.12-1.06-6.14c-1.19-5.15-3.71-9.54-7.89-12.87
		c-2.13-1.7-4.54-2.92-7.28-3.07c-3.99-0.21-6.99,1.72-9.22,4.9c-1.62,2.31-2.53,4.88-3.03,7.69c-0.6,3.34-0.49,6.63,0.24,9.85
		c0.78,3.44,2.24,6.66,4.39,9.55c2.54,3.4,5.7,5.96,9.89,6.75c4.31,0.82,8.2-1.21,10.72-5.15C181.37,72.23,182.31,68.32,182.4,64.16
		z"/>
	<path class="st1" d="M37.18,109.89c-3.15,0.8-6.06,1.52-8.96,2.28c-2.91,0.76-5.78,1.67-8.71,2.31c-4.71,1.02-8.95-0.02-12.38-3.52
		c-2.52-2.57-3.8-5.74-3.77-9.35c0.05-6.18,4.1-11.55,10.53-13.06c4.65-1.09,9.25-2.43,13.87-3.64c0.91-0.24,1.84-0.39,3.01-0.63
		C27.75,94.17,30,102.62,37.18,109.89z"/>
	<path class="st1" d="M82.84,149.08c-0.86-0.16-1.72-0.29-2.57-0.48c-6.39-1.46-12.83-1.88-19.34-1.07
		c-4.44,0.55-8.7,1.81-12.87,3.38c-4.91,1.85-9.81,3.75-14.79,5.42c-3.41,1.14-7.02,1.32-10.6,1.02c-1.61-0.14-3.21-0.56-4.83-1.09
		c0.4,0,0.8-0.03,1.19,0c5.85,0.5,11.27-1.09,16.5-3.49c4.5-2.07,8.9-4.37,13.45-6.3c2.47-1.05,5.15-1.62,7.77-2.29
		c3.56-0.91,7.21-0.74,10.78-0.31c2.81,0.34,5.59,1.22,8.3,2.1c2.41,0.78,4.71,1.88,7.07,2.84C82.88,148.91,82.86,149,82.84,149.08z
		"/>
	<path class="st1" d="M128.05,161.56c2.09-0.32,4.24-0.43,6.25-1.02c2.91-0.86,5.76-1.97,8.56-3.15c4.14-1.75,8.16-3.83,12.64-4.63
		c5.36-0.96,10.2,0.36,14.58,3.5c0.05,0.04,0.07,0.12,0.2,0.39c-0.55-0.05-1.01-0.04-1.43-0.15c-3.55-0.99-7.19-1.22-10.73-0.33
		c-3.99,1-7.9,2.34-11.79,3.68c-4.64,1.6-9.29,3-14.27,2.61c-1.37-0.11-2.73-0.45-4.09-0.69C128,161.7,128.03,161.63,128.05,161.56z
		"/>
</g>
</svg>
