<?xml version="1.0" encoding="utf-8"?>
<!-- Generator: Adobe Illustrator 23.0.5, SVG Export Plug-In . SVG Version: 6.00 Build 0)  -->
<svg version="1.1" id="Layer_1" xmlns="http://www.w3.org/2000/svg" xmlns:xlink="http://www.w3.org/1999/xlink" x="0px" y="0px"
	 viewBox="0 0 97.5 110" style="enable-background:new 0 0 97.5 110;" xml:space="preserve">
<style type="text/css">
	.st0{fill:#FFFFFF;stroke:#F26622;stroke-width:3;stroke-miterlimit:10;}
	.st1{fill:url(#SVGID_1_);}
	.st2{fill:url(#SVGID_2_);}
	.st3{fill:url(#SVGID_3_);}
	.st4{fill:url(#SVGID_4_);}
	.st5{fill:url(#SVGID_5_);}
	.st6{fill:url(#SVGID_6_);}
	.st7{fill:url(#SVGID_7_);}
	.st8{fill:url(#SVGID_8_);}
	.st9{fill:url(#SVGID_9_);}
</style>
<path class="st0" d="M95.8,80.3V30.4c0-1.3-0.7-2.5-1.8-3.1L50.8,2.4c-1.1-0.6-2.5-0.6-3.6,0L4,27.3c-1.1,0.6-1.8,1.8-1.8,3.1v49.9
	c0,1.3,0.7,2.5,1.8,3.1l43.2,24.9c1.1,0.6,2.5,0.6,3.6,0L94,83.4C95.1,82.8,95.8,81.6,95.8,80.3z"/>
<g>
	<g>
		<g>
			<linearGradient id="SVGID_1_" gradientUnits="userSpaceOnUse" x1="45.425" y1="54.35" x2="47.875" y2="54.35">
				<stop  offset="0" style="stop-color:#F26622"/>
				<stop  offset="1" style="stop-color:#182D41"/>
			</linearGradient>
			<path class="st1" d="M47.5,53.5c-0.5-0.5-1.2-0.5-1.7,0s-0.5,1.2,0,1.7s1.2,0.5,1.7,0S48,53.9,47.5,53.5z"/>
		</g>
	</g>
	<g>
		<g>
			<linearGradient id="SVGID_2_" gradientUnits="userSpaceOnUse" x1="52.5" y1="42.4" x2="64.7" y2="42.4">
				<stop  offset="0" style="stop-color:#F26622"/>
				<stop  offset="1" style="stop-color:#182D41"/>
			</linearGradient>
			<path class="st2" d="M62.9,38.1c-2.4-2.4-6.2-2.4-8.6,0c-2.4,2.4-2.4,6.2,0,8.6c2.4,2.4,6.2,2.4,8.6,0
				C65.3,44.3,65.3,40.4,62.9,38.1z M61.2,44.9c-1.4,1.4-3.7,1.4-5.1,0c-1.4-1.4-1.4-3.7,0-5.1c1.4-1.4,3.7-1.4,5.1,0
				C62.7,41.2,62.7,43.5,61.2,44.9z"/>
		</g>
	</g>
	<g>
		<g>
			<linearGradient id="SVGID_3_" gradientUnits="userSpaceOnUse" x1="26.5" y1="49.15" x2="76.9041" y2="49.15">
				<stop  offset="0" style="stop-color:#F26622"/>
				<stop  offset="1" style="stop-color:#182D41"/>
			</linearGradient>
			<path class="st3" d="M76.6,24.4C76.4,24.2,76,24,75.7,24s-6.8,0.3-14.5,3c-6.2,2.2-11.4,5.3-15.4,9.3c-0.9,0.9-1.8,1.8-2.6,2.8
				c-4-2.3-7.1-1.6-9.1-0.5c-4.6,2.5-7.5,9.2-7.5,14c0,0.5,0.3,0.9,0.7,1.1c0.1,0.1,0.3,0.1,0.5,0.1c0.3,0,0.6-0.1,0.9-0.4
				c2.4-2.4,5.4-2.3,6.4-2.2l0.4,0.4c-0.8,2-1.5,4-2,5.9c-0.2,0.7-0.1,1.4,0.1,2.1c-1.2,0.5-2.3,1.3-3.3,2.3
				c-3.1,3.1-3.8,10.7-3.8,11c0,0.4,0.1,0.7,0.4,1c0.2,0.2,0.5,0.4,0.9,0.4h0.1c0.3,0,7.9-0.7,11-3.8c1-1,1.8-2.1,2.3-3.3
				c0.7,0.3,1.4,0.3,2.1,0.1c1.9-0.5,3.9-1.2,5.9-2l0.4,0.4c0.1,1,0.3,4-2.2,6.4c-0.3,0.3-0.4,0.9-0.3,1.3c0.2,0.5,0.6,0.7,1.1,0.7
				c4.8,0,11.5-2.9,14-7.5c1.1-2,1.8-5.2-0.5-9.1c1-0.8,1.9-1.7,2.8-2.6c4-4,7.1-9.2,9.3-15.4c2.7-7.7,3-14.3,3-14.5
				C77,24.9,76.9,24.6,76.6,24.4z M29.3,50c0.8-3.6,2.9-7.6,5.9-9.2c2-1.1,4.1-1,6.4,0.3c-2,2.6-3.7,5.4-5.1,8.3
				c0,0-0.2-0.3-0.6-0.4C35.8,49,32.6,48.3,29.3,50z M37.3,68.9c-1.7,1.7-5.6,2.5-8,2.9c0.4-2.5,1.2-6.4,2.9-8c0.9-0.9,2-1.6,3.1-2
				l4.1,4.1C38.9,66.9,38.2,67.9,37.3,68.9z M42.8,65.1c-0.4,0.1-0.8,0-1.1-0.3c-1.6-1.6-2.2-2.2-2.4-2.4c-0.4-0.4-1.2-1.2-3.1-3.1
				c-0.3-0.3-0.4-0.7-0.3-1.1c0.4-1.5,0.9-3.1,1.5-4.6l10,10C45.8,64.2,44.3,64.7,42.8,65.1z M60.2,65.8c-1.6,3-5.6,5.1-9.2,5.9
				c1.2-2.2,1.4-5,1-6.7c-0.1-0.4-0.4-0.6-0.4-0.6c2.9-1.4,5.7-3.1,8.3-5.1C61.2,61.6,61.3,63.8,60.2,65.8z M62.9,53.5
				c-1.1,1.1-2.3,2.1-3.5,3.1c-2.9,2.4-6.2,4.4-9.7,6L38.4,51.2c1.6-3.5,3.6-6.7,6-9.7c1-1.2,2-2.4,3.1-3.5
				c3.6-3.6,8.2-6.4,13.8-8.5l10.1,10.1C69.4,45.3,66.5,49.9,62.9,53.5z M72.3,37.1l-8.5-8.5c4.6-1.4,8.6-2,10.6-2.2
				C74.3,28.5,73.7,32.5,72.3,37.1z"/>
		</g>
	</g>
	<g>
		<g>
			<linearGradient id="SVGID_4_" gradientUnits="userSpaceOnUse" x1="38.625" y1="76.55" x2="44.475" y2="76.55">
				<stop  offset="0" style="stop-color:#F26622"/>
				<stop  offset="1" style="stop-color:#182D41"/>
			</linearGradient>
			<path class="st4" d="M44.1,74c-0.5-0.5-1.2-0.5-1.7,0L39,77.4c-0.5,0.5-0.5,1.2,0,1.7s1.2,0.5,1.7,0l3.4-3.4
				C44.6,75.3,44.6,74.5,44.1,74z"/>
		</g>
	</g>
	<g>
		<g>
			<linearGradient id="SVGID_5_" gradientUnits="userSpaceOnUse" x1="21.525" y1="59.45" x2="27.375" y2="59.45">
				<stop  offset="0" style="stop-color:#F26622"/>
				<stop  offset="1" style="stop-color:#182D41"/>
			</linearGradient>
			<path class="st5" d="M27,56.9c-0.5-0.5-1.2-0.5-1.7,0l-3.4,3.4c-0.5,0.5-0.5,1.2,0,1.7s1.2,0.5,1.7,0l3.4-3.4
				C27.5,58.1,27.5,57.4,27,56.9z"/>
		</g>
	</g>
	<g>
		<g>
			<linearGradient id="SVGID_6_" gradientUnits="userSpaceOnUse" x1="25.225" y1="80.65" x2="35.875" y2="80.65">
				<stop  offset="0" style="stop-color:#F26622"/>
				<stop  offset="1" style="stop-color:#182D41"/>
			</linearGradient>
			<path class="st6" d="M35.5,75.7c-0.5-0.5-1.2-0.5-1.7,0l-8.2,8.2c-0.5,0.5-0.5,1.2,0,1.7s1.2,0.5,1.7,0l8.2-8.2
				C36,77,36,76.2,35.5,75.7z"/>
		</g>
	</g>
	<g>
		<g>
			<linearGradient id="SVGID_7_" gradientUnits="userSpaceOnUse" x1="15.625" y1="80.65" x2="26.2" y2="80.65">
				<stop  offset="0" style="stop-color:#F26622"/>
				<stop  offset="1" style="stop-color:#182D41"/>
			</linearGradient>
			<path class="st7" d="M25.9,75.7c-0.5-0.5-1.2-0.5-1.7,0L16,83.9c-0.5,0.5-0.5,1.2,0,1.7c0.5,0.5,1.2,0.5,1.7,0l8.2-8.2
				C26.3,77,26.3,76.2,25.9,75.7z"/>
		</g>
	</g>
	<g>
		<g>
			<linearGradient id="SVGID_8_" gradientUnits="userSpaceOnUse" x1="15.025" y1="70.45" x2="25.6" y2="70.45">
				<stop  offset="0" style="stop-color:#F26622"/>
				<stop  offset="1" style="stop-color:#182D41"/>
			</linearGradient>
			<path class="st8" d="M25.3,65.5c-0.5-0.5-1.2-0.5-1.7,0l-8.2,8.2c-0.5,0.5-0.5,1.2,0,1.7s1.2,0.5,1.7,0l8.2-8.2
				C25.7,66.7,25.7,65.9,25.3,65.5z"/>
		</g>
	</g>
	<g>
		<g>
			<linearGradient id="SVGID_9_" gradientUnits="userSpaceOnUse" x1="48.825" y1="50" x2="52.9885" y2="50">
				<stop  offset="0" style="stop-color:#F26622"/>
				<stop  offset="1" style="stop-color:#182D41"/>
			</linearGradient>
			<path class="st9" d="M52.7,48.3c-0.5-0.5-1.2-0.5-1.7,0L49.2,50c-0.5,0.5-0.5,1.2,0,1.7s1.2,0.5,1.7,0l1.7-1.7
				C53.1,49.6,53.1,48.8,52.7,48.3z"/>
		</g>
	</g>
</g>
</svg>
