<?xml version="1.0" encoding="utf-8"?>
<!-- Generator: Adobe Illustrator 23.0.5, SVG Export Plug-In . SVG Version: 6.00 Build 0)  -->
<svg version="1.1" id="Layer_1" xmlns="http://www.w3.org/2000/svg" xmlns:xlink="http://www.w3.org/1999/xlink" x="0px" y="0px"
	 viewBox="0 0 97.5 110" style="enable-background:new 0 0 97.5 110;" xml:space="preserve">
<style type="text/css">
	.st0{fill:#FFFFFF;stroke:#F26622;stroke-width:3;stroke-miterlimit:10;}
	.st1{fill:url(#SVGID_1_);}
	.st2{fill:url(#SVGID_2_);}
	.st3{fill:url(#SVGID_3_);}
	.st4{fill:url(#SVGID_4_);}
	.st5{fill:url(#SVGID_5_);}
</style>
<path class="st0" d="M95.5,79.8V29.9c0-1.3-0.7-2.5-1.8-3.1L50.6,1.9c-1.1-0.6-2.5-0.6-3.6,0L3.8,26.8C2.7,27.5,2,28.7,2,29.9v49.9
	c0,1.3,0.7,2.5,1.8,3.1L47,107.8c1.1,0.6,2.5,0.6,3.6,0l43.2-24.9C94.8,82.3,95.5,81.1,95.5,79.8z"/>
<g>
	<g>
		
			<linearGradient id="SVGID_1_" gradientUnits="userSpaceOnUse" x1="19.4" y1="55" x2="80.6" y2="55" gradientTransform="matrix(1 0 0 -1 0 110)">
			<stop  offset="0" style="stop-color:#F26622"/>
			<stop  offset="1" style="stop-color:#182D41"/>
		</linearGradient>
		<path class="st1" d="M77.6,29.9h-23c-1.7,0-3,1.3-3,3V66h-3.2V32.9c0-1.7-1.3-3-3-3h-23c-1.7,0-3,1.3-3,3v44.2c0,1.7,1.3,3,3,3h23
			c1.7,0,3-1.3,3-3v-9.3h3.2v9.3c0,1.7,1.3,3,3,3h23c1.7,0,3-1.3,3-3V32.9C80.6,31.2,79.3,29.9,77.6,29.9L77.6,29.9z M38.9,31.7
			L38.3,34c-0.1,0.3-0.4,0.6-0.7,0.6h-7.3c-0.3,0-0.7-0.2-0.7-0.6l-0.7-2.3H38.9z M45.4,78.3h-23c-0.7,0-1.2-0.5-1.2-1.2v-1.7h25.4
			v1.7C46.6,77.8,46,78.3,45.4,78.3L45.4,78.3z M46.6,73.7H21.2V32.9c0-0.7,0.5-1.2,1.2-1.2H27l0.8,2.8c0.3,1.1,1.3,1.9,2.5,1.9h7.3
			c1.1,0,2.2-0.8,2.5-1.9l0.8-2.8h4.6c0.7,0,1.2,0.5,1.2,1.2V66h-9c-0.5-2-2.6-3.3-4.6-2.8s-3.3,2.6-2.8,4.6s2.6,3.3,4.6,2.8
			c1.4-0.3,2.5-1.4,2.8-2.8h9L46.6,73.7z M35.9,66.9c0,1.1-0.9,2-2,2s-2-0.9-2-2s0.9-2,2-2S35.9,65.8,35.9,66.9z M71.2,31.7L70.5,34
			c-0.1,0.3-0.4,0.6-0.7,0.6h-7.3c-0.3,0-0.7-0.2-0.7-0.6l-0.7-2.3H71.2z M64,70.5c0.4,0.4,0.9,0.4,1.3,0l0,0l2.9-2.9
			c0.4-0.4,0.4-0.9,0-1.3l0,0l-2.9-2.9C65,63,64.4,63,64,63.4s-0.4,0.9,0,1.3l1.4,1.4h-12V32.9c0-0.7,0.5-1.2,1.2-1.2h4.6l0.8,2.8
			c0.3,1.1,1.3,1.9,2.5,1.9h7.3c1.1,0,2.2-0.8,2.5-1.9l0.8-2.8h4.6c0.7,0,1.2,0.5,1.2,1.2v40.8H53.4v-5.8h12L64,69.2
			C63.7,69.5,63.7,70.1,64,70.5z M77.6,78.3h-23c-0.7,0-1.2-0.5-1.2-1.2v-1.7h25.4v1.7C78.8,77.8,78.3,78.3,77.6,78.3L77.6,78.3z"/>
		
			<linearGradient id="SVGID_2_" gradientUnits="userSpaceOnUse" x1="24.1" y1="66.5" x2="43.7" y2="66.5" gradientTransform="matrix(1 0 0 -1 0 110)">
			<stop  offset="0" style="stop-color:#F26622"/>
			<stop  offset="1" style="stop-color:#182D41"/>
		</linearGradient>
		<path class="st2" d="M25,47.7h17.8c0.5,0,0.9-0.4,0.9-0.9l0,0v-6.6c0-0.5-0.4-0.9-0.9-0.9l0,0H25c-0.5,0-0.9,0.4-0.9,0.9l0,0v6.6
			C24.1,47.2,24.5,47.7,25,47.7L25,47.7z M25.9,41.1h15.9v4.8H25.9V41.1z"/>
		
			<linearGradient id="SVGID_3_" gradientUnits="userSpaceOnUse" x1="56.4" y1="60.75" x2="75.9" y2="60.75" gradientTransform="matrix(1 0 0 -1 0 110)">
			<stop  offset="0" style="stop-color:#F26622"/>
			<stop  offset="1" style="stop-color:#182D41"/>
		</linearGradient>
		<path class="st3" d="M75.9,58.3V40.2c0-0.5-0.4-0.9-0.9-0.9H57.3c-0.5,0-0.9,0.4-0.9,0.9l0,0v18.1c0,0.5,0.4,0.9,0.9,0.9l0,0H75
			C75.5,59.2,75.9,58.8,75.9,58.3z M74.1,57.4H58.2V41.1h15.9V57.4z"/>
		
			<linearGradient id="SVGID_4_" gradientUnits="userSpaceOnUse" x1="24.1" y1="51.7" x2="43.6" y2="51.7" gradientTransform="matrix(1 0 0 -1 0 110)">
			<stop  offset="0" style="stop-color:#F26622"/>
			<stop  offset="1" style="stop-color:#182D41"/>
		</linearGradient>
		<path class="st4" d="M43.6,58.3c0-0.5-0.4-0.9-0.9-0.9l0,0H25c-0.5,0-0.9,0.4-0.9,0.9s0.4,0.9,0.9,0.9h17.8
			C43.2,59.2,43.6,58.8,43.6,58.3L43.6,58.3z"/>
		
			<linearGradient id="SVGID_5_" gradientUnits="userSpaceOnUse" x1="24.1" y1="57.5" x2="43.7" y2="57.5" gradientTransform="matrix(1 0 0 -1 0 110)">
			<stop  offset="0" style="stop-color:#F26622"/>
			<stop  offset="1" style="stop-color:#182D41"/>
		</linearGradient>
		<path class="st5" d="M25,53.4h17.8c0.5,0,0.9-0.4,0.9-0.9s-0.4-0.9-0.9-0.9H25c-0.5,0-0.9,0.4-0.9,0.9S24.5,53.4,25,53.4z"/>
	</g>
</g>
</svg>
