<?xml version="1.0" encoding="utf-8"?>
<!-- Generator: Adobe Illustrator 23.0.5, SVG Export Plug-In . SVG Version: 6.00 Build 0)  -->
<svg version="1.1" id="Layer_1" xmlns="http://www.w3.org/2000/svg" xmlns:xlink="http://www.w3.org/1999/xlink" x="0px" y="0px"
	 viewBox="0 0 97.5 110" style="enable-background:new 0 0 97.5 110;" xml:space="preserve">
<style type="text/css">
	.st0{fill:#FFFFFF;stroke:#182D41;stroke-width:3;stroke-miterlimit:10;}
	.st1{fill:#FFFFFF;}
	.st2{fill:url(#SVGID_1_);}
	.st3{fill:url(#SVGID_2_);}
	.st4{fill:url(#SVGID_3_);}
	.st5{fill:url(#SVGID_4_);}
	.st6{fill:url(#SVGID_5_);}
	.st7{fill:url(#SVGID_6_);}
	.st8{fill:url(#SVGID_7_);}
	.st9{fill:url(#SVGID_8_);}
	.st10{fill:url(#SVGID_9_);}
	.st11{fill:url(#SVGID_10_);}
	.st12{fill:url(#SVGID_11_);}
	.st13{fill:url(#SVGID_12_);}
	.st14{fill:url(#SVGID_13_);}
	.st15{fill:url(#SVGID_14_);}
	.st16{fill:url(#SVGID_15_);}
</style>
<path class="st0" d="M95.5,79.8V30.5c0-1.3-0.7-2.5-1.8-3.1L50.5,2.6C49.4,2,48,2,46.9,2.6L3.7,27.4c-1.1,0.6-1.8,1.8-1.8,3.1V80
	c0,1.3,0.7,2.5,1.8,3.1l43.2,24.7c1.1,0.6,2.5,0.6,3.6,0L93.7,83C94.8,82.3,95.5,81.1,95.5,79.8z"/>
<ellipse class="st1" cx="49.1" cy="36" rx="12.1" ry="12"/>
<g>
	<g id="Icons">
		<linearGradient id="SVGID_1_" gradientUnits="userSpaceOnUse" x1="19.2" y1="58" x2="29" y2="58">
			<stop  offset="0" style="stop-color:#F26622"/>
			<stop  offset="1" style="stop-color:#182D41"/>
		</linearGradient>
		<path class="st2" d="M20.4,43.7c0-1,0.8-1.8,1.8-1.8H29v-1.2h-6.8c-1.7,0-3,1.4-3,3v31.6h1.2C20.4,75.3,20.4,43.7,20.4,43.7z"/>
		<linearGradient id="SVGID_2_" gradientUnits="userSpaceOnUse" x1="69" y1="58" x2="78.8" y2="58">
			<stop  offset="0" style="stop-color:#F26622"/>
			<stop  offset="1" style="stop-color:#182D41"/>
		</linearGradient>
		<path class="st3" d="M77.6,43.7v31.6h1.2V43.7c0-1.7-1.4-3-3-3H69v1.2h6.8C76.8,41.9,77.6,42.7,77.6,43.7z"/>
		<linearGradient id="SVGID_3_" gradientUnits="userSpaceOnUse" x1="21.6" y1="59.2" x2="28.3" y2="59.2">
			<stop  offset="0" style="stop-color:#F26622"/>
			<stop  offset="1" style="stop-color:#182D41"/>
		</linearGradient>
		<path class="st4" d="M21.6,44.9v30.4h1.2V44.9c0-0.3,0.3-0.6,0.6-0.6h4.9v-1.2h-4.9C22.4,43.1,21.6,43.9,21.6,44.9z"/>
		<linearGradient id="SVGID_4_" gradientUnits="userSpaceOnUse" x1="69.7" y1="59.2" x2="76.4" y2="59.2">
			<stop  offset="0" style="stop-color:#F26622"/>
			<stop  offset="1" style="stop-color:#182D41"/>
		</linearGradient>
		<path class="st5" d="M76.4,75.3V44.9c0-1-0.8-1.8-1.8-1.8h-4.9v1.2h4.9c0.3,0,0.6,0.3,0.6,0.6v30.4H76.4z"/>
		<linearGradient id="SVGID_5_" gradientUnits="userSpaceOnUse" x1="14.4" y1="81.45" x2="83.8" y2="81.45">
			<stop  offset="0" style="stop-color:#F26622"/>
			<stop  offset="1" style="stop-color:#182D41"/>
		</linearGradient>
		<path class="st6" d="M81.9,77.2c-7.1,0-58.8,0-65.7,0c-1,0-1.8,0.8-1.8,1.8c0,3.7,3,6.7,6.7,6.7h56c3.7,0,6.7-3,6.7-6.7
			C83.7,78,82.9,77.2,81.9,77.2z M55.7,78.4V79c0,0.3-0.3,0.6-0.6,0.6H42.9c-0.3,0-0.6-0.3-0.6-0.6v-0.6H55.7z M77,84.5H21
			c-3,0-5.5-2.5-5.5-5.5c0-0.3,0.3-0.6,0.6-0.6h25V79c0,1,0.8,1.8,1.8,1.8h12.2c1,0,1.8-0.8,1.8-1.8v-0.6h25c0.3,0,0.6,0.3,0.6,0.6
			C82.5,82,80,84.5,77,84.5z"/>
		<linearGradient id="SVGID_6_" gradientUnits="userSpaceOnUse" x1="36.2" y1="36.4" x2="61.8" y2="36.4">
			<stop  offset="0" style="stop-color:#F26622"/>
			<stop  offset="1" style="stop-color:#182D41"/>
		</linearGradient>
		<path class="st7" d="M49,49.2c7,0,12.8-5.7,12.8-12.8S56,23.6,49,23.6s-12.8,5.7-12.8,12.8S42,49.2,49,49.2z M49,24.8
			c6.4,0,11.6,5.2,11.6,11.6S55.4,48,49,48s-11.6-5.2-11.6-11.6S42.6,24.8,49,24.8z"/>
		<linearGradient id="SVGID_7_" gradientUnits="userSpaceOnUse" x1="40.175" y1="36.1875" x2="57.625" y2="36.1875">
			<stop  offset="0" style="stop-color:#F26622"/>
			<stop  offset="1" style="stop-color:#182D41"/>
		</linearGradient>
		<path class="st8" d="M49.4,42l7.7-7.7c0.7-0.7,0.7-1.9,0-2.6L55.4,30c-0.7-0.7-1.9-0.7-2.6,0l-5.6,5.6L45,33.4
			c-0.7-0.7-1.9-0.7-2.6,0l-1.7,1.7c-0.7,0.7-0.7,1.9,0,2.6L45,42C46.3,43.2,48.2,43.2,49.4,42L49.4,42z M41.7,36l1.7-1.7
			c0.2-0.2,0.6-0.2,0.9,0l2.6,2.6c0.2,0.2,0.6,0.2,0.9,0l6-6c0.2-0.2,0.6-0.2,0.9,0l1.7,1.7c0.2,0.2,0.2,0.6,0,0.9l-7.7,7.7
			c-0.7,0.7-1.9,0.7-2.6,0l-4.3-4.3C41.4,36.6,41.4,36.2,41.7,36L41.7,36z"/>
		<linearGradient id="SVGID_8_" gradientUnits="userSpaceOnUse" x1="30.1924" y1="65.6" x2="38.6782" y2="65.6">
			<stop  offset="0" style="stop-color:#F26622"/>
			<stop  offset="1" style="stop-color:#182D41"/>
		</linearGradient>
		<path class="st9" d="M32,72.3h2.4c1.7,0,3.2-1,3.9-2.5c0.6-1.4,0.5-2.9-0.4-4.2c0.9-1.2,1-2.8,0.4-4.2c-0.7-1.6-2.2-2.5-3.9-2.5
			H32c-1,0-1.8,0.8-1.8,1.8v9.7C30.1,71.5,31,72.3,32,72.3z M31.4,60.7c0-0.3,0.3-0.6,0.6-0.6h2.4c1.2,0,2.3,0.7,2.8,1.8
			s0.3,2.4-0.5,3.3c-0.2,0.2-0.2,0.6,0,0.8c0.8,0.9,1,2.1,0.5,3.3c-0.5,1.1-1.6,1.8-2.8,1.8H32c-0.3,0-0.6-0.3-0.6-0.6V60.7z"/>
		<linearGradient id="SVGID_9_" gradientUnits="userSpaceOnUse" x1="32.6" y1="68.1" x2="36.2" y2="68.1">
			<stop  offset="0" style="stop-color:#F26622"/>
			<stop  offset="1" style="stop-color:#182D41"/>
		</linearGradient>
		<path class="st10" d="M33.2,69.9h1.2c1,0,1.8-0.8,1.8-1.8s-0.8-1.8-1.8-1.8h-1.2c-0.3,0-0.6,0.3-0.6,0.6v2.4
			C32.6,69.6,32.8,69.9,33.2,69.9z M33.8,67.4h0.6c0.3,0,0.6,0.3,0.6,0.6c0,0.3-0.3,0.6-0.6,0.6h-0.6V67.4z"/>
		<linearGradient id="SVGID_10_" gradientUnits="userSpaceOnUse" x1="32.6" y1="63.2" x2="36.2" y2="63.2">
			<stop  offset="0" style="stop-color:#F26622"/>
			<stop  offset="1" style="stop-color:#182D41"/>
		</linearGradient>
		<path class="st11" d="M33.2,65h1.2c1,0,1.8-0.8,1.8-1.8c0-1-0.8-1.8-1.8-1.8h-1.2c-0.3,0-0.6,0.3-0.6,0.6v2.4
			C32.6,64.7,32.8,65,33.2,65z M33.8,62.6h0.6c0.3,0,0.6,0.3,0.6,0.6s-0.3,0.6-0.6,0.6h-0.6V62.6z"/>
		<linearGradient id="SVGID_11_" gradientUnits="userSpaceOnUse" x1="39.9" y1="65.65" x2="48.4" y2="65.65">
			<stop  offset="0" style="stop-color:#F26622"/>
			<stop  offset="1" style="stop-color:#182D41"/>
		</linearGradient>
		<path class="st12" d="M46.6,62.6c1,0,1.8-0.8,1.8-1.8S47.6,59,46.6,59h-4.9c-1,0-1.8,0.8-1.8,1.8v9.7c0,1,0.8,1.8,1.8,1.8h4.9
			c1,0,1.8-0.8,1.8-1.8s-0.8-1.8-1.8-1.8h-3v-1.2h3c1,0,1.8-0.8,1.8-1.8s-0.8-1.8-1.8-1.8h-3v-1.2L46.6,62.6L46.6,62.6z M42.9,65
			h3.7c0.3,0,0.6,0.3,0.6,0.6c0,0.3-0.3,0.6-0.6,0.6h-3.7c-0.3,0-0.6,0.3-0.6,0.6v2.4c0,0.3,0.3,0.6,0.6,0.6h3.7
			c0.3,0,0.6,0.3,0.6,0.6c0,0.3-0.3,0.6-0.6,0.6h-4.9c-0.3,0-0.6-0.3-0.6-0.6c0-5.1,0-4.6,0-9.7c0-0.3,0.3-0.6,0.6-0.6h4.9
			c0.3,0,0.6,0.3,0.6,0.6s-0.3,0.6-0.6,0.6h-3.7c-0.3,0-0.6,0.3-0.6,0.6v2.4C42.3,64.7,42.6,65,42.9,65z"/>
		<linearGradient id="SVGID_12_" gradientUnits="userSpaceOnUse" x1="49.6" y1="65.65" x2="58.1" y2="65.65">
			<stop  offset="0" style="stop-color:#F26622"/>
			<stop  offset="1" style="stop-color:#182D41"/>
		</linearGradient>
		<path class="st13" d="M53.9,72.3c1,0,1.8-0.8,1.8-1.8v-7.9h0.6c1,0,1.8-0.8,1.8-1.8S57.3,59,56.3,59h-4.9c-1,0-1.8,0.8-1.8,1.8
			s0.8,1.8,1.8,1.8H52v7.9C52,71.5,52.9,72.3,53.9,72.3z M51.4,61.3c-0.3,0-0.6-0.3-0.6-0.6s0.3-0.6,0.6-0.6h4.9
			c0.3,0,0.6,0.3,0.6,0.6s-0.3,0.6-0.6,0.6h-1.2c-0.3,0-0.6,0.3-0.6,0.6v8.5c0,0.3-0.3,0.6-0.6,0.6s-0.6-0.3-0.6-0.6V62
			c0-0.3-0.3-0.6-0.6-0.6h-1.3V61.3z"/>
		<linearGradient id="SVGID_13_" gradientUnits="userSpaceOnUse" x1="61.8" y1="63.2" x2="65.4" y2="63.2">
			<stop  offset="0" style="stop-color:#F26622"/>
			<stop  offset="1" style="stop-color:#182D41"/>
		</linearGradient>
		<path class="st14" d="M65.4,64.4v-1.2c0-1-0.8-1.8-1.8-1.8c-1,0-1.8,0.8-1.8,1.8v1.2c0,0.3,0.3,0.6,0.6,0.6h2.4
			C65.2,65,65.4,64.7,65.4,64.4z M64.2,63.8H63v-0.6c0-0.3,0.3-0.6,0.6-0.6s0.6,0.3,0.6,0.6V63.8z"/>
		<linearGradient id="SVGID_14_" gradientUnits="userSpaceOnUse" x1="59.2" y1="65.6" x2="67.8" y2="65.6">
			<stop  offset="0" style="stop-color:#F26622"/>
			<stop  offset="1" style="stop-color:#182D41"/>
		</linearGradient>
		<path class="st15" d="M66,72.3c1,0,1.8-0.8,1.8-1.8v-7.3c0-2.3-1.9-4.3-4.3-4.3s-4.3,1.9-4.3,4.3v7.3c0,1,0.8,1.8,1.8,1.8
			s1.8-0.8,1.8-1.8v-3H64v3C64.2,71.5,65,72.3,66,72.3z M62.4,66.2c-0.3,0-0.6,0.3-0.6,0.6v3.7c0,0.3-0.3,0.6-0.6,0.6
			s-0.6-0.3-0.6-0.6v-7.3c0-1.7,1.4-3,3-3s3,1.4,3,3v7.3c0,0.3-0.3,0.6-0.6,0.6s-0.6-0.3-0.6-0.6v-3.7c0-0.3-0.3-0.6-0.6-0.6H62.4z"
			/>
		<linearGradient id="SVGID_15_" gradientUnits="userSpaceOnUse" x1="30.1591" y1="36.3" x2="67.7409" y2="36.3">
			<stop  offset="0" style="stop-color:#F26622"/>
			<stop  offset="1" style="stop-color:#182D41"/>
		</linearGradient>
		<path class="st16" d="M30.4,44.3l2.4,4.2c0.5,0.9,1.6,1.2,2.5,0.7l1-0.6c2.3,2.4,5.2,4.1,8.4,4.9v1.1c0,1,0.8,1.8,1.8,1.8h4.9
			c1,0,1.8-0.8,1.8-1.8v-1.1c3.2-0.8,6.1-2.5,8.4-4.9l1,0.6c0.9,0.5,2,0.2,2.5-0.7l2.4-4.2c0.5-0.9,0.2-2-0.7-2.5l-1-0.6
			c0.5-1.6,0.7-3.2,0.7-4.9s-0.2-3.3-0.7-4.9l1-0.6c0.9-0.5,1.2-1.6,0.7-2.5l-2.4-4.2c-0.5-0.9-1.6-1.2-2.5-0.7l-1,0.6
			c-2.3-2.4-5.2-4.1-8.4-4.9V18c0-1-0.8-1.8-1.8-1.8h-4.9c-1,0-1.8,0.8-1.8,1.8v1.1c-3.2,0.8-6.1,2.5-8.4,4.9l-1-0.6
			c-0.9-0.5-2-0.2-2.5,0.7l-2.4,4.2c-0.5,0.9-0.2,2,0.7,2.5l1,0.6c-0.9,3.2-0.9,6.6,0,9.7l-1,0.6C30.2,42.3,29.9,43.5,30.4,44.3
			L30.4,44.3z M31.7,42.9l1.4-0.8c0.2-0.1,0.4-0.4,0.3-0.7c-1-3.2-1-6.7,0-10c0.1-0.3,0-0.6-0.3-0.7l-1.4-0.8
			c-0.3-0.2-0.4-0.5-0.2-0.8l2.4-4.2c0.2-0.3,0.5-0.4,0.8-0.2l1.4,0.8c0.2,0.1,0.6,0.1,0.8-0.1c2.3-2.5,5.3-4.3,8.6-5
			c0.3-0.1,0.5-0.3,0.5-0.6v-1.6c0-0.3,0.3-0.6,0.6-0.6h4.9c0.3,0,0.6,0.3,0.6,0.6v1.6c0,0.3,0.2,0.5,0.5,0.6c3.3,0.7,6.3,2.4,8.6,5
			c0.2,0.2,0.5,0.3,0.8,0.1l1.4-0.8c0.3-0.2,0.7-0.1,0.8,0.2l2.4,4.2c0.2,0.3,0.1,0.7-0.2,0.8L65,30.7c-0.2,0.1-0.4,0.4-0.3,0.7
			c0.5,1.6,0.8,3.3,0.8,5s-0.3,3.4-0.8,5c-0.1,0.3,0,0.6,0.3,0.7l1.4,0.8c0.3,0.2,0.4,0.5,0.2,0.8l-2.4,4.2
			c-0.2,0.3-0.5,0.4-0.8,0.2L62,47.3c-0.2-0.1-0.6-0.1-0.8,0.1c-2.3,2.5-5.3,4.3-8.6,5C52.2,52.5,52,52.7,52,53v1.6
			c0,0.3-0.3,0.6-0.6,0.6h-4.9c-0.3,0-0.6-0.3-0.6-0.6V53c0-0.3-0.2-0.5-0.5-0.6c-3.3-0.7-6.3-2.4-8.6-5c-0.2-0.2-0.5-0.3-0.8-0.1
			l-1.4,0.8c-0.3,0.2-0.7,0.1-0.8-0.2l-2.4-4.2C31.3,43.4,31.4,43.1,31.7,42.9L31.7,42.9z"/>
	</g>
</g>
</svg>
