<?xml version="1.0" encoding="utf-8"?>
<!-- Generator: Adobe Illustrator 23.0.5, SVG Export Plug-In . SVG Version: 6.00 Build 0)  -->
<svg version="1.1" id="Layer_1" xmlns="http://www.w3.org/2000/svg" xmlns:xlink="http://www.w3.org/1999/xlink" x="0px" y="0px"
	 viewBox="0 0 34.82 34.5" style="enable-background:new 0 0 34.82 34.5;" xml:space="preserve">
<style type="text/css">
	.st0{fill:#F26622;}
</style>
<g>
	<g>
		<path class="st0" d="M31.39,13.31h-0.26V8.1c0-1.06-0.82-1.92-1.84-1.92H4.65c-1.01,0-1.83,0.86-1.84,1.92v8.5H2.55
			c-1.01,0-1.83,0.86-1.84,1.92v9.32c0,1.06,0.82,1.92,1.84,1.92h4.72c1.01,0,1.83-0.86,1.84-1.92v-1.92h4.57l-0.26,1.1h-1.16
			c-0.29,0-0.52,0.25-0.52,0.55v1.64c0,0.3,0.23,0.55,0.52,0.55h9.44c0.29,0,0.52-0.25,0.52-0.55v-1.64c0-0.3-0.23-0.55-0.52-0.55
			h-1.16l-0.26-1.1h2.47v1.92c0,1.06,0.82,1.92,1.84,1.92h6.82c1.01,0,1.83-0.86,1.84-1.92V15.23
			C33.23,14.17,32.41,13.31,31.39,13.31z M8.06,27.84c0,0.45-0.35,0.82-0.79,0.82H2.55c-0.43,0-0.79-0.37-0.79-0.82v-9.32
			c0-0.45,0.35-0.82,0.79-0.82h0.41l0.41,1.27c0.07,0.22,0.27,0.37,0.5,0.37h2.1c0.23,0,0.43-0.15,0.5-0.37l0.41-1.27h0.41
			c0.43,0,0.79,0.37,0.79,0.82V27.84z M4.07,17.69h1.69l-0.18,0.55H4.24L4.07,17.69z M21.17,28.11v0.55h-8.39v-0.55H21.17z
			 M14.5,27.01l0.26-1.1h4.42l0.26,1.1H14.5z M22.74,24.82H9.11v-2.19h13.63V24.82z M22.74,15.23v6.31H9.11v-3.02
			c0-1.06-0.82-1.92-1.84-1.92H3.86V8.1c0-0.45,0.35-0.82,0.79-0.82H29.3c0.43,0,0.79,0.37,0.79,0.82v5.21h-5.51
			C23.56,13.31,22.74,14.17,22.74,15.23z M28.83,14.4l-0.18,0.55h-1.34l-0.18-0.55H28.83z M32.18,27.84c0,0.45-0.35,0.82-0.79,0.82
			h-6.82c-0.43,0-0.79-0.37-0.79-0.82V15.23c0-0.45,0.35-0.82,0.79-0.82h1.46l0.41,1.27c0.07,0.22,0.27,0.37,0.5,0.37h2.1
			c0.23,0,0.43-0.15,0.5-0.37l0.41-1.27h1.46c0.43,0,0.79,0.37,0.79,0.82V27.84z"/>
		<path class="st0" d="M29.03,27.01h-2.1c-0.29,0-0.52,0.25-0.52,0.55c0,0.3,0.23,0.55,0.52,0.55h2.1c0.29,0,0.52-0.25,0.52-0.55
			C29.56,27.26,29.32,27.01,29.03,27.01z"/>
		<path class="st0" d="M5.96,27.01h-2.1c-0.29,0-0.52,0.25-0.52,0.55c0,0.3,0.23,0.55,0.52,0.55h2.1c0.29,0,0.52-0.25,0.52-0.55
			C6.48,27.26,6.25,27.01,5.96,27.01z"/>
		<path class="st0" d="M17.5,23.18h-1.05c-0.29,0-0.52,0.25-0.52,0.55s0.23,0.55,0.52,0.55h1.05c0.29,0,0.52-0.25,0.52-0.55
			S17.79,23.18,17.5,23.18z"/>
	</g>
</g>
</svg>
