<?xml version="1.0" encoding="utf-8"?>
<!-- Generator: Adobe Illustrator 23.0.5, SVG Export Plug-In . SVG Version: 6.00 Build 0)  -->
<svg version="1.1" xmlns="http://www.w3.org/2000/svg" xmlns:xlink="http://www.w3.org/1999/xlink" x="0px" y="0px"
	 viewBox="0 0 750 500" style="enable-background:new 0 0 750 500;" xml:space="preserve">
<style type="text/css">
	.st0{fill:url(#SVGID_1_);}
	.st1{clip-path:url(#SVGID_3_);}
	.st2{opacity:0.6;}
	.st3{fill:url(#SVGID_4_);}
	.st4{opacity:0.3;fill:url(#SVGID_5_);}
	.st5{fill:url(#SVGID_6_);}
	.st6{opacity:0.3;fill:url(#SVGID_7_);}
	.st7{fill:#141C37;}
	.st8{opacity:0.3;fill:url(#SVGID_8_);}
	.st9{fill:url(#SVGID_9_);}
	.st10{fill:url(#SVGID_10_);}
	.st11{fill:url(#SVGID_11_);}
	.st12{opacity:0.3;fill:url(#SVGID_12_);}
	.st13{fill:url(#SVGID_13_);}
	.st14{fill:url(#SVGID_14_);}
	.st15{opacity:0.3;fill:url(#SVGID_15_);}
	.st16{fill:url(#SVGID_16_);}
	.st17{fill:url(#SVGID_17_);}
	.st18{opacity:0.3;fill:url(#SVGID_18_);}
	.st19{fill:url(#SVGID_19_);}
	.st20{fill:url(#SVGID_20_);}
	.st21{fill:url(#SVGID_21_);}
	.st22{fill:url(#SVGID_22_);}
</style>
<g id="BACKGROUND">
	<linearGradient id="SVGID_1_" gradientUnits="userSpaceOnUse" x1="98.3047" y1="-45.2716" x2="580.1465" y2="468.9194">
		<stop  offset="0" style="stop-color:#000600"/>
		<stop  offset="0.3219" style="stop-color:#070E13"/>
		<stop  offset="0.9956" style="stop-color:#141C37"/>
	</linearGradient>
	<rect class="st0" width="750" height="500"/>
</g>
<g id="OBJECTS">
	<g>
		<defs>
			<rect id="SVGID_2_" width="750" height="500"/>
		</defs>
		<clipPath id="SVGID_3_">
			<use xlink:href="#SVGID_2_"  style="overflow:visible;"/>
		</clipPath>
		<g class="st1">
			<g>
				<g class="st2">
					<image style="overflow:visible;" width="585" height="573" xlink:href="EEB105F.html"  transform="matrix(1 0 0 1 217 -64)">
					</image>
				</g>
				
					<linearGradient id="SVGID_4_" gradientUnits="userSpaceOnUse" x1="7799.5049" y1="598.812" x2="7295.6919" y2="335.6665" gradientTransform="matrix(-1 0 0 -1 7947.8853 507.1836)">
					<stop  offset="0" style="stop-color:#000600"/>
					<stop  offset="0.3219" style="stop-color:#070E13"/>
					<stop  offset="0.9956" style="stop-color:#141C37"/>
				</linearGradient>
				<polygon class="st3" points="261.8,-27.4 765.8,489.2 765.8,-27.4 				"/>
				
					<linearGradient id="SVGID_5_" gradientUnits="userSpaceOnUse" x1="7700.7642" y1="329.2865" x2="7143.2388" y2="218.6578" gradientTransform="matrix(-1 0 0 -1 7947.8853 507.1836)">
					<stop  offset="0" style="stop-color:#96CEE3"/>
					<stop  offset="0.992" style="stop-color:#96CEE3;stop-opacity:0"/>
				</linearGradient>
				<polygon class="st4" points="261.8,-27.4 765.8,489.2 765.8,488.7 262.2,-27.4 				"/>
			</g>
			<g>
				<g>
					<g class="st2">
						<image style="overflow:visible;" width="466" height="437" xlink:href="EEB105D.html"  transform="matrix(1 0 0 1 351 -64)">
						</image>
					</g>
					<linearGradient id="SVGID_6_" gradientUnits="userSpaceOnUse" x1="493.8878" y1="-142.5586" x2="723.7413" y2="162.2104">
						<stop  offset="0" style="stop-color:#000600"/>
						<stop  offset="0.3219" style="stop-color:#070E13"/>
						<stop  offset="0.9956" style="stop-color:#141C37"/>
					</linearGradient>
					<polygon class="st5" points="392.9,-27.4 768.5,339.1 768.5,-27.4 					"/>
					
						<linearGradient id="SVGID_7_" gradientUnits="userSpaceOnUse" x1="2268.3882" y1="-3207.7356" x2="1780.8185" y2="-3304.4829" gradientTransform="matrix(0 1 1 0 3856.5278 -1952.6958)">
						<stop  offset="0" style="stop-color:#96CEE3"/>
						<stop  offset="0.992" style="stop-color:#96CEE3;stop-opacity:0"/>
					</linearGradient>
					<polygon class="st6" points="768.3,-27.4 768.3,338.4 393.3,-27.4 392.9,-27.4 768.5,339.1 768.5,-27.4 					"/>
				</g>
				<g>
					<g class="st2">
						<image style="overflow:visible;" width="348" height="344" xlink:href="EEB1063.html"  transform="matrix(1 0 0 1 457 -64)">
						</image>
					</g>
					<polygon class="st7" points="498.7,-27.4 768.5,235.9 768.5,-27.4 					"/>
					
						<linearGradient id="SVGID_8_" gradientUnits="userSpaceOnUse" x1="2158.9604" y1="-3176.5427" x2="1671.3904" y2="-3273.2903" gradientTransform="matrix(0 1 1 0 3856.5278 -1952.6958)">
						<stop  offset="0" style="stop-color:#96CEE3"/>
						<stop  offset="0.992" style="stop-color:#96CEE3;stop-opacity:0"/>
					</linearGradient>
					<polygon class="st8" points="768.3,-27.4 768.3,235.2 499.1,-27.4 498.7,-27.4 768.5,235.9 768.5,-27.4 					"/>
				</g>
				<linearGradient id="SVGID_9_" gradientUnits="userSpaceOnUse" x1="527.4976" y1="302.7494" x2="522.4251" y2="-72.6199">
					<stop  offset="1.004460e-02" style="stop-color:#275590;stop-opacity:0"/>
					<stop  offset="0.6261" style="stop-color:#224F93;stop-opacity:0.6233"/>
					<stop  offset="0.9985" style="stop-color:#1C4996"/>
				</linearGradient>
				<polygon class="st9" points="710.3,340.7 366,-12.2 340.7,-27.4 699.9,340.7 				"/>
			</g>
			
				<linearGradient id="SVGID_10_" gradientUnits="userSpaceOnUse" x1="6761.7271" y1="2561.7773" x2="6756.1377" y2="2742.7415" gradientTransform="matrix(-1 0 0 -1 7009.4902 2680.4636)">
				<stop  offset="0" style="stop-color:#30374F;stop-opacity:0"/>
				<stop  offset="0.4345" style="stop-color:#272E47;stop-opacity:0.4345"/>
				<stop  offset="1" style="stop-color:#141C37"/>
			</linearGradient>
			<polygon class="st10" points="358.2,149.9 185.1,-27.4 140.9,-27.4 314,149.9 			"/>
			
				<linearGradient id="SVGID_11_" gradientUnits="userSpaceOnUse" x1="3584.8584" y1="-2629.5344" x2="3884.4978" y2="-2365.8518" gradientTransform="matrix(0 1 1 0 3271.4578 -3271.4578)">
				<stop  offset="1.004460e-02" style="stop-color:#275590;stop-opacity:0"/>
				<stop  offset="0.9985" style="stop-color:#1C4996"/>
			</linearGradient>
			<polygon class="st11" points="820.4,457.9 646.8,280 561.2,280 820.4,545.6 			"/>
			<g class="st2">
				<image style="overflow:visible;" width="295" height="311" xlink:href="EEB1065.html"  transform="matrix(1 0 0 1 526 -64)">
				</image>
			</g>
			<polygon class="st7" points="784.3,-27.4 564.4,-27.4 784.3,198 			"/>
			
				<linearGradient id="SVGID_12_" gradientUnits="userSpaceOnUse" x1="7511.5786" y1="469.1978" x2="7024.0088" y2="372.4503" gradientTransform="matrix(-1 0 0 -1 7947.8853 507.1836)">
				<stop  offset="0" style="stop-color:#96CEE3"/>
				<stop  offset="0.992" style="stop-color:#96CEE3;stop-opacity:0"/>
			</linearGradient>
			<polygon class="st12" points="784.3,197.6 564.8,-27.4 564.4,-27.4 784.3,198 			"/>
			<linearGradient id="SVGID_13_" gradientUnits="userSpaceOnUse" x1="736.5986" y1="30.3209" x2="728.1443" y2="143.608">
				<stop  offset="1.004460e-02" style="stop-color:#275590;stop-opacity:0"/>
				<stop  offset="0.9985" style="stop-color:#1C4996"/>
			</linearGradient>
			<polygon class="st13" points="782.6,79 728.3,23.3 684.1,23.3 782.6,124.3 			"/>
		</g>
		<g class="st1">
			<g>
				<g class="st2">
					<image style="overflow:visible;" width="446" height="466" xlink:href="EEB1067.html"  transform="matrix(1 0 0 1 -82 136)">
					</image>
				</g>
				
					<linearGradient id="SVGID_14_" gradientUnits="userSpaceOnUse" x1="5994.709" y1="2443.2244" x2="5554.1113" y2="2213.0967" gradientTransform="matrix(0 -1 -1 0 2354.9146 6100.1543)">
					<stop  offset="0" style="stop-color:#002693"/>
					<stop  offset="4.381610e-03" style="stop-color:#092688"/>
					<stop  offset="0.3331" style="stop-color:#07267E"/>
					<stop  offset="0.8841" style="stop-color:#012664"/>
					<stop  offset="0.9986" style="stop-color:#00265E"/>
				</linearGradient>
				<polygon class="st14" points="349,565.2 -45.4,180.4 -45.4,565.2 				"/>
				
					<linearGradient id="SVGID_15_" gradientUnits="userSpaceOnUse" x1="5897.4111" y1="2275.0107" x2="5409.8389" y2="2178.2627" gradientTransform="matrix(0 -1 -1 0 2354.9146 6100.1543)">
					<stop  offset="0" style="stop-color:#96CEE3"/>
					<stop  offset="0.992" style="stop-color:#96CEE3;stop-opacity:0"/>
				</linearGradient>
				<polygon class="st15" points="-45.1,565.2 -45.1,181.1 348.6,565.2 349,565.2 -45.4,180.4 -45.4,565.2 				"/>
			</g>
			<linearGradient id="SVGID_16_" gradientUnits="userSpaceOnUse" x1="-9.8783" y1="331.3233" x2="208.3556" y2="543.0704">
				<stop  offset="0.2094" style="stop-color:#4C26B8;stop-opacity:0"/>
				<stop  offset="0.9079" style="stop-color:#4926B8;stop-opacity:0.8835"/>
				<stop  offset="1" style="stop-color:#4826B8"/>
			</linearGradient>
			<polygon class="st16" points="-29.9,236.6 -29.9,380 102,515.1 241.8,515.1 			"/>
			<g>
				<g class="st2">
					<image style="overflow:visible;" width="538" height="585" xlink:href="EEB1064.html"  transform="matrix(1 0 0 1 -86 -10)">
					</image>
				</g>
				<linearGradient id="SVGID_17_" gradientUnits="userSpaceOnUse" x1="-99.38" y1="272.7083" x2="251.8671" y2="270.335">
					<stop  offset="0" style="stop-color:#000600"/>
					<stop  offset="0.2394" style="stop-color:#030907"/>
					<stop  offset="0.586" style="stop-color:#0A101A"/>
					<stop  offset="0.9662" style="stop-color:#141C37"/>
				</linearGradient>
				<polygon class="st17" points="-43.3,33.3 -43.3,504.3 -41.8,508.2 420.1,508.2 				"/>
				
					<linearGradient id="SVGID_18_" gradientUnits="userSpaceOnUse" x1="674.7047" y1="-1268.6277" x2="187.1343" y2="-1365.3752" gradientTransform="matrix(1 0 0 1 -272.1449 1631.4781)">
					<stop  offset="0" style="stop-color:#96CEE3"/>
					<stop  offset="0.992" style="stop-color:#96CEE3;stop-opacity:0"/>
				</linearGradient>
				<polygon class="st18" points="-43.3,37.1 -43.3,37.5 419.4,511.7 -41.7,511.7 -43.3,507.4 -43.3,508 -41.8,512 420.1,512 				
					"/>
			</g>
			<g>
				<g class="st2">
					<image style="overflow:visible;" width="311" height="339" xlink:href="EEB106C.html"  transform="matrix(1 0 0 1 -78 250)">
					</image>
				</g>
				<polygon class="st7" points="-41.6,533.4 203.2,533.4 -41.6,294.6 				"/>
				<linearGradient id="SVGID_19_" gradientUnits="userSpaceOnUse" x1="60.3022" y1="322.2838" x2="80.6623" y2="912.7391">
					<stop  offset="1.004460e-02" style="stop-color:#275590;stop-opacity:0"/>
					<stop  offset="0.9985" style="stop-color:#1C4996"/>
				</linearGradient>
				<polygon class="st19" points="-120.5,255.5 223.9,608.4 249.1,623.7 -110,255.5 				"/>
			</g>
			<g>
				<g class="st2">
					<image style="overflow:visible;" width="388" height="466" xlink:href="EEB106D.html"  transform="matrix(1 0 0 1 -127 30)">
					</image>
				</g>
				<polygon class="st7" points="-90.7,70.2 -90.7,178.7 234.6,512 340.4,512 				"/>
				
					<linearGradient id="SVGID_20_" gradientUnits="userSpaceOnUse" x1="8217.9707" y1="1915.4512" x2="7754.4673" y2="1823.479" gradientTransform="matrix(-1 0 0 -1 7947.8853 2138.6619)">
					<stop  offset="0" style="stop-color:#000600"/>
					<stop  offset="0.2394" style="stop-color:#030907"/>
					<stop  offset="0.586" style="stop-color:#0A101A"/>
					<stop  offset="0.9662" style="stop-color:#141C37"/>
				</linearGradient>
				<polygon class="st20" points="-90.7,70.2 -90.7,70.6 339.7,511.7 234.7,511.7 -90.7,178.2 -90.7,178.7 234.6,512 340.4,512 				
					"/>
			</g>
			
				<linearGradient id="SVGID_21_" gradientUnits="userSpaceOnUse" x1="3647.1289" y1="-3107.1677" x2="3857.196" y2="-2922.3083" gradientTransform="matrix(0 1 1 0 3271.4578 -3271.4578)">
				<stop  offset="1.004460e-02" style="stop-color:#275590;stop-opacity:0"/>
				<stop  offset="0.9389" style="stop-color:#1C4996"/>
			</linearGradient>
			<polygon class="st21" points="87.5,325.1 295.6,538.4 339.7,538.4 131.7,325.1 			"/>
			<linearGradient id="SVGID_22_" gradientUnits="userSpaceOnUse" x1="66.9203" y1="452.358" x2="68.362" y2="548.951">
				<stop  offset="0" style="stop-color:#30374F;stop-opacity:0"/>
				<stop  offset="0.4345" style="stop-color:#272E47;stop-opacity:0.4345"/>
				<stop  offset="1" style="stop-color:#141C37"/>
			</linearGradient>
			<polygon class="st22" points="-30.9,403.3 -30.9,561.9 13.9,607.8 168.7,607.8 			"/>
		</g>
	</g>
</g>
</svg>
