<?xml version="1.0" encoding="utf-8"?>
<!-- Generator: Adobe Illustrator 23.0.5, SVG Export Plug-In . SVG Version: 6.00 Build 0)  -->
<svg version="1.1" id="Layer_1" xmlns="http://www.w3.org/2000/svg" xmlns:xlink="http://www.w3.org/1999/xlink" x="0px" y="0px"
	 viewBox="0 0 164.6 220.6" style="enable-background:new 0 0 164.6 220.6;" xml:space="preserve">
<style type="text/css">
	.st0{clip-path:url(#SVGID_2_);}
	.st1{fill:#FFD6C1;}
	.st2{fill:#FAF6EC;}
	.st3{fill:#DCC2BB;}
	.st4{fill:#E9E5DC;}
	.st5{fill:#FABDB6;}
	.st6{fill:url(#SVGID_3_);}
	.st7{fill:url(#SVGID_4_);}
	.st8{fill:url(#SVGID_5_);}
	.st9{fill:url(#SVGID_6_);}
	.st10{fill:url(#SVGID_7_);}
	.st11{fill:url(#SVGID_8_);}
	.st12{fill:url(#SVGID_9_);}
	.st13{fill:url(#SVGID_10_);}
	.st14{fill:url(#SVGID_11_);}
	.st15{fill:url(#SVGID_12_);}
	.st16{fill:url(#SVGID_13_);}
	.st17{fill:url(#SVGID_14_);}
	.st18{fill:url(#SVGID_15_);}
	.st19{fill:url(#SVGID_16_);}
	.st20{fill:url(#SVGID_17_);}
	.st21{fill:url(#SVGID_18_);}
	.st22{fill:url(#SVGID_19_);}
	.st23{fill:url(#SVGID_20_);}
</style>
<g>
	<g>
		<defs>
			
				<rect id="SVGID_1_" x="-28.1" y="27.1" transform="matrix(-1.836970e-16 1 -1 -1.836970e-16 192.4761 27.6191)" width="221.1" height="165.8"/>
		</defs>
		<use xlink:href="#SVGID_1_"  style="overflow:visible;fill:#F5F5F5;"/>
		<clipPath id="SVGID_2_">
			<use xlink:href="#SVGID_1_"  style="overflow:visible;"/>
		</clipPath>
		<g class="st0">
			<g>
				<polygon class="st1" points="142.6,-10.6 7.6,65 34.3,27.2 100.9,-1.3 100.8,-1.3 				"/>
				<g>
					<polygon class="st2" points="100.9,-1.3 34.3,27.2 45.9,10.7 100.8,-1.3 					"/>
				</g>
				<g>
					<polygon class="st3" points="60.9,-10.4 100.8,-1.3 45.9,10.7 					"/>
				</g>
				<g>
					<polygon class="st4" points="60.9,-10.4 45.9,10.7 -13.2,23.8 8.5,-22.4 					"/>
				</g>
				<g>
					<polygon class="st3" points="45.9,10.7 34.3,27.2 -27.3,53.6 -13.2,23.8 					"/>
				</g>
				<g>
					<polygon class="st5" points="34.3,27.2 7.6,65 -33.7,88.1 -40.8,82.5 -27.3,53.6 					"/>
				</g>
				<g>
					<polygon class="st4" points="7.6,65 -17.7,100.8 -33.7,88.1 					"/>
				</g>
				<g>
					<polygon class="st3" points="-27.3,53.6 -40.8,82.5 -59.7,67.5 					"/>
				</g>
				<g>
					<polygon class="st2" points="-33.7,88.1 -47,95.5 -40.8,82.5 					"/>
				</g>
			</g>
			<g>
				<g>
					<linearGradient id="SVGID_3_" gradientUnits="userSpaceOnUse" x1="75.4755" y1="65.6966" x2="75.4755" y2="-11.147">
						<stop  offset="0" style="stop-color:#936E41"/>
						<stop  offset="0.2123" style="stop-color:#E7B973"/>
						<stop  offset="0.272" style="stop-color:#EBC58E"/>
						<stop  offset="0.3335" style="stop-color:#EED0A6"/>
						<stop  offset="0.4969" style="stop-color:#F4D9B4"/>
						<stop  offset="0.6589" style="stop-color:#EED0A7"/>
						<stop  offset="0.6995" style="stop-color:#ECCA9A"/>
						<stop  offset="0.8304" style="stop-color:#E7B973"/>
						<stop  offset="0.9446" style="stop-color:#AB834F"/>
						<stop  offset="1" style="stop-color:#936E41"/>
					</linearGradient>
					<path class="st6" d="M6.8,65.7L34.1,27L100-1.2l-0.5-0.1l44.6-9.8L6.8,65.7z M34.5,27.4l-26,36.8L141.1-10l-39.9,8.8L101-1.1
						L34.5,27.4z"/>
				</g>
				<g>
					<linearGradient id="SVGID_4_" gradientUnits="userSpaceOnUse" x1="67.6467" y1="27.7614" x2="67.6467" y2="-1.5854">
						<stop  offset="0" style="stop-color:#936E41"/>
						<stop  offset="0.2123" style="stop-color:#E7B973"/>
						<stop  offset="0.272" style="stop-color:#EBC58E"/>
						<stop  offset="0.3335" style="stop-color:#EED0A6"/>
						<stop  offset="0.4969" style="stop-color:#F4D9B4"/>
						<stop  offset="0.6589" style="stop-color:#EED0A7"/>
						<stop  offset="0.6995" style="stop-color:#ECCA9A"/>
						<stop  offset="0.8304" style="stop-color:#E7B973"/>
						<stop  offset="0.9446" style="stop-color:#AB834F"/>
						<stop  offset="1" style="stop-color:#936E41"/>
					</linearGradient>
					<path class="st7" d="M33.6,27.8l12.2-17.2l0.1,0l54.9-12.1l0.9,0.2L33.6,27.8z M46.1,11L35,26.7L98.6-0.6L46.1,11z"/>
				</g>
				<g>
					<linearGradient id="SVGID_5_" gradientUnits="userSpaceOnUse" x1="73.6061" y1="11.1063" x2="73.6061" y2="-10.6905">
						<stop  offset="0" style="stop-color:#936E41"/>
						<stop  offset="0.2123" style="stop-color:#E7B973"/>
						<stop  offset="0.272" style="stop-color:#EBC58E"/>
						<stop  offset="0.3335" style="stop-color:#EED0A6"/>
						<stop  offset="0.4969" style="stop-color:#F4D9B4"/>
						<stop  offset="0.6589" style="stop-color:#EED0A7"/>
						<stop  offset="0.6995" style="stop-color:#ECCA9A"/>
						<stop  offset="0.8304" style="stop-color:#E7B973"/>
						<stop  offset="0.9446" style="stop-color:#AB834F"/>
						<stop  offset="1" style="stop-color:#936E41"/>
					</linearGradient>
					<path class="st8" d="M45.4,11.1l15.4-21.8l41.1,9.4L45.4,11.1z M61-10.2L46.5,10.4L99.7-1.3L61-10.2z"/>
				</g>
				<g>
					<linearGradient id="SVGID_6_" gradientUnits="userSpaceOnUse" x1="23.808" y1="24.1056" x2="23.808" y2="-22.6267">
						<stop  offset="0" style="stop-color:#936E41"/>
						<stop  offset="0.2123" style="stop-color:#E7B973"/>
						<stop  offset="0.272" style="stop-color:#EBC58E"/>
						<stop  offset="0.3335" style="stop-color:#EED0A6"/>
						<stop  offset="0.4969" style="stop-color:#F4D9B4"/>
						<stop  offset="0.6589" style="stop-color:#EED0A7"/>
						<stop  offset="0.6995" style="stop-color:#ECCA9A"/>
						<stop  offset="0.8304" style="stop-color:#E7B973"/>
						<stop  offset="0.9446" style="stop-color:#AB834F"/>
						<stop  offset="1" style="stop-color:#936E41"/>
					</linearGradient>
					<path class="st9" d="M-13.7,24.1l22-46.7l0.2,0l52.8,12l-0.2,0.3L46.1,11L46,11L-13.7,24.1z M8.6-22.1l-21.4,45.5l58.6-12.9
						l14.7-20.8L8.6-22.1z"/>
				</g>
				<g>
					<linearGradient id="SVGID_7_" gradientUnits="userSpaceOnUse" x1="9.3666" y1="54.047" x2="9.3666" y2="10.374">
						<stop  offset="0" style="stop-color:#936E41"/>
						<stop  offset="0.2123" style="stop-color:#E7B973"/>
						<stop  offset="0.272" style="stop-color:#EBC58E"/>
						<stop  offset="0.3335" style="stop-color:#EED0A6"/>
						<stop  offset="0.4969" style="stop-color:#F4D9B4"/>
						<stop  offset="0.6589" style="stop-color:#EED0A7"/>
						<stop  offset="0.6995" style="stop-color:#ECCA9A"/>
						<stop  offset="0.8304" style="stop-color:#E7B973"/>
						<stop  offset="0.9446" style="stop-color:#AB834F"/>
						<stop  offset="1" style="stop-color:#936E41"/>
					</linearGradient>
					<path class="st10" d="M-27.7,54l14.3-30.5l0.1,0l59.7-13.2l-12,17L-27.7,54z M-13.1,24l-13.7,29.1L34.1,27l11.2-15.9L-13.1,24z
						"/>
				</g>
				<g>
					<linearGradient id="SVGID_8_" gradientUnits="userSpaceOnUse" x1="-3.0718" y1="88.3816" x2="-3.0718" y2="26.6562">
						<stop  offset="0" style="stop-color:#936E41"/>
						<stop  offset="0.2123" style="stop-color:#E7B973"/>
						<stop  offset="0.272" style="stop-color:#EBC58E"/>
						<stop  offset="0.3335" style="stop-color:#EED0A6"/>
						<stop  offset="0.4969" style="stop-color:#F4D9B4"/>
						<stop  offset="0.6589" style="stop-color:#EED0A7"/>
						<stop  offset="0.6995" style="stop-color:#ECCA9A"/>
						<stop  offset="0.8304" style="stop-color:#E7B973"/>
						<stop  offset="0.9446" style="stop-color:#AB834F"/>
						<stop  offset="1" style="stop-color:#936E41"/>
					</linearGradient>
					<path class="st11" d="M-33.7,88.4l-7.4-5.9l13.7-29.1l0.1,0L35,26.7L7.7,65.2L-33.7,88.4z M-40.5,82.4l6.9,5.4l41.1-23l26.1-37
						l-60.7,26L-40.5,82.4z"/>
				</g>
				<g>
					<linearGradient id="SVGID_9_" gradientUnits="userSpaceOnUse" x1="-12.8456" y1="101.1321" x2="-12.8456" y2="64.2498">
						<stop  offset="0" style="stop-color:#936E41"/>
						<stop  offset="0.2123" style="stop-color:#E7B973"/>
						<stop  offset="0.272" style="stop-color:#EBC58E"/>
						<stop  offset="0.3335" style="stop-color:#EED0A6"/>
						<stop  offset="0.4969" style="stop-color:#F4D9B4"/>
						<stop  offset="0.6589" style="stop-color:#EED0A7"/>
						<stop  offset="0.6995" style="stop-color:#ECCA9A"/>
						<stop  offset="0.8304" style="stop-color:#E7B973"/>
						<stop  offset="0.9446" style="stop-color:#AB834F"/>
						<stop  offset="1" style="stop-color:#936E41"/>
					</linearGradient>
					<path class="st12" d="M-17.6,101.1l-16.5-13.1l0.3-0.2L8.4,64.2L-17.6,101.1z M-33.3,88.1l15.6,12.3L6.8,65.7L-33.3,88.1z"/>
				</g>
				<g>
					<linearGradient id="SVGID_10_" gradientUnits="userSpaceOnUse" x1="-43.4754" y1="82.8296" x2="-43.4754" y2="53.1127">
						<stop  offset="0" style="stop-color:#936E41"/>
						<stop  offset="0.2123" style="stop-color:#E7B973"/>
						<stop  offset="0.272" style="stop-color:#EBC58E"/>
						<stop  offset="0.3335" style="stop-color:#EED0A6"/>
						<stop  offset="0.4969" style="stop-color:#F4D9B4"/>
						<stop  offset="0.6589" style="stop-color:#EED0A7"/>
						<stop  offset="0.6995" style="stop-color:#ECCA9A"/>
						<stop  offset="0.8304" style="stop-color:#E7B973"/>
						<stop  offset="0.9446" style="stop-color:#AB834F"/>
						<stop  offset="1" style="stop-color:#936E41"/>
					</linearGradient>
					<path class="st13" d="M-40.7,82.8l-19.4-15.4l33.4-14.3L-40.7,82.8z M-59.3,67.6l18.3,14.5l13.2-28L-59.3,67.6z"/>
				</g>
				<g>
					<linearGradient id="SVGID_11_" gradientUnits="userSpaceOnUse" x1="-40.3888" y1="96.1038" x2="-40.3888" y2="82.081">
						<stop  offset="0" style="stop-color:#936E41"/>
						<stop  offset="0.2123" style="stop-color:#E7B973"/>
						<stop  offset="0.272" style="stop-color:#EBC58E"/>
						<stop  offset="0.3335" style="stop-color:#EED0A6"/>
						<stop  offset="0.4969" style="stop-color:#F4D9B4"/>
						<stop  offset="0.6589" style="stop-color:#EED0A7"/>
						<stop  offset="0.6995" style="stop-color:#ECCA9A"/>
						<stop  offset="0.8304" style="stop-color:#E7B973"/>
						<stop  offset="0.9446" style="stop-color:#AB834F"/>
						<stop  offset="1" style="stop-color:#936E41"/>
					</linearGradient>
					<path class="st14" d="M-47.5,96.1l6.6-14l7.6,6L-47.5,96.1z M-40.7,82.8L-46.4,95l12.3-6.9L-40.7,82.8z"/>
				</g>
			</g>
		</g>
		<g class="st0">
			<g>
				<polygon class="st1" points="21.6,230.6 156.6,155 129.9,192.8 63.3,221.3 63.4,221.3 				"/>
				<g>
					<polygon class="st2" points="63.3,221.3 129.9,192.8 118.3,209.3 63.4,221.3 					"/>
				</g>
				<g>
					<polygon class="st3" points="103.3,230.4 63.4,221.3 118.3,209.3 					"/>
				</g>
				<g>
					<polygon class="st4" points="103.3,230.4 118.3,209.3 177.4,196.2 155.7,242.4 					"/>
				</g>
				<g>
					<polygon class="st3" points="118.3,209.3 129.9,192.8 191.4,166.4 177.4,196.2 					"/>
				</g>
				<g>
					<polygon class="st5" points="129.9,192.8 156.6,155 197.9,131.9 205,137.5 191.4,166.4 					"/>
				</g>
				<g>
					<polygon class="st4" points="156.6,155 181.9,119.2 197.9,131.9 					"/>
				</g>
				<g>
					<polygon class="st3" points="191.4,166.4 205,137.5 223.9,152.5 					"/>
				</g>
				<g>
					<polygon class="st2" points="197.9,131.9 211.2,124.5 205,137.5 					"/>
				</g>
			</g>
			<g>
				<g>
					
						<linearGradient id="SVGID_12_" gradientUnits="userSpaceOnUse" x1="111.9234" y1="-1834.3058" x2="111.9234" y2="-1911.1493" gradientTransform="matrix(-1 0 0 -1 200.6418 -1679.9969)">
						<stop  offset="0" style="stop-color:#936E41"/>
						<stop  offset="0.2123" style="stop-color:#E7B973"/>
						<stop  offset="0.272" style="stop-color:#EBC58E"/>
						<stop  offset="0.3335" style="stop-color:#EED0A6"/>
						<stop  offset="0.4969" style="stop-color:#F4D9B4"/>
						<stop  offset="0.6589" style="stop-color:#EED0A7"/>
						<stop  offset="0.6995" style="stop-color:#ECCA9A"/>
						<stop  offset="0.8304" style="stop-color:#E7B973"/>
						<stop  offset="0.9446" style="stop-color:#AB834F"/>
						<stop  offset="1" style="stop-color:#936E41"/>
					</linearGradient>
					<path class="st15" d="M157.4,154.3L130.1,193l-65.9,28.2l0.5,0.1l-44.6,9.8L157.4,154.3z M129.7,192.6l26-36.8L23.1,230
						l39.9-8.8l0.2-0.1L129.7,192.6z"/>
				</g>
				<g>
					
						<linearGradient id="SVGID_13_" gradientUnits="userSpaceOnUse" x1="104.0946" y1="-1872.241" x2="104.0946" y2="-1901.5878" gradientTransform="matrix(-1 0 0 -1 200.6418 -1679.9969)">
						<stop  offset="0" style="stop-color:#936E41"/>
						<stop  offset="0.2123" style="stop-color:#E7B973"/>
						<stop  offset="0.272" style="stop-color:#EBC58E"/>
						<stop  offset="0.3335" style="stop-color:#EED0A6"/>
						<stop  offset="0.4969" style="stop-color:#F4D9B4"/>
						<stop  offset="0.6589" style="stop-color:#EED0A7"/>
						<stop  offset="0.6995" style="stop-color:#ECCA9A"/>
						<stop  offset="0.8304" style="stop-color:#E7B973"/>
						<stop  offset="0.9446" style="stop-color:#AB834F"/>
						<stop  offset="1" style="stop-color:#936E41"/>
					</linearGradient>
					<path class="st16" d="M130.6,192.2l-12.2,17.2l-0.1,0l-54.9,12.1l-0.9-0.2L130.6,192.2z M118.1,209.1l11.1-15.7l-63.7,27.3
						L118.1,209.1z"/>
				</g>
				<g>
					
						<linearGradient id="SVGID_14_" gradientUnits="userSpaceOnUse" x1="110.0541" y1="-1888.8961" x2="110.0541" y2="-1910.6929" gradientTransform="matrix(-1 0 0 -1 200.6418 -1679.9969)">
						<stop  offset="0" style="stop-color:#936E41"/>
						<stop  offset="0.2123" style="stop-color:#E7B973"/>
						<stop  offset="0.272" style="stop-color:#EBC58E"/>
						<stop  offset="0.3335" style="stop-color:#EED0A6"/>
						<stop  offset="0.4969" style="stop-color:#F4D9B4"/>
						<stop  offset="0.6589" style="stop-color:#EED0A7"/>
						<stop  offset="0.6995" style="stop-color:#ECCA9A"/>
						<stop  offset="0.8304" style="stop-color:#E7B973"/>
						<stop  offset="0.9446" style="stop-color:#AB834F"/>
						<stop  offset="1" style="stop-color:#936E41"/>
					</linearGradient>
					<path class="st17" d="M118.8,208.9l-15.4,21.8l-41.1-9.4L118.8,208.9z M103.2,230.2l14.5-20.5l-53.2,11.7L103.2,230.2z"/>
				</g>
				<g>
					
						<linearGradient id="SVGID_15_" gradientUnits="userSpaceOnUse" x1="60.256" y1="-1875.8969" x2="60.256" y2="-1922.629" gradientTransform="matrix(-1 0 0 -1 200.6418 -1679.9969)">
						<stop  offset="0" style="stop-color:#936E41"/>
						<stop  offset="0.2123" style="stop-color:#E7B973"/>
						<stop  offset="0.272" style="stop-color:#EBC58E"/>
						<stop  offset="0.3335" style="stop-color:#EED0A6"/>
						<stop  offset="0.4969" style="stop-color:#F4D9B4"/>
						<stop  offset="0.6589" style="stop-color:#EED0A7"/>
						<stop  offset="0.6995" style="stop-color:#ECCA9A"/>
						<stop  offset="0.8304" style="stop-color:#E7B973"/>
						<stop  offset="0.9446" style="stop-color:#AB834F"/>
						<stop  offset="1" style="stop-color:#936E41"/>
					</linearGradient>
					<path class="st18" d="M177.8,195.9l-22,46.7l-0.2,0l-52.8-12l0.2-0.3l15-21.2l0.1,0L177.8,195.9z M155.6,242.1l21.4-45.5
						l-58.6,12.9l-14.7,20.8L155.6,242.1z"/>
				</g>
				<g>
					
						<linearGradient id="SVGID_16_" gradientUnits="userSpaceOnUse" x1="45.8145" y1="-1845.9554" x2="45.8145" y2="-1889.6283" gradientTransform="matrix(-1 0 0 -1 200.6418 -1679.9969)">
						<stop  offset="0" style="stop-color:#936E41"/>
						<stop  offset="0.2123" style="stop-color:#E7B973"/>
						<stop  offset="0.272" style="stop-color:#EBC58E"/>
						<stop  offset="0.3335" style="stop-color:#EED0A6"/>
						<stop  offset="0.4969" style="stop-color:#F4D9B4"/>
						<stop  offset="0.6589" style="stop-color:#EED0A7"/>
						<stop  offset="0.6995" style="stop-color:#ECCA9A"/>
						<stop  offset="0.8304" style="stop-color:#E7B973"/>
						<stop  offset="0.9446" style="stop-color:#AB834F"/>
						<stop  offset="1" style="stop-color:#936E41"/>
					</linearGradient>
					<path class="st19" d="M191.9,166l-14.3,30.5l-0.1,0l-59.7,13.2l12-17L191.9,166z M177.3,196l13.7-29.1L130.1,193l-11.2,15.9
						L177.3,196z"/>
				</g>
				<g>
					
						<linearGradient id="SVGID_17_" gradientUnits="userSpaceOnUse" x1="33.3762" y1="-1811.6208" x2="33.3762" y2="-1873.3462" gradientTransform="matrix(-1 0 0 -1 200.6418 -1679.9969)">
						<stop  offset="0" style="stop-color:#936E41"/>
						<stop  offset="0.2123" style="stop-color:#E7B973"/>
						<stop  offset="0.272" style="stop-color:#EBC58E"/>
						<stop  offset="0.3335" style="stop-color:#EED0A6"/>
						<stop  offset="0.4969" style="stop-color:#F4D9B4"/>
						<stop  offset="0.6589" style="stop-color:#EED0A7"/>
						<stop  offset="0.6995" style="stop-color:#ECCA9A"/>
						<stop  offset="0.8304" style="stop-color:#E7B973"/>
						<stop  offset="0.9446" style="stop-color:#AB834F"/>
						<stop  offset="1" style="stop-color:#936E41"/>
					</linearGradient>
					<path class="st20" d="M197.9,131.6l7.4,5.9l-13.7,29.1l-0.1,0l-62.3,26.7l27.2-38.5L197.9,131.6z M204.7,137.6l-6.9-5.4
						l-41.1,23l-26.1,37l60.7-26L204.7,137.6z"/>
				</g>
				<g>
					
						<linearGradient id="SVGID_18_" gradientUnits="userSpaceOnUse" x1="23.6023" y1="-1798.8702" x2="23.6023" y2="-1835.7526" gradientTransform="matrix(-1 0 0 -1 200.6418 -1679.9969)">
						<stop  offset="0" style="stop-color:#936E41"/>
						<stop  offset="0.2123" style="stop-color:#E7B973"/>
						<stop  offset="0.272" style="stop-color:#EBC58E"/>
						<stop  offset="0.3335" style="stop-color:#EED0A6"/>
						<stop  offset="0.4969" style="stop-color:#F4D9B4"/>
						<stop  offset="0.6589" style="stop-color:#EED0A7"/>
						<stop  offset="0.6995" style="stop-color:#ECCA9A"/>
						<stop  offset="0.8304" style="stop-color:#E7B973"/>
						<stop  offset="0.9446" style="stop-color:#AB834F"/>
						<stop  offset="1" style="stop-color:#936E41"/>
					</linearGradient>
					<path class="st21" d="M181.8,118.9l16.5,13.1l-0.3,0.2l-42.2,23.6L181.8,118.9z M197.5,131.9l-15.6-12.3l-24.5,34.7
						L197.5,131.9z"/>
				</g>
				<g>
					
						<linearGradient id="SVGID_19_" gradientUnits="userSpaceOnUse" x1="-7.0275" y1="-1817.1729" x2="-7.0275" y2="-1846.8898" gradientTransform="matrix(-1 0 0 -1 200.6418 -1679.9969)">
						<stop  offset="0" style="stop-color:#936E41"/>
						<stop  offset="0.2123" style="stop-color:#E7B973"/>
						<stop  offset="0.272" style="stop-color:#EBC58E"/>
						<stop  offset="0.3335" style="stop-color:#EED0A6"/>
						<stop  offset="0.4969" style="stop-color:#F4D9B4"/>
						<stop  offset="0.6589" style="stop-color:#EED0A7"/>
						<stop  offset="0.6995" style="stop-color:#ECCA9A"/>
						<stop  offset="0.8304" style="stop-color:#E7B973"/>
						<stop  offset="0.9446" style="stop-color:#AB834F"/>
						<stop  offset="1" style="stop-color:#936E41"/>
					</linearGradient>
					<path class="st22" d="M204.9,137.2l19.4,15.4L191,166.9L204.9,137.2z M223.5,152.4l-18.3-14.5l-13.2,28L223.5,152.4z"/>
				</g>
				<g>
					
						<linearGradient id="SVGID_20_" gradientUnits="userSpaceOnUse" x1="-3.9409" y1="-1803.8986" x2="-3.9409" y2="-1817.9214" gradientTransform="matrix(-1 0 0 -1 200.6418 -1679.9969)">
						<stop  offset="0" style="stop-color:#936E41"/>
						<stop  offset="0.2123" style="stop-color:#E7B973"/>
						<stop  offset="0.272" style="stop-color:#EBC58E"/>
						<stop  offset="0.3335" style="stop-color:#EED0A6"/>
						<stop  offset="0.4969" style="stop-color:#F4D9B4"/>
						<stop  offset="0.6589" style="stop-color:#EED0A7"/>
						<stop  offset="0.6995" style="stop-color:#ECCA9A"/>
						<stop  offset="0.8304" style="stop-color:#E7B973"/>
						<stop  offset="0.9446" style="stop-color:#AB834F"/>
						<stop  offset="1" style="stop-color:#936E41"/>
					</linearGradient>
					<path class="st23" d="M211.7,123.9l-6.6,14l-7.6-6L211.7,123.9z M204.9,137.2l5.7-12.1l-12.3,6.9L204.9,137.2z"/>
				</g>
			</g>
		</g>
	</g>
	<g>
		<g>
			<path class="st3" d="M66.6,196.6C66.6,196.6,66.6,196.6,66.6,196.6l-50-16c-0.1,0-0.1-0.1-0.1-0.1l9.7-113.7
				c0-0.1,0.1-0.1,0.1-0.1c0,0,0,0,0,0c0.1,0,0.1,0.1,0.1,0.1l-9.7,113.6l49.9,16c0.1,0,0.1,0.1,0.1,0.2
				C66.7,196.6,66.6,196.6,66.6,196.6z"/>
		</g>
		<g>
			<path class="st3" d="M52.6,201.3c-0.1,0-0.1-0.1-0.1-0.1c-0.3-1.2-26.5-34.5-40.3-51.9c0,0,0,0,0-0.1l-1-54c0,0,0-0.1,0-0.1
				l25.7-28.3c0-0.1,0.1-0.1,0.2,0c0.1,0,0.1,0.1,0,0.2L11.4,95.2l1,53.9c4.3,5.4,40.3,51,40.3,52C52.7,201.2,52.6,201.3,52.6,201.3
				z"/>
		</g>
	</g>
	<g>
		<g>
			<path class="st3" d="M142.9,151.6C142.9,151.6,142.9,151.6,142.9,151.6c-0.1,0-0.1-0.1-0.1-0.1l9.7-113.6l-49.9-16
				c-0.1,0-0.1-0.1-0.1-0.2c0-0.1,0.1-0.1,0.2-0.1l50,16c0.1,0,0.1,0.1,0.1,0.1L143,151.5C143,151.5,143,151.6,142.9,151.6z"/>
		</g>
		<g>
			<path class="st3" d="M132.2,151.6C132.2,151.6,132.2,151.6,132.2,151.6c-0.1-0.1-0.1-0.2-0.1-0.2l25.6-28.3l-1-53.9
				c-4.3-5.4-40.3-51-40.3-52c0-0.1,0.1-0.1,0.1-0.1c0.1,0,0.1,0.1,0.1,0.1c0.3,1.2,26.5,34.5,40.3,51.9c0,0,0,0,0,0.1l1,54
				c0,0,0,0.1,0,0.1L132.2,151.6C132.3,151.6,132.3,151.6,132.2,151.6z M116.7,17.1L116.7,17.1L116.7,17.1z"/>
		</g>
	</g>
</g>
</svg>
