<?xml version="1.0" encoding="utf-8"?>
<!-- Generator: Adobe Illustrator 23.0.5, SVG Export Plug-In . SVG Version: 6.00 Build 0)  -->
<svg version="1.1" id="Layer_1" xmlns:svgjs="http://svgjs.com/svgjs"
	 xmlns="http://www.w3.org/2000/svg" xmlns:xlink="http://www.w3.org/1999/xlink" x="0px" y="0px" viewBox="0 0 512 512"
	 style="enable-background:new 0 0 512 512;" xml:space="preserve">
<style type="text/css">
	.st0{fill:url(#SVGID_1_);}
</style>
<g>
	<linearGradient id="SVGID_1_" gradientUnits="userSpaceOnUse" x1="40.445" y1="256" x2="471.556" y2="256">
		<stop  offset="0" style="stop-color:#01BEFF"/>
		<stop  offset="1" style="stop-color:#505DFF"/>
	</linearGradient>
	<path class="st0" d="M213.1,281.6l-35.6-53.1c-2.2-3.2-1.3-7.6,1.9-9.7c3.2-2.2,7.6-1.3,9.7,1.9l31.4,46.7l94.9-77.1
		c3-2.4,7.4-2,9.8,1c2.4,3,2,7.4-1,9.8l-100.9,81.9c-1.3,1-2.8,1.6-4.4,1.6c-0.3,0-0.7,0-1-0.1C216,284.4,214.2,283.3,213.1,281.6z
		 M320.7,134.9c-20.8-13.2-45.3-19.8-70.3-18.6c-30.1,1.4-58.4,13.9-79.7,35.2c-40.9,40.9-47,105.3-14.6,153c1.4,2,3.6,3.1,5.8,3.1
		c1.4,0,2.7-0.4,3.9-1.2c3.2-2.2,4-6.5,1.9-9.7c-28.7-42.2-23.2-99.1,12.9-135.3c35.8-35.8,90.6-41.3,132.2-14.9l-10.6,0.4
		c-3.9,0.2-6.9,3.4-6.7,7.3c0.1,3.8,3.3,6.7,7,6.7c0.1,0,0.2,0,0.3,0l29.6-1.2c2.1-0.1,4-1.1,5.3-2.8c1.3-1.7,1.7-3.8,1.2-5.9
		l-6.9-28.8c-0.9-3.8-4.7-6.1-8.4-5.2c-3.8,0.9-6.1,4.7-5.2,8.4L320.7,134.9z M331.4,312.2c-35.8,35.8-90.6,41.3-132.2,14.9
		l10.6-0.4c3.9-0.2,6.9-3.4,6.7-7.3c-0.2-3.9-3.4-6.9-7.3-6.7l-29.6,1.2c-2.1,0.1-4,1.1-5.3,2.8c-1.3,1.7-1.7,3.8-1.2,5.9l6.9,28.8
		c0.9,3.8,4.7,6.1,8.4,5.2c3.8-0.9,6.1-4.7,5.2-8.4l-2.3-9.4c19.3,12.2,41.6,18.8,64.6,18.8c1.9,0,3.8,0,5.7-0.1
		c30.1-1.4,58.4-13.9,79.7-35.2c40.9-40.9,47-105.3,14.6-153c-2.2-3.2-6.5-4-9.7-1.9c-3.2,2.2-4,6.5-1.9,9.7
		C373,219.2,367.6,276.1,331.4,312.2L331.4,312.2z M471.6,73.5v182.2c0,29-7,58.2-20.7,86.8c-12.4,25.7-29.9,50.4-52.1,73.3
		c-40.2,41.5-92.9,74-140.9,86.9c-0.6,0.2-1.2,0.2-1.8,0.2s-1.2-0.1-1.8-0.2c-48.1-12.9-100.8-45.4-140.9-86.9
		c-22.2-22.9-39.7-47.6-52.1-73.3c-13.8-28.6-20.7-57.8-20.7-86.8V73.5c0-3.7,2.8-6.7,6.4-7c60.6-4.8,111.7-33.2,143.9-56.2
		c1.2-0.8,2.6-1.3,4.1-1.3h122.2c1.5,0,2.9,0.5,4.1,1.3c32.2,23,83.3,51.4,143.9,56.2C468.8,66.8,471.6,69.9,471.6,73.5L471.6,73.5z
		 M457.6,79.9c-47.8-5.1-97-24.7-142.7-56.9H197.1c-45.7,32.2-94.8,51.8-142.7,56.9v175.8c0,114.4,118.5,209.8,201.6,233
		c83-23.2,201.6-118.6,201.6-233L457.6,79.9L457.6,79.9z M312.9,35.5c41.2,28,84,46.1,127.2,53.7c3.3,0.6,5.8,3.5,5.8,6.9v159.6
		c0,25.8-6.5,52-19.2,77.8c-11.1,22.5-26.8,44.3-46.5,64.6c-34.8,35.9-80.4,65.1-122,78.1c-0.7,0.2-1.4,0.3-2.1,0.3
		s-1.4-0.1-2.1-0.3c-41.7-13-87.3-42.2-122-78.1c-19.7-20.4-35.3-42.1-46.5-64.6c-12.8-25.8-19.2-52-19.2-77.8V96.1
		c0-3.4,2.4-6.3,5.8-6.9c43.2-7.6,86-25.7,127.2-53.7c1.2-0.8,2.5-1.2,3.9-1.2H309C310.4,34.3,311.7,34.7,312.9,35.5L312.9,35.5z
		 M431.9,101.9c-42.6-8.4-84.6-26.4-125-53.6H205.2c-40.4,27.2-82.5,45.2-125,53.6v153.8c0,44.3,21.9,91.5,61.8,132.7
		c32.6,33.7,75.1,61.2,114.1,73.8c39-12.6,81.5-40.1,114.1-73.8c39.8-41.2,61.8-88.3,61.8-132.7L431.9,101.9z"/>
</g>
</svg>
