<?xml version="1.0" encoding="utf-8"?>
<!-- Generator: Adobe Illustrator 23.0.5, SVG Export Plug-In . SVG Version: 6.00 Build 0)  -->
<svg version="1.1" id="Layer_1" xmlns:svgjs="http://svgjs.com/svgjs"
	 xmlns="http://www.w3.org/2000/svg" xmlns:xlink="http://www.w3.org/1999/xlink" x="0px" y="0px" viewBox="0 0 512 512"
	 style="enable-background:new 0 0 512 512;" xml:space="preserve">
<style type="text/css">
	.st0{fill:url(#SVGID_1_);}
	.st1{fill:url(#SVGID_2_);}
	.st2{fill:url(#SVGID_3_);}
	.st3{fill:url(#SVGID_4_);}
	.st4{fill:url(#SVGID_5_);}
	.st5{fill:url(#SVGID_6_);}
	.st6{fill:url(#SVGID_7_);}
</style>
<g>
	<g>
		<linearGradient id="SVGID_1_" gradientUnits="userSpaceOnUse" x1="12.7822" y1="262.7375" x2="499.2179" y2="262.7375">
			<stop  offset="0" style="stop-color:#01BEFF"/>
			<stop  offset="1" style="stop-color:#505DFF"/>
		</linearGradient>
		<path class="st0" d="M461,260.7c-2.7-2.9-7.2-3-10.1-0.3c-2.9,2.7-3,7.2-0.3,10.1c22.2,23.5,34.4,54.3,34.4,86.6
			c0,69.7-56.7,126.4-126.4,126.4c-69.7,0-126.4-56.7-126.4-126.4c0-69.7,56.7-126.4,126.4-126.4c25.7,0,50.5,7.7,71.6,22.2
			c3.2,2.2,7.7,1.4,9.9-1.8c2.2-3.2,1.4-7.7-1.8-9.9c-23.5-16.2-51-24.7-79.7-24.7c-11.6,0-22.9,1.4-33.7,4.1
			c-5.2-5.5-12.5-8.6-20.2-8.6h-2.8c2.3-4.1,3.6-8.7,3.6-13.7V172c0-15.4-12.5-28-28-28h-30.3l-56.6-98
			c-6.6-11.5-18.6-18.4-31.8-18.4c0,0,0,0,0,0c-13.3,0-25.2,6.9-31.8,18.4l-56.6,98H52.2c-15.4,0-28,12.5-28,28v26.2
			c0,15.4,12.5,28,28,28H55c-2.3,4.1-3.6,8.7-3.6,13.7v26.2c0,5,1.3,9.7,3.6,13.7H40.7c-15.4,0-28,12.5-28,28V334
			c0,13.7,9.9,25.1,22.9,27.5c-2.5,4.2-3.9,9-3.9,14.2v26.2c0,5.6,1.7,10.9,4.5,15.3c-10.9,3.8-18.8,14.2-18.8,26.4v26.2
			c0,15.4,12.5,28,28,28h225.4c10.6,0,20-6,24.7-14.9c19,9.5,40.4,14.9,63,14.9c77.6,0,140.6-63.1,140.6-140.6
			C499.2,321.1,485.6,286.9,461,260.7L461,260.7z M46,401.9v-26.2c0-7.6,6.1-13.7,13.7-13.7H218c0.7,19.1,5.1,37.2,12.7,53.6H59.7
			C52.2,415.6,46,409.5,46,401.9z M306.8,226.4c-27,10.7-49.9,29.6-65.7,53.5h-33.7v-53.6h70.1h27.2
			C305.4,226.2,306.1,226.3,306.8,226.4L306.8,226.4z M291.3,172v26.2c0,7.6-6.1,13.7-13.7,13.7h-70.1v-6.4h11.7
			c13.3,0,25.2-6.9,31.8-18.4c5.2-9,6.3-19.3,3.4-28.8h23.2C285.1,158.3,291.3,164.5,291.3,172L291.3,172z M38.5,198.2V172
			c0-7.6,6.1-13.7,13.7-13.7h11.2c-1.8,6-2,12.3-0.7,18.4c0.9,3.8,4.7,6.3,8.5,5.4c3.8-0.9,6.3-4.7,5.4-8.5
			c-0.9-3.9-1.1-9.8,2.5-16.1l60.2-104.3c4.1-7,11.3-11.2,19.5-11.2h0c8.1,0,15.4,4.2,19.5,11.3l60.2,104.3c4.1,7,4.1,15.5,0,22.5
			c-4.1,7-11.4,11.3-19.5,11.3h-18.8c-3.9,0-7.1,3.2-7.1,7.1v109.9c0,6.4-5.2,11.5-11.5,11.5h-45.6c-6.4,0-11.5-5.2-11.5-11.5V198.4
			c0-3.9-3.2-7.1-7.1-7.1H98.6c-2.7,0-5.3-0.5-7.8-1.3c-3.7-1.3-7.8,0.6-9.1,4.3c-1.3,3.7,0.6,7.8,4.3,9.1c4,1.5,8.3,2.2,12.6,2.2
			h11.7v6.4h-31H52.2C44.6,211.9,38.5,205.8,38.5,198.2L38.5,198.2z M65.6,266.1v-26.2c0-7.6,6.1-13.7,13.7-13.7h31v53.6h-31
			C71.8,279.8,65.6,273.7,65.6,266.1z M27,334v-26.2c0-7.6,6.1-13.7,13.7-13.7h38.6h31v14.2c0,14.2,11.6,25.8,25.8,25.8h45.6
			c14.2,0,25.8-11.6,25.8-25.8v-14.2h25.4c-8.2,16.3-13.3,34.5-14.6,53.6H59.7h-19C33.2,347.7,27,341.6,27,334z M270.9,483.5H45.5
			c-7.6,0-13.7-6.1-13.7-13.7v-26.2c0-7.6,6.1-13.7,13.7-13.7h14.3h178.5c11.2,18.5,26.7,34.3,44.9,45.9
			C280.9,480.4,276.2,483.5,270.9,483.5z"/>
		<linearGradient id="SVGID_2_" gradientUnits="userSpaceOnUse" x1="319.8683" y1="357.1131" x2="397.288" y2="357.1131">
			<stop  offset="0" style="stop-color:#01BEFF"/>
			<stop  offset="1" style="stop-color:#505DFF"/>
		</linearGradient>
		<path class="st1" d="M372.6,349.7c-2.5-0.7-5.1-1.5-7.7-2.3v-31.6c7.6,1.1,12.2,4.4,12.6,4.6c3.1,2.3,7.6,1.7,9.9-1.4
			c2.4-3.1,1.8-7.6-1.4-10c-0.5-0.3-8.3-6.2-21.1-7.6v-6.2c0-3.9-3.2-7.1-7.1-7.1c-3.9,0-7.1,3.2-7.1,7.1v6.6
			c-1.4,0.2-2.8,0.5-4.2,0.9c-12,3-21,12.1-22.8,23.3c-1.6,9.5,2.3,18.4,10.1,23.5c4.3,2.8,9.6,5.3,17,8v40
			c-7.4-0.3-12.3-1.6-20.3-5.9c-3.5-1.9-7.8-0.6-9.7,2.9c-1.9,3.5-0.6,7.8,2.9,9.7c10.6,5.7,17.5,7.3,27.1,7.6v7
			c0,3.9,3.2,7.1,7.1,7.1c3.9,0,7.1-3.2,7.1-7.1v-7.5c18.8-2.8,30.2-16.1,32-29.3C399.1,367.4,389.5,354.6,372.6,349.7L372.6,349.7z
			 M341.4,337.7c-4.3-2.8-4-7.3-3.7-9.2c0.7-4.5,4.3-9.9,12.2-11.9c0.3-0.1,0.5-0.1,0.8-0.2v25.9C347.2,340.9,344,339.3,341.4,337.7
			z M382.9,380.2c-1,7.2-7.4,14.4-17.9,16.7v-34.6c1.2,0.4,2.4,0.7,3.7,1.1C378.8,366.3,384,372.5,382.9,380.2z"/>
		<linearGradient id="SVGID_3_" gradientUnits="userSpaceOnUse" x1="261.291" y1="357.1122" x2="455.8576" y2="357.1122">
			<stop  offset="0" style="stop-color:#01BEFF"/>
			<stop  offset="1" style="stop-color:#505DFF"/>
		</linearGradient>
		<path class="st2" d="M358.6,259.8c-53.6,0-97.3,43.6-97.3,97.3s43.6,97.3,97.3,97.3s97.3-43.6,97.3-97.3S412.2,259.8,358.6,259.8z
			 M358.6,440.1c-45.8,0-83-37.2-83-83s37.2-83,83-83s83,37.2,83,83S404.4,440.1,358.6,440.1z"/>
		<linearGradient id="SVGID_4_" gradientUnits="userSpaceOnUse" x1="359.3163" y1="162.0569" x2="424.7738" y2="162.0569">
			<stop  offset="0" style="stop-color:#01BEFF"/>
			<stop  offset="1" style="stop-color:#505DFF"/>
		</linearGradient>
		<path class="st3" d="M360,170.2l0.5,2c0,0,0,0,0,0c2.5,9.4,11.1,15.7,20.5,15.7c1.3,0,2.7-0.1,4.1-0.4l22.4-4.4
			c5.8-1.1,10.8-4.6,13.9-9.6c3.1-5,4-11.1,2.5-16.7l-1.4-5.1c-1.5-5.7-5.4-10.5-10.5-13.3c-5.2-2.8-11.3-3.2-16.9-1.3l-21.6,7.4
			C363.1,148.2,357.2,159.5,360,170.2L360,170.2z M378.3,158.1l21.6-7.4c1.9-0.6,3.8-0.5,5.6,0.4s3,2.5,3.5,4.4l1.4,5.1
			c0.5,1.9,0.2,3.9-0.8,5.5c-1,1.7-2.7,2.8-4.6,3.2l-22.4,4.4c-3.6,0.7-7.2-1.5-8.1-5.1l-0.5-2C372.9,163,374.8,159.3,378.3,158.1
			L378.3,158.1z"/>
		<linearGradient id="SVGID_5_" gradientUnits="userSpaceOnUse" x1="320.2181" y1="90.2007" x2="381.4063" y2="90.2007">
			<stop  offset="0" style="stop-color:#01BEFF"/>
			<stop  offset="1" style="stop-color:#505DFF"/>
		</linearGradient>
		<path class="st4" d="M327.9,114.6c4.1,4.1,9.6,6.2,15,6.2c5,0,10-1.7,14-5.2l17.2-15c4.4-3.9,7.1-9.4,7.3-15.3
			c0.2-5.9-2.1-11.6-6.2-15.8l-3.7-3.7c-4.1-4.1-9.9-6.4-15.8-6.2c-5.9,0.2-11.4,2.9-15.3,7.3l-15,17.2c-7.3,8.4-6.9,21.1,1,29
			L327.9,114.6z M336.2,93.5l15-17.2c1.3-1.5,3.1-2.3,5-2.4c0.1,0,0.2,0,0.2,0c1.9,0,3.6,0.7,4.9,2.1l3.7,3.7c1.4,1.4,2.1,3.2,2,5.2
			c-0.1,2-0.9,3.7-2.4,5l-17.2,15c-2.8,2.4-7,2.3-9.5-0.3l-1.5-1.5C333.9,100.4,333.8,96.2,336.2,93.5L336.2,93.5z"/>
		<linearGradient id="SVGID_6_" gradientUnits="userSpaceOnUse" x1="270.7707" y1="80.9759" x2="270.7717" y2="80.9759">
			<stop  offset="0" style="stop-color:#01BEFF"/>
			<stop  offset="1" style="stop-color:#505DFF"/>
		</linearGradient>
		<path class="st5" d="M270.8,81L270.8,81L270.8,81z"/>
		<linearGradient id="SVGID_7_" gradientUnits="userSpaceOnUse" x1="252.9872" y1="48.9687" x2="304.9235" y2="48.9687">
			<stop  offset="0" style="stop-color:#01BEFF"/>
			<stop  offset="1" style="stop-color:#505DFF"/>
		</linearGradient>
		<path class="st6" d="M268.7,80.4l2,0.5c1.8,0.5,3.7,0.7,5.5,0.7c8.9,0,17.1-5.6,20.1-14.4l7.4-21.6c1.9-5.6,1.4-11.7-1.3-16.9
			c-2.8-5.2-7.6-9-13.3-10.5l-5.1-1.4c-5.7-1.5-11.8-0.6-16.8,2.5c-5,3.1-8.5,8.2-9.6,13.9l-4.4,22.4
			C251.2,66.7,258,77.6,268.7,80.4L268.7,80.4z M267.4,58.6l4.4-22.4c0.4-1.9,1.5-3.6,3.2-4.6c1.1-0.7,2.4-1.1,3.7-1.1
			c0.6,0,1.2,0.1,1.8,0.2l5.1,1.4c1.9,0.5,3.4,1.7,4.4,3.5c0.9,1.7,1.1,3.7,0.4,5.6l-7.4,21.6c-1.2,3.5-4.9,5.4-8.4,4.5c0,0,0,0,0,0
			l-2-0.5C268.9,65.7,266.7,62.2,267.4,58.6L267.4,58.6z"/>
	</g>
</g>
</svg>
