<?xml version="1.0" encoding="utf-8"?>
<!-- Generator: Adobe Illustrator 23.0.5, SVG Export Plug-In . SVG Version: 6.00 Build 0)  -->
<svg version="1.1" id="Layer_1" xmlns:svgjs="http://svgjs.com/svgjs"
	 xmlns="http://www.w3.org/2000/svg" xmlns:xlink="http://www.w3.org/1999/xlink" x="0px" y="0px" viewBox="0 0 512 512"
	 style="enable-background:new 0 0 512 512;" xml:space="preserve">
<style type="text/css">
	.st0{fill:url(#SVGID_1_);}
	.st1{fill:url(#SVGID_2_);}
	.st2{fill:url(#SVGID_3_);}
	.st3{fill:url(#SVGID_4_);}
	.st4{fill:url(#SVGID_5_);}
	.st5{fill:url(#SVGID_6_);}
	.st6{fill:url(#SVGID_7_);}
	.st7{fill:url(#SVGID_8_);}
	.st8{fill:url(#SVGID_9_);}
</style>
<g transform="matrix(1.04,0,0,1.04,-1.319999999999986,-1.2399999999999984)">
	<linearGradient id="SVGID_1_" gradientUnits="userSpaceOnUse" x1="191.1" y1="119.7" x2="207.74" y2="119.7">
		<stop  offset="0" style="stop-color:#01BEFF"/>
		<stop  offset="1" style="stop-color:#505DFF"/>
	</linearGradient>
	<path class="st0" d="M191.1,111.7h16v16h-16V111.7z"/>
	<linearGradient id="SVGID_2_" gradientUnits="userSpaceOnUse" x1="15.1" y1="239.7" x2="264.7" y2="239.7">
		<stop  offset="0" style="stop-color:#01BEFF"/>
		<stop  offset="1" style="stop-color:#505DFF"/>
	</linearGradient>
	<path class="st1" d="M175.1,407.7v-208c0-22.1,17.9-40,40-40h16.5c-0.2-2.7-0.5-5.3-0.5-8c0-25.2,9-48.3,24-66.4V63.7h-240v352
		h160.8C175.4,413.1,175.1,410.4,175.1,407.7z M175.1,111.7h16v-16h16v16h16v16h-16v16h-16v-16h-16V111.7z"/>
	<linearGradient id="SVGID_3_" gradientUnits="userSpaceOnUse" x1="15.1" y1="31.7" x2="264.7" y2="31.7">
		<stop  offset="0" style="stop-color:#01BEFF"/>
		<stop  offset="1" style="stop-color:#505DFF"/>
	</linearGradient>
	<path class="st2" d="M255.1,39.7c0-13.2-10.8-24-24-24h-192c-13.2,0-24,10.8-24,24v8h240V39.7z"/>
	<linearGradient id="SVGID_4_" gradientUnits="userSpaceOnUse" x1="15.1" y1="455.5" x2="264.7" y2="455.5">
		<stop  offset="0" style="stop-color:#01BEFF"/>
		<stop  offset="1" style="stop-color:#505DFF"/>
	</linearGradient>
	<path class="st3" d="M183.1,431.4v0.2h-168v24c0,13.2,10.8,24,24,24h192c13.2,0,24-10.8,24-24v-8h-40
		C202,447.7,190.4,441.2,183.1,431.4z M159.1,463.7h-48v-16h48V463.7z"/>
	<linearGradient id="SVGID_5_" gradientUnits="userSpaceOnUse" x1="191.1" y1="199.7" x2="263.068" y2="199.7">
		<stop  offset="0" style="stop-color:#01BEFF"/>
		<stop  offset="1" style="stop-color:#505DFF"/>
	</linearGradient>
	<path class="st4" d="M239.2,191.7c-2.2-5.2-3.9-10.5-5.2-16h-18.9c-13.2,0-24,10.8-24,24c0,13.2,10.8,24,24,24h45.2
		c-5-5.2-9.4-10.9-13.2-16.9v0.9h-32v-16H239.2z"/>
	<linearGradient id="SVGID_6_" gradientUnits="userSpaceOnUse" x1="409.9" y1="200.1" x2="465.228" y2="200.1">
		<stop  offset="0" style="stop-color:#01BEFF"/>
		<stop  offset="1" style="stop-color:#505DFF"/>
	</linearGradient>
	<path class="st5" d="M455.1,223.7c2.7,0,5.4,0.3,8,0.8v-24.8c0-13.2-10.8-24-24-24h-2.9c-4.3,18.1-13.4,34.6-26.3,48H455.1z"/>
	<linearGradient id="SVGID_7_" gradientUnits="userSpaceOnUse" x1="247.1994" y1="143.7" x2="430.24" y2="143.7">
		<stop  offset="0" style="stop-color:#01BEFF"/>
		<stop  offset="1" style="stop-color:#505DFF"/>
	</linearGradient>
	<path class="st6" d="M284.8,223.7h42.4v-17.1c-13.8-3.6-24-16-24-30.9h16c0,8.8,7.2,16,16,16s16-7.2,16-16s-7.2-16-16-16
		c-17.6,0-32-14.4-32-32c0-14.9,10.2-27.3,24-30.9V79.7h16v17.1c13.8,3.6,24,16,24,30.9h-16c0-8.8-7.2-16-16-16s-16,7.2-16,16
		s7.2,16,16,16c17.6,0,32,14.4,32,32c0,14.9-10.2,27.3-24,30.9v17.1h42.4c23.6-16.5,37.6-43.2,37.6-72c0-48.5-39.5-88-88-88
		s-88,39.5-88,88C247.1,180.4,261.2,207.1,284.8,223.7z M391.1,143.7h16v16h-16V143.7z M279.1,143.7v16h-16v-16H279.1z"/>
	<linearGradient id="SVGID_8_" gradientUnits="userSpaceOnUse" x1="351.1" y1="335.7" x2="484.22" y2="335.7">
		<stop  offset="0" style="stop-color:#01BEFF"/>
		<stop  offset="1" style="stop-color:#505DFF"/>
	</linearGradient>
	<path class="st7" d="M351.1,335.7c0,17.6,14.4,32,32,32h96v-64h-96C365.5,303.7,351.1,318,351.1,335.7z M383.1,343.7h-16v-16h16
		V343.7z"/>
	<linearGradient id="SVGID_9_" gradientUnits="userSpaceOnUse" x1="191.1" y1="331.7" x2="490.62" y2="331.7">
		<stop  offset="0" style="stop-color:#01BEFF"/>
		<stop  offset="1" style="stop-color:#505DFF"/>
	</linearGradient>
	<path class="st8" d="M455.1,239.7h-240c-9,0-17.3-3-24-8v176c0,13.2,10.8,24,24,24h240c13.2,0,24-10.8,24-24v-24h-96
		c-26.5,0-48-21.5-48-48s21.5-48,48-48h96v-24C479.1,250.4,468.3,239.7,455.1,239.7z"/>
</g>
</svg>
