<?xml version="1.0" encoding="utf-8"?>
<!-- Generator: Adobe Illustrator 23.0.5, SVG Export Plug-In . SVG Version: 6.00 Build 0)  -->
<svg version="1.1" id="Layer_1" xmlns="http://www.w3.org/2000/svg" xmlns:xlink="http://www.w3.org/1999/xlink" x="0px" y="0px"
	 viewBox="0 0 467.4 460.6" style="enable-background:new 0 0 467.4 460.6;" xml:space="preserve">
<style type="text/css">
	.st0{fill:url(#SVGID_1_);}
	.st1{fill:url(#SVGID_2_);}
	.st2{fill:url(#SVGID_3_);}
	.st3{fill:url(#SVGID_4_);}
	.st4{fill:url(#SVGID_5_);}
	.st5{fill:url(#SVGID_6_);}
	.st6{fill:url(#SVGID_7_);}
	.st7{fill:url(#SVGID_8_);}
	.st8{fill:url(#SVGID_9_);}
	.st9{fill:url(#SVGID_10_);}
	.st10{fill:url(#SVGID_11_);}
	.st11{fill:url(#SVGID_12_);}
	.st12{fill:url(#SVGID_13_);}
	.st13{fill:url(#SVGID_14_);}
	.st14{fill:url(#SVGID_15_);}
	.st15{fill:url(#SVGID_16_);}
	.st16{fill:url(#SVGID_17_);}
	.st17{fill:url(#SVGID_18_);}
	.st18{fill:url(#SVGID_19_);}
	.st19{fill:url(#SVGID_20_);}
	.st20{fill:url(#SVGID_21_);}
	.st21{fill:url(#SVGID_22_);}
	.st22{fill:url(#SVGID_23_);}
	.st23{fill:url(#SVGID_24_);}
	.st24{fill:url(#SVGID_25_);}
	.st25{fill:url(#SVGID_26_);}
	.st26{fill:url(#SVGID_27_);}
	.st27{fill:url(#SVGID_28_);}
	.st28{fill:url(#SVGID_29_);}
	.st29{fill:url(#SVGID_30_);}
	.st30{fill:none;stroke:url(#SVGID_31_);stroke-width:10;stroke-miterlimit:10;stroke-dasharray:9.9653,9.9653;}
</style>
<g>
	<linearGradient id="SVGID_1_" gradientUnits="userSpaceOnUse" x1="128.9755" y1="195.8282" x2="128.9755" y2="163.9341">
		<stop  offset="0" style="stop-color:#01BEFF"/>
		<stop  offset="1" style="stop-color:#505DFF"/>
	</linearGradient>
	<path class="st0" d="M132.3,194.7c0.8,0.8,1.7,1.1,2.7,1.1s2-0.4,2.7-1.1c1.5-1.5,1.5-3.9,0-5.5l-9.4-9.4l9.4-9.4
		c1.5-1.5,1.5-3.9,0-5.5c-1.5-1.5-3.9-1.5-5.5,0l-12.1,12.1c-0.7,0.7-1.1,1.7-1.1,2.7c0,1,0.4,2,1.1,2.7L132.3,194.7z"/>
	<linearGradient id="SVGID_2_" gradientUnits="userSpaceOnUse" x1="169.9723" y1="195.8282" x2="169.9723" y2="163.9321">
		<stop  offset="0" style="stop-color:#01BEFF"/>
		<stop  offset="1" style="stop-color:#505DFF"/>
	</linearGradient>
	<path class="st1" d="M170.6,179.9l-9.4,9.4c-1.5,1.5-1.5,3.9,0,5.5c0.8,0.8,1.7,1.1,2.7,1.1s2-0.4,2.7-1.1l12.1-12.1
		c1.5-1.5,1.5-3.9,0-5.5l-12.1-12.1c-1.5-1.5-3.9-1.5-5.5,0c-1.5,1.5-1.5,3.9,0,5.5L170.6,179.9z"/>
	<linearGradient id="SVGID_3_" gradientUnits="userSpaceOnUse" x1="149.885" y1="195.8282" x2="149.885" y2="163.9312">
		<stop  offset="0" style="stop-color:#01BEFF"/>
		<stop  offset="1" style="stop-color:#505DFF"/>
	</linearGradient>
	<path class="st2" d="M143.7,195.6c0.5,0.2,0.9,0.3,1.4,0.3c1.5,0,3-0.9,3.6-2.4l9.5-24.2c0.8-2-0.2-4.2-2.2-5c-2-0.8-4.2,0.2-5,2.2
		l-9.5,24.2C140.8,192.5,141.7,194.8,143.7,195.6z"/>
	<linearGradient id="SVGID_4_" gradientUnits="userSpaceOnUse" x1="138.1028" y1="218.4529" x2="138.1028" y2="210.7391">
		<stop  offset="0" style="stop-color:#01BEFF"/>
		<stop  offset="1" style="stop-color:#505DFF"/>
	</linearGradient>
	<path class="st3" d="M125.1,218.5h26c2.1,0,3.9-1.7,3.9-3.9c0-2.1-1.7-3.9-3.9-3.9h-26c-2.1,0-3.9,1.7-3.9,3.9
		C121.3,216.7,123,218.5,125.1,218.5z"/>
	<linearGradient id="SVGID_5_" gradientUnits="userSpaceOnUse" x1="188.0927" y1="218.4529" x2="188.0927" y2="210.7391">
		<stop  offset="0" style="stop-color:#01BEFF"/>
		<stop  offset="1" style="stop-color:#505DFF"/>
	</linearGradient>
	<path class="st4" d="M210.9,210.7h-45.7c-2.1,0-3.9,1.7-3.9,3.9c0,2.1,1.7,3.9,3.9,3.9h45.7c2.1,0,3.9-1.7,3.9-3.9
		C214.8,212.5,213.1,210.7,210.9,210.7z"/>
	<linearGradient id="SVGID_6_" gradientUnits="userSpaceOnUse" x1="130.6463" y1="234.7188" x2="130.6463" y2="227.005">
		<stop  offset="0" style="stop-color:#01BEFF"/>
		<stop  offset="1" style="stop-color:#505DFF"/>
	</linearGradient>
	<path class="st5" d="M125.1,234.7h11.1c2.1,0,3.9-1.7,3.9-3.9c0-2.1-1.7-3.9-3.9-3.9h-11.1c-2.1,0-3.9,1.7-3.9,3.9
		C121.3,233,123,234.7,125.1,234.7z"/>
	<linearGradient id="SVGID_7_" gradientUnits="userSpaceOnUse" x1="200.1911" y1="234.7188" x2="200.1911" y2="227.005">
		<stop  offset="0" style="stop-color:#01BEFF"/>
		<stop  offset="1" style="stop-color:#505DFF"/>
	</linearGradient>
	<path class="st6" d="M196.8,227c-2.1,0-3.9,1.7-3.9,3.9c0,2.1,1.7,3.9,3.9,3.9h6.7c2.1,0,3.9-1.7,3.9-3.9c0-2.1-1.7-3.9-3.9-3.9
		H196.8z"/>
	<linearGradient id="SVGID_8_" gradientUnits="userSpaceOnUse" x1="166.2631" y1="234.7188" x2="166.2631" y2="227.005">
		<stop  offset="0" style="stop-color:#01BEFF"/>
		<stop  offset="1" style="stop-color:#505DFF"/>
	</linearGradient>
	<path class="st7" d="M186.7,230.9c0-2.1-1.7-3.9-3.9-3.9h-33.1c-2.1,0-3.9,1.7-3.9,3.9c0,2.1,1.7,3.9,3.9,3.9h33.1
		C184.9,234.7,186.7,233,186.7,230.9z"/>
	<linearGradient id="SVGID_9_" gradientUnits="userSpaceOnUse" x1="222.1012" y1="234.7188" x2="222.1012" y2="227.005">
		<stop  offset="0" style="stop-color:#01BEFF"/>
		<stop  offset="1" style="stop-color:#505DFF"/>
	</linearGradient>
	<path class="st8" d="M211.9,230.9c0,2.1,1.7,3.9,3.9,3.9h12.6c2.1,0,3.9-1.7,3.9-3.9c0-2.1-1.7-3.9-3.9-3.9h-12.6
		C213.7,227,211.9,228.7,211.9,230.9z"/>
	<linearGradient id="SVGID_10_" gradientUnits="userSpaceOnUse" x1="197.5877" y1="182.9738" x2="197.5877" y2="175.26">
		<stop  offset="0" style="stop-color:#01BEFF"/>
		<stop  offset="1" style="stop-color:#505DFF"/>
	</linearGradient>
	<path class="st9" d="M190.9,183h13.3c2.1,0,3.9-1.7,3.9-3.9c0-2.1-1.7-3.9-3.9-3.9h-13.3c-2.1,0-3.9,1.7-3.9,3.9
		C187.1,181.2,188.8,183,190.9,183z"/>
	<linearGradient id="SVGID_11_" gradientUnits="userSpaceOnUse" x1="259.7775" y1="182.9738" x2="259.7775" y2="175.26">
		<stop  offset="0" style="stop-color:#01BEFF"/>
		<stop  offset="1" style="stop-color:#505DFF"/>
	</linearGradient>
	<path class="st10" d="M219.2,183h81.2c2.1,0,3.9-1.7,3.9-3.9c0-2.1-1.7-3.9-3.9-3.9h-81.2c-2.1,0-3.9,1.7-3.9,3.9
		C215.3,181.2,217,183,219.2,183z"/>
	<linearGradient id="SVGID_12_" gradientUnits="userSpaceOnUse" x1="271.6046" y1="199.9414" x2="271.6046" y2="192.2276">
		<stop  offset="0" style="stop-color:#01BEFF"/>
		<stop  offset="1" style="stop-color:#505DFF"/>
	</linearGradient>
	<path class="st11" d="M288.1,192.2h-32.9c-2.1,0-3.9,1.7-3.9,3.9c0,2.1,1.7,3.9,3.9,3.9h32.9c2.1,0,3.9-1.7,3.9-3.9
		C291.9,194,290.2,192.2,288.1,192.2z"/>
	<linearGradient id="SVGID_13_" gradientUnits="userSpaceOnUse" x1="237.1538" y1="199.9414" x2="237.1538" y2="192.2276">
		<stop  offset="0" style="stop-color:#01BEFF"/>
		<stop  offset="1" style="stop-color:#505DFF"/>
	</linearGradient>
	<path class="st12" d="M242.8,192.2h-11.3c-2.1,0-3.9,1.7-3.9,3.9c0,2.1,1.7,3.9,3.9,3.9h11.3c2.1,0,3.9-1.7,3.9-3.9
		C246.7,194,244.9,192.2,242.8,192.2z"/>
	<linearGradient id="SVGID_14_" gradientUnits="userSpaceOnUse" x1="204.7858" y1="199.9414" x2="204.7858" y2="192.2276">
		<stop  offset="0" style="stop-color:#01BEFF"/>
		<stop  offset="1" style="stop-color:#505DFF"/>
	</linearGradient>
	<path class="st13" d="M190.9,199.9h27.7c2.1,0,3.9-1.7,3.9-3.9c0-2.1-1.7-3.9-3.9-3.9h-27.7c-2.1,0-3.9,1.7-3.9,3.9
		C187.1,198.2,188.8,199.9,190.9,199.9z"/>
	<linearGradient id="SVGID_15_" gradientUnits="userSpaceOnUse" x1="169.8727" y1="250.846" x2="169.8727" y2="243.1342">
		<stop  offset="0" style="stop-color:#01BEFF"/>
		<stop  offset="1" style="stop-color:#505DFF"/>
	</linearGradient>
	<path class="st14" d="M182.9,243.1h-26c-2.1,0-3.9,1.7-3.9,3.9s1.7,3.9,3.9,3.9h26c2.1,0,3.9-1.7,3.9-3.9S185,243.1,182.9,243.1z"
		/>
	<linearGradient id="SVGID_16_" gradientUnits="userSpaceOnUse" x1="135.0923" y1="250.846" x2="135.0923" y2="243.1342">
		<stop  offset="0" style="stop-color:#01BEFF"/>
		<stop  offset="1" style="stop-color:#505DFF"/>
	</linearGradient>
	<path class="st15" d="M145.1,243.1h-20c-2.1,0-3.9,1.7-3.9,3.9s1.7,3.9,3.9,3.9h20c2.1,0,3.9-1.7,3.9-3.9S147.2,243.1,145.1,243.1z
		"/>
	<linearGradient id="SVGID_17_" gradientUnits="userSpaceOnUse" x1="212.9871" y1="250.846" x2="212.9871" y2="243.1342">
		<stop  offset="0" style="stop-color:#01BEFF"/>
		<stop  offset="1" style="stop-color:#505DFF"/>
	</linearGradient>
	<path class="st16" d="M230,243.1H196c-2.1,0-3.9,1.7-3.9,3.9s1.7,3.9,3.9,3.9H230c2.1,0,3.9-1.7,3.9-3.9S232.1,243.1,230,243.1z"/>
	<linearGradient id="SVGID_18_" gradientUnits="userSpaceOnUse" x1="266.5716" y1="231.0378" x2="266.5716" y2="223.324">
		<stop  offset="0" style="stop-color:#01BEFF"/>
		<stop  offset="1" style="stop-color:#505DFF"/>
	</linearGradient>
	<path class="st17" d="M275.9,223.3h-18.6c-2.1,0-3.9,1.7-3.9,3.9c0,2.1,1.7,3.9,3.9,3.9h18.6c2.1,0,3.9-1.7,3.9-3.9
		C279.7,225.1,278,223.3,275.9,223.3z"/>
	<linearGradient id="SVGID_19_" gradientUnits="userSpaceOnUse" x1="321.1522" y1="231.0378" x2="321.1522" y2="223.324">
		<stop  offset="0" style="stop-color:#01BEFF"/>
		<stop  offset="1" style="stop-color:#505DFF"/>
	</linearGradient>
	<path class="st18" d="M308.1,231h26.2c2.1,0,3.9-1.7,3.9-3.9c0-2.1-1.7-3.9-3.9-3.9h-26.2c-2.1,0-3.9,1.7-3.9,3.9
		C304.2,229.3,305.9,231,308.1,231z"/>
	<linearGradient id="SVGID_20_" gradientUnits="userSpaceOnUse" x1="291.9505" y1="231.0378" x2="291.9505" y2="223.324">
		<stop  offset="0" style="stop-color:#01BEFF"/>
		<stop  offset="1" style="stop-color:#505DFF"/>
	</linearGradient>
	<path class="st19" d="M295,223.3h-6c-2.1,0-3.9,1.7-3.9,3.9c0,2.1,1.7,3.9,3.9,3.9h6c2.1,0,3.9-1.7,3.9-3.9
		C298.8,225.1,297.1,223.3,295,223.3z"/>
	<linearGradient id="SVGID_21_" gradientUnits="userSpaceOnUse" x1="266.5716" y1="273.0626" x2="266.5716" y2="265.3508">
		<stop  offset="0" style="stop-color:#01BEFF"/>
		<stop  offset="1" style="stop-color:#505DFF"/>
	</linearGradient>
	<path class="st20" d="M257.3,273.1h18.6c2.1,0,3.9-1.7,3.9-3.9c0-2.1-1.7-3.9-3.9-3.9h-18.6c-2.1,0-3.9,1.7-3.9,3.9
		C253.4,271.3,255.2,273.1,257.3,273.1z"/>
	<linearGradient id="SVGID_22_" gradientUnits="userSpaceOnUse" x1="321.1522" y1="273.0626" x2="321.1522" y2="265.3508">
		<stop  offset="0" style="stop-color:#01BEFF"/>
		<stop  offset="1" style="stop-color:#505DFF"/>
	</linearGradient>
	<path class="st21" d="M308.1,273.1h26.2c2.1,0,3.9-1.7,3.9-3.9c0-2.1-1.7-3.9-3.9-3.9h-26.2c-2.1,0-3.9,1.7-3.9,3.9
		C304.2,271.3,305.9,273.1,308.1,273.1z"/>
	<linearGradient id="SVGID_23_" gradientUnits="userSpaceOnUse" x1="291.9525" y1="273.0626" x2="291.9525" y2="265.3508">
		<stop  offset="0" style="stop-color:#01BEFF"/>
		<stop  offset="1" style="stop-color:#505DFF"/>
	</linearGradient>
	<path class="st22" d="M289,273.1h6c2.1,0,3.9-1.7,3.9-3.9c0-2.1-1.7-3.9-3.9-3.9h-6c-2.1,0-3.9,1.7-3.9,3.9
		C285.1,271.3,286.8,273.1,289,273.1z"/>
	<linearGradient id="SVGID_24_" gradientUnits="userSpaceOnUse" x1="266.5716" y1="315.0894" x2="266.5716" y2="307.3777">
		<stop  offset="0" style="stop-color:#01BEFF"/>
		<stop  offset="1" style="stop-color:#505DFF"/>
	</linearGradient>
	<path class="st23" d="M275.9,307.4h-18.6c-2.1,0-3.9,1.7-3.9,3.9s1.7,3.9,3.9,3.9h18.6c2.1,0,3.9-1.7,3.9-3.9
		S278,307.4,275.9,307.4z"/>
	<linearGradient id="SVGID_25_" gradientUnits="userSpaceOnUse" x1="321.1522" y1="315.0894" x2="321.1522" y2="307.3777">
		<stop  offset="0" style="stop-color:#01BEFF"/>
		<stop  offset="1" style="stop-color:#505DFF"/>
	</linearGradient>
	<path class="st24" d="M334.2,307.4h-26.2c-2.1,0-3.9,1.7-3.9,3.9s1.7,3.9,3.9,3.9h26.2c2.1,0,3.9-1.7,3.9-3.9
		S336.4,307.4,334.2,307.4z"/>
	<linearGradient id="SVGID_26_" gradientUnits="userSpaceOnUse" x1="291.9505" y1="315.0894" x2="291.9505" y2="307.3777">
		<stop  offset="0" style="stop-color:#01BEFF"/>
		<stop  offset="1" style="stop-color:#505DFF"/>
	</linearGradient>
	<path class="st25" d="M295,307.4h-6c-2.1,0-3.9,1.7-3.9,3.9s1.7,3.9,3.9,3.9h6c2.1,0,3.9-1.7,3.9-3.9S297.1,307.4,295,307.4z"/>
	<linearGradient id="SVGID_27_" gradientUnits="userSpaceOnUse" x1="233.7" y1="361.909" x2="233.7" y2="98.691">
		<stop  offset="0" style="stop-color:#01BEFF"/>
		<stop  offset="1" style="stop-color:#505DFF"/>
	</linearGradient>
	<path class="st26" d="M348.5,98.7H118.9c-9.4,0-17,7.6-17,17v186.6c0,9.4,7.6,17,17,17h14.5c2.1,0,3.9-1.7,3.9-3.9
		c0-2.1-1.7-3.9-3.9-3.9h-14.5c-5.1,0-9.3-4.2-9.3-9.3v-14.6h140.5v6.6h-3.1c-4.2,0-7.6,3.4-7.6,7.6v9.7h-82.6
		c-2.1,0-3.9,1.7-3.9,3.9c0,2.1,1.7,3.9,3.9,3.9H194v13.8h-11.6c-7.8,0-14.1,6.3-14.1,14.1v8.3c0,3.5,2.9,6.4,6.4,6.4h117.8
		c3.5,0,6.4-2.9,6.4-6.4v-8.3c0-7.8-6.3-14.1-14.1-14.1h-11.6v-4.9h71.3c4.2,0,7.6-3.4,7.6-7.6v-1.8c7.5-1.7,13.1-8.5,13.1-16.5
		l0.3-186.6C365.5,106.3,357.8,98.7,348.5,98.7z M247.2,278.5V260h97.1v18.5H247.2z M257.9,252.3v-8.1h75.8v8.1H257.9z M333.7,286.2
		v8.1h-75.8v-8.1H333.7z M201.7,319.2h37.8v1.4c0,4.2,3.4,7.6,7.6,7.6h18.3v4.9h-63.8V319.2z M284.8,340.8c3.5,0,6.4,2.9,6.4,6.4v7
		H175.9v-7c0-3.5,2.9-6.4,6.4-6.4H284.8z M344.3,320.5h-97.1V302h97.1V320.5z M357.4,302.3c0,3.7-2.2,7-5.4,8.4v-8.8
		c0-4.2-3.4-7.6-7.6-7.6h-3.1v-6.6h16.1V302.3z M357.4,279.9h-5.5c0.1-0.4,0.1-20.1,0.1-20.1c0-4.2-3.4-7.6-7.6-7.6h-3.1v-8.1h3.1
		c4.2,0,7.6-3.4,7.6-7.6v-18.7c0-4.2-3.4-7.6-7.6-7.6h-21.8c-2.1,0-3.9,1.7-3.9,3.9c0,2.1,1.7,3.9,3.9,3.9h21.7v18.5h-97.1v-18.5
		h51.4c2.1,0,3.9-1.7,3.9-3.9c0-2.1-1.7-3.9-3.9-3.9h-51.6c-4.2,0-7.6,3.4-7.6,7.6v18.7c0,4.2,3.4,7.6,7.6,7.6h3.1v8.1h-3.1
		c-4.2,0-7.6,3.4-7.6,7.6c0,0,0,19.6,0.1,20.1h-130V151.1h247.8V279.9z M357.4,143.4H109.9v-27.8c0-5.1,4.2-9.3,9.3-9.3h229
		c5.1,0,9.3,4.2,9.3,9.3V143.4z"/>
	<linearGradient id="SVGID_28_" gradientUnits="userSpaceOnUse" x1="130.391" y1="136.1282" x2="130.391" y2="113.4934">
		<stop  offset="0" style="stop-color:#01BEFF"/>
		<stop  offset="1" style="stop-color:#505DFF"/>
	</linearGradient>
	<path class="st27" d="M130.4,113.5c-6.2,0-11.3,5.1-11.3,11.3c0,6.2,5.1,11.3,11.3,11.3c6.2,0,11.3-5.1,11.3-11.3
		C141.7,118.6,136.6,113.5,130.4,113.5z M130.4,128.4c-2,0-3.6-1.6-3.6-3.6c0-2,1.6-3.6,3.6-3.6c2,0,3.6,1.6,3.6,3.6
		C134,126.8,132.4,128.4,130.4,128.4z"/>
	<linearGradient id="SVGID_29_" gradientUnits="userSpaceOnUse" x1="159.2037" y1="136.1282" x2="159.2037" y2="113.4934">
		<stop  offset="0" style="stop-color:#01BEFF"/>
		<stop  offset="1" style="stop-color:#505DFF"/>
	</linearGradient>
	<path class="st28" d="M159.2,113.5c-6.2,0-11.3,5.1-11.3,11.3c0,6.2,5.1,11.3,11.3,11.3s11.3-5.1,11.3-11.3
		C170.5,118.6,165.4,113.5,159.2,113.5z M159.2,128.4c-2,0-3.6-1.6-3.6-3.6c0-2,1.6-3.6,3.6-3.6c2,0,3.6,1.6,3.6,3.6
		C162.8,126.8,161.2,128.4,159.2,128.4z"/>
	<linearGradient id="SVGID_30_" gradientUnits="userSpaceOnUse" x1="188.0183" y1="136.1282" x2="188.0183" y2="113.4934">
		<stop  offset="0" style="stop-color:#01BEFF"/>
		<stop  offset="1" style="stop-color:#505DFF"/>
	</linearGradient>
	<path class="st29" d="M188,113.5c-6.2,0-11.3,5.1-11.3,11.3c0,6.2,5.1,11.3,11.3,11.3c6.2,0,11.3-5.1,11.3-11.3
		C199.3,118.6,194.3,113.5,188,113.5z M188,128.4c-2,0-3.6-1.6-3.6-3.6c0-2,1.6-3.6,3.6-3.6c2,0,3.6,1.6,3.6,3.6
		C191.6,126.8,190,128.4,188,128.4z"/>
</g>
<g>
	<linearGradient id="SVGID_31_" gradientUnits="userSpaceOnUse" x1="233.3095" y1="451.3905" x2="233.3095" y2="10.0095">
		<stop  offset="0" style="stop-color:#01BEFF"/>
		<stop  offset="1" style="stop-color:#505DFF"/>
	</linearGradient>
	<circle class="st30" cx="233.3" cy="230.7" r="215.7"/>
</g>
</svg>
