<?xml version="1.0" encoding="utf-8"?>
<!-- Generator: Adobe Illustrator 23.0.5, SVG Export Plug-In . SVG Version: 6.00 Build 0)  -->
<svg version="1.1" id="Layer_1" xmlns:svgjs="http://svgjs.com/svgjs"
	 xmlns="http://www.w3.org/2000/svg" xmlns:xlink="http://www.w3.org/1999/xlink" x="0px" y="0px" viewBox="0 0 512 512"
	 style="enable-background:new 0 0 512 512;" xml:space="preserve">
<style type="text/css">
	.st0{fill:url(#SVGID_1_);}
	.st1{fill:url(#SVGID_2_);}
	.st2{fill:url(#SVGID_3_);}
	.st3{fill:url(#SVGID_4_);}
	.st4{fill:url(#SVGID_5_);}
	.st5{fill:url(#SVGID_6_);}
	.st6{fill:url(#SVGID_7_);}
	.st7{fill:url(#SVGID_8_);}
	.st8{fill:url(#SVGID_9_);}
	.st9{fill:url(#SVGID_10_);}
	.st10{fill:url(#SVGID_11_);}
	.st11{fill:url(#SVGID_12_);}
	.st12{fill:url(#SVGID_13_);}
	.st13{fill:url(#SVGID_14_);}
	.st14{fill:url(#SVGID_15_);}
	.st15{fill:url(#SVGID_16_);}
	.st16{fill:url(#SVGID_17_);}
	.st17{fill:url(#SVGID_18_);}
	.st18{fill:url(#SVGID_19_);}
	.st19{fill:url(#SVGID_20_);}
	.st20{fill:url(#SVGID_21_);}
	.st21{fill:none;stroke:url(#SVGID_22_);stroke-width:10;stroke-miterlimit:10;stroke-dasharray:9.9498,9.9498;}
</style>
<g>
	<linearGradient id="SVGID_1_" gradientUnits="userSpaceOnUse" x1="171.005" y1="365.162" x2="171.005" y2="117.0072">
		<stop  offset="0" style="stop-color:#01BEFF"/>
		<stop  offset="1" style="stop-color:#505DFF"/>
	</linearGradient>
	<path class="st0" d="M237.8,365.2H128.1c-13.2,0-23.8-10.7-23.9-23.9V140.9c0-13.2,10.7-23.8,23.9-23.9h9.5v9.5h-9.5
		c-7.9,0-14.3,6.4-14.3,14.3v200.4c0,7.9,6.4,14.3,14.3,14.3h109.8V365.2z"/>
	<linearGradient id="SVGID_2_" gradientUnits="userSpaceOnUse" x1="151.9185" y1="126.5516" x2="151.9185" y2="117.0072">
		<stop  offset="0" style="stop-color:#01BEFF"/>
		<stop  offset="1" style="stop-color:#505DFF"/>
	</linearGradient>
	<path class="st1" d="M147.1,117h9.5v9.5h-9.5V117z"/>
	<linearGradient id="SVGID_3_" gradientUnits="userSpaceOnUse" x1="287.9241" y1="365.162" x2="287.9241" y2="117.0072">
		<stop  offset="0" style="stop-color:#01BEFF"/>
		<stop  offset="1" style="stop-color:#505DFF"/>
	</linearGradient>
	<path class="st2" d="M385.8,365.2v-9.5c7.9,0,14.3-6.4,14.3-14.3V140.9c0-7.9-6.4-14.3-14.3-14.3H166.2V117h219.5
		c13.2,0,23.8,10.7,23.9,23.9v200.4C409.6,354.5,398.9,365.1,385.8,365.2z"/>
	<linearGradient id="SVGID_4_" gradientUnits="userSpaceOnUse" x1="202.0309" y1="380.7392" x2="202.0309" y2="359.3344">
		<stop  offset="0" style="stop-color:#01BEFF"/>
		<stop  offset="1" style="stop-color:#505DFF"/>
	</linearGradient>
	<path class="st3" d="M195,378.4l4.8-19.1l9.3,2.3l-4.8,19.1L195,378.4z"/>
	<linearGradient id="SVGID_5_" gradientUnits="userSpaceOnUse" x1="211.5688" y1="403.3397" x2="211.5688" y2="374.7065">
		<stop  offset="0" style="stop-color:#01BEFF"/>
		<stop  offset="1" style="stop-color:#505DFF"/>
	</linearGradient>
	<path class="st4" d="M237.8,403.3h-47.7c-2.6,0-4.8-2.1-4.8-4.8V389c0-7.9,6.4-14.3,14.3-14.3h38.2v9.5h-38.2
		c-2.6,0-4.8,2.1-4.8,4.8v4.8h42.9V403.3z"/>
	<linearGradient id="SVGID_6_" gradientUnits="userSpaceOnUse" x1="173.3911" y1="326.9844" x2="173.3911" y2="317.44">
		<stop  offset="0" style="stop-color:#01BEFF"/>
		<stop  offset="1" style="stop-color:#505DFF"/>
	</linearGradient>
	<path class="st5" d="M109,317.4h128.8v9.5H109V317.4z"/>
	<linearGradient id="SVGID_7_" gradientUnits="userSpaceOnUse" x1="128.0551" y1="346.0732" x2="128.0551" y2="336.5288">
		<stop  offset="0" style="stop-color:#01BEFF"/>
		<stop  offset="1" style="stop-color:#505DFF"/>
	</linearGradient>
	<path class="st6" d="M123.3,336.5h9.5v9.5h-9.5V336.5z"/>
	<linearGradient id="SVGID_8_" gradientUnits="userSpaceOnUse" x1="156.6884" y1="346.0732" x2="156.6884" y2="336.5288">
		<stop  offset="0" style="stop-color:#01BEFF"/>
		<stop  offset="1" style="stop-color:#505DFF"/>
	</linearGradient>
	<path class="st7" d="M142.4,336.5H171v9.5h-28.6V336.5z"/>
	<linearGradient id="SVGID_9_" gradientUnits="userSpaceOnUse" x1="318.9435" y1="422.4286" x2="318.9435" y2="183.8181">
		<stop  offset="0" style="stop-color:#01BEFF"/>
		<stop  offset="1" style="stop-color:#505DFF"/>
	</linearGradient>
	<path class="st8" d="M366.7,422.4h-95.4c-13.2,0-23.8-10.7-23.9-23.9V207.7c0-13.2,10.7-23.8,23.9-23.9h95.4
		c13.2,0,23.8,10.7,23.9,23.9v190.9C390.5,411.7,379.8,422.4,366.7,422.4z M271.2,193.4c-7.9,0-14.3,6.4-14.3,14.3v190.9
		c0,7.9,6.4,14.3,14.3,14.3h95.4c7.9,0,14.3-6.4,14.3-14.3V207.7c0-7.9-6.4-14.3-14.3-14.3H271.2z"/>
	<linearGradient id="SVGID_10_" gradientUnits="userSpaceOnUse" x1="318.9435" y1="231.5402" x2="318.9435" y2="207.6791">
		<stop  offset="0" style="stop-color:#01BEFF"/>
		<stop  offset="1" style="stop-color:#505DFF"/>
	</linearGradient>
	<path class="st9" d="M342.8,231.5h-47.7c-8.9,0-12.7-7.8-13.9-14.3h-29.1v-9.5h33.4c2.6,0,4.8,2.1,4.8,4.8c0,0.1,0.3,9.5,4.8,9.5
		h47.7c4.5,0,4.8-9.5,4.8-9.5c0-2.6,2.1-4.8,4.8-4.8h33.4v9.5h-29.1C355.5,223.8,351.7,231.5,342.8,231.5z"/>
	<linearGradient id="SVGID_11_" gradientUnits="userSpaceOnUse" x1="318.9435" y1="212.4514" x2="318.9435" y2="202.9069">
		<stop  offset="0" style="stop-color:#01BEFF"/>
		<stop  offset="1" style="stop-color:#505DFF"/>
	</linearGradient>
	<path class="st10" d="M299.9,202.9H338v9.5h-38.2V202.9z"/>
	<linearGradient id="SVGID_12_" gradientUnits="userSpaceOnUse" x1="318.9435" y1="408.1119" x2="318.9435" y2="398.5675">
		<stop  offset="0" style="stop-color:#01BEFF"/>
		<stop  offset="1" style="stop-color:#505DFF"/>
	</linearGradient>
	<path class="st11" d="M299.9,398.6H338v9.5h-38.2V398.6z"/>
	<linearGradient id="SVGID_13_" gradientUnits="userSpaceOnUse" x1="318.9435" y1="393.7953" x2="318.9435" y2="384.2509">
		<stop  offset="0" style="stop-color:#01BEFF"/>
		<stop  offset="1" style="stop-color:#505DFF"/>
	</linearGradient>
	<path class="st12" d="M252.1,384.3h133.6v9.5H252.1V384.3z"/>
	<linearGradient id="SVGID_14_" gradientUnits="userSpaceOnUse" x1="180.5494" y1="250.629" x2="180.5494" y2="136.096">
		<stop  offset="0" style="stop-color:#01BEFF"/>
		<stop  offset="1" style="stop-color:#505DFF"/>
	</linearGradient>
	<path class="st13" d="M190.1,250.6H171c-2.6,0-4.8-2.1-4.8-4.8v-7c-2.7-0.8-5.3-1.9-7.7-3.2l-5,5c-1.9,1.9-4.9,1.9-6.7,0
		l-13.5-13.5c-1.9-1.9-1.9-4.9,0-6.7l4.9-5c-1.3-2.5-2.4-5.1-3.2-7.7h-7c-2.6,0-4.8-2.1-4.8-4.8v-19.1c0-2.6,2.1-4.8,4.8-4.8h7
		c0.8-2.7,1.9-5.3,3.2-7.7l-5-5c-1.9-1.9-1.9-4.9,0-6.7l13.5-13.5c1.9-1.9,4.9-1.9,6.7,0l5,4.9c2.5-1.3,5.1-2.4,7.7-3.2v-7
		c0-2.6,2.1-4.8,4.8-4.8h19.1c2.6,0,4.8,2.1,4.8,4.8v7c2.7,0.8,5.3,1.9,7.7,3.2l5-5c1.9-1.9,4.9-1.9,6.7,0l13.5,13.5
		c1.9,1.9,1.9,4.9,0,6.7l-4.9,5c1.3,2.5,2.4,5.1,3.2,7.7h7c2.6,0,4.8,2.1,4.8,4.8v19.1c0,2.6-2.1,4.8-4.8,4.8h-7
		c-0.8,2.7-1.9,5.3-3.2,7.7l5,5c1.9,1.9,1.9,4.9,0,6.7l-13.5,13.5c-1.9,1.9-4.9,1.9-6.7,0l-5-4.9c-2.5,1.3-5.1,2.4-7.7,3.2v7
		C194.9,248.5,192.7,250.6,190.1,250.6L190.1,250.6z M175.8,241.1h9.5v-5.9c0-2.2,1.5-4.2,3.7-4.7c4.2-1,8.2-2.6,11.8-4.9
		c1.9-1.2,4.3-0.9,5.9,0.7l4.2,4.2l6.7-6.7l-4.2-4.2c-1.6-1.6-1.9-4-0.7-5.9c2.3-3.6,3.9-7.6,4.9-11.8c0.5-2.2,2.4-3.7,4.7-3.7h5.9
		v-9.5h-5.9c-2.2,0-4.2-1.5-4.7-3.7c-1-4.2-2.6-8.2-4.9-11.8c-1.2-1.9-0.9-4.3,0.7-5.9l4.2-4.2l-6.7-6.7l-4.2,4.2
		c-1.6,1.6-4,1.9-5.9,0.7c-3.6-2.3-7.6-3.9-11.8-4.9c-2.2-0.5-3.7-2.4-3.7-4.7v-5.9h-9.5v5.9c0,2.2-1.5,4.2-3.7,4.7
		c-4.2,1-8.2,2.6-11.8,4.9c-1.9,1.2-4.3,0.9-5.9-0.7l-4.2-4.2l-6.7,6.7l4.2,4.2c1.6,1.6,1.9,4,0.7,5.9c-2.3,3.6-3.9,7.6-4.9,11.8
		c-0.5,2.2-2.4,3.7-4.7,3.7h-5.9v9.5h5.9c2.2,0,4.2,1.5,4.7,3.7c1,4.2,2.6,8.2,4.9,11.8c1.2,1.9,0.9,4.3-0.7,5.9l-4.2,4.2l6.7,6.7
		l4.2-4.2c1.6-1.6,4-1.9,5.9-0.7c3.6,2.3,7.6,3.9,11.8,4.9c2.2,0.5,3.7,2.4,3.7,4.7V241.1z"/>
	<linearGradient id="SVGID_15_" gradientUnits="userSpaceOnUse" x1="180.5494" y1="217.2236" x2="180.5494" y2="169.5015">
		<stop  offset="0" style="stop-color:#01BEFF"/>
		<stop  offset="1" style="stop-color:#505DFF"/>
	</linearGradient>
	<path class="st14" d="M180.5,217.2c-13.2,0-23.9-10.7-23.9-23.9c0-13.2,10.7-23.9,23.9-23.9c13.2,0,23.9,10.7,23.9,23.9
		C204.4,206.5,193.7,217.2,180.5,217.2z M180.5,179c-7.9,0-14.3,6.4-14.3,14.3s6.4,14.3,14.3,14.3c7.9,0,14.3-6.4,14.3-14.3
		S188.5,179,180.5,179z"/>
	<linearGradient id="SVGID_16_" gradientUnits="userSpaceOnUse" x1="209.1827" y1="312.6678" x2="209.1827" y2="245.8568">
		<stop  offset="0" style="stop-color:#01BEFF"/>
		<stop  offset="1" style="stop-color:#505DFF"/>
	</linearGradient>
	<path class="st15" d="M185.3,312.7h-9.5v-19.1c0-2.6,2.1-4.8,4.8-4.8h7c0.8-2.7,1.9-5.3,3.2-7.7l-5-5c-1.9-1.9-1.9-4.9,0-6.7
		l13.5-13.5c1.9-1.9,4.9-1.9,6.7,0l5,4.9c2.5-1.3,5.1-2.4,7.7-3.2v-7c0-2.6,2.1-4.8,4.8-4.8h19.1v9.5h-14.3v5.9
		c0,2.2-1.5,4.2-3.7,4.7c-4.2,1-8.2,2.6-11.8,4.9c-1.9,1.2-4.3,0.9-5.9-0.7l-4.2-4.2l-6.7,6.7l4.2,4.2c1.6,1.6,1.9,4,0.7,5.9
		c-2.3,3.6-3.9,7.6-4.9,11.8c-0.5,2.2-2.4,3.7-4.7,3.7h-5.9L185.3,312.7z"/>
	<linearGradient id="SVGID_17_" gradientUnits="userSpaceOnUse" x1="221.1132" y1="303.1233" x2="221.1132" y2="279.2623">
		<stop  offset="0" style="stop-color:#01BEFF"/>
		<stop  offset="1" style="stop-color:#505DFF"/>
	</linearGradient>
	<path class="st16" d="M218.7,303.1h-9.5c0-13.2,10.7-23.8,23.9-23.9v9.5C225.1,288.8,218.7,295.2,218.7,303.1z"/>
	<linearGradient id="SVGID_18_" gradientUnits="userSpaceOnUse" x1="318.9435" y1="355.6176" x2="318.9435" y2="250.629">
		<stop  offset="0" style="stop-color:#01BEFF"/>
		<stop  offset="1" style="stop-color:#505DFF"/>
	</linearGradient>
	<path class="st17" d="M318.9,355.6c-29,0-52.5-23.5-52.5-52.5c0-29,23.5-52.5,52.5-52.5s52.5,23.5,52.5,52.5
		C371.4,332.1,347.9,355.6,318.9,355.6z M318.9,260.2c-23.7,0-42.9,19.2-42.9,42.9c0,23.7,19.2,42.9,42.9,42.9
		c23.7,0,42.9-19.2,42.9-42.9C361.9,279.4,342.7,260.2,318.9,260.2z"/>
	<linearGradient id="SVGID_19_" gradientUnits="userSpaceOnUse" x1="318.9435" y1="336.5288" x2="318.9435" y2="269.7189">
		<stop  offset="0" style="stop-color:#01BEFF"/>
		<stop  offset="1" style="stop-color:#505DFF"/>
	</linearGradient>
	<path class="st18" d="M309.4,336.5c-1.3,0-2.5-0.5-3.4-1.4l-23.9-23.9c-1.9-1.9-1.9-4.9,0-6.7l14.3-14.3c1.9-1.9,4.9-1.9,6.7,0
		l6.2,6.2l25.3-25.3c1.9-1.9,4.9-1.9,6.7,0l14.3,14.3c1.9,1.9,1.9,4.9,0,6.7l-42.9,42.9C311.9,336,310.7,336.5,309.4,336.5z
		 M292.3,307.9l17.1,17.1l36.2-36.2l-7.6-7.6l-25.3,25.3c-1.9,1.9-4.9,1.9-6.7,0l-6.2-6.2L292.3,307.9z"/>
	<linearGradient id="SVGID_20_" gradientUnits="userSpaceOnUse" x1="380.9822" y1="145.6404" x2="380.9822" y2="136.096">
		<stop  offset="0" style="stop-color:#01BEFF"/>
		<stop  offset="1" style="stop-color:#505DFF"/>
	</linearGradient>
	<path class="st19" d="M376.2,136.1h9.5v9.5h-9.5V136.1z"/>
	<linearGradient id="SVGID_21_" gradientUnits="userSpaceOnUse" x1="335.6462" y1="145.6404" x2="335.6462" y2="136.096">
		<stop  offset="0" style="stop-color:#01BEFF"/>
		<stop  offset="1" style="stop-color:#505DFF"/>
	</linearGradient>
	<path class="st20" d="M304.6,136.1h62v9.5h-62V136.1z"/>
</g>
<g>
	<linearGradient id="SVGID_22_" gradientUnits="userSpaceOnUse" x1="257.3095" y1="503.3905" x2="257.3095" y2="12.0095">
		<stop  offset="0" style="stop-color:#01BEFF"/>
		<stop  offset="1" style="stop-color:#505DFF"/>
	</linearGradient>
	<circle class="st21" cx="257.3" cy="257.7" r="240.7"/>
</g>
</svg>
