<?xml version="1.0" encoding="utf-8"?>
<!-- Generator: Adobe Illustrator 23.0.5, SVG Export Plug-In . SVG Version: 6.00 Build 0)  -->
<svg version="1.1" id="Layer_1" xmlns:svgjs="http://svgjs.com/svgjs"
	 xmlns="http://www.w3.org/2000/svg" xmlns:xlink="http://www.w3.org/1999/xlink" x="0px" y="0px" viewBox="0 0 512 512"
	 style="enable-background:new 0 0 512 512;" xml:space="preserve">
<style type="text/css">
	.st0{fill:url(#SVGID_1_);}
	.st1{fill:#FFFFFF;}
	.st2{fill:url(#SVGID_2_);}
</style>
<g>
	
		<linearGradient id="SVGID_1_" gradientUnits="userSpaceOnUse" x1="-125" y1="67.75" x2="-125" y2="7.25" gradientTransform="matrix(8 0 0 8 1256 -44)">
		<stop  offset="0" style="stop-color:#01BEFF"/>
		<stop  offset="1" style="stop-color:#505DFF"/>
	</linearGradient>
	<path class="st0" d="M357.5,193.5c-25.8,0-46.8,21-46.8,46.8s21,46.8,46.8,46.8s46.8-21,46.8-46.8S383.3,193.5,357.5,193.5z
		 M357.5,271.6c-17.2,0-31.2-14-31.2-31.2s14-31.2,31.2-31.2s31.2,14,31.2,31.2S374.7,271.6,357.5,271.6z M92.1,45.2H45.2V92H92
		L92.1,45.2L92.1,45.2z M76.5,76.5H60.8V60.8h15.6L76.5,76.5L76.5,76.5z M154.5,45.2h-46.8V92h46.8V45.2z M138.9,76.5h-15.6V60.8
		h15.6V76.5z M217,45.2h-46.8V92H217V45.2z M201.4,76.5h-15.6V60.8h15.6V76.5z M263.8,138.9H45.2v124.9h218.6L263.8,138.9
		L263.8,138.9z M248.2,248.2H60.8v-93.7h187.4V248.2z M466.8,316.3V37.4c0-12.9-10.5-23.4-23.4-23.4h-406C24.5,14,14,24.5,14,37.4
		V334c0,12.9,10.5,23.4,23.4,23.4H221c-2.6,8.2-4,16.8-4,25.8v13.3h36c-22.3,24.9-36.1,57.7-36.1,93.7v7.8h281v-7.8
		c0-36-13.7-68.8-36.1-93.7H498v-13.3C498,356.8,485.9,332.6,466.8,316.3z M37.4,29.6h405.9c4.3,0,7.8,3.5,7.8,7.8v39h-199
		l-23.4,31.2H29.6V37.4C29.6,33.1,33.1,29.6,37.4,29.6z M37.4,341.9c-4.3,0-7.8-3.5-7.8-7.8V123.3h206.9l23.4-31.2h191.3v213.5
		c-6.3-3.4-12.9-6-20-7.8c2.8-13.7,4.4-27.8,4.4-41.8c0-42.5-12.9-83.3-37.2-118.2l-9.9-14.1c-7.1-10.1-18.6-16.1-31-16.1
		c-12.3,0-23.9,6-31,16.1l-9.9,14.1c-24.4,34.8-37.3,75.7-37.3,118.2c0,14,1.5,28,4.4,41.8c-24.5,6.1-44.7,22.6-56.3,44.1
		L37.4,341.9L37.4,341.9z M393.2,354.5c-11.4-3-23.4-4.8-35.7-4.8c-12.4,0-24.3,1.8-35.7,4.8l-6.6-13.2c-1.2-2.3-2.2-4.7-3.3-7.1
		h91.3c-1.1,2.4-2.1,4.8-3.3,7.1L393.2,354.5z M409.3,318.5H305.6c-6.9-20-10.6-41.2-10.6-62.4c0-27.2,5.8-53.7,16.9-78.1h91.2
		c11,24.4,16.9,50.9,16.9,78.1C419.9,277.2,416.3,298.4,409.3,318.5L409.3,318.5z M319.8,162.3c3-5.3,6.2-10.5,9.7-15.5l9.9-14.1
		c4.1-5.9,10.9-9.5,18.2-9.5c7.2,0,14,3.5,18.2,9.5l9.9,14.1c3.5,5,6.7,10.2,9.7,15.5H319.8z M287.5,313c3.5,12.1,8,23.9,13.7,35.2
		l5.6,11.1c-13.6,5.3-26.2,12.6-37.4,21.6h-36.7C233.7,348.7,256.5,320.8,287.5,313L287.5,313z M268.3,461.7l14.1,5.8l6-14.4
		l-14-5.8c3.3-6.3,7.2-12.2,11.7-17.5l10.7,10.7l11-11l-10.7-10.7c5.4-4.5,11.2-8.5,17.5-11.7l5.8,14l14.4-6L329,401
		c6.6-2.1,13.5-3.5,20.7-4.1v15.2h15.6v-15.2c7.2,0.6,14.1,2,20.7,4.1l-5.8,14.1l14.4,6l5.8-14c6.3,3.3,12.2,7.2,17.5,11.7
		l-10.7,10.7l11,11l10.7-10.7c4.5,5.4,8.5,11.2,11.7,17.5l-14,5.8l6,14.4l14.1-5.8c2.1,6.6,3.5,13.5,4.1,20.7h-55
		c-3.1-15.3-15.2-27.3-30.5-30.4v-24.2h-15.6V452c-15.3,3.1-27.3,15.2-30.4,30.4h-55C264.8,475.2,266.2,468.3,268.3,461.7
		L268.3,461.7z M357.5,466.8c10.2,0,18.8,6.5,22,15.6h-44C338.7,473.3,347.3,466.8,357.5,466.8z M466.4,482.4
		c-4-56.6-51.3-101.5-108.9-101.5s-104.9,44.9-108.9,101.5h-15.8c4-65.2,58.4-117.1,124.7-117.1s120.6,51.9,124.7,117.1H466.4z
		 M445.6,380.9c-11.2-9-23.8-16.3-37.4-21.6l5.6-11.1c5.6-11.3,10.2-23.1,13.7-35.2c31,7.8,53.8,35.7,54.9,67.9L445.6,380.9
		L445.6,380.9z M60.8,295H45.2v-15.6h15.6C60.8,279.4,60.8,295,60.8,295z M76.5,279.4H217V295H76.5V279.4z M45.2,310.6H217v15.6
		H45.2V310.6z"/>
</g>
<rect x="309.8" y="192.7" class="st1" width="96.4" height="97.4"/>
<g>
	<linearGradient id="SVGID_2_" gradientUnits="userSpaceOnUse" x1="319.5999" y1="249.8" x2="395.4" y2="249.8">
		<stop  offset="0" style="stop-color:#01BEFF"/>
		<stop  offset="1" style="stop-color:#505DFF"/>
	</linearGradient>
	<path class="st2" d="M319.6,251.9h37.9l-16.8,54.7l54.7-71.6h-42.1l16.8-42.1h-33.7L319.6,251.9z"/>
</g>
</svg>
