<?xml version="1.0" encoding="utf-8"?>
<!-- Generator: Adobe Illustrator 23.0.5, SVG Export Plug-In . SVG Version: 6.00 Build 0)  -->
<svg version="1.1" id="Layer_1" xmlns="http://www.w3.org/2000/svg" xmlns:xlink="http://www.w3.org/1999/xlink" x="0px" y="0px"
	 viewBox="0 0 479.4 479.4" style="enable-background:new 0 0 479.4 479.4;" xml:space="preserve">
<style type="text/css">
	.st0{fill:none;stroke:url(#SVGID_1_);stroke-width:10;stroke-miterlimit:10;stroke-dasharray:9.9819,9.9819;}
	.st1{fill:url(#SVGID_2_);}
	.st2{fill:url(#SVGID_3_);}
	.st3{fill:url(#SVGID_4_);}
	.st4{fill:url(#SVGID_5_);}
	.st5{fill:url(#SVGID_6_);}
	.st6{fill:url(#SVGID_7_);}
	.st7{fill:url(#SVGID_8_);}
</style>
<g>
	<linearGradient id="SVGID_1_" gradientUnits="userSpaceOnUse" x1="240.3095" y1="469.1048" x2="240.3095" y2="14.2952">
		<stop  offset="0" style="stop-color:#01BEFF"/>
		<stop  offset="1" style="stop-color:#505DFF"/>
	</linearGradient>
	<circle class="st0" cx="240.3" cy="241.7" r="222.4"/>
</g>
<g>
	<g>
		<linearGradient id="SVGID_2_" gradientUnits="userSpaceOnUse" x1="239.7" y1="398.0069" x2="239.7" y2="81.3931">
			<stop  offset="0" style="stop-color:#01BEFF"/>
			<stop  offset="1" style="stop-color:#505DFF"/>
		</linearGradient>
		<path class="st1" d="M358.2,155.7h-9.5c0.3-2,0.3-3.8,0.3-5.8c0-2.7-0.3-5.8-0.7-8.5l8.8-5.8c5.8-3.8,7.5-11.6,4.1-17.7l-2.7-4.7
			c-3.4-6.1-11.3-8.5-17.4-5.1l-9.6,4.7c-4.4-3.8-9.6-6.5-14.6-8.5l-0.7-10.6c-0.3-6.8-6.1-12.3-13.3-12.3h-5.5
			c-6.8,0-12.9,5.5-13.3,12.3l-0.7,10.6c-5.5,2-10.2,4.7-14.6,8.5l-9.6-4.7c-6.1-3.1-14-0.7-17.4,5.1l-2.7,4.7
			c-3.4,6.1-1.7,13.7,4.1,17.7l8.8,5.8c-0.7,2.7-0.7,5.8-0.7,8.5c0,2,0,3.8,0.3,5.8h-24.5v-35.1c0-2.7-2.4-5.1-5.1-5.1H156
			c-2.7,0-5.1,2.4-5.1,5.1v35.1h-29.3c-8.2,0-14.6,6.5-14.6,14.6v156.2c0,8.2,6.5,14.6,14.6,14.6h76.4l-5.8,22.8h-31.7
			c-8.2,0-14.6,6.5-14.6,14.6v4.7c0,8.2,6.5,14.6,14.6,14.6h158.9c8.2,0,14.6-6.5,14.6-14.6v-4.7c0-8.2-6.5-14.6-14.6-14.6h-31.7
			l-6.1-22.5h76.4c8.2,0,14.6-6.5,14.6-14.6v-24.5v-132C372.9,162.2,366,155.7,358.2,155.7L358.2,155.7z M261.4,149.9
			c0-3.1,0.3-6.5,1.4-9.6c0.7-2-0.3-4.4-2-5.5l-11.9-7.8c-1.4-1.1-1.7-2.7-1.1-4.1l2.7-4.7c0.7-1.4,2.4-2,4.1-1.1l12.6,6.1
			c2,1.1,4.4,0.7,5.8-1.1c4.7-4.4,10.2-7.8,16.7-9.6c2-0.7,3.4-2.4,3.8-4.4l1-14.3c0-1.7,1.4-2.7,3.1-2.7h5.5c1.7,0,3.1,1.4,3.1,2.7
			l1.1,14c0,2,1.7,4.1,3.8,4.4c6.1,1.7,11.9,5.1,16.7,9.6c1.7,1.4,3.8,2,5.8,1.1l12.6-6.1c1.4-0.7,3.1,0,4.1,1.4l2.7,4.7
			c0.7,1.4,0.3,3.1-1.1,4.1l-11.5,7.9c-1.7,1.4-2.7,3.4-2,5.5c0.7,3.4,1.4,6.5,1.4,9.6c0,2-0.3,3.8-0.3,5.8h-11.6
			c0.3-2,0.7-3.8,0.7-5.8c0-15-12.3-27.3-27.3-27.3s-27.3,12.3-27.3,27.3c0,2,0.3,4.1,0.7,5.8h-11.6
			C261.7,153.7,261.4,152,261.4,149.9L261.4,149.9z M284.2,155.7c-0.7-1.7-1.1-3.8-1.1-5.8c0-9.6,7.5-17.1,17.1-17.1
			c9.2,0,17.1,7.5,17.1,17.1c0,2-0.3,4.1-1.1,5.8H284.2z M216.7,125.7v71.9c0,2.7,2.4,5.1,5.1,5.1h13.3l-46.1,62.4l-46-62.1h13.3
			c2.7,0,5.1-2.4,5.1-5.1v-72.3H216.7z M121.6,165.9h29.3v26.9h-18.1c-2,0-3.8,1.1-4.4,2.7c-0.7,1.7-0.7,3.8,0.3,5.5l56.3,75.7
			c1.1,1.4,2.4,2,4.1,2s3.1-0.7,4.1-2l56.3-75.7c1.1-1.7,1.4-3.8,0.3-5.5c-1.1-1.7-2.7-2.7-4.4-2.7h-18.1v-26.9h130.9
			c2.4,0,4.4,2,4.4,4.4v126.5H117.2V170.4C117.2,168,119.2,165.9,121.6,165.9L121.6,165.9z M323.8,378.7v4.7c0,2.4-2,4.4-4.4,4.4
			H160.5c-2.4,0-4.4-2-4.4-4.4v-4.7c0-2.4,2-4.4,4.4-4.4h158.9C321.7,374.3,323.8,376.3,323.8,378.7z M277.1,364h-74.3l6.1-22.5
			h62.1L277.1,364z M358.2,331.3H121.6c-2.4,0-4.4-2-4.4-4.4v-19.5h245.5v19.5C362.7,329.3,360.6,331.3,358.2,331.3L358.2,331.3z"/>
		<linearGradient id="SVGID_3_" gradientUnits="userSpaceOnUse" x1="300.0638" y1="285.6324" x2="300.0638" y2="182.6225">
			<stop  offset="0" style="stop-color:#01BEFF"/>
			<stop  offset="1" style="stop-color:#505DFF"/>
		</linearGradient>
		<path class="st2" d="M264.8,285.6h70.6c2.7,0,5.1-2.4,5.1-5.1v-92.7c0-2.7-2.4-5.1-5.1-5.1h-51.5c-1.4,0-2.7,0.7-3.8,1.4
			L261,203.1c-1.1,1.1-1.4,2.4-1.4,3.8v73.6C259.7,283.6,262,285.6,264.8,285.6L264.8,285.6z M269.9,209.3l16-16h44.3v82.5h-60.3
			V209.3z"/>
		<linearGradient id="SVGID_4_" gradientUnits="userSpaceOnUse" x1="300.0639" y1="218.8276" x2="300.0639" y2="208.5398">
			<stop  offset="0" style="stop-color:#01BEFF"/>
			<stop  offset="1" style="stop-color:#505DFF"/>
		</linearGradient>
		<path class="st3" d="M318.3,208.5h-36.5c-2.7,0-5.1,2.4-5.1,5.1s2.4,5.1,5.1,5.1h36.5c2.7,0,5.1-2.4,5.1-5.1
			C323.4,211,321.1,208.5,318.3,208.5z"/>
		<linearGradient id="SVGID_5_" gradientUnits="userSpaceOnUse" x1="300.0639" y1="241.7114" x2="300.0639" y2="231.4236">
			<stop  offset="0" style="stop-color:#01BEFF"/>
			<stop  offset="1" style="stop-color:#505DFF"/>
		</linearGradient>
		<path class="st4" d="M318.3,231.4h-36.5c-2.7,0-5.1,2.4-5.1,5.1s2.4,5.1,5.1,5.1h36.5c2.7,0,5.1-2.4,5.1-5.1
			C323.4,233.8,321.1,231.4,318.3,231.4z"/>
		<linearGradient id="SVGID_6_" gradientUnits="userSpaceOnUse" x1="300.0639" y1="264.5292" x2="300.0639" y2="254.2414">
			<stop  offset="0" style="stop-color:#01BEFF"/>
			<stop  offset="1" style="stop-color:#505DFF"/>
		</linearGradient>
		<path class="st5" d="M318.3,254.2h-36.5c-2.7,0-5.1,2.4-5.1,5.1c0,2.8,2.4,5.1,5.1,5.1h36.5c2.7,0,5.1-2.4,5.1-5.1
			C323.4,256.6,321.1,254.2,318.3,254.2z"/>
		<linearGradient id="SVGID_7_" gradientUnits="userSpaceOnUse" x1="298.4152" y1="324.5414" x2="298.4152" y2="314.2536">
			<stop  offset="0" style="stop-color:#01BEFF"/>
			<stop  offset="1" style="stop-color:#505DFF"/>
		</linearGradient>
		<path class="st6" d="M304.7,314.3h-12.6c-2.7,0-5.1,2.4-5.1,5.1s2.4,5.1,5.1,5.1h12.6c2.7,0,5.1-2.4,5.1-5.1
			C309.8,316.6,307.4,314.3,304.7,314.3z"/>
		<linearGradient id="SVGID_8_" gradientUnits="userSpaceOnUse" x1="332.51" y1="324.5414" x2="332.51" y2="314.2536">
			<stop  offset="0" style="stop-color:#01BEFF"/>
			<stop  offset="1" style="stop-color:#505DFF"/>
		</linearGradient>
		<path class="st7" d="M338.8,314.3h-12.6c-2.7,0-5.1,2.4-5.1,5.1s2.4,5.1,5.1,5.1h12.6c2.7,0,5.1-2.4,5.1-5.1
			C343.9,316.6,341.5,314.3,338.8,314.3z"/>
	</g>
</g>
</svg>
