<?xml version="1.0" encoding="utf-8"?>
<!-- Generator: Adobe Illustrator 23.0.5, SVG Export Plug-In . SVG Version: 6.00 Build 0)  -->
<svg version="1.1" id="Layer_1" xmlns:svgjs="http://svgjs.com/svgjs"
	 xmlns="http://www.w3.org/2000/svg" xmlns:xlink="http://www.w3.org/1999/xlink" x="0px" y="0px" viewBox="0 0 512 512"
	 style="enable-background:new 0 0 512 512;" xml:space="preserve">
<style type="text/css">
	.st0{fill:url(#SVGID_1_);}
	.st1{fill:url(#SVGID_2_);}
	.st2{fill:url(#SVGID_3_);}
</style>
<g>
	<linearGradient id="SVGID_1_" gradientUnits="userSpaceOnUse" x1="49" y1="255.9963" x2="465" y2="255.9963">
		<stop  offset="0" style="stop-color:#01BEFF"/>
		<stop  offset="1" style="stop-color:#505DFF"/>
	</linearGradient>
	<path class="st0" d="M461.7,49.8c-2.1-1.5-4.7-2-7.1-1.2c-33.3,8.7-68.3,9.2-101.9,1.6c-34-7.1-65.4-23.6-90.6-47.5
		c-1.6-1.6-3.8-2.6-6-2.7c-2.3,0-4.5,1-6,2.8c-0.3,0.3-29.4,33.5-88.8,47.4c-33.6,7.7-68.5,7.1-101.9-1.5c-4.2-1.3-8.7,1-10,5.2
		c-0.2,0.8-0.4,1.6-0.4,2.4V333c0.1,43,24,82.5,62.1,102.5l141.2,75.5c2.3,1.2,5.2,1.2,7.5,0l143-75.5c38.1-20,62-59.5,62.1-102.5
		V56.2C465,53.7,463.8,51.3,461.7,49.8z M449,333c-0.1,37.1-20.7,71.1-53.6,88.4l-139.2,73.5l-137.5-73.5
		C85.8,404.1,65.1,370.1,65,333V66.5c33,7,67,6.7,99.9-0.8c34-7.3,65.5-23.3,91.4-46.4c26.6,23,58.5,39,92.8,46.5
		c32.9,7.5,67,7.8,99.9,0.8V333z"/>
	<linearGradient id="SVGID_2_" gradientUnits="userSpaceOnUse" x1="81" y1="259.013" x2="433.08" y2="259.013">
		<stop  offset="0" style="stop-color:#01BEFF"/>
		<stop  offset="1" style="stop-color:#505DFF"/>
	</linearGradient>
	<path class="st1" d="M261.2,43.8c-2.8-2-6.6-2-9.4,0.1c-24.9,18-53.2,30.8-83.2,37.5c-25.8,5.9-52.4,7.6-78.8,5.1
		c-2.2-0.2-4.5,0.5-6.1,2.1C82,90,81,92.1,81,94.4V333c0.1,31.2,17.5,59.8,45.2,74.3l126.3,67.5c1.2,0.6,2.5,0.9,3.8,0.9
		c1.3,0,2.6-0.3,3.7-0.9l127.8-67.6c27.7-14.5,45-43.1,45.2-74.3V160.5c0-4.4-3.6-8-8-8s-8,3.6-8,8V333
		c-0.1,25.3-14.2,48.4-36.7,60.2l-124.1,65.6l-122.5-65.5C111.3,381.5,97.1,358.3,97,333V103c25.2,1.6,50.6-0.5,75.2-6.1
		c30.2-6.8,58.9-19.3,84.4-36.8c25.9,17.4,54.8,29.9,85.3,36.8c24.6,5.6,50,7.7,75.2,6.1v24.6c0,4.4,3.6,8,8,8s8-3.6,8-8V94.4
		c0-2.3-1-4.4-2.6-5.9c-1.7-1.5-3.9-2.3-6.1-2.1c-26.4,2.5-53,0.8-78.8-5.1C315.2,74.5,286.6,61.7,261.2,43.8z"/>
	<linearGradient id="SVGID_3_" gradientUnits="userSpaceOnUse" x1="120.552" y1="232" x2="393" y2="232">
		<stop  offset="0" style="stop-color:#01BEFF"/>
		<stop  offset="1" style="stop-color:#505DFF"/>
	</linearGradient>
	<path class="st2" d="M393,232c0-13.3-10.7-24-24-24h-70.4c11-14.2,24.9-37.8,22.4-64.6c-1.7-18.5-13.2-31.4-28.1-31.4
		c-22.8,0-26.7,22.1-28.1,30.5c-2.3,11.6-9.7,21.5-20.2,26.9c-4,2.6-7.1,4.4-9.8,5.9c-5.7,2.9-10.9,6.6-15.4,11.1
		c-6.4,6.3-11.7,13.6-15.7,21.7H185v-7.7c0-4.4-3.6-8-8-8h-48.4c-4.4,0-8,3.6-8,8v127.2c0,4.4,3.6,8,8,8H177c4.4,0,8-3.6,8-8V320
		h21.2l37.8,30.2c1.4,1.1,3.2,1.8,5,1.8h96c13.3,0,24-10.7,24-24c0-4.1-1.1-8.2-3.1-11.8c10.7-6.9,14.2-20.9,8-32
		c10.7-6.9,14.2-20.9,8-32C388.8,247.8,393,240.2,393,232z M169,319.5h-32.4V208.3H169V319.5z M369,240h-8c-4.4,0-8,3.6-8,8
		s3.6,8,8,8s8,3.6,8,8s-3.6,8-8,8h-8c-4.4,0-8,3.6-8,8s3.6,8,8,8s8,3.6,8,8s-3.6,8-8,8h-8c-4.4,0-8,3.6-8,8s3.6,8,8,8s8,3.6,8,8
		s-3.6,8-8,8h-93.2L214,305.8c-1.4-1.1-3.2-1.8-5-1.8h-24v-80h24c3.5,0,6.6-2.3,7.7-5.7c3.1-7.8,7.9-14.9,14-20.7
		c3.5-3.4,7.5-6.3,11.8-8.4c3.1-1.7,6.5-3.6,11-6.6c14.2-7.8,24.1-21.5,27.1-37.4c2.6-14.7,6-17.2,12.4-17.2s11.3,6.9,12.2,16.8
		c3.2,34.7-29.5,65-29.8,65.3c-3.3,3-3.5,8-0.6,11.3c1.5,1.7,3.7,2.7,6,2.6H369c4.4,0,8,3.6,8,8S373.4,240,369,240z"/>
</g>
</svg>
