<?xml version="1.0" encoding="utf-8"?>
<!-- Generator: Adobe Illustrator 23.0.5, SVG Export Plug-In . SVG Version: 6.00 Build 0)  -->
<svg version="1.1" id="Layer_1" xmlns:svgjs="http://svgjs.com/svgjs"
	 xmlns="http://www.w3.org/2000/svg" xmlns:xlink="http://www.w3.org/1999/xlink" x="0px" y="0px" viewBox="0 0 512 512"
	 style="enable-background:new 0 0 512 512;" xml:space="preserve">
<style type="text/css">
	.st0{fill:url(#SVGID_1_);}
	.st1{fill:url(#SVGID_2_);}
	.st2{fill:url(#SVGID_3_);}
	.st3{fill:url(#SVGID_4_);}
	.st4{fill:url(#SVGID_5_);}
	.st5{fill:url(#SVGID_6_);}
</style>
<g>
	<g>
		<linearGradient id="SVGID_1_" gradientUnits="userSpaceOnUse" x1="256.9359" y1="296.9579" x2="349.9687" y2="296.9579">
			<stop  offset="0" style="stop-color:#01BEFF"/>
			<stop  offset="1" style="stop-color:#505DFF"/>
		</linearGradient>
		<path class="st0" d="M269.7,263.1L257,341.8c-0.7,4.2,4.5,6.7,7.3,3.6l84.5-91.1c2.8-3,0.2-7.8-3.9-7.1l-71.8,12.4
			C271.4,259.9,270,261.3,269.7,263.1L269.7,263.1z"/>
		<linearGradient id="SVGID_2_" gradientUnits="userSpaceOnUse" x1="195.6618" y1="208.6642" x2="302.0968" y2="208.6642">
			<stop  offset="0" style="stop-color:#01BEFF"/>
			<stop  offset="1" style="stop-color:#505DFF"/>
		</linearGradient>
		<path class="st1" d="M264.2,237l37-47.1c2.1-2.7,0.3-6.7-3.2-6.9l-97.9-4.3c-4.1-0.2-6,4.9-2.9,7.5l60.9,51.4
			C260,239.2,262.7,238.9,264.2,237L264.2,237z"/>
		<linearGradient id="SVGID_3_" gradientUnits="userSpaceOnUse" x1="101.4" y1="255.9146" x2="410.6" y2="255.9146">
			<stop  offset="0" style="stop-color:#01BEFF"/>
			<stop  offset="1" style="stop-color:#505DFF"/>
		</linearGradient>
		<path class="st2" d="M305.9,109.6C205.7,75.5,101.4,149.8,101.4,256c0,85.3,69.4,154.6,154.6,154.6S410.6,341.3,410.6,256
			C410.6,189.8,368.6,131,305.9,109.6z M387,238.2C238.1,398.8,247.7,388.7,245.8,389.8c-4.5,2.4-10.1,0.3-12-4.5
			c-0.1-0.2-78.9-213.8-79.1-214.7c-1.4-5.5,2.9-10.8,8.5-10.6c0.4,0,160.2,7.1,160.9,7.1c1.6,0.2,3.2,0.8,4.4,1.8
			c0.5,0.4,58.2,57.4,58.8,58.1C390.1,230.3,389.9,235.1,387,238.2L387,238.2z"/>
		<linearGradient id="SVGID_4_" gradientUnits="userSpaceOnUse" x1="1.249583e-02" y1="256" x2="511.975" y2="256">
			<stop  offset="0" style="stop-color:#01BEFF"/>
			<stop  offset="1" style="stop-color:#505DFF"/>
		</linearGradient>
		<path class="st3" d="M437,75C337-25,174.8-25.1,74.8,75.2C-24.9,175.2-25,336.9,75,437c100,100,262.1,100.1,362.1-0.2
			C536.9,336.8,537,175.1,437,75L437,75z M45.4,215.6c0.8-4,1.6-8,2.6-11.9c1.1-4.6,5.8-7.3,10.3-6.2c4.6,1.1,7.3,5.8,6.2,10.3
			c-0.9,3.6-1.7,7.3-2.4,11c-0.9,4.6-5.3,7.7-10,6.8C47.6,224.7,44.6,220.3,45.4,215.6L45.4,215.6z M59.3,317.4
			c-4.6,1.2-9.2-1.5-10.4-6c-1-3.9-2-7.9-2.8-11.9c-1-4.6,2-9.1,6.6-10.1s9.1,2,10.1,6.6c0.8,3.7,1.6,7.3,2.6,10.9
			C66.6,311.5,63.9,316.2,59.3,317.4z M404.5,113.2c3.5-3.1,8.9-2.8,12,0.7c2.7,3,5.3,6.2,7.8,9.4c4.4,5.6,0.3,13.8-6.7,13.8
			c-2.5,0-5-1.1-6.7-3.2c-2.3-2.9-4.7-5.8-7.2-8.6C400.6,121.7,401,116.3,404.5,113.2L404.5,113.2z M327.5,62.8
			c1.8-4.3,6.8-6.4,11.2-4.6c3.7,1.6,7.5,3.3,11.1,5c4.2,2.1,6,7.2,3.9,11.4c-1.5,3-4.5,4.8-7.7,4.8s-3.3-1.1-14-5.5
			C327.8,72.1,325.7,67.1,327.5,62.8z M249.7,41.7c4-0.1,8.1-0.1,12.2,0c4.7,0.1,8.4,4.1,8.3,8.8s-4,8.4-8.8,8.3
			c-3.8-0.1-7.5-0.1-11.3,0c-4.6,0.1-8.6-3.5-8.8-8.3C241.3,45.8,245,41.9,249.7,41.7L249.7,41.7z M157,65.9c3.6-1.9,7.3-3.7,11-5.3
			c4.3-1.9,9.3,0,11.3,4.3s0,9.3-4.3,11.3c-3.4,1.5-6.8,3.2-10.1,4.9c-4.2,2.2-9.3,0.6-11.5-3.6C151.2,73.2,152.8,68,157,65.9z
			 M84.1,128c2.4-3.2,5-6.5,7.6-9.6c3-3.6,8.4-4.1,12-1.1s4.1,8.4,1.1,12c-2.4,2.9-4.7,5.8-7,8.8c-2.8,3.8-8.1,4.6-11.9,1.7
			C82,137.1,81.2,131.8,84.1,128z M105.7,396.9c-3.6,3.1-9,2.7-12-0.9c-2.7-3.1-5.2-6.3-7.7-9.5c-2.9-3.7-2.2-9.1,1.6-12
			c3.7-2.9,9.1-2.2,12,1.6c2.3,3,4.7,5.9,7.1,8.7C109.7,388.4,109.3,393.8,105.7,396.9z M182.1,448.3c-1.9,4.3-6.9,6.3-11.2,4.4
			c-3.7-1.6-7.4-3.3-11-5.2c-4.2-2.1-5.9-7.2-3.8-11.5c2.1-4.2,7.2-5.9,11.5-3.8c3.3,1.7,6.7,3.3,10.2,4.8
			C181.9,439,183.9,444,182.1,448.3L182.1,448.3z M265,470.2c-3.9,0.2-8,0.2-12.2,0.2c-4.7-0.1-8.5-4-8.4-8.7s4-8.5,8.7-8.4
			c3.8,0.1,7.5,0,11.2-0.1c4.7-0.2,8.7,3.5,8.9,8.2C273.4,466,269.7,470,265,470.2L265,470.2z M357.4,444.9
			c-3.6,1.9-7.3,3.8-10.9,5.5c-4.3,2-9.3,0.2-11.3-4.1c-2-4.3-0.1-9.3,4.1-11.3c3.4-1.6,6.8-3.3,10.1-5c4.1-2.2,9.3-0.7,11.6,3.5
			C363.1,437.5,361.6,442.6,357.4,444.9z M256,427.7c-94.7,0-171.7-77-171.7-171.7C84.3,137.3,201,55.9,311.4,93.4
			c69.5,23.7,116.3,89,116.3,162.6C427.7,350.7,350.7,427.7,256,427.7L256,427.7z M429.5,381.9c-2.4,3.3-4.9,6.5-7.5,9.7
			c-1.7,2.1-4.1,3.1-6.6,3.1c-7.1,0-11.2-8.3-6.6-13.9c2.4-2.9,4.7-5.9,6.9-8.9c2.8-3.8,8.1-4.7,11.9-1.9
			C431.5,372.7,432.3,378,429.5,381.9z M451.9,192.1c4.5-1.3,9.2,1.4,10.5,5.9c1.1,3.9,2.1,7.9,3,11.9c1.2,5.3-2.9,10.4-8.3,10.4
			c-3.9,0-7.5-2.7-8.3-6.7c-0.8-3.6-1.7-7.3-2.7-10.9C444.7,198.1,447.4,193.4,451.9,192.1L451.9,192.1z M464.6,305.7
			c-1.1,4.6-5.7,7.4-10.3,6.3c-4.6-1.1-7.4-5.7-6.3-10.3c0.9-3.6,1.6-7.3,2.3-11c0.8-4.6,5.2-7.7,9.9-6.9c4.6,0.8,7.7,5.3,6.9,9.9
			C466.3,297.7,465.5,301.7,464.6,305.7z"/>
		<linearGradient id="SVGID_5_" gradientUnits="userSpaceOnUse" x1="289.0765" y1="214.6202" x2="358.3289" y2="214.6202">
			<stop  offset="0" style="stop-color:#01BEFF"/>
			<stop  offset="1" style="stop-color:#505DFF"/>
		</linearGradient>
		<path class="st4" d="M357.1,221l-29.6-29.2c-1.8-1.8-4.8-1.6-6.4,0.4L290,231.8c-2.4,3.1,0.2,7.5,4.1,6.8l60.7-10.5
			C358.2,227.6,359.5,223.4,357.1,221z"/>
		<linearGradient id="SVGID_6_" gradientUnits="userSpaceOnUse" x1="187.5218" y1="270.774" x2="253.2429" y2="270.774">
			<stop  offset="0" style="stop-color:#01BEFF"/>
			<stop  offset="1" style="stop-color:#505DFF"/>
		</linearGradient>
		<path class="st5" d="M187.8,211L233,333.5c1.5,4.1,7.5,3.5,8.2-0.8l12-74.3c0.2-1.5-0.3-3-1.5-3.9l-57.2-48.2
			C191.2,203.5,186.3,206.9,187.8,211L187.8,211z"/>
	</g>
</g>
</svg>
