<?xml version="1.0" encoding="utf-8"?>
<!-- Generator: Adobe Illustrator 23.0.5, SVG Export Plug-In . SVG Version: 6.00 Build 0)  -->
<svg version="1.1" id="Layer_1" xmlns:svgjs="http://svgjs.com/svgjs"
	 xmlns="http://www.w3.org/2000/svg" xmlns:xlink="http://www.w3.org/1999/xlink" x="0px" y="0px" viewBox="0 0 512 512"
	 style="enable-background:new 0 0 512 512;" xml:space="preserve">
<style type="text/css">
	.st0{fill-rule:evenodd;clip-rule:evenodd;fill:url(#SVGID_1_);}
</style>
<g>
	
		<linearGradient id="SVGID_1_" gradientUnits="userSpaceOnUse" x1="302.9985" y1="-41.756" x2="302.9995" y2="441.7639" gradientTransform="matrix(1 0 0 -1 -46 456)">
		<stop  offset="0" style="stop-color:#01BEFF"/>
		<stop  offset="1" style="stop-color:#505DFF"/>
	</linearGradient>
	<path class="st0" d="M221.6,108c-2.6-3.6-1.8-8.5,1.8-11.1s8.5-1.8,11.1,1.8l12.2,16.8l40.7-33.3c3.4-2.8,8.4-2.3,11.2,1.2
		c2.8,3.4,2.3,8.4-1.1,11.2l-47.1,38.6c-3.4,2.8-8.5,2.3-11.3-1.1c-0.1-0.1-0.2-0.2-0.3-0.3L221.6,108L221.6,108z M257,30.2
		c-42.8,0-77.4,34.7-77.4,77.4c0,42.8,34.7,77.4,77.4,77.4c42.8,0,77.4-34.7,77.4-77.4c0,0,0,0,0,0C334.4,64.9,299.8,30.2,257,30.2z
		 M257,201c51.6,0,93.4-41.8,93.4-93.4S308.6,14.2,257,14.2s-93.4,41.8-93.4,93.4c0,0,0,0,0,0C163.7,159.2,205.5,200.9,257,201z
		 M86.6,194.1l42.3,24.5L63.2,332.4l-42.3-24.5L86.6,194.1z M190.4,240.7l-56.3,0.7L83,329.9l32.6,19.1l28-28
		c5.9-5.9,13.9-9.2,22.2-9.2c17.3,0,31.3,14,31.4,31.3c0,0.6,0,1.3-0.1,1.9c17.3-1,32.1,12.1,33.1,29.4c0,0.6,0.1,1.3,0.1,1.9
		c0,0.6,0,1.2,0,1.8c8.9-0.5,17.7,2.8,24,9.1c0.6,0.6,1.2,1.3,1.7,1.9c5-2.6,10.6-3.8,16.2-3.4c0-0.6-0.1-1.2-0.1-1.8
		c-0.1-17.3,13.9-31.3,31.2-31.4c0.7,0,1.3,0,2,0.1c0-0.6,0-1.2,0-1.8c0-12.3,7.2-23.5,18.4-28.6l-45.2-33.9c-1.7-1.2-3.7-2-5.7-2.1
		l-9.3-0.8c-4.6-0.5-9.1,1.8-11.4,5.9l-12.4,20.3c-3.6,6.1-10.5,9.4-17.5,8.5l-18.8-2.3c-9.8-1.3-16.8-10.2-15.5-20.1
		c0.1-0.9,0.3-1.8,0.5-2.6l9.8-34.9c2.1-7.7,7.4-14,14.5-17.5l25.4-12.5l-4.9-2.5c-3.4-1.9-7.6-2-11.1-0.1l-19.6,10.1
		C198.7,239.7,194.6,240.7,190.4,240.7L190.4,240.7z M275,229.8c2.8-1.5,6.1-1.7,9.1-0.6l62.1,20.7c7.8,2.7,16.3,2.5,24-0.5
		l11.8-4.5l44.3,76.8L379,348.9l-20.2-20.2c-2.1-2.2-4.6-4-7.3-5.4L288,275.6c-4.1-3-8.9-4.8-13.9-5.2l-9.4-0.8
		c-10.7-1-21,4.2-26.4,13.5L226,303.5c-0.4,0.7-1.2,1.1-1.9,0.9l-18.8-2.4c-1.1-0.1-1.8-1-1.7-2.1c0-0.1,0-0.3,0.1-0.4l9.9-35
		c0.8-3.3,3.1-6.1,6.2-7.5L275,229.8L275,229.8z M427.5,194.1l-42.3,24.5l65.7,113.8l42.3-24.5L427.5,194.1z M375.5,389.8
		c-6,6-15.8,6-21.9,0l-28-28.1c-6.2-5.9-6.4-15.7-0.5-21.8c5.9-6.2,15.7-6.4,21.8-0.5c0.2,0.2,0.3,0.3,0.5,0.5l28,28
		C381.5,374,381.5,383.8,375.5,389.8L375.5,389.8z M342.4,422.9c-2.9,2.9-6.8,4.5-10.9,4.5c-4.1,0-8-1.6-10.9-4.5l-28-28
		c-6-6.1-5.8-15.9,0.3-21.9c6-5.8,15.6-5.8,21.6,0l28,28C348.4,407,348.5,416.8,342.4,422.9C342.4,422.9,342.4,422.9,342.4,422.9
		L342.4,422.9z M309.3,456c6-6,6-15.8,0-21.9l-28.1-28c-4.9-4.9-12.4-5.9-18.4-2.6c0.8,4.1,0.8,8.4-0.1,12.5
		c5.4,0.9,10.4,3.4,14.3,7.3c7.3,7.4,9.6,18.3,5.9,28l1.6,1.6c0.8,0.8,1.4,1.6,2.1,2.3c0.3,0.2,0.6,0.5,0.9,0.8
		C293.5,462,303.3,462,309.3,456L309.3,456z M273.2,478.8c-4,4-10.5,4-14.6,0.1l14.6-14.7C277.2,468.3,277.2,474.8,273.2,478.8z
		 M229.2,471.2c-4-4-4-10.6,0-14.6c0,0,0,0,0,0l21.9-21.9c4.1-4,10.6-4,14.7,0.1c4,4,4,10.6,0,14.6l-21.9,21.9
		C239.8,475.2,233.2,475.2,229.2,471.2L229.2,471.2z M193.1,448.4c6,6,15.8,6,21.9,0c0.2-0.3,0.5-0.5,0.8-0.7
		c0.7-0.8,1.4-1.6,2.1-2.4l21.9-21.9c0.8-0.8,1.6-1.5,2.4-2.1c0.2-0.3,0.5-0.6,0.8-0.8c6.1-6,6.2-15.8,0.2-21.9
		c-6-6.1-15.8-6.2-21.9-0.2c-0.1,0.1-0.1,0.1-0.2,0.2l-28,28C187.1,432.6,187.1,442.4,193.1,448.4L193.1,448.4z M160,415.3
		c-6-6-6-15.8,0-21.9l28-28.1c6-6,15.8-6,21.8,0c2.9,2.9,4.5,6.9,4.5,11c0,4.1-1.6,8-4.5,10.9l-28,28.1
		C175.8,421.3,166,421.3,160,415.3L160,415.3z M126.8,382.2c6,6,15.8,6,21.9,0l28.1-28c6-6,6-15.8,0-21.8c-2.9-2.9-6.9-4.5-11-4.5
		c-4.1,0-8,1.6-10.9,4.5l-28.1,28C120.9,366.4,120.9,376.1,126.8,382.2z M6,317.7c-1.8-1.1-3.2-2.8-3.7-4.8c-0.5-2-0.2-4.2,0.8-6
		l73.7-127.6c2.2-3.8,7-5.1,10.8-2.9c0,0,0,0,0,0l56.2,32.4c3.8,2.2,5.1,7.1,2.9,10.9c0,0,0,0,0,0l-3.3,5.7l46.9-0.6
		c1.7,0,3.4-0.5,4.8-1.3l19.6-10.1c8.1-4.2,17.8-4.1,25.8,0.2l14.7,7.8c0.1,0.1,0.2,0.1,0.3,0.2l12.4-6.1c6.6-3.3,14.2-3.8,21.1-1.5
		l62.1,20.7c4.3,1.5,9.1,1.5,13.3-0.2l9.3-3.5l-6.5-11.3c-1-1.8-1.3-4-0.8-6.1c0.6-2.1,1.9-3.8,3.8-4.8l56.2-32.4
		c3.8-2.2,8.6-0.9,10.8,2.9c0,0,0,0,0,0L511,306.9c1,1.8,1.3,4,0.8,6c-0.5,2.1-1.9,3.8-3.7,4.8l-56.2,32.4c-1.2,0.7-2.6,1.1-3.9,1.1
		c-2.9,0-5.5-1.5-6.9-4l-6.8-11.8l-44,25.3c10,14.2,6.6,33.7-7.5,43.7c-5.3,3.7-11.6,5.7-18.1,5.7c-0.6,0-1.2,0-1.8-0.1
		c1,17.3-12.1,32.1-29.4,33.1c-0.6,0-1.3,0.1-1.9,0.1c-0.6,0-1.2,0-1.8,0c1,17.3-12.2,32.1-29.5,33.1c-0.6,0-1.2,0.1-1.8,0.1
		c-2.2,0-4.4-0.2-6.5-0.7c-0.9,5.4-3.5,10.4-7.3,14.3c-10.3,10.2-26.9,10.2-37.2,0l-1.6-1.6c-13.6,5.1-28.7-1.7-33.8-15.3
		c-0.6-1.6-1.1-3.3-1.3-5c-2.2,0.5-4.4,0.7-6.6,0.7c-17.3,0-31.3-13.9-31.3-31.2c0,0,0-0.1,0-0.1c0-0.6,0-1.2,0-1.8
		c-0.6,0-1.2,0-1.8,0c-17.3,0-31.3-14-31.3-31.2c0,0,0-0.1,0-0.1c0-0.6,0-1.2,0.1-1.8c-0.6,0-1.2,0-1.8,0c-8.3,0-16.3-3.3-22.2-9.2
		c-8-8-11.1-19.8-8-30.7l-32.5-19l-2,3.5c-1.4,2.5-4.1,4-6.9,4c-1.4,0-2.8-0.4-3.9-1.1L6,317.7z"/>
</g>
</svg>
