<?xml version="1.0" encoding="utf-8"?>
<!-- Generator: Adobe Illustrator 23.0.5, SVG Export Plug-In . SVG Version: 6.00 Build 0)  -->
<svg version="1.1" id="Layer_1" xmlns:svgjs="http://svgjs.com/svgjs"
	 xmlns="http://www.w3.org/2000/svg" xmlns:xlink="http://www.w3.org/1999/xlink" x="0px" y="0px" viewBox="0 0 512 512"
	 style="enable-background:new 0 0 512 512;" xml:space="preserve">
<style type="text/css">
	.st0{fill:url(#_x35__1_);}
	.st1{fill:url(#_x34__1_);}
	.st2{fill:url(#_x33__1_);}
	.st3{fill:url(#_x32__1_);}
	.st4{fill:url(#_x31__1_);}
</style>
<g>
	<g>
		<linearGradient id="_x35__1_" gradientUnits="userSpaceOnUse" x1="14.3217" y1="322.4216" x2="365.0371" y2="322.4216">
			<stop  offset="0" style="stop-color:#01BEFF"/>
			<stop  offset="1" style="stop-color:#505DFF"/>
		</linearGradient>
		<path id="_x35_" class="st0" d="M218.9,189.5c15.6,3.4,30.6,9.6,44.1,18.3l24.1-18.1c3-2.1,6.2-3.1,9.2-3.1c3.6,0,7,1.5,9.4,4
			c5.4,5.2,10.6,10.5,15.8,15.7c2.6,2.6,3.9,5.9,4,9.4c0,3.1-1,6.3-3.1,9.3l-18.1,24c8.7,13.6,14.9,28.5,18.3,44.2l29.8,4.3
			c3.6,0.4,6.6,2,8.8,4.3c2.5,2.6,3.9,6,3.9,9.4v11.2v11.1c0,3.4-1.4,6.9-3.9,9.4c-2.1,2.3-5.1,3.9-8.8,4.4l-29.8,4.2
			c-3.4,15.7-9.6,30.7-18.3,44.2l18.1,24.1c2.1,2.9,3.1,6.1,3.1,9.2c-0.1,3.6-1.6,7.4-4.4,9.8c-5.1,5.1-10.3,10.3-15.4,15.4
			c-2.5,2.5-5.9,3.9-9.4,3.9c-3,0.1-6.2-0.9-9.2-3.1L263,437c-6.7,4.4-13.8,8.1-21.2,11.1c-7.4,3.1-15,5.6-22.9,7.3l-4.3,29.8
			c-0.5,3.5-2.1,6.5-4.3,8.7c-2.7,2.6-6,4-9.4,4h-11.2h-11.1c-3.5,0-6.9-1.4-9.4-4c-2.3-2.1-3.9-5.1-4.4-8.7l-4.3-29.8
			c-7.8-1.7-15.5-4.2-22.8-7.3c-7.5-3-14.6-6.7-21.3-11.1L92.3,455c-2.9,2.3-6.1,3.2-9.2,3.1c-3.6,0-7-1.4-9.4-3.9
			c-1.3-1.4-15.8-15.8-15.8-15.8c-2.5-2.5-3.9-5.8-4-9.4c0-3.1,1-6.3,3.2-9.2l18-24.1c-4.3-6.7-8-13.9-11.1-21.3
			c-3-7.4-5.5-15-7.2-22.9L27,347.4c-3.6-0.5-6.5-2.1-8.8-4.4c-2.5-2.6-3.9-6-3.9-9.4v-11.1v-11.2c0-3.4,1.4-6.9,3.9-9.4
			c2.2-2.2,5.1-3.9,8.8-4.3l29.8-4.3c1.7-7.9,4.2-15.5,7.2-22.9c3.1-7.4,6.9-14.6,11.1-21.3l-18-24c-2.2-3-3.2-6.2-3.2-9.3
			c0.1-3.5,1.5-6.9,4-9.4c5.2-5.2,10.6-10.5,15.8-15.8c2.5-2.4,5.8-3.9,9.4-3.9c3.1,0,6.3,1,9.2,3.1l24.1,18.1
			c6.7-4.4,13.8-8.1,21.3-11.1c7.3-3.1,15-5.5,22.8-7.2l4.3-29.8c0.5-3.6,2.1-6.6,4.4-8.8c2.6-2.6,5.9-3.9,9.4-3.9h11.1h11.2
			c3.4,0,6.7,1.3,9.4,3.9c2.1,2.1,3.7,5.1,4.3,8.8L218.9,189.5z M210.6,203.2c-3.2-0.5-5.4-3-5.9-6.3l-4.9-34.7h-10.1h-10.1
			l-4.9,34.4c-0.3,3.3-2.8,6.1-6.2,6.7c-8.7,1.5-17.1,4-25,7.3c-8.1,3.3-15.8,7.6-22.9,12.4c-2.6,2-6.2,2-9,0l-28-21.1l-7.1,7.2
			l-7.2,7.2l21,27.9c1.9,2.6,2.1,6.1,0.2,8.9c-4.9,7.2-9.2,14.9-12.6,23c-3.2,8-5.7,16.2-7.3,24.9v0.2c-0.5,3.1-3,5.7-6.3,6.1
			l-34.8,5v10.1v10.1l34.4,4.8c3.3,0.3,6.1,2.9,6.7,6.2c1.5,8.8,4.1,17.2,7.3,25.2c3.4,8.1,7.6,15.7,12.5,22.8c1.9,2.7,2,6.3,0,9
			l-21.1,28.2l7.2,7.1l7.1,7.2l27.9-21c2.6-2,6.2-2.1,9-0.2c7.1,4.9,14.8,9.2,23,12.5c7.9,3.3,16.2,5.8,24.9,7.3l0.2,0.1
			c3.1,0.5,5.6,3,6.1,6.3l4.9,34.8h10.1h10.1l4.9-34.4c0.3-3.3,2.8-6.2,6.2-6.7c8.8-1.6,17.1-4.1,25.2-7.4
			c8.1-3.3,15.7-7.5,22.8-12.4c2.6-1.9,6.2-2,9,0l28.1,21.1l7.2-7.2l7.1-7.1l-21-28c-1.9-2.5-2.1-6.1-0.2-8.9
			c10.1-14.5,16.8-30.6,19.9-48v-0.1c0.5-3.2,3.1-5.8,6.4-6.2l34.7-4.9v-10.1v-10.1l-34.4-4.9c-3.3-0.3-6.1-2.8-6.7-6.2
			c-3-17.2-9.7-33.6-19.8-48c-1.9-2.6-2-6.3,0.1-9l21-28l-7.1-7.2l-7.2-7.2L267.9,223c-2.6,1.9-6.2,2.1-8.9,0.2
			C244,212.6,228.5,206.5,210.6,203.2L210.6,203.2z M189.7,234c24.4,0,46.5,10,62.5,25.9c16,16,25.8,38.1,25.8,62.5
			c0,24.3-9.8,46.5-25.8,62.4c-16.1,16-38.1,25.9-62.5,25.9s-46.5-10-62.4-25.9c-16.1-16-25.9-38.1-25.9-62.4
			c0-24.4,9.8-46.6,25.9-62.5C143.2,244,165.3,234,189.7,234L189.7,234z M241.5,270.6c-13.3-13.3-31.6-21.4-51.8-21.4
			c-20.2,0-38.5,8.1-51.8,21.4c-13.2,13.3-21.4,31.6-21.4,51.8s8.2,38.5,21.4,51.7c13.3,13.3,31.6,21.5,51.8,21.5
			c20.2,0,38.5-8.2,51.8-21.5c13.3-13.2,21.4-31.5,21.4-51.7S254.8,283.9,241.5,270.6L241.5,270.6z"/>
		<linearGradient id="_x34__1_" gradientUnits="userSpaceOnUse" x1="278.6466" y1="115.3933" x2="476.1467" y2="115.3933">
			<stop  offset="0" style="stop-color:#01BEFF"/>
			<stop  offset="1" style="stop-color:#505DFF"/>
		</linearGradient>
		<path id="_x34_" class="st1" d="M412.9,46.7c4.6,2.4,8.9,5.1,12.8,8.3c4,3.2,7.6,6.7,10.9,10.7l20.4-4.2c3.9-0.7,7.5,1.5,8.7,5.1
			l4.8,12.3l5,12.8c1.4,3.5-0.1,7.5-3.3,9.3l-17.7,10.7c0.1,1.6,0.1,3.4,0.1,5.1c-0.1,3.4-0.3,6.9-0.9,10.1
			c-0.5,3.3-1.3,6.5-2.3,9.8c-0.4,1.7-1,3.3-1.6,4.9l13.8,15.7c2.7,2.9,2.5,7.4-0.2,10.2l-8.1,10.2l-8.6,10.7
			c-2.4,2.9-6.3,3.6-9.4,1.9l-18.3-10.1c-4.4,2.8-8.9,5.1-13.7,7.1c-4.7,1.8-9.6,3.2-14.7,4.1l-6.6,19.7c-1.2,3.5-4.7,5.6-8.4,5
			l-13.5-2l-13.6-2c-3.9-0.6-6.6-4.1-6.4-7.9l-0.4-20.2c-4.6-2.4-8.9-5.1-12.8-8.3c-4-3.1-7.6-6.7-10.9-10.6l-20.4,4.1
			c-3.9,0.7-7.5-1.5-8.7-5l-4.8-12.4l-5-12.7c-1.4-3.5,0.1-7.5,3.3-9.3l17.7-10.7c-0.1-1.7-0.1-3.4-0.1-5.2
			c0.1-3.4,0.3-6.7,0.9-10.1c0.5-3.2,1.3-6.5,2.2-9.8c0.4-1.7,1-3.3,1.6-4.9l-13.8-15.6c-2.7-3-2.5-7.4,0.2-10.3l8.1-10.2l8.6-10.7
			c2.4-2.9,6.3-3.5,9.4-1.8l18.3,10c4.4-2.8,8.9-5.1,13.7-7c4.7-1.8,9.6-3.2,14.7-4.2l6.6-19.7c1.2-3.5,4.7-5.6,8.3-5l13.5,2
			l13.6,2.1c3.9,0.5,6.6,4,6.4,7.8L412.9,46.7z M416.3,66.8c-4.2-3.4-8.8-6.2-13.8-8.3c-2.7-1-4.5-4.1-4.5-6.9l-0.5-19.1l-7.3-1.1
			l-7.3-1.2l-6,17.8c-0.9,2.9-3.3,5.1-6.4,5.5c-5.5,0.6-10.7,1.9-15.7,3.9c-5,2-9.6,4.5-14,7.7c-2.6,1.7-5.4,2.2-8.2,0.6l-16.8-9.2
			l-4.6,5.8l-4.6,5.8l12.6,14.3c1.8,2.1,2.5,5.2,1.2,8c-1.1,2.5-1.9,5-2.7,7.6c-0.7,2.5-1.3,5.1-1.7,7.9c-0.5,2.9-0.7,5.6-0.7,8.1
			c-0.1,2.7,0,5.4,0.3,8.1c0.3,2.8-1,5.7-3.5,7.3l-16.4,10l2.7,6.9l2.7,6.9l18.8-3.7c2.8-0.5,5.8,0.5,7.5,2.9
			c6.1,8.2,15.7,16.1,25.1,20.1c2.7,1.2,4.5,3.7,4.5,6.7l0.5,19.1l7.3,1.2l7.3,1.1l6-17.8c0.9-2.8,3.3-5,6.4-5.5
			c5.5-0.5,10.7-1.8,15.7-3.9c5-1.9,9.7-4.5,14-7.7c2.7-1.7,5.5-2.1,8.2-0.6l16.8,9.2l4.6-5.8l4.6-5.7l-12.6-14.5
			c-1.8-2.1-2.5-5.2-1.2-7.9c1.1-2.6,1.9-5,2.7-7.7c0.7-2.5,1.3-5.1,1.7-7.9c0.5-2.9,0.7-5.6,0.7-8.1c0.1-2.7,0-5.4-0.3-8
			c-0.3-2.9,1-5.8,3.5-7.3l16.4-10l-2.7-6.9l-2.7-7l-18.8,3.7c-2.8,0.6-5.8-0.4-7.5-2.9C424.3,74.1,420.5,70.2,416.3,66.8
			L416.3,66.8z M384.1,71.5c12.1,1.9,22.4,8.5,29,17.7c6.7,9.1,10.1,20.9,8.1,33c-1.8,12.1-8.5,22.3-17.6,29
			c-9.2,6.7-20.9,10-33,8.1c-12.1-1.8-22.4-8.5-29-17.6c-6.7-9.2-10.1-20.9-8.1-33c1.8-12.1,8.5-22.4,17.6-29.1
			C360.3,72.9,372,69.7,384.1,71.5z M401,98.1c-4.4-6-11.1-10.4-19.2-11.6c-8-1.3-15.7,0.9-21.8,5.4c-6,4.4-10.3,11.1-11.6,19.2
			c-1.2,8,1,15.7,5.4,21.7c4.4,6.1,11.1,10.4,19.2,11.7c8,1.2,15.7-1,21.8-5.4c6-4.5,10.3-11.2,11.6-19.2
			C407.5,111.9,405.4,104,401,98.1z"/>
		<linearGradient id="_x33__1_" gradientUnits="userSpaceOnUse" x1="36.5194" y1="302.0779" x2="400.0392" y2="302.0779">
			<stop  offset="0" style="stop-color:#01BEFF"/>
			<stop  offset="1" style="stop-color:#505DFF"/>
		</linearGradient>
		<path id="_x33_" class="st2" d="M49.4,186.5c-2.9,3-7.6,3.1-10.6,0.2c-3-3-3.1-7.7-0.2-10.7c2.2-2.2,4.4-4.4,6.6-6.5
			c2.1-2,4.5-4.1,6.9-6.2c3.1-2.7,7.9-2.4,10.6,0.9c2.8,3.1,2.5,7.8-0.7,10.6c-2.1,1.8-4.3,3.7-6.4,5.8
			C53.5,182.4,51.5,184.4,49.4,186.5z M93.4,152.4c-3.6,2-8.2,0.9-10.3-2.8s-0.8-8.2,2.8-10.3c15.6-8.9,32.3-15.7,50.1-20.4
			c17.1-4.5,35.1-6.9,53.6-6.9c10.6,0,21.1,0.8,31.4,2.3c10.4,1.6,20.7,4,30.6,7c4,1.3,6.2,5.5,4.9,9.4c-1.2,4-5.5,6.2-9.4,5
			c-9.1-2.8-18.5-5-28.3-6.4c-9.5-1.4-19.3-2.1-29.2-2.1c-17.2,0-33.9,2.2-49.9,6.4C123.4,137.9,107.9,144.3,93.4,152.4L93.4,152.4z
			 M367.4,241.3c-1.7-3.9-0.1-8.2,3.8-10c3.7-1.8,8.2-0.1,10,3.6c0.9,1.9,1.6,3.7,2.5,5.8c0.9,1.9,1.6,3.9,2.4,5.7
			c1.5,4-0.4,8.2-4.3,9.7c-3.9,1.5-8.2-0.4-9.7-4.3c-0.7-1.8-1.5-3.6-2.1-5.4C369,244.8,368.3,243,367.4,241.3L367.4,241.3z
			 M383.5,297.7c-0.5-4.1,2.5-7.9,6.5-8.3c4.2-0.5,7.9,2.4,8.3,6.5c5.2,41.2-1.6,83-20.3,120.3c-14.7,29.3-36,54.8-62,74.4
			c-3.3,2.5-8,1.8-10.5-1.5c-2.5-3.4-1.8-8.1,1.5-10.6c24.1-18.1,43.9-41.7,57.5-68.9C381.7,375,388.3,335.8,383.5,297.7
			L383.5,297.7z"/>
		<linearGradient id="_x32__1_" gradientUnits="userSpaceOnUse" x1="241.8619" y1="130.8442" x2="497.7143" y2="130.8442">
			<stop  offset="0" style="stop-color:#01BEFF"/>
			<stop  offset="1" style="stop-color:#505DFF"/>
		</linearGradient>
		<path id="_x32_" class="st3" d="M483.7,173.9c2-3.6,6.5-4.9,10.2-3c3.6,2,4.9,6.6,3,10.3c-9,16.1-21,30.2-35.4,41.4
			c-14.2,11.1-30.7,19.6-48.6,24.4c-4,1.1-8.1-1.4-9.2-5.4c-1.1-4.1,1.3-8.2,5.4-9.3c16-4.3,30.6-11.7,43.3-21.6
			C464.9,200.8,475.6,188.3,483.7,173.9L483.7,173.9z M256.9,98.7c-0.5,4.2-4.4,7.1-8.5,6.5c-4.2-0.5-7.1-4.4-6.5-8.5
			c2.1-15.5,6.9-30.2,13.6-43.6c7.1-13.7,16.3-26.1,27.4-36.7c3-2.9,7.7-2.8,10.6,0.2c2.9,3,2.8,7.8-0.2,10.6
			c-9.7,9.4-18,20.4-24.3,32.8C262.9,71.9,258.7,85,256.9,98.7z"/>
		<linearGradient id="_x31__1_" gradientUnits="userSpaceOnUse" x1="135.4294" y1="325.0973" x2="243.9332" y2="325.0973">
			<stop  offset="0" style="stop-color:#01BEFF"/>
			<stop  offset="1" style="stop-color:#505DFF"/>
		</linearGradient>
		<path id="_x31_" class="st4" d="M148,312.1c-3.2,2.8-7.9,2.5-10.7-0.6c-2.8-3.1-2.5-7.9,0.6-10.7c15.5-13.6,33.5-20.4,51.7-20.4
			c18.1,0,36.1,6.9,51.7,20.5c3.1,2.7,3.4,7.5,0.6,10.6c-2.8,3.1-7.5,3.4-10.6,0.7c-12.8-11.2-27.3-16.9-41.8-16.9
			C175.2,295.3,160.7,301,148,312.1L148,312.1z M181.3,368.7c-3.4,2.2-8.1,1.2-10.4-2.3c-2.2-3.5-1.2-8.2,2.4-10.5
			c5.1-3.2,10.7-4.9,16.4-4.9c5.7,0,11.2,1.6,16.5,4.8c3.4,2.2,4.5,6.8,2.4,10.4c-2.2,3.5-6.9,4.6-10.4,2.4
			c-2.7-1.7-5.6-2.5-8.3-2.5C186.9,366.1,184,366.9,181.3,368.7L181.3,368.7z M164.7,339.8c-3.3,2.7-8,2-10.6-1.2
			c-2.6-3.2-2-8,1.2-10.6c10.5-8.3,22.5-12.5,34.5-12.5c11.9,0.1,23.9,4.3,34.4,12.6c3.2,2.7,3.7,7.4,1.2,10.6
			c-2.6,3.2-7.3,3.7-10.5,1.2c-7.8-6.2-16.5-9.3-25-9.3C181.1,330.6,172.4,333.7,164.7,339.8L164.7,339.8z"/>
	</g>
</g>
</svg>
