<?xml version="1.0" encoding="utf-8"?>
<!-- Generator: Adobe Illustrator 23.0.5, SVG Export Plug-In . SVG Version: 6.00 Build 0)  -->
<svg version="1.1" id="Layer_1" xmlns:svgjs="http://svgjs.com/svgjs"
	 xmlns="http://www.w3.org/2000/svg" xmlns:xlink="http://www.w3.org/1999/xlink" x="0px" y="0px" viewBox="0 0 512 512"
	 style="enable-background:new 0 0 512 512;" xml:space="preserve">
<style type="text/css">
	.st0{fill:url(#SVGID_1_);}
	.st1{fill:none;stroke:url(#SVGID_2_);stroke-width:10;stroke-miterlimit:10;stroke-dasharray:9.9498,9.9498;}
</style>
<g>
	<linearGradient id="SVGID_1_" gradientUnits="userSpaceOnUse" x1="104.9426" y1="251.7146" x2="399.0574" y2="251.7146">
		<stop  offset="0" style="stop-color:#01BEFF"/>
		<stop  offset="1" style="stop-color:#505DFF"/>
	</linearGradient>
	<path class="st0" d="M397.2,243.8c-1.2-1.2-2.8-1.9-4.5-1.9h-25.6v-96.4h6.4c2.4,0,4.6-1.3,5.7-3.5c1.1-2.1,0.9-4.7-0.5-6.6
		l-32-44.8c-2.4-3.5-8-3.5-10.4,0l-32,44.8c-1.4,1.9-1.6,4.5-0.5,6.6c1.1,2.1,3.3,3.5,5.7,3.5h6.4v96.4h-38.4v-64.4h6.4
		c2.4,0,4.6-1.3,5.7-3.5c1.1-2.1,0.9-4.7-0.5-6.6l-32-44.8c-2.4-3.5-8-3.5-10.4,0l-32,44.8c-3,4.1,0.1,10.2,5.2,10.1h6.4v64.4h-38.4
		v-32.4h6.4c5.1,0.1,8.2-6,5.2-10.1l-32-44.8c-2.4-3.5-8-3.5-10.4,0l-32,44.8c-3,4.1,0.1,10.2,5.2,10.1h6.4v32.4h-25.6
		c-3.5,0-6.4,2.9-6.4,6.4v40c0,3.3,2.6,6.1,5.9,6.4l17.8,1.4c3.2,14.1,8.7,27.5,16.5,39.7l-11.6,13.6c-2.2,2.5-2,6.3,0.4,8.7
		l28.3,28.3c2.4,2.4,6.1,2.5,8.7,0.4l13.6-11.6c12.3,7.8,25.6,13.3,39.7,16.5l1.4,17.8c0.3,3.3,3,5.9,6.4,5.9h40
		c3.3,0,6.1-2.6,6.4-5.9l1.4-17.8c14.1-3.2,27.5-8.7,39.7-16.5l13.6,11.6c2.5,2.2,6.3,2,8.7-0.4l28.3-28.3c2.4-2.4,2.5-6.1,0.4-8.7
		l-11.6-13.6c7.8-12.3,13.3-25.6,16.5-39.7l17.8-1.4c3.3-0.3,5.9-3,5.9-6.4l0-40C399.1,246.6,398.4,245,397.2,243.8L397.2,243.8z
		 M322.3,132.8H322l19.5-27.4l19.5,27.4h-0.4c-3.5,0-6.4,2.9-6.4,6.4v102.7h-25.6V139.2C328.7,135.6,325.9,132.8,322.3,132.8z
		 M322.3,268.3c0,38.8-31.6,70.3-70.3,70.3c-43.7,0.5-77.9-41.2-69-84h138C321.9,259.2,322.3,263.8,322.3,268.3L322.3,268.3z
		 M232.8,164.7h-0.4l19.5-27.4l19.5,27.4h-0.4c-3.5,0-6.4,2.9-6.4,6.4v70.8h-25.6v-70.8C239.2,167.6,236.3,164.7,232.8,164.7
		L232.8,164.7z M143.3,196.7h-0.4l19.5-27.4l19.5,27.4h-0.4c-3.5,0-6.4,2.9-6.4,6.4v38.8h-25.6v-38.8
		C149.7,199.6,146.8,196.7,143.3,196.7z M386.3,282.4l-16.7,1.4c-2.9,0.2-5.2,2.4-5.8,5.2c-2.9,15.8-9,30.5-18.1,43.7
		c-1.6,2.4-1.5,5.6,0.4,7.8l10.9,12.8l-20,20l-12.8-10.9c-2.2-1.9-5.4-2-7.8-0.4c-13.3,9.1-28,15.2-43.7,18.1
		c-2.8,0.5-5,2.9-5.2,5.8l-1.4,16.7h-28.2l-1.4-16.7c-0.2-2.9-2.4-5.2-5.2-5.8c-15.8-2.9-30.5-9-43.7-18.1c-2.4-1.6-5.6-1.5-7.8,0.4
		L167,373.2l-20-20l10.9-12.8c1.9-2.2,2-5.4,0.4-7.8c-9.1-13.3-15.2-28-18.1-43.7c-0.5-2.8-2.9-5-5.8-5.2l-16.7-1.4v-27.7H170
		c-8.7,49.9,31.3,97.2,82,96.7c50.7,0.5,90.7-46.8,82-96.7h52.3L386.3,282.4z"/>
</g>
<g>
	<linearGradient id="SVGID_2_" gradientUnits="userSpaceOnUse" x1="257.3095" y1="503.3905" x2="257.3095" y2="12.0095">
		<stop  offset="0" style="stop-color:#01BEFF"/>
		<stop  offset="1" style="stop-color:#505DFF"/>
	</linearGradient>
	<circle class="st1" cx="257.3" cy="257.7" r="240.7"/>
</g>
</svg>
