<?xml version="1.0" encoding="utf-8"?>
<!-- Generator: Adobe Illustrator 23.0.5, SVG Export Plug-In . SVG Version: 6.00 Build 0)  -->
<svg version="1.1" id="Layer_1" xmlns:svgjs="http://svgjs.com/svgjs"
	 xmlns="http://www.w3.org/2000/svg" xmlns:xlink="http://www.w3.org/1999/xlink" x="0px" y="0px" viewBox="0 0 512 512"
	 style="enable-background:new 0 0 512 512;" xml:space="preserve">
<style type="text/css">
	.st0{fill:url(#SVGID_1_);}
	.st1{fill:url(#SVGID_2_);}
	.st2{fill:url(#SVGID_3_);}
	.st3{fill:url(#SVGID_4_);}
	.st4{fill:url(#SVGID_5_);}
	.st5{fill:url(#SVGID_6_);}
	.st6{fill:url(#SVGID_7_);}
</style>
<g transform="matrix(1.05,0,0,1.05,-12.800000000000011,-12.800000000000011)">
	<g>
		<linearGradient id="SVGID_1_" gradientUnits="userSpaceOnUse" x1="16" y1="256" x2="520" y2="256">
			<stop  offset="0" style="stop-color:#01BEFF"/>
			<stop  offset="1" style="stop-color:#505DFF"/>
		</linearGradient>
		<path class="st0" d="M256,16C123.5,16,16,123.5,16,256s107.5,240,240,240s240-107.5,240-240C495.8,123.5,388.5,16.2,256,16z
			 M304.2,45.3l15.4,4.2l-4.1,15.4L300,60.7L304.2,45.3z M347.8,287l-88,48c-2.4,1.3-5.3,1.3-7.7,0l-88-48
			c-3.8-2.1-5.2-6.8-3.3-10.6l88-176c2.4-3.9,7.5-5.2,11.4-2.8c1.2,0.7,2.1,1.7,2.8,2.8l88,176C353.1,280.2,351.6,285,347.8,287z
			 M349.9,317.4l-88,96c-3.1,3.3-8.2,3.4-11.5,0.4c-0.1-0.1-0.2-0.2-0.4-0.4l-88-96c-3.1-3.2-3-8.2,0.2-11.3c2.6-2.5,6.5-3,9.6-1.2
			l84.2,45.9l84.2-45.9c3.8-2.2,8.7-0.9,10.9,2.9C352.9,311,352.4,314.9,349.9,317.4z M248,40h16v16h-16V40z M207.8,45.3l4.2,15.4
			l-15.5,4.2l-4.1-15.4L207.8,45.3z M155,65l8,13.8l-13.9,8L141,73L155,65z M40,248h16v16H40V248z M49.4,319.6l-4.2-15.4l15.4-4.2
			l4.2,15.5L49.4,319.6z M60.7,212l-15.4-4.2l4.2-15.4l15.4,4.1L60.7,212z M73,371l-8-14l13.8-8l8,13.9L73,371z M78.8,163L65,155
			l8-13.9l13.8,8L78.8,163z M109,414.4L97.6,403l11.4-11.3l11.3,11.3L109,414.4z M109,120.2L97.6,109L109,97.6l11.3,11.4L109,120.2z
			 M155,447l-13.9-8l8-13.8l13.9,8L155,447z M207.8,466.7l-15.4-4.2l4.1-15.4l15.5,4.2L207.8,466.7z M264,472h-16v-16h16V472z
			 M304.2,466.7l-4.2-15.4l15.5-4.2l4.1,15.4L304.2,466.7z M357,447l-8-13.8l13.9-8l8,13.8L357,447z M363,86.8l-13.9-8l8-13.8
			l13.9,8L363,86.8z M403,414.4L391.8,403l11.3-11.3l11.4,11.3L403,414.4z M403,120.2L391.8,109L403,97.6l11.4,11.4L403,120.2z
			 M439,371l-13.8-8l8-13.9l13.8,8L439,371z M472,264h-16v-16h16V264z M462.6,192.4l4.2,15.4l-15.4,4.2l-4.2-15.5L462.6,192.4z
			 M451.3,300l15.4,4.2l-4.2,15.4l-15.4-4.1L451.3,300z M447,155l-13.8,8l-8-13.9l13.8-8L447,155z"/>
		<linearGradient id="SVGID_2_" gradientUnits="userSpaceOnUse" x1="264" y1="364.7" x2="307.68" y2="364.7">
			<stop  offset="0" style="stop-color:#01BEFF"/>
			<stop  offset="1" style="stop-color:#505DFF"/>
		</linearGradient>
		<path class="st1" d="M264,387.4l41.6-45.4L264,364.7V387.4z"/>
		<linearGradient id="SVGID_3_" gradientUnits="userSpaceOnUse" x1="206.4" y1="364.75" x2="250.08" y2="364.75">
			<stop  offset="0" style="stop-color:#01BEFF"/>
			<stop  offset="1" style="stop-color:#505DFF"/>
		</linearGradient>
		<path class="st2" d="M248,387.4v-22.7l-41.6-22.6L248,387.4z"/>
		<linearGradient id="SVGID_4_" gradientUnits="userSpaceOnUse" x1="264" y1="280" x2="330.465" y2="280">
			<stop  offset="0" style="stop-color:#01BEFF"/>
			<stop  offset="1" style="stop-color:#505DFF"/>
		</linearGradient>
		<path class="st3" d="M264,314.6l63.3-34.6L264,245.4V314.6z"/>
		<linearGradient id="SVGID_5_" gradientUnits="userSpaceOnUse" x1="264" y1="199.3" x2="328.47" y2="199.3">
			<stop  offset="0" style="stop-color:#01BEFF"/>
			<stop  offset="1" style="stop-color:#505DFF"/>
		</linearGradient>
		<path class="st4" d="M264,137.9v89.4l61.4,33.4L264,137.9z"/>
		<linearGradient id="SVGID_6_" gradientUnits="userSpaceOnUse" x1="184.7" y1="280.05" x2="251.165" y2="280.05">
			<stop  offset="0" style="stop-color:#01BEFF"/>
			<stop  offset="1" style="stop-color:#505DFF"/>
		</linearGradient>
		<path class="st5" d="M248,314.6v-69.1L184.7,280L248,314.6z"/>
		<linearGradient id="SVGID_7_" gradientUnits="userSpaceOnUse" x1="186.6" y1="199.3" x2="251.07" y2="199.3">
			<stop  offset="0" style="stop-color:#01BEFF"/>
			<stop  offset="1" style="stop-color:#505DFF"/>
		</linearGradient>
		<path class="st6" d="M248,227.3v-89.4l-61.4,122.8L248,227.3z"/>
	</g>
</g>
</svg>
