<?xml version="1.0" encoding="utf-8"?>
<!-- Generator: Adobe Illustrator 23.0.5, SVG Export Plug-In . SVG Version: 6.00 Build 0)  -->
<svg version="1.1" id="Layer_1" xmlns="http://www.w3.org/2000/svg" xmlns:xlink="http://www.w3.org/1999/xlink" x="0px" y="0px"
	 viewBox="0 0 455.4 434.9" style="enable-background:new 0 0 455.4 434.9;" xml:space="preserve">
<style type="text/css">
	.st0{fill:url(#SVGID_1_);}
	.st1{fill:url(#SVGID_2_);}
	.st2{fill:url(#SVGID_3_);}
	.st3{fill:url(#SVGID_4_);}
	.st4{fill:url(#SVGID_5_);}
	.st5{fill:url(#SVGID_6_);}
	.st6{fill:url(#SVGID_7_);}
	.st7{fill:url(#SVGID_8_);}
	.st8{fill:url(#SVGID_9_);}
	.st9{fill:url(#SVGID_10_);}
	.st10{fill:url(#SVGID_11_);}
</style>
<g>
	<linearGradient id="SVGID_1_" gradientUnits="userSpaceOnUse" x1="46.7" y1="153.25" x2="157.3" y2="153.25">
		<stop  offset="0" style="stop-color:#01BEFF"/>
		<stop  offset="1" style="stop-color:#505DFF"/>
	</linearGradient>
	<path class="st0" d="M66.6,208.8c1.4,1.4,3.2,2.1,5.1,2.1s3.7-0.8,5.1-2.1L94.5,191c2.8-2.8,2.8-7.3,0-10.1s-7.3-2.8-10.1,0
		l-5.5,5.5V122c0-6.6,5.4-12,12-12h59.2c3.9,0,7.2-3.2,7.2-7.2s-3.2-7.2-7.2-7.2H90.9c-14.5,0-26.3,11.8-26.3,26.3v64.4l-5.6-5.5
		c-2.8-2.8-7.3-2.8-10.2,0c-2.8,2.8-2.8,7.3,0,10.2L66.6,208.8z"/>
	<linearGradient id="SVGID_2_" gradientUnits="userSpaceOnUse" x1="296.1" y1="151.7" x2="407.1" y2="151.7">
		<stop  offset="0" style="stop-color:#01BEFF"/>
		<stop  offset="1" style="stop-color:#505DFF"/>
	</linearGradient>
	<path class="st1" d="M303.1,110h59.1c6.6,0,12,5.4,12,12v60.6l-4.9-4.9c-2.8-2.8-7.3-2.8-10.1,0s-2.8,7.3,0,10.1l17.8,17.8
		c1.4,1.4,3.2,2.1,5.1,2.1s3.7-0.8,5.1-2.1l17.8-17.8c2.8-2.8,2.8-7.3,0-10.1s-7.3-2.8-10.1,0l-6.2,6.2V122
		c0-14.5-11.8-26.3-26.3-26.3h-59.1c-3.9,0-7.2,3.2-7.2,7.2C296.1,106.8,299.2,110,303.1,110L303.1,110z"/>
	<linearGradient id="SVGID_3_" gradientUnits="userSpaceOnUse" x1="272.7" y1="395.15" x2="449.9" y2="395.15">
		<stop  offset="0" style="stop-color:#01BEFF"/>
		<stop  offset="1" style="stop-color:#505DFF"/>
	</linearGradient>
	<path class="st2" d="M389.9,369.3v-10c-7.2,7.7-17.2,12.6-28.6,12.6c-10.8,0-20.5-4.4-27.6-11.4c-0.4-0.3-0.6-0.7-0.9-1.1v10
		c-33.1,1.4-59.5,28.3-60.1,61.6h177.2C449.3,397.7,422.9,370.8,389.9,369.3L389.9,369.3z"/>
	<linearGradient id="SVGID_4_" gradientUnits="userSpaceOnUse" x1="310.1" y1="311" x2="412.2" y2="311">
		<stop  offset="0" style="stop-color:#01BEFF"/>
		<stop  offset="1" style="stop-color:#505DFF"/>
	</linearGradient>
	<path class="st3" d="M334.9,346c6.7,6.7,16.1,10.9,26.3,10.9c20.6,0,37.3-16.7,37.3-37.3v-4.2c7.7-0.6,13.7-6.8,13.7-14.6
		c0-7.8-6-14.1-13.7-14.6c-21.7-0.4-35.5-9.9-44.3-21.1c-5.4,6.2-14.6,13.3-30.4,17.4v3.7c-7.7,0.5-13.7,6.8-13.7,14.6
		c0,7.8,6,14.1,13.7,14.6v4.2C323.9,329.9,328.2,339.3,334.9,346L334.9,346z"/>
	<linearGradient id="SVGID_5_" gradientUnits="userSpaceOnUse" x1="312.5" y1="248.9" x2="410.3" y2="248.9">
		<stop  offset="0" style="stop-color:#01BEFF"/>
		<stop  offset="1" style="stop-color:#505DFF"/>
	</linearGradient>
	<path class="st4" d="M361.3,223.2c-26.5,0-47.9,21-48.8,47.2l8-2c10.1-2.6,18.1-7,23.1-12.8l11.4-13.3l10.8,13.8
		c8,10.2,18.8,15.3,33.2,15.6c4,0.3,7.8,1.3,11.2,2.9c0.1-0.9,0.1-1.6,0.1-2.5C410.2,245.1,388.3,223.2,361.3,223.2L361.3,223.2z"/>
	<linearGradient id="SVGID_6_" gradientUnits="userSpaceOnUse" x1="138.3" y1="177.5" x2="315.5" y2="177.5">
		<stop  offset="0" style="stop-color:#01BEFF"/>
		<stop  offset="1" style="stop-color:#505DFF"/>
	</linearGradient>
	<path class="st5" d="M138.3,213.3h177.2c-0.6-33.2-27.1-60.1-60.1-61.6v-10c-7.2,7.7-17.2,12.6-28.6,12.6
		c-10.8,0-20.5-4.4-27.6-11.4c-0.4-0.3-0.6-0.7-0.9-1.1v10C165.4,153.2,139,180,138.3,213.3L138.3,213.3z"/>
	<linearGradient id="SVGID_7_" gradientUnits="userSpaceOnUse" x1="175.7" y1="93.4" x2="277.8" y2="93.4">
		<stop  offset="0" style="stop-color:#01BEFF"/>
		<stop  offset="1" style="stop-color:#505DFF"/>
	</linearGradient>
	<path class="st6" d="M189.5,97.8v4.2c0,10.3,4.2,19.7,11,26.4c6.7,6.7,16.1,10.9,26.3,10.9c20.6,0,37.3-16.7,37.3-37.3v-4.2
		c7.7-0.6,13.7-6.8,13.7-14.6s-6-14.1-13.7-14.6c-21.7-0.4-35.5-9.9-44.3-21.1c-5.4,6.2-14.6,13.3-30.4,17.4v3.7
		c-7.7,0.5-13.7,6.8-13.7,14.6C175.8,91,181.9,97.3,189.5,97.8L189.5,97.8z"/>
	<linearGradient id="SVGID_8_" gradientUnits="userSpaceOnUse" x1="178.1" y1="31.4" x2="275.8" y2="31.4">
		<stop  offset="0" style="stop-color:#01BEFF"/>
		<stop  offset="1" style="stop-color:#505DFF"/>
	</linearGradient>
	<path class="st7" d="M209.1,38.1l11.4-13.3l10.8,13.8c8,10.2,18.8,15.3,33.2,15.6c4,0.3,7.8,1.3,11.2,2.9c0.1-0.9,0.1-1.6,0.1-2.5
		c0-27-21.9-48.9-48.9-48.9c-26.5,0-47.9,21-48.8,47.2l8-2C196.1,48.3,204.1,43.9,209.1,38.1L209.1,38.1z"/>
	<linearGradient id="SVGID_9_" gradientUnits="userSpaceOnUse" x1="3.7" y1="395.15" x2="181" y2="395.15">
		<stop  offset="0" style="stop-color:#01BEFF"/>
		<stop  offset="1" style="stop-color:#505DFF"/>
	</linearGradient>
	<path class="st8" d="M120.9,369.3v-10c-7.2,7.7-17.2,12.6-28.6,12.6c-10.8,0-20.5-4.4-27.6-11.4c-0.4-0.3-0.6-0.7-0.9-1.1v10
		C30.7,370.8,4.3,397.7,3.7,431H181C180.4,397.7,154,370.8,120.9,369.3L120.9,369.3z"/>
	<linearGradient id="SVGID_10_" gradientUnits="userSpaceOnUse" x1="41.3" y1="311" x2="143.4" y2="311">
		<stop  offset="0" style="stop-color:#01BEFF"/>
		<stop  offset="1" style="stop-color:#505DFF"/>
	</linearGradient>
	<path class="st9" d="M55.1,315.4v4.2c0,10.3,4.2,19.7,11,26.4c6.7,6.7,16.1,10.9,26.3,10.9c20.6,0,37.3-16.7,37.3-37.3v-4.2
		c7.7-0.6,13.7-6.8,13.7-14.6c0-7.8-6-14.1-13.7-14.6c-21.7-0.4-35.5-9.9-44.3-21.1c-5.4,6.2-14.6,13.3-30.4,17.4v3.7
		c-7.7,0.5-13.7,6.8-13.7,14.6C41.3,308.6,47.4,314.9,55.1,315.4L55.1,315.4z"/>
	<linearGradient id="SVGID_11_" gradientUnits="userSpaceOnUse" x1="43.6" y1="249" x2="141.3" y2="249">
		<stop  offset="0" style="stop-color:#01BEFF"/>
		<stop  offset="1" style="stop-color:#505DFF"/>
	</linearGradient>
	<path class="st10" d="M74.6,255.7L86,242.4l10.8,13.8c8,10.2,18.8,15.3,33.2,15.6c4,0.3,7.8,1.3,11.2,2.9c0.1-0.9,0.1-1.6,0.1-2.5
		c0-27-21.9-48.9-48.9-48.9c-26.5,0-47.9,21-48.8,47.2l8-2C61.6,265.9,69.6,261.5,74.6,255.7L74.6,255.7z"/>
</g>
</svg>
