<?xml version="1.0" encoding="utf-8"?>
<!-- Generator: Adobe Illustrator 23.0.5, SVG Export Plug-In . SVG Version: 6.00 Build 0)  -->
<svg version="1.1" id="Layer_1" xmlns:svgjs="http://svgjs.com/svgjs"
	 xmlns="http://www.w3.org/2000/svg" xmlns:xlink="http://www.w3.org/1999/xlink" x="0px" y="0px" viewBox="0 0 512 512"
	 style="enable-background:new 0 0 512 512;" xml:space="preserve">
<style type="text/css">
	.st0{fill-rule:evenodd;clip-rule:evenodd;fill:url(#SVGID_1_);}
</style>
<g>
	<linearGradient id="SVGID_1_" gradientUnits="userSpaceOnUse" x1="3.814697e-06" y1="255" x2="512" y2="255">
		<stop  offset="0" style="stop-color:#01BEFF"/>
		<stop  offset="1" style="stop-color:#505DFF"/>
	</linearGradient>
	<path class="st0" d="M256,130c26.7,0,51.4,8.4,71.7,22.6L288,192.2c-9.2-1-17.4-8.5-17.4-19.4c0-3.2-2.6-5.8-5.8-5.8h-17.6
		c-3.2,0-5.8,2.6-5.8,5.8c0,17.3-21,26-33.2,13.8c-2.3-2.3-5.9-2.3-8.2,0L187.6,199c-2.3,2.3-2.3,5.9,0,8.2
		c12.2,12.2,3.6,33.2-13.8,33.2c-3.2,0-5.8,2.6-5.8,5.8v17.6c0,3.2,2.6,5.8,5.8,5.8c17.3,0,26,21,13.8,33.2c-2.3,2.3-2.3,5.9,0,8.2
		l12.4,12.4c2.3,2.3,5.9,2.3,8.2,0c12.3-12.3,33.2-3.6,33.2,13.8c0,3.2,2.6,5.8,5.8,5.8h17.6c3.2,0,5.8-2.6,5.8-5.8
		c0-17.3,21-26,33.2-13.8c2.3,2.3,5.9,2.3,8.2,0l12.4-12.4c2.3-2.3,2.3-5.9,0-8.2c-12.2-12.2-3.6-33.2,13.8-33.2
		c3.2,0,5.8-2.6,5.8-5.8v-17.6c0-3.2-2.6-5.8-5.8-5.8c-10.9,0-18.3-8.3-19.4-17.4l39.7-39.7c14.2,20.3,22.6,45,22.6,71.7
		c0,69.1-56,125-125,125c-69.1,0-125-56-125-125S186.9,130,256,130L256,130z M458.2,62.1c0.9-2.5,0.3-5.5-1.7-7.5
		c-2-2-5-2.6-7.5-1.7L433.4,8.6l-75.2,75.2l16,42.7L250.9,249.9c-2.8,2.8-2.8,7.4,0,10.3c2.8,2.8,7.4,2.8,10.3,0l123.4-123.4
		l42.7,16l75.2-75.2L458.2,62.1z M263.3,89.4V55.2c29.4,1,57.2,8.5,82.1,20.9l10.8-10.8c-27.9-14.8-59.4-23.5-92.9-24.6V6.3
		c0-4-3.2-7.3-7.3-7.3s-7.3,3.2-7.3,7.3v34.5c-112.6,3.7-203.3,94.4-207,207H7.3c-4,0-7.3,3.2-7.3,7.3s3.2,7.3,7.3,7.3h34.5
		c1.9,56.3,25.5,107.1,62.7,144.4s88,60.8,144.4,62.7v34.5c0,4,3.2,7.3,7.3,7.3c4,0,7.3-3.2,7.3-7.3v-34.5
		c112.6-3.7,203.3-94.4,207-207h34.5c4,0,7.3-3.2,7.3-7.3s-3.2-7.3-7.3-7.3h-34.5c-1.1-33.5-9.9-65-24.7-92.9l-10.8,10.8
		c12.4,24.9,19.9,52.7,20.9,82.1h-34.2c-4,0-7.3,3.2-7.3,7.3s3.2,7.3,7.3,7.3h34.2C452,366.9,367.9,451,263.3,454.8v-34.2
		c0-4-3.2-7.3-7.3-7.3s-7.3,3.2-7.3,7.3v34.2c-52.3-1.9-99.5-23.8-134.1-58.4c-34.6-34.6-56.5-81.8-58.4-134.1h34.2
		c4,0,7.3-3.2,7.3-7.3s-3.2-7.3-7.3-7.3H56.2C60,143.1,144.1,59,248.7,55.2v34.2c0,4,3.2,7.3,7.3,7.3
		C260,96.7,263.3,93.5,263.3,89.4L263.3,89.4z M256,212c-23.7,0-43,19.2-43,43c0,23.7,19.2,43,43,43s43-19.2,43-43
		c0-3.7-0.5-7.4-1.4-10.8l-26.2,26.2c-8.5,8.5-22.3,8.5-30.8,0s-8.5-22.3,0-30.8l26.2-26.2C263.4,212.5,259.7,212,256,212L256,212z"
		/>
</g>
</svg>
