<?xml version="1.0" encoding="utf-8"?>
<!-- Generator: Adobe Illustrator 23.0.5, SVG Export Plug-In . SVG Version: 6.00 Build 0)  -->
<svg version="1.1" id="Layer_1" xmlns:svgjs="http://svgjs.com/svgjs"
	 xmlns="http://www.w3.org/2000/svg" xmlns:xlink="http://www.w3.org/1999/xlink" x="0px" y="0px" viewBox="0 0 512 512"
	 style="enable-background:new 0 0 512 512;" xml:space="preserve">
<style type="text/css">
	.st0{fill:url(#SVGID_1_);}
	.st1{fill:url(#SVGID_2_);}
	.st2{fill:url(#SVGID_3_);}
	.st3{fill:url(#SVGID_4_);}
	.st4{fill:url(#SVGID_5_);}
	.st5{fill:url(#SVGID_6_);}
	.st6{fill:url(#SVGID_7_);}
	.st7{fill:url(#SVGID_8_);}
	.st8{fill:url(#SVGID_9_);}
	.st9{fill:url(#SVGID_10_);}
	.st10{fill:url(#SVGID_11_);}
	.st11{fill:url(#SVGID_12_);}
</style>
<g>
	<g>
		<linearGradient id="SVGID_1_" gradientUnits="userSpaceOnUse" x1="219.7356" y1="154.9207" x2="494.4286" y2="154.9207">
			<stop  offset="0" style="stop-color:#01BEFF"/>
			<stop  offset="1" style="stop-color:#505DFF"/>
		</linearGradient>
		<path class="st0" d="M475.4,50.2l-13.7-13.7c-25.3-25.3-66.5-25.3-91.8,0l-27.8,27.8c-22.1,22.1-25.2,56.1-8.3,81.6L313.9,166
			c-9.7-6.4-20.8-10.1-32.6-10.6c-3.9-0.2-7.2,2.8-7.4,6.7c-0.2,3.9,2.8,7.2,6.7,7.4c8.2,0.4,16,2.7,23,6.8l-12,12
			c-4.2-1.8-8.8-2.7-13.4-2.7c-9.2,0-17.9,3.6-24.5,10.1l-8.2,8.2l-11.4-11.4l8.2-8.2c3.6-3.6,7.8-6.7,12.4-9.1
			c3.5-1.8,4.8-6.1,3-9.6c-1.8-3.5-6.1-4.8-9.6-3c-5.8,3.1-11.2,7-15.8,11.6l-8.5,8.5c-5.4,5.4-5.4,14.1,0,19.5l12,12
			c2.7,2.7,6.2,4,9.7,4s7-1.3,9.7-4l8.5-8.5c3.9-3.9,9-6,14.4-6c1.4,0,2.7,0.1,4,0.4c-1.1,2.7-1.7,5.6-1.7,8.6
			c0,6.1,2.4,11.8,6.6,16c4.4,4.4,10.2,6.6,16,6.6c2.9,0,5.9-0.6,8.6-1.7c0.3,1.6,0.5,3.3,0.4,5c-0.2,5.1-2.5,10-6.4,14l-8.1,8.1
			c-5.4,5.4-5.4,14.1,0,19.5l12,12c2.6,2.6,6.1,4,9.7,4c3.7,0,7.1-1.4,9.7-4l8.5-8.5c22.1-22.1,25.2-56.1,8.3-81.6l20-20
			c10.9,7.2,23.3,10.8,35.7,10.8c16.7,0,33.2-6.4,45.9-19.1l8.8-8.8c2.8-2.8,2.8-7.3,0-10c-2.8-2.8-7.3-2.8-10,0l-8.8,8.8
			c-16.5,16.5-41.7,19.5-61.3,8l12-12c4.2,1.8,8.8,2.7,13.4,2.7c9.2,0,17.9-3.6,24.5-10.1l27.8-27.8c13.5-13.5,13.5-35.5,0-49
			L440.4,58c-6.5-6.5-15.2-10.1-24.5-10.1S398,51.4,391.4,58l-27.8,27.8c-10,10-12.7,25.2-7.4,37.9l-12,12
			c-11.4-19.6-8.5-44.7,8-61.3l27.8-27.8c19.8-19.8,51.9-19.8,71.7,0l13.7,13.7c19,19,19.9,49.5,2,69.5c-2.6,2.9-2.3,7.4,0.6,10
			c2.9,2.6,7.4,2.3,10-0.6C500.9,113.6,499.7,74.5,475.4,50.2z M297.2,214.8c-1.6-1.6-2.5-3.7-2.5-6c0-2.3,0.9-4.4,2.5-6l75.5-75.5
			c1.7-1.7,3.8-2.5,6-2.5s4.4,0.8,6,2.5c1.6,1.6,2.5,3.7,2.5,6c0,2.3-0.9,4.4-2.5,6c0,0,0,0,0,0l-75.5,75.5
			C305.9,218.1,300.5,218.1,297.2,214.8L297.2,214.8z M327.7,269.7l-8.2,8.2l-11.4-11.4l7.8-7.8c6.4-6.4,10.2-14.7,10.5-23.4
			c0.2-5.2-0.7-10.3-2.7-15l12-12C347.1,228,344.2,253.1,327.7,269.7L327.7,269.7z M373.7,95.8L401.5,68c3.9-3.9,9-6,14.4-6
			s10.6,2.1,14.4,6L444,81.6c8,8,8,20.9,0,28.9l-27.8,27.8c-3.9,3.9-9,6-14.4,6c-1,0-2.1-0.1-3.1-0.2c1.8-3.3,2.7-6.9,2.7-10.7
			c0-6.1-2.4-11.8-6.6-16c-7.2-7.2-18.2-8.5-26.7-4C367,107,369,100.5,373.7,95.8L373.7,95.8z"/>
		<linearGradient id="SVGID_2_" gradientUnits="userSpaceOnUse" x1="13.5712" y1="361.0649" x2="288.2744" y2="361.0649">
			<stop  offset="0" style="stop-color:#01BEFF"/>
			<stop  offset="1" style="stop-color:#505DFF"/>
		</linearGradient>
		<path class="st1" d="M272.3,301.7c-5.4-5.4-14.1-5.4-19.5,0l-8.1,8.1c-3.9,3.9-8.9,6.2-14,6.4c-1.4,0.1-2.8,0-4.2-0.2
			c1.6-3.2,2.5-6.7,2.5-10.4c0-6.1-2.4-11.8-6.6-16c-4.3-4.3-10-6.6-16-6.6c-3.7,0-7.2,0.9-10.4,2.5c-1-6.3,1-13,5.7-17.7l8.5-8.5
			c5.4-5.4,5.4-14.1,0-19.5l-12-12c-2.6-2.6-6.1-4-9.7-4c-3.7,0-7.1,1.4-9.7,4l-8.5,8.5c-22.1,22.1-25.2,56.1-8.3,81.6l-20,20
			c-25.4-16.8-59.4-13.8-81.4,8.1c-2.8,2.8-2.8,7.3,0,10c1.4,1.4,3.2,2.1,5,2.1c1.8,0,3.6-0.7,5-2.1c16.5-16.4,41.6-19.3,61.1-7.9
			l-12,12c-4.2-1.8-8.8-2.7-13.4-2.7c-9.2,0-17.9,3.6-24.5,10.1L54,395.4c-13.5,13.5-13.5,35.5,0,49L67.6,458
			c6.5,6.5,15.2,10.1,24.5,10.1s17.9-3.6,24.5-10.1l27.8-27.8c10-10,12.7-25.2,7.4-37.9l12-12c11.4,19.6,8.5,44.7-8,61.3L128,469.4
			c-9.6,9.6-22.3,14.8-35.8,14.8s-26.3-5.3-35.8-14.8l-13.7-13.7c-19.8-19.8-19.8-51.9,0-71.7l6.6-6.6c2.8-2.8,2.8-7.3,0-10
			c-2.8-2.8-7.3-2.8-10,0l-6.6,6.6c-12.3,12.3-19,28.5-19,45.9c0,17.3,6.7,33.6,19,45.9l13.7,13.7c12.3,12.3,28.5,19,45.9,19
			s33.6-6.7,45.9-19l27.8-27.8c22.1-22.1,25.2-56.1,8.3-81.6l20-20c10.9,7.2,23.3,10.8,35.7,10.8c16.6,0,33.2-6.4,45.9-19.1l8.5-8.5
			c5.4-5.4,5.4-14.1,0-19.5L272.3,301.7z M180.3,246.3l8.2-8.2l11.4,11.4l-8.2,8.2c-10,10-12.7,25.2-7.4,37.9l-12,12
			C160.9,288,163.8,262.8,180.3,246.3L180.3,246.3z M125,375l75.5-75.5c1.6-1.6,3.7-2.5,6-2.5c2.3,0,4.4,0.9,6,2.5
			c1.6,1.6,2.5,3.7,2.5,6c0,2.3-0.9,4.4-2.5,6L137,387c-3.3,3.3-8.7,3.3-12,0C121.7,383.7,121.7,378.3,125,375L125,375z
			 M134.4,420.2L106.6,448c-3.9,3.9-9,6-14.4,6s-10.6-2.1-14.4-6L64,434.3c-8-8-8-20.9,0-28.9l27.8-27.8c3.9-3.9,9-6,14.4-6
			c1.3,0,2.6,0.1,3.9,0.4c-3.5,8.3-2,18.3,4.8,25c4.4,4.4,10.2,6.6,16,6.6c3,0,6.1-0.6,8.9-1.8C141.2,408.4,139.2,415.3,134.4,420.2
			L134.4,420.2z M265.7,331.6c-16.5,16.5-41.7,19.5-61.3,8l12-12c4.7,2,9.8,2.9,15,2.7c8.6-0.4,16.9-4.1,23.4-10.5l7.8-7.8
			l11.4,11.4L265.7,331.6z"/>
		<linearGradient id="SVGID_3_" gradientUnits="userSpaceOnUse" x1="142.5683" y1="95.68" x2="200.4953" y2="95.68">
			<stop  offset="0" style="stop-color:#01BEFF"/>
			<stop  offset="1" style="stop-color:#505DFF"/>
		</linearGradient>
		<path class="st2" d="M176.1,129.9c2.6,3.5,6.6,5.4,10.7,5.4c1.5,0,3-0.2,4.4-0.7c5.6-1.9,9.3-6.9,9.3-12.9V69.6
			c0-3.7-1.5-7.2-4.1-9.8c-2.7-2.6-6.2-3.9-9.9-3.8c-14.6,0.5-27.7,5.4-38.9,14.7c-5.6,4.6-6.6,12.8-2.1,18.6L176.1,129.9z
			 M186.3,70.2v49.7L157,81.2C165.6,74.3,175.2,70.7,186.3,70.2z"/>
		<linearGradient id="SVGID_4_" gradientUnits="userSpaceOnUse" x1="54.6462" y1="177.5008" x2="132.9719" y2="177.5008">
			<stop  offset="0" style="stop-color:#01BEFF"/>
			<stop  offset="1" style="stop-color:#505DFF"/>
		</linearGradient>
		<path class="st3" d="M68.7,207.2c0.4,0,0.9,0,1.3-0.1l50.7-4.8c5.9-0.6,10.6-4.6,11.9-10.4c1.4-5.8-1-11.5-6.1-14.6c0,0,0,0,0,0
			l-44.3-27.4c-3.2-2-6.9-2.5-10.5-1.6c-3.6,0.9-6.6,3.2-8.5,6.4c-7.3,12.7-10,26.4-8,40.8C56.2,202.3,61.9,207.2,68.7,207.2
			L68.7,207.2z M122.8,183.3l-3.7,6c0,0,0,0,0,0L122.8,183.3z M75.3,162.3l42.2,26.1l-48.3,4.6C67.9,182,69.9,171.9,75.3,162.3z"/>
		<linearGradient id="SVGID_5_" gradientUnits="userSpaceOnUse" x1="92.0856" y1="108.1346" x2="118.7604" y2="108.1346">
			<stop  offset="0" style="stop-color:#01BEFF"/>
			<stop  offset="1" style="stop-color:#505DFF"/>
		</linearGradient>
		<path class="st4" d="M106.4,119.9c1.4,1.6,3.3,2.4,5.3,2.4c1.7,0,3.4-0.6,4.7-1.8c2.9-2.6,3.2-7.1,0.6-10l-12.5-14
			c-2.6-2.9-7.1-3.2-10-0.6c-2.9,2.6-3.2,7.1-0.6,10L106.4,119.9z"/>
		<linearGradient id="SVGID_6_" gradientUnits="userSpaceOnUse" x1="230.1989" y1="86.8303" x2="253.8512" y2="86.8303">
			<stop  offset="0" style="stop-color:#01BEFF"/>
			<stop  offset="1" style="stop-color:#505DFF"/>
		</linearGradient>
		<path class="st5" d="M234.5,104.2c0.9,0.4,1.9,0.6,2.8,0.6c2.7,0,5.3-1.6,6.5-4.3l9.5-21.8c1.6-3.6-0.1-7.8-3.7-9.3
			c-3.6-1.6-7.8,0.1-9.3,3.7l-9.5,21.8C229.2,98.5,230.9,102.7,234.5,104.2z"/>
		<linearGradient id="SVGID_7_" gradientUnits="userSpaceOnUse" x1="65.3536" y1="245.5118" x2="101.3333" y2="245.5118">
			<stop  offset="0" style="stop-color:#01BEFF"/>
			<stop  offset="1" style="stop-color:#505DFF"/>
		</linearGradient>
		<path class="st6" d="M91.4,234.3l-21.8,9.5c-3.6,1.6-5.2,5.7-3.7,9.3c1.2,2.7,3.8,4.3,6.5,4.3c0.9,0,1.9-0.2,2.8-0.6l21.8-9.5
			c3.6-1.6,5.2-5.7,3.7-9.3C99.2,234.4,95,232.7,91.4,234.3z"/>
		<linearGradient id="SVGID_8_" gradientUnits="userSpaceOnUse" x1="376.6667" y1="340.4565" x2="455.9545" y2="340.4565">
			<stop  offset="0" style="stop-color:#01BEFF"/>
			<stop  offset="1" style="stop-color:#505DFF"/>
		</linearGradient>
		<path class="st7" d="M442.4,311.5h-52.1c-5.9,0-11,3.6-12.9,9.3c-1.9,5.6-0.1,11.6,4.7,15.1l40.6,30.7c2.5,1.9,5.4,2.8,8.2,2.8
			c3.9,0,7.7-1.7,10.4-4.9c9.2-11.3,14.2-24.4,14.7-38.9c0.1-3.7-1.2-7.2-3.8-9.9C449.6,313,446.1,311.5,442.4,311.5z M430.7,355
			l-38.7-29.3h49.7C441.2,336.8,437.6,346.3,430.7,355z"/>
		<linearGradient id="SVGID_9_" gradientUnits="userSpaceOnUse" x1="304.8036" y1="418.1782" x2="364.1725" y2="418.1782">
			<stop  offset="0" style="stop-color:#01BEFF"/>
			<stop  offset="1" style="stop-color:#505DFF"/>
		</linearGradient>
		<path class="st8" d="M334.7,385.5C334.7,385.5,334.7,385.5,334.7,385.5c-3.1-5-8.9-7.4-14.6-6.1c-5.8,1.4-9.9,6-10.4,11.9
			l-4.8,50.7c-0.7,7.3,4.4,13.8,11.6,14.7c3,0.4,6,0.6,8.9,0.6c11.2,0,21.9-2.9,31.9-8.6c3.2-1.8,5.5-4.8,6.4-8.5
			c0.9-3.6,0.3-7.3-1.6-10.5L334.7,385.5z M319,442.8l4.6-48.3l26.1,42.2C340.1,442.1,330,444.1,319,442.8z"/>
		<linearGradient id="SVGID_10_" gradientUnits="userSpaceOnUse" x1="389.7399" y1="406.5654" x2="417.9685" y2="406.5654">
			<stop  offset="0" style="stop-color:#01BEFF"/>
			<stop  offset="1" style="stop-color:#505DFF"/>
		</linearGradient>
		<path class="st9" d="M415.6,407.5l-14-12.5c-2.9-2.6-7.4-2.3-10,0.6c-2.6,2.9-2.3,7.4,0.6,10l14,12.5c1.4,1.2,3,1.8,4.7,1.8
			c2,0,3.9-0.8,5.3-2.4C418.8,414.6,418.5,410.1,415.6,407.5z"/>
		<linearGradient id="SVGID_11_" gradientUnits="userSpaceOnUse" x1="407.1692" y1="269.9633" x2="443.1474" y2="269.9633">
			<stop  offset="0" style="stop-color:#01BEFF"/>
			<stop  offset="1" style="stop-color:#505DFF"/>
		</linearGradient>
		<path class="st10" d="M414.3,281.8c0.9,0,1.9-0.2,2.8-0.6l21.8-9.5c3.6-1.6,5.2-5.7,3.7-9.3c-1.6-3.6-5.7-5.2-9.3-3.7l-21.8,9.5
			c-3.6,1.6-5.2,5.7-3.7,9.3C408.9,280.2,411.5,281.8,414.3,281.8L414.3,281.8z"/>
		<linearGradient id="SVGID_12_" gradientUnits="userSpaceOnUse" x1="254.6517" y1="428.6457" x2="278.3036" y2="428.6457">
			<stop  offset="0" style="stop-color:#01BEFF"/>
			<stop  offset="1" style="stop-color:#505DFF"/>
		</linearGradient>
		<path class="st11" d="M274,411.2c-3.6-1.6-7.8,0.1-9.3,3.7l-9.5,21.8c-1.6,3.6,0.1,7.8,3.7,9.3c0.9,0.4,1.9,0.6,2.8,0.6
			c2.7,0,5.3-1.6,6.5-4.3l9.5-21.8C279.3,417,277.6,412.8,274,411.2L274,411.2z"/>
	</g>
</g>
</svg>
