<?xml version="1.0" encoding="utf-8"?>
<!-- Generator: Adobe Illustrator 23.0.5, SVG Export Plug-In . SVG Version: 6.00 Build 0)  -->
<svg version="1.1" id="Layer_1" xmlns="http://www.w3.org/2000/svg" xmlns:xlink="http://www.w3.org/1999/xlink" x="0px" y="0px"
	 viewBox="0 0 458.9 477.7" style="enable-background:new 0 0 458.9 477.7;" xml:space="preserve">
<style type="text/css">
	.st0{fill:url(#SVGID_1_);}
	.st1{fill:url(#SVGID_2_);}
	.st2{fill:url(#SVGID_3_);}
	.st3{fill:url(#SVGID_4_);}
	.st4{fill:url(#SVGID_5_);}
	.st5{fill:url(#SVGID_6_);}
	.st6{fill:url(#SVGID_7_);}
	.st7{fill:url(#SVGID_8_);}
	.st8{fill:url(#SVGID_9_);}
	.st9{fill:url(#SVGID_10_);}
	.st10{fill:url(#SVGID_11_);}
</style>
<g>
	<linearGradient id="SVGID_1_" gradientUnits="userSpaceOnUse" x1="302.6" y1="238.6" x2="450.6001" y2="238.6">
		<stop  offset="0" style="stop-color:#01BEFF"/>
		<stop  offset="1" style="stop-color:#505DFF"/>
	</linearGradient>
	<path class="st0" d="M413.6,264.5h-14.8v-7.4c9.8,0,19.2-3.9,26.1-10.8c6.9-6.9,10.8-16.3,10.8-26.2v-37c0-11.8-4.7-23.1-13-31.4
		s-19.6-13-31.4-13h-66.6c-3.9,0-7.7,1.6-10.5,4.3c-2.8,2.8-4.3,6.5-4.3,10.5c0,8.7,2.6,17.2,7.4,24.5v42.1
		c0,9.8,3.9,19.2,10.9,26.2c6.9,6.9,16.3,10.8,26.1,10.8v7.4h-14.8c-9.8,0-19.2,3.9-26.1,10.9c-6.9,6.9-10.8,16.3-10.8,26.1v29.6
		c0,2,0.8,3.8,2.2,5.2c1.4,1.4,3.3,2.2,5.2,2.2h133.2c2,0,3.8-0.8,5.2-2.2c1.4-1.4,2.2-3.3,2.2-5.2v-29.6c0-9.8-3.9-19.2-10.8-26.1
		C432.8,268.4,423.4,264.5,413.6,264.5L413.6,264.5z M332.2,220.1v-28.2c6.7,3.9,14.4,6,22.2,6h48.1l18.3,24.4
		c-0.5,5.5-3.1,10.5-7.1,14.3c-4.1,3.7-9.4,5.8-14.8,5.8h-44.4c-5.9,0-11.5-2.3-15.7-6.5C334.5,231.6,332.2,226,332.2,220.1
		L332.2,220.1z M384,269.7l-0.5,0.7l0,0c-1.8,1.9-4.3,3-6.9,3s-5.1-1.1-6.9-3l-0.5-0.7v-12.6H384V269.7z"/>
	<linearGradient id="SVGID_2_" gradientUnits="userSpaceOnUse" x1="176.8" y1="31.4" x2="273" y2="31.4">
		<stop  offset="0" style="stop-color:#01BEFF"/>
		<stop  offset="1" style="stop-color:#505DFF"/>
	</linearGradient>
	<path class="st1" d="M273,20.3h-74l-22.2,22.2h74L273,20.3z"/>
	<linearGradient id="SVGID_3_" gradientUnits="userSpaceOnUse" x1="176.8" y1="86.9" x2="250.8" y2="86.9">
		<stop  offset="0" style="stop-color:#01BEFF"/>
		<stop  offset="1" style="stop-color:#505DFF"/>
	</linearGradient>
	<path class="st2" d="M176.8,49.9h74v74h-74V49.9z"/>
	<linearGradient id="SVGID_4_" gradientUnits="userSpaceOnUse" x1="258.2" y1="75.8" x2="280.4" y2="75.8">
		<stop  offset="0" style="stop-color:#01BEFF"/>
		<stop  offset="1" style="stop-color:#505DFF"/>
	</linearGradient>
	<path class="st3" d="M258.2,123.9l22.2-29.6V27.7l-22.2,22.2V123.9z"/>
	<linearGradient id="SVGID_5_" gradientUnits="userSpaceOnUse" x1="162" y1="397.7" x2="295.2" y2="397.7">
		<stop  offset="0" style="stop-color:#01BEFF"/>
		<stop  offset="1" style="stop-color:#505DFF"/>
	</linearGradient>
	<path class="st4" d="M228.6,464.3c17.7,0,34.6-7,47.1-19.5s19.5-29.4,19.5-47.1s-7-34.6-19.5-47.1s-29.4-19.5-47.1-19.5
		s-34.6,7-47.1,19.5C169,363.1,162,380,162,397.7s7,34.6,19.5,47.1C194,457.2,210.9,464.3,228.6,464.3L228.6,464.3z M228.6,345.9
		c13.7,0,26.9,5.5,36.6,15.2s15.2,22.9,15.2,36.6s-5.5,26.9-15.2,36.6c-9.7,9.7-22.9,15.2-36.6,15.2c-13.7,0-26.9-5.5-36.6-15.2
		c-9.7-9.7-15.2-22.9-15.2-36.6s5.5-26.9,15.2-36.6S214.8,345.9,228.6,345.9z"/>
	<linearGradient id="SVGID_6_" gradientUnits="userSpaceOnUse" x1="184.2" y1="397.7" x2="273" y2="397.7">
		<stop  offset="0" style="stop-color:#01BEFF"/>
		<stop  offset="1" style="stop-color:#505DFF"/>
	</linearGradient>
	<path class="st5" d="M273,397.7c0,24.5-19.9,44.4-44.4,44.4s-44.4-19.9-44.4-44.4s19.9-44.4,44.4-44.4
		C253.1,353.3,273,373.2,273,397.7"/>
	<linearGradient id="SVGID_7_" gradientUnits="userSpaceOnUse" x1="21.4123" y1="90.5375" x2="157.6" y2="90.5375">
		<stop  offset="0" style="stop-color:#01BEFF"/>
		<stop  offset="1" style="stop-color:#505DFF"/>
	</linearGradient>
	<path class="st6" d="M45.8,121.7c2.9,2.9,7.6,2.9,10.5,0l22.2-22.2c2.8-2.9,2.8-7.5-0.1-10.4S70.9,86.2,68,89l-9.2,9.2
		c0.8-7.2,4.3-13.8,9.6-18.7C73.8,74.7,80.8,72,88,72h62.2c4.1,0,7.4-3.3,7.4-7.4s-3.3-7.4-7.4-7.4H88c-11.3,0-22.1,4.3-30.3,12
		s-13.2,18.3-14,29.6L34,89.1c-2.9-2.8-7.5-2.8-10.4,0.1s-2.9,7.5-0.1,10.4L45.8,121.7z"/>
	<linearGradient id="SVGID_8_" gradientUnits="userSpaceOnUse" x1="306.9" y1="90.6" x2="413.6" y2="90.6">
		<stop  offset="0" style="stop-color:#01BEFF"/>
		<stop  offset="1" style="stop-color:#505DFF"/>
	</linearGradient>
	<path class="st7" d="M314.3,72.1h54.9c7.8,0,15.4,3.1,20.9,8.7c5.6,5.6,8.7,13.1,8.7,20.9v14.8c0,4.1,3.3,7.4,7.4,7.4
		s7.4-3.3,7.4-7.4v-14.8c0-11.8-4.7-23.1-13-31.4s-19.6-13-31.4-13h-54.9c-4.1,0-7.4,3.3-7.4,7.4S310.2,72.1,314.3,72.1L314.3,72.1z
		"/>
	<linearGradient id="SVGID_9_" gradientUnits="userSpaceOnUse" x1="43.6" y1="390.3" x2="147.2" y2="390.3">
		<stop  offset="0" style="stop-color:#01BEFF"/>
		<stop  offset="1" style="stop-color:#505DFF"/>
	</linearGradient>
	<path class="st8" d="M51,353.3c-4.1,0-7.4,3.3-7.4,7.4v22.2c0,11.8,4.7,23.1,13,31.4s19.6,13,31.4,13h51.8c4.1,0,7.4-3.3,7.4-7.4
		s-3.3-7.4-7.4-7.4H88c-7.8,0-15.4-3.1-20.9-8.7c-5.6-5.6-8.7-13.1-8.7-20.9v-22.2c0-2-0.8-3.8-2.2-5.2
		C54.8,354.1,52.9,353.3,51,353.3L51,353.3z"/>
	<linearGradient id="SVGID_10_" gradientUnits="userSpaceOnUse" x1="310" y1="390.3125" x2="435.7877" y2="390.3125">
		<stop  offset="0" style="stop-color:#01BEFF"/>
		<stop  offset="1" style="stop-color:#505DFF"/>
	</linearGradient>
	<path class="st9" d="M369.2,412.5h-51.8c-4.1,0-7.4,3.3-7.4,7.4s3.3,7.4,7.4,7.4h51.8c11.8,0,23.1-4.7,31.4-13s13-19.6,13-31.4
		v-4.3l9.6,9.6l0,0c2.9,2.8,7.5,2.8,10.4-0.1s2.9-7.5,0.1-10.4l-22.2-22.2c-2.9-2.9-7.6-2.9-10.5,0l-22.2,22.2
		c-2.8,2.9-2.8,7.5,0.1,10.4s7.5,2.9,10.4,0.1l9.6-9.6v4.3c0,7.8-3.1,15.4-8.7,20.9C384.5,409.4,377,412.5,369.2,412.5L369.2,412.5z
		"/>
	<linearGradient id="SVGID_11_" gradientUnits="userSpaceOnUse" x1="6.7" y1="238.55" x2="154.6" y2="238.55">
		<stop  offset="0" style="stop-color:#01BEFF"/>
		<stop  offset="1" style="stop-color:#505DFF"/>
	</linearGradient>
	<path class="st10" d="M14,338.5h133.2c2,0,3.8-0.8,5.2-2.2c1.4-1.4,2.2-3.3,2.2-5.2v-29.6c0-9.8-3.9-19.2-10.8-26.1
		c-6.9-6.9-16.3-10.8-26.1-10.9h-14.8v-7.4c9.8,0,19.2-3.9,26.1-10.8c6.9-6.9,10.8-16.3,10.8-26.2v-26.4c3.9-2.7,6.7-6.5,8.2-11
		s1.4-9.3-0.1-13.7c-2.9-8.8-8.6-16.5-16.1-22c-7.6-5.4-16.6-8.4-25.9-8.4h-40c-11.8,0-23.1,4.7-31.4,13s-13,19.6-13,31.4v37l0,0
		c0,9.8,3.9,19.2,10.9,26.2c6.9,6.9,16.3,10.8,26.1,10.8v7.4H43.6c-9.8,0-19.2,3.9-26.1,10.9c-6.9,6.9-10.8,16.3-10.8,26.1V331
		c0,2,0.8,3.8,2.2,5.2C10.1,337.7,12,338.5,14,338.5L14,338.5z M88,268.8l-7.4,7.4l-7.4-7.4v-11.7H88V268.8z M36.4,222.3l18.3-24.4
		H125v22.2c0,5.9-2.3,11.5-6.5,15.7s-9.8,6.5-15.7,6.5H58.4c-5.5,0-10.8-2.1-14.8-5.8C39.5,232.8,36.9,227.7,36.4,222.3L36.4,222.3z
		"/>
</g>
</svg>
