<?xml version="1.0" encoding="utf-8"?>
<!-- Generator: Adobe Illustrator 23.0.5, SVG Export Plug-In . SVG Version: 6.00 Build 0)  -->
<svg version="1.1" id="Layer_1" xmlns:svgjs="http://svgjs.com/svgjs"
	 xmlns="http://www.w3.org/2000/svg" xmlns:xlink="http://www.w3.org/1999/xlink" x="0px" y="0px" viewBox="0 0 512 512"
	 style="enable-background:new 0 0 512 512;" xml:space="preserve">
<style type="text/css">
	.st0{fill-rule:evenodd;clip-rule:evenodd;fill:url(#SVGID_1_);}
	.st1{fill-rule:evenodd;clip-rule:evenodd;fill:url(#SVGID_2_);}
	.st2{fill-rule:evenodd;clip-rule:evenodd;fill:url(#SVGID_3_);}
	.st3{fill-rule:evenodd;clip-rule:evenodd;fill:url(#SVGID_4_);}
	.st4{fill-rule:evenodd;clip-rule:evenodd;fill:url(#SVGID_5_);}
</style>
<g>
	<linearGradient id="SVGID_1_" gradientUnits="userSpaceOnUse" x1="0" y1="256" x2="512" y2="256">
		<stop  offset="0" style="stop-color:#01BEFF"/>
		<stop  offset="1" style="stop-color:#505DFF"/>
	</linearGradient>
	<path class="st0" d="M26.5,58.6h458.9c14.7,0,26.5,11.9,26.5,26.5v58.4L0,142.4V85.1C0,70.5,11.9,58.6,26.5,58.6L26.5,58.6z
		 M485.5,453.4h-459C11.9,453.4,0,441.5,0,426.9v-272l512,1.2v270.7C512,441.5,500.1,453.4,485.5,453.4L485.5,453.4z M48,122.9
		c12.1,0,21.9-9.8,21.9-21.9S60.1,79.1,48,79.1S26.1,88.9,26.1,101l0,0C26.1,113.1,35.9,122.9,48,122.9z M48,91.7
		c-5.2,0-9.3,4.2-9.3,9.3c0,5.2,4.2,9.3,9.3,9.3s9.3-4.2,9.3-9.3l0,0C57.4,95.8,53.2,91.7,48,91.7z M115.2,122.9
		c12.1,0,21.9-9.8,21.9-21.9s-9.8-21.9-21.9-21.9S93.3,88.9,93.3,101S103.1,122.9,115.2,122.9z M115.2,91.7c-5.2,0-9.3,4.2-9.3,9.3
		s4.2,9.3,9.3,9.3c5.2,0,9.3-4.2,9.3-9.3l0,0C124.5,95.8,120.4,91.7,115.2,91.7z M182.4,122.9c12.1,0,21.9-9.8,21.9-21.9
		s-9.8-21.9-21.9-21.9c-12.1,0-21.9,9.8-21.9,21.9l0,0C160.5,113.1,170.3,122.9,182.4,122.9z M182.4,91.7c-5.2,0-9.3,4.2-9.3,9.3
		s4.2,9.3,9.3,9.3c5.2,0,9.3-4.2,9.3-9.3l0,0C191.7,95.8,187.5,91.7,182.4,91.7z M297.8,123h173.1c3.5,0,6.3-2.8,6.3-6.3V85.3
		c0-3.5-2.8-6.3-6.3-6.3H297.8c-3.5,0-6.3,2.8-6.3,6.3v31.5C291.5,120.2,294.3,123,297.8,123L297.8,123z M304.1,91.5v18.9h160.5
		V91.5H304.1z M430.3,332.4h-16.8V180.7c0-3.5-2.8-6.3-6.3-6.3h-40.1c-3.5,0-6.3,2.8-6.3,6.3v33.8H327c-3.5,0-6.3,2.8-6.3,6.3l0,0
		v33.8h-33.8c-3.5,0-6.3,2.8-6.3,6.3v33.8h-33.8c-3.5,0-6.3,2.8-6.3,6.3l0,0v31.5H223c-14.2-39.5-57.8-60-97.3-45.8
		s-60,57.8-45.8,97.3s57.8,60,97.3,45.8c21.3-7.7,38.1-24.5,45.8-45.8h106.7v25.9c0,3.5,2.8,6.3,6.3,6.3h25.4c3.5,0,6.3-2.8,6.3-6.3
		V384h10.9v25.9c0,3.5,2.8,6.3,6.3,6.3h25.4c3.5,0,6.3-2.8,6.3-6.3V384h13.7c3.5,0,6.3-2.8,6.3-6.3l0,0v-38.9
		C436.6,335.2,433.8,332.4,430.3,332.4L430.3,332.4L430.3,332.4z M400.9,187h-27.5v145.4h27.5V187z M360.8,227.1h-27.5v105.3h27.5
		V227.1z M320.7,267.1h-27.5v65.2h27.5V267.1z M253.2,307.2v25.2h27.5v-25.2H253.2z M424,371.3V345H218.4c-2.8,0-5.3-1.9-6-4.5
		c-9.8-33.6-45-53-78.6-43.2s-53,45-43.2,78.6s45,53,78.6,43.2c20.8-6.1,37.1-22.4,43.2-43.2c0.8-2.7,3.2-4.5,6-4.5H336
		c3.5,0,6.3,2.8,6.3,6.3l0,0v25.9h12.8v-25.9c0-3.5,2.8-6.3,6.3-6.3h23.5c3.5,0,6.3,2.8,6.3,6.3v25.9H404v-25.9
		c0-3.5,2.8-6.3,6.3-6.3L424,371.3z M151.4,313.7c-24.5,0-44.4,19.9-44.4,44.4s19.9,44.4,44.4,44.4s44.4-19.9,44.4-44.4l0,0
		C195.8,333.6,175.9,313.8,151.4,313.7z M151.4,389.9c17.6,0,31.8-14.2,31.8-31.8s-14.2-31.8-31.8-31.8s-31.8,14.2-31.8,31.8l0,0
		C119.7,375.6,133.9,389.9,151.4,389.9z"/>
</g>
<linearGradient id="SVGID_2_" gradientUnits="userSpaceOnUse" x1="372.7" y1="258.7" x2="400.1" y2="258.7">
	<stop  offset="0" style="stop-color:#01BEFF"/>
	<stop  offset="1" style="stop-color:#505DFF"/>
</linearGradient>
<rect x="372.7" y="185.8" class="st1" width="27.4" height="145.8"/>
<linearGradient id="SVGID_3_" gradientUnits="userSpaceOnUse" x1="332.7" y1="278.8" x2="360.1" y2="278.8">
	<stop  offset="0" style="stop-color:#01BEFF"/>
	<stop  offset="1" style="stop-color:#505DFF"/>
</linearGradient>
<rect x="332.7" y="226" class="st2" width="27.4" height="105.6"/>
<linearGradient id="SVGID_4_" gradientUnits="userSpaceOnUse" x1="297.3" y1="298.9" x2="320.2" y2="298.9">
	<stop  offset="0" style="stop-color:#01BEFF"/>
	<stop  offset="1" style="stop-color:#505DFF"/>
</linearGradient>
<rect x="297.3" y="266.2" class="st3" width="22.9" height="65.4"/>
<linearGradient id="SVGID_5_" gradientUnits="userSpaceOnUse" x1="252.7" y1="319" x2="280.1" y2="319">
	<stop  offset="0" style="stop-color:#01BEFF"/>
	<stop  offset="1" style="stop-color:#505DFF"/>
</linearGradient>
<rect x="252.7" y="306.4" class="st4" width="27.4" height="25.2"/>
</svg>
