<?xml version="1.0" encoding="utf-8"?>
<!-- Generator: Adobe Illustrator 23.0.5, SVG Export Plug-In . SVG Version: 6.00 Build 0)  -->
<svg version="1.1" id="Layer_1" xmlns="http://www.w3.org/2000/svg" xmlns:xlink="http://www.w3.org/1999/xlink" x="0px" y="0px"
	 viewBox="0 0 448.6 510.3" style="enable-background:new 0 0 448.6 510.3;" xml:space="preserve">
<style type="text/css">
	.st0{fill:url(#SVGID_1_);}
	.st1{fill:url(#SVGID_2_);}
	.st2{fill:url(#SVGID_3_);}
</style>
<g>
	<linearGradient id="SVGID_1_" gradientUnits="userSpaceOnUse" x1="8" y1="197.9" x2="445.8" y2="197.9">
		<stop  offset="0" style="stop-color:#01BEFF"/>
		<stop  offset="1" style="stop-color:#505DFF"/>
	</linearGradient>
	<path class="st0" d="M423.4,24.6H30.2c-5.9,0-11.6,2.3-15.7,6.5C10.3,35.3,8,40.9,8,46.9v302c0,5.9,2.3,11.6,6.5,15.8
		c4.2,4.2,9.8,6.5,15.8,6.5h42.3V340H39.2V109.2h375.4V340h-33.4v31.2h42.3c5.9,0,11.6-2.3,15.8-6.5c4.2-4.2,6.5-9.9,6.5-15.8v-302
		c0-5.9-2.3-11.6-6.5-15.8C435,26.9,429.4,24.6,423.4,24.6L423.4,24.6z M143.6,81.6H39.2V52.2h104.4V81.6z M313.2,81.6
		c-3.9,0-7.6-1.6-10.4-4.3c-2.7-2.8-4.3-6.5-4.3-10.4s1.6-7.6,4.3-10.4c2.8-2.7,6.5-4.3,10.4-4.3s7.6,1.6,10.4,4.3
		c2.7,2.8,4.3,6.5,4.3,10.4s-1.6,7.6-4.3,10.4C320.8,80,317.1,81.6,313.2,81.6L313.2,81.6z M356.4,81.6c-3.9,0-7.6-1.5-10.4-4.3
		c-2.8-2.7-4.3-6.5-4.3-10.4s1.5-7.6,4.3-10.4s6.5-4.3,10.4-4.3s7.6,1.6,10.4,4.3s4.3,6.5,4.3,10.4s-1.6,7.6-4.3,10.3
		C364,80,360.3,81.5,356.4,81.6L356.4,81.6z M399.7,81.6c-3.9,0-7.6-1.6-10.4-4.3c-2.7-2.8-4.3-6.5-4.3-10.4s1.6-7.6,4.3-10.4
		c2.8-2.7,6.5-4.3,10.4-4.3s7.6,1.6,10.4,4.3c2.7,2.8,4.3,6.5,4.3,10.4s-1.5,7.6-4.3,10.4C407.3,80,403.6,81.6,399.7,81.6
		L399.7,81.6z"/>
	<linearGradient id="SVGID_2_" gradientUnits="userSpaceOnUse" x1="73.65" y1="147.45" x2="380.15" y2="147.45">
		<stop  offset="0" style="stop-color:#01BEFF"/>
		<stop  offset="1" style="stop-color:#505DFF"/>
	</linearGradient>
	<path class="st1" d="M365.5,132.9H88.2c-5.2,0-10,2.8-12.6,7.3s-2.6,10,0,14.5S83,162,88.2,162h277.4c5.2,0,10-2.8,12.6-7.3
		s2.6-10,0-14.5C375.5,135.6,370.7,132.9,365.5,132.9z"/>
	<linearGradient id="SVGID_3_" gradientUnits="userSpaceOnUse" x1="100.8" y1="336.075" x2="352.6" y2="336.075">
		<stop  offset="0" style="stop-color:#01BEFF"/>
		<stop  offset="1" style="stop-color:#505DFF"/>
	</linearGradient>
	<path class="st2" d="M348.4,186.4H105.2c-2.4,0-4.4,1.9-4.4,4.4v288.5c0,1.5,0.8,2.9,2,3.7c1.3,0.8,2.9,0.9,4.2,0.2l52.9-25.6l0,0
		c2.4-1.2,5.2-1.2,7.6,0l57.3,27.7l0,0c1.2,0.6,2.6,0.6,3.8,0l57.9-27.8c2.4-1.2,5.2-1.1,7.6,0l52.3,25.6l0,0
		c1.3,0.7,2.9,0.6,4.2-0.2c1.3-0.8,2-2.2,2-3.7V190.7c0-1.2-0.5-2.3-1.3-3.1C350.7,186.9,349.6,186.4,348.4,186.4L348.4,186.4z
		 M132.9,220.4c2.7-2.7,6.4-4.3,10.3-4.3h79.2c3.9,0,7.5,1.5,10.3,4.3c2.7,2.7,4.2,6.4,4.2,10.3c0,3.8-1.6,7.5-4.3,10.2
		s-6.4,4.3-10.2,4.3h-79.2c-3.9,0-7.6-1.5-10.3-4.2s-4.3-6.4-4.3-10.3C128.6,226.8,130.2,223.1,132.9,220.4L132.9,220.4z
		 M180.5,311.2c-2.7,2.7-6.4,4.3-10.3,4.3h-27c-3.9,0-7.6-1.5-10.3-4.3c-2.7-2.7-4.3-6.4-4.3-10.3c0-3.8,1.5-7.5,4.3-10.2
		c2.7-2.7,6.4-4.3,10.3-4.3h27c3.8,0,7.5,1.5,10.3,4.3c2.7,2.7,4.2,6.4,4.3,10.3C184.7,304.8,183.2,308.4,180.5,311.2L180.5,311.2z
		 M290.5,431.7c-9,0-17.7-3.6-24.1-10s-10-15-10-24.1c0-9,3.6-17.7,10-24.1s15-10,24.1-10c9,0,17.7,3.6,24.1,10s10,15,10,24.1
		c0,9-3.6,17.7-10,24.1C308.1,428.2,299.5,431.7,290.5,431.7L290.5,431.7z M320.2,311.2c-2.7,2.7-6.4,4.3-10.2,4.3h-79.2
		c-3.9,0-7.5-1.5-10.3-4.3c-2.7-2.7-4.2-6.4-4.2-10.3c0-3.8,1.6-7.5,4.3-10.2s6.4-4.3,10.2-4.3H310c3.9,0,7.5,1.5,10.3,4.3
		c2.7,2.7,4.2,6.4,4.2,10.3C324.5,304.8,322.9,308.5,320.2,311.2L320.2,311.2z M320.2,240.9c-2.7,2.7-6.4,4.3-10.2,4.3h-27
		c-5.2,0-10-2.8-12.6-7.3s-2.6-10,0-14.5s7.4-7.3,12.6-7.3h27c3.9,0,7.5,1.5,10.3,4.3c2.7,2.7,4.2,6.4,4.2,10.3
		C324.5,234.5,323,238.2,320.2,240.9L320.2,240.9z"/>
</g>
</svg>
