<?xml version="1.0" encoding="utf-8"?>
<!-- Generator: Adobe Illustrator 23.0.5, SVG Export Plug-In . SVG Version: 6.00 Build 0)  -->
<svg version="1.1" id="Layer_1" xmlns="http://www.w3.org/2000/svg" xmlns:xlink="http://www.w3.org/1999/xlink" x="0px" y="0px"
	 viewBox="0 0 34.8 34.5" style="enable-background:new 0 0 34.8 34.5;" xml:space="preserve">
<style type="text/css">
	.st0{fill:#F26622;}
</style>
<g>
	<g>
		<path class="st0" d="M34.1,22.9c-0.4-0.7-1.1-1.2-1.9-1.4c-0.8-0.2-1.6,0-2.2,0.4l-2.2,1.3c-1.4,0.8-2.6,1.5-3.7,2.3
			c0.2-0.4,0.3-0.9,0.1-1.3c-0.2-0.6-0.8-1.4-2.8-1.5c-4-0.3-4.8-1-4.9-1.1c-0.4-0.5-0.9-0.9-1.4-1.1c-5.6-3.1-11,1.6-11.2,1.8l0,0
			L0.8,24c-0.2,0.1-0.3,0.3-0.4,0.5c-0.1,0.2,0,0.4,0.1,0.6L4.7,33c0.1,0.2,0.3,0.3,0.5,0.4c0.1,0,0.1,0,0.2,0c0.1,0,0.3,0,0.4-0.1
			l3.2-2c0,0,0,0,0,0c0,0,0,0,0,0c0.3-0.1,0.6-0.1,0.9,0c3.8,2,6.2,2.5,7.5,2.5c0.3,0,0.6,0,0.8-0.1c0.8,0,7.7-0.6,14.8-7.2l0.6-0.6
			C34.5,25.1,34.6,23.9,34.1,22.9L34.1,22.9z M5.8,31.5L2.3,25l1.8-0.9l3.4,6.3L5.8,31.5z M32.5,24.8L32,25.3
			c-6.9,6.5-13.8,6.8-13.8,6.8c0,0-0.1,0-0.1,0c-0.7,0.1-2.8,0.2-7.3-2.3c-0.4-0.2-0.8-0.3-1.2-0.3c-0.2,0-0.3,0-0.5,0.1l-3.5-6.5
			c1.3-1,5.1-3.3,8.8-1.2c0.3,0.2,0.6,0.4,0.9,0.8c0.8,0.9,2.7,1.4,6,1.7c1,0.1,1.3,0.3,1.3,0.3c0,0-0.1,0.3-0.5,0.7
			c-1.1,0.9-3.9,1.9-7,0.8c-0.4-0.1-0.8,0-1,0.4c-0.2,0.3-0.1,0.8,0.2,1c0.1,0.1,0.3,0.1,0.4,0.2c0.5,0.2,1.1,0.3,1.6,0.4
			c5.8,0.5,8.5-1.3,8.5-1.3l3.7-2.3l2.3-1.3c0,0,0.1,0,0.1,0c0.3-0.2,0.6-0.3,1-0.2c0.3,0.1,0.6,0.3,0.8,0.6
			C32.9,24,32.8,24.5,32.5,24.8z"/>
		<path class="st0" d="M21.2,13.1c1.9,0,3.4-1.5,3.4-3.4S23,6.4,21.2,6.4s-3.4,1.5-3.4,3.4S19.3,13.1,21.2,13.1z M21.2,8
			c1,0,1.8,0.8,1.8,1.8s-0.8,1.8-1.8,1.8s-1.8-0.8-1.8-1.8S20.2,8,21.2,8z"/>
		<path class="st0" d="M13.3,11.8l0.6,0.1c0.1,0.3,0.2,0.6,0.3,0.9l-0.3,0.5c-0.4,0.6-0.4,1.4,0.1,2l0.6,0.7
			c0.5,0.6,1.3,0.7,1.9,0.4l0.5-0.3c0.6,0.4,1.3,0.7,2,0.9l0.1,0.6c0.2,0.7,0.8,1.2,1.5,1.2l0.9,0h0c0.7,0,1.4-0.5,1.6-1.2l0.1-0.6
			c0.7-0.2,1.3-0.5,1.9-0.8l0.5,0.3c0.7,0.3,1.5,0.2,1.9-0.3l0.6-0.7c0.5-0.6,0.5-1.4,0.1-2L28,12.9c0.2-0.3,0.3-0.7,0.4-1l0.6-0.1
			c0.7-0.2,1.2-0.8,1.2-1.6V9.3c0-0.7-0.5-1.4-1.2-1.6l-0.6-0.1c-0.1-0.3-0.2-0.6-0.3-0.9l0.4-0.5c0.4-0.6,0.4-1.4-0.1-2l-0.6-0.7
			c-0.5-0.6-1.3-0.7-1.9-0.4l-0.5,0.3c-0.6-0.4-1.3-0.7-2-0.9l-0.1-0.6c-0.2-0.7-0.8-1.2-1.6-1.2h-0.9c-0.7,0-1.4,0.5-1.6,1.2
			L19,2.5c-0.7,0.2-1.3,0.5-1.8,0.8l-0.5-0.3c-0.7-0.3-1.5-0.2-1.9,0.4l-0.6,0.7c-0.5,0.6-0.5,1.4-0.1,2l0.3,0.5
			c-0.2,0.3-0.3,0.7-0.4,1l-0.6,0.1c-0.7,0.2-1.2,0.8-1.2,1.5l0,0.9C12.1,10.9,12.6,11.6,13.3,11.8L13.3,11.8z M14.8,9.1
			c0.3-0.1,0.5-0.3,0.6-0.6c0.1-0.6,0.3-1.1,0.6-1.6c0.1-0.3,0.1-0.6,0-0.9l-0.6-0.9l0.6-0.7l1,0.5c0.3,0.1,0.6,0.1,0.9-0.1
			c0.7-0.5,1.4-0.8,2.2-1c0.3-0.1,0.5-0.3,0.6-0.6l0.2-1l0.9,0l0.3,1.1c0.1,0.3,0.3,0.5,0.6,0.6c0.8,0.2,1.6,0.5,2.3,1.1
			c0.2,0.2,0.6,0.2,0.8,0.1l0.9-0.5l0.6,0.7l-0.6,0.9c-0.2,0.2-0.2,0.6-0.1,0.9c0.2,0.5,0.4,1,0.5,1.5C27,8.8,27.3,9,27.6,9.1l1,0.3
			l0,0.9l-1.1,0.3c-0.3,0.1-0.5,0.3-0.6,0.6c-0.1,0.5-0.3,1.1-0.6,1.6c-0.1,0.3-0.1,0.6,0,0.8l0.6,0.9L26.5,15l-0.9-0.5
			c-0.3-0.1-0.6-0.1-0.9,0.1c-0.7,0.5-1.4,0.8-2.2,1c-0.3,0.1-0.5,0.3-0.6,0.6l-0.2,1l-0.9,0l-0.2-1c-0.1-0.3-0.3-0.5-0.6-0.6
			c-0.8-0.2-1.6-0.5-2.3-1.1c-0.1-0.1-0.3-0.2-0.5-0.2c-0.1,0-0.2,0-0.4,0.1l-1,0.5l-0.6-0.7l0.6-0.9c0.2-0.2,0.2-0.6,0.1-0.9
			c-0.2-0.5-0.4-1-0.5-1.5c-0.1-0.3-0.3-0.5-0.6-0.6l-1-0.2l0-0.9L14.8,9.1z"/>
	</g>
</g>
</svg>
