<?xml version="1.0" encoding="utf-8"?>
<!-- Generator: Adobe Illustrator 23.0.5, SVG Export Plug-In . SVG Version: 6.00 Build 0)  -->
<svg version="1.1" id="Layer_1" xmlns:svgjs="http://svgjs.com/svgjs"
	 xmlns="http://www.w3.org/2000/svg" xmlns:xlink="http://www.w3.org/1999/xlink" x="0px" y="0px" viewBox="0 0 512 512"
	 style="enable-background:new 0 0 512 512;" xml:space="preserve">
<style type="text/css">
	.st0{fill:url(#SVGID_1_);}
	.st1{fill:#FFFFFF;}
</style>
<g>
	
		<linearGradient id="SVGID_1_" gradientUnits="userSpaceOnUse" x1="-15.25" y1="-214.6196" x2="-15.25" y2="-151.523" gradientTransform="matrix(8 0 0 8 378 1726)">
		<stop  offset="0" style="stop-color:#FFB000"/>
		<stop  offset="0.5" style="stop-color:#E61E71"/>
		<stop  offset="1" style="stop-color:#9D2888"/>
	</linearGradient>
	<path class="st0" d="M256,0C114.8,0,0,114.8,0,256s114.8,256,256,256s256-114.8,256-256S397.2,0,256,0z M256,448
		c-105.9,0-192-86.1-192-192S150.1,64,256,64s192,86.1,192,192S361.9,448,256,448z"/>
</g>
<g>
	<g>
		<path class="st1" d="M255,148.3c-58.3,0-105.7,47.4-105.7,105.7S196.7,359.7,255,359.7S360.7,312.3,360.7,254
			S313.3,148.3,255,148.3z M337.3,227.3c1.1,3.5,0.2,7.3-2.4,9.8l-32.9,32.1l7.8,45.3c0.6,3.6-0.9,7.2-3.8,9.4
			c-2.9,2.2-6.9,2.4-10.1,0.7L255,303.3l-40.7,21.4c-3.2,1.7-7.1,1.4-10.1-0.7c-3-2.1-4.4-5.8-3.8-9.4l7.8-45.3l-32.9-32.1
			c-2.6-2.6-3.6-6.4-2.4-9.9c1.1-3.5,4.1-6,7.8-6.5l45.5-6.6l20.4-41.2c3.2-6.6,14-6.6,17.2,0l20.4,41.2l45.5,6.6
			C333.1,221.3,336.1,223.8,337.3,227.3L337.3,227.3z"/>
		<path class="st1" d="M269,227.2l-14-28.3l-14,28.3c-1.4,2.8-4.1,4.8-7.2,5.3l-31.2,4.5l22.6,22.1c2.3,2.2,3.3,5.4,2.8,8.5
			l-5.3,31.1l28-14.7c2.8-1.5,6.1-1.5,8.9,0l28,14.7l-5.3-31.1c-0.5-3.1,0.5-6.3,2.8-8.5l22.6-22.1l-31.2-4.5
			C273.1,232,270.4,230,269,227.2L269,227.2z"/>
		<path class="st1" d="M255,90c-90.2,0-164,73.8-164,164c0,90.2,73.8,164,164,164s164-73.8,164-164C419,163.8,345.2,90,255,90z
			 M255,378.9c-68.9,0-124.9-56-124.9-124.9s56-124.9,124.9-124.9s124.9,56,124.9,124.9S323.9,378.9,255,378.9z"/>
	</g>
</g>
</svg>
