<svg xmlns="http://www.w3.org/2000/svg" version="1.1" xmlns:xlink="http://www.w3.org/1999/xlink" xmlns:svgjs="http://svgjs.com/svgjs" width="512" height="512" x="0" y="0" viewBox="0 0 64 64" style="enable-background:new 0 0 512 512" xml:space="preserve" class=""><g><path xmlns="http://www.w3.org/2000/svg" d="m16 17v38a7 7 0 0 0 -7.1-7 7.092 7.092 0 0 0 -6.9 6.9 7 7 0 0 0 7 7.1h53v-45z" fill="#e2e7f6" data-original="#e2e7f6" class=""></path><path xmlns="http://www.w3.org/2000/svg" d="m42 28v2a2 2 0 0 0 2 2h8a2 2 0 0 0 2-2v-2" fill="#d5883e" data-original="#d5883e"></path><path xmlns="http://www.w3.org/2000/svg" d="m2 55v-37.734a7.179 7.179 0 0 1 6.123-7.213 7 7 0 0 1 7.877 6.947v38a7 7 0 0 0 -7.1-7 7.092 7.092 0 0 0 -6.9 6.9z" fill="#c8cded" data-original="#c8cded" class=""></path><path xmlns="http://www.w3.org/2000/svg" d="m22 29-16-16 7-7 16 16h-4v3h-3z" fill="#f0ae42" data-original="#f0ae42" class=""></path><path xmlns="http://www.w3.org/2000/svg" d="m13 6-7 7-2.55-2.55a4.948 4.948 0 0 1 -1.45-3.5 4.95 4.95 0 0 1 4.95-4.95 4.948 4.948 0 0 1 3.5 1.45z" fill="#b5b5b5" data-original="#b5b5b5" class=""></path><path xmlns="http://www.w3.org/2000/svg" d="m9 7-2.55-2.55a4.953 4.953 0 0 0 -2.567-1.358 4.919 4.919 0 0 0 -.433 7.358l1.05 1.05z" fill="#cccccc" data-original="#cccccc"></path><path xmlns="http://www.w3.org/2000/svg" d="m6.05 8.879h9.899v4.243h-9.899z" fill="#d5883e" transform="matrix(.707 -.707 .707 .707 -4.556 11)" data-original="#d5883e"></path><path xmlns="http://www.w3.org/2000/svg" d="m29 22h-4v3h-3v4l10 3z" fill="#f7d2b7" data-original="#f7d2b7"></path><path xmlns="http://www.w3.org/2000/svg" d="m30.154 25.846-4.308 4.308 6.154 1.846z" fill="#686868" data-original="#686868"></path><path xmlns="http://www.w3.org/2000/svg" d="m42 49v-4h-2.231a8.943 8.943 0 0 0 -1.156-2.785l1.579-1.579-2.828-2.828-1.579 1.579a8.943 8.943 0 0 0 -2.785-1.156v-2.231h-4v2.231a8.943 8.943 0 0 0 -2.785 1.156l-1.579-1.579-2.828 2.828 1.579 1.579a8.943 8.943 0 0 0 -1.156 2.785h-2.231v4h2.231a8.943 8.943 0 0 0 1.156 2.785l-1.579 1.579 2.828 2.828 1.579-1.579a8.943 8.943 0 0 0 2.785 1.156v2.231h4v-2.231a8.943 8.943 0 0 0 2.785-1.156l1.579 1.579 2.828-2.828-1.579-1.579a8.943 8.943 0 0 0 1.156-2.785zm-11 3a5 5 0 1 1 5-5 5 5 0 0 1 -5 5z" fill="#78a0d4" data-original="#78a0d4" class=""></path><path xmlns="http://www.w3.org/2000/svg" d="m13.207 11.793-1.414 1.414 11.793 11.793h1.414v-1.414z" fill="#f9d266" data-original="#f9d266"></path><path xmlns="http://www.w3.org/2000/svg" d="m59 13a11 11 0 1 0 -19.724 6.693 12.471 12.471 0 0 1 2.724 7.583v.724h12v-.729a12.166 12.166 0 0 1 2.662-7.5 10.934 10.934 0 0 0 2.338-6.771z" fill="#f9d266" data-original="#f9d266"></path><path xmlns="http://www.w3.org/2000/svg" d="m45 32v1a3 3 0 0 0 3 3 3 3 0 0 0 3-3v-1" fill="#f0ae42" data-original="#f0ae42" class=""></path><path xmlns="http://www.w3.org/2000/svg" d="m56 13h-2a6.006 6.006 0 0 0 -6-6v-2a8.009 8.009 0 0 1 8 8z" fill="#fce797" data-original="#fce797"></path><g xmlns="http://www.w3.org/2000/svg" fill="#f0ae42"><path d="m51 28h-2v-7h-2v7h-2v-7h-1a3 3 0 1 1 3-3v1h2v-1a3 3 0 1 1 3 3h-1zm0-9h1a1 1 0 1 0 -1-1zm-7-2a1 1 0 0 0 0 2h1v-1a1 1 0 0 0 -1-1z" fill="#f0ae42" data-original="#f0ae42" class=""></path><path d="m52.5 57h-10.5v-2h10.5a4.5 4.5 0 0 0 0-9 5.506 5.506 0 0 1 -5.5-5.5v-1.5h2v1.5a3.5 3.5 0 0 0 3.5 3.5 6.5 6.5 0 0 1 0 13z" fill="#f0ae42" data-original="#f0ae42" class=""></path></g></g></svg>