<?xml version="1.0" encoding="utf-8"?>
<!-- Generator: Adobe Illustrator 23.0.5, SVG Export Plug-In . SVG Version: 6.00 Build 0)  -->
<svg version="1.1" id="Layer_1" xmlns:svgjs="http://svgjs.com/svgjs"
	 xmlns="http://www.w3.org/2000/svg" xmlns:xlink="http://www.w3.org/1999/xlink" x="0px" y="0px" viewBox="0 0 512 512"
	 style="enable-background:new 0 0 512 512;" xml:space="preserve">
<style type="text/css">
	.st0{fill:url(#SVGID_1_);}
	.st1{fill:#FFFFFF;}
</style>
<g>
	
		<linearGradient id="SVGID_1_" gradientUnits="userSpaceOnUse" x1="-15.25" y1="-214.6196" x2="-15.25" y2="-151.523" gradientTransform="matrix(8 0 0 8 378 1726)">
		<stop  offset="0" style="stop-color:#FFB000"/>
		<stop  offset="0.5" style="stop-color:#E61E71"/>
		<stop  offset="1" style="stop-color:#9D2888"/>
	</linearGradient>
	<path class="st0" d="M256,0C114.8,0,0,114.8,0,256s114.8,256,256,256s256-114.8,256-256S397.2,0,256,0z M256,448
		c-105.9,0-192-86.1-192-192S150.1,64,256,64s192,86.1,192,192S361.9,448,256,448z"/>
</g>
<g>
	<g>
		<path class="st1" d="M284.9,290.1h9.2c15.7,0,32-8.3,48.5-24.8l6.5-6.5l6.5,6.5c2.5,2.5,5,4.8,7.5,6.9c2.8-10.4,4.3-21.2,4.3-32.5
			c0-68.3-55.4-123.7-123.7-123.7S120,171.4,120,239.7s55.4,123.7,123.7,123.7c17.4,0,34-3.6,49-10.1c-4.9-13.9-7.7-31.3-7.7-54
			V290.1z M184.1,271.7v-64.1l59.5-36.6l59.5,36.6v64.1l-59.5,36.6L184.1,271.7z"/>
		<path class="st1" d="M207,221.4h9.2V258H207V221.4z"/>
		<path class="st1" d="M229.9,258h27.5v-36.6h-27.5V258z M239.1,230.5h9.2v18.3h-9.2V230.5z"/>
		<path class="st1" d="M271.2,221.4h9.2V258h-9.2V221.4z"/>
		<path class="st1" d="M294.1,299.2c0,64.1,22.9,82.5,55,100.8c32.1-18.3,55-36.6,55-100.8c-18.3,0-36.6-9.2-55-27.5
			C330.7,290.1,312.4,299.2,294.1,299.2z M379.8,316.2l-35.3,35.3l-17-17l6.5-6.5l10.5,10.5l28.8-28.8L379.8,316.2z"/>
	</g>
</g>
</svg>
