<?xml version="1.0" encoding="utf-8"?>
<!-- Generator: Adobe Illustrator 23.0.5, SVG Export Plug-In . SVG Version: 6.00 Build 0)  -->
<svg version="1.1" id="Layer_1" xmlns:svgjs="http://svgjs.com/svgjs"
	 xmlns="http://www.w3.org/2000/svg" xmlns:xlink="http://www.w3.org/1999/xlink" x="0px" y="0px" viewBox="0 0 512 512"
	 style="enable-background:new 0 0 512 512;" xml:space="preserve">
<style type="text/css">
	.st0{fill:url(#SVGID_1_);}
	.st1{fill:#FFFFFF;}
</style>
<g>
	
		<linearGradient id="SVGID_1_" gradientUnits="userSpaceOnUse" x1="-15.25" y1="-214.6196" x2="-15.25" y2="-151.523" gradientTransform="matrix(8 0 0 8 378 1726)">
		<stop  offset="0" style="stop-color:#FFB000"/>
		<stop  offset="0.5" style="stop-color:#E61E71"/>
		<stop  offset="1" style="stop-color:#9D2888"/>
	</linearGradient>
	<path class="st0" d="M256,0C114.8,0,0,114.8,0,256s114.8,256,256,256s256-114.8,256-256S397.2,0,256,0z M256,448
		c-105.9,0-192-86.1-192-192S150.1,64,256,64s192,86.1,192,192S361.9,448,256,448z"/>
</g>
<g>
	<g>
		<g id="outline">
			<path class="st1" d="M304.4,336.3c43.2,15.3,90.7-7.4,106-50.6s-7.4-90.7-50.6-106c-17.9-6.3-37.4-6.3-55.3,0v-19.4l11.2-13.9
				c8.7,3,18.2-1.5,21.2-10.2c3-8.7-1.5-18.2-10.2-21.2s-18.2,1.5-21.2,10.2c-1.7,4.8-1.1,10,1.6,14.3l-12.4,15.5
				c-0.8,1-1.2,2.2-1.2,3.5v26.2c-0.9,0.5-1.9,1-2.8,1.5c-11-6.4-23.3-10.1-36-10.9v-28.8c8.6-3.1,13.2-12.5,10.1-21.2
				s-12.5-13.2-21.2-10.1c-8.6,3.1-13.2,12.5-10.1,21.2c1.7,4.7,5.4,8.5,10.1,10.1v28.8c-12.7,0.8-25,4.6-36,10.9
				c-0.9-0.5-1.9-1-2.8-1.5v-26.2c0-1.3-0.4-2.5-1.2-3.5l-12.4-15.5c4.8-7.8,2.4-18-5.3-22.9s-18-2.4-22.9,5.3s-2.4,18,5.3,22.9
				c4.3,2.6,9.5,3.2,14.2,1.6l11.2,13.9v19.4c-43.2-15.3-90.7,7.4-106,50.6s7.4,90.7,50.6,106c17.9,6.3,37.4,6.3,55.3,0v19.4
				l-11.2,13.9c-8.7-3-18.2,1.5-21.2,10.2c-3,8.7,1.5,18.2,10.2,21.2c8.7,3,18.2-1.5,21.2-10.2c1.7-4.7,1.1-10-1.6-14.3l12.4-15.5
				c0.8-1,1.2-2.2,1.2-3.5v-26.2c0.9-0.5,1.9-1,2.8-1.5c11,6.4,23.3,10.1,36,10.9v28.8c-8.6,3.1-13.2,12.5-10.1,21.2
				c3.1,8.6,12.5,13.2,21.2,10.1c8.6-3.1,13.2-12.5,10.1-21.2c-1.7-4.7-5.4-8.5-10.1-10.1v-28.8c12.7-0.8,25-4.6,36-10.9
				c0.9,0.5,1.9,1,2.8,1.5v26.2c0,1.3,0.4,2.5,1.2,3.5l12.4,15.5c-4.8,7.8-2.4,18,5.3,22.9c7.8,4.8,18,2.4,22.9-5.3
				c4.8-7.8,2.4-18-5.3-22.9c-4.3-2.6-9.5-3.2-14.2-1.6l-11.2-13.9L304.4,336.3z M321,125.1c3.1,0,5.5,2.5,5.5,5.5
				c0,3.1-2.5,5.5-5.5,5.5c-3.1,0-5.5-2.5-5.5-5.5C315.4,127.6,317.9,125.1,321,125.1z M171.5,130.7c0-3.1,2.5-5.5,5.5-5.5
				s5.5,2.5,5.5,5.5c0,3.1-2.5,5.5-5.5,5.5C174,136.2,171.5,133.7,171.5,130.7z M177,390.9c-3.1,0-5.5-2.5-5.5-5.5
				c0-3.1,2.5-5.5,5.5-5.5s5.5,2.5,5.5,5.5C182.6,388.4,180.1,390.9,177,390.9z M249,330c-39.8,0-72-32.2-72-72s32.2-72,72-72
				s72,32.2,72,72C320.9,297.7,288.7,329.9,249,330z M168.4,278.2l-2,4.2l-9.2-24.4h8.6C165.9,264.8,166.8,271.6,168.4,278.2z
				 M166.7,246.9h-6.3l8.3-11.1h0.2C167.9,239.5,167.2,243.2,166.7,246.9z M146.6,246.9h-8.3l8.3-11.1h8.3L146.6,246.9z M145.5,258
				l4.6,12.2L139.4,258H145.5z M172.9,224.8h-29.1c-1.7,0-3.4,0.8-4.4,2.2l-16.6,22.1l0,0c-1.6,2.1-1.5,5,0.3,7l38.8,44.3
				c1,1.1,2.4,1.8,3.9,1.9c0.1,0,0.2,0,0.2,0c1.4,0,2.8-0.6,3.8-1.6l5.2-5c1.7,3.4,3.7,6.7,5.9,9.8c-26.2,8.3-54.2-6.3-62.5-32.6
				c-8.3-26.2,6.3-54.2,32.6-62.5c9.7-3.1,20.2-3.1,29.9,0C177.8,215,175.1,219.8,172.9,224.8L172.9,224.8z M350.2,266.9
				c0,3.1-2.5,5.5-5.5,5.5h-11.1v-11.1h11.1C347.7,261.3,350.2,263.8,350.2,266.9L350.2,266.9z M344.6,239.2c3.1,0,5.5,2.5,5.5,5.5
				s-2.5,5.5-5.5,5.5h-11.1v-11.1H344.6z M326.6,287.5c1,2.9,4.2,4.4,7.1,3.4c2.2-0.8,3.7-2.9,3.7-5.2v-2.2h3.4v2.2
				c0,3.1,2.5,5.5,5.5,5.5c3.1,0,5.5-2.5,5.5-5.5v-3.9c8.2-4,11.7-13.9,7.7-22.2c-0.7-1.4-1.5-2.7-2.6-3.9
				c6.1-6.8,5.6-17.3-1.3-23.4c-1.2-1-2.5-1.9-3.9-2.6v-3.9c0-3.1-2.5-5.5-5.5-5.5c-3.1,0-5.5,2.5-5.5,5.5v2.2h-3.4v-2.2
				c0-3.1-2.5-5.5-5.5-5.5s-5.5,2.5-5.5,5.5v1.8c-2.4-6.1-5.5-11.8-9.3-17.2c26.2-8.3,54.2,6.3,62.5,32.5
				c8.3,26.2-6.3,54.2-32.5,62.5c-9.8,3.1-20.2,3.1-30,0C321,299.9,324.2,293.9,326.6,287.5z M404,258c0,39.8-32.2,72-72,72
				c-10.8,0-21.5-2.4-31.2-7.1c3.1-2.5,6.1-5.3,8.9-8.2c31.3,12.3,66.7-3,79-34.3c12.3-31.3-3-66.7-34.3-79
				c-14.4-5.7-30.3-5.7-44.7,0c-2.7-2.9-5.7-5.7-8.9-8.2c35.8-17.2,78.8-2.2,96.1,33.6C401.6,236.5,404,247.2,404,258z M249,125.1
				c3.1,0,5.5,2.5,5.5,5.5c0,3.1-2.5,5.5-5.5,5.5c-3.1,0-5.5-2.5-5.5-5.5C243.5,127.6,245.9,125.1,249,125.1z M94,258
				c0-39.8,32.2-72,72-72c10.8,0,21.5,2.4,31.2,7.1c-3.1,2.5-6.1,5.3-8.9,8.2c-31.3-12.3-66.6,3-79,34.3s3,66.6,34.3,79
				c14.4,5.7,30.3,5.7,44.7,0c2.7,2.9,5.7,5.7,8.9,8.2c-35.8,17.2-78.8,2.2-96.1-33.6C96.4,279.5,94,268.8,94,258L94,258z
				 M249,390.9c-3.1,0-5.5-2.5-5.5-5.5c0-3.1,2.5-5.5,5.5-5.5c3.1,0,5.5,2.5,5.5,5.5C254.5,388.4,252.1,390.9,249,390.9z
				 M326.5,385.3c0,3.1-2.5,5.5-5.5,5.5c-3.1,0-5.5-2.5-5.5-5.5c0-3.1,2.5-5.5,5.5-5.5C324,379.8,326.5,382.3,326.5,385.3z"/>
			<path class="st1" d="M249,197.1c-33.6,0-60.9,27.3-60.9,60.9s27.3,60.9,60.9,60.9s60.9-27.3,60.9-60.9
				C309.9,224.4,282.6,197.1,249,197.1L249,197.1z M249,307.8c-27.5,0-49.8-22.3-49.8-49.8s22.3-49.8,49.8-49.8s49.8,22.3,49.8,49.8
				C298.8,285.5,276.5,307.8,249,307.8L249,307.8z"/>
			<path class="st1" d="M261.3,224.1c-2.1-1.4-4.3-2.4-6.7-3v-1.9c0-3.1-2.5-5.5-5.5-5.5c-3.1,0-5.5,2.5-5.5,5.5v1.9
				c-9.8,2.5-16.6,11.3-16.6,21.4c0,6.8,3.8,13.1,10,16.1l19.4,9.7c2.4,1.2,3.9,3.6,3.8,6.2c0,6.1-4.9,11-11,11.1c0,0,0,0-0.1,0
				c0,0,0,0-0.1,0c-6.1,0-11-5-11-11.1v-2.2c0-3.1-2.5-5.5-5.5-5.5s-5.5,2.5-5.5,5.5v2.2c0,10.1,6.8,18.9,16.6,21.4v0.7
				c0,3.1,2.5,5.5,5.5,5.5c3.1,0,5.5-2.5,5.5-5.5V296c9.8-2.5,16.6-11.3,16.6-21.4c0-6.8-3.8-13.1-10-16.1l-19.4-9.7
				c-2.4-1.2-3.9-3.6-3.8-6.2c0-6.1,5-11.1,11.1-11.1s11.1,5,11.1,11.1v2.2c0,3.1,2.5,5.5,5.5,5.5c3.1,0,5.5-2.5,5.5-5.5v-2.2
				C271.2,235.2,267.5,228.2,261.3,224.1L261.3,224.1z"/>
		</g>
	</g>
</g>
</svg>
