<?xml version="1.0" encoding="utf-8"?>
<!-- Generator: Adobe Illustrator 23.0.5, SVG Export Plug-In . SVG Version: 6.00 Build 0)  -->
<svg version="1.1" id="Layer_1" xmlns:svgjs="http://svgjs.com/svgjs"
	 xmlns="http://www.w3.org/2000/svg" xmlns:xlink="http://www.w3.org/1999/xlink" x="0px" y="0px" viewBox="0 0 512 512"
	 style="enable-background:new 0 0 512 512;" xml:space="preserve">
<style type="text/css">
	.st0{fill:url(#SVGID_1_);}
	.st1{fill:#FFFFFF;}
</style>
<g>
	
		<linearGradient id="SVGID_1_" gradientUnits="userSpaceOnUse" x1="-15.25" y1="-214.6196" x2="-15.25" y2="-151.523" gradientTransform="matrix(8 0 0 8 378 1726)">
		<stop  offset="0" style="stop-color:#FFB000"/>
		<stop  offset="0.5" style="stop-color:#E61E71"/>
		<stop  offset="1" style="stop-color:#9D2888"/>
	</linearGradient>
	<path class="st0" d="M256,0C114.8,0,0,114.8,0,256s114.8,256,256,256s256-114.8,256-256S397.2,0,256,0z M256,448
		c-105.9,0-192-86.1-192-192S150.1,64,256,64s192,86.1,192,192S361.9,448,256,448z"/>
</g>
<path class="st1" d="M242,405.8c4.3,0.9,7.3-2.1,9.8-5l4-4.7l6.1-7.1l7.8-9.1l9.2-10.7l10.3-12l11.1-13.1l11.6-13.5l11.7-13.8
	l11.7-13.7l11.3-13.1l10.4-12.3l9.5-11.1l8.2-9.6l6.6-7.7l4.6-5.5l2.7-3.2c3-3.5,2.7-8.7-0.5-12l-46-45c-1.2-1.2-2.8-2-4.5-2.3
	L146.4,145c-3.1-0.4-6.2,0.8-8.4,3c-2,2.5-2.5,5.9-1.3,8.9l0.6,1.5l1.7,4.3l2.8,6.8l3.7,9.1l4.5,11l5.2,12.7l5.7,14.1l6.1,15.2
	l6.5,16l6.7,16.5l6.8,16.8l6.8,16.7l6.6,16.4l6.4,15.8l6.1,14.9l5.6,13.7l5,12.3l4.3,10.6l3.5,8.5l2.6,6.2l1.5,3.6
	C236.3,402.7,238.9,405,242,405.8L242,405.8z M363.2,228.9l-70,10.3l42.4-37.2L363.2,228.9z M265,240.8l-87.9-72.2l139.7,26.6
	L265,240.8z M255.8,255.7l-16.2,108.6l-73.9-182.6L255.8,255.7z M272.8,259.8l87.7-13.1L256.6,368.4L272.8,259.8z"/>
</svg>
