<?xml version="1.0" encoding="utf-8"?>
<!-- Generator: Adobe Illustrator 23.0.5, SVG Export Plug-In . SVG Version: 6.00 Build 0)  -->
<svg version="1.1" id="Layer_1" xmlns:svgjs="http://svgjs.com/svgjs"
	 xmlns="http://www.w3.org/2000/svg" xmlns:xlink="http://www.w3.org/1999/xlink" x="0px" y="0px" viewBox="0 0 512 512"
	 style="enable-background:new 0 0 512 512;" xml:space="preserve">
<style type="text/css">
	.st0{fill:url(#SVGID_1_);}
	.st1{fill:#FFFFFF;}
</style>
<g>
	
		<linearGradient id="SVGID_1_" gradientUnits="userSpaceOnUse" x1="-15.25" y1="-214.6196" x2="-15.25" y2="-151.523" gradientTransform="matrix(8 0 0 8 378 1726)">
		<stop  offset="0" style="stop-color:#FFB000"/>
		<stop  offset="0.5" style="stop-color:#E61E71"/>
		<stop  offset="1" style="stop-color:#9D2888"/>
	</linearGradient>
	<path class="st0" d="M256,0C114.8,0,0,114.8,0,256s114.8,256,256,256s256-114.8,256-256S397.2,0,256,0z M256,448
		c-105.9,0-192-86.1-192-192S150.1,64,256,64s192,86.1,192,192S361.9,448,256,448z"/>
</g>
<g>
	<path class="st1" d="M315.7,189.1l-12.3,8.2l-12.3-8.2l12.3-21L315.7,189.1z"/>
	<path class="st1" d="M352.4,226c-7.4-5.1-15.3-9.3-23.8-12.5c-1.2-0.4-1.8-1.7-1.5-2.9c1.4-5.2-5.7-8.5-8.8-3.8
		c-2.4,3.7-1.8,2.7-9.4,1.3c-1.1-0.2-1.4-1.6-0.5-2.2c2.4-1.6,7.1-4.8,16.7-11.1c2.2-1.4,2.8-4.3,1.5-6.6l-18.9-32.2
		c-1.9-3.2-6.6-3.2-8.5,0l-18.9,32.2c-1.3,2.2-0.7,5.1,1.5,6.6l14.3,9.5c1,0.7,0.5,2.3-0.7,2.2c-9.2-0.5-10.3,0.5-11.3-1.5
		c-6.6-13-16.1-25.3-28-35.2c-1-0.8-1.1-2.2-0.4-3.3c10.7-15.5,28.6-25.4,48.1-25.4c43.7,0,71.1,46.2,52.3,84.1
		C355.3,226.4,353.6,226.9,352.4,226L352.4,226z"/>
	<path class="st1" d="M380.4,253.8c-5.4-7.5-11.7-14.5-16.6-18.7c-0.9-0.8-1.1-2-0.5-3c24.9-45.3-8.1-100.8-59.6-100.8
		c-23,0-43.5,11.4-55.9,29.3c-0.7,1.1-2.2,1.4-3.3,0.7c-7.1-4.5-14.6-8.2-21.8-10.8c-1.5-0.5-2.1-2.3-1.2-3.6
		c17.7-27.4,48.5-44.7,82-44.7c78.1,0,124.1,87.5,81,151.7C383.5,255.1,381.4,255.2,380.4,253.8L380.4,253.8z"/>
	<path class="st1" d="M213.5,286.6V239l-26,20.2c-1.8,1.4-4.3,1.4-6,0l-26-20.2v47.6c0,2.7-2.2,4.9-4.9,4.9h-12
		c23.4,29.7,68.5,29.6,91.8,0h-12C215.7,291.5,213.5,289.3,213.5,286.6z"/>
	<path class="st1" d="M184.5,196.9c-43.5,0-71.8,46.1-52.2,84.8h13.4v-52.7c0-4.1,4.7-6.4,7.9-3.9l30.9,24l30.9-24
		c3.2-2.5,7.9-0.2,7.9,3.9v52.7h13.4C256.2,243.1,228.1,196.9,184.5,196.9z"/>
	<path class="st1" d="M277.4,225.8c-12.5-39.5-49.5-67.9-92.9-67.9c-53.8,0-97.5,43.7-97.5,97.5s43.7,97.5,97.5,97.5
		C251,352.8,297.2,288,277.4,225.8z M184.5,323.5c-25.3,0-48.4-13.9-60.3-36.2c-24.1-45.2,8.8-100.3,60.3-100.3
		c37.6,0,68.2,30.6,68.2,68.2C252.7,292.8,222.4,323.5,184.5,323.5z"/>
	<path class="st1" d="M347.4,321.8c-1.7,31.3-28.1,55.8-59.5,55.3c-18.7-0.3-35.5-9.3-46.1-23.7c-0.6-0.9-0.4-2.1,0.5-2.7
		c12.5-7.6,23.4-17.6,32.1-29.5c0.5-0.7,1.6-0.1,1.3,0.7l-9.3,27.5c-1.1,3.2,1.3,6.5,4.6,6.5h40.7c2.6,0,4.9-2,5.1-4.6
		c0.2-2.9-2.1-5.2-4.9-5.2h-34l9.4-27.7l16.4-3.4c2.7-0.6,4.4-3.2,3.8-6c-0.6-2.6-3.3-4.2-6-3.6l-10.5,2.2c6.4-18.8,4.6-13.7,8-23.7
		c0.9-2.7-0.7-5.6-3.5-6.3c-0.9-0.2-1.5-1.2-1.3-2.1c0.8-4.3,1.3-8.6,1.6-13c0.1-1.1,1-1.9,2.1-1.7
		C327,265.2,349.1,291.2,347.4,321.8L347.4,321.8z"/>
	<path class="st1" d="M386.2,318.5c0,80.3-91.9,125.6-155.6,78.3c-10.7-8-19.5-17.8-26.1-29.1c-0.6-1.1,0-2.5,1.2-2.7
		c22.2-4.3,25.1-10.3,27.2-7.3c12.4,17.8,32.7,29.2,55.7,29.3c36.9,0.2,67.5-29.3,68.7-66.2c1.1-35.7-25.3-65.6-59.8-70
		c-0.9-0.1-1.6-0.8-1.6-1.7c-0.6-10.2-2.7-19.9-4.4-25.6c-0.4-1.2,0.6-2.4,1.9-2.4C345,223.4,386.2,266.2,386.2,318.5z"/>
</g>
</svg>
