<?xml version="1.0" encoding="utf-8"?>
<!-- Generator: Adobe Illustrator 23.0.5, SVG Export Plug-In . SVG Version: 6.00 Build 0)  -->
<svg version="1.1" id="Layer_1" xmlns="http://www.w3.org/2000/svg" xmlns:xlink="http://www.w3.org/1999/xlink" x="0px" y="0px"
	 viewBox="0 0 34.82 34.5" style="enable-background:new 0 0 34.82 34.5;" xml:space="preserve">
<style type="text/css">
	.st0{fill:#F26622;}
</style>
<g>
	<g>
		<path class="st0" d="M0.79,12.81l9.07,4.26c0.09,0.04,0.19,0.06,0.29,0.04l3.31-0.54c1.89-0.31,3.82,0.32,5.17,1.68l2.77,2.8
			c0.17,0.17,0.25,0.4,0.24,0.64c-0.02,0.24-0.13,0.46-0.32,0.6c-0.29,0.23-0.7,0.24-1,0.02l-2.7-1.91
			c-0.38-0.27-0.89-0.24-1.24,0.07l-1.97,1.79c-0.2,0.19-0.22,0.5-0.03,0.71c0.19,0.2,0.5,0.22,0.71,0.03l1.97-1.79l2.7,1.91
			c0.32,0.22,0.69,0.33,1.06,0.33c0.4,0,0.8-0.13,1.13-0.39c0.41-0.32,0.67-0.81,0.7-1.33c0.03-0.52-0.16-1.03-0.53-1.41l-2.2-2.22
			c1.16-0.29,2.39-0.24,3.53,0.15l1.17,0.4c0.13,0.04,0.26,0.06,0.39,0.06c0.21,0,0.41-0.05,0.6-0.16c0,0,0,0,0.01,0l8.63-5.03
			c0.24-0.14,0.32-0.44,0.18-0.68c-0.14-0.24-0.44-0.32-0.68-0.18l-8.62,5.03c-0.05,0.03-0.12,0.04-0.18,0.02l-1.17-0.4
			c-1.51-0.51-3.15-0.51-4.66-0.01c-1.56-1.44-3.71-2.09-5.81-1.74l-3.16,0.52l-8.93-4.19c-0.25-0.12-0.55-0.01-0.66,0.24
			C0.43,12.39,0.54,12.69,0.79,12.81L0.79,12.81z"/>
		<path class="st0" d="M34.51,22.17c-0.12-0.25-0.42-0.35-0.67-0.23l-4.39,2.15c-0.08,0.04-0.14,0.09-0.19,0.16l-0.35,0.5
			c-0.42,0.6-0.98,1.1-1.61,1.46c-0.05-0.08-0.11-0.16-0.17-0.23l-0.87-1c-0.64-0.73-1.75-0.81-2.48-0.17l-0.07,0.06
			c-0.37,0.32-0.57,0.77-0.6,1.23c-0.01,0-0.02,0-0.02,0c-0.47-0.03-0.92,0.12-1.28,0.43l-0.07,0.06c-0.37,0.32-0.57,0.77-0.6,1.23
			c-0.46-0.04-0.93,0.1-1.3,0.42l-0.07,0.06c-0.37,0.32-0.57,0.77-0.6,1.23c-0.46-0.04-0.93,0.1-1.3,0.42l-0.07,0.06
			c-0.35,0.31-0.57,0.74-0.6,1.2c-0.03,0.47,0.12,0.92,0.43,1.28l0.42,0.49l-0.17,0.15c0,0-0.01,0.01-0.01,0.01
			c-0.33,0.3-0.86,0.29-1.18-0.02c-0.27-0.3-0.28-0.75-0.02-1.06c0.17-0.2,0.16-0.5-0.04-0.68c-0.19-0.18-0.49-0.18-0.68,0
			l-0.05,0.05c-0.33,0.3-0.86,0.29-1.18-0.02c-0.28-0.3-0.28-0.76-0.01-1.07c0.17-0.2,0.16-0.5-0.03-0.69
			c-0.19-0.18-0.49-0.19-0.69-0.01l-0.01,0.01c-0.33,0.3-0.86,0.29-1.18-0.02c-0.27-0.3-0.28-0.76-0.02-1.06
			c0.15-0.18,0.16-0.45,0.01-0.63c-0.15-0.19-0.41-0.24-0.62-0.14c-0.33,0.17-0.73,0.09-0.97-0.19c-0.28-0.32-0.25-0.83,0.08-1.14
			l0.54-0.48l1.67-1.52c0.2-0.19,0.22-0.5,0.03-0.71c-0.19-0.2-0.5-0.22-0.71-0.03l-1.67,1.52l-0.54,0.48c0,0-0.01,0.01-0.01,0.01
			c-0.28,0.26-0.46,0.58-0.54,0.92l0,0c-0.92-0.52-1.71-1.2-2.37-2.02L7.4,24.27c-0.05-0.06-0.1-0.1-0.17-0.14l-6.01-2.94
			c-0.25-0.12-0.55-0.02-0.67,0.23c-0.12,0.25-0.02,0.55,0.23,0.67l5.91,2.89l0.21,0.27c0.74,0.92,1.63,1.68,2.66,2.26l0.62,0.35
			c0.07,0.14,0.15,0.27,0.26,0.39c0.3,0.35,0.72,0.55,1.15,0.6c-0.06,0.51,0.1,1.04,0.47,1.45c0,0,0.01,0.01,0.01,0.01
			c0.39,0.39,0.91,0.56,1.43,0.53c0,0.44,0.16,0.87,0.48,1.22c0,0,0.01,0.01,0.01,0.01c0.4,0.4,0.95,0.58,1.48,0.53
			c0.01,0.42,0.17,0.84,0.48,1.17c0,0,0.01,0.01,0.01,0.01c0.36,0.36,0.83,0.54,1.31,0.54c0.45,0,0.91-0.16,1.26-0.49l0.18-0.16
			c0.28,0.22,0.62,0.36,0.98,0.38c0.04,0,0.08,0,0.13,0c0.42,0,0.83-0.15,1.15-0.43l0.07-0.06c0.37-0.32,0.57-0.77,0.6-1.23
			c0.05,0,0.1,0.01,0.15,0.01c0.41,0,0.82-0.14,1.15-0.43l0.07-0.06c0.37-0.32,0.57-0.77,0.6-1.23c0.05,0,0.1,0.01,0.15,0.01
			c0.41,0,0.82-0.14,1.15-0.43l0.07-0.06c0.35-0.31,0.57-0.74,0.6-1.2c0-0.01,0-0.02,0-0.02c0.05,0,0.1,0.01,0.15,0.01
			c0.41,0,0.82-0.14,1.15-0.43l0.07-0.06c0.38-0.33,0.58-0.79,0.6-1.25c0.86-0.44,1.6-1.08,2.17-1.88L30,24.92l4.28-2.09
			C34.53,22.71,34.63,22.41,34.51,22.17L34.51,22.17z M20.39,32.83l-0.07,0.06c-0.15,0.13-0.35,0.2-0.55,0.18
			c-0.2-0.01-0.39-0.11-0.52-0.26l-0.87-1c-0.13-0.15-0.2-0.35-0.18-0.55c0.01-0.2,0.11-0.39,0.26-0.52l0.07-0.06
			c0.14-0.12,0.32-0.19,0.5-0.19c0.21,0,0.42,0.09,0.57,0.26l0.87,1C20.74,32.08,20.71,32.56,20.39,32.83L20.39,32.83z M22.36,31.12
			l-0.07,0.06c-0.32,0.27-0.8,0.24-1.07-0.08l-0.87-1c-0.27-0.32-0.24-0.8,0.07-1.07l0.07-0.06c0.32-0.27,0.8-0.24,1.07,0.08l0.87,1
			C22.71,30.36,22.68,30.84,22.36,31.12L22.36,31.12z M24.59,28.89c-0.01,0.2-0.11,0.39-0.26,0.52l-0.07,0.06
			c-0.32,0.27-0.8,0.24-1.07-0.08l-0.87-1c-0.27-0.32-0.24-0.8,0.07-1.07l0.07-0.06c0.14-0.12,0.31-0.19,0.5-0.19
			c0.02,0,0.04,0,0.05,0c0.2,0.01,0.39,0.11,0.52,0.26l0.87,1C24.54,28.49,24.61,28.69,24.59,28.89L24.59,28.89z M26.3,27.69
			l-0.07,0.06c-0.32,0.27-0.8,0.24-1.07-0.08l-0.87-1c-0.13-0.15-0.2-0.35-0.18-0.55c0.01-0.2,0.11-0.39,0.26-0.52l0.07-0.06
			c0.32-0.27,0.8-0.24,1.07,0.08l0.87,1C26.65,26.94,26.62,27.42,26.3,27.69L26.3,27.69z"/>
		<path class="st0" d="M15.73,14.2l1.38,0.51c0.13,0.05,0.26,0.07,0.39,0.07c0.13,0,0.27-0.02,0.39-0.07l1.38-0.51
			c1.25-0.46,2.37-1.24,3.23-2.25c0.85-1,1.44-2.21,1.7-3.5c0.05-0.27-0.12-0.53-0.39-0.59c-0.27-0.05-0.53,0.12-0.59,0.39
			c-0.46,2.29-2.1,4.21-4.29,5.01l-1.38,0.51c-0.03,0.01-0.07,0.01-0.1,0l-1.38-0.51c-2.65-0.97-4.43-3.52-4.43-6.34V2.59
			c0-0.12,0.08-0.22,0.2-0.24l5.69-1.11l5.63,1.11c0.12,0.02,0.2,0.12,0.2,0.24v3.64c0,0.28,0.22,0.5,0.5,0.5
			c0.28,0,0.5-0.22,0.5-0.5V2.59c0-0.59-0.42-1.11-1.01-1.22l-5.72-1.13c-0.06-0.01-0.13-0.01-0.19,0l-5.78,1.13
			C11.07,1.48,10.65,2,10.65,2.59v4.34C10.65,10.17,12.69,13.09,15.73,14.2L15.73,14.2z"/>
		<path class="st0" d="M17.63,2.28c-0.06-0.01-0.13-0.01-0.19,0l-4.39,0.85c-0.23,0.05-0.4,0.25-0.4,0.49v3.31
			c0,2.4,1.52,4.57,3.77,5.4l0.92,0.34c0.06,0.02,0.11,0.03,0.17,0.03c0.06,0,0.12-0.01,0.17-0.03l0.92-0.34
			c2.26-0.83,3.77-3,3.77-5.4V3.62c0-0.24-0.17-0.44-0.4-0.49L17.63,2.28z M21.36,6.93c0,1.98-1.25,3.78-3.12,4.46l-0.74,0.27
			l-0.74-0.27c-1.86-0.68-3.12-2.48-3.12-4.46v-2.9l3.89-0.76l3.83,0.75L21.36,6.93z"/>
		<path class="st0" d="M16.22,7.85c-0.2-0.19-0.52-0.18-0.71,0.02c-0.19,0.2-0.18,0.52,0.02,0.71l0.81,0.76
			c0.09,0.09,0.22,0.14,0.34,0.14c0.01,0,0.02,0,0.03,0c0.14-0.01,0.27-0.07,0.35-0.18l2.61-3.17c0.18-0.21,0.14-0.53-0.07-0.7
			c-0.21-0.18-0.53-0.14-0.7,0.07l-2.27,2.76L16.22,7.85z"/>
	</g>
</g>
</svg>
