<?xml version="1.0" encoding="utf-8"?>
<!-- Generator: Adobe Illustrator 23.0.5, SVG Export Plug-In . SVG Version: 6.00 Build 0)  -->
<svg version="1.1" id="Layer_1" xmlns:svgjs="http://svgjs.com/svgjs"
	 xmlns="http://www.w3.org/2000/svg" xmlns:xlink="http://www.w3.org/1999/xlink" x="0px" y="0px" viewBox="0 0 512 512"
	 enable-background="new 0 0 512 512" xml:space="preserve">
<g>
	<g>
		<g>
			<g>
				<g>
					<g>
						<path fill="#F39E22" d="M271.21,24.25h-33.77c-19.47,0-36.65,9.8-46.86,24.74c-6.23,9.11-9.87,20.12-9.87,31.98v31.43
							c0,31.33,25.4,56.73,56.73,56.73h33.77L271.21,24.25L271.21,24.25z"/>
						<g>
							<path fill="#EA792E" d="M180.72,88.97h59.82v15.44h-59.82V88.97z"/>
							<path fill="#DD5E26" d="M180.72,88.97h59.82v6.06h-59.82V88.97z"/>
						</g>
						<g>
							<path fill="#EA792E" d="M240.53,114.1v15.43h-57.18c-0.96-3.02-1.67-6.15-2.1-9.38c-0.28-1.98-0.45-4-0.5-6.05L240.53,114.1z
								"/>
							<path fill="#DD5E26" d="M240.53,114.1v6.05h-59.29c-0.28-1.98-0.45-4-0.5-6.05L240.53,114.1z"/>
						</g>
						<g>
							<path fill="#EA792E" d="M255.07,139.22v15.44H199.6c-3.13-2.8-5.95-5.95-8.39-9.38c-1.38-1.93-2.64-3.95-3.76-6.05H255.07z"
								/>
							<path fill="#DD5E26" d="M255.07,139.22v6.05h-63.86c-1.38-1.93-2.64-3.95-3.76-6.05H255.07z"/>
						</g>
						<g>
							<path fill="#EA792E" d="M264.76,164.35v4.78h-27.31c-8.12,0-15.84-1.7-22.83-4.78H264.76z"/>
							<path fill="#DD5E26" d="M264.76,164.35v4.78h-27.31c-8.12,0-15.84-1.7-22.83-4.78H264.76z"/>
						</g>
						<g>
							<path fill="#EA792E" d="M240.53,63.85v15.43h-59.79c0.1-3.2,0.45-6.33,1.06-9.38c0.13-0.66,0.27-1.32,0.43-1.97l1.12-4.08
								H240.53z"/>
							<path fill="#DD5E26" d="M240.53,63.85v6.05H181.8c0.13-0.66,0.27-1.32,0.43-1.97l1.12-4.08H240.53z"/>
						</g>
						<g>
							<path fill="#EA792E" d="M255.62,38.72v15.44h-68.18c0.96-1.78,2.01-3.51,3.15-5.17c1-1.45,2.06-2.86,3.18-4.21
								c1.79-2.16,3.74-4.18,5.83-6.05L255.62,38.72z"/>
							<path fill="#DD5E26" d="M255.62,38.72v6.05h-61.85c1.79-2.16,3.74-4.18,5.83-6.05H255.62z"/>
						</g>
						<g>
							<path fill="#EA792E" d="M267.28,26.57v2.46h-52.66c6.98-3.08,14.7-4.78,22.83-4.78h13.72
								C256.77,24.25,262.18,25.06,267.28,26.57z"/>
						</g>
					</g>
					<path fill="#F9C744" d="M331.28,80.97v31.43c0,4.78-0.59,9.42-1.71,13.85c-6.18,24.63-28.47,42.88-55.03,42.88h-13.72
						c-31.33,0-56.73-25.4-56.73-56.73V80.97c0-11.86,3.64-22.88,9.87-31.98c10.22-14.94,27.39-24.74,46.86-24.74h13.72
						C305.89,24.25,331.28,49.65,331.28,80.97L331.28,80.97z"/>
					<path fill="#FAD98F" d="M331.28,80.97v31.43c0,4.78-0.59,9.42-1.71,13.85c-8.37,2.86-17.26,4.4-26.47,4.4
						c-44,0-80.71-35.07-89.14-81.66c10.22-14.94,27.39-24.74,46.86-24.74h13.72C305.89,24.25,331.28,49.65,331.28,80.97
						L331.28,80.97z"/>
					<path fill="#FAEFDC" d="M290.52,51.76c-3.41,2.15-4.43,6.66-2.28,10.07l12.8,20.29c2.15,3.41,6.66,4.43,10.07,2.28
						c3.41-2.15,4.43-6.66,2.28-10.07l-12.8-20.29C298.44,50.63,293.93,49.61,290.52,51.76L290.52,51.76z"/>
					<g>
						<path fill="#DD5E26" d="M273.95,30.59h-12.52c-17.76,0-33.44,8.95-42.76,22.58c-5.68,8.31-9.01,18.36-9.01,29.19v28.68
							c0,28.59,23.18,51.76,51.77,51.76h12.52c24.23,0,44.57-16.65,50.21-39.13c1.02-4.05,1.56-8.28,1.56-12.64V82.35
							C325.72,53.76,302.54,30.59,273.95,30.59z M323.55,110.49c0,4.2-0.52,8.27-1.5,12.17c-5.43,21.64-25.01,37.66-48.33,37.66
							h-12.05c-27.52,0-49.83-22.31-49.83-49.83V82.89c0-10.42,3.2-20.1,8.67-28.09c8.97-13.12,24.06-21.73,41.16-21.73h12.05
							c27.52,0,49.83,22.31,49.83,49.83V110.49z"/>
						<path fill="#EA792E" d="M273.72,33.06h-12.05c-17.1,0-32.19,8.61-41.16,21.73c-5.47,8-8.67,17.67-8.67,28.09v27.6
							c0,27.52,22.31,49.83,49.83,49.83h12.05c23.33,0,42.91-16.03,48.33-37.66c0.98-3.89,1.5-7.97,1.5-12.17v-27.6
							C323.55,55.37,301.24,33.06,273.72,33.06z M318.39,109.22c0,3.81-0.47,7.51-1.36,11.04c-4.93,19.64-22.7,34.18-43.87,34.18
							h-10.94c-24.98,0-45.23-20.25-45.23-45.22V84.16c0-9.46,2.91-18.24,7.87-25.5c8.14-11.91,21.84-19.73,37.36-19.73h10.94
							c24.98,0,45.23,20.25,45.23,45.22L318.39,109.22L318.39,109.22z"/>
					</g>
				</g>
				<g>
					<path fill="#DD5E26" d="M287.9,93.55h-0.66l3.1-4.58h0c1.37-1.86,2.17-4.15,2.17-6.63v-5.02c0-6.19-5.02-11.21-11.21-11.21
						h-1.38V52.91c0-2.15-1.75-3.9-3.9-3.9h-4.01c-2.16,0-3.9,1.75-3.9,3.9v13.21h-6.47V52.91c0-2.15-1.75-3.9-3.9-3.9h-4.01
						c-2.16,0-3.9,1.75-3.9,3.9v13.21h-15.3c-2.16,0-3.9,1.75-3.9,3.9v4.01c0,2.16,1.75,3.9,3.9,3.9h8.61v37.52h-8.61
						c-2.16,0-3.9,1.75-3.9,3.9v4.01c0,2.16,1.75,3.9,3.9,3.9h15.3v13.21c0,2.15,1.75,3.9,3.9,3.9h4.01c0.2,0,0.39-0.01,0.58-0.04
						c1.89-0.28,3.33-1.9,3.33-3.86v-13.21h6.47v13.21c0,2.15,1.75,3.9,3.9,3.9h4.01c0.2,0,0.39-0.01,0.58-0.04
						c1.89-0.28,3.33-1.9,3.33-3.86v-13.21h7.98c3.66,0,6.99-1.43,9.46-3.77c2.65-2.5,4.31-6.06,4.31-10v-6.16
						C301.67,99.72,295.5,93.55,287.9,93.55L287.9,93.55z M261.64,77.93h14.42c2.61,0,4.73,2.12,4.73,4.74v0.78
						c0,2.13-1.4,3.92-3.33,4.52c-0.44,0.14-0.92,0.21-1.4,0.21h-14.42V77.93z M287.51,109.05c0,2.44-1.36,4.56-3.37,5.64
						c-0.9,0.48-1.93,0.76-3.03,0.76h-19.48v-13.86h19.48c3.53,0,6.4,2.86,6.4,6.4L287.51,109.05L287.51,109.05z"/>
					<path fill="#EA792E" d="M284.57,98.46h-6.6c3.85,0,7.25-1.94,9.27-4.91c0.57-0.82,1.02-1.73,1.34-2.69
						c0.39-1.13,0.6-2.35,0.6-3.61v-5.02c0-6.19-5.02-11.21-11.21-11.21h-1.38V57.81c0-2.15-1.75-3.9-3.9-3.9h-4.01
						c-0.19,0-0.38,0.01-0.57,0.04v17.07h-9.8V57.81c0-2.15-1.75-3.9-3.9-3.9h-4.01c-0.19,0-0.38,0.01-0.57,0.04v17.07h-18.63
						c-0.19,0-0.38,0.01-0.57,0.04v2.96c0,2.16,1.75,3.9,3.9,3.9h8.61v42.42h-11.95c-0.19,0-0.38,0.01-0.57,0.04v2.96
						c0,2.16,1.75,3.9,3.9,3.9h15.3v13.21c0,2.15,1.75,3.9,3.9,3.9h4.01c0.2,0,0.39-0.01,0.58-0.04v-17.07h9.8v13.21
						c0,2.15,1.75,3.9,3.9,3.9h4.01c0.2,0,0.39-0.01,0.58-0.04v-17.07h11.31c3.66,0,6.99-1.43,9.46-3.77
						c0.63-1.58,0.98-3.3,0.98-5.09v-6.16C298.34,104.62,292.17,98.46,284.57,98.46L284.57,98.46z M258.31,77.93h17.74
						c2.61,0,4.73,2.12,4.73,4.74v0.78c0,9.26-4.47,9.64-8.07,9.64h-14.41V77.93z M287.51,109.05c0,9.12-2.22,11.3-9.73,11.3h-19.48
						v-18.76h22.8c3.53,0,6.4,2.86,6.4,6.4V109.05z"/>
				</g>
			</g>
			<g>
				<g>
					<g>
						<path fill="#F39E22" d="M105,93.25l-24.5,14.14c-14.12,8.15-22.48,22.46-23.63,37.58c-0.7,9.21,1.27,18.73,6.23,27.34
							l13.16,22.8c13.12,22.73,42.19,30.52,64.92,17.39l24.5-14.14L105,93.25z"/>
						<g>
							<path fill="#EA792E" d="M66.45,178.11l43.4-25.06l6.47,11.2l-43.4,25.06L66.45,178.11z"/>
							<path fill="#DD5E26" d="M66.45,178.11l43.4-25.06l2.54,4.4l-43.4,25.06L66.45,178.11z"/>
						</g>
						<g>
							<path fill="#EA792E" d="M120.38,171.29l6.46,11.2l-41.49,23.95c-1.96-1.79-3.79-3.77-5.45-5.92c-1.03-1.32-2-2.72-2.9-4.18
								L120.38,171.29z"/>
							<path fill="#DD5E26" d="M120.38,171.29l2.54,4.39L79.9,200.52c-1.03-1.32-2-2.72-2.9-4.18L120.38,171.29z"/>
						</g>
						<g>
							<path fill="#EA792E" d="M141.45,183.43l6.47,11.2l-40.25,23.24c-3.45-0.72-6.81-1.82-10.02-3.29
								c-1.81-0.82-3.57-1.76-5.27-2.82L141.45,183.43z"/>
							<path fill="#DD5E26" d="M141.45,183.43l2.54,4.39l-46.33,26.75c-1.81-0.82-3.57-1.76-5.27-2.82L141.45,183.43z"/>
						</g>
						<g>
							<path fill="#EA792E" d="M159.01,197.6l2,3.47l-19.82,11.44c-5.89,3.4-12.21,5.4-18.56,6.09L159.01,197.6z"/>
							<path fill="#DD5E26" d="M159.01,197.6l2,3.47l-19.82,11.44c-5.89,3.4-12.21,5.4-18.56,6.09L159.01,197.6z"/>
						</g>
						<g>
							<path fill="#EA792E" d="M99.33,134.84l6.46,11.2l-43.38,25.05c-1.27-2.36-2.32-4.78-3.16-7.25
								c-0.18-0.53-0.36-1.07-0.51-1.61l-0.89-3.43L99.33,134.84z"/>
							<path fill="#DD5E26" d="M99.33,134.84l2.54,4.39l-42.61,24.6c-0.18-0.53-0.36-1.07-0.51-1.61l-0.89-3.43L99.33,134.84z"/>
						</g>
						<g>
							<path fill="#EA792E" d="M99.75,110.29l6.47,11.2l-49.46,28.56c-0.05-1.7-0.01-3.39,0.12-5.07c0.11-1.47,0.3-2.94,0.54-4.39
								c0.39-2.32,0.96-4.6,1.69-6.83L99.75,110.29z"/>
							<path fill="#DD5E26" d="M99.75,110.29l2.54,4.39l-44.87,25.91c0.39-2.32,0.96-4.6,1.69-6.83L99.75,110.29z"/>
						</g>
						<g>
							<path fill="#EA792E" d="M103.13,96.58l1.03,1.78l-38.21,22.06c3.78-5.16,8.67-9.63,14.56-13.03l9.95-5.75
								C94.52,99.3,98.79,97.63,103.13,96.58z"/>
						</g>
					</g>
					<path fill="#F9C744" d="M172.35,109.25l13.16,22.8c2,3.47,3.51,7.08,4.56,10.76c5.84,20.46-2.7,43.04-21.96,54.16l-9.95,5.75
						c-22.73,13.13-51.8,5.34-64.92-17.39l-13.16-22.8c-4.97-8.61-6.94-18.13-6.23-27.34c1.15-15.12,9.51-29.43,23.63-37.58
						l9.95-5.75C130.16,78.73,159.22,86.52,172.35,109.25L172.35,109.25z"/>
					<path fill="#FAD98F" d="M172.35,109.25l13.16,22.8c2,3.47,3.51,7.08,4.56,10.76c-4.88,5.58-10.68,10.42-17.36,14.28
						c-31.93,18.43-73.24,8.37-98.88-21.91c1.15-15.12,9.51-29.43,23.63-37.58l9.95-5.75C130.16,78.73,159.22,86.52,172.35,109.25
						L172.35,109.25z"/>
					<path fill="#FAEFDC" d="M130.53,105.13c-1.57,2.99-0.42,6.69,2.57,8.26l17.79,9.35c2.99,1.57,6.69,0.42,8.26-2.57
						c1.57-2.99,0.42-6.69-2.57-8.26l-17.79-9.35C135.8,100.99,132.11,102.14,130.53,105.13z"/>
					<g>
						<path fill="#DD5E26" d="M109.64,96.7l-9.08,5.24c-12.89,7.44-20.51,20.5-21.57,34.29c-0.64,8.41,1.15,17.09,5.69,24.95
							L96.69,182c11.98,20.74,38.5,27.85,59.24,15.87l9.08-5.24c17.58-10.15,25.37-30.75,20.04-49.42
							c-0.96-3.36-2.34-6.66-4.16-9.82l-12.01-20.81C156.91,91.83,130.39,84.73,109.64,96.7L109.64,96.7z M179.1,133.9
							c1.76,3.04,3.09,6.22,4.01,9.45c5.13,17.97-2.37,37.8-19.29,47.57l-8.74,5.05c-19.97,11.53-45.5,4.69-57.03-15.28
							l-11.56-20.03c-4.36-7.56-6.1-15.92-5.48-24.02c1.01-13.28,8.35-25.85,20.76-33.01l8.74-5.05
							c19.97-11.53,45.5-4.69,57.03,15.28L179.1,133.9z"/>
						<path fill="#EA792E" d="M110.51,98.6l-8.74,5.05c-12.41,7.16-19.75,19.73-20.76,33.01c-0.62,8.09,1.11,16.45,5.48,24.02
							l11.56,20.03c11.53,19.97,37.06,26.81,57.03,15.28l8.74-5.05c16.92-9.77,24.42-29.6,19.29-47.57
							c-0.92-3.24-2.25-6.41-4.01-9.45l-11.56-20.03C156.01,93.91,130.48,87.07,110.51,98.6L110.51,98.6z M174.82,135.14
							c1.6,2.76,2.8,5.64,3.64,8.58c4.65,16.31-2.15,34.31-17.51,43.18l-7.94,4.58c-18.12,10.46-41.3,4.25-51.76-13.87l-10.5-18.18
							c-3.96-6.86-5.53-14.45-4.97-21.8c0.92-12.05,7.58-23.46,18.84-29.96l7.94-4.58c18.12-10.46,41.3-4.25,51.76,13.87
							L174.82,135.14z"/>
					</g>
				</g>
				<g>
					<path fill="#DD5E26" d="M152.34,140.52l-0.78,1.38l-8.76,15.35c-1.3,2.29-3.74,3.7-6.38,3.68l-19.26-0.1
						c-3.61-0.02-6.51-2.96-6.48-6.57l0.34-35.7l0.03-2.88c0.03-2.68,2.92-4.35,5.26-3.04l33.59,18.97
						C153.03,133.4,154.13,137.39,152.34,140.52z"/>
					<path fill="#DD5E26" d="M157.98,145.08l-0.37,4.18l-0.18,2.02l-2.51,28.56c-0.16,1.77-1.56,3.04-3.17,3.2
						c-0.6,0.06-1.23-0.04-1.83-0.31l-25.99-12.1l-5.64-2.63c-1.1-0.51-0.72-2.16,0.49-2.14l20.6,0.36c2.7,0.05,5.2-1.4,6.51-3.76
						l9.99-18.02C156.47,143.38,158.09,143.87,157.98,145.08L157.98,145.08z"/>
					<g>
						<path fill="#EA792E" d="M151.56,141.9l-8.76,15.35c-1.3,2.29-3.74,3.7-6.38,3.68l-19.26-0.1c-3.61-0.02-6.51-2.96-6.48-6.57
							l0.34-35.7c1.05-0.73,2.48-0.89,3.75-0.18l33.59,18.97C150.11,138.36,151.23,140.05,151.56,141.9L151.56,141.9z"/>
						<path fill="#EA792E" d="M148.62,167.19c-1.31,2.36-3.81,3.81-6.51,3.76l-18.18-0.32l25.99,12.1c0.6,0.28,1.23,0.38,1.83,0.31
							l1.85-20.96c0.09-1.06-1.33-1.49-1.84-0.56L148.62,167.19z"/>
					</g>
				</g>
			</g>
			<g>
				<g>
					<g>
						<path fill="#F39E22" d="M429.08,106l-24.5-14.14c-14.12-8.15-30.69-8.24-44.36-1.68c-8.33,4-15.59,10.46-20.56,19.07
							l-13.16,22.8c-13.12,22.73-5.34,51.8,17.4,64.92l24.5,14.14L429.08,106z"/>
						<g>
							<path fill="#EA792E" d="M329.83,126.25l6.47-11.2l43.4,25.06l-6.47,11.2L329.83,126.25z"/>
							<path fill="#DD5E26" d="M333.76,119.45l2.54-4.4l43.4,25.06l-2.54,4.4L333.76,119.45z"/>
						</g>
						<g>
							<path fill="#EA792E" d="M369.18,158.34l-6.46,11.19l-41.49-23.95c0.57-2.6,1.37-5.16,2.4-7.68c0.63-1.56,1.35-3.09,2.17-4.6
								L369.18,158.34z"/>
							<path fill="#DD5E26" d="M369.18,158.34l-2.54,4.39l-43.01-24.83c0.63-1.56,1.35-3.09,2.17-4.6L369.18,158.34z"/>
						</g>
						<g>
							<path fill="#EA792E" d="M369.2,182.65l-6.47,11.2l-40.25-23.24c-1.1-3.34-1.82-6.81-2.16-10.32
								c-0.19-1.98-0.26-3.97-0.19-5.97L369.2,182.65z"/>
							<path fill="#DD5E26" d="M369.2,182.65l-2.54,4.39l-46.33-26.75c-0.19-1.98-0.26-3.97-0.19-5.97L369.2,182.65z"/>
						</g>
						<g>
							<path fill="#EA792E" d="M365.71,204.95l-2,3.47l-19.82-11.44c-5.89-3.4-10.78-7.87-14.56-13.03L365.71,204.95z"/>
							<path fill="#DD5E26" d="M365.71,204.95l-2,3.47l-19.82-11.44c-5.89-3.4-10.78-7.87-14.56-13.03L365.71,204.95z"/>
						</g>
						<g>
							<path fill="#EA792E" d="M390.23,121.88l-6.46,11.19l-43.38-25.05c1.41-2.28,2.98-4.4,4.7-6.36c0.37-0.43,0.75-0.84,1.14-1.25
								l2.52-2.49L390.23,121.88z"/>
							<path fill="#DD5E26" d="M390.23,121.88l-2.54,4.39l-42.61-24.6c0.37-0.43,0.75-0.84,1.14-1.25l2.52-2.49L390.23,121.88z"/>
						</g>
						<g>
							<path fill="#EA792E" d="M411.7,109.97l-6.47,11.2l-49.46-28.56c1.44-0.89,2.93-1.7,4.45-2.43c1.33-0.64,2.69-1.21,4.07-1.72
								c2.2-0.82,4.47-1.47,6.76-1.95L411.7,109.97z"/>
							<path fill="#DD5E26" d="M411.7,109.97l-2.54,4.39l-44.87-25.91c2.2-0.82,4.47-1.47,6.76-1.95L411.7,109.97z"/>
						</g>
						<g>
							<path fill="#EA792E" d="M425.25,106.04l-1.03,1.78l-38.21-22.06c6.35,0.69,12.67,2.69,18.56,6.09l9.95,5.75
								C418.59,99.95,422.18,102.8,425.25,106.04L425.25,106.04z"/>
						</g>
					</g>
					<path fill="#F9C744" d="M448.9,172.32l-13.16,22.8c-2,3.47-4.37,6.58-7.04,9.33c-14.8,15.28-38.62,19.18-57.89,8.06l-9.95-5.75
						c-22.73-13.13-30.52-42.19-17.4-64.92l13.16-22.8c4.97-8.61,12.23-15.07,20.56-19.07c13.67-6.56,30.24-6.48,44.36,1.68
						l9.95,5.75C454.23,120.52,462.02,149.59,448.9,172.32L448.9,172.32z"/>
					<path fill="#FAD98F" d="M448.9,172.32l-13.16,22.8c-2,3.47-4.37,6.58-7.04,9.33c-7.27-1.43-14.36-4.04-21.05-7.9
						c-31.93-18.43-43.87-59.25-30.47-96.58c13.67-6.56,30.24-6.48,44.36,1.68l9.95,5.75C454.23,120.52,462.02,149.59,448.9,172.32z
						"/>
					<path fill="#FAEFDC" d="M431.56,134.05c-3.37,0.13-6,2.98-5.87,6.35l0.79,20.08c0.13,3.37,2.98,6,6.35,5.87
						c3.37-0.13,6-2.98,5.87-6.35l-0.79-20.08C437.78,136.54,434.93,133.91,431.56,134.05z"/>
					<g>
						<path fill="#DD5E26" d="M428.41,111.74l-9.08-5.24c-12.89-7.44-28.01-7.52-40.48-1.53c-7.6,3.65-14.23,9.55-18.76,17.4
							l-12.01,20.81c-11.98,20.74-4.87,47.27,15.88,59.24l9.08,5.24c17.58,10.15,39.31,6.59,52.82-7.35
							c2.43-2.51,4.6-5.35,6.42-8.52l12.01-20.81C456.26,150.24,449.15,123.72,428.41,111.74z M430.92,190.49
							c-1.76,3.04-3.84,5.78-6.18,8.2c-13,13.42-33.92,16.85-50.84,7.08l-8.74-5.05c-19.97-11.53-26.81-37.06-15.28-57.03
							l11.56-20.03c4.37-7.56,10.74-13.24,18.06-16.75c12.01-5.76,26.56-5.69,38.97,1.47l8.74,5.05
							c19.97,11.53,26.81,37.06,15.28,57.03L430.92,190.49z"/>
						<path fill="#EA792E" d="M427.2,113.44l-8.74-5.05c-12.41-7.16-26.96-7.24-38.97-1.47c-7.32,3.51-13.69,9.19-18.06,16.75
							l-11.56,20.03c-11.53,19.97-4.69,45.5,15.28,57.03l8.74,5.05c16.92,9.77,37.84,6.35,50.84-7.08c2.34-2.42,4.42-5.15,6.18-8.2
							l11.56-20.03C454.01,150.5,447.17,124.97,427.2,113.44L427.2,113.44z M427.71,187.41c-1.6,2.76-3.49,5.25-5.61,7.44
							c-11.8,12.18-30.79,15.29-46.15,6.43l-7.94-4.58c-18.12-10.46-24.33-33.64-13.87-51.76l10.5-18.18
							c3.96-6.86,9.75-12.02,16.39-15.2c10.9-5.23,24.11-5.16,35.37,1.34l7.94,4.58c18.12,10.46,24.33,33.64,13.87,51.76
							L427.71,187.41z"/>
					</g>
				</g>
				<g>
					<path fill="#DD5E26" d="M411.39,180.13c0.59,7.2-4.88,13.5-12.16,13.83c-0.13,0.01-0.25,0.01-0.37,0.02
						c-6.46,0.12-12.08-4.74-12.9-11.15c-0.7-5.42,2.08-10.41,6.53-12.86c1.21-0.67,1.93-1.98,1.9-3.36l-0.05-2.79
						c-0.05-2.6-1.46-4.99-3.71-6.29l-1.74-1.01c-1.3-0.75-2.9-0.64-4.14,0.22c-3.94,2.75-9.28,3.15-13.72,0.59
						c-6.36-3.67-8.37-11.98-4.24-18.19c1.25-1.87,2.92-3.31,4.83-4.27c3.58-1.81,7.95-1.92,11.7,0.03
						c4.8,2.49,7.31,7.53,6.85,12.53c-0.13,1.47,0.61,2.88,1.88,3.62l2.82,1.63c1.3,0.75,2.79,1.08,4.27,0.97
						c0.59-0.04,1.18-0.15,1.75-0.35l3.68-1.21c1.35-0.45,2.33-1.62,2.56-3.02c0.66-3.95,3.16-7.45,6.83-9.3
						c0.78-0.39,1.61-0.72,2.48-0.95c7.09-1.9,14.39,2.55,15.85,9.86c1.27,6.34-2.52,12.74-8.69,14.69
						c-1.08,0.34-2.16,0.53-3.23,0.58c-3.99,0.2-7.79-1.5-10.33-4.45c-1.02-1.19-2.64-1.7-4.13-1.2l-0.12,0.04
						c-0.81,0.27-1.56,0.67-2.21,1.18c-1.83,1.41-2.94,3.62-2.89,6.02l0.01,0.2c0.03,1.53,0.96,2.93,2.39,3.46
						C407.6,170.86,410.97,175.02,411.39,180.13L411.39,180.13z"/>
					<path fill="#EA792E" d="M405.79,158.33l0.12-0.04c1.5-0.49,3.11,0.01,4.13,1.2c2.54,2.95,6.34,4.65,10.33,4.45
						c2.14-1.08,4.01-2.78,5.3-5.01c3.53-6.12,1.43-13.94-4.68-17.47c-2.21-1.28-4.65-1.82-7.03-1.7c-3.66,1.85-6.17,5.35-6.83,9.3
						c-0.23,1.4-1.21,2.57-2.56,3.02l-3.68,1.21c-0.57,0.19-1.17,0.31-1.75,0.35l-3.07,0.82c-1.79,0.48-3.69,0.23-5.29-0.7
						l-3.63-2.1c-1.35-0.78-2.11-2.24-2.09-3.8c0.09-4.87-2.6-9.62-7.44-11.86c-1.92-0.9-3.99-1.26-6.01-1.15
						c-1.9,0.96-3.58,2.41-4.83,4.27c-4.13,6.21-2.12,14.51,4.24,18.19c4.44,2.56,9.78,2.16,13.72-0.59
						c1.24-0.86,2.84-0.97,4.14-0.22l1.74,1.01c2.25,1.3,3.66,3.69,3.71,6.29l0.05,2.79c0.03,1.38-0.69,2.69-1.9,3.36
						c-4.45,2.45-7.23,7.44-6.53,12.86c0.83,6.53,6.64,11.45,13.25,11.14c0.01,0,0.02,0,0.02-0.01c1.94-0.96,3.65-2.42,4.91-4.32
						c4.12-6.21,2.1-14.49-4.25-18.16l-0.04-0.02c-1.33-0.76-2.18-2.14-2.18-3.68c0-3.6,2.21-6.83,5.57-8.14l0.33-0.13
						C404.23,159,404.98,158.6,405.79,158.33L405.79,158.33z"/>
				</g>
			</g>
			<g>
				<g>
					<g>
						<path fill="#F39E22" d="M20.44,180.69l-14.09,24.4c-8.12,14.07-8.21,30.57-1.67,44.19c3.98,8.3,10.42,15.53,19,20.48
							l22.71,13.11c22.64,13.07,51.59,5.32,64.67-17.33l14.09-24.4L20.44,180.69z"/>
						<g>
							<path fill="#EA792E" d="M29.45,273.1l24.96-43.23l11.15,6.44L40.6,279.54L29.45,273.1z"/>
							<path fill="#DD5E26" d="M29.45,273.1l24.96-43.23l4.38,2.53l-24.96,43.23L29.45,273.1z"/>
						</g>
						<g>
							<path fill="#EA792E" d="M72.57,240.35l11.15,6.44l-23.86,41.32c-2.59-0.57-5.14-1.36-7.65-2.39
								c-1.55-0.63-3.08-1.35-4.58-2.16L72.57,240.35z"/>
							<path fill="#DD5E26" d="M72.57,240.35l4.37,2.53l-24.74,42.84c-1.55-0.63-3.08-1.35-4.58-2.16L72.57,240.35z"/>
						</g>
						<g>
							<path fill="#EA792E" d="M96.79,240.33l11.15,6.44L84.8,286.86c-3.33,1.09-6.78,1.82-10.28,2.15
								c-1.97,0.19-3.96,0.26-5.95,0.19L96.79,240.33z"/>
							<path fill="#DD5E26" d="M96.79,240.33l4.37,2.53l-26.65,46.15c-1.97,0.19-3.96,0.26-5.95,0.19L96.79,240.33z"/>
						</g>
						<g>
							<path fill="#EA792E" d="M118.99,243.81l3.46,2l-11.4,19.74c-3.39,5.87-7.84,10.74-12.98,14.5L118.99,243.81z"/>
							<path fill="#DD5E26" d="M118.99,243.81l3.46,2l-11.4,19.74c-3.39,5.87-7.84,10.74-12.98,14.5L118.99,243.81z"/>
						</g>
						<g>
							<path fill="#EA792E" d="M36.26,219.39l11.15,6.44l-24.95,43.21c-2.27-1.4-4.39-2.97-6.33-4.68
								c-0.42-0.37-0.84-0.75-1.25-1.14l-2.48-2.51L36.26,219.39z"/>
							<path fill="#DD5E26" d="M36.26,219.39l4.37,2.53l-24.51,42.45c-0.42-0.37-0.84-0.75-1.25-1.14l-2.48-2.51L36.26,219.39z"/>
						</g>
						<g>
							<path fill="#EA792E" d="M24.39,198l11.15,6.44L7.1,253.71c-0.89-1.44-1.7-2.92-2.42-4.43c-0.63-1.33-1.21-2.68-1.72-4.06
								c-0.81-2.19-1.46-4.45-1.94-6.74L24.39,198z"/>
							<path fill="#DD5E26" d="M24.39,198l4.37,2.53l-25.81,44.7c-0.81-2.19-1.46-4.45-1.94-6.74L24.39,198z"/>
						</g>
						<g>
							<path fill="#EA792E" d="M20.48,184.5l1.77,1.02L0.28,223.58c0.69-6.33,2.68-12.62,6.07-18.49l5.72-9.91
								C14.41,191.13,17.26,187.56,20.48,184.5z"/>
						</g>
					</g>
					<path fill="#F9C744" d="M86.5,160.95l22.71,13.11c3.45,1.99,6.56,4.36,9.3,7.01c15.22,14.74,19.11,38.47,8.03,57.66l-5.72,9.91
						c-13.07,22.64-42.03,30.4-64.67,17.33l-22.71-13.11c-8.57-4.95-15.01-12.18-19-20.48c-6.53-13.62-6.45-30.12,1.67-44.19
						l5.72-9.91C34.91,155.63,63.86,147.88,86.5,160.95L86.5,160.95z"/>
					<path fill="#FAD98F" d="M86.5,160.95l22.71,13.11c3.45,1.99,6.56,4.36,9.3,7.01c-1.43,7.24-4.03,14.31-7.87,20.96
						c-18.36,31.8-59.02,43.69-96.2,30.35c-6.53-13.62-6.45-30.12,1.67-44.19l5.72-9.91C34.91,155.63,63.86,147.88,86.5,160.95z"/>
					<path fill="#FAEFDC" d="M48.38,178.22c0.13,3.36,2.96,5.98,6.33,5.85l20-0.79c3.36-0.13,5.98-2.96,5.85-6.33
						c-0.13-3.36-2.96-5.98-6.33-5.85l-20,0.79C50.86,172.03,48.24,174.86,48.38,178.22z"/>
					<g>
						<path fill="#DD5E26" d="M26.16,181.36l-5.22,9.05c-7.41,12.84-7.49,27.9-1.52,40.32c3.63,7.57,9.51,14.17,17.33,18.69
							l20.72,11.96c20.66,11.93,47.08,4.85,59.01-15.81l5.22-9.05c10.11-17.51,6.57-39.16-7.32-52.61c-2.5-2.42-5.33-4.58-8.48-6.4
							l-20.72-11.96C64.51,153.62,38.09,160.69,26.16,181.36L26.16,181.36z M104.6,178.85c3.03,1.75,5.76,3.83,8.17,6.16
							c13.37,12.95,16.78,33.79,7.05,50.64l-5.03,8.71c-11.48,19.89-36.91,26.7-56.8,15.22l-19.95-11.52
							c-7.53-4.35-13.19-10.7-16.68-17.99c-5.74-11.96-5.67-26.46,1.47-38.81l5.03-8.71c11.48-19.89,36.91-26.7,56.8-15.22
							L104.6,178.85z"/>
						<path fill="#EA792E" d="M27.85,182.56l-5.03,8.71c-7.13,12.36-7.21,26.86-1.47,38.81c3.5,7.29,9.15,13.64,16.68,17.99
							l19.95,11.52c19.89,11.48,45.32,4.67,56.8-15.22l5.03-8.71c9.73-16.86,6.32-37.69-7.05-50.64c-2.41-2.33-5.13-4.41-8.17-6.16
							l-19.95-11.52C64.76,155.85,39.33,162.67,27.85,182.56L27.85,182.56z M101.53,182.05c2.75,1.59,5.23,3.47,7.41,5.59
							c12.14,11.75,15.23,30.67,6.4,45.97l-4.56,7.9c-10.42,18.05-33.5,24.24-51.55,13.82l-18.11-10.45
							c-6.83-3.95-11.97-9.71-15.14-16.33c-5.21-10.86-5.14-24.01,1.33-35.23l4.56-7.9c10.42-18.05,33.5-24.24,51.55-13.82
							L101.53,182.05z"/>
					</g>
				</g>
				<g>
					<path fill="#DD5E26" d="M103.09,201.7l4.03,2.33c2.14,1.23,2.87,3.97,1.63,6.11L90.8,241.23c-1.53,2.65-5.07,3.29-7.43,1.34
						l-9.32-7.69l-1.95,11.08c-0.33,1.85-2.1,3.1-3.96,2.77l-3.49-0.62c-0.22-0.04-0.43-0.1-0.63-0.17
						c-1.5-0.57-2.43-2.14-2.14-3.78l2.22-12.55l0.76-4.31l-23.44-19.33l-0.67-0.55c-1.71-1.41-2.15-3.84-1.04-5.76l4.63-8.02
						c1.4-2.43,4.64-3.01,6.81-1.23l17.34,14.3l1.79-10.14c0.33-1.85,2.1-3.1,3.96-2.77l3.49,0.61c1.85,0.33,3.1,2.1,2.77,3.96
						l-0.45,2.54l-2.36,13.36l2.45,2.03l2.69,2.22c1.91,1.57,4.76,1.05,6-1.08l8.15-14.12C98.22,201.2,100.95,200.47,103.09,201.7
						L103.09,201.7z"/>
					<path fill="#EA792E" d="M98.68,209.67l-8.15,14.12c-1.23,2.14-4.09,2.65-6,1.08l-4.45-3.67l-3.15-2.6l0.76-4.3l2.36-13.36
						c-0.2-0.08-0.41-0.14-0.63-0.17l-3.49-0.61c-1.86-0.33-3.63,0.91-3.96,2.77l-1.79,10.14l-17.34-14.3
						c-2.16-1.78-5.4-1.19-6.81,1.23l-4.62,8l23.44,19.33l2.46,2.02l-0.76,4.3l-2.53,14.31c0.2,0.08,0.41,0.14,0.63,0.17l3.49,0.62
						c1.86,0.33,3.63-0.92,3.96-2.77l1.95-11.08l9.32,7.69c2.36,1.95,5.9,1.3,7.43-1.34l17.87-30.96l-3.89-2.24
						C102.65,206.8,99.91,207.53,98.68,209.67L98.68,209.67z"/>
				</g>
			</g>
			<g>
				<g>
					<g>
						<path fill="#F39E22" d="M504.26,202.68l-14.09-24.4c-8.12-14.07-22.37-22.39-37.43-23.54c-9.18-0.7-18.66,1.26-27.23,6.21
							l-22.71,13.11c-22.64,13.07-30.4,42.02-17.33,64.67l14.09,24.4L504.26,202.68z"/>
						<g>
							<path fill="#EA792E" d="M408.56,170.72l11.15-6.44l24.96,43.23l-11.15,6.44L408.56,170.72z"/>
							<path fill="#DD5E26" d="M415.33,166.81l4.38-2.53l24.96,43.23l-4.38,2.53L415.33,166.81z"/>
						</g>
						<g>
							<path fill="#EA792E" d="M426.52,218l-11.15,6.44l-23.86-41.32c1.78-1.96,3.75-3.77,5.9-5.43c1.32-1.03,2.71-1.99,4.17-2.89
								L426.52,218z"/>
							<path fill="#DD5E26" d="M426.52,218l-4.38,2.53l-24.74-42.84c1.32-1.03,2.71-1.99,4.17-2.89L426.52,218z"/>
						</g>
						<g>
							<path fill="#EA792E" d="M414.43,238.99l-11.15,6.44l-23.14-40.09c0.72-3.43,1.82-6.78,3.28-9.98c0.82-1.8,1.76-3.56,2.8-5.25
								L414.43,238.99z"/>
							<path fill="#DD5E26" d="M414.43,238.99l-4.38,2.53l-26.64-46.15c0.82-1.8,1.76-3.56,2.8-5.25L414.43,238.99z"/>
						</g>
						<g>
							<path fill="#EA792E" d="M400.32,256.48l-3.46,2l-11.4-19.74c-3.39-5.87-5.38-12.16-6.07-18.49L400.32,256.48z"/>
							<path fill="#DD5E26" d="M400.32,256.48l-3.46,2l-11.4-19.74c-3.39-5.87-5.38-12.16-6.07-18.49L400.32,256.48z"/>
						</g>
						<g>
							<path fill="#EA792E" d="M462.84,197.03l-11.15,6.44l-24.95-43.21c2.35-1.27,4.76-2.32,7.22-3.15
								c0.53-0.18,1.07-0.35,1.61-0.51l3.42-0.89L462.84,197.03z"/>
							<path fill="#DD5E26" d="M462.84,197.03l-4.38,2.53l-24.51-42.45c0.53-0.18,1.07-0.35,1.61-0.51l3.42-0.89L462.84,197.03z"/>
						</g>
						<g>
							<path fill="#EA792E" d="M487.29,197.45l-11.15,6.44l-28.44-49.27c1.69-0.05,3.37-0.01,5.05,0.12
								c1.47,0.11,2.93,0.29,4.37,0.54c2.31,0.39,4.58,0.96,6.81,1.69L487.29,197.45z"/>
							<path fill="#DD5E26" d="M487.29,197.45l-4.38,2.53l-25.8-44.7c2.31,0.39,4.58,0.96,6.81,1.69L487.29,197.45z"/>
						</g>
						<g>
							<path fill="#EA792E" d="M500.94,200.81l-1.77,1.02l-21.97-38.06c5.14,3.76,9.59,8.63,12.98,14.5l5.72,9.91
								C498.23,192.24,499.9,196.49,500.94,200.81L500.94,200.81z"/>
						</g>
					</g>
					<path fill="#F9C744" d="M488.32,269.76l-22.71,13.11c-3.45,1.99-7.05,3.5-10.72,4.55c-20.38,5.81-42.87-2.69-53.95-21.88
						l-5.72-9.91c-13.07-22.64-5.32-51.6,17.33-64.67l22.71-13.11c8.57-4.95,18.05-6.91,27.23-6.21
						c15.06,1.15,29.31,9.47,37.43,23.54l5.72,9.91C518.72,227.74,510.96,256.69,488.32,269.76z"/>
					<path fill="#FAD98F" d="M488.32,269.76l-22.71,13.11c-3.45,1.99-7.05,3.5-10.72,4.55c-5.56-4.86-10.38-10.64-14.22-17.29
						c-18.36-31.8-8.33-72.96,21.82-98.49c15.06,1.15,29.31,9.47,37.43,23.54l5.72,9.91C518.72,227.74,510.96,256.69,488.32,269.76
						L488.32,269.76z"/>
					<path fill="#FAEFDC" d="M492.43,228.11c-2.98-1.57-6.66-0.42-8.23,2.56l-9.32,17.72c-1.57,2.98-0.42,6.66,2.56,8.23
						c2.98,1.57,6.66,0.42,8.23-2.56l9.32-17.72C496.55,233.36,495.41,229.68,492.43,228.11L492.43,228.11z"/>
					<g>
						<g>
							<path fill="#DD5E26" d="M500.82,207.31l-5.22-9.05c-7.41-12.84-20.42-20.43-34.16-21.48c-8.38-0.64-17.03,1.15-24.85,5.67
								l-20.72,11.96c-20.66,11.93-27.74,38.35-15.81,59.01l5.22,9.05c10.11,17.51,30.63,25.27,49.23,19.96
								c3.35-0.95,6.63-2.33,9.78-4.15l20.72-11.96C505.67,254.39,512.75,227.97,500.82,207.31z M463.77,276.49
								c-3.03,1.75-6.19,3.08-9.42,3.99c-17.9,5.11-37.65-2.36-47.38-19.22l-5.03-8.71c-11.48-19.89-4.67-45.32,15.22-56.8
								l19.95-11.52c7.53-4.35,15.86-6.07,23.92-5.46c13.23,1.01,25.75,8.32,32.88,20.68l5.03,8.71
								c11.48,19.89,4.67,45.32-15.22,56.8L463.77,276.49z"/>
							<path fill="#DD5E26" d="M484.77,246.63c2.23-1.29,3.45-3.81,3.07-6.35c-0.38-2.55-2.28-4.61-4.79-5.19l-5.96-1.39
								l-23.08-5.37l-0.06-0.01l8.69-28.58c0.75-2.46-0.08-5.13-2.1-6.74c-1.61-1.28-3.72-1.67-5.64-1.11
								c-0.48,0.14-0.95,0.34-1.4,0.59l-35.41,20.45l-3.92-6.78c-0.37-0.63-0.83-1.18-1.35-1.62c-3.28,3.17-5.89,6.86-7.8,10.87
								l5.34,9.25c0.33,0.58,0.74,1.08,1.21,1.5c1.96,1.79,4.94,2.19,7.36,0.79l27.08-15.64l-6.02,19.79
								c-0.25,0.83-0.33,1.7-0.23,2.54c0.1,0.85,0.37,1.67,0.8,2.42c0.87,1.5,2.32,2.58,4.02,2.97l14.18,3.3l5.96,1.39l-27.08,15.64
								c-3,1.73-4.03,5.57-2.3,8.57l5.34,9.24c4.41,0.35,8.92-0.06,13.3-1.31c0.01,0,0.01,0,0.02-0.01
								c-0.13-0.68-0.36-1.35-0.73-1.98l-3.92-6.78L484.77,246.63z"/>
						</g>
						<path fill="#EA792E" d="M498.93,208.17l-5.03-8.71c-7.13-12.36-19.65-19.67-32.88-20.68c-8.06-0.62-16.39,1.11-23.92,5.46
							l-19.95,11.52c-6.2,3.58-11.14,8.52-14.64,14.23v0c-7.72,12.58-8.48,28.89-0.58,42.58l5.03,8.71
							c9.73,16.86,29.48,24.32,47.38,19.22c3.22-0.92,6.38-2.24,9.42-3.99l19.95-11.52C503.6,253.49,510.42,228.06,498.93,208.17
							L498.93,208.17z M410.98,258.41l-4.56-7.9c-6.45-11.18-6.54-24.28-1.39-35.11l5.34,9.25c0.33,0.58,0.74,1.08,1.21,1.5
							c0.48-0.14,0.95-0.33,1.4-0.59l34.83-20.11l-1.78,5.86l-6.02,19.79c-0.25,0.83-0.33,1.7-0.23,2.54
							c0.1,0.85,0.37,1.67,0.8,2.42c0.87,1.5,2.32,2.58,4.02,2.97l14.18,3.3l5.96,1.39l-27.08,15.64c-3,1.73-4.03,5.57-2.3,8.57
							l5.34,9.24C428.74,276.21,417.43,269.59,410.98,258.41z M462.53,272.23c-2.75,1.59-5.62,2.79-8.55,3.62
							c-1.39,0.4-2.79,0.7-4.19,0.93l-6.4-11.09l35.41-20.44c2.23-1.29,3.45-3.81,3.07-6.36c-0.38-2.55-2.28-4.61-4.79-5.19
							l-23.08-5.37l-0.06-0.01l-5.96-1.39l8.69-28.58c0.71-2.33,0.01-4.84-1.78-6.46c-0.48,0.14-0.95,0.34-1.4,0.59l-39.28,22.68
							l-4.32-7.48c2.8-3.42,6.26-6.4,10.32-8.75l18.11-10.45c6.83-3.95,14.39-5.51,21.71-4.95c12.01,0.92,23.37,7.55,29.84,18.77
							l4.56,7.9c10.42,18.05,4.24,41.13-13.81,51.56L462.53,272.23z"/>
					</g>
				</g>
			</g>
		</g>
		<g>
			<path fill="#C17E62" d="M431.77,331.92c-0.3,0.35-0.63,0.7-0.99,1.06l-0.38,0.38c-10.22,10.25-19.08,20.1-27.03,29.51
				c-57.51,67.99-68.1,112.65-208.25,112.65c-43.83,0-68.34,2.76-84.28,10.86h-0.01c-4.96-3.14-9.8-6.42-14.53-9.85
				c-21.5-15.6-40.63-34.27-56.75-55.37c-4.98-6.5-9.65-13.22-14.02-20.16l18.7-18.7c95.67-95.67,127.42-75.9,144.61-75.9
				c8.93,0,22.41-8.21,33.28-16.1c10.04-7.26,17.86-14.26,17.86-14.26c5.43-5.43,10.47-8.33,14.89-9.29
				c12.01-2.62,19.47,8.98,18.15,22.26c-0.69,6.94-3.76,14.35-9.86,20.44c-8.58,8.58-72.6,46.49-72.6,46.49s23.87,0,48.63,0h47.33
				c35.05,0,64.94-78.14,98.28-78.14c17.43,0,25.75,4.39,29.71,8.59c3.63,3.84,3.63,7.5,3.63,7.5l-3.84,4.6l-0.01,0.01l-0.11,0.14
				l-13.01,15.61h0.07h0.02c0.07,0.01,0.19,0.02,0.35,0.02h0.01h0.01c2.86,0.19,18.12,1.37,26.72,5.54
				C433.83,322.47,436.6,326.34,431.77,331.92L431.77,331.92z"/>
			<path fill="#A26D5A" d="M427.32,329.94c-0.66-0.28-1.32-0.54-1.97-0.8h-0.01c-0.01,0-0.01-0.01-0.02-0.01
				c-0.02-0.01-0.03-0.02-0.05-0.02c-1.11-0.44-2.18-0.84-3.21-1.22h-0.01c-0.13-0.05-0.27-0.1-0.39-0.15c0,0-0.01-0.01-0.02-0.01
				c-3.11-1.12-5.76-1.98-7.47-2.55c-8.6-2.92-19.93-1.71-19.93-1.71l7.05-8.77l0.02-0.03l0.31-0.38l11.59-14.42l0.11-0.14
				l0.28-0.35l0.12-0.15l0.47-0.57c-0.89-0.7-2-1.62-3.31-2.48c-0.01-0.01-0.02-0.01-0.03-0.02s-0.02-0.01-0.03-0.02
				c-0.91-0.6-1.92-1.17-3.04-1.63c-1.61-0.68-3.43-1.14-5.48-1.14c-33.34,0-68.84,84.88-103.89,84.88c-23.25,0-95.96,0-95.96,0
				s18.37-10.88,36.74-22.3c-24.76,0-48.63,0-48.63,0s64.02-37.91,72.6-46.49c6.09-6.09,9.17-13.5,9.86-20.44
				c-5.64-1.28-12.93,1.12-21.15,9.34c0,0-33.94,30.36-51.13,30.36c-17.2,0-48.94-19.77-144.61,75.89l-16.57,16.57
				c16.11,21.1,35.24,39.77,56.75,55.37c4.72,3.42,9.57,6.71,14.53,9.85h0.01c15.94-8.09,40.44-10.86,84.28-10.86
				c140.15,0,150.74-44.66,208.25-112.65c7.95-9.41,16.81-19.26,27.03-29.51l0.38-0.38c0.36-0.36,0.69-0.71,0.99-1.06
				C430.29,331.22,428.8,330.56,427.32,329.94L427.32,329.94z"/>
			<path fill="#9175A7" d="M428.36,319.82c-1.29,1.6-2.63,3.29-4,5.07c-0.77,0.99-1.53,1.98-2.29,2.96v0.01
				c-0.01,0.01-0.02,0.02-0.02,0.03h-0.01c-8.27,10.7-16.12,20.59-23.56,29.69c-78.11,95.59-113.19,106.67-177.33,106.67
				c-69.34,0-104.3,2.47-124.87,12.28c4.72,3.42,9.57,6.71,14.53,9.85h0.01c15.94-8.09,40.44-10.86,84.28-10.86
				c140.15,0,150.74-44.66,208.25-112.65c7.95-9.41,16.81-19.26,27.03-29.51l0.38-0.38c0.36-0.36,0.69-0.71,0.99-1.06
				C436.6,326.34,433.83,322.47,428.36,319.82L428.36,319.82z"/>
			<path fill="#9175A7" d="M418.13,293.89l-3.83,4.62l-0.01,0.01l-0.58,0.7l-0.12,0.15l-12.35,14.89l-12.38,14.93l-39.8,48.01
				c-18.17,18.18-36.4,38.96-65.09,38.96c0,0,47.47-21.52,67.83-50.55c8.11-11.57,20.31-27.21,32.05-41.84c0-0.01,0-0.01,0.01-0.02
				l0.63-0.78c8.23-10.24,16.19-19.93,22.29-27.3l0.58-0.71h0.01c0.13-0.16,0.26-0.32,0.39-0.48c2.7-3.26,5-6.02,6.74-8.1
				C418.13,290.23,418.13,293.89,418.13,293.89L418.13,293.89z"/>
			<path fill="#EEA47D" d="M253.36,285.49l-7.8,7.8c-5.66,5.66-14.83,5.66-20.49,0l-2.67-2.67c-0.1-0.1-0.2-0.2-0.3-0.31
				c10.04-7.26,17.86-14.26,17.86-14.26c5.43-5.43,10.47-8.33,14.89-9.29C258.97,272.41,258.47,280.39,253.36,285.49L253.36,285.49z
				"/>
			<path fill="#D48D77" d="M414.75,298.93c-5.66-5.66-14.83-5.66-20.49,0l-7.79,7.79c-5.66,5.66-6.98,15.71,2.42,22.48
				L414.75,298.93z"/>
			<path fill="#C2AACF" d="M414.31,298.53c-2.02-1.86-4.42-3.05-6.94-3.56l-23.5,28.79c1.2,2.21,2.32,3.78,5.03,5.43L414.31,298.53z
				"/>
			<path fill="#D48D77" d="M430.39,333.37c-10.22,10.25-19.08,20.1-27.03,29.51c-0.11-0.11-0.21-0.2-0.32-0.31l-2.67-2.67
				c-0.19-0.19-0.38-0.39-0.55-0.6c-0.32-0.35-0.62-0.71-0.89-1.08c-0.15-0.21-0.3-0.43-0.44-0.64c-3.68-5.61-3.05-13.24,1.88-18.17
				l7.79-7.8c3.66-3.66,8.77-4.94,13.46-3.88c0.01,0,0.02,0.01,0.02,0.01c0.14,0.03,0.29,0.06,0.43,0.11
				c1.12,0.29,2.21,0.71,3.24,1.29c0.01,0,0.01,0.01,0.02,0.01c0.01-0.01,0.01-0.01,0.01,0c0.07,0.03,0.14,0.07,0.2,0.12
				c0.49,0.27,0.96,0.57,1.41,0.9c0.11,0.09,0.2,0.16,0.31,0.23c0.17,0.14,0.34,0.27,0.5,0.4c0.11,0.1,0.22,0.19,0.33,0.3
				c0.18,0.16,0.36,0.33,0.54,0.51L430.39,333.37z"/>
			<path fill="#C2AACF" d="M430.39,333.37c-10.22,10.25-19.08,20.1-27.03,29.51c-0.11-0.11-0.21-0.2-0.32-0.31l-2.67-2.67
				c-0.19-0.19-0.38-0.39-0.55-0.6c-0.32-0.35-0.62-0.71-0.89-1.08c-0.15-0.21-0.3-0.43-0.44-0.64c7.43-9.1,15.28-18.99,23.56-29.69
				h0.01c0-0.01,0.01-0.02,0.02-0.03c1.1,0.29,2.17,0.7,3.19,1.25c0.02,0,0.03,0.01,0.05,0.02c0.01,0,0.01,0.01,0.02,0.01
				c0.07,0.04,0.15,0.07,0.21,0.12c0.49,0.28,0.96,0.57,1.41,0.9c0.11,0.09,0.2,0.16,0.31,0.23c0.17,0.14,0.34,0.27,0.5,0.4
				c0.11,0.1,0.22,0.19,0.33,0.3c0.18,0.16,0.36,0.33,0.54,0.51L430.39,333.37z"/>
		</g>
	</g>
</g>
</svg>
