<?xml version="1.0" encoding="utf-8"?>
<!-- Generator: Adobe Illustrator 23.0.5, SVG Export Plug-In . SVG Version: 6.00 Build 0)  -->
<svg version="1.1" id="Layer_1" xmlns:svgjs="http://svgjs.com/svgjs"
	 xmlns="http://www.w3.org/2000/svg" xmlns:xlink="http://www.w3.org/1999/xlink" x="0px" y="0px" viewBox="0 0 512 512"
	 enable-background="new 0 0 512 512" xml:space="preserve">
<g>
	<g>
		<g>
			<path fill="#266CB2" d="M256,456c-53.65,0-105.32-21.79-142.82-60H75v-30h51.22l4.46,4.86C162.82,405.9,208.5,426,256,426
				s93.18-20.1,125.32-55.14l4.46-4.86H437v30h-38.18C361.32,434.21,309.65,456,256,456z"/>
			<path fill="#266CB2" d="M60,192H30v-76h83.18C150.68,77.79,202.35,56,256,56s105.32,21.79,142.82,60H437v30h-51.22l-4.46-4.86
				C349.18,106.1,303.5,86,256,86s-93.18,20.1-125.32,55.14l-4.46,4.86H60V192z"/>
			<path fill="#266CB2" d="M398.82,396H437v-30h-51.22l-4.46,4.86C349.18,405.9,303.5,426,256,426v30
				C309.65,456,361.32,434.21,398.82,396z"/>
			<path fill="#266CB2" d="M381.32,141.14l4.46,4.86H437v-30h-38.18C361.32,77.79,309.65,56,256,56v30
				C303.5,86,349.18,106.1,381.32,141.14z"/>
			<path fill="#80C9FF" d="M256,396c-77.2,0-140-62.8-140-140s62.8-140,140-140s140,62.8,140,140S333.2,396,256,396z"/>
			<path fill="#80C9FF" d="M256,116v280c77.2,0,140-62.8,140-140S333.2,116,256,116z"/>
			<path fill="#266CB2" d="M256,396c-77.2,0-140-62.8-140-140s62.8-140,140-140s140,62.8,140,140S333.2,396,256,396z M256,146
				c-60.65,0-110,49.35-110,110s49.35,110,110,110s110-49.35,110-110S316.65,146,256,146z"/>
			<rect x="183" y="223.93" fill="#FE3B7F" width="17.72" height="64.51"/>
			<path fill="#FE3B7F" d="M248.28,269.03c-0.82,1-1.73,1.82-2.73,2.45c-1,0.64-2.04,1.09-3.13,1.36c-1.09,0.27-2.15,0.41-3.18,0.41
				c-2.06,0-3.89-0.47-5.5-1.41c-1.61-0.94-2.97-2.2-4.09-3.77c-1.12-1.57-1.97-3.39-2.54-5.45c-0.58-2.06-0.86-4.21-0.86-6.45
				c0-2,0.24-4.01,0.73-6.04c0.48-2.03,1.26-3.85,2.32-5.45c1.06-1.6,2.39-2.91,4-3.91c1.6-1,3.53-1.5,5.77-1.5
				c0.97,0,2.03,0.12,3.18,0.36c1.15,0.24,2.24,0.67,3.27,1.27c1.03,0.61,1.98,1.42,2.86,2.45c0.88,1.03,1.59,2.33,2.13,3.91
				l13.54-9.63c-2.06-4.24-5.24-7.65-9.54-10.22c-4.3-2.57-9.33-3.86-15.08-3.86c-4.91,0-9.28,0.94-13.13,2.82
				c-3.85,1.88-7.12,4.33-9.81,7.36c-2.7,3.03-4.74,6.45-6.13,10.27c-1.39,3.82-2.09,7.69-2.09,11.63c0,4.12,0.76,8.18,2.27,12.17
				c1.51,4,3.62,7.57,6.31,10.72c2.7,3.15,5.92,5.68,9.68,7.59c3.75,1.91,7.87,2.86,12.36,2.86c2.54,0,5.15-0.33,7.81-1
				c2.67-0.67,5.18-1.63,7.54-2.91c2.36-1.27,4.47-2.85,6.31-4.72c1.85-1.88,3.23-4,4.13-6.36l-14.45-8.63
				C249.74,266.81,249.09,268.03,248.28,269.03z"/>
			<path fill="#FFC474" d="M467,426c-25.23,0-45-19.33-45-44c0-11.95,4.6-23.35,12.94-32.08C443.53,340.94,454.91,336,467,336
				c24.81,0,45,20.19,45,45S491.81,426,467,426z"/>
			<path fill="#FFC474" d="M467,176c-25.23,0-45-19.33-45-44c0-11.95,4.6-23.35,12.94-32.08C443.53,90.94,454.91,86,467,86
				c24.81,0,45,20.19,45,45S491.81,176,467,176z"/>
			<path fill="#FFC474" d="M45,426c-25.23,0-45-19.33-45-44c0-11.95,4.6-23.35,12.94-32.08C21.53,340.94,32.91,336,45,336
				c24.81,0,45,20.19,45,45S69.81,426,45,426z"/>
			<path fill="#FFC474" d="M45,267c-25.23,0-45-19.33-45-44c0-11.95,4.6-23.35,12.94-32.08C21.53,181.94,32.91,177,45,177
				c24.81,0,45,20.19,45,45S69.81,267,45,267z"/>
			<path fill="#266CB2" d="M366,256c0,60.65-49.35,110-110,110v30c77.2,0,140-62.8,140-140s-62.8-140-140-140v30
				C316.65,146,366,195.35,366,256z"/>
			<g>
				<path fill="#FE3B7F" d="M326.82,244.37c-1.45-3.94-3.53-7.45-6.22-10.54s-5.94-5.57-9.72-7.45c-3.79-1.88-7.98-2.82-12.58-2.82
					c-4.54,0-8.71,0.89-12.49,2.68c-3.79,1.79-7.07,4.18-9.86,7.18c-2.79,3-4.95,6.47-6.5,10.4c-1.55,3.94-2.32,8.03-2.32,12.27
					c0,4.18,0.74,8.24,2.23,12.17c1.48,3.94,3.57,7.43,6.27,10.49c2.7,3.06,5.94,5.53,9.72,7.4c3.78,1.88,7.98,2.82,12.58,2.82
					c4.54,0,8.72-0.91,12.54-2.73c3.82-1.82,7.09-4.22,9.81-7.22c2.73-3,4.86-6.45,6.4-10.36c1.55-3.91,2.32-7.98,2.32-12.22
					C329,252.33,328.27,248.31,326.82,244.37z M310.24,262.36c-0.52,2.06-1.29,3.89-2.32,5.5c-1.03,1.61-2.36,2.91-4,3.91
					c-1.63,1-3.57,1.5-5.82,1.5c-2.18,0-4.09-0.48-5.72-1.45c-1.63-0.97-3-2.24-4.09-3.82c-1.09-1.57-1.89-3.38-2.41-5.41
					c-0.52-2.03-0.77-4.13-0.77-6.31c0-2.12,0.26-4.19,0.77-6.22c0.51-2.03,1.3-3.85,2.36-5.45c1.06-1.6,2.39-2.89,4-3.86
					c1.6-0.97,3.53-1.45,5.77-1.45c2.18,0,4.09,0.47,5.72,1.41c1.63,0.94,2.98,2.18,4.04,3.72c1.06,1.54,1.86,3.33,2.41,5.36
					c0.55,2.03,0.82,4.13,0.82,6.31C311.01,258.21,310.75,260.3,310.24,262.36z"/>
				<path fill="#FE3B7F" d="M256,228.39v14.97l8.04-5.72C262.23,233.92,259.55,230.83,256,228.39z"/>
				<path fill="#FE3B7F" d="M256,284.03c1.65-1.06,3.17-2.28,4.54-3.68c1.85-1.88,3.23-4,4.13-6.36L256,268.8V284.03z"/>
			</g>
		</g>
	</g>
</g>
</svg>
