<svg xmlns="http://www.w3.org/2000/svg" version="1.1" xmlns:xlink="http://www.w3.org/1999/xlink" xmlns:svgjs="http://svgjs.com/svgjs" width="512" height="512" x="0" y="0" viewBox="0 0 54 60" style="enable-background:new 0 0 512 512" xml:space="preserve" class=""><g><g xmlns="http://www.w3.org/2000/svg" id="Page-1" fill="none" fill-rule="evenodd"><g id="031---Walet" fill-rule="nonzero"><path id="Shape" d="m39.46 37.46c-1.4276109 1.4322716-1.8532674 3.5828171-1.0788993 5.4509255.7743681 1.8681083 2.5966555 3.0868363 4.6188993 3.0890745h8v7c0 3.3137085-2.6862915 6-6 6h-38c-3.3137085 0-6-2.6862915-6-6v-24c0-3.3137085 2.6862915-6 6-6h38c3.3137085 0 6 2.6862915 6 6v7h-8c-1.3265125.0000388-2.5991323.5249046-3.54 1.46z" fill="#a0522d" data-original="#a0522d" class=""></path><path id="Shape" d="m45 23h-3c3.3137085 0 6 2.6862915 6 6v7h3v-7c0-3.3137085-2.6862915-6-6-6z" fill="#783e22" data-original="#783e22"></path><path id="Shape" d="m48 53c0 3.3137085-2.6862915 6-6 6h3c3.3137085 0 6-2.6862915 6-6v-7h-3z" fill="#783e22" data-original="#783e22"></path><path id="Shape" d="m53 38v6c-.0032948 1.1032019-.8967981 1.9967052-2 2h-8c-1.786328.0000001-3.4369631-.9529946-4.3301271-2.5-.8931641-1.5470054-.8931641-3.4529946 0-5 .893164-1.5470054 2.5437991-2.5000001 4.3301271-2.5h8c1.1032019.0032948 1.9967052.8967981 2 2z" fill="#ff9801" data-original="#ff9801"></path><path id="Shape" d="m51 36h-3c1.1032019.0032948 1.9967052.8967981 2 2v6c-.0032948 1.1032019-.8967981 1.9967052-2 2h3c1.1032019-.0032948 1.9967052-.8967981 2-2v-6c-.0032948-1.1032019-.8967981-1.9967052-2-2z" fill="#f57c00" data-original="#f57c00"></path><circle id="Oval" cx="43" cy="41" fill="#ffeb3a" r="2" data-original="#ffeb3a"></circle><circle id="Oval" cx="10" cy="8" fill="#ffdc00" r="7" data-original="#ffdc00"></circle><path id="Shape" d="m10 1c-.50448491.00078729-1.00740653.05610867-1.5.165 3.2064126.70878162 5.4891145 3.5511831 5.4891145 6.835s-2.2827019 6.1262184-5.4891145 6.835c2.6211486.579393 5.3427728-.3912156 7.0057888-2.4984637 1.663016-2.107248 1.9744743-4.97993184.8017312-7.39463475-1.172743-2.41470292-3.6231022-3.94606144-6.30752-3.94190155z" fill="#fec108" data-original="#fec108"></path><circle id="Oval" cx="10" cy="8" fill="#ffeb3a" r="3" data-original="#ffeb3a"></circle><circle id="Oval" cx="42" cy="8" fill="#ffdc00" r="7" data-original="#ffdc00"></circle><path id="Shape" d="m42 1c-.5044849.00078729-1.0074065.05610867-1.5.165 3.2064126.70878162 5.4891145 3.5511831 5.4891145 6.835s-2.2827019 6.1262184-5.4891145 6.835c2.6211486.579393 5.3427728-.3912156 7.0057888-2.4984637 1.663016-2.107248 1.9744743-4.97993184.8017312-7.39463475-1.172743-2.41470292-3.6231022-3.94606144-6.30752-3.94190155z" fill="#fec108" data-original="#fec108"></path><circle id="Oval" cx="42" cy="8" fill="#ffeb3a" r="3" data-original="#ffeb3a"></circle><path id="Shape" d="m32.32 23c.4513714-.9354462.683911-1.9613565.68-3 0-3.8659932-3.1340068-7-7-7s-7 3.1340068-7 7c-.003911 1.0386435.2286286 2.0645538.68 3z" fill="#ffdc00" data-original="#ffdc00"></path><path id="Shape" d="m26 13c-.5044884.0007247-1.0074167.0560468-1.5.165 3.2122165.701991 5.5015214 3.5469727 5.5 6.835.003911 1.0386435-.2286286 2.0645538-.68 3h3c.4513714-.9354462.683911-1.9613565.68-3 0-1.8565154-.7374979-3.6369928-2.0502525-4.9497475-1.3127547-1.3127546-3.0932321-2.0502525-4.9497475-2.0502525z" fill="#fec108" data-original="#fec108"></path><circle id="Oval" cx="26" cy="20" fill="#ffeb3a" r="3" data-original="#ffeb3a"></circle><g fill="#000"><path id="Shape" d="m0 53c.00440864 3.8641657 3.13583434 6.9955914 7 7h38c3.8641657-.0044086 6.9955914-3.1358343 7-7v-6.184c1.1943509-.4222546 1.9947486-1.5492146 2-2.816v-6c-.0052514-1.2667854-.8056491-2.3937454-2-2.816v-6.184c-.0044086-3.8641657-3.1358343-6.9955914-7-7h-11.262c.1722069-.6527774.2602539-1.3248922.262-2 0-4.418278-3.581722-8-8-8s-8 3.581722-8 8c.0017461.6751078.0897931 1.3472226.262 2h-11.262c-3.86416566.0044086-6.99559136 3.1358343-7 7zm52-9c0 .5522847-.4477153 1-1 1h-8c-2.209139 0-4-1.790861-4-4s1.790861-4 4-4h8c.5522847 0 1 .4477153 1 1zm-32-24c0-3.3137085 2.6862915-6 6-6s6 2.6862915 6 6c.0012685.6816657-.1158027 1.3583779-.346 2h-2.21c.3599241-.6053465.5518554-1.2957468.556-2 0-2.209139-1.790861-4-4-4s-4 1.790861-4 4c.0041446.7042532.1960759 1.3946535.556 2h-2.21c-.2301973-.6416221-.3472685-1.3183343-.346-2zm4 0c0-1.1045695.8954305-2 2-2s2 .8954305 2 2-.8954305 2-2 2-2-.8954305-2-2zm-22 9c.00330612-2.7600532 2.23994685-4.9966939 5-5h38c2.7600532.0033061 4.9966939 2.2399468 5 5v6h-7c-3.3137085 0-6 2.6862915-6 6s2.6862915 6 6 6h7v6c-.0033061 2.7600532-2.2399468 4.9966939-5 5h-38c-2.76005315-.0033061-4.99669388-2.2399468-5-5z" fill="#000000" data-original="#000000"></path><path id="Shape" d="m43 38c-1.2133867 0-2.3072956.7309265-2.7716386 1.8519497s-.2076757 2.4113767.6503183 3.2693706c.8579939.857994 2.1483474 1.1146613 3.2693706.6503183s1.8519497-1.5582519 1.8519497-2.7716386c0-1.6568542-1.3431458-3-3-3zm0 4c-.5522847 0-1-.4477153-1-1s.4477153-1 1-1 1 .4477153 1 1-.4477153 1-1 1z" fill="#000000" data-original="#000000"></path><path id="Shape" d="m6 28h1c.55228475 0 1-.4477153 1-1s-.44771525-1-1-1h-1c-.55228475 0-1 .4477153-1 1s.44771525 1 1 1z" fill="#000000" data-original="#000000"></path><path id="Shape" d="m11 28h1c.5522847 0 1-.4477153 1-1s-.4477153-1-1-1h-1c-.5522847 0-1 .4477153-1 1s.4477153 1 1 1z" fill="#000000" data-original="#000000"></path><path id="Shape" d="m16 28h1c.5522847 0 1-.4477153 1-1s-.4477153-1-1-1h-1c-.5522847 0-1 .4477153-1 1s.4477153 1 1 1z" fill="#000000" data-original="#000000"></path><path id="Shape" d="m21 28h1c.5522847 0 1-.4477153 1-1s-.4477153-1-1-1h-1c-.5522847 0-1 .4477153-1 1s.4477153 1 1 1z" fill="#000000" data-original="#000000"></path><path id="Shape" d="m26 28h1c.5522847 0 1-.4477153 1-1s-.4477153-1-1-1h-1c-.5522847 0-1 .4477153-1 1s.4477153 1 1 1z" fill="#000000" data-original="#000000"></path><path id="Shape" d="m31 28h1c.5522847 0 1-.4477153 1-1s-.4477153-1-1-1h-1c-.5522847 0-1 .4477153-1 1s.4477153 1 1 1z" fill="#000000" data-original="#000000"></path><path id="Shape" d="m36 28h1c.5522847 0 1-.4477153 1-1s-.4477153-1-1-1h-1c-.5522847 0-1 .4477153-1 1s.4477153 1 1 1z" fill="#000000" data-original="#000000"></path><path id="Shape" d="m41 28h1c.5522847 0 1-.4477153 1-1s-.4477153-1-1-1h-1c-.5522847 0-1 .4477153-1 1s.4477153 1 1 1z" fill="#000000" data-original="#000000"></path><path id="Shape" d="m46 28h1c.5522847 0 1-.4477153 1-1s-.4477153-1-1-1h-1c-.5522847 0-1 .4477153-1 1s.4477153 1 1 1z" fill="#000000" data-original="#000000"></path><path id="Shape" d="m6 56h1c.55228475 0 1-.4477153 1-1s-.44771525-1-1-1h-1c-.55228475 0-1 .4477153-1 1s.44771525 1 1 1z" fill="#000000" data-original="#000000"></path><path id="Shape" d="m11 56h1c.5522847 0 1-.4477153 1-1s-.4477153-1-1-1h-1c-.5522847 0-1 .4477153-1 1s.4477153 1 1 1z" fill="#000000" data-original="#000000"></path><path id="Shape" d="m16 56h1c.5522847 0 1-.4477153 1-1s-.4477153-1-1-1h-1c-.5522847 0-1 .4477153-1 1s.4477153 1 1 1z" fill="#000000" data-original="#000000"></path><path id="Shape" d="m21 56h1c.5522847 0 1-.4477153 1-1s-.4477153-1-1-1h-1c-.5522847 0-1 .4477153-1 1s.4477153 1 1 1z" fill="#000000" data-original="#000000"></path><path id="Shape" d="m26 56h1c.5522847 0 1-.4477153 1-1s-.4477153-1-1-1h-1c-.5522847 0-1 .4477153-1 1s.4477153 1 1 1z" fill="#000000" data-original="#000000"></path><path id="Shape" d="m31 56h1c.5522847 0 1-.4477153 1-1s-.4477153-1-1-1h-1c-.5522847 0-1 .4477153-1 1s.4477153 1 1 1z" fill="#000000" data-original="#000000"></path><path id="Shape" d="m36 56h1c.5522847 0 1-.4477153 1-1s-.4477153-1-1-1h-1c-.5522847 0-1 .4477153-1 1s.4477153 1 1 1z" fill="#000000" data-original="#000000"></path><path id="Shape" d="m41 56h1c.5522847 0 1-.4477153 1-1s-.4477153-1-1-1h-1c-.5522847 0-1 .4477153-1 1s.4477153 1 1 1z" fill="#000000" data-original="#000000"></path><path id="Shape" d="m46 56h1c.5522847 0 1-.4477153 1-1s-.4477153-1-1-1h-1c-.5522847 0-1 .4477153-1 1s.4477153 1 1 1z" fill="#000000" data-original="#000000"></path><path id="Shape" d="m10 16c4.418278 0 8-3.581722 8-8s-3.581722-8-8-8-8 3.581722-8 8c.00495988 4.4162219 3.58377808 7.9950401 8 8zm0-14c3.3137085 0 6 2.6862915 6 6s-2.6862915 6-6 6-6-2.6862915-6-6c.00330738-3.31233757 2.68766243-5.99669262 6-6z" fill="#000000" data-original="#000000"></path><path id="Shape" d="m10 12c2.209139 0 4-1.790861 4-4s-1.790861-4-4-4-4 1.790861-4 4 1.790861 4 4 4zm0-6c1.1045695 0 2 .8954305 2 2s-.8954305 2-2 2-2-.8954305-2-2 .8954305-2 2-2z" fill="#000000" data-original="#000000"></path><path id="Shape" d="m50 8c0-4.418278-3.581722-8-8-8s-8 3.581722-8 8 3.581722 8 8 8c4.4162219-.0049599 7.9950401-3.5837781 8-8zm-14 0c0-3.3137085 2.6862915-6 6-6s6 2.6862915 6 6-2.6862915 6-6 6c-3.3123376-.0033074-5.9966926-2.6876624-6-6z" fill="#000000" data-original="#000000"></path><path id="Shape" d="m46 8c0-2.209139-1.790861-4-4-4s-4 1.790861-4 4 1.790861 4 4 4 4-1.790861 4-4zm-6 0c0-1.1045695.8954305-2 2-2s2 .8954305 2 2-.8954305 2-2 2-2-.8954305-2-2z" fill="#000000" data-original="#000000"></path></g></g></g></g></svg>