<svg xmlns="http://www.w3.org/2000/svg" version="1.1" xmlns:xlink="http://www.w3.org/1999/xlink" xmlns:svgjs="http://svgjs.com/svgjs" width="512" height="512" x="0" y="0" viewBox="0 0 512.076 512.076" style="enable-background:new 0 0 512 512" xml:space="preserve" class=""><g><g xmlns="http://www.w3.org/2000/svg"><g><path d="m355.196 114.744c0 31.137-13.315 59.151-34.543 78.67h68.651c21.223-19.52 34.529-47.537 34.529-78.67 0-58.978-47.74-106.789-106.63-106.789-12.007 0-23.549 1.989-34.319 5.653 42.054 14.308 72.312 54.183 72.312 101.136z" fill="#fee55a" data-original="#fee55a"></path><path d="m383.862 114.744c0-52.122-37.289-95.515-86.605-104.901-4.916.932-9.72 2.181-14.373 3.764 42.053 14.308 72.311 54.183 72.311 101.137 0 31.137-13.315 59.151-34.543 78.67h28.68c21.225-19.519 34.53-47.537 34.53-78.67z" fill="#ffd301" data-original="#ffd301"></path><path d="m355.196 114.744c0 31.137-13.315 59.15-34.543 78.67h8.304c38.308-5.691 67.71-38.722 67.71-78.67 0-43.102-34.22-78.176-76.933-79.517 21.765 19.551 35.462 47.93 35.462 79.517z" fill="#ffd301" data-original="#ffd301"></path><path d="m383.862 114.744c0-25.238-8.747-48.426-23.364-66.703-11.798-7.691-25.752-12.343-40.765-12.815 21.765 19.552 35.462 47.931 35.462 79.517 0 31.137-13.315 59.15-34.543 78.67h8.304c11.521-1.712 22.227-5.911 31.58-12.013 14.596-18.268 23.326-41.439 23.326-66.656z" fill="#ffc20c" data-original="#ffc20c"></path><path d="m287.558 114.744c0 31.137-13.314 59.151-34.542 78.67h68.651c21.223-19.52 34.529-47.537 34.529-78.67 0-58.978-47.74-106.789-106.63-106.789-12.007 0-23.549 1.989-34.319 5.653 42.053 14.308 72.311 54.183 72.311 101.136z" fill="#fee55a" data-original="#fee55a"></path><path d="m315.726 114.744c0-52.035-37.165-95.37-86.359-104.854-4.828.928-9.547 2.161-14.12 3.717 42.053 14.308 72.311 54.183 72.311 101.137 0 31.137-13.314 59.151-34.542 78.67h28.181c21.223-19.519 34.529-47.537 34.529-78.67z" fill="#ffd301" data-original="#ffd301"></path><path d="m287.558 114.744c0 31.137-13.315 59.15-34.543 78.67h8.304c38.308-5.691 67.71-38.722 67.71-78.67 0-43.102-34.22-78.176-76.933-79.517 21.765 19.551 35.462 47.93 35.462 79.517z" fill="#ffd301" data-original="#ffd301"></path><path d="m315.726 114.744c0-25.553-8.966-49.005-23.913-67.385-11.572-7.287-25.149-11.674-39.718-12.132 21.766 19.552 35.462 47.931 35.462 79.517 0 31.137-13.315 59.15-34.543 78.67h8.304c11.093-1.648 21.43-5.6 30.531-11.337 14.925-18.372 23.877-41.803 23.877-67.333z" fill="#ffc20c" data-original="#ffc20c"></path><path d="m109.828 193.414h144.201c21.223-19.52 34.529-47.537 34.529-78.67 0-58.978-47.74-106.789-106.63-106.789s-106.629 47.811-106.629 106.789c0 31.133 13.306 59.151 34.529 78.67z" fill="#fee55a" data-original="#fee55a"></path><path d="m103.466 114.744c0-54.196 40.313-98.958 92.546-105.861-4.609-.609-9.309-.928-14.084-.928-58.89 0-106.63 47.811-106.63 106.789 0 31.133 13.306 59.151 34.529 78.67h28.168c-21.223-19.519-34.529-47.537-34.529-78.67z" fill="#ffd301" data-original="#ffd301"></path><path d="m169.872 193.414h24.113c38.164-5.818 67.406-38.824 67.406-78.67 0-43.952-35.576-79.581-79.462-79.581s-79.462 35.63-79.462 79.581c-.001 39.847 29.241 72.852 67.405 78.67z" fill="#ffd301" data-original="#ffd301"></path><path d="m130.634 114.744c0-39.135 28.215-71.649 65.378-78.31-4.574-.82-9.275-1.272-14.084-1.272-43.886 0-79.462 35.63-79.462 79.581 0 39.847 29.242 72.852 67.406 78.67h24.113c.681-.104 1.352-.236 2.027-.357-37.164-6.659-65.378-39.176-65.378-78.312z" fill="#ffc20c" data-original="#ffc20c"></path><path d="m462.952 231.133v-11.011c0-14.841-12.143-26.985-26.985-26.985h-369.542c-14.842 0-26.985 12.143-26.985 26.985v11.011z" fill="#ab6b51" data-original="#ab6b51"></path><path d="m113.758 193.137h-47.333c-14.842 0-26.985 12.143-26.985 26.985v11.011h47.333v-11.011c.001-14.842 12.144-26.985 26.985-26.985z" fill="#965a44" data-original="#965a44"></path><path d="m39.44 466.959v11.011c0 14.841 12.143 26.985 26.985 26.985h369.543c14.842 0 26.985-12.143 26.985-26.985v-11.011z" fill="#ab6b51" data-original="#ab6b51"></path><path d="m86.774 477.97v-11.011h-47.334v11.011c0 14.841 12.143 26.985 26.985 26.985h47.333c-14.841 0-26.984-12.144-26.984-26.985z" fill="#965a44" data-original="#965a44"></path><path d="m39.44 228.912h423.512v240.268h-423.512z" fill="#bc7c63" data-original="#bc7c63"></path><path d="m39.44 228.912h47.333v240.268h-47.333z" fill="#ab6b51" data-original="#ab6b51"></path><path d="m462.559 297.606h-119.785c-28.409 0-51.439 23.03-51.439 51.44 0 28.409 23.03 51.44 51.439 51.44h119.786c5.588 0 10.117-4.53 10.117-10.117v-82.646c-.001-5.587-4.53-10.117-10.118-10.117z" fill="#ab6b51" data-original="#ab6b51"></path><path d="m328.298 349.046c0-28.409 23.03-51.44 51.439-51.44h-36.963c-28.409 0-51.439 23.03-51.439 51.44 0 28.409 23.031 51.44 51.439 51.44h36.963c-28.409 0-51.439-23.031-51.439-51.44z" fill="#965a44" data-original="#965a44"></path><circle cx="343.756" cy="349.046" fill="#dfebfa" r="22.459" data-original="#dfebfa"></circle><path d="m345.169 349.046c0-8.017 4.203-15.048 10.523-19.022-3.458-2.175-7.549-3.437-11.936-3.437-12.404 0-22.458 10.055-22.458 22.459s10.055 22.459 22.458 22.459c4.387 0 8.477-1.263 11.936-3.437-6.32-3.975-10.523-11.006-10.523-19.022z" fill="#b1dbfc" data-original="#b1dbfc"></path></g><g><path d="m313.777 348.667c0 16.52 13.439 29.959 29.959 29.959s29.959-13.439 29.959-29.959c0-16.519-13.439-29.958-29.959-29.958s-29.959 13.439-29.959 29.958zm44.918 0c0 8.248-6.711 14.959-14.959 14.959s-14.959-6.711-14.959-14.959 6.711-14.958 14.959-14.958 14.959 6.709 14.959 14.958z" fill="#000000" data-original="#000000" class=""></path><path d="m284.869 5.353c-22.192-7.013-46.212-7.064-68.637 0-10.838-3.425-22.368-5.277-34.323-5.277-62.932 0-114.13 51.198-114.13 114.13 0 25.895 8.896 50.985 24.835 71.053h-26.209c-19.016 0-34.485 15.47-34.485 34.484v257.849c0 19.015 15.47 34.484 34.485 34.484h369.542c19.016 0 34.485-15.47 34.485-34.484 0-14.308 0-54.893 0-71.874 5.757-2.901 9.724-8.853 9.724-15.728v-23.823c0-4.143-3.357-7.5-7.5-7.5s-7.5 3.357-7.5 7.5v23.823c0 1.4-1.107 2.537-2.49 2.604-.022.001-.044-.001-.067 0l-.219.013h-119.626c-24.229 0-43.939-19.712-43.939-43.94s19.711-43.939 43.939-43.939h119.616c.095.006.189.011.285.015.008 0 .017-.001.025 0 1.376.075 2.476 1.208 2.476 2.603v23.822c0 4.143 3.357 7.5 7.5 7.5s7.5-3.357 7.5-7.5v-23.822c0-6.875-3.967-12.826-9.724-15.728v-63.084-8.79c0-19.015-15.47-34.484-34.485-34.484h-27.469c15.939-20.068 24.835-45.157 24.835-71.053 0-76.54-74.579-132.123-148.444-108.854zm64.807 108.853c0 26.132-10.504 52.045-30.031 71.053h-19.047c5.693-4.009 10.939-8.697 15.577-14.024 13.757-15.8 21.333-36.053 21.333-57.028 0-46.064-35.789-83.857-81.395-86.739-5.118-4.382-10.639-8.341-16.536-11.791 59.051-6.504 110.099 39.878 110.099 98.529zm-7.679-68.301c28.751 9.47 49.15 36.381 49.15 68.3 0 31.12-20.409 58.535-49.123 68.203 14.973-20.121 22.652-44.271 22.652-68.203 0-23.949-7.548-48.024-22.679-68.3zm-68.638 0c28.751 9.47 49.15 36.381 49.15 68.3 0 31.121-20.409 58.536-49.122 68.204 15.132-20.336 22.652-44.609 22.652-68.204 0-24.109-7.643-48.15-22.68-68.3zm-190.58 68.301c0-54.66 44.47-99.13 99.13-99.13 54.896 0 99.129 44.707 99.129 99.13 0 26.412-10.696 52.232-30.03 71.053h-18.995c23.768-16.775 36.858-43.51 36.858-71.053 0-41.184-28.805-76.05-67.816-84.822-4.039-.907-8.055 1.63-8.963 5.672-.908 4.041 1.631 8.054 5.672 8.963 32.511 7.311 56.107 36.829 56.107 70.188 0 35.073-25.965 65.521-60.488 71.053h-22.948c-34.523-5.532-60.488-35.979-60.488-71.053 0-33.359 23.597-62.877 56.108-70.188 4.041-.909 6.58-4.922 5.672-8.963-.909-4.041-4.921-6.577-8.963-5.672-39.011 8.772-67.817 43.638-67.817 84.822 0 27.536 13.083 54.274 36.858 71.053h-19.012c-19.11-18.606-30.014-44.338-30.014-71.053zm372.653 363.385c0 10.744-8.741 19.484-19.485 19.484h-369.542c-10.744 0-19.485-8.74-19.485-19.484v-1.291h408.513v1.291zm0-187.864h-112.678c-32.499 0-58.939 26.44-58.939 58.939 0 32.5 26.44 58.94 58.939 58.94h112.679v53.694h-408.513v-225.267h408.513v53.694zm-19.485-89.469c10.744 0 19.485 8.74 19.485 19.484v1.29h-408.512v-1.29c0-10.744 8.741-19.484 19.485-19.484zm-47.646-15h-19.065c23.804-16.762 36.91-43.494 36.91-71.053 0-46.064-35.789-83.857-81.395-86.739-5.118-4.382-10.639-8.341-16.536-11.791 59.002-6.498 110.098 39.835 110.098 98.53 0 26.716-10.904 52.448-30.012 71.053z" fill="#000000" data-original="#000000" class=""></path><path d="m166.082 57.144c-4.143 0-7.5 3.357-7.5 7.5v8.264h-7.318c-4.143 0-7.5 3.357-7.5 7.5s3.357 7.5 7.5 7.5h1.832v52.596h-1.832c-4.143 0-7.5 3.357-7.5 7.5s3.357 7.5 7.5 7.5h7.318v8.264c0 4.143 3.357 7.5 7.5 7.5s7.5-3.357 7.5-7.5v-8.264h7.133v8.264c0 4.143 3.357 7.5 7.5 7.5s7.5-3.357 7.5-7.5v-8.265c13.426-.032 24.339-10.964 24.339-24.398 0-8.238-4.108-15.53-10.379-19.95 2.725-3.937 4.326-8.708 4.326-13.848 0-11.343-7.781-20.902-18.286-23.623v-9.04c0-4.143-3.357-7.5-7.5-7.5s-7.5 3.357-7.5 7.5v8.264h-7.133v-8.264c0-4.143-3.358-7.5-7.5-7.5zm38.971 73.96c0 5.183-4.216 9.399-9.398 9.399h-27.56v-18.798h21.506 6.054c5.183.001 9.398 4.216 9.398 9.399zm-15.452-43.196c5.183 0 9.399 4.216 9.399 9.398s-4.217 9.399-9.399 9.399h-21.506v-18.797z" fill="#000000" data-original="#000000" class=""></path></g></g></g></svg>