<svg xmlns="http://www.w3.org/2000/svg" version="1.1" xmlns:xlink="http://www.w3.org/1999/xlink" xmlns:svgjs="http://svgjs.com/svgjs" width="512" height="512" x="0" y="0" viewBox="0 0 512 512" style="enable-background:new 0 0 512 512" xml:space="preserve" class=""><g>
<path xmlns="http://www.w3.org/2000/svg" style="" d="M367.042,504.5h-224c-16.569,0-30-13.431-30-30v-437c0-16.569,13.431-30,30-30h224  c16.569,0,30,13.431,30,30v437C397.042,491.069,383.612,504.5,367.042,504.5z" fill="#d8f4ff" data-original="#d8f4ff"></path>
<path xmlns="http://www.w3.org/2000/svg" style="" d="M367.042,7.5h-30c16.569,0,30,13.431,30,30v437c0,16.569-13.431,30-30,30h30  c16.569,0,30-13.431,30-30v-437C397.042,20.931,383.612,7.5,367.042,7.5z" fill="#a9dff5" data-original="#a9dff5"></path>
<path xmlns="http://www.w3.org/2000/svg" style="" d="M313.042,45.5h-116c-7.732,0-14-6.268-14-14v-24h144v24C327.042,39.232,320.774,45.5,313.042,45.5z" fill="#3f405c" data-original="#3f405c"></path>
<path xmlns="http://www.w3.org/2000/svg" style="" d="M297.042,7.5v24c0,7.732-6.268,14-14,14h30c7.732,0,14-6.268,14-14v-24H297.042z" fill="#36374f" data-original="#36374f" class=""></path>
<rect xmlns="http://www.w3.org/2000/svg" x="113.039" y="428.5" style="" width="284" height="30" fill="#71c8eb" data-original="#71c8eb" class=""></rect>
<rect xmlns="http://www.w3.org/2000/svg" x="367.039" y="428.5" style="" width="30" height="30" fill="#6daee3" data-original="#6daee3"></rect>
<path xmlns="http://www.w3.org/2000/svg" style="" d="M367.042,504.5h-224c-16.569,0-30-13.431-30-30v-16h284v16  C397.042,491.069,383.612,504.5,367.042,504.5z" fill="#3f405c" data-original="#3f405c"></path>
<path xmlns="http://www.w3.org/2000/svg" style="" d="M367.042,458.5v16c0,16.569-13.431,30-30,30h30c16.569,0,30-13.431,30-30v-16H367.042z" fill="#36374f" data-original="#36374f" class=""></path>
<g xmlns="http://www.w3.org/2000/svg">
	<path style="" d="M275.042,474h-40c-4.142,0-7.5,3.358-7.5,7.5s3.358,7.5,7.5,7.5h40c4.142,0,7.5-3.358,7.5-7.5   S279.185,474,275.042,474z" fill="#232433" data-original="#232433" class=""></path>
	<path style="" d="M210.042,34L210.042,34c-4.142,0-7.5-3.358-7.5-7.5l0,0c0-4.142,3.358-7.5,7.5-7.5l0,0   c4.142,0,7.5,3.358,7.5,7.5l0,0C217.542,30.642,214.184,34,210.042,34z" fill="#232433" data-original="#232433" class=""></path>
	<path style="" d="M228.042,34L228.042,34c-4.142,0-7.5-3.358-7.5-7.5l0,0c0-4.142,3.358-7.5,7.5-7.5l0,0   c4.142,0,7.5,3.358,7.5,7.5l0,0C235.542,30.642,232.184,34,228.042,34z" fill="#232433" data-original="#232433" class=""></path>
</g>
<path xmlns="http://www.w3.org/2000/svg" style="" d="M367.042,0h-224c-20.678,0-37.5,16.822-37.5,37.5v437c0,20.678,16.822,37.5,37.5,37.5h224  c20.678,0,37.5-16.822,37.5-37.5v-437C404.542,16.822,387.721,0,367.042,0z M389.542,474.5c0,12.407-10.093,22.5-22.5,22.5h-224  c-12.407,0-22.5-10.093-22.5-22.5v-437c0-12.407,10.093-22.5,22.5-22.5h224c12.407,0,22.5,10.093,22.5,22.5V474.5z" fill="#36374f" data-original="#36374f" class=""></path>
<path xmlns="http://www.w3.org/2000/svg" style="" d="M389.714,410.5H122.285c-12.308,0-22.286-9.978-22.286-22.286V198.786  c0-12.308,9.978-22.286,22.286-22.286h267.429c12.308,0,22.286,9.978,22.286,22.286v189.429  C412,400.522,402.021,410.5,389.714,410.5z" fill="#e63950" data-original="#e63950"></path>
<path xmlns="http://www.w3.org/2000/svg" style="" d="M389.714,176.5H360.06c12.308,0,22.286,9.978,22.286,22.286v189.429  c0,12.308-9.978,22.286-22.286,22.286h29.653c12.308,0,22.286-9.978,22.286-22.286V198.786C412,186.478,402.021,176.5,389.714,176.5  z" fill="#961434" data-original="#961434"></path>
<circle xmlns="http://www.w3.org/2000/svg" style="" cx="255.039" cy="176.5" r="91" fill="#ffb64c" data-original="#ffb64c"></circle>
<path xmlns="http://www.w3.org/2000/svg" style="" d="M255.042,242.5c-36.392,0-66-29.608-66-66s29.608-66,66-66s66,29.608,66,66  S291.435,242.5,255.042,242.5z" fill="#ffcd6b" data-original="#ffcd6b"></path>
<path xmlns="http://www.w3.org/2000/svg" style="" d="M99.999,198.786L99.999,198.786c0-12.308,9.978-22.286,22.286-22.286h11.591v44.571h-11.591  C109.977,221.071,99.999,211.094,99.999,198.786z" fill="#945b44" data-original="#945b44"></path>
<g xmlns="http://www.w3.org/2000/svg">
	<path style="" d="M255.042,103c-4.142,0-7.5,3.357-7.5,7.5v8.608c0,4.143,3.358,7.5,7.5,7.5   c4.142,0,7.5-3.357,7.5-7.5V110.5C262.542,106.357,259.185,103,255.042,103z" fill="#cc8534" data-original="#cc8534"></path>
	<path style="" d="M255.042,226.392c-4.142,0-7.5,3.357-7.5,7.5v8.608c0,4.143,3.358,7.5,7.5,7.5   c4.142,0,7.5-3.357,7.5-7.5v-8.608C262.542,229.749,259.185,226.392,255.042,226.392z" fill="#cc8534" data-original="#cc8534"></path>
	<path style="" d="M228.537,115.593c-2.072-3.588-6.658-4.814-10.245-2.745c-3.587,2.071-4.816,6.658-2.745,10.245   l4.304,7.455c1.389,2.406,3.91,3.751,6.502,3.751c1.272,0,2.562-0.324,3.743-1.006c3.587-2.071,4.816-6.658,2.745-10.245   L228.537,115.593z" fill="#cc8534" data-original="#cc8534"></path>
	<path style="" d="M290.234,222.452c-2.071-3.587-6.658-4.815-10.245-2.745c-3.587,2.071-4.816,6.658-2.745,10.245   l4.304,7.455c1.389,2.406,3.91,3.751,6.502,3.751c1.272,0,2.562-0.324,3.743-1.006c3.587-2.071,4.816-6.658,2.745-10.245   L290.234,222.452z" fill="#cc8534" data-original="#cc8534"></path>
	<path style="" d="M209.09,141.31l-7.456-4.305c-3.588-2.071-8.174-0.843-10.245,2.745   c-2.071,3.587-0.842,8.174,2.745,10.245l7.456,4.305c1.181,0.682,2.471,1.006,3.743,1.006c2.592,0,5.113-1.345,6.502-3.751   C213.906,147.968,212.677,143.381,209.09,141.31z" fill="#cc8534" data-original="#cc8534"></path>
	<path style="" d="M315.951,203.005l-7.456-4.305c-3.588-2.071-8.174-0.843-10.245,2.745   c-2.071,3.587-0.842,8.174,2.745,10.245l7.456,4.305c1.181,0.682,2.471,1.006,3.743,1.006c2.592,0,5.113-1.345,6.502-3.751   C320.766,209.663,319.537,205.076,315.951,203.005z" fill="#cc8534" data-original="#cc8534"></path>
	<path style="" d="M205.151,176.5c0-4.143-3.358-7.5-7.5-7.5h-8.609c-4.142,0-7.5,3.357-7.5,7.5s3.358,7.5,7.5,7.5   h8.609C201.794,184,205.151,180.643,205.151,176.5z" fill="#cc8534" data-original="#cc8534"></path>
	<path style="" d="M321.042,169h-8.609c-4.142,0-7.5,3.357-7.5,7.5s3.358,7.5,7.5,7.5h8.609c4.142,0,7.5-3.357,7.5-7.5   S325.185,169,321.042,169z" fill="#cc8534" data-original="#cc8534"></path>
	<path style="" d="M201.59,198.7l-7.456,4.305c-3.587,2.071-4.816,6.658-2.745,10.245   c1.389,2.406,3.91,3.751,6.502,3.751c1.272,0,2.563-0.324,3.743-1.006l7.456-4.305c3.587-2.071,4.816-6.658,2.745-10.245   C209.764,197.857,205.175,196.63,201.59,198.7z" fill="#cc8534" data-original="#cc8534"></path>
	<path style="" d="M304.752,155.306c1.272,0,2.563-0.324,3.743-1.006l7.456-4.305   c3.587-2.071,4.816-6.658,2.745-10.245c-2.072-3.588-6.66-4.815-10.245-2.745l-7.456,4.305c-3.587,2.071-4.816,6.658-2.745,10.245   C299.638,153.961,302.159,155.306,304.752,155.306z" fill="#cc8534" data-original="#cc8534"></path>
	<path style="" d="M230.096,219.707c-3.587-2.071-8.174-0.843-10.245,2.745l-4.304,7.455   c-2.071,3.587-0.842,8.174,2.745,10.245c1.181,0.682,2.471,1.006,3.743,1.006c2.592,0,5.113-1.345,6.502-3.751l4.304-7.455   C234.913,226.365,233.684,221.778,230.096,219.707z" fill="#cc8534" data-original="#cc8534"></path>
	<path style="" d="M291.792,112.848c-3.587-2.07-8.174-0.843-10.245,2.745l-4.304,7.455   c-2.071,3.587-0.842,8.174,2.745,10.245c1.181,0.682,2.471,1.006,3.743,1.006c2.592,0,5.113-1.345,6.502-3.751l4.304-7.455   C296.609,119.506,295.38,114.919,291.792,112.848z" fill="#cc8534" data-original="#cc8534"></path>
</g>
<path xmlns="http://www.w3.org/2000/svg" style="" d="M262.542,170.164v-17.169c1.412,1.694,2.264,3.87,2.264,6.242c0,4.143,3.358,7.5,7.5,7.5  c4.142,0,7.5-3.357,7.5-7.5c0-11.042-7.266-20.417-17.267-23.601c-0.032-4.115-3.375-7.441-7.497-7.441  c-4.122,0-7.465,3.326-7.497,7.441c-10.001,3.184-17.267,12.559-17.267,23.601c0,11.041,7.264,20.414,17.264,23.6v17.169  c-1.412-1.694-2.264-3.87-2.264-6.242c0-4.143-3.358-7.5-7.5-7.5s-7.5,3.357-7.5,7.5c0,11.042,7.266,20.417,17.267,23.601  c0.032,4.115,3.375,7.441,7.497,7.441c4.122,0,7.465-3.326,7.497-7.441c10.001-3.184,17.267-12.559,17.267-23.601  C279.807,182.723,272.542,173.35,262.542,170.164z M245.279,159.236c0-2.372,0.852-4.548,2.264-6.242v12.483  C246.13,163.784,245.279,161.608,245.279,159.236z M262.542,200.005v-12.483c1.412,1.694,2.264,3.87,2.264,6.242  S263.954,198.312,262.542,200.005z" fill="#ffb64c" data-original="#ffb64c"></path>
<path xmlns="http://www.w3.org/2000/svg" style="" d="M389.714,410.5H122.285c-12.308,0-22.286-9.978-22.286-22.286V198.786l0,0  c0,12.308,9.978,22.286,22.286,22.286h33.429h234c12.308,0,22.286,9.978,22.286,22.286v144.857  C412,400.522,402.021,410.5,389.714,410.5z" fill="#ac695d" data-original="#ac695d" class=""></path>
<path xmlns="http://www.w3.org/2000/svg" style="" d="M389.714,221.071H360.06c12.308,0,22.286,9.978,22.286,22.286v144.857  c0,12.308-9.978,22.286-22.286,22.286h29.653c12.308,0,22.286-9.978,22.286-22.286V243.357  C412,231.049,402.021,221.071,389.714,221.071z" fill="#945b44" data-original="#945b44"></path>
<g xmlns="http://www.w3.org/2000/svg">
</g>
<g xmlns="http://www.w3.org/2000/svg">
</g>
<g xmlns="http://www.w3.org/2000/svg">
</g>
<g xmlns="http://www.w3.org/2000/svg">
</g>
<g xmlns="http://www.w3.org/2000/svg">
</g>
<g xmlns="http://www.w3.org/2000/svg">
</g>
<g xmlns="http://www.w3.org/2000/svg">
</g>
<g xmlns="http://www.w3.org/2000/svg">
</g>
<g xmlns="http://www.w3.org/2000/svg">
</g>
<g xmlns="http://www.w3.org/2000/svg">
</g>
<g xmlns="http://www.w3.org/2000/svg">
</g>
<g xmlns="http://www.w3.org/2000/svg">
</g>
<g xmlns="http://www.w3.org/2000/svg">
</g>
<g xmlns="http://www.w3.org/2000/svg">
</g>
<g xmlns="http://www.w3.org/2000/svg">
</g>
</g></svg>