<svg xmlns="http://www.w3.org/2000/svg" version="1.1" xmlns:xlink="http://www.w3.org/1999/xlink" xmlns:svgjs="http://svgjs.com/svgjs" width="512" height="512" x="0" y="0" viewBox="0 0 512 512" style="enable-background:new 0 0 512 512" xml:space="preserve" class=""><g><g xmlns="http://www.w3.org/2000/svg"><g><path d="m256 391h-75v90h75 75v-90z" fill="#728294" data-original="#d5e8fe" class=""></path><path d="m256 391h75v90h-75z" fill="#363c44" data-original="#b5dbff" class=""></path><path d="m256 16h-256v390h256 256v-390z" fill="#47568c" data-original="#47568c" class=""></path><path d="m256 16h256v390h-256z" fill="#29376d" data-original="#29376d" class=""></path><path d="m256 466h-105v30h105 105v-30z" fill="#363c44" data-original="#edf5ff" class=""></path><path d="m256 466h105v30h-105z" fill="#728294" data-original="#d5e8fe" class=""></path></g><path d="m256 76h-105c-16.5 0-30 13.5-30 30s13.5 60 30 60h105 105v-90z" fill="#61729b" data-original="#61729b"></path><path d="m256 76h105v90h-105z" fill="#47568c" data-original="#47568c" class=""></path><path d="m256 136h-105c-16.5 0-30-13.5-30-30v240h135 135v-210z" fill="#ff7b4a" data-original="#ff7b4a" class=""></path><path d="m256 136h135v210h-135z" fill="#ff435b" data-original="#ff435b" class=""></path><path d="m421 271h-120c-16.569 0-30-13.431-30-30 0-16.569 13.431-30 30-30h120z" fill="#ff7b4a" data-original="#ff7b4a" class=""></path></g></g></svg>