<svg xmlns="http://www.w3.org/2000/svg" version="1.1" xmlns:xlink="http://www.w3.org/1999/xlink" xmlns:svgjs="http://svgjs.com/svgjs" width="512" height="512" x="0" y="0" viewBox="0 0 512 512" style="enable-background:new 0 0 512 512" xml:space="preserve" class=""><g><g xmlns="http://www.w3.org/2000/svg" id="XMLID_1_"><g id="XMLID_3408_"><path id="XMLID_986_" d="m507 367v140h-450l-52-52v-140h450z" fill="#35322b" data-original="#35322b"></path><path id="XMLID_1163_" d="m145 5h-140l52 52v258h140v-258z" fill="#c5c2a1" data-original="#c5c2a1"></path><path id="XMLID_987_" d="m5 315h450v140h-450z" fill="#504c43" data-original="#504c43"></path><path id="XMLID_984_" d="m200 355h200v60h-200z" fill="#9cd3fc" data-original="#9cd3fc"></path><path id="XMLID_982_" d="m490 385v70l-18-18v-70z" fill="#504c43" data-original="#504c43"></path><g id="XMLID_981_"><path id="XMLID_1481_" d="m295 375h10v20h-10z" fill="#504c43" data-original="#504c43"></path></g><g id="XMLID_980_"><path id="XMLID_1480_" d="m315 375h10v20h-10z" fill="#504c43" data-original="#504c43"></path></g><g id="XMLID_979_"><path id="XMLID_1479_" d="m335 375h10v20h-10z" fill="#504c43" data-original="#504c43"></path></g><g id="XMLID_978_"><path id="XMLID_1478_" d="m355 375h10v20h-10z" fill="#504c43" data-original="#504c43"></path></g><path id="XMLID_988_" d="m75 455c-38.7 0-70-31.3-70-70v-380h140v380c0 38.7-31.3 70-70 70z" fill="#d8d6c1" data-original="#d8d6c1"></path><circle id="XMLID_985_" cx="75" cy="385" fill="#504c43" r="40" data-original="#504c43"></circle></g></g></g></svg>