<svg xmlns="http://www.w3.org/2000/svg" version="1.1" xmlns:xlink="http://www.w3.org/1999/xlink" xmlns:svgjs="http://svgjs.com/svgjs" width="512" height="512" x="0" y="0" viewBox="0 0 512 512" style="enable-background:new 0 0 512 512" xml:space="preserve" class=""><g><path xmlns="http://www.w3.org/2000/svg" d="m488 72v400a16 16 0 0 1 -16 16h-432a16 16 0 0 1 -16-16v-400z" fill="#5771e5" data-original="#5771e5" class=""></path><path xmlns="http://www.w3.org/2000/svg" d="m24 72v-32a16 16 0 0 1 16-16h432a16 16 0 0 1 16 16v32z" fill="#89a8f5" data-original="#89a8f5" class=""></path><circle xmlns="http://www.w3.org/2000/svg" cx="48" cy="48" fill="#ed6445" r="8" data-original="#ed6445"></circle><circle xmlns="http://www.w3.org/2000/svg" cx="72" cy="48" fill="#f7c04a" r="8" data-original="#f7c04a"></circle><circle xmlns="http://www.w3.org/2000/svg" cx="96" cy="48" fill="#90d4b1" r="8" data-original="#90d4b1"></circle><path xmlns="http://www.w3.org/2000/svg" d="m256 280a16 16 0 0 1 -16 16l-176-1.41445v-135.75275a14.8328 14.8328 0 0 1 14.8328-14.8328h177.1672z" fill="#9e593c" data-original="#9e593c"></path><path xmlns="http://www.w3.org/2000/svg" d="m256 368h96v80h-96z" fill="#f7c04a" data-original="#f7c04a"></path><path xmlns="http://www.w3.org/2000/svg" d="m344 368h-16v-24a24 24 0 0 0 -48 0v24h-16v-24a40 40 0 0 1 80 0z" fill="#cad8ed" data-original="#cad8ed"></path><path xmlns="http://www.w3.org/2000/svg" d="m328 400h-10.165a15.96288 15.96288 0 0 0 -27.66992 0h-10.16508v16h10.165a15.96288 15.96288 0 0 0 27.66992 0h10.16508z" fill="#f5a431" data-original="#f5a431"></path><path xmlns="http://www.w3.org/2000/svg" d="m408 336h24v112h-24z" fill="#f7c04a" data-original="#f7c04a"></path><path xmlns="http://www.w3.org/2000/svg" d="m384 392h24v40h-24z" fill="#f5a431" data-original="#f5a431"></path><path xmlns="http://www.w3.org/2000/svg" d="m232 424h-112a32.03667 32.03667 0 0 1 -32-32v-40h16v40a16.01833 16.01833 0 0 0 16 16h112z" fill="#3d44d1" data-original="#3d44d1"></path><path xmlns="http://www.w3.org/2000/svg" d="m101.65723 189.65723-11.31446-11.31446 8-8a8.00235 8.00235 0 0 1 5.65723-2.34277h112v16h-108.68652z" fill="#8a3f28" data-original="#8a3f28"></path><path xmlns="http://www.w3.org/2000/svg" d="m432 256h-16v-80a16.01833 16.01833 0 0 0 -16-16h-72v-16h72a32.03667 32.03667 0 0 1 32 32z" fill="#3d44d1" data-original="#3d44d1"></path><path xmlns="http://www.w3.org/2000/svg" d="m64 158.8328v135.75275a16 16 0 0 0 8.22971 13.98651l112 62.22223a16 16 0 0 0 23.77029-13.98652v-106.91923a16 16 0 0 0 -8.84458-14.31083l-126.956-63.478a14.83282 14.83282 0 0 1 -8.19942-13.2669z" fill="#b36f42" data-original="#b36f42"></path><circle xmlns="http://www.w3.org/2000/svg" cx="248" cy="160" fill="#f7c04a" r="56" data-original="#f7c04a"></circle><path xmlns="http://www.w3.org/2000/svg" d="m224.001 148.001v23.999l24 16 24-16-.001-24-23.999-15.999z" fill="#f5a431" data-original="#f5a431"></path><path xmlns="http://www.w3.org/2000/svg" d="m432 336v38.80005a60.60248 60.60248 0 0 1 -24 0v-38.80005z" fill="#f5a431" data-original="#f5a431"></path><circle xmlns="http://www.w3.org/2000/svg" cx="420" cy="316" fill="#f7c04a" r="36" data-original="#f7c04a"></circle><path xmlns="http://www.w3.org/2000/svg" d="m420 328a12 12 0 1 1 12-12 12.01312 12.01312 0 0 1 -12 12z" fill="#f5a431" data-original="#f5a431"></path></g></svg>