<?xml version="1.0" encoding="utf-8"?>
<!-- Generator: Adobe Illustrator 23.0.5, SVG Export Plug-In . SVG Version: 6.00 Build 0)  -->
<svg version="1.1" id="Layer_1" xmlns:svgjs="http://svgjs.com/svgjs"
	 xmlns="http://www.w3.org/2000/svg" xmlns:xlink="http://www.w3.org/1999/xlink" x="0px" y="0px" viewBox="0 0 512 512"
	 style="enable-background:new 0 0 512 512;" xml:space="preserve">
<style type="text/css">
	.st0{fill:#A56A43;}
	.st1{fill:#F0C419;}
	.st2{fill:#CB8252;}
	.st3{fill:#CF976A;}
	.st4{fill:#547580;}
	.st5{fill:#67B9CC;}
	.st6{fill:#3B97D3;}
	.st7{fill:#2980BA;}
	.st8{fill:#285680;}
</style>
<g>
	<path class="st0" d="M463.9,114v51.7H41.5c-19,0-34.5-15.4-34.5-34.5s15.4-34.5,34.5-34.5h405.2C456.2,96.8,463.9,104.5,463.9,114z
		"/>
	<path class="st1" d="M335.4,178.2c22.7-54.4-3.1-116.9-57.4-139.5s-116.9,3.1-139.5,57.4c-10.9,26.3-10.9,55.8,0,82.1H335.4z"/>
	<path class="st2" d="M489.8,183v310.3c0,9.5-7.7,17.2-17.2,17.2h-431c-19,0-34.5-15.4-34.5-34.5V131.3c0,19,15.4,34.5,34.5,34.5
		h431C482,165.8,489.7,173.5,489.8,183z"/>
	<path class="st3" d="M412.2,286.4h77.6c9.5,0,17.2,7.7,17.2,17.2v69c0,9.5-7.7,17.2-17.2,17.2h-77.6c-14.3,0-25.9-11.6-25.9-25.9
		v-51.7C386.3,298,397.9,286.4,412.2,286.4z"/>
	<circle class="st4" cx="438" cy="338.1" r="17.2"/>
	<circle class="st1" cx="213.9" cy="338.1" r="137.9"/>
	<path class="st5" d="M213.9,234.7v69l-60.3,22.6c0-0.9,0.2-1.7,0.7-2.4l55.6-87C210.7,235.5,212.3,234.7,213.9,234.7L213.9,234.7z"
		/>
	<path class="st6" d="M274.2,326.3l-60.3-22.6v-69c1.6,0,3.2,0.8,4.1,2.2l55.6,87C274,324.6,274.3,325.4,274.2,326.3L274.2,326.3z"
		/>
	<path class="st7" d="M213.9,303.7V364c-0.9,0-1.8-0.2-2.5-0.7l-55.6-33.1c-1.4-0.8-2.2-2.3-2.2-4L213.9,303.7z"/>
	<path class="st8" d="M274.2,326.3c0,1.6-0.8,3.1-2.2,4l-55.6,33.1c-0.7,0.5-1.6,0.7-2.5,0.7v-60.3L274.2,326.3z"/>
	<path class="st6" d="M264.3,378l-44.8,60.8c-2.3,3.1-6.6,3.8-9.7,1.5c-0.6-0.4-1.1-0.9-1.5-1.5L163.5,378c-1.1-1.5-0.8-3.6,0.7-4.7
		c1.1-0.8,2.6-0.9,3.8-0.1l32.9,20.4c8,4.9,18.1,4.9,26.1,0l32.9-20.4c1.6-0.9,3.7-0.4,4.6,1.2C265.2,375.5,265.1,376.9,264.3,378
		L264.3,378z"/>
</g>
</svg>
