<?xml version="1.0" encoding="utf-8"?>
<!-- Generator: Adobe Illustrator 23.0.5, SVG Export Plug-In . SVG Version: 6.00 Build 0)  -->
<svg version="1.1" id="Layer_1" xmlns:svgjs="http://svgjs.com/svgjs"
	 xmlns="http://www.w3.org/2000/svg" xmlns:xlink="http://www.w3.org/1999/xlink" x="0px" y="0px" viewBox="0 0 512 512"
	 style="enable-background:new 0 0 512 512;" xml:space="preserve">
<style type="text/css">
	.st0{fill:#F26622;}
</style>
<g>
	<g>
		<path d="M438.6,227c4.1,0,7.5-3.4,7.5-7.5V43.5h6.3c5.5,0,10-4.5,10-10V10c0-5.5-4.5-10-10-10H137.3c-4.1,0-7.5,3.4-7.5,7.5
			s3.4,7.5,7.5,7.5h310.1v13.5H64.6V15h42.7c4.1,0,7.5-3.4,7.5-7.5S111.4,0,107.3,0H59.6c-5.5,0-10,4.5-10,10v23.4
			c0,5.5,4.5,10,10,10h6.3v233.4h-6.3c-5.5,0-10,4.5-10,10v23.4c0,5.5,4.5,10,10,10h94v11.9c0,11.3,9.2,20.6,20.6,20.6h3.7
			l-24.4,64.9c-1.5,3.9,0.5,8.2,4.4,9.7c3.9,1.5,8.2-0.5,9.7-4.4l26.4-70.2h17.9L157.5,497l-17.9,0l16.6-44.1
			c1.5-3.9-0.5-8.2-4.4-9.7c-3.9-1.5-8.2,0.5-9.7,4.4l-16.6,44.1c-1.7,4.6-1.1,9.8,1.7,13.8c2.8,4,7.4,6.5,12.3,6.5h17.9
			c6.2,0,11.8-3.9,14-9.7l56.3-149.5h3.6v123c0,8.1,6.6,14.8,14.8,14.8h17.6c8.1,0,14.8-6.6,14.8-14.8v-123h5.5l56.3,149.5
			c2.2,5.8,7.8,9.7,14,9.7h17.9c4.9,0,9.5-2.4,12.3-6.5c2.8-4,3.4-9.2,1.7-13.8l-52.4-138.9h3.7c11.3,0,20.6-9.2,20.6-20.6v-11.9h94
			c5.5,0,10-4.5,10-10v-23.4c0-5.5-4.5-10-10-10h-6.3v-27.3c0-4.1-3.4-7.5-7.5-7.5s-7.5,3.4-7.5,7.5v27.3H80.9V43.5h350.1v176.1
			C431.1,223.7,434.4,227,438.6,227L438.6,227z M263.6,475.6h-17.1V352.8h17.1V475.6z M372.4,497h-17.9l-54.3-144.2h17.9L372.4,497z
			 M343.4,332.2c0,3.1-2.5,5.6-5.6,5.6H174.2c-3.1,0-5.6-2.5-5.6-5.6v-11.9h174.7V332.2z M447.4,291.9v13.5H64.6v-13.5H447.4z"/>
		<path class="st0" d="M318.4,71.8c0-8.5-6.9-15.4-15.4-15.4h-94c-8.5,0-15.4,6.9-15.4,15.4v32.1c0,8.5,6.9,15.4,15.4,15.4h94
			c8.5,0,15.4-6.9,15.4-15.4V71.8z M303.4,103.9c0,0.2-0.2,0.4-0.4,0.4h-94c-0.2,0-0.4-0.2-0.4-0.4V71.8c0-0.2,0.2-0.4,0.4-0.4h94
			c0.2,0,0.4,0.2,0.4,0.4V103.9z"/>
		<path class="st0" d="M318.4,144.1c0-8.5-6.9-15.4-15.4-15.4h-94c-8.5,0-15.4,6.9-15.4,15.4v32.1c0,8.5,6.9,15.4,15.4,15.4h94
			c8.5,0,15.4-6.9,15.4-15.4V144.1z M303.4,176.2c0,0.2-0.2,0.4-0.4,0.4h-94c-0.2,0-0.4-0.2-0.4-0.4v-32.1c0-0.2,0.2-0.4,0.4-0.4h94
			c0.2,0,0.4,0.2,0.4,0.4V176.2z"/>
		<path class="st0" d="M303,201h-94c-8.5,0-15.4,6.9-15.4,15.4v32.1c0,8.5,6.9,15.4,15.4,15.4h94c8.5,0,15.4-6.9,15.4-15.4v-32.1
			C318.4,208,311.5,201,303,201L303,201z M303.4,248.6c0,0.2-0.2,0.4-0.4,0.4h-94c-0.2,0-0.4-0.2-0.4-0.4v-32.1
			c0-0.2,0.2-0.4,0.4-0.4h94c0.2,0,0.4,0.2,0.4,0.4V248.6z"/>
		<path class="st0" d="M162.2,251.8c3.2,2.6,7.9,2.2,10.6-1l11.2-13.5c2.3-2.8,2.3-6.8,0-9.6l-11.2-13.5c-2.6-3.2-7.4-3.6-10.6-1
			c-3.2,2.6-3.6,7.4-1,10.6l1,1.2h-23.5V95.3h33.9c4.1,0,7.5-3.4,7.5-7.5s-3.4-7.5-7.5-7.5h-34.9c-7.7,0-13.9,6.3-13.9,13.9v131.8
			c0,7.7,6.3,13.9,13.9,13.9h24.6l-1,1.2C158.6,244.4,159,249.2,162.2,251.8L162.2,251.8z"/>
		<path class="st0" d="M339.4,228.5c-4.1,0-7.5,3.4-7.5,7.5s3.4,7.5,7.5,7.5h34.9c7.7,0,13.9-6.3,13.9-13.9V97.8
			c0-7.7-6.3-13.9-13.9-13.9h-24.6l1-1.2c2.6-3.2,2.2-7.9-1-10.6c-3.2-2.6-7.9-2.2-10.6,1L328,86.5c-2.3,2.8-2.3,6.8,0,9.6
			l11.2,13.5c2.6,3.2,7.4,3.6,10.6,1c3.2-2.6,3.6-7.4,1-10.6l-1-1.2h23.5v129.7H339.4z"/>
	</g>
</g>
</svg>
