<?xml version="1.0" encoding="utf-8"?>
<!-- Generator: Adobe Illustrator 23.0.5, SVG Export Plug-In . SVG Version: 6.00 Build 0)  -->
<svg version="1.1" id="Layer_1" xmlns:svgjs="http://svgjs.com/svgjs"
	 xmlns="http://www.w3.org/2000/svg" xmlns:xlink="http://www.w3.org/1999/xlink" x="0px" y="0px" viewBox="0 0 512 512"
	 style="enable-background:new 0 0 512 512;" xml:space="preserve">
<style type="text/css">
	.st0{fill:#F26622;}
</style>
<g>
	<g>
		<g>
			<path d="M477.1,440.5c19.3,0,34.9-15.7,34.9-34.9V50c0-27.6-22.4-50-50-50H50C22.4,0,0,22.4,0,50v355.6
				c0,19.3,15.7,34.9,34.9,34.9H46V492H10c-5.5,0-10,4.5-10,10s4.5,10,10,10h492c5.5,0,10-4.5,10-10s-4.5-10-10-10h-36v-51.5H477.1z
				 M20,50c0-16.5,13.5-30,30-30h412c16.5,0,30,13.5,30,30v22H21c-0.3,0-0.7,0-1,0.1V50z M110,492H66v-90h44V492z M222,492h-44
				V291.4h44V492z M334,492h-44V376h44V492z M456,256.5h-64c-5.5,0-10,4.5-10,10V317c0,5.5,4.5,10,10,10s10-4.5,10-10v-40.5h44V492
				h-44V384.3c0-5.5-4.5-10-10-10s-10,4.5-10,10V492h-28V366c0-5.5-4.5-10-10-10h-64c-5.5,0-10,4.5-10,10v126h-28V281.4
				c0-5.5-4.5-10-10-10h-64c-5.5,0-10,4.5-10,10V492h-28V392c0-5.5-4.5-10-10-10H56c-5.5,0-10,4.5-10,10v28.5H34.9
				c-8.2,0-14.9-6.7-14.9-14.9V91.9c0.3,0,0.7,0.1,1,0.1h471v313.6c0,8.2-6.7,14.9-14.9,14.9H466v-154
				C466,261,461.5,256.5,456,256.5z"/>
		</g>
	</g>
	<g>
		<g>
			<path class="st0" d="M448,36H222.1c-5.5,0-10,4.5-10,10s4.5,10,10,10H448c5.5,0,10-4.5,10-10S453.5,36,448,36z"/>
		</g>
	</g>
	<g>
		<g>
			<path class="st0" d="M111.1,38.9c-1.9-1.9-4.4-2.9-7.1-2.9s-5.2,1.1-7.1,2.9C95.1,40.8,94,43.4,94,46s1.1,5.2,2.9,7.1
				c1.9,1.9,4.4,2.9,7.1,2.9s5.2-1.1,7.1-2.9c1.9-1.9,2.9-4.4,2.9-7.1S112.9,40.8,111.1,38.9z"/>
		</g>
	</g>
	<g>
		<g>
			<path class="st0" d="M71.1,38.9C69.2,37.1,66.6,36,64,36s-5.2,1.1-7.1,2.9C55.1,40.8,54,43.4,54,46s1.1,5.2,2.9,7.1
				c1.9,1.9,4.4,2.9,7.1,2.9c2.6,0,5.2-1.1,7.1-2.9c1.9-1.9,2.9-4.4,2.9-7.1S72.9,40.8,71.1,38.9z"/>
		</g>
	</g>
	<g>
		<g>
			<path class="st0" d="M151.1,38.9c-1.9-1.9-4.4-2.9-7.1-2.9c-2.6,0-5.2,1.1-7.1,2.9c-1.9,1.9-2.9,4.4-2.9,7.1s1.1,5.2,2.9,7.1
				c1.9,1.9,4.4,2.9,7.1,2.9s5.2-1.1,7.1-2.9c1.9-1.9,2.9-4.4,2.9-7.1S152.9,40.8,151.1,38.9z"/>
		</g>
	</g>
	<g>
		<g>
			<path d="M399.1,345.6c-1.9-1.9-4.4-2.9-7.1-2.9s-5.2,1.1-7.1,2.9c-1.9,1.9-2.9,4.4-2.9,7.1s1.1,5.2,2.9,7.1
				c1.9,1.9,4.4,2.9,7.1,2.9s5.2-1.1,7.1-2.9s2.9-4.4,2.9-7.1C402,350,400.9,347.4,399.1,345.6z"/>
		</g>
	</g>
	<g>
		<g>
			<path class="st0" d="M424,135.9c-19.9,0-36,16.1-36,36c0,7.9,2.6,15.2,6.9,21.1l-66.4,66.4c-5.2-2.9-11.1-4.5-17.4-4.5
				c-5.7,0-11,1.3-15.8,3.7l-69.4-69.4c2.9-5.2,4.5-11.1,4.5-17.4c0-19.9-16.1-36-36-36s-36,16.1-36,36c0,6.9,2,13.4,5.4,18.9
				l-59.1,59.1c-5.2-2.9-11.1-4.5-17.4-4.5c-19.9,0-36,16.1-36,36s16.1,36,36,36s36-16.1,36-36c0-6.3-1.6-12.2-4.5-17.4l59.8-59.8
				c4.8,2.3,10.1,3.6,15.8,3.6c6.3,0,12.2-1.6,17.4-4.5l68.7,68.7c-3.4,5.5-5.4,12-5.4,18.9c0,19.9,16.1,36,36,36s36-16.1,36-36
				c0-6.3-1.6-12.2-4.5-17.4l68.2-68.2c4.1,1.6,8.5,2.5,13.2,2.5c19.9,0,36-16.1,36-36C460,152.1,443.9,135.9,424,135.9z
				 M87.3,297.4c-8.8,0-16-7.2-16-16s7.2-16,16-16s16,7.2,16,16S96.2,297.4,87.3,297.4z M194.4,187.9c-8.8,0-16-7.2-16-16
				s7.2-16,16-16s16,7.2,16,16S203.2,187.9,194.4,187.9z M311.1,307c-8.8,0-16-7.2-16-16s7.2-16,16-16s16,7.2,16,16
				C327.1,299.8,319.9,307,311.1,307z M424,187.9c-8.8,0-16-7.2-16-16s7.2-16,16-16s16,7.2,16,16S432.8,187.9,424,187.9z"/>
		</g>
	</g>
	<g>
		<g>
			<path class="st0" d="M148.3,129c-1.9-1.9-4.4-2.9-7.1-2.9c-2.6,0-5.2,1.1-7.1,2.9c-1.9,1.9-2.9,4.4-2.9,7.1s1.1,5.2,2.9,7.1
				c1.9,1.9,4.4,2.9,7.1,2.9c2.6,0,5.2-1.1,7.1-2.9c1.9-1.9,2.9-4.4,2.9-7.1S150.2,130.8,148.3,129z"/>
		</g>
	</g>
	<g>
		<g>
			<path class="st0" d="M104,126H56c-5.5,0-10,4.5-10,10c0,5.5,4.5,10,10,10h48c5.5,0,10-4.5,10-10S109.5,126,104,126z"/>
		</g>
	</g>
	<g>
		<g>
			<path class="st0" d="M104,174H56c-5.5,0-10,4.5-10,10s4.5,10,10,10h48c5.5,0,10-4.5,10-10S109.5,174,104,174z"/>
		</g>
	</g>
</g>
</svg>
