<?xml version="1.0" encoding="utf-8"?>
<!-- Generator: Adobe Illustrator 23.0.5, SVG Export Plug-In . SVG Version: 6.00 Build 0)  -->
<svg version="1.1" id="Layer_1" xmlns:svgjs="http://svgjs.com/svgjs"
	 xmlns="http://www.w3.org/2000/svg" xmlns:xlink="http://www.w3.org/1999/xlink" x="0px" y="0px" viewBox="0 0 512 512"
	 style="enable-background:new 0 0 512 512;" xml:space="preserve">
<style type="text/css">
	.st0{fill:#F26622;}
</style>
<g>
	<path class="st0" d="M328,168H184c-13.2,0-24-10.8-24-24V48c0-13.2,10.8-24,24-24h144c13.2,0,24,10.8,24,24v96
		C352,157.2,341.2,168,328,168z M184,40c-4.4,0-8,3.6-8,8v96c0,4.4,3.6,8,8,8h144c4.4,0,8-3.6,8-8V48c0-4.4-3.6-8-8-8H184z"/>
	<path class="st0" d="M232,40c-4.4,0-8-3.6-8-8V8c0-4.4,3.6-8,8-8s8,3.6,8,8v24C240,36.4,236.4,40,232,40z"/>
	<path class="st0" d="M280,16h-48c-4.4,0-8-3.6-8-8s3.6-8,8-8h48c4.4,0,8,3.6,8,8S284.4,16,280,16z"/>
	<path class="st0" d="M280,40c-4.4,0-8-3.6-8-8V8c0-4.4,3.6-8,8-8s8,3.6,8,8v24C288,36.4,284.4,40,280,40z"/>
	<path class="st0" d="M256,216c-4.4,0-8-3.6-8-8v-16c0-4.4,3.6-8,8-8s8,3.6,8,8v16C264,212.4,260.4,216,256,216z"/>
	<path class="st0" d="M432,216c-4.4,0-8-3.6-8-8V88c0-4.4,3.6-8,8-8s8,3.6,8,8v120C440,212.4,436.4,216,432,216z"/>
	<path class="st0" d="M432,96h-56c-4.4,0-8-3.6-8-8s3.6-8,8-8h56c4.4,0,8,3.6,8,8S436.4,96,432,96z"/>
	<path class="st0" d="M80,216c-4.4,0-8-3.6-8-8V88c0-4.4,3.6-8,8-8s8,3.6,8,8v120C88,212.4,84.4,216,80,216z"/>
	<path class="st0" d="M136,96H80c-4.4,0-8-3.6-8-8s3.6-8,8-8h56c4.4,0,8,3.6,8,8S140.4,96,136,96z"/>
	<path d="M376,352c-4.4,0-8-3.6-8-8v-30.9c0-4.4,3.6-8,8-8s8,3.6,8,8V344C384,348.4,380.4,352,376,352z"/>
	<path d="M488,352c-4.4,0-8-3.6-8-8v-36c0-4.4,3.6-8,8-8s8,3.6,8,8v36C496,348.4,492.4,352,488,352z"/>
	<path d="M488,316c-4.4,0-8-3.6-8-8c0-28.7-23.3-52-52-52c-28.7,0-52,23.3-52,52c0,4.4-3.6,8-8,8s-8-3.6-8-8c0-37.5,30.5-68,68-68
		c37.5,0,68,30.5,68,68C496,312.4,492.4,316,488,316z"/>
	<path d="M488,327c-2.4,0-4.8-1.1-6.4-3.1c-15.4-20.2-19.6-18.5-35.3-12.3c-15,6-37.7,15-79.6,8.3c-4.4-0.7-7.3-4.8-6.6-9.2
		c0.7-4.4,4.8-7.4,9.2-6.6c37.5,5.9,57-1.8,71.2-7.4c19.3-7.6,32.2-10.9,53.9,17.4c2.7,3.5,2,8.5-1.5,11.2
		C491.4,326.4,489.7,327,488,327z"/>
	<path d="M456,307.8c-1.2,0-2.4-0.3-3.5-0.8c-4-1.9-5.6-6.7-3.6-10.7l16-32.6c1.9-4,6.7-5.6,10.7-3.7c4,1.9,5.6,6.7,3.6,10.7
		l-16,32.6C461.8,306.2,458.9,307.8,456,307.8z"/>
	<path d="M360,456c-4.4,0-8-3.6-8-8c0-17.6,14.4-32,32-32c4.4,0,8,3.6,8,8c0,4.4-3.6,8-8,8c-8.8,0-16,7.2-16,16
		C368,452.4,364.4,456,360,456z"/>
	<path d="M408,432h-24c-4.4,0-8-3.6-8-8c0-4.4,3.6-8,8-8h24c4.4,0,8,3.6,8,8C416,428.4,412.4,432,408,432z"/>
	<path d="M360,480c-4.4,0-8-3.6-8-8v-24c0-4.4,3.6-8,8-8s8,3.6,8,8v24C368,476.4,364.4,480,360,480z"/>
	<path d="M504,456c-4.4,0-8-3.6-8-8c0-8.8-7.2-16-16-16c-4.4,0-8-3.6-8-8c0-4.4,3.6-8,8-8c17.6,0,32,14.4,32,32
		C512,452.4,508.4,456,504,456z"/>
	<path d="M480,432h-24c-4.4,0-8-3.6-8-8c0-4.4,3.6-8,8-8h24c4.4,0,8,3.6,8,8C488,428.4,484.4,432,480,432z"/>
	<path d="M504,480c-4.4,0-8-3.6-8-8v-24c0-4.4,3.6-8,8-8s8,3.6,8,8v24C512,476.4,508.4,480,504,480z"/>
	<path d="M504,480H360c-4.4,0-8-3.6-8-8s3.6-8,8-8h144c4.4,0,8,3.6,8,8S508.4,480,504,480z"/>
	<path d="M408,432c-4.4,0-8-3.6-8-8v-29.5c0-4.4,3.6-8,8-8s8,3.6,8,8V424C416,428.4,412.4,432,408,432z"/>
	<path d="M456,432c-4.4,0-8-3.6-8-8v-29.4c0-4.4,3.6-8,8-8s8,3.6,8,8V424C464,428.4,460.4,432,456,432z"/>
	<path d="M432,407.9c-35.3,0-64-28.7-64-64c0-4.4,3.6-8,8-8s8,3.6,8,8c0,26.5,21.5,48,48,48s48-21.5,48-48c0-4.4,3.6-8,8-8
		s8,3.6,8,8C496,379.2,467.3,407.9,432,407.9z"/>
	<path d="M416,440c-2.9,0-5.8-1.6-7.2-4.4c-2-3.9-0.4-8.8,3.6-10.7l16-8c4-2,8.8-0.4,10.7,3.6c2,4,0.4,8.8-3.6,10.7l-16,8
		C418.4,439.7,417.2,440,416,440z"/>
	<path d="M448,440c-2,0-4.1-0.8-5.7-2.3c-3.1-3.1-3.1-8.2,0-11.3l8-8c3.1-3.1,8.2-3.1,11.3,0s3.1,8.2,0,11.3l-8,8
		C452.1,439.2,450,440,448,440z"/>
	<path d="M416,440c-2,0-4.1-0.8-5.7-2.3l-8-8c-3.1-3.1-3.1-8.2,0-11.3s8.2-3.1,11.3,0l8,8c3.1,3.1,3.1,8.2,0,11.3
		C420.1,439.2,418,440,416,440z"/>
	<path d="M448,440c-1.2,0-2.4-0.3-3.6-0.8l-16-8c-4-2-5.6-6.8-3.6-10.7c2-3.9,6.8-5.5,10.7-3.6l16,8c3.9,2,5.6,6.8,3.6,10.7
		C453.8,438.3,450.9,440,448,440z"/>
	<path d="M200,352c-4.4,0-8-3.6-8-8v-40c0-4.4,3.6-8,8-8s8,3.6,8,8v40C208,348.4,204.4,352,200,352z"/>
	<path d="M312,352c-4.4,0-8-3.6-8-8v-40c0-4.4,3.6-8,8-8s8,3.6,8,8v40C320,348.4,316.4,352,312,352z"/>
	<path d="M184,456c-4.4,0-8-3.6-8-8c0-17.6,14.4-32,32-32c4.4,0,8,3.6,8,8c0,4.4-3.6,8-8,8c-8.8,0-16,7.2-16,16
		C192,452.4,188.4,456,184,456z"/>
	<path d="M232,432h-24c-4.4,0-8-3.6-8-8c0-4.4,3.6-8,8-8h24c4.4,0,8,3.6,8,8C240,428.4,236.4,432,232,432z"/>
	<path d="M184,480c-4.4,0-8-3.6-8-8v-24c0-4.4,3.6-8,8-8s8,3.6,8,8v24C192,476.4,188.4,480,184,480z"/>
	<path d="M328,456c-4.4,0-8-3.6-8-8c0-8.8-7.2-16-16-16c-4.4,0-8-3.6-8-8c0-4.4,3.6-8,8-8c17.6,0,32,14.4,32,32
		C336,452.4,332.4,456,328,456z"/>
	<path d="M304,432h-24c-4.4,0-8-3.6-8-8c0-4.4,3.6-8,8-8h24c4.4,0,8,3.6,8,8C312,428.4,308.4,432,304,432z"/>
	<path d="M328,480c-4.4,0-8-3.6-8-8v-24c0-4.4,3.6-8,8-8s8,3.6,8,8v24C336,476.4,332.4,480,328,480z"/>
	<path d="M328,480H184c-4.4,0-8-3.6-8-8s3.6-8,8-8h144c4.4,0,8,3.6,8,8S332.4,480,328,480z"/>
	<path d="M232,432c-4.4,0-8-3.6-8-8v-29.5c0-4.4,3.6-8,8-8s8,3.6,8,8V424C240,428.4,236.4,432,232,432z"/>
	<path d="M280,432c-4.4,0-8-3.6-8-8v-29.4c0-4.4,3.6-8,8-8s8,3.6,8,8V424C288,428.4,284.4,432,280,432z"/>
	<path d="M256,407.9c-35.3,0-64-28.7-64-64c0-4.4,3.6-8,8-8s8,3.6,8,8c0,26.5,21.5,48,48,48s48-21.5,48-48c0-4.4,3.6-8,8-8
		s8,3.6,8,8C320,379.2,291.3,407.9,256,407.9z"/>
	<path d="M312,312c-4.4,0-8-3.6-8-8c0-26.5-21.5-48-48-48s-48,21.5-48,48c0,4.4-3.6,8-8,8s-8-3.6-8-8c0-35.3,28.7-64,64-64
		s64,28.7,64,64C320,308.4,316.4,312,312,312z"/>
	<path d="M240,440c-2.9,0-5.8-1.6-7.2-4.4c-2-3.9-0.4-8.8,3.6-10.7l16-8c4-2,8.8-0.4,10.7,3.6c2,4,0.4,8.8-3.6,10.7l-16,8
		C242.4,439.7,241.2,440,240,440z"/>
	<path d="M272,440c-2,0-4.1-0.8-5.7-2.3c-3.1-3.1-3.1-8.2,0-11.3l8-8c3.1-3.1,8.2-3.1,11.3,0s3.1,8.2,0,11.3l-8,8
		C276.1,439.2,274,440,272,440z"/>
	<path d="M240,440c-2,0-4.1-0.8-5.7-2.3l-8-8c-3.1-3.1-3.1-8.2,0-11.3s8.2-3.1,11.3,0l8,8c3.1,3.1,3.1,8.2,0,11.3
		C244.1,439.2,242,440,240,440z"/>
	<path d="M272,440c-1.2,0-2.4-0.3-3.6-0.8l-16-8c-4-2-5.6-6.8-3.6-10.7c2-3.9,6.8-5.5,10.7-3.6l16,8c3.9,2,5.6,6.8,3.6,10.7
		C277.8,438.3,274.9,440,272,440z"/>
	<path d="M24,352c-4.4,0-8-3.6-8-8v-64c0-4.4,3.6-8,8-8s8,3.6,8,8v64C32,348.4,28.4,352,24,352z"/>
	<path d="M136,352c-4.4,0-8-3.6-8-8v-2.4c0-4.4,3.6-8,8-8s8,3.6,8,8v2.4C144,348.4,140.4,352,136,352z"/>
	<path d="M8,456c-4.4,0-8-3.6-8-8c0-17.6,14.4-32,32-32c4.4,0,8,3.6,8,8c0,4.4-3.6,8-8,8c-8.8,0-16,7.2-16,16
		C16,452.4,12.4,456,8,456z"/>
	<path d="M56,432H32c-4.4,0-8-3.6-8-8c0-4.4,3.6-8,8-8h24c4.4,0,8,3.6,8,8C64,428.4,60.4,432,56,432z"/>
	<path d="M8,480c-4.4,0-8-3.6-8-8v-24c0-4.4,3.6-8,8-8s8,3.6,8,8v24C16,476.4,12.4,480,8,480z"/>
	<path d="M152,456c-4.4,0-8-3.6-8-8c0-8.8-7.2-16-16-16c-4.4,0-8-3.6-8-8c0-4.4,3.6-8,8-8c17.6,0,32,14.4,32,32
		C160,452.4,156.4,456,152,456z"/>
	<path d="M128,432h-24c-4.4,0-8-3.6-8-8c0-4.4,3.6-8,8-8h24c4.4,0,8,3.6,8,8C136,428.4,132.4,432,128,432z"/>
	<path d="M152,480c-4.4,0-8-3.6-8-8v-24c0-4.4,3.6-8,8-8s8,3.6,8,8v24C160,476.4,156.4,480,152,480z"/>
	<path d="M152,480H8c-4.4,0-8-3.6-8-8s3.6-8,8-8h144c4.4,0,8,3.6,8,8S156.4,480,152,480z"/>
	<path d="M56,432c-4.4,0-8-3.6-8-8v-29.5c0-4.4,3.6-8,8-8s8,3.6,8,8V424C64,428.4,60.4,432,56,432z"/>
	<path d="M104,432c-4.4,0-8-3.6-8-8v-29.4c0-4.4,3.6-8,8-8s8,3.6,8,8V424C112,428.4,108.4,432,104,432z"/>
	<path d="M80,407.9c-35.3,0-64-28.7-64-64c0-4.4,3.6-8,8-8s8,3.6,8,8c0,26.5,21.5,48,48,48s48-21.5,48-48c0-4.4,3.6-8,8-8s8,3.6,8,8
		C144,379.2,115.3,407.9,80,407.9z"/>
	<path d="M80,448c-1.5,0-3.1-0.4-4.4-1.3l-24-16c-3.7-2.5-4.7-7.4-2.2-11.1c2.4-3.7,7.4-4.7,11.1-2.2l24,16
		c3.7,2.5,4.7,7.4,2.2,11.1C85.1,446.7,82.6,448,80,448z"/>
	<path d="M80,448c-2.6,0-5.1-1.3-6.7-3.6c-2.5-3.7-1.5-8.6,2.2-11.1l24-16c3.7-2.5,8.6-1.5,11.1,2.2s1.5,8.6-2.2,11.1l-24,16
		C83.1,447.5,81.5,448,80,448z"/>
	<path d="M152,312c-4.4,0-8-3.6-8-8c0-30.9-25.1-56-56-56c-14.2,0-26.9,7.7-35,14.2c-3.4,2.8-8.5,2.2-11.2-1.2
		c-2.8-3.5-2.2-8.5,1.2-11.3C57.5,238.1,73,232,88,232c39.7,0,72,32.3,72,72C160,308.4,156.4,312,152,312z"/>
	<path d="M152,392c-4.4,0-8-3.6-8-8c0-30.9-25.1-56-56-56c-4.4,0-8-3.6-8-8c0-4.4,3.6-8,8-8c39.7,0,72,32.3,72,72
		C160,388.4,156.4,392,152,392z"/>
	<path d="M24,328c-4.4,0-8-3.6-8-8c0-4.4,3.6-8,8-8c8.8,0,16-7.2,16-16c0-4.4,3.6-8,8-8s8,3.6,8,8C56,313.6,41.6,328,24,328z"/>
	<path d="M24,288c-4.4,0-8-3.6-8-8c0-17.6,14.4-32,32-32c4.4,0,8,3.6,8,8c0,4.4-3.6,8-8,8c-8.8,0-16,7.2-16,16
		C32,284.4,28.4,288,24,288z"/>
	<path d="M72,328c-17.6,0-32-14.4-32-32c0-4.4,3.6-8,8-8s8,3.6,8,8c0,8.8,7.2,16,16,16c4.4,0,8,3.6,8,8C80,324.4,76.4,328,72,328z"
		/>
	<path d="M48,304c-4.4,0-8-3.6-8-8v-40c0-4.4,3.6-8,8-8s8,3.6,8,8v40C56,300.4,52.4,304,48,304z"/>
	<path d="M152,392c-4.4,0-8-3.6-8-8v-80c0-4.4,3.6-8,8-8s8,3.6,8,8v80C160,388.4,156.4,392,152,392z"/>
	<path d="M88,328H72c-4.4,0-8-3.6-8-8c0-4.4,3.6-8,8-8h16c4.4,0,8,3.6,8,8C96,324.4,92.4,328,88,328z"/>
	<path d="M255.5,320.1c-23.2,0-42.1-8.6-42.8-8.9c-4-1.8-5.8-6.6-3.9-10.6c1.8-4,6.6-5.8,10.6-3.9c0.2,0.1,16.6,7.5,36.2,7.5
		c19.7,0,37.2-7.4,37.3-7.5c4.1-1.8,8.8,0.1,10.5,4.2c1.7,4.1-0.1,8.8-4.2,10.5C298.3,311.7,278.6,320.1,255.5,320.1z"/>
	<path d="M312,328c-2,0-4.1-0.8-5.6-2.3l-16-15.8c-3.1-3.1-3.2-8.2-0.1-11.3c3.1-3.1,8.2-3.2,11.3-0.1l16,15.8
		c3.1,3.1,3.2,8.2,0.1,11.3C316.1,327.2,314.1,328,312,328z"/>
	<path d="M200,328.2c-2,0-4.1-0.8-5.6-2.3c-3.1-3.1-3.2-8.2,0-11.3l16-16.1c3.1-3.1,8.2-3.2,11.3,0c3.1,3.1,3.2,8.2,0,11.3l-16,16.1
		C204.1,327.4,202.1,328.2,200,328.2z"/>
	<path class="st0" d="M200,40c-4.4,0-8-3.6-8-8v-8c0-4.4,3.6-8,8-8s8,3.6,8,8v8C208,36.4,204.4,40,200,40z"/>
	<path class="st0" d="M312,40c-4.4,0-8-3.6-8-8v-8c0-4.4,3.6-8,8-8s8,3.6,8,8v8C320,36.4,316.4,40,312,40z"/>
	<path class="st0" d="M296,88h-80c-4.4,0-8-3.6-8-8s3.6-8,8-8h80c4.4,0,8,3.6,8,8S300.4,88,296,88z"/>
	<path class="st0" d="M296,120h-80c-4.4,0-8-3.6-8-8s3.6-8,8-8h80c4.4,0,8,3.6,8,8S300.4,120,296,120z"/>
	<path d="M368,320c-4.4,0-8-3.6-8-8v-4c0-4.4,3.6-8,8-8s8,3.6,8,8v4C376,316.4,372.4,320,368,320z"/>
</g>
</svg>
