<?xml version="1.0" encoding="utf-8"?>
<!-- Generator: Adobe Illustrator 23.0.5, SVG Export Plug-In . SVG Version: 6.00 Build 0)  -->
<svg version="1.1" id="Layer_1" xmlns:svgjs="http://svgjs.com/svgjs"
	 xmlns="http://www.w3.org/2000/svg" xmlns:xlink="http://www.w3.org/1999/xlink" x="0px" y="0px" viewBox="0 0 512 512"
	 style="enable-background:new 0 0 512 512;" xml:space="preserve">
<style type="text/css">
	.st0{fill:#F26622;}
</style>
<g>
	<g id="Outline">
		<path d="M448,328H64V120c0-13.2,10.8-24,24-24h176V80H88c-22.1,0-40,17.9-40,40v248c0,22.1,17.9,40,40,40h99.9l-17.1,40H136
			c-13.3,0-24,10.7-24,24s10.7,24,24,24h240c13.3,0,24-10.7,24-24s-10.7-24-24-24h-34.7l-17.1-40H424c22.1,0,40-17.9,40-40V232h-16
			V328z M384,472c0,4.4-3.6,8-8,8H136c-4.4,0-8-3.6-8-8s3.6-8,8-8h240C380.4,464,384,467.6,384,472z M323.9,448H188.1l17.1-40h101.5
			L323.9,448z M424,392H88c-13.2,0-24-10.8-24-24v-24h384v24C448,381.2,437.2,392,424,392z"/>
		<path d="M248,360h16v16h-16V360z"/>
		<path class="st0" d="M125.7,170.3L107.3,152l18.3-18.3l-11.3-11.3l-24,24c-3.1,3.1-3.1,8.2,0,11.3c0,0,0,0,0,0l24,24L125.7,170.3z
			"/>
		<path class="st0" d="M189.7,181.7l24-24c3.1-3.1,3.1-8.2,0-11.3c0,0,0,0,0,0l-24-24l-11.3,11.3l18.3,18.3l-18.3,18.3L189.7,181.7z
			"/>
		<path class="st0" d="M136.3,182.1l16-64l15.5,3.9l-16,64L136.3,182.1z"/>
		<path class="st0" d="M88,200h16v16H88V200z"/>
		<path class="st0" d="M120,200h152v16H120V200z"/>
		<path class="st0" d="M88,232h16v16H88V232z"/>
		<path class="st0" d="M120,232h176v16H120V232z"/>
		<path class="st0" d="M88,264h16v16H88V264z"/>
		<path class="st0" d="M120,264h200v16H120V264z"/>
		<path class="st0" d="M88,296h16v16H88V296z"/>
		<path class="st0" d="M120,296h240v16H120V296z"/>
		<path class="st0" d="M376,296h16v16h-16V296z"/>
		<path class="st0" d="M368,264h16v16h-16V264z"/>
		<path class="st0" d="M336,264h16v16h-16V264z"/>
		<path class="st0" d="M408,296h16v16h-16V296z"/>
	</g>
</g>
<g>
	<path class="st0" d="M329.9,112.1l14,4.4c-2.1,7.8-5.7,13.6-10.7,17.4c-5,3.8-11.3,5.7-19,5.7c-9.5,0-17.3-3.2-23.4-9.7
		c-6.1-6.5-9.2-15.3-9.2-26.6c0-11.9,3.1-21.1,9.2-27.7c6.1-6.6,14.2-9.9,24.2-9.9c8.7,0,15.8,2.6,21.3,7.7
		c3.2,3.1,5.7,7.4,7.3,13.1L329.4,90c-0.8-3.7-2.6-6.6-5.3-8.8c-2.7-2.1-5.9-3.2-9.8-3.2c-5.3,0-9.6,1.9-12.9,5.7s-4.9,9.9-4.9,18.4
		c0,9,1.6,15.4,4.9,19.3c3.2,3.8,7.5,5.7,12.7,5.7c3.8,0,7.1-1.2,9.9-3.7C326.7,121.2,328.7,117.3,329.9,112.1z"/>
	<path class="st0" d="M356.3,138.3V67h30.3c7.6,0,13.2,0.6,16.6,1.9c3.5,1.3,6.2,3.6,8.3,6.8c2.1,3.3,3.1,7,3.1,11.2
		c0,5.4-1.6,9.8-4.7,13.3c-3.1,3.5-7.9,5.7-14.1,6.6c3.1,1.8,5.7,3.8,7.7,6c2,2.2,4.8,6,8.2,11.6l8.7,13.9h-17.2l-10.4-15.5
		c-3.7-5.5-6.2-9-7.6-10.5c-1.4-1.4-2.8-2.4-4.3-3c-1.5-0.5-3.9-0.8-7.3-0.8h-2.9v29.8H356.3z M370.7,97.2h10.7
		c6.9,0,11.2-0.3,12.9-0.9c1.7-0.6,3.1-1.6,4-3c1-1.4,1.5-3.2,1.5-5.4c0-2.4-0.6-4.3-1.9-5.8c-1.3-1.5-3.1-2.4-5.4-2.8
		c-1.2-0.2-4.7-0.2-10.5-0.2h-11.2V97.2z"/>
	<path class="st0" d="M428,138.3V67h21.6l12.9,48.7L475.3,67h21.6v71.4h-13.4V82.2l-14.2,56.2h-13.9l-14.1-56.2v56.2H428z"/>
</g>
<rect x="448" y="155.1" width="16.1" height="86.8"/>
</svg>
