<svg xmlns="http://www.w3.org/2000/svg" version="1.1" xmlns:xlink="http://www.w3.org/1999/xlink" xmlns:svgjs="http://svgjs.com/svgjs" width="512" height="512" x="0" y="0" viewBox="0 0 512 512" style="enable-background:new 0 0 512 512" xml:space="preserve" class=""><g><g xmlns="http://www.w3.org/2000/svg"><path d="m58.389 409.122c-2.361 2.236-6.146 1.916-8.084-.695-31.607-42.583-50.305-95.322-50.305-152.427 0-141.308 114.49-255.875 255.769-256 141.077-.124 256.231 114.923 256.231 256 0 71.02-28.921 135.286-75.627 181.662-46.848-60.048-119.894-98.662-201.957-98.662-68.187 0-130.147 26.659-176.027 70.122z" fill="#55a4f9" data-original="#55a4f9" class=""></path><path d="m450 45v325.211c-19.706 22.866-43.386 42.211-69.968 56.961h-248.064c-7.786-4.32-15.322-9.035-22.583-14.116-.017-.292-.026-.587-.026-.884v-367.172c0-8.284 6.716-15 15-15h310.641c8.284 0 15 6.716 15 15z" fill="#6a61b4" data-original="#6a61b4" class=""></path><path d="m142.499 413.055c7.261 5.082 14.798 9.796 22.583 14.116h-33.115c-7.786-4.32-15.322-9.035-22.583-14.116-.017-.292-.026-.587-.026-.884v-367.171c0-8.284 6.716-15 15-15h33.115c-8.284 0-15 6.716-15 15v367.171c0 .297.009.591.026.884z" fill="#5f55af" data-original="#5f55af" class=""></path><path d="m390.641 95v378.775c-39.115 24.234-85.244 38.225-134.641 38.225-84.464 0-159.373-40.905-206-103.986v-313.014c0-8.284 6.716-15 15-15h310.641c8.284 0 15 6.716 15 15z" fill="#e9f3fe" data-original="#e9f3fe" class=""></path><path d="m95 80c-8.284 0-15 6.716-15 15v346.903c-10.962-10.382-21.007-21.723-30-33.889v-313.014c0-8.284 6.716-15 15-15z" fill="#c8e2fd" data-original="#c8e2fd" class=""></path><path d="m191.667 137.5c0 4.142-3.358 7.5-7.5 7.5h-76.667c-4.142 0-7.5-3.358-7.5-7.5s3.358-7.5 7.5-7.5h76.667c4.142 0 7.5 3.358 7.5 7.5z" fill="#1380e2" data-original="#1380e2" class=""></path><path d="m170 417.5c0 4.142-3.358 7.5-7.5 7.5h-55c-4.142 0-7.5-3.358-7.5-7.5s3.358-7.5 7.5-7.5h55c4.142 0 7.5 3.358 7.5 7.5z" fill="#76b6fa" data-original="#76b6fa"></path><path d="m100 167.5c0-4.142 3.358-7.5 7.5-7.5h25c4.142 0 7.5 3.358 7.5 7.5s-3.358 7.5-7.5 7.5h-25c-4.142 0-7.5-3.358-7.5-7.5zm32.5 212.5h-25c-4.142 0-7.5 3.358-7.5 7.5s3.358 7.5 7.5 7.5h25c4.142 0 7.5-3.358 7.5-7.5s-3.358-7.5-7.5-7.5z" fill="#55a4f9" data-original="#55a4f9" class=""></path><path d="m100 212.5c0-4.142 3.358-7.5 7.5-7.5h76.667c4.142 0 7.5 3.358 7.5 7.5s-3.358 7.5-7.5 7.5h-76.667c-4.142 0-7.5-3.358-7.5-7.5zm84.167 112.5h-76.667c-4.142 0-7.5 3.358-7.5 7.5s3.358 7.5 7.5 7.5h76.667c4.142 0 7.5-3.358 7.5-7.5s-3.358-7.5-7.5-7.5zm143.333-180h25c4.142 0 7.5-3.358 7.5-7.5s-3.358-7.5-7.5-7.5h-25c-4.142 0-7.5 3.358-7.5 7.5s3.358 7.5 7.5 7.5zm25 62.5h-45c-4.142 0-7.5 3.358-7.5 7.5s3.358 7.5 7.5 7.5h45c4.142 0 7.5-3.358 7.5-7.5s-3.358-7.5-7.5-7.5zm0 30h-25c-4.142 0-7.5 3.358-7.5 7.5s3.358 7.5 7.5 7.5h25c4.142 0 7.5-3.358 7.5-7.5s-3.358-7.5-7.5-7.5zm-110 55h-135c-4.142 0-7.5 3.358-7.5 7.5s3.358 7.5 7.5 7.5h135c4.142 0 7.5-3.358 7.5-7.5s-3.358-7.5-7.5-7.5zm0-55h-135c-4.142 0-7.5 3.358-7.5 7.5s3.358 7.5 7.5 7.5h135c4.142 0 7.5-3.358 7.5-7.5s-3.358-7.5-7.5-7.5z" fill="#a7d0fc" data-original="#a7d0fc"></path><path d="m500 250.492c-.463 2.77-1.187 5.451-2.144 8.019-3.234-.924-6.802.423-8.56 3.467-1.756 3.041-1.142 6.801 1.27 9.139-1.767 2.136-3.733 4.102-5.869 5.869-2.339-2.411-6.098-3.026-9.139-1.27-3.044 1.758-4.391 5.326-3.467 8.559-2.568.957-5.249 1.681-8.019 2.144-.818-3.26-3.768-5.675-7.281-5.675-3.514 0-6.464 2.414-7.281 5.675-2.77-.463-5.451-1.187-8.019-2.144.924-3.234-.423-6.802-3.467-8.559-3.041-1.756-6.801-1.142-9.139 1.27-2.136-1.767-4.102-3.733-5.869-5.869 2.411-2.339 3.026-6.098 1.27-9.139-1.758-3.045-5.326-4.392-8.56-3.467-.957-2.568-1.681-5.249-2.144-8.019 3.26-.818 5.675-3.768 5.675-7.281 0-3.514-2.414-6.464-5.675-7.281.463-2.77 1.187-5.451 2.144-8.019 3.234.924 6.802-.423 8.56-3.467 1.756-3.042 1.141-6.801-1.27-9.139 1.767-2.136 3.733-4.102 5.869-5.869 2.339 2.411 6.098 3.026 9.139 1.27 3.045-1.758 4.392-5.326 3.467-8.56 2.568-.957 5.249-1.681 8.019-2.144.818 3.26 3.768 5.675 7.281 5.675 3.514 0 6.464-2.415 7.281-5.675 2.77.463 5.451 1.187 8.019 2.144-.924 3.233.423 6.802 3.467 8.56 3.042 1.756 6.801 1.141 9.14-1.27 2.136 1.767 4.102 3.733 5.869 5.869-2.411 2.339-3.026 6.098-1.27 9.14 1.758 3.044 5.326 4.392 8.56 3.467.957 2.568 1.681 5.249 2.144 8.019-3.26.818-5.675 3.768-5.675 7.281-.001 3.512 2.414 6.462 5.674 7.28z" fill="#fff04a" data-original="#fff04a"></path><path d="m477.643 243.21c0 11.517-9.336 20.853-20.853 20.853s-20.853-9.336-20.853-20.853 9.336-20.853 20.853-20.853 20.853 9.337 20.853 20.853z" fill="#3493f8" data-original="#3493f8"></path><path d="m463.758 407.221c-1.141 8.243-3.29 16.165-6.319 23.635l2.102 1.214c6.6 3.811 8.862 12.251 5.051 18.851-3.811 6.6-12.251 8.862-18.851 5.051l-2.121-1.225c-5.036 6.447-10.847 12.258-17.294 17.294l1.225 2.121c3.811 6.6 1.549 15.04-5.051 18.851s-15.04 1.549-18.851-5.051l-1.214-2.102c-7.471 3.029-15.392 5.178-23.635 6.319v2.442c0 7.621-6.178 13.8-13.8 13.8s-13.8-6.179-13.8-13.8v-2.442c-8.243-1.141-16.164-3.29-23.635-6.319l-1.214 2.102c-3.811 6.6-12.251 8.862-18.851 5.051s-8.862-12.251-5.051-18.851l1.225-2.121c-6.447-5.036-12.258-10.847-17.294-17.294l-2.121 1.225c-6.6 3.811-15.04 1.549-18.851-5.051-3.811-6.601-1.549-15.041 5.051-18.851l2.102-1.214c-3.028-7.471-5.178-15.392-6.319-23.635h-2.442c-7.622 0-13.8-6.178-13.8-13.8s6.178-13.8 13.8-13.8h2.442c1.141-8.243 3.29-16.165 6.319-23.635l-2.102-1.214c-6.6-3.811-8.862-12.251-5.051-18.851 3.811-6.601 12.251-8.862 18.851-5.051l2.121 1.225c5.036-6.447 10.847-12.258 17.294-17.294l-1.225-2.121c-3.811-6.6-1.549-15.04 5.051-18.851s15.04-1.549 18.851 5.051l1.214 2.102c7.471-3.029 15.392-5.177 23.635-6.319v-2.442c0-7.622 6.178-13.8 13.8-13.8s13.8 6.178 13.8 13.8v2.442c8.243 1.141 16.164 3.29 23.635 6.319l1.214-2.102c3.811-6.6 12.251-8.862 18.851-5.051s8.862 12.251 5.051 18.851l-1.225 2.121c6.447 5.036 12.258 10.847 17.294 17.294l2.121-1.225c6.6-3.811 15.04-1.549 18.851 5.051 3.811 6.6 1.549 15.04-5.051 18.851l-2.102 1.214c3.028 7.471 5.178 15.392 6.319 23.635h2.442c7.622 0 13.8 6.178 13.8 13.8s-6.178 13.8-13.8 13.8z" fill="#e9cc5a" data-original="#e9cc5a"></path><path d="m424.706 393.421c0 32.975-26.731 59.706-59.706 59.706s-59.706-26.731-59.706-59.706 26.731-59.706 59.706-59.706 59.706 26.731 59.706 59.706z" fill="#e9f3fe" data-original="#e9f3fe" class=""></path><path d="m365 326.215c-37.058 0-67.206 30.148-67.206 67.206s30.148 67.206 67.206 67.206 67.206-30.148 67.206-67.206-30.148-67.206-67.206-67.206zm0 119.412c-28.787 0-52.206-23.42-52.206-52.206s23.419-52.206 52.206-52.206 52.206 23.42 52.206 52.206-23.419 52.206-52.206 52.206z" fill="#e1b91e" data-original="#e1b91e"></path><path d="m430.637 361.725-60 60c-1.464 1.464-3.384 2.196-5.303 2.196s-3.839-.732-5.303-2.196l-26.667-26.667c-2.929-2.93-2.929-7.678 0-10.607 2.929-2.928 7.678-2.928 10.606 0l21.364 21.364 54.697-54.697c2.929-2.928 7.678-2.928 10.606 0 2.929 2.929 2.929 7.677 0 10.607z" fill="#ea552d" data-original="#ea552d"></path></g></g></svg>