<?xml version="1.0" encoding="utf-8"?>
<!-- Generator: Adobe Illustrator 23.0.5, SVG Export Plug-In . SVG Version: 6.00 Build 0)  -->
<svg version="1.1" id="Layer_1" xmlns="http://www.w3.org/2000/svg" xmlns:xlink="http://www.w3.org/1999/xlink" x="0px" y="0px"
	 viewBox="0 0 100 100" style="enable-background:new 0 0 100 100;" xml:space="preserve">
<style type="text/css">
	.st0{fill:#191746;}
	.st1{fill:#F26622;}
</style>
<g>
	<path class="st0" d="M85.4,4.9C85.6,5,85.7,5,85.9,5.1c2.8,0.7,4.7,3,4.8,5.9c0.1,2.9-1.5,5.3-4.3,6.2c-0.6,0.2-0.7,0.5-0.7,1
		c0,6.7,0,13.4,0,20.1c0,0.3,0,0.7,0,1.1c-1.4,0-2.6,0-4,0c0-0.8,0-1.6,0-2.5c0.4,0,0.8-0.1,1.3-0.1c0-6.4,0-12.8,0-19.3
		c-0.2-0.1-0.4-0.2-0.6-0.2c-2.7-0.9-4.4-3.4-4.3-6.2c0.1-2.9,2-5.2,4.9-5.9c0.2,0,0.3-0.1,0.5-0.2C84.1,4.9,84.7,4.9,85.4,4.9z
		 M88.1,11.3c0-2-1.6-3.7-3.6-3.7c-2.1,0-3.7,1.7-3.7,3.7s1.7,3.7,3.7,3.7C86.4,15,88.1,13.3,88.1,11.3z"/>
	<path class="st0" d="M16.7,4.9c0.4,0.1,0.8,0.2,1.2,0.4c1.9,0.7,3.3,2.1,3.9,4c0.2,0.6,0.4,0.8,1,0.7c4.8,0,9.5,0,14.3,0
		c0.3,0,0.6,0,1,0c0,2.7,0,5.2,0,7.9c-0.8,0-1.6,0-2.5,0c0-1.8,0-3.5,0-5.3c-0.3,0-0.6-0.1-0.8-0.1c-4,0-8,0-12,0
		c-0.5,0-0.8,0.1-1,0.7c-1,2.9-3.9,4.6-6.8,4.2c-3-0.5-5.3-2.9-5.5-5.8C9.3,8.4,11.2,5.8,14.3,5c0.2,0,0.3-0.1,0.5-0.2
		C15.4,4.9,16.1,4.9,16.7,4.9z M15.8,7.6c-2,0-3.7,1.6-3.7,3.6c0,2.1,1.6,3.8,3.7,3.8c2,0,3.7-1.7,3.7-3.7S17.9,7.6,15.8,7.6z"/>
	<path class="st0" d="M53.3,82.7c0.3-1.6,0.5-3.1,0.8-4.6c0.1-0.5,0.3-0.8,0.8-0.9c3.6-0.7,7-2.1,10.1-4.2c0.4-0.3,0.6-0.2,1,0
		c1.3,0.9,2.6,1.8,3.8,2.7c1.8-1.9,3.6-3.6,5.4-5.5c-0.8-1.2-1.7-2.4-2.6-3.7c-0.3-0.4-0.4-0.8,0-1.2c2-3,3.4-6.3,4.1-9.9
		c0.1-0.6,0.4-0.8,0.9-0.8c1.5-0.2,3-0.5,4.5-0.7c0-2.6,0-5.1,0-7.8c-1.4-0.2-2.9-0.5-4.4-0.7c-0.6-0.1-1-0.3-1.1-1
		c-0.7-3.5-2-6.7-4-9.7c-0.4-0.6-0.4-0.9,0-1.5c0.9-1.2,1.7-2.4,2.6-3.6c-1.8-1.8-3.6-3.6-5.5-5.5c-1.2,0.8-2.4,1.7-3.7,2.6
		c-0.4,0.3-0.7,0.4-1.2,0c-1.1-0.7-2.3-1.4-3.5-2.1c0.3-0.7,0.7-1.5,1.1-2.3c0.7,0.4,1.5,0.7,2.2,1.2c0.6,0.4,1.1,0.3,1.6-0.1
		c1.3-1,2.6-1.9,3.8-2.7c2.9,2.9,5.7,5.7,8.6,8.6c-0.9,1.2-1.8,2.6-2.9,4c-0.3,0.4-0.4,0.7-0.1,1.2c1.4,2.4,2.5,4.9,3.2,7.6
		c0.1,0.6,0.4,0.7,0.9,0.8c1.6,0.3,3.2,0.5,4.9,0.8c0,0.3,0.1,0.6,0.1,0.9c0,3.5,0,7,0,10.5c0,0.6-0.1,0.9-0.8,1
		c-1.4,0.2-2.7,0.5-4.1,0.6c-0.7,0.1-1,0.4-1.2,1c-0.6,2.6-1.7,5-3,7.3c-0.3,0.5-0.3,0.9,0,1.4c1,1.3,2,2.7,2.9,4
		c-2.9,2.9-5.7,5.7-8.6,8.6c-1.3-0.9-2.7-1.9-4.1-2.9c-0.4-0.3-0.7-0.3-1.2-0.1c-2.4,1.4-4.9,2.5-7.6,3.2c-0.6,0.1-0.8,0.4-0.8,0.9
		c-0.2,1.5-0.5,3-0.7,4.4c0,0.2-0.4,0.5-0.6,0.6c-3.8,0-7.6,0-11.4,0c-0.1,0-0.2-0.1-0.3-0.1c-0.3-1.6-0.5-3.2-0.8-4.8
		c-0.1-0.6-0.3-0.9-0.9-1c-2.7-0.7-5.2-1.7-7.5-3.1c-0.4-0.2-0.7-0.3-1.1,0c-1.4,1-2.8,2-4.1,2.9c-2.9-2.9-5.7-5.7-8.6-8.6
		c0.9-1.3,1.9-2.6,2.9-4c0.3-0.4,0.3-0.7,0-1.2c-1.4-2.3-2.4-4.7-3.1-7.3c-0.2-0.8-0.6-1-1.3-1.1c-1.4-0.2-2.8-0.4-4.2-0.7
		c-0.2,0-0.6-0.4-0.6-0.6c0-3.7,0-7.3,0-11c0-0.2,0.3-0.6,0.6-0.6c1.4-0.3,2.9-0.5,4.3-0.7c0.6-0.1,0.9-0.3,1-0.9
		c0.7-2.6,1.7-5.1,3.1-7.4c0.3-0.5,0.3-0.8-0.1-1.3c-1-1.3-2-2.7-2.9-4c2.9-2.9,5.7-5.7,8.6-8.6c1.3,0.9,2.7,1.9,4,2.9
		c0.5,0.3,0.8,0.4,1.3,0.1c2.3-1.4,4.9-2.5,7.5-3.1c0.6-0.1,0.7-0.4,0.8-0.9c0.3-1.6,0.5-3.3,0.8-5c0.3,0,0.6-0.1,0.8-0.1
		c3.5,0,7,0,10.5,0c0.6,0,0.9,0.2,1,0.9c0.2,1.4,0.5,2.7,0.6,4.1c0.1,0.7,0.4,1,1,1.1c0.7,0.1,1.5,0.4,2.3,0.7
		c-0.3,0.8-0.6,1.6-0.8,2.4c-1.5-0.4-2.8-0.7-4.2-1.1c-0.2-0.1-0.4-0.5-0.4-0.7c-0.3-1.5-0.5-3-0.8-4.6c-2.6,0-5.1,0-7.7,0
		c-0.2,1.5-0.5,2.9-0.7,4.4c-0.1,0.7-0.4,0.9-1,1.1c-3.5,0.7-6.8,2-9.7,4.1c-0.5,0.4-0.8,0.3-1.3-0.1c-1.1-0.8-2.2-1.6-3.3-2.3
		c-0.2-0.1-0.6-0.1-0.8,0c-1.7,1.6-3.4,3.3-5.1,5.1c0.9,1.3,1.8,2.6,2.7,3.8c0.3,0.4,0.4,0.7,0.1,1.2c-2,3-3.4,6.3-4.1,9.9
		c-0.1,0.5-0.4,0.8-0.9,0.9c-1.5,0.2-3,0.5-4.6,0.7c0,2.6,0,5.1,0,7.7c1.6,0.3,3.1,0.5,4.6,0.8c0.3,0.1,0.7,0.3,0.7,0.5
		c0.8,3.9,2.3,7.5,4.6,10.8c-1.1,1.5-2.1,2.9-3.1,4.3c1.8,1.8,3.7,3.6,5.6,5.4c1.1-0.8,2.4-1.7,3.6-2.6c0.4-0.3,0.8-0.3,1.2,0
		c3,2,6.3,3.5,9.9,4.1c0.6,0.1,0.8,0.4,0.8,0.9c0.2,1.2,0.4,2.5,0.6,3.7c0.1,0.6,0.3,0.9,0.9,0.8C48.7,82.6,50.9,82.7,53.3,82.7z"/>
	<path class="st0" d="M36.4,61.5c-0.7,0.6-1.3,1.1-1.9,1.6c-6.1-6.5-7.4-18.4,0.3-26.6c7.7-8.3,20.4-8.6,28.5-0.8
		c8,7.8,8.2,20.6,0.3,28.5c-8.2,8.1-20.3,7.1-27,1c0.5-0.6,1-1.2,1.6-1.9c4.6,3.7,9.7,5,15.4,3.6c4.3-1,7.7-3.4,10.2-7.1
		c5-7.2,3.7-17.1-3-22.9c-6.6-5.8-16.6-5.6-23.1,0.3C31.2,43.2,29.9,53.7,36.4,61.5z"/>
	<path class="st0" d="M14.3,61.2c1.1,0,2.1,0,3.1,0c0,0.7,0.2,1.4,0,2c-1.1,3-0.3,6.2-0.5,9.2c-0.1,3.2,0,6.3,0,9.5
		c0,0.2,0,0.4,0,0.6c3.9,1.7,5.6,4.3,4.8,7.6c-0.7,3-3.3,5-6.4,5c-2.9-0.1-5.5-2.3-6-5.2c-0.5-3.1,1.1-6.3,4.9-7.4
		C14.3,75.4,14.3,68.3,14.3,61.2z M11.9,88.7c0,2,1.6,3.7,3.7,3.7s3.7-1.7,3.7-3.8c0-2-1.7-3.7-3.7-3.7C13.5,85,11.9,86.7,11.9,88.7
		z"/>
	<path class="st0" d="M76.2,90.3c-5.3,0-10.7,0-16.1,0c0-2.7,0-5.3,0-8c0.8,0,1.6,0,2.5,0c0,1.8,0,3.5,0,5.3c0.3,0,0.6,0.1,0.8,0.1
		c4,0,8,0,12,0c0.5,0,0.8-0.1,1-0.7c1-3.3,4.2-5.1,7.5-4.4c3,0.7,5.2,3.7,4.9,6.7c-0.4,3.5-3.2,5.9-6.6,5.7
		c-2.6-0.1-4.4-1.5-5.5-3.8c-0.1-0.2-0.1-0.3-0.2-0.5C76.3,90.6,76.2,90.5,76.2,90.3z M78.7,88.8c0,2,1.7,3.7,3.7,3.7
		s3.7-1.7,3.7-3.7s-1.7-3.8-3.8-3.7C80.3,85.1,78.7,86.7,78.7,88.8z"/>
	<path class="st1" d="M45.9,43.1c0,4.6,0,9.1,0,13.7c-0.8,0-1.6,0-2.6,0c0-1.6,0-3.2,0-4.8c-1.4,0-2.6,0-4,0c0,1.6,0,3.2,0,4.8
		c-0.9,0-1.7,0-2.6,0c0-4.6,0-9.1,0-13.7C39.8,43.1,42.8,43.1,45.9,43.1z M43.3,49.3c0-1.2,0-2.4,0-3.6c-1.3,0-2.6,0-3.9,0
		c0,1.2,0,2.4,0,3.6C40.7,49.3,42,49.3,43.3,49.3z"/>
	<path class="st1" d="M48.2,43.1c3.1,0,6.1,0,9.1,0c0,2.9,0,5.7,0,8.7c-1.5,0-2.9,0-4.3,0c-2.3,0-2.3,0-2.3,2.3c0,0.9,0,1.8,0,2.7
		c-0.9,0-1.7,0-2.5,0C48.2,52.3,48.2,47.8,48.2,43.1z M54.7,45.7c-1.3,0-2.6,0-3.9,0c0,1.2,0,2.3,0,3.4c1.3,0,2.6,0,3.9,0
		C54.7,48,54.7,46.9,54.7,45.7z"/>
	<path class="st1" d="M62.1,56.8c-0.9,0-1.6,0-2.5,0c0-4.5,0-9,0-13.6c0.8,0,1.6,0,2.5,0C62.1,47.7,62.1,52.2,62.1,56.8z"/>
	<path class="st0" d="M69.7,39.6c0.7-0.3,1.4-0.7,2.2-1.1c1.8,3.6,2.8,7.4,2.8,11.4c-0.9,0-1.7,0-2.4,0c-0.3-1.7-0.4-3.5-0.8-5.2
		C71,43,70.4,41.4,69.7,39.6z"/>
	<path class="st0" d="M63.3,32c0.5-0.7,1-1.3,1.6-2c0.7,0.6,1.4,1.2,2.1,1.8c-0.6,0.6-1.2,1.3-1.8,1.9C64.5,33.1,63.9,32.6,63.3,32z
		"/>
	<path class="st1" d="M66.9,35.5c0.7-0.6,1.3-1.1,2-1.7c0.6,0.7,1.1,1.4,1.6,2.2c-0.7,0.5-1.4,0.9-2.2,1.4
		C67.9,36.8,67.4,36.2,66.9,35.5z"/>
</g>
</svg>
