<?xml version="1.0" encoding="utf-8"?>
<!-- Generator: Adobe Illustrator 23.0.5, SVG Export Plug-In . SVG Version: 6.00 Build 0)  -->
<svg version="1.1" id="Layer_1" xmlns="http://www.w3.org/2000/svg" xmlns:xlink="http://www.w3.org/1999/xlink" x="0px" y="0px"
	 viewBox="0 0 100 100" style="enable-background:new 0 0 100 100;" xml:space="preserve">
<style type="text/css">
	.st0{fill:#191746;}
	.st1{fill:#F26622;}
</style>
<g>
	<g>
		<path class="st0" d="M92.7,45.2c0-11.7-0.1-23.4-0.2-35c0-1.6-0.4-2-1.9-2c-8.7,0-17.4-0.1-26.1-0.1c-18.3,0-36.6,0-55,0.1
			c-0.2,0-0.5,0-0.7,0C7.9,8.3,7.3,8.7,7.3,9.7c0,1.3,0,2.6,0,3.8c0,0.4,0,0.7,0,1.1v39c0,0.2,0,0.4,0,0.5v37.7h85.4V71.7
			c0-3.4,0-6.9,0-10.3C92.6,56,92.8,50.6,92.7,45.2z M40.9,10.9h48.8v12.6H40.9V10.9z M10.1,11H38v12.5H10.1V11z M89.8,89H10.1V26.4
			h79.7C89.8,26.4,89.8,89,89.8,89z"/>
		<path class="st0" d="M20.4,85.2c-0.8,0-1.7,0-2.7,0c0.4-11.3,5-20.4,14.4-26.5c11.2-7.3,22.9-7.6,34.4-0.8
			c10.1,6,15.1,15.4,15.6,27.3c-1,0-1.8,0-2.8,0C79,75.4,75,67.3,67,61.5c-5.6-4.1-12-5.8-19-5.5C35.5,56.6,20.8,67.3,20.4,85.2z"/>
		<path class="st0" d="M44.7,33.6c0-2-0.3-2.3-2.3-2.3c-4,0-7.9,0-11.9,0c-4.5,0-9.1,0-13.6,0c-1.6,0-2,0.4-2,2c0,3.5,0,7.1,0,10.6
			c0,1.1,0.5,1.7,1.6,1.7c4.4,0,8.8,0,13.2,0l0,0c4.3,0,8.6,0,12.9,0c1.6,0,2-0.4,2-2C44.7,40.3,44.7,37,44.7,33.6z M41.9,42.8H25.5
			v-4.2h-2.8v4.2h-4.9v-8.7h24.1V42.8z"/>
		<path class="st1" d="M81.1,58.6c-1.1,0-1.9,0-2.8,0c0-5.6,0-11.2,0-16.9c-0.9-0.1-1.6-0.1-2.4-0.2c0-0.9,0-1.7,0-2.6
			c0.8,0,1.5-0.1,2.3-0.1c0-2.7,0-5.4,0-8.2c1,0,1.8,0,2.8,0c0,2.7,0,5.4,0,8.2c0.8,0,1.5,0,2.3,0c0,0.9,0,1.8,0,2.7
			c-0.7,0-1.4,0.1-2.3,0.1C81.1,47.4,81.1,53,81.1,58.6z"/>
		<path class="st0" d="M69.6,49.6c0,1.4,0,2.7,0,4.1c-0.9,0-1.8,0-2.8,0c0-1.3,0-2.7,0-4.1c-0.9-0.1-1.6-0.1-2.4-0.1
			c0-0.9,0-1.7,0-2.6c0.7,0,1.5-0.1,2.3-0.1c0-5.3,0-10.6,0-16c0.8,0,1.5-0.2,2.2-0.1c0.3,0,0.6,0.6,0.6,0.9c0,4.5,0,8.9,0,13.4
			c0,1.8,0,1.8,1.8,1.9c0.2,0,0.3,0,0.6,0.1c0,0.9,0,1.7,0,2.6C71.2,49.5,70.4,49.5,69.6,49.6z"/>
		<path class="st1" d="M51.1,84.6c-0.8,0.5-1.5,0.9-2.4,1.4c-4.2-7.2-8.3-14.3-12.5-21.6c0.8-0.5,1.5-0.9,2.4-1.4
			C42.8,70.2,46.9,77.4,51.1,84.6z"/>
		<path class="st1" d="M52.8,38.5c0-1,0-1.8,0-2.7c0.8,0,1.6-0.1,2.5-0.1c0-1.7,0-3.3,0-5c1,0,1.8,0,2.7,0c0,1.7,0,3.3,0,5
			c0.8,0,1.6,0.1,2.4,0.1c0,0.9,0,1.7,0,2.6c-0.7,0-1.4,0.1-2.3,0.1c0,3.3,0,6.7,0,10c-1,0-1.8,0-2.8,0c0-1.4,0-2.8,0-4.2
			c0-1.6-0.1-3.1,0-4.7c0.1-1-0.3-1.3-1.3-1.2C53.7,38.5,53.3,38.5,52.8,38.5z"/>
		<path class="st0" d="M33,67.7c0.7,0.7,1.3,1.3,1.9,2c-4.3,4.3-6.6,9.5-6.7,15.6c-0.9,0-1.7,0-2.7,0C25.7,78.4,28.1,72.6,33,67.7z"
			/>
		<path class="st0" d="M51.2,64.1c-0.9,0-1.7,0-2.6,0c0-1.2,0-2.4,0-3.6c0.9,0,1.7,0,2.6,0C51.2,61.7,51.2,62.9,51.2,64.1z"/>
		<path class="st1" d="M63.6,64.4c-0.7,1.2-1.3,2.2-1.9,3.3c-0.8-0.5-1.5-0.9-2.4-1.4c0.6-1.1,1.2-2.2,1.9-3.3
			C62,63.5,62.7,63.9,63.6,64.4z"/>
		<path class="st0" d="M68.9,75.9c-0.5-0.8-0.9-1.5-1.4-2.3c1.1-0.6,2.2-1.2,3.3-1.9c0.5,0.8,0.9,1.5,1.4,2.3
			C71.1,74.7,70.1,75.3,68.9,75.9z"/>
		<path class="st0" d="M85.3,16c0,0.9,0,1.7,0,2.5c-13.3,0-26.6,0-40,0c0-0.8,0-1.7,0-2.5C58.7,16,72,16,85.3,16z"/>
		<path class="st0" d="M25.9,16c0,0.8,0,1.6,0,2.6c-1.2,0-2.4,0-3.7,0c0-0.8,0-1.6,0-2.6C23.4,16,24.6,16,25.9,16z"/>
		<path class="st0" d="M29.9,18.6c0-0.9,0-1.7,0-2.6c1.2,0,2.4,0,3.6,0c0,0.9,0,1.7,0,2.6C32.4,18.6,31.2,18.6,29.9,18.6z"/>
		<path class="st0" d="M18.2,16c0,0.9,0,1.7,0,2.6c-1.2,0-2.4,0-3.6,0c0-0.9,0-1.7,0-2.6C15.8,16,16.9,16,18.2,16z"/>
		<polyline class="st0" points="7.3,14.6 7.3,53.6 7.3,54.2 7.3,91.9 		"/>
		<polyline class="st0" points="92.7,71.7 92.7,71.7 92.7,91.9 		"/>
	</g>
</g>
</svg>
