<svg xmlns="http://www.w3.org/2000/svg" version="1.1" xmlns:xlink="http://www.w3.org/1999/xlink" xmlns:svgjs="http://svgjs.com/svgjs" width="512" height="512" x="0" y="0" viewBox="0 0 512 512" style="enable-background:new 0 0 512 512" xml:space="preserve" class=""><g><g xmlns="http://www.w3.org/2000/svg"><path d="m330.39 378.989c-10.376-3.052-17.501-12.575-17.501-23.39v-20.265l-101.654 3.226-18.679 72.977 63.444 42.57z" fill="#f4aa73" data-original="#f4aa73"></path><path d="m199.111 355.598c0 10.815-7.124 20.337-17.5 23.39l4.587 15.591c17.175-5.052 29.167-19.256 29.167-37.192-.014-7.156 6.587-12.663 13.558-11.046 8.704 2.019 17.755 3.12 27.076 3.12 20.559 0 39.899-5.139 56.889-14.126v-26.508h-113.882z" fill="#e29a6c" data-original="#e29a6c"></path><path d="m416.045 404.181-85.654-25.192c-2.52-.741-4.838-1.878-6.919-3.308l-67.472 30.668-74.39-20.876-85.654 25.192c-20.752 6.104-25.896 25.149-25.896 46.78v30.173l7.148 22.994c2.542.898 5.277 1.387 8.127 1.387h146.286l26.422-16.409 22.338 16.41h146.286c13.465 0 24.381-10.916 24.381-24.381v-36.657c0-21.632-14.251-40.677-35.003-46.781z" fill="#615260" data-original="#615260" class=""></path><path d="m100.54 419.778 85.659-25.194-4.587-15.595h-.001l-85.654 25.192c-20.752 6.104-35.003 25.149-35.003 46.78v36.658c0 10.6 6.806 19.635 16.254 22.994v-59.653c-.002-14.317 9.594-27.143 23.332-31.182z" fill="#4e3d4d" data-original="#4e3d4d" class=""></path><path d="m256 333.206c-58.349 0-99.932-47.301-99.932-105.651v-130.031h205.583l16.254 81.27-16.254 48.762c0 58.349-47.302 105.65-105.651 105.65z" fill="#fbbd80" data-original="#fbbd80"></path><path d="m182.857 227.556v-85.586c0-6.43 3.808-12.293 9.747-14.758.05-.021.1-.042.15-.062 3.428-1.428 7.166-1.681 10.76-.745 9.255 2.412 18.663 3.628 28.104 3.628 30.766 0 59.289-12.545 80.096-33.206l-55.714-7.43-106.014 16.254-15.891 81.27 16.254 40.635c0 58.349 47.302 105.651 105.651 105.651 5.542 0 10.942-.555 16.254-1.378-50.612-7.836-89.397-51.466-89.397-104.273z" fill="#f4aa73" data-original="#f4aa73"></path><path d="m256 316.952c-10.463 0-20.486-1.833-29.806-5.156-5.297-1.889-10.829 2.286-10.829 7.909v3.964c0 11.557 8.055 21.825 19.427 23.881 6.882 1.244 13.963 1.909 21.208 1.909s14.326-.665 21.208-1.909c11.373-2.056 19.427-12.324 19.427-23.881v-3.964c0-5.623-5.533-9.798-10.829-7.909-9.32 3.324-19.343 5.156-29.806 5.156z" fill="#615260" data-original="#615260" class=""></path><path d="m359.471 60.347-38.455 20.923c0 16.606 8.323 31.24 21.005 40.041 2.131 1.479 3.376 3.928 3.376 6.522v34.708c0 8.977 7.277 16.254 16.254 16.254h16.254v-73.143c0-17.634-7.03-33.606-18.434-45.305z" fill="#615260" data-original="#615260" class=""></path><path d="m312.889 40.635-55.703 59.97c10.037 5.198 21.436 8.135 33.528 8.135 31.694 0 58.601-20.197 68.756-48.392-11.812-12.144-28.302-19.713-46.581-19.713z" fill="#4e3d4d" data-original="#4e3d4d" class=""></path><path d="m321.16 23.583c-4.475-.78-8.635 2.184-9.409 6.595 0 .001 0 .003-.001.005-.612 3.419-2.59 6.299-5.303 8.164-2.11 1.451-4.736 4.883-7.438 4.883l-13.349-2.595h-37.787l-59.707 62.908c13.074 6.547 27.825 10.234 43.453 10.234 44.971 0 82.728-30.48 94.002-71.878 1.448-5.104 2.055-8.422 2.144-8.924.765-4.417-2.195-8.613-6.605-9.392z" fill="#615260" data-original="#615260" class=""></path><path d="m247.873 40.635h-32.381l-9.035 7.536-7.346-7.536c-35.907 0-65.016 29.109-65.016 65.016v73.143h16.254c8.977 0 16.254-7.277 16.254-16.254v-31.725c0-7.068 4.631-13.24 11.347-15.443 58.823-19.294 69.923-74.737 69.923-74.737z" fill="#4e3d4d" data-original="#4e3d4d" class=""></path><path d="m299.079 40.635h-13.419c-5.66 8.044-14.988 19.042-27.478 25.964-20.397 11.31-36.23 6.988-37.04 6.758-4.278-1.29-8.786 1.107-10.111 5.369-1.333 4.286 1.063 8.841 5.357 10.171.429.135 5.563 1.667 13.69 1.667 9.056 0 21.833-1.901 35.984-9.75 24.263-13.449 38.225-38.327 40.383-42.466-2.08 1.387-4.728 2.287-7.366 2.287z" fill="#4e3d4d" data-original="#4e3d4d" class=""></path><path d="m199.111 40.635c-3.821 21.325-27.226 33.053-27.746 33.31-4.04 1.937-5.746 6.782-3.817 10.829 1.397 2.917 4.302 4.623 7.341 4.623 1.175 0 2.365-.254 3.492-.794 1.395-.667 33.365-16.367 37.111-47.968z" fill="#615260" data-original="#615260" class=""></path><path d="m272.254 446.984h-32.508l-8.127 65.016h48.762z" fill="#91ccff" data-original="#91ccff"></path><path d="m231.619 406.349v32.508c0 8.977 7.277 16.254 16.254 16.254h16.254c8.977 0 16.254-7.277 16.254-16.254v-32.508z" fill="#77b3ec" data-original="#77b3ec"></path><path d="m189.254 361.852 66.746 44.497-36.447 30.373c-6.829 5.69-16.962 4.84-22.746-1.909l-34.087-39.768c-2.479-2.892-2.617-7.118-.331-10.165l15.857-21.142c2.586-3.451 7.419-4.279 11.008-1.886z" fill="#736572" data-original="#736572"></path><path d="m322.746 361.852-66.746 44.497 36.447 30.373c6.829 5.69 16.962 4.84 22.746-1.909l34.087-39.768c2.479-2.892 2.617-7.118.331-10.165l-15.857-21.142c-2.586-3.451-7.419-4.279-11.008-1.886z" fill="#736572" data-original="#736572"></path><path d="m418.54 195.048h-16.254v-89.397c0-49.294-40.103-89.397-89.397-89.397h-113.778c-49.294 0-89.397 40.103-89.397 89.397v89.397h-16.254v-89.397c0-58.258 47.397-105.651 105.651-105.651h113.778c58.254 0 105.651 47.393 105.651 105.651z" fill="#b8b2b8" data-original="#b8b2b8"></path><path d="m410.413 186.921h-32.508v65.016h32.508c8.977 0 16.254-7.277 16.254-16.254z" fill="#77b3ec" data-original="#77b3ec"></path><path d="m426.667 235.683v-32.508c0-8.977-7.277-16.254-16.254-16.254v32.508c0 8.976 7.277 16.254 16.254 16.254z" fill="#91ccff" data-original="#91ccff"></path><path d="m190.984 325.079h-24.381c-35.849 0-65.016-29.167-65.016-65.016v-16.253h16.254v16.254c0 26.889 21.873 48.762 48.762 48.762h24.381z" fill="#b8b2b8" data-original="#b8b2b8"></path><path d="m207.238 300.698h-8.127c-8.977 0-16.254 7.277-16.254 16.254 0 8.977 7.277 16.254 16.254 16.254h8.127c8.977 0 16.254-7.277 16.254-16.254 0-8.976-7.277-16.254-16.254-16.254z" fill="#736572" data-original="#736572"></path><path d="m101.587 186.921-16.254 48.762c0 8.977 7.277 16.254 16.254 16.254h32.508v-65.016z" fill="#77b3ec" data-original="#77b3ec"></path><path d="m85.333 235.683v-32.508c0-8.977 7.277-16.254 16.254-16.254v32.508c0 8.976-7.277 16.254-16.254 16.254z" fill="#91ccff" data-original="#91ccff"></path><path d="m142.222 251.937h-8.127c-4.488 0-8.127-3.639-8.127-8.127v-56.889c0-4.488 3.639-8.127 8.127-8.127h8.127c4.488 0 8.127 3.639 8.127 8.127v56.889c0 4.488-3.638 8.127-8.127 8.127z" fill="#615260" data-original="#615260" class=""></path><path d="m150.349 243.81c-8.977 0-16.254-7.277-16.254-16.254v-48.762h-8.127c-4.488 0-8.127 3.639-8.127 8.127v65.016c0 4.488 3.639 8.127 8.127 8.127h16.254c4.488 0 8.127-3.639 8.127-8.127z" fill="#4e3d4d" data-original="#4e3d4d" class=""></path><path d="m386.032 251.937h-8.127c-4.488 0-8.127-3.639-8.127-8.127v-56.889c0-4.488 3.639-8.127 8.127-8.127h8.127c4.488 0 8.127 3.639 8.127 8.127v56.889c0 4.488-3.639 8.127-8.127 8.127z" fill="#615260" data-original="#615260" class=""></path><path d="m394.159 243.81c-8.977 0-16.254-7.277-16.254-16.254v-48.762h-8.127c-4.488 0-8.127 3.639-8.127 8.127v65.016c0 4.488 3.639 8.127 8.127 8.127h16.254c4.488 0 8.127-3.639 8.127-8.127z" fill="#4e3d4d" data-original="#4e3d4d" class=""></path><g><path d="m207.238 219.429c-4.492 0-8.127-3.635-8.127-8.127v-8.127c0-4.492 3.635-8.127 8.127-8.127s8.127 3.635 8.127 8.127v8.127c0 4.492-3.635 8.127-8.127 8.127z" fill="#4e3d4d" data-original="#4e3d4d" class=""></path></g><g><path d="m304.762 219.429c-4.492 0-8.127-3.635-8.127-8.127v-8.127c0-4.492 3.635-8.127 8.127-8.127s8.127 3.635 8.127 8.127v8.127c0 4.492-3.635 8.127-8.127 8.127z" fill="#4e3d4d" data-original="#4e3d4d" class=""></path></g><g><path d="m215.262 186.921h-16.151c-4.492 0-8.127-3.635-8.127-8.127s3.635-8.127 8.127-8.127h16.151c4.492 0 8.127 3.635 8.127 8.127s-3.635 8.127-8.127 8.127z" fill="#4e3d4d" data-original="#4e3d4d" class=""></path></g><g><path d="m312.889 186.921h-16.357c-4.492 0-8.127-3.635-8.127-8.127s3.635-8.127 8.127-8.127h16.357c4.492 0 8.127 3.635 8.127 8.127s-3.635 8.127-8.127 8.127z" fill="#615260" data-original="#615260" class=""></path></g><path d="m272.254 239.715h-32.508c-15.683 0-28.444 12.762-28.444 28.444 0 2.246 1.817 4.063 4.063 4.063h16.254c10.4 0 19.42-5.673 24.381-14.027 4.961 8.355 13.981 14.027 24.381 14.027h16.254c2.246 0 4.064-1.817 4.064-4.063-.001-15.682-12.762-28.444-28.445-28.444z" fill="#615260" data-original="#615260" class=""></path></g></g></svg>