<svg xmlns="http://www.w3.org/2000/svg" version="1.1" xmlns:xlink="http://www.w3.org/1999/xlink" xmlns:svgjs="http://svgjs.com/svgjs" width="512" height="512" x="0" y="0" viewBox="0 0 512.001 512.001" style="enable-background:new 0 0 512 512" xml:space="preserve" class="hovered-paths"><g>
<g xmlns="http://www.w3.org/2000/svg">
	<path style="" d="M143.399,450.999l-13.329-27.813c-0.611-1.275-1.568-2.35-2.765-3.103l-0.169-0.107   c-2.309-1.456-5.227-1.54-7.619-0.221c-10.281,5.671-17.759,11.114-22.737,15.22l-25.709-49.106   c-0.987-1.885-2.729-3.263-4.792-3.789c-2.06-0.525-4.251-0.149-6.02,1.035L3.327,421.218c-2.175,1.457-3.434,3.942-3.32,6.557   c0.114,2.615,1.583,4.981,3.878,6.244l41.945,23.07v46.335c0,2.691,1.443,5.176,3.78,6.511c1.153,0.658,2.435,0.987,3.718,0.987   c1.318,0,2.637-0.348,3.812-1.042l83.31-49.183C143.799,458.718,145.08,454.508,143.399,450.999z" fill="#b32425" data-original="#b32425"></path>
	<path style="" d="M508.673,421.218l-56.932-38.103c-1.769-1.185-3.959-1.56-6.02-1.035   c-2.063,0.525-3.806,1.902-4.792,3.789l-25.709,49.106c-4.978-4.106-12.457-9.549-22.738-15.22c-2.39-1.32-5.308-1.235-7.619,0.221   l-0.169,0.107c-1.196,0.754-2.153,1.829-2.765,3.103l-13.328,27.813c-1.681,3.508-0.4,7.719,2.95,9.697l83.309,49.183   c1.175,0.694,2.492,1.042,3.812,1.042c1.282,0,2.565-0.329,3.718-0.987c2.337-1.335,3.78-3.82,3.78-6.511v-46.335l41.945-23.07   c2.294-1.262,3.764-3.628,3.878-6.244C512.107,425.159,510.849,422.674,508.673,421.218z" fill="#b32425" data-original="#b32425"></path>
</g>
<g xmlns="http://www.w3.org/2000/svg">
	<path style="" d="M143.399,450.999l-13.329-27.813c-1.202-2.507-3.729-4.145-6.508-4.253c0,0-0.224-0.009-0.606-0.009   c-1.271,0-2.518,0.323-3.63,0.938c-20.632,11.414-29.91,21.878-30.296,22.318c-1.787,2.043-2.331,4.893-1.421,7.452   c0.91,2.558,3.132,4.424,5.809,4.877l41.963,7.123c0.419,0.071,0.839,0.106,1.256,0.106c2.328,0,4.556-1.087,5.985-2.984   C144.311,456.516,144.609,453.526,143.399,450.999z" fill="#8c1e23" data-original="#8c1e23"></path>
	<path style="" d="M422.969,442.18c-0.386-0.44-9.664-10.903-30.296-22.318c-1.111-0.615-2.359-0.938-3.63-0.938   c-0.379,0-0.604,0.009-0.604,0.009c-2.779,0.106-5.308,1.744-6.51,4.253l-13.328,27.813c-1.211,2.526-0.912,5.517,0.775,7.754   c1.431,1.897,3.657,2.984,5.985,2.984c0.417,0,0.837-0.035,1.256-0.106l41.962-7.123c2.677-0.454,4.898-2.32,5.809-4.877   C425.3,447.073,424.756,444.222,422.969,442.18z" fill="#8c1e23" data-original="#8c1e23"></path>
</g>
<g xmlns="http://www.w3.org/2000/svg">
	<path style="" d="M110.468,330.509c-1.794-3.705-6.241-5.271-9.962-3.507c-36.426,17.274-52.228,35.503-52.882,36.269   c-1.987,2.329-2.358,5.632-0.94,8.344l41.347,78.978c1.143,2.182,3.294,3.652,5.738,3.953c0.304,0.037,0.606,0.055,0.908,0.055   c2.13,0,4.187-0.915,5.62-2.526c0.043-0.048,4.391-4.889,13.775-11.372c8.672-5.991,23.54-14.647,45.127-21.868   c2.429-0.813,4.274-2.808,4.895-5.291c0.621-2.484-0.068-5.113-1.828-6.973C141.922,385.071,124.493,359.481,110.468,330.509z" fill="#e93234" data-original="#e93234"></path>
	<path style="" d="M464.377,363.271c-0.654-0.768-16.457-18.995-52.881-36.269c-3.722-1.764-8.166-0.199-9.961,3.507   c-14.028,28.974-31.457,54.565-51.801,76.061c-1.76,1.859-2.449,4.489-1.828,6.973c0.622,2.484,2.467,4.48,4.895,5.291   c21.587,7.222,36.455,15.878,45.127,21.868c9.385,6.483,13.732,11.324,13.755,11.348c1.433,1.639,3.495,2.563,5.644,2.563   c0.294,0,0.589-0.017,0.884-0.052c2.457-0.292,4.613-1.775,5.76-3.968l41.347-78.978   C466.735,368.904,466.364,365.601,464.377,363.271z" fill="#e93234" data-original="#e93234"></path>
	<path style="" d="M464.377,363.271c-0.654-0.768-16.457-18.995-52.881-36.269c-3.722-1.764-8.166-0.199-9.961,3.507   c-14.028,28.974-31.457,54.565-51.801,76.061c-1.76,1.859-2.449,4.489-1.828,6.973c0.622,2.484,2.467,4.48,4.895,5.291   c21.587,7.222,36.455,15.878,45.127,21.868c9.385,6.483,13.732,11.324,13.755,11.348c1.433,1.639,3.495,2.563,5.644,2.563   c0.294,0,0.589-0.017,0.884-0.052c2.457-0.292,4.613-1.775,5.76-3.968l41.347-78.978   C466.735,368.904,466.364,365.601,464.377,363.271z" fill="#e93234" data-original="#e93234"></path>
</g>
<g xmlns="http://www.w3.org/2000/svg">
	<path style="" d="M347.904,413.543c-0.621-2.484,0.068-5.113,1.828-6.973c20.346-21.499,37.775-47.089,51.799-76.061   c1.794-3.705,6.241-5.271,9.962-3.507c9.676,4.589,17.883,9.242,24.751,13.62c-7.57,15.203-16.005,29.483-25.314,42.751   c-11.23,16.006-23.718,30.561-37.413,43.63c-6.055-2.781-12.944-5.568-20.718-8.168   C350.372,418.023,348.526,416.026,347.904,413.543z" fill="#b32425" data-original="#b32425"></path>
	<path style="" d="M164.097,413.543c0.621-2.484-0.068-5.113-1.828-6.973c-20.345-21.499-37.775-47.089-51.799-76.061   c-1.794-3.705-6.241-5.271-9.962-3.507c-9.676,4.589-17.883,9.242-24.751,13.62c7.571,15.203,16.005,29.483,25.315,42.751   c11.23,16.006,23.718,30.561,37.413,43.63c6.055-2.781,12.944-5.568,20.718-8.168C161.63,418.023,163.475,416.026,164.097,413.543z   " fill="#b32425" data-original="#b32425"></path>
</g>
<path xmlns="http://www.w3.org/2000/svg" style="" d="M458.232,84.031c-0.364-3.533-3.156-6.326-6.689-6.69c-59.676-6.156-108.315-26.058-138.608-41.668  c-32.93-16.969-51.941-32.694-52.125-32.847c-2.784-2.326-6.834-2.326-9.618,0c-0.748,0.626-76.166,62.697-190.733,74.516  c-3.533,0.365-6.325,3.157-6.689,6.69c-0.324,3.152-7.713,78.208,12.774,165.619c12.085,51.559,31.437,96.551,57.519,133.723  c32.765,46.699,76.224,81.056,129.166,102.116c0.891,0.354,1.83,0.531,2.771,0.531c0.941,0,1.881-0.177,2.771-0.531  c52.942-21.06,96.401-55.417,129.166-102.116c26.083-37.173,45.434-82.163,57.519-133.723  C465.945,162.239,458.555,87.183,458.232,84.031z" fill="#f5ba3d" data-original="#f5ba3d" class="hovered-path"></path>
<path xmlns="http://www.w3.org/2000/svg" style="" d="M458.232,84.031c-0.364-3.533-3.156-6.326-6.689-6.69c-6.159-0.635-12.193-1.425-18.109-2.333  c1.371,26.311,2.141,88.203-14.138,157.662c-12.476,53.228-32.454,99.675-59.381,138.05  c-33.193,47.309-77.024,82.338-130.297,104.177c7.647,3.839,15.517,7.373,23.611,10.593c0.891,0.354,1.83,0.531,2.771,0.531  c0.941,0,1.881-0.177,2.771-0.531c52.942-21.06,96.401-55.417,129.166-102.116c26.083-37.173,45.434-82.163,57.519-133.723  C465.945,162.239,458.555,87.183,458.232,84.031z" fill="#f2a325" data-original="#f2a325"></path>
<path xmlns="http://www.w3.org/2000/svg" style="" d="M411.833,121.849c-0.364-3.533-3.156-6.326-6.689-6.69c-86.497-8.923-143.771-55.89-144.334-56.359  c-2.784-2.326-6.834-2.326-9.618,0c-0.565,0.473-57.597,47.411-144.334,56.359c-3.533,0.365-6.325,3.157-6.689,6.69  c-0.248,2.413-5.906,59.88,9.769,126.756c9.258,39.5,24.094,73.981,44.093,102.487c25.164,35.863,58.54,62.25,99.198,78.424  c0.891,0.354,1.83,0.531,2.771,0.531c0.941,0,1.881-0.177,2.771-0.531c40.66-16.174,74.035-42.56,99.198-78.424  c20.001-28.506,34.836-62.987,44.093-102.487C417.739,181.727,412.081,124.262,411.833,121.849z" fill="#ffdb57" data-original="#ffdb57"></path>
<path xmlns="http://www.w3.org/2000/svg" style="" d="M234.313,307.869c-5.35,0-10.482-2.125-14.265-5.908l-45.885-45.885  c-7.878-7.878-7.878-20.652,0-28.531c7.878-7.878,20.651-7.878,28.53,0l31.62,31.62l77.504-77.504  c7.878-7.878,20.651-7.879,28.53-0.001c7.878,7.878,7.878,20.652,0,28.531l-91.769,91.768  C244.796,305.743,239.663,307.869,234.313,307.869z" fill="#00b76c" data-original="#00b76c"></path>
<g xmlns="http://www.w3.org/2000/svg">
</g>
<g xmlns="http://www.w3.org/2000/svg">
</g>
<g xmlns="http://www.w3.org/2000/svg">
</g>
<g xmlns="http://www.w3.org/2000/svg">
</g>
<g xmlns="http://www.w3.org/2000/svg">
</g>
<g xmlns="http://www.w3.org/2000/svg">
</g>
<g xmlns="http://www.w3.org/2000/svg">
</g>
<g xmlns="http://www.w3.org/2000/svg">
</g>
<g xmlns="http://www.w3.org/2000/svg">
</g>
<g xmlns="http://www.w3.org/2000/svg">
</g>
<g xmlns="http://www.w3.org/2000/svg">
</g>
<g xmlns="http://www.w3.org/2000/svg">
</g>
<g xmlns="http://www.w3.org/2000/svg">
</g>
<g xmlns="http://www.w3.org/2000/svg">
</g>
<g xmlns="http://www.w3.org/2000/svg">
</g>
</g></svg>