<svg xmlns="http://www.w3.org/2000/svg" version="1.1" xmlns:xlink="http://www.w3.org/1999/xlink" xmlns:svgjs="http://svgjs.com/svgjs" width="512" height="512" x="0" y="0" viewBox="0 0 512 512" style="enable-background:new 0 0 512 512" xml:space="preserve" class=""><g><g xmlns="http://www.w3.org/2000/svg"><g><path d="m256 391c-74.443 0-135-60.557-135-135s60.557-135 135-135 135 60.557 135 135-60.557 135-135 135z" fill="#ffdf40" data-original="#ffdf40"></path></g><path d="m391 256c0-74.443-60.557-135-135-135v270c74.443 0 135-60.557 135-135z" fill="#ffbe40" data-original="#ffbe40"></path><g id="Value_chain_2_"><path d="m256 241c-8.276 0-15-6.724-15-15s6.724-15 15-15h30c8.291 0 15-6.709 15-15s-6.709-15-15-15h-15v-15c0-8.291-6.709-15-15-15s-15 6.709-15 15v17.763c-17.422 6.213-30 22.707-30 42.237 0 24.814 20.186 45 45 45 8.276 0 15 6.724 15 15s-6.724 15-15 15h-30c-8.291 0-15 6.709-15 15s6.709 15 15 15h15v15c0 8.291 6.709 15 15 15s15-6.709 15-15v-17.763c17.422-6.213 30-22.707 30-42.237 0-24.814-20.186-45-45-45z" fill="#ffbe40" data-original="#ffbe40"></path><g><path d="m286 90h-60c-8.291 0-15-6.709-15-15v-60c0-8.291 6.709-15 15-15h60c8.291 0 15 6.709 15 15v60c0 8.291-6.709 15-15 15z" fill="#f98845" data-original="#f98845"></path></g><g><path d="m286 512h-60c-8.291 0-15-6.709-15-15v-60c0-8.291 6.709-15 15-15h60c8.291 0 15 6.709 15 15v60c0 8.291-6.709 15-15 15z" fill="#f98845" data-original="#f98845"></path></g><g><g><g><g><path d="m45 301c-24.814 0-45-20.186-45-45s20.186-45 45-45 45 20.186 45 45-20.186 45-45 45z" fill="#99bbff" data-original="#99bbff"></path></g></g></g></g><g><g><g><g><path d="m467 301c-24.814 0-45-20.186-45-45s20.186-45 45-45 45 20.186 45 45-20.186 45-45 45z" fill="#738aff" data-original="#738aff"></path></g></g></g></g><g><path d="m432.235 172.431c-19.248-40.503-52.163-73.418-92.666-92.666-7.485-3.56-10.679-12.51-7.119-19.98 3.53-7.485 12.554-10.649 19.98-7.119 46.743 22.207 84.697 60.161 106.904 106.904 3.56 7.471.366 16.421-7.119 19.98-7.448 3.539-16.422.382-19.98-7.119z" fill="#544473" data-original="#544473"></path></g><g><g><g><path d="m332.45 452.216c-3.56-7.471-.366-16.421 7.119-19.98 40.503-19.248 73.418-52.163 92.666-92.666 3.56-7.471 12.524-10.679 19.98-7.119 7.485 3.56 10.679 12.51 7.119 19.98-22.207 46.743-60.161 84.697-106.904 106.904-7.448 3.539-16.422.382-19.98-7.119z" fill="#544473" data-original="#544473"></path></g></g></g><g><g><g><path d="m159.569 459.335c-46.743-22.207-84.697-60.161-106.904-106.904-3.56-7.471-.366-16.421 7.119-19.98 7.471-3.56 16.436-.352 19.98 7.119 19.248 40.503 52.163 73.418 92.666 92.666 7.485 3.56 10.679 12.51 7.119 19.98-3.561 7.51-12.539 10.654-19.98 7.119z" fill="#67548c" data-original="#67548c" class=""></path></g></g></g><g><g><g><path d="m59.784 179.55c-7.485-3.56-10.679-12.51-7.119-19.98 22.207-46.743 60.161-84.697 106.904-106.904 7.441-3.53 16.436-.366 19.98 7.119 3.56 7.471.366 16.421-7.119 19.98-40.503 19.248-73.418 52.163-92.666 92.666-3.561 7.51-12.539 10.654-19.98 7.119z" fill="#67548c" data-original="#67548c" class=""></path></g></g></g></g><g><path d="m256 512h30c8.291 0 15-6.709 15-15v-60c0-8.291-6.709-15-15-15h-30z" fill="#f36a3d" data-original="#f36a3d"></path><g fill="#ff9f40"><path d="m271 346v-17.763c17.422-6.213 30-22.707 30-42.237 0-24.814-20.186-45-45-45v30c8.276 0 15 6.724 15 15s-6.724 15-15 15v60c8.291 0 15-6.709 15-15z" fill="#ff9f40" data-original="#ff9f40"></path><path d="m286 211c8.291 0 15-6.709 15-15s-6.709-15-15-15h-15v-15c0-8.291-6.709-15-15-15v60z" fill="#ff9f40" data-original="#ff9f40"></path></g><path d="m286 90c8.291 0 15-6.709 15-15v-60c0-8.291-6.709-15-15-15h-30v90z" fill="#f36a3d" data-original="#f36a3d"></path></g></g></g></svg>