<svg xmlns="http://www.w3.org/2000/svg" version="1.1" xmlns:xlink="http://www.w3.org/1999/xlink" xmlns:svgjs="http://svgjs.com/svgjs" width="512" height="512" x="0" y="0" viewBox="0 0 512 512" style="enable-background:new 0 0 512 512" xml:space="preserve" class=""><g transform="matrix(1.05,0,0,1.05,-12.800000000000011,-12.800000000000011)"><linearGradient xmlns="http://www.w3.org/2000/svg" id="New_Gradient_Swatch_22" gradientUnits="userSpaceOnUse" x1="61.083" x2="472.456" y1="461.686" y2="50.314"><stop offset="0" stop-color="#9d95c8"></stop><stop offset="1" stop-color="#d5d2e7"></stop></linearGradient><linearGradient xmlns="http://www.w3.org/2000/svg" id="New_Gradient_Swatch_17" gradientUnits="userSpaceOnUse" x1="375.009" x2="491.764" y1="314.378" y2="197.622"><stop offset="0" stop-color="#8177b8"></stop><stop offset="1" stop-color="#aba4d0"></stop></linearGradient><linearGradient xmlns="http://www.w3.org/2000/svg" id="New_Gradient_Swatch_11" gradientUnits="userSpaceOnUse" x1="405.624" x2="442.376" y1="274.376" y2="237.624"><stop offset="0" stop-color="#d5d2e7"></stop><stop offset="1" stop-color="#f1f0f7"></stop></linearGradient><linearGradient xmlns="http://www.w3.org/2000/svg" id="New_Gradient_Swatch_16" gradientUnits="userSpaceOnUse" x1="102.892" x2="291.108" y1="325.169" y2="136.954"><stop offset="0" stop-color="#b8e1e3"></stop><stop offset="1" stop-color="#edf7f8"></stop></linearGradient><linearGradient xmlns="http://www.w3.org/2000/svg" id="New_Gradient_Swatch_10" gradientUnits="userSpaceOnUse" x1="134.132" x2="259.868" y1="299.962" y2="174.226"><stop offset="0" stop-color="#72c2c8"></stop><stop offset="1" stop-color="#b8e1e3"></stop></linearGradient><g xmlns="http://www.w3.org/2000/svg" id="_21-secured" data-name="21-secured"><g id="gradient"><path d="m472 54h-384a74.083 74.083 0 0 0 -74 74v256a74.083 74.083 0 0 0 74 74h384a10 10 0 0 0 10-10v-384a10 10 0 0 0 -10-10z" fill="url(#New_Gradient_Swatch_22)" data-original="url(#New_Gradient_Swatch_22)"></path><path d="m488 198h-96a42.047 42.047 0 0 0 -42 42v32a42.047 42.047 0 0 0 42 42h96a10 10 0 0 0 10-10v-96a10 10 0 0 0 -10-10z" fill="url(#New_Gradient_Swatch_17)" data-original="url(#New_Gradient_Swatch_17)"></path><circle cx="424" cy="256" fill="url(#New_Gradient_Swatch_11)" r="26" data-original="url(#New_Gradient_Swatch_11)"></circle><path d="m319.36 222.917c-1.114-29.639-3.358-57.449-3.38-57.726a10 10 0 0 0 -7.152-8.786l-109.011-32a10 10 0 0 0 -5.634 0l-109.011 32a10 10 0 0 0 -7.152 8.786c-.022.277-2.266 28.087-3.38 57.726-2.067 55.029 1.267 69.284 4.4 75.555 1.785 3.57 6.527 13.053 60.405 57.92 25.956 21.615 51.146 41.294 51.4 41.49a10 10 0 0 0 12.308 0c.252-.2 25.442-19.875 51.4-41.49 53.878-44.867 58.62-54.35 60.405-57.92 3.135-6.272 6.469-20.526 4.402-75.555z" fill="url(#New_Gradient_Swatch_16)" data-original="url(#New_Gradient_Swatch_16)"></path><path d="m278.024 195.953a10 10 0 0 0 -7.165-9.006l-71.041-20.854a10.006 10.006 0 0 0 -5.636 0l-71.041 20.854a10 10 0 0 0 -7.165 9.006c-1.71 28.945-2.9 65.573-1.107 81.565a9.992 9.992 0 0 0 2.621 5.7c12.2 13.09 45.826 41.377 73.23 63.484a10 10 0 0 0 12.56 0c27.4-22.107 61.034-50.394 73.23-63.484a9.992 9.992 0 0 0 2.621-5.7c1.79-15.993.603-52.618-1.107-81.565z" fill="url(#New_Gradient_Swatch_10)" data-original="url(#New_Gradient_Swatch_10)"></path><path d="m196.994 272a9.959 9.959 0 0 1 -5.54-1.681l-24-16a10 10 0 1 1 11.093-16.64l16.372 10.921 26.281-32.847a10 10 0 1 1 15.617 12.494l-32 40a9.991 9.991 0 0 1 -7.823 3.753z" fill="#edf7f8" data-original="#edf7f8" class=""></path></g></g></g></svg>