<?xml version="1.0" encoding="utf-8"?>
<!-- Generator: Adobe Illustrator 23.0.5, SVG Export Plug-In . SVG Version: 6.00 Build 0)  -->
<svg version="1.1" id="Layer_1" xmlns="http://www.w3.org/2000/svg" xmlns:xlink="http://www.w3.org/1999/xlink" x="0px" y="0px"
	 viewBox="0 0 100 100" style="enable-background:new 0 0 100 100;" xml:space="preserve">
<style type="text/css">
	.st0{fill:#191746;}
	.st1{fill:#FFFFFF;}
	.st2{fill:#F26622;}
</style>
<g>
	<path class="st0" d="M61.8,74.5c-7.4,5.9-16.5,5.7-23.5,0c-2,2-4.1,4-6,6.2c-1.1,1.2-2.3,1.7-3.9,1.6c-5.3-0.1-10.5,0-15.8-0.1
		c-0.8,0-1.2,0.1-1.6,0.9c-0.9,1.8-2.8,2.5-4.6,2s-3.1-2-3.1-3.9s1.3-3.6,3.1-4c1.9-0.5,3.7,0.3,4.6,2.1c0.4,0.8,0.9,1,1.7,1
		c5.4,0,10.8,0,16.2,0c0.4,0,1-0.1,1.3-0.4c2.3-2.2,4.5-4.4,6.9-6.7c-2.7-3.2-4.2-6.7-4.5-10.7c-5.9,0-11.7,0-17.5,0
		c-0.4,0-0.9,0-1.3,0c-1.2,0-2.2-0.1-3,1.3C9.9,65.5,7.7,66,6,65.4c-1.6-0.6-2.8-2.5-2.6-4.2c0.2-1.9,1.5-3.4,3.3-3.8
		c1.8-0.4,3.6,0.6,4.6,2.3c0.2,0.3,0.6,0.8,1,0.8c6.7,0,13.3,0,20,0c0.1,0,0.2-0.1,0.5-0.1c0.3-3.9,1.7-7.4,4.6-10.7
		c-2.3-2.2-4.6-4.5-7-6.6c-0.2-0.2-0.7-0.3-1.1-0.3c-5.6,0-11.2,0-16.7,0c-0.4,0-1,0.4-1.3,0.8c-1.1,1.8-2.9,2.7-4.9,2.1
		c-1.7-0.5-3-2.2-3-4c0-1.9,1.4-3.5,3.3-4c1.9-0.4,3.6,0.5,4.7,2.3c0.2,0.4,0.8,0.7,1.3,0.7c5.7,0,11.3,0.1,17,0
		c0.9,0,1.6,0.3,2.2,0.9c2.2,2.3,4.4,4.5,6.6,6.8c7.9-5.9,15.6-5.9,23.6,0c2.1-2.2,4.3-4.3,6.5-6.6c0.8-0.8,1.6-1.1,2.7-1.1
		c5.5,0.1,11,0,16.5,0c0.8,0,1.3-0.1,1.7-1c0.8-1.7,2.8-2.5,4.5-2.1c1.9,0.5,3.1,2,3.2,3.9c0.1,1.8-1.2,3.6-2.9,4.1
		c-1.8,0.6-3.9-0.1-4.8-1.8c-0.5-1-1.1-1.1-2-1.1c-5.2,0-10.5,0-15.7,0c-1,0-1.7,0.3-2.4,1c-2,2-4.1,4-6.2,6
		c2.4,2.8,3.8,5.8,4.3,9.3c-0.6,0-1.1,0-2,0c0.6,0.3,0.9,0.4,1.2,0.5c0.2,0.1,0.6,0,0.6,0.1c0.7,1.7,2.1,0.9,3.1,0.9
		c5.7,0.1,11.4,0,17.1,0c0.8,0,1.3-0.1,1.7-1c0.8-1.8,2.8-2.5,4.7-2c1.8,0.5,3.1,2.1,3.1,3.9c0,1.8-1.3,3.6-3,4
		c-2.1,0.5-3.9-0.3-4.8-2.1c-0.3-0.6-0.6-1-1.3-1c-0.4,0-0.8-0.6-1.4-1c0.2,0.4,0.4,0.6,0.7,1.1c-1.4,0-2.7,0-3.9,0
		c-5,0-10,0-14.9,0c-0.3,0-0.8,0.3-0.8,0.5c-0.4,3.8-1.8,7.2-4.4,10.2c2.3,2.3,4.6,4.6,6.9,6.8c0.3,0.3,0.8,0.3,1.2,0.3
		c5.4,0,10.9,0,16.3,0c0.8,0,1.2-0.2,1.6-0.9c0.9-1.8,2.8-2.6,4.6-2.1c1.9,0.5,3.2,2.2,3.2,4c0,1.9-1.3,3.5-3.1,3.9
		c-1.9,0.5-3.8-0.3-4.7-2.1c-0.3-0.7-0.7-0.9-1.4-0.8c-5.8,0-11.5,0-17.3,0c-0.5,0-1.2-0.3-1.6-0.6C66.4,79.2,64.1,76.9,61.8,74.5z
		 M50,45.9c-8.8,0-15.7,7-15.5,16.1c0.1,7.9,6.7,14.9,15.5,14.9c8.4,0.1,15.4-7,15.5-15.4C65.7,52.9,58.4,45.9,50,45.9z M90.5,61.4
		c0,1.2,0.9,2.2,2.1,2.2s2.2-0.9,2.2-2.1c0-1.2-0.9-2.2-2.1-2.2C91.5,59.3,90.6,60.2,90.5,61.4z M7.3,59.3c-1.2,0-2.2,0.9-2.2,2.1
		c0,1.2,1,2.2,2.2,2.2s2.2-0.9,2.2-2.1C9.5,60.2,8.6,59.3,7.3,59.3z M5.1,41.6c0,1.2,0.9,2.2,2.1,2.2s2.2-0.9,2.2-2.1
		c0-1.2-0.9-2.2-2.1-2.2S5.2,40.4,5.1,41.6z M92.8,39.5c-1.2-0.1-2.2,0.8-2.3,2c0,1.2,0.8,2.2,2,2.3s2.2-0.8,2.3-2
		C94.9,40.5,94,39.6,92.8,39.5z M7.3,79c-1.2,0-2.2,1-2.1,2.2c0,1.2,1,2.2,2.2,2.1c1.2,0,2.1-1,2.1-2.2S8.5,79,7.3,79z M94.9,81.3
		c0-1.2-0.9-2.2-2.1-2.2s-2.2,0.9-2.2,2.1s0.9,2.2,2.1,2.2S94.8,82.5,94.9,81.3z"/>
	<path class="st0" d="M28.6,38.3c3.5-3.9,6.9-7.6,10.4-11.4c-0.7-1.4-0.7-2.8,0.5-4.2c-1-1-1.9-2.1-2.9-3.1
		c-0.9-0.9-1.9-1.7-2.7-2.7c-1.1-1.1-0.8-2.4,0.5-3.2c2.4-1.5,4.9-2,7.6-0.7c1.4,0.7,2.6,0.5,3.8-0.6c0.8-0.7,1.6-1.2,2.4-1.8
		c1.2-0.8,2.5-0.8,3.7,0c1,0.7,1.9,1.5,3,2.1c0.7,0.4,1.6,0.4,2.4,0.4c0.7,0,1.4-0.4,2.1-0.6c2.6-1,4.7,0.2,6.7,1.6
		c1,0.6,0.8,1.9-0.2,2.8c-1.5,1.5-3,2.9-4.6,4.4c-0.3,0.3-0.8,0.6-1.1,0.8c1.2,2.5,1.3,2.8,0.6,4.7c3.4,3.7,6.8,7.4,10.3,11.2
		c-2.3,0.6-2.2,0.5-3.6-1c-2.6-2.8-5.2-5.5-7.8-8.2c-0.4-0.4-1.1-0.6-1.6-0.6c-5.5,0-11,0-16.5,0c-0.6,0-1.3,0.2-1.7,0.6
		c-2.5,2.5-5.1,5.1-7.4,7.8C31.6,38,30.7,38.8,28.6,38.3z M64.7,15.7c-1.8-1.2-3.5-1.9-5.4-0.9c-2.6,1.3-4.8,0.7-6.9-1.2
		c-0.1-0.1-0.2-0.2-0.3-0.2c-2.5-1.7-1.7-1.7-4.1,0c-0.9,0.6-1.8,1.4-2.9,1.9c-1.6,0.8-3.1,0.1-4.6-0.5c-2-0.9-3.5-0.1-4.7,0.7
		c1.8,2,3.6,4,5.5,6c0.3,0.3,0.8,0.4,1.2,0.4c5,0,10,0,15,0c0.4,0,1-0.2,1.3-0.5C60.7,19.5,62.7,17.6,64.7,15.7z M49.9,26.4
		c2.6,0,5.2,0,7.8,0c1,0,1.8-0.3,1.8-1.4c0-1-0.8-1.3-1.8-1.3c-5.1,0-10.3,0-15.4,0c-1,0-1.7,0.3-1.8,1.3c0,1.1,0.8,1.4,1.8,1.4
		C44.9,26.4,47.4,26.4,49.9,26.4z"/>
	<path class="st0" d="M25.2,84.5c1.4-0.2,2.7-0.1,3.8,1c1.8,1.7,4.1,2.3,6.6,2.3c9.6,0,19.2,0,28.7,0c2.4,0,4.6-0.6,6.3-2.1
		c1.2-1.1,2.5-1.6,4.2-1.2c-2.3,2.5-4.9,4.5-8.3,5c-1,0.2-2.1,0.2-3.1,0.2c-9.2,0-18.4,0-27.7,0C31.6,89.8,27.4,87.7,25.2,84.5z"/>
	<path class="st0" d="M26.4,45.1c-1.2,2.1-2.4,4.1-3.4,6.2c-0.9,1.8-1.7,3.7-2.3,5.6c-0.4,1.3-1,1.7-2.5,1.3
		c0.3-1.1,0.6-2.2,1.1-3.3c1.3-2.8,2.8-5.6,4.1-8.4C24,45.1,24.9,44.7,26.4,45.1z"/>
	<path class="st0" d="M81.7,58.1c-0.7,0-1.3,0-1.6,0c-2.2-4.5-4.3-8.8-6.4-13.2c1.2-0.4,2.2,0,2.8,1.4c1.6,3.6,3.2,7.1,4.9,10.6
		C81.6,57.3,81.6,57.6,81.7,58.1z"/>
	<path class="st0" d="M17.4,64.8c0.7,0,1.3,0,1.9,0c0.1,4.6,0.9,9.1,3.1,13.1c-1.6,0.5-2.4-0.1-2.9-1.6
		C18.1,72.6,17.5,68.8,17.4,64.8z"/>
	<path class="st0" d="M77.8,78.1c0.8-2.5,1.6-4.6,2.1-6.7c0.5-2.2,0.6-4.4,1-6.7c0.5,0,1.1,0,1.8,0c-0.2,4.4-0.7,8.7-2.7,12.6
		C79.7,77.8,78.6,77.9,77.8,78.1z"/>
	<path class="st1" d="M50,45.9c8.3,0,15.6,7,15.5,15.6C65.4,69.9,58.4,77,50,76.9c-8.8-0.1-15.4-7-15.5-14.9
		C34.4,52.9,41.3,45.9,50,45.9z M44.9,65.1c0.3,2.4,1.2,3.9,3.2,4.7c0.6,0.3,1,0.5,1,1.3c0,0.4,0.6,0.8,1,1.1
		c0.3-0.4,0.9-0.7,0.9-1.1c0-0.8,0.4-1.1,1.1-1.4c3.4-1.4,4.1-6.3,0.9-8.3c-0.7-0.5-1.5-0.9-2.3-1.3c-0.8-0.5-1.8-1-2.4-1.8
		c-0.4-0.6-0.6-1.7-0.4-2.4c0.2-0.6,1.1-1.2,1.8-1.4c1.5-0.3,2.4,0.5,2.8,2.2c0.1,0.4,0.7,0.8,1.1,1.1c0.3-0.5,0.8-1,0.8-1.4
		c-0.1-1.5-0.8-2.8-2.3-3.4c-0.7-0.3-1.1-0.6-1.1-1.5c0-0.3-0.5-0.8-0.8-0.9c-0.3-0.1-1,0.4-1,0.6c0.2,1.3-0.8,1.6-1.7,2.1
		c-0.6,0.3-1.1,0.9-1.4,1.5c-1.1,2.1-0.5,4.3,1.6,5.7c1.4,0.9,2.9,1.7,4.2,2.6c0.9,0.6,1.5,1.5,1.1,2.5c-0.4,0.9-1.2,1.9-2.1,2.3
		c-2,0.9-3.5-0.2-4.1-2.7c-0.1-0.5,0-1.3-1-0.8C45.5,64.7,45.2,64.9,44.9,65.1z"/>
	<path class="st1" d="M90.5,61.4c0-1.2,0.9-2.1,2.2-2.1c1.2,0,2.2,0.9,2.1,2.2c0,1.2-1,2.1-2.2,2.1C91.5,63.6,90.5,62.6,90.5,61.4z"
		/>
	<path class="st1" d="M7.3,59.3c1.3,0,2.1,0.9,2.1,2.2c0,1.2-1,2.2-2.2,2.1c-1.2,0-2.2-1-2.2-2.2C5.1,60.2,6.1,59.3,7.3,59.3z"/>
	<path class="st1" d="M5.1,41.6c0-1.2,1-2.1,2.2-2.1s2.1,0.9,2.1,2.2c0,1.2-1,2.2-2.2,2.1C6,43.8,5.1,42.9,5.1,41.6z"/>
	<path class="st1" d="M92.8,39.5c1.2,0.1,2.1,1.1,2,2.3s-1,2.1-2.3,2c-1.2-0.1-2.1-1-2-2.3C90.6,40.3,91.6,39.4,92.8,39.5z"/>
	<path class="st1" d="M7.3,79c1.2,0,2.2,0.9,2.2,2.1s-0.9,2.2-2.1,2.2s-2.2-0.9-2.2-2.1C5.1,80,6.1,79,7.3,79z"/>
	<path class="st1" d="M94.9,81.3c0,1.2-1,2.1-2.2,2.1s-2.1-1-2.1-2.2s1-2.1,2.2-2.1C94,79.1,94.9,80,94.9,81.3z"/>
	<path class="st1" d="M64.7,15.7c-2,2-4,3.8-5.9,5.6c-0.3,0.3-0.8,0.5-1.3,0.5c-5,0-10,0-15,0c-0.4,0-0.9-0.1-1.2-0.4
		c-1.9-2-3.7-4-5.5-6c1.2-0.7,2.7-1.5,4.7-0.7c1.4,0.6,3,1.3,4.6,0.5c1-0.5,1.9-1.2,2.9-1.9c2.4-1.6,1.7-1.7,4.1,0
		c0.1,0.1,0.2,0.1,0.3,0.2c2,1.9,4.3,2.5,6.9,1.2C61.2,13.8,62.9,14.5,64.7,15.7z"/>
	<path class="st1" d="M49.9,26.4c-2.5,0-5,0-7.5,0c-1,0-1.8-0.3-1.8-1.4c0-1,0.8-1.3,1.8-1.3c5.1,0,10.3,0,15.4,0
		c1,0,1.7,0.3,1.8,1.3c0,1.1-0.8,1.4-1.8,1.4C55,26.4,52.5,26.4,49.9,26.4z"/>
	<path class="st2" d="M44.9,65.1c0.2-0.2,0.6-0.4,1-0.6c0.9-0.4,0.9,0.3,1,0.8c0.6,2.4,2.1,3.6,4.1,2.7c0.9-0.4,1.6-1.4,2.1-2.3
		c0.4-1-0.2-1.9-1.1-2.5c-1.4-0.9-2.9-1.7-4.2-2.6c-2.1-1.4-2.7-3.6-1.6-5.7c0.3-0.6,0.8-1.2,1.4-1.5c0.8-0.5,1.8-0.8,1.7-2.1
		c0-0.2,0.7-0.6,1-0.6c0.4,0.1,0.9,0.6,0.8,0.9c0,0.9,0.4,1.2,1.1,1.5c1.5,0.6,2.2,1.9,2.3,3.4c0,0.5-0.5,1-0.8,1.4
		c-0.4-0.4-1-0.7-1.1-1.1c-0.5-1.7-1.3-2.5-2.8-2.2c-0.8,0.2-1.8,0.8-2,1.4c-0.2,0.7,0,1.8,0.4,2.4c0.6,0.8,1.6,1.2,2.4,1.8
		c0.7,0.5,1.5,0.9,2.3,1.3c3.3,2,2.5,6.9-0.9,8.3c-0.7,0.3-1.1,0.5-1.1,1.4c0,0.4-0.6,0.7-0.9,1.1c-0.3-0.4-1-0.7-1-1.1
		c0-0.8-0.4-1-1-1.3C46.2,69,45.2,67.5,44.9,65.1z"/>
</g>
</svg>
