<?xml version="1.0" encoding="utf-8"?>
<!-- Generator: Adobe Illustrator 23.0.5, SVG Export Plug-In . SVG Version: 6.00 Build 0)  -->
<svg version="1.1" id="Layer_1" xmlns="http://www.w3.org/2000/svg" xmlns:xlink="http://www.w3.org/1999/xlink" x="0px" y="0px"
	 viewBox="0 0 100 100" style="enable-background:new 0 0 100 100;" xml:space="preserve">
<style type="text/css">
	.st0{fill:#191746;}
	.st1{fill:#F26622;}
</style>
<path class="st0" d="M89,86.4c0-0.8,0-1.5,0-2.2c0-2.4,0-4.9,0-7.3c0-1.3,0.9-2.3,2.1-2.3c1.3,0,2.2,0.8,2.3,2.2
	c0.1,2.6,0.1,5.2,0,7.8c0,0.3-0.2,0.5-0.3,0.9c0,0,0.2,0.2,0.3,0.4c0.1,0.5,0.4,0.6,0.9,0.6c1.3,0,2.2,0.9,2.2,2.1
	c0,1.2-1,2.2-2.2,2.1c-2.3-0.1-4.6-0.1-6.9-0.1c-4.2,0-8.3,0.1-12.5,0.1c-22.8,0-45.6,0-68.4,0c-1.5,0-2.2-0.3-2.6-1.5
	c-0.1-0.4-0.1-0.8-0.1-1.3c0-7.7,0-15.4,0-23c0-17.5,0-35.1,0-52.6c0-0.5,0-1,0.2-1.5c0.4-1.1,1.4-1.6,2.4-1.4
	c1,0.2,1.8,1.1,1.8,2.1c0,1.4,0,2.8,0,4.2c0,1.9,0,1.9,1.8,1.9c2.1,0,4.3,0,6.4,0c1.5,0,2.5,0.9,2.5,2.2c0,1.3-1,2.2-2.5,2.2
	c-2.4,0-4.7,0-7.1,0c-1.1,0-1.2,0-1.2,1.1c0,2.9,0,5.7,0,8.6c0,0.8,0.2,1.1,1.1,1.1c2.4-0.1,4.8,0,7.2,0c0.9,0,1.6,0.3,2.1,1
	c0.5,0.7,0.5,1.5,0.1,2.3c-0.4,0.7-1,1.1-1.9,1.1c-2.5,0-5.1,0-7.6,0c-0.8,0-1,0.3-1,1c0,2.9,0,5.9,0,8.8c0,0.8,0.3,1,1,1
	c2.4,0,4.9,0,7.3,0c0.9,0,1.8,0.3,2.2,1.2c0.9,1.5-0.2,3.2-2,3.3c-2.4,0-4.9,0-7.3,0c-1.2,0-1.2,0-1.2,1.2c0,2.9,0,5.8,0,8.6
	c0,0.8,0.2,1.1,1.1,1.1c2.5,0,5.1,0,7.6,0c1.1,0,1.7,0.5,2,1.6c0.2,0.8-0.1,1.8-0.9,2.3c-0.4,0.2-0.9,0.3-1.3,0.3c-2.5,0-5,0-7.5,0
	c-0.7,0-1,0.2-1,0.9c0,5.7,0,11.4,0,17c0,0.7,0.2,0.9,0.9,0.9c4.7,0,9.3,0,14,0c0.7,0,0.9-0.2,0.9-0.9c0-2.9,0-5.7,0-8.6
	c0-1,0.4-1.7,1.3-2.1c0.8-0.4,1.7-0.3,2.3,0.4c0.4,0.5,0.8,1.3,0.8,2c0.1,2.8,0.1,5.5,0,8.3c0,0.8,0.2,1,1,1c2.2,0,4.5,0,6.7,0
	c0.9,0,1.1-0.3,1.1-1.1c0-2.8,0-5.6,0-8.4c0-1.5,0.8-2.3,2.1-2.3c1.3,0,2.1,0.9,2.1,2.3c0,2.9,0,5.7,0,8.6c0,0.7,0.2,1,0.9,0.9
	c2.3,0,4.6,0,6.9,0c0.6,0,0.8-0.2,0.8-0.8c0-2.9,0-5.8,0-8.7c0-1,0.6-1.9,1.5-2.2c0.8-0.3,1.8-0.1,2.3,0.6c0.4,0.5,0.6,1.2,0.6,1.9
	c0.1,2.7,0.1,5.4,0,8.1c0,0.8,0.3,1.1,1.1,1.1c2.2,0,4.3-0.1,6.5,0c0.9,0,1.1-0.3,1-1.1c0-2.8,0-5.7,0-8.5c0-1,0.5-1.7,1.4-2.1
	c0.8-0.3,1.7-0.3,2.3,0.4c0.4,0.6,0.7,1.4,0.7,2.1c0.1,2.7,0.1,5.4,0,8.1c0,0.7,0.2,1,1,1c2.2,0,4.5,0,6.7,0c0.8,0,1-0.3,1-1
	c0-2.7,0-5.4,0-8.1c0-0.7,0.2-1.4,0.6-2c0.5-0.8,1.5-1,2.3-0.7c0.9,0.3,1.4,1.1,1.5,2c0,2.9,0,5.8,0,8.7c0,0.8,0.3,1.1,1.1,1.1
	c2.2,0,4.4,0,6.6,0C88.3,86.4,88.5,86.4,89,86.4z"/>
<path class="st1" d="M88.3,42.7c-1.4,0.3-2.5-0.3-2.8-1.6c-0.5-2.2-0.8-4.4-1.3-6.5c-0.1-0.5-0.2-0.9-0.3-1.6
	c-1,1.7-1.8,3.1-2.7,4.6c-3.6,6.1-7.1,12.3-10.8,18.4C68,59.9,64,62,59.3,62.2c-5.9,0.1-11.8,0-17.6,0c-5,0.1-8.6,2.4-10.8,6.9
	c-0.3,0.6-0.6,1.1-0.8,1.7c-0.6,1.2-2,1.6-3.1,0.9h0c-1-0.6-1.3-1.8-0.8-2.9c0.3-0.6,0.5-1.1,0.8-1.7c2-4,5-6.8,9-8.3
	c2-0.8,4.2-1.1,6.4-1.1c5.5,0,11.1,0,16.6,0c3.8,0,6.6-1.8,8.5-5c2.5-4.3,5-8.6,7.5-12.9c1.6-2.8,3.2-5.5,4.8-8.2c0,0,0-0.1,0-0.3
	c-1,0.4-2,0.8-3,1.2c-1.1,0.5-2.3,1-3.4,1.4c-1.2,0.4-2.4-0.2-2.8-1.2c-0.4-1.1,0.1-2.4,1.2-2.9c3.3-1.4,6.7-2.8,10-4.2
	c0.7-0.3,1.4-0.6,2-0.9c1.8-0.8,3.2-0.1,3.5,1.8c0.6,3.2,1.2,6.4,1.8,9.6c0.3,1.3,0.6,2.6,0.8,3.9C90.1,41.3,89.4,42.5,88.3,42.7z"
	/>
<path class="st1" d="M34.6,52.3c0-0.4,0-0.8,0-1.2c0-0.4-0.2-0.5-0.5-0.5c-0.5,0-1,0-1.5,0c-1-0.1-1.5-0.6-1.5-1.6
	c0-1.6,0-3.2,0-4.8c0-2.8,0-5.7,0-8.5c0-1.3,0.5-1.8,1.8-1.9c0.4,0,0.8,0,1.2,0c0.4,0,0.6-0.1,0.6-0.5c0-0.6,0-1.2,0-1.8
	c0-0.9,0.6-1.6,1.4-1.6c0.8-0.1,1.5,0.6,1.6,1.5c0,0.6,0.1,1.2,0,1.8c0,0.6,0.2,0.7,0.7,0.7c0.4,0,0.8,0,1.2,0
	c0.7,0.1,1.2,0.5,1.3,1.3c0,0.2,0,0.5,0,0.8c0,4.2,0,8.5,0,12.7c0,0.3,0,0.5,0,0.8c-0.1,0.7-0.6,1.2-1.3,1.2c-0.5,0.1-1,0.1-1.5,0
	c-0.4,0-0.5,0.1-0.5,0.5c0,0.8,0,1.6,0,2.4c0,1-0.6,1.6-1.5,1.6c-0.8,0-1.5-0.6-1.5-1.4C34.6,53.3,34.6,52.8,34.6,52.3
	C34.6,52.3,34.6,52.3,34.6,52.3z M37.9,42.2c0-1.6,0-3.3,0-4.9c0-0.4-0.1-0.6-0.5-0.5c-0.9,0-1.8,0-2.7,0c-0.4,0-0.5,0.1-0.5,0.5
	c0,3.3,0,6.6,0,9.9c0,0.4,0.2,0.5,0.6,0.5c0.9,0,1.7,0,2.6,0c0.5,0,0.6-0.2,0.6-0.6C37.9,45.4,37.9,43.8,37.9,42.2z"/>
<path class="st0" d="M60.3,31.4c0,2.4,0,4.9,0,7.3c0,1.3-0.5,1.9-1.7,2C57,40.8,57,40.8,57,42.5c0,0.6,0,1.3-0.1,1.9
	c-0.1,0.9-0.7,1.4-1.7,1.3c-0.7-0.1-1.2-0.8-1.3-1.6c0-0.9,0-1.9,0-2.8c0-0.4-0.1-0.6-0.5-0.6c-0.6,0-1.2,0-1.8-0.1
	c-0.7-0.1-1.2-0.8-1.2-1.5c0-5.1,0-10.3,0-15.4c0-0.8,0.5-1.4,1.3-1.5c0.5-0.1,1.1-0.1,1.6-0.1c0.5,0,0.7-0.1,0.7-0.7
	c0-0.7,0-1.3,0-2c0-0.9,0.6-1.6,1.4-1.6c0.7-0.1,1.4,0.5,1.5,1.3c0.1,0.8,0.1,1.6,0.1,2.3c0,0.5,0.2,0.7,0.6,0.7c0.4,0,0.8,0,1.2,0
	c0.9,0.1,1.4,0.7,1.4,1.7C60.3,26.4,60.3,28.9,60.3,31.4z M57.3,31.4c0-1.8,0-3.6,0-5.4c0-0.5-0.1-0.7-0.6-0.6c-0.9,0-1.8,0-2.7,0
	c-0.4,0-0.5,0.2-0.5,0.6c0,3.6,0,7.2,0,10.9c0,0.4,0.2,0.6,0.5,0.6c0.9,0,1.7,0,2.6,0c0.6,0,0.7-0.2,0.7-0.8
	C57.3,34.9,57.3,33.2,57.3,31.4z"/>
</svg>
