<svg xmlns="http://www.w3.org/2000/svg" version="1.1" xmlns:xlink="http://www.w3.org/1999/xlink" xmlns:svgjs="http://svgjs.com/svgjs" width="512" height="512" x="0" y="0" viewBox="0 0 512 512" style="enable-background:new 0 0 512 512" xml:space="preserve" class=""><g><g xmlns="http://www.w3.org/2000/svg"><path d="m512 256c0 141.38-114.62 256-256 256-28.86 0-56.6-4.78-82.48-13.58-4.09-1.39 11.981-45.705 7.981-47.305-4.45-1.77 4.32 2.01 0 0-49.01-22.77-68.418-42.165-94.648-89.115-3.1-5.54-6-11.21-8.69-17-2.01-4.31-3.89-8.68-5.65-13.12-.11-.27.1.27 0 0-1.49-3.73-57.633 10.421-58.933 6.601-8.8-25.881-13.58-53.621-13.58-82.481 0-141.38 114.62-256 256-256 28.86 0 56.6 4.78 82.48 13.58 4.09 1.39 8.13 2.88 12.13 4.48 1.68.67 3.35 1.35 5.01 2.06 2.74 1.15 5.45 2.36 8.14 3.61 11.64 5.41 22.81 11.67 33.42 18.7 39.34 26.05 71.07 62.69 91.11 105.85 2.01 4.31 3.89 8.68 5.65 13.12 1.6 3.99 3.09 8.03 4.48 12.12 8.8 25.88 13.58 53.62 13.58 82.48z" fill="#01d0fb" data-original="#01d0fb" class=""></path><path d="m256 475.619c-12.162 0-21.549-8.611-29.831-16.208-4.842-4.442-10.331-9.476-14.234-10.364-4.242-.963-11.28 1.152-18.087 3.198-10.573 3.178-22.556 6.78-33.167 1.661-10.782-5.201-15.46-16.938-19.587-27.293-2.592-6.503-5.273-13.228-8.526-15.826-3.296-2.632-10.484-3.763-17.435-4.857-10.973-1.728-23.41-3.685-30.836-12.986-7.393-9.258-6.551-21.786-5.809-32.839.474-7.051.964-14.342-.894-18.192-1.779-3.688-7.695-7.77-13.417-11.718-9.216-6.359-19.662-13.566-22.336-25.331-2.586-11.378 3.559-22.19 8.98-31.729 3.544-6.237 7.21-12.686 7.21-17.135s-3.666-10.898-7.21-17.135c-5.421-9.539-11.566-20.351-8.98-31.729 2.674-11.765 13.12-18.972 22.335-25.331 5.722-3.948 11.638-8.03 13.417-11.717 1.857-3.85 1.368-11.141.894-18.192-.743-11.053-1.584-23.58 5.808-32.839 7.426-9.3 19.863-11.258 30.836-12.986 6.951-1.094 14.139-2.226 17.435-4.858 3.253-2.598 5.934-9.323 8.526-15.826 4.127-10.355 8.806-22.092 19.587-27.293 10.611-5.119 22.595-1.517 33.168 1.661 6.808 2.046 13.845 4.161 18.087 3.198 3.903-.887 9.392-5.922 14.234-10.364 8.282-7.597 17.669-16.208 29.831-16.208 12.163 0 21.55 8.611 29.831 16.208 4.843 4.442 10.33 9.476 14.234 10.363 4.244.965 11.281-1.152 18.086-3.198 10.574-3.178 22.559-6.779 33.167-1.661 10.782 5.201 15.46 16.938 19.588 27.293 2.593 6.504 5.273 13.229 8.527 15.827 3.296 2.632 10.483 3.763 17.435 4.858 10.973 1.728 23.41 3.685 30.836 12.986 7.393 9.258 6.551 21.786 5.809 32.839-.474 7.051-.964 14.342.894 18.191 1.779 3.688 7.695 7.77 13.417 11.718 9.216 6.359 19.661 13.566 22.335 25.331 2.587 11.378-3.559 22.19-8.979 31.729-3.545 6.237-7.21 12.686-7.21 17.135s3.665 10.898 7.21 17.135c5.421 9.539 11.566 20.351 8.979 31.729-2.674 11.765-13.119 18.972-22.336 25.331-5.721 3.948-11.637 8.03-13.416 11.718-1.857 3.849-1.367 11.14-.894 18.19.743 11.053 1.585 23.581-5.809 32.84-7.426 9.3-19.862 11.258-30.836 12.986-6.95 1.094-14.139 2.226-17.434 4.857-3.254 2.598-5.935 9.323-8.527 15.827-4.128 10.355-8.806 22.092-19.588 27.293-10.609 5.119-22.594 1.517-33.167-1.661-6.808-2.046-13.848-4.162-18.087-3.198-3.904.887-9.392 5.922-14.234 10.363-8.28 7.598-17.667 16.209-29.83 16.209zm-46.485-46.814c2.292 0 4.579.222 6.853.739 9.08 2.064 16.319 8.705 23.321 15.128 5.593 5.131 11.933 10.947 16.312 10.947s10.719-5.816 16.312-10.947c7.002-6.423 14.241-13.064 23.32-15.128 9.383-2.134 18.988.754 28.277 3.547 7.084 2.129 15.114 4.542 18.72 2.801 3.774-1.821 6.923-9.718 9.7-16.686 3.556-8.922 7.233-18.147 14.625-24.05 7.435-5.936 17.281-7.486 26.804-8.986 7.377-1.161 15.737-2.478 18.317-5.708 2.546-3.189 1.981-11.599 1.482-19.02-.647-9.642-1.317-19.613 2.835-28.221 4.079-8.454 12.209-14.064 20.072-19.489 6.208-4.284 13.245-9.139 14.191-13.302.866-3.81-3.241-11.037-6.865-17.413-4.829-8.496-9.822-17.282-9.822-27.017s4.993-18.521 9.822-27.017c3.624-6.376 7.731-13.604 6.865-17.414-.946-4.163-7.983-9.019-14.191-13.302-7.863-5.425-15.993-11.035-20.072-19.489-4.153-8.609-3.483-18.58-2.835-28.223.499-7.42 1.063-15.83-1.482-19.018-2.58-3.231-10.94-4.547-18.317-5.709-9.522-1.499-19.37-3.049-26.804-8.985-7.393-5.902-11.069-15.128-14.626-24.05-2.777-6.967-5.926-14.865-9.699-16.685-3.611-1.741-11.638.672-18.72 2.801-9.29 2.792-18.896 5.678-28.277 3.547-9.079-2.064-16.318-8.705-23.32-15.128-5.593-5.131-11.933-10.947-16.312-10.947-4.378 0-10.718 5.815-16.312 10.947-7.001 6.423-14.241 13.064-23.321 15.128-9.383 2.133-18.988-.755-28.277-3.547-7.084-2.129-15.113-4.542-18.72-2.801-3.774 1.821-6.922 9.718-9.7 16.686-3.556 8.922-7.233 18.147-14.625 24.049-7.434 5.936-17.281 7.487-26.804 8.986-7.377 1.161-15.738 2.478-18.318 5.708-2.546 3.188-1.98 11.598-1.482 19.018.647 9.643 1.318 19.614-2.835 28.223-4.079 8.453-12.209 14.063-20.072 19.489-6.208 4.284-13.245 9.139-14.191 13.302-.866 3.81 3.241 11.037 6.865 17.413 4.829 8.496 9.822 17.282 9.822 27.017s-4.993 18.521-9.822 27.017c-3.624 6.376-7.731 13.604-6.865 17.414.946 4.163 7.983 9.019 14.191 13.302 7.863 5.425 15.993 11.035 20.071 19.489 4.153 8.609 3.483 18.58 2.835 28.223-.499 7.42-1.063 15.83 1.482 19.019 2.58 3.231 10.941 4.547 18.318 5.708 9.522 1.499 19.37 3.049 26.804 8.985 7.392 5.902 11.069 15.128 14.625 24.05 2.777 6.968 5.925 14.865 9.7 16.686 3.61 1.741 11.637-.672 18.719-2.801 7.039-2.115 14.26-4.286 21.426-4.286z" fill="#f9f7f8" data-original="#f9f7f8" class=""></path><g><path d="m493.94 161.4c-1.48 2.21-3.2 4.31-5.15 6.26l-321.13 321.13c-1.96 1.96 2.21-1.47 0 0-4.45-1.77-15.1 1.49-19.42-.52-54.8-25.46-99.08-69.75-124.53-124.55-2.01-4.31 1.26-14.94-.5-19.38 1.48-2.21-1.95 1.95 0 0l321.13-321.13c1.96-1.96 4.06-3.68 6.27-5.15 16.18-10.87 38.31-9.15 52.61 5.15l85.57 85.57c14.31 14.31 16.03 36.43 5.15 52.62z" fill="#f9f7f8" data-original="#f9f7f8" class=""></path><path d="m418.19 53.76c-5.98-5.98-13.31-9.75-21.01-11.33-10.74-2.21-22.18-.15-31.6 6.18-2.21 1.47-4.31 3.19-6.27 5.15l-321.13 321.13c-.39.39-2.56 2.58-5.78 5.83-3.1-5.54-6-11.21-8.69-17-2.01-4.31-3.89-8.68-5.65-13.12-.11-.27-.21-.53-.31-.8l318.8-318.8c1.96-1.96 4.06-3.68 6.27-5.15 3.98-2.67 8.31-4.58 12.8-5.73 13.78-3.54 29.02.09 39.81 10.88z" fill="#dedbee" data-original="#dedbee"></path><g fill="#fe646f"><path d="m126.372 320.485c-4.768-4.676-12.436-4.602-17.1.165-4.677 4.768-4.603 12.424.165 17.1l38.572 37.832-72.732-13.312c-5.206-.953-10.427 1.59-12.884 6.276-2.459 4.686-1.585 10.427 2.157 14.169l64.857 64.857c4.722 4.722 12.379 4.722 17.101 0s4.722-12.379 0-17.101l-37.429-37.429 69.206 12.667c6.102 1.108 11.802-1.531 14.522-6.723 2.774-5.295 1.614-11.669-2.955-16.238-.028-.028-.055-.055-.083-.082z" fill="#fe646f" data-original="#fe646f"></path><path d="m283.939 181.136c4.722-4.722 4.722-12.379 0-17.101s-12.379-4.722-17.101 0l-26.143 26.143c-4.722 4.722-4.722 12.379 0 17.101l64.503 64.503c4.722 4.722 12.379 4.722 17.101 0s4.722-12.379 0-17.101l-24.312-24.312 15.516-15.516c4.722-4.722 4.722-12.379 0-17.101s-12.379-4.722-17.101 0l-15.516 15.516-14.54-14.54z" fill="#fe646f" data-original="#fe646f"></path><path d="m332.414 132.896c4.722-4.722 4.722-12.379 0-17.101s-12.379-4.722-17.101 0l-27.13 27.13c-4.722 4.722-4.722 12.379 0 17.101l64.386 64.386c4.722 4.722 12.379 4.722 17.101 0l27.13-27.13c4.722-4.722 4.722-12.379 0-17.101s-12.379-4.722-17.101 0l-18.579 18.579-15.092-15.092 16.579-16.579c4.722-4.722 4.722-12.379 0-17.101s-12.379-4.722-17.101 0l-16.579 16.579-15.092-15.092z" fill="#fe646f" data-original="#fe646f"></path><path d="m430.471 129.408-18.579 18.579-15.092-15.092 16.579-16.579c4.722-4.722 4.722-12.379 0-17.101s-12.379-4.722-17.101 0l-16.579 16.579-15.092-15.092 18.579-18.579c4.722-4.722 4.722-12.379 0-17.101s-12.379-4.722-17.101 0l-27.129 27.129c-4.722 4.722-4.722 12.379 0 17.101l64.386 64.386c4.722 4.722 12.379 4.722 17.101 0l27.129-27.129c4.722-4.722 4.722-12.379 0-17.101s-12.379-4.722-17.101 0z" fill="#fe646f" data-original="#fe646f"></path><path d="m164.022 265.9c-22.63 22.63-22.629 59.45 0 82.08s59.45 22.63 82.08 0 22.629-59.45 0-82.079-59.451-22.631-82.08-.001zm64.979 64.979c-13.2 13.2-34.678 13.2-47.878 0s-13.2-34.678 0-47.878 34.678-13.2 47.878 0 13.2 34.678 0 47.878z" fill="#fe646f" data-original="#fe646f"></path></g><path d="m496.58 100.99-85.57-85.57c-9.94-9.94-23.16-15.42-37.23-15.42-13.17 0-25.6 4.81-35.3 13.58-.66.6-1.3 1.21-1.93 1.84l-321.13 321.13c-.63.63-1.24 1.28-1.84 1.93 2.94 8.63 6.32 17.05 10.13 25.24 1.5-4.32 3.96-8.27 7.29-11.59l321.13-321.13c3.39-3.39 7.38-5.82 11.63-7.27 10.73-3.71 23.12-1.28 31.67 7.27l85.57 85.57c5.79 5.78 8.97 13.47 8.97 21.65 0 3.48-.57 6.87-1.68 10.06-1.5 4.32-3.96 8.27-7.29 11.59l-321.13 321.13c-3.39 3.39-7.38 5.82-11.63 7.27 8.2 3.82 16.64 7.21 25.28 10.15.65-.59 1.3-1.21 1.93-1.84l321.13-321.13c.63-.63 1.24-1.28 1.84-1.93 18.67-20.64 18.06-52.63-1.84-72.53z" fill="#fe646f" data-original="#fe646f"></path><g fill="#fd4755"><path d="m22.076 346.976c.6-.65 1.21-1.3 1.84-1.93l321.13-321.13c.63-.63 1.27-1.24 1.93-1.84 9.7-8.77 22.13-13.58 35.3-13.58 14.07 0 27.29 5.48 37.23 15.42l-8.496-8.496c-9.94-9.94-23.16-15.42-37.23-15.42-13.17 0-25.6 4.81-35.3 13.58-.66.6-1.3 1.21-1.93 1.84l-321.13 321.13c-.63.63-1.24 1.28-1.84 1.93 2.94 8.63 6.32 17.05 10.13 25.24.658-1.895 1.511-3.713 2.531-5.444-1.468-3.727-2.867-7.49-4.165-11.3z" fill="#fd4755" data-original="#fd4755"></path><path d="m168.366 489.496 321.13-321.13c3.33-3.32 5.79-7.27 7.29-11.59 1.11-3.19 1.68-6.58 1.68-10.06 0-8.18-3.18-15.87-8.97-21.65l-8.496-8.496c5.79 5.78 8.97 13.47 8.97 21.65 0 3.48-.57 6.87-1.68 10.06-1.5 4.32-3.96 8.27-7.29 11.59l-321.13 321.13c-3.39 3.39-7.38 5.82-11.63 7.27 4.579 2.133 9.24 4.117 13.962 5.979 2.2-1.289 4.277-2.867 6.164-4.753z" fill="#fd4755" data-original="#fd4755"></path></g></g></g></g></svg>