<?xml version="1.0" encoding="utf-8"?>
<!-- Generator: Adobe Illustrator 23.0.5, SVG Export Plug-In . SVG Version: 6.00 Build 0)  -->
<svg version="1.1" id="Layer_1" xmlns="http://www.w3.org/2000/svg" xmlns:xlink="http://www.w3.org/1999/xlink" x="0px" y="0px"
	 viewBox="0 0 100 60.9" style="enable-background:new 0 0 100 60.9;" xml:space="preserve">
<style type="text/css">
	.st0{fill:#F26622;}
	.st1{fill:#191746;}
	.st2{fill:#FFFFFF;}
</style>
<g>
	<path class="st0" d="M49.2,49.2c0-1.1,0-2.1,0-3.2c0-0.5-0.2-0.7-0.7-0.7c-1.9,0-1.6-0.1-1.6,1.5c0,0.7,0,1.5,0,2.2
		c0,0,0,0.1-0.1,0.1c-1.3,0-2.6,0-4,0c0-1.1,0-2.1,0-3.2c0-0.6-0.2-0.7-0.7-0.7c-1.4,0-2.7,0-4.1,0c0-1.4,0-2.8,0-4.3
		c0.6,0,1.1,0,1.6,0c0.8,0,1.2-0.4,1.2-1.2c0-5.9,0-11.9,0-17.8c0-0.8-0.4-1.2-1.3-1.2c-0.5,0-1,0-1.4,0c0,0-0.1,0-0.1-0.1
		c0-1.4,0-2.7,0-4.2c1.1,0,2.2,0,3.4,0c1.7,0,1.5,0.1,1.5-1.5c0-0.7,0-1.5,0-2.2c0,0,0-0.1,0.1-0.2c1.3,0,2.6,0,4,0c0,1,0,2,0,3
		c0,0.8,0,0.9,0.9,0.9c1.5,0,1.3,0.1,1.3-1.3c0-0.8,0-1.7,0-2.6c1.4,0,2.7,0,4.1,0c0,1.1,0,2.1,0,3.2c0,0.6,0.2,0.7,0.7,0.8
		c1.4,0.2,2.8,0.4,4.1,0.9c2.9,1,4.4,3.1,4.4,5.9c0,2.7-1.6,5.3-4.2,6.4c-0.1,0.1-0.3,0.1-0.5,0.2C58,30,58.2,30,58.3,30
		c2.7,0.7,4.7,2.2,5.3,5c0.6,3.1-0.3,5.8-2.9,7.8C59,44.2,57,44.7,55,45c-0.2,0-0.4,0.1-0.6,0.1c-1.1,0.2-1.1,0.2-1.1,1.3
		c0,0.9,0,1.8,0,2.7C51.9,49.2,50.6,49.2,49.2,49.2z M47,40.9c1.7,0,3.3,0.1,4.9,0c1.5-0.1,2.8-0.5,4-1.5c2-1.8,1.6-4.8-0.8-5.9
		c-0.5-0.3-1.1-0.5-1.7-0.6c-2.1-0.1-4.2-0.2-6.3-0.2c0,0-0.1,0-0.1,0.1C47,35.4,47,38.1,47,40.9z M47,28.4c1.3,0,2.5,0,3.7,0
		c0.4,0,0.7,0,1.1-0.1c0.7-0.1,1.4-0.3,2-0.6c1.6-0.7,2.4-2.1,2.3-3.7c-0.1-1.5-1.1-2.5-2.8-3c-2-0.6-4.1-0.3-6.2-0.3L47,20.8
		C47,23.4,47,25.9,47,28.4z"/>
	<path class="st1" d="M75,41.9C71.7,50,62.8,58,50.6,58.2C37.3,58.6,28.1,49.6,25,42c0.9,0,1.9,0,2.8,0c0.1,0,0.3,0.2,0.4,0.4
		c3.7,6.7,9.3,10.9,16.7,12.5c10.7,2.4,21.6-2.6,26.8-12.3c0.3-0.5,0.6-0.7,1.1-0.6C73.5,42,74.2,41.9,75,41.9z"/>
	<path class="st1" d="M25.1,19.7C28.3,12,36.7,4.2,48.6,3.6c13.1-0.7,22.7,7.7,26.3,16.1c-1,0-1.9,0-2.9,0c-0.1,0-0.2-0.2-0.3-0.4
		c-3.8-6.8-9.5-10.9-17.1-12.5C44.2,4.7,33.6,9.6,28.4,19c-0.3,0.5-0.6,0.8-1.2,0.7C26.5,19.6,25.8,19.7,25.1,19.7z"/>
	<path class="st1" d="M15.2,26.8c-2.2,0-4-1.8-3.9-4c0-2.2,1.8-3.9,4-3.9c2.1,0,3.9,1.8,3.9,3.9C19.2,25.1,17.4,26.8,15.2,26.8z
		 M13.3,22.9c0,1.2,0.8,2.1,2,2.1c1.1,0,2-0.9,2-2.1c0-1.2-0.8-2-1.9-2C14.1,20.9,13.3,21.7,13.3,22.9z"/>
	<path class="st0" d="M91.5,34.7c-2.1,0-4-1.8-4-3.9c0-2.1,1.8-4,3.9-4s4,1.8,4,4C95.4,32.9,93.6,34.7,91.5,34.7z M93.4,30.8
		c0-1.2-0.9-2.1-2-2c-1.1,0-1.9,0.9-1.9,2c0,1.2,0.8,2.1,2,2.1C92.6,32.8,93.4,32,93.4,30.8z"/>
	<path class="st0" d="M12.5,30.8c0,2.1-1.9,3.9-4,3.9s-3.9-1.9-3.9-4c0-2.2,1.8-4,4-3.9C10.7,26.9,12.5,28.7,12.5,30.8z M6.6,30.8
		c0,1.2,0.8,2,2,2c1.1,0,1.9-0.8,1.9-2s-0.8-2.1-2-2.1C7.4,28.7,6.6,29.6,6.6,30.8z"/>
	<path class="st1" d="M84.7,26.8c-2.2,0-4-1.8-4-3.9c0-2.1,1.8-3.9,3.9-3.9c2.2,0,4,1.8,4,3.9C88.7,25,86.9,26.8,84.7,26.8z
		 M82.8,22.9c0,1.2,0.9,2.1,2,2c1.1,0,1.9-0.9,1.9-2.1c0-1.2-0.8-2-2-2C83.6,20.9,82.8,21.7,82.8,22.9z"/>
	<path class="st1" d="M84.8,34.7c2.1,0.1,3.9,1.9,3.9,4c-0.1,2.2-1.9,4-4.1,3.9c-2.1-0.1-3.9-1.9-3.8-4
		C80.8,36.4,82.7,34.7,84.8,34.7z M86.7,38.7c0-1.2-0.8-2.1-1.9-2.1s-1.9,0.8-2,2c0,1.2,0.8,2.1,1.9,2.1
		C85.9,40.7,86.7,39.9,86.7,38.7z"/>
	<path class="st1" d="M15.3,34.7c2.2,0.1,3.9,1.9,3.9,4c-0.1,2.2-1.9,3.9-4.1,3.9c-2.1,0-3.9-1.9-3.8-4
		C11.4,36.4,13.2,34.7,15.3,34.7z M17.2,38.6c0-1.2-0.8-2.1-2-2.1c-1.1,0-1.9,0.9-1.9,2c0,1.2,0.8,2.1,1.9,2.1
		C16.4,40.7,17.2,39.9,17.2,38.6z"/>
	<path class="st1" d="M74.7,31.8c0-0.7,0-1.4,0-2.1c3.7,0,7.3,0,11,0c0,0.7,0,1.4,0,2.1C82,31.8,78.3,31.8,74.7,31.8z"/>
	<path class="st1" d="M14.4,31.8c0-0.7,0-1.4,0-2.1c3.6,0,7.3,0,11,0c0,0.7,0,1.4,0,2.1C21.6,31.8,18,31.8,14.4,31.8z"/>
	<path class="st1" d="M22.8,27.5c0.2-1.2,0.4-2.3,0.7-3.5c-0.8,0-1.5,0-2.3,0c0-0.7,0-1.4,0-2.2c1.9,0,3.9,0,5.9,0
		c-0.3,0.9-0.6,1.8-0.8,2.7c-0.2,0.8-0.3,1.7-0.5,2.5c0,0.1-0.2,0.4-0.3,0.4C24.5,27.5,23.7,27.5,22.8,27.5z"/>
	<path class="st1" d="M73,21.9c2,0,3.9,0,5.9,0c0,0.7,0,1.4,0,2.1c-0.8,0-1.5,0-2.4,0c0.2,1.2,0.4,2.3,0.7,3.5c-0.9,0-1.8,0-2.6,0
		c-0.1,0-0.2-0.2-0.2-0.3C73.9,25.5,73.5,23.7,73,21.9L73,21.9z"/>
	<path class="st1" d="M77.2,34.1c-0.2,1.2-0.4,2.2-0.6,3.4c0.8,0,1.5,0,2.3,0c0,0.7,0,1.4,0,2.2c-1.9,0-3.8,0-5.7,0
		c0.5-1.8,0.9-3.7,1.4-5.6C75.4,34.1,76.3,34.1,77.2,34.1z"/>
	<path class="st1" d="M23.4,37.6c-0.2-1.2-0.4-2.3-0.7-3.5c0.9,0,1.7,0,2.6,0c0.1,0,0.2,0.2,0.3,0.3c0.4,1.7,0.8,3.5,1.2,5.3
		c-1.8,0-3.8,0-5.7,0c0-0.7,0-1.4,0-2.1C21.8,37.6,22.6,37.6,23.4,37.6z"/>
	<path class="st2" d="M47,40.9c0-2.7,0-5.5,0-8.2l0.1-0.1c2.1,0.1,4.2,0.1,6.3,0.2c0.6,0,1.2,0.3,1.7,0.6c2.4,1.2,2.8,4.2,0.8,5.9
		c-1.1,1-2.5,1.4-4,1.5C50.3,40.9,48.7,40.9,47,40.9z"/>
	<path class="st2" d="M47,28.4c0-2.6,0-5,0-7.5l0.1-0.1c2.1,0,4.1-0.2,6.2,0.3c1.8,0.5,2.7,1.5,2.8,3c0.1,1.6-0.7,3-2.3,3.7
		c-0.6,0.3-1.3,0.4-2,0.6c-0.3,0.1-0.7,0.1-1.1,0.1C49.5,28.4,48.3,28.4,47,28.4z"/>
	<path class="st2" d="M13.3,22.9c0-1.2,0.8-2,2-2c1.1,0,1.9,0.8,1.9,2s-0.8,2.1-2,2.1C14.1,25,13.3,24.1,13.3,22.9z"/>
	<path class="st2" d="M93.4,30.8c0,1.2-0.8,2.1-2,2.1s-2-0.9-2-2.1c0-1.2,0.8-2,1.9-2C92.6,28.7,93.4,29.6,93.4,30.8z"/>
	<path class="st2" d="M6.6,30.8c0-1.2,0.8-2.1,2-2.1c1.1,0,2,0.9,2,2.1c0,1.2-0.8,2-1.9,2C7.4,32.8,6.6,32,6.6,30.8z"/>
	<path class="st2" d="M82.8,22.9c0-1.2,0.8-2,2-2c1.1,0,1.9,0.8,2,2c0,1.2-0.8,2.1-1.9,2.1C83.6,25,82.8,24.1,82.8,22.9z"/>
	<path class="st2" d="M86.7,38.7c0,1.2-0.8,2-2,2s-1.9-0.9-1.9-2.1c0-1.2,0.8-2,2-2C85.9,36.6,86.7,37.5,86.7,38.7z"/>
	<path class="st2" d="M17.2,38.6c0,1.2-0.8,2-2,2s-2-0.9-1.9-2.1c0-1.2,0.8-2,1.9-2C16.4,36.6,17.2,37.5,17.2,38.6z"/>
</g>
</svg>
