<?xml version="1.0" encoding="utf-8"?>
<!-- Generator: Adobe Illustrator 23.0.5, SVG Export Plug-In . SVG Version: 6.00 Build 0)  -->
<svg version="1.1" id="Layer_1" xmlns="http://www.w3.org/2000/svg" xmlns:xlink="http://www.w3.org/1999/xlink" x="0px" y="0px"
	 viewBox="0 0 100 100" style="enable-background:new 0 0 100 100;" xml:space="preserve">
<style type="text/css">
	.st0{fill:#191746;}
	.st1{fill:#F26622;}
</style>
<g>
	<g>
		<path class="st0" d="M33.5,51.4c0.7,0,1.5,0,2.3,0c0,1,0,1.8,0,2.8c-1.1,0-2.3,0-3.4,0c-0.9,0-1.7,0.2-2.4,0.8
			c-3,2.5-6.5,3.6-10.3,3.4c-0.2,0-0.4,0-0.5,0c0,0-0.1,0-0.2,0.1c0,0.2,0,0.5,0,0.8c0,10.4,0,20.7,0,31.1c0,1.5,0.4,2,2,2
			c19.4,0,38.8,0,58.3,0c1.6,0,2-0.4,2-2c0-10.4,0-20.7,0-31.1c0-0.3,0-0.5,0-0.8c-1.2-0.1-2.3-0.1-3.4-0.2
			c-3.1-0.4-5.8-1.6-8.1-3.6c-0.5-0.4-0.9-0.5-1.5-0.5c-1.3,0-2.6,0-3.9,0c0-1,0-1.8,0-2.8c0.8,0,1.5,0,2.4,0
			c-0.2-0.4-0.3-0.6-0.5-0.9c-5.5-9.7,0.8-22,11.9-23.1c8.7-0.9,16.4,5.5,17.1,14.2c0.6,7-3.7,13.7-10.4,16
			c-0.7,0.2-0.9,0.6-0.9,1.3c0,10.6,0,21.1,0,31.7c0,3-1.7,4.7-4.7,4.7c-19.5,0-39,0-58.6,0c-3,0-4.6-1.7-4.6-4.8
			c0-10.6,0-21.1,0-31.7c0-0.7-0.2-1-0.9-1.2C8.4,55.2,4.4,48.9,4.8,42.3c0.4-7.5,5.6-13.3,12.7-14.7c8.9-1.7,17.4,4.7,18.3,13.7
			c0.3,3.4-0.4,6.5-2,9.5c-0.1,0.1-0.1,0.3-0.2,0.4C33.5,51.2,33.5,51.3,33.5,51.4z M79.8,30.2c-7.1,0-12.8,5.6-12.8,12.7
			c0,6.9,5.7,12.7,12.6,12.7c7.1,0,12.8-5.6,12.9-12.7C92.5,36,86.8,30.2,79.8,30.2z M7.6,42.5c-0.4,6.6,5.1,12.7,11.9,13.1
			c7.1,0.5,13.1-4.9,13.6-12.1c0.4-6.7-5-12.9-11.7-13.3C13.9,29.8,8.1,35,7.6,42.5z"/>
		<path class="st0" d="M34.5,20.2c0-8.6,7-15.6,15.7-15.5c8.6,0.1,15.5,7.1,15.4,15.7c0,8.6-7,15.5-15.6,15.5
			C41.4,35.8,34.4,28.8,34.5,20.2z M50.1,7.6C43.2,7.5,37.4,13.2,37.3,20c-0.1,7.2,5.5,13,12.6,13.1c6.9,0.1,12.7-5.6,12.8-12.4
			C62.8,13.4,57.2,7.6,50.1,7.6z"/>
		<path class="st1" d="M47.1,38.7c0,5.2,0,10.3,0,15.5c-0.9,0-1.8,0-3,0c2,3,3.9,5.8,5.8,8.8c2-2.9,3.9-5.8,5.8-8.7c-1.1,0-2,0-3,0
			c0-5.2,0-10.3,0-15.5c0.9,0,1.8,0,2.8,0c0,4.2,0,8.4,0,12.6c1.8,0,3.6,0,5.5,0c-3.8,5.6-7.4,11.1-11.1,16.7
			c-3.7-5.6-7.4-11.1-11.1-16.7c1.9,0,3.6,0,5.5,0c0-4.3,0-8.4,0-12.7C45.3,38.7,46.2,38.7,47.1,38.7z"/>
		<path class="st0" d="M23.2,61.3c3.8,0,7.5,0,11.2,0c0,3.3,0,6.5,0,9.8c-3.7,0-7.4,0-11.2,0C23.2,67.9,23.2,64.6,23.2,61.3z
			 M26,64.2c0,1.4,0,2.8,0,4.1c1.9,0,3.7,0,5.5,0c0-1.4,0-2.7,0-4.1C29.7,64.2,27.9,64.2,26,64.2z"/>
		<path class="st0" d="M22.4,89.6c0-0.9,0-1.8,0-2.7c8.4,0,16.9,0,25.4,0c0,0.9,0,1.8,0,2.7C39.4,89.6,30.9,89.6,22.4,89.6z"/>
		<path class="st0" d="M48,82.5c0-0.1-0.1-0.2-0.1-0.2c-0.2-2.6-0.2-2.6,2.4-2.6c2.2,0,4.4,0,6.6,0c0.3,0,0.6,0,0.9,0
			c0,1,0,1.9,0,2.8C54.5,82.5,51.2,82.5,48,82.5z"/>
		<path class="st1" d="M48.6,74.1c0,0.9,0,1.8,0,2.7c-3.3,0-6.5,0-9.8,0c0-0.9,0-1.8,0-2.7C42,74.1,45.2,74.1,48.6,74.1z"/>
		<path class="st0" d="M61.3,74.1c0,0.9,0,1.8,0,2.7c-3.3,0-6.5,0-9.8,0c0-0.9,0-1.8,0-2.7C54.7,74.1,58,74.1,61.3,74.1z"/>
		<path class="st0" d="M26,74c1.6,0,3.1,0,4.6,0c1.5,0,3,0,4.5,0c0.6,0,0.8,0.2,0.7,0.8c0,0.7,0,1.3,0,2.1c-3.3,0-6.5,0-9.8,0
			C26,75.9,26,75,26,74z"/>
		<path class="st1" d="M74,74c0,1,0,1.8,0,2.8c-3.3,0-6.5,0-9.9,0c0-0.8,0-1.6,0-2.4c0-0.1,0.3-0.4,0.4-0.4C67.7,74,70.8,74,74,74z"
			/>
		<path class="st0" d="M81.1,51.4c-0.9,0-1.8,0-2.7,0c0-0.4-0.1-0.9-0.1-1.3c-1.1,0-2.2,0-3.4,0c0-1,0-1.9,0-2.9c1.7,0,3.4,0,5.1,0
			c0.2,0,0.5,0,0.7,0c0.7-0.1,1.2-0.7,1.2-1.4s-0.6-1.3-1.4-1.4c-0.5,0-0.9,0-1.4,0c-2.2,0-3.9-1.5-4.2-3.6c-0.3-2.1,0.8-4,2.9-4.7
			c0.5-0.2,0.6-0.4,0.6-0.8c0-0.2,0-0.5,0-0.8c0.5,0,1,0,1.4,0s0.9,0,1.4,0c0,0.5,0,0.9,0.1,1.4c1.2,0,2.3,0,3.5,0c0,1,0,1.9,0,2.9
			c-0.9,0-1.9,0-2.8,0s-1.8,0-2.7,0c-0.9,0-1.5,0.6-1.5,1.4c0,0.8,0.6,1.4,1.5,1.4c0.9,0.1,1.7,0,2.6,0.2c1.7,0.4,2.9,2,3,3.8
			s-0.9,3.5-2.6,4.2c-0.7,0.3-1.1,0.6-0.9,1.4C81.1,51.1,81.1,51.2,81.1,51.4z"/>
		<path class="st0" d="M18.2,44.3c0.9,0,1.8,0,2.7,0c0,1,0,1.8,0,2.8c-0.9,0-1.8,0-2.7,0c0.1,1,0.5,1.4,1.4,1.4s1.8,0,2.7,0
			c1,0,1.5-0.6,1.5-1.5c0-0.4,0-0.8,0-1.2c0.9,0,1.8,0,2.7,0c0.7,3.8-2,5.8-4.6,5.6c-0.7-0.1-1.5,0-2.2,0c-2.4,0-4.1-1.4-4.5-3.9
			c0-0.1,0-0.2-0.1-0.4c-0.4,0-0.8,0-1.3-0.1c0-0.9,0-1.8,0-2.8c0.4,0,0.8,0,1.3-0.1c0-0.9,0-1.8,0-2.8c-0.4,0-0.8,0-1.3-0.1
			c0-0.9,0-1.8,0-2.8c0.4,0,0.8,0,1.3-0.1c0.2-1.3,0.6-2.5,1.7-3.3c1.6-1.3,6.4-1.3,8-0.1s1.9,2.9,1.6,4.8c-0.9,0-1.8,0-2.8,0
			c0-0.4,0-0.9,0-1.3c0-0.9-0.6-1.4-1.4-1.4c-0.9,0-1.8,0-2.7,0c-0.8,0-1.2,0.4-1.5,1.4c0.5,0,0.9,0,1.4,0c0.4,0,0.9,0,1.4,0
			c0,1,0,1.8,0,2.8c-0.9,0-1.8,0-2.7,0C18.2,42.5,18.2,43.3,18.2,44.3z"/>
		<path class="st0" d="M51.5,28.7c-1,0-1.9,0-2.9,0c0-0.9,0-1.8,0-2.8c-1,0-1.8,0-2.8,0c0-1,0-1.9,0-2.9c0.9,0,1.8,0,2.7,0
			c0-1,0-1.8,0-2.8c-0.9,0-1.8,0-2.7,0c0-1,0-1.9,0-2.8c0.4,0,0.8,0,1.3-0.1c-1.1-1.5-2.2-3-3.3-4.5c0.8-0.6,1.5-1.1,2.3-1.7
			c1.3,1.7,2.6,3.5,4,5.3c1.3-1.8,2.6-3.5,4-5.2c0.8,0.6,1.5,1.1,2.3,1.7c-1.1,1.5-2.2,2.9-3.3,4.5c0.5,0,0.9,0.1,1.3,0.1
			c0,0.9,0,1.8,0,2.8c-0.9,0-1.8,0-2.7,0c0,1,0,1.9,0,2.8c0.9,0,1.8,0,2.7,0c0,1,0,1.9,0,2.9c-0.9,0-1.8,0-2.7,0
			C51.5,26.9,51.5,27.8,51.5,28.7z"/>
	</g>
</g>
</svg>
