<?xml version="1.0" encoding="utf-8"?>
<!-- Generator: Adobe Illustrator 26.0.1, SVG Export Plug-In . SVG Version: 6.00 Build 0)  -->
<svg version="1.1" id="Layer_1" xmlns:v="https://vecta.io/nano"
	 xmlns="http://www.w3.org/2000/svg" xmlns:xlink="http://www.w3.org/1999/xlink" x="0px" y="0px" viewBox="0 0 869.4 815.1"
	 style="enable-background:new 0 0 869.4 815.1;" xml:space="preserve">
<style type="text/css">
	.st0{fill:#C4C5C6;}
	.st1{fill:#FFFFFF;}
	.st2{fill:#6FCA7F;}
	.st3{fill:#FF5F26;}
	.st4{fill:#FC94B1;}
	.st5{fill:#EBC403;}
	.st6{fill:#36C5AB;}
	.st7{fill:#6B7085;}
	.st8{opacity:0.2;enable-background:new    ;}
	.st9{fill:#23B502;}
	.st10{fill:#6B7085;stroke:#6B7085;stroke-width:0.5;stroke-miterlimit:10;}
</style>
<g>
	<g>
		<g>
			<path class="st0" d="M807,777.4H341.2c-9.2,0-16.7-6.7-16.7-15v-70.7c0-8.3,7.5-15,16.7-15h466c9.2,0,16.7,6.7,16.7,15v70.7
				C823.8,770.7,816.2,777.4,807,777.4z"/>
		</g>
	</g>
</g>
<g>
	<g>
		<g>
			<path class="st0" d="M704.5,635H278.6c-8.4,0-15.3-6.8-15.3-15.2v-71.6c0-8.4,6.9-15.2,15.3-15.2h425.9c8.4,0,15.3,6.8,15.3,15.2
				v71.6C719.8,628.2,713,635,704.5,635z"/>
		</g>
	</g>
</g>
<g>
	<g>
		<g>
			<path class="st0" d="M681,488.9H57.6c-5.8,0-10.7-6.2-10.7-13.9v-73.2c0-7.7,4.7-13.9,10.7-13.9H681c5.8,0,10.7,6.2,10.7,13.9
				V475C691.8,482.6,687,488.9,681,488.9z"/>
		</g>
	</g>
</g>
<g>
	<g>
		<g>
			<path class="st0" d="M482.8,125h-439c-10.7,0-19.2-6.7-19.2-15V39c0-8.3,8.7-15,19.2-15h439c10.7,0,19.2,6.7,19.2,15v71
				C502,118.3,493.5,125,482.8,125z"/>
		</g>
	</g>
</g>
<g>
	<g>
		<g>
			<path class="st0" d="M721.2,299.5H268.8c-11.4,0-20.6-6.7-20.6-15v-71.1c0-8.3,9.3-15,20.6-15h452.5c11.4,0,20.6,6.7,20.6,15
				v71.1C741.8,292.8,732.6,299.5,721.2,299.5z"/>
		</g>
	</g>
</g>
<g>
	<g>
		<g>
			<path class="st1" d="M679.1,487.3H59.3c-5.8,0-10.6-6-10.6-13.4v-70.6c0-7.4,4.7-13.4,10.6-13.4h619.8c5.8,0,10.6,6,10.6,13.4
				v70.6C689.8,481.3,685,487.3,679.1,487.3z"/>
		</g>
	</g>
</g>
<g>
	<g>
		<g>
			<path class="st1" d="M481.2,123.3H44.9c-10.6,0-19.1-6.5-19.1-14.5V40.3c0-8,8.6-14.5,19.1-14.5h436.3c10.6,0,19.1,6.5,19.1,14.5
				v68.5C500.3,116.8,491.8,123.3,481.2,123.3z"/>
		</g>
	</g>
</g>
<g>
	<g>
		<g>
			<path class="st1" d="M720.3,297.7H270.5c-11.3,0-20.5-6.5-20.5-14.5v-68.5c0-8,9.2-14.5,20.5-14.5h449.8
				c11.3,0,20.5,6.5,20.5,14.5v68.5C740.8,291.2,731.6,297.7,720.3,297.7z"/>
		</g>
	</g>
</g>
<g>
	<g>
		<g>
			<path class="st1" d="M702.4,632.5h-422c-8.3,0-15.2-6.5-15.2-14.5v-68.5c0-8,6.8-14.5,15.2-14.5h422c8.3,0,15.2,6.5,15.2,14.5
				V618C717.6,626,710.8,632.5,702.4,632.5z"/>
		</g>
	</g>
</g>
<g>
	<g>
		<g>
			<path class="st1" d="M804.3,775.8h-461c-9.1,0-16.5-6.5-16.5-14.5v-68.5c0-8,7.4-14.5,16.5-14.5h461.2c9.1,0,16.5,6.5,16.5,14.5
				v68.5C820.9,769.3,813.4,775.8,804.3,775.8z"/>
		</g>
	</g>
</g>
<g>
	<path class="st2" d="M337.1,617h-44.3c-5.2,0-9.4-4.2-9.4-9.4v-44.3c0-5.2,4.2-9.4,9.4-9.4h44.3c5.2,0,9.4,4.2,9.4,9.4v44.3
		C346.5,612.8,342.3,617,337.1,617z"/>
</g>
<g>
	<path class="st3" d="M94.7,107.2H50.6c-5.1,0-9.3-4.2-9.3-9.3V53.8c0-5.1,4.2-9.3,9.3-9.3h44c5.2,0,9.3,4.2,9.3,9.3v44
		C104,103.1,99.8,107.2,94.7,107.2z"/>
</g>
<g>
	<path class="st4" d="M318.9,283h-44.3c-5.2,0-9.4-4.2-9.4-9.4v-44.3c0-5.2,4.2-9.4,9.4-9.4h44.3c5.2,0,9.4,4.2,9.4,9.4v44.3
		C328.3,278.8,324.1,283,318.9,283z"/>
</g>
<g>
	<path class="st5" d="M394,758.1h-43.7c-5.1,0-9.2-4.1-9.2-9.2v-43.7c0-5.1,4.1-9.2,9.2-9.2h43.6c5.1,0,9.2,4.1,9.2,9.2v43.6
		C403.2,754,399.1,758.1,394,758.1z"/>
</g>
<path class="st6" d="M116.3,468.6H72.6c-5.1,0-9.2-4.1-9.2-9.2v-43.7c0-5.1,4.1-9.2,9.2-9.2h43.7c5.1,0,9.3,4.1,9.3,9.2v43.7
	C125.5,464.5,121.4,468.6,116.3,468.6z"/>
<g>
	<path class="st7" d="M161.5,445.8c0,1.4-0.3,2.7-0.8,3.8c-0.5,1.1-1.3,2-2.2,2.7s-2,1.3-3.2,1.6c-1.2,0.3-2.5,0.5-3.9,0.5
		c-0.9,0-1.8-0.1-2.6-0.2c-0.8-0.2-1.5-0.3-2.1-0.6c-0.6-0.2-1.1-0.4-1.5-0.7c-0.4-0.2-0.7-0.4-0.9-0.6c-0.2-0.2-0.3-0.4-0.4-0.8
		c-0.1-0.3-0.1-0.8-0.1-1.5c0-0.4,0-0.8,0-1.1c0-0.3,0.1-0.5,0.1-0.7c0.1-0.2,0.1-0.3,0.3-0.4c0.1-0.1,0.2-0.1,0.4-0.1
		c0.2,0,0.5,0.1,0.8,0.3c0.4,0.2,0.8,0.5,1.4,0.8s1.2,0.5,2,0.8c0.8,0.2,1.7,0.3,2.7,0.3c0.7,0,1.3-0.1,1.8-0.2
		c0.5-0.2,1-0.4,1.4-0.7c0.4-0.3,0.7-0.7,0.9-1.1c0.2-0.4,0.3-0.9,0.3-1.4c0-0.6-0.2-1.1-0.5-1.6c-0.3-0.5-0.8-0.8-1.3-1.2
		c-0.5-0.3-1.2-0.7-1.8-1c-0.7-0.3-1.4-0.6-2.1-1c-0.7-0.3-1.4-0.7-2.1-1.1c-0.7-0.4-1.3-0.9-1.8-1.5s-1-1.3-1.3-2.1
		c-0.3-0.8-0.5-1.8-0.5-2.9c0-1.3,0.2-2.4,0.7-3.4s1.1-1.8,2-2.5c0.8-0.7,1.8-1.1,2.9-1.5c1.1-0.3,2.3-0.5,3.5-0.5
		c0.6,0,1.3,0,1.9,0.1s1.2,0.2,1.8,0.4c0.6,0.2,1.1,0.4,1.5,0.6s0.7,0.4,0.9,0.5c0.1,0.1,0.2,0.3,0.3,0.4c0,0.1,0.1,0.2,0.1,0.4
		c0,0.2,0.1,0.4,0.1,0.6s0,0.6,0,0.9c0,0.4,0,0.7,0,1s-0.1,0.5-0.1,0.7s-0.1,0.3-0.2,0.4s-0.2,0.1-0.4,0.1c-0.2,0-0.4-0.1-0.7-0.3
		c-0.3-0.2-0.7-0.4-1.2-0.6s-1.1-0.4-1.7-0.6c-0.6-0.2-1.4-0.3-2.1-0.3c-0.6,0-1.1,0.1-1.6,0.2c-0.4,0.1-0.8,0.3-1.1,0.6
		c-0.3,0.3-0.5,0.6-0.7,0.9c-0.1,0.4-0.2,0.8-0.2,1.2c0,0.6,0.2,1.1,0.5,1.6c0.3,0.4,0.8,0.8,1.3,1.2c0.6,0.3,1.2,0.7,1.9,1
		c0.7,0.3,1.4,0.6,2.1,1c0.7,0.3,1.4,0.7,2.1,1.1s1.3,0.9,1.9,1.5c0.5,0.6,1,1.3,1.3,2.1C161.4,443.8,161.5,444.7,161.5,445.8z"/>
	<path class="st7" d="M195.2,453.3c0,0.1,0,0.3-0.1,0.4s-0.2,0.2-0.4,0.3c-0.2,0.1-0.5,0.1-0.8,0.2c-0.3,0.1-0.8,0.1-1.3,0.1
		s-1,0-1.3-0.1c-0.3-0.1-0.6-0.1-0.8-0.2c-0.2-0.1-0.3-0.2-0.4-0.3c-0.1-0.1-0.1-0.2-0.1-0.4v-11.1c0-0.6-0.1-1.2-0.2-1.7
		s-0.3-1-0.5-1.3c-0.2-0.4-0.6-0.7-0.9-0.9c-0.4-0.2-0.8-0.3-1.3-0.3c-0.6,0-1.3,0.2-1.9,0.7c-0.6,0.5-1.3,1.2-2.1,2.1v12.5
		c0,0.1,0,0.3-0.1,0.4s-0.2,0.2-0.4,0.3c-0.2,0.1-0.5,0.1-0.8,0.2c-0.3,0.1-0.8,0.1-1.3,0.1s-0.9,0-1.3-0.1
		c-0.4-0.1-0.6-0.1-0.8-0.2c-0.2-0.1-0.3-0.2-0.4-0.3c-0.1-0.1-0.1-0.2-0.1-0.4v-11.1c0-0.6-0.1-1.2-0.2-1.7s-0.3-1-0.5-1.3
		c-0.2-0.4-0.5-0.7-0.9-0.9s-0.8-0.3-1.3-0.3c-0.6,0-1.3,0.2-1.9,0.7c-0.6,0.5-1.3,1.2-2.1,2.1v12.5c0,0.1,0,0.3-0.1,0.4
		s-0.2,0.2-0.4,0.3c-0.2,0.1-0.5,0.1-0.8,0.2c-0.3,0.1-0.8,0.1-1.3,0.1s-0.9,0-1.3-0.1c-0.4-0.1-0.6-0.1-0.8-0.2
		c-0.2-0.1-0.3-0.2-0.4-0.3c-0.1-0.1-0.1-0.2-0.1-0.4v-18.7c0-0.1,0-0.3,0.1-0.4s0.2-0.2,0.4-0.3c0.2-0.1,0.4-0.1,0.7-0.2
		c0.3,0,0.6-0.1,1.1-0.1c0.4,0,0.8,0,1.1,0.1c0.3,0,0.5,0.1,0.7,0.2c0.2,0.1,0.3,0.2,0.3,0.3c0.1,0.1,0.1,0.2,0.1,0.4v2.2
		c1-1.1,2.1-2,3.1-2.5c1-0.6,2.1-0.8,3.2-0.8c0.8,0,1.5,0.1,2.1,0.2c0.6,0.2,1.2,0.4,1.6,0.7c0.5,0.3,0.9,0.7,1.2,1.1
		c0.3,0.4,0.6,0.9,0.9,1.4c0.6-0.6,1.1-1.1,1.6-1.6c0.5-0.4,1.1-0.8,1.6-1.1c0.5-0.3,1-0.5,1.6-0.6c0.5-0.1,1.1-0.2,1.6-0.2
		c1.2,0,2.3,0.2,3.1,0.6c0.9,0.4,1.5,1,2.1,1.7c0.5,0.7,0.9,1.6,1.1,2.5c0.2,1,0.3,2,0.3,3.1v12L195.2,453.3L195.2,453.3z"/>
	<path class="st7" d="M216.4,453.3c0,0.2-0.1,0.3-0.2,0.5c-0.1,0.1-0.4,0.2-0.7,0.2c-0.3,0-0.7,0.1-1.3,0.1s-1.1,0-1.4-0.1
		c-0.3,0-0.5-0.1-0.6-0.2s-0.2-0.3-0.2-0.5v-1.5c-0.8,0.8-1.6,1.5-2.6,1.9c-1,0.5-2.1,0.7-3.3,0.7c-1,0-1.9-0.1-2.7-0.4
		c-0.8-0.3-1.6-0.6-2.2-1.2c-0.6-0.5-1.1-1.1-1.4-1.9s-0.5-1.6-0.5-2.6c0-1.1,0.2-2,0.6-2.8c0.4-0.8,1.1-1.5,1.9-2s1.9-0.9,3.2-1.2
		c1.3-0.3,2.7-0.4,4.4-0.4h1.8v-1c0-0.6-0.1-1.1-0.2-1.5c-0.1-0.4-0.3-0.8-0.6-1.1c-0.3-0.3-0.6-0.5-1.1-0.7c-0.5-0.1-1-0.2-1.7-0.2
		c-0.9,0-1.7,0.1-2.4,0.3c-0.7,0.2-1.3,0.4-1.8,0.7c-0.5,0.2-1,0.5-1.3,0.7c-0.4,0.2-0.6,0.3-0.9,0.3c-0.2,0-0.3,0-0.4-0.1
		c-0.1-0.1-0.2-0.2-0.3-0.4c-0.1-0.2-0.1-0.4-0.2-0.7c0-0.3-0.1-0.6-0.1-0.9c0-0.4,0-0.8,0.1-1c0.1-0.3,0.2-0.5,0.4-0.7
		c0.2-0.2,0.5-0.4,1-0.7c0.5-0.2,1.1-0.5,1.7-0.7c0.7-0.2,1.4-0.4,2.2-0.5c0.8-0.1,1.6-0.2,2.4-0.2c1.5,0,2.7,0.1,3.8,0.4
		c1,0.3,1.9,0.7,2.6,1.3c0.7,0.6,1.2,1.4,1.5,2.3c0.3,0.9,0.5,2.1,0.5,3.3V453.3L216.4,453.3z M211.2,445.3h-2
		c-0.9,0-1.6,0.1-2.2,0.2c-0.6,0.1-1.1,0.3-1.5,0.6s-0.7,0.6-0.8,0.9c-0.2,0.4-0.3,0.8-0.3,1.2c0,0.8,0.2,1.4,0.7,1.8
		s1.2,0.7,2.1,0.7c0.7,0,1.4-0.2,2-0.6s1.3-0.9,1.9-1.7L211.2,445.3L211.2,445.3z"/>
	<path class="st7" d="M233.7,436.3c0,0.5,0,0.9,0,1.2c0,0.3-0.1,0.6-0.1,0.8c-0.1,0.2-0.1,0.3-0.2,0.4c-0.1,0.1-0.2,0.1-0.3,0.1
		s-0.2,0-0.4-0.1c-0.1,0-0.3-0.1-0.5-0.2c-0.2-0.1-0.4-0.1-0.6-0.2c-0.2,0-0.4-0.1-0.7-0.1c-0.3,0-0.6,0.1-0.9,0.2s-0.6,0.3-0.9,0.6
		c-0.3,0.3-0.6,0.6-1,1c-0.3,0.4-0.7,0.9-1.1,1.6v11.7c0,0.1,0,0.3-0.1,0.4s-0.2,0.2-0.4,0.3c-0.2,0.1-0.5,0.1-0.8,0.2
		c-0.3,0.1-0.8,0.1-1.3,0.1s-0.9,0-1.3-0.1c-0.4-0.1-0.6-0.1-0.8-0.2c-0.2-0.1-0.3-0.2-0.4-0.3c-0.1-0.1-0.1-0.2-0.1-0.4v-18.7
		c0-0.1,0-0.3,0.1-0.4s0.2-0.2,0.4-0.3c0.2-0.1,0.4-0.1,0.7-0.2c0.3,0,0.6-0.1,1.1-0.1c0.4,0,0.8,0,1.1,0.1c0.3,0,0.5,0.1,0.7,0.2
		c0.2,0.1,0.3,0.2,0.3,0.3c0.1,0.1,0.1,0.2,0.1,0.4v2.3c0.5-0.7,1-1.3,1.4-1.7c0.4-0.5,0.8-0.8,1.2-1.1c0.4-0.3,0.8-0.5,1.2-0.6
		s0.8-0.2,1.2-0.2c0.2,0,0.4,0,0.6,0s0.4,0.1,0.7,0.1c0.2,0,0.4,0.1,0.6,0.2s0.3,0.1,0.4,0.2c0.1,0.1,0.1,0.1,0.2,0.2
		c0,0.1,0.1,0.2,0.1,0.3c0,0.1,0,0.4,0.1,0.7C233.7,435.4,233.7,435.8,233.7,436.3z"/>
	<path class="st7" d="M248,451.4c0,0.6,0,1.1-0.1,1.4s-0.2,0.6-0.3,0.7s-0.3,0.3-0.6,0.4c-0.2,0.1-0.5,0.2-0.9,0.3
		c-0.3,0.1-0.7,0.1-1.1,0.2c-0.4,0-0.8,0.1-1.2,0.1c-1,0-2-0.1-2.7-0.4c-0.8-0.3-1.4-0.7-1.9-1.2s-0.9-1.2-1.1-2.1
		c-0.2-0.8-0.4-1.8-0.4-3v-9.6h-2.1c-0.3,0-0.5-0.2-0.6-0.5s-0.2-0.9-0.2-1.6c0-0.4,0-0.7,0.1-1c0-0.3,0.1-0.5,0.2-0.7
		c0.1-0.2,0.2-0.3,0.3-0.3c0.1-0.1,0.2-0.1,0.4-0.1h2.2v-4.2c0-0.1,0-0.3,0.1-0.4s0.2-0.2,0.4-0.3c0.2-0.1,0.5-0.1,0.8-0.2
		c0.3,0,0.8-0.1,1.3-0.1s0.9,0,1.3,0.1c0.3,0,0.6,0.1,0.8,0.2c0.2,0.1,0.3,0.2,0.4,0.3c0.1,0.1,0.1,0.2,0.1,0.4v4.2h4.1
		c0.1,0,0.3,0,0.4,0.1c0.1,0.1,0.2,0.2,0.3,0.3c0.1,0.2,0.1,0.4,0.2,0.7c0,0.3,0.1,0.6,0.1,1c0,0.8-0.1,1.3-0.2,1.6
		c-0.1,0.3-0.3,0.5-0.6,0.5h-4.1v8.8c0,1,0.2,1.8,0.5,2.3c0.3,0.5,0.9,0.8,1.7,0.8c0.3,0,0.5,0,0.8-0.1c0.2,0,0.4-0.1,0.6-0.2
		s0.3-0.1,0.4-0.2c0.1,0,0.2-0.1,0.3-0.1s0.2,0,0.2,0.1c0.1,0,0.1,0.1,0.2,0.3c0.1,0.2,0.1,0.3,0.1,0.6C248,450.7,248,451,248,451.4
		z"/>
	<path class="st7" d="M275.7,450.3c0,0.4,0,0.7,0,0.9c0,0.2,0,0.5-0.1,0.6c0,0.2-0.1,0.3-0.1,0.4s-0.2,0.2-0.3,0.4
		c-0.2,0.2-0.5,0.4-0.9,0.6s-0.9,0.4-1.4,0.6s-1.1,0.3-1.7,0.4s-1.2,0.2-1.9,0.2c-1.4,0-2.7-0.2-3.8-0.7c-1.1-0.4-2-1.1-2.8-2
		s-1.3-1.9-1.7-3.2c-0.4-1.3-0.6-2.7-0.6-4.3c0-1.9,0.2-3.5,0.7-4.9s1.1-2.5,2-3.4c0.8-0.9,1.8-1.6,3-2c1.1-0.4,2.4-0.7,3.8-0.7
		c0.6,0,1.1,0,1.6,0.1s1,0.2,1.5,0.4c0.5,0.2,0.9,0.4,1.3,0.6s0.6,0.4,0.8,0.5c0.2,0.2,0.3,0.3,0.3,0.4c0.1,0.1,0.1,0.2,0.1,0.4
		c0,0.2,0.1,0.4,0.1,0.6s0,0.5,0,0.9c0,0.8-0.1,1.4-0.2,1.7c-0.1,0.3-0.3,0.5-0.5,0.5s-0.5-0.1-0.8-0.3c-0.3-0.2-0.6-0.4-0.9-0.7
		c-0.4-0.2-0.8-0.5-1.3-0.7s-1.1-0.3-1.8-0.3c-1.4,0-2.4,0.5-3.1,1.6s-1.1,2.6-1.1,4.7c0,1,0.1,1.9,0.3,2.7c0.2,0.8,0.5,1.4,0.8,1.9
		c0.4,0.5,0.8,0.9,1.3,1.2c0.5,0.3,1.2,0.4,1.9,0.4c0.7,0,1.4-0.1,1.9-0.3c0.5-0.2,1-0.5,1.4-0.7c0.4-0.3,0.7-0.5,1-0.7
		s0.5-0.3,0.7-0.3c0.1,0,0.2,0,0.3,0.1s0.2,0.2,0.2,0.4c0,0.2,0.1,0.4,0.1,0.7C275.7,449.4,275.7,449.8,275.7,450.3z"/>
	<path class="st7" d="M298.3,443.7c0,1.6-0.2,3.1-0.6,4.4s-1.1,2.5-1.9,3.4c-0.9,1-1.9,1.7-3.2,2.2s-2.8,0.8-4.5,0.8
		s-3.1-0.2-4.3-0.7c-1.2-0.5-2.3-1.1-3.1-2c-0.8-0.9-1.4-2-1.8-3.3s-0.6-2.8-0.6-4.4s0.2-3.1,0.6-4.4s1.1-2.5,1.9-3.4
		s1.9-1.7,3.2-2.2c1.3-0.5,2.8-0.8,4.5-0.8s3.1,0.2,4.4,0.7c1.2,0.5,2.2,1.1,3.1,2c0.8,0.9,1.4,2,1.8,3.3
		C298.1,440.6,298.3,442,298.3,443.7z M292.8,443.9c0-0.9-0.1-1.8-0.2-2.6c-0.1-0.8-0.4-1.5-0.7-2c-0.3-0.6-0.8-1-1.4-1.3
		s-1.3-0.5-2.2-0.5c-0.8,0-1.5,0.1-2.1,0.4s-1.1,0.7-1.4,1.3c-0.4,0.6-0.7,1.2-0.9,2c-0.2,0.8-0.3,1.7-0.3,2.7
		c0,0.9,0.1,1.8,0.2,2.6s0.4,1.5,0.7,2c0.3,0.6,0.8,1,1.4,1.3s1.3,0.5,2.2,0.5c0.8,0,1.5-0.1,2.1-0.4s1.1-0.7,1.4-1.2
		c0.4-0.5,0.7-1.2,0.8-2S292.8,444.9,292.8,443.9z"/>
	<path class="st7" d="M320.3,453.3c0,0.1,0,0.3-0.1,0.4s-0.2,0.2-0.4,0.3c-0.2,0.1-0.5,0.1-0.8,0.2s-0.8,0.1-1.3,0.1s-0.9,0-1.3-0.1
		s-0.6-0.1-0.8-0.2c-0.2-0.1-0.3-0.2-0.4-0.3s-0.1-0.2-0.1-0.4v-10.7c0-0.9-0.1-1.6-0.2-2.1s-0.3-1-0.6-1.3s-0.6-0.7-1-0.9
		c-0.4-0.2-0.9-0.3-1.4-0.3c-0.7,0-1.4,0.2-2,0.7c-0.7,0.5-1.4,1.2-2.1,2.1v12.5c0,0.1,0,0.3-0.1,0.4s-0.2,0.2-0.4,0.3
		c-0.2,0.1-0.5,0.1-0.8,0.2s-0.8,0.1-1.3,0.1s-0.9,0-1.3-0.1s-0.6-0.1-0.8-0.2c-0.2-0.1-0.3-0.2-0.4-0.3s-0.1-0.2-0.1-0.4v-18.7
		c0-0.1,0-0.3,0.1-0.4s0.2-0.2,0.4-0.3c0.2-0.1,0.4-0.1,0.7-0.2c0.3,0,0.6-0.1,1.1-0.1c0.4,0,0.8,0,1.1,0.1c0.3,0,0.5,0.1,0.7,0.2
		s0.3,0.2,0.3,0.3c0.1,0.1,0.1,0.2,0.1,0.4v2.2c1-1.1,2.1-2,3.2-2.5c1.1-0.6,2.2-0.8,3.3-0.8c1.3,0,2.3,0.2,3.2,0.6
		c0.9,0.4,1.6,1,2.1,1.7s0.9,1.6,1.2,2.5c0.2,1,0.4,2.1,0.4,3.5v11.5L320.3,453.3L320.3,453.3z"/>
	<path class="st7" d="M336.2,451.4c0,0.6,0,1.1-0.1,1.4s-0.2,0.6-0.3,0.7s-0.3,0.3-0.6,0.4s-0.5,0.2-0.9,0.3
		c-0.3,0.1-0.7,0.1-1.1,0.2s-0.8,0.1-1.2,0.1c-1,0-2-0.1-2.7-0.4s-1.4-0.7-1.9-1.2s-0.9-1.2-1.1-2.1s-0.4-1.8-0.4-3v-9.6h-2.2
		c-0.3,0-0.5-0.2-0.6-0.5s-0.2-0.9-0.2-1.6c0-0.4,0-0.7,0.1-1c0-0.3,0.1-0.5,0.2-0.7s0.2-0.3,0.3-0.3c0.1-0.1,0.2-0.1,0.4-0.1h2.2
		v-4.2c0-0.1,0-0.3,0.1-0.4s0.2-0.2,0.4-0.3c0.2-0.1,0.5-0.1,0.8-0.2c0.3,0,0.8-0.1,1.3-0.1s0.9,0,1.3,0.1c0.3,0,0.6,0.1,0.8,0.2
		c0.2,0.1,0.3,0.2,0.4,0.3s0.1,0.2,0.1,0.4v4.2h4.1c0.1,0,0.3,0,0.4,0.1s0.2,0.2,0.3,0.3c0.1,0.2,0.1,0.4,0.2,0.7
		c0,0.3,0.1,0.6,0.1,1c0,0.8-0.1,1.3-0.2,1.6c-0.1,0.3-0.3,0.5-0.6,0.5h-4.1v8.8c0,1,0.2,1.8,0.5,2.3s0.9,0.8,1.7,0.8
		c0.3,0,0.5,0,0.8-0.1c0.2,0,0.4-0.1,0.6-0.2s0.3-0.1,0.4-0.2c0.1,0,0.2-0.1,0.3-0.1c0.1,0,0.2,0,0.2,0.1c0.1,0,0.1,0.1,0.2,0.3
		s0.1,0.3,0.1,0.6S336.2,451,336.2,451.4z"/>
	<path class="st7" d="M352.1,436.3c0,0.5,0,0.9,0,1.2c0,0.3-0.1,0.6-0.1,0.8c-0.1,0.2-0.1,0.3-0.2,0.4s-0.2,0.1-0.3,0.1
		c-0.1,0-0.2,0-0.4-0.1s-0.3-0.1-0.5-0.2s-0.4-0.1-0.6-0.2c-0.2,0-0.4-0.1-0.7-0.1c-0.3,0-0.6,0.1-0.9,0.2s-0.6,0.3-0.9,0.6
		c-0.3,0.3-0.6,0.6-1,1c-0.3,0.4-0.7,0.9-1.1,1.6v11.7c0,0.1,0,0.3-0.1,0.4s-0.2,0.2-0.4,0.3c-0.2,0.1-0.5,0.1-0.8,0.2
		s-0.8,0.1-1.3,0.1s-0.9,0-1.3-0.1s-0.6-0.1-0.8-0.2c-0.2-0.1-0.3-0.2-0.4-0.3s-0.1-0.2-0.1-0.4v-18.7c0-0.1,0-0.3,0.1-0.4
		s0.2-0.2,0.4-0.3c0.2-0.1,0.4-0.1,0.7-0.2c0.3,0,0.6-0.1,1.1-0.1c0.4,0,0.8,0,1.1,0.1c0.3,0,0.5,0.1,0.7,0.2s0.3,0.2,0.3,0.3
		c0.1,0.1,0.1,0.2,0.1,0.4v2.3c0.5-0.7,1-1.3,1.4-1.7c0.4-0.5,0.8-0.8,1.2-1.1c0.4-0.3,0.8-0.5,1.2-0.6c0.4-0.1,0.8-0.2,1.2-0.2
		c0.2,0,0.4,0,0.6,0s0.4,0.1,0.7,0.1c0.2,0,0.4,0.1,0.6,0.2s0.3,0.1,0.4,0.2s0.1,0.1,0.2,0.2c0,0.1,0.1,0.2,0.1,0.3
		c0,0.1,0,0.4,0.1,0.7C352.1,435.4,352.1,435.8,352.1,436.3z"/>
	<path class="st7" d="M370.3,453.3c0,0.2-0.1,0.3-0.2,0.5s-0.4,0.2-0.7,0.2c-0.3,0-0.7,0.1-1.3,0.1c-0.6,0-1.1,0-1.4-0.1
		s-0.5-0.1-0.6-0.2s-0.2-0.3-0.2-0.5v-1.5c-0.8,0.8-1.6,1.5-2.6,1.9c-1,0.5-2.1,0.7-3.3,0.7c-1,0-1.9-0.1-2.7-0.4
		c-0.8-0.3-1.6-0.6-2.2-1.2c-0.6-0.5-1.1-1.1-1.4-1.9s-0.5-1.6-0.5-2.6c0-1.1,0.2-2,0.6-2.8s1.1-1.5,1.9-2s1.9-0.9,3.2-1.2
		s2.7-0.4,4.4-0.4h1.8v-1c0-0.6-0.1-1.1-0.2-1.5s-0.3-0.8-0.6-1.1c-0.3-0.3-0.6-0.5-1.1-0.7c-0.5-0.1-1-0.2-1.7-0.2
		c-0.9,0-1.7,0.1-2.4,0.3c-0.7,0.2-1.3,0.4-1.8,0.7s-1,0.5-1.3,0.7c-0.4,0.2-0.6,0.3-0.9,0.3c-0.2,0-0.3,0-0.4-0.1s-0.2-0.2-0.3-0.4
		c-0.1-0.2-0.1-0.4-0.2-0.7c0-0.3-0.1-0.6-0.1-0.9c0-0.4,0-0.8,0.1-1c0.1-0.3,0.2-0.5,0.4-0.7s0.5-0.4,1-0.7
		c0.5-0.2,1.1-0.5,1.7-0.7c0.7-0.2,1.4-0.4,2.2-0.5c0.8-0.1,1.6-0.2,2.4-0.2c1.5,0,2.7,0.1,3.8,0.4c1,0.3,1.9,0.7,2.6,1.3
		c0.7,0.6,1.2,1.4,1.5,2.3s0.5,2.1,0.5,3.3L370.3,453.3L370.3,453.3z M365.1,445.3h-2c-0.9,0-1.6,0.1-2.2,0.2s-1.1,0.3-1.5,0.6
		c-0.4,0.3-0.7,0.6-0.8,0.9s-0.3,0.8-0.3,1.2c0,0.8,0.2,1.4,0.7,1.8s1.2,0.7,2.1,0.7c0.7,0,1.4-0.2,2-0.6s1.3-0.9,1.9-1.7
		L365.1,445.3L365.1,445.3z"/>
	<path class="st7" d="M389.8,450.3c0,0.4,0,0.7,0,0.9c0,0.2,0,0.5-0.1,0.6s-0.1,0.3-0.1,0.4s-0.2,0.2-0.3,0.4
		c-0.2,0.2-0.5,0.4-0.9,0.6s-0.9,0.4-1.4,0.6s-1.1,0.3-1.7,0.4s-1.2,0.2-1.9,0.2c-1.4,0-2.7-0.2-3.8-0.7c-1.1-0.4-2-1.1-2.8-2
		s-1.3-1.9-1.7-3.2s-0.6-2.7-0.6-4.3c0-1.9,0.2-3.5,0.7-4.9s1.1-2.5,2-3.4c0.8-0.9,1.8-1.6,3-2c1.1-0.4,2.4-0.7,3.8-0.7
		c0.6,0,1.1,0,1.6,0.1s1,0.2,1.5,0.4s0.9,0.4,1.3,0.6s0.6,0.4,0.8,0.5c0.2,0.2,0.3,0.3,0.3,0.4c0.1,0.1,0.1,0.2,0.1,0.4
		s0.1,0.4,0.1,0.6s0,0.5,0,0.9c0,0.8-0.1,1.4-0.2,1.7c-0.1,0.3-0.3,0.5-0.5,0.5s-0.5-0.1-0.8-0.3c-0.3-0.2-0.6-0.4-0.9-0.7
		c-0.4-0.2-0.8-0.5-1.3-0.7s-1.1-0.3-1.8-0.3c-1.4,0-2.4,0.5-3.1,1.6s-1.1,2.6-1.1,4.7c0,1,0.1,1.9,0.3,2.7c0.2,0.8,0.5,1.4,0.8,1.9
		c0.4,0.5,0.8,0.9,1.3,1.2c0.5,0.3,1.2,0.4,1.9,0.4c0.7,0,1.4-0.1,1.9-0.3c0.5-0.2,1-0.5,1.4-0.7s0.7-0.5,1-0.7s0.5-0.3,0.7-0.3
		c0.1,0,0.2,0,0.3,0.1s0.2,0.2,0.2,0.4s0.1,0.4,0.1,0.7C389.8,449.4,389.8,449.8,389.8,450.3z"/>
	<path class="st7" d="M404.7,451.4c0,0.6,0,1.1-0.1,1.4s-0.2,0.6-0.3,0.7s-0.3,0.3-0.6,0.4s-0.5,0.2-0.9,0.3
		c-0.3,0.1-0.7,0.1-1.1,0.2s-0.8,0.1-1.2,0.1c-1,0-2-0.1-2.7-0.4s-1.4-0.7-1.9-1.2s-0.9-1.2-1.1-2.1s-0.4-1.8-0.4-3v-9.6h-2.2
		c-0.3,0-0.5-0.2-0.6-0.5s-0.2-0.9-0.2-1.6c0-0.4,0-0.7,0.1-1c0-0.3,0.1-0.5,0.2-0.7s0.2-0.3,0.3-0.3c0.1-0.1,0.2-0.1,0.4-0.1h2.2
		v-4.2c0-0.1,0-0.3,0.1-0.4s0.2-0.2,0.4-0.3c0.2-0.1,0.5-0.1,0.8-0.2c0.3,0,0.8-0.1,1.3-0.1s0.9,0,1.3,0.1c0.3,0,0.6,0.1,0.8,0.2
		c0.2,0.1,0.3,0.2,0.4,0.3s0.1,0.2,0.1,0.4v4.2h4.1c0.1,0,0.3,0,0.4,0.1s0.2,0.2,0.3,0.3c0.1,0.2,0.1,0.4,0.2,0.7
		c0,0.3,0.1,0.6,0.1,1c0,0.8-0.1,1.3-0.2,1.6c-0.1,0.3-0.3,0.5-0.6,0.5H400v8.8c0,1,0.2,1.8,0.5,2.3s0.9,0.8,1.7,0.8
		c0.3,0,0.5,0,0.8-0.1c0.2,0,0.4-0.1,0.6-0.2s0.3-0.1,0.4-0.2c0.1,0,0.2-0.1,0.3-0.1c0.1,0,0.2,0,0.2,0.1c0.1,0,0.1,0.1,0.2,0.3
		s0.1,0.3,0.1,0.6S404.7,451,404.7,451.4z"/>
</g>
<g>
	<path class="st1" d="M114.3,444l-1.7-0.4c-0.1-0.4-0.2-0.9-0.3-1.3l1.3-1.2c0.2-0.2,0.3-0.5,0.2-0.8c-0.4-0.8-0.8-1.6-1.4-2.3
		c-0.3-0.2-0.6-0.3-0.9-0.2l-1.6,0.5c-0.3-0.3-0.6-0.6-0.9-0.9l0.5-1.6c0.1-0.3,0-0.6-0.3-0.7c-0.4-0.3-0.7-0.5-1.1-0.7v-12
		c0-1.9-1.5-3.4-3.4-3.4H77.6c-1.9,0-3.4,1.5-3.4,3.4V440c0,1.9,1.5,3.4,3.4,3.4h7.2l-2.2,6.1H79c-0.4,0-0.7,0.3-0.7,0.7
		c0,1.9,1.5,3.4,3.4,3.4h8.4c0.1,0.1,0.2,0.3,0.3,0.5c0.2,0.2,0.5,0.3,0.7,0.3l1.6-0.5c0.3,0.3,0.6,0.6,0.9,0.9l-0.5,1.6
		c-0.1,0.3,0,0.6,0.3,0.7c0.7,0.5,1.5,1,2.3,1.4c0.3,0.1,0.6,0.1,0.8-0.2l1.2-1.3c0.4,0.1,0.8,0.3,1.3,0.3l0.4,1.7
		c0.1,0.3,0.3,0.5,0.6,0.5c0.5,0,0.9,0.1,1.3,0.1s0.9,0,1.3-0.1c0.3,0,0.5-0.2,0.6-0.5l0.4-1.7c0.4-0.1,0.9-0.2,1.3-0.3l1.2,1.3
		c0.2,0.2,0.5,0.3,0.8,0.2c0.8-0.4,1.6-0.8,2.3-1.4c0.2-0.2,0.3-0.5,0.3-0.7l-0.5-1.6c0.3-0.3,0.6-0.6,0.9-0.9l1.6,0.5
		c0.3,0.1,0.6,0,0.7-0.3c0.5-0.7,1-1.5,1.4-2.3c0.1-0.3,0.1-0.6-0.2-0.8l-1.3-1.2c0.1-0.4,0.3-0.8,0.3-1.3l1.7-0.4
		c0.3-0.1,0.5-0.3,0.5-0.6c0-0.5,0.1-0.9,0.1-1.3s0-0.9-0.1-1.3C114.8,444.3,114.5,444.1,114.3,444L114.3,444z M77.6,420.2h27.1
		c1.1,0,2,0.9,2,2v11.3c-0.2,0-0.5,0-0.6,0.2l-1.2,1.3c-0.4-0.1-0.8-0.3-1.3-0.3l-0.4-1.7c-0.1-0.3-0.3-0.5-0.6-0.5
		c-0.9-0.1-1.8-0.1-2.7,0c-0.3,0-0.5,0.2-0.6,0.5l-0.4,1.7c-0.4,0.1-0.9,0.2-1.3,0.3l-1.1-1.2c-0.2-0.2-0.5-0.3-0.8-0.2
		c-0.8,0.4-1.6,0.8-2.3,1.4c-0.2,0.2-0.3,0.5-0.3,0.7l0.2,0.8H79.6v-8.1h6.8V427h-6.8v-4.1h23.1v8.1h1.4v-8.8c0-0.4-0.3-0.7-0.7-0.7
		H78.9c-0.4,0-0.7,0.3-0.7,0.7v14.2h-2.7v-14.1C75.5,421.1,76.4,420.2,77.6,420.2L77.6,420.2z M93.2,437.8c-0.2,0.2-0.3,0.3-0.5,0.5
		l-1.6-0.5H93.2z M75.5,439.9v-2h15.1c-0.1,0-0.2,0.1-0.3,0.2c-0.5,0.7-1,1.5-1.4,2.3c-0.1,0.3-0.1,0.6,0.2,0.8l0.8,0.7H77.6
		C76.4,441.9,75.5,441,75.5,439.9L75.5,439.9z M86.2,443.3h3.9c0,0.1-0.1,0.2-0.1,0.4l-1.7,0.4c-0.3,0.1-0.5,0.3-0.5,0.6
		c0,0.5-0.1,0.9-0.1,1.3s0,0.9,0.1,1.3c0,0.3,0.2,0.5,0.5,0.6l1.7,0.4c0.1,0.4,0.2,0.7,0.3,1.1H84L86.2,443.3z M81.6,452.1
		c-0.9,0-1.6-0.6-1.9-1.4h9.4v0.1c-0.2,0.2-0.3,0.5-0.2,0.8c0.1,0.2,0.2,0.3,0.3,0.5H81.6z M113.5,446.7l-1.7,0.4
		c-0.3,0.1-0.5,0.3-0.5,0.5c-0.1,0.6-0.3,1.3-0.5,1.9c-0.1,0.3,0,0.5,0.2,0.7l1.2,1.1c-0.2,0.4-0.5,0.9-0.7,1.3l-1.6-0.5
		c-0.3-0.1-0.5,0-0.7,0.2c-0.4,0.5-0.9,1-1.4,1.4c-0.2,0.2-0.3,0.5-0.2,0.7l0.5,1.6c-0.4,0.3-0.8,0.5-1.3,0.7l-1.1-1.2
		c-0.2-0.2-0.5-0.3-0.7-0.2c-0.6,0.2-1.3,0.4-1.9,0.5c-0.3,0-0.5,0.2-0.5,0.5l-0.4,1.6c-0.5,0-1,0-1.5,0l-0.4-1.6
		c-0.1-0.3-0.3-0.5-0.5-0.5c-0.7-0.1-1.3-0.3-1.9-0.5c-0.3-0.1-0.5,0-0.7,0.2l-1.4,1.4c-0.4-0.2-0.9-0.5-1.3-0.7l0.5-1.6
		c0.1-0.3,0-0.5-0.2-0.7c-0.5-0.4-1-0.9-1.4-1.4c-0.2-0.2-0.5-0.3-0.7-0.2l-1.6,0.5c-0.3-0.4-0.5-0.8-0.7-1.3l1.2-1.1
		c0.2-0.2,0.3-0.5,0.2-0.7c-0.2-0.6-0.4-1.3-0.5-1.9c0-0.3-0.2-0.5-0.5-0.5l-1.6-0.4c0-0.2,0-0.5,0-0.7s0-0.5,0-0.7l1.6-0.4
		c0.3-0.1,0.5-0.3,0.5-0.5c0.1-0.6,0.3-1.3,0.5-1.9c0.1-0.3,0-0.5-0.2-0.7l-1.2-1.1c0.2-0.4,0.5-0.9,0.7-1.3l1.6,0.5
		c0.3,0.1,0.5,0,0.7-0.2c0.4-0.5,0.9-1,1.4-1.4c0.2-0.2,0.3-0.5,0.2-0.7l-0.4-2c0.4-0.3,0.8-0.5,1.3-0.7l1.1,1.2
		c0.2,0.2,0.5,0.3,0.7,0.2c0.6-0.2,1.3-0.4,1.9-0.5c0.3,0,0.5-0.2,0.5-0.5l0.4-1.6c0.5,0,1,0,1.5,0l0.4,1.6c0.1,0.3,0.3,0.5,0.5,0.5
		c0.7,0.1,1.3,0.3,1.9,0.5c0.3,0.1,0.5,0,0.7-0.2l1.1-1.2c0.4,0.2,0.9,0.5,1.3,0.7l-0.5,1.6c-0.1,0.3,0,0.5,0.2,0.7
		c0.5,0.4,1,0.9,1.4,1.4c0.2,0.2,0.5,0.3,0.7,0.2l1.6-0.5c0.3,0.4,0.5,0.8,0.7,1.3l-1.2,1.1c-0.2,0.2-0.3,0.5-0.2,0.7
		c0.2,0.6,0.4,1.3,0.5,1.9c0,0.3,0.2,0.5,0.5,0.5l1.6,0.4c0,0.2,0,0.5,0,0.7S113.5,446.5,113.5,446.7L113.5,446.7z"/>
	<path class="st1" d="M106,446c0-2.6-2.1-4.7-4.7-4.7s-4.7,2.1-4.7,4.7s2.1,4.7,4.7,4.7S106,448.6,106,446z M101.3,449.4
		c-1.9,0-3.4-1.5-3.4-3.4s1.5-3.4,3.4-3.4s3.4,1.5,3.4,3.4S103.2,449.4,101.3,449.4z"/>
	<path class="st1" d="M95.8,442l-1.1-0.8c-0.3,0.4-0.5,0.8-0.7,1.3l1.2,0.6C95.3,442.7,95.6,442.3,95.8,442z"/>
	<path class="st1" d="M101,439.2l-0.1-1.4c-0.5,0-1,0.1-1.4,0.2l0.3,1.3C100.2,439.3,100.6,439.2,101,439.2z"/>
	<path class="st1" d="M106.3,439.6l-0.8,1.1c0.3,0.3,0.6,0.5,0.9,0.8l1-0.9C107.1,440.2,106.7,439.9,106.3,439.6L106.3,439.6z"/>
	<path class="st1" d="M94.8,447.8l-1.3,0.4c0.1,0.5,0.3,0.9,0.5,1.4l1.2-0.6C95,448.6,94.9,448.2,94.8,447.8L94.8,447.8z"/>
	<path class="st1" d="M98.1,440l-0.7-1.2c-0.4,0.2-0.8,0.5-1.2,0.8l0.8,1.1C97.4,440.4,97.7,440.2,98.1,440L98.1,440z"/>
	<path class="st1" d="M108,447.2l1.3,0.2c0.1-0.5,0.1-1,0.1-1.5l0,0H108C108.1,446.4,108,446.8,108,447.2z"/>
	<path class="st1" d="M101.6,452.8l0.1,1.4c0.5,0,1-0.1,1.4-0.2l-0.3-1.4C102.4,452.7,102,452.7,101.6,452.8L101.6,452.8z"/>
	<path class="st1" d="M106.8,450l1.1,0.8c0.3-0.4,0.5-0.8,0.7-1.3l-1.2-0.6C107.2,449.3,107,449.6,106.8,450L106.8,450z"/>
	<path class="st1" d="M107.8,444.2l1.3-0.4c-0.1-0.5-0.3-0.9-0.5-1.4l-1.2,0.6C107.6,443.4,107.7,443.8,107.8,444.2z"/>
	<path class="st1" d="M104.5,452l0.6,1.2c0.4-0.2,0.8-0.5,1.2-0.8l-0.8-1.1C105.2,451.5,104.9,451.8,104.5,452L104.5,452z"/>
	<path class="st1" d="M98.1,453.5c0.4,0.2,0.9,0.3,1.4,0.4l0.3-1.3c-0.4-0.1-0.8-0.2-1.2-0.4L98.1,453.5z"/>
	<path class="st1" d="M96.2,450.5l-1,0.9c0.3,0.4,0.7,0.7,1.1,1l0.8-1.1C96.8,451,96.5,450.8,96.2,450.5L96.2,450.5z"/>
	<path class="st1" d="M104.5,438.5c-0.4-0.2-0.9-0.3-1.4-0.4l-0.3,1.3c0.4,0.1,0.8,0.2,1.2,0.4L104.5,438.5z"/>
	<path class="st1" d="M94.6,444.8l-1.3-0.2c-0.1,0.5-0.1,1-0.1,1.4l0,0h1.4C94.5,445.6,94.5,445.2,94.6,444.8z"/>
	<path class="st1" d="M98.4,425.2l-1,1l1.6,1.6h-8.5c-1.9,0-3.4,1.5-3.4,3.4v4.1h1.4v-4.1c0-1.1,0.9-2,2-2H99l-1.6,1.6l1,1l2.7-2.7
		c0.3-0.3,0.3-0.7,0-1L98.4,425.2z"/>
	<path class="st1" d="M80.9,424.3h1.4v1.4h-1.4V424.3z"/>
	<path class="st1" d="M83.7,424.3h1.4v1.4h-1.4V424.3z"/>
	<path class="st1" d="M86.4,424.3h1.4v1.4h-1.4V424.3z"/>
</g>
<g>
	<g>
		<path class="st7" d="M141.1,88.2c0,0.2,0,0.3-0.1,0.4s-0.2,0.2-0.4,0.3s-0.5,0.1-0.9,0.1s-1,0-1.7,0c-0.6,0-1.1,0-1.4,0
			c-0.4,0-0.6-0.1-0.8-0.2s-0.3-0.2-0.4-0.3s-0.2-0.3-0.2-0.4l-2.4-6.1c-0.3-0.7-0.6-1.3-0.9-1.8c-0.3-0.5-0.6-1-0.9-1.3
			c-0.3-0.4-0.7-0.6-1.2-0.8c-0.4-0.2-1-0.3-1.6-0.3h-1.7v10.4c0,0.1,0,0.3-0.1,0.4s-0.2,0.2-0.5,0.3c-0.2,0.1-0.5,0.1-0.8,0.2
			c-0.4,0-0.8,0.1-1.3,0.1s-1,0-1.3-0.1c-0.4,0-0.6-0.1-0.9-0.2c-0.2-0.1-0.4-0.2-0.4-0.3s-0.1-0.2-0.1-0.4V63.5
			c0-0.6,0.2-1.1,0.5-1.3c0.3-0.3,0.7-0.4,1.2-0.4h7c0.7,0,1.3,0,1.8,0s0.9,0.1,1.3,0.1c1.1,0.2,2.1,0.4,3,0.8s1.6,0.9,2.2,1.5
			c0.6,0.6,1.1,1.3,1.4,2.2c0.3,0.8,0.5,1.8,0.5,2.9c0,0.9-0.1,1.7-0.3,2.5c-0.2,0.7-0.6,1.4-1,2s-1,1.1-1.7,1.5s-1.4,0.8-2.2,1
			c0.4,0.2,0.8,0.4,1.1,0.7c0.4,0.3,0.7,0.6,1,1s0.6,0.9,0.9,1.4c0.3,0.5,0.6,1.1,0.8,1.7l2.3,5.4c0.2,0.5,0.3,0.9,0.4,1.2
			C141,87.9,141.1,88.1,141.1,88.2z M134,69.8c0-0.9-0.2-1.7-0.6-2.3c-0.4-0.6-1.1-1-2-1.3c-0.3-0.1-0.6-0.1-1-0.2
			c-0.4,0-0.9-0.1-1.5-0.1h-2.5v7.7h2.8c0.8,0,1.5-0.1,2.1-0.3c0.6-0.2,1.1-0.5,1.5-0.8s0.7-0.8,0.9-1.2S134,70.4,134,69.8z"/>
		<path class="st7" d="M161.5,78.3c0,0.6-0.1,1.1-0.4,1.4c-0.3,0.3-0.7,0.5-1.2,0.5h-11.4c0,0.8,0.1,1.5,0.3,2.2s0.5,1.2,0.9,1.7
			s0.9,0.8,1.6,1c0.7,0.2,1.4,0.4,2.3,0.4c0.9,0,1.7-0.1,2.4-0.2s1.3-0.3,1.8-0.4c0.5-0.2,0.9-0.3,1.3-0.4c0.3-0.1,0.6-0.2,0.8-0.2
			c0.1,0,0.2,0,0.3,0.1c0.1,0,0.2,0.1,0.2,0.3c0.1,0.1,0.1,0.3,0.1,0.5s0,0.5,0,0.9c0,0.3,0,0.6,0,0.8s0,0.4-0.1,0.6
			c0,0.2-0.1,0.3-0.1,0.4c-0.1,0.1-0.1,0.2-0.2,0.3c-0.1,0.1-0.3,0.2-0.7,0.4s-0.9,0.3-1.6,0.5c-0.6,0.2-1.4,0.3-2.2,0.4
			s-1.7,0.2-2.6,0.2c-1.7,0-3.1-0.2-4.4-0.6c-1.3-0.4-2.3-1.1-3.1-1.9s-1.5-1.9-1.9-3.2s-0.6-2.8-0.6-4.6c0-1.7,0.2-3.2,0.7-4.5
			c0.4-1.3,1.1-2.5,1.9-3.4c0.8-0.9,1.8-1.6,3-2.1s2.5-0.7,4-0.7c1.6,0,2.9,0.2,4,0.7s2,1.1,2.7,1.9s1.2,1.8,1.6,2.9
			s0.5,2.3,0.5,3.7L161.5,78.3L161.5,78.3z M156.4,76.8c0-1.5-0.3-2.6-0.9-3.5c-0.6-0.8-1.6-1.3-2.9-1.3c-0.7,0-1.3,0.1-1.8,0.4
			s-0.9,0.6-1.2,1s-0.6,0.9-0.8,1.5s-0.3,1.2-0.3,1.9H156.4z"/>
		<path class="st7" d="M171.1,88.2c0,0.1,0,0.3-0.1,0.4s-0.2,0.2-0.4,0.3s-0.5,0.1-0.8,0.2s-0.8,0.1-1.3,0.1s-0.9,0-1.3-0.1
			s-0.6-0.1-0.8-0.2s-0.3-0.2-0.4-0.3c-0.1-0.1-0.1-0.2-0.1-0.4V60.6c0-0.1,0-0.3,0.1-0.4s0.2-0.2,0.4-0.3s0.5-0.1,0.8-0.2
			c0.3,0,0.8-0.1,1.3-0.1s0.9,0,1.3,0.1c0.3,0,0.6,0.1,0.8,0.2s0.3,0.2,0.4,0.3c0.1,0.1,0.1,0.2,0.1,0.4V88.2z"/>
		<path class="st7" d="M182.1,63.2c0,1.1-0.2,1.8-0.7,2.2c-0.4,0.4-1.2,0.6-2.4,0.6s-2-0.2-2.4-0.6s-0.6-1.1-0.6-2.1
			c0-1.1,0.2-1.8,0.6-2.2c0.4-0.4,1.2-0.6,2.4-0.6s2,0.2,2.4,0.6C181.9,61.4,182.1,62.1,182.1,63.2z M181.7,88.2
			c0,0.1,0,0.3-0.1,0.4s-0.2,0.2-0.4,0.3s-0.5,0.1-0.8,0.2s-0.8,0.1-1.3,0.1s-0.9,0-1.3-0.1s-0.6-0.1-0.8-0.2s-0.3-0.2-0.4-0.3
			c-0.1-0.1-0.1-0.2-0.1-0.4V69.5c0-0.1,0-0.3,0.1-0.4s0.2-0.2,0.4-0.3c0.2-0.1,0.5-0.1,0.8-0.2c0.3,0,0.8-0.1,1.3-0.1
			s0.9,0,1.3,0.1c0.3,0,0.6,0.1,0.8,0.2s0.3,0.2,0.4,0.3c0.1,0.1,0.1,0.2,0.1,0.4V88.2z"/>
		<path class="st7" d="M202.9,88.3c0,0.2-0.1,0.3-0.2,0.5c-0.1,0.1-0.4,0.2-0.7,0.2s-0.7,0.1-1.3,0.1s-1.1,0-1.4-0.1
			c-0.3,0-0.5-0.1-0.6-0.2s-0.2-0.3-0.2-0.5v-1.5c-0.8,0.8-1.6,1.5-2.6,1.9c-1,0.5-2.1,0.7-3.3,0.7c-1,0-1.9-0.1-2.7-0.4
			s-1.6-0.6-2.2-1.2c-0.6-0.5-1.1-1.1-1.4-1.9s-0.5-1.6-0.5-2.6c0-1.1,0.2-2,0.6-2.8c0.4-0.8,1.1-1.5,1.9-2c0.8-0.5,1.9-0.9,3.2-1.2
			s2.7-0.4,4.4-0.4h1.8v-1.1c0-0.6-0.1-1.1-0.2-1.5s-0.3-0.8-0.6-1.1c-0.3-0.3-0.6-0.5-1.1-0.7c-0.5-0.1-1-0.2-1.7-0.2
			c-0.9,0-1.7,0.1-2.4,0.3c-0.7,0.2-1.3,0.4-1.8,0.7c-0.5,0.2-1,0.5-1.3,0.7c-0.4,0.2-0.6,0.3-0.9,0.3c-0.2,0-0.3,0-0.4-0.1
			c-0.1-0.1-0.2-0.2-0.3-0.4c-0.1-0.2-0.1-0.4-0.2-0.7c0-0.3-0.1-0.6-0.1-0.9c0-0.4,0-0.8,0.1-1c0.1-0.3,0.2-0.5,0.4-0.7
			s0.5-0.4,1-0.7c0.5-0.2,1.1-0.5,1.7-0.7c0.7-0.2,1.4-0.4,2.2-0.5s1.6-0.2,2.4-0.2c1.5,0,2.7,0.1,3.8,0.4c1,0.3,1.9,0.7,2.6,1.3
			s1.2,1.4,1.5,2.3s0.5,2.1,0.5,3.3V88.3L202.9,88.3z M197.7,80.3h-2c-0.9,0-1.6,0.1-2.2,0.2c-0.6,0.1-1.1,0.3-1.5,0.6
			s-0.7,0.6-0.8,0.9c-0.2,0.4-0.3,0.8-0.3,1.2c0,0.8,0.2,1.4,0.7,1.8s1.2,0.7,2.1,0.7c0.7,0,1.4-0.2,2-0.6s1.3-0.9,1.9-1.7v-3.1
			H197.7z"/>
		<path class="st7" d="M227,78.6c0,1.7-0.2,3.2-0.5,4.5c-0.4,1.3-0.9,2.5-1.6,3.4s-1.5,1.7-2.5,2.2s-2.1,0.8-3.4,0.8
			c-0.6,0-1.2-0.1-1.8-0.2c-0.5-0.1-1.1-0.3-1.6-0.6s-1-0.6-1.5-1s-1-0.9-1.5-1.5v2c0,0.2,0,0.3-0.1,0.4s-0.2,0.2-0.4,0.3
			c-0.2,0.1-0.4,0.1-0.7,0.1s-0.7,0-1.1,0s-0.8,0-1.1,0s-0.5-0.1-0.7-0.1c-0.2-0.1-0.3-0.2-0.4-0.3s-0.1-0.2-0.1-0.4V60.6
			c0-0.1,0-0.3,0.1-0.4s0.2-0.2,0.4-0.3s0.5-0.1,0.8-0.2c0.3,0,0.8-0.1,1.3-0.1s0.9,0,1.3,0.1c0.3,0,0.6,0.1,0.8,0.2
			c0.2,0.1,0.3,0.2,0.4,0.3c0.1,0.1,0.1,0.2,0.1,0.4V71c0.5-0.5,1-0.9,1.4-1.2c0.5-0.3,1-0.6,1.4-0.8c0.5-0.2,1-0.4,1.5-0.5
			s1-0.1,1.6-0.1c1.4,0,2.6,0.3,3.5,0.8s1.8,1.3,2.4,2.2c0.6,0.9,1.1,2,1.3,3.3C226.9,75.9,227,77.2,227,78.6z M221.6,79
			c0-0.8-0.1-1.6-0.2-2.3s-0.3-1.4-0.6-2s-0.7-1-1.1-1.4c-0.5-0.3-1.1-0.5-1.8-0.5c-0.4,0-0.7,0-1,0.1s-0.7,0.3-1,0.5
			c-0.4,0.2-0.7,0.5-1.1,0.9s-0.8,0.8-1.2,1.4v6.2c0.7,1,1.5,1.7,2.1,2.2c0.7,0.5,1.4,0.7,2.1,0.7s1.3-0.2,1.7-0.5
			c0.5-0.3,0.9-0.8,1.2-1.4s0.5-1.2,0.7-1.9C221.5,80.4,221.6,79.7,221.6,79z"/>
		<path class="st7" d="M236.9,63.2c0,1.1-0.2,1.8-0.7,2.2c-0.4,0.4-1.2,0.6-2.4,0.6s-2-0.2-2.4-0.6s-0.6-1.1-0.6-2.1
			c0-1.1,0.2-1.8,0.6-2.2c0.4-0.4,1.2-0.6,2.4-0.6s2,0.2,2.4,0.6C236.7,61.4,236.9,62.1,236.9,63.2z M236.5,88.2
			c0,0.1,0,0.3-0.1,0.4s-0.2,0.2-0.4,0.3c-0.2,0.1-0.5,0.1-0.8,0.2s-0.8,0.1-1.3,0.1s-0.9,0-1.3-0.1s-0.6-0.1-0.8-0.2
			s-0.3-0.2-0.4-0.3s-0.1-0.2-0.1-0.4V69.5c0-0.1,0-0.3,0.1-0.4s0.2-0.2,0.4-0.3c0.2-0.1,0.5-0.1,0.8-0.2c0.3,0,0.8-0.1,1.3-0.1
			s0.9,0,1.3,0.1c0.3,0,0.6,0.1,0.8,0.2s0.3,0.2,0.4,0.3c0.1,0.1,0.1,0.2,0.1,0.4V88.2z"/>
		<path class="st7" d="M247.1,88.2c0,0.1,0,0.3-0.1,0.4s-0.2,0.2-0.4,0.3s-0.5,0.1-0.8,0.2s-0.8,0.1-1.3,0.1s-0.9,0-1.3-0.1
			s-0.6-0.1-0.8-0.2s-0.3-0.2-0.4-0.3s-0.1-0.2-0.1-0.4V60.6c0-0.1,0-0.3,0.1-0.4s0.2-0.2,0.4-0.3s0.5-0.1,0.8-0.2
			c0.3,0,0.8-0.1,1.3-0.1s0.9,0,1.3,0.1c0.3,0,0.6,0.1,0.8,0.2c0.2,0.1,0.3,0.2,0.4,0.3c0.1,0.1,0.1,0.2,0.1,0.4V88.2z"/>
		<path class="st7" d="M258.1,63.2c0,1.1-0.2,1.8-0.7,2.2c-0.4,0.4-1.2,0.6-2.4,0.6c-1.2,0-2-0.2-2.4-0.6s-0.6-1.1-0.6-2.1
			c0-1.1,0.2-1.8,0.6-2.2c0.4-0.4,1.2-0.6,2.4-0.6c1.2,0,2,0.2,2.4,0.6C257.9,61.4,258.1,62.1,258.1,63.2z M257.7,88.2
			c0,0.1,0,0.3-0.1,0.4s-0.2,0.2-0.4,0.3s-0.5,0.1-0.8,0.2s-0.8,0.1-1.3,0.1s-0.9,0-1.3-0.1s-0.6-0.1-0.8-0.2s-0.3-0.2-0.4-0.3
			s-0.1-0.2-0.1-0.4V69.5c0-0.1,0-0.3,0.1-0.4s0.2-0.2,0.4-0.3c0.2-0.1,0.5-0.1,0.8-0.2c0.3,0,0.8-0.1,1.3-0.1s0.9,0,1.3,0.1
			c0.3,0,0.6,0.1,0.8,0.2c0.2,0.1,0.3,0.2,0.4,0.3c0.1,0.1,0.1,0.2,0.1,0.4V88.2z"/>
		<path class="st7" d="M274,86.4c0,0.6,0,1.1-0.1,1.4s-0.2,0.6-0.3,0.7s-0.3,0.3-0.6,0.4c-0.2,0.1-0.5,0.2-0.9,0.3
			c-0.3,0.1-0.7,0.1-1.1,0.2c-0.4,0-0.8,0.1-1.2,0.1c-1,0-2-0.1-2.7-0.4c-0.8-0.3-1.4-0.7-1.9-1.2s-0.9-1.3-1.1-2.1s-0.4-1.8-0.4-3
			v-9.6h-2.2c-0.3,0-0.5-0.2-0.6-0.5s-0.2-0.9-0.2-1.6c0-0.4,0-0.7,0.1-1c0-0.3,0.1-0.5,0.2-0.7s0.2-0.3,0.3-0.3
			c0.1-0.1,0.2-0.1,0.4-0.1h2.2v-4.2c0-0.1,0-0.3,0.1-0.4s0.2-0.2,0.4-0.3c0.2-0.1,0.5-0.1,0.8-0.2c0.3,0,0.8-0.1,1.3-0.1
			s0.9,0,1.3,0.1c0.3,0,0.6,0.1,0.8,0.2c0.2,0.1,0.3,0.2,0.4,0.3c0.1,0.1,0.1,0.2,0.1,0.4V69h4.1c0.1,0,0.3,0,0.4,0.1
			s0.2,0.2,0.3,0.3c0.1,0.2,0.1,0.4,0.2,0.7c0,0.3,0.1,0.6,0.1,1c0,0.8-0.1,1.3-0.2,1.6s-0.3,0.5-0.6,0.5h-4.3V82
			c0,1,0.2,1.8,0.5,2.3s0.9,0.8,1.7,0.8c0.3,0,0.5,0,0.8-0.1c0.2,0,0.4-0.1,0.6-0.2s0.3-0.1,0.4-0.2c0.1,0,0.2-0.1,0.3-0.1
			c0.1,0,0.2,0,0.2,0.1c0.1,0,0.1,0.1,0.2,0.3c0,0.1,0.1,0.3,0.1,0.6S274,86,274,86.4z"/>
		<path class="st7" d="M288.7,88.9l-2.3,6.6c-0.1,0.3-0.5,0.6-1,0.8s-1.4,0.2-2.5,0.2c-0.6,0-1,0-1.3-0.1s-0.6-0.1-0.8-0.2
			s-0.3-0.3-0.3-0.4s0-0.4,0.1-0.6l2.5-6.3c-0.2-0.1-0.3-0.2-0.5-0.4c-0.1-0.2-0.3-0.4-0.3-0.6l-6.4-17.2c-0.2-0.5-0.3-0.9-0.3-1.1
			c0-0.3,0.1-0.5,0.3-0.6c0.2-0.1,0.5-0.2,0.9-0.3c0.4-0.1,0.9-0.1,1.6-0.1c0.6,0,1.1,0,1.4,0s0.6,0.1,0.8,0.2
			c0.2,0.1,0.3,0.2,0.4,0.4c0.1,0.2,0.2,0.4,0.3,0.7l4.4,12.5h0.1l4-12.8c0.1-0.4,0.2-0.6,0.3-0.7c0.1-0.1,0.4-0.2,0.7-0.3
			s0.8-0.1,1.6-0.1c0.6,0,1.1,0,1.5,0.1s0.7,0.2,0.9,0.3c0.2,0.2,0.3,0.4,0.3,0.6s-0.1,0.6-0.2,0.9L288.7,88.9z"/>
	</g>
</g>
<g>
	<path class="st1" d="M91.2,59.4h-4.4L86,58.9c-2.1-1.4-4.5-2.1-7-2.1h-4.9c-0.7,0-1.3,0.6-1.3,1.3c0,0.5,0.1,0.9,0.4,1.3h-3.7
		c-1.1,0-2,0.9-2,2c0,0.3,0.1,0.5,0.1,0.7c-0.4,0.1-0.7,0.3-0.9,0.6L66,62l-1,1c-0.4,0.4-0.9,0.5-1.4,0.3s-0.8-0.7-0.8-1.2v-1.4h-4
		v1.4c0,0.5-0.3,1-0.8,1.2s-1,0.1-1.4-0.3l-1-1l-2.8,2.8l1,1c0.4,0.4,0.5,0.9,0.3,1.4S53.4,68,52.9,68h-1.4v4h1.4
		c0.5,0,1,0.3,1.2,0.8s0.1,1-0.3,1.4l-1,1l2.8,2.8l1-1c0.4-0.4,0.9-0.5,1.4-0.3s0.8,0.7,0.8,1.2v1.4h0.7v1.3c0,1.3,0.1,2.5,0.4,3.7
		c-0.6,0.3-1.2,0.6-1.8,1l-0.8,0.5h-4.4c-0.7,0-1.3,0.6-1.3,1.3V95c0,0.7,0.6,1.3,1.3,1.3h4c0.5,0,1-0.3,1.2-0.8
		c2.1,1.4,4.5,2.1,7,2.1h5.7c0.3,0,0.5-0.1,0.8-0.2c0.1,0,0.2,0.1,0.3,0.1l0.2,0.1l0.2-0.1c3.1-1,5.8-2.9,7.9-5.2
		c0.1,0,0.3,0,0.4,0.1c0.5,0.2,0.8,0.7,0.8,1.2V95h4v-1.4c0-0.5,0.3-1,0.8-1.2s1-0.1,1.4,0.3l1,1l2.8-2.8l-1-1
		c-0.4-0.4-0.5-0.9-0.3-1.4s0.7-0.8,1.2-0.8h1.4v-4h-1.4c-0.5,0-1-0.3-1.2-0.8s-0.1-1,0.3-1.4l1-1l-2.8-2.8l-1,1
		c-0.4,0.4-0.9,0.5-1.4,0.3s-0.8-0.7-0.8-1.2v-1.4h-0.7v-6.6c0.5-0.2,1-0.5,1.4-0.8c0.2,0.5,0.7,0.8,1.2,0.8h4
		c0.7,0,1.3-0.6,1.3-1.3v-7.9C92.6,59.9,92,59.4,91.2,59.4L91.2,59.4z M69.5,60.7h5.9l0,0h2.1c0.4,0,0.8,0.2,1,0.5
		c-0.3,0.2-0.5,0.5-0.8,0.8h-8.3c-0.4,0-0.7-0.3-0.7-0.7S69.1,60.7,69.5,60.7z M73.5,66.8L72.3,66h4.4v1.3h-2.4
		C74.1,67.1,73.8,67,73.5,66.8z M69.9,67.3h-0.4c-0.4,0-0.7-0.3-0.7-0.7s0.3-0.7,0.7-0.7h2.4l-1.2,0.8C70.4,67,70.1,67.1,69.9,67.3
		L69.9,67.3z M68.2,63.3h8.9c-0.2,0.4-0.2,0.9-0.3,1.3h-8.6c-0.4,0-0.7-0.3-0.7-0.7C67.5,63.6,67.8,63.3,68.2,63.3L68.2,63.3z
		 M58.6,75.4c-1-0.4-2.1-0.2-2.8,0.6l0,0l-0.9-0.9l0,0c0.7-0.7,1-1.9,0.5-2.8c-0.4-1-1.3-1.6-2.4-1.6l0,0v-1.3l0,0
		c1,0,2-0.6,2.4-1.6s0.2-2.1-0.6-2.8l0,0l0.9-0.9l0,0c0.7,0.7,1.9,1,2.8,0.5c1-0.4,1.6-1.3,1.6-2.4l0,0h1.3l0,0c0,1,0.6,2,1.6,2.4
		s2.1,0.2,2.8-0.6l0,0l0.1,0.1c0,0.9,0.6,1.7,1.5,1.9c-0.1,0.2-0.1,0.5-0.1,0.7c0,0.6,0.2,1.1,0.6,1.4c-0.9,0.3-1.8,0.5-2.8,0.5
		c-0.6-1.9-2.4-3.3-4.4-3.3c-2.5,0-4.6,2.1-4.6,4.6c0,2.1,1.4,3.8,3.3,4.4V76C59.3,75.8,59,75.5,58.6,75.4L58.6,75.4z M59.6,67.8
		v5.1c-1.2-0.5-2-1.7-2-3c0-1.8,1.5-3.3,3.3-3.3c1.3,0,2.5,0.8,3,1.9c-0.4,0-0.9-0.1-1.3-0.2L59.6,67.8z M56.9,95h-4v-7.9h4V95z
		 M70.8,96.3h-5.7c-2.5,0-4.9-0.8-6.9-2.3v-7.2l0.6-0.4c1.9-1.2,4.1-1.9,6.3-1.9h3.6c0,0.7-0.6,1.3-1.3,1.3l0,0h-2v1.3h2l0,0h5.9
		c0.4,0,0.7,0.3,0.7,0.7s-0.3,0.7-0.7,0.7h-7.9v1.3h9.2c0.4,0,0.7,0.3,0.7,0.7s-0.3,0.7-0.7,0.7h-9.2v1.3h7.9c0.4,0,0.7,0.3,0.7,0.7
		s-0.3,0.7-0.7,0.7h-7.9v1.3h5.3c0.4,0,0.7,0.3,0.7,0.7C71.5,96,71.2,96.3,70.8,96.3z M63.5,80.5v-8c0.4,0,0.8,0,1.1,0
		c2.5,0,4.8-0.5,6.8-1.5v14.7h-1.7c0.2-0.4,0.4-0.8,0.4-1.3c0-0.7-0.6-1.3-1.3-1.3h-3.6c-0.5,0-0.9,0-1.4,0.1
		C63.6,82.3,63.5,81.4,63.5,80.5L63.5,80.5z M76.7,90.3c0-0.9-0.6-1.6-1.5-1.8c0.1-0.2,0.1-0.5,0.1-0.7c0-1.1-0.9-2-2-2h-0.7V71
		c2,1,4.3,1.5,6.8,1.5c0.4,0,0.8,0,1.1,0v8C80.7,84.2,79.2,87.7,76.7,90.3z M72.7,96c0-0.1,0-0.2,0-0.4s0-0.5-0.1-0.7h0.8
		c1.1,0,1.9-0.8,2-1.9c4.1-2.9,6.6-7.6,6.6-12.6V71l-0.7,0.1c-0.6,0.1-1.1,0.1-1.7,0.1c-2.7,0-5.1-0.6-7.1-1.9l-0.3-0.2l-0.3,0.2
		c-2,1.2-4.4,1.9-7.1,1.9c-0.6,0-1.1,0-1.7-0.1L62.4,71v9.5c0,1,0.1,2,0.3,2.9c-0.4,0.1-0.9,0.2-1.3,0.4c-0.2-1.1-0.3-2.2-0.3-3.3
		V69.4l1.4,0.3c0.8,0.2,1.6,0.2,2.4,0.2c2.4,0,4.7-0.7,6.7-2l0.7-0.5l0.7,0.5c2,1.3,4.3,2,6.7,2c0.8,0,1.6-0.1,2.4-0.2l1.4-0.3v11.1
		C83.3,87.4,79.1,93.5,72.7,96L72.7,96z M84.5,82.7c1.2,0.5,2.1,1.7,2.1,3.1c0,1.8-1.5,3.3-3.3,3.3c-0.3,0-0.5,0-0.8-0.1
		C83.6,87,84.2,84.9,84.5,82.7L84.5,82.7z M85.6,80.3c1,0.4,2.1,0.2,2.8-0.6l0,0l0.9,0.9l0,0c-0.7,0.7-1,1.9-0.5,2.8
		c0.4,1,1.3,1.6,2.4,1.6l0,0v1.3l0,0c-1,0-2,0.6-2.4,1.6s-0.2,2.1,0.6,2.8l0,0l-0.9,0.9l0,0c-0.7-0.7-1.9-1-2.8-0.5
		c-1,0.4-1.6,1.3-1.6,2.4l0,0h-1.3l0,0c0-1-0.6-2-1.6-2.4c0.3-0.4,0.5-0.7,0.8-1.1c0.5,0.2,1,0.2,1.5,0.2c2.5,0,4.6-2.1,4.6-4.6
		c0-2.1-1.4-3.9-3.3-4.4c0-0.3,0-0.6,0-0.8v-0.9C84.9,79.9,85.2,80.1,85.6,80.3z M81.7,68.4c-1.2,0.2-2.4,0.3-3.6,0.1V65
		c0-1.1,0.5-2.1,1.2-2.8c0.6,0.7,1.5,1.1,2.5,1.1h0.3V62h-0.3c-0.8,0-1.5-0.5-1.9-1.2c-0.4-0.9-1.3-1.4-2.3-1.4h-2.1
		c-0.7,0-1.3-0.6-1.3-1.3h4.9c2.3,0,4.4,0.7,6.3,1.9l0.6,0.4v7.2c-0.4,0.3-0.9,0.6-1.3,0.9v-0.7L81.7,68.4z M91.2,68.6h-4v-7.9h4
		V68.6z"/>
	<path class="st1" d="M82.6,64.8c-1.5,0.4-2.7,1.5-3.1,2.9l1.3,0.4c0.3-1,1.2-1.8,2.2-2.1l0.6-0.2l-0.3-1.3L82.6,64.8z"/>
	<path class="st1" d="M51.7,81.8H53v1.3h-1.3V81.8z"/>
	<path class="st1" d="M54.3,81.8h1.3v1.3h-1.3V81.8z"/>
	<path class="st1" d="M56.9,81.8h1.3v1.3h-1.3V81.8z"/>
	<path class="st1" d="M86,72.5h1.3v1.3H86V72.5z"/>
	<path class="st1" d="M88.6,72.5h1.3v1.3h-1.3V72.5z"/>
	<path class="st1" d="M91.2,72.5h1.3v1.3h-1.3V72.5z"/>
</g>
<g>
	<g>
		<path class="st7" d="M365,239.1c0,0.4,0,0.8-0.1,1c0,0.3-0.1,0.5-0.2,0.7s-0.2,0.3-0.3,0.4c-0.1,0.1-0.2,0.1-0.3,0.1h-6.8v21.9
			c0,0.1,0,0.3-0.1,0.4s-0.2,0.2-0.5,0.3c-0.2,0.1-0.5,0.1-0.9,0.2c-0.4,0-0.8,0.1-1.3,0.1s-1,0-1.3-0.1c-0.4,0-0.6-0.1-0.9-0.2
			c-0.2-0.1-0.4-0.2-0.5-0.3c-0.1-0.1-0.1-0.2-0.1-0.4v-21.9h-6.8c-0.1,0-0.3,0-0.4-0.1s-0.2-0.2-0.3-0.4c-0.1-0.2-0.1-0.4-0.2-0.7
			c0-0.3-0.1-0.6-0.1-1s0-0.8,0.1-1.1c0-0.3,0.1-0.5,0.2-0.7s0.2-0.3,0.3-0.4c0.1-0.1,0.2-0.1,0.4-0.1H364c0.1,0,0.2,0,0.3,0.1
			c0.1,0.1,0.2,0.2,0.3,0.4c0.1,0.2,0.1,0.4,0.2,0.7C365,238.3,365,238.7,365,239.1z"/>
		<path class="st7" d="M377.7,246.3c0,0.5,0,0.9,0,1.2s-0.1,0.6-0.1,0.8c-0.1,0.2-0.1,0.3-0.2,0.4s-0.2,0.1-0.3,0.1
			c-0.1,0-0.2,0-0.4-0.1c-0.1,0-0.3-0.1-0.5-0.2s-0.4-0.1-0.6-0.2s-0.4-0.1-0.7-0.1c-0.3,0-0.6,0.1-0.9,0.2s-0.6,0.3-0.9,0.6
			s-0.6,0.6-1,1c-0.3,0.4-0.7,0.9-1.1,1.6v11.7c0,0.1,0,0.3-0.1,0.4s-0.2,0.2-0.4,0.3c-0.2,0.1-0.5,0.1-0.8,0.2s-0.8,0.1-1.3,0.1
			s-0.9,0-1.3-0.1s-0.6-0.1-0.8-0.2c-0.2-0.1-0.3-0.2-0.4-0.3c-0.1-0.1-0.1-0.2-0.1-0.4v-18.7c0-0.1,0-0.3,0.1-0.4s0.2-0.2,0.4-0.3
			c0.2-0.1,0.4-0.1,0.7-0.2c0.3,0,0.6-0.1,1.1-0.1c0.4,0,0.8,0,1.1,0.1s0.5,0.1,0.7,0.2s0.3,0.2,0.3,0.3c0.1,0.1,0.1,0.2,0.1,0.4
			v2.3c0.5-0.7,1-1.3,1.4-1.7c0.4-0.5,0.8-0.8,1.2-1.1c0.4-0.3,0.8-0.5,1.2-0.6c0.4-0.1,0.8-0.2,1.2-0.2c0.2,0,0.4,0,0.6,0
			s0.4,0.1,0.7,0.1c0.2,0,0.4,0.1,0.6,0.2s0.3,0.1,0.4,0.2s0.1,0.1,0.2,0.2c0,0.1,0.1,0.2,0.1,0.3s0,0.4,0.1,0.7
			C377.7,245.4,377.7,245.8,377.7,246.3z"/>
		<path class="st7" d="M396,263.4c0,0.2-0.1,0.3-0.2,0.5c-0.1,0.1-0.4,0.2-0.7,0.2c-0.3,0-0.7,0.1-1.3,0.1c-0.6,0-1.1,0-1.4-0.1
			c-0.3,0-0.5-0.1-0.6-0.2s-0.2-0.3-0.2-0.5v-1.5c-0.8,0.8-1.6,1.5-2.6,1.9c-1,0.5-2.1,0.7-3.3,0.7c-1,0-1.9-0.1-2.7-0.4
			c-0.8-0.3-1.6-0.6-2.2-1.2c-0.6-0.5-1.1-1.1-1.4-1.9s-0.5-1.6-0.5-2.6c0-1.1,0.2-2,0.6-2.8s1.1-1.5,1.9-2s1.9-0.9,3.2-1.2
			s2.7-0.4,4.4-0.4h1.8v-1.1c0-0.6-0.1-1.1-0.2-1.5s-0.3-0.8-0.6-1.1c-0.3-0.3-0.6-0.5-1.1-0.7c-0.5-0.1-1-0.2-1.7-0.2
			c-0.9,0-1.7,0.1-2.4,0.3c-0.7,0.2-1.3,0.4-1.8,0.7c-0.5,0.2-1,0.5-1.3,0.7c-0.4,0.2-0.6,0.3-0.9,0.3c-0.2,0-0.3,0-0.4-0.1
			s-0.2-0.2-0.3-0.4c-0.1-0.2-0.1-0.4-0.2-0.7c0-0.3-0.1-0.6-0.1-0.9c0-0.4,0-0.8,0.1-1c0.1-0.3,0.2-0.5,0.4-0.7
			c0.2-0.2,0.5-0.4,1-0.7c0.5-0.2,1.1-0.5,1.7-0.7c0.7-0.2,1.4-0.4,2.2-0.5c0.8-0.1,1.6-0.2,2.4-0.2c1.5,0,2.7,0.1,3.8,0.4
			c1,0.3,1.9,0.7,2.6,1.3s1.2,1.4,1.5,2.3s0.5,2.1,0.5,3.3L396,263.4L396,263.4z M390.8,255.3h-2c-0.9,0-1.6,0.1-2.2,0.2
			s-1.1,0.3-1.5,0.6c-0.4,0.3-0.7,0.6-0.8,0.9c-0.2,0.4-0.3,0.8-0.3,1.2c0,0.8,0.2,1.4,0.7,1.8s1.2,0.7,2.1,0.7c0.7,0,1.4-0.2,2-0.6
			s1.3-0.9,1.9-1.7L390.8,255.3L390.8,255.3z"/>
		<path class="st7" d="M419.1,263.3c0,0.1,0,0.3-0.1,0.4s-0.2,0.2-0.4,0.3c-0.2,0.1-0.5,0.1-0.8,0.2s-0.8,0.1-1.3,0.1
			s-0.9,0-1.3-0.1s-0.6-0.1-0.8-0.2s-0.3-0.2-0.4-0.3c-0.1-0.1-0.1-0.2-0.1-0.4v-10.7c0-0.9-0.1-1.6-0.2-2.1s-0.3-1-0.6-1.3
			c-0.3-0.4-0.6-0.7-1-0.9s-0.9-0.3-1.4-0.3c-0.7,0-1.4,0.2-2,0.7c-0.7,0.5-1.4,1.2-2.1,2.1v12.5c0,0.1,0,0.3-0.1,0.4
			s-0.2,0.2-0.4,0.3s-0.5,0.1-0.8,0.2s-0.8,0.1-1.3,0.1s-0.9,0-1.3-0.1s-0.6-0.1-0.8-0.2c-0.2-0.1-0.3-0.2-0.4-0.3
			c-0.1-0.1-0.1-0.2-0.1-0.4v-18.7c0-0.1,0-0.3,0.1-0.4s0.2-0.2,0.4-0.3c0.2-0.1,0.4-0.1,0.7-0.2c0.3,0,0.6-0.1,1.1-0.1
			c0.4,0,0.8,0,1.1,0.1s0.5,0.1,0.7,0.2s0.3,0.2,0.3,0.3c0.1,0.1,0.1,0.2,0.1,0.4v2.2c1-1.1,2.1-2,3.2-2.5c1.1-0.6,2.2-0.8,3.3-0.8
			c1.3,0,2.3,0.2,3.2,0.6c0.9,0.4,1.6,1,2.1,1.7s0.9,1.6,1.2,2.5c0.2,1,0.4,2.1,0.4,3.5v11.5H419.1z"/>
		<path class="st7" d="M437.5,258c0,1.1-0.2,2-0.6,2.8s-1,1.5-1.7,2s-1.6,1-2.6,1.2c-1,0.3-2.1,0.4-3.2,0.4c-0.7,0-1.4-0.1-2-0.2
			s-1.2-0.2-1.7-0.4c-0.5-0.2-0.9-0.3-1.3-0.5s-0.6-0.3-0.7-0.5c-0.2-0.1-0.3-0.4-0.4-0.7c-0.1-0.3-0.1-0.8-0.1-1.4c0-0.4,0-0.7,0-1
			c0-0.2,0.1-0.4,0.1-0.6c0.1-0.1,0.1-0.2,0.2-0.3s0.2-0.1,0.3-0.1c0.2,0,0.4,0.1,0.7,0.3c0.3,0.2,0.7,0.4,1.1,0.6s1,0.4,1.6,0.6
			s1.3,0.3,2,0.3c0.5,0,0.9,0,1.3-0.1s0.7-0.2,1-0.4c0.3-0.2,0.5-0.4,0.6-0.7c0.1-0.3,0.2-0.6,0.2-1s-0.1-0.8-0.4-1.1
			s-0.6-0.6-1-0.8c-0.4-0.2-0.9-0.4-1.4-0.6s-1.1-0.4-1.7-0.7c-0.6-0.2-1.1-0.5-1.7-0.8c-0.5-0.3-1-0.7-1.4-1.1s-0.8-1-1-1.6
			s-0.4-1.4-0.4-2.3s0.2-1.7,0.5-2.5c0.3-0.7,0.9-1.4,1.5-1.9c0.7-0.5,1.5-0.9,2.4-1.2s2-0.4,3.2-0.4c0.6,0,1.2,0,1.7,0.1
			s1.1,0.2,1.5,0.3s0.8,0.3,1.1,0.4c0.3,0.1,0.5,0.3,0.7,0.4c0.1,0.1,0.2,0.2,0.3,0.3c0.1,0.1,0.1,0.2,0.1,0.4
			c0,0.1,0.1,0.3,0.1,0.5s0,0.5,0,0.8c0,0.4,0,0.7,0,0.9s-0.1,0.4-0.1,0.6c0,0.1-0.1,0.2-0.2,0.3c-0.1,0-0.2,0.1-0.3,0.1
			c-0.1,0-0.3-0.1-0.6-0.2c-0.3-0.1-0.6-0.3-1-0.5s-0.9-0.3-1.4-0.5c-0.5-0.1-1.1-0.2-1.8-0.2c-0.5,0-0.9,0-1.2,0.1
			s-0.6,0.2-0.9,0.4c-0.2,0.2-0.4,0.4-0.5,0.6s-0.2,0.5-0.2,0.8c0,0.4,0.1,0.8,0.4,1.1s0.6,0.6,1,0.8s0.9,0.4,1.5,0.6
			s1.1,0.4,1.7,0.6s1.1,0.5,1.7,0.8s1,0.7,1.5,1.1c0.4,0.4,0.8,1,1,1.6C437.4,256.4,437.5,257.2,437.5,258z"/>
		<path class="st7" d="M460.3,253.7c0,1.7-0.2,3.2-0.5,4.5c-0.4,1.3-0.9,2.5-1.6,3.4s-1.5,1.7-2.6,2.2c-1,0.5-2.2,0.8-3.5,0.8
			c-0.5,0-1-0.1-1.5-0.2s-0.9-0.3-1.3-0.5s-0.9-0.5-1.3-0.8s-0.9-0.7-1.3-1.1v8.8c0,0.1,0,0.3-0.1,0.4s-0.2,0.2-0.4,0.3
			s-0.5,0.1-0.8,0.2s-0.8,0.1-1.3,0.1s-0.9,0-1.3-0.1s-0.6-0.1-0.8-0.2c-0.2-0.1-0.3-0.2-0.4-0.3s-0.1-0.2-0.1-0.4v-26.2
			c0-0.1,0-0.3,0.1-0.4s0.2-0.2,0.4-0.3c0.2-0.1,0.4-0.1,0.7-0.2s0.6-0.1,1.1-0.1c0.4,0,0.8,0,1.1,0.1s0.5,0.1,0.7,0.2
			s0.3,0.2,0.4,0.3s0.1,0.2,0.1,0.4v2.2c0.5-0.6,1.1-1.1,1.6-1.5s1.1-0.8,1.6-1.1s1.1-0.5,1.7-0.6s1.2-0.2,1.9-0.2
			c1.4,0,2.5,0.3,3.5,0.8s1.8,1.3,2.4,2.2s1.1,2,1.3,3.3C460.2,250.9,460.3,252.2,460.3,253.7z M454.8,254c0-0.8-0.1-1.6-0.2-2.3
			s-0.3-1.4-0.6-2s-0.7-1-1.1-1.4c-0.5-0.3-1.1-0.5-1.8-0.5c-0.3,0-0.7,0.1-1,0.2s-0.7,0.3-1,0.5c-0.4,0.2-0.7,0.5-1.1,0.9
			s-0.8,0.8-1.2,1.4v6.2c0.7,0.9,1.4,1.7,2.1,2.2s1.4,0.8,2.1,0.8s1.3-0.2,1.8-0.5s0.9-0.8,1.2-1.4s0.5-1.2,0.7-1.9
			C454.8,255.5,454.8,254.8,454.8,254z"/>
		<path class="st7" d="M480.5,263.4c0,0.2-0.1,0.3-0.2,0.5c-0.1,0.1-0.4,0.2-0.7,0.2s-0.7,0.1-1.3,0.1s-1.1,0-1.4-0.1
			c-0.3,0-0.5-0.1-0.6-0.2s-0.2-0.3-0.2-0.5v-1.5c-0.8,0.8-1.6,1.5-2.6,1.9c-1,0.5-2.1,0.7-3.3,0.7c-1,0-1.9-0.1-2.7-0.4
			s-1.6-0.6-2.2-1.2c-0.6-0.5-1.1-1.1-1.4-1.9s-0.5-1.6-0.5-2.6c0-1.1,0.2-2,0.6-2.8s1.1-1.5,1.9-2s1.9-0.9,3.2-1.2
			c1.3-0.3,2.7-0.4,4.4-0.4h1.8v-1.1c0-0.6-0.1-1.1-0.2-1.5s-0.3-0.8-0.6-1.1c-0.3-0.3-0.6-0.5-1.1-0.7c-0.5-0.1-1-0.2-1.7-0.2
			c-0.9,0-1.7,0.1-2.4,0.3c-0.7,0.2-1.3,0.4-1.8,0.7c-0.5,0.2-1,0.5-1.3,0.7c-0.4,0.2-0.6,0.3-0.9,0.3c-0.2,0-0.3,0-0.4-0.1
			s-0.2-0.2-0.3-0.4c-0.1-0.2-0.1-0.4-0.2-0.7c0-0.3-0.1-0.6-0.1-0.9c0-0.4,0-0.8,0.1-1c0.1-0.3,0.2-0.5,0.4-0.7s0.5-0.4,1-0.7
			c0.5-0.2,1.1-0.5,1.7-0.7c0.7-0.2,1.4-0.4,2.2-0.5s1.6-0.2,2.4-0.2c1.5,0,2.7,0.1,3.8,0.4c1,0.3,1.9,0.7,2.6,1.3s1.2,1.4,1.5,2.3
			s0.5,2.1,0.5,3.3L480.5,263.4L480.5,263.4z M475.3,255.3h-2c-0.9,0-1.6,0.1-2.2,0.2c-0.6,0.1-1.1,0.3-1.5,0.6
			c-0.4,0.3-0.7,0.6-0.8,0.9c-0.2,0.4-0.3,0.8-0.3,1.2c0,0.8,0.2,1.4,0.7,1.8s1.2,0.7,2.1,0.7c0.7,0,1.4-0.2,2-0.6s1.3-0.9,1.9-1.7
			L475.3,255.3L475.3,255.3z"/>
		<path class="st7" d="M497.8,246.3c0,0.5,0,0.9,0,1.2s-0.1,0.6-0.1,0.8c-0.1,0.2-0.1,0.3-0.2,0.4c-0.1,0.1-0.2,0.1-0.3,0.1
			s-0.2,0-0.4-0.1c-0.1,0-0.3-0.1-0.5-0.2s-0.4-0.1-0.6-0.2s-0.4-0.1-0.7-0.1s-0.6,0.1-0.9,0.2c-0.3,0.1-0.6,0.3-0.9,0.6
			s-0.6,0.6-1,1c-0.3,0.4-0.7,0.9-1.1,1.6v11.7c0,0.1,0,0.3-0.1,0.4s-0.2,0.2-0.4,0.3s-0.5,0.1-0.8,0.2s-0.8,0.1-1.3,0.1
			s-0.9,0-1.3-0.1s-0.6-0.1-0.8-0.2s-0.3-0.2-0.4-0.3c-0.1-0.1-0.1-0.2-0.1-0.4v-18.7c0-0.1,0-0.3,0.1-0.4s0.2-0.2,0.4-0.3
			c0.2-0.1,0.4-0.1,0.7-0.2c0.3,0,0.6-0.1,1.1-0.1c0.4,0,0.8,0,1.1,0.1c0.3,0,0.5,0.1,0.7,0.2s0.3,0.2,0.3,0.3
			c0.1,0.1,0.1,0.2,0.1,0.4v2.3c0.5-0.7,1-1.3,1.4-1.7c0.4-0.5,0.8-0.8,1.2-1.1c0.4-0.3,0.8-0.5,1.2-0.6s0.8-0.2,1.2-0.2
			c0.2,0,0.4,0,0.6,0s0.4,0.1,0.7,0.1c0.2,0,0.4,0.1,0.6,0.2c0.2,0.1,0.3,0.1,0.4,0.2c0.1,0.1,0.1,0.1,0.2,0.2
			c0,0.1,0.1,0.2,0.1,0.3s0,0.4,0.1,0.7S497.8,245.8,497.8,246.3z"/>
		<path class="st7" d="M517.9,253.4c0,0.6-0.1,1.1-0.4,1.4s-0.7,0.5-1.2,0.5h-11.4c0,0.8,0.1,1.5,0.3,2.2s0.5,1.2,0.9,1.7
			s0.9,0.8,1.6,1s1.4,0.4,2.3,0.4s1.7-0.1,2.4-0.2c0.7-0.1,1.3-0.3,1.8-0.4c0.5-0.2,0.9-0.3,1.3-0.4c0.3-0.1,0.6-0.2,0.8-0.2
			c0.1,0,0.2,0,0.3,0.1c0.1,0,0.2,0.1,0.2,0.3c0.1,0.1,0.1,0.3,0.1,0.5s0,0.5,0,0.9c0,0.3,0,0.6,0,0.8c0,0.2,0,0.4-0.1,0.6
			c0,0.2-0.1,0.3-0.1,0.4c-0.1,0.1-0.1,0.2-0.2,0.3s-0.3,0.2-0.7,0.4s-0.9,0.3-1.6,0.5c-0.6,0.2-1.4,0.3-2.2,0.4s-1.7,0.2-2.6,0.2
			c-1.7,0-3.1-0.2-4.4-0.6s-2.3-1.1-3.1-1.9s-1.5-1.9-1.9-3.2s-0.6-2.8-0.6-4.6c0-1.7,0.2-3.2,0.7-4.5c0.4-1.3,1.1-2.5,1.9-3.4
			s1.8-1.6,3-2.1s2.5-0.7,4-0.7c1.6,0,2.9,0.2,4,0.7c1.1,0.5,2,1.1,2.7,1.9s1.2,1.8,1.6,2.9s0.5,2.3,0.5,3.7v0.4L517.9,253.4
			L517.9,253.4z M512.8,251.9c0-1.5-0.3-2.6-0.9-3.5c-0.6-0.8-1.6-1.3-3-1.3c-0.7,0-1.3,0.1-1.8,0.4s-0.9,0.6-1.2,1
			s-0.6,0.9-0.8,1.5s-0.3,1.2-0.3,1.9L512.8,251.9L512.8,251.9z"/>
		<path class="st7" d="M540.1,263.3c0,0.1,0,0.3-0.1,0.4s-0.2,0.2-0.4,0.3s-0.5,0.1-0.8,0.2s-0.8,0.1-1.3,0.1s-0.9,0-1.3-0.1
			s-0.6-0.1-0.8-0.2s-0.3-0.2-0.4-0.3c-0.1-0.1-0.1-0.2-0.1-0.4v-10.7c0-0.9-0.1-1.6-0.2-2.1c-0.1-0.5-0.3-1-0.6-1.3
			c-0.3-0.4-0.6-0.7-1-0.9s-0.9-0.3-1.4-0.3c-0.7,0-1.4,0.2-2,0.7c-0.7,0.5-1.4,1.2-2.1,2.1v12.5c0,0.1,0,0.3-0.1,0.4
			s-0.2,0.2-0.4,0.3s-0.5,0.1-0.8,0.2s-0.8,0.1-1.3,0.1s-0.9,0-1.3-0.1s-0.6-0.1-0.8-0.2s-0.3-0.2-0.4-0.3c-0.1-0.1-0.1-0.2-0.1-0.4
			v-18.7c0-0.1,0-0.3,0.1-0.4s0.2-0.2,0.4-0.3s0.4-0.1,0.7-0.2c0.3,0,0.6-0.1,1.1-0.1c0.4,0,0.8,0,1.1,0.1c0.3,0,0.5,0.1,0.7,0.2
			s0.3,0.2,0.3,0.3c0.1,0.1,0.1,0.2,0.1,0.4v2.2c1-1.1,2.1-2,3.2-2.5c1.1-0.6,2.2-0.8,3.3-0.8c1.3,0,2.3,0.2,3.2,0.6s1.6,1,2.1,1.7
			s0.9,1.6,1.2,2.5c0.2,1,0.4,2.1,0.4,3.5v11.5H540.1z"/>
		<path class="st7" d="M559.5,260.3c0,0.4,0,0.7,0,0.9c0,0.2,0,0.5-0.1,0.6s-0.1,0.3-0.1,0.4s-0.2,0.2-0.3,0.4
			c-0.2,0.2-0.5,0.4-0.9,0.6s-0.9,0.4-1.4,0.6s-1.1,0.3-1.7,0.4c-0.6,0.1-1.2,0.2-1.9,0.2c-1.4,0-2.7-0.2-3.8-0.7
			c-1.1-0.4-2-1.1-2.8-2s-1.3-1.9-1.7-3.2s-0.6-2.7-0.6-4.3c0-1.9,0.2-3.5,0.7-4.9s1.1-2.5,2-3.4s1.8-1.6,3-2
			c1.1-0.4,2.4-0.7,3.8-0.7c0.6,0,1.1,0,1.6,0.1s1,0.2,1.5,0.4s0.9,0.4,1.3,0.6c0.4,0.2,0.6,0.4,0.8,0.5c0.2,0.2,0.3,0.3,0.3,0.4
			c0.1,0.1,0.1,0.2,0.1,0.4s0.1,0.4,0.1,0.6s0,0.5,0,0.9c0,0.8-0.1,1.4-0.2,1.7c-0.1,0.3-0.3,0.5-0.5,0.5s-0.5-0.1-0.8-0.3
			s-0.6-0.4-0.9-0.7c-0.4-0.2-0.8-0.5-1.3-0.7s-1.1-0.3-1.8-0.3c-1.4,0-2.4,0.5-3.1,1.6c-0.7,1.1-1.1,2.6-1.1,4.7
			c0,1,0.1,1.9,0.3,2.7c0.2,0.8,0.5,1.4,0.8,1.9c0.4,0.5,0.8,0.9,1.3,1.2c0.5,0.3,1.2,0.4,1.9,0.4s1.4-0.1,1.9-0.3
			c0.5-0.2,1-0.5,1.4-0.7s0.7-0.5,1-0.7s0.5-0.3,0.7-0.3c0.1,0,0.2,0,0.3,0.1s0.2,0.2,0.2,0.4c0,0.2,0.1,0.4,0.1,0.7
			C559.5,259.5,559.5,259.9,559.5,260.3z"/>
		<path class="st7" d="M574.2,264l-2.3,6.6c-0.1,0.3-0.5,0.6-1,0.8s-1.4,0.2-2.5,0.2c-0.6,0-1,0-1.3-0.1s-0.6-0.1-0.8-0.2
			s-0.3-0.3-0.3-0.4s0-0.4,0.1-0.6l2.5-6.3c-0.2-0.1-0.3-0.2-0.5-0.4c-0.1-0.2-0.3-0.4-0.3-0.6l-6.4-17.2c-0.2-0.5-0.3-0.9-0.3-1.1
			c0-0.3,0.1-0.5,0.3-0.6s0.5-0.2,0.9-0.3s0.9-0.1,1.6-0.1c0.6,0,1.1,0,1.4,0c0.3,0,0.6,0.1,0.8,0.2s0.3,0.2,0.4,0.4
			c0.1,0.2,0.2,0.4,0.3,0.7l4.4,12.5h0.1l4-12.8c0.1-0.4,0.2-0.6,0.3-0.7s0.4-0.2,0.7-0.3s0.8-0.1,1.6-0.1c0.6,0,1.1,0,1.5,0.1
			s0.7,0.2,0.9,0.3c0.2,0.2,0.3,0.4,0.3,0.6s-0.1,0.6-0.2,0.9L574.2,264z"/>
	</g>
</g>
<g>
	<g>
		<path class="st1" d="M286.1,238.8h11.1c0.3,0,0.6-0.3,0.6-0.6s-0.3-0.6-0.6-0.6h-11.1c-0.3,0-0.6,0.3-0.6,0.6
			S285.7,238.8,286.1,238.8z"/>
		<path class="st1" d="M289.1,242.9c0,0.3,0.3,0.6,0.6,0.6h11.1c0.3,0,0.6-0.3,0.6-0.6s-0.3-0.6-0.6-0.6h-11.1
			C289.4,242.3,289.1,242.6,289.1,242.9z"/>
		<path class="st1" d="M282.5,243.5h5.1c0.3,0,0.6-0.3,0.6-0.6s-0.3-0.6-0.6-0.6h-5.1c-0.3,0-0.6,0.3-0.6,0.6
			S282.1,243.5,282.5,243.5z"/>
		<path class="st1" d="M282.5,246.6h11.7c0.3,0,0.6-0.3,0.6-0.6s-0.3-0.6-0.6-0.6h-11.7c-0.3,0-0.6,0.3-0.6,0.6
			C281.8,246.3,282.1,246.6,282.5,246.6z"/>
		<path class="st1" d="M282.5,262.6h7.5c0.3,0,0.6-0.3,0.6-0.6s-0.3-0.6-0.6-0.6h-7.5c-0.3,0-0.6,0.3-0.6,0.6
			C281.8,262.4,282.1,262.6,282.5,262.6z"/>
		<path class="st1" d="M319.5,269.5l-1.6-1.6c-0.2-0.2-0.6-0.2-0.9,0c-0.2,0.2-0.2,0.6,0,0.9l1.5,1.5l-1.9,1.9l-5.5-5.5l1.9-1.9l2,2
			c0.2,0.2,0.6,0.2,0.9,0s0.2-0.6,0-0.9l-2.1-2.1c-0.3-0.3-0.8-0.4-1.2-0.2l-1.7-1.7c2.2-3.3,2.4-7.6,0.4-11c0.1,0,0.3-0.1,0.4-0.1
			c0.4-0.1,0.6-0.4,0.6-0.8s-0.2-0.7-0.6-0.8c-1.7-0.5-2.2-1-2.7-2.7c-0.1-0.3-0.4-0.6-0.8-0.6v-10c0-0.6-0.5-1.1-1.1-1.1h-1.3v-1.3
			c0-0.6-0.5-1.1-1.1-1.1h-26.2c-0.6,0-1.1,0.5-1.1,1.1V269c0,0.6,0.5,1.1,1.1,1.1h1.3v1.3c0,0.6,0.5,1.1,1.1,1.1h5.7
			c0.3,0,0.6-0.3,0.6-0.6c0-0.3-0.3-0.6-0.6-0.6H281v-1.1h23.8c0.6,0,1.1-0.5,1.1-1.1v-3.3c0.4-0.1,0.8-0.3,1.1-0.5v6h-17.5
			c-0.3,0-0.6,0.3-0.6,0.6s0.3,0.6,0.6,0.6h17.7c0.6,0,1.1-0.5,1.1-1.1v-6.7l1.6,1.6c-0.2,0.4-0.1,0.9,0.2,1.2l5.7,5.7
			c0.2,0.2,0.5,0.3,0.8,0.3s0.6-0.1,0.8-0.3l2.2-2.2C319.9,270.6,319.9,269.9,319.5,269.5L319.5,269.5z M310.4,249.9
			c-1.1,0.5-1.7,1.1-2.2,2.2c-0.5-1.1-1.1-1.7-2.2-2.2c1.1-0.5,1.7-1.1,2.2-2.2C308.7,248.8,309.3,249.4,310.4,249.9z M304.7,250.7
			c1.7,0.5,2.2,1,2.7,2.7c0.1,0.4,0.4,0.6,0.8,0.6l0,0c0.2,0,0.3,0,0.5-0.1c0.8,2.3,0.2,5-1.6,6.9c-2.6,2.6-6.9,2.6-9.5,0
			s-2.6-6.9,0-9.5c1.3-1.3,3-2,4.7-2c0.6,0,1.3,0.1,1.9,0.3c0,0.1-0.1,0.2-0.1,0.4C304.1,250.3,304.3,250.6,304.7,250.7L304.7,250.7
			z M304.6,268.9h-26v-35.3h26v5.7c0,0.3,0.3,0.6,0.6,0.6c0.3,0,0.6-0.3,0.6-0.6V236h1.1v10.8c-0.4-0.2-0.7-0.4-1.1-0.5v-4.1
			c0-0.3-0.3-0.6-0.6-0.6c-0.3,0-0.6,0.3-0.6,0.6v3.7c-0.8-0.2-1.5-0.3-2.3-0.3c-0.3,0-0.6,0-0.9,0c-0.1-0.2-0.3-0.3-0.5-0.3h-4.4
			c-0.3,0-0.6,0.3-0.6,0.6s0.3,0.6,0.6,0.6h1.6c-1,0.4-1.9,1-2.7,1.8h-12.9c-0.3,0-0.6,0.3-0.6,0.6s0.3,0.6,0.6,0.6h11.6
			c-0.7,0.9-1.2,1.8-1.5,2.8h-10.1c-0.3,0-0.6,0.3-0.6,0.6s0.3,0.6,0.6,0.6h9.7c-0.1,0.6-0.2,1.2-0.3,1.8h-9.5
			c-0.3,0-0.6,0.3-0.6,0.6s0.3,0.6,0.6,0.6h9.5c0,0.6,0.1,1.2,0.3,1.8h-9.8c-0.3,0-0.6,0.3-0.6,0.6c0,0.3,0.3,0.6,0.6,0.6h10.1
			c0.2,0.6,0.5,1.2,0.9,1.8H292c-0.3,0-0.6,0.3-0.6,0.6s0.3,0.6,0.6,0.6h2.3c0.2,0.2,0.4,0.4,0.6,0.7c0.4,0.4,0.9,0.8,1.3,1.1h-13.7
			c-0.3,0-0.6,0.3-0.6,0.6c0,0.3,0.3,0.6,0.6,0.6h16.2c1.2,0.4,2.4,0.7,3.7,0.7c0.8,0,1.6-0.1,2.3-0.3L304.6,268.9L304.6,268.9
			L304.6,268.9z M295.8,262.4c-3.6-3.6-3.6-9.3,0-12.9c1.7-1.7,4-2.7,6.4-2.7c1.5,0,3,0.4,4.3,1.1c-0.3,0.3-0.6,0.6-1.1,0.8
			c-1-0.5-2.1-0.7-3.3-0.7c-2.1,0-4.1,0.8-5.6,2.3c-3.1,3.1-3.1,8.1,0,11.2c1.5,1.5,3.6,2.3,5.6,2.3s4.1-0.8,5.6-2.3
			c2.5-2.5,3-6.2,1.5-9.2c0.2-0.4,0.5-0.7,0.8-1c2,3.5,1.5,8-1.4,11C305.2,266,299.4,266,295.8,262.4L295.8,262.4z M309.1,263.8
			c0.2-0.1,0.3-0.3,0.5-0.5s0.3-0.3,0.5-0.5l1.6,1.6l-1,1L309.1,263.8z"/>
		<path class="st1" d="M298.7,252.8c0,0.3,0.3,0.6,0.6,0.6h5.9c0.3,0,0.6-0.3,0.6-0.6s-0.3-0.6-0.6-0.6h-5.9
			C299,252.1,298.7,252.4,298.7,252.8L298.7,252.8z"/>
		<path class="st1" d="M297.9,255.1c0,0.3,0.3,0.6,0.6,0.6h7.5c0.3,0,0.6-0.3,0.6-0.6s-0.3-0.6-0.6-0.6h-7.5
			C298.2,254.4,297.9,254.7,297.9,255.1L297.9,255.1z"/>
		<path class="st1" d="M306,256.8h-7.5c-0.3,0-0.6,0.3-0.6,0.6c0,0.3,0.3,0.6,0.6,0.6h7.5c0.3,0,0.6-0.3,0.6-0.6
			C306.6,257.1,306.4,256.8,306,256.8z"/>
		<path class="st1" d="M304.2,259.1h-3.8c-0.3,0-0.6,0.3-0.6,0.6s0.3,0.6,0.6,0.6h3.8c0.3,0,0.6-0.3,0.6-0.6
			S304.5,259.1,304.2,259.1z"/>
		<path class="st1" d="M311.2,246.3h0.6v0.6c0,0.3,0.3,0.6,0.6,0.6c0.3,0,0.6-0.3,0.6-0.6v-0.6h0.6c0.3,0,0.6-0.3,0.6-0.6
			s-0.3-0.6-0.6-0.6H313v-0.6c0-0.3-0.3-0.6-0.6-0.6c-0.3,0-0.6,0.3-0.6,0.6v0.6h-0.6c-0.3,0-0.6,0.3-0.6,0.6
			S310.8,246.3,311.2,246.3z"/>
	</g>
</g>
<g>
	<g>
		<path class="st7" d="M443.8,731.4c0,1-0.1,1.8-0.4,2.6s-0.6,1.5-1.1,2.1s-1,1.1-1.7,1.6c-0.7,0.4-1.4,0.8-2.2,1.1
			s-1.6,0.5-2.5,0.6s-1.9,0.2-3,0.2h-7.2c-0.5,0-0.8-0.1-1.2-0.4c-0.3-0.3-0.5-0.7-0.5-1.3v-23.7c0-0.6,0.2-1.1,0.5-1.3
			c0.3-0.3,0.7-0.4,1.2-0.4h6.8c1.7,0,3.1,0.1,4.2,0.4c1.2,0.3,2.1,0.7,2.9,1.3s1.4,1.3,1.8,2.2s0.6,1.9,0.6,3.1
			c0,0.7-0.1,1.3-0.3,1.9c-0.2,0.6-0.4,1.1-0.7,1.6s-0.7,0.9-1.2,1.3c-0.5,0.4-1,0.7-1.6,0.9c0.8,0.1,1.5,0.4,2.1,0.7
			c0.7,0.3,1.2,0.8,1.7,1.4c0.5,0.6,0.9,1.2,1.1,1.9C443.7,729.6,443.8,730.4,443.8,731.4z M436.7,719.9c0-0.5-0.1-1-0.3-1.5
			c-0.2-0.4-0.4-0.8-0.8-1.1c-0.3-0.3-0.8-0.5-1.3-0.7s-1.2-0.2-2-0.2h-2.8v7.1h3.1c0.8,0,1.4-0.1,1.9-0.3s0.9-0.4,1.2-0.8
			c0.3-0.3,0.5-0.7,0.7-1.2C436.6,720.9,436.7,720.4,436.7,719.9z M438.1,731.5c0-0.6-0.1-1.2-0.3-1.7s-0.5-0.9-0.9-1.2
			s-0.9-0.6-1.6-0.8s-1.4-0.3-2.5-0.3h-3.3v7.7h4c0.8,0,1.4-0.1,1.9-0.2c0.5-0.2,1-0.4,1.4-0.7s0.7-0.7,0.9-1.2
			C438,732.7,438.1,732.2,438.1,731.5z"/>
		<path class="st7" d="M460,721.8c0,0.5,0,0.9,0,1.2s-0.1,0.6-0.1,0.8s-0.1,0.3-0.2,0.4c-0.1,0.1-0.2,0.1-0.3,0.1s-0.2,0-0.4-0.1
			c-0.1,0-0.3-0.1-0.5-0.2s-0.4-0.1-0.6-0.2s-0.4-0.1-0.7-0.1s-0.6,0.1-0.9,0.2c-0.3,0.1-0.6,0.3-0.9,0.6s-0.6,0.6-1,1
			c-0.3,0.4-0.7,0.9-1.1,1.6v11.7c0,0.1,0,0.3-0.1,0.4c-0.1,0.1-0.2,0.2-0.4,0.3s-0.5,0.1-0.8,0.2s-0.8,0.1-1.3,0.1s-0.9,0-1.3-0.1
			s-0.6-0.1-0.8-0.2c-0.2-0.1-0.3-0.2-0.4-0.3s-0.1-0.2-0.1-0.4v-18.7c0-0.1,0-0.3,0.1-0.4c0.1-0.1,0.2-0.2,0.4-0.3s0.4-0.1,0.7-0.2
			c0.3,0,0.6-0.1,1.1-0.1c0.4,0,0.8,0,1.1,0.1s0.5,0.1,0.7,0.2s0.3,0.2,0.3,0.3c0.1,0.1,0.1,0.2,0.1,0.4v2.3c0.5-0.7,1-1.3,1.4-1.7
			s0.8-0.8,1.2-1.1s0.8-0.5,1.2-0.6s0.8-0.2,1.2-0.2c0.2,0,0.4,0,0.6,0s0.4,0.1,0.7,0.1c0.2,0,0.4,0.1,0.6,0.2
			c0.2,0.1,0.3,0.1,0.4,0.2c0.1,0.1,0.1,0.1,0.2,0.2c0,0.1,0.1,0.2,0.1,0.3s0,0.4,0.1,0.7C460,720.9,460,721.3,460,721.8z"/>
		<path class="st7" d="M478.2,738.9c0,0.2-0.1,0.3-0.2,0.5c-0.1,0.1-0.4,0.2-0.7,0.2s-0.7,0.1-1.3,0.1s-1.1,0-1.4-0.1
			c-0.3,0-0.5-0.1-0.6-0.2c-0.1-0.1-0.2-0.3-0.2-0.5v-1.5c-0.8,0.8-1.6,1.5-2.6,1.9c-1,0.5-2.1,0.7-3.3,0.7c-1,0-1.9-0.1-2.7-0.4
			c-0.8-0.3-1.6-0.6-2.2-1.2c-0.6-0.5-1.1-1.1-1.4-1.9s-0.5-1.6-0.5-2.6c0-1.1,0.2-2,0.6-2.8s1.1-1.5,1.9-2s1.9-0.9,3.2-1.2
			s2.7-0.4,4.4-0.4h1.8v-1.1c0-0.6-0.1-1.1-0.2-1.5s-0.3-0.8-0.6-1.1s-0.6-0.5-1.1-0.7s-1-0.2-1.7-0.2c-0.9,0-1.7,0.1-2.4,0.3
			s-1.3,0.4-1.8,0.7c-0.5,0.2-1,0.5-1.3,0.7c-0.4,0.2-0.6,0.3-0.9,0.3c-0.2,0-0.3,0-0.4-0.1s-0.2-0.2-0.3-0.4s-0.1-0.4-0.2-0.7
			c0-0.3-0.1-0.6-0.1-0.9c0-0.4,0-0.8,0.1-1c0.1-0.3,0.2-0.5,0.4-0.7s0.5-0.4,1-0.7c0.5-0.2,1.1-0.5,1.7-0.7
			c0.7-0.2,1.4-0.4,2.2-0.5s1.6-0.2,2.4-0.2c1.5,0,2.7,0.1,3.8,0.4c1,0.3,1.9,0.7,2.6,1.3s1.2,1.4,1.5,2.3s0.5,2.1,0.5,3.3
			L478.2,738.9L478.2,738.9z M473.1,730.8h-2c-0.9,0-1.6,0.1-2.2,0.2c-0.6,0.1-1.1,0.3-1.5,0.6s-0.7,0.6-0.8,0.9
			c-0.2,0.4-0.3,0.8-0.3,1.2c0,0.8,0.2,1.4,0.7,1.8c0.5,0.4,1.2,0.7,2.1,0.7c0.7,0,1.4-0.2,2-0.6s1.3-0.9,1.9-1.7L473.1,730.8
			L473.1,730.8z"/>
		<path class="st7" d="M501.4,738.8c0,0.1,0,0.3-0.1,0.4c-0.1,0.1-0.2,0.2-0.4,0.3s-0.5,0.1-0.8,0.2s-0.8,0.1-1.3,0.1
			s-0.9,0-1.3-0.1s-0.6-0.1-0.8-0.2s-0.3-0.2-0.4-0.3s-0.1-0.2-0.1-0.4v-10.7c0-0.9-0.1-1.6-0.2-2.1s-0.3-1-0.6-1.3
			c-0.3-0.4-0.6-0.7-1-0.9s-0.9-0.3-1.4-0.3c-0.7,0-1.4,0.2-2,0.7c-0.7,0.5-1.4,1.2-2.1,2.1v12.5c0,0.1,0,0.3-0.1,0.4
			c-0.1,0.1-0.2,0.2-0.4,0.3s-0.5,0.1-0.8,0.2s-0.8,0.1-1.3,0.1s-0.9,0-1.3-0.1s-0.6-0.1-0.8-0.2c-0.2-0.1-0.3-0.2-0.4-0.3
			s-0.1-0.2-0.1-0.4v-18.7c0-0.1,0-0.3,0.1-0.4c0.1-0.1,0.2-0.2,0.4-0.3s0.4-0.1,0.7-0.2c0.3,0,0.6-0.1,1.1-0.1c0.4,0,0.8,0,1.1,0.1
			s0.5,0.1,0.7,0.2s0.3,0.2,0.3,0.3c0.1,0.1,0.1,0.2,0.1,0.4v2.2c1-1.1,2.1-2,3.2-2.5c1.1-0.6,2.2-0.8,3.3-0.8
			c1.3,0,2.3,0.2,3.2,0.6c0.9,0.4,1.6,1,2.1,1.7s0.9,1.6,1.2,2.5c0.2,1,0.4,2.1,0.4,3.5v11.5H501.4z"/>
		<path class="st7" d="M524.4,738.8c0,0.2,0,0.3-0.1,0.4c-0.1,0.1-0.2,0.2-0.4,0.3s-0.4,0.1-0.7,0.1s-0.6,0-1.1,0
			c-0.4,0-0.8,0-1.1,0s-0.5-0.1-0.7-0.1c-0.2-0.1-0.3-0.2-0.4-0.3c-0.1-0.1-0.1-0.2-0.1-0.4v-2.1c-1,1-2,1.8-3,2.4s-2.2,0.9-3.5,0.9
			c-1.4,0-2.6-0.3-3.6-0.8c-1-0.6-1.8-1.3-2.4-2.2s-1.1-2-1.4-3.3s-0.4-2.6-0.4-4c0-1.7,0.2-3.2,0.5-4.5c0.4-1.3,0.9-2.5,1.6-3.4
			s1.5-1.7,2.6-2.2c1-0.5,2.2-0.8,3.5-0.8c1,0,2,0.2,2.9,0.6c0.9,0.4,1.7,1.1,2.5,1.9v-10.1c0-0.1,0-0.3,0.1-0.4
			c0.1-0.1,0.2-0.2,0.4-0.3s0.5-0.1,0.8-0.2s0.8-0.1,1.3-0.1s0.9,0,1.3,0.1s0.6,0.1,0.8,0.2s0.3,0.2,0.4,0.3s0.1,0.2,0.1,0.4
			L524.4,738.8L524.4,738.8L524.4,738.8z M519.1,726.3c-0.8-1-1.5-1.7-2.2-2.2s-1.4-0.8-2.2-0.8c-0.7,0-1.3,0.2-1.8,0.5
			s-0.9,0.8-1.2,1.4c-0.3,0.6-0.5,1.2-0.7,1.9c-0.1,0.7-0.2,1.4-0.2,2.2s0.1,1.5,0.2,2.3s0.3,1.4,0.6,2s0.7,1,1.1,1.4
			c0.5,0.3,1.1,0.5,1.8,0.5c0.4,0,0.7-0.1,1.1-0.2c0.3-0.1,0.7-0.3,1-0.5c0.4-0.2,0.7-0.5,1.1-0.9c0.4-0.4,0.8-0.9,1.2-1.4v-6.2
			H519.1z"/>
		<path class="st7" d="M555.3,738.9c0,0.2-0.1,0.3-0.2,0.5c-0.1,0.1-0.4,0.2-0.7,0.2s-0.7,0.1-1.3,0.1s-1.1,0-1.4-0.1
			c-0.3,0-0.5-0.1-0.6-0.2c-0.1-0.1-0.2-0.3-0.2-0.5v-1.5c-0.8,0.8-1.6,1.5-2.6,1.9c-1,0.5-2.1,0.7-3.3,0.7c-1,0-1.9-0.1-2.7-0.4
			c-0.8-0.3-1.6-0.6-2.2-1.2c-0.6-0.5-1.1-1.1-1.4-1.9s-0.5-1.6-0.5-2.6c0-1.1,0.2-2,0.6-2.8c0.4-0.8,1.1-1.5,1.9-2
			c0.8-0.5,1.9-0.9,3.2-1.2s2.7-0.4,4.4-0.4h1.8v-1.1c0-0.6-0.1-1.1-0.2-1.5c-0.1-0.4-0.3-0.8-0.6-1.1s-0.6-0.5-1.1-0.7
			s-1-0.2-1.7-0.2c-0.9,0-1.7,0.1-2.4,0.3s-1.3,0.4-1.8,0.7c-0.5,0.2-1,0.5-1.3,0.7c-0.4,0.2-0.6,0.3-0.9,0.3c-0.2,0-0.3,0-0.4-0.1
			c-0.1-0.1-0.2-0.2-0.3-0.4s-0.1-0.4-0.2-0.7c0-0.3-0.1-0.6-0.1-0.9c0-0.4,0-0.8,0.1-1c0.1-0.3,0.2-0.5,0.4-0.7s0.5-0.4,1-0.7
			c0.5-0.2,1.1-0.5,1.7-0.7c0.7-0.2,1.4-0.4,2.2-0.5s1.6-0.2,2.4-0.2c1.5,0,2.7,0.1,3.8,0.4c1,0.3,1.9,0.7,2.6,1.3s1.2,1.4,1.5,2.3
			c0.3,0.9,0.5,2.1,0.5,3.3V738.9z M550.2,730.8h-2c-0.9,0-1.6,0.1-2.2,0.2c-0.6,0.1-1.1,0.3-1.5,0.6s-0.7,0.6-0.8,0.9
			c-0.2,0.4-0.3,0.8-0.3,1.2c0,0.8,0.2,1.4,0.7,1.8c0.5,0.4,1.2,0.7,2.1,0.7c0.7,0,1.4-0.2,2-0.6c0.6-0.4,1.3-0.9,1.9-1.7
			L550.2,730.8L550.2,730.8z"/>
		<path class="st7" d="M578.4,738.8c0,0.1,0,0.3-0.1,0.4c-0.1,0.1-0.2,0.2-0.4,0.3s-0.4,0.1-0.7,0.2c-0.3,0-0.6,0.1-1.1,0.1
			s-0.8,0-1.1-0.1s-0.5-0.1-0.7-0.2s-0.3-0.2-0.4-0.3c-0.1-0.1-0.1-0.2-0.1-0.4v-2.2c-1,1.1-2.1,2-3.2,2.5c-1.1,0.6-2.2,0.8-3.3,0.8
			c-1.3,0-2.4-0.2-3.2-0.6s-1.6-1-2.1-1.7s-0.9-1.6-1.2-2.5c-0.2-1-0.3-2.2-0.3-3.6V720c0-0.1,0-0.3,0.1-0.4
			c0.1-0.1,0.2-0.2,0.4-0.3s0.5-0.1,0.8-0.2s0.8-0.1,1.3-0.1s0.9,0,1.3,0.1s0.6,0.1,0.8,0.2s0.3,0.2,0.4,0.3
			c0.1,0.1,0.1,0.2,0.1,0.4v10.6c0,1,0.1,1.7,0.2,2.2c0.1,0.5,0.3,1,0.6,1.3c0.3,0.4,0.6,0.7,1,0.9s0.9,0.3,1.4,0.3
			c0.7,0,1.3-0.2,2-0.7s1.4-1.2,2.2-2.1V720c0-0.1,0-0.3,0.1-0.4c0.1-0.1,0.2-0.2,0.4-0.3s0.5-0.1,0.8-0.2s0.8-0.1,1.3-0.1
			s0.9,0,1.3,0.1s0.6,0.1,0.8,0.2s0.3,0.2,0.4,0.3c0.1,0.1,0.1,0.2,0.1,0.4v18.8H578.4z"/>
		<path class="st7" d="M594.8,736.9c0,0.6,0,1.1-0.1,1.4c-0.1,0.3-0.2,0.6-0.3,0.7s-0.3,0.3-0.6,0.4c-0.2,0.1-0.5,0.2-0.9,0.3
			c-0.3,0.1-0.7,0.1-1.1,0.2c-0.4,0-0.8,0.1-1.2,0.1c-1,0-2-0.1-2.7-0.4c-0.8-0.3-1.4-0.7-1.9-1.2s-0.9-1.3-1.1-2.1s-0.4-1.8-0.4-3
			v-9.6h-2.2c-0.3,0-0.5-0.2-0.6-0.5s-0.2-0.9-0.2-1.6c0-0.4,0-0.7,0.1-1c0-0.3,0.1-0.5,0.2-0.7c0.1-0.2,0.2-0.3,0.3-0.3
			c0.1-0.1,0.2-0.1,0.4-0.1h2.2v-4.2c0-0.1,0-0.3,0.1-0.4c0.1-0.1,0.2-0.2,0.4-0.3s0.5-0.1,0.8-0.2c0.3,0,0.8-0.1,1.3-0.1
			s0.9,0,1.3,0.1c0.3,0,0.6,0.1,0.8,0.2c0.2,0.1,0.3,0.2,0.4,0.3c0.1,0.1,0.1,0.2,0.1,0.4v4.2h4.1c0.1,0,0.3,0,0.4,0.1
			c0.1,0.1,0.2,0.2,0.3,0.3c0.1,0.2,0.1,0.4,0.2,0.7c0,0.3,0.1,0.6,0.1,1c0,0.8-0.1,1.3-0.2,1.6s-0.3,0.5-0.6,0.5h-4.1v8.8
			c0,1,0.2,1.8,0.5,2.3s0.9,0.8,1.7,0.8c0.3,0,0.5,0,0.8-0.1c0.2,0,0.4-0.1,0.6-0.2c0.2-0.1,0.3-0.1,0.4-0.2c0.1,0,0.2-0.1,0.3-0.1
			s0.2,0,0.2,0.1c0.1,0,0.1,0.1,0.2,0.3c0,0.1,0.1,0.3,0.1,0.6S594.8,736.6,594.8,736.9z"/>
		<path class="st7" d="M616.5,738.8c0,0.1,0,0.3-0.1,0.4c-0.1,0.1-0.2,0.2-0.4,0.3s-0.5,0.1-0.8,0.2s-0.8,0.1-1.3,0.1
			s-0.9,0-1.3-0.1s-0.6-0.1-0.8-0.2c-0.2-0.1-0.3-0.2-0.4-0.3c-0.1-0.1-0.1-0.2-0.1-0.4v-10.7c0-0.9-0.1-1.6-0.2-2.1
			c-0.1-0.5-0.3-1-0.6-1.3c-0.3-0.4-0.6-0.7-1-0.9s-0.9-0.3-1.4-0.3c-0.7,0-1.4,0.2-2,0.7c-0.7,0.5-1.4,1.2-2.1,2.1v12.5
			c0,0.1,0,0.3-0.1,0.4c-0.1,0.1-0.2,0.2-0.4,0.3s-0.5,0.1-0.8,0.2s-0.8,0.1-1.3,0.1s-0.9,0-1.3-0.1s-0.6-0.1-0.8-0.2
			c-0.2-0.1-0.3-0.2-0.4-0.3c-0.1-0.1-0.1-0.2-0.1-0.4v-27.6c0-0.1,0-0.3,0.1-0.4c0.1-0.1,0.2-0.2,0.4-0.3s0.5-0.1,0.8-0.2
			c0.3,0,0.8-0.1,1.3-0.1s0.9,0,1.3,0.1c0.3,0,0.6,0.1,0.8,0.2c0.2,0.1,0.3,0.2,0.4,0.3c0.1,0.1,0.1,0.2,0.1,0.4v10.4
			c0.9-0.9,1.8-1.6,2.8-2c0.9-0.4,1.9-0.7,2.9-0.7c1.3,0,2.3,0.2,3.2,0.6c0.9,0.4,1.6,1,2.1,1.7s0.9,1.6,1.2,2.6
			c0.2,1,0.4,2.2,0.4,3.5v11.5H616.5z"/>
		<path class="st7" d="M639,728.9c0,0.6-0.1,1.1-0.4,1.4s-0.7,0.5-1.2,0.5H626c0,0.8,0.1,1.5,0.3,2.2s0.5,1.2,0.9,1.7s0.9,0.8,1.6,1
			c0.7,0.2,1.4,0.4,2.3,0.4c0.9,0,1.7-0.1,2.4-0.2c0.7-0.1,1.3-0.3,1.8-0.4c0.5-0.2,0.9-0.3,1.3-0.4c0.3-0.1,0.6-0.2,0.8-0.2
			c0.1,0,0.2,0,0.3,0.1c0.1,0,0.2,0.1,0.2,0.3c0.1,0.1,0.1,0.3,0.1,0.5s0,0.5,0,0.9c0,0.3,0,0.6,0,0.8s0,0.4-0.1,0.6
			c0,0.2-0.1,0.3-0.1,0.4c-0.1,0.1-0.1,0.2-0.2,0.3s-0.3,0.2-0.7,0.4s-0.9,0.3-1.6,0.5c-0.6,0.2-1.4,0.3-2.2,0.4
			c-0.8,0.1-1.7,0.2-2.6,0.2c-1.7,0-3.1-0.2-4.4-0.6c-1.3-0.4-2.3-1.1-3.1-1.9s-1.5-1.9-1.9-3.2s-0.6-2.8-0.6-4.6
			c0-1.7,0.2-3.2,0.7-4.5c0.4-1.3,1.1-2.5,1.9-3.4c0.8-0.9,1.8-1.6,3-2.1s2.5-0.7,4-0.7c1.6,0,2.9,0.2,4,0.7s2,1.1,2.7,1.9
			c0.7,0.8,1.2,1.8,1.6,2.9s0.5,2.3,0.5,3.7L639,728.9L639,728.9L639,728.9z M633.8,727.4c0-1.5-0.3-2.6-0.9-3.5
			c-0.6-0.8-1.6-1.3-3-1.3c-0.7,0-1.3,0.1-1.8,0.4s-0.9,0.6-1.2,1s-0.6,0.9-0.8,1.5s-0.3,1.2-0.3,1.9L633.8,727.4L633.8,727.4z"/>
		<path class="st7" d="M661.2,738.8c0,0.1,0,0.3-0.1,0.4c-0.1,0.1-0.2,0.2-0.4,0.3s-0.5,0.1-0.8,0.2s-0.8,0.1-1.3,0.1
			s-0.9,0-1.3-0.1s-0.6-0.1-0.8-0.2c-0.2-0.1-0.3-0.2-0.4-0.3c-0.1-0.1-0.1-0.2-0.1-0.4v-10.7c0-0.9-0.1-1.6-0.2-2.1
			c-0.1-0.5-0.3-1-0.6-1.3c-0.3-0.4-0.6-0.7-1-0.9s-0.9-0.3-1.4-0.3c-0.7,0-1.4,0.2-2,0.7c-0.7,0.5-1.4,1.2-2.1,2.1v12.5
			c0,0.1,0,0.3-0.1,0.4c-0.1,0.1-0.2,0.2-0.4,0.3s-0.5,0.1-0.8,0.2s-0.8,0.1-1.3,0.1s-0.9,0-1.3-0.1s-0.6-0.1-0.8-0.2
			c-0.2-0.1-0.3-0.2-0.4-0.3c-0.1-0.1-0.1-0.2-0.1-0.4v-18.7c0-0.1,0-0.3,0.1-0.4c0.1-0.1,0.2-0.2,0.4-0.3s0.4-0.1,0.7-0.2
			c0.3,0,0.6-0.1,1.1-0.1c0.4,0,0.8,0,1.1,0.1c0.3,0,0.5,0.1,0.7,0.2s0.3,0.2,0.3,0.3c0.1,0.1,0.1,0.2,0.1,0.4v2.2
			c1-1.1,2.1-2,3.2-2.5c1.1-0.6,2.2-0.8,3.3-0.8c1.3,0,2.3,0.2,3.2,0.6c0.9,0.4,1.6,1,2.1,1.7s0.9,1.6,1.2,2.5
			c0.2,1,0.4,2.1,0.4,3.5v11.5H661.2z"/>
		<path class="st7" d="M677.1,736.9c0,0.6,0,1.1-0.1,1.4c-0.1,0.3-0.2,0.6-0.3,0.7s-0.3,0.3-0.6,0.4c-0.2,0.1-0.5,0.2-0.9,0.3
			c-0.3,0.1-0.7,0.1-1.1,0.2c-0.4,0-0.8,0.1-1.2,0.1c-1,0-2-0.1-2.7-0.4c-0.8-0.3-1.4-0.7-1.9-1.2s-0.9-1.3-1.1-2.1s-0.4-1.8-0.4-3
			v-9.6h-2.2c-0.3,0-0.5-0.2-0.6-0.5s-0.2-0.9-0.2-1.6c0-0.4,0-0.7,0.1-1c0-0.3,0.1-0.5,0.2-0.7c0.1-0.2,0.2-0.3,0.3-0.3
			c0.1-0.1,0.2-0.1,0.4-0.1h2.2v-4.2c0-0.1,0-0.3,0.1-0.4c0.1-0.1,0.2-0.2,0.4-0.3s0.5-0.1,0.8-0.2c0.3,0,0.8-0.1,1.3-0.1
			s0.9,0,1.3,0.1c0.3,0,0.6,0.1,0.8,0.2c0.2,0.1,0.3,0.2,0.4,0.3c0.1,0.1,0.1,0.2,0.1,0.4v4.2h4.1c0.1,0,0.3,0,0.4,0.1
			c0.1,0.1,0.2,0.2,0.3,0.3c0.1,0.2,0.1,0.4,0.2,0.7c0,0.3,0.1,0.6,0.1,1c0,0.8-0.1,1.3-0.2,1.6s-0.3,0.5-0.6,0.5h-4.1v8.8
			c0,1,0.2,1.8,0.5,2.3s0.9,0.8,1.7,0.8c0.3,0,0.5,0,0.8-0.1c0.2,0,0.4-0.1,0.6-0.2c0.2-0.1,0.3-0.1,0.4-0.2c0.1,0,0.2-0.1,0.3-0.1
			s0.2,0,0.2,0.1c0.1,0,0.1,0.1,0.2,0.3c0,0.1,0.1,0.3,0.1,0.6S677.1,736.6,677.1,736.9z"/>
		<path class="st7" d="M694.5,735.8c0,0.4,0,0.7,0,0.9s0,0.5-0.1,0.6s-0.1,0.3-0.1,0.4c0,0.1-0.2,0.2-0.3,0.4
			c-0.2,0.2-0.5,0.4-0.9,0.6c-0.4,0.2-0.9,0.4-1.4,0.6c-0.5,0.2-1.1,0.3-1.7,0.4c-0.6,0.1-1.2,0.2-1.9,0.2c-1.4,0-2.7-0.2-3.8-0.7
			c-1.1-0.4-2-1.1-2.8-2s-1.3-1.9-1.7-3.2s-0.6-2.7-0.6-4.3c0-1.9,0.2-3.5,0.7-4.9s1.1-2.5,2-3.4s1.8-1.6,3-2
			c1.1-0.4,2.4-0.7,3.8-0.7c0.6,0,1.1,0,1.6,0.1s1,0.2,1.5,0.4s0.9,0.4,1.3,0.6c0.4,0.2,0.6,0.4,0.8,0.5c0.2,0.2,0.3,0.3,0.3,0.4
			c0.1,0.1,0.1,0.2,0.1,0.4s0.1,0.4,0.1,0.6c0,0.2,0,0.5,0,0.9c0,0.8-0.1,1.4-0.2,1.7c-0.1,0.3-0.3,0.5-0.5,0.5s-0.5-0.1-0.8-0.3
			s-0.6-0.4-0.9-0.7c-0.4-0.2-0.8-0.5-1.3-0.7s-1.1-0.3-1.8-0.3c-1.4,0-2.4,0.5-3.1,1.6c-0.7,1.1-1.1,2.6-1.1,4.7
			c0,1,0.1,1.9,0.3,2.7s0.5,1.4,0.8,1.9c0.4,0.5,0.8,0.9,1.3,1.2s1.2,0.4,1.9,0.4s1.4-0.1,1.9-0.3s1-0.5,1.4-0.7s0.7-0.5,1-0.7
			s0.5-0.3,0.7-0.3c0.1,0,0.2,0,0.3,0.1s0.2,0.2,0.2,0.4s0.1,0.4,0.1,0.7C694.5,735,694.5,735.3,694.5,735.8z"/>
		<path class="st7" d="M704,713.7c0,1.1-0.2,1.8-0.7,2.2c-0.4,0.4-1.2,0.6-2.4,0.6s-2-0.2-2.4-0.6c-0.4-0.4-0.6-1.1-0.6-2.1
			c0-1.1,0.2-1.8,0.6-2.2c0.4-0.4,1.2-0.6,2.4-0.6s2,0.2,2.4,0.6C703.8,712,704,712.7,704,713.7z M703.6,738.8c0,0.1,0,0.3-0.1,0.4
			c-0.1,0.1-0.2,0.2-0.4,0.3s-0.5,0.1-0.8,0.2s-0.8,0.1-1.3,0.1s-0.9,0-1.3-0.1s-0.6-0.1-0.8-0.2c-0.2-0.1-0.3-0.2-0.4-0.3
			c-0.1-0.1-0.1-0.2-0.1-0.4v-18.7c0-0.1,0-0.3,0.1-0.4c0.1-0.1,0.2-0.2,0.4-0.3s0.5-0.1,0.8-0.2c0.3,0,0.8-0.1,1.3-0.1
			s0.9,0,1.3,0.1c0.3,0,0.6,0.1,0.8,0.2c0.2,0.1,0.3,0.2,0.4,0.3c0.1,0.1,0.1,0.2,0.1,0.4V738.8z"/>
		<path class="st7" d="M720,736.9c0,0.6,0,1.1-0.1,1.4c-0.1,0.3-0.2,0.6-0.3,0.7s-0.3,0.3-0.6,0.4c-0.2,0.1-0.5,0.2-0.9,0.3
			c-0.3,0.1-0.7,0.1-1.1,0.2c-0.4,0-0.8,0.1-1.2,0.1c-1,0-2-0.1-2.7-0.4c-0.8-0.3-1.4-0.7-1.9-1.2s-0.9-1.3-1.1-2.1s-0.4-1.8-0.4-3
			v-9.6h-2.2c-0.3,0-0.5-0.2-0.6-0.5s-0.2-0.9-0.2-1.6c0-0.4,0-0.7,0.1-1c0-0.3,0.1-0.5,0.2-0.7c0.1-0.2,0.2-0.3,0.3-0.3
			c0.1-0.1,0.2-0.1,0.4-0.1h2.2v-4.2c0-0.1,0-0.3,0.1-0.4c0.1-0.1,0.2-0.2,0.4-0.3s0.5-0.1,0.8-0.2c0.3,0,0.8-0.1,1.3-0.1
			s0.9,0,1.3,0.1c0.3,0,0.6,0.1,0.8,0.2c0.2,0.1,0.3,0.2,0.4,0.3c0.1,0.1,0.1,0.2,0.1,0.4v4.2h4.1c0.1,0,0.3,0,0.4,0.1
			c0.1,0.1,0.2,0.2,0.3,0.3c0.1,0.2,0.1,0.4,0.2,0.7c0,0.3,0.1,0.6,0.1,1c0,0.8-0.1,1.3-0.2,1.6s-0.3,0.5-0.6,0.5h-4.3v8.8
			c0,1,0.2,1.8,0.5,2.3s0.9,0.8,1.7,0.8c0.3,0,0.5,0,0.8-0.1c0.2,0,0.4-0.1,0.6-0.2c0.2-0.1,0.3-0.1,0.4-0.2c0.1,0,0.2-0.1,0.3-0.1
			s0.2,0,0.2,0.1c0.1,0,0.1,0.1,0.2,0.3c0,0.1,0.1,0.3,0.1,0.6S720,736.6,720,736.9z"/>
		<path class="st7" d="M734.7,739.5l-2.3,6.6c-0.1,0.3-0.5,0.6-1,0.8s-1.4,0.2-2.5,0.2c-0.6,0-1,0-1.3-0.1s-0.6-0.1-0.8-0.2
			s-0.3-0.3-0.3-0.4s0-0.4,0.1-0.6l2.5-6.3c-0.2-0.1-0.3-0.2-0.5-0.4c-0.1-0.2-0.3-0.4-0.3-0.6l-6.4-17.2c-0.2-0.5-0.3-0.9-0.3-1.1
			c0-0.3,0.1-0.5,0.3-0.6s0.5-0.2,0.9-0.3s0.9-0.1,1.6-0.1c0.6,0,1.1,0,1.4,0c0.3,0,0.6,0.1,0.8,0.2c0.2,0.1,0.3,0.2,0.4,0.4
			c0.1,0.2,0.2,0.4,0.3,0.7l4.4,12.5h0.1l4-12.8c0.1-0.4,0.2-0.6,0.3-0.7c0.1-0.1,0.4-0.2,0.7-0.3s0.8-0.1,1.6-0.1
			c0.6,0,1.1,0,1.5,0.1s0.7,0.2,0.9,0.3c0.2,0.2,0.3,0.4,0.3,0.6s-0.1,0.6-0.2,0.9L734.7,739.5z"/>
	</g>
</g>
<g>
	<g>
		<path class="st7" d="M387,589c0,1.4-0.3,2.7-0.8,3.8s-1.3,2-2.2,2.7c-0.9,0.7-2,1.3-3.2,1.6c-1.2,0.4-2.5,0.5-3.9,0.5
			c-0.9,0-1.8-0.1-2.6-0.2c-0.8-0.2-1.5-0.3-2.1-0.6c-0.6-0.2-1.1-0.4-1.5-0.7c-0.4-0.2-0.7-0.4-0.9-0.6c-0.2-0.2-0.3-0.4-0.4-0.8
			c-0.1-0.3-0.1-0.8-0.1-1.5c0-0.4,0-0.8,0-1.1s0.1-0.5,0.1-0.7c0.1-0.2,0.1-0.3,0.3-0.4c0.1-0.1,0.2-0.1,0.4-0.1
			c0.2,0,0.5,0.1,0.8,0.3c0.4,0.2,0.8,0.5,1.4,0.8s1.2,0.5,2,0.8c0.8,0.2,1.7,0.3,2.7,0.3c0.7,0,1.3-0.1,1.8-0.2
			c0.5-0.2,1-0.4,1.4-0.7s0.7-0.7,0.9-1.1c0.2-0.4,0.3-0.9,0.3-1.4c0-0.6-0.2-1.1-0.5-1.6c-0.3-0.4-0.8-0.8-1.3-1.2
			c-0.5-0.3-1.2-0.7-1.8-1c-0.7-0.3-1.4-0.6-2.1-1c-0.7-0.3-1.4-0.7-2.1-1.1c-0.7-0.4-1.3-0.9-1.8-1.5s-1-1.3-1.3-2.1
			s-0.5-1.8-0.5-2.9c0-1.3,0.2-2.4,0.7-3.4s1.1-1.8,2-2.5c0.8-0.7,1.8-1.1,2.9-1.5c1.1-0.3,2.3-0.5,3.5-0.5c0.6,0,1.3,0,1.9,0.1
			s1.2,0.2,1.8,0.4c0.6,0.2,1.1,0.4,1.5,0.6c0.4,0.2,0.7,0.4,0.9,0.5c0.1,0.1,0.2,0.3,0.3,0.4c0,0.1,0.1,0.2,0.1,0.4
			s0.1,0.4,0.1,0.6c0,0.2,0,0.5,0,0.9s0,0.7,0,1s-0.1,0.5-0.1,0.7s-0.1,0.3-0.2,0.4c-0.1,0.1-0.2,0.1-0.4,0.1
			c-0.2,0-0.4-0.1-0.7-0.3s-0.7-0.4-1.2-0.6c-0.5-0.2-1.1-0.4-1.7-0.6c-0.6-0.2-1.4-0.3-2.1-0.3c-0.6,0-1.1,0.1-1.6,0.2
			c-0.4,0.1-0.8,0.3-1.1,0.6c-0.3,0.3-0.5,0.6-0.7,0.9c-0.1,0.4-0.2,0.7-0.2,1.2c0,0.6,0.2,1.1,0.5,1.6c0.3,0.4,0.8,0.8,1.3,1.2
			c0.6,0.3,1.2,0.7,1.9,1c0.7,0.3,1.4,0.6,2.1,1c0.7,0.3,1.4,0.7,2.1,1.1c0.7,0.4,1.3,0.9,1.9,1.5s1,1.3,1.3,2.1S387,587.9,387,589z
			"/>
		<path class="st7" d="M408.2,586.5c0,0.6-0.1,1.1-0.4,1.4c-0.3,0.3-0.7,0.5-1.2,0.5h-11.4c0,0.8,0.1,1.5,0.3,2.2
			c0.2,0.7,0.5,1.2,0.9,1.7s0.9,0.8,1.6,1s1.4,0.4,2.3,0.4s1.7-0.1,2.4-0.2c0.7-0.1,1.3-0.3,1.8-0.4s0.9-0.3,1.3-0.4
			c0.3-0.1,0.6-0.2,0.8-0.2c0.1,0,0.2,0,0.3,0.1c0.1,0,0.2,0.1,0.2,0.3c0.1,0.1,0.1,0.3,0.1,0.5s0,0.5,0,0.9c0,0.3,0,0.6,0,0.8
			s0,0.4-0.1,0.6c0,0.2-0.1,0.3-0.1,0.4c-0.1,0.1-0.1,0.2-0.2,0.3s-0.3,0.2-0.7,0.4s-0.9,0.3-1.6,0.5c-0.6,0.2-1.4,0.3-2.2,0.4
			c-0.8,0.1-1.7,0.2-2.6,0.2c-1.7,0-3.1-0.2-4.4-0.6c-1.3-0.4-2.3-1.1-3.1-1.9s-1.5-1.9-1.9-3.2s-0.6-2.8-0.6-4.6
			c0-1.7,0.2-3.2,0.7-4.5c0.4-1.3,1.1-2.5,1.9-3.4s1.8-1.6,3-2.1s2.5-0.7,4-0.7c1.6,0,2.9,0.2,4,0.7s2,1.1,2.7,1.9
			c0.7,0.8,1.2,1.8,1.6,2.9s0.5,2.3,0.5,3.7v0.4L408.2,586.5L408.2,586.5z M403.1,585c0-1.5-0.3-2.6-0.9-3.5
			c-0.6-0.8-1.6-1.3-2.9-1.3c-0.7,0-1.3,0.1-1.8,0.4c-0.5,0.3-0.9,0.6-1.2,1c-0.3,0.4-0.6,0.9-0.8,1.5c-0.2,0.6-0.3,1.2-0.3,1.9
			L403.1,585L403.1,585z"/>
		<path class="st7" d="M426.7,593.5c0,0.4,0,0.7,0,0.9s0,0.5-0.1,0.6s-0.1,0.3-0.1,0.4c0,0.1-0.2,0.2-0.3,0.4
			c-0.2,0.2-0.5,0.4-0.9,0.6c-0.4,0.2-0.9,0.4-1.4,0.6c-0.5,0.2-1.1,0.3-1.7,0.4c-0.6,0.1-1.2,0.2-1.9,0.2c-1.4,0-2.7-0.2-3.8-0.7
			c-1.1-0.4-2-1.1-2.8-2s-1.3-1.9-1.7-3.2s-0.6-2.7-0.6-4.3c0-1.9,0.2-3.5,0.7-4.9s1.1-2.5,2-3.4s1.8-1.6,3-2
			c1.1-0.4,2.4-0.7,3.8-0.7c0.6,0,1.1,0,1.6,0.1s1,0.2,1.5,0.4s0.9,0.4,1.3,0.6c0.4,0.2,0.6,0.4,0.8,0.5c0.2,0.2,0.3,0.3,0.3,0.4
			c0.1,0.1,0.1,0.2,0.1,0.4s0.1,0.4,0.1,0.6c0,0.2,0,0.5,0,0.9c0,0.8-0.1,1.4-0.2,1.7s-0.3,0.5-0.5,0.5s-0.5-0.1-0.8-0.3
			s-0.6-0.4-0.9-0.7c-0.4-0.2-0.8-0.5-1.3-0.7s-1.1-0.3-1.8-0.3c-1.4,0-2.4,0.5-3.1,1.6s-1.1,2.6-1.1,4.7c0,1,0.1,1.9,0.3,2.7
			s0.5,1.4,0.8,1.9c0.4,0.5,0.8,0.9,1.3,1.2s1.2,0.4,1.9,0.4c0.7,0,1.4-0.1,1.9-0.3s1-0.5,1.4-0.7c0.4-0.3,0.7-0.5,1-0.7
			s0.5-0.3,0.7-0.3c0.1,0,0.2,0,0.3,0.1c0.1,0.1,0.2,0.2,0.2,0.4s0.1,0.4,0.1,0.7S426.7,593,426.7,593.5z"/>
		<path class="st7" d="M448.3,596.4c0,0.1,0,0.3-0.1,0.4c-0.1,0.1-0.2,0.2-0.4,0.3c-0.2,0.1-0.4,0.1-0.7,0.2s-0.6,0.1-1.1,0.1
			s-0.8,0-1.1-0.1c-0.3,0-0.5-0.1-0.7-0.2s-0.3-0.2-0.4-0.3s-0.1-0.2-0.1-0.4v-2.2c-1,1.1-2.1,2-3.2,2.5c-1.1,0.6-2.2,0.8-3.3,0.8
			c-1.3,0-2.4-0.2-3.2-0.6c-0.9-0.4-1.6-1-2.1-1.7s-0.9-1.6-1.2-2.5c-0.2-1-0.3-2.2-0.3-3.6v-11.5c0-0.1,0-0.3,0.1-0.4
			c0.1-0.1,0.2-0.2,0.4-0.3s0.5-0.1,0.8-0.2c0.3,0,0.8-0.1,1.3-0.1s0.9,0,1.3,0.1s0.6,0.1,0.8,0.2c0.2,0.1,0.3,0.2,0.4,0.3
			s0.1,0.2,0.1,0.4v10.6c0,1,0.1,1.7,0.2,2.2s0.3,1,0.6,1.3s0.6,0.7,1,0.9s0.9,0.3,1.4,0.3c0.7,0,1.3-0.2,2-0.7s1.4-1.2,2.2-2.1
			v-12.5c0-0.1,0-0.3,0.1-0.4c0.1-0.1,0.2-0.2,0.4-0.3c0.2-0.1,0.5-0.1,0.8-0.2s0.8-0.1,1.3-0.1s0.9,0,1.3,0.1s0.6,0.1,0.8,0.2
			s0.3,0.2,0.4,0.3s0.1,0.2,0.1,0.4v18.8H448.3z"/>
		<path class="st7" d="M465.7,579.4c0,0.5,0,0.9,0,1.2s-0.1,0.6-0.1,0.8s-0.1,0.3-0.2,0.4c-0.1,0.1-0.2,0.1-0.3,0.1s-0.2,0-0.4-0.1
			c-0.1,0-0.3-0.1-0.5-0.2s-0.4-0.1-0.6-0.2s-0.4-0.1-0.7-0.1s-0.6,0.1-0.9,0.2c-0.3,0.1-0.6,0.3-0.9,0.6s-0.6,0.6-1,1
			c-0.3,0.4-0.7,0.9-1.1,1.6v11.7c0,0.1,0,0.3-0.1,0.4c-0.1,0.1-0.2,0.2-0.4,0.3s-0.5,0.1-0.8,0.2s-0.8,0.1-1.3,0.1s-0.9,0-1.3-0.1
			s-0.6-0.1-0.8-0.2c-0.2-0.1-0.3-0.2-0.4-0.3s-0.1-0.2-0.1-0.4v-18.7c0-0.1,0-0.3,0.1-0.4c0.1-0.1,0.2-0.2,0.4-0.3s0.4-0.1,0.7-0.2
			c0.3,0,0.6-0.1,1.1-0.1c0.4,0,0.8,0,1.1,0.1s0.5,0.1,0.7,0.2s0.3,0.2,0.3,0.3c0.1,0.1,0.1,0.2,0.1,0.4v2.3c0.5-0.7,1-1.3,1.4-1.7
			s0.8-0.8,1.2-1.1s0.8-0.5,1.2-0.6s0.8-0.2,1.2-0.2c0.2,0,0.4,0,0.6,0s0.4,0.1,0.7,0.1c0.2,0,0.4,0.1,0.6,0.2
			c0.2,0.1,0.3,0.1,0.4,0.2c0.1,0.1,0.1,0.1,0.2,0.2c0,0.1,0.1,0.2,0.1,0.3s0,0.4,0.1,0.7C465.7,578.5,465.7,578.9,465.7,579.4z"/>
		<path class="st7" d="M474.6,571.4c0,1.1-0.2,1.8-0.7,2.2c-0.4,0.4-1.2,0.6-2.4,0.6s-2-0.2-2.4-0.6c-0.4-0.4-0.6-1.1-0.6-2.1
			c0-1.1,0.2-1.8,0.6-2.2s1.2-0.6,2.4-0.6s2,0.2,2.4,0.6C474.4,569.6,474.6,570.3,474.6,571.4z M474.2,596.4c0,0.1,0,0.3-0.1,0.4
			c-0.1,0.1-0.2,0.2-0.4,0.3s-0.5,0.1-0.8,0.2s-0.8,0.1-1.3,0.1s-0.9,0-1.3-0.1s-0.6-0.1-0.8-0.2c-0.2-0.1-0.3-0.2-0.4-0.3
			s-0.1-0.2-0.1-0.4v-18.7c0-0.1,0-0.3,0.1-0.4c0.1-0.1,0.2-0.2,0.4-0.3s0.5-0.1,0.8-0.2c0.3,0,0.8-0.1,1.3-0.1s0.9,0,1.3,0.1
			c0.3,0,0.6,0.1,0.8,0.2c0.2,0.1,0.3,0.2,0.4,0.3s0.1,0.2,0.1,0.4V596.4z"/>
		<path class="st7" d="M490.6,594.6c0,0.6,0,1.1-0.1,1.4c-0.1,0.3-0.2,0.6-0.3,0.7s-0.3,0.3-0.6,0.4c-0.2,0.1-0.5,0.2-0.9,0.3
			c-0.3,0.1-0.7,0.1-1.1,0.2c-0.4,0-0.8,0.1-1.2,0.1c-1,0-2-0.1-2.7-0.4c-0.8-0.3-1.4-0.7-1.9-1.2s-0.9-1.3-1.1-2.1s-0.4-1.8-0.4-3
			v-9.6h-2.2c-0.3,0-0.5-0.2-0.6-0.5s-0.2-0.9-0.2-1.6c0-0.4,0-0.7,0.1-1c0-0.3,0.1-0.5,0.2-0.7s0.2-0.3,0.3-0.3
			c0.1-0.1,0.2-0.1,0.4-0.1h2.2V573c0-0.1,0-0.3,0.1-0.4c0.1-0.1,0.2-0.2,0.4-0.3s0.5-0.1,0.8-0.2c0.3,0,0.8-0.1,1.3-0.1
			s0.9,0,1.3,0.1c0.3,0,0.6,0.1,0.8,0.2c0.2,0.1,0.3,0.2,0.4,0.3s0.1,0.2,0.1,0.4v4.2h4.1c0.1,0,0.3,0,0.4,0.1s0.2,0.2,0.3,0.3
			c0.1,0.2,0.1,0.4,0.2,0.7c0,0.3,0.1,0.6,0.1,1c0,0.8-0.1,1.3-0.2,1.6s-0.3,0.5-0.6,0.5h-4.1v8.8c0,1,0.2,1.8,0.5,2.3
			s0.9,0.8,1.7,0.8c0.3,0,0.5,0,0.8-0.1c0.2,0,0.4-0.1,0.6-0.2c0.2-0.1,0.3-0.1,0.4-0.2c0.1,0,0.2-0.1,0.3-0.1s0.2,0,0.2,0.1
			c0.1,0,0.1,0.1,0.2,0.3c0,0.1,0.1,0.3,0.1,0.6C490.6,593.9,490.6,594.2,490.6,594.6z"/>
		<path class="st7" d="M505.3,597.1l-2.3,6.6c-0.1,0.3-0.5,0.6-1,0.8s-1.4,0.2-2.5,0.2c-0.6,0-1,0-1.3-0.1s-0.6-0.1-0.8-0.2
			s-0.3-0.3-0.3-0.4s0-0.4,0.1-0.6l2.5-6.3c-0.2-0.1-0.3-0.2-0.5-0.4c-0.1-0.2-0.3-0.4-0.3-0.6l-6.4-17.2c-0.2-0.5-0.3-0.9-0.3-1.1
			c0-0.3,0.1-0.5,0.3-0.6s0.5-0.2,0.9-0.3s0.9-0.1,1.6-0.1c0.6,0,1.1,0,1.4,0s0.6,0.1,0.8,0.2c0.2,0.1,0.3,0.2,0.4,0.4
			s0.2,0.4,0.3,0.7l4.4,12.5h0.1l4-12.8c0.1-0.4,0.2-0.6,0.3-0.7c0.1-0.1,0.4-0.2,0.7-0.3s0.8-0.1,1.6-0.1c0.6,0,1.1,0,1.5,0.1
			s0.7,0.2,0.9,0.3c0.2,0.2,0.3,0.4,0.3,0.6s-0.1,0.6-0.2,0.9L505.3,597.1z"/>
	</g>
</g>
<g>
	<g>
		<g>
			<path class="st1" d="M315.9,586.6c-0.8,0-1.4,0.6-1.4,1.4c0,0.5,0.3,1,0.8,1.2v1.7c0,0.3,0.3,0.6,0.6,0.6c0.3,0,0.6-0.3,0.6-0.6
				v-1.7c0.5-0.2,0.8-0.7,0.8-1.2C317.3,587.2,316.7,586.6,315.9,586.6z"/>
		</g>
	</g>
	<g>
		<g>
			<path class="st1" d="M330.5,576.9c-2.5-1-4.5-2.8-5.6-5.2c-0.3-0.6-1-1-1.7-1h-14.6c-0.7,0-1.4,0.4-1.7,1
				c-1.1,2.3-3.1,4.2-5.6,5.2c-0.7,0.3-1.2,1-1.2,1.7v3.6c0,4.7,1.4,9.3,3.9,13.3c2.6,4.1,6.4,7.5,10.9,9.9h0.1
				c0.3,0.1,0.6,0.2,0.9,0.2s0.6-0.1,0.9-0.2h0.1c4.5-2.4,8.3-5.8,10.9-9.9c2.6-4.1,3.9-8.7,3.9-13.3v-3.6
				C331.6,577.8,331.2,577.1,330.5,576.9z M330.5,582.1c0,4.4-1.3,8.8-3.8,12.7s-6.1,7.2-10.4,9.5h-0.1c-0.2,0.1-0.4,0.1-0.6,0h-0.1
				c-4.3-2.3-8-5.6-10.4-9.5c-2.5-3.9-3.8-8.3-3.8-12.7v-3.6c0-0.3,0.2-0.5,0.4-0.6c2.8-1.1,5-3.1,6.2-5.7c0.1-0.2,0.3-0.4,0.6-0.4
				h14.6c0.3,0,0.5,0.1,0.6,0.4c1.2,2.6,3.5,4.6,6.2,5.7c0.3,0.1,0.4,0.3,0.4,0.6v3.6H330.5z"/>
		</g>
	</g>
	<g>
		<g>
			<path class="st1" d="M333.4,587.7c-0.3-0.1-0.6,0.1-0.7,0.4c-1.8,7.9-7.2,14.7-14.9,18.7l-1.8,0.9c-0.1,0.1-0.3,0.1-0.4,0
				l-1.8-0.9c-7.7-4-13.1-10.9-14.9-18.8c-0.1-0.3-0.4-0.5-0.7-0.4c-0.3,0.1-0.5,0.4-0.4,0.7c1.8,8.2,7.5,15.3,15.5,19.5l1.8,0.9
				c0.2,0.1,0.5,0.2,0.7,0.2s0.5-0.1,0.7-0.2l1.8-0.9c8-4.2,13.6-11.3,15.5-19.5C333.9,588.1,333.7,587.8,333.4,587.7z"/>
		</g>
	</g>
	<g>
		<g>
			<path class="st1" d="M333.1,574.6c-3.1-0.3-5.6-2.5-6-5.3c-0.1-0.8-0.8-1.4-1.5-1.4h-19.5c-0.8,0-1.4,0.6-1.5,1.4
				c-0.4,2.8-2.8,5-6,5.3c-0.8,0.1-1.4,0.8-1.4,1.6v6.3c0,0.9,0,1.8,0.1,2.7c0,0.3,0.3,0.5,0.6,0.5c0,0,0,0,0.1,0
				c0.3,0,0.6-0.3,0.5-0.6c-0.1-0.9-0.1-1.7-0.1-2.6v-6.3c0-0.2,0.1-0.4,0.3-0.4c3.7-0.4,6.5-3,7-6.3c0-0.2,0.2-0.4,0.4-0.4h19.5
				c0.2,0,0.4,0.1,0.4,0.4c0.5,3.3,3.3,5.9,7,6.3c0.2,0,0.3,0.2,0.3,0.4v6.3c0,0.9,0,1.7-0.1,2.6c0,0.3,0.2,0.6,0.5,0.6
				s0.6-0.2,0.6-0.5c0.1-0.9,0.1-1.8,0.1-2.7v-6.3C334.5,575.4,333.9,574.7,333.1,574.6z"/>
		</g>
	</g>
	<g>
		<g>
			<path class="st1" d="M322.6,582.5h-1v-2.8c0-3.1-2.6-5.7-5.7-5.7s-5.7,2.6-5.7,5.7v2.8h-1c-1,0-1.9,0.8-1.9,1.9v8.4
				c0,1,0.8,1.9,1.9,1.9h13.3c1,0,1.9-0.8,1.9-1.9v-8.4C324.4,583.4,323.6,582.5,322.6,582.5z M311.4,579.7c0-2.5,2-4.5,4.5-4.5
				s4.5,2,4.5,4.5v2.8h-9.1L311.4,579.7L311.4,579.7z M323.3,592.8c0,0.4-0.3,0.7-0.7,0.7h-13.4c-0.4,0-0.7-0.3-0.7-0.7v-8.4
				c0-0.4,0.3-0.7,0.7-0.7h13.3c0.4,0,0.7,0.3,0.7,0.7v8.4H323.3z"/>
		</g>
	</g>
</g>
<g>
	<path class="st1" d="M392,722.7h-1.1l0.1-3.9l-4.9-2.6l-2.6-4.9l-5.6,0.2l-4.7-2.9l-4.7,2.9l-5.6-0.2l-2.6,4.9l-4.9,2.6l0.1,3.9
		h-1.3c-1,0-1.8,0.8-1.8,1.8v9.1c0,1,0.8,1.8,1.8,1.8h1.1l-0.1,3.9l4.9,2.6l2.6,4.9l5.6-0.2l4.7,2.9l4.7-2.9l5.6,0.2l2.6-4.9
		l4.9-2.6l-0.1-3.9h1.1c1,0,1.8-0.8,1.8-1.8v-9.1C393.8,723.5,393,722.7,392,722.7z M356.5,719.4l4.6-2.5l2.5-4.6l5.2,0.1l4.4-2.7
		l4.4,2.7l5.2-0.1l2.5,4.6l4.6,2.5l-0.1,3.2H387c-2.5-5.4-7.8-8.8-13.8-8.8c-2.8,0-5.4,0.7-7.8,2.2l0.6,1c2.2-1.3,4.6-2,7.2-2
		c5.3,0,10,2.9,12.4,7.6h-24.9c1-2,2.5-3.7,4.3-5l-0.7-1c-2.1,1.5-3.8,3.6-4.9,5.9h-2.8L356.5,719.4z M389.7,738.6l-4.6,2.5
		l-2.5,4.6l-5.2-0.1l-4.4,2.7l-4.4-2.7l-5.2,0.1l-2.5-4.6l-4.6-2.5l0.1-3.2h2.8c2.5,5.4,7.8,8.8,13.8,8.8c5.9,0,11.3-3.4,13.8-8.8
		h2.8L389.7,738.6z M392.6,733.6c0,0.3-0.3,0.6-0.6,0.6h-17.1v1.2h10.6c-2.4,4.6-7.2,7.6-12.4,7.6c-5.2,0-10-2.9-12.4-7.6h10.6v-1.2
		h-17.1c-0.3,0-0.6-0.3-0.6-0.6v-9.1c0-0.3,0.3-0.6,0.6-0.6H392c0.3,0,0.6,0.3,0.6,0.6V733.6z"/>
	<path class="st1" d="M372.5,734.2h1.2v1.2h-1.2V734.2z"/>
	<path class="st1" d="M376.7,717.5h1.2v1.2h-1.2V717.5z"/>
	<path class="st1" d="M379.1,718.7h1.2v1.2h-1.2V718.7z"/>
	<path class="st1" d="M372,726l-2.2,5.8l1.1,0.4l0.5-1.4h2.1l0.5,1.4l1.1-0.4l-2.2-5.8H372z M371.9,729.6l0.6-1.6l0.6,1.6H371.9z"/>
	<path class="st1" d="M381.1,729.7l-2.3-3.7h-1.2v6.1h1.2v-3.7l2.3,3.7h1.2v-6h-1.2V729.7z"/>
	<path class="st1" d="M386.6,726h-2v6h2l0,0c1.4,0,2.5-1.3,2.5-3C389.1,727.2,388.1,726,386.6,726L386.6,726z M386.6,730.7h-0.8
		v-3.6h0.7c0.6,0,1.3,0.5,1.3,1.8C387.9,730.2,387.3,730.7,386.6,730.7z"/>
	<path class="st1" d="M360.5,728.7c0.2-0.3,0.3-0.6,0.3-0.9c0-1-0.8-1.7-1.7-1.7h-2v6.1h2.3c1.1,0,1.9-0.9,1.9-1.9
		C361.2,729.6,361,729,360.5,728.7L360.5,728.7z M358.2,727.2h0.8c0.3,0,0.5,0.2,0.5,0.5s-0.2,0.5-0.5,0.5h-0.8V727.2z M359.3,730.9
		h-1.1v-1.4h1.1c0.4,0,0.7,0.3,0.7,0.7S359.7,730.9,359.3,730.9z"/>
	<path class="st1" d="M367.5,727.9c0-1-0.9-1.9-2-1.9h-1.9v6.1h1.2v-2l1.8,2.2l0.9-0.8l-1.5-1.8
		C366.9,729.4,367.5,728.7,367.5,727.9L367.5,727.9z M364.8,727.2h0.7c0.4,0,0.7,0.3,0.7,0.7s-0.3,0.7-0.7,0.7h-0.7V727.2z"/>
</g>
<g>
	<g>
		<path class="st8" d="M541.8,47.6c-1.1-2.1-4.9-3.5-11.4-4.3c-3.6-0.4-10.1-0.8-14.2,1.3c-18.4,9.6-33.4,24.6-46,38.5l-7.1-12.6
			c-0.5-0.9-1.7-3-11.8-3.8c-3.6-0.3-10-0.5-13,1.1c-2.1,1.2-2.8,3.5-1.7,5.5l17.6,31.6c0.8,1.4,2.4,2.7,9.5,3.6
			c1,0.1,2.3,0.2,3.8,0.3c4.6,0.3,10.7,0.2,12.7-2c2.2-2.4,4.4-4.9,6.5-7.3c15.9-17.7,32.3-36.1,53.3-47
			C542.3,51.3,542.6,49.1,541.8,47.6z"/>
		<path class="st1" d="M538.1,42.7c-1.2-2-5.1-3.2-11.7-3.6c-3.6-0.2-10.2-0.2-14.1,2.2c-17.8,10.7-31.8,26.5-43.6,41.2l-7.8-12.2
			c-0.5-0.9-1.8-2.9-12-3.1c-3.6-0.1-10,0.1-12.9,1.9c-2,1.3-2.6,3.7-1.4,5.6l19.5,30.5c0.8,1.3,2.6,2.6,9.7,3
			c1,0.1,2.3,0.1,3.8,0.1c4.6,0,10.6-0.5,12.5-2.8c2-2.5,4.1-5.1,6.1-7.6c14.7-18.7,30-38,50.3-50.2C538.7,46.4,539,44.2,538.1,42.7
			z"/>
		<path class="st9" d="M513.9,43.8c-18.2,10.9-32.2,27.2-45.4,43.7c-3.3-5.2-6.7-10.4-10-15.7c-1.5-2.3-23.7-2.6-21.2,1.3
			c6.5,10.2,13,20.3,19.5,30.5c1.4,2.2,19.4,2.3,21.2,0c16.9-21.2,33.5-44.4,57.1-58.5C538.9,42.8,519.9,40.2,513.9,43.8z"/>
	</g>
</g>
<g>
	<g>
		<path class="st8" d="M774.8,225.6c-1.1-2.1-4.9-3.5-11.4-4.3c-3.6-0.4-10.1-0.8-14.2,1.3c-18.4,9.6-33.4,24.6-46,38.5l-7.1-12.6
			c-0.5-0.9-1.7-3-11.8-3.8c-3.6-0.3-10-0.5-13,1.1c-2.1,1.2-2.8,3.5-1.7,5.5l17.6,31.6c0.8,1.4,2.4,2.7,9.5,3.6
			c1,0.1,2.3,0.2,3.8,0.3c4.6,0.3,10.7,0.2,12.7-2c2.2-2.4,4.4-4.9,6.5-7.3c15.8-17.8,32.2-36.1,53.2-47.1
			C775.3,229.3,775.6,227.1,774.8,225.6z"/>
		<path class="st1" d="M771.1,220.7c-1.2-2-5.1-3.2-11.7-3.6c-3.6-0.2-10.2-0.2-14.1,2.2c-17.8,10.7-31.8,26.5-43.6,41.2l-7.8-12.2
			c-0.5-0.9-1.8-2.9-12-3.1c-3.6-0.1-10,0.1-12.9,1.9c-2,1.3-2.6,3.7-1.4,5.6l19.5,30.5c0.8,1.3,2.6,2.6,9.7,3
			c1,0.1,2.3,0.1,3.8,0.1c4.6,0,10.6-0.5,12.5-2.8c2-2.5,4.1-5.1,6.1-7.6c14.7-18.7,30-38,50.3-50.2
			C771.7,224.4,772,222.2,771.1,220.7z"/>
		<path class="st9" d="M746.9,221.8c-18.2,10.9-32.2,27.2-45.4,43.7c-3.3-5.2-6.7-10.4-10-15.7c-1.5-2.3-23.7-2.6-21.2,1.3
			c6.5,10.2,13,20.3,19.5,30.5c1.4,2.2,19.4,2.3,21.2,0c16.9-21.2,33.5-44.4,57.1-58.5C771.9,220.8,752.9,218.2,746.9,221.8z"/>
	</g>
</g>
<g>
	<g>
		<path class="st8" d="M731.8,413.6c-1.1-2.1-4.9-3.5-11.4-4.3c-3.6-0.4-10.1-0.8-14.2,1.3c-18.4,9.6-33.4,24.6-46,38.5l-7.1-12.6
			c-0.5-0.9-1.7-3-11.8-3.8c-3.6-0.3-10-0.5-13,1.1c-2.1,1.2-2.8,3.5-1.7,5.5l17.6,31.6c0.8,1.4,2.4,2.7,9.5,3.6
			c1,0.1,2.3,0.2,3.8,0.3c4.6,0.3,10.7,0.2,12.7-2c2.2-2.4,4.4-4.9,6.5-7.3c15.8-17.8,32.2-36.1,53.2-47.1
			C732.3,417.3,732.6,415.1,731.8,413.6z"/>
		<path class="st1" d="M728.1,408.7c-1.2-2-5.1-3.2-11.7-3.6c-3.6-0.2-10.2-0.2-14.1,2.2c-17.8,10.7-31.8,26.5-43.6,41.2l-7.8-12.2
			c-0.5-0.9-1.8-2.9-12-3.1c-3.6-0.1-10,0.1-12.9,1.9c-2,1.3-2.6,3.7-1.4,5.6l19.5,30.5c0.8,1.3,2.6,2.6,9.7,3
			c1,0.1,2.3,0.1,3.8,0.1c4.6,0,10.6-0.5,12.5-2.8c2-2.5,4.1-5.1,6.1-7.6c14.7-18.7,30-38,50.3-50.2
			C728.7,412.4,729,410.2,728.1,408.7z"/>
		<path class="st9" d="M703.9,409.8c-18.2,10.9-32.2,27.2-45.4,43.7c-3.3-5.2-6.7-10.4-10-15.7c-1.5-2.3-23.7-2.6-21.2,1.3
			c6.5,10.2,13,20.3,19.5,30.5c1.4,2.2,19.4,2.3,21.2,0c16.9-21.2,33.5-44.4,57.1-58.5C728.9,408.8,709.9,406.2,703.9,409.8z"/>
	</g>
</g>
<g>
	<g>
		<path class="st8" d="M759.8,560.6c-1.1-2.1-4.9-3.5-11.4-4.3c-3.6-0.4-10.1-0.8-14.2,1.3c-18.4,9.6-33.4,24.6-46,38.5l-7.1-12.6
			c-0.5-0.9-1.7-3-11.8-3.8c-3.6-0.3-10-0.5-13,1.1c-2.1,1.2-2.8,3.5-1.7,5.5l17.6,31.6c0.8,1.4,2.4,2.7,9.5,3.6
			c1,0.1,2.3,0.2,3.8,0.3c4.6,0.3,10.7,0.2,12.7-2c2.2-2.4,4.4-4.9,6.5-7.3c15.8-17.8,32.2-36.1,53.2-47.1
			C760.3,564.3,760.6,562.1,759.8,560.6z"/>
		<path class="st1" d="M756.1,555.7c-1.2-2-5.1-3.2-11.7-3.6c-3.6-0.2-10.2-0.2-14.1,2.2c-17.8,10.7-31.8,26.5-43.6,41.2l-7.8-12.2
			c-0.5-0.9-1.8-2.9-12-3.1c-3.6-0.1-10,0.1-12.9,1.9c-2,1.3-2.6,3.7-1.4,5.6l19.5,30.5c0.8,1.3,2.6,2.6,9.7,3
			c1,0.1,2.3,0.1,3.8,0.1c4.6,0,10.6-0.5,12.5-2.8c2-2.5,4.1-5.1,6.1-7.6c14.7-18.7,30-38,50.3-50.2
			C756.7,559.4,757,557.2,756.1,555.7z"/>
		<path class="st9" d="M731.9,556.8c-18.2,10.9-32.2,27.2-45.4,43.7c-3.3-5.2-6.7-10.4-10-15.7c-1.5-2.3-23.7-2.6-21.2,1.3
			c6.5,10.2,13,20.3,19.5,30.5c1.4,2.2,19.4,2.3,21.2,0c16.9-21.2,33.5-44.4,57.1-58.5C756.9,555.8,737.9,553.2,731.9,556.8z"/>
	</g>
</g>
<g>
	<g>
		<path class="st8" d="M859.8,705.6c-1.1-2.1-4.9-3.5-11.4-4.3c-3.6-0.4-10.1-0.8-14.2,1.3c-18.4,9.6-33.4,24.6-46,38.5l-7.1-12.6
			c-0.5-0.9-1.7-3-11.8-3.8c-3.6-0.3-10-0.5-13,1.1c-2.1,1.2-2.8,3.5-1.7,5.5l17.6,31.6c0.8,1.4,2.4,2.7,9.5,3.6
			c1,0.1,2.3,0.2,3.8,0.3c4.6,0.3,10.7,0.2,12.7-2c2.2-2.4,4.4-4.9,6.5-7.3c15.8-17.8,32.2-36.1,53.2-47.1
			C860.3,709.3,860.6,707.1,859.8,705.6z"/>
		<path class="st1" d="M856.1,700.7c-1.2-2-5.1-3.2-11.7-3.6c-3.6-0.2-10.2-0.2-14.1,2.2c-17.8,10.7-31.8,26.5-43.6,41.2l-7.8-12.2
			c-0.5-0.9-1.8-2.9-12-3.1c-3.6-0.1-10,0.1-12.9,1.9c-2,1.3-2.6,3.7-1.4,5.6l19.5,30.5c0.8,1.3,2.6,2.6,9.7,3
			c1,0.1,2.3,0.1,3.8,0.1c4.6,0,10.6-0.5,12.5-2.8c2-2.5,4.1-5.1,6.1-7.6c14.7-18.7,30-38,50.3-50.2
			C856.7,704.4,857,702.2,856.1,700.7z"/>
		<path class="st9" d="M831.9,701.8c-18.2,10.9-32.2,27.2-45.4,43.7c-3.3-5.2-6.7-10.4-10-15.7c-1.5-2.3-23.7-2.6-21.2,1.3
			c6.5,10.2,13,20.3,19.5,30.5c1.4,2.2,19.4,2.3,21.2,0c16.9-21.2,33.5-44.4,57.1-58.5C856.9,700.8,837.9,698.2,831.9,701.8z"/>
	</g>
</g>
<g>
	<path class="st10" d="M431.5,451c0,0.2-0.1,0.3-0.2,0.5s-0.4,0.2-0.6,0.2s-0.7,0.1-1.3,0.1c-0.6,0-1.1,0-1.3-0.1s-0.5-0.1-0.6-0.2
		s-0.2-0.3-0.2-0.5v-1.5c-0.8,0.8-1.6,1.4-2.6,1.9s-2,0.7-3.2,0.7c-1,0-1.9-0.1-2.7-0.4c-0.8-0.3-1.5-0.6-2.1-1.1s-1.1-1.1-1.4-1.9
		s-0.5-1.6-0.5-2.6c0-1.1,0.2-2,0.6-2.8s1-1.4,1.9-1.9c0.8-0.5,1.9-0.9,3.1-1.1s2.7-0.4,4.3-0.4h1.8v-1.1c0-0.6-0.1-1.1-0.2-1.5
		c-0.1-0.4-0.3-0.8-0.6-1.1s-0.6-0.5-1.1-0.6s-1-0.2-1.7-0.2c-0.9,0-1.6,0.1-2.3,0.3s-1.3,0.4-1.8,0.6s-1,0.4-1.3,0.6
		s-0.6,0.3-0.9,0.3c-0.2,0-0.3,0-0.4-0.1s-0.2-0.2-0.3-0.4s-0.1-0.4-0.2-0.7s-0.1-0.5-0.1-0.9c0-0.4,0-0.8,0.1-1s0.2-0.5,0.4-0.7
		s0.5-0.4,1-0.7s1-0.5,1.7-0.7s1.3-0.4,2.1-0.5c0.8-0.1,1.5-0.2,2.3-0.2c1.4,0,2.7,0.1,3.7,0.4s1.9,0.7,2.5,1.3
		c0.7,0.6,1.1,1.3,1.4,2.2s0.5,2,0.5,3.3V451z M426.4,443.1h-2c-0.8,0-1.5,0.1-2.1,0.2s-1.1,0.3-1.4,0.6s-0.6,0.5-0.8,0.9
		c-0.2,0.3-0.3,0.7-0.3,1.2c0,0.8,0.2,1.4,0.7,1.8s1.2,0.7,2,0.7c0.7,0,1.4-0.2,2-0.6s1.2-0.9,1.9-1.6V443.1z"/>
	<path class="st10" d="M454,450.9c0,0.1,0,0.3-0.1,0.4c-0.1,0.1-0.2,0.2-0.4,0.3s-0.4,0.1-0.7,0.2c-0.3,0-0.6,0.1-1.1,0.1
		c-0.5,0-0.8,0-1.1-0.1c-0.3,0-0.5-0.1-0.7-0.2s-0.3-0.2-0.3-0.3c-0.1-0.1-0.1-0.2-0.1-0.4v-2.1c-1,1.1-2,1.9-3.1,2.5
		s-2.1,0.8-3.3,0.8c-1.3,0-2.3-0.2-3.2-0.6s-1.5-1-2.1-1.7s-0.9-1.5-1.1-2.5c-0.2-0.9-0.3-2.1-0.3-3.5v-11.2c0-0.1,0-0.3,0.1-0.4
		c0.1-0.1,0.2-0.2,0.4-0.3s0.5-0.1,0.8-0.2c0.3,0,0.7-0.1,1.2-0.1c0.5,0,0.9,0,1.3,0.1c0.3,0,0.6,0.1,0.8,0.2s0.3,0.2,0.4,0.3
		c0.1,0.1,0.1,0.2,0.1,0.4v10.3c0,1,0.1,1.7,0.2,2.2s0.3,0.9,0.6,1.3c0.3,0.4,0.6,0.6,1,0.8s0.8,0.3,1.4,0.3c0.7,0,1.3-0.2,2-0.7
		s1.4-1.2,2.1-2.1v-12.2c0-0.1,0-0.3,0.1-0.4c0.1-0.1,0.2-0.2,0.4-0.3s0.5-0.1,0.8-0.2c0.3,0,0.7-0.1,1.3-0.1s0.9,0,1.3,0.1
		c0.3,0,0.6,0.1,0.8,0.2s0.3,0.2,0.4,0.3c0.1,0.1,0.1,0.2,0.1,0.4V450.9z"/>
	<path class="st10" d="M470,449.1c0,0.6,0,1.1-0.1,1.4s-0.2,0.5-0.3,0.7c-0.1,0.1-0.3,0.2-0.5,0.3c-0.2,0.1-0.5,0.2-0.8,0.3
		s-0.7,0.1-1,0.2s-0.8,0.1-1.1,0.1c-1,0-1.9-0.1-2.7-0.4s-1.4-0.7-1.9-1.2c-0.5-0.5-0.9-1.2-1.1-2s-0.3-1.8-0.3-2.9v-9.4h-2.2
		c-0.3,0-0.5-0.2-0.6-0.5c-0.1-0.3-0.2-0.9-0.2-1.6c0-0.4,0-0.7,0.1-1s0.1-0.5,0.2-0.6s0.2-0.3,0.3-0.3s0.2-0.1,0.4-0.1h2.2v-4.1
		c0-0.1,0-0.3,0.1-0.4s0.2-0.2,0.4-0.3s0.5-0.1,0.8-0.2s0.7-0.1,1.2-0.1c0.5,0,0.9,0,1.3,0.1s0.6,0.1,0.8,0.2s0.3,0.2,0.4,0.3
		s0.1,0.2,0.1,0.4v4.1h4c0.1,0,0.3,0,0.4,0.1s0.2,0.2,0.3,0.3s0.1,0.4,0.2,0.6s0.1,0.6,0.1,1c0,0.8-0.1,1.3-0.2,1.6
		c-0.1,0.3-0.3,0.5-0.6,0.5h-4v8.6c0,1,0.2,1.7,0.5,2.2c0.3,0.5,0.9,0.7,1.7,0.7c0.3,0,0.5,0,0.7-0.1s0.4-0.1,0.6-0.2
		c0.2-0.1,0.3-0.1,0.4-0.2s0.2-0.1,0.3-0.1c0.1,0,0.2,0,0.2,0.1s0.1,0.1,0.2,0.3c0,0.1,0.1,0.3,0.1,0.6S470,448.7,470,449.1z"/>
	<path class="st10" d="M491.8,441.6c0,1.6-0.2,3-0.6,4.3s-1,2.4-1.9,3.3s-1.9,1.6-3.1,2.2s-2.7,0.8-4.4,0.8c-1.6,0-3-0.2-4.2-0.7
		s-2.2-1.1-3-2s-1.4-1.9-1.8-3.2s-0.6-2.7-0.6-4.3c0-1.6,0.2-3,0.6-4.3c0.4-1.3,1-2.4,1.9-3.3c0.8-0.9,1.9-1.6,3.1-2.1
		s2.7-0.8,4.4-0.8c1.6,0,3.1,0.2,4.3,0.7s2.2,1.1,3,2s1.4,1.9,1.8,3.2S491.8,439.9,491.8,441.6z M486.5,441.8c0-0.9-0.1-1.7-0.2-2.5
		c-0.1-0.8-0.4-1.4-0.7-2s-0.8-1-1.4-1.3s-1.3-0.5-2.1-0.5c-0.8,0-1.4,0.1-2,0.4c-0.6,0.3-1,0.7-1.4,1.2c-0.4,0.5-0.6,1.2-0.8,1.9
		c-0.2,0.8-0.3,1.6-0.3,2.6c0,0.9,0.1,1.7,0.2,2.5c0.2,0.8,0.4,1.4,0.7,2s0.8,1,1.4,1.3c0.6,0.3,1.3,0.5,2.1,0.5
		c0.8,0,1.5-0.1,2-0.4s1-0.7,1.4-1.2s0.6-1.2,0.8-1.9C486.4,443.6,486.5,442.7,486.5,441.8z"/>
	<path class="st10" d="M525,450.9c0,0.1,0,0.3-0.1,0.4c-0.1,0.1-0.2,0.2-0.4,0.3s-0.5,0.1-0.8,0.2c-0.3,0-0.7,0.1-1.3,0.1
		c-0.5,0-0.9,0-1.3-0.1c-0.3,0-0.6-0.1-0.8-0.2s-0.3-0.2-0.4-0.3c-0.1-0.1-0.1-0.2-0.1-0.4v-10.8c0-0.6-0.1-1.2-0.2-1.7
		s-0.3-0.9-0.5-1.3s-0.5-0.6-0.9-0.8c-0.4-0.2-0.8-0.3-1.3-0.3c-0.6,0-1.2,0.2-1.9,0.7s-1.3,1.2-2.1,2.1v12.2c0,0.1,0,0.3-0.1,0.4
		c-0.1,0.1-0.2,0.2-0.4,0.3s-0.5,0.1-0.8,0.2c-0.3,0-0.7,0.1-1.2,0.1c-0.5,0-0.9,0-1.3-0.1c-0.3,0-0.6-0.1-0.8-0.2s-0.3-0.2-0.4-0.3
		c-0.1-0.1-0.1-0.2-0.1-0.4v-10.8c0-0.6-0.1-1.2-0.2-1.7s-0.3-0.9-0.5-1.3s-0.5-0.6-0.9-0.8c-0.4-0.2-0.8-0.3-1.3-0.3
		c-0.6,0-1.3,0.2-1.9,0.7s-1.3,1.2-2,2.1v12.2c0,0.1,0,0.3-0.1,0.4c-0.1,0.1-0.2,0.2-0.4,0.3s-0.5,0.1-0.8,0.2
		c-0.3,0-0.7,0.1-1.3,0.1s-0.9,0-1.3-0.1c-0.3,0-0.6-0.1-0.8-0.2s-0.3-0.2-0.4-0.3c-0.1-0.1-0.1-0.2-0.1-0.4v-18.3
		c0-0.1,0-0.3,0.1-0.4c0.1-0.1,0.2-0.2,0.4-0.3s0.4-0.1,0.7-0.2c0.3,0,0.6-0.1,1.1-0.1c0.4,0,0.8,0,1.1,0.1c0.3,0,0.5,0.1,0.7,0.2
		s0.3,0.2,0.3,0.3c0.1,0.1,0.1,0.2,0.1,0.4v2.1c1-1.1,2-1.9,3-2.5s2.1-0.8,3.1-0.8c0.8,0,1.4,0.1,2,0.2c0.6,0.2,1.1,0.4,1.6,0.7
		s0.9,0.6,1.2,1.1s0.6,0.9,0.9,1.4c0.5-0.6,1.1-1.1,1.6-1.5s1-0.8,1.6-1c0.5-0.3,1-0.5,1.5-0.6c0.5-0.1,1-0.2,1.6-0.2
		c1.2,0,2.2,0.2,3.1,0.6s1.5,1,2,1.7c0.5,0.7,0.9,1.5,1.1,2.5s0.3,1.9,0.3,3V450.9z"/>
	<path class="st10" d="M545.6,451c0,0.2-0.1,0.3-0.2,0.5s-0.4,0.2-0.6,0.2s-0.7,0.1-1.3,0.1c-0.6,0-1.1,0-1.3-0.1s-0.5-0.1-0.6-0.2
		s-0.2-0.3-0.2-0.5v-1.5c-0.8,0.8-1.6,1.4-2.6,1.9s-2,0.7-3.2,0.7c-1,0-1.9-0.1-2.7-0.4c-0.8-0.3-1.5-0.6-2.1-1.1s-1.1-1.1-1.4-1.9
		s-0.5-1.6-0.5-2.6c0-1.1,0.2-2,0.6-2.8s1-1.4,1.9-1.9c0.8-0.5,1.9-0.9,3.1-1.1s2.7-0.4,4.3-0.4h1.8v-1.1c0-0.6-0.1-1.1-0.2-1.5
		c-0.1-0.4-0.3-0.8-0.6-1.1s-0.6-0.5-1.1-0.6s-1-0.2-1.7-0.2c-0.9,0-1.6,0.1-2.3,0.3s-1.3,0.4-1.8,0.6s-1,0.4-1.3,0.6
		s-0.6,0.3-0.9,0.3c-0.2,0-0.3,0-0.4-0.1s-0.2-0.2-0.3-0.4s-0.1-0.4-0.2-0.7s-0.1-0.5-0.1-0.9c0-0.4,0-0.8,0.1-1s0.2-0.5,0.4-0.7
		s0.5-0.4,1-0.7s1-0.5,1.7-0.7s1.3-0.4,2.1-0.5c0.8-0.1,1.5-0.2,2.3-0.2c1.4,0,2.7,0.1,3.7,0.4s1.9,0.7,2.5,1.3
		c0.7,0.6,1.1,1.3,1.4,2.2s0.5,2,0.5,3.3V451z M540.6,443.1h-2c-0.8,0-1.5,0.1-2.1,0.2s-1.1,0.3-1.4,0.6s-0.6,0.5-0.8,0.9
		c-0.2,0.3-0.3,0.7-0.3,1.2c0,0.8,0.2,1.4,0.7,1.8s1.2,0.7,2,0.7c0.7,0,1.4-0.2,2-0.6s1.2-0.9,1.9-1.6V443.1z"/>
	<path class="st10" d="M568.3,431.9c0.6,0,1,0.1,1.2,0.4s0.3,0.6,0.3,1.1v17.6c0,0.1,0,0.3-0.1,0.4c-0.1,0.1-0.2,0.2-0.4,0.3
		s-0.5,0.1-0.8,0.2c-0.3,0-0.7,0.1-1.2,0.1c-0.5,0-0.9,0-1.3-0.1c-0.3,0-0.6-0.1-0.8-0.2s-0.3-0.2-0.4-0.3c-0.1-0.1-0.1-0.2-0.1-0.4
		v-14.8h-8.2v8.6c0,1,0.2,1.7,0.5,2.2c0.3,0.5,0.9,0.7,1.7,0.7c0.3,0,0.5,0,0.7-0.1s0.4-0.1,0.6-0.2c0.2-0.1,0.3-0.1,0.4-0.2
		s0.2-0.1,0.3-0.1c0.1,0,0.2,0,0.2,0.1s0.1,0.1,0.2,0.3c0,0.1,0.1,0.3,0.1,0.6s0.1,0.6,0.1,0.9c0,0.6,0,1.1-0.1,1.4
		c-0.1,0.3-0.2,0.5-0.3,0.7c-0.1,0.1-0.3,0.3-0.6,0.4c-0.2,0.1-0.5,0.2-0.9,0.3s-0.7,0.1-1,0.2s-0.8,0.1-1.1,0.1
		c-1,0-1.9-0.1-2.7-0.4s-1.4-0.7-1.9-1.2c-0.5-0.5-0.9-1.2-1.1-2s-0.3-1.8-0.3-2.9v-9.4h-2.2c-0.3,0-0.5-0.2-0.6-0.5
		c-0.1-0.3-0.2-0.9-0.2-1.6c0-0.4,0-0.7,0.1-1s0.1-0.5,0.2-0.6s0.2-0.3,0.3-0.3s0.2-0.1,0.4-0.1h2.2v-4.1c0-0.1,0-0.3,0.1-0.4
		s0.2-0.2,0.4-0.3s0.5-0.1,0.8-0.2s0.7-0.1,1.2-0.1c0.5,0,0.9,0,1.3,0.1s0.6,0.1,0.8,0.2s0.3,0.2,0.4,0.3s0.1,0.2,0.1,0.4v4.1H568.3
		z M570.2,426.4c0,1-0.2,1.8-0.6,2.2s-1.2,0.6-2.4,0.6c-1.2,0-1.9-0.2-2.3-0.6s-0.6-1.1-0.6-2.1c0-1,0.2-1.8,0.6-2.2
		s1.2-0.6,2.4-0.6c1.1,0,1.9,0.2,2.3,0.6C570,424.7,570.2,425.4,570.2,426.4z"/>
	<path class="st10" d="M593.5,441.6c0,1.6-0.2,3-0.6,4.3s-1,2.4-1.9,3.3s-1.9,1.6-3.1,2.2s-2.7,0.8-4.4,0.8c-1.6,0-3-0.2-4.2-0.7
		s-2.2-1.1-3-2s-1.4-1.9-1.8-3.2s-0.6-2.7-0.6-4.3c0-1.6,0.2-3,0.6-4.3c0.4-1.3,1-2.4,1.9-3.3c0.8-0.9,1.9-1.6,3.1-2.1
		s2.7-0.8,4.4-0.8c1.6,0,3.1,0.2,4.3,0.7s2.2,1.1,3,2s1.4,1.9,1.8,3.2S593.5,439.9,593.5,441.6z M588.2,441.8c0-0.9-0.1-1.7-0.2-2.5
		c-0.1-0.8-0.4-1.4-0.7-2s-0.8-1-1.4-1.3s-1.3-0.5-2.1-0.5c-0.8,0-1.4,0.1-2,0.4c-0.6,0.3-1,0.7-1.4,1.2c-0.4,0.5-0.6,1.2-0.8,1.9
		c-0.2,0.8-0.3,1.6-0.3,2.6c0,0.9,0.1,1.7,0.2,2.5c0.2,0.8,0.4,1.4,0.7,2s0.8,1,1.4,1.3c0.6,0.3,1.3,0.5,2.1,0.5
		c0.8,0,1.5-0.1,2-0.4s1-0.7,1.4-1.2s0.6-1.2,0.8-1.9C588.1,443.6,588.2,442.7,588.2,441.8z"/>
	<path class="st10" d="M615,450.9c0,0.1,0,0.3-0.1,0.4c-0.1,0.1-0.2,0.2-0.4,0.3s-0.5,0.1-0.8,0.2c-0.3,0-0.7,0.1-1.2,0.1
		c-0.5,0-0.9,0-1.3-0.1c-0.3,0-0.6-0.1-0.8-0.2s-0.3-0.2-0.4-0.3c-0.1-0.1-0.1-0.2-0.1-0.4v-10.4c0-0.9-0.1-1.6-0.2-2.1
		s-0.3-0.9-0.6-1.3s-0.6-0.6-1-0.8c-0.4-0.2-0.8-0.3-1.4-0.3c-0.7,0-1.3,0.2-2,0.7s-1.4,1.2-2.1,2.1v12.2c0,0.1,0,0.3-0.1,0.4
		c-0.1,0.1-0.2,0.2-0.4,0.3s-0.5,0.1-0.8,0.2c-0.3,0-0.7,0.1-1.3,0.1s-0.9,0-1.3-0.1c-0.3,0-0.6-0.1-0.8-0.2s-0.3-0.2-0.4-0.3
		c-0.1-0.1-0.1-0.2-0.1-0.4v-18.3c0-0.1,0-0.3,0.1-0.4c0.1-0.1,0.2-0.2,0.4-0.3s0.4-0.1,0.7-0.2c0.3,0,0.6-0.1,1.1-0.1
		c0.4,0,0.8,0,1.1,0.1c0.3,0,0.5,0.1,0.7,0.2s0.3,0.2,0.3,0.3c0.1,0.1,0.1,0.2,0.1,0.4v2.1c1-1.1,2-1.9,3.1-2.5s2.1-0.8,3.3-0.8
		c1.2,0,2.3,0.2,3.1,0.6s1.5,1,2.1,1.7c0.5,0.7,0.9,1.5,1.1,2.5s0.3,2.1,0.3,3.4V450.9z"/>
</g>
</svg>
